TIME_SHIFT_64ND_18
NOTE_ON_73
NOTE_ON_68
NOTE_ON_65
TIME_SHIFT_64ND_9
NOTE_OFF_73
NOTE_OFF_68
NOTE_OFF_65
NOTE_ON_68
NOTE_ON_72
NOTE_ON_63
TIME_SHIFT_64ND_18
NOTE_ON_67
NOTE_ON_70
NOTE_ON_61
NOTE_OFF_68
NOTE_OFF_72
NOTE_OFF_63
TIME_SHIFT_64ND_9
NOTE_OFF_67
NOTE_OFF_70
NOTE_OFF_61
NOTE_ON_75
NOTE_ON_68
NOTE_ON_60
TIME_SHIFT_64ND_2
NOTE_OFF_75
NOTE_OFF_68
NOTE_OFF_60
TIME_SHIFT_64ND_17
NOTE_ON_73
NOTE_ON_65
NOTE_ON_58
NOTE_ON_49
TIME_SHIFT_64ND_2
NOTE_OFF_73
NOTE_OFF_65
NOTE_OFF_58
NOTE_OFF_49
TIME_SHIFT_64ND_7
NOTE_ON_72
NOTE_ON_68
NOTE_ON_51
NOTE_ON_63
TIME_SHIFT_64ND_2
NOTE_OFF_72
NOTE_OFF_68
NOTE_OFF_51
NOTE_OFF_63
TIME_SHIFT_64ND_16
NOTE_ON_70
NOTE_ON_67
NOTE_ON_61
NOTE_ON_51
TIME_SHIFT_64ND_2
NOTE_OFF_70
NOTE_OFF_67
NOTE_OFF_61
NOTE_OFF_51
TIME_SHIFT_64ND_7
NOTE_ON_68
NOTE_ON_60
NOTE_ON_56
TIME_SHIFT_64ND_2
NOTE_OFF_68
NOTE_OFF_60
NOTE_OFF_56
TIME_SHIFT_64ND_17
NOTE_ON_78
NOTE_ON_73
NOTE_ON_70
TIME_SHIFT_64ND_9
NOTE_OFF_78
NOTE_OFF_73
NOTE_OFF_70
NOTE_ON_77
NOTE_ON_73
NOTE_ON_68
TIME_SHIFT_64ND_18
NOTE_OFF_77
NOTE_OFF_73
NOTE_OFF_68
NOTE_ON_75
NOTE_ON_72
NOTE_ON_66
TIME_SHIFT_64ND_9
NOTE_OFF_75
NOTE_OFF_72
NOTE_OFF_66
NOTE_ON_80
NOTE_ON_73
NOTE_ON_65
TIME_SHIFT_64ND_2
NOTE_OFF_80
NOTE_OFF_73
NOTE_OFF_65
TIME_SHIFT_64ND_17
NOTE_ON_78
NOTE_ON_70
NOTE_ON_63
NOTE_ON_54
TIME_SHIFT_64ND_2
NOTE_OFF_78
NOTE_OFF_70
NOTE_OFF_63
NOTE_OFF_54
TIME_SHIFT_64ND_7
NOTE_ON_77
NOTE_ON_73
NOTE_ON_68
NOTE_ON_56
TIME_SHIFT_64ND_2
NOTE_OFF_77
NOTE_OFF_73
NOTE_OFF_68
NOTE_OFF_56
TIME_SHIFT_64ND_16
NOTE_ON_75
NOTE_ON_72
NOTE_ON_66
NOTE_ON_56
TIME_SHIFT_64ND_2
NOTE_OFF_75
NOTE_OFF_72
NOTE_OFF_66
NOTE_OFF_56
TIME_SHIFT_64ND_7
NOTE_ON_73
NOTE_ON_65
NOTE_ON_61
TIME_SHIFT_64ND_2
NOTE_OFF_73
NOTE_OFF_65
NOTE_OFF_61
TIME_SHIFT_64ND_17
NOTE_ON_73
NOTE_ON_61
NOTE_ON_56
NOTE_ON_53
TIME_SHIFT_64ND_9
NOTE_OFF_56
NOTE_OFF_53
NOTE_ON_56
NOTE_ON_51
TIME_SHIFT_64ND_9
NOTE_OFF_73
NOTE_OFF_61
NOTE_ON_72
NOTE_ON_60
TIME_SHIFT_64ND_9
NOTE_OFF_72
NOTE_OFF_60
NOTE_OFF_56
NOTE_OFF_51
NOTE_ON_58
NOTE_ON_70
NOTE_ON_49
NOTE_ON_55
TIME_SHIFT_64ND_9
NOTE_OFF_58
NOTE_OFF_49
NOTE_OFF_55
NOTE_ON_63
NOTE_ON_60
NOTE_ON_48
TIME_SHIFT_64ND_9
NOTE_OFF_63
NOTE_OFF_70
NOTE_OFF_60
NOTE_OFF_48
NOTE_ON_75
TIME_SHIFT_64ND_2
NOTE_OFF_75
TIME_SHIFT_64ND_7
NOTE_ON_65
NOTE_ON_73
NOTE_ON_58
NOTE_ON_49
TIME_SHIFT_64ND_5
NOTE_OFF_58
NOTE_OFF_49
TIME_SHIFT_64ND_5
NOTE_OFF_65
NOTE_ON_68
NOTE_ON_63
NOTE_ON_51
TIME_SHIFT_64ND_5
NOTE_OFF_63
NOTE_OFF_51
TIME_SHIFT_64ND_5
NOTE_OFF_68
NOTE_OFF_73
NOTE_ON_72
TIME_SHIFT_64ND_9
NOTE_OFF_72
NOTE_ON_67
NOTE_ON_70
NOTE_ON_61
NOTE_ON_51
TIME_SHIFT_64ND_5
NOTE_OFF_61
NOTE_OFF_51
TIME_SHIFT_64ND_5
NOTE_OFF_67
NOTE_ON_60
NOTE_ON_56
TIME_SHIFT_64ND_5
NOTE_OFF_60
NOTE_OFF_56
TIME_SHIFT_64ND_5
NOTE_OFF_70
NOTE_ON_68
TIME_SHIFT_64ND_5
NOTE_OFF_68
TIME_SHIFT_64ND_5
NOTE_ON_78
NOTE_ON_66
NOTE_ON_61
NOTE_ON_58
TIME_SHIFT_64ND_9
NOTE_OFF_61
NOTE_OFF_58
NOTE_ON_61
NOTE_ON_56
TIME_SHIFT_64ND_9
NOTE_OFF_78
NOTE_OFF_66
NOTE_ON_77
NOTE_ON_65
TIME_SHIFT_64ND_9
NOTE_OFF_77
NOTE_OFF_65
NOTE_OFF_61
NOTE_OFF_56
NOTE_ON_63
NOTE_ON_75
NOTE_ON_60
NOTE_ON_54
TIME_SHIFT_64ND_9
NOTE_OFF_63
NOTE_OFF_60
NOTE_OFF_54
NOTE_ON_68
NOTE_ON_65
NOTE_ON_53
TIME_SHIFT_64ND_9
NOTE_OFF_68
NOTE_OFF_75
NOTE_OFF_65
NOTE_OFF_53
NOTE_ON_80
TIME_SHIFT_64ND_2
NOTE_OFF_80
TIME_SHIFT_64ND_7
NOTE_ON_70
NOTE_ON_78
NOTE_ON_63
NOTE_ON_54
TIME_SHIFT_64ND_5
NOTE_OFF_63
NOTE_OFF_54
TIME_SHIFT_64ND_5
NOTE_OFF_70
NOTE_ON_73
NOTE_ON_68
NOTE_ON_56
TIME_SHIFT_64ND_5
NOTE_OFF_68
NOTE_OFF_56
TIME_SHIFT_64ND_5
NOTE_OFF_73
NOTE_OFF_78
NOTE_ON_77
TIME_SHIFT_64ND_9
NOTE_OFF_77
NOTE_ON_72
NOTE_ON_75
NOTE_ON_66
NOTE_ON_56
TIME_SHIFT_64ND_5
NOTE_OFF_66
NOTE_OFF_56
TIME_SHIFT_64ND_5
NOTE_OFF_72
NOTE_ON_65
NOTE_ON_61
TIME_SHIFT_64ND_5
NOTE_OFF_65
NOTE_OFF_61
TIME_SHIFT_64ND_5
NOTE_OFF_75
NOTE_ON_73
TIME_SHIFT_64ND_5
NOTE_OFF_73
TIME_SHIFT_64ND_5
NOTE_ON_65
NOTE_ON_73
NOTE_ON_61
TIME_SHIFT_64ND_9
NOTE_OFF_65
NOTE_OFF_73
NOTE_OFF_61
NOTE_ON_65
NOTE_ON_73
NOTE_ON_58
TIME_SHIFT_64ND_18
NOTE_OFF_65
NOTE_OFF_73
NOTE_OFF_58
NOTE_ON_73
NOTE_ON_65
NOTE_ON_56
TIME_SHIFT_64ND_9
NOTE_OFF_73
NOTE_OFF_65
NOTE_OFF_56
NOTE_ON_73
NOTE_ON_63
NOTE_ON_55
TIME_SHIFT_64ND_9
NOTE_OFF_73
NOTE_OFF_55
NOTE_ON_72
NOTE_ON_56
TIME_SHIFT_64ND_5
NOTE_OFF_72
NOTE_OFF_56
TIME_SHIFT_64ND_5
NOTE_OFF_63
NOTE_ON_71
NOTE_ON_63
NOTE_ON_56
TIME_SHIFT_64ND_9
NOTE_OFF_71
NOTE_OFF_63
NOTE_OFF_56
NOTE_ON_71
NOTE_ON_63
NOTE_ON_56
TIME_SHIFT_64ND_19
NOTE_OFF_71
NOTE_OFF_63
NOTE_OFF_56
NOTE_ON_71
NOTE_ON_63
NOTE_ON_54
TIME_SHIFT_64ND_9
NOTE_OFF_71
NOTE_OFF_63
NOTE_OFF_54
NOTE_ON_71
NOTE_ON_63
NOTE_ON_53
TIME_SHIFT_64ND_9
NOTE_OFF_71
NOTE_OFF_53
NOTE_ON_70
NOTE_ON_54
TIME_SHIFT_64ND_5
NOTE_OFF_70
NOTE_OFF_54
TIME_SHIFT_64ND_5
NOTE_OFF_63
NOTE_ON_70
NOTE_ON_61
NOTE_ON_54
TIME_SHIFT_64ND_9
NOTE_OFF_70
NOTE_OFF_61
NOTE_OFF_54
NOTE_ON_72
NOTE_ON_66
NOTE_ON_56
NOTE_ON_51
TIME_SHIFT_64ND_19
NOTE_OFF_72
NOTE_OFF_66
NOTE_OFF_56
NOTE_OFF_51
NOTE_ON_73
NOTE_ON_65
NOTE_ON_56
NOTE_ON_49
TIME_SHIFT_64ND_10
NOTE_OFF_73
NOTE_OFF_65
NOTE_OFF_56
NOTE_OFF_49
NOTE_ON_75
NOTE_ON_66
NOTE_ON_56
NOTE_ON_48
TIME_SHIFT_64ND_21
NOTE_OFF_75
NOTE_OFF_66
NOTE_ON_66
NOTE_ON_63
TIME_SHIFT_64ND_11
NOTE_OFF_56
NOTE_OFF_48
NOTE_ON_56
NOTE_ON_49
TIME_SHIFT_64ND_9
NOTE_OFF_66
NOTE_OFF_63
NOTE_ON_65
NOTE_ON_61
TIME_SHIFT_64ND_9
NOTE_OFF_65
NOTE_OFF_61
NOTE_OFF_56
NOTE_OFF_49
NOTE_ON_70
NOTE_ON_58
NOTE_ON_54
NOTE_ON_42
TIME_SHIFT_64ND_5
NOTE_OFF_70
NOTE_OFF_54
NOTE_ON_66
NOTE_ON_51
TIME_SHIFT_64ND_5
NOTE_OFF_66
NOTE_OFF_58
NOTE_OFF_51
NOTE_OFF_42
NOTE_ON_65
NOTE_ON_61
NOTE_ON_56
NOTE_ON_42
TIME_SHIFT_64ND_10
NOTE_OFF_65
NOTE_OFF_61
NOTE_ON_63
NOTE_ON_60
TIME_SHIFT_64ND_6
NOTE_OFF_63
NOTE_OFF_60
NOTE_OFF_56
NOTE_OFF_42
TIME_SHIFT_64ND_6
NOTE_ON_73
NOTE_ON_61
NOTE_ON_56
NOTE_ON_53
TIME_SHIFT_64ND_9
NOTE_OFF_73
NOTE_OFF_61
NOTE_OFF_56
NOTE_OFF_53
NOTE_ON_72
NOTE_ON_60
NOTE_ON_56
NOTE_ON_51
TIME_SHIFT_64ND_18
NOTE_OFF_72
NOTE_OFF_60
NOTE_OFF_56
NOTE_OFF_51
NOTE_ON_58
NOTE_ON_70
NOTE_ON_55
NOTE_ON_49
TIME_SHIFT_64ND_9
NOTE_OFF_58
NOTE_OFF_70
NOTE_OFF_55
NOTE_OFF_49
NOTE_ON_75
NOTE_ON_63
NOTE_ON_60
NOTE_ON_48
TIME_SHIFT_64ND_2
NOTE_OFF_75
NOTE_OFF_63
NOTE_OFF_60
NOTE_OFF_48
TIME_SHIFT_64ND_17
NOTE_ON_65
NOTE_ON_73
NOTE_ON_58
NOTE_ON_49
TIME_SHIFT_64ND_4
NOTE_OFF_58
NOTE_OFF_49
TIME_SHIFT_64ND_4
NOTE_OFF_65
NOTE_ON_68
NOTE_ON_63
NOTE_ON_51
TIME_SHIFT_64ND_4
NOTE_OFF_63
NOTE_OFF_51
TIME_SHIFT_64ND_4
NOTE_OFF_68
NOTE_OFF_73
NOTE_ON_72
TIME_SHIFT_64ND_9
NOTE_OFF_72
NOTE_ON_67
NOTE_ON_70
NOTE_ON_61
NOTE_ON_51
TIME_SHIFT_64ND_5
NOTE_OFF_61
NOTE_OFF_51
TIME_SHIFT_64ND_5
NOTE_OFF_67
NOTE_ON_60
NOTE_ON_56
TIME_SHIFT_64ND_5
NOTE_OFF_60
NOTE_OFF_56
TIME_SHIFT_64ND_5
NOTE_OFF_70
NOTE_ON_68
TIME_SHIFT_64ND_5
NOTE_OFF_68
TIME_SHIFT_64ND_5
NOTE_ON_78
NOTE_ON_66
NOTE_ON_61
NOTE_ON_58
TIME_SHIFT_64ND_9
NOTE_OFF_78
NOTE_OFF_66
NOTE_OFF_61
NOTE_OFF_58
NOTE_ON_77
NOTE_ON_65
NOTE_ON_61
NOTE_ON_56
TIME_SHIFT_64ND_18
NOTE_OFF_77
NOTE_OFF_65
NOTE_OFF_61
NOTE_OFF_56
NOTE_ON_75
NOTE_ON_63
NOTE_ON_60
NOTE_ON_54
TIME_SHIFT_64ND_9
NOTE_OFF_75
NOTE_OFF_63
NOTE_OFF_60
NOTE_OFF_54
NOTE_ON_80
NOTE_ON_68
NOTE_ON_61
NOTE_ON_53
TIME_SHIFT_64ND_2
NOTE_OFF_80
NOTE_OFF_68
NOTE_OFF_61
NOTE_OFF_53
TIME_SHIFT_64ND_17
NOTE_ON_78
NOTE_ON_66
NOTE_ON_61
NOTE_ON_58
TIME_SHIFT_64ND_9
NOTE_OFF_61
NOTE_OFF_58
NOTE_ON_61
NOTE_ON_56
TIME_SHIFT_64ND_9
NOTE_OFF_78
NOTE_OFF_66
NOTE_ON_77
NOTE_ON_65
TIME_SHIFT_64ND_9
NOTE_OFF_77
NOTE_OFF_65
NOTE_OFF_61
NOTE_OFF_56
NOTE_ON_75
NOTE_ON_63
NOTE_ON_60
NOTE_ON_54
TIME_SHIFT_64ND_5
NOTE_OFF_75
NOTE_OFF_63
TIME_SHIFT_64ND_5
NOTE_OFF_60
NOTE_OFF_54
NOTE_ON_80
NOTE_ON_68
NOTE_ON_61
NOTE_ON_53
TIME_SHIFT_64ND_2
NOTE_OFF_80
NOTE_OFF_68
NOTE_OFF_61
NOTE_OFF_53
TIME_SHIFT_64ND_17
NOTE_ON_78
NOTE_ON_66
NOTE_ON_61
NOTE_ON_58
TIME_SHIFT_64ND_9
NOTE_OFF_61
NOTE_OFF_58
NOTE_ON_61
NOTE_ON_56
TIME_SHIFT_64ND_9
NOTE_OFF_78
NOTE_OFF_66
NOTE_ON_77
NOTE_ON_65
TIME_SHIFT_64ND_10
NOTE_OFF_77
NOTE_OFF_65
NOTE_OFF_61
NOTE_OFF_56
NOTE_ON_82
NOTE_ON_70
NOTE_ON_61
NOTE_ON_64
NOTE_ON_55
TIME_SHIFT_64ND_11
NOTE_OFF_61
NOTE_OFF_64
NOTE_OFF_55
NOTE_ON_65
NOTE_ON_61
NOTE_ON_56
TIME_SHIFT_64ND_11
NOTE_OFF_82
NOTE_OFF_70
NOTE_OFF_65
NOTE_OFF_61
NOTE_OFF_56
NOTE_ON_80
NOTE_ON_68
TIME_SHIFT_64ND_11
NOTE_OFF_80
NOTE_OFF_68
TIME_SHIFT_64ND_11
NOTE_ON_60
NOTE_ON_54
NOTE_ON_44
NOTE_ON_32
TIME_SHIFT_64ND_23
NOTE_OFF_60
NOTE_ON_63
TIME_SHIFT_64ND_6
NOTE_OFF_63
NOTE_ON_61
TIME_SHIFT_64ND_6
NOTE_OFF_61
NOTE_OFF_54
NOTE_OFF_44
NOTE_OFF_32
NOTE_ON_61
NOTE_ON_53
NOTE_ON_44
NOTE_ON_37
TIME_SHIFT_64ND_9
NOTE_OFF_61
NOTE_OFF_53
NOTE_OFF_44
NOTE_OFF_37
TIME_SHIFT_64ND_11
NOTE_ON_65
NOTE_ON_73
NOTE_ON_61
TIME_SHIFT_64ND_9
NOTE_OFF_65
NOTE_OFF_73
NOTE_OFF_61
NOTE_ON_65
NOTE_ON_73
NOTE_ON_58
TIME_SHIFT_64ND_19
NOTE_OFF_65
NOTE_OFF_73
NOTE_OFF_58
NOTE_ON_73
NOTE_ON_65
NOTE_ON_56
TIME_SHIFT_64ND_9
NOTE_OFF_73
NOTE_OFF_65
NOTE_OFF_56
NOTE_ON_73
NOTE_ON_63
NOTE_ON_55
TIME_SHIFT_64ND_9
NOTE_OFF_73
NOTE_OFF_55
NOTE_ON_72
NOTE_ON_56
TIME_SHIFT_64ND_5
NOTE_OFF_72
NOTE_OFF_56
TIME_SHIFT_64ND_5
NOTE_OFF_63
NOTE_ON_71
NOTE_ON_63
NOTE_ON_56
TIME_SHIFT_64ND_9
NOTE_OFF_71
NOTE_OFF_63
NOTE_OFF_56
NOTE_ON_71
NOTE_ON_63
NOTE_ON_56
TIME_SHIFT_64ND_19
NOTE_OFF_71
NOTE_OFF_63
NOTE_OFF_56
NOTE_ON_71
NOTE_ON_63
NOTE_ON_54
TIME_SHIFT_64ND_9
NOTE_OFF_71
NOTE_OFF_63
NOTE_OFF_54
NOTE_ON_71
NOTE_ON_63
NOTE_ON_53
TIME_SHIFT_64ND_9
NOTE_OFF_71
NOTE_OFF_53
NOTE_ON_70
NOTE_ON_54
TIME_SHIFT_64ND_5
NOTE_OFF_70
NOTE_OFF_54
TIME_SHIFT_64ND_5
NOTE_OFF_63
NOTE_ON_70
NOTE_ON_61
NOTE_ON_54
TIME_SHIFT_64ND_9
NOTE_OFF_70
NOTE_OFF_61
NOTE_OFF_54
NOTE_ON_72
NOTE_ON_66
NOTE_ON_56
NOTE_ON_51
TIME_SHIFT_64ND_19
NOTE_OFF_72
NOTE_OFF_66
NOTE_OFF_56
NOTE_OFF_51
NOTE_ON_73
NOTE_ON_65
NOTE_ON_56
NOTE_ON_49
TIME_SHIFT_64ND_10
NOTE_OFF_73
NOTE_OFF_65
NOTE_OFF_56
NOTE_OFF_49
NOTE_ON_75
NOTE_ON_66
NOTE_ON_56
NOTE_ON_48
TIME_SHIFT_64ND_21
NOTE_OFF_75
NOTE_OFF_66
NOTE_ON_66
NOTE_ON_63
TIME_SHIFT_64ND_11
NOTE_OFF_56
NOTE_OFF_48
NOTE_ON_56
NOTE_ON_49
TIME_SHIFT_64ND_9
NOTE_OFF_66
NOTE_OFF_63
NOTE_ON_65
NOTE_ON_61
TIME_SHIFT_64ND_9
NOTE_OFF_65
NOTE_OFF_61
NOTE_OFF_56
NOTE_OFF_49
NOTE_ON_70
NOTE_ON_58
NOTE_ON_54
NOTE_ON_42
TIME_SHIFT_64ND_5
NOTE_OFF_70
NOTE_OFF_54
NOTE_ON_66
NOTE_ON_51
TIME_SHIFT_64ND_5
NOTE_OFF_66
NOTE_OFF_58
NOTE_OFF_51
NOTE_OFF_42
NOTE_ON_65
NOTE_ON_61
NOTE_ON_56
NOTE_ON_42
TIME_SHIFT_64ND_10
NOTE_OFF_65
NOTE_OFF_61
NOTE_ON_63
NOTE_ON_60
TIME_SHIFT_64ND_5
NOTE_OFF_63
NOTE_OFF_60
NOTE_OFF_56
NOTE_OFF_42
TIME_SHIFT_64ND_5
NOTE_ON_73
NOTE_ON_61
NOTE_ON_56
NOTE_ON_53
TIME_SHIFT_64ND_9
NOTE_OFF_73
NOTE_OFF_61
NOTE_OFF_56
NOTE_OFF_53
NOTE_ON_72
NOTE_ON_60
NOTE_ON_56
NOTE_ON_51
TIME_SHIFT_64ND_18
NOTE_OFF_72
NOTE_OFF_60
NOTE_OFF_56
NOTE_OFF_51
NOTE_ON_58
NOTE_ON_70
NOTE_ON_55
NOTE_ON_49
TIME_SHIFT_64ND_9
NOTE_OFF_58
NOTE_OFF_70
NOTE_OFF_55
NOTE_OFF_49
NOTE_ON_75
NOTE_ON_63
NOTE_ON_60
NOTE_ON_48
TIME_SHIFT_64ND_2
NOTE_OFF_75
NOTE_OFF_63
NOTE_OFF_60
NOTE_OFF_48
TIME_SHIFT_64ND_16
NOTE_ON_65
NOTE_ON_73
NOTE_ON_58
NOTE_ON_49
TIME_SHIFT_64ND_4
NOTE_OFF_58
NOTE_OFF_49
TIME_SHIFT_64ND_4
NOTE_OFF_65
NOTE_ON_68
NOTE_ON_63
NOTE_ON_51
TIME_SHIFT_64ND_5
NOTE_OFF_63
NOTE_OFF_51
TIME_SHIFT_64ND_5
NOTE_OFF_68
NOTE_OFF_73
NOTE_ON_72
TIME_SHIFT_64ND_9
NOTE_OFF_72
NOTE_ON_67
NOTE_ON_70
NOTE_ON_61
NOTE_ON_51
TIME_SHIFT_64ND_4
NOTE_OFF_61
NOTE_OFF_51
TIME_SHIFT_64ND_4
NOTE_OFF_67
NOTE_ON_60
NOTE_ON_56
TIME_SHIFT_64ND_5
NOTE_OFF_60
NOTE_OFF_56
TIME_SHIFT_64ND_5
NOTE_OFF_70
NOTE_ON_68
TIME_SHIFT_64ND_5
NOTE_OFF_68
TIME_SHIFT_64ND_5
NOTE_ON_78
NOTE_ON_66
NOTE_ON_61
NOTE_ON_58
TIME_SHIFT_64ND_9
NOTE_OFF_78
NOTE_OFF_66
NOTE_OFF_61
NOTE_OFF_58
NOTE_ON_77
NOTE_ON_65
NOTE_ON_61
NOTE_ON_56
TIME_SHIFT_64ND_18
NOTE_OFF_77
NOTE_OFF_65
NOTE_OFF_61
NOTE_OFF_56
NOTE_ON_75
NOTE_ON_63
NOTE_ON_60
NOTE_ON_54
TIME_SHIFT_64ND_9
NOTE_OFF_75
NOTE_OFF_63
NOTE_OFF_60
NOTE_OFF_54
NOTE_ON_80
NOTE_ON_68
NOTE_ON_61
NOTE_ON_53
TIME_SHIFT_64ND_2
NOTE_OFF_80
NOTE_OFF_68
NOTE_OFF_61
NOTE_OFF_53
TIME_SHIFT_64ND_16
NOTE_ON_78
NOTE_ON_66
NOTE_ON_61
NOTE_ON_58
TIME_SHIFT_64ND_9
NOTE_OFF_61
NOTE_OFF_58
NOTE_ON_61
NOTE_ON_56
TIME_SHIFT_64ND_9
NOTE_OFF_78
NOTE_OFF_66
NOTE_ON_77
NOTE_ON_65
TIME_SHIFT_64ND_9
NOTE_OFF_77
NOTE_OFF_65
NOTE_OFF_61
NOTE_OFF_56
NOTE_ON_75
NOTE_ON_63
NOTE_ON_60
NOTE_ON_54
TIME_SHIFT_64ND_5
NOTE_OFF_75
NOTE_OFF_63
TIME_SHIFT_64ND_5
NOTE_OFF_60
NOTE_OFF_54
NOTE_ON_80
NOTE_ON_68
NOTE_ON_61
NOTE_ON_53
TIME_SHIFT_64ND_2
NOTE_OFF_80
NOTE_OFF_68
NOTE_OFF_61
NOTE_OFF_53
TIME_SHIFT_64ND_17
NOTE_ON_78
NOTE_ON_66
NOTE_ON_61
NOTE_ON_58
TIME_SHIFT_64ND_9
NOTE_OFF_61
NOTE_OFF_58
NOTE_ON_61
NOTE_ON_56
TIME_SHIFT_64ND_9
NOTE_OFF_78
NOTE_OFF_66
NOTE_ON_77
NOTE_ON_65
TIME_SHIFT_64ND_10
NOTE_OFF_77
NOTE_OFF_65
NOTE_OFF_61
NOTE_OFF_56
NOTE_ON_82
NOTE_ON_70
NOTE_ON_61
NOTE_ON_64
NOTE_ON_55
TIME_SHIFT_64ND_11
NOTE_OFF_61
NOTE_OFF_64
NOTE_OFF_55
NOTE_ON_65
NOTE_ON_61
NOTE_ON_56
TIME_SHIFT_64ND_11
NOTE_OFF_82
NOTE_OFF_70
NOTE_OFF_65
NOTE_OFF_61
NOTE_OFF_56
NOTE_ON_80
NOTE_ON_68
TIME_SHIFT_64ND_11
NOTE_OFF_80
NOTE_OFF_68
TIME_SHIFT_64ND_11
NOTE_ON_60
NOTE_ON_54
NOTE_ON_44
NOTE_ON_32
TIME_SHIFT_64ND_23
NOTE_OFF_60
NOTE_ON_63
TIME_SHIFT_64ND_7
NOTE_OFF_63
NOTE_ON_61
TIME_SHIFT_64ND_7
NOTE_OFF_61
NOTE_OFF_54
NOTE_OFF_44
NOTE_OFF_32
NOTE_ON_61
NOTE_ON_53
NOTE_ON_44
NOTE_ON_37
TIME_SHIFT_64ND_11
NOTE_OFF_61
NOTE_OFF_53
NOTE_OFF_44
NOTE_OFF_37
TIME_SHIFT_64ND_11
NOTE_ON_65
NOTE_ON_53
TIME_SHIFT_64ND_9
NOTE_ON_37
NOTE_ON_44
TIME_SHIFT_64ND_19
NOTE_OFF_65
NOTE_OFF_53
NOTE_ON_66
NOTE_ON_54
TIME_SHIFT_64ND_9
NOTE_OFF_37
NOTE_ON_39
TIME_SHIFT_64ND_19
NOTE_OFF_66
NOTE_OFF_54
NOTE_ON_75
NOTE_ON_63
TIME_SHIFT_64ND_9
NOTE_OFF_39
NOTE_ON_42
TIME_SHIFT_64ND_9
NOTE_OFF_75
NOTE_OFF_63
NOTE_ON_72
NOTE_ON_60
TIME_SHIFT_64ND_9
NOTE_OFF_72
NOTE_OFF_60
NOTE_ON_68
NOTE_ON_56
TIME_SHIFT_64ND_2
NOTE_OFF_68
NOTE_OFF_56
TIME_SHIFT_64ND_7
NOTE_OFF_42
NOTE_ON_73
NOTE_ON_61
NOTE_ON_41
TIME_SHIFT_64ND_9
NOTE_OFF_73
NOTE_OFF_61
NOTE_ON_77
NOTE_ON_65
TIME_SHIFT_64ND_5
NOTE_OFF_77
NOTE_OFF_65
TIME_SHIFT_64ND_5
NOTE_ON_65
NOTE_ON_53
TIME_SHIFT_64ND_9
NOTE_OFF_41
NOTE_OFF_44
NOTE_ON_37
NOTE_ON_44
TIME_SHIFT_64ND_19
NOTE_OFF_65
NOTE_OFF_53
NOTE_ON_66
NOTE_ON_54
TIME_SHIFT_64ND_9
NOTE_OFF_37
NOTE_ON_39
TIME_SHIFT_64ND_19
NOTE_OFF_66
NOTE_OFF_54
NOTE_ON_78
NOTE_ON_66
TIME_SHIFT_64ND_9
NOTE_OFF_39
NOTE_ON_32
TIME_SHIFT_64ND_9
NOTE_OFF_78
NOTE_OFF_66
NOTE_ON_82
NOTE_ON_70
TIME_SHIFT_64ND_4
NOTE_OFF_82
NOTE_OFF_70
TIME_SHIFT_64ND_4
NOTE_OFF_44
NOTE_ON_72
NOTE_ON_60
NOTE_ON_44
TIME_SHIFT_64ND_2
NOTE_OFF_72
NOTE_OFF_60
TIME_SHIFT_64ND_7
NOTE_OFF_32
NOTE_ON_75
NOTE_ON_63
NOTE_ON_37
TIME_SHIFT_64ND_9
NOTE_OFF_75
NOTE_OFF_63
NOTE_ON_73
NOTE_ON_61
TIME_SHIFT_64ND_10
NOTE_OFF_73
NOTE_OFF_61
NOTE_OFF_37
NOTE_OFF_44
NOTE_ON_65
NOTE_ON_53
TIME_SHIFT_64ND_9
NOTE_ON_37
NOTE_ON_44
TIME_SHIFT_64ND_19
NOTE_OFF_65
NOTE_OFF_53
NOTE_ON_66
NOTE_ON_54
TIME_SHIFT_64ND_9
NOTE_OFF_37
NOTE_ON_39
TIME_SHIFT_64ND_19
NOTE_OFF_66
NOTE_OFF_54
NOTE_ON_75
NOTE_ON_63
TIME_SHIFT_64ND_9
NOTE_OFF_39
NOTE_ON_42
TIME_SHIFT_64ND_9
NOTE_OFF_75
NOTE_OFF_63
NOTE_ON_72
NOTE_ON_60
TIME_SHIFT_64ND_9
NOTE_OFF_72
NOTE_OFF_60
NOTE_ON_68
NOTE_ON_56
TIME_SHIFT_64ND_2
NOTE_OFF_68
NOTE_OFF_56
TIME_SHIFT_64ND_7
NOTE_OFF_42
NOTE_ON_73
NOTE_ON_61
NOTE_ON_41
TIME_SHIFT_64ND_9
NOTE_OFF_73
NOTE_OFF_61
NOTE_ON_77
NOTE_ON_65
TIME_SHIFT_64ND_5
NOTE_OFF_77
NOTE_OFF_65
TIME_SHIFT_64ND_5
NOTE_ON_65
NOTE_ON_53
TIME_SHIFT_64ND_9
NOTE_OFF_41
NOTE_OFF_44
NOTE_ON_37
NOTE_ON_44
TIME_SHIFT_64ND_18
NOTE_OFF_65
NOTE_OFF_53
NOTE_ON_66
NOTE_ON_54
TIME_SHIFT_64ND_9
NOTE_OFF_37
NOTE_ON_39
TIME_SHIFT_64ND_18
NOTE_OFF_66
NOTE_OFF_54
NOTE_ON_78
NOTE_ON_66
TIME_SHIFT_64ND_9
NOTE_OFF_39
NOTE_ON_32
TIME_SHIFT_64ND_9
NOTE_OFF_78
NOTE_OFF_66
NOTE_ON_82
NOTE_ON_70
TIME_SHIFT_64ND_5
NOTE_OFF_82
NOTE_OFF_70
TIME_SHIFT_64ND_5
NOTE_OFF_44
NOTE_ON_72
NOTE_ON_60
NOTE_ON_44
TIME_SHIFT_64ND_2
NOTE_OFF_72
NOTE_OFF_60
TIME_SHIFT_64ND_7
NOTE_OFF_32
NOTE_ON_75
NOTE_ON_63
NOTE_ON_37
TIME_SHIFT_64ND_9
NOTE_OFF_75
NOTE_OFF_63
NOTE_ON_73
NOTE_ON_61
TIME_SHIFT_64ND_10
NOTE_OFF_73
NOTE_OFF_61
NOTE_OFF_37
NOTE_OFF_44
NOTE_ON_77
NOTE_ON_65
TIME_SHIFT_64ND_9
NOTE_ON_56
NOTE_ON_50
TIME_SHIFT_64ND_19
NOTE_OFF_77
NOTE_OFF_65
NOTE_ON_70
NOTE_ON_58
TIME_SHIFT_64ND_9
NOTE_OFF_56
NOTE_OFF_50
NOTE_ON_55
NOTE_ON_49
TIME_SHIFT_64ND_19
NOTE_OFF_70
NOTE_OFF_58
NOTE_ON_75
NOTE_ON_63
TIME_SHIFT_64ND_9
NOTE_OFF_55
NOTE_OFF_49
NOTE_ON_54
NOTE_ON_48
TIME_SHIFT_64ND_19
NOTE_OFF_75
NOTE_OFF_63
NOTE_ON_68
NOTE_ON_56
TIME_SHIFT_64ND_9
NOTE_OFF_54
NOTE_OFF_48
NOTE_ON_53
NOTE_ON_47
TIME_SHIFT_64ND_19
NOTE_OFF_68
NOTE_OFF_56
NOTE_ON_73
NOTE_ON_61
TIME_SHIFT_64ND_9
NOTE_OFF_53
NOTE_OFF_47
NOTE_ON_46
NOTE_ON_49
TIME_SHIFT_64ND_19
NOTE_OFF_73
NOTE_OFF_61
NOTE_ON_66
NOTE_ON_54
TIME_SHIFT_64ND_9
NOTE_OFF_46
NOTE_ON_44
TIME_SHIFT_64ND_19
NOTE_OFF_66
NOTE_OFF_54
NOTE_ON_65
NOTE_ON_53
TIME_SHIFT_64ND_9
NOTE_OFF_44
NOTE_ON_37
TIME_SHIFT_64ND_9
NOTE_OFF_65
NOTE_OFF_53
NOTE_OFF_37
NOTE_ON_68
NOTE_ON_56
NOTE_ON_41
TIME_SHIFT_64ND_9
NOTE_OFF_68
NOTE_OFF_56
NOTE_OFF_41
NOTE_ON_71
NOTE_ON_59
NOTE_ON_44
TIME_SHIFT_64ND_9
NOTE_OFF_44
NOTE_ON_42
TIME_SHIFT_64ND_9
NOTE_OFF_71
NOTE_OFF_59
NOTE_ON_70
NOTE_ON_58
TIME_SHIFT_64ND_5
NOTE_OFF_70
NOTE_OFF_58
TIME_SHIFT_64ND_5
NOTE_ON_73
NOTE_ON_61
TIME_SHIFT_64ND_9
NOTE_OFF_42
NOTE_OFF_49
NOTE_ON_46
NOTE_ON_49
TIME_SHIFT_64ND_18
NOTE_OFF_73
NOTE_OFF_61
NOTE_ON_66
NOTE_ON_54
TIME_SHIFT_64ND_9
NOTE_OFF_46
NOTE_ON_44
TIME_SHIFT_64ND_18
NOTE_OFF_66
NOTE_OFF_54
NOTE_ON_65
NOTE_ON_53
TIME_SHIFT_64ND_9
NOTE_OFF_44
NOTE_ON_43
TIME_SHIFT_64ND_18
NOTE_OFF_65
NOTE_OFF_53
NOTE_ON_64
NOTE_ON_52
TIME_SHIFT_64ND_9
NOTE_OFF_43
NOTE_ON_44
TIME_SHIFT_64ND_18
NOTE_OFF_64
NOTE_OFF_52
NOTE_ON_65
NOTE_ON_53
TIME_SHIFT_64ND_9
NOTE_OFF_44
NOTE_OFF_49
NOTE_ON_46
NOTE_ON_49
TIME_SHIFT_64ND_18
NOTE_OFF_65
NOTE_OFF_53
NOTE_ON_66
NOTE_ON_54
TIME_SHIFT_64ND_9
NOTE_OFF_46
NOTE_ON_44
TIME_SHIFT_64ND_18
NOTE_OFF_66
NOTE_OFF_54
NOTE_ON_65
NOTE_ON_53
TIME_SHIFT_64ND_9
NOTE_OFF_49
NOTE_ON_32
TIME_SHIFT_64ND_9
NOTE_OFF_65
NOTE_OFF_53
NOTE_ON_66
NOTE_ON_54
TIME_SHIFT_64ND_5
NOTE_OFF_66
NOTE_OFF_54
TIME_SHIFT_64ND_5
NOTE_OFF_32
NOTE_OFF_44
NOTE_ON_60
NOTE_ON_48
NOTE_ON_44
TIME_SHIFT_64ND_3
NOTE_OFF_60
NOTE_OFF_48
NOTE_OFF_44
TIME_SHIFT_64ND_8
NOTE_ON_61
NOTE_ON_49
NOTE_ON_37
TIME_SHIFT_64ND_2
NOTE_OFF_61
NOTE_OFF_49
NOTE_OFF_37
TIME_SHIFT_64ND_16
NOTE_ON_77
NOTE_ON_65
TIME_SHIFT_64ND_9
NOTE_ON_56
NOTE_ON_50
TIME_SHIFT_64ND_18
NOTE_OFF_77
NOTE_OFF_65
NOTE_ON_70
NOTE_ON_58
TIME_SHIFT_64ND_9
NOTE_OFF_56
NOTE_OFF_50
NOTE_ON_55
NOTE_ON_49
TIME_SHIFT_64ND_18
NOTE_OFF_70
NOTE_OFF_58
NOTE_ON_75
NOTE_ON_63
TIME_SHIFT_64ND_9
NOTE_OFF_55
NOTE_OFF_49
NOTE_ON_54
NOTE_ON_48
TIME_SHIFT_64ND_18
NOTE_OFF_75
NOTE_OFF_63
NOTE_ON_68
NOTE_ON_56
TIME_SHIFT_64ND_9
NOTE_OFF_54
NOTE_OFF_48
NOTE_ON_53
NOTE_ON_47
TIME_SHIFT_64ND_18
NOTE_OFF_68
NOTE_OFF_56
NOTE_ON_73
NOTE_ON_61
TIME_SHIFT_64ND_9
NOTE_OFF_53
NOTE_OFF_47
NOTE_ON_46
NOTE_ON_49
TIME_SHIFT_64ND_18
NOTE_OFF_73
NOTE_OFF_61
NOTE_ON_66
NOTE_ON_54
TIME_SHIFT_64ND_9
NOTE_OFF_46
NOTE_ON_44
TIME_SHIFT_64ND_18
NOTE_OFF_66
NOTE_OFF_54
NOTE_ON_65
NOTE_ON_53
TIME_SHIFT_64ND_9
NOTE_OFF_44
NOTE_ON_37
TIME_SHIFT_64ND_9
NOTE_OFF_65
NOTE_OFF_53
NOTE_OFF_37
NOTE_ON_68
NOTE_ON_56
NOTE_ON_41
TIME_SHIFT_64ND_9
NOTE_OFF_68
NOTE_OFF_56
NOTE_OFF_41
NOTE_ON_71
NOTE_ON_59
NOTE_ON_44
TIME_SHIFT_64ND_9
NOTE_OFF_44
NOTE_ON_42
TIME_SHIFT_64ND_9
NOTE_OFF_71
NOTE_OFF_59
NOTE_ON_70
NOTE_ON_58
TIME_SHIFT_64ND_5
NOTE_OFF_70
NOTE_OFF_58
TIME_SHIFT_64ND_5
NOTE_ON_73
NOTE_ON_61
TIME_SHIFT_64ND_9
NOTE_OFF_42
NOTE_OFF_49
NOTE_ON_46
NOTE_ON_49
TIME_SHIFT_64ND_18
NOTE_OFF_73
NOTE_OFF_61
NOTE_ON_66
NOTE_ON_54
TIME_SHIFT_64ND_9
NOTE_OFF_46
NOTE_ON_44
TIME_SHIFT_64ND_18
NOTE_OFF_66
NOTE_OFF_54
NOTE_ON_65
NOTE_ON_53
TIME_SHIFT_64ND_9
NOTE_OFF_44
NOTE_ON_43
TIME_SHIFT_64ND_18
NOTE_OFF_65
NOTE_OFF_53
NOTE_ON_64
NOTE_ON_52
TIME_SHIFT_64ND_9
NOTE_OFF_43
NOTE_ON_44
TIME_SHIFT_64ND_18
NOTE_OFF_64
NOTE_OFF_52
NOTE_ON_65
NOTE_ON_53
TIME_SHIFT_64ND_9
NOTE_OFF_44
NOTE_OFF_49
NOTE_ON_46
NOTE_ON_49
TIME_SHIFT_64ND_18
NOTE_OFF_65
NOTE_OFF_53
NOTE_ON_66
NOTE_ON_54
TIME_SHIFT_64ND_9
NOTE_OFF_46
NOTE_ON_44
TIME_SHIFT_64ND_18
NOTE_OFF_66
NOTE_OFF_54
NOTE_ON_65
NOTE_ON_53
TIME_SHIFT_64ND_9
NOTE_OFF_49
NOTE_ON_32
TIME_SHIFT_64ND_9
NOTE_OFF_65
NOTE_OFF_53
NOTE_ON_66
NOTE_ON_54
TIME_SHIFT_64ND_5
NOTE_OFF_66
NOTE_OFF_54
TIME_SHIFT_64ND_5
NOTE_OFF_32
NOTE_OFF_44
NOTE_ON_60
NOTE_ON_48
NOTE_ON_44
TIME_SHIFT_64ND_2
NOTE_OFF_60
NOTE_OFF_48
NOTE_OFF_44
TIME_SHIFT_64ND_7
NOTE_ON_61
NOTE_ON_49
NOTE_ON_37
TIME_SHIFT_64ND_2
NOTE_OFF_61
NOTE_OFF_49
NOTE_OFF_37
TIME_SHIFT_64ND_17
NOTE_ON_73
NOTE_ON_68
NOTE_ON_65
TIME_SHIFT_64ND_9
NOTE_OFF_73
NOTE_OFF_68
NOTE_OFF_65
NOTE_ON_68
NOTE_ON_72
NOTE_ON_63
TIME_SHIFT_64ND_18
NOTE_ON_67
NOTE_ON_70
NOTE_ON_61
NOTE_OFF_68
NOTE_OFF_72
NOTE_OFF_63
TIME_SHIFT_64ND_9
NOTE_OFF_67
NOTE_OFF_70
NOTE_OFF_61
NOTE_ON_75
NOTE_ON_68
NOTE_ON_60
TIME_SHIFT_64ND_2
NOTE_OFF_75
NOTE_OFF_68
NOTE_OFF_60
TIME_SHIFT_64ND_17
NOTE_ON_73
NOTE_ON_65
NOTE_ON_58
NOTE_ON_49
TIME_SHIFT_64ND_2
NOTE_OFF_73
NOTE_OFF_65
NOTE_OFF_58
NOTE_OFF_49
TIME_SHIFT_64ND_7
NOTE_ON_72
NOTE_ON_68
NOTE_ON_51
NOTE_ON_63
TIME_SHIFT_64ND_2
NOTE_OFF_72
NOTE_OFF_68
NOTE_OFF_51
NOTE_OFF_63
TIME_SHIFT_64ND_16
NOTE_ON_70
NOTE_ON_67
NOTE_ON_61
NOTE_ON_51
TIME_SHIFT_64ND_2
NOTE_OFF_70
NOTE_OFF_67
NOTE_OFF_61
NOTE_OFF_51
TIME_SHIFT_64ND_8
NOTE_ON_68
NOTE_ON_60
NOTE_ON_56
TIME_SHIFT_64ND_2
NOTE_OFF_68
NOTE_OFF_60
NOTE_OFF_56
TIME_SHIFT_64ND_17
NOTE_ON_78
NOTE_ON_73
NOTE_ON_70
TIME_SHIFT_64ND_9
NOTE_OFF_78
NOTE_OFF_73
NOTE_OFF_70
NOTE_ON_77
NOTE_ON_73
NOTE_ON_68
TIME_SHIFT_64ND_18
NOTE_OFF_77
NOTE_OFF_73
NOTE_OFF_68
NOTE_ON_75
NOTE_ON_72
NOTE_ON_66
TIME_SHIFT_64ND_9
NOTE_OFF_75
NOTE_OFF_72
NOTE_OFF_66
NOTE_ON_80
NOTE_ON_73
NOTE_ON_65
TIME_SHIFT_64ND_2
NOTE_OFF_80
NOTE_OFF_73
NOTE_OFF_65
TIME_SHIFT_64ND_17
NOTE_ON_78
NOTE_ON_70
NOTE_ON_63
NOTE_ON_54
TIME_SHIFT_64ND_2
NOTE_OFF_78
NOTE_OFF_70
NOTE_OFF_63
NOTE_OFF_54
TIME_SHIFT_64ND_7
NOTE_ON_77
NOTE_ON_73
NOTE_ON_68
NOTE_ON_56
TIME_SHIFT_64ND_2
NOTE_OFF_77
NOTE_OFF_73
NOTE_OFF_68
NOTE_OFF_56
TIME_SHIFT_64ND_16
NOTE_ON_75
NOTE_ON_72
NOTE_ON_66
NOTE_ON_56
TIME_SHIFT_64ND_2
NOTE_OFF_75
NOTE_OFF_72
NOTE_OFF_66
NOTE_OFF_56
TIME_SHIFT_64ND_7
NOTE_ON_73
NOTE_ON_65
NOTE_ON_61
TIME_SHIFT_64ND_2
NOTE_OFF_73
NOTE_OFF_65
NOTE_OFF_61
TIME_SHIFT_64ND_17
NOTE_ON_73
NOTE_ON_61
NOTE_ON_56
NOTE_ON_53
TIME_SHIFT_64ND_9
NOTE_OFF_56
NOTE_OFF_53
NOTE_ON_56
NOTE_ON_51
TIME_SHIFT_64ND_9
NOTE_OFF_73
NOTE_OFF_61
NOTE_ON_72
NOTE_ON_60
TIME_SHIFT_64ND_9
NOTE_OFF_72
NOTE_OFF_60
NOTE_OFF_56
NOTE_OFF_51
NOTE_ON_58
NOTE_ON_70
NOTE_ON_49
NOTE_ON_55
TIME_SHIFT_64ND_9
NOTE_OFF_58
NOTE_OFF_49
NOTE_OFF_55
NOTE_ON_63
NOTE_ON_60
NOTE_ON_48
TIME_SHIFT_64ND_9
NOTE_OFF_63
NOTE_OFF_70
NOTE_OFF_60
NOTE_OFF_48
NOTE_ON_75
TIME_SHIFT_64ND_2
NOTE_OFF_75
TIME_SHIFT_64ND_7
NOTE_ON_65
NOTE_ON_73
NOTE_ON_58
NOTE_ON_49
TIME_SHIFT_64ND_4
NOTE_OFF_58
NOTE_OFF_49
TIME_SHIFT_64ND_4
NOTE_OFF_65
NOTE_ON_68
NOTE_ON_63
NOTE_ON_51
TIME_SHIFT_64ND_4
NOTE_OFF_63
NOTE_OFF_51
TIME_SHIFT_64ND_4
NOTE_OFF_68
NOTE_OFF_73
NOTE_ON_72
TIME_SHIFT_64ND_9
NOTE_OFF_72
NOTE_ON_67
NOTE_ON_70
NOTE_ON_61
NOTE_ON_51
TIME_SHIFT_64ND_4
NOTE_OFF_61
NOTE_OFF_51
TIME_SHIFT_64ND_4
NOTE_OFF_67
NOTE_ON_60
NOTE_ON_56
TIME_SHIFT_64ND_4
NOTE_OFF_60
NOTE_OFF_56
TIME_SHIFT_64ND_4
NOTE_OFF_70
NOTE_ON_68
TIME_SHIFT_64ND_4
NOTE_OFF_68
TIME_SHIFT_64ND_4
NOTE_ON_78
NOTE_ON_66
NOTE_ON_61
NOTE_ON_58
TIME_SHIFT_64ND_9
NOTE_OFF_61
NOTE_OFF_58
NOTE_ON_61
NOTE_ON_56
TIME_SHIFT_64ND_9
NOTE_OFF_78
NOTE_OFF_66
NOTE_ON_77
NOTE_ON_65
TIME_SHIFT_64ND_9
NOTE_OFF_77
NOTE_OFF_65
NOTE_OFF_61
NOTE_OFF_56
NOTE_ON_63
NOTE_ON_75
NOTE_ON_60
NOTE_ON_54
TIME_SHIFT_64ND_9
NOTE_OFF_63
NOTE_OFF_60
NOTE_OFF_54
NOTE_ON_68
NOTE_ON_65
NOTE_ON_53
TIME_SHIFT_64ND_9
NOTE_OFF_68
NOTE_OFF_75
NOTE_OFF_65
NOTE_OFF_53
NOTE_ON_80
TIME_SHIFT_64ND_2
NOTE_OFF_80
TIME_SHIFT_64ND_7
NOTE_ON_70
NOTE_ON_78
NOTE_ON_63
NOTE_ON_54
TIME_SHIFT_64ND_5
NOTE_OFF_63
NOTE_OFF_54
TIME_SHIFT_64ND_5
NOTE_OFF_70
NOTE_ON_73
NOTE_ON_68
NOTE_ON_56
TIME_SHIFT_64ND_5
NOTE_OFF_68
NOTE_OFF_56
TIME_SHIFT_64ND_5
NOTE_OFF_73
NOTE_OFF_78
NOTE_ON_77
TIME_SHIFT_64ND_5
NOTE_OFF_77
TIME_SHIFT_64ND_5
NOTE_ON_72
NOTE_ON_75
NOTE_ON_66
NOTE_ON_56
TIME_SHIFT_64ND_5
NOTE_OFF_66
NOTE_OFF_56
TIME_SHIFT_64ND_5
NOTE_OFF_72
NOTE_ON_65
NOTE_ON_61
TIME_SHIFT_64ND_5
NOTE_OFF_65
NOTE_OFF_61
TIME_SHIFT_64ND_5
NOTE_OFF_75
NOTE_ON_73
TIME_SHIFT_64ND_5
NOTE_OFF_73
TIME_SHIFT_64ND_5
NOTE_ON_65
NOTE_ON_73
NOTE_ON_61
TIME_SHIFT_64ND_9
NOTE_OFF_65
NOTE_OFF_73
NOTE_OFF_61
NOTE_ON_65
NOTE_ON_73
NOTE_ON_58
TIME_SHIFT_64ND_18
NOTE_OFF_65
NOTE_OFF_73
NOTE_OFF_58
NOTE_ON_73
NOTE_ON_65
NOTE_ON_56
TIME_SHIFT_64ND_9
NOTE_OFF_73
NOTE_OFF_65
NOTE_OFF_56
NOTE_ON_73
NOTE_ON_63
NOTE_ON_55
TIME_SHIFT_64ND_9
NOTE_OFF_73
NOTE_OFF_55
NOTE_ON_72
NOTE_ON_56
TIME_SHIFT_64ND_5
NOTE_OFF_72
NOTE_OFF_56
TIME_SHIFT_64ND_5
NOTE_OFF_63
NOTE_ON_71
NOTE_ON_63
NOTE_ON_56
TIME_SHIFT_64ND_9
NOTE_OFF_71
NOTE_OFF_63
NOTE_OFF_56
NOTE_ON_71
NOTE_ON_63
NOTE_ON_56
TIME_SHIFT_64ND_19
NOTE_OFF_71
NOTE_OFF_63
NOTE_OFF_56
NOTE_ON_71
NOTE_ON_63
NOTE_ON_54
TIME_SHIFT_64ND_9
NOTE_OFF_71
NOTE_OFF_63
NOTE_OFF_54
NOTE_ON_71
NOTE_ON_63
NOTE_ON_53
TIME_SHIFT_64ND_9
NOTE_OFF_71
NOTE_OFF_53
NOTE_ON_70
NOTE_ON_54
TIME_SHIFT_64ND_5
NOTE_OFF_70
NOTE_OFF_54
TIME_SHIFT_64ND_5
NOTE_OFF_63
NOTE_ON_70
NOTE_ON_61
NOTE_ON_54
TIME_SHIFT_64ND_9
NOTE_OFF_70
NOTE_OFF_61
NOTE_OFF_54
NOTE_ON_72
NOTE_ON_66
NOTE_ON_56
NOTE_ON_51
TIME_SHIFT_64ND_19
NOTE_OFF_72
NOTE_OFF_66
NOTE_OFF_56
NOTE_OFF_51
NOTE_ON_73
NOTE_ON_65
NOTE_ON_56
NOTE_ON_49
TIME_SHIFT_64ND_10
NOTE_OFF_73
NOTE_OFF_65
NOTE_OFF_56
NOTE_OFF_49
NOTE_ON_75
NOTE_ON_66
NOTE_ON_56
NOTE_ON_48
TIME_SHIFT_64ND_21
NOTE_OFF_75
NOTE_OFF_66
NOTE_ON_66
NOTE_ON_63
TIME_SHIFT_64ND_11
NOTE_OFF_56
NOTE_OFF_48
NOTE_ON_56
NOTE_ON_49
TIME_SHIFT_64ND_9
NOTE_OFF_66
NOTE_OFF_63
NOTE_ON_65
NOTE_ON_61
TIME_SHIFT_64ND_9
NOTE_OFF_65
NOTE_OFF_61
NOTE_OFF_56
NOTE_OFF_49
NOTE_ON_70
NOTE_ON_58
NOTE_ON_54
NOTE_ON_42
TIME_SHIFT_64ND_5
NOTE_OFF_70
NOTE_OFF_54
NOTE_ON_66
NOTE_ON_51
TIME_SHIFT_64ND_5
NOTE_OFF_66
NOTE_OFF_58
NOTE_OFF_51
NOTE_OFF_42
NOTE_ON_65
NOTE_ON_61
NOTE_ON_56
NOTE_ON_42
TIME_SHIFT_64ND_10
NOTE_OFF_65
NOTE_OFF_61
NOTE_ON_63
NOTE_ON_60
TIME_SHIFT_64ND_10
NOTE_OFF_63
NOTE_OFF_60
NOTE_OFF_56
NOTE_OFF_42
NOTE_ON_73
NOTE_ON_61
NOTE_ON_56
NOTE_ON_53
TIME_SHIFT_64ND_9
NOTE_OFF_73
NOTE_OFF_61
NOTE_OFF_56
NOTE_OFF_53
NOTE_ON_72
NOTE_ON_60
NOTE_ON_56
NOTE_ON_51
TIME_SHIFT_64ND_18
NOTE_OFF_72
NOTE_OFF_60
NOTE_OFF_56
NOTE_OFF_51
NOTE_ON_58
NOTE_ON_70
NOTE_ON_55
NOTE_ON_49
TIME_SHIFT_64ND_9
NOTE_OFF_58
NOTE_OFF_70
NOTE_OFF_55
NOTE_OFF_49
NOTE_ON_75
NOTE_ON_63
NOTE_ON_60
NOTE_ON_48
TIME_SHIFT_64ND_2
NOTE_OFF_75
NOTE_OFF_63
NOTE_OFF_60
NOTE_OFF_48
TIME_SHIFT_64ND_17
NOTE_ON_65
NOTE_ON_73
NOTE_ON_58
NOTE_ON_49
TIME_SHIFT_64ND_4
NOTE_OFF_58
NOTE_OFF_49
TIME_SHIFT_64ND_4
NOTE_OFF_65
NOTE_ON_68
NOTE_ON_63
NOTE_ON_51
TIME_SHIFT_64ND_4
NOTE_OFF_63
NOTE_OFF_51
TIME_SHIFT_64ND_4
NOTE_OFF_68
NOTE_OFF_73
NOTE_ON_72
TIME_SHIFT_64ND_9
NOTE_OFF_72
NOTE_ON_67
NOTE_ON_70
NOTE_ON_61
NOTE_ON_51
TIME_SHIFT_64ND_4
NOTE_OFF_61
NOTE_OFF_51
TIME_SHIFT_64ND_4
NOTE_OFF_67
NOTE_ON_60
NOTE_ON_56
TIME_SHIFT_64ND_4
NOTE_OFF_60
NOTE_OFF_56
TIME_SHIFT_64ND_4
NOTE_OFF_70
NOTE_ON_68
TIME_SHIFT_64ND_4
NOTE_OFF_68
TIME_SHIFT_64ND_4
NOTE_ON_78
NOTE_ON_66
NOTE_ON_61
NOTE_ON_58
TIME_SHIFT_64ND_9
NOTE_OFF_78
NOTE_OFF_66
NOTE_OFF_61
NOTE_OFF_58
NOTE_ON_77
NOTE_ON_65
NOTE_ON_61
NOTE_ON_56
TIME_SHIFT_64ND_18
NOTE_OFF_77
NOTE_OFF_65
NOTE_OFF_61
NOTE_OFF_56
NOTE_ON_75
NOTE_ON_63
NOTE_ON_60
NOTE_ON_54
TIME_SHIFT_64ND_9
NOTE_OFF_75
NOTE_OFF_63
NOTE_OFF_60
NOTE_OFF_54
NOTE_ON_80
NOTE_ON_68
NOTE_ON_61
NOTE_ON_53
TIME_SHIFT_64ND_2
NOTE_OFF_80
NOTE_OFF_68
NOTE_OFF_61
NOTE_OFF_53
TIME_SHIFT_64ND_17
NOTE_ON_78
NOTE_ON_66
NOTE_ON_61
NOTE_ON_58
TIME_SHIFT_64ND_9
NOTE_OFF_61
NOTE_OFF_58
NOTE_ON_61
NOTE_ON_56
TIME_SHIFT_64ND_9
NOTE_OFF_78
NOTE_OFF_66
NOTE_ON_77
NOTE_ON_65
TIME_SHIFT_64ND_9
NOTE_OFF_77
NOTE_OFF_65
NOTE_OFF_61
NOTE_OFF_56
NOTE_ON_75
NOTE_ON_63
NOTE_ON_60
NOTE_ON_54
TIME_SHIFT_64ND_5
NOTE_OFF_75
NOTE_OFF_63
TIME_SHIFT_64ND_5
NOTE_OFF_60
NOTE_OFF_54
NOTE_ON_80
NOTE_ON_68
NOTE_ON_61
NOTE_ON_53
TIME_SHIFT_64ND_2
NOTE_OFF_80
NOTE_OFF_68
NOTE_OFF_61
NOTE_OFF_53
TIME_SHIFT_64ND_17
NOTE_ON_78
NOTE_ON_66
NOTE_ON_61
NOTE_ON_58
TIME_SHIFT_64ND_9
NOTE_OFF_61
NOTE_OFF_58
NOTE_ON_61
NOTE_ON_56
TIME_SHIFT_64ND_9
NOTE_OFF_78
NOTE_OFF_66
NOTE_ON_77
NOTE_ON_65
TIME_SHIFT_64ND_10
NOTE_OFF_77
NOTE_OFF_65
NOTE_OFF_61
NOTE_OFF_56
NOTE_ON_82
NOTE_ON_70
NOTE_ON_61
NOTE_ON_64
NOTE_ON_55
TIME_SHIFT_64ND_11
NOTE_OFF_61
NOTE_OFF_64
NOTE_OFF_55
NOTE_ON_65
NOTE_ON_61
NOTE_ON_56
TIME_SHIFT_64ND_11
NOTE_OFF_82
NOTE_OFF_70
NOTE_OFF_65
NOTE_OFF_61
NOTE_OFF_56
NOTE_ON_80
NOTE_ON_68
TIME_SHIFT_64ND_11
NOTE_OFF_80
NOTE_OFF_68
TIME_SHIFT_64ND_11
NOTE_ON_60
NOTE_ON_54
NOTE_ON_44
NOTE_ON_32
TIME_SHIFT_64ND_23
NOTE_OFF_60
NOTE_ON_63
TIME_SHIFT_64ND_7
NOTE_OFF_63
NOTE_ON_61
TIME_SHIFT_64ND_7
NOTE_OFF_61
NOTE_OFF_54
NOTE_OFF_44
NOTE_OFF_32
NOTE_ON_61
NOTE_ON_53
NOTE_ON_44
NOTE_ON_37
TIME_SHIFT_64ND_21
NOTE_OFF_61
NOTE_OFF_53
NOTE_OFF_44
NOTE_OFF_37
