VEL_2
NOTE_ON_41
VEL_1
NOTE_ON_29
TIME_SHIFT_64ND_48
VEL_2
NOTE_ON_48
TIME_SHIFT_64ND_36
NOTE_OFF_48
VEL_2
NOTE_ON_48
TIME_SHIFT_64ND_13
NOTE_OFF_48
VEL_2
NOTE_ON_57
TIME_SHIFT_64ND_48
NOTE_OFF_57
NOTE_OFF_41
NOTE_OFF_29
VEL_2
NOTE_ON_41
VEL_1
NOTE_ON_29
TIME_SHIFT_64ND_48
VEL_2
NOTE_ON_57
TIME_SHIFT_64ND_36
NOTE_OFF_57
VEL_2
NOTE_ON_57
TIME_SHIFT_64ND_13
NOTE_OFF_57
VEL_2
NOTE_ON_63
TIME_SHIFT_64ND_48
NOTE_OFF_63
NOTE_OFF_41
NOTE_OFF_29
TIME_SHIFT_64ND_48
VEL_2
NOTE_ON_64
VEL_2
NOTE_ON_56
VEL_1
NOTE_ON_52
VEL_1
NOTE_ON_40
TIME_SHIFT_64ND_43
NOTE_OFF_64
NOTE_OFF_56
NOTE_OFF_52
NOTE_OFF_40
TIME_SHIFT_64ND_2
VEL_1
NOTE_ON_64
VEL_1
NOTE_ON_56
VEL_1
NOTE_ON_59
VEL_1
NOTE_ON_52
VEL_1
NOTE_ON_40
TIME_SHIFT_64ND_46
NOTE_OFF_64
NOTE_OFF_56
NOTE_OFF_59
NOTE_OFF_52
NOTE_OFF_40
TIME_SHIFT_64ND_2
VEL_1
NOTE_ON_64
VEL_1
NOTE_ON_59
VEL_1
NOTE_ON_56
VEL_1
NOTE_ON_52
VEL_1
NOTE_ON_40
TIME_SHIFT_64ND_96
NOTE_OFF_64
NOTE_OFF_59
NOTE_OFF_56
NOTE_OFF_52
NOTE_OFF_40
TIME_SHIFT_64ND_48
VEL_2
NOTE_ON_52
VEL_1
NOTE_ON_40
TIME_SHIFT_64ND_48
VEL_2
NOTE_ON_59
TIME_SHIFT_64ND_36
NOTE_OFF_59
VEL_2
NOTE_ON_59
TIME_SHIFT_64ND_13
NOTE_OFF_59
VEL_2
NOTE_ON_67
TIME_SHIFT_64ND_48
NOTE_OFF_67
NOTE_OFF_52
NOTE_OFF_40
VEL_2
NOTE_ON_52
VEL_1
NOTE_ON_40
TIME_SHIFT_64ND_48
VEL_2
NOTE_ON_61
TIME_SHIFT_64ND_36
NOTE_OFF_61
VEL_2
NOTE_ON_61
TIME_SHIFT_64ND_15
NOTE_OFF_61
VEL_2
NOTE_ON_70
TIME_SHIFT_64ND_48
NOTE_OFF_70
NOTE_OFF_52
NOTE_OFF_40
TIME_SHIFT_64ND_48
VEL_2
NOTE_ON_71
VEL_2
NOTE_ON_59
VEL_2
NOTE_ON_66
VEL_1
NOTE_ON_51
VEL_1
NOTE_ON_39
VEL_1
NOTE_ON_47
TIME_SHIFT_64ND_43
NOTE_OFF_71
NOTE_OFF_59
NOTE_OFF_66
NOTE_OFF_51
NOTE_OFF_39
NOTE_OFF_47
TIME_SHIFT_64ND_2
VEL_2
NOTE_ON_71
VEL_1
NOTE_ON_59
VEL_2
NOTE_ON_66
VEL_1
NOTE_ON_51
VEL_1
NOTE_ON_39
VEL_1
NOTE_ON_47
TIME_SHIFT_64ND_46
NOTE_OFF_71
NOTE_OFF_59
NOTE_OFF_66
NOTE_OFF_51
NOTE_OFF_39
NOTE_OFF_47
TIME_SHIFT_64ND_2
VEL_1
NOTE_ON_71
VEL_1
NOTE_ON_66
VEL_1
NOTE_ON_59
VEL_1
NOTE_ON_51
VEL_1
NOTE_ON_39
VEL_1
NOTE_ON_47
TIME_SHIFT_64ND_96
NOTE_OFF_71
NOTE_OFF_66
NOTE_OFF_59
NOTE_OFF_51
NOTE_OFF_39
NOTE_OFF_47
TIME_SHIFT_64ND_48
VEL_2
NOTE_ON_50
VEL_2
NOTE_ON_38
TIME_SHIFT_64ND_48
VEL_2
NOTE_ON_65
TIME_SHIFT_64ND_35
NOTE_OFF_65
VEL_3
NOTE_ON_65
TIME_SHIFT_64ND_13
NOTE_OFF_65
VEL_3
NOTE_ON_71
TIME_SHIFT_64ND_48
NOTE_OFF_71
NOTE_OFF_50
NOTE_OFF_38
VEL_3
NOTE_ON_49
VEL_2
NOTE_ON_37
TIME_SHIFT_64ND_48
VEL_3
NOTE_ON_71
TIME_SHIFT_64ND_34
NOTE_OFF_71
VEL_3
NOTE_ON_71
TIME_SHIFT_64ND_14
NOTE_OFF_71
VEL_4
NOTE_ON_77
TIME_SHIFT_64ND_48
NOTE_OFF_49
NOTE_OFF_37
VEL_3
NOTE_ON_48
VEL_2
NOTE_ON_36
TIME_SHIFT_64ND_46
NOTE_OFF_48
NOTE_OFF_36
TIME_SHIFT_64ND_2
NOTE_OFF_77
VEL_4
NOTE_ON_76
VEL_3
NOTE_ON_48
VEL_2
NOTE_ON_36
TIME_SHIFT_64ND_42
NOTE_OFF_48
NOTE_OFF_36
TIME_SHIFT_64ND_2
NOTE_OFF_76
VEL_4
NOTE_ON_79
VEL_3
NOTE_ON_48
VEL_2
NOTE_ON_36
TIME_SHIFT_64ND_48
NOTE_OFF_48
NOTE_OFF_36
TIME_SHIFT_64ND_2
NOTE_OFF_79
VEL_2
NOTE_ON_70
VEL_2
NOTE_ON_64
VEL_2
NOTE_ON_48
VEL_1
NOTE_ON_36
TIME_SHIFT_64ND_96
NOTE_OFF_70
NOTE_OFF_64
NOTE_OFF_48
NOTE_OFF_36
TIME_SHIFT_64ND_96
VEL_2
NOTE_ON_69
VEL_2
NOTE_ON_65
VEL_2
NOTE_ON_50
VEL_1
NOTE_ON_38
TIME_SHIFT_64ND_41
NOTE_OFF_69
NOTE_OFF_65
NOTE_OFF_50
NOTE_OFF_38
TIME_SHIFT_64ND_2
VEL_3
NOTE_ON_77
VEL_2
NOTE_ON_69
VEL_2
NOTE_ON_50
VEL_2
NOTE_ON_38
TIME_SHIFT_64ND_47
NOTE_OFF_77
NOTE_OFF_69
NOTE_OFF_50
NOTE_OFF_38
TIME_SHIFT_64ND_2
VEL_2
NOTE_ON_69
VEL_1
NOTE_ON_65
VEL_1
NOTE_ON_50
VEL_1
NOTE_ON_38
TIME_SHIFT_64ND_96
NOTE_OFF_69
NOTE_OFF_65
NOTE_OFF_50
NOTE_OFF_38
TIME_SHIFT_64ND_48
VEL_2
NOTE_ON_46
VEL_2
NOTE_ON_34
TIME_SHIFT_64ND_43
NOTE_OFF_46
NOTE_OFF_34
VEL_2
NOTE_ON_67
VEL_2
NOTE_ON_62
VEL_2
NOTE_ON_58
TIME_SHIFT_64ND_48
NOTE_OFF_67
NOTE_OFF_62
NOTE_OFF_58
TIME_SHIFT_64ND_48
VEL_2
NOTE_ON_48
VEL_2
NOTE_ON_36
TIME_SHIFT_64ND_46
NOTE_OFF_48
NOTE_OFF_36
VEL_2
NOTE_ON_64
VEL_2
NOTE_ON_58
VEL_2
NOTE_ON_55
TIME_SHIFT_64ND_48
NOTE_OFF_64
NOTE_OFF_58
NOTE_OFF_55
TIME_SHIFT_64ND_48
VEL_2
NOTE_ON_41
VEL_2
NOTE_ON_29
TIME_SHIFT_64ND_48
NOTE_OFF_41
NOTE_OFF_29
TIME_SHIFT_64ND_2
VEL_2
NOTE_ON_65
VEL_1
NOTE_ON_60
VEL_1
NOTE_ON_57
VEL_1
NOTE_ON_41
VEL_1
NOTE_ON_29
TIME_SHIFT_64ND_43
NOTE_OFF_65
NOTE_OFF_60
NOTE_OFF_57
NOTE_OFF_41
NOTE_OFF_29
TIME_SHIFT_64ND_2
VEL_2
NOTE_ON_69
VEL_1
NOTE_ON_60
VEL_1
NOTE_ON_57
VEL_1
NOTE_ON_41
VEL_1
NOTE_ON_29
TIME_SHIFT_64ND_43
NOTE_OFF_69
NOTE_OFF_60
NOTE_OFF_57
NOTE_OFF_41
NOTE_OFF_29
TIME_SHIFT_64ND_2
VEL_2
NOTE_ON_65
VEL_1
NOTE_ON_60
VEL_1
NOTE_ON_57
VEL_1
NOTE_ON_41
VEL_1
NOTE_ON_29
TIME_SHIFT_64ND_96
NOTE_OFF_65
NOTE_OFF_60
NOTE_OFF_57
NOTE_OFF_41
NOTE_OFF_29
VEL_3
NOTE_ON_48
TIME_SHIFT_64ND_33
NOTE_OFF_48
VEL_3
NOTE_ON_48
TIME_SHIFT_64ND_5
NOTE_OFF_48
VEL_3
NOTE_ON_48
TIME_SHIFT_64ND_5
NOTE_OFF_48
VEL_3
NOTE_ON_57
VEL_3
NOTE_ON_48
VEL_2
NOTE_ON_41
TIME_SHIFT_64ND_65
NOTE_OFF_57
NOTE_OFF_48
NOTE_OFF_41
VEL_3
NOTE_ON_55
VEL_3
NOTE_ON_48
VEL_2
NOTE_ON_40
TIME_SHIFT_64ND_20
NOTE_OFF_55
NOTE_OFF_48
NOTE_OFF_40
TIME_SHIFT_64ND_2
VEL_3
NOTE_ON_57
VEL_3
NOTE_ON_48
VEL_2
NOTE_ON_41
TIME_SHIFT_64ND_20
NOTE_OFF_57
NOTE_OFF_48
NOTE_OFF_41
TIME_SHIFT_64ND_2
VEL_4
NOTE_ON_58
VEL_3
NOTE_ON_48
VEL_2
NOTE_ON_43
TIME_SHIFT_64ND_20
NOTE_OFF_58
NOTE_OFF_48
NOTE_OFF_43
TIME_SHIFT_64ND_2
VEL_4
NOTE_ON_59
VEL_3
NOTE_ON_48
VEL_3
NOTE_ON_44
TIME_SHIFT_64ND_23
NOTE_OFF_59
NOTE_OFF_48
NOTE_OFF_44
VEL_4
NOTE_ON_60
VEL_3
NOTE_ON_48
VEL_3
NOTE_ON_45
TIME_SHIFT_64ND_43
NOTE_OFF_60
NOTE_OFF_48
NOTE_OFF_45
VEL_4
NOTE_ON_62
VEL_3
NOTE_ON_48
VEL_3
NOTE_ON_46
TIME_SHIFT_64ND_44
NOTE_OFF_62
NOTE_OFF_48
NOTE_OFF_46
VEL_3
NOTE_ON_58
VEL_2
NOTE_ON_43
VEL_2
NOTE_ON_48
TIME_SHIFT_64ND_11
NOTE_OFF_58
NOTE_OFF_43
VEL_2
NOTE_ON_57
VEL_2
NOTE_ON_41
TIME_SHIFT_64ND_11
NOTE_OFF_57
NOTE_OFF_41
NOTE_OFF_48
VEL_2
NOTE_ON_55
VEL_2
NOTE_ON_48
VEL_2
NOTE_ON_40
TIME_SHIFT_64ND_22
NOTE_OFF_55
VEL_3
NOTE_ON_66
TIME_SHIFT_64ND_20
NOTE_OFF_66
TIME_SHIFT_64ND_2
VEL_3
NOTE_ON_67
TIME_SHIFT_64ND_20
NOTE_OFF_67
TIME_SHIFT_64ND_2
NOTE_OFF_48
NOTE_OFF_40
VEL_3
NOTE_ON_69
VEL_1
NOTE_ON_60
VEL_2
NOTE_ON_54
TIME_SHIFT_64ND_20
NOTE_OFF_69
NOTE_OFF_60
NOTE_OFF_54
TIME_SHIFT_64ND_2
VEL_3
NOTE_ON_70
VEL_2
NOTE_ON_60
VEL_2
NOTE_ON_55
TIME_SHIFT_64ND_20
NOTE_OFF_70
NOTE_OFF_60
NOTE_OFF_55
TIME_SHIFT_64ND_2
VEL_3
NOTE_ON_78
VEL_2
NOTE_ON_60
VEL_2
NOTE_ON_57
TIME_SHIFT_64ND_20
NOTE_OFF_78
NOTE_OFF_60
NOTE_OFF_57
TIME_SHIFT_64ND_2
VEL_3
NOTE_ON_79
VEL_3
NOTE_ON_60
VEL_3
NOTE_ON_58
TIME_SHIFT_64ND_20
NOTE_OFF_79
NOTE_OFF_60
NOTE_OFF_58
TIME_SHIFT_64ND_2
VEL_3
NOTE_ON_81
VEL_3
NOTE_ON_42
TIME_SHIFT_64ND_20
NOTE_OFF_81
NOTE_OFF_42
TIME_SHIFT_64ND_2
VEL_3
NOTE_ON_82
VEL_3
NOTE_ON_43
TIME_SHIFT_64ND_20
NOTE_OFF_82
NOTE_OFF_43
TIME_SHIFT_64ND_2
VEL_3
NOTE_ON_45
TIME_SHIFT_64ND_20
NOTE_OFF_45
TIME_SHIFT_64ND_2
VEL_3
NOTE_ON_48
VEL_3
NOTE_ON_46
TIME_SHIFT_64ND_20
NOTE_OFF_46
TIME_SHIFT_64ND_2
VEL_3
NOTE_ON_43
TIME_SHIFT_64ND_11
NOTE_OFF_48
VEL_3
NOTE_ON_48
TIME_SHIFT_64ND_6
NOTE_OFF_48
VEL_3
NOTE_ON_48
TIME_SHIFT_64ND_4
NOTE_OFF_43
TIME_SHIFT_64ND_2
NOTE_OFF_48
VEL_4
NOTE_ON_58
VEL_2
NOTE_ON_40
TIME_SHIFT_64ND_21
NOTE_OFF_40
VEL_2
NOTE_ON_48
VEL_2
NOTE_ON_43
TIME_SHIFT_64ND_44
NOTE_OFF_58
NOTE_OFF_48
NOTE_OFF_43
VEL_3
NOTE_ON_57
VEL_3
NOTE_ON_48
VEL_2
NOTE_ON_42
TIME_SHIFT_64ND_20
NOTE_OFF_57
NOTE_OFF_48
NOTE_OFF_42
TIME_SHIFT_64ND_2
VEL_4
NOTE_ON_58
VEL_3
NOTE_ON_48
VEL_2
NOTE_ON_43
TIME_SHIFT_64ND_20
NOTE_OFF_58
NOTE_OFF_48
NOTE_OFF_43
TIME_SHIFT_64ND_2
VEL_4
NOTE_ON_60
VEL_3
NOTE_ON_48
VEL_3
NOTE_ON_45
TIME_SHIFT_64ND_20
NOTE_OFF_60
NOTE_OFF_48
NOTE_OFF_45
TIME_SHIFT_64ND_2
VEL_4
NOTE_ON_61
VEL_3
NOTE_ON_46
VEL_3
NOTE_ON_48
TIME_SHIFT_64ND_25
NOTE_OFF_61
NOTE_OFF_46
VEL_4
NOTE_ON_62
VEL_3
NOTE_ON_46
TIME_SHIFT_64ND_44
NOTE_OFF_62
NOTE_OFF_46
NOTE_OFF_48
VEL_4
NOTE_ON_60
VEL_3
NOTE_ON_55
VEL_3
NOTE_ON_48
VEL_3
NOTE_ON_40
TIME_SHIFT_64ND_44
NOTE_OFF_60
NOTE_OFF_55
NOTE_OFF_48
NOTE_OFF_40
VEL_3
NOTE_ON_62
VEL_2
NOTE_ON_52
VEL_1
NOTE_ON_48
VEL_1
NOTE_ON_36
TIME_SHIFT_64ND_11
NOTE_OFF_62
VEL_3
NOTE_ON_58
TIME_SHIFT_64ND_11
NOTE_OFF_58
NOTE_OFF_52
NOTE_OFF_48
NOTE_OFF_36
VEL_2
NOTE_ON_57
VEL_2
NOTE_ON_53
VEL_2
NOTE_ON_48
VEL_1
NOTE_ON_41
TIME_SHIFT_64ND_23
NOTE_OFF_57
NOTE_OFF_53
VEL_3
NOTE_ON_68
TIME_SHIFT_64ND_20
NOTE_OFF_68
TIME_SHIFT_64ND_2
VEL_3
NOTE_ON_69
TIME_SHIFT_64ND_20
NOTE_OFF_69
TIME_SHIFT_64ND_2
NOTE_OFF_48
NOTE_OFF_41
VEL_3
NOTE_ON_71
VEL_2
NOTE_ON_56
TIME_SHIFT_64ND_20
NOTE_OFF_71
NOTE_OFF_56
TIME_SHIFT_64ND_2
VEL_3
NOTE_ON_72
VEL_2
NOTE_ON_57
TIME_SHIFT_64ND_20
NOTE_OFF_72
NOTE_OFF_57
TIME_SHIFT_64ND_2
VEL_3
NOTE_ON_80
VEL_2
NOTE_ON_59
TIME_SHIFT_64ND_20
NOTE_OFF_80
NOTE_OFF_59
TIME_SHIFT_64ND_2
VEL_3
NOTE_ON_81
VEL_2
NOTE_ON_60
TIME_SHIFT_64ND_20
NOTE_OFF_81
NOTE_OFF_60
TIME_SHIFT_64ND_2
VEL_3
NOTE_ON_83
VEL_2
NOTE_ON_44
TIME_SHIFT_64ND_20
NOTE_OFF_83
NOTE_OFF_44
TIME_SHIFT_64ND_2
VEL_3
NOTE_ON_84
VEL_3
NOTE_ON_45
TIME_SHIFT_64ND_20
NOTE_OFF_84
NOTE_OFF_45
TIME_SHIFT_64ND_2
VEL_3
NOTE_ON_47
TIME_SHIFT_64ND_20
NOTE_OFF_47
TIME_SHIFT_64ND_2
VEL_3
NOTE_ON_72
VEL_3
NOTE_ON_48
TIME_SHIFT_64ND_20
NOTE_OFF_48
TIME_SHIFT_64ND_2
VEL_3
NOTE_ON_46
TIME_SHIFT_64ND_11
NOTE_OFF_72
VEL_3
NOTE_ON_72
TIME_SHIFT_64ND_9
NOTE_OFF_46
TIME_SHIFT_64ND_2
NOTE_OFF_72
VEL_4
NOTE_ON_65
VEL_3
NOTE_ON_45
TIME_SHIFT_64ND_44
NOTE_OFF_45
VEL_4
NOTE_ON_77
VEL_2
NOTE_ON_57
VEL_3
NOTE_ON_60
TIME_SHIFT_64ND_33
NOTE_OFF_77
VEL_3
NOTE_ON_77
TIME_SHIFT_64ND_11
NOTE_OFF_77
NOTE_OFF_65
NOTE_OFF_57
NOTE_OFF_60
VEL_4
NOTE_ON_76
VEL_3
NOTE_ON_67
VEL_3
NOTE_ON_58
VEL_3
NOTE_ON_60
TIME_SHIFT_64ND_42
NOTE_OFF_76
NOTE_OFF_58
VEL_4
NOTE_ON_79
VEL_2
NOTE_ON_52
TIME_SHIFT_64ND_44
NOTE_OFF_79
NOTE_OFF_67
NOTE_OFF_52
NOTE_OFF_60
VEL_3
NOTE_ON_70
VEL_3
NOTE_ON_64
VEL_3
NOTE_ON_55
VEL_2
NOTE_ON_48
TIME_SHIFT_64ND_31
NOTE_OFF_70
TIME_SHIFT_64ND_1
VEL_3
NOTE_ON_70
TIME_SHIFT_64ND_6
NOTE_OFF_70
TIME_SHIFT_64ND_1
VEL_3
NOTE_ON_70
TIME_SHIFT_64ND_6
NOTE_OFF_70
TIME_SHIFT_64ND_1
NOTE_OFF_64
NOTE_OFF_55
NOTE_OFF_48
VEL_3
NOTE_ON_69
VEL_2
NOTE_ON_65
VEL_3
NOTE_ON_57
VEL_2
NOTE_ON_53
TIME_SHIFT_64ND_11
NOTE_OFF_69
VEL_3
NOTE_ON_68
TIME_SHIFT_64ND_11
NOTE_OFF_68
VEL_3
NOTE_ON_69
TIME_SHIFT_64ND_11
NOTE_OFF_69
VEL_2
NOTE_ON_72
TIME_SHIFT_64ND_11
NOTE_OFF_72
NOTE_OFF_65
NOTE_OFF_57
NOTE_OFF_53
VEL_3
NOTE_ON_65
TIME_SHIFT_64ND_45
VEL_3
NOTE_ON_77
VEL_2
NOTE_ON_57
VEL_3
NOTE_ON_60
TIME_SHIFT_64ND_33
NOTE_OFF_77
VEL_3
NOTE_ON_77
TIME_SHIFT_64ND_11
NOTE_OFF_77
NOTE_OFF_65
NOTE_OFF_57
NOTE_OFF_60
VEL_4
NOTE_ON_76
VEL_3
NOTE_ON_67
VEL_3
NOTE_ON_58
VEL_3
NOTE_ON_60
TIME_SHIFT_64ND_44
NOTE_OFF_76
NOTE_OFF_58
VEL_3
NOTE_ON_79
VEL_2
NOTE_ON_52
TIME_SHIFT_64ND_46
NOTE_OFF_79
NOTE_OFF_67
NOTE_OFF_52
NOTE_OFF_60
VEL_3
NOTE_ON_70
VEL_3
NOTE_ON_64
VEL_3
NOTE_ON_55
VEL_2
NOTE_ON_48
TIME_SHIFT_64ND_34
NOTE_OFF_70
VEL_3
NOTE_ON_70
TIME_SHIFT_64ND_11
NOTE_OFF_70
NOTE_OFF_64
NOTE_OFF_55
NOTE_OFF_48
VEL_3
NOTE_ON_69
VEL_3
NOTE_ON_65
VEL_3
NOTE_ON_53
VEL_2
NOTE_ON_50
TIME_SHIFT_64ND_46
NOTE_OFF_69
NOTE_OFF_65
NOTE_OFF_53
NOTE_OFF_50
VEL_2
NOTE_ON_46
VEL_2
NOTE_ON_34
TIME_SHIFT_64ND_46
NOTE_OFF_46
NOTE_OFF_34
VEL_3
NOTE_ON_67
VEL_2
NOTE_ON_62
VEL_2
NOTE_ON_58
TIME_SHIFT_64ND_48
NOTE_OFF_67
NOTE_OFF_62
NOTE_OFF_58
TIME_SHIFT_64ND_48
VEL_2
NOTE_ON_48
VEL_2
NOTE_ON_36
TIME_SHIFT_64ND_46
NOTE_OFF_48
NOTE_OFF_36
VEL_2
NOTE_ON_64
VEL_2
NOTE_ON_58
VEL_2
NOTE_ON_55
TIME_SHIFT_64ND_48
NOTE_OFF_64
NOTE_OFF_58
NOTE_OFF_55
TIME_SHIFT_64ND_48
VEL_2
NOTE_ON_41
VEL_1
NOTE_ON_29
TIME_SHIFT_64ND_48
VEL_2
NOTE_ON_48
TIME_SHIFT_64ND_36
NOTE_OFF_48
VEL_2
NOTE_ON_48
TIME_SHIFT_64ND_13
NOTE_OFF_48
VEL_2
NOTE_ON_57
TIME_SHIFT_64ND_48
NOTE_OFF_57
NOTE_OFF_41
NOTE_OFF_29
VEL_1
NOTE_ON_29
VEL_2
NOTE_ON_41
TIME_SHIFT_64ND_48
VEL_2
NOTE_ON_57
TIME_SHIFT_64ND_36
NOTE_OFF_57
VEL_2
NOTE_ON_57
TIME_SHIFT_64ND_14
NOTE_OFF_57
NOTE_OFF_29
VEL_3
NOTE_ON_63
TIME_SHIFT_64ND_12
NOTE_OFF_41
VEL_2
NOTE_ON_45
TIME_SHIFT_64ND_12
NOTE_OFF_45
VEL_2
NOTE_ON_48
TIME_SHIFT_64ND_12
NOTE_OFF_48
VEL_2
NOTE_ON_45
TIME_SHIFT_64ND_13
NOTE_OFF_63
NOTE_OFF_45
VEL_2
NOTE_ON_64
VEL_2
NOTE_ON_40
TIME_SHIFT_64ND_46
NOTE_OFF_64
NOTE_OFF_40
TIME_SHIFT_64ND_2
VEL_2
NOTE_ON_64
VEL_2
NOTE_ON_56
VEL_2
NOTE_ON_59
VEL_1
NOTE_ON_52
VEL_1
NOTE_ON_40
TIME_SHIFT_64ND_46
NOTE_OFF_64
NOTE_OFF_56
NOTE_OFF_59
NOTE_OFF_52
NOTE_OFF_40
TIME_SHIFT_64ND_2
VEL_1
NOTE_ON_64
VEL_1
NOTE_ON_56
VEL_1
NOTE_ON_59
VEL_1
NOTE_ON_52
VEL_1
NOTE_ON_40
TIME_SHIFT_64ND_46
NOTE_OFF_64
NOTE_OFF_56
NOTE_OFF_59
NOTE_OFF_52
NOTE_OFF_40
TIME_SHIFT_64ND_2
VEL_1
NOTE_ON_64
VEL_1
NOTE_ON_59
VEL_1
NOTE_ON_56
VEL_1
NOTE_ON_52
VEL_1
NOTE_ON_40
TIME_SHIFT_64ND_46
NOTE_OFF_64
NOTE_OFF_59
NOTE_OFF_56
TIME_SHIFT_64ND_2
VEL_3
NOTE_ON_55
TIME_SHIFT_64ND_46
NOTE_OFF_55
TIME_SHIFT_64ND_2
NOTE_OFF_52
NOTE_OFF_40
VEL_3
NOTE_ON_55
TIME_SHIFT_64ND_49
NOTE_OFF_55
TIME_SHIFT_64ND_3
VEL_2
NOTE_ON_55
VEL_2
NOTE_ON_52
VEL_1
NOTE_ON_40
TIME_SHIFT_64ND_48
VEL_2
NOTE_ON_59
TIME_SHIFT_64ND_36
NOTE_OFF_59
VEL_2
NOTE_ON_59
TIME_SHIFT_64ND_13
NOTE_OFF_59
VEL_2
NOTE_ON_67
TIME_SHIFT_64ND_48
NOTE_OFF_67
NOTE_OFF_55
NOTE_OFF_52
NOTE_OFF_40
VEL_2
NOTE_ON_52
VEL_1
NOTE_ON_40
TIME_SHIFT_64ND_48
VEL_2
NOTE_ON_61
TIME_SHIFT_64ND_36
NOTE_OFF_61
VEL_2
NOTE_ON_61
TIME_SHIFT_64ND_13
NOTE_OFF_61
VEL_2
NOTE_ON_70
TIME_SHIFT_64ND_12
NOTE_OFF_52
VEL_2
NOTE_ON_52
TIME_SHIFT_64ND_11
NOTE_OFF_52
VEL_2
NOTE_ON_55
TIME_SHIFT_64ND_12
NOTE_OFF_55
VEL_2
NOTE_ON_52
TIME_SHIFT_64ND_13
NOTE_OFF_70
NOTE_OFF_52
NOTE_OFF_40
VEL_2
NOTE_ON_71
VEL_2
NOTE_ON_51
TIME_SHIFT_64ND_48
NOTE_OFF_71
NOTE_OFF_51
TIME_SHIFT_64ND_2
VEL_2
NOTE_ON_71
VEL_2
NOTE_ON_59
VEL_2
NOTE_ON_66
VEL_1
NOTE_ON_51
VEL_1
NOTE_ON_39
VEL_1
NOTE_ON_47
TIME_SHIFT_64ND_48
NOTE_OFF_71
NOTE_OFF_59
NOTE_OFF_66
NOTE_OFF_51
NOTE_OFF_39
NOTE_OFF_47
TIME_SHIFT_64ND_2
VEL_2
NOTE_ON_71
VEL_1
NOTE_ON_59
VEL_2
NOTE_ON_66
VEL_1
NOTE_ON_51
VEL_1
NOTE_ON_39
VEL_1
NOTE_ON_47
TIME_SHIFT_64ND_48
NOTE_OFF_71
NOTE_OFF_59
NOTE_OFF_66
NOTE_OFF_51
NOTE_OFF_39
NOTE_OFF_47
TIME_SHIFT_64ND_2
VEL_2
NOTE_ON_71
VEL_2
NOTE_ON_66
VEL_1
NOTE_ON_59
VEL_1
NOTE_ON_51
VEL_1
NOTE_ON_39
VEL_1
NOTE_ON_47
TIME_SHIFT_64ND_48
NOTE_OFF_71
NOTE_OFF_66
NOTE_OFF_59
TIME_SHIFT_64ND_2
NOTE_OFF_51
NOTE_OFF_39
NOTE_OFF_47
VEL_3
NOTE_ON_53
VEL_2
NOTE_ON_50
TIME_SHIFT_64ND_46
NOTE_OFF_53
NOTE_OFF_50
TIME_SHIFT_64ND_2
VEL_3
NOTE_ON_53
VEL_3
NOTE_ON_50
TIME_SHIFT_64ND_50
NOTE_OFF_53
NOTE_OFF_50
TIME_SHIFT_64ND_3
VEL_2
NOTE_ON_53
VEL_1
NOTE_ON_50
TIME_SHIFT_64ND_46
VEL_2
NOTE_ON_65
TIME_SHIFT_64ND_33
NOTE_OFF_65
VEL_3
NOTE_ON_65
TIME_SHIFT_64ND_12
NOTE_OFF_65
NOTE_OFF_53
VEL_3
NOTE_ON_71
TIME_SHIFT_64ND_11
NOTE_OFF_50
VEL_2
NOTE_ON_53
TIME_SHIFT_64ND_11
NOTE_OFF_53
VEL_2
NOTE_ON_56
TIME_SHIFT_64ND_11
NOTE_OFF_56
VEL_2
NOTE_ON_53
TIME_SHIFT_64ND_11
NOTE_OFF_53
VEL_3
NOTE_ON_49
TIME_SHIFT_64ND_44
NOTE_OFF_71
VEL_3
NOTE_ON_71
TIME_SHIFT_64ND_33
NOTE_OFF_71
VEL_3
NOTE_ON_71
TIME_SHIFT_64ND_11
NOTE_OFF_71
VEL_3
NOTE_ON_77
TIME_SHIFT_64ND_11
NOTE_OFF_49
VEL_2
NOTE_ON_53
TIME_SHIFT_64ND_11
NOTE_OFF_53
VEL_3
NOTE_ON_56
TIME_SHIFT_64ND_11
NOTE_OFF_56
VEL_2
NOTE_ON_53
TIME_SHIFT_64ND_11
NOTE_OFF_53
VEL_3
NOTE_ON_48
TIME_SHIFT_64ND_44
NOTE_OFF_77
VEL_3
NOTE_ON_77
TIME_SHIFT_64ND_33
NOTE_OFF_77
VEL_3
NOTE_ON_77
TIME_SHIFT_64ND_11
NOTE_OFF_77
VEL_4
NOTE_ON_80
TIME_SHIFT_64ND_11
NOTE_OFF_48
VEL_3
NOTE_ON_53
TIME_SHIFT_64ND_11
NOTE_OFF_53
VEL_3
NOTE_ON_56
TIME_SHIFT_64ND_11
NOTE_OFF_56
VEL_3
NOTE_ON_53
TIME_SHIFT_64ND_11
NOTE_OFF_53
VEL_3
NOTE_ON_47
TIME_SHIFT_64ND_44
NOTE_OFF_80
VEL_3
NOTE_ON_77
TIME_SHIFT_64ND_33
NOTE_OFF_77
VEL_3
NOTE_ON_77
TIME_SHIFT_64ND_11
NOTE_OFF_77
VEL_4
NOTE_ON_86
TIME_SHIFT_64ND_11
NOTE_OFF_47
VEL_3
NOTE_ON_53
TIME_SHIFT_64ND_10
NOTE_OFF_53
VEL_3
NOTE_ON_56
TIME_SHIFT_64ND_11
NOTE_OFF_56
VEL_3
NOTE_ON_53
TIME_SHIFT_64ND_11
NOTE_OFF_53
VEL_4
NOTE_ON_44
TIME_SHIFT_64ND_44
NOTE_OFF_86
VEL_4
NOTE_ON_77
TIME_SHIFT_64ND_33
NOTE_OFF_77
VEL_4
NOTE_ON_77
TIME_SHIFT_64ND_12
NOTE_OFF_77
VEL_5
NOTE_ON_89
TIME_SHIFT_64ND_11
NOTE_OFF_44
VEL_4
NOTE_ON_53
TIME_SHIFT_64ND_11
NOTE_OFF_53
VEL_4
NOTE_ON_59
TIME_SHIFT_64ND_11
NOTE_OFF_59
VEL_4
NOTE_ON_53
TIME_SHIFT_64ND_11
NOTE_OFF_53
VEL_5
NOTE_ON_43
TIME_SHIFT_64ND_43
NOTE_OFF_89
VEL_4
NOTE_ON_77
TIME_SHIFT_64ND_33
NOTE_OFF_77
VEL_4
NOTE_ON_77
TIME_SHIFT_64ND_12
NOTE_OFF_77
VEL_5
NOTE_ON_89
TIME_SHIFT_64ND_11
NOTE_OFF_43
VEL_4
NOTE_ON_53
TIME_SHIFT_64ND_11
NOTE_OFF_53
VEL_5
NOTE_ON_59
TIME_SHIFT_64ND_11
NOTE_OFF_59
VEL_4
NOTE_ON_53
TIME_SHIFT_64ND_11
NOTE_OFF_53
VEL_5
NOTE_ON_44
TIME_SHIFT_64ND_43
NOTE_OFF_89
VEL_4
NOTE_ON_77
TIME_SHIFT_64ND_33
NOTE_OFF_77
VEL_4
NOTE_ON_77
TIME_SHIFT_64ND_11
NOTE_OFF_77
VEL_5
NOTE_ON_89
TIME_SHIFT_64ND_11
NOTE_OFF_44
VEL_4
NOTE_ON_53
TIME_SHIFT_64ND_11
NOTE_OFF_53
VEL_5
NOTE_ON_59
TIME_SHIFT_64ND_11
NOTE_OFF_59
VEL_4
NOTE_ON_53
TIME_SHIFT_64ND_11
NOTE_OFF_53
VEL_5
NOTE_ON_44
TIME_SHIFT_64ND_11
NOTE_OFF_44
VEL_4
NOTE_ON_53
TIME_SHIFT_64ND_11
NOTE_OFF_53
VEL_5
NOTE_ON_59
TIME_SHIFT_64ND_11
NOTE_OFF_89
NOTE_OFF_59
VEL_4
NOTE_ON_77
VEL_4
NOTE_ON_53
TIME_SHIFT_64ND_12
NOTE_OFF_77
NOTE_OFF_53
VEL_5
NOTE_ON_89
VEL_4
NOTE_ON_44
TIME_SHIFT_64ND_11
NOTE_OFF_89
NOTE_OFF_44
VEL_3
NOTE_ON_53
TIME_SHIFT_64ND_11
NOTE_OFF_53
VEL_3
NOTE_ON_59
TIME_SHIFT_64ND_11
NOTE_OFF_59
VEL_4
NOTE_ON_74
VEL_3
NOTE_ON_53
TIME_SHIFT_64ND_12
NOTE_OFF_74
NOTE_OFF_53
VEL_5
NOTE_ON_86
VEL_3
NOTE_ON_44
TIME_SHIFT_64ND_11
NOTE_OFF_86
NOTE_OFF_44
VEL_3
NOTE_ON_53
TIME_SHIFT_64ND_11
NOTE_OFF_53
VEL_3
NOTE_ON_59
TIME_SHIFT_64ND_11
NOTE_OFF_59
VEL_4
NOTE_ON_71
VEL_3
NOTE_ON_53
TIME_SHIFT_64ND_11
NOTE_OFF_71
NOTE_OFF_53
VEL_4
NOTE_ON_83
VEL_3
NOTE_ON_43
TIME_SHIFT_64ND_11
NOTE_OFF_83
NOTE_OFF_43
VEL_2
NOTE_ON_53
TIME_SHIFT_64ND_11
NOTE_OFF_53
VEL_3
NOTE_ON_59
TIME_SHIFT_64ND_11
NOTE_OFF_59
VEL_3
NOTE_ON_65
VEL_2
NOTE_ON_53
TIME_SHIFT_64ND_11
NOTE_OFF_65
NOTE_OFF_53
VEL_4
NOTE_ON_77
VEL_3
NOTE_ON_43
TIME_SHIFT_64ND_11
NOTE_OFF_77
NOTE_OFF_43
VEL_2
NOTE_ON_50
TIME_SHIFT_64ND_11
NOTE_OFF_50
VEL_3
NOTE_ON_53
TIME_SHIFT_64ND_11
NOTE_OFF_53
VEL_3
NOTE_ON_62
VEL_2
NOTE_ON_50
TIME_SHIFT_64ND_11
NOTE_OFF_62
NOTE_OFF_50
VEL_3
NOTE_ON_74
VEL_3
NOTE_ON_43
TIME_SHIFT_64ND_11
NOTE_OFF_74
NOTE_OFF_43
VEL_2
NOTE_ON_47
TIME_SHIFT_64ND_11
NOTE_OFF_47
VEL_2
NOTE_ON_50
TIME_SHIFT_64ND_11
NOTE_OFF_50
VEL_2
NOTE_ON_59
VEL_2
NOTE_ON_47
TIME_SHIFT_64ND_12
NOTE_OFF_59
NOTE_OFF_47
VEL_3
NOTE_ON_71
VEL_2
NOTE_ON_43
TIME_SHIFT_64ND_11
NOTE_OFF_71
NOTE_OFF_43
VEL_2
NOTE_ON_47
TIME_SHIFT_64ND_11
NOTE_OFF_47
VEL_2
NOTE_ON_50
TIME_SHIFT_64ND_11
NOTE_OFF_50
VEL_2
NOTE_ON_53
VEL_2
NOTE_ON_47
TIME_SHIFT_64ND_12
NOTE_OFF_53
NOTE_OFF_47
VEL_3
NOTE_ON_65
VEL_2
NOTE_ON_43
TIME_SHIFT_64ND_12
NOTE_OFF_65
NOTE_OFF_43
VEL_2
NOTE_ON_47
TIME_SHIFT_64ND_12
NOTE_OFF_47
VEL_2
NOTE_ON_50
TIME_SHIFT_64ND_11
NOTE_OFF_50
VEL_2
NOTE_ON_50
VEL_2
NOTE_ON_47
TIME_SHIFT_64ND_12
NOTE_OFF_50
NOTE_OFF_47
VEL_2
NOTE_ON_62
VEL_2
NOTE_ON_43
TIME_SHIFT_64ND_12
NOTE_OFF_62
NOTE_OFF_43
VEL_1
NOTE_ON_38
TIME_SHIFT_64ND_12
NOTE_OFF_38
VEL_1
NOTE_ON_35
TIME_SHIFT_64ND_12
NOTE_OFF_35
VEL_2
NOTE_ON_47
VEL_1
NOTE_ON_38
TIME_SHIFT_64ND_12
NOTE_OFF_47
NOTE_OFF_38
VEL_2
NOTE_ON_59
VEL_2
NOTE_ON_31
TIME_SHIFT_64ND_47
NOTE_OFF_59
NOTE_OFF_31
TIME_SHIFT_64ND_2
VEL_1
NOTE_ON_53
VEL_1
NOTE_ON_50
VEL_1
NOTE_ON_47
VEL_1
NOTE_ON_31
VEL_1
NOTE_ON_43
TIME_SHIFT_64ND_47
NOTE_OFF_53
NOTE_OFF_50
NOTE_OFF_47
NOTE_OFF_31
NOTE_OFF_43
TIME_SHIFT_64ND_2
VEL_1
NOTE_ON_53
VEL_1
NOTE_ON_50
VEL_1
NOTE_ON_47
VEL_1
NOTE_ON_31
VEL_1
NOTE_ON_43
TIME_SHIFT_64ND_53
NOTE_OFF_53
NOTE_OFF_50
NOTE_OFF_47
NOTE_OFF_31
NOTE_OFF_43
TIME_SHIFT_64ND_3
VEL_1
NOTE_ON_53
VEL_1
NOTE_ON_50
VEL_1
NOTE_ON_47
VEL_1
NOTE_ON_44
VEL_1
NOTE_ON_32
TIME_SHIFT_64ND_98
NOTE_OFF_53
NOTE_OFF_50
NOTE_OFF_47
NOTE_OFF_44
NOTE_OFF_32
VEL_2
NOTE_ON_77
TIME_SHIFT_64ND_49
NOTE_OFF_77
VEL_2
NOTE_ON_76
TIME_SHIFT_64ND_49
NOTE_OFF_76
VEL_1
NOTE_ON_45
VEL_1
NOTE_ON_48
VEL_1
NOTE_ON_52
VEL_1
NOTE_ON_33
TIME_SHIFT_64ND_47
NOTE_OFF_45
NOTE_OFF_48
NOTE_OFF_52
NOTE_OFF_33
TIME_SHIFT_64ND_2
VEL_1
NOTE_ON_48
VEL_1
NOTE_ON_45
VEL_1
NOTE_ON_33
VEL_1
NOTE_ON_52
TIME_SHIFT_64ND_47
NOTE_OFF_48
NOTE_OFF_45
NOTE_OFF_33
NOTE_OFF_52
TIME_SHIFT_64ND_2
VEL_1
NOTE_ON_45
VEL_1
NOTE_ON_52
VEL_1
NOTE_ON_48
VEL_1
NOTE_ON_33
TIME_SHIFT_64ND_98
NOTE_OFF_45
NOTE_OFF_52
NOTE_OFF_48
NOTE_OFF_33
VEL_2
NOTE_ON_76
TIME_SHIFT_64ND_49
NOTE_OFF_76
VEL_2
NOTE_ON_74
VEL_1
NOTE_ON_41
VEL_1
NOTE_ON_29
TIME_SHIFT_64ND_49
NOTE_OFF_74
NOTE_OFF_41
NOTE_OFF_29
VEL_1
NOTE_ON_57
VEL_1
NOTE_ON_53
VEL_1
NOTE_ON_50
TIME_SHIFT_64ND_49
NOTE_OFF_57
NOTE_OFF_53
NOTE_OFF_50
VEL_2
NOTE_ON_74
TIME_SHIFT_64ND_50
NOTE_OFF_74
VEL_2
NOTE_ON_79
VEL_1
NOTE_ON_43
VEL_1
NOTE_ON_31
TIME_SHIFT_64ND_49
NOTE_OFF_79
NOTE_OFF_43
NOTE_OFF_31
VEL_1
NOTE_ON_55
VEL_1
NOTE_ON_50
VEL_1
NOTE_ON_47
TIME_SHIFT_64ND_54
NOTE_OFF_55
NOTE_OFF_50
NOTE_OFF_47
VEL_4
NOTE_ON_79
TIME_SHIFT_64ND_81
NOTE_OFF_79
