VEL_2
NOTE_ON_49
VEL_1
NOTE_ON_44
TIME_SHIFT_64ND_14
NOTE_OFF_49
NOTE_OFF_44
VEL_1
NOTE_ON_49
VEL_2
NOTE_ON_58
VEL_1
NOTE_ON_54
TIME_SHIFT_64ND_13
NOTE_OFF_49
NOTE_OFF_58
NOTE_OFF_54
VEL_1
NOTE_ON_49
VEL_1
NOTE_ON_44
TIME_SHIFT_64ND_7
NOTE_OFF_49
NOTE_OFF_44
VEL_1
NOTE_ON_58
VEL_1
NOTE_ON_54
VEL_1
NOTE_ON_49
TIME_SHIFT_64ND_7
NOTE_OFF_58
NOTE_OFF_54
NOTE_OFF_49
VEL_2
NOTE_ON_49
VEL_1
NOTE_ON_44
TIME_SHIFT_64ND_13
NOTE_OFF_49
NOTE_OFF_44
VEL_1
NOTE_ON_49
VEL_1
NOTE_ON_54
VEL_2
NOTE_ON_61
VEL_1
NOTE_ON_58
TIME_SHIFT_64ND_13
NOTE_OFF_49
NOTE_OFF_54
NOTE_OFF_61
NOTE_OFF_58
VEL_2
NOTE_ON_49
VEL_1
NOTE_ON_44
TIME_SHIFT_64ND_7
NOTE_OFF_49
NOTE_OFF_44
VEL_1
NOTE_ON_49
VEL_1
NOTE_ON_61
VEL_1
NOTE_ON_58
VEL_1
NOTE_ON_54
TIME_SHIFT_64ND_7
NOTE_OFF_49
NOTE_OFF_61
NOTE_OFF_58
NOTE_OFF_54
VEL_2
NOTE_ON_49
VEL_1
NOTE_ON_44
TIME_SHIFT_64ND_14
NOTE_OFF_49
NOTE_OFF_44
VEL_1
NOTE_ON_49
VEL_2
NOTE_ON_56
VEL_1
NOTE_ON_53
TIME_SHIFT_64ND_13
NOTE_OFF_49
NOTE_OFF_56
NOTE_OFF_53
VEL_1
NOTE_ON_49
VEL_1
NOTE_ON_44
TIME_SHIFT_64ND_7
NOTE_OFF_49
NOTE_OFF_44
VEL_1
NOTE_ON_56
VEL_1
NOTE_ON_53
VEL_1
NOTE_ON_49
TIME_SHIFT_64ND_7
NOTE_OFF_56
NOTE_OFF_53
NOTE_OFF_49
VEL_2
NOTE_ON_49
VEL_1
NOTE_ON_44
TIME_SHIFT_64ND_13
NOTE_OFF_49
NOTE_OFF_44
VEL_1
NOTE_ON_53
VEL_2
NOTE_ON_61
VEL_1
NOTE_ON_49
TIME_SHIFT_64ND_13
NOTE_OFF_53
NOTE_OFF_61
NOTE_OFF_49
VEL_1
NOTE_ON_49
VEL_1
NOTE_ON_44
TIME_SHIFT_64ND_6
NOTE_OFF_49
NOTE_OFF_44
VEL_1
NOTE_ON_49
VEL_1
NOTE_ON_53
VEL_1
NOTE_ON_61
TIME_SHIFT_64ND_7
NOTE_OFF_49
NOTE_OFF_53
NOTE_OFF_61
VEL_2
NOTE_ON_49
VEL_1
NOTE_ON_44
TIME_SHIFT_64ND_14
NOTE_OFF_49
NOTE_OFF_44
VEL_1
NOTE_ON_51
VEL_2
NOTE_ON_54
VEL_1
NOTE_ON_49
TIME_SHIFT_64ND_13
NOTE_OFF_51
NOTE_OFF_54
NOTE_OFF_49
VEL_2
NOTE_ON_49
VEL_1
NOTE_ON_44
TIME_SHIFT_64ND_7
NOTE_OFF_49
NOTE_OFF_44
VEL_1
NOTE_ON_54
VEL_1
NOTE_ON_49
VEL_1
NOTE_ON_51
TIME_SHIFT_64ND_7
NOTE_OFF_54
NOTE_OFF_49
NOTE_OFF_51
VEL_2
NOTE_ON_49
VEL_1
NOTE_ON_44
TIME_SHIFT_64ND_13
NOTE_OFF_49
NOTE_OFF_44
VEL_1
NOTE_ON_49
VEL_2
NOTE_ON_61
VEL_1
NOTE_ON_54
VEL_1
NOTE_ON_51
TIME_SHIFT_64ND_13
NOTE_OFF_49
NOTE_OFF_61
NOTE_OFF_54
NOTE_OFF_51
VEL_2
NOTE_ON_49
VEL_1
NOTE_ON_44
TIME_SHIFT_64ND_6
NOTE_OFF_49
NOTE_OFF_44
VEL_1
NOTE_ON_49
VEL_1
NOTE_ON_54
VEL_1
NOTE_ON_61
VEL_1
NOTE_ON_51
TIME_SHIFT_64ND_7
NOTE_OFF_49
NOTE_OFF_54
NOTE_OFF_61
NOTE_OFF_51
VEL_2
NOTE_ON_49
VEL_1
NOTE_ON_44
TIME_SHIFT_64ND_14
NOTE_OFF_49
NOTE_OFF_44
VEL_1
NOTE_ON_49
VEL_1
NOTE_ON_53
VEL_2
NOTE_ON_61
TIME_SHIFT_64ND_14
NOTE_OFF_49
NOTE_OFF_53
NOTE_OFF_61
VEL_1
NOTE_ON_49
VEL_1
NOTE_ON_44
TIME_SHIFT_64ND_14
NOTE_OFF_49
NOTE_OFF_44
VEL_1
NOTE_ON_49
VEL_1
NOTE_ON_61
VEL_1
NOTE_ON_53
TIME_SHIFT_64ND_15
NOTE_OFF_49
NOTE_OFF_61
NOTE_OFF_53
VEL_1
NOTE_ON_49
VEL_1
NOTE_ON_44
TIME_SHIFT_64ND_15
NOTE_OFF_49
NOTE_OFF_44
VEL_1
NOTE_ON_49
VEL_1
NOTE_ON_53
VEL_1
NOTE_ON_61
TIME_SHIFT_64ND_15
NOTE_OFF_49
NOTE_OFF_53
NOTE_OFF_61
VEL_1
NOTE_ON_49
VEL_1
NOTE_ON_44
TIME_SHIFT_64ND_15
NOTE_OFF_49
NOTE_OFF_44
VEL_1
NOTE_ON_53
VEL_1
NOTE_ON_61
VEL_1
NOTE_ON_49
TIME_SHIFT_64ND_15
NOTE_OFF_53
NOTE_OFF_61
NOTE_OFF_49
VEL_1
NOTE_ON_49
VEL_1
NOTE_ON_44
TIME_SHIFT_64ND_16
NOTE_OFF_49
NOTE_OFF_44
VEL_1
NOTE_ON_49
VEL_1
NOTE_ON_53
VEL_1
NOTE_ON_61
TIME_SHIFT_64ND_17
NOTE_OFF_49
NOTE_OFF_53
NOTE_OFF_61
VEL_1
NOTE_ON_49
VEL_1
NOTE_ON_44
TIME_SHIFT_64ND_14
NOTE_OFF_49
NOTE_OFF_44
TIME_SHIFT_64ND_94
VEL_3
NOTE_ON_58
VEL_2
NOTE_ON_54
VEL_2
NOTE_ON_49
VEL_2
NOTE_ON_44
TIME_SHIFT_64ND_7
NOTE_OFF_58
NOTE_OFF_54
TIME_SHIFT_64ND_7
VEL_3
NOTE_ON_58
VEL_2
NOTE_ON_54
VEL_2
NOTE_ON_56
TIME_SHIFT_64ND_1
NOTE_OFF_49
NOTE_OFF_44
TIME_SHIFT_64ND_12
NOTE_OFF_56
VEL_3
NOTE_ON_60
VEL_2
NOTE_ON_49
VEL_1
NOTE_ON_44
TIME_SHIFT_64ND_7
NOTE_OFF_49
NOTE_OFF_44
VEL_2
NOTE_ON_56
TIME_SHIFT_64ND_7
NOTE_OFF_60
NOTE_OFF_56
VEL_3
NOTE_ON_63
VEL_2
NOTE_ON_49
VEL_2
NOTE_ON_44
TIME_SHIFT_64ND_7
NOTE_OFF_63
TIME_SHIFT_64ND_7
NOTE_OFF_58
NOTE_OFF_54
VEL_3
NOTE_ON_63
VEL_2
NOTE_ON_54
VEL_2
NOTE_ON_58
VEL_2
NOTE_ON_56
TIME_SHIFT_64ND_1
NOTE_OFF_49
NOTE_OFF_44
TIME_SHIFT_64ND_12
NOTE_OFF_63
NOTE_OFF_56
VEL_3
NOTE_ON_60
VEL_2
NOTE_ON_49
VEL_1
NOTE_ON_44
TIME_SHIFT_64ND_6
NOTE_OFF_49
NOTE_OFF_44
VEL_2
NOTE_ON_56
TIME_SHIFT_64ND_7
NOTE_OFF_60
NOTE_OFF_54
NOTE_OFF_58
NOTE_OFF_56
VEL_2
NOTE_ON_61
VEL_2
NOTE_ON_56
VEL_2
NOTE_ON_53
VEL_2
NOTE_ON_49
VEL_2
NOTE_ON_44
TIME_SHIFT_64ND_7
NOTE_OFF_61
NOTE_OFF_56
NOTE_OFF_53
TIME_SHIFT_64ND_7
VEL_3
NOTE_ON_61
VEL_2
NOTE_ON_53
VEL_2
NOTE_ON_56
TIME_SHIFT_64ND_1
NOTE_OFF_49
NOTE_OFF_44
TIME_SHIFT_64ND_12
NOTE_OFF_61
NOTE_OFF_56
VEL_2
NOTE_ON_60
VEL_2
NOTE_ON_49
VEL_1
NOTE_ON_44
TIME_SHIFT_64ND_7
NOTE_OFF_49
NOTE_OFF_44
VEL_2
NOTE_ON_56
TIME_SHIFT_64ND_7
NOTE_OFF_56
NOTE_OFF_60
VEL_2
NOTE_ON_56
VEL_1
NOTE_ON_44
VEL_2
NOTE_ON_49
TIME_SHIFT_64ND_14
NOTE_OFF_56
NOTE_OFF_53
NOTE_OFF_44
VEL_2
NOTE_ON_53
VEL_1
NOTE_ON_56
TIME_SHIFT_64ND_1
NOTE_OFF_49
TIME_SHIFT_64ND_12
NOTE_OFF_56
VEL_2
NOTE_ON_49
VEL_1
NOTE_ON_44
TIME_SHIFT_64ND_7
NOTE_OFF_49
NOTE_OFF_44
VEL_1
NOTE_ON_56
TIME_SHIFT_64ND_7
NOTE_OFF_53
NOTE_OFF_56
VEL_3
NOTE_ON_54
VEL_2
NOTE_ON_51
VEL_2
NOTE_ON_49
VEL_2
NOTE_ON_44
TIME_SHIFT_64ND_7
NOTE_OFF_54
NOTE_OFF_51
TIME_SHIFT_64ND_7
VEL_3
NOTE_ON_54
VEL_2
NOTE_ON_51
VEL_2
NOTE_ON_56
TIME_SHIFT_64ND_1
NOTE_OFF_49
NOTE_OFF_44
TIME_SHIFT_64ND_12
NOTE_OFF_56
VEL_3
NOTE_ON_58
VEL_2
NOTE_ON_49
VEL_1
NOTE_ON_44
TIME_SHIFT_64ND_7
NOTE_OFF_49
NOTE_OFF_44
VEL_2
NOTE_ON_56
TIME_SHIFT_64ND_7
NOTE_OFF_58
NOTE_OFF_56
VEL_3
NOTE_ON_60
VEL_2
NOTE_ON_49
VEL_2
NOTE_ON_44
TIME_SHIFT_64ND_7
NOTE_OFF_60
TIME_SHIFT_64ND_7
NOTE_OFF_54
NOTE_OFF_51
VEL_3
NOTE_ON_60
VEL_2
NOTE_ON_51
VEL_2
NOTE_ON_54
VEL_2
NOTE_ON_56
TIME_SHIFT_64ND_1
NOTE_OFF_49
NOTE_OFF_44
TIME_SHIFT_64ND_12
NOTE_OFF_60
NOTE_OFF_56
VEL_3
NOTE_ON_56
VEL_2
NOTE_ON_49
VEL_1
NOTE_ON_44
TIME_SHIFT_64ND_6
NOTE_OFF_49
NOTE_OFF_44
VEL_2
NOTE_ON_56
TIME_SHIFT_64ND_7
NOTE_OFF_56
NOTE_OFF_51
NOTE_OFF_54
NOTE_OFF_56
VEL_2
NOTE_ON_61
VEL_2
NOTE_ON_56
VEL_2
NOTE_ON_49
VEL_2
NOTE_ON_44
TIME_SHIFT_64ND_7
NOTE_OFF_61
NOTE_OFF_56
TIME_SHIFT_64ND_7
VEL_3
NOTE_ON_61
VEL_2
NOTE_ON_53
VEL_2
NOTE_ON_56
TIME_SHIFT_64ND_1
NOTE_OFF_49
NOTE_OFF_44
TIME_SHIFT_64ND_12
NOTE_OFF_56
VEL_2
NOTE_ON_49
VEL_1
NOTE_ON_44
TIME_SHIFT_64ND_7
NOTE_OFF_49
NOTE_OFF_44
VEL_2
NOTE_ON_56
TIME_SHIFT_64ND_7
NOTE_OFF_61
NOTE_OFF_56
VEL_2
NOTE_ON_60
VEL_2
NOTE_ON_49
VEL_1
NOTE_ON_44
TIME_SHIFT_64ND_7
NOTE_OFF_60
TIME_SHIFT_64ND_7
NOTE_OFF_53
VEL_2
NOTE_ON_60
VEL_2
NOTE_ON_53
VEL_1
NOTE_ON_56
TIME_SHIFT_64ND_1
NOTE_OFF_49
NOTE_OFF_44
TIME_SHIFT_64ND_12
NOTE_OFF_56
VEL_2
NOTE_ON_49
VEL_1
NOTE_ON_44
TIME_SHIFT_64ND_7
NOTE_OFF_49
NOTE_OFF_44
VEL_1
NOTE_ON_56
TIME_SHIFT_64ND_7
NOTE_OFF_60
NOTE_OFF_53
NOTE_OFF_56
VEL_3
NOTE_ON_58
VEL_2
NOTE_ON_54
VEL_2
NOTE_ON_49
VEL_2
NOTE_ON_44
TIME_SHIFT_64ND_7
NOTE_OFF_58
NOTE_OFF_54
TIME_SHIFT_64ND_7
VEL_3
NOTE_ON_58
VEL_2
NOTE_ON_54
VEL_2
NOTE_ON_56
TIME_SHIFT_64ND_1
NOTE_OFF_49
NOTE_OFF_44
TIME_SHIFT_64ND_12
NOTE_OFF_56
VEL_3
NOTE_ON_60
VEL_2
NOTE_ON_49
VEL_1
NOTE_ON_44
TIME_SHIFT_64ND_7
NOTE_OFF_49
NOTE_OFF_44
VEL_2
NOTE_ON_56
TIME_SHIFT_64ND_7
NOTE_OFF_60
NOTE_OFF_56
VEL_3
NOTE_ON_63
VEL_2
NOTE_ON_49
VEL_2
NOTE_ON_44
TIME_SHIFT_64ND_7
NOTE_OFF_63
TIME_SHIFT_64ND_7
NOTE_OFF_58
NOTE_OFF_54
VEL_3
NOTE_ON_63
VEL_2
NOTE_ON_54
VEL_2
NOTE_ON_58
VEL_2
NOTE_ON_56
TIME_SHIFT_64ND_1
NOTE_OFF_49
NOTE_OFF_44
TIME_SHIFT_64ND_12
NOTE_OFF_63
NOTE_OFF_56
VEL_3
NOTE_ON_60
VEL_2
NOTE_ON_49
VEL_1
NOTE_ON_44
TIME_SHIFT_64ND_6
NOTE_OFF_49
NOTE_OFF_44
VEL_2
NOTE_ON_56
TIME_SHIFT_64ND_7
NOTE_OFF_60
NOTE_OFF_54
NOTE_OFF_58
NOTE_OFF_56
VEL_2
NOTE_ON_61
VEL_2
NOTE_ON_56
VEL_2
NOTE_ON_53
VEL_2
NOTE_ON_49
VEL_2
NOTE_ON_44
TIME_SHIFT_64ND_7
NOTE_OFF_61
NOTE_OFF_56
NOTE_OFF_53
TIME_SHIFT_64ND_7
VEL_3
NOTE_ON_61
VEL_2
NOTE_ON_53
VEL_2
NOTE_ON_56
TIME_SHIFT_64ND_1
NOTE_OFF_49
NOTE_OFF_44
TIME_SHIFT_64ND_12
NOTE_OFF_61
NOTE_OFF_56
VEL_2
NOTE_ON_60
VEL_2
NOTE_ON_49
VEL_1
NOTE_ON_44
TIME_SHIFT_64ND_7
NOTE_OFF_60
NOTE_OFF_49
NOTE_OFF_44
VEL_2
NOTE_ON_61
VEL_2
NOTE_ON_56
TIME_SHIFT_64ND_3
NOTE_OFF_61
VEL_2
NOTE_ON_60
TIME_SHIFT_64ND_3
NOTE_OFF_56
NOTE_OFF_60
VEL_2
NOTE_ON_56
VEL_2
NOTE_ON_49
VEL_1
NOTE_ON_44
TIME_SHIFT_64ND_14
NOTE_OFF_56
NOTE_OFF_53
NOTE_OFF_49
NOTE_OFF_44
VEL_2
NOTE_ON_53
VEL_1
NOTE_ON_56
TIME_SHIFT_64ND_14
NOTE_OFF_56
VEL_2
NOTE_ON_49
VEL_1
NOTE_ON_44
TIME_SHIFT_64ND_7
NOTE_OFF_49
NOTE_OFF_44
VEL_1
NOTE_ON_56
TIME_SHIFT_64ND_7
NOTE_OFF_53
NOTE_OFF_56
VEL_3
NOTE_ON_63
VEL_2
NOTE_ON_54
VEL_2
NOTE_ON_58
VEL_2
NOTE_ON_49
VEL_2
NOTE_ON_44
TIME_SHIFT_64ND_7
NOTE_OFF_63
NOTE_OFF_54
NOTE_OFF_58
TIME_SHIFT_64ND_7
VEL_3
NOTE_ON_63
VEL_3
NOTE_ON_58
VEL_2
NOTE_ON_54
VEL_2
NOTE_ON_56
TIME_SHIFT_64ND_1
NOTE_OFF_49
NOTE_OFF_44
TIME_SHIFT_64ND_12
NOTE_OFF_63
NOTE_OFF_56
VEL_3
NOTE_ON_65
VEL_2
NOTE_ON_49
VEL_1
NOTE_ON_44
TIME_SHIFT_64ND_7
NOTE_OFF_49
NOTE_OFF_44
VEL_2
NOTE_ON_56
TIME_SHIFT_64ND_7
NOTE_OFF_65
NOTE_OFF_56
VEL_3
NOTE_ON_66
VEL_2
NOTE_ON_49
VEL_2
NOTE_ON_44
TIME_SHIFT_64ND_7
NOTE_OFF_66
TIME_SHIFT_64ND_7
NOTE_OFF_58
NOTE_OFF_54
VEL_3
NOTE_ON_66
VEL_2
NOTE_ON_58
VEL_2
NOTE_ON_56
TIME_SHIFT_64ND_1
NOTE_OFF_49
NOTE_OFF_44
TIME_SHIFT_64ND_12
NOTE_OFF_66
NOTE_OFF_58
NOTE_OFF_56
VEL_3
NOTE_ON_65
VEL_2
NOTE_ON_60
VEL_2
NOTE_ON_49
VEL_1
NOTE_ON_44
TIME_SHIFT_64ND_6
NOTE_OFF_49
NOTE_OFF_44
VEL_2
NOTE_ON_56
TIME_SHIFT_64ND_7
NOTE_OFF_65
NOTE_OFF_60
NOTE_OFF_56
VEL_2
NOTE_ON_61
VEL_2
NOTE_ON_53
VEL_2
NOTE_ON_49
VEL_1
NOTE_ON_44
TIME_SHIFT_64ND_14
NOTE_OFF_49
NOTE_OFF_44
VEL_2
NOTE_ON_56
TIME_SHIFT_64ND_13
NOTE_OFF_56
VEL_2
NOTE_ON_49
VEL_2
NOTE_ON_44
TIME_SHIFT_64ND_7
NOTE_OFF_49
NOTE_OFF_44
VEL_2
NOTE_ON_56
TIME_SHIFT_64ND_7
NOTE_OFF_56
VEL_2
NOTE_ON_49
VEL_2
NOTE_ON_44
TIME_SHIFT_64ND_14
NOTE_OFF_49
NOTE_OFF_44
VEL_2
NOTE_ON_56
TIME_SHIFT_64ND_13
NOTE_OFF_56
VEL_3
NOTE_ON_49
VEL_2
NOTE_ON_44
TIME_SHIFT_64ND_7
NOTE_OFF_49
NOTE_OFF_44
VEL_3
NOTE_ON_56
TIME_SHIFT_64ND_4
NOTE_OFF_56
VEL_3
NOTE_ON_37
TIME_SHIFT_64ND_4
NOTE_OFF_61
NOTE_OFF_53
VEL_4
NOTE_ON_68
VEL_3
NOTE_ON_59
VEL_3
NOTE_ON_62
VEL_3
NOTE_ON_65
VEL_3
NOTE_ON_49
TIME_SHIFT_64ND_14
NOTE_OFF_68
NOTE_OFF_59
NOTE_OFF_62
NOTE_OFF_65
VEL_4
NOTE_ON_68
VEL_3
NOTE_ON_59
VEL_3
NOTE_ON_62
VEL_3
NOTE_ON_65
TIME_SHIFT_64ND_13
NOTE_OFF_49
NOTE_OFF_37
VEL_2
NOTE_ON_49
TIME_SHIFT_64ND_7
NOTE_OFF_68
VEL_4
NOTE_ON_70
TIME_SHIFT_64ND_7
NOTE_OFF_70
NOTE_OFF_49
VEL_4
NOTE_ON_68
VEL_3
NOTE_ON_37
TIME_SHIFT_64ND_7
NOTE_OFF_68
TIME_SHIFT_64ND_7
NOTE_OFF_59
NOTE_OFF_62
NOTE_OFF_65
VEL_4
NOTE_ON_66
VEL_3
NOTE_ON_59
VEL_3
NOTE_ON_62
VEL_2
NOTE_ON_49
TIME_SHIFT_64ND_7
NOTE_OFF_66
NOTE_OFF_59
NOTE_OFF_62
TIME_SHIFT_64ND_7
NOTE_OFF_49
VEL_4
NOTE_ON_65
VEL_3
NOTE_ON_62
VEL_3
NOTE_ON_59
VEL_3
NOTE_ON_49
TIME_SHIFT_64ND_6
NOTE_OFF_65
NOTE_OFF_62
NOTE_OFF_59
NOTE_OFF_49
TIME_SHIFT_64ND_7
NOTE_OFF_37
VEL_4
NOTE_ON_66
VEL_3
NOTE_ON_37
TIME_SHIFT_64ND_14
NOTE_OFF_66
NOTE_OFF_37
VEL_4
NOTE_ON_66
VEL_3
NOTE_ON_63
VEL_3
NOTE_ON_58
VEL_2
NOTE_ON_49
TIME_SHIFT_64ND_13
NOTE_OFF_66
NOTE_OFF_63
NOTE_OFF_58
NOTE_OFF_49
VEL_3
NOTE_ON_65
VEL_3
NOTE_ON_37
TIME_SHIFT_64ND_3
NOTE_OFF_65
VEL_3
NOTE_ON_66
TIME_SHIFT_64ND_3
NOTE_OFF_66
NOTE_OFF_37
VEL_3
NOTE_ON_65
VEL_2
NOTE_ON_49
TIME_SHIFT_64ND_3
NOTE_OFF_65
VEL_3
NOTE_ON_63
TIME_SHIFT_64ND_3
NOTE_OFF_63
NOTE_OFF_49
VEL_4
NOTE_ON_63
VEL_3
NOTE_ON_37
TIME_SHIFT_64ND_14
NOTE_OFF_37
VEL_3
NOTE_ON_54
VEL_3
NOTE_ON_58
VEL_2
NOTE_ON_49
TIME_SHIFT_64ND_14
NOTE_OFF_49
VEL_2
NOTE_ON_37
TIME_SHIFT_64ND_7
NOTE_OFF_37
VEL_2
NOTE_ON_49
TIME_SHIFT_64ND_7
NOTE_OFF_54
NOTE_OFF_58
NOTE_OFF_63
NOTE_OFF_49
VEL_4
NOTE_ON_57
VEL_3
NOTE_ON_37
TIME_SHIFT_64ND_14
NOTE_OFF_37
VEL_4
NOTE_ON_65
VEL_2
NOTE_ON_49
TIME_SHIFT_64ND_13
NOTE_OFF_49
VEL_3
NOTE_ON_37
TIME_SHIFT_64ND_7
NOTE_OFF_65
NOTE_OFF_37
VEL_4
NOTE_ON_63
VEL_2
NOTE_ON_49
TIME_SHIFT_64ND_3
NOTE_OFF_63
VEL_3
NOTE_ON_65
TIME_SHIFT_64ND_3
NOTE_OFF_65
NOTE_OFF_49
VEL_4
NOTE_ON_63
VEL_3
NOTE_ON_37
TIME_SHIFT_64ND_14
NOTE_OFF_63
NOTE_OFF_57
NOTE_OFF_37
VEL_4
NOTE_ON_61
VEL_3
NOTE_ON_57
VEL_3
NOTE_ON_65
VEL_2
NOTE_ON_49
TIME_SHIFT_64ND_13
NOTE_OFF_61
NOTE_OFF_49
VEL_4
NOTE_ON_60
VEL_3
NOTE_ON_37
TIME_SHIFT_64ND_6
NOTE_OFF_37
VEL_2
NOTE_ON_49
TIME_SHIFT_64ND_7
NOTE_OFF_60
NOTE_OFF_57
NOTE_OFF_65
NOTE_OFF_49
VEL_4
NOTE_ON_61
VEL_3
NOTE_ON_37
TIME_SHIFT_64ND_7
NOTE_OFF_61
TIME_SHIFT_64ND_7
VEL_4
NOTE_ON_61
VEL_3
NOTE_ON_58
VEL_3
NOTE_ON_65
VEL_2
NOTE_ON_49
TIME_SHIFT_64ND_1
NOTE_OFF_37
TIME_SHIFT_64ND_12
NOTE_OFF_49
VEL_3
NOTE_ON_37
TIME_SHIFT_64ND_7
NOTE_OFF_37
VEL_2
NOTE_ON_49
TIME_SHIFT_64ND_7
NOTE_OFF_61
NOTE_OFF_58
NOTE_OFF_65
NOTE_OFF_49
VEL_4
NOTE_ON_60
VEL_3
NOTE_ON_37
TIME_SHIFT_64ND_7
NOTE_OFF_60
TIME_SHIFT_64ND_7
VEL_4
NOTE_ON_60
VEL_3
NOTE_ON_56
VEL_3
NOTE_ON_65
VEL_2
NOTE_ON_49
TIME_SHIFT_64ND_1
NOTE_OFF_37
TIME_SHIFT_64ND_12
NOTE_OFF_49
VEL_3
NOTE_ON_37
TIME_SHIFT_64ND_7
NOTE_OFF_37
VEL_2
NOTE_ON_49
TIME_SHIFT_64ND_4
NOTE_OFF_49
VEL_2
NOTE_ON_37
TIME_SHIFT_64ND_4
NOTE_OFF_60
NOTE_OFF_56
NOTE_OFF_65
VEL_4
NOTE_ON_68
VEL_3
NOTE_ON_59
VEL_3
NOTE_ON_62
VEL_3
NOTE_ON_65
VEL_3
NOTE_ON_49
TIME_SHIFT_64ND_14
NOTE_OFF_68
NOTE_OFF_59
NOTE_OFF_62
NOTE_OFF_65
VEL_4
NOTE_ON_68
VEL_3
NOTE_ON_59
VEL_3
NOTE_ON_62
VEL_3
NOTE_ON_65
TIME_SHIFT_64ND_13
NOTE_OFF_49
NOTE_OFF_37
VEL_2
NOTE_ON_49
TIME_SHIFT_64ND_7
NOTE_OFF_68
VEL_4
NOTE_ON_70
TIME_SHIFT_64ND_7
NOTE_OFF_70
NOTE_OFF_49
VEL_4
NOTE_ON_68
VEL_3
NOTE_ON_37
TIME_SHIFT_64ND_7
NOTE_OFF_68
TIME_SHIFT_64ND_7
NOTE_OFF_59
NOTE_OFF_62
NOTE_OFF_65
VEL_4
NOTE_ON_66
VEL_3
NOTE_ON_59
VEL_3
NOTE_ON_62
VEL_2
NOTE_ON_49
TIME_SHIFT_64ND_7
NOTE_OFF_66
NOTE_OFF_59
NOTE_OFF_62
TIME_SHIFT_64ND_7
NOTE_OFF_49
VEL_4
NOTE_ON_65
VEL_3
NOTE_ON_62
VEL_3
NOTE_ON_59
VEL_3
NOTE_ON_49
TIME_SHIFT_64ND_6
NOTE_OFF_65
NOTE_OFF_62
NOTE_OFF_59
NOTE_OFF_49
TIME_SHIFT_64ND_7
NOTE_OFF_37
VEL_4
NOTE_ON_66
VEL_3
NOTE_ON_37
TIME_SHIFT_64ND_14
NOTE_OFF_66
NOTE_OFF_37
VEL_4
NOTE_ON_66
VEL_3
NOTE_ON_63
VEL_3
NOTE_ON_58
VEL_2
NOTE_ON_49
TIME_SHIFT_64ND_13
NOTE_OFF_66
NOTE_OFF_63
NOTE_OFF_58
NOTE_OFF_49
VEL_3
NOTE_ON_65
VEL_3
NOTE_ON_37
TIME_SHIFT_64ND_3
NOTE_OFF_65
VEL_3
NOTE_ON_66
TIME_SHIFT_64ND_3
NOTE_OFF_66
NOTE_OFF_37
VEL_3
NOTE_ON_65
VEL_2
NOTE_ON_49
TIME_SHIFT_64ND_3
NOTE_OFF_65
VEL_3
NOTE_ON_63
TIME_SHIFT_64ND_3
NOTE_OFF_63
NOTE_OFF_49
VEL_4
NOTE_ON_63
VEL_3
NOTE_ON_37
TIME_SHIFT_64ND_14
NOTE_OFF_37
VEL_3
NOTE_ON_54
VEL_3
NOTE_ON_58
VEL_2
NOTE_ON_49
TIME_SHIFT_64ND_14
NOTE_OFF_49
VEL_2
NOTE_ON_37
TIME_SHIFT_64ND_7
NOTE_OFF_37
VEL_2
NOTE_ON_49
TIME_SHIFT_64ND_7
NOTE_OFF_54
NOTE_OFF_58
NOTE_OFF_63
NOTE_OFF_49
VEL_4
NOTE_ON_57
VEL_3
NOTE_ON_37
TIME_SHIFT_64ND_14
NOTE_OFF_37
VEL_4
NOTE_ON_65
VEL_2
NOTE_ON_49
TIME_SHIFT_64ND_13
NOTE_OFF_49
VEL_3
NOTE_ON_37
TIME_SHIFT_64ND_7
NOTE_OFF_65
NOTE_OFF_37
VEL_4
NOTE_ON_63
VEL_2
NOTE_ON_49
TIME_SHIFT_64ND_3
NOTE_OFF_63
VEL_3
NOTE_ON_65
TIME_SHIFT_64ND_3
NOTE_OFF_65
NOTE_OFF_49
VEL_4
NOTE_ON_63
VEL_3
NOTE_ON_37
TIME_SHIFT_64ND_14
NOTE_OFF_63
NOTE_OFF_57
NOTE_OFF_37
VEL_4
NOTE_ON_61
VEL_3
NOTE_ON_57
VEL_3
NOTE_ON_65
VEL_2
NOTE_ON_49
TIME_SHIFT_64ND_13
NOTE_OFF_61
NOTE_OFF_49
VEL_4
NOTE_ON_60
VEL_3
NOTE_ON_37
TIME_SHIFT_64ND_6
NOTE_OFF_37
VEL_2
NOTE_ON_49
TIME_SHIFT_64ND_7
NOTE_OFF_60
NOTE_OFF_57
NOTE_OFF_65
NOTE_OFF_49
VEL_4
NOTE_ON_61
VEL_3
NOTE_ON_37
TIME_SHIFT_64ND_7
NOTE_OFF_61
TIME_SHIFT_64ND_7
VEL_4
NOTE_ON_61
VEL_3
NOTE_ON_58
VEL_3
NOTE_ON_65
VEL_2
NOTE_ON_49
TIME_SHIFT_64ND_1
NOTE_OFF_37
TIME_SHIFT_64ND_12
NOTE_OFF_49
VEL_3
NOTE_ON_37
TIME_SHIFT_64ND_7
NOTE_OFF_37
VEL_2
NOTE_ON_49
TIME_SHIFT_64ND_7
NOTE_OFF_61
NOTE_OFF_58
NOTE_OFF_65
NOTE_OFF_49
VEL_4
NOTE_ON_60
VEL_3
NOTE_ON_37
TIME_SHIFT_64ND_7
NOTE_OFF_60
TIME_SHIFT_64ND_7
VEL_4
NOTE_ON_60
VEL_3
NOTE_ON_56
VEL_3
NOTE_ON_65
VEL_2
NOTE_ON_49
TIME_SHIFT_64ND_1
NOTE_OFF_37
TIME_SHIFT_64ND_12
NOTE_OFF_49
VEL_3
NOTE_ON_37
TIME_SHIFT_64ND_7
NOTE_OFF_37
VEL_2
NOTE_ON_49
TIME_SHIFT_64ND_7
NOTE_OFF_60
NOTE_OFF_56
NOTE_OFF_65
NOTE_OFF_49
VEL_4
NOTE_ON_70
VEL_3
NOTE_ON_66
VEL_3
NOTE_ON_49
VEL_2
NOTE_ON_44
TIME_SHIFT_64ND_7
NOTE_OFF_70
NOTE_OFF_66
VEL_2
NOTE_ON_54
TIME_SHIFT_64ND_1
NOTE_OFF_49
NOTE_OFF_44
TIME_SHIFT_64ND_6
VEL_4
NOTE_ON_70
VEL_3
NOTE_ON_66
VEL_2
NOTE_ON_58
TIME_SHIFT_64ND_1
NOTE_OFF_54
TIME_SHIFT_64ND_6
NOTE_OFF_58
VEL_2
NOTE_ON_54
TIME_SHIFT_64ND_7
NOTE_OFF_54
VEL_3
NOTE_ON_72
VEL_2
NOTE_ON_49
VEL_2
NOTE_ON_44
TIME_SHIFT_64ND_7
NOTE_OFF_49
NOTE_OFF_44
VEL_2
NOTE_ON_54
TIME_SHIFT_64ND_7
NOTE_OFF_72
NOTE_OFF_54
VEL_4
NOTE_ON_75
VEL_3
NOTE_ON_49
VEL_2
NOTE_ON_44
TIME_SHIFT_64ND_7
NOTE_OFF_75
VEL_2
NOTE_ON_54
TIME_SHIFT_64ND_1
NOTE_OFF_49
NOTE_OFF_44
TIME_SHIFT_64ND_6
NOTE_OFF_70
NOTE_OFF_66
VEL_4
NOTE_ON_75
VEL_3
NOTE_ON_66
VEL_3
NOTE_ON_70
VEL_2
NOTE_ON_60
TIME_SHIFT_64ND_1
NOTE_OFF_54
TIME_SHIFT_64ND_6
NOTE_OFF_60
VEL_2
NOTE_ON_54
TIME_SHIFT_64ND_7
NOTE_OFF_75
NOTE_OFF_54
VEL_3
NOTE_ON_72
VEL_2
NOTE_ON_49
VEL_2
NOTE_ON_44
TIME_SHIFT_64ND_6
NOTE_OFF_49
NOTE_OFF_44
VEL_2
NOTE_ON_54
TIME_SHIFT_64ND_7
NOTE_OFF_72
NOTE_OFF_66
NOTE_OFF_70
NOTE_OFF_54
VEL_3
NOTE_ON_73
VEL_3
NOTE_ON_68
VEL_3
NOTE_ON_65
VEL_3
NOTE_ON_49
VEL_2
NOTE_ON_44
TIME_SHIFT_64ND_7
NOTE_OFF_73
NOTE_OFF_68
NOTE_OFF_65
VEL_2
NOTE_ON_53
TIME_SHIFT_64ND_1
NOTE_OFF_49
NOTE_OFF_44
TIME_SHIFT_64ND_6
VEL_3
NOTE_ON_73
VEL_3
NOTE_ON_65
VEL_3
NOTE_ON_68
VEL_2
NOTE_ON_61
TIME_SHIFT_64ND_1
NOTE_OFF_53
TIME_SHIFT_64ND_6
NOTE_OFF_61
VEL_2
NOTE_ON_53
TIME_SHIFT_64ND_7
NOTE_OFF_73
NOTE_OFF_53
VEL_3
NOTE_ON_72
VEL_2
NOTE_ON_49
VEL_2
NOTE_ON_44
TIME_SHIFT_64ND_4
NOTE_OFF_72
VEL_3
NOTE_ON_73
TIME_SHIFT_64ND_2
NOTE_OFF_49
NOTE_OFF_44
VEL_2
NOTE_ON_53
TIME_SHIFT_64ND_2
NOTE_OFF_73
VEL_3
NOTE_ON_72
TIME_SHIFT_64ND_5
NOTE_OFF_72
NOTE_OFF_65
NOTE_OFF_68
NOTE_OFF_53
VEL_3
NOTE_ON_68
VEL_2
NOTE_ON_49
VEL_1
NOTE_ON_44
TIME_SHIFT_64ND_7
NOTE_OFF_49
NOTE_OFF_44
VEL_2
NOTE_ON_53
TIME_SHIFT_64ND_7
NOTE_OFF_53
VEL_3
NOTE_ON_65
VEL_1
NOTE_ON_56
TIME_SHIFT_64ND_7
NOTE_OFF_56
VEL_2
NOTE_ON_53
TIME_SHIFT_64ND_7
NOTE_OFF_53
VEL_2
NOTE_ON_49
VEL_1
NOTE_ON_44
TIME_SHIFT_64ND_7
NOTE_OFF_49
NOTE_OFF_44
VEL_2
NOTE_ON_53
TIME_SHIFT_64ND_7
NOTE_OFF_65
NOTE_OFF_68
NOTE_OFF_53
VEL_4
NOTE_ON_66
VEL_3
NOTE_ON_63
VEL_3
NOTE_ON_49
VEL_2
NOTE_ON_44
TIME_SHIFT_64ND_7
NOTE_OFF_66
NOTE_OFF_63
VEL_2
NOTE_ON_54
TIME_SHIFT_64ND_1
NOTE_OFF_49
NOTE_OFF_44
TIME_SHIFT_64ND_6
VEL_4
NOTE_ON_66
VEL_3
NOTE_ON_63
VEL_2
NOTE_ON_58
TIME_SHIFT_64ND_1
NOTE_OFF_54
TIME_SHIFT_64ND_6
NOTE_OFF_58
VEL_2
NOTE_ON_54
TIME_SHIFT_64ND_7
NOTE_OFF_54
VEL_3
NOTE_ON_70
VEL_2
NOTE_ON_49
VEL_2
NOTE_ON_44
TIME_SHIFT_64ND_7
NOTE_OFF_49
NOTE_OFF_44
VEL_2
NOTE_ON_54
TIME_SHIFT_64ND_7
NOTE_OFF_70
NOTE_OFF_54
VEL_4
NOTE_ON_72
VEL_3
NOTE_ON_49
VEL_2
NOTE_ON_44
TIME_SHIFT_64ND_7
NOTE_OFF_72
VEL_2
NOTE_ON_54
TIME_SHIFT_64ND_1
NOTE_OFF_49
NOTE_OFF_44
TIME_SHIFT_64ND_6
NOTE_OFF_66
NOTE_OFF_63
VEL_4
NOTE_ON_72
VEL_3
NOTE_ON_63
VEL_3
NOTE_ON_66
VEL_2
NOTE_ON_60
TIME_SHIFT_64ND_1
NOTE_OFF_54
TIME_SHIFT_64ND_6
NOTE_OFF_60
VEL_2
NOTE_ON_54
TIME_SHIFT_64ND_7
NOTE_OFF_72
NOTE_OFF_54
VEL_3
NOTE_ON_68
VEL_2
NOTE_ON_49
VEL_2
NOTE_ON_44
TIME_SHIFT_64ND_6
NOTE_OFF_49
NOTE_OFF_44
VEL_2
NOTE_ON_54
TIME_SHIFT_64ND_7
NOTE_OFF_68
NOTE_OFF_63
NOTE_OFF_66
NOTE_OFF_54
VEL_3
NOTE_ON_73
VEL_3
NOTE_ON_65
VEL_3
NOTE_ON_49
VEL_2
NOTE_ON_44
TIME_SHIFT_64ND_7
NOTE_OFF_73
NOTE_OFF_65
VEL_2
NOTE_ON_53
TIME_SHIFT_64ND_1
NOTE_OFF_49
NOTE_OFF_44
TIME_SHIFT_64ND_6
VEL_3
NOTE_ON_73
VEL_3
NOTE_ON_65
VEL_3
NOTE_ON_68
VEL_2
NOTE_ON_61
TIME_SHIFT_64ND_1
NOTE_OFF_53
TIME_SHIFT_64ND_6
NOTE_OFF_61
VEL_2
NOTE_ON_53
TIME_SHIFT_64ND_7
NOTE_OFF_53
VEL_2
NOTE_ON_49
VEL_2
NOTE_ON_44
TIME_SHIFT_64ND_7
NOTE_OFF_49
NOTE_OFF_44
VEL_2
NOTE_ON_53
TIME_SHIFT_64ND_7
NOTE_OFF_73
NOTE_OFF_53
VEL_3
NOTE_ON_72
VEL_2
NOTE_ON_49
VEL_2
NOTE_ON_44
TIME_SHIFT_64ND_7
NOTE_OFF_72
VEL_2
NOTE_ON_53
TIME_SHIFT_64ND_1
NOTE_OFF_49
NOTE_OFF_44
TIME_SHIFT_64ND_6
NOTE_OFF_65
NOTE_OFF_68
VEL_3
NOTE_ON_72
VEL_3
NOTE_ON_65
VEL_3
NOTE_ON_68
VEL_2
NOTE_ON_56
TIME_SHIFT_64ND_1
NOTE_OFF_53
TIME_SHIFT_64ND_6
NOTE_OFF_56
VEL_2
NOTE_ON_53
TIME_SHIFT_64ND_7
NOTE_OFF_53
VEL_2
NOTE_ON_49
VEL_2
NOTE_ON_44
TIME_SHIFT_64ND_7
NOTE_OFF_49
NOTE_OFF_44
VEL_2
NOTE_ON_53
TIME_SHIFT_64ND_7
NOTE_OFF_72
NOTE_OFF_65
NOTE_OFF_68
NOTE_OFF_53
VEL_4
NOTE_ON_70
VEL_3
NOTE_ON_66
VEL_3
NOTE_ON_49
VEL_2
NOTE_ON_44
TIME_SHIFT_64ND_7
NOTE_OFF_70
NOTE_OFF_66
VEL_2
NOTE_ON_54
TIME_SHIFT_64ND_1
NOTE_OFF_49
NOTE_OFF_44
TIME_SHIFT_64ND_6
VEL_4
NOTE_ON_70
VEL_3
NOTE_ON_66
VEL_2
NOTE_ON_58
TIME_SHIFT_64ND_1
NOTE_OFF_54
TIME_SHIFT_64ND_6
NOTE_OFF_58
VEL_2
NOTE_ON_54
TIME_SHIFT_64ND_7
NOTE_OFF_54
VEL_3
NOTE_ON_72
VEL_2
NOTE_ON_49
VEL_2
NOTE_ON_44
TIME_SHIFT_64ND_7
NOTE_OFF_49
NOTE_OFF_44
VEL_2
NOTE_ON_54
TIME_SHIFT_64ND_7
NOTE_OFF_72
NOTE_OFF_54
VEL_4
NOTE_ON_75
VEL_3
NOTE_ON_49
VEL_2
NOTE_ON_44
TIME_SHIFT_64ND_7
NOTE_OFF_75
VEL_2
NOTE_ON_54
TIME_SHIFT_64ND_1
NOTE_OFF_49
NOTE_OFF_44
TIME_SHIFT_64ND_6
NOTE_OFF_70
NOTE_OFF_66
VEL_4
NOTE_ON_75
VEL_3
NOTE_ON_66
VEL_3
NOTE_ON_70
VEL_2
NOTE_ON_60
TIME_SHIFT_64ND_1
NOTE_OFF_54
TIME_SHIFT_64ND_6
NOTE_OFF_60
VEL_2
NOTE_ON_54
TIME_SHIFT_64ND_7
NOTE_OFF_75
NOTE_OFF_54
VEL_3
NOTE_ON_72
VEL_2
NOTE_ON_49
VEL_2
NOTE_ON_44
TIME_SHIFT_64ND_6
NOTE_OFF_49
NOTE_OFF_44
VEL_2
NOTE_ON_54
TIME_SHIFT_64ND_7
NOTE_OFF_72
NOTE_OFF_66
NOTE_OFF_70
NOTE_OFF_54
VEL_3
NOTE_ON_73
VEL_3
NOTE_ON_68
VEL_3
NOTE_ON_65
VEL_3
NOTE_ON_49
VEL_2
NOTE_ON_44
TIME_SHIFT_64ND_7
NOTE_OFF_73
NOTE_OFF_68
NOTE_OFF_65
VEL_2
NOTE_ON_53
TIME_SHIFT_64ND_1
NOTE_OFF_49
NOTE_OFF_44
TIME_SHIFT_64ND_6
VEL_3
NOTE_ON_73
VEL_3
NOTE_ON_65
VEL_3
NOTE_ON_68
VEL_2
NOTE_ON_61
TIME_SHIFT_64ND_1
NOTE_OFF_53
TIME_SHIFT_64ND_6
NOTE_OFF_61
VEL_2
NOTE_ON_53
TIME_SHIFT_64ND_7
NOTE_OFF_73
NOTE_OFF_53
VEL_3
NOTE_ON_72
VEL_2
NOTE_ON_49
VEL_2
NOTE_ON_44
TIME_SHIFT_64ND_4
NOTE_OFF_72
VEL_3
NOTE_ON_73
TIME_SHIFT_64ND_2
NOTE_OFF_49
NOTE_OFF_44
VEL_2
NOTE_ON_53
TIME_SHIFT_64ND_2
NOTE_OFF_73
VEL_3
NOTE_ON_72
TIME_SHIFT_64ND_5
NOTE_OFF_72
NOTE_OFF_65
NOTE_OFF_68
NOTE_OFF_53
VEL_3
NOTE_ON_68
VEL_2
NOTE_ON_49
VEL_1
NOTE_ON_44
TIME_SHIFT_64ND_7
NOTE_OFF_49
NOTE_OFF_44
VEL_2
NOTE_ON_53
TIME_SHIFT_64ND_7
NOTE_OFF_53
VEL_3
NOTE_ON_65
VEL_1
NOTE_ON_56
TIME_SHIFT_64ND_7
NOTE_OFF_56
VEL_2
NOTE_ON_53
TIME_SHIFT_64ND_7
NOTE_OFF_53
VEL_2
NOTE_ON_49
VEL_1
NOTE_ON_44
TIME_SHIFT_64ND_7
NOTE_OFF_49
NOTE_OFF_44
VEL_2
NOTE_ON_53
TIME_SHIFT_64ND_7
NOTE_OFF_65
NOTE_OFF_68
NOTE_OFF_53
VEL_4
NOTE_ON_75
VEL_3
NOTE_ON_66
VEL_3
NOTE_ON_70
VEL_3
NOTE_ON_49
VEL_2
NOTE_ON_44
TIME_SHIFT_64ND_7
NOTE_OFF_75
NOTE_OFF_66
NOTE_OFF_70
VEL_2
NOTE_ON_54
TIME_SHIFT_64ND_1
NOTE_OFF_49
NOTE_OFF_44
TIME_SHIFT_64ND_6
VEL_4
NOTE_ON_75
VEL_3
NOTE_ON_66
VEL_3
NOTE_ON_70
VEL_2
NOTE_ON_58
TIME_SHIFT_64ND_1
NOTE_OFF_54
TIME_SHIFT_64ND_6
NOTE_OFF_58
VEL_2
NOTE_ON_54
TIME_SHIFT_64ND_7
NOTE_OFF_75
NOTE_OFF_54
VEL_4
NOTE_ON_77
VEL_2
NOTE_ON_49
VEL_2
NOTE_ON_44
TIME_SHIFT_64ND_7
NOTE_OFF_49
NOTE_OFF_44
VEL_2
NOTE_ON_54
TIME_SHIFT_64ND_7
NOTE_OFF_77
NOTE_OFF_54
VEL_4
NOTE_ON_78
VEL_3
NOTE_ON_49
VEL_2
NOTE_ON_44
TIME_SHIFT_64ND_7
NOTE_OFF_78
VEL_2
NOTE_ON_54
TIME_SHIFT_64ND_1
NOTE_OFF_49
NOTE_OFF_44
TIME_SHIFT_64ND_6
NOTE_OFF_66
NOTE_OFF_70
VEL_4
NOTE_ON_78
VEL_3
NOTE_ON_70
VEL_2
NOTE_ON_60
TIME_SHIFT_64ND_1
NOTE_OFF_54
TIME_SHIFT_64ND_6
NOTE_OFF_60
VEL_2
NOTE_ON_54
TIME_SHIFT_64ND_7
NOTE_OFF_78
NOTE_OFF_70
NOTE_OFF_54
VEL_4
NOTE_ON_77
VEL_3
NOTE_ON_68
VEL_2
NOTE_ON_49
VEL_2
NOTE_ON_44
TIME_SHIFT_64ND_6
NOTE_OFF_49
NOTE_OFF_44
VEL_2
NOTE_ON_54
TIME_SHIFT_64ND_7
NOTE_OFF_77
NOTE_OFF_68
NOTE_OFF_54
VEL_3
NOTE_ON_65
VEL_3
NOTE_ON_73
VEL_3
NOTE_ON_44
VEL_2
NOTE_ON_37
TIME_SHIFT_64ND_7
NOTE_OFF_44
NOTE_OFF_37
VEL_2
NOTE_ON_49
TIME_SHIFT_64ND_7
NOTE_OFF_49
VEL_2
NOTE_ON_53
TIME_SHIFT_64ND_7
NOTE_OFF_53
VEL_2
NOTE_ON_56
TIME_SHIFT_64ND_7
NOTE_OFF_56
VEL_2
NOTE_ON_61
TIME_SHIFT_64ND_7
NOTE_OFF_61
VEL_2
NOTE_ON_65
TIME_SHIFT_64ND_3
NOTE_OFF_65
NOTE_OFF_65
TIME_SHIFT_64ND_3
NOTE_OFF_73
VEL_3
NOTE_ON_73
TIME_SHIFT_64ND_14
VEL_2
NOTE_ON_65
TIME_SHIFT_64ND_13
NOTE_OFF_65
VEL_2
NOTE_ON_56
TIME_SHIFT_64ND_14
NOTE_OFF_73
NOTE_OFF_56
VEL_3
NOTE_ON_82
VEL_2
NOTE_ON_78
VEL_2
NOTE_ON_73
VEL_2
NOTE_ON_49
TIME_SHIFT_64ND_7
NOTE_OFF_82
NOTE_OFF_78
NOTE_OFF_73
TIME_SHIFT_64ND_7
NOTE_OFF_49
VEL_3
NOTE_ON_82
VEL_2
NOTE_ON_78
VEL_2
NOTE_ON_73
VEL_2
NOTE_ON_58
TIME_SHIFT_64ND_13
VEL_2
NOTE_ON_49
TIME_SHIFT_64ND_13
NOTE_OFF_82
NOTE_OFF_78
NOTE_OFF_73
NOTE_OFF_49
NOTE_OFF_58
VEL_3
NOTE_ON_80
VEL_2
NOTE_ON_75
VEL_2
NOTE_ON_72
VEL_2
NOTE_ON_49
TIME_SHIFT_64ND_7
NOTE_OFF_80
NOTE_OFF_75
NOTE_OFF_72
TIME_SHIFT_64ND_7
NOTE_OFF_49
VEL_3
NOTE_ON_80
VEL_2
NOTE_ON_75
VEL_2
NOTE_ON_72
VEL_2
NOTE_ON_60
TIME_SHIFT_64ND_13
VEL_2
NOTE_ON_49
TIME_SHIFT_64ND_14
NOTE_OFF_80
NOTE_OFF_75
NOTE_OFF_72
NOTE_OFF_49
NOTE_OFF_60
VEL_2
NOTE_ON_73
VEL_2
NOTE_ON_70
VEL_3
NOTE_ON_77
VEL_2
NOTE_ON_49
TIME_SHIFT_64ND_7
NOTE_OFF_73
NOTE_OFF_70
NOTE_OFF_77
TIME_SHIFT_64ND_7
NOTE_OFF_49
VEL_3
NOTE_ON_77
VEL_2
NOTE_ON_73
VEL_2
NOTE_ON_70
VEL_2
NOTE_ON_61
TIME_SHIFT_64ND_13
VEL_2
NOTE_ON_49
TIME_SHIFT_64ND_13
NOTE_OFF_77
NOTE_OFF_73
NOTE_OFF_70
NOTE_OFF_49
NOTE_OFF_61
VEL_3
NOTE_ON_80
VEL_2
NOTE_ON_77
VEL_2
NOTE_ON_71
VEL_2
NOTE_ON_49
TIME_SHIFT_64ND_6
NOTE_OFF_80
VEL_3
NOTE_ON_82
TIME_SHIFT_64ND_6
NOTE_OFF_82
NOTE_OFF_77
NOTE_OFF_71
NOTE_OFF_49
VEL_3
NOTE_ON_80
VEL_2
NOTE_ON_71
VEL_2
NOTE_ON_62
VEL_2
NOTE_ON_77
TIME_SHIFT_64ND_6
NOTE_OFF_80
VEL_3
NOTE_ON_78
TIME_SHIFT_64ND_3
NOTE_OFF_78
VEL_3
NOTE_ON_80
TIME_SHIFT_64ND_3
NOTE_OFF_80
VEL_3
NOTE_ON_78
VEL_2
NOTE_ON_49
TIME_SHIFT_64ND_7
NOTE_OFF_78
VEL_3
NOTE_ON_77
TIME_SHIFT_64ND_7
NOTE_OFF_77
NOTE_OFF_77
NOTE_OFF_71
NOTE_OFF_49
NOTE_OFF_62
VEL_2
NOTE_ON_70
VEL_2
NOTE_ON_75
VEL_3
NOTE_ON_78
VEL_2
NOTE_ON_49
TIME_SHIFT_64ND_7
NOTE_OFF_70
NOTE_OFF_75
NOTE_OFF_78
TIME_SHIFT_64ND_7
NOTE_OFF_49
VEL_3
NOTE_ON_78
VEL_2
NOTE_ON_75
VEL_2
NOTE_ON_70
VEL_2
NOTE_ON_63
TIME_SHIFT_64ND_13
VEL_2
NOTE_ON_49
TIME_SHIFT_64ND_13
NOTE_OFF_78
NOTE_OFF_75
NOTE_OFF_70
NOTE_OFF_49
NOTE_OFF_63
VEL_3
NOTE_ON_77
VEL_2
NOTE_ON_72
VEL_2
NOTE_ON_68
VEL_2
NOTE_ON_49
TIME_SHIFT_64ND_7
NOTE_OFF_77
NOTE_OFF_72
NOTE_OFF_68
TIME_SHIFT_64ND_7
NOTE_OFF_49
VEL_3
NOTE_ON_77
VEL_2
NOTE_ON_72
VEL_2
NOTE_ON_68
VEL_2
NOTE_ON_56
TIME_SHIFT_64ND_13
VEL_2
NOTE_ON_49
TIME_SHIFT_64ND_14
NOTE_OFF_77
NOTE_OFF_72
NOTE_OFF_68
NOTE_OFF_49
NOTE_OFF_56
VEL_2
NOTE_ON_68
VEL_2
NOTE_ON_65
VEL_3
NOTE_ON_73
VEL_2
NOTE_ON_49
TIME_SHIFT_64ND_7
NOTE_OFF_68
NOTE_OFF_65
NOTE_OFF_73
TIME_SHIFT_64ND_7
NOTE_OFF_49
VEL_3
NOTE_ON_73
VEL_2
NOTE_ON_68
VEL_2
NOTE_ON_65
VEL_2
NOTE_ON_61
TIME_SHIFT_64ND_13
VEL_2
NOTE_ON_49
TIME_SHIFT_64ND_13
NOTE_OFF_73
NOTE_OFF_68
NOTE_OFF_65
NOTE_OFF_49
NOTE_OFF_61
VEL_2
NOTE_ON_49
TIME_SHIFT_64ND_13
NOTE_OFF_49
VEL_3
NOTE_ON_65
VEL_3
NOTE_ON_61
VEL_2
NOTE_ON_56
TIME_SHIFT_64ND_7
NOTE_OFF_65
NOTE_OFF_61
TIME_SHIFT_64ND_7
VEL_3
NOTE_ON_68
VEL_3
NOTE_ON_65
VEL_3
NOTE_ON_61
VEL_2
NOTE_ON_49
TIME_SHIFT_64ND_7
NOTE_OFF_68
NOTE_OFF_65
NOTE_OFF_61
TIME_SHIFT_64ND_7
NOTE_OFF_49
NOTE_OFF_56
VEL_4
NOTE_ON_70
VEL_3
NOTE_ON_66
VEL_3
NOTE_ON_61
VEL_3
NOTE_ON_54
TIME_SHIFT_64ND_7
NOTE_OFF_70
NOTE_OFF_66
NOTE_OFF_61
TIME_SHIFT_64ND_7
VEL_4
NOTE_ON_70
VEL_3
NOTE_ON_66
VEL_3
NOTE_ON_61
VEL_2
NOTE_ON_44
TIME_SHIFT_64ND_13
NOTE_OFF_44
VEL_2
NOTE_ON_44
TIME_SHIFT_64ND_13
NOTE_OFF_70
NOTE_OFF_66
NOTE_OFF_61
NOTE_OFF_44
NOTE_OFF_54
VEL_4
NOTE_ON_68
VEL_3
NOTE_ON_63
VEL_3
NOTE_ON_60
VEL_3
NOTE_ON_56
TIME_SHIFT_64ND_7
NOTE_OFF_68
NOTE_OFF_63
NOTE_OFF_60
TIME_SHIFT_64ND_7
VEL_4
NOTE_ON_68
VEL_3
NOTE_ON_63
VEL_3
NOTE_ON_60
VEL_2
NOTE_ON_44
TIME_SHIFT_64ND_13
NOTE_OFF_44
VEL_2
NOTE_ON_44
TIME_SHIFT_64ND_14
NOTE_OFF_68
NOTE_OFF_63
NOTE_OFF_60
NOTE_OFF_44
NOTE_OFF_56
VEL_3
NOTE_ON_61
VEL_4
NOTE_ON_65
VEL_3
NOTE_ON_58
TIME_SHIFT_64ND_7
NOTE_OFF_61
NOTE_OFF_65
TIME_SHIFT_64ND_7
VEL_4
NOTE_ON_65
VEL_3
NOTE_ON_61
VEL_2
NOTE_ON_44
TIME_SHIFT_64ND_13
NOTE_OFF_44
VEL_2
NOTE_ON_44
TIME_SHIFT_64ND_13
NOTE_OFF_65
NOTE_OFF_61
NOTE_OFF_44
NOTE_OFF_58
VEL_4
NOTE_ON_68
VEL_3
NOTE_ON_62
VEL_3
NOTE_ON_59
TIME_SHIFT_64ND_7
NOTE_OFF_68
VEL_4
NOTE_ON_70
TIME_SHIFT_64ND_7
NOTE_OFF_70
NOTE_OFF_62
VEL_4
NOTE_ON_68
VEL_2
NOTE_ON_44
VEL_3
NOTE_ON_62
TIME_SHIFT_64ND_6
NOTE_OFF_68
VEL_4
NOTE_ON_66
TIME_SHIFT_64ND_3
NOTE_OFF_66
VEL_4
NOTE_ON_68
TIME_SHIFT_64ND_3
NOTE_OFF_68
NOTE_OFF_44
VEL_4
NOTE_ON_66
VEL_2
NOTE_ON_44
TIME_SHIFT_64ND_7
NOTE_OFF_66
VEL_4
NOTE_ON_65
TIME_SHIFT_64ND_7
NOTE_OFF_65
NOTE_OFF_44
NOTE_OFF_59
VEL_4
NOTE_ON_66
VEL_3
NOTE_ON_61
VEL_3
NOTE_ON_58
NOTE_OFF_62
TIME_SHIFT_64ND_6
NOTE_OFF_66
NOTE_OFF_61
TIME_SHIFT_64ND_7
VEL_4
NOTE_ON_66
VEL_3
NOTE_ON_61
VEL_2
NOTE_ON_44
TIME_SHIFT_64ND_13
NOTE_OFF_44
VEL_2
NOTE_ON_44
TIME_SHIFT_64ND_13
NOTE_OFF_66
NOTE_OFF_61
NOTE_OFF_44
NOTE_OFF_58
VEL_3
NOTE_ON_65
VEL_2
NOTE_ON_60
VEL_2
NOTE_ON_56
TIME_SHIFT_64ND_7
NOTE_OFF_65
NOTE_OFF_60
TIME_SHIFT_64ND_7
VEL_3
NOTE_ON_65
VEL_2
NOTE_ON_60
VEL_2
NOTE_ON_44
TIME_SHIFT_64ND_13
NOTE_OFF_56
VEL_2
NOTE_ON_54
TIME_SHIFT_64ND_14
NOTE_OFF_65
NOTE_OFF_60
NOTE_OFF_54
NOTE_OFF_44
VEL_2
NOTE_ON_53
VEL_2
NOTE_ON_61
VEL_2
NOTE_ON_44
VEL_1
NOTE_ON_37
TIME_SHIFT_64ND_7
NOTE_OFF_44
NOTE_OFF_37
VEL_1
NOTE_ON_49
TIME_SHIFT_64ND_7
NOTE_OFF_53
NOTE_OFF_61
NOTE_OFF_49
VEL_2
NOTE_ON_53
TIME_SHIFT_64ND_7
NOTE_OFF_53
VEL_1
NOTE_ON_56
TIME_SHIFT_64ND_7
NOTE_OFF_56
VEL_2
NOTE_ON_61
TIME_SHIFT_64ND_8
NOTE_OFF_61
VEL_1
NOTE_ON_65
TIME_SHIFT_64ND_8
VEL_2
NOTE_ON_73
TIME_SHIFT_64ND_54
NOTE_OFF_73
NOTE_OFF_65
VEL_2
NOTE_ON_49
VEL_1
NOTE_ON_44
TIME_SHIFT_64ND_14
NOTE_OFF_49
NOTE_OFF_44
VEL_1
NOTE_ON_49
VEL_1
NOTE_ON_54
VEL_2
NOTE_ON_58
TIME_SHIFT_64ND_13
NOTE_OFF_49
NOTE_OFF_54
NOTE_OFF_58
VEL_1
NOTE_ON_49
VEL_1
NOTE_ON_44
TIME_SHIFT_64ND_7
NOTE_OFF_49
NOTE_OFF_44
VEL_1
NOTE_ON_58
VEL_1
NOTE_ON_54
VEL_1
NOTE_ON_49
TIME_SHIFT_64ND_7
NOTE_OFF_58
NOTE_OFF_54
NOTE_OFF_49
VEL_2
NOTE_ON_49
VEL_1
NOTE_ON_44
TIME_SHIFT_64ND_13
NOTE_OFF_49
NOTE_OFF_44
VEL_1
NOTE_ON_49
VEL_2
NOTE_ON_61
VEL_1
NOTE_ON_58
VEL_1
NOTE_ON_54
TIME_SHIFT_64ND_13
NOTE_OFF_49
NOTE_OFF_61
NOTE_OFF_58
NOTE_OFF_54
VEL_2
NOTE_ON_49
VEL_1
NOTE_ON_44
TIME_SHIFT_64ND_7
NOTE_OFF_49
NOTE_OFF_44
VEL_1
NOTE_ON_49
VEL_1
NOTE_ON_61
VEL_1
NOTE_ON_58
VEL_1
NOTE_ON_54
TIME_SHIFT_64ND_7
NOTE_OFF_49
NOTE_OFF_61
NOTE_OFF_58
NOTE_OFF_54
VEL_2
NOTE_ON_49
VEL_1
NOTE_ON_44
TIME_SHIFT_64ND_14
NOTE_OFF_49
NOTE_OFF_44
VEL_1
NOTE_ON_49
VEL_1
NOTE_ON_53
VEL_2
NOTE_ON_56
TIME_SHIFT_64ND_13
NOTE_OFF_49
NOTE_OFF_53
NOTE_OFF_56
VEL_1
NOTE_ON_49
VEL_1
NOTE_ON_44
TIME_SHIFT_64ND_7
NOTE_OFF_49
NOTE_OFF_44
VEL_1
NOTE_ON_56
VEL_1
NOTE_ON_53
VEL_1
NOTE_ON_49
TIME_SHIFT_64ND_7
NOTE_OFF_56
NOTE_OFF_53
NOTE_OFF_49
VEL_2
NOTE_ON_49
VEL_1
NOTE_ON_44
TIME_SHIFT_64ND_13
NOTE_OFF_49
NOTE_OFF_44
VEL_1
NOTE_ON_49
VEL_1
NOTE_ON_53
VEL_2
NOTE_ON_61
TIME_SHIFT_64ND_13
NOTE_OFF_49
NOTE_OFF_53
NOTE_OFF_61
VEL_1
NOTE_ON_49
VEL_1
NOTE_ON_44
TIME_SHIFT_64ND_6
NOTE_OFF_49
NOTE_OFF_44
VEL_1
NOTE_ON_49
VEL_1
NOTE_ON_53
VEL_1
NOTE_ON_61
TIME_SHIFT_64ND_7
NOTE_OFF_49
NOTE_OFF_53
NOTE_OFF_61
VEL_2
NOTE_ON_49
VEL_1
NOTE_ON_44
TIME_SHIFT_64ND_14
NOTE_OFF_49
NOTE_OFF_44
VEL_1
NOTE_ON_49
VEL_1
NOTE_ON_51
VEL_2
NOTE_ON_54
TIME_SHIFT_64ND_13
NOTE_OFF_49
NOTE_OFF_51
NOTE_OFF_54
VEL_2
NOTE_ON_49
VEL_1
NOTE_ON_44
TIME_SHIFT_64ND_7
NOTE_OFF_49
NOTE_OFF_44
VEL_1
NOTE_ON_54
VEL_1
NOTE_ON_51
VEL_1
NOTE_ON_49
TIME_SHIFT_64ND_7
NOTE_OFF_54
NOTE_OFF_51
NOTE_OFF_49
VEL_2
NOTE_ON_49
VEL_1
NOTE_ON_44
TIME_SHIFT_64ND_13
NOTE_OFF_49
NOTE_OFF_44
VEL_1
NOTE_ON_49
VEL_2
NOTE_ON_61
VEL_1
NOTE_ON_54
VEL_1
NOTE_ON_51
TIME_SHIFT_64ND_13
NOTE_OFF_49
NOTE_OFF_61
NOTE_OFF_54
NOTE_OFF_51
VEL_2
NOTE_ON_49
VEL_1
NOTE_ON_44
TIME_SHIFT_64ND_6
NOTE_OFF_49
NOTE_OFF_44
VEL_1
NOTE_ON_49
VEL_1
NOTE_ON_61
VEL_1
NOTE_ON_54
VEL_1
NOTE_ON_51
TIME_SHIFT_64ND_7
NOTE_OFF_49
NOTE_OFF_61
NOTE_OFF_54
NOTE_OFF_51
VEL_2
NOTE_ON_49
VEL_1
NOTE_ON_44
TIME_SHIFT_64ND_14
NOTE_OFF_49
NOTE_OFF_44
VEL_1
NOTE_ON_49
VEL_1
NOTE_ON_53
VEL_2
NOTE_ON_61
TIME_SHIFT_64ND_14
NOTE_OFF_49
NOTE_OFF_53
NOTE_OFF_61
VEL_1
NOTE_ON_49
VEL_1
NOTE_ON_44
TIME_SHIFT_64ND_14
NOTE_OFF_49
NOTE_OFF_44
VEL_1
NOTE_ON_49
VEL_1
NOTE_ON_53
VEL_1
NOTE_ON_61
TIME_SHIFT_64ND_15
NOTE_OFF_49
NOTE_OFF_53
NOTE_OFF_61
VEL_1
NOTE_ON_49
VEL_1
NOTE_ON_44
TIME_SHIFT_64ND_15
NOTE_OFF_49
NOTE_OFF_44
VEL_1
NOTE_ON_49
VEL_1
NOTE_ON_53
VEL_1
NOTE_ON_61
TIME_SHIFT_64ND_15
NOTE_OFF_49
NOTE_OFF_53
NOTE_OFF_61
VEL_1
NOTE_ON_49
VEL_1
NOTE_ON_44
TIME_SHIFT_64ND_15
NOTE_OFF_49
NOTE_OFF_44
VEL_1
NOTE_ON_49
VEL_1
NOTE_ON_53
VEL_1
NOTE_ON_61
TIME_SHIFT_64ND_15
NOTE_OFF_49
NOTE_OFF_53
NOTE_OFF_61
VEL_1
NOTE_ON_49
VEL_1
NOTE_ON_44
TIME_SHIFT_64ND_17
NOTE_OFF_49
NOTE_OFF_44
VEL_1
NOTE_ON_49
VEL_1
NOTE_ON_53
VEL_1
NOTE_ON_61
TIME_SHIFT_64ND_17
NOTE_OFF_49
NOTE_OFF_53
NOTE_OFF_61
VEL_1
NOTE_ON_49
VEL_1
NOTE_ON_44
TIME_SHIFT_64ND_14
NOTE_OFF_49
NOTE_OFF_44
