VEL_3
NOTE_ON_73
VEL_2
NOTE_ON_70
VEL_2
NOTE_ON_66
VEL_2
NOTE_ON_54
VEL_2
NOTE_ON_58
VEL_2
NOTE_ON_63
TIME_SHIFT_64ND_30
NOTE_OFF_73
NOTE_OFF_70
NOTE_OFF_66
NOTE_OFF_54
NOTE_OFF_58
NOTE_OFF_63
VEL_2
NOTE_ON_61
VEL_1
NOTE_ON_49
TIME_SHIFT_64ND_31
NOTE_OFF_61
NOTE_OFF_49
VEL_3
NOTE_ON_73
VEL_2
NOTE_ON_70
VEL_2
NOTE_ON_66
VEL_2
NOTE_ON_63
VEL_2
NOTE_ON_58
VEL_2
NOTE_ON_54
TIME_SHIFT_64ND_31
NOTE_OFF_73
NOTE_OFF_70
NOTE_OFF_66
NOTE_OFF_63
NOTE_OFF_58
NOTE_OFF_54
VEL_2
NOTE_ON_61
VEL_1
NOTE_ON_49
TIME_SHIFT_64ND_31
VEL_3
NOTE_ON_73
VEL_2
NOTE_ON_70
VEL_2
NOTE_ON_66
VEL_2
NOTE_ON_58
TIME_SHIFT_64ND_30
NOTE_OFF_73
NOTE_OFF_70
NOTE_OFF_58
VEL_3
NOTE_ON_75
VEL_2
NOTE_ON_72
VEL_3
NOTE_ON_57
TIME_SHIFT_64ND_26
NOTE_OFF_75
NOTE_OFF_61
NOTE_OFF_66
NOTE_OFF_72
NOTE_OFF_57
NOTE_OFF_49
VEL_2
NOTE_ON_49
TIME_SHIFT_64ND_4
VEL_2
NOTE_ON_56
TIME_SHIFT_64ND_4
VEL_2
NOTE_ON_61
TIME_SHIFT_64ND_3
VEL_2
NOTE_ON_65
TIME_SHIFT_64ND_3
VEL_2
NOTE_ON_68
TIME_SHIFT_64ND_3
VEL_2
NOTE_ON_73
TIME_SHIFT_64ND_3
VEL_3
NOTE_ON_77
TIME_SHIFT_64ND_31
VEL_2
NOTE_ON_37
TIME_SHIFT_64ND_24
NOTE_OFF_77
NOTE_OFF_65
NOTE_OFF_68
NOTE_OFF_73
NOTE_OFF_37
NOTE_OFF_49
NOTE_OFF_56
NOTE_OFF_61
VEL_1
NOTE_ON_42
TIME_SHIFT_64ND_2
VEL_1
NOTE_ON_49
TIME_SHIFT_64ND_2
VEL_2
NOTE_ON_51
TIME_SHIFT_64ND_2
VEL_2
NOTE_ON_54
TIME_SHIFT_64ND_2
VEL_2
NOTE_ON_58
TIME_SHIFT_64ND_2
VEL_2
NOTE_ON_61
TIME_SHIFT_64ND_2
VEL_2
NOTE_ON_70
VEL_2
NOTE_ON_63
TIME_SHIFT_64ND_27
NOTE_OFF_70
NOTE_OFF_58
NOTE_OFF_61
NOTE_OFF_63
NOTE_OFF_54
NOTE_OFF_42
NOTE_OFF_49
NOTE_OFF_51
VEL_3
NOTE_ON_69
VEL_2
NOTE_ON_61
TIME_SHIFT_64ND_28
NOTE_OFF_69
NOTE_OFF_61
VEL_3
NOTE_ON_68
VEL_2
NOTE_ON_60
TIME_SHIFT_64ND_28
VEL_3
NOTE_ON_75
VEL_2
NOTE_ON_54
TIME_SHIFT_64ND_28
NOTE_OFF_75
NOTE_OFF_54
NOTE_OFF_60
VEL_3
NOTE_ON_73
VEL_3
NOTE_ON_61
VEL_2
NOTE_ON_53
TIME_SHIFT_64ND_28
NOTE_OFF_73
NOTE_OFF_68
NOTE_OFF_61
VEL_3
NOTE_ON_72
VEL_3
NOTE_ON_68
VEL_2
NOTE_ON_61
TIME_SHIFT_64ND_21
NOTE_OFF_72
VEL_3
NOTE_ON_73
TIME_SHIFT_64ND_3
NOTE_OFF_73
VEL_3
NOTE_ON_72
TIME_SHIFT_64ND_3
NOTE_OFF_72
NOTE_OFF_68
NOTE_OFF_53
VEL_3
NOTE_ON_70
VEL_3
NOTE_ON_66
VEL_2
NOTE_ON_54
TIME_SHIFT_64ND_28
NOTE_OFF_70
NOTE_OFF_66
NOTE_OFF_54
NOTE_OFF_61
VEL_3
NOTE_ON_68
VEL_3
NOTE_ON_62
VEL_2
NOTE_ON_58
VEL_2
NOTE_ON_53
TIME_SHIFT_64ND_29
NOTE_OFF_68
NOTE_OFF_62
NOTE_OFF_58
NOTE_OFF_53
VEL_3
NOTE_ON_66
VEL_3
NOTE_ON_63
VEL_3
NOTE_ON_58
VEL_2
NOTE_ON_51
TIME_SHIFT_64ND_29
NOTE_OFF_66
NOTE_OFF_63
NOTE_OFF_58
VEL_3
NOTE_ON_70
VEL_3
NOTE_ON_60
VEL_2
NOTE_ON_54
TIME_SHIFT_64ND_29
NOTE_OFF_70
NOTE_OFF_60
NOTE_OFF_54
NOTE_OFF_51
VEL_3
NOTE_ON_68
VEL_3
NOTE_ON_61
VEL_2
NOTE_ON_53
VEL_2
NOTE_ON_56
TIME_SHIFT_64ND_21
NOTE_OFF_68
VEL_2
NOTE_ON_66
TIME_SHIFT_64ND_3
NOTE_OFF_66
VEL_2
NOTE_ON_68
TIME_SHIFT_64ND_3
NOTE_OFF_68
NOTE_OFF_53
VEL_3
NOTE_ON_66
VEL_2
NOTE_ON_49
TIME_SHIFT_64ND_14
NOTE_OFF_66
VEL_2
NOTE_ON_65
TIME_SHIFT_64ND_15
NOTE_OFF_65
NOTE_OFF_61
NOTE_OFF_49
NOTE_OFF_56
VEL_3
NOTE_ON_58
VEL_3
NOTE_ON_63
VEL_2
NOTE_ON_61
VEL_2
NOTE_ON_42
TIME_SHIFT_64ND_29
NOTE_OFF_58
VEL_2
NOTE_ON_57
TIME_SHIFT_64ND_31
NOTE_OFF_57
NOTE_OFF_63
NOTE_OFF_61
NOTE_OFF_42
VEL_3
NOTE_ON_68
VEL_2
NOTE_ON_60
VEL_2
NOTE_ON_56
VEL_2
NOTE_ON_44
TIME_SHIFT_64ND_31
NOTE_OFF_56
VEL_2
NOTE_ON_54
TIME_SHIFT_64ND_31
NOTE_OFF_68
NOTE_OFF_60
NOTE_OFF_54
NOTE_OFF_44
VEL_3
NOTE_ON_68
VEL_3
NOTE_ON_61
VEL_2
NOTE_ON_53
VEL_2
NOTE_ON_49
TIME_SHIFT_64ND_29
NOTE_OFF_68
NOTE_OFF_61
NOTE_OFF_53
VEL_3
NOTE_ON_65
VEL_3
NOTE_ON_77
VEL_2
NOTE_ON_56
TIME_SHIFT_64ND_28
NOTE_OFF_65
NOTE_OFF_77
NOTE_OFF_56
VEL_3
NOTE_ON_75
VEL_3
NOTE_ON_61
VEL_2
NOTE_ON_57
TIME_SHIFT_64ND_20
NOTE_OFF_75
VEL_3
NOTE_ON_73
TIME_SHIFT_64ND_3
NOTE_OFF_73
VEL_3
NOTE_ON_75
TIME_SHIFT_64ND_3
NOTE_OFF_75
NOTE_OFF_49
VEL_4
NOTE_ON_73
VEL_1
NOTE_ON_49
TIME_SHIFT_64ND_13
NOTE_OFF_73
VEL_3
NOTE_ON_72
TIME_SHIFT_64ND_14
NOTE_OFF_72
NOTE_OFF_61
NOTE_OFF_57
VEL_3
NOTE_ON_70
VEL_3
NOTE_ON_65
VEL_2
NOTE_ON_58
TIME_SHIFT_64ND_27
NOTE_OFF_70
NOTE_OFF_49
VEL_3
NOTE_ON_65
VEL_2
NOTE_ON_49
TIME_SHIFT_64ND_28
NOTE_OFF_65
NOTE_OFF_65
NOTE_OFF_49
NOTE_OFF_58
VEL_3
NOTE_ON_66
VEL_3
NOTE_ON_58
VEL_2
NOTE_ON_51
TIME_SHIFT_64ND_27
NOTE_OFF_66
NOTE_OFF_51
VEL_3
NOTE_ON_65
VEL_2
NOTE_ON_53
VEL_1
NOTE_ON_49
TIME_SHIFT_64ND_28
NOTE_OFF_65
NOTE_OFF_58
NOTE_OFF_53
NOTE_OFF_49
VEL_3
NOTE_ON_63
VEL_3
NOTE_ON_58
VEL_2
NOTE_ON_54
VEL_2
NOTE_ON_48
TIME_SHIFT_64ND_13
NOTE_OFF_63
NOTE_OFF_54
VEL_3
NOTE_ON_65
VEL_2
NOTE_ON_53
TIME_SHIFT_64ND_13
NOTE_OFF_65
NOTE_OFF_53
VEL_3
NOTE_ON_66
VEL_2
NOTE_ON_51
TIME_SHIFT_64ND_28
NOTE_OFF_66
NOTE_OFF_51
NOTE_OFF_48
VEL_3
NOTE_ON_65
VEL_3
NOTE_ON_63
VEL_2
NOTE_ON_53
TIME_SHIFT_64ND_28
NOTE_OFF_58
NOTE_OFF_53
VEL_2
NOTE_ON_57
VEL_2
NOTE_ON_41
TIME_SHIFT_64ND_29
NOTE_OFF_57
NOTE_OFF_65
NOTE_OFF_63
NOTE_OFF_41
VEL_3
NOTE_ON_65
VEL_3
NOTE_ON_62
VEL_2
NOTE_ON_34
TIME_SHIFT_64ND_28
VEL_2
NOTE_ON_59
TIME_SHIFT_64ND_29
NOTE_OFF_59
VEL_2
NOTE_ON_58
TIME_SHIFT_64ND_29
NOTE_OFF_34
VEL_1
NOTE_ON_46
TIME_SHIFT_64ND_29
NOTE_OFF_58
NOTE_OFF_65
NOTE_OFF_62
NOTE_OFF_46
VEL_3
NOTE_ON_71
VEL_3
NOTE_ON_68
VEL_3
NOTE_ON_65
VEL_2
NOTE_ON_62
TIME_SHIFT_64ND_20
NOTE_OFF_71
VEL_3
NOTE_ON_70
TIME_SHIFT_64ND_3
NOTE_OFF_70
VEL_3
NOTE_ON_71
TIME_SHIFT_64ND_3
NOTE_OFF_71
VEL_3
NOTE_ON_70
VEL_2
NOTE_ON_49
TIME_SHIFT_64ND_13
NOTE_OFF_70
VEL_3
NOTE_ON_69
TIME_SHIFT_64ND_14
NOTE_OFF_69
NOTE_OFF_68
NOTE_OFF_65
NOTE_OFF_62
VEL_3
NOTE_ON_70
VEL_3
NOTE_ON_66
VEL_2
NOTE_ON_63
TIME_SHIFT_64ND_13
NOTE_OFF_70
VEL_3
NOTE_ON_75
TIME_SHIFT_64ND_13
NOTE_OFF_75
NOTE_OFF_49
VEL_3
NOTE_ON_73
VEL_2
NOTE_ON_49
TIME_SHIFT_64ND_13
NOTE_OFF_73
VEL_3
NOTE_ON_72
TIME_SHIFT_64ND_13
NOTE_OFF_72
NOTE_OFF_66
NOTE_OFF_63
VEL_4
NOTE_ON_70
VEL_3
NOTE_ON_66
VEL_3
NOTE_ON_63
VEL_2
NOTE_ON_60
TIME_SHIFT_64ND_27
NOTE_OFF_70
NOTE_OFF_49
VEL_3
NOTE_ON_69
VEL_2
NOTE_ON_49
TIME_SHIFT_64ND_27
NOTE_OFF_69
NOTE_OFF_66
NOTE_OFF_63
NOTE_OFF_60
VEL_4
NOTE_ON_68
VEL_3
NOTE_ON_65
VEL_2
NOTE_ON_61
TIME_SHIFT_64ND_27
NOTE_OFF_68
NOTE_OFF_49
VEL_4
NOTE_ON_73
VEL_2
NOTE_ON_49
TIME_SHIFT_64ND_27
NOTE_OFF_73
NOTE_OFF_65
NOTE_OFF_61
VEL_4
NOTE_ON_71
VEL_3
NOTE_ON_68
VEL_3
NOTE_ON_65
VEL_2
NOTE_ON_62
TIME_SHIFT_64ND_20
NOTE_OFF_71
VEL_3
NOTE_ON_70
TIME_SHIFT_64ND_3
NOTE_OFF_70
VEL_3
NOTE_ON_71
TIME_SHIFT_64ND_3
NOTE_OFF_71
NOTE_OFF_49
VEL_3
NOTE_ON_70
VEL_2
NOTE_ON_49
TIME_SHIFT_64ND_13
NOTE_OFF_70
VEL_3
NOTE_ON_69
TIME_SHIFT_64ND_13
NOTE_OFF_69
NOTE_OFF_68
NOTE_OFF_65
NOTE_OFF_62
VEL_3
NOTE_ON_70
VEL_3
NOTE_ON_66
VEL_2
NOTE_ON_63
TIME_SHIFT_64ND_6
NOTE_OFF_70
TIME_SHIFT_64ND_3
VEL_3
NOTE_ON_75
TIME_SHIFT_64ND_6
NOTE_OFF_75
TIME_SHIFT_64ND_3
VEL_3
NOTE_ON_74
TIME_SHIFT_64ND_5
NOTE_OFF_74
TIME_SHIFT_64ND_3
NOTE_OFF_49
VEL_3
NOTE_ON_73
VEL_2
NOTE_ON_49
TIME_SHIFT_64ND_5
NOTE_OFF_73
TIME_SHIFT_64ND_3
VEL_3
NOTE_ON_72
TIME_SHIFT_64ND_6
NOTE_OFF_72
TIME_SHIFT_64ND_4
VEL_3
NOTE_ON_71
TIME_SHIFT_64ND_6
NOTE_OFF_71
TIME_SHIFT_64ND_4
NOTE_OFF_66
NOTE_OFF_49
NOTE_OFF_63
VEL_4
NOTE_ON_70
VEL_2
NOTE_ON_66
VEL_2
NOTE_ON_63
VEL_2
NOTE_ON_49
VEL_2
NOTE_ON_60
TIME_SHIFT_64ND_27
NOTE_OFF_70
NOTE_OFF_49
VEL_3
NOTE_ON_69
VEL_2
NOTE_ON_49
TIME_SHIFT_64ND_28
NOTE_OFF_69
NOTE_OFF_66
NOTE_OFF_63
NOTE_OFF_60
VEL_4
NOTE_ON_68
VEL_3
NOTE_ON_65
VEL_2
NOTE_ON_61
TIME_SHIFT_64ND_27
NOTE_OFF_68
NOTE_OFF_61
VEL_4
NOTE_ON_77
VEL_2
NOTE_ON_56
TIME_SHIFT_64ND_27
NOTE_OFF_77
NOTE_OFF_65
NOTE_OFF_56
VEL_4
NOTE_ON_75
VEL_3
NOTE_ON_66
VEL_3
NOTE_ON_57
TIME_SHIFT_64ND_20
NOTE_OFF_75
VEL_4
NOTE_ON_73
TIME_SHIFT_64ND_3
NOTE_OFF_73
VEL_3
NOTE_ON_75
TIME_SHIFT_64ND_3
NOTE_OFF_75
NOTE_OFF_49
VEL_4
NOTE_ON_73
VEL_2
NOTE_ON_49
TIME_SHIFT_64ND_13
NOTE_OFF_73
VEL_4
NOTE_ON_72
TIME_SHIFT_64ND_14
NOTE_OFF_72
NOTE_OFF_66
NOTE_OFF_57
VEL_4
NOTE_ON_70
VEL_3
NOTE_ON_65
VEL_2
NOTE_ON_58
TIME_SHIFT_64ND_27
NOTE_OFF_70
NOTE_OFF_65
NOTE_OFF_49
VEL_4
NOTE_ON_65
VEL_2
NOTE_ON_49
TIME_SHIFT_64ND_27
NOTE_OFF_65
NOTE_OFF_58
VEL_3
NOTE_ON_65
VEL_4
NOTE_ON_69
VEL_3
NOTE_ON_59
TIME_SHIFT_64ND_27
NOTE_OFF_49
VEL_3
NOTE_ON_61
VEL_2
NOTE_ON_49
TIME_SHIFT_64ND_18
NOTE_OFF_49
NOTE_OFF_59
VEL_2
NOTE_ON_42
TIME_SHIFT_64ND_2
VEL_2
NOTE_ON_49
TIME_SHIFT_64ND_2
VEL_2
NOTE_ON_51
TIME_SHIFT_64ND_2
VEL_2
NOTE_ON_54
TIME_SHIFT_64ND_2
VEL_3
NOTE_ON_58
TIME_SHIFT_64ND_2
VEL_3
NOTE_ON_61
TIME_SHIFT_64ND_2
NOTE_OFF_61
NOTE_OFF_61
NOTE_OFF_65
NOTE_OFF_69
NOTE_OFF_42
VEL_3
NOTE_ON_63
VEL_3
NOTE_ON_70
TIME_SHIFT_64ND_26
NOTE_OFF_63
NOTE_OFF_58
NOTE_OFF_49
NOTE_OFF_51
NOTE_OFF_54
VEL_3
NOTE_ON_61
VEL_3
NOTE_ON_49
TIME_SHIFT_64ND_14
NOTE_OFF_70
VEL_3
NOTE_ON_62
TIME_SHIFT_64ND_7
VEL_3
NOTE_ON_63
TIME_SHIFT_64ND_3
NOTE_OFF_63
NOTE_OFF_62
VEL_3
NOTE_ON_65
TIME_SHIFT_64ND_3
NOTE_OFF_65
VEL_4
NOTE_ON_63
VEL_2
NOTE_ON_46
TIME_SHIFT_64ND_13
NOTE_OFF_63
VEL_3
NOTE_ON_62
TIME_SHIFT_64ND_13
NOTE_OFF_62
NOTE_OFF_61
NOTE_OFF_49
VEL_4
NOTE_ON_63
VEL_3
NOTE_ON_61
VEL_3
NOTE_ON_49
TIME_SHIFT_64ND_26
NOTE_OFF_46
VEL_2
NOTE_ON_45
TIME_SHIFT_64ND_13
NOTE_OFF_63
VEL_3
NOTE_ON_62
TIME_SHIFT_64ND_13
NOTE_OFF_62
NOTE_OFF_61
NOTE_OFF_49
VEL_3
NOTE_ON_63
VEL_3
NOTE_ON_61
VEL_3
NOTE_ON_49
TIME_SHIFT_64ND_14
NOTE_OFF_63
VEL_3
NOTE_ON_65
TIME_SHIFT_64ND_14
NOTE_OFF_65
NOTE_OFF_61
NOTE_OFF_49
NOTE_OFF_45
VEL_3
NOTE_ON_66
VEL_3
NOTE_ON_61
VEL_3
NOTE_ON_58
VEL_3
NOTE_ON_44
TIME_SHIFT_64ND_29
NOTE_OFF_66
NOTE_OFF_61
NOTE_OFF_58
VEL_3
NOTE_ON_60
VEL_3
NOTE_ON_65
VEL_3
NOTE_ON_56
TIME_SHIFT_64ND_15
NOTE_OFF_56
VEL_2
NOTE_ON_54
TIME_SHIFT_64ND_15
NOTE_OFF_60
NOTE_OFF_65
NOTE_OFF_54
VEL_3
NOTE_ON_61
VEL_2
NOTE_ON_56
VEL_2
NOTE_ON_53
TIME_SHIFT_64ND_30
NOTE_OFF_44
VEL_2
NOTE_ON_44
TIME_SHIFT_64ND_30
NOTE_OFF_61
NOTE_OFF_56
NOTE_OFF_44
NOTE_OFF_53
VEL_2
NOTE_ON_58
VEL_3
NOTE_ON_66
VEL_3
NOTE_ON_63
TIME_SHIFT_64ND_13
NOTE_OFF_58
VEL_2
NOTE_ON_57
TIME_SHIFT_64ND_13
NOTE_OFF_57
VEL_2
NOTE_ON_58
VEL_2
NOTE_ON_32
TIME_SHIFT_64ND_13
NOTE_OFF_58
VEL_2
NOTE_ON_57
TIME_SHIFT_64ND_13
NOTE_OFF_57
NOTE_OFF_66
NOTE_OFF_63
VEL_2
NOTE_ON_56
VEL_3
NOTE_ON_65
VEL_3
NOTE_ON_61
TIME_SHIFT_64ND_13
NOTE_OFF_56
VEL_2
NOTE_ON_55
TIME_SHIFT_64ND_13
NOTE_OFF_55
NOTE_OFF_32
VEL_2
NOTE_ON_56
VEL_2
NOTE_ON_32
TIME_SHIFT_64ND_28
NOTE_OFF_56
NOTE_OFF_65
NOTE_OFF_61
VEL_2
NOTE_ON_58
VEL_3
NOTE_ON_66
VEL_3
NOTE_ON_63
TIME_SHIFT_64ND_13
NOTE_OFF_58
VEL_2
NOTE_ON_57
TIME_SHIFT_64ND_13
NOTE_OFF_57
NOTE_OFF_32
VEL_2
NOTE_ON_58
VEL_2
NOTE_ON_32
TIME_SHIFT_64ND_13
NOTE_OFF_58
VEL_2
NOTE_ON_57
TIME_SHIFT_64ND_13
NOTE_OFF_57
NOTE_OFF_66
NOTE_OFF_63
VEL_2
NOTE_ON_56
VEL_3
NOTE_ON_65
VEL_3
NOTE_ON_61
TIME_SHIFT_64ND_13
NOTE_OFF_56
VEL_2
NOTE_ON_55
TIME_SHIFT_64ND_13
NOTE_OFF_55
NOTE_OFF_32
VEL_2
NOTE_ON_56
VEL_2
NOTE_ON_32
TIME_SHIFT_64ND_26
NOTE_OFF_56
NOTE_OFF_65
NOTE_OFF_61
VEL_2
NOTE_ON_55
VEL_3
NOTE_ON_58
VEL_3
NOTE_ON_63
TIME_SHIFT_64ND_13
NOTE_OFF_55
TIME_SHIFT_64ND_1
VEL_2
NOTE_ON_54
TIME_SHIFT_64ND_12
NOTE_OFF_32
VEL_2
NOTE_ON_55
VEL_2
NOTE_ON_32
TIME_SHIFT_64ND_1
NOTE_OFF_54
TIME_SHIFT_64ND_26
NOTE_OFF_58
NOTE_OFF_63
NOTE_OFF_55
VEL_2
NOTE_ON_54
VEL_3
NOTE_ON_63
VEL_3
NOTE_ON_58
TIME_SHIFT_64ND_13
NOTE_OFF_54
VEL_2
NOTE_ON_53
TIME_SHIFT_64ND_13
NOTE_OFF_53
NOTE_OFF_32
VEL_2
NOTE_ON_54
VEL_2
NOTE_ON_32
TIME_SHIFT_64ND_26
NOTE_OFF_54
NOTE_OFF_63
NOTE_OFF_58
VEL_3
NOTE_ON_65
VEL_3
NOTE_ON_58
VEL_2
NOTE_ON_54
TIME_SHIFT_64ND_27
NOTE_OFF_65
NOTE_OFF_32
VEL_2
NOTE_ON_60
VEL_2
NOTE_ON_32
TIME_SHIFT_64ND_27
NOTE_OFF_60
NOTE_OFF_58
NOTE_OFF_54
NOTE_OFF_32
VEL_2
NOTE_ON_61
VEL_2
NOTE_ON_56
VEL_2
NOTE_ON_53
VEL_2
NOTE_ON_37
TIME_SHIFT_64ND_55
NOTE_OFF_61
NOTE_OFF_56
NOTE_OFF_53
NOTE_OFF_37
VEL_3
NOTE_ON_73
VEL_2
NOTE_ON_70
VEL_2
NOTE_ON_66
VEL_2
NOTE_ON_54
VEL_2
NOTE_ON_58
VEL_2
NOTE_ON_63
TIME_SHIFT_64ND_31
NOTE_OFF_73
NOTE_OFF_70
NOTE_OFF_66
NOTE_OFF_54
NOTE_OFF_58
NOTE_OFF_63
VEL_2
NOTE_ON_61
VEL_1
NOTE_ON_49
TIME_SHIFT_64ND_31
NOTE_OFF_61
NOTE_OFF_49
VEL_3
NOTE_ON_73
VEL_2
NOTE_ON_70
VEL_2
NOTE_ON_66
VEL_2
NOTE_ON_63
VEL_2
NOTE_ON_58
VEL_2
NOTE_ON_54
TIME_SHIFT_64ND_31
NOTE_OFF_73
NOTE_OFF_70
NOTE_OFF_66
NOTE_OFF_63
NOTE_OFF_58
NOTE_OFF_54
VEL_2
NOTE_ON_61
VEL_1
NOTE_ON_49
TIME_SHIFT_64ND_31
VEL_2
NOTE_ON_70
VEL_3
NOTE_ON_73
VEL_2
NOTE_ON_66
VEL_2
NOTE_ON_58
TIME_SHIFT_64ND_30
NOTE_OFF_70
NOTE_OFF_73
NOTE_OFF_58
VEL_3
NOTE_ON_75
VEL_2
NOTE_ON_72
VEL_3
NOTE_ON_57
TIME_SHIFT_64ND_21
NOTE_OFF_75
NOTE_OFF_61
NOTE_OFF_66
NOTE_OFF_72
NOTE_OFF_57
NOTE_OFF_49
VEL_2
NOTE_ON_49
TIME_SHIFT_64ND_4
VEL_2
NOTE_ON_56
TIME_SHIFT_64ND_4
VEL_2
NOTE_ON_61
TIME_SHIFT_64ND_4
VEL_2
NOTE_ON_65
TIME_SHIFT_64ND_3
VEL_2
NOTE_ON_68
TIME_SHIFT_64ND_3
VEL_2
NOTE_ON_73
TIME_SHIFT_64ND_3
VEL_3
NOTE_ON_77
TIME_SHIFT_64ND_33
VEL_2
NOTE_ON_37
TIME_SHIFT_64ND_56
NOTE_OFF_77
NOTE_OFF_65
NOTE_OFF_68
NOTE_OFF_73
NOTE_OFF_37
NOTE_OFF_49
NOTE_OFF_56
NOTE_OFF_61
VEL_1
NOTE_ON_53
TIME_SHIFT_64ND_13
NOTE_OFF_53
TIME_SHIFT_64ND_13
VEL_2
NOTE_ON_61
TIME_SHIFT_64ND_14
NOTE_OFF_61
TIME_SHIFT_64ND_14
VEL_2
NOTE_ON_65
TIME_SHIFT_64ND_14
NOTE_OFF_65
TIME_SHIFT_64ND_14
VEL_2
NOTE_ON_68
TIME_SHIFT_64ND_15
NOTE_OFF_68
TIME_SHIFT_64ND_15
VEL_2
NOTE_ON_73
TIME_SHIFT_64ND_17
NOTE_OFF_73
TIME_SHIFT_64ND_17
VEL_2
NOTE_ON_80
TIME_SHIFT_64ND_135
NOTE_OFF_80
