NOTE_ON_64
NOTE_ON_57
NOTE_ON_48
NOTE_ON_41
TIME_SHIFT_64ND_11
NOTE_OFF_64
NOTE_ON_65
TIME_SHIFT_64ND_4
NOTE_OFF_65
NOTE_ON_69
TIME_SHIFT_64ND_5
NOTE_OFF_69
NOTE_ON_67
TIME_SHIFT_64ND_5
NOTE_OFF_67
NOTE_ON_65
TIME_SHIFT_64ND_5
NOTE_OFF_65
NOTE_OFF_48
NOTE_ON_64
NOTE_ON_49
TIME_SHIFT_64ND_7
NOTE_OFF_64
NOTE_ON_65
TIME_SHIFT_64ND_7
NOTE_OFF_65
NOTE_OFF_57
NOTE_OFF_49
NOTE_OFF_41
NOTE_ON_62
NOTE_ON_57
NOTE_ON_50
NOTE_ON_41
TIME_SHIFT_64ND_11
NOTE_OFF_62
TIME_SHIFT_64ND_4
NOTE_ON_69
TIME_SHIFT_64ND_14
NOTE_OFF_50
NOTE_ON_49
TIME_SHIFT_64ND_15
NOTE_OFF_69
NOTE_OFF_57
NOTE_OFF_49
NOTE_OFF_41
NOTE_ON_62
NOTE_ON_55
NOTE_ON_50
NOTE_ON_46
TIME_SHIFT_64ND_11
NOTE_OFF_62
NOTE_ON_64
TIME_SHIFT_64ND_4
NOTE_OFF_64
NOTE_OFF_50
NOTE_ON_67
NOTE_ON_52
TIME_SHIFT_64ND_5
NOTE_OFF_67
NOTE_ON_65
TIME_SHIFT_64ND_5
NOTE_OFF_65
NOTE_ON_64
TIME_SHIFT_64ND_5
NOTE_OFF_64
NOTE_ON_62
TIME_SHIFT_64ND_7
NOTE_OFF_62
NOTE_ON_64
TIME_SHIFT_64ND_8
NOTE_OFF_64
NOTE_OFF_55
NOTE_OFF_46
NOTE_ON_62
NOTE_ON_64
NOTE_ON_45
TIME_SHIFT_64ND_7
NOTE_OFF_62
NOTE_ON_61
TIME_SHIFT_64ND_7
NOTE_OFF_61
NOTE_OFF_52
NOTE_ON_59
NOTE_ON_55
TIME_SHIFT_64ND_7
NOTE_OFF_59
NOTE_ON_61
TIME_SHIFT_64ND_7
NOTE_OFF_61
NOTE_OFF_55
NOTE_OFF_45
NOTE_ON_59
NOTE_ON_45
TIME_SHIFT_64ND_7
NOTE_OFF_59
NOTE_ON_57
TIME_SHIFT_64ND_8
NOTE_OFF_57
NOTE_OFF_64
NOTE_OFF_45
NOTE_ON_64
NOTE_ON_57
NOTE_ON_48
NOTE_ON_41
TIME_SHIFT_64ND_11
NOTE_OFF_64
NOTE_ON_65
TIME_SHIFT_64ND_4
NOTE_OFF_65
NOTE_ON_69
TIME_SHIFT_64ND_5
NOTE_OFF_69
NOTE_ON_67
TIME_SHIFT_64ND_5
NOTE_OFF_67
NOTE_ON_65
TIME_SHIFT_64ND_5
NOTE_OFF_65
NOTE_OFF_48
NOTE_ON_64
NOTE_ON_49
TIME_SHIFT_64ND_7
NOTE_OFF_64
NOTE_ON_65
TIME_SHIFT_64ND_7
NOTE_OFF_65
NOTE_OFF_57
NOTE_OFF_49
NOTE_OFF_41
NOTE_ON_62
NOTE_ON_57
NOTE_ON_50
NOTE_ON_41
TIME_SHIFT_64ND_11
NOTE_OFF_62
TIME_SHIFT_64ND_4
NOTE_ON_69
TIME_SHIFT_64ND_14
NOTE_OFF_50
NOTE_ON_52
TIME_SHIFT_64ND_15
NOTE_OFF_69
NOTE_OFF_57
NOTE_OFF_52
NOTE_OFF_41
NOTE_ON_69
NOTE_ON_62
NOTE_ON_53
TIME_SHIFT_64ND_11
NOTE_OFF_69
NOTE_ON_71
TIME_SHIFT_64ND_4
NOTE_OFF_71
NOTE_OFF_53
NOTE_ON_74
NOTE_ON_55
TIME_SHIFT_64ND_5
NOTE_OFF_74
NOTE_ON_72
TIME_SHIFT_64ND_5
NOTE_OFF_72
NOTE_ON_71
TIME_SHIFT_64ND_5
NOTE_OFF_71
NOTE_OFF_55
NOTE_ON_69
NOTE_ON_53
TIME_SHIFT_64ND_7
NOTE_OFF_69
NOTE_ON_71
TIME_SHIFT_64ND_7
NOTE_OFF_71
NOTE_OFF_53
NOTE_ON_67
NOTE_ON_52
TIME_SHIFT_64ND_7
NOTE_OFF_67
NOTE_ON_69
TIME_SHIFT_64ND_7
NOTE_OFF_69
NOTE_OFF_62
NOTE_OFF_52
NOTE_ON_67
NOTE_ON_60
NOTE_ON_57
TIME_SHIFT_64ND_7
NOTE_OFF_67
NOTE_ON_69
TIME_SHIFT_64ND_7
NOTE_OFF_69
NOTE_OFF_57
NOTE_ON_71
NOTE_ON_55
TIME_SHIFT_64ND_7
NOTE_OFF_71
NOTE_ON_72
TIME_SHIFT_64ND_8
NOTE_OFF_72
NOTE_OFF_60
NOTE_OFF_55
NOTE_ON_65
NOTE_ON_59
NOTE_ON_50
TIME_SHIFT_64ND_11
NOTE_OFF_65
NOTE_ON_67
TIME_SHIFT_64ND_4
NOTE_OFF_67
NOTE_OFF_50
NOTE_ON_71
NOTE_ON_55
TIME_SHIFT_64ND_5
NOTE_OFF_71
NOTE_ON_69
TIME_SHIFT_64ND_5
NOTE_OFF_69
NOTE_ON_67
TIME_SHIFT_64ND_5
NOTE_OFF_67
NOTE_OFF_59
NOTE_OFF_55
NOTE_ON_65
NOTE_ON_59
NOTE_ON_50
TIME_SHIFT_64ND_8
NOTE_OFF_65
NOTE_ON_67
TIME_SHIFT_64ND_8
NOTE_OFF_67
NOTE_OFF_59
NOTE_ON_59
NOTE_ON_64
NOTE_ON_56
TIME_SHIFT_64ND_15
NOTE_OFF_50
NOTE_ON_50
TIME_SHIFT_64ND_16
NOTE_OFF_59
NOTE_OFF_50
NOTE_OFF_56
NOTE_ON_57
NOTE_ON_48
TIME_SHIFT_64ND_16
NOTE_OFF_64
NOTE_OFF_57
NOTE_OFF_48
NOTE_ON_57
NOTE_ON_53
TIME_SHIFT_64ND_11
NOTE_OFF_57
NOTE_ON_59
TIME_SHIFT_64ND_4
NOTE_OFF_59
NOTE_ON_74
NOTE_ON_69
NOTE_ON_62
TIME_SHIFT_64ND_5
NOTE_OFF_62
NOTE_ON_60
TIME_SHIFT_64ND_5
NOTE_OFF_60
NOTE_ON_59
TIME_SHIFT_64ND_5
NOTE_OFF_74
NOTE_OFF_59
NOTE_ON_81
NOTE_ON_57
TIME_SHIFT_64ND_7
NOTE_OFF_57
NOTE_ON_59
TIME_SHIFT_64ND_8
NOTE_OFF_59
NOTE_OFF_53
NOTE_ON_55
NOTE_ON_52
TIME_SHIFT_64ND_7
NOTE_OFF_55
NOTE_ON_57
TIME_SHIFT_64ND_7
NOTE_OFF_81
NOTE_OFF_57
NOTE_ON_72
NOTE_ON_55
TIME_SHIFT_64ND_7
NOTE_OFF_55
NOTE_ON_57
TIME_SHIFT_64ND_7
NOTE_OFF_72
NOTE_OFF_69
NOTE_OFF_57
NOTE_ON_79
NOTE_ON_67
NOTE_ON_59
TIME_SHIFT_64ND_7
NOTE_OFF_59
NOTE_ON_60
TIME_SHIFT_64ND_8
NOTE_OFF_79
NOTE_OFF_67
NOTE_OFF_60
NOTE_OFF_52
NOTE_ON_53
NOTE_ON_50
TIME_SHIFT_64ND_11
NOTE_OFF_53
NOTE_ON_55
TIME_SHIFT_64ND_4
NOTE_OFF_55
NOTE_ON_71
NOTE_ON_77
NOTE_ON_59
TIME_SHIFT_64ND_5
NOTE_OFF_59
NOTE_ON_57
TIME_SHIFT_64ND_5
NOTE_OFF_57
NOTE_ON_55
TIME_SHIFT_64ND_5
NOTE_OFF_71
NOTE_OFF_77
NOTE_OFF_55
NOTE_OFF_50
NOTE_ON_79
NOTE_ON_67
NOTE_ON_53
NOTE_ON_43
TIME_SHIFT_64ND_8
NOTE_OFF_53
NOTE_ON_55
TIME_SHIFT_64ND_7
NOTE_OFF_79
NOTE_OFF_67
TIME_SHIFT_64ND_1
NOTE_OFF_55
NOTE_OFF_43
NOTE_ON_79
NOTE_ON_67
NOTE_ON_53
NOTE_ON_48
TIME_SHIFT_64ND_7
NOTE_OFF_53
NOTE_ON_52
TIME_SHIFT_64ND_7
NOTE_OFF_79
NOTE_OFF_67
NOTE_OFF_52
NOTE_ON_72
NOTE_ON_50
TIME_SHIFT_64ND_7
NOTE_OFF_50
NOTE_ON_52
TIME_SHIFT_64ND_8
NOTE_OFF_72
NOTE_OFF_52
NOTE_OFF_48
NOTE_ON_50
TIME_SHIFT_64ND_8
NOTE_OFF_50
NOTE_ON_48
TIME_SHIFT_64ND_8
NOTE_OFF_48
NOTE_ON_53
NOTE_ON_41
TIME_SHIFT_64ND_11
NOTE_OFF_53
NOTE_OFF_41
NOTE_ON_55
NOTE_ON_43
TIME_SHIFT_64ND_4
NOTE_ON_58
NOTE_ON_46
NOTE_OFF_55
NOTE_OFF_43
TIME_SHIFT_64ND_4
NOTE_ON_56
NOTE_ON_44
NOTE_OFF_58
NOTE_OFF_46
TIME_SHIFT_64ND_4
NOTE_ON_55
NOTE_ON_43
NOTE_OFF_56
NOTE_OFF_44
TIME_SHIFT_64ND_5
NOTE_ON_53
NOTE_ON_41
NOTE_OFF_55
NOTE_OFF_43
TIME_SHIFT_64ND_7
NOTE_ON_55
NOTE_ON_43
NOTE_OFF_53
NOTE_OFF_41
TIME_SHIFT_64ND_7
NOTE_OFF_55
NOTE_OFF_43
NOTE_ON_75
NOTE_ON_68
NOTE_ON_51
NOTE_ON_39
TIME_SHIFT_64ND_11
NOTE_OFF_75
NOTE_ON_77
TIME_SHIFT_64ND_4
NOTE_OFF_77
NOTE_OFF_51
NOTE_OFF_39
NOTE_ON_80
NOTE_ON_60
NOTE_ON_48
TIME_SHIFT_64ND_5
NOTE_OFF_80
NOTE_ON_79
TIME_SHIFT_64ND_5
NOTE_OFF_79
NOTE_ON_77
TIME_SHIFT_64ND_5
NOTE_OFF_77
NOTE_ON_75
TIME_SHIFT_64ND_7
NOTE_OFF_75
NOTE_ON_77
TIME_SHIFT_64ND_8
NOTE_OFF_77
NOTE_OFF_68
NOTE_OFF_60
NOTE_OFF_48
NOTE_ON_73
NOTE_ON_67
NOTE_ON_58
NOTE_ON_46
TIME_SHIFT_64ND_11
NOTE_OFF_73
NOTE_ON_75
TIME_SHIFT_64ND_4
NOTE_OFF_75
NOTE_OFF_58
NOTE_OFF_46
NOTE_ON_79
NOTE_ON_51
NOTE_ON_39
TIME_SHIFT_64ND_5
NOTE_OFF_79
NOTE_ON_77
TIME_SHIFT_64ND_5
NOTE_OFF_77
NOTE_ON_75
TIME_SHIFT_64ND_5
NOTE_OFF_75
NOTE_ON_73
TIME_SHIFT_64ND_8
NOTE_OFF_73
NOTE_ON_75
TIME_SHIFT_64ND_8
NOTE_OFF_75
NOTE_OFF_67
NOTE_OFF_51
NOTE_OFF_39
NOTE_ON_72
NOTE_ON_60
NOTE_ON_63
NOTE_ON_51
NOTE_ON_44
TIME_SHIFT_64ND_7
NOTE_OFF_51
NOTE_ON_53
TIME_SHIFT_64ND_8
NOTE_OFF_53
NOTE_ON_51
TIME_SHIFT_64ND_7
NOTE_OFF_51
NOTE_ON_53
TIME_SHIFT_64ND_8
NOTE_OFF_53
NOTE_ON_55
TIME_SHIFT_64ND_7
NOTE_OFF_55
NOTE_ON_56
TIME_SHIFT_64ND_6
NOTE_OFF_56
NOTE_ON_43
TIME_SHIFT_64ND_2
NOTE_OFF_72
NOTE_OFF_60
NOTE_OFF_63
NOTE_OFF_44
NOTE_ON_72
NOTE_ON_64
NOTE_ON_60
NOTE_ON_58
TIME_SHIFT_64ND_11
NOTE_OFF_43
NOTE_ON_44
TIME_SHIFT_64ND_4
NOTE_OFF_44
NOTE_OFF_58
NOTE_ON_48
TIME_SHIFT_64ND_5
NOTE_ON_46
NOTE_OFF_48
TIME_SHIFT_64ND_4
NOTE_ON_44
NOTE_OFF_46
TIME_SHIFT_64ND_5
NOTE_ON_43
NOTE_OFF_44
TIME_SHIFT_64ND_7
NOTE_ON_44
NOTE_OFF_43
TIME_SHIFT_64ND_7
NOTE_OFF_72
NOTE_OFF_64
NOTE_OFF_60
NOTE_OFF_44
NOTE_ON_68
NOTE_ON_60
NOTE_ON_65
NOTE_ON_53
NOTE_ON_41
TIME_SHIFT_64ND_7
NOTE_OFF_68
NOTE_ON_70
TIME_SHIFT_64ND_8
NOTE_OFF_70
NOTE_ON_68
TIME_SHIFT_64ND_7
NOTE_OFF_68
NOTE_ON_70
TIME_SHIFT_64ND_8
NOTE_OFF_70
NOTE_OFF_53
NOTE_OFF_41
NOTE_ON_72
NOTE_ON_51
NOTE_ON_39
TIME_SHIFT_64ND_7
NOTE_OFF_72
NOTE_ON_73
TIME_SHIFT_64ND_8
NOTE_OFF_73
NOTE_OFF_60
NOTE_OFF_65
NOTE_OFF_51
NOTE_OFF_39
NOTE_ON_70
NOTE_ON_65
NOTE_ON_49
NOTE_ON_37
TIME_SHIFT_64ND_7
NOTE_OFF_70
NOTE_ON_72
TIME_SHIFT_64ND_8
NOTE_OFF_72
NOTE_OFF_49
NOTE_OFF_37
NOTE_ON_70
NOTE_ON_55
NOTE_ON_43
TIME_SHIFT_64ND_7
NOTE_OFF_70
NOTE_ON_72
TIME_SHIFT_64ND_8
NOTE_OFF_72
NOTE_OFF_55
NOTE_OFF_43
NOTE_ON_73
NOTE_ON_49
NOTE_ON_37
TIME_SHIFT_64ND_5
NOTE_OFF_73
NOTE_ON_75
TIME_SHIFT_64ND_5
NOTE_OFF_75
NOTE_ON_77
TIME_SHIFT_64ND_5
NOTE_OFF_77
NOTE_OFF_65
NOTE_OFF_49
NOTE_OFF_37
NOTE_ON_65
NOTE_ON_70
NOTE_ON_79
NOTE_ON_48
NOTE_ON_36
TIME_SHIFT_64ND_16
NOTE_OFF_65
NOTE_ON_64
TIME_SHIFT_64ND_16
NOTE_OFF_48
NOTE_OFF_36
NOTE_ON_60
TIME_SHIFT_64ND_16
NOTE_OFF_64
NOTE_OFF_70
NOTE_OFF_79
NOTE_OFF_60
NOTE_ON_76
NOTE_ON_69
NOTE_ON_41
NOTE_ON_29
TIME_SHIFT_64ND_11
NOTE_OFF_76
NOTE_ON_77
TIME_SHIFT_64ND_4
NOTE_OFF_77
NOTE_ON_81
NOTE_ON_48
NOTE_ON_60
TIME_SHIFT_64ND_5
NOTE_OFF_81
NOTE_ON_79
TIME_SHIFT_64ND_5
NOTE_OFF_79
NOTE_ON_77
TIME_SHIFT_64ND_5
NOTE_OFF_77
NOTE_OFF_48
NOTE_OFF_60
NOTE_ON_76
NOTE_ON_49
NOTE_ON_61
TIME_SHIFT_64ND_7
NOTE_OFF_76
NOTE_ON_77
TIME_SHIFT_64ND_7
NOTE_OFF_77
NOTE_OFF_49
NOTE_OFF_61
NOTE_ON_74
NOTE_ON_50
NOTE_ON_62
TIME_SHIFT_64ND_15
NOTE_OFF_74
NOTE_OFF_69
TIME_SHIFT_64ND_1
NOTE_OFF_41
NOTE_OFF_29
NOTE_ON_81
NOTE_ON_69
TIME_SHIFT_64ND_14
NOTE_ON_41
NOTE_ON_29
TIME_SHIFT_64ND_15
NOTE_OFF_81
NOTE_OFF_69
NOTE_OFF_41
NOTE_OFF_50
NOTE_OFF_62
NOTE_OFF_29
NOTE_ON_74
NOTE_ON_67
NOTE_ON_46
NOTE_ON_34
TIME_SHIFT_64ND_11
NOTE_OFF_74
NOTE_ON_76
TIME_SHIFT_64ND_4
NOTE_OFF_76
NOTE_ON_79
NOTE_ON_52
NOTE_ON_64
TIME_SHIFT_64ND_5
NOTE_OFF_79
NOTE_ON_77
TIME_SHIFT_64ND_5
NOTE_OFF_77
NOTE_ON_76
TIME_SHIFT_64ND_5
NOTE_OFF_76
NOTE_OFF_67
NOTE_OFF_46
NOTE_OFF_34
NOTE_ON_74
NOTE_ON_67
NOTE_ON_46
NOTE_ON_34
TIME_SHIFT_64ND_7
NOTE_OFF_74
NOTE_ON_76
TIME_SHIFT_64ND_8
NOTE_OFF_76
NOTE_OFF_67
NOTE_OFF_46
NOTE_OFF_52
NOTE_OFF_64
NOTE_OFF_34
NOTE_ON_74
NOTE_ON_76
NOTE_ON_67
NOTE_ON_45
NOTE_ON_33
TIME_SHIFT_64ND_7
NOTE_OFF_74
NOTE_ON_73
TIME_SHIFT_64ND_7
NOTE_OFF_73
NOTE_ON_71
NOTE_ON_57
TIME_SHIFT_64ND_7
NOTE_OFF_71
NOTE_ON_73
TIME_SHIFT_64ND_7
NOTE_OFF_73
NOTE_OFF_76
NOTE_OFF_67
NOTE_OFF_45
NOTE_OFF_33
NOTE_ON_71
NOTE_ON_45
NOTE_ON_33
TIME_SHIFT_64ND_7
NOTE_OFF_71
NOTE_ON_69
TIME_SHIFT_64ND_8
NOTE_OFF_69
NOTE_OFF_45
NOTE_OFF_33
NOTE_OFF_57
NOTE_ON_76
NOTE_ON_69
NOTE_ON_29
NOTE_ON_41
TIME_SHIFT_64ND_11
NOTE_OFF_76
NOTE_ON_77
TIME_SHIFT_64ND_4
NOTE_OFF_77
NOTE_ON_81
NOTE_ON_60
NOTE_ON_48
TIME_SHIFT_64ND_5
NOTE_OFF_81
NOTE_ON_79
TIME_SHIFT_64ND_5
NOTE_OFF_79
NOTE_ON_77
TIME_SHIFT_64ND_5
NOTE_OFF_77
NOTE_OFF_60
NOTE_OFF_48
NOTE_ON_76
NOTE_ON_49
NOTE_ON_61
TIME_SHIFT_64ND_7
NOTE_OFF_76
NOTE_ON_77
TIME_SHIFT_64ND_7
NOTE_OFF_77
NOTE_OFF_49
NOTE_OFF_61
NOTE_ON_74
NOTE_ON_50
NOTE_ON_62
TIME_SHIFT_64ND_14
NOTE_OFF_74
TIME_SHIFT_64ND_1
NOTE_OFF_69
NOTE_ON_81
NOTE_ON_69
TIME_SHIFT_64ND_14
NOTE_OFF_50
NOTE_OFF_62
NOTE_ON_53
NOTE_ON_65
TIME_SHIFT_64ND_15
NOTE_OFF_81
NOTE_OFF_69
NOTE_OFF_53
NOTE_OFF_29
NOTE_OFF_41
NOTE_OFF_65
NOTE_ON_74
NOTE_ON_67
NOTE_ON_65
NOTE_ON_46
TIME_SHIFT_64ND_11
NOTE_OFF_74
NOTE_ON_76
TIME_SHIFT_64ND_4
NOTE_OFF_76
NOTE_OFF_46
NOTE_ON_79
NOTE_ON_58
TIME_SHIFT_64ND_5
NOTE_OFF_79
NOTE_ON_77
TIME_SHIFT_64ND_5
NOTE_OFF_77
NOTE_ON_76
TIME_SHIFT_64ND_5
NOTE_OFF_76
NOTE_ON_74
TIME_SHIFT_64ND_7
NOTE_OFF_74
NOTE_ON_76
TIME_SHIFT_64ND_7
NOTE_OFF_76
NOTE_OFF_67
NOTE_OFF_65
NOTE_OFF_58
NOTE_ON_72
NOTE_ON_65
NOTE_ON_69
NOTE_ON_60
TIME_SHIFT_64ND_7
NOTE_OFF_72
NOTE_ON_74
TIME_SHIFT_64ND_7
NOTE_OFF_74
NOTE_OFF_60
NOTE_ON_72
NOTE_ON_48
TIME_SHIFT_64ND_7
NOTE_OFF_72
NOTE_ON_74
TIME_SHIFT_64ND_7
NOTE_OFF_74
NOTE_ON_76
TIME_SHIFT_64ND_7
NOTE_OFF_76
NOTE_ON_77
TIME_SHIFT_64ND_8
NOTE_OFF_77
NOTE_OFF_65
NOTE_OFF_69
NOTE_OFF_48
NOTE_ON_70
NOTE_ON_64
NOTE_ON_55
TIME_SHIFT_64ND_11
NOTE_OFF_70
NOTE_ON_72
TIME_SHIFT_64ND_4
NOTE_OFF_72
NOTE_OFF_55
NOTE_ON_76
NOTE_ON_48
TIME_SHIFT_64ND_5
NOTE_OFF_76
NOTE_ON_74
TIME_SHIFT_64ND_5
NOTE_OFF_74
NOTE_ON_72
TIME_SHIFT_64ND_5
NOTE_OFF_72
NOTE_ON_70
TIME_SHIFT_64ND_8
NOTE_OFF_70
NOTE_ON_72
TIME_SHIFT_64ND_8
NOTE_OFF_72
NOTE_OFF_64
NOTE_OFF_48
NOTE_ON_69
NOTE_ON_63
NOTE_ON_54
TIME_SHIFT_64ND_15
NOTE_OFF_54
NOTE_ON_48
TIME_SHIFT_64ND_31
NOTE_OFF_69
NOTE_OFF_63
NOTE_OFF_48
NOTE_ON_62
NOTE_ON_69
NOTE_ON_46
TIME_SHIFT_64ND_11
NOTE_OFF_62
NOTE_ON_64
TIME_SHIFT_64ND_4
NOTE_OFF_64
NOTE_OFF_69
NOTE_OFF_46
NOTE_ON_67
NOTE_ON_58
TIME_SHIFT_64ND_5
NOTE_ON_65
TIME_SHIFT_64ND_5
NOTE_OFF_65
NOTE_ON_64
TIME_SHIFT_64ND_5
NOTE_OFF_64
NOTE_OFF_67
NOTE_ON_74
NOTE_ON_62
TIME_SHIFT_64ND_7
NOTE_OFF_62
NOTE_ON_64
TIME_SHIFT_64ND_7
NOTE_OFF_64
NOTE_OFF_58
NOTE_ON_65
NOTE_ON_57
NOTE_ON_60
NOTE_ON_57
TIME_SHIFT_64ND_7
NOTE_OFF_60
NOTE_ON_62
TIME_SHIFT_64ND_7
NOTE_OFF_74
NOTE_OFF_62
NOTE_ON_65
NOTE_ON_60
TIME_SHIFT_64ND_7
NOTE_OFF_60
NOTE_ON_62
TIME_SHIFT_64ND_7
NOTE_OFF_65
NOTE_OFF_65
NOTE_OFF_62
NOTE_ON_72
NOTE_ON_64
TIME_SHIFT_64ND_7
NOTE_OFF_64
NOTE_ON_65
TIME_SHIFT_64ND_8
NOTE_OFF_57
NOTE_OFF_65
NOTE_OFF_57
NOTE_ON_58
NOTE_ON_55
TIME_SHIFT_64ND_11
NOTE_OFF_58
NOTE_ON_60
TIME_SHIFT_64ND_4
NOTE_OFF_72
NOTE_OFF_60
NOTE_ON_70
NOTE_ON_64
TIME_SHIFT_64ND_5
NOTE_OFF_64
NOTE_ON_62
TIME_SHIFT_64ND_5
NOTE_OFF_62
NOTE_ON_60
TIME_SHIFT_64ND_5
NOTE_OFF_70
NOTE_OFF_60
NOTE_OFF_55
NOTE_ON_72
NOTE_ON_64
NOTE_ON_58
NOTE_ON_48
TIME_SHIFT_64ND_8
NOTE_OFF_58
NOTE_ON_60
TIME_SHIFT_64ND_8
NOTE_OFF_72
NOTE_OFF_64
NOTE_OFF_60
NOTE_OFF_48
NOTE_ON_65
NOTE_ON_72
NOTE_ON_58
NOTE_ON_53
TIME_SHIFT_64ND_8
NOTE_OFF_58
NOTE_ON_57
TIME_SHIFT_64ND_8
NOTE_OFF_57
NOTE_ON_55
TIME_SHIFT_64ND_8
NOTE_OFF_55
NOTE_ON_57
TIME_SHIFT_64ND_8
NOTE_OFF_57
NOTE_OFF_53
NOTE_ON_55
TIME_SHIFT_64ND_8
NOTE_OFF_55
NOTE_ON_53
TIME_SHIFT_64ND_8
NOTE_OFF_65
NOTE_OFF_72
NOTE_OFF_53
NOTE_ON_79
NOTE_ON_75
TIME_SHIFT_64ND_11
NOTE_OFF_79
NOTE_ON_81
TIME_SHIFT_64ND_4
NOTE_OFF_81
NOTE_ON_84
NOTE_ON_65
TIME_SHIFT_64ND_5
NOTE_OFF_84
NOTE_ON_82
TIME_SHIFT_64ND_5
NOTE_OFF_82
NOTE_ON_81
TIME_SHIFT_64ND_5
NOTE_OFF_81
NOTE_ON_79
TIME_SHIFT_64ND_7
NOTE_OFF_79
NOTE_ON_81
TIME_SHIFT_64ND_7
NOTE_OFF_81
NOTE_OFF_75
NOTE_ON_77
NOTE_ON_75
TIME_SHIFT_64ND_7
NOTE_OFF_77
NOTE_ON_79
TIME_SHIFT_64ND_7
NOTE_OFF_79
NOTE_OFF_75
NOTE_ON_77
NOTE_ON_74
TIME_SHIFT_64ND_7
NOTE_OFF_77
NOTE_ON_79
TIME_SHIFT_64ND_7
NOTE_OFF_79
NOTE_OFF_65
NOTE_ON_81
NOTE_ON_65
TIME_SHIFT_64ND_7
NOTE_OFF_81
NOTE_ON_82
TIME_SHIFT_64ND_8
NOTE_OFF_82
NOTE_OFF_74
NOTE_ON_74
NOTE_ON_70
TIME_SHIFT_64ND_11
NOTE_OFF_74
NOTE_ON_76
TIME_SHIFT_64ND_4
NOTE_OFF_76
NOTE_OFF_65
NOTE_ON_79
NOTE_ON_65
TIME_SHIFT_64ND_5
NOTE_OFF_79
NOTE_ON_77
TIME_SHIFT_64ND_5
NOTE_OFF_77
NOTE_ON_76
TIME_SHIFT_64ND_5
NOTE_OFF_76
NOTE_ON_74
TIME_SHIFT_64ND_8
NOTE_OFF_74
NOTE_ON_76
TIME_SHIFT_64ND_8
NOTE_OFF_76
NOTE_OFF_70
NOTE_ON_72
NOTE_ON_77
NOTE_ON_70
TIME_SHIFT_64ND_7
NOTE_OFF_70
NOTE_ON_69
TIME_SHIFT_64ND_8
NOTE_OFF_69
NOTE_ON_67
TIME_SHIFT_64ND_7
NOTE_OFF_67
NOTE_ON_69
TIME_SHIFT_64ND_8
NOTE_OFF_69
NOTE_OFF_65
NOTE_ON_67
TIME_SHIFT_64ND_8
NOTE_OFF_67
NOTE_ON_65
TIME_SHIFT_64ND_8
NOTE_OFF_72
NOTE_OFF_77
NOTE_OFF_65
NOTE_ON_77
NOTE_ON_65
NOTE_ON_70
NOTE_ON_63
TIME_SHIFT_64ND_7
NOTE_OFF_63
NOTE_ON_62
TIME_SHIFT_64ND_8
NOTE_OFF_62
NOTE_ON_60
TIME_SHIFT_64ND_7
NOTE_OFF_60
NOTE_ON_62
TIME_SHIFT_64ND_8
NOTE_OFF_62
NOTE_ON_60
TIME_SHIFT_64ND_8
NOTE_OFF_60
NOTE_ON_58
TIME_SHIFT_64ND_8
NOTE_OFF_77
NOTE_OFF_65
NOTE_OFF_70
NOTE_OFF_58
NOTE_ON_77
NOTE_ON_72
NOTE_ON_84
NOTE_ON_58
TIME_SHIFT_64ND_7
NOTE_OFF_58
NOTE_ON_57
TIME_SHIFT_64ND_8
NOTE_OFF_57
NOTE_ON_55
TIME_SHIFT_64ND_7
NOTE_OFF_55
NOTE_ON_57
TIME_SHIFT_64ND_8
NOTE_OFF_57
NOTE_ON_55
TIME_SHIFT_64ND_8
NOTE_OFF_55
NOTE_ON_53
TIME_SHIFT_64ND_8
NOTE_OFF_77
NOTE_OFF_72
NOTE_OFF_84
NOTE_OFF_53
NOTE_ON_82
NOTE_ON_89
NOTE_ON_77
NOTE_ON_51
TIME_SHIFT_64ND_7
NOTE_OFF_51
NOTE_ON_50
TIME_SHIFT_64ND_8
NOTE_OFF_50
NOTE_ON_48
TIME_SHIFT_64ND_7
NOTE_OFF_48
NOTE_ON_50
TIME_SHIFT_64ND_8
NOTE_OFF_50
NOTE_ON_48
TIME_SHIFT_64ND_8
NOTE_OFF_48
NOTE_ON_46
TIME_SHIFT_64ND_8
NOTE_OFF_82
NOTE_OFF_89
NOTE_OFF_77
NOTE_OFF_46
NOTE_ON_84
NOTE_ON_89
NOTE_ON_96
NOTE_ON_46
TIME_SHIFT_64ND_7
NOTE_OFF_46
NOTE_ON_45
TIME_SHIFT_64ND_8
NOTE_OFF_45
NOTE_ON_43
TIME_SHIFT_64ND_7
NOTE_OFF_43
NOTE_ON_45
TIME_SHIFT_64ND_8
NOTE_OFF_45
NOTE_ON_43
TIME_SHIFT_64ND_8
NOTE_OFF_43
NOTE_ON_41
TIME_SHIFT_64ND_8
NOTE_OFF_41
NOTE_ON_41
TIME_SHIFT_64ND_16
NOTE_OFF_84
NOTE_OFF_89
NOTE_OFF_96
NOTE_OFF_41
NOTE_ON_29
TIME_SHIFT_64ND_8
NOTE_OFF_29
TIME_SHIFT_64ND_8
NOTE_ON_29
TIME_SHIFT_64ND_8
NOTE_OFF_29
TIME_SHIFT_64ND_8
NOTE_ON_29
TIME_SHIFT_64ND_8
NOTE_OFF_29
TIME_SHIFT_64ND_39
NOTE_ON_37
TIME_SHIFT_64ND_16
NOTE_ON_63
NOTE_ON_58
NOTE_ON_42
TIME_SHIFT_64ND_15
NOTE_OFF_63
NOTE_OFF_58
NOTE_OFF_42
NOTE_ON_65
NOTE_ON_60
NOTE_ON_44
TIME_SHIFT_64ND_15
NOTE_OFF_65
NOTE_OFF_60
NOTE_OFF_44
NOTE_ON_65
NOTE_ON_61
NOTE_ON_46
TIME_SHIFT_64ND_15
NOTE_OFF_65
NOTE_OFF_61
NOTE_OFF_46
NOTE_ON_68
NOTE_ON_58
NOTE_ON_53
TIME_SHIFT_64ND_15
NOTE_OFF_68
NOTE_OFF_58
NOTE_OFF_53
NOTE_ON_65
NOTE_ON_61
NOTE_ON_46
TIME_SHIFT_64ND_15
NOTE_OFF_65
NOTE_OFF_61
NOTE_OFF_46
NOTE_OFF_37
NOTE_ON_37
TIME_SHIFT_64ND_16
NOTE_ON_63
NOTE_ON_58
NOTE_ON_42
TIME_SHIFT_64ND_15
NOTE_OFF_63
NOTE_OFF_58
NOTE_OFF_42
NOTE_ON_65
NOTE_ON_60
NOTE_ON_44
TIME_SHIFT_64ND_15
NOTE_OFF_65
NOTE_OFF_60
NOTE_OFF_44
NOTE_ON_65
NOTE_ON_61
NOTE_ON_46
TIME_SHIFT_64ND_15
NOTE_OFF_65
NOTE_OFF_61
NOTE_OFF_46
NOTE_ON_68
NOTE_ON_58
NOTE_ON_53
TIME_SHIFT_64ND_15
NOTE_OFF_68
NOTE_OFF_58
NOTE_OFF_53
NOTE_ON_70
NOTE_ON_65
NOTE_ON_49
TIME_SHIFT_64ND_15
NOTE_OFF_70
NOTE_OFF_65
NOTE_OFF_49
NOTE_OFF_37
NOTE_ON_37
TIME_SHIFT_64ND_15
NOTE_ON_68
NOTE_ON_63
NOTE_ON_47
TIME_SHIFT_64ND_15
NOTE_OFF_68
NOTE_OFF_63
NOTE_OFF_47
NOTE_ON_70
NOTE_ON_65
NOTE_ON_49
TIME_SHIFT_64ND_15
NOTE_OFF_70
NOTE_OFF_65
NOTE_OFF_49
NOTE_ON_70
NOTE_ON_66
NOTE_ON_51
TIME_SHIFT_64ND_15
NOTE_OFF_70
NOTE_OFF_66
NOTE_OFF_51
NOTE_ON_73
NOTE_ON_63
NOTE_ON_58
TIME_SHIFT_64ND_15
NOTE_OFF_73
NOTE_OFF_63
NOTE_OFF_58
NOTE_ON_70
NOTE_ON_66
NOTE_ON_51
TIME_SHIFT_64ND_15
NOTE_OFF_70
NOTE_OFF_66
NOTE_OFF_51
NOTE_OFF_37
NOTE_ON_68
NOTE_ON_63
NOTE_ON_48
NOTE_ON_37
TIME_SHIFT_64ND_15
NOTE_OFF_68
NOTE_OFF_63
NOTE_OFF_48
NOTE_ON_65
NOTE_ON_58
NOTE_ON_49
TIME_SHIFT_64ND_15
NOTE_OFF_65
NOTE_OFF_58
NOTE_OFF_49
NOTE_OFF_37
NOTE_ON_68
NOTE_ON_63
NOTE_ON_48
NOTE_ON_37
TIME_SHIFT_64ND_15
NOTE_OFF_68
NOTE_OFF_63
NOTE_OFF_48
NOTE_ON_65
NOTE_ON_61
NOTE_ON_46
TIME_SHIFT_64ND_15
NOTE_OFF_65
NOTE_OFF_61
NOTE_OFF_46
NOTE_OFF_37
NOTE_ON_66
NOTE_ON_58
NOTE_ON_51
NOTE_ON_37
TIME_SHIFT_64ND_15
NOTE_OFF_66
NOTE_OFF_58
NOTE_OFF_51
NOTE_ON_63
NOTE_ON_60
NOTE_ON_44
TIME_SHIFT_64ND_15
NOTE_OFF_63
NOTE_OFF_60
NOTE_OFF_44
NOTE_OFF_37
NOTE_ON_37
TIME_SHIFT_64ND_15
NOTE_ON_58
NOTE_ON_42
TIME_SHIFT_64ND_7
NOTE_ON_63
TIME_SHIFT_64ND_7
NOTE_OFF_63
NOTE_OFF_58
NOTE_OFF_42
NOTE_ON_60
NOTE_ON_44
TIME_SHIFT_64ND_7
NOTE_ON_65
TIME_SHIFT_64ND_7
NOTE_OFF_65
NOTE_OFF_60
NOTE_OFF_44
NOTE_ON_61
NOTE_ON_46
TIME_SHIFT_64ND_7
NOTE_ON_65
TIME_SHIFT_64ND_7
NOTE_OFF_65
NOTE_OFF_46
NOTE_ON_58
NOTE_ON_53
TIME_SHIFT_64ND_7
NOTE_OFF_58
NOTE_ON_68
TIME_SHIFT_64ND_7
NOTE_OFF_68
NOTE_OFF_61
NOTE_OFF_53
NOTE_ON_61
NOTE_ON_46
TIME_SHIFT_64ND_7
NOTE_ON_65
TIME_SHIFT_64ND_7
NOTE_OFF_65
NOTE_OFF_61
NOTE_OFF_46
NOTE_OFF_37
NOTE_ON_37
TIME_SHIFT_64ND_15
NOTE_ON_58
NOTE_ON_42
TIME_SHIFT_64ND_7
NOTE_ON_63
TIME_SHIFT_64ND_7
NOTE_OFF_63
NOTE_OFF_58
NOTE_OFF_42
NOTE_ON_60
NOTE_ON_44
TIME_SHIFT_64ND_7
NOTE_ON_65
TIME_SHIFT_64ND_7
NOTE_OFF_65
NOTE_OFF_60
NOTE_OFF_44
NOTE_ON_61
NOTE_ON_46
TIME_SHIFT_64ND_7
NOTE_ON_65
TIME_SHIFT_64ND_7
NOTE_OFF_65
NOTE_OFF_46
NOTE_ON_58
NOTE_ON_53
TIME_SHIFT_64ND_7
NOTE_OFF_58
NOTE_ON_68
TIME_SHIFT_64ND_7
NOTE_OFF_68
NOTE_OFF_61
NOTE_OFF_53
NOTE_ON_65
NOTE_ON_49
TIME_SHIFT_64ND_7
NOTE_ON_70
TIME_SHIFT_64ND_7
NOTE_OFF_70
NOTE_OFF_65
NOTE_OFF_49
NOTE_OFF_37
NOTE_ON_36
TIME_SHIFT_64ND_15
NOTE_ON_67
NOTE_ON_62
NOTE_ON_58
TIME_SHIFT_64ND_15
NOTE_OFF_67
NOTE_OFF_62
NOTE_OFF_58
NOTE_ON_69
NOTE_ON_64
NOTE_ON_60
TIME_SHIFT_64ND_14
NOTE_OFF_69
NOTE_OFF_64
NOTE_OFF_60
NOTE_ON_69
NOTE_ON_65
NOTE_ON_62
TIME_SHIFT_64ND_14
NOTE_OFF_69
NOTE_OFF_65
NOTE_ON_72
NOTE_ON_65
NOTE_ON_57
TIME_SHIFT_64ND_14
NOTE_OFF_72
NOTE_OFF_65
NOTE_OFF_57
NOTE_OFF_62
NOTE_ON_69
NOTE_ON_65
NOTE_ON_60
TIME_SHIFT_64ND_14
NOTE_OFF_69
NOTE_OFF_65
NOTE_OFF_60
NOTE_OFF_36
NOTE_ON_36
TIME_SHIFT_64ND_15
NOTE_ON_62
NOTE_ON_58
TIME_SHIFT_64ND_7
NOTE_ON_67
TIME_SHIFT_64ND_7
NOTE_OFF_67
NOTE_OFF_62
NOTE_OFF_58
NOTE_ON_64
NOTE_ON_60
TIME_SHIFT_64ND_7
NOTE_ON_69
TIME_SHIFT_64ND_7
NOTE_OFF_69
NOTE_OFF_64
NOTE_OFF_60
NOTE_ON_65
NOTE_ON_62
TIME_SHIFT_64ND_7
NOTE_ON_69
TIME_SHIFT_64ND_7
NOTE_OFF_69
NOTE_OFF_65
NOTE_ON_65
NOTE_ON_57
TIME_SHIFT_64ND_7
NOTE_ON_72
TIME_SHIFT_64ND_7
NOTE_OFF_72
NOTE_OFF_65
NOTE_OFF_57
NOTE_OFF_62
NOTE_ON_69
NOTE_ON_60
TIME_SHIFT_64ND_7
NOTE_ON_74
TIME_SHIFT_64ND_7
NOTE_OFF_74
NOTE_OFF_69
NOTE_OFF_60
NOTE_OFF_36
NOTE_ON_36
TIME_SHIFT_64ND_14
NOTE_ON_79
NOTE_ON_84
NOTE_ON_64
TIME_SHIFT_64ND_14
NOTE_OFF_79
NOTE_OFF_84
NOTE_OFF_64
NOTE_ON_81
NOTE_ON_74
NOTE_ON_65
TIME_SHIFT_64ND_14
NOTE_OFF_81
NOTE_OFF_74
NOTE_OFF_65
NOTE_ON_79
NOTE_ON_84
NOTE_ON_64
TIME_SHIFT_64ND_14
NOTE_OFF_79
NOTE_OFF_84
NOTE_OFF_64
NOTE_ON_81
NOTE_ON_77
NOTE_ON_62
TIME_SHIFT_64ND_14
NOTE_OFF_81
NOTE_OFF_77
NOTE_OFF_62
NOTE_ON_82
NOTE_ON_74
NOTE_ON_67
TIME_SHIFT_64ND_14
NOTE_OFF_82
NOTE_OFF_74
NOTE_OFF_67
NOTE_ON_79
NOTE_ON_76
NOTE_ON_60
TIME_SHIFT_64ND_14
NOTE_OFF_79
NOTE_OFF_76
NOTE_OFF_60
NOTE_OFF_36
NOTE_ON_67
NOTE_ON_72
NOTE_ON_52
TIME_SHIFT_64ND_14
NOTE_OFF_67
NOTE_OFF_72
NOTE_OFF_52
NOTE_ON_69
NOTE_ON_62
NOTE_ON_53
TIME_SHIFT_64ND_14
NOTE_OFF_69
NOTE_OFF_62
NOTE_OFF_53
NOTE_ON_67
NOTE_ON_72
NOTE_ON_52
TIME_SHIFT_64ND_14
NOTE_OFF_67
NOTE_OFF_72
NOTE_OFF_52
NOTE_ON_69
NOTE_ON_65
NOTE_ON_50
TIME_SHIFT_64ND_14
NOTE_OFF_69
NOTE_OFF_65
NOTE_OFF_50
NOTE_ON_70
NOTE_ON_62
NOTE_ON_55
TIME_SHIFT_64ND_14
NOTE_OFF_70
NOTE_OFF_62
NOTE_OFF_55
NOTE_ON_67
NOTE_ON_64
NOTE_ON_48
TIME_SHIFT_64ND_14
NOTE_OFF_67
NOTE_OFF_64
NOTE_OFF_48
NOTE_ON_69
NOTE_ON_60
NOTE_ON_45
TIME_SHIFT_64ND_29
NOTE_OFF_69
NOTE_OFF_60
NOTE_OFF_45
NOTE_ON_65
NOTE_ON_62
NOTE_ON_46
TIME_SHIFT_64ND_15
NOTE_OFF_65
NOTE_OFF_62
NOTE_OFF_46
NOTE_ON_67
NOTE_ON_58
NOTE_ON_43
TIME_SHIFT_64ND_30
NOTE_OFF_67
NOTE_OFF_58
NOTE_OFF_43
NOTE_ON_58
NOTE_ON_67
NOTE_ON_48
TIME_SHIFT_64ND_17
NOTE_ON_62
TIME_SHIFT_64ND_16
NOTE_ON_64
TIME_SHIFT_64ND_1
NOTE_OFF_62
TIME_SHIFT_64ND_15
NOTE_OFF_58
NOTE_OFF_67
NOTE_ON_65
TIME_SHIFT_64ND_1
NOTE_OFF_64
TIME_SHIFT_64ND_16
NOTE_ON_64
TIME_SHIFT_64ND_1
NOTE_OFF_65
TIME_SHIFT_64ND_9
NOTE_ON_62
TIME_SHIFT_64ND_1
NOTE_OFF_64
TIME_SHIFT_64ND_10
NOTE_OFF_48
NOTE_ON_64
TIME_SHIFT_64ND_1
NOTE_OFF_62
TIME_SHIFT_64ND_33
NOTE_OFF_64
NOTE_ON_64
NOTE_ON_57
NOTE_ON_48
NOTE_ON_41
TIME_SHIFT_64ND_11
NOTE_OFF_64
NOTE_ON_65
TIME_SHIFT_64ND_4
NOTE_OFF_65
NOTE_ON_69
TIME_SHIFT_64ND_5
NOTE_OFF_69
NOTE_ON_67
TIME_SHIFT_64ND_5
NOTE_OFF_67
NOTE_ON_65
TIME_SHIFT_64ND_5
NOTE_OFF_65
NOTE_OFF_48
NOTE_ON_64
NOTE_ON_49
TIME_SHIFT_64ND_7
NOTE_OFF_64
NOTE_ON_65
TIME_SHIFT_64ND_7
NOTE_OFF_65
NOTE_OFF_57
NOTE_OFF_49
NOTE_OFF_41
NOTE_ON_62
NOTE_ON_57
NOTE_ON_50
NOTE_ON_41
TIME_SHIFT_64ND_11
NOTE_OFF_62
TIME_SHIFT_64ND_4
NOTE_ON_69
TIME_SHIFT_64ND_14
NOTE_OFF_50
NOTE_ON_49
TIME_SHIFT_64ND_15
NOTE_OFF_69
NOTE_OFF_57
NOTE_OFF_49
NOTE_OFF_41
NOTE_ON_62
NOTE_ON_55
NOTE_ON_50
NOTE_ON_46
TIME_SHIFT_64ND_11
NOTE_OFF_62
NOTE_ON_64
TIME_SHIFT_64ND_4
NOTE_OFF_64
NOTE_OFF_50
NOTE_ON_67
NOTE_ON_52
TIME_SHIFT_64ND_5
NOTE_OFF_67
NOTE_ON_65
TIME_SHIFT_64ND_5
NOTE_OFF_65
NOTE_ON_64
TIME_SHIFT_64ND_5
NOTE_OFF_64
NOTE_ON_62
TIME_SHIFT_64ND_7
NOTE_OFF_62
NOTE_ON_64
TIME_SHIFT_64ND_8
NOTE_OFF_64
NOTE_OFF_55
NOTE_OFF_46
NOTE_ON_62
NOTE_ON_64
NOTE_ON_45
TIME_SHIFT_64ND_7
NOTE_OFF_62
NOTE_ON_61
TIME_SHIFT_64ND_7
NOTE_OFF_61
NOTE_OFF_52
NOTE_ON_59
NOTE_ON_55
TIME_SHIFT_64ND_7
NOTE_OFF_59
NOTE_ON_61
TIME_SHIFT_64ND_7
NOTE_OFF_61
NOTE_OFF_55
NOTE_OFF_45
NOTE_ON_59
NOTE_ON_45
TIME_SHIFT_64ND_7
NOTE_OFF_59
NOTE_ON_57
TIME_SHIFT_64ND_8
NOTE_OFF_57
NOTE_OFF_64
NOTE_OFF_45
NOTE_ON_64
NOTE_ON_57
NOTE_ON_48
NOTE_ON_41
TIME_SHIFT_64ND_11
NOTE_OFF_64
NOTE_ON_65
TIME_SHIFT_64ND_4
NOTE_OFF_65
NOTE_ON_69
TIME_SHIFT_64ND_5
NOTE_OFF_69
NOTE_ON_67
TIME_SHIFT_64ND_5
NOTE_OFF_67
NOTE_ON_65
TIME_SHIFT_64ND_5
NOTE_OFF_65
NOTE_OFF_48
NOTE_ON_64
NOTE_ON_49
TIME_SHIFT_64ND_7
NOTE_OFF_64
NOTE_ON_65
TIME_SHIFT_64ND_7
NOTE_OFF_65
NOTE_OFF_57
NOTE_OFF_49
NOTE_OFF_41
NOTE_ON_62
NOTE_ON_57
NOTE_ON_50
NOTE_ON_41
TIME_SHIFT_64ND_11
NOTE_OFF_62
TIME_SHIFT_64ND_4
NOTE_ON_69
TIME_SHIFT_64ND_14
NOTE_OFF_50
NOTE_ON_52
TIME_SHIFT_64ND_15
NOTE_OFF_69
NOTE_OFF_57
NOTE_OFF_52
NOTE_OFF_41
NOTE_ON_69
NOTE_ON_62
NOTE_ON_53
TIME_SHIFT_64ND_11
NOTE_OFF_69
NOTE_ON_71
TIME_SHIFT_64ND_4
NOTE_OFF_71
NOTE_OFF_53
NOTE_ON_74
NOTE_ON_55
TIME_SHIFT_64ND_5
NOTE_OFF_74
NOTE_ON_72
TIME_SHIFT_64ND_5
NOTE_OFF_72
NOTE_ON_71
TIME_SHIFT_64ND_5
NOTE_OFF_71
NOTE_OFF_55
NOTE_ON_69
NOTE_ON_53
TIME_SHIFT_64ND_7
NOTE_OFF_69
NOTE_ON_71
TIME_SHIFT_64ND_7
NOTE_OFF_71
NOTE_OFF_53
NOTE_ON_67
NOTE_ON_52
TIME_SHIFT_64ND_7
NOTE_OFF_67
NOTE_ON_69
TIME_SHIFT_64ND_7
NOTE_OFF_69
NOTE_OFF_62
NOTE_OFF_52
NOTE_ON_67
NOTE_ON_60
NOTE_ON_57
TIME_SHIFT_64ND_7
NOTE_OFF_67
NOTE_ON_69
TIME_SHIFT_64ND_7
NOTE_OFF_69
NOTE_OFF_57
NOTE_ON_71
NOTE_ON_55
TIME_SHIFT_64ND_7
NOTE_OFF_71
NOTE_ON_72
TIME_SHIFT_64ND_8
NOTE_OFF_72
NOTE_OFF_60
NOTE_OFF_55
NOTE_ON_65
NOTE_ON_59
NOTE_ON_50
TIME_SHIFT_64ND_11
NOTE_OFF_65
NOTE_ON_67
TIME_SHIFT_64ND_4
NOTE_OFF_67
NOTE_OFF_50
NOTE_ON_71
NOTE_ON_55
TIME_SHIFT_64ND_5
NOTE_OFF_71
NOTE_ON_69
TIME_SHIFT_64ND_5
NOTE_OFF_69
NOTE_ON_67
TIME_SHIFT_64ND_5
NOTE_OFF_67
NOTE_OFF_59
NOTE_OFF_55
NOTE_ON_65
NOTE_ON_59
NOTE_ON_50
TIME_SHIFT_64ND_8
NOTE_OFF_65
NOTE_ON_67
TIME_SHIFT_64ND_8
NOTE_OFF_67
NOTE_OFF_59
NOTE_ON_59
NOTE_ON_64
NOTE_ON_56
TIME_SHIFT_64ND_15
NOTE_OFF_50
NOTE_ON_50
TIME_SHIFT_64ND_16
NOTE_OFF_59
NOTE_OFF_50
NOTE_OFF_56
NOTE_ON_57
NOTE_ON_48
TIME_SHIFT_64ND_16
NOTE_OFF_64
NOTE_OFF_57
NOTE_OFF_48
NOTE_ON_57
NOTE_ON_53
TIME_SHIFT_64ND_11
NOTE_OFF_57
NOTE_ON_59
TIME_SHIFT_64ND_4
NOTE_OFF_59
NOTE_ON_74
NOTE_ON_69
NOTE_ON_62
TIME_SHIFT_64ND_5
NOTE_OFF_62
NOTE_ON_60
TIME_SHIFT_64ND_5
NOTE_OFF_60
NOTE_ON_59
TIME_SHIFT_64ND_5
NOTE_OFF_74
NOTE_OFF_59
NOTE_ON_81
NOTE_ON_57
TIME_SHIFT_64ND_7
NOTE_OFF_57
NOTE_ON_59
TIME_SHIFT_64ND_8
NOTE_OFF_59
NOTE_OFF_53
NOTE_ON_55
NOTE_ON_52
TIME_SHIFT_64ND_7
NOTE_OFF_55
NOTE_ON_57
TIME_SHIFT_64ND_7
NOTE_OFF_81
NOTE_OFF_57
NOTE_ON_72
NOTE_ON_55
TIME_SHIFT_64ND_7
NOTE_OFF_55
NOTE_ON_57
TIME_SHIFT_64ND_7
NOTE_OFF_72
NOTE_OFF_69
NOTE_OFF_57
NOTE_ON_79
NOTE_ON_67
NOTE_ON_59
TIME_SHIFT_64ND_7
NOTE_OFF_59
NOTE_ON_60
TIME_SHIFT_64ND_8
NOTE_OFF_79
NOTE_OFF_67
NOTE_OFF_60
NOTE_OFF_52
NOTE_ON_53
NOTE_ON_50
TIME_SHIFT_64ND_11
NOTE_OFF_53
NOTE_ON_55
TIME_SHIFT_64ND_4
NOTE_OFF_55
NOTE_ON_77
NOTE_ON_71
NOTE_ON_59
TIME_SHIFT_64ND_5
NOTE_OFF_59
NOTE_ON_57
TIME_SHIFT_64ND_5
NOTE_OFF_57
NOTE_ON_55
TIME_SHIFT_64ND_5
NOTE_OFF_77
NOTE_OFF_71
NOTE_OFF_55
NOTE_OFF_50
NOTE_ON_79
NOTE_ON_67
NOTE_ON_53
NOTE_ON_43
TIME_SHIFT_64ND_8
NOTE_OFF_53
NOTE_ON_55
TIME_SHIFT_64ND_7
NOTE_OFF_79
NOTE_OFF_67
TIME_SHIFT_64ND_1
NOTE_OFF_55
NOTE_OFF_43
NOTE_ON_79
NOTE_ON_67
NOTE_ON_53
NOTE_ON_48
TIME_SHIFT_64ND_7
NOTE_OFF_53
NOTE_ON_52
TIME_SHIFT_64ND_7
NOTE_OFF_79
NOTE_OFF_67
NOTE_OFF_52
NOTE_ON_72
NOTE_ON_50
TIME_SHIFT_64ND_7
NOTE_OFF_50
NOTE_ON_52
TIME_SHIFT_64ND_8
NOTE_OFF_72
NOTE_OFF_52
NOTE_OFF_48
NOTE_ON_50
TIME_SHIFT_64ND_8
NOTE_OFF_50
NOTE_ON_48
TIME_SHIFT_64ND_8
NOTE_OFF_48
NOTE_ON_53
NOTE_ON_41
TIME_SHIFT_64ND_11
NOTE_OFF_53
NOTE_OFF_41
NOTE_ON_55
NOTE_ON_43
TIME_SHIFT_64ND_4
NOTE_ON_58
NOTE_ON_46
NOTE_OFF_55
NOTE_OFF_43
TIME_SHIFT_64ND_4
NOTE_ON_56
NOTE_ON_44
NOTE_OFF_58
NOTE_OFF_46
TIME_SHIFT_64ND_4
NOTE_ON_55
NOTE_ON_43
NOTE_OFF_56
NOTE_OFF_44
TIME_SHIFT_64ND_5
NOTE_ON_53
NOTE_ON_41
NOTE_OFF_55
NOTE_OFF_43
TIME_SHIFT_64ND_7
NOTE_ON_55
NOTE_ON_43
NOTE_OFF_53
NOTE_OFF_41
TIME_SHIFT_64ND_7
NOTE_OFF_55
NOTE_OFF_43
NOTE_ON_75
NOTE_ON_68
NOTE_ON_51
NOTE_ON_39
TIME_SHIFT_64ND_11
NOTE_OFF_75
NOTE_ON_77
TIME_SHIFT_64ND_4
NOTE_OFF_77
NOTE_OFF_51
NOTE_OFF_39
NOTE_ON_80
NOTE_ON_60
NOTE_ON_48
TIME_SHIFT_64ND_5
NOTE_OFF_80
NOTE_ON_79
TIME_SHIFT_64ND_5
NOTE_OFF_79
NOTE_ON_77
TIME_SHIFT_64ND_5
NOTE_OFF_77
NOTE_ON_75
TIME_SHIFT_64ND_7
NOTE_OFF_75
NOTE_ON_77
TIME_SHIFT_64ND_8
NOTE_OFF_77
NOTE_OFF_68
NOTE_OFF_60
NOTE_OFF_48
NOTE_ON_73
NOTE_ON_67
NOTE_ON_58
NOTE_ON_46
TIME_SHIFT_64ND_11
NOTE_OFF_73
NOTE_ON_75
TIME_SHIFT_64ND_4
NOTE_OFF_75
NOTE_OFF_58
NOTE_OFF_46
NOTE_ON_79
NOTE_ON_51
NOTE_ON_39
TIME_SHIFT_64ND_5
NOTE_OFF_79
NOTE_ON_77
TIME_SHIFT_64ND_5
NOTE_OFF_77
NOTE_ON_75
TIME_SHIFT_64ND_5
NOTE_OFF_75
NOTE_ON_73
TIME_SHIFT_64ND_8
NOTE_OFF_73
NOTE_ON_75
TIME_SHIFT_64ND_8
NOTE_OFF_75
NOTE_OFF_67
NOTE_OFF_51
NOTE_OFF_39
NOTE_ON_72
NOTE_ON_63
NOTE_ON_60
NOTE_ON_51
NOTE_ON_44
TIME_SHIFT_64ND_7
NOTE_OFF_51
NOTE_ON_53
TIME_SHIFT_64ND_8
NOTE_OFF_53
NOTE_ON_51
TIME_SHIFT_64ND_7
NOTE_OFF_51
NOTE_ON_53
TIME_SHIFT_64ND_8
NOTE_OFF_53
NOTE_ON_55
TIME_SHIFT_64ND_7
NOTE_OFF_55
NOTE_ON_56
TIME_SHIFT_64ND_6
NOTE_OFF_56
NOTE_ON_43
TIME_SHIFT_64ND_2
NOTE_OFF_72
NOTE_OFF_63
NOTE_OFF_60
NOTE_OFF_44
NOTE_ON_72
NOTE_ON_64
NOTE_ON_60
NOTE_ON_58
TIME_SHIFT_64ND_11
NOTE_OFF_43
NOTE_ON_44
TIME_SHIFT_64ND_4
NOTE_OFF_44
NOTE_OFF_58
NOTE_ON_48
TIME_SHIFT_64ND_5
NOTE_ON_46
NOTE_OFF_48
TIME_SHIFT_64ND_4
NOTE_ON_44
NOTE_OFF_46
TIME_SHIFT_64ND_5
NOTE_ON_43
NOTE_OFF_44
TIME_SHIFT_64ND_7
NOTE_ON_44
NOTE_OFF_43
TIME_SHIFT_64ND_7
NOTE_OFF_72
NOTE_OFF_64
NOTE_OFF_60
NOTE_OFF_44
NOTE_ON_68
NOTE_ON_65
NOTE_ON_60
NOTE_ON_53
NOTE_ON_41
TIME_SHIFT_64ND_7
NOTE_OFF_68
NOTE_ON_70
TIME_SHIFT_64ND_8
NOTE_OFF_70
NOTE_ON_68
TIME_SHIFT_64ND_7
NOTE_OFF_68
NOTE_ON_70
TIME_SHIFT_64ND_8
NOTE_OFF_70
NOTE_OFF_53
NOTE_OFF_41
NOTE_ON_72
NOTE_ON_51
NOTE_ON_39
TIME_SHIFT_64ND_7
NOTE_OFF_72
NOTE_ON_73
TIME_SHIFT_64ND_8
NOTE_OFF_73
NOTE_OFF_65
NOTE_OFF_60
NOTE_OFF_51
NOTE_OFF_39
NOTE_ON_70
NOTE_ON_65
NOTE_ON_49
NOTE_ON_37
TIME_SHIFT_64ND_7
NOTE_OFF_70
NOTE_ON_72
TIME_SHIFT_64ND_8
NOTE_OFF_72
NOTE_OFF_49
NOTE_OFF_37
NOTE_ON_70
NOTE_ON_55
NOTE_ON_43
TIME_SHIFT_64ND_7
NOTE_OFF_70
NOTE_ON_72
TIME_SHIFT_64ND_8
NOTE_OFF_72
NOTE_OFF_55
NOTE_OFF_43
NOTE_ON_73
NOTE_ON_49
NOTE_ON_37
TIME_SHIFT_64ND_5
NOTE_OFF_73
NOTE_ON_75
TIME_SHIFT_64ND_5
NOTE_OFF_75
NOTE_ON_77
TIME_SHIFT_64ND_5
NOTE_OFF_77
NOTE_OFF_65
NOTE_OFF_49
NOTE_OFF_37
NOTE_ON_65
NOTE_ON_79
NOTE_ON_70
NOTE_ON_48
NOTE_ON_36
TIME_SHIFT_64ND_16
NOTE_OFF_65
NOTE_ON_64
TIME_SHIFT_64ND_16
NOTE_OFF_48
NOTE_OFF_36
NOTE_ON_60
TIME_SHIFT_64ND_16
NOTE_OFF_64
NOTE_OFF_79
NOTE_OFF_70
NOTE_OFF_60
NOTE_ON_76
NOTE_ON_69
NOTE_ON_41
NOTE_ON_29
TIME_SHIFT_64ND_11
NOTE_OFF_76
NOTE_ON_77
TIME_SHIFT_64ND_4
NOTE_OFF_77
NOTE_ON_81
NOTE_ON_48
NOTE_ON_60
TIME_SHIFT_64ND_5
NOTE_OFF_81
NOTE_ON_79
TIME_SHIFT_64ND_5
NOTE_OFF_79
NOTE_ON_77
TIME_SHIFT_64ND_5
NOTE_OFF_77
NOTE_OFF_48
NOTE_OFF_60
NOTE_ON_76
NOTE_ON_49
NOTE_ON_61
TIME_SHIFT_64ND_7
NOTE_OFF_76
NOTE_ON_77
TIME_SHIFT_64ND_7
NOTE_OFF_77
NOTE_OFF_49
NOTE_OFF_61
NOTE_ON_74
NOTE_ON_50
NOTE_ON_62
TIME_SHIFT_64ND_15
NOTE_OFF_74
NOTE_OFF_69
TIME_SHIFT_64ND_1
NOTE_OFF_41
NOTE_OFF_29
NOTE_ON_81
NOTE_ON_69
TIME_SHIFT_64ND_14
NOTE_ON_41
NOTE_ON_29
TIME_SHIFT_64ND_15
NOTE_OFF_81
NOTE_OFF_69
NOTE_OFF_41
NOTE_OFF_50
NOTE_OFF_62
NOTE_OFF_29
NOTE_ON_74
NOTE_ON_67
NOTE_ON_46
NOTE_ON_34
TIME_SHIFT_64ND_11
NOTE_OFF_74
NOTE_ON_76
TIME_SHIFT_64ND_4
NOTE_OFF_76
NOTE_ON_79
NOTE_ON_52
NOTE_ON_64
TIME_SHIFT_64ND_5
NOTE_OFF_79
NOTE_ON_77
TIME_SHIFT_64ND_5
NOTE_OFF_77
NOTE_ON_76
TIME_SHIFT_64ND_5
NOTE_OFF_76
NOTE_OFF_67
NOTE_OFF_46
NOTE_OFF_34
NOTE_ON_74
NOTE_ON_67
NOTE_ON_46
NOTE_ON_34
TIME_SHIFT_64ND_7
NOTE_OFF_74
NOTE_ON_76
TIME_SHIFT_64ND_8
NOTE_OFF_76
NOTE_OFF_67
NOTE_OFF_46
NOTE_OFF_52
NOTE_OFF_64
NOTE_OFF_34
NOTE_ON_74
NOTE_ON_76
NOTE_ON_67
NOTE_ON_45
NOTE_ON_33
TIME_SHIFT_64ND_7
NOTE_OFF_74
NOTE_ON_73
TIME_SHIFT_64ND_7
NOTE_OFF_73
NOTE_ON_71
NOTE_ON_57
TIME_SHIFT_64ND_7
NOTE_OFF_71
NOTE_ON_73
TIME_SHIFT_64ND_7
NOTE_OFF_73
NOTE_OFF_76
NOTE_OFF_67
NOTE_OFF_45
NOTE_OFF_33
NOTE_ON_71
NOTE_ON_45
NOTE_ON_33
TIME_SHIFT_64ND_7
NOTE_OFF_71
NOTE_ON_69
TIME_SHIFT_64ND_8
NOTE_OFF_69
NOTE_OFF_45
NOTE_OFF_33
NOTE_OFF_57
NOTE_ON_76
NOTE_ON_69
NOTE_ON_29
NOTE_ON_41
TIME_SHIFT_64ND_11
NOTE_OFF_76
NOTE_ON_77
TIME_SHIFT_64ND_4
NOTE_OFF_77
NOTE_ON_81
NOTE_ON_60
NOTE_ON_48
TIME_SHIFT_64ND_5
NOTE_OFF_81
NOTE_ON_79
TIME_SHIFT_64ND_5
NOTE_OFF_79
NOTE_ON_77
TIME_SHIFT_64ND_5
NOTE_OFF_77
NOTE_OFF_60
NOTE_OFF_48
NOTE_ON_76
NOTE_ON_49
NOTE_ON_61
TIME_SHIFT_64ND_7
NOTE_OFF_76
NOTE_ON_77
TIME_SHIFT_64ND_7
NOTE_OFF_77
NOTE_OFF_49
NOTE_OFF_61
NOTE_ON_74
NOTE_ON_50
NOTE_ON_62
TIME_SHIFT_64ND_14
NOTE_OFF_74
TIME_SHIFT_64ND_1
NOTE_OFF_69
NOTE_ON_81
NOTE_ON_69
TIME_SHIFT_64ND_14
NOTE_OFF_50
NOTE_OFF_62
NOTE_ON_53
NOTE_ON_65
TIME_SHIFT_64ND_15
NOTE_OFF_81
NOTE_OFF_69
NOTE_OFF_53
NOTE_OFF_29
NOTE_OFF_41
NOTE_OFF_65
NOTE_ON_74
NOTE_ON_67
NOTE_ON_65
NOTE_ON_46
TIME_SHIFT_64ND_11
NOTE_OFF_74
NOTE_ON_76
TIME_SHIFT_64ND_4
NOTE_OFF_76
NOTE_OFF_46
NOTE_ON_79
NOTE_ON_58
TIME_SHIFT_64ND_5
NOTE_OFF_79
NOTE_ON_77
TIME_SHIFT_64ND_5
NOTE_OFF_77
NOTE_ON_76
TIME_SHIFT_64ND_5
NOTE_OFF_76
NOTE_ON_74
TIME_SHIFT_64ND_7
NOTE_OFF_74
NOTE_ON_76
TIME_SHIFT_64ND_7
NOTE_OFF_76
NOTE_OFF_67
NOTE_OFF_65
NOTE_OFF_58
NOTE_ON_72
NOTE_ON_65
NOTE_ON_69
NOTE_ON_60
TIME_SHIFT_64ND_7
NOTE_OFF_72
NOTE_ON_74
TIME_SHIFT_64ND_7
NOTE_OFF_74
NOTE_OFF_60
NOTE_ON_72
NOTE_ON_48
TIME_SHIFT_64ND_7
NOTE_OFF_72
NOTE_ON_74
TIME_SHIFT_64ND_7
NOTE_OFF_74
NOTE_ON_76
TIME_SHIFT_64ND_7
NOTE_OFF_76
NOTE_ON_77
TIME_SHIFT_64ND_8
NOTE_OFF_77
NOTE_OFF_65
NOTE_OFF_69
NOTE_OFF_48
NOTE_ON_70
NOTE_ON_64
NOTE_ON_55
TIME_SHIFT_64ND_11
NOTE_OFF_70
NOTE_ON_72
TIME_SHIFT_64ND_4
NOTE_OFF_72
NOTE_OFF_55
NOTE_ON_76
NOTE_ON_48
TIME_SHIFT_64ND_5
NOTE_OFF_76
NOTE_ON_74
TIME_SHIFT_64ND_5
NOTE_OFF_74
NOTE_ON_72
TIME_SHIFT_64ND_5
NOTE_OFF_72
NOTE_ON_70
TIME_SHIFT_64ND_8
NOTE_OFF_70
NOTE_ON_72
TIME_SHIFT_64ND_8
NOTE_OFF_72
NOTE_OFF_64
NOTE_OFF_48
NOTE_ON_69
NOTE_ON_63
NOTE_ON_54
TIME_SHIFT_64ND_15
NOTE_OFF_54
NOTE_ON_48
TIME_SHIFT_64ND_31
NOTE_OFF_69
NOTE_OFF_63
NOTE_OFF_48
NOTE_ON_62
NOTE_ON_69
NOTE_ON_46
TIME_SHIFT_64ND_11
NOTE_OFF_62
NOTE_ON_64
TIME_SHIFT_64ND_4
NOTE_OFF_64
NOTE_OFF_69
NOTE_OFF_46
NOTE_ON_67
NOTE_ON_58
TIME_SHIFT_64ND_5
NOTE_ON_65
TIME_SHIFT_64ND_5
NOTE_OFF_65
NOTE_ON_64
TIME_SHIFT_64ND_5
NOTE_OFF_64
NOTE_OFF_67
NOTE_ON_74
NOTE_ON_62
TIME_SHIFT_64ND_7
NOTE_OFF_62
NOTE_ON_64
TIME_SHIFT_64ND_7
NOTE_OFF_64
NOTE_OFF_58
NOTE_ON_65
NOTE_ON_57
NOTE_ON_60
NOTE_ON_57
TIME_SHIFT_64ND_7
NOTE_OFF_60
NOTE_ON_62
TIME_SHIFT_64ND_7
NOTE_OFF_74
NOTE_OFF_62
NOTE_ON_65
NOTE_ON_60
TIME_SHIFT_64ND_7
NOTE_OFF_60
NOTE_ON_62
TIME_SHIFT_64ND_7
NOTE_OFF_65
NOTE_OFF_65
NOTE_OFF_62
NOTE_ON_72
NOTE_ON_64
TIME_SHIFT_64ND_7
NOTE_OFF_64
NOTE_ON_65
TIME_SHIFT_64ND_8
NOTE_OFF_57
NOTE_OFF_65
NOTE_OFF_57
NOTE_ON_58
NOTE_ON_55
TIME_SHIFT_64ND_11
NOTE_OFF_58
NOTE_ON_60
TIME_SHIFT_64ND_4
NOTE_OFF_72
NOTE_OFF_60
NOTE_ON_70
NOTE_ON_64
TIME_SHIFT_64ND_5
NOTE_OFF_64
NOTE_ON_62
TIME_SHIFT_64ND_5
NOTE_OFF_62
NOTE_ON_60
TIME_SHIFT_64ND_5
NOTE_OFF_70
NOTE_OFF_60
NOTE_OFF_55
NOTE_ON_72
NOTE_ON_64
NOTE_ON_58
NOTE_ON_48
TIME_SHIFT_64ND_8
NOTE_OFF_58
NOTE_ON_60
TIME_SHIFT_64ND_8
NOTE_OFF_72
NOTE_OFF_64
NOTE_OFF_60
NOTE_OFF_48
NOTE_ON_72
NOTE_ON_65
NOTE_ON_58
NOTE_ON_53
TIME_SHIFT_64ND_8
NOTE_OFF_58
NOTE_ON_57
TIME_SHIFT_64ND_8
NOTE_OFF_57
NOTE_ON_55
TIME_SHIFT_64ND_8
NOTE_OFF_55
NOTE_ON_57
TIME_SHIFT_64ND_8
NOTE_OFF_57
NOTE_OFF_53
NOTE_ON_55
TIME_SHIFT_64ND_8
NOTE_OFF_55
NOTE_ON_53
TIME_SHIFT_64ND_8
NOTE_OFF_72
NOTE_OFF_65
NOTE_OFF_53
NOTE_ON_79
NOTE_ON_75
TIME_SHIFT_64ND_11
NOTE_OFF_79
NOTE_ON_81
TIME_SHIFT_64ND_4
NOTE_OFF_81
NOTE_ON_84
NOTE_ON_65
TIME_SHIFT_64ND_5
NOTE_OFF_84
NOTE_ON_82
TIME_SHIFT_64ND_5
NOTE_OFF_82
NOTE_ON_81
TIME_SHIFT_64ND_5
NOTE_OFF_81
NOTE_ON_79
TIME_SHIFT_64ND_7
NOTE_OFF_79
NOTE_ON_81
TIME_SHIFT_64ND_7
NOTE_OFF_81
NOTE_OFF_75
NOTE_ON_77
NOTE_ON_75
TIME_SHIFT_64ND_7
NOTE_OFF_77
NOTE_ON_79
TIME_SHIFT_64ND_7
NOTE_OFF_79
NOTE_OFF_75
NOTE_ON_77
NOTE_ON_74
TIME_SHIFT_64ND_7
NOTE_OFF_77
NOTE_ON_79
TIME_SHIFT_64ND_7
NOTE_OFF_79
NOTE_OFF_65
NOTE_ON_81
NOTE_ON_65
TIME_SHIFT_64ND_7
NOTE_OFF_81
NOTE_ON_82
TIME_SHIFT_64ND_8
NOTE_OFF_82
NOTE_OFF_74
NOTE_ON_74
NOTE_ON_70
TIME_SHIFT_64ND_11
NOTE_OFF_74
NOTE_ON_76
TIME_SHIFT_64ND_4
NOTE_OFF_76
NOTE_OFF_65
NOTE_ON_79
NOTE_ON_65
TIME_SHIFT_64ND_5
NOTE_OFF_79
NOTE_ON_77
TIME_SHIFT_64ND_5
NOTE_OFF_77
NOTE_ON_76
TIME_SHIFT_64ND_5
NOTE_OFF_76
NOTE_ON_74
TIME_SHIFT_64ND_8
NOTE_OFF_74
NOTE_ON_76
TIME_SHIFT_64ND_8
NOTE_OFF_76
NOTE_OFF_70
NOTE_ON_77
NOTE_ON_72
NOTE_ON_70
TIME_SHIFT_64ND_7
NOTE_OFF_70
NOTE_ON_69
TIME_SHIFT_64ND_8
NOTE_OFF_69
NOTE_ON_67
TIME_SHIFT_64ND_7
NOTE_OFF_67
NOTE_ON_69
TIME_SHIFT_64ND_8
NOTE_OFF_69
NOTE_OFF_65
NOTE_ON_67
TIME_SHIFT_64ND_8
NOTE_OFF_67
NOTE_ON_65
TIME_SHIFT_64ND_8
NOTE_OFF_77
NOTE_OFF_72
NOTE_OFF_65
NOTE_ON_77
NOTE_ON_70
NOTE_ON_65
NOTE_ON_63
TIME_SHIFT_64ND_7
NOTE_OFF_63
NOTE_ON_62
TIME_SHIFT_64ND_8
NOTE_OFF_62
NOTE_ON_60
TIME_SHIFT_64ND_7
NOTE_OFF_60
NOTE_ON_62
TIME_SHIFT_64ND_8
NOTE_OFF_62
NOTE_ON_60
TIME_SHIFT_64ND_8
NOTE_OFF_60
NOTE_ON_58
TIME_SHIFT_64ND_8
NOTE_OFF_77
NOTE_OFF_70
NOTE_OFF_65
NOTE_OFF_58
NOTE_ON_77
NOTE_ON_72
NOTE_ON_84
NOTE_ON_58
TIME_SHIFT_64ND_7
NOTE_OFF_58
NOTE_ON_57
TIME_SHIFT_64ND_8
NOTE_OFF_57
NOTE_ON_55
TIME_SHIFT_64ND_7
NOTE_OFF_55
NOTE_ON_57
TIME_SHIFT_64ND_8
NOTE_OFF_57
NOTE_ON_55
TIME_SHIFT_64ND_8
NOTE_OFF_55
NOTE_ON_53
TIME_SHIFT_64ND_8
NOTE_OFF_77
NOTE_OFF_72
NOTE_OFF_84
NOTE_OFF_53
NOTE_ON_77
NOTE_ON_82
NOTE_ON_89
NOTE_ON_51
TIME_SHIFT_64ND_7
NOTE_OFF_51
NOTE_ON_50
TIME_SHIFT_64ND_8
NOTE_OFF_50
NOTE_ON_48
TIME_SHIFT_64ND_7
NOTE_OFF_48
NOTE_ON_50
TIME_SHIFT_64ND_8
NOTE_OFF_50
NOTE_ON_48
TIME_SHIFT_64ND_8
NOTE_OFF_48
NOTE_ON_46
TIME_SHIFT_64ND_8
NOTE_OFF_77
NOTE_OFF_82
NOTE_OFF_89
NOTE_OFF_46
NOTE_ON_84
NOTE_ON_89
NOTE_ON_96
NOTE_ON_46
TIME_SHIFT_64ND_7
NOTE_OFF_46
NOTE_ON_45
TIME_SHIFT_64ND_8
NOTE_OFF_45
NOTE_ON_43
TIME_SHIFT_64ND_7
NOTE_OFF_43
NOTE_ON_45
TIME_SHIFT_64ND_8
NOTE_OFF_45
NOTE_ON_43
TIME_SHIFT_64ND_8
NOTE_OFF_43
NOTE_ON_41
TIME_SHIFT_64ND_8
NOTE_OFF_41
NOTE_ON_41
TIME_SHIFT_64ND_17
NOTE_OFF_84
NOTE_OFF_89
NOTE_OFF_96
NOTE_OFF_41
NOTE_ON_29
TIME_SHIFT_64ND_9
NOTE_OFF_29
TIME_SHIFT_64ND_9
NOTE_ON_29
TIME_SHIFT_64ND_9
NOTE_OFF_29
TIME_SHIFT_64ND_9
NOTE_ON_29
TIME_SHIFT_64ND_9
NOTE_OFF_29
