NOTE_ON_74
NOTE_ON_67
TIME_SHIFT_64ND_4
NOTE_OFF_67
NOTE_ON_71
TIME_SHIFT_64ND_4
NOTE_OFF_74
NOTE_OFF_71
NOTE_ON_79
NOTE_ON_67
TIME_SHIFT_64ND_4
NOTE_OFF_67
NOTE_ON_71
TIME_SHIFT_64ND_4
NOTE_OFF_79
NOTE_OFF_71
NOTE_ON_83
NOTE_ON_67
TIME_SHIFT_64ND_4
NOTE_OFF_67
NOTE_ON_71
TIME_SHIFT_64ND_4
NOTE_OFF_83
NOTE_OFF_71
NOTE_ON_86
NOTE_ON_67
TIME_SHIFT_64ND_4
NOTE_OFF_67
NOTE_ON_71
TIME_SHIFT_64ND_4
NOTE_OFF_71
NOTE_ON_67
TIME_SHIFT_64ND_4
NOTE_OFF_67
NOTE_ON_71
TIME_SHIFT_64ND_4
NOTE_OFF_86
NOTE_OFF_71
NOTE_ON_74
NOTE_ON_67
TIME_SHIFT_64ND_4
NOTE_OFF_67
NOTE_ON_71
TIME_SHIFT_64ND_4
NOTE_OFF_74
NOTE_OFF_71
NOTE_ON_76
NOTE_ON_67
TIME_SHIFT_64ND_4
NOTE_OFF_67
NOTE_ON_72
TIME_SHIFT_64ND_4
NOTE_OFF_76
NOTE_OFF_72
NOTE_ON_84
NOTE_ON_67
TIME_SHIFT_64ND_4
NOTE_OFF_67
NOTE_ON_72
TIME_SHIFT_64ND_4
NOTE_OFF_84
NOTE_OFF_72
NOTE_ON_76
NOTE_ON_67
TIME_SHIFT_64ND_5
NOTE_OFF_67
NOTE_ON_72
TIME_SHIFT_64ND_5
NOTE_OFF_76
NOTE_OFF_72
NOTE_ON_74
NOTE_ON_67
TIME_SHIFT_64ND_5
NOTE_OFF_67
NOTE_ON_71
TIME_SHIFT_64ND_4
NOTE_OFF_74
NOTE_OFF_71
NOTE_ON_67
TIME_SHIFT_64ND_4
NOTE_OFF_67
NOTE_ON_71
TIME_SHIFT_64ND_4
NOTE_OFF_71
NOTE_ON_67
TIME_SHIFT_64ND_4
NOTE_OFF_67
NOTE_ON_71
TIME_SHIFT_64ND_4
NOTE_OFF_71
NOTE_ON_72
NOTE_ON_62
TIME_SHIFT_64ND_4
NOTE_OFF_62
NOTE_ON_69
TIME_SHIFT_64ND_4
NOTE_OFF_72
NOTE_OFF_69
NOTE_ON_81
NOTE_ON_62
TIME_SHIFT_64ND_4
NOTE_OFF_62
NOTE_ON_69
TIME_SHIFT_64ND_4
NOTE_OFF_81
NOTE_OFF_69
NOTE_ON_72
NOTE_ON_62
TIME_SHIFT_64ND_4
NOTE_OFF_62
NOTE_ON_69
TIME_SHIFT_64ND_5
NOTE_OFF_72
NOTE_OFF_69
NOTE_ON_71
NOTE_ON_67
TIME_SHIFT_64ND_4
NOTE_OFF_71
NOTE_OFF_67
NOTE_ON_79
TIME_SHIFT_64ND_4
NOTE_OFF_79
NOTE_ON_72
NOTE_ON_69
TIME_SHIFT_64ND_4
NOTE_OFF_72
NOTE_OFF_69
NOTE_ON_79
TIME_SHIFT_64ND_4
NOTE_OFF_79
NOTE_ON_74
NOTE_ON_71
TIME_SHIFT_64ND_4
NOTE_OFF_74
NOTE_OFF_71
NOTE_ON_79
TIME_SHIFT_64ND_5
NOTE_OFF_79
NOTE_ON_72
NOTE_ON_60
TIME_SHIFT_64ND_4
NOTE_OFF_72
NOTE_ON_76
TIME_SHIFT_64ND_4
NOTE_OFF_76
NOTE_ON_74
TIME_SHIFT_64ND_4
NOTE_OFF_74
NOTE_ON_72
TIME_SHIFT_64ND_4
NOTE_OFF_72
NOTE_OFF_60
NOTE_ON_71
NOTE_ON_62
TIME_SHIFT_64ND_5
NOTE_OFF_71
NOTE_ON_69
TIME_SHIFT_64ND_5
NOTE_OFF_69
NOTE_OFF_62
NOTE_ON_67
NOTE_ON_55
TIME_SHIFT_64ND_10
NOTE_OFF_67
NOTE_OFF_55
NOTE_ON_50
TIME_SHIFT_64ND_5
NOTE_OFF_50
TIME_SHIFT_64ND_5
NOTE_ON_43
TIME_SHIFT_64ND_5
NOTE_OFF_43
TIME_SHIFT_64ND_5
NOTE_ON_74
NOTE_ON_67
TIME_SHIFT_64ND_4
NOTE_OFF_67
NOTE_ON_71
TIME_SHIFT_64ND_4
NOTE_OFF_74
NOTE_OFF_71
NOTE_ON_79
NOTE_ON_67
TIME_SHIFT_64ND_4
NOTE_OFF_67
NOTE_ON_71
TIME_SHIFT_64ND_4
NOTE_OFF_79
NOTE_OFF_71
NOTE_ON_83
NOTE_ON_67
TIME_SHIFT_64ND_4
NOTE_OFF_67
NOTE_ON_71
TIME_SHIFT_64ND_4
NOTE_OFF_83
NOTE_OFF_71
NOTE_ON_86
NOTE_ON_67
TIME_SHIFT_64ND_4
NOTE_OFF_67
NOTE_ON_71
TIME_SHIFT_64ND_4
NOTE_OFF_71
NOTE_ON_67
TIME_SHIFT_64ND_4
NOTE_OFF_67
NOTE_ON_71
TIME_SHIFT_64ND_4
NOTE_OFF_86
NOTE_OFF_71
NOTE_ON_74
NOTE_ON_67
TIME_SHIFT_64ND_4
NOTE_OFF_67
NOTE_ON_71
TIME_SHIFT_64ND_4
NOTE_OFF_74
NOTE_OFF_71
NOTE_ON_76
NOTE_ON_67
TIME_SHIFT_64ND_4
NOTE_OFF_67
NOTE_ON_72
TIME_SHIFT_64ND_4
NOTE_OFF_76
NOTE_OFF_72
NOTE_ON_84
NOTE_ON_67
TIME_SHIFT_64ND_4
NOTE_OFF_67
NOTE_ON_72
TIME_SHIFT_64ND_4
NOTE_OFF_84
NOTE_OFF_72
NOTE_ON_76
NOTE_ON_67
TIME_SHIFT_64ND_5
NOTE_OFF_67
NOTE_ON_72
TIME_SHIFT_64ND_5
NOTE_OFF_76
NOTE_OFF_72
NOTE_ON_74
NOTE_ON_67
TIME_SHIFT_64ND_5
NOTE_OFF_67
NOTE_ON_71
TIME_SHIFT_64ND_4
NOTE_OFF_74
NOTE_OFF_71
NOTE_ON_67
TIME_SHIFT_64ND_4
NOTE_OFF_67
NOTE_ON_71
TIME_SHIFT_64ND_4
NOTE_OFF_71
NOTE_ON_67
TIME_SHIFT_64ND_4
NOTE_OFF_67
NOTE_ON_71
TIME_SHIFT_64ND_4
NOTE_OFF_71
NOTE_ON_72
NOTE_ON_62
TIME_SHIFT_64ND_4
NOTE_OFF_62
NOTE_ON_69
TIME_SHIFT_64ND_4
NOTE_OFF_72
NOTE_OFF_69
NOTE_ON_81
NOTE_ON_62
TIME_SHIFT_64ND_4
NOTE_OFF_62
NOTE_ON_69
TIME_SHIFT_64ND_4
NOTE_OFF_81
NOTE_OFF_69
NOTE_ON_72
NOTE_ON_62
TIME_SHIFT_64ND_4
NOTE_OFF_62
NOTE_ON_69
TIME_SHIFT_64ND_5
NOTE_OFF_72
NOTE_OFF_69
NOTE_ON_71
NOTE_ON_67
TIME_SHIFT_64ND_4
NOTE_OFF_71
NOTE_OFF_67
NOTE_ON_79
TIME_SHIFT_64ND_4
NOTE_OFF_79
NOTE_ON_72
NOTE_ON_69
TIME_SHIFT_64ND_4
NOTE_OFF_72
NOTE_OFF_69
NOTE_ON_79
TIME_SHIFT_64ND_4
NOTE_OFF_79
NOTE_ON_74
NOTE_ON_71
TIME_SHIFT_64ND_4
NOTE_OFF_74
NOTE_OFF_71
NOTE_ON_79
TIME_SHIFT_64ND_5
NOTE_OFF_79
NOTE_ON_72
NOTE_ON_60
TIME_SHIFT_64ND_4
NOTE_OFF_72
NOTE_ON_76
TIME_SHIFT_64ND_4
NOTE_OFF_76
NOTE_ON_74
TIME_SHIFT_64ND_4
NOTE_OFF_74
NOTE_ON_72
TIME_SHIFT_64ND_4
NOTE_OFF_72
NOTE_OFF_60
NOTE_ON_71
NOTE_ON_62
TIME_SHIFT_64ND_5
NOTE_OFF_71
NOTE_ON_69
TIME_SHIFT_64ND_5
NOTE_OFF_69
NOTE_OFF_62
NOTE_ON_67
NOTE_ON_55
TIME_SHIFT_64ND_10
NOTE_OFF_67
NOTE_OFF_55
NOTE_ON_50
TIME_SHIFT_64ND_5
NOTE_OFF_50
TIME_SHIFT_64ND_5
NOTE_ON_43
TIME_SHIFT_64ND_5
NOTE_OFF_43
TIME_SHIFT_64ND_5
NOTE_ON_66
NOTE_ON_50
TIME_SHIFT_64ND_4
NOTE_OFF_66
NOTE_ON_62
TIME_SHIFT_64ND_4
NOTE_OFF_62
NOTE_ON_66
TIME_SHIFT_64ND_4
NOTE_OFF_66
NOTE_ON_62
TIME_SHIFT_64ND_4
NOTE_OFF_62
NOTE_ON_66
NOTE_ON_60
TIME_SHIFT_64ND_4
NOTE_OFF_66
NOTE_ON_62
TIME_SHIFT_64ND_5
NOTE_OFF_62
NOTE_OFF_60
NOTE_OFF_50
NOTE_ON_67
NOTE_ON_59
TIME_SHIFT_64ND_4
NOTE_OFF_67
NOTE_ON_62
TIME_SHIFT_64ND_4
NOTE_OFF_62
NOTE_OFF_59
NOTE_ON_69
NOTE_ON_54
TIME_SHIFT_64ND_4
NOTE_OFF_69
NOTE_ON_62
TIME_SHIFT_64ND_4
NOTE_OFF_62
NOTE_OFF_54
NOTE_ON_71
NOTE_ON_55
TIME_SHIFT_64ND_4
NOTE_OFF_71
NOTE_ON_62
TIME_SHIFT_64ND_4
NOTE_OFF_62
NOTE_OFF_55
NOTE_ON_72
NOTE_ON_57
TIME_SHIFT_64ND_4
NOTE_OFF_72
NOTE_ON_62
TIME_SHIFT_64ND_4
NOTE_OFF_62
NOTE_OFF_57
NOTE_ON_72
NOTE_ON_54
TIME_SHIFT_64ND_4
NOTE_OFF_72
NOTE_ON_62
TIME_SHIFT_64ND_4
NOTE_OFF_62
NOTE_OFF_54
NOTE_ON_71
NOTE_ON_55
TIME_SHIFT_64ND_4
NOTE_OFF_71
NOTE_ON_62
TIME_SHIFT_64ND_4
NOTE_OFF_62
NOTE_OFF_55
NOTE_ON_69
NOTE_ON_54
NOTE_ON_50
TIME_SHIFT_64ND_4
NOTE_OFF_69
NOTE_ON_74
TIME_SHIFT_64ND_4
NOTE_OFF_74
NOTE_ON_66
TIME_SHIFT_64ND_4
NOTE_OFF_66
NOTE_ON_69
TIME_SHIFT_64ND_5
NOTE_OFF_69
NOTE_OFF_54
NOTE_OFF_50
NOTE_ON_62
TIME_SHIFT_64ND_10
NOTE_OFF_62
NOTE_ON_66
NOTE_ON_50
NOTE_ON_62
TIME_SHIFT_64ND_4
NOTE_OFF_66
NOTE_ON_74
TIME_SHIFT_64ND_4
NOTE_OFF_74
NOTE_ON_66
TIME_SHIFT_64ND_4
NOTE_OFF_66
NOTE_ON_74
TIME_SHIFT_64ND_4
NOTE_OFF_74
NOTE_OFF_50
NOTE_OFF_62
NOTE_ON_66
NOTE_ON_60
NOTE_ON_48
TIME_SHIFT_64ND_4
NOTE_OFF_66
NOTE_ON_74
TIME_SHIFT_64ND_5
NOTE_OFF_74
NOTE_OFF_60
NOTE_OFF_48
NOTE_ON_67
NOTE_ON_59
NOTE_ON_47
TIME_SHIFT_64ND_4
NOTE_OFF_67
NOTE_ON_74
TIME_SHIFT_64ND_4
NOTE_OFF_74
NOTE_OFF_59
NOTE_OFF_47
NOTE_ON_69
NOTE_ON_57
NOTE_ON_45
TIME_SHIFT_64ND_4
NOTE_OFF_69
NOTE_ON_74
TIME_SHIFT_64ND_4
NOTE_OFF_74
NOTE_OFF_57
NOTE_OFF_45
NOTE_ON_71
NOTE_ON_55
NOTE_ON_43
TIME_SHIFT_64ND_4
NOTE_OFF_71
NOTE_ON_74
TIME_SHIFT_64ND_4
NOTE_OFF_74
NOTE_OFF_55
NOTE_OFF_43
NOTE_ON_72
NOTE_ON_54
NOTE_ON_42
TIME_SHIFT_64ND_4
NOTE_OFF_72
NOTE_ON_74
TIME_SHIFT_64ND_4
NOTE_OFF_74
NOTE_ON_72
TIME_SHIFT_64ND_4
NOTE_OFF_72
NOTE_ON_74
TIME_SHIFT_64ND_4
NOTE_OFF_74
NOTE_OFF_54
NOTE_OFF_42
NOTE_ON_71
NOTE_ON_55
NOTE_ON_43
TIME_SHIFT_64ND_4
NOTE_OFF_71
NOTE_ON_74
TIME_SHIFT_64ND_4
NOTE_OFF_74
NOTE_OFF_55
NOTE_OFF_43
NOTE_ON_69
NOTE_ON_50
NOTE_ON_38
TIME_SHIFT_64ND_4
NOTE_OFF_69
NOTE_ON_74
TIME_SHIFT_64ND_4
NOTE_OFF_74
NOTE_ON_66
TIME_SHIFT_64ND_4
NOTE_OFF_66
NOTE_ON_69
TIME_SHIFT_64ND_5
NOTE_OFF_69
NOTE_OFF_50
NOTE_OFF_38
NOTE_ON_62
TIME_SHIFT_64ND_10
NOTE_OFF_62
NOTE_ON_74
NOTE_ON_67
TIME_SHIFT_64ND_4
NOTE_OFF_67
NOTE_ON_71
TIME_SHIFT_64ND_4
NOTE_OFF_74
NOTE_OFF_71
NOTE_ON_79
NOTE_ON_67
TIME_SHIFT_64ND_4
NOTE_OFF_67
NOTE_ON_71
TIME_SHIFT_64ND_4
NOTE_OFF_79
NOTE_OFF_71
NOTE_ON_83
NOTE_ON_67
TIME_SHIFT_64ND_4
NOTE_OFF_67
NOTE_ON_71
TIME_SHIFT_64ND_4
NOTE_OFF_83
NOTE_OFF_71
NOTE_ON_86
NOTE_ON_67
TIME_SHIFT_64ND_4
NOTE_OFF_67
NOTE_ON_71
TIME_SHIFT_64ND_4
NOTE_OFF_71
NOTE_ON_67
TIME_SHIFT_64ND_4
NOTE_OFF_67
NOTE_ON_71
TIME_SHIFT_64ND_4
NOTE_OFF_86
NOTE_OFF_71
NOTE_ON_74
NOTE_ON_67
TIME_SHIFT_64ND_4
NOTE_OFF_67
NOTE_ON_71
TIME_SHIFT_64ND_4
NOTE_OFF_74
NOTE_OFF_71
NOTE_ON_76
NOTE_ON_67
TIME_SHIFT_64ND_4
NOTE_OFF_67
NOTE_ON_72
TIME_SHIFT_64ND_4
NOTE_OFF_76
NOTE_OFF_72
NOTE_ON_84
NOTE_ON_67
TIME_SHIFT_64ND_4
NOTE_OFF_67
NOTE_ON_72
TIME_SHIFT_64ND_4
NOTE_OFF_84
NOTE_OFF_72
NOTE_ON_76
NOTE_ON_67
TIME_SHIFT_64ND_5
NOTE_OFF_67
NOTE_ON_72
TIME_SHIFT_64ND_5
NOTE_OFF_76
NOTE_OFF_72
NOTE_ON_74
NOTE_ON_67
TIME_SHIFT_64ND_5
NOTE_OFF_67
NOTE_ON_71
TIME_SHIFT_64ND_4
NOTE_OFF_74
NOTE_OFF_71
NOTE_ON_67
TIME_SHIFT_64ND_4
NOTE_OFF_67
NOTE_ON_71
TIME_SHIFT_64ND_4
NOTE_OFF_71
NOTE_ON_67
TIME_SHIFT_64ND_4
NOTE_OFF_67
NOTE_ON_71
TIME_SHIFT_64ND_4
NOTE_OFF_71
NOTE_ON_72
NOTE_ON_62
TIME_SHIFT_64ND_4
NOTE_OFF_62
NOTE_ON_69
TIME_SHIFT_64ND_4
NOTE_OFF_72
NOTE_OFF_69
NOTE_ON_81
NOTE_ON_62
TIME_SHIFT_64ND_4
NOTE_OFF_62
NOTE_ON_69
TIME_SHIFT_64ND_4
NOTE_OFF_81
NOTE_OFF_69
NOTE_ON_72
NOTE_ON_62
TIME_SHIFT_64ND_4
NOTE_OFF_62
NOTE_ON_69
TIME_SHIFT_64ND_5
NOTE_OFF_72
NOTE_OFF_69
NOTE_ON_71
NOTE_ON_67
TIME_SHIFT_64ND_4
NOTE_OFF_71
NOTE_OFF_67
NOTE_ON_79
TIME_SHIFT_64ND_4
NOTE_OFF_79
NOTE_ON_72
NOTE_ON_69
TIME_SHIFT_64ND_4
NOTE_OFF_72
NOTE_OFF_69
NOTE_ON_79
TIME_SHIFT_64ND_4
NOTE_OFF_79
NOTE_ON_74
NOTE_ON_71
TIME_SHIFT_64ND_4
NOTE_OFF_74
NOTE_OFF_71
NOTE_ON_79
TIME_SHIFT_64ND_5
NOTE_OFF_79
NOTE_ON_72
NOTE_ON_60
TIME_SHIFT_64ND_4
NOTE_OFF_72
NOTE_ON_76
TIME_SHIFT_64ND_4
NOTE_OFF_76
NOTE_ON_74
TIME_SHIFT_64ND_4
NOTE_OFF_74
NOTE_ON_72
TIME_SHIFT_64ND_4
NOTE_OFF_72
NOTE_OFF_60
NOTE_ON_71
NOTE_ON_62
TIME_SHIFT_64ND_5
NOTE_OFF_71
NOTE_ON_69
TIME_SHIFT_64ND_5
NOTE_OFF_69
NOTE_OFF_62
NOTE_ON_67
NOTE_ON_55
TIME_SHIFT_64ND_10
NOTE_OFF_67
NOTE_OFF_55
NOTE_ON_50
TIME_SHIFT_64ND_5
NOTE_OFF_50
TIME_SHIFT_64ND_5
NOTE_ON_43
TIME_SHIFT_64ND_5
NOTE_OFF_43
TIME_SHIFT_64ND_5
NOTE_ON_66
NOTE_ON_50
TIME_SHIFT_64ND_4
NOTE_OFF_66
NOTE_ON_62
TIME_SHIFT_64ND_4
NOTE_OFF_62
NOTE_ON_66
TIME_SHIFT_64ND_4
NOTE_OFF_66
NOTE_ON_62
TIME_SHIFT_64ND_4
NOTE_OFF_62
NOTE_ON_66
NOTE_ON_60
TIME_SHIFT_64ND_4
NOTE_OFF_66
NOTE_ON_62
TIME_SHIFT_64ND_5
NOTE_OFF_62
NOTE_OFF_60
NOTE_OFF_50
NOTE_ON_67
NOTE_ON_59
TIME_SHIFT_64ND_4
NOTE_OFF_67
NOTE_ON_62
TIME_SHIFT_64ND_4
NOTE_OFF_62
NOTE_OFF_59
NOTE_ON_69
NOTE_ON_54
TIME_SHIFT_64ND_4
NOTE_OFF_69
NOTE_ON_62
TIME_SHIFT_64ND_4
NOTE_OFF_62
NOTE_OFF_54
NOTE_ON_71
NOTE_ON_55
TIME_SHIFT_64ND_4
NOTE_OFF_71
NOTE_ON_62
TIME_SHIFT_64ND_4
NOTE_OFF_62
NOTE_OFF_55
NOTE_ON_72
NOTE_ON_57
TIME_SHIFT_64ND_4
NOTE_OFF_72
NOTE_ON_62
TIME_SHIFT_64ND_4
NOTE_OFF_62
NOTE_OFF_57
NOTE_ON_72
NOTE_ON_54
TIME_SHIFT_64ND_4
NOTE_OFF_72
NOTE_ON_62
TIME_SHIFT_64ND_4
NOTE_OFF_62
NOTE_OFF_54
NOTE_ON_71
NOTE_ON_55
TIME_SHIFT_64ND_4
NOTE_OFF_71
NOTE_ON_62
TIME_SHIFT_64ND_4
NOTE_OFF_62
NOTE_OFF_55
NOTE_ON_69
NOTE_ON_54
NOTE_ON_50
TIME_SHIFT_64ND_4
NOTE_OFF_69
NOTE_ON_74
TIME_SHIFT_64ND_4
NOTE_OFF_74
NOTE_ON_66
TIME_SHIFT_64ND_4
NOTE_OFF_66
NOTE_ON_69
TIME_SHIFT_64ND_5
NOTE_OFF_69
NOTE_OFF_54
NOTE_OFF_50
NOTE_ON_62
TIME_SHIFT_64ND_10
NOTE_OFF_62
NOTE_ON_66
NOTE_ON_50
NOTE_ON_62
TIME_SHIFT_64ND_4
NOTE_OFF_66
NOTE_ON_74
TIME_SHIFT_64ND_4
NOTE_OFF_74
NOTE_ON_66
TIME_SHIFT_64ND_4
NOTE_OFF_66
NOTE_ON_74
TIME_SHIFT_64ND_4
NOTE_OFF_74
NOTE_OFF_50
NOTE_OFF_62
NOTE_ON_66
NOTE_ON_60
NOTE_ON_48
TIME_SHIFT_64ND_4
NOTE_OFF_66
NOTE_ON_74
TIME_SHIFT_64ND_5
NOTE_OFF_74
NOTE_OFF_60
NOTE_OFF_48
NOTE_ON_67
NOTE_ON_59
NOTE_ON_47
TIME_SHIFT_64ND_4
NOTE_OFF_67
NOTE_ON_74
TIME_SHIFT_64ND_4
NOTE_OFF_74
NOTE_OFF_59
NOTE_OFF_47
NOTE_ON_69
NOTE_ON_57
NOTE_ON_45
TIME_SHIFT_64ND_4
NOTE_OFF_69
NOTE_ON_74
TIME_SHIFT_64ND_4
NOTE_OFF_74
NOTE_OFF_57
NOTE_OFF_45
NOTE_ON_71
NOTE_ON_55
NOTE_ON_43
TIME_SHIFT_64ND_4
NOTE_OFF_71
NOTE_ON_74
TIME_SHIFT_64ND_4
NOTE_OFF_74
NOTE_OFF_55
NOTE_OFF_43
NOTE_ON_72
NOTE_ON_54
NOTE_ON_42
TIME_SHIFT_64ND_4
NOTE_OFF_72
NOTE_ON_74
TIME_SHIFT_64ND_4
NOTE_OFF_74
NOTE_ON_72
TIME_SHIFT_64ND_4
NOTE_OFF_72
NOTE_ON_74
TIME_SHIFT_64ND_4
NOTE_OFF_74
NOTE_OFF_54
NOTE_OFF_42
NOTE_ON_71
NOTE_ON_55
NOTE_ON_43
TIME_SHIFT_64ND_4
NOTE_OFF_71
NOTE_ON_74
TIME_SHIFT_64ND_4
NOTE_OFF_74
NOTE_OFF_55
NOTE_OFF_43
NOTE_ON_69
NOTE_ON_50
NOTE_ON_38
TIME_SHIFT_64ND_4
NOTE_OFF_69
NOTE_ON_74
TIME_SHIFT_64ND_4
NOTE_OFF_74
NOTE_ON_66
TIME_SHIFT_64ND_4
NOTE_OFF_66
NOTE_ON_69
TIME_SHIFT_64ND_5
NOTE_OFF_69
NOTE_OFF_50
NOTE_OFF_38
NOTE_ON_62
TIME_SHIFT_64ND_10
NOTE_OFF_62
NOTE_ON_74
NOTE_ON_67
TIME_SHIFT_64ND_4
NOTE_OFF_67
NOTE_ON_71
TIME_SHIFT_64ND_4
NOTE_OFF_74
NOTE_OFF_71
NOTE_ON_79
NOTE_ON_67
TIME_SHIFT_64ND_4
NOTE_OFF_67
NOTE_ON_71
TIME_SHIFT_64ND_4
NOTE_OFF_79
NOTE_OFF_71
NOTE_ON_83
NOTE_ON_67
TIME_SHIFT_64ND_4
NOTE_OFF_67
NOTE_ON_71
TIME_SHIFT_64ND_4
NOTE_OFF_83
NOTE_OFF_71
NOTE_ON_86
NOTE_ON_67
TIME_SHIFT_64ND_4
NOTE_OFF_67
NOTE_ON_71
TIME_SHIFT_64ND_4
NOTE_OFF_71
NOTE_ON_67
TIME_SHIFT_64ND_4
NOTE_OFF_67
NOTE_ON_71
TIME_SHIFT_64ND_4
NOTE_OFF_86
NOTE_OFF_71
NOTE_ON_74
NOTE_ON_67
TIME_SHIFT_64ND_4
NOTE_OFF_67
NOTE_ON_71
TIME_SHIFT_64ND_4
NOTE_OFF_74
NOTE_OFF_71
NOTE_ON_76
NOTE_ON_67
TIME_SHIFT_64ND_4
NOTE_OFF_67
NOTE_ON_72
TIME_SHIFT_64ND_4
NOTE_OFF_76
NOTE_OFF_72
NOTE_ON_84
NOTE_ON_67
TIME_SHIFT_64ND_4
NOTE_OFF_67
NOTE_ON_72
TIME_SHIFT_64ND_4
NOTE_OFF_84
NOTE_OFF_72
NOTE_ON_76
NOTE_ON_67
TIME_SHIFT_64ND_5
NOTE_OFF_67
NOTE_ON_72
TIME_SHIFT_64ND_5
NOTE_OFF_76
NOTE_OFF_72
NOTE_ON_74
NOTE_ON_67
TIME_SHIFT_64ND_5
NOTE_OFF_67
NOTE_ON_71
TIME_SHIFT_64ND_4
NOTE_OFF_74
NOTE_OFF_71
NOTE_ON_67
TIME_SHIFT_64ND_4
NOTE_OFF_67
NOTE_ON_71
TIME_SHIFT_64ND_4
NOTE_OFF_71
NOTE_ON_67
TIME_SHIFT_64ND_4
NOTE_OFF_67
NOTE_ON_71
TIME_SHIFT_64ND_4
NOTE_OFF_71
NOTE_ON_72
NOTE_ON_62
TIME_SHIFT_64ND_4
NOTE_OFF_62
NOTE_ON_69
TIME_SHIFT_64ND_4
NOTE_OFF_72
NOTE_OFF_69
NOTE_ON_81
NOTE_ON_62
TIME_SHIFT_64ND_4
NOTE_OFF_62
NOTE_ON_69
TIME_SHIFT_64ND_4
NOTE_OFF_81
NOTE_OFF_69
NOTE_ON_72
NOTE_ON_62
TIME_SHIFT_64ND_4
NOTE_OFF_62
NOTE_ON_69
TIME_SHIFT_64ND_5
NOTE_OFF_72
NOTE_OFF_69
NOTE_ON_71
NOTE_ON_67
TIME_SHIFT_64ND_4
NOTE_OFF_71
NOTE_OFF_67
NOTE_ON_79
TIME_SHIFT_64ND_5
NOTE_OFF_79
NOTE_ON_72
NOTE_ON_69
TIME_SHIFT_64ND_4
NOTE_OFF_72
NOTE_OFF_69
NOTE_ON_79
TIME_SHIFT_64ND_5
NOTE_OFF_79
NOTE_ON_74
NOTE_ON_71
TIME_SHIFT_64ND_4
NOTE_OFF_74
NOTE_OFF_71
NOTE_ON_79
TIME_SHIFT_64ND_5
NOTE_OFF_79
NOTE_ON_72
NOTE_ON_60
TIME_SHIFT_64ND_4
NOTE_OFF_72
NOTE_ON_76
TIME_SHIFT_64ND_4
NOTE_OFF_76
NOTE_ON_74
TIME_SHIFT_64ND_4
NOTE_OFF_74
NOTE_ON_72
TIME_SHIFT_64ND_4
NOTE_OFF_72
NOTE_OFF_60
NOTE_ON_71
NOTE_ON_62
TIME_SHIFT_64ND_5
NOTE_OFF_71
NOTE_ON_69
TIME_SHIFT_64ND_5
NOTE_OFF_69
NOTE_OFF_62
NOTE_ON_67
NOTE_ON_55
TIME_SHIFT_64ND_10
NOTE_OFF_67
NOTE_OFF_55
NOTE_ON_50
TIME_SHIFT_64ND_6
NOTE_OFF_50
TIME_SHIFT_64ND_6
NOTE_ON_43
TIME_SHIFT_64ND_12
NOTE_OFF_43
<END>
