TIME_SHIFT_64ND_37
VEL_4
NOTE_ON_63
TIME_SHIFT_64ND_11
NOTE_OFF_63
VEL_4
NOTE_ON_60
TIME_SHIFT_64ND_4
NOTE_OFF_60
VEL_4
NOTE_ON_68
VEL_3
NOTE_ON_56
VEL_3
NOTE_ON_44
TIME_SHIFT_64ND_11
NOTE_OFF_68
VEL_4
NOTE_ON_68
TIME_SHIFT_64ND_4
NOTE_OFF_68
NOTE_OFF_56
NOTE_OFF_44
VEL_4
NOTE_ON_68
TIME_SHIFT_64ND_2
NOTE_OFF_68
VEL_3
NOTE_ON_70
TIME_SHIFT_64ND_2
NOTE_OFF_70
VEL_4
NOTE_ON_68
TIME_SHIFT_64ND_2
NOTE_OFF_68
VEL_3
NOTE_ON_70
TIME_SHIFT_64ND_2
NOTE_OFF_70
VEL_4
NOTE_ON_68
TIME_SHIFT_64ND_1
NOTE_OFF_68
VEL_3
NOTE_ON_70
TIME_SHIFT_64ND_1
NOTE_OFF_70
VEL_4
NOTE_ON_68
TIME_SHIFT_64ND_1
NOTE_OFF_68
VEL_4
NOTE_ON_67
TIME_SHIFT_64ND_2
NOTE_OFF_67
VEL_3
NOTE_ON_68
TIME_SHIFT_64ND_2
NOTE_OFF_68
VEL_4
NOTE_ON_70
VEL_3
NOTE_ON_55
VEL_3
NOTE_ON_43
TIME_SHIFT_64ND_15
NOTE_OFF_70
NOTE_OFF_55
NOTE_OFF_43
VEL_4
NOTE_ON_63
TIME_SHIFT_64ND_11
NOTE_OFF_63
VEL_4
NOTE_ON_75
TIME_SHIFT_64ND_4
NOTE_OFF_75
VEL_5
NOTE_ON_73
TIME_SHIFT_64ND_15
VEL_2
NOTE_ON_44
TIME_SHIFT_64ND_15
NOTE_OFF_73
NOTE_OFF_44
VEL_4
NOTE_ON_72
VEL_3
NOTE_ON_56
TIME_SHIFT_64ND_5
NOTE_OFF_72
NOTE_OFF_56
TIME_SHIFT_64ND_9
VEL_3
NOTE_ON_68
TIME_SHIFT_64ND_11
NOTE_OFF_68
VEL_2
NOTE_ON_77
TIME_SHIFT_64ND_4
NOTE_OFF_77
VEL_3
NOTE_ON_75
TIME_SHIFT_64ND_15
VEL_1
NOTE_ON_58
TIME_SHIFT_64ND_15
NOTE_OFF_75
NOTE_OFF_58
VEL_3
NOTE_ON_73
VEL_2
NOTE_ON_55
TIME_SHIFT_64ND_5
NOTE_OFF_73
NOTE_OFF_55
TIME_SHIFT_64ND_9
VEL_4
NOTE_ON_63
TIME_SHIFT_64ND_11
NOTE_OFF_63
VEL_4
NOTE_ON_75
TIME_SHIFT_64ND_4
NOTE_OFF_75
VEL_5
NOTE_ON_73
TIME_SHIFT_64ND_15
VEL_2
NOTE_ON_56
TIME_SHIFT_64ND_15
NOTE_OFF_73
NOTE_OFF_56
VEL_4
NOTE_ON_72
VEL_3
NOTE_ON_44
TIME_SHIFT_64ND_6
NOTE_OFF_72
NOTE_OFF_44
TIME_SHIFT_64ND_9
VEL_5
NOTE_ON_80
VEL_3
NOTE_ON_48
TIME_SHIFT_64ND_11
NOTE_OFF_80
VEL_4
NOTE_ON_72
TIME_SHIFT_64ND_4
NOTE_OFF_72
NOTE_OFF_48
VEL_4
NOTE_ON_70
VEL_3
NOTE_ON_49
TIME_SHIFT_64ND_11
NOTE_OFF_70
VEL_4
NOTE_ON_70
TIME_SHIFT_64ND_4
NOTE_OFF_70
VEL_4
NOTE_ON_70
TIME_SHIFT_64ND_2
NOTE_OFF_70
VEL_3
NOTE_ON_72
TIME_SHIFT_64ND_2
NOTE_OFF_72
VEL_4
NOTE_ON_70
TIME_SHIFT_64ND_2
NOTE_OFF_70
VEL_3
NOTE_ON_72
TIME_SHIFT_64ND_2
NOTE_OFF_72
VEL_4
NOTE_ON_70
TIME_SHIFT_64ND_1
NOTE_OFF_70
VEL_3
NOTE_ON_72
TIME_SHIFT_64ND_1
NOTE_OFF_72
VEL_4
NOTE_ON_70
TIME_SHIFT_64ND_1
NOTE_OFF_70
VEL_4
NOTE_ON_69
TIME_SHIFT_64ND_2
NOTE_OFF_69
VEL_3
NOTE_ON_70
TIME_SHIFT_64ND_2
NOTE_OFF_70
NOTE_OFF_49
VEL_4
NOTE_ON_73
TIME_SHIFT_64ND_11
NOTE_OFF_73
VEL_4
NOTE_ON_70
TIME_SHIFT_64ND_4
NOTE_OFF_70
VEL_4
NOTE_ON_67
VEL_3
NOTE_ON_51
TIME_SHIFT_64ND_11
NOTE_OFF_67
VEL_4
NOTE_ON_63
TIME_SHIFT_64ND_4
NOTE_OFF_63
NOTE_OFF_51
VEL_5
NOTE_ON_68
TIME_SHIFT_64ND_11
NOTE_OFF_68
VEL_2
NOTE_ON_44
TIME_SHIFT_64ND_4
NOTE_OFF_44
VEL_3
NOTE_ON_48
TIME_SHIFT_64ND_11
NOTE_OFF_48
VEL_3
NOTE_ON_51
TIME_SHIFT_64ND_4
NOTE_OFF_51
VEL_3
NOTE_ON_56
TIME_SHIFT_64ND_11
NOTE_OFF_56
TIME_SHIFT_64ND_4
VEL_4
NOTE_ON_63
TIME_SHIFT_64ND_11
NOTE_OFF_63
VEL_4
NOTE_ON_60
TIME_SHIFT_64ND_4
NOTE_OFF_60
VEL_4
NOTE_ON_68
VEL_3
NOTE_ON_60
VEL_3
NOTE_ON_56
TIME_SHIFT_64ND_11
NOTE_OFF_68
VEL_4
NOTE_ON_68
TIME_SHIFT_64ND_4
NOTE_OFF_68
NOTE_OFF_60
NOTE_OFF_56
VEL_4
NOTE_ON_68
TIME_SHIFT_64ND_2
NOTE_OFF_68
VEL_3
NOTE_ON_70
TIME_SHIFT_64ND_2
NOTE_OFF_70
VEL_4
NOTE_ON_68
TIME_SHIFT_64ND_2
NOTE_OFF_68
VEL_3
NOTE_ON_70
TIME_SHIFT_64ND_2
NOTE_OFF_70
VEL_4
NOTE_ON_68
TIME_SHIFT_64ND_1
NOTE_OFF_68
VEL_3
NOTE_ON_70
TIME_SHIFT_64ND_1
NOTE_OFF_70
VEL_4
NOTE_ON_68
TIME_SHIFT_64ND_1
NOTE_OFF_68
VEL_4
NOTE_ON_67
TIME_SHIFT_64ND_2
NOTE_OFF_67
VEL_3
NOTE_ON_68
TIME_SHIFT_64ND_2
NOTE_OFF_68
VEL_4
NOTE_ON_70
VEL_3
NOTE_ON_58
VEL_3
NOTE_ON_55
TIME_SHIFT_64ND_15
NOTE_OFF_70
NOTE_OFF_58
NOTE_OFF_55
VEL_4
NOTE_ON_63
TIME_SHIFT_64ND_11
NOTE_OFF_63
VEL_4
NOTE_ON_75
TIME_SHIFT_64ND_4
NOTE_OFF_75
VEL_5
NOTE_ON_73
TIME_SHIFT_64ND_15
VEL_2
NOTE_ON_44
TIME_SHIFT_64ND_15
NOTE_OFF_73
NOTE_OFF_44
VEL_4
NOTE_ON_72
VEL_3
NOTE_ON_56
TIME_SHIFT_64ND_6
NOTE_OFF_72
TIME_SHIFT_64ND_9
NOTE_OFF_56
VEL_4
NOTE_ON_68
VEL_3
NOTE_ON_60
TIME_SHIFT_64ND_11
NOTE_OFF_68
VEL_4
NOTE_ON_80
TIME_SHIFT_64ND_4
NOTE_OFF_80
NOTE_OFF_60
VEL_4
NOTE_ON_79
TIME_SHIFT_64ND_15
NOTE_OFF_79
VEL_4
NOTE_ON_77
VEL_3
NOTE_ON_61
TIME_SHIFT_64ND_4
NOTE_OFF_77
NOTE_OFF_61
TIME_SHIFT_64ND_7
VEL_4
NOTE_ON_80
TIME_SHIFT_64ND_4
NOTE_OFF_80
VEL_4
NOTE_ON_77
TIME_SHIFT_64ND_15
NOTE_OFF_77
VEL_4
NOTE_ON_75
VEL_3
NOTE_ON_60
TIME_SHIFT_64ND_4
NOTE_OFF_75
NOTE_OFF_60
TIME_SHIFT_64ND_7
VEL_4
NOTE_ON_80
TIME_SHIFT_64ND_4
NOTE_OFF_80
VEL_4
NOTE_ON_75
TIME_SHIFT_64ND_15
NOTE_OFF_75
VEL_4
NOTE_ON_73
VEL_3
NOTE_ON_58
TIME_SHIFT_64ND_4
NOTE_OFF_73
NOTE_OFF_58
TIME_SHIFT_64ND_7
VEL_4
NOTE_ON_80
TIME_SHIFT_64ND_4
NOTE_OFF_80
VEL_4
NOTE_ON_73
TIME_SHIFT_64ND_15
NOTE_OFF_73
VEL_4
NOTE_ON_72
VEL_3
NOTE_ON_56
TIME_SHIFT_64ND_4
NOTE_OFF_72
NOTE_OFF_56
TIME_SHIFT_64ND_7
VEL_4
NOTE_ON_80
TIME_SHIFT_64ND_4
NOTE_OFF_80
VEL_4
NOTE_ON_72
TIME_SHIFT_64ND_11
NOTE_OFF_72
VEL_4
NOTE_ON_70
TIME_SHIFT_64ND_4
NOTE_OFF_70
VEL_4
NOTE_ON_73
VEL_3
NOTE_ON_49
VEL_3
NOTE_ON_61
TIME_SHIFT_64ND_11
NOTE_OFF_73
VEL_4
NOTE_ON_77
TIME_SHIFT_64ND_4
NOTE_OFF_77
NOTE_OFF_49
NOTE_OFF_61
VEL_4
NOTE_ON_75
VEL_3
NOTE_ON_60
VEL_3
NOTE_ON_51
TIME_SHIFT_64ND_15
NOTE_OFF_75
NOTE_OFF_60
VEL_4
NOTE_ON_67
VEL_3
NOTE_ON_58
TIME_SHIFT_64ND_14
NOTE_OFF_67
VEL_2
NOTE_ON_67
TIME_SHIFT_64ND_1
NOTE_OFF_67
NOTE_OFF_58
NOTE_OFF_51
VEL_4
NOTE_ON_68
VEL_3
NOTE_ON_56
TIME_SHIFT_64ND_4
NOTE_OFF_68
TIME_SHIFT_64ND_1
NOTE_OFF_56
VEL_2
NOTE_ON_60
TIME_SHIFT_64ND_5
NOTE_OFF_60
VEL_2
NOTE_ON_63
TIME_SHIFT_64ND_4
VEL_3
NOTE_ON_67
TIME_SHIFT_64ND_1
NOTE_OFF_67
NOTE_OFF_63
VEL_4
NOTE_ON_68
VEL_3
NOTE_ON_56
TIME_SHIFT_64ND_4
NOTE_OFF_68
TIME_SHIFT_64ND_1
NOTE_OFF_56
VEL_2
NOTE_ON_60
TIME_SHIFT_64ND_5
NOTE_OFF_60
VEL_3
NOTE_ON_63
TIME_SHIFT_64ND_4
VEL_3
NOTE_ON_67
TIME_SHIFT_64ND_1
NOTE_OFF_67
NOTE_OFF_63
VEL_4
NOTE_ON_68
VEL_3
NOTE_ON_56
TIME_SHIFT_64ND_4
NOTE_OFF_68
TIME_SHIFT_64ND_1
NOTE_OFF_56
VEL_3
NOTE_ON_60
TIME_SHIFT_64ND_5
NOTE_OFF_60
VEL_3
NOTE_ON_63
TIME_SHIFT_64ND_4
VEL_3
NOTE_ON_69
TIME_SHIFT_64ND_1
NOTE_OFF_69
NOTE_OFF_63
VEL_4
NOTE_ON_70
VEL_3
NOTE_ON_55
TIME_SHIFT_64ND_4
NOTE_OFF_70
TIME_SHIFT_64ND_1
NOTE_OFF_55
VEL_3
NOTE_ON_58
TIME_SHIFT_64ND_5
NOTE_OFF_58
VEL_3
NOTE_ON_63
TIME_SHIFT_64ND_5
NOTE_OFF_63
VEL_4
NOTE_ON_71
VEL_3
NOTE_ON_56
TIME_SHIFT_64ND_5
NOTE_OFF_56
VEL_2
NOTE_ON_60
TIME_SHIFT_64ND_5
NOTE_OFF_60
VEL_2
NOTE_ON_63
TIME_SHIFT_64ND_5
NOTE_OFF_71
NOTE_OFF_63
VEL_4
NOTE_ON_72
VEL_3
NOTE_ON_56
TIME_SHIFT_64ND_5
NOTE_OFF_56
VEL_2
NOTE_ON_60
TIME_SHIFT_64ND_5
NOTE_OFF_60
VEL_2
NOTE_ON_63
TIME_SHIFT_64ND_5
NOTE_OFF_72
NOTE_OFF_63
VEL_3
NOTE_ON_68
VEL_3
NOTE_ON_56
TIME_SHIFT_64ND_5
NOTE_OFF_56
VEL_2
NOTE_ON_60
TIME_SHIFT_64ND_5
NOTE_OFF_60
VEL_2
NOTE_ON_63
TIME_SHIFT_64ND_5
NOTE_OFF_63
VEL_3
NOTE_ON_56
TIME_SHIFT_64ND_5
NOTE_OFF_56
VEL_2
NOTE_ON_60
TIME_SHIFT_64ND_5
NOTE_OFF_60
VEL_2
NOTE_ON_63
TIME_SHIFT_64ND_4
VEL_2
NOTE_ON_71
TIME_SHIFT_64ND_1
NOTE_OFF_71
NOTE_OFF_68
NOTE_OFF_63
VEL_4
NOTE_ON_72
VEL_3
NOTE_ON_56
TIME_SHIFT_64ND_4
NOTE_OFF_72
TIME_SHIFT_64ND_1
NOTE_OFF_56
VEL_2
NOTE_ON_60
TIME_SHIFT_64ND_5
NOTE_OFF_60
VEL_2
NOTE_ON_63
TIME_SHIFT_64ND_4
VEL_3
NOTE_ON_71
TIME_SHIFT_64ND_1
NOTE_OFF_71
NOTE_OFF_63
VEL_4
NOTE_ON_72
VEL_3
NOTE_ON_56
TIME_SHIFT_64ND_4
NOTE_OFF_72
TIME_SHIFT_64ND_1
NOTE_OFF_56
VEL_2
NOTE_ON_60
TIME_SHIFT_64ND_5
NOTE_OFF_60
VEL_3
NOTE_ON_63
TIME_SHIFT_64ND_4
VEL_3
NOTE_ON_71
TIME_SHIFT_64ND_1
NOTE_OFF_71
NOTE_OFF_63
VEL_4
NOTE_ON_72
VEL_3
NOTE_ON_56
TIME_SHIFT_64ND_3
NOTE_OFF_72
TIME_SHIFT_64ND_1
NOTE_OFF_56
VEL_3
NOTE_ON_60
TIME_SHIFT_64ND_5
NOTE_OFF_60
VEL_3
NOTE_ON_63
TIME_SHIFT_64ND_5
NOTE_OFF_63
VEL_4
NOTE_ON_75
VEL_3
NOTE_ON_58
TIME_SHIFT_64ND_3
NOTE_OFF_75
VEL_4
NOTE_ON_73
TIME_SHIFT_64ND_1
NOTE_OFF_58
VEL_3
NOTE_ON_61
TIME_SHIFT_64ND_2
NOTE_OFF_73
VEL_4
NOTE_ON_72
TIME_SHIFT_64ND_2
NOTE_OFF_61
VEL_3
NOTE_ON_67
TIME_SHIFT_64ND_1
NOTE_OFF_72
VEL_4
NOTE_ON_73
TIME_SHIFT_64ND_4
NOTE_OFF_73
NOTE_OFF_67
VEL_4
NOTE_ON_75
VEL_3
NOTE_ON_60
TIME_SHIFT_64ND_5
NOTE_OFF_60
VEL_2
NOTE_ON_63
TIME_SHIFT_64ND_5
NOTE_OFF_63
VEL_2
NOTE_ON_68
TIME_SHIFT_64ND_5
NOTE_OFF_68
VEL_3
NOTE_ON_60
TIME_SHIFT_64ND_5
NOTE_OFF_60
VEL_2
NOTE_ON_63
TIME_SHIFT_64ND_5
NOTE_OFF_63
VEL_2
NOTE_ON_68
TIME_SHIFT_64ND_5
NOTE_OFF_75
NOTE_OFF_68
VEL_4
NOTE_ON_72
VEL_3
NOTE_ON_60
TIME_SHIFT_64ND_5
NOTE_OFF_60
VEL_2
NOTE_ON_63
TIME_SHIFT_64ND_5
NOTE_OFF_63
VEL_2
NOTE_ON_68
TIME_SHIFT_64ND_5
NOTE_OFF_68
VEL_3
NOTE_ON_60
TIME_SHIFT_64ND_5
NOTE_OFF_60
VEL_2
NOTE_ON_63
TIME_SHIFT_64ND_5
NOTE_OFF_63
VEL_2
NOTE_ON_68
TIME_SHIFT_64ND_5
NOTE_OFF_72
NOTE_OFF_68
VEL_5
NOTE_ON_80
VEL_3
NOTE_ON_60
TIME_SHIFT_64ND_5
NOTE_OFF_60
VEL_2
NOTE_ON_63
TIME_SHIFT_64ND_5
NOTE_OFF_63
VEL_2
NOTE_ON_68
TIME_SHIFT_64ND_5
NOTE_OFF_80
NOTE_OFF_68
VEL_5
NOTE_ON_80
VEL_3
NOTE_ON_60
TIME_SHIFT_64ND_5
NOTE_OFF_80
NOTE_OFF_60
VEL_4
NOTE_ON_84
VEL_2
NOTE_ON_63
TIME_SHIFT_64ND_5
NOTE_OFF_84
NOTE_OFF_63
VEL_4
NOTE_ON_87
VEL_2
NOTE_ON_68
TIME_SHIFT_64ND_5
NOTE_OFF_87
NOTE_OFF_68
VEL_5
NOTE_ON_78
VEL_2
NOTE_ON_60
TIME_SHIFT_64ND_5
NOTE_OFF_60
VEL_2
NOTE_ON_63
TIME_SHIFT_64ND_5
NOTE_OFF_63
VEL_2
NOTE_ON_68
TIME_SHIFT_64ND_5
NOTE_OFF_68
VEL_2
NOTE_ON_60
TIME_SHIFT_64ND_5
NOTE_OFF_60
VEL_2
NOTE_ON_63
TIME_SHIFT_64ND_5
NOTE_OFF_63
VEL_2
NOTE_ON_68
TIME_SHIFT_64ND_5
NOTE_OFF_78
NOTE_OFF_68
VEL_5
NOTE_ON_77
VEL_3
NOTE_ON_61
TIME_SHIFT_64ND_5
NOTE_OFF_61
VEL_2
NOTE_ON_65
TIME_SHIFT_64ND_5
NOTE_OFF_65
VEL_2
NOTE_ON_68
TIME_SHIFT_64ND_5
NOTE_OFF_77
NOTE_OFF_68
VEL_5
NOTE_ON_77
VEL_3
NOTE_ON_61
TIME_SHIFT_64ND_5
NOTE_OFF_77
NOTE_OFF_61
VEL_4
NOTE_ON_82
VEL_2
NOTE_ON_65
TIME_SHIFT_64ND_5
NOTE_OFF_82
NOTE_OFF_65
VEL_4
NOTE_ON_85
VEL_2
NOTE_ON_68
TIME_SHIFT_64ND_5
NOTE_OFF_85
NOTE_OFF_68
VEL_5
NOTE_ON_75
VEL_3
NOTE_ON_61
TIME_SHIFT_64ND_5
NOTE_OFF_61
VEL_2
NOTE_ON_63
TIME_SHIFT_64ND_5
NOTE_OFF_63
VEL_2
NOTE_ON_67
TIME_SHIFT_64ND_5
NOTE_OFF_67
VEL_3
NOTE_ON_61
TIME_SHIFT_64ND_5
NOTE_OFF_61
VEL_2
NOTE_ON_63
TIME_SHIFT_64ND_2
NOTE_OFF_75
VEL_4
NOTE_ON_77
TIME_SHIFT_64ND_2
NOTE_OFF_63
VEL_2
NOTE_ON_67
TIME_SHIFT_64ND_1
NOTE_OFF_77
VEL_5
NOTE_ON_79
TIME_SHIFT_64ND_3
NOTE_OFF_79
NOTE_OFF_67
VEL_5
NOTE_ON_80
VEL_3
NOTE_ON_60
TIME_SHIFT_64ND_5
NOTE_OFF_60
VEL_2
NOTE_ON_63
TIME_SHIFT_64ND_5
NOTE_OFF_63
VEL_2
NOTE_ON_68
TIME_SHIFT_64ND_5
NOTE_OFF_80
NOTE_OFF_68
VEL_5
NOTE_ON_80
VEL_3
NOTE_ON_60
TIME_SHIFT_64ND_5
NOTE_OFF_80
NOTE_OFF_60
VEL_4
NOTE_ON_82
VEL_2
NOTE_ON_63
TIME_SHIFT_64ND_5
NOTE_OFF_82
NOTE_OFF_63
VEL_4
NOTE_ON_84
VEL_2
NOTE_ON_68
TIME_SHIFT_64ND_5
NOTE_OFF_84
NOTE_OFF_68
VEL_5
NOTE_ON_73
VEL_3
NOTE_ON_58
TIME_SHIFT_64ND_5
NOTE_OFF_58
VEL_2
NOTE_ON_61
TIME_SHIFT_64ND_5
NOTE_OFF_61
VEL_2
NOTE_ON_67
TIME_SHIFT_64ND_5
NOTE_OFF_67
VEL_3
NOTE_ON_58
TIME_SHIFT_64ND_5
NOTE_OFF_58
VEL_2
NOTE_ON_61
TIME_SHIFT_64ND_5
NOTE_OFF_61
VEL_2
NOTE_ON_67
TIME_SHIFT_64ND_5
NOTE_OFF_73
NOTE_OFF_67
VEL_5
NOTE_ON_72
VEL_3
NOTE_ON_56
TIME_SHIFT_64ND_5
NOTE_OFF_72
VEL_4
NOTE_ON_75
TIME_SHIFT_64ND_5
NOTE_OFF_75
VEL_4
NOTE_ON_73
TIME_SHIFT_64ND_5
NOTE_OFF_73
NOTE_OFF_56
VEL_4
NOTE_ON_72
TIME_SHIFT_64ND_5
NOTE_OFF_72
VEL_4
NOTE_ON_84
TIME_SHIFT_64ND_5
NOTE_OFF_84
VEL_4
NOTE_ON_82
TIME_SHIFT_64ND_5
NOTE_OFF_82
VEL_4
NOTE_ON_80
TIME_SHIFT_64ND_5
NOTE_OFF_80
VEL_4
NOTE_ON_79
TIME_SHIFT_64ND_5
NOTE_OFF_79
VEL_4
NOTE_ON_77
TIME_SHIFT_64ND_5
NOTE_OFF_77
VEL_4
NOTE_ON_75
TIME_SHIFT_64ND_5
NOTE_OFF_75
VEL_4
NOTE_ON_73
TIME_SHIFT_64ND_5
NOTE_OFF_73
VEL_4
NOTE_ON_72
TIME_SHIFT_64ND_5
NOTE_OFF_72
VEL_5
NOTE_ON_75
TIME_SHIFT_64ND_11
NOTE_OFF_75
VEL_3
NOTE_ON_72
TIME_SHIFT_64ND_4
NOTE_OFF_72
VEL_4
NOTE_ON_70
VEL_2
NOTE_ON_67
VEL_2
NOTE_ON_63
TIME_SHIFT_64ND_11
NOTE_OFF_70
TIME_SHIFT_64ND_4
NOTE_OFF_67
NOTE_OFF_63
TIME_SHIFT_64ND_15
VEL_4
NOTE_ON_70
TIME_SHIFT_64ND_11
NOTE_OFF_70
VEL_4
NOTE_ON_67
TIME_SHIFT_64ND_4
NOTE_OFF_67
VEL_4
NOTE_ON_75
VEL_3
NOTE_ON_51
TIME_SHIFT_64ND_11
NOTE_OFF_75
NOTE_OFF_51
VEL_4
NOTE_ON_75
TIME_SHIFT_64ND_4
NOTE_OFF_75
VEL_4
NOTE_ON_75
VEL_3
NOTE_ON_55
TIME_SHIFT_64ND_2
NOTE_OFF_75
VEL_3
NOTE_ON_77
TIME_SHIFT_64ND_2
NOTE_OFF_77
VEL_4
NOTE_ON_75
TIME_SHIFT_64ND_2
NOTE_OFF_75
VEL_3
NOTE_ON_77
TIME_SHIFT_64ND_2
NOTE_OFF_77
NOTE_OFF_55
VEL_4
NOTE_ON_75
TIME_SHIFT_64ND_1
NOTE_OFF_75
VEL_3
NOTE_ON_77
TIME_SHIFT_64ND_1
NOTE_OFF_77
VEL_4
NOTE_ON_75
TIME_SHIFT_64ND_1
NOTE_OFF_75
VEL_4
NOTE_ON_74
TIME_SHIFT_64ND_2
NOTE_OFF_74
VEL_3
NOTE_ON_75
TIME_SHIFT_64ND_2
NOTE_OFF_75
VEL_4
NOTE_ON_77
VEL_3
NOTE_ON_50
TIME_SHIFT_64ND_7
NOTE_OFF_77
NOTE_OFF_50
TIME_SHIFT_64ND_7
VEL_4
NOTE_ON_74
TIME_SHIFT_64ND_11
NOTE_OFF_74
VEL_4
NOTE_ON_70
TIME_SHIFT_64ND_4
NOTE_OFF_70
VEL_4
NOTE_ON_77
VEL_3
NOTE_ON_50
TIME_SHIFT_64ND_11
NOTE_OFF_77
NOTE_OFF_50
VEL_4
NOTE_ON_77
TIME_SHIFT_64ND_4
NOTE_OFF_77
VEL_4
NOTE_ON_77
VEL_2
NOTE_ON_58
TIME_SHIFT_64ND_2
NOTE_OFF_77
VEL_3
NOTE_ON_79
TIME_SHIFT_64ND_2
NOTE_OFF_79
VEL_4
NOTE_ON_77
TIME_SHIFT_64ND_2
NOTE_OFF_77
VEL_3
NOTE_ON_79
TIME_SHIFT_64ND_2
NOTE_OFF_79
NOTE_OFF_58
VEL_4
NOTE_ON_77
TIME_SHIFT_64ND_1
NOTE_OFF_77
VEL_3
NOTE_ON_79
TIME_SHIFT_64ND_1
NOTE_OFF_79
VEL_4
NOTE_ON_77
TIME_SHIFT_64ND_1
NOTE_OFF_77
VEL_4
NOTE_ON_75
TIME_SHIFT_64ND_2
NOTE_OFF_75
VEL_3
NOTE_ON_77
TIME_SHIFT_64ND_2
NOTE_OFF_77
VEL_4
NOTE_ON_79
VEL_3
NOTE_ON_51
TIME_SHIFT_64ND_11
NOTE_OFF_79
NOTE_OFF_51
VEL_4
NOTE_ON_79
TIME_SHIFT_64ND_4
NOTE_OFF_79
VEL_4
NOTE_ON_79
VEL_2
NOTE_ON_58
TIME_SHIFT_64ND_2
NOTE_OFF_79
VEL_3
NOTE_ON_80
TIME_SHIFT_64ND_2
NOTE_OFF_80
VEL_4
NOTE_ON_79
TIME_SHIFT_64ND_2
NOTE_OFF_79
VEL_3
NOTE_ON_80
TIME_SHIFT_64ND_2
NOTE_OFF_80
NOTE_OFF_58
VEL_4
NOTE_ON_79
TIME_SHIFT_64ND_1
NOTE_OFF_79
VEL_3
NOTE_ON_80
TIME_SHIFT_64ND_1
NOTE_OFF_80
VEL_4
NOTE_ON_79
TIME_SHIFT_64ND_1
NOTE_OFF_79
VEL_4
NOTE_ON_77
TIME_SHIFT_64ND_2
NOTE_OFF_77
VEL_3
NOTE_ON_79
TIME_SHIFT_64ND_2
NOTE_OFF_79
VEL_4
NOTE_ON_80
VEL_3
NOTE_ON_53
TIME_SHIFT_64ND_11
NOTE_OFF_80
NOTE_OFF_53
VEL_4
NOTE_ON_80
TIME_SHIFT_64ND_4
NOTE_OFF_80
VEL_4
NOTE_ON_80
VEL_2
NOTE_ON_62
TIME_SHIFT_64ND_2
NOTE_OFF_80
VEL_4
NOTE_ON_82
TIME_SHIFT_64ND_2
NOTE_OFF_82
VEL_4
NOTE_ON_80
TIME_SHIFT_64ND_2
NOTE_OFF_80
VEL_3
NOTE_ON_82
TIME_SHIFT_64ND_2
NOTE_OFF_82
NOTE_OFF_62
VEL_4
NOTE_ON_80
TIME_SHIFT_64ND_1
NOTE_OFF_80
VEL_4
NOTE_ON_82
TIME_SHIFT_64ND_1
NOTE_OFF_82
VEL_4
NOTE_ON_80
TIME_SHIFT_64ND_1
NOTE_OFF_80
VEL_4
NOTE_ON_79
TIME_SHIFT_64ND_2
NOTE_OFF_79
VEL_3
NOTE_ON_80
TIME_SHIFT_64ND_2
NOTE_OFF_80
VEL_5
NOTE_ON_82
VEL_3
NOTE_ON_55
TIME_SHIFT_64ND_11
NOTE_OFF_82
NOTE_OFF_55
VEL_4
NOTE_ON_82
TIME_SHIFT_64ND_4
NOTE_OFF_82
VEL_5
NOTE_ON_82
VEL_2
NOTE_ON_63
TIME_SHIFT_64ND_2
NOTE_OFF_82
VEL_4
NOTE_ON_84
TIME_SHIFT_64ND_2
NOTE_OFF_84
VEL_5
NOTE_ON_82
TIME_SHIFT_64ND_2
NOTE_OFF_82
VEL_4
NOTE_ON_84
TIME_SHIFT_64ND_2
NOTE_OFF_84
NOTE_OFF_63
VEL_4
NOTE_ON_82
TIME_SHIFT_64ND_1
NOTE_OFF_82
VEL_4
NOTE_ON_84
TIME_SHIFT_64ND_1
NOTE_OFF_84
VEL_5
NOTE_ON_82
TIME_SHIFT_64ND_1
NOTE_OFF_82
VEL_4
NOTE_ON_80
TIME_SHIFT_64ND_2
NOTE_OFF_80
VEL_4
NOTE_ON_82
TIME_SHIFT_64ND_2
NOTE_OFF_82
VEL_5
NOTE_ON_84
VEL_3
NOTE_ON_56
TIME_SHIFT_64ND_5
NOTE_OFF_56
VEL_2
NOTE_ON_60
TIME_SHIFT_64ND_5
NOTE_OFF_60
VEL_2
NOTE_ON_63
TIME_SHIFT_64ND_5
NOTE_OFF_63
VEL_3
NOTE_ON_56
TIME_SHIFT_64ND_5
NOTE_OFF_56
VEL_2
NOTE_ON_60
TIME_SHIFT_64ND_5
NOTE_OFF_60
VEL_2
NOTE_ON_63
TIME_SHIFT_64ND_5
NOTE_OFF_63
VEL_3
NOTE_ON_56
TIME_SHIFT_64ND_5
NOTE_OFF_56
VEL_2
NOTE_ON_60
TIME_SHIFT_64ND_5
NOTE_OFF_60
VEL_2
NOTE_ON_63
TIME_SHIFT_64ND_5
NOTE_OFF_84
NOTE_OFF_63
VEL_4
NOTE_ON_76
VEL_3
NOTE_ON_55
TIME_SHIFT_64ND_5
NOTE_OFF_55
VEL_2
NOTE_ON_58
TIME_SHIFT_64ND_5
NOTE_OFF_58
VEL_2
NOTE_ON_61
TIME_SHIFT_64ND_5
NOTE_OFF_76
NOTE_OFF_61
VEL_5
NOTE_ON_77
VEL_3
NOTE_ON_56
TIME_SHIFT_64ND_5
NOTE_OFF_77
VEL_4
NOTE_ON_80
TIME_SHIFT_64ND_5
NOTE_OFF_80
VEL_4
NOTE_ON_79
TIME_SHIFT_64ND_5
NOTE_OFF_79
NOTE_OFF_56
VEL_4
NOTE_ON_77
TIME_SHIFT_64ND_5
NOTE_OFF_77
VEL_4
NOTE_ON_84
TIME_SHIFT_64ND_5
NOTE_OFF_84
VEL_4
NOTE_ON_82
TIME_SHIFT_64ND_5
NOTE_OFF_82
VEL_4
NOTE_ON_80
TIME_SHIFT_64ND_5
NOTE_OFF_80
VEL_4
NOTE_ON_79
TIME_SHIFT_64ND_5
NOTE_OFF_79
VEL_4
NOTE_ON_77
TIME_SHIFT_64ND_5
NOTE_OFF_77
VEL_4
NOTE_ON_75
TIME_SHIFT_64ND_5
NOTE_OFF_75
VEL_4
NOTE_ON_74
TIME_SHIFT_64ND_5
NOTE_OFF_74
VEL_4
NOTE_ON_72
TIME_SHIFT_64ND_5
NOTE_OFF_72
VEL_5
NOTE_ON_82
VEL_3
NOTE_ON_55
TIME_SHIFT_64ND_5
NOTE_OFF_55
VEL_2
NOTE_ON_58
TIME_SHIFT_64ND_5
NOTE_OFF_58
VEL_2
NOTE_ON_63
TIME_SHIFT_64ND_5
NOTE_OFF_63
VEL_3
NOTE_ON_55
TIME_SHIFT_64ND_5
NOTE_OFF_55
VEL_2
NOTE_ON_58
TIME_SHIFT_64ND_5
NOTE_OFF_58
VEL_2
NOTE_ON_63
TIME_SHIFT_64ND_5
NOTE_OFF_63
VEL_3
NOTE_ON_55
TIME_SHIFT_64ND_5
NOTE_OFF_55
VEL_2
NOTE_ON_58
TIME_SHIFT_64ND_5
NOTE_OFF_58
VEL_2
NOTE_ON_63
TIME_SHIFT_64ND_5
NOTE_OFF_82
NOTE_OFF_63
VEL_4
NOTE_ON_74
VEL_3
NOTE_ON_53
TIME_SHIFT_64ND_5
NOTE_OFF_53
VEL_2
NOTE_ON_56
TIME_SHIFT_64ND_5
NOTE_OFF_56
VEL_2
NOTE_ON_59
TIME_SHIFT_64ND_5
NOTE_OFF_74
NOTE_OFF_59
VEL_5
NOTE_ON_75
VEL_3
NOTE_ON_55
TIME_SHIFT_64ND_5
NOTE_OFF_75
VEL_4
NOTE_ON_79
TIME_SHIFT_64ND_5
NOTE_OFF_79
VEL_4
NOTE_ON_77
TIME_SHIFT_64ND_5
NOTE_OFF_77
NOTE_OFF_55
VEL_4
NOTE_ON_75
TIME_SHIFT_64ND_5
NOTE_OFF_75
VEL_4
NOTE_ON_82
TIME_SHIFT_64ND_5
NOTE_OFF_82
VEL_4
NOTE_ON_80
TIME_SHIFT_64ND_5
NOTE_OFF_80
VEL_4
NOTE_ON_79
TIME_SHIFT_64ND_5
NOTE_OFF_79
VEL_4
NOTE_ON_77
TIME_SHIFT_64ND_5
NOTE_OFF_77
VEL_4
NOTE_ON_75
TIME_SHIFT_64ND_5
NOTE_OFF_75
VEL_4
NOTE_ON_74
TIME_SHIFT_64ND_5
NOTE_OFF_74
VEL_4
NOTE_ON_72
TIME_SHIFT_64ND_5
NOTE_OFF_72
VEL_4
NOTE_ON_70
TIME_SHIFT_64ND_5
NOTE_OFF_70
VEL_5
NOTE_ON_80
VEL_3
NOTE_ON_58
TIME_SHIFT_64ND_5
NOTE_OFF_58
VEL_2
NOTE_ON_62
TIME_SHIFT_64ND_5
NOTE_OFF_62
VEL_2
NOTE_ON_65
TIME_SHIFT_64ND_5
NOTE_OFF_65
VEL_3
NOTE_ON_58
TIME_SHIFT_64ND_5
NOTE_OFF_58
VEL_2
NOTE_ON_62
TIME_SHIFT_64ND_5
NOTE_OFF_62
VEL_2
NOTE_ON_65
TIME_SHIFT_64ND_5
NOTE_OFF_65
VEL_3
NOTE_ON_58
TIME_SHIFT_64ND_5
NOTE_OFF_58
VEL_2
NOTE_ON_62
TIME_SHIFT_64ND_5
NOTE_OFF_62
VEL_2
NOTE_ON_65
TIME_SHIFT_64ND_5
NOTE_OFF_80
NOTE_OFF_65
VEL_4
NOTE_ON_79
VEL_3
NOTE_ON_58
TIME_SHIFT_64ND_5
NOTE_OFF_79
NOTE_OFF_58
VEL_4
NOTE_ON_77
VEL_2
NOTE_ON_63
TIME_SHIFT_64ND_5
NOTE_OFF_77
NOTE_OFF_63
VEL_3
NOTE_ON_75
VEL_2
NOTE_ON_67
TIME_SHIFT_64ND_5
NOTE_OFF_75
TIME_SHIFT_64ND_1
NOTE_OFF_67
VEL_4
NOTE_ON_75
VEL_3
NOTE_ON_58
TIME_SHIFT_64ND_5
NOTE_OFF_58
VEL_2
NOTE_ON_65
TIME_SHIFT_64ND_2
NOTE_OFF_75
VEL_3
NOTE_ON_74
TIME_SHIFT_64ND_2
NOTE_OFF_65
VEL_2
NOTE_ON_68
TIME_SHIFT_64ND_4
NOTE_OFF_74
TIME_SHIFT_64ND_1
NOTE_OFF_68
VEL_3
NOTE_ON_74
VEL_3
NOTE_ON_58
TIME_SHIFT_64ND_5
NOTE_OFF_58
VEL_2
NOTE_ON_65
TIME_SHIFT_64ND_5
NOTE_OFF_65
VEL_2
NOTE_ON_68
TIME_SHIFT_64ND_5
NOTE_OFF_68
VEL_2
NOTE_ON_58
TIME_SHIFT_64ND_5
NOTE_OFF_58
VEL_2
NOTE_ON_65
TIME_SHIFT_64ND_5
NOTE_OFF_65
VEL_2
NOTE_ON_68
TIME_SHIFT_64ND_5
NOTE_OFF_74
NOTE_OFF_68
VEL_4
NOTE_ON_75
VEL_3
NOTE_ON_58
TIME_SHIFT_64ND_5
NOTE_OFF_58
VEL_2
NOTE_ON_63
TIME_SHIFT_64ND_5
NOTE_OFF_63
VEL_2
NOTE_ON_67
TIME_SHIFT_64ND_5
NOTE_OFF_75
NOTE_OFF_67
VEL_5
NOTE_ON_77
VEL_3
NOTE_ON_58
TIME_SHIFT_64ND_5
NOTE_OFF_77
NOTE_OFF_58
VEL_4
NOTE_ON_79
VEL_2
NOTE_ON_62
TIME_SHIFT_64ND_5
NOTE_OFF_79
NOTE_OFF_62
VEL_4
NOTE_ON_80
VEL_2
NOTE_ON_65
TIME_SHIFT_64ND_4
NOTE_OFF_80
TIME_SHIFT_64ND_1
NOTE_OFF_65
VEL_5
NOTE_ON_80
VEL_3
NOTE_ON_58
TIME_SHIFT_64ND_5
NOTE_OFF_58
VEL_2
NOTE_ON_62
TIME_SHIFT_64ND_5
NOTE_OFF_62
VEL_2
NOTE_ON_65
TIME_SHIFT_64ND_5
NOTE_OFF_65
VEL_3
NOTE_ON_58
TIME_SHIFT_64ND_5
NOTE_OFF_58
VEL_2
NOTE_ON_62
TIME_SHIFT_64ND_5
NOTE_OFF_62
VEL_2
NOTE_ON_65
TIME_SHIFT_64ND_5
NOTE_OFF_80
NOTE_OFF_65
VEL_4
NOTE_ON_79
VEL_3
NOTE_ON_58
TIME_SHIFT_64ND_5
NOTE_OFF_79
NOTE_OFF_58
VEL_4
NOTE_ON_77
VEL_2
NOTE_ON_63
TIME_SHIFT_64ND_5
NOTE_OFF_77
NOTE_OFF_63
VEL_3
NOTE_ON_75
VEL_2
NOTE_ON_67
TIME_SHIFT_64ND_5
NOTE_OFF_75
TIME_SHIFT_64ND_1
NOTE_OFF_67
VEL_4
NOTE_ON_75
VEL_3
NOTE_ON_58
TIME_SHIFT_64ND_5
NOTE_OFF_58
VEL_2
NOTE_ON_65
TIME_SHIFT_64ND_2
NOTE_OFF_75
VEL_3
NOTE_ON_74
TIME_SHIFT_64ND_2
NOTE_OFF_65
VEL_2
NOTE_ON_68
TIME_SHIFT_64ND_4
NOTE_OFF_74
TIME_SHIFT_64ND_1
NOTE_OFF_68
VEL_3
NOTE_ON_74
VEL_3
NOTE_ON_58
TIME_SHIFT_64ND_5
NOTE_OFF_58
VEL_2
NOTE_ON_65
TIME_SHIFT_64ND_5
NOTE_OFF_65
VEL_2
NOTE_ON_68
TIME_SHIFT_64ND_5
NOTE_OFF_68
VEL_2
NOTE_ON_58
TIME_SHIFT_64ND_5
NOTE_OFF_58
VEL_2
NOTE_ON_65
TIME_SHIFT_64ND_5
NOTE_OFF_65
VEL_2
NOTE_ON_68
TIME_SHIFT_64ND_5
NOTE_OFF_74
NOTE_OFF_68
VEL_4
NOTE_ON_75
VEL_3
NOTE_ON_58
TIME_SHIFT_64ND_5
NOTE_OFF_58
VEL_2
NOTE_ON_63
TIME_SHIFT_64ND_5
NOTE_OFF_63
VEL_2
NOTE_ON_67
TIME_SHIFT_64ND_5
NOTE_OFF_75
NOTE_OFF_67
VEL_5
NOTE_ON_77
VEL_3
NOTE_ON_58
TIME_SHIFT_64ND_5
NOTE_OFF_77
NOTE_OFF_58
VEL_4
NOTE_ON_79
VEL_2
NOTE_ON_62
TIME_SHIFT_64ND_5
NOTE_OFF_79
NOTE_OFF_62
VEL_4
NOTE_ON_80
VEL_2
NOTE_ON_65
TIME_SHIFT_64ND_4
NOTE_OFF_80
TIME_SHIFT_64ND_1
NOTE_OFF_65
VEL_5
NOTE_ON_80
VEL_3
NOTE_ON_58
TIME_SHIFT_64ND_5
NOTE_OFF_58
VEL_2
NOTE_ON_62
TIME_SHIFT_64ND_5
NOTE_OFF_62
VEL_2
NOTE_ON_65
TIME_SHIFT_64ND_5
NOTE_OFF_65
VEL_3
NOTE_ON_59
TIME_SHIFT_64ND_5
NOTE_OFF_59
VEL_2
NOTE_ON_62
TIME_SHIFT_64ND_5
NOTE_OFF_62
VEL_2
NOTE_ON_65
TIME_SHIFT_64ND_5
NOTE_OFF_80
NOTE_OFF_65
VEL_4
NOTE_ON_79
VEL_3
NOTE_ON_60
TIME_SHIFT_64ND_5
NOTE_OFF_60
VEL_2
NOTE_ON_62
TIME_SHIFT_64ND_5
NOTE_OFF_62
VEL_2
NOTE_ON_63
TIME_SHIFT_64ND_5
NOTE_OFF_79
NOTE_OFF_63
VEL_4
NOTE_ON_77
VEL_3
NOTE_ON_56
TIME_SHIFT_64ND_5
NOTE_OFF_77
VEL_5
NOTE_ON_84
TIME_SHIFT_64ND_5
NOTE_OFF_84
VEL_4
NOTE_ON_82
TIME_SHIFT_64ND_5
NOTE_OFF_82
NOTE_OFF_56
VEL_4
NOTE_ON_80
TIME_SHIFT_64ND_5
NOTE_OFF_80
VEL_4
NOTE_ON_79
TIME_SHIFT_64ND_5
NOTE_OFF_79
VEL_4
NOTE_ON_77
TIME_SHIFT_64ND_5
NOTE_OFF_77
VEL_4
NOTE_ON_75
VEL_3
NOTE_ON_67
VEL_2
NOTE_ON_58
TIME_SHIFT_64ND_15
NOTE_OFF_75
NOTE_OFF_67
VEL_3
NOTE_ON_74
VEL_2
NOTE_ON_68
TIME_SHIFT_64ND_15
NOTE_OFF_74
NOTE_OFF_68
NOTE_OFF_58
VEL_4
NOTE_ON_74
VEL_3
NOTE_ON_68
VEL_1
NOTE_ON_60
TIME_SHIFT_64ND_31
NOTE_OFF_74
NOTE_OFF_68
VEL_3
NOTE_ON_75
VEL_2
NOTE_ON_67
TIME_SHIFT_64ND_16
NOTE_OFF_75
NOTE_OFF_67
NOTE_OFF_60
TIME_SHIFT_64ND_16
VEL_4
NOTE_ON_56
TIME_SHIFT_64ND_15
VEL_2
NOTE_ON_48
VEL_3
NOTE_ON_51
TIME_SHIFT_64ND_7
NOTE_OFF_48
NOTE_OFF_51
TIME_SHIFT_64ND_7
VEL_3
NOTE_ON_48
VEL_3
NOTE_ON_51
TIME_SHIFT_64ND_5
NOTE_OFF_56
VEL_4
NOTE_ON_60
TIME_SHIFT_64ND_2
NOTE_OFF_48
NOTE_OFF_51
TIME_SHIFT_64ND_2
NOTE_OFF_60
VEL_3
NOTE_ON_58
TIME_SHIFT_64ND_5
NOTE_OFF_58
VEL_4
NOTE_ON_56
VEL_3
NOTE_ON_48
VEL_3
NOTE_ON_51
TIME_SHIFT_64ND_2
NOTE_OFF_56
TIME_SHIFT_64ND_2
VEL_3
NOTE_ON_56
TIME_SHIFT_64ND_2
NOTE_OFF_56
NOTE_OFF_48
NOTE_OFF_51
TIME_SHIFT_64ND_2
VEL_3
NOTE_ON_56
TIME_SHIFT_64ND_3
NOTE_OFF_56
TIME_SHIFT_64ND_3
VEL_4
NOTE_ON_56
TIME_SHIFT_64ND_15
VEL_2
NOTE_ON_50
VEL_3
NOTE_ON_53
VEL_2
NOTE_ON_46
TIME_SHIFT_64ND_7
NOTE_OFF_50
NOTE_OFF_53
NOTE_OFF_46
TIME_SHIFT_64ND_7
VEL_3
NOTE_ON_50
VEL_3
NOTE_ON_53
VEL_3
NOTE_ON_46
TIME_SHIFT_64ND_5
NOTE_OFF_56
VEL_4
NOTE_ON_65
TIME_SHIFT_64ND_2
NOTE_OFF_50
NOTE_OFF_53
NOTE_OFF_46
TIME_SHIFT_64ND_2
NOTE_OFF_65
VEL_3
NOTE_ON_62
TIME_SHIFT_64ND_5
NOTE_OFF_62
VEL_4
NOTE_ON_56
VEL_3
NOTE_ON_50
VEL_3
NOTE_ON_53
VEL_3
NOTE_ON_46
TIME_SHIFT_64ND_2
NOTE_OFF_56
TIME_SHIFT_64ND_2
VEL_3
NOTE_ON_56
TIME_SHIFT_64ND_2
NOTE_OFF_56
NOTE_OFF_50
NOTE_OFF_53
NOTE_OFF_46
TIME_SHIFT_64ND_2
VEL_3
NOTE_ON_56
TIME_SHIFT_64ND_3
NOTE_OFF_56
TIME_SHIFT_64ND_3
VEL_3
NOTE_ON_55
VEL_3
NOTE_ON_51
TIME_SHIFT_64ND_5
NOTE_OFF_55
VEL_3
NOTE_ON_58
TIME_SHIFT_64ND_5
NOTE_OFF_58
VEL_3
NOTE_ON_63
TIME_SHIFT_64ND_2
NOTE_OFF_63
TIME_SHIFT_64ND_2
NOTE_OFF_51
VEL_3
NOTE_ON_63
TIME_SHIFT_64ND_2
NOTE_OFF_63
TIME_SHIFT_64ND_2
VEL_3
NOTE_ON_63
TIME_SHIFT_64ND_2
NOTE_OFF_63
TIME_SHIFT_64ND_2
VEL_3
NOTE_ON_63
TIME_SHIFT_64ND_3
NOTE_OFF_63
TIME_SHIFT_64ND_3
VEL_3
NOTE_ON_62
VEL_3
NOTE_ON_53
VEL_2
NOTE_ON_46
TIME_SHIFT_64ND_5
NOTE_OFF_62
VEL_3
NOTE_ON_65
TIME_SHIFT_64ND_5
NOTE_OFF_65
VEL_3
NOTE_ON_68
TIME_SHIFT_64ND_2
NOTE_OFF_68
TIME_SHIFT_64ND_2
NOTE_OFF_53
NOTE_OFF_46
VEL_3
NOTE_ON_68
TIME_SHIFT_64ND_2
NOTE_OFF_68
TIME_SHIFT_64ND_2
VEL_3
NOTE_ON_68
TIME_SHIFT_64ND_2
NOTE_OFF_68
TIME_SHIFT_64ND_2
VEL_3
NOTE_ON_68
TIME_SHIFT_64ND_3
NOTE_OFF_68
TIME_SHIFT_64ND_3
VEL_4
NOTE_ON_67
VEL_3
NOTE_ON_55
VEL_3
NOTE_ON_51
TIME_SHIFT_64ND_5
NOTE_OFF_67
VEL_3
NOTE_ON_70
TIME_SHIFT_64ND_5
NOTE_OFF_70
VEL_3
NOTE_ON_75
TIME_SHIFT_64ND_2
NOTE_OFF_75
TIME_SHIFT_64ND_2
NOTE_OFF_55
NOTE_OFF_51
VEL_3
NOTE_ON_75
TIME_SHIFT_64ND_2
NOTE_OFF_75
TIME_SHIFT_64ND_2
VEL_3
NOTE_ON_75
TIME_SHIFT_64ND_2
NOTE_OFF_75
TIME_SHIFT_64ND_2
VEL_3
NOTE_ON_75
TIME_SHIFT_64ND_3
NOTE_OFF_75
TIME_SHIFT_64ND_3
VEL_4
NOTE_ON_74
VEL_3
NOTE_ON_53
VEL_3
NOTE_ON_46
TIME_SHIFT_64ND_5
NOTE_OFF_74
VEL_3
NOTE_ON_77
TIME_SHIFT_64ND_5
NOTE_OFF_77
VEL_3
NOTE_ON_80
TIME_SHIFT_64ND_2
NOTE_OFF_80
TIME_SHIFT_64ND_2
NOTE_OFF_53
NOTE_OFF_46
VEL_4
NOTE_ON_80
TIME_SHIFT_64ND_2
NOTE_OFF_80
TIME_SHIFT_64ND_2
VEL_3
NOTE_ON_80
TIME_SHIFT_64ND_2
NOTE_OFF_80
TIME_SHIFT_64ND_2
VEL_3
NOTE_ON_80
TIME_SHIFT_64ND_3
NOTE_OFF_80
TIME_SHIFT_64ND_3
VEL_4
NOTE_ON_79
VEL_3
NOTE_ON_55
VEL_3
NOTE_ON_51
TIME_SHIFT_64ND_5
NOTE_OFF_79
VEL_4
NOTE_ON_80
TIME_SHIFT_64ND_5
NOTE_OFF_80
VEL_3
NOTE_ON_82
TIME_SHIFT_64ND_5
NOTE_OFF_82
NOTE_OFF_55
NOTE_OFF_51
VEL_4
NOTE_ON_80
TIME_SHIFT_64ND_5
NOTE_OFF_80
VEL_4
NOTE_ON_79
TIME_SHIFT_64ND_5
NOTE_OFF_79
VEL_4
NOTE_ON_77
TIME_SHIFT_64ND_5
NOTE_OFF_77
VEL_4
NOTE_ON_75
TIME_SHIFT_64ND_5
NOTE_OFF_75
VEL_3
NOTE_ON_74
TIME_SHIFT_64ND_5
NOTE_OFF_74
VEL_3
NOTE_ON_72
TIME_SHIFT_64ND_5
NOTE_OFF_72
VEL_4
NOTE_ON_70
TIME_SHIFT_64ND_5
NOTE_OFF_70
VEL_3
NOTE_ON_68
TIME_SHIFT_64ND_5
NOTE_OFF_68
VEL_3
NOTE_ON_67
TIME_SHIFT_64ND_5
NOTE_OFF_67
VEL_4
NOTE_ON_65
TIME_SHIFT_64ND_15
VEL_2
NOTE_ON_44
VEL_3
NOTE_ON_56
TIME_SHIFT_64ND_8
NOTE_OFF_65
VEL_3
NOTE_ON_72
TIME_SHIFT_64ND_8
NOTE_OFF_72
NOTE_OFF_44
NOTE_OFF_56
VEL_3
NOTE_ON_63
VEL_3
NOTE_ON_55
VEL_2
NOTE_ON_46
TIME_SHIFT_64ND_15
NOTE_OFF_63
NOTE_OFF_55
NOTE_OFF_46
VEL_3
NOTE_ON_62
VEL_2
NOTE_ON_46
VEL_3
NOTE_ON_53
TIME_SHIFT_64ND_16
NOTE_OFF_62
NOTE_OFF_46
NOTE_OFF_53
VEL_5
NOTE_ON_75
VEL_3
NOTE_ON_63
TIME_SHIFT_64ND_5
NOTE_OFF_63
VEL_3
NOTE_ON_67
TIME_SHIFT_64ND_5
NOTE_OFF_67
VEL_3
NOTE_ON_65
TIME_SHIFT_64ND_5
NOTE_OFF_65
VEL_3
NOTE_ON_63
TIME_SHIFT_64ND_5
NOTE_OFF_63
VEL_3
NOTE_ON_62
TIME_SHIFT_64ND_5
NOTE_OFF_62
VEL_3
NOTE_ON_60
TIME_SHIFT_64ND_5
NOTE_OFF_60
VEL_3
NOTE_ON_58
TIME_SHIFT_64ND_5
NOTE_OFF_58
VEL_3
NOTE_ON_56
TIME_SHIFT_64ND_5
NOTE_OFF_56
VEL_3
NOTE_ON_55
TIME_SHIFT_64ND_5
NOTE_OFF_75
NOTE_OFF_55
VEL_3
NOTE_ON_74
VEL_4
NOTE_ON_77
VEL_3
NOTE_ON_53
TIME_SHIFT_64ND_5
NOTE_OFF_53
VEL_3
NOTE_ON_51
TIME_SHIFT_64ND_5
NOTE_OFF_51
VEL_3
NOTE_ON_50
TIME_SHIFT_64ND_5
NOTE_OFF_74
NOTE_OFF_77
NOTE_OFF_50
VEL_4
NOTE_ON_75
VEL_5
NOTE_ON_79
VEL_3
NOTE_ON_48
TIME_SHIFT_64ND_5
NOTE_OFF_48
VEL_3
NOTE_ON_63
TIME_SHIFT_64ND_5
NOTE_OFF_63
VEL_3
NOTE_ON_62
TIME_SHIFT_64ND_5
NOTE_OFF_62
VEL_3
NOTE_ON_60
TIME_SHIFT_64ND_5
NOTE_OFF_60
VEL_3
NOTE_ON_58
TIME_SHIFT_64ND_5
NOTE_OFF_58
VEL_3
NOTE_ON_56
TIME_SHIFT_64ND_5
NOTE_OFF_56
VEL_3
NOTE_ON_55
TIME_SHIFT_64ND_5
NOTE_OFF_55
VEL_3
NOTE_ON_53
TIME_SHIFT_64ND_5
NOTE_OFF_53
VEL_3
NOTE_ON_51
TIME_SHIFT_64ND_5
NOTE_OFF_75
NOTE_OFF_79
NOTE_OFF_51
VEL_3
NOTE_ON_77
VEL_4
NOTE_ON_80
VEL_3
NOTE_ON_50
TIME_SHIFT_64ND_5
NOTE_OFF_50
VEL_3
NOTE_ON_48
TIME_SHIFT_64ND_5
NOTE_OFF_48
VEL_3
NOTE_ON_46
TIME_SHIFT_64ND_5
NOTE_OFF_77
NOTE_OFF_80
NOTE_OFF_46
VEL_4
NOTE_ON_82
VEL_3
NOTE_ON_79
VEL_3
NOTE_ON_44
TIME_SHIFT_64ND_5
NOTE_OFF_82
NOTE_OFF_79
VEL_3
NOTE_ON_77
VEL_4
NOTE_ON_80
TIME_SHIFT_64ND_5
NOTE_OFF_77
NOTE_OFF_80
VEL_3
NOTE_ON_79
VEL_4
NOTE_ON_82
TIME_SHIFT_64ND_5
NOTE_OFF_79
NOTE_OFF_82
VEL_4
NOTE_ON_84
VEL_3
NOTE_ON_80
TIME_SHIFT_64ND_5
NOTE_OFF_84
NOTE_OFF_80
VEL_4
NOTE_ON_82
VEL_3
NOTE_ON_79
TIME_SHIFT_64ND_5
NOTE_OFF_82
NOTE_OFF_79
VEL_4
NOTE_ON_80
VEL_3
NOTE_ON_77
TIME_SHIFT_64ND_5
NOTE_OFF_80
NOTE_OFF_77
NOTE_OFF_44
VEL_3
NOTE_ON_75
VEL_4
NOTE_ON_79
VEL_3
NOTE_ON_46
TIME_SHIFT_64ND_15
NOTE_OFF_75
NOTE_OFF_79
NOTE_OFF_46
VEL_3
NOTE_ON_74
VEL_4
NOTE_ON_77
VEL_3
NOTE_ON_46
TIME_SHIFT_64ND_16
NOTE_OFF_74
NOTE_OFF_77
NOTE_OFF_46
VEL_5
NOTE_ON_75
VEL_3
NOTE_ON_63
TIME_SHIFT_64ND_5
NOTE_OFF_63
VEL_3
NOTE_ON_67
TIME_SHIFT_64ND_5
NOTE_OFF_67
VEL_2
NOTE_ON_65
TIME_SHIFT_64ND_5
NOTE_OFF_65
VEL_3
NOTE_ON_63
TIME_SHIFT_64ND_5
NOTE_OFF_63
VEL_3
NOTE_ON_62
TIME_SHIFT_64ND_5
NOTE_OFF_62
VEL_3
NOTE_ON_60
TIME_SHIFT_64ND_5
NOTE_OFF_60
VEL_3
NOTE_ON_58
TIME_SHIFT_64ND_5
NOTE_OFF_58
VEL_3
NOTE_ON_56
TIME_SHIFT_64ND_5
NOTE_OFF_56
VEL_3
NOTE_ON_55
TIME_SHIFT_64ND_5
NOTE_OFF_75
NOTE_OFF_55
VEL_3
NOTE_ON_74
VEL_4
NOTE_ON_77
VEL_3
NOTE_ON_53
TIME_SHIFT_64ND_5
NOTE_OFF_53
VEL_3
NOTE_ON_51
TIME_SHIFT_64ND_5
NOTE_OFF_51
VEL_3
NOTE_ON_50
TIME_SHIFT_64ND_5
NOTE_OFF_74
NOTE_OFF_77
NOTE_OFF_50
VEL_4
NOTE_ON_75
VEL_5
NOTE_ON_79
VEL_3
NOTE_ON_48
TIME_SHIFT_64ND_5
NOTE_OFF_48
VEL_3
NOTE_ON_63
TIME_SHIFT_64ND_5
NOTE_OFF_63
VEL_3
NOTE_ON_62
TIME_SHIFT_64ND_5
NOTE_OFF_62
VEL_3
NOTE_ON_60
TIME_SHIFT_64ND_5
NOTE_OFF_60
VEL_3
NOTE_ON_58
TIME_SHIFT_64ND_5
NOTE_OFF_58
VEL_3
NOTE_ON_56
TIME_SHIFT_64ND_5
NOTE_OFF_56
VEL_3
NOTE_ON_55
TIME_SHIFT_64ND_5
NOTE_OFF_55
VEL_3
NOTE_ON_53
TIME_SHIFT_64ND_5
NOTE_OFF_53
VEL_3
NOTE_ON_51
TIME_SHIFT_64ND_5
NOTE_OFF_75
NOTE_OFF_79
NOTE_OFF_51
VEL_3
NOTE_ON_77
VEL_4
NOTE_ON_80
VEL_3
NOTE_ON_50
TIME_SHIFT_64ND_5
NOTE_OFF_50
VEL_3
NOTE_ON_48
TIME_SHIFT_64ND_5
NOTE_OFF_48
VEL_3
NOTE_ON_46
TIME_SHIFT_64ND_5
NOTE_OFF_77
NOTE_OFF_80
NOTE_OFF_46
VEL_4
NOTE_ON_82
VEL_3
NOTE_ON_79
VEL_3
NOTE_ON_44
TIME_SHIFT_64ND_5
NOTE_OFF_82
NOTE_OFF_79
VEL_3
NOTE_ON_77
VEL_4
NOTE_ON_80
TIME_SHIFT_64ND_5
NOTE_OFF_77
NOTE_OFF_80
VEL_3
NOTE_ON_79
VEL_4
NOTE_ON_82
TIME_SHIFT_64ND_5
NOTE_OFF_79
NOTE_OFF_82
VEL_4
NOTE_ON_84
VEL_3
NOTE_ON_80
TIME_SHIFT_64ND_5
NOTE_OFF_84
NOTE_OFF_80
VEL_4
NOTE_ON_82
VEL_3
NOTE_ON_79
TIME_SHIFT_64ND_5
NOTE_OFF_82
NOTE_OFF_79
VEL_4
NOTE_ON_80
VEL_3
NOTE_ON_77
TIME_SHIFT_64ND_5
NOTE_OFF_80
NOTE_OFF_77
NOTE_OFF_44
VEL_3
NOTE_ON_75
VEL_4
NOTE_ON_79
VEL_3
NOTE_ON_46
TIME_SHIFT_64ND_15
NOTE_OFF_75
NOTE_OFF_79
NOTE_OFF_46
VEL_3
NOTE_ON_74
VEL_4
NOTE_ON_77
VEL_3
NOTE_ON_46
TIME_SHIFT_64ND_16
NOTE_OFF_74
NOTE_OFF_77
NOTE_OFF_46
VEL_3
NOTE_ON_75
VEL_2
NOTE_ON_63
TIME_SHIFT_64ND_5
NOTE_OFF_63
VEL_1
NOTE_ON_67
TIME_SHIFT_64ND_5
NOTE_OFF_67
VEL_1
NOTE_ON_70
TIME_SHIFT_64ND_5
NOTE_OFF_70
VEL_2
NOTE_ON_63
TIME_SHIFT_64ND_5
NOTE_OFF_63
VEL_2
NOTE_ON_67
TIME_SHIFT_64ND_5
NOTE_OFF_67
VEL_2
NOTE_ON_70
TIME_SHIFT_64ND_5
NOTE_OFF_70
VEL_2
NOTE_ON_63
TIME_SHIFT_64ND_5
NOTE_OFF_63
VEL_1
NOTE_ON_67
TIME_SHIFT_64ND_5
NOTE_OFF_67
VEL_1
NOTE_ON_70
TIME_SHIFT_64ND_3
NOTE_OFF_75
VEL_4
NOTE_ON_79
TIME_SHIFT_64ND_2
NOTE_OFF_79
NOTE_OFF_70
VEL_3
NOTE_ON_77
VEL_2
NOTE_ON_63
TIME_SHIFT_64ND_5
NOTE_OFF_63
VEL_2
NOTE_ON_68
TIME_SHIFT_64ND_5
NOTE_OFF_68
VEL_2
NOTE_ON_74
TIME_SHIFT_64ND_5
NOTE_OFF_77
NOTE_OFF_74
VEL_3
NOTE_ON_75
VEL_2
NOTE_ON_63
TIME_SHIFT_64ND_5
NOTE_OFF_63
VEL_1
NOTE_ON_67
TIME_SHIFT_64ND_5
NOTE_OFF_67
VEL_1
NOTE_ON_70
TIME_SHIFT_64ND_5
NOTE_OFF_75
NOTE_OFF_70
VEL_3
NOTE_ON_75
VEL_2
NOTE_ON_63
TIME_SHIFT_64ND_5
NOTE_OFF_63
VEL_1
NOTE_ON_67
TIME_SHIFT_64ND_5
NOTE_OFF_67
VEL_1
NOTE_ON_70
TIME_SHIFT_64ND_5
NOTE_OFF_75
NOTE_OFF_70
VEL_3
NOTE_ON_75
VEL_2
NOTE_ON_63
TIME_SHIFT_64ND_5
NOTE_OFF_63
VEL_1
NOTE_ON_67
TIME_SHIFT_64ND_5
NOTE_OFF_67
VEL_1
NOTE_ON_70
TIME_SHIFT_64ND_5
NOTE_OFF_75
NOTE_OFF_70
VEL_3
NOTE_ON_80
VEL_2
NOTE_ON_63
TIME_SHIFT_64ND_4
NOTE_OFF_80
VEL_3
NOTE_ON_77
TIME_SHIFT_64ND_1
NOTE_OFF_63
VEL_1
NOTE_ON_68
TIME_SHIFT_64ND_5
NOTE_OFF_68
VEL_1
NOTE_ON_74
TIME_SHIFT_64ND_5
NOTE_OFF_77
NOTE_OFF_74
VEL_3
NOTE_ON_82
VEL_2
NOTE_ON_63
TIME_SHIFT_64ND_5
NOTE_OFF_63
VEL_1
NOTE_ON_67
TIME_SHIFT_64ND_5
NOTE_OFF_67
VEL_1
NOTE_ON_70
TIME_SHIFT_64ND_5
NOTE_OFF_82
NOTE_OFF_70
VEL_3
NOTE_ON_82
VEL_2
NOTE_ON_63
TIME_SHIFT_64ND_5
NOTE_OFF_63
VEL_1
NOTE_ON_67
TIME_SHIFT_64ND_5
NOTE_OFF_67
VEL_1
NOTE_ON_70
TIME_SHIFT_64ND_5
NOTE_OFF_82
NOTE_OFF_70
VEL_3
NOTE_ON_82
VEL_2
NOTE_ON_63
TIME_SHIFT_64ND_5
NOTE_OFF_63
VEL_1
NOTE_ON_67
TIME_SHIFT_64ND_5
NOTE_OFF_67
VEL_1
NOTE_ON_70
TIME_SHIFT_64ND_5
NOTE_OFF_82
NOTE_OFF_70
VEL_3
NOTE_ON_80
VEL_2
NOTE_ON_63
TIME_SHIFT_64ND_4
NOTE_OFF_80
VEL_3
NOTE_ON_77
TIME_SHIFT_64ND_1
NOTE_OFF_63
VEL_1
NOTE_ON_68
TIME_SHIFT_64ND_5
NOTE_OFF_68
VEL_1
NOTE_ON_74
TIME_SHIFT_64ND_5
NOTE_OFF_77
NOTE_OFF_74
VEL_3
NOTE_ON_75
VEL_2
NOTE_ON_63
TIME_SHIFT_64ND_5
NOTE_OFF_63
VEL_1
NOTE_ON_67
TIME_SHIFT_64ND_5
NOTE_OFF_67
VEL_1
NOTE_ON_70
TIME_SHIFT_64ND_5
NOTE_OFF_70
VEL_2
NOTE_ON_63
TIME_SHIFT_64ND_5
NOTE_OFF_63
VEL_1
NOTE_ON_67
TIME_SHIFT_64ND_5
NOTE_OFF_67
VEL_1
NOTE_ON_70
TIME_SHIFT_64ND_5
NOTE_OFF_70
VEL_2
NOTE_ON_63
TIME_SHIFT_64ND_5
NOTE_OFF_63
VEL_1
NOTE_ON_67
TIME_SHIFT_64ND_5
NOTE_OFF_67
VEL_1
NOTE_ON_70
TIME_SHIFT_64ND_3
NOTE_OFF_75
VEL_3
NOTE_ON_79
TIME_SHIFT_64ND_2
NOTE_OFF_79
NOTE_OFF_70
VEL_3
NOTE_ON_77
VEL_2
NOTE_ON_63
TIME_SHIFT_64ND_5
NOTE_OFF_63
VEL_1
NOTE_ON_68
TIME_SHIFT_64ND_5
NOTE_OFF_68
VEL_1
NOTE_ON_74
TIME_SHIFT_64ND_5
NOTE_OFF_77
NOTE_OFF_74
VEL_3
NOTE_ON_75
VEL_2
NOTE_ON_63
TIME_SHIFT_64ND_5
NOTE_OFF_63
VEL_1
NOTE_ON_67
TIME_SHIFT_64ND_5
NOTE_OFF_67
VEL_1
NOTE_ON_70
TIME_SHIFT_64ND_5
NOTE_OFF_75
NOTE_OFF_70
VEL_3
NOTE_ON_75
VEL_2
NOTE_ON_63
TIME_SHIFT_64ND_5
NOTE_OFF_63
VEL_1
NOTE_ON_67
TIME_SHIFT_64ND_5
NOTE_OFF_67
VEL_1
NOTE_ON_70
TIME_SHIFT_64ND_5
NOTE_OFF_75
NOTE_OFF_70
VEL_3
NOTE_ON_75
VEL_2
NOTE_ON_63
TIME_SHIFT_64ND_5
NOTE_OFF_63
VEL_1
NOTE_ON_67
TIME_SHIFT_64ND_5
NOTE_OFF_67
VEL_1
NOTE_ON_70
TIME_SHIFT_64ND_5
NOTE_OFF_75
NOTE_OFF_70
VEL_3
NOTE_ON_80
VEL_2
NOTE_ON_63
TIME_SHIFT_64ND_4
NOTE_OFF_80
VEL_3
NOTE_ON_77
TIME_SHIFT_64ND_1
NOTE_OFF_63
VEL_1
NOTE_ON_68
TIME_SHIFT_64ND_5
NOTE_OFF_68
VEL_1
NOTE_ON_74
TIME_SHIFT_64ND_5
NOTE_OFF_77
NOTE_OFF_74
VEL_3
NOTE_ON_82
VEL_2
NOTE_ON_63
TIME_SHIFT_64ND_5
NOTE_OFF_63
VEL_1
NOTE_ON_67
TIME_SHIFT_64ND_5
NOTE_OFF_67
VEL_1
NOTE_ON_70
TIME_SHIFT_64ND_5
NOTE_OFF_82
NOTE_OFF_70
VEL_3
NOTE_ON_82
VEL_2
NOTE_ON_63
TIME_SHIFT_64ND_5
NOTE_OFF_63
VEL_1
NOTE_ON_67
TIME_SHIFT_64ND_5
NOTE_OFF_67
VEL_1
NOTE_ON_70
TIME_SHIFT_64ND_5
NOTE_OFF_82
NOTE_OFF_70
VEL_3
NOTE_ON_82
VEL_2
NOTE_ON_63
TIME_SHIFT_64ND_5
NOTE_OFF_63
VEL_1
NOTE_ON_67
TIME_SHIFT_64ND_5
NOTE_OFF_67
VEL_1
NOTE_ON_70
TIME_SHIFT_64ND_5
NOTE_OFF_82
NOTE_OFF_70
VEL_3
NOTE_ON_80
VEL_2
NOTE_ON_63
TIME_SHIFT_64ND_4
NOTE_OFF_80
VEL_3
NOTE_ON_77
TIME_SHIFT_64ND_1
NOTE_OFF_63
VEL_1
NOTE_ON_68
TIME_SHIFT_64ND_5
NOTE_OFF_68
VEL_1
NOTE_ON_74
TIME_SHIFT_64ND_5
NOTE_OFF_77
NOTE_OFF_74
VEL_3
NOTE_ON_75
VEL_1
NOTE_ON_63
TIME_SHIFT_64ND_5
NOTE_OFF_63
VEL_1
NOTE_ON_67
TIME_SHIFT_64ND_5
NOTE_OFF_67
VEL_1
NOTE_ON_70
TIME_SHIFT_64ND_5
NOTE_OFF_70
VEL_1
NOTE_ON_63
TIME_SHIFT_64ND_5
NOTE_OFF_63
VEL_1
NOTE_ON_67
TIME_SHIFT_64ND_5
NOTE_OFF_67
VEL_1
NOTE_ON_70
TIME_SHIFT_64ND_5
NOTE_OFF_70
VEL_1
NOTE_ON_63
TIME_SHIFT_64ND_5
NOTE_OFF_63
VEL_1
NOTE_ON_67
TIME_SHIFT_64ND_5
NOTE_OFF_67
VEL_1
NOTE_ON_70
TIME_SHIFT_64ND_3
NOTE_OFF_75
VEL_3
NOTE_ON_79
TIME_SHIFT_64ND_2
NOTE_OFF_79
NOTE_OFF_70
VEL_2
NOTE_ON_77
VEL_1
NOTE_ON_63
TIME_SHIFT_64ND_5
NOTE_OFF_63
VEL_1
NOTE_ON_68
TIME_SHIFT_64ND_5
NOTE_OFF_68
VEL_1
NOTE_ON_74
TIME_SHIFT_64ND_5
NOTE_OFF_77
NOTE_OFF_74
VEL_3
NOTE_ON_75
VEL_1
NOTE_ON_63
VEL_1
NOTE_ON_67
TIME_SHIFT_64ND_15
NOTE_OFF_75
NOTE_OFF_63
NOTE_OFF_67
VEL_2
NOTE_ON_82
VEL_2
NOTE_ON_79
TIME_SHIFT_64ND_15
NOTE_OFF_82
NOTE_OFF_79
VEL_2
NOTE_ON_82
VEL_2
NOTE_ON_79
TIME_SHIFT_64ND_16
NOTE_OFF_82
NOTE_OFF_79
VEL_1
NOTE_ON_43
VEL_1
NOTE_ON_39
TIME_SHIFT_64ND_16
NOTE_OFF_43
NOTE_OFF_39
VEL_1
NOTE_ON_43
VEL_1
NOTE_ON_39
TIME_SHIFT_64ND_16
NOTE_OFF_43
NOTE_OFF_39
TIME_SHIFT_64ND_33
VEL_4
NOTE_ON_63
TIME_SHIFT_64ND_11
NOTE_OFF_63
VEL_4
NOTE_ON_60
TIME_SHIFT_64ND_4
NOTE_OFF_60
VEL_4
NOTE_ON_68
VEL_3
NOTE_ON_56
VEL_3
NOTE_ON_44
TIME_SHIFT_64ND_11
NOTE_OFF_68
VEL_4
NOTE_ON_68
TIME_SHIFT_64ND_4
NOTE_OFF_68
NOTE_OFF_56
NOTE_OFF_44
VEL_4
NOTE_ON_68
TIME_SHIFT_64ND_2
NOTE_OFF_68
VEL_3
NOTE_ON_70
TIME_SHIFT_64ND_2
NOTE_OFF_70
VEL_4
NOTE_ON_68
TIME_SHIFT_64ND_2
NOTE_OFF_68
VEL_3
NOTE_ON_70
TIME_SHIFT_64ND_2
NOTE_OFF_70
VEL_4
NOTE_ON_68
TIME_SHIFT_64ND_1
NOTE_OFF_68
VEL_3
NOTE_ON_70
TIME_SHIFT_64ND_1
NOTE_OFF_70
VEL_4
NOTE_ON_68
TIME_SHIFT_64ND_1
NOTE_OFF_68
VEL_4
NOTE_ON_67
TIME_SHIFT_64ND_2
NOTE_OFF_67
VEL_3
NOTE_ON_68
TIME_SHIFT_64ND_2
NOTE_OFF_68
VEL_4
NOTE_ON_70
VEL_3
NOTE_ON_55
VEL_3
NOTE_ON_43
TIME_SHIFT_64ND_15
NOTE_OFF_70
NOTE_OFF_55
NOTE_OFF_43
VEL_4
NOTE_ON_63
TIME_SHIFT_64ND_11
NOTE_OFF_63
VEL_4
NOTE_ON_75
TIME_SHIFT_64ND_4
NOTE_OFF_75
VEL_5
NOTE_ON_73
TIME_SHIFT_64ND_15
VEL_2
NOTE_ON_44
TIME_SHIFT_64ND_15
NOTE_OFF_73
NOTE_OFF_44
VEL_4
NOTE_ON_72
VEL_3
NOTE_ON_56
TIME_SHIFT_64ND_5
NOTE_OFF_72
NOTE_OFF_56
TIME_SHIFT_64ND_9
VEL_3
NOTE_ON_68
TIME_SHIFT_64ND_11
NOTE_OFF_68
VEL_2
NOTE_ON_77
TIME_SHIFT_64ND_4
NOTE_OFF_77
VEL_3
NOTE_ON_75
TIME_SHIFT_64ND_15
VEL_1
NOTE_ON_58
TIME_SHIFT_64ND_15
NOTE_OFF_75
NOTE_OFF_58
VEL_3
NOTE_ON_73
VEL_2
NOTE_ON_55
TIME_SHIFT_64ND_5
NOTE_OFF_73
NOTE_OFF_55
TIME_SHIFT_64ND_9
VEL_4
NOTE_ON_63
TIME_SHIFT_64ND_11
NOTE_OFF_63
VEL_4
NOTE_ON_75
TIME_SHIFT_64ND_4
NOTE_OFF_75
VEL_5
NOTE_ON_73
TIME_SHIFT_64ND_15
VEL_2
NOTE_ON_56
TIME_SHIFT_64ND_15
NOTE_OFF_73
NOTE_OFF_56
VEL_4
NOTE_ON_72
VEL_3
NOTE_ON_44
TIME_SHIFT_64ND_6
NOTE_OFF_72
NOTE_OFF_44
TIME_SHIFT_64ND_9
VEL_5
NOTE_ON_80
VEL_3
NOTE_ON_48
TIME_SHIFT_64ND_11
NOTE_OFF_80
VEL_4
NOTE_ON_72
TIME_SHIFT_64ND_4
NOTE_OFF_72
NOTE_OFF_48
VEL_4
NOTE_ON_70
VEL_3
NOTE_ON_49
TIME_SHIFT_64ND_11
NOTE_OFF_70
VEL_4
NOTE_ON_70
TIME_SHIFT_64ND_4
NOTE_OFF_70
VEL_4
NOTE_ON_70
TIME_SHIFT_64ND_2
NOTE_OFF_70
VEL_3
NOTE_ON_72
TIME_SHIFT_64ND_2
NOTE_OFF_72
VEL_4
NOTE_ON_70
TIME_SHIFT_64ND_2
NOTE_OFF_70
VEL_3
NOTE_ON_72
TIME_SHIFT_64ND_2
NOTE_OFF_72
VEL_4
NOTE_ON_70
TIME_SHIFT_64ND_1
NOTE_OFF_70
VEL_3
NOTE_ON_72
TIME_SHIFT_64ND_1
NOTE_OFF_72
VEL_4
NOTE_ON_70
TIME_SHIFT_64ND_1
NOTE_OFF_70
VEL_4
NOTE_ON_69
TIME_SHIFT_64ND_2
NOTE_OFF_69
VEL_3
NOTE_ON_70
TIME_SHIFT_64ND_2
NOTE_OFF_70
NOTE_OFF_49
VEL_4
NOTE_ON_73
TIME_SHIFT_64ND_11
NOTE_OFF_73
VEL_4
NOTE_ON_70
TIME_SHIFT_64ND_4
NOTE_OFF_70
VEL_4
NOTE_ON_67
VEL_3
NOTE_ON_51
TIME_SHIFT_64ND_11
NOTE_OFF_67
VEL_4
NOTE_ON_63
TIME_SHIFT_64ND_4
NOTE_OFF_63
NOTE_OFF_51
VEL_5
NOTE_ON_68
TIME_SHIFT_64ND_11
NOTE_OFF_68
VEL_2
NOTE_ON_44
TIME_SHIFT_64ND_4
NOTE_OFF_44
VEL_3
NOTE_ON_48
TIME_SHIFT_64ND_11
NOTE_OFF_48
VEL_3
NOTE_ON_51
TIME_SHIFT_64ND_4
NOTE_OFF_51
VEL_3
NOTE_ON_56
TIME_SHIFT_64ND_11
NOTE_OFF_56
TIME_SHIFT_64ND_4
VEL_4
NOTE_ON_63
TIME_SHIFT_64ND_11
NOTE_OFF_63
VEL_4
NOTE_ON_60
TIME_SHIFT_64ND_4
NOTE_OFF_60
VEL_4
NOTE_ON_68
VEL_3
NOTE_ON_60
VEL_3
NOTE_ON_56
TIME_SHIFT_64ND_11
NOTE_OFF_68
VEL_4
NOTE_ON_68
TIME_SHIFT_64ND_4
NOTE_OFF_68
NOTE_OFF_60
NOTE_OFF_56
VEL_4
NOTE_ON_68
TIME_SHIFT_64ND_2
NOTE_OFF_68
VEL_3
NOTE_ON_70
TIME_SHIFT_64ND_2
NOTE_OFF_70
VEL_4
NOTE_ON_68
TIME_SHIFT_64ND_2
NOTE_OFF_68
VEL_3
NOTE_ON_70
TIME_SHIFT_64ND_2
NOTE_OFF_70
VEL_4
NOTE_ON_68
TIME_SHIFT_64ND_1
NOTE_OFF_68
VEL_3
NOTE_ON_70
TIME_SHIFT_64ND_1
NOTE_OFF_70
VEL_4
NOTE_ON_68
TIME_SHIFT_64ND_1
NOTE_OFF_68
VEL_4
NOTE_ON_67
TIME_SHIFT_64ND_2
NOTE_OFF_67
VEL_3
NOTE_ON_68
TIME_SHIFT_64ND_2
NOTE_OFF_68
VEL_4
NOTE_ON_70
VEL_3
NOTE_ON_58
VEL_3
NOTE_ON_55
TIME_SHIFT_64ND_15
NOTE_OFF_70
NOTE_OFF_58
NOTE_OFF_55
VEL_4
NOTE_ON_63
TIME_SHIFT_64ND_11
NOTE_OFF_63
VEL_4
NOTE_ON_75
TIME_SHIFT_64ND_4
NOTE_OFF_75
VEL_5
NOTE_ON_73
TIME_SHIFT_64ND_15
VEL_2
NOTE_ON_44
TIME_SHIFT_64ND_15
NOTE_OFF_73
NOTE_OFF_44
VEL_4
NOTE_ON_72
VEL_3
NOTE_ON_56
TIME_SHIFT_64ND_6
NOTE_OFF_72
TIME_SHIFT_64ND_9
NOTE_OFF_56
VEL_4
NOTE_ON_68
VEL_3
NOTE_ON_60
TIME_SHIFT_64ND_11
NOTE_OFF_68
VEL_4
NOTE_ON_80
TIME_SHIFT_64ND_4
NOTE_OFF_80
NOTE_OFF_60
VEL_4
NOTE_ON_79
TIME_SHIFT_64ND_15
NOTE_OFF_79
VEL_4
NOTE_ON_77
VEL_3
NOTE_ON_61
TIME_SHIFT_64ND_4
NOTE_OFF_77
NOTE_OFF_61
TIME_SHIFT_64ND_7
VEL_4
NOTE_ON_80
TIME_SHIFT_64ND_4
NOTE_OFF_80
VEL_4
NOTE_ON_77
TIME_SHIFT_64ND_15
NOTE_OFF_77
VEL_4
NOTE_ON_75
VEL_3
NOTE_ON_60
TIME_SHIFT_64ND_4
NOTE_OFF_75
NOTE_OFF_60
TIME_SHIFT_64ND_7
VEL_4
NOTE_ON_80
TIME_SHIFT_64ND_4
NOTE_OFF_80
VEL_4
NOTE_ON_75
TIME_SHIFT_64ND_15
NOTE_OFF_75
VEL_4
NOTE_ON_73
VEL_3
NOTE_ON_58
TIME_SHIFT_64ND_4
NOTE_OFF_73
NOTE_OFF_58
TIME_SHIFT_64ND_7
VEL_4
NOTE_ON_80
TIME_SHIFT_64ND_4
NOTE_OFF_80
VEL_4
NOTE_ON_73
TIME_SHIFT_64ND_15
NOTE_OFF_73
VEL_4
NOTE_ON_72
VEL_3
NOTE_ON_56
TIME_SHIFT_64ND_4
NOTE_OFF_72
NOTE_OFF_56
TIME_SHIFT_64ND_7
VEL_4
NOTE_ON_80
TIME_SHIFT_64ND_4
NOTE_OFF_80
VEL_4
NOTE_ON_72
TIME_SHIFT_64ND_11
NOTE_OFF_72
VEL_4
NOTE_ON_70
TIME_SHIFT_64ND_4
NOTE_OFF_70
VEL_4
NOTE_ON_73
VEL_3
NOTE_ON_49
VEL_3
NOTE_ON_61
TIME_SHIFT_64ND_11
NOTE_OFF_73
VEL_4
NOTE_ON_77
TIME_SHIFT_64ND_4
NOTE_OFF_77
NOTE_OFF_49
NOTE_OFF_61
VEL_4
NOTE_ON_75
VEL_3
NOTE_ON_60
VEL_3
NOTE_ON_51
TIME_SHIFT_64ND_15
NOTE_OFF_75
NOTE_OFF_60
VEL_4
NOTE_ON_67
VEL_3
NOTE_ON_58
TIME_SHIFT_64ND_14
NOTE_OFF_67
VEL_2
NOTE_ON_67
TIME_SHIFT_64ND_1
NOTE_OFF_67
NOTE_OFF_58
NOTE_OFF_51
VEL_4
NOTE_ON_68
VEL_3
NOTE_ON_56
TIME_SHIFT_64ND_4
NOTE_OFF_68
TIME_SHIFT_64ND_1
NOTE_OFF_56
VEL_2
NOTE_ON_60
TIME_SHIFT_64ND_5
NOTE_OFF_60
VEL_2
NOTE_ON_63
TIME_SHIFT_64ND_4
VEL_3
NOTE_ON_67
TIME_SHIFT_64ND_1
NOTE_OFF_67
NOTE_OFF_63
VEL_4
NOTE_ON_68
VEL_3
NOTE_ON_56
TIME_SHIFT_64ND_4
NOTE_OFF_68
TIME_SHIFT_64ND_1
NOTE_OFF_56
VEL_2
NOTE_ON_60
TIME_SHIFT_64ND_5
NOTE_OFF_60
VEL_3
NOTE_ON_63
TIME_SHIFT_64ND_4
VEL_3
NOTE_ON_67
TIME_SHIFT_64ND_1
NOTE_OFF_67
NOTE_OFF_63
VEL_4
NOTE_ON_68
VEL_3
NOTE_ON_56
TIME_SHIFT_64ND_4
NOTE_OFF_68
TIME_SHIFT_64ND_1
NOTE_OFF_56
VEL_3
NOTE_ON_60
TIME_SHIFT_64ND_5
NOTE_OFF_60
VEL_3
NOTE_ON_63
TIME_SHIFT_64ND_4
VEL_3
NOTE_ON_69
TIME_SHIFT_64ND_1
NOTE_OFF_69
NOTE_OFF_63
VEL_4
NOTE_ON_70
VEL_3
NOTE_ON_55
TIME_SHIFT_64ND_4
NOTE_OFF_70
TIME_SHIFT_64ND_1
NOTE_OFF_55
VEL_3
NOTE_ON_58
TIME_SHIFT_64ND_5
NOTE_OFF_58
VEL_3
NOTE_ON_63
TIME_SHIFT_64ND_5
NOTE_OFF_63
VEL_4
NOTE_ON_71
VEL_3
NOTE_ON_56
TIME_SHIFT_64ND_5
NOTE_OFF_56
VEL_2
NOTE_ON_60
TIME_SHIFT_64ND_5
NOTE_OFF_60
VEL_2
NOTE_ON_63
TIME_SHIFT_64ND_5
NOTE_OFF_71
NOTE_OFF_63
VEL_4
NOTE_ON_72
VEL_3
NOTE_ON_56
TIME_SHIFT_64ND_5
NOTE_OFF_56
VEL_2
NOTE_ON_60
TIME_SHIFT_64ND_5
NOTE_OFF_60
VEL_2
NOTE_ON_63
TIME_SHIFT_64ND_5
NOTE_OFF_72
NOTE_OFF_63
VEL_3
NOTE_ON_68
VEL_3
NOTE_ON_56
TIME_SHIFT_64ND_5
NOTE_OFF_56
VEL_2
NOTE_ON_60
TIME_SHIFT_64ND_5
NOTE_OFF_60
VEL_2
NOTE_ON_63
TIME_SHIFT_64ND_5
NOTE_OFF_63
VEL_3
NOTE_ON_56
TIME_SHIFT_64ND_5
NOTE_OFF_56
VEL_2
NOTE_ON_60
TIME_SHIFT_64ND_5
NOTE_OFF_60
VEL_2
NOTE_ON_63
TIME_SHIFT_64ND_4
VEL_2
NOTE_ON_71
TIME_SHIFT_64ND_1
NOTE_OFF_71
NOTE_OFF_68
NOTE_OFF_63
VEL_4
NOTE_ON_72
VEL_3
NOTE_ON_56
TIME_SHIFT_64ND_4
NOTE_OFF_72
TIME_SHIFT_64ND_1
NOTE_OFF_56
VEL_2
NOTE_ON_60
TIME_SHIFT_64ND_5
NOTE_OFF_60
VEL_2
NOTE_ON_63
TIME_SHIFT_64ND_4
VEL_3
NOTE_ON_71
TIME_SHIFT_64ND_1
NOTE_OFF_71
NOTE_OFF_63
VEL_4
NOTE_ON_72
VEL_3
NOTE_ON_56
TIME_SHIFT_64ND_4
NOTE_OFF_72
TIME_SHIFT_64ND_1
NOTE_OFF_56
VEL_2
NOTE_ON_60
TIME_SHIFT_64ND_5
NOTE_OFF_60
VEL_3
NOTE_ON_63
TIME_SHIFT_64ND_4
VEL_3
NOTE_ON_71
TIME_SHIFT_64ND_1
NOTE_OFF_71
NOTE_OFF_63
VEL_4
NOTE_ON_72
VEL_3
NOTE_ON_56
TIME_SHIFT_64ND_3
NOTE_OFF_72
TIME_SHIFT_64ND_1
NOTE_OFF_56
VEL_3
NOTE_ON_60
TIME_SHIFT_64ND_5
NOTE_OFF_60
VEL_3
NOTE_ON_63
TIME_SHIFT_64ND_5
NOTE_OFF_63
VEL_4
NOTE_ON_75
VEL_3
NOTE_ON_58
TIME_SHIFT_64ND_3
NOTE_OFF_75
VEL_4
NOTE_ON_73
TIME_SHIFT_64ND_1
NOTE_OFF_58
VEL_3
NOTE_ON_61
TIME_SHIFT_64ND_2
NOTE_OFF_73
VEL_4
NOTE_ON_72
TIME_SHIFT_64ND_2
NOTE_OFF_61
VEL_3
NOTE_ON_67
TIME_SHIFT_64ND_1
NOTE_OFF_72
VEL_4
NOTE_ON_73
TIME_SHIFT_64ND_4
NOTE_OFF_73
NOTE_OFF_67
VEL_4
NOTE_ON_75
VEL_3
NOTE_ON_60
TIME_SHIFT_64ND_5
NOTE_OFF_60
VEL_2
NOTE_ON_63
TIME_SHIFT_64ND_5
NOTE_OFF_63
VEL_2
NOTE_ON_68
TIME_SHIFT_64ND_5
NOTE_OFF_68
VEL_3
NOTE_ON_60
TIME_SHIFT_64ND_5
NOTE_OFF_60
VEL_2
NOTE_ON_63
TIME_SHIFT_64ND_5
NOTE_OFF_63
VEL_2
NOTE_ON_68
TIME_SHIFT_64ND_5
NOTE_OFF_75
NOTE_OFF_68
VEL_4
NOTE_ON_72
VEL_3
NOTE_ON_60
TIME_SHIFT_64ND_5
NOTE_OFF_60
VEL_2
NOTE_ON_63
TIME_SHIFT_64ND_5
NOTE_OFF_63
VEL_2
NOTE_ON_68
TIME_SHIFT_64ND_5
NOTE_OFF_68
VEL_3
NOTE_ON_60
TIME_SHIFT_64ND_5
NOTE_OFF_60
VEL_2
NOTE_ON_63
TIME_SHIFT_64ND_5
NOTE_OFF_63
VEL_2
NOTE_ON_68
TIME_SHIFT_64ND_5
NOTE_OFF_72
NOTE_OFF_68
VEL_5
NOTE_ON_80
VEL_3
NOTE_ON_60
TIME_SHIFT_64ND_5
NOTE_OFF_60
VEL_2
NOTE_ON_63
TIME_SHIFT_64ND_5
NOTE_OFF_63
VEL_2
NOTE_ON_68
TIME_SHIFT_64ND_5
NOTE_OFF_80
NOTE_OFF_68
VEL_5
NOTE_ON_80
VEL_3
NOTE_ON_60
TIME_SHIFT_64ND_5
NOTE_OFF_80
NOTE_OFF_60
VEL_4
NOTE_ON_84
VEL_2
NOTE_ON_63
TIME_SHIFT_64ND_5
NOTE_OFF_84
NOTE_OFF_63
VEL_4
NOTE_ON_87
VEL_2
NOTE_ON_68
TIME_SHIFT_64ND_5
NOTE_OFF_87
NOTE_OFF_68
VEL_5
NOTE_ON_78
VEL_2
NOTE_ON_60
TIME_SHIFT_64ND_5
NOTE_OFF_60
VEL_2
NOTE_ON_63
TIME_SHIFT_64ND_5
NOTE_OFF_63
VEL_2
NOTE_ON_68
TIME_SHIFT_64ND_5
NOTE_OFF_68
VEL_2
NOTE_ON_60
TIME_SHIFT_64ND_5
NOTE_OFF_60
VEL_2
NOTE_ON_63
TIME_SHIFT_64ND_5
NOTE_OFF_63
VEL_2
NOTE_ON_68
TIME_SHIFT_64ND_5
NOTE_OFF_78
NOTE_OFF_68
VEL_5
NOTE_ON_77
VEL_3
NOTE_ON_61
TIME_SHIFT_64ND_5
NOTE_OFF_61
VEL_2
NOTE_ON_65
TIME_SHIFT_64ND_5
NOTE_OFF_65
VEL_2
NOTE_ON_68
TIME_SHIFT_64ND_5
NOTE_OFF_77
NOTE_OFF_68
VEL_5
NOTE_ON_77
VEL_3
NOTE_ON_61
TIME_SHIFT_64ND_5
NOTE_OFF_77
NOTE_OFF_61
VEL_4
NOTE_ON_82
VEL_2
NOTE_ON_65
TIME_SHIFT_64ND_5
NOTE_OFF_82
NOTE_OFF_65
VEL_4
NOTE_ON_85
VEL_2
NOTE_ON_68
TIME_SHIFT_64ND_5
NOTE_OFF_85
NOTE_OFF_68
VEL_5
NOTE_ON_75
VEL_3
NOTE_ON_61
TIME_SHIFT_64ND_5
NOTE_OFF_61
VEL_2
NOTE_ON_63
TIME_SHIFT_64ND_5
NOTE_OFF_63
VEL_2
NOTE_ON_67
TIME_SHIFT_64ND_5
NOTE_OFF_67
VEL_3
NOTE_ON_61
TIME_SHIFT_64ND_5
NOTE_OFF_61
VEL_2
NOTE_ON_63
TIME_SHIFT_64ND_2
NOTE_OFF_75
VEL_4
NOTE_ON_77
TIME_SHIFT_64ND_2
NOTE_OFF_63
VEL_2
NOTE_ON_67
TIME_SHIFT_64ND_1
NOTE_OFF_77
VEL_5
NOTE_ON_79
TIME_SHIFT_64ND_3
NOTE_OFF_79
NOTE_OFF_67
VEL_5
NOTE_ON_80
VEL_3
NOTE_ON_60
TIME_SHIFT_64ND_5
NOTE_OFF_60
VEL_2
NOTE_ON_63
TIME_SHIFT_64ND_5
NOTE_OFF_63
VEL_2
NOTE_ON_68
TIME_SHIFT_64ND_5
NOTE_OFF_80
NOTE_OFF_68
VEL_5
NOTE_ON_80
VEL_3
NOTE_ON_60
TIME_SHIFT_64ND_5
NOTE_OFF_80
NOTE_OFF_60
VEL_4
NOTE_ON_82
VEL_2
NOTE_ON_63
TIME_SHIFT_64ND_5
NOTE_OFF_82
NOTE_OFF_63
VEL_4
NOTE_ON_84
VEL_2
NOTE_ON_68
TIME_SHIFT_64ND_5
NOTE_OFF_84
NOTE_OFF_68
VEL_5
NOTE_ON_73
VEL_3
NOTE_ON_58
TIME_SHIFT_64ND_5
NOTE_OFF_58
VEL_2
NOTE_ON_61
TIME_SHIFT_64ND_5
NOTE_OFF_61
VEL_2
NOTE_ON_67
TIME_SHIFT_64ND_5
NOTE_OFF_67
VEL_3
NOTE_ON_58
TIME_SHIFT_64ND_5
NOTE_OFF_58
VEL_2
NOTE_ON_61
TIME_SHIFT_64ND_5
NOTE_OFF_61
VEL_2
NOTE_ON_67
TIME_SHIFT_64ND_5
NOTE_OFF_73
NOTE_OFF_67
VEL_5
NOTE_ON_72
VEL_3
NOTE_ON_56
TIME_SHIFT_64ND_5
NOTE_OFF_72
VEL_4
NOTE_ON_75
TIME_SHIFT_64ND_5
NOTE_OFF_75
VEL_4
NOTE_ON_73
TIME_SHIFT_64ND_5
NOTE_OFF_73
NOTE_OFF_56
VEL_4
NOTE_ON_72
TIME_SHIFT_64ND_5
NOTE_OFF_72
VEL_4
NOTE_ON_84
TIME_SHIFT_64ND_5
NOTE_OFF_84
VEL_4
NOTE_ON_82
TIME_SHIFT_64ND_5
NOTE_OFF_82
VEL_4
NOTE_ON_80
TIME_SHIFT_64ND_5
NOTE_OFF_80
VEL_4
NOTE_ON_79
TIME_SHIFT_64ND_5
NOTE_OFF_79
VEL_4
NOTE_ON_77
TIME_SHIFT_64ND_5
NOTE_OFF_77
VEL_4
NOTE_ON_75
TIME_SHIFT_64ND_5
NOTE_OFF_75
VEL_4
NOTE_ON_73
TIME_SHIFT_64ND_5
NOTE_OFF_73
VEL_4
NOTE_ON_72
TIME_SHIFT_64ND_5
NOTE_OFF_72
VEL_5
NOTE_ON_75
TIME_SHIFT_64ND_11
NOTE_OFF_75
VEL_3
NOTE_ON_72
TIME_SHIFT_64ND_4
NOTE_OFF_72
VEL_4
NOTE_ON_70
VEL_2
NOTE_ON_67
VEL_2
NOTE_ON_63
TIME_SHIFT_64ND_11
NOTE_OFF_70
TIME_SHIFT_64ND_4
NOTE_OFF_67
NOTE_OFF_63
TIME_SHIFT_64ND_15
VEL_4
NOTE_ON_70
TIME_SHIFT_64ND_11
NOTE_OFF_70
VEL_4
NOTE_ON_67
TIME_SHIFT_64ND_4
NOTE_OFF_67
VEL_4
NOTE_ON_75
VEL_3
NOTE_ON_51
TIME_SHIFT_64ND_11
NOTE_OFF_75
NOTE_OFF_51
VEL_4
NOTE_ON_75
TIME_SHIFT_64ND_4
NOTE_OFF_75
VEL_4
NOTE_ON_75
VEL_3
NOTE_ON_55
TIME_SHIFT_64ND_2
NOTE_OFF_75
VEL_3
NOTE_ON_77
TIME_SHIFT_64ND_2
NOTE_OFF_77
VEL_4
NOTE_ON_75
TIME_SHIFT_64ND_2
NOTE_OFF_75
VEL_3
NOTE_ON_77
TIME_SHIFT_64ND_2
NOTE_OFF_77
NOTE_OFF_55
VEL_4
NOTE_ON_75
TIME_SHIFT_64ND_1
NOTE_OFF_75
VEL_3
NOTE_ON_77
TIME_SHIFT_64ND_1
NOTE_OFF_77
VEL_4
NOTE_ON_75
TIME_SHIFT_64ND_1
NOTE_OFF_75
VEL_4
NOTE_ON_74
TIME_SHIFT_64ND_2
NOTE_OFF_74
VEL_3
NOTE_ON_75
TIME_SHIFT_64ND_2
NOTE_OFF_75
VEL_4
NOTE_ON_77
VEL_3
NOTE_ON_50
TIME_SHIFT_64ND_7
NOTE_OFF_77
NOTE_OFF_50
TIME_SHIFT_64ND_7
VEL_4
NOTE_ON_74
TIME_SHIFT_64ND_11
NOTE_OFF_74
VEL_4
NOTE_ON_70
TIME_SHIFT_64ND_4
NOTE_OFF_70
VEL_4
NOTE_ON_77
VEL_3
NOTE_ON_50
TIME_SHIFT_64ND_11
NOTE_OFF_77
NOTE_OFF_50
VEL_4
NOTE_ON_77
TIME_SHIFT_64ND_4
NOTE_OFF_77
VEL_4
NOTE_ON_77
VEL_2
NOTE_ON_58
TIME_SHIFT_64ND_2
NOTE_OFF_77
VEL_3
NOTE_ON_79
TIME_SHIFT_64ND_2
NOTE_OFF_79
VEL_4
NOTE_ON_77
TIME_SHIFT_64ND_2
NOTE_OFF_77
VEL_3
NOTE_ON_79
TIME_SHIFT_64ND_2
NOTE_OFF_79
NOTE_OFF_58
VEL_4
NOTE_ON_77
TIME_SHIFT_64ND_1
NOTE_OFF_77
VEL_3
NOTE_ON_79
TIME_SHIFT_64ND_1
NOTE_OFF_79
VEL_4
NOTE_ON_77
TIME_SHIFT_64ND_1
NOTE_OFF_77
VEL_4
NOTE_ON_75
TIME_SHIFT_64ND_2
NOTE_OFF_75
VEL_3
NOTE_ON_77
TIME_SHIFT_64ND_2
NOTE_OFF_77
VEL_4
NOTE_ON_79
VEL_3
NOTE_ON_51
TIME_SHIFT_64ND_11
NOTE_OFF_79
NOTE_OFF_51
VEL_4
NOTE_ON_79
TIME_SHIFT_64ND_4
NOTE_OFF_79
VEL_4
NOTE_ON_79
VEL_2
NOTE_ON_58
TIME_SHIFT_64ND_2
NOTE_OFF_79
VEL_3
NOTE_ON_80
TIME_SHIFT_64ND_2
NOTE_OFF_80
VEL_4
NOTE_ON_79
TIME_SHIFT_64ND_2
NOTE_OFF_79
VEL_3
NOTE_ON_80
TIME_SHIFT_64ND_2
NOTE_OFF_80
NOTE_OFF_58
VEL_4
NOTE_ON_79
TIME_SHIFT_64ND_1
NOTE_OFF_79
VEL_3
NOTE_ON_80
TIME_SHIFT_64ND_1
NOTE_OFF_80
VEL_4
NOTE_ON_79
TIME_SHIFT_64ND_1
NOTE_OFF_79
VEL_4
NOTE_ON_77
TIME_SHIFT_64ND_2
NOTE_OFF_77
VEL_3
NOTE_ON_79
TIME_SHIFT_64ND_2
NOTE_OFF_79
VEL_4
NOTE_ON_80
VEL_3
NOTE_ON_53
TIME_SHIFT_64ND_11
NOTE_OFF_80
NOTE_OFF_53
VEL_4
NOTE_ON_80
TIME_SHIFT_64ND_4
NOTE_OFF_80
VEL_4
NOTE_ON_80
VEL_2
NOTE_ON_62
TIME_SHIFT_64ND_2
NOTE_OFF_80
VEL_4
NOTE_ON_82
TIME_SHIFT_64ND_2
NOTE_OFF_82
VEL_4
NOTE_ON_80
TIME_SHIFT_64ND_2
NOTE_OFF_80
VEL_3
NOTE_ON_82
TIME_SHIFT_64ND_2
NOTE_OFF_82
NOTE_OFF_62
VEL_4
NOTE_ON_80
TIME_SHIFT_64ND_1
NOTE_OFF_80
VEL_4
NOTE_ON_82
TIME_SHIFT_64ND_1
NOTE_OFF_82
VEL_4
NOTE_ON_80
TIME_SHIFT_64ND_1
NOTE_OFF_80
VEL_4
NOTE_ON_79
TIME_SHIFT_64ND_2
NOTE_OFF_79
VEL_3
NOTE_ON_80
TIME_SHIFT_64ND_2
NOTE_OFF_80
VEL_5
NOTE_ON_82
VEL_3
NOTE_ON_55
TIME_SHIFT_64ND_11
NOTE_OFF_82
NOTE_OFF_55
VEL_4
NOTE_ON_82
TIME_SHIFT_64ND_4
NOTE_OFF_82
VEL_5
NOTE_ON_82
VEL_2
NOTE_ON_63
TIME_SHIFT_64ND_2
NOTE_OFF_82
VEL_4
NOTE_ON_84
TIME_SHIFT_64ND_2
NOTE_OFF_84
VEL_5
NOTE_ON_82
TIME_SHIFT_64ND_2
NOTE_OFF_82
VEL_4
NOTE_ON_84
TIME_SHIFT_64ND_2
NOTE_OFF_84
NOTE_OFF_63
VEL_4
NOTE_ON_82
TIME_SHIFT_64ND_1
NOTE_OFF_82
VEL_4
NOTE_ON_84
TIME_SHIFT_64ND_1
NOTE_OFF_84
VEL_5
NOTE_ON_82
TIME_SHIFT_64ND_1
NOTE_OFF_82
VEL_4
NOTE_ON_80
TIME_SHIFT_64ND_2
NOTE_OFF_80
VEL_4
NOTE_ON_82
TIME_SHIFT_64ND_2
NOTE_OFF_82
VEL_5
NOTE_ON_84
VEL_3
NOTE_ON_56
TIME_SHIFT_64ND_5
NOTE_OFF_56
VEL_2
NOTE_ON_60
TIME_SHIFT_64ND_5
NOTE_OFF_60
VEL_2
NOTE_ON_63
TIME_SHIFT_64ND_5
NOTE_OFF_63
VEL_3
NOTE_ON_56
TIME_SHIFT_64ND_5
NOTE_OFF_56
VEL_2
NOTE_ON_60
TIME_SHIFT_64ND_5
NOTE_OFF_60
VEL_2
NOTE_ON_63
TIME_SHIFT_64ND_5
NOTE_OFF_63
VEL_3
NOTE_ON_56
TIME_SHIFT_64ND_5
NOTE_OFF_56
VEL_2
NOTE_ON_60
TIME_SHIFT_64ND_5
NOTE_OFF_60
VEL_2
NOTE_ON_63
TIME_SHIFT_64ND_5
NOTE_OFF_84
NOTE_OFF_63
VEL_4
NOTE_ON_76
VEL_3
NOTE_ON_55
TIME_SHIFT_64ND_5
NOTE_OFF_55
VEL_2
NOTE_ON_58
TIME_SHIFT_64ND_5
NOTE_OFF_58
VEL_2
NOTE_ON_61
TIME_SHIFT_64ND_5
NOTE_OFF_76
NOTE_OFF_61
VEL_5
NOTE_ON_77
VEL_3
NOTE_ON_56
TIME_SHIFT_64ND_5
NOTE_OFF_77
VEL_4
NOTE_ON_80
TIME_SHIFT_64ND_5
NOTE_OFF_80
VEL_4
NOTE_ON_79
TIME_SHIFT_64ND_5
NOTE_OFF_79
NOTE_OFF_56
VEL_4
NOTE_ON_77
TIME_SHIFT_64ND_5
NOTE_OFF_77
VEL_4
NOTE_ON_84
TIME_SHIFT_64ND_5
NOTE_OFF_84
VEL_4
NOTE_ON_82
TIME_SHIFT_64ND_5
NOTE_OFF_82
VEL_4
NOTE_ON_80
TIME_SHIFT_64ND_5
NOTE_OFF_80
VEL_4
NOTE_ON_79
TIME_SHIFT_64ND_5
NOTE_OFF_79
VEL_4
NOTE_ON_77
TIME_SHIFT_64ND_5
NOTE_OFF_77
VEL_4
NOTE_ON_75
TIME_SHIFT_64ND_5
NOTE_OFF_75
VEL_4
NOTE_ON_74
TIME_SHIFT_64ND_5
NOTE_OFF_74
VEL_4
NOTE_ON_72
TIME_SHIFT_64ND_5
NOTE_OFF_72
VEL_5
NOTE_ON_82
VEL_3
NOTE_ON_55
TIME_SHIFT_64ND_5
NOTE_OFF_55
VEL_2
NOTE_ON_58
TIME_SHIFT_64ND_5
NOTE_OFF_58
VEL_2
NOTE_ON_63
TIME_SHIFT_64ND_5
NOTE_OFF_63
VEL_3
NOTE_ON_55
TIME_SHIFT_64ND_5
NOTE_OFF_55
VEL_2
NOTE_ON_58
TIME_SHIFT_64ND_5
NOTE_OFF_58
VEL_2
NOTE_ON_63
TIME_SHIFT_64ND_5
NOTE_OFF_63
VEL_3
NOTE_ON_55
TIME_SHIFT_64ND_5
NOTE_OFF_55
VEL_2
NOTE_ON_58
TIME_SHIFT_64ND_5
NOTE_OFF_58
VEL_2
NOTE_ON_63
TIME_SHIFT_64ND_5
NOTE_OFF_82
NOTE_OFF_63
VEL_4
NOTE_ON_74
VEL_3
NOTE_ON_53
TIME_SHIFT_64ND_5
NOTE_OFF_53
VEL_2
NOTE_ON_56
TIME_SHIFT_64ND_5
NOTE_OFF_56
VEL_2
NOTE_ON_59
TIME_SHIFT_64ND_5
NOTE_OFF_74
NOTE_OFF_59
VEL_5
NOTE_ON_75
VEL_3
NOTE_ON_55
TIME_SHIFT_64ND_5
NOTE_OFF_75
VEL_4
NOTE_ON_79
TIME_SHIFT_64ND_5
NOTE_OFF_79
VEL_4
NOTE_ON_77
TIME_SHIFT_64ND_5
NOTE_OFF_77
NOTE_OFF_55
VEL_4
NOTE_ON_75
TIME_SHIFT_64ND_5
NOTE_OFF_75
VEL_4
NOTE_ON_82
TIME_SHIFT_64ND_5
NOTE_OFF_82
VEL_4
NOTE_ON_80
TIME_SHIFT_64ND_5
NOTE_OFF_80
VEL_4
NOTE_ON_79
TIME_SHIFT_64ND_5
NOTE_OFF_79
VEL_4
NOTE_ON_77
TIME_SHIFT_64ND_5
NOTE_OFF_77
VEL_4
NOTE_ON_75
TIME_SHIFT_64ND_5
NOTE_OFF_75
VEL_4
NOTE_ON_74
TIME_SHIFT_64ND_5
NOTE_OFF_74
VEL_4
NOTE_ON_72
TIME_SHIFT_64ND_5
NOTE_OFF_72
VEL_4
NOTE_ON_70
TIME_SHIFT_64ND_5
NOTE_OFF_70
VEL_5
NOTE_ON_80
VEL_3
NOTE_ON_58
TIME_SHIFT_64ND_5
NOTE_OFF_58
VEL_2
NOTE_ON_62
TIME_SHIFT_64ND_5
NOTE_OFF_62
VEL_2
NOTE_ON_65
TIME_SHIFT_64ND_5
NOTE_OFF_65
VEL_3
NOTE_ON_58
TIME_SHIFT_64ND_5
NOTE_OFF_58
VEL_2
NOTE_ON_62
TIME_SHIFT_64ND_5
NOTE_OFF_62
VEL_2
NOTE_ON_65
TIME_SHIFT_64ND_5
NOTE_OFF_65
VEL_3
NOTE_ON_58
TIME_SHIFT_64ND_5
NOTE_OFF_58
VEL_2
NOTE_ON_62
TIME_SHIFT_64ND_5
NOTE_OFF_62
VEL_2
NOTE_ON_65
TIME_SHIFT_64ND_5
NOTE_OFF_80
NOTE_OFF_65
VEL_4
NOTE_ON_79
VEL_3
NOTE_ON_58
TIME_SHIFT_64ND_5
NOTE_OFF_79
NOTE_OFF_58
VEL_4
NOTE_ON_77
VEL_2
NOTE_ON_63
TIME_SHIFT_64ND_5
NOTE_OFF_77
NOTE_OFF_63
VEL_3
NOTE_ON_75
VEL_2
NOTE_ON_67
TIME_SHIFT_64ND_5
NOTE_OFF_75
TIME_SHIFT_64ND_1
NOTE_OFF_67
VEL_4
NOTE_ON_75
VEL_3
NOTE_ON_58
TIME_SHIFT_64ND_5
NOTE_OFF_58
VEL_2
NOTE_ON_65
TIME_SHIFT_64ND_2
NOTE_OFF_75
VEL_3
NOTE_ON_74
TIME_SHIFT_64ND_2
NOTE_OFF_65
VEL_2
NOTE_ON_68
TIME_SHIFT_64ND_4
NOTE_OFF_74
TIME_SHIFT_64ND_1
NOTE_OFF_68
VEL_3
NOTE_ON_74
VEL_3
NOTE_ON_58
TIME_SHIFT_64ND_5
NOTE_OFF_58
VEL_2
NOTE_ON_65
TIME_SHIFT_64ND_5
NOTE_OFF_65
VEL_2
NOTE_ON_68
TIME_SHIFT_64ND_5
NOTE_OFF_68
VEL_2
NOTE_ON_58
TIME_SHIFT_64ND_5
NOTE_OFF_58
VEL_2
NOTE_ON_65
TIME_SHIFT_64ND_5
NOTE_OFF_65
VEL_2
NOTE_ON_68
TIME_SHIFT_64ND_5
NOTE_OFF_74
NOTE_OFF_68
VEL_4
NOTE_ON_75
VEL_3
NOTE_ON_58
TIME_SHIFT_64ND_5
NOTE_OFF_58
VEL_2
NOTE_ON_63
TIME_SHIFT_64ND_5
NOTE_OFF_63
VEL_2
NOTE_ON_67
TIME_SHIFT_64ND_5
NOTE_OFF_75
NOTE_OFF_67
VEL_5
NOTE_ON_77
VEL_3
NOTE_ON_58
TIME_SHIFT_64ND_5
NOTE_OFF_77
NOTE_OFF_58
VEL_4
NOTE_ON_79
VEL_2
NOTE_ON_62
TIME_SHIFT_64ND_5
NOTE_OFF_79
NOTE_OFF_62
VEL_4
NOTE_ON_80
VEL_2
NOTE_ON_65
TIME_SHIFT_64ND_4
NOTE_OFF_80
TIME_SHIFT_64ND_1
NOTE_OFF_65
VEL_5
NOTE_ON_80
VEL_3
NOTE_ON_58
TIME_SHIFT_64ND_5
NOTE_OFF_58
VEL_2
NOTE_ON_62
TIME_SHIFT_64ND_5
NOTE_OFF_62
VEL_2
NOTE_ON_65
TIME_SHIFT_64ND_5
NOTE_OFF_65
VEL_3
NOTE_ON_58
TIME_SHIFT_64ND_5
NOTE_OFF_58
VEL_2
NOTE_ON_62
TIME_SHIFT_64ND_5
NOTE_OFF_62
VEL_2
NOTE_ON_65
TIME_SHIFT_64ND_5
NOTE_OFF_80
NOTE_OFF_65
VEL_4
NOTE_ON_79
VEL_3
NOTE_ON_58
TIME_SHIFT_64ND_5
NOTE_OFF_79
NOTE_OFF_58
VEL_4
NOTE_ON_77
VEL_2
NOTE_ON_63
TIME_SHIFT_64ND_5
NOTE_OFF_77
NOTE_OFF_63
VEL_3
NOTE_ON_75
VEL_2
NOTE_ON_67
TIME_SHIFT_64ND_5
NOTE_OFF_75
TIME_SHIFT_64ND_1
NOTE_OFF_67
VEL_4
NOTE_ON_75
VEL_3
NOTE_ON_58
TIME_SHIFT_64ND_5
NOTE_OFF_58
VEL_2
NOTE_ON_65
TIME_SHIFT_64ND_2
NOTE_OFF_75
VEL_3
NOTE_ON_74
TIME_SHIFT_64ND_2
NOTE_OFF_65
VEL_2
NOTE_ON_68
TIME_SHIFT_64ND_4
NOTE_OFF_74
TIME_SHIFT_64ND_1
NOTE_OFF_68
VEL_3
NOTE_ON_74
VEL_3
NOTE_ON_58
TIME_SHIFT_64ND_5
NOTE_OFF_58
VEL_2
NOTE_ON_65
TIME_SHIFT_64ND_5
NOTE_OFF_65
VEL_2
NOTE_ON_68
TIME_SHIFT_64ND_5
NOTE_OFF_68
VEL_2
NOTE_ON_58
TIME_SHIFT_64ND_5
NOTE_OFF_58
VEL_2
NOTE_ON_65
TIME_SHIFT_64ND_5
NOTE_OFF_65
VEL_2
NOTE_ON_68
TIME_SHIFT_64ND_5
NOTE_OFF_74
NOTE_OFF_68
VEL_4
NOTE_ON_75
VEL_3
NOTE_ON_58
TIME_SHIFT_64ND_5
NOTE_OFF_58
VEL_2
NOTE_ON_63
TIME_SHIFT_64ND_5
NOTE_OFF_63
VEL_2
NOTE_ON_67
TIME_SHIFT_64ND_5
NOTE_OFF_75
NOTE_OFF_67
VEL_5
NOTE_ON_77
VEL_3
NOTE_ON_58
TIME_SHIFT_64ND_5
NOTE_OFF_77
NOTE_OFF_58
VEL_4
NOTE_ON_79
VEL_2
NOTE_ON_62
TIME_SHIFT_64ND_5
NOTE_OFF_79
NOTE_OFF_62
VEL_4
NOTE_ON_80
VEL_2
NOTE_ON_65
TIME_SHIFT_64ND_4
NOTE_OFF_80
TIME_SHIFT_64ND_1
NOTE_OFF_65
VEL_5
NOTE_ON_80
VEL_3
NOTE_ON_58
TIME_SHIFT_64ND_5
NOTE_OFF_58
VEL_2
NOTE_ON_62
TIME_SHIFT_64ND_5
NOTE_OFF_62
VEL_2
NOTE_ON_65
TIME_SHIFT_64ND_5
NOTE_OFF_65
VEL_3
NOTE_ON_59
TIME_SHIFT_64ND_5
NOTE_OFF_59
VEL_2
NOTE_ON_62
TIME_SHIFT_64ND_5
NOTE_OFF_62
VEL_2
NOTE_ON_65
TIME_SHIFT_64ND_5
NOTE_OFF_80
NOTE_OFF_65
VEL_4
NOTE_ON_79
VEL_3
NOTE_ON_60
TIME_SHIFT_64ND_5
NOTE_OFF_60
VEL_2
NOTE_ON_62
TIME_SHIFT_64ND_5
NOTE_OFF_62
VEL_2
NOTE_ON_63
TIME_SHIFT_64ND_5
NOTE_OFF_79
NOTE_OFF_63
VEL_4
NOTE_ON_77
VEL_3
NOTE_ON_56
TIME_SHIFT_64ND_5
NOTE_OFF_77
VEL_5
NOTE_ON_84
TIME_SHIFT_64ND_5
NOTE_OFF_84
VEL_4
NOTE_ON_82
TIME_SHIFT_64ND_5
NOTE_OFF_82
NOTE_OFF_56
VEL_4
NOTE_ON_80
TIME_SHIFT_64ND_5
NOTE_OFF_80
VEL_4
NOTE_ON_79
TIME_SHIFT_64ND_5
NOTE_OFF_79
VEL_4
NOTE_ON_77
TIME_SHIFT_64ND_5
NOTE_OFF_77
VEL_4
NOTE_ON_75
VEL_3
NOTE_ON_67
VEL_2
NOTE_ON_58
TIME_SHIFT_64ND_15
NOTE_OFF_75
NOTE_OFF_67
VEL_3
NOTE_ON_74
VEL_2
NOTE_ON_68
TIME_SHIFT_64ND_15
NOTE_OFF_74
NOTE_OFF_68
NOTE_OFF_58
VEL_4
NOTE_ON_74
VEL_3
NOTE_ON_68
VEL_1
NOTE_ON_60
TIME_SHIFT_64ND_31
NOTE_OFF_74
NOTE_OFF_68
VEL_3
NOTE_ON_75
VEL_2
NOTE_ON_67
TIME_SHIFT_64ND_16
NOTE_OFF_75
NOTE_OFF_67
NOTE_OFF_60
TIME_SHIFT_64ND_16
VEL_4
NOTE_ON_56
TIME_SHIFT_64ND_15
VEL_2
NOTE_ON_48
VEL_3
NOTE_ON_51
TIME_SHIFT_64ND_7
NOTE_OFF_48
NOTE_OFF_51
TIME_SHIFT_64ND_7
VEL_3
NOTE_ON_48
VEL_3
NOTE_ON_51
TIME_SHIFT_64ND_5
NOTE_OFF_56
VEL_4
NOTE_ON_60
TIME_SHIFT_64ND_2
NOTE_OFF_48
NOTE_OFF_51
TIME_SHIFT_64ND_2
NOTE_OFF_60
VEL_3
NOTE_ON_58
TIME_SHIFT_64ND_5
NOTE_OFF_58
VEL_4
NOTE_ON_56
VEL_3
NOTE_ON_48
VEL_3
NOTE_ON_51
TIME_SHIFT_64ND_2
NOTE_OFF_56
TIME_SHIFT_64ND_2
VEL_3
NOTE_ON_56
TIME_SHIFT_64ND_2
NOTE_OFF_56
NOTE_OFF_48
NOTE_OFF_51
TIME_SHIFT_64ND_2
VEL_3
NOTE_ON_56
TIME_SHIFT_64ND_3
NOTE_OFF_56
TIME_SHIFT_64ND_3
VEL_4
NOTE_ON_56
TIME_SHIFT_64ND_15
VEL_2
NOTE_ON_50
VEL_3
NOTE_ON_53
VEL_2
NOTE_ON_46
TIME_SHIFT_64ND_7
NOTE_OFF_50
NOTE_OFF_53
NOTE_OFF_46
TIME_SHIFT_64ND_7
VEL_3
NOTE_ON_50
VEL_3
NOTE_ON_53
VEL_3
NOTE_ON_46
TIME_SHIFT_64ND_5
NOTE_OFF_56
VEL_4
NOTE_ON_65
TIME_SHIFT_64ND_2
NOTE_OFF_50
NOTE_OFF_53
NOTE_OFF_46
TIME_SHIFT_64ND_2
NOTE_OFF_65
VEL_3
NOTE_ON_62
TIME_SHIFT_64ND_5
NOTE_OFF_62
VEL_4
NOTE_ON_56
VEL_3
NOTE_ON_50
VEL_3
NOTE_ON_53
VEL_3
NOTE_ON_46
TIME_SHIFT_64ND_2
NOTE_OFF_56
TIME_SHIFT_64ND_2
VEL_3
NOTE_ON_56
TIME_SHIFT_64ND_2
NOTE_OFF_56
NOTE_OFF_50
NOTE_OFF_53
NOTE_OFF_46
TIME_SHIFT_64ND_2
VEL_3
NOTE_ON_56
TIME_SHIFT_64ND_3
NOTE_OFF_56
TIME_SHIFT_64ND_3
VEL_3
NOTE_ON_55
VEL_3
NOTE_ON_51
TIME_SHIFT_64ND_5
NOTE_OFF_55
VEL_3
NOTE_ON_58
TIME_SHIFT_64ND_5
NOTE_OFF_58
VEL_3
NOTE_ON_63
TIME_SHIFT_64ND_2
NOTE_OFF_63
TIME_SHIFT_64ND_2
NOTE_OFF_51
VEL_3
NOTE_ON_63
TIME_SHIFT_64ND_2
NOTE_OFF_63
TIME_SHIFT_64ND_2
VEL_3
NOTE_ON_63
TIME_SHIFT_64ND_2
NOTE_OFF_63
TIME_SHIFT_64ND_2
VEL_3
NOTE_ON_63
TIME_SHIFT_64ND_3
NOTE_OFF_63
TIME_SHIFT_64ND_3
VEL_3
NOTE_ON_62
VEL_3
NOTE_ON_53
VEL_2
NOTE_ON_46
TIME_SHIFT_64ND_5
NOTE_OFF_62
VEL_3
NOTE_ON_65
TIME_SHIFT_64ND_5
NOTE_OFF_65
VEL_3
NOTE_ON_68
TIME_SHIFT_64ND_2
NOTE_OFF_68
TIME_SHIFT_64ND_2
NOTE_OFF_53
NOTE_OFF_46
VEL_3
NOTE_ON_68
TIME_SHIFT_64ND_2
NOTE_OFF_68
TIME_SHIFT_64ND_2
VEL_3
NOTE_ON_68
TIME_SHIFT_64ND_2
NOTE_OFF_68
TIME_SHIFT_64ND_2
VEL_3
NOTE_ON_68
TIME_SHIFT_64ND_3
NOTE_OFF_68
TIME_SHIFT_64ND_3
VEL_4
NOTE_ON_67
VEL_3
NOTE_ON_55
VEL_3
NOTE_ON_51
TIME_SHIFT_64ND_5
NOTE_OFF_67
VEL_3
NOTE_ON_70
TIME_SHIFT_64ND_5
NOTE_OFF_70
VEL_3
NOTE_ON_75
TIME_SHIFT_64ND_2
NOTE_OFF_75
TIME_SHIFT_64ND_2
NOTE_OFF_55
NOTE_OFF_51
VEL_3
NOTE_ON_75
TIME_SHIFT_64ND_2
NOTE_OFF_75
TIME_SHIFT_64ND_2
VEL_3
NOTE_ON_75
TIME_SHIFT_64ND_2
NOTE_OFF_75
TIME_SHIFT_64ND_2
VEL_3
NOTE_ON_75
TIME_SHIFT_64ND_3
NOTE_OFF_75
TIME_SHIFT_64ND_3
VEL_4
NOTE_ON_74
VEL_3
NOTE_ON_53
VEL_2
NOTE_ON_46
TIME_SHIFT_64ND_5
NOTE_OFF_74
VEL_3
NOTE_ON_77
TIME_SHIFT_64ND_5
NOTE_OFF_77
VEL_3
NOTE_ON_80
TIME_SHIFT_64ND_2
NOTE_OFF_80
TIME_SHIFT_64ND_2
NOTE_OFF_53
NOTE_OFF_46
VEL_4
NOTE_ON_80
TIME_SHIFT_64ND_2
NOTE_OFF_80
TIME_SHIFT_64ND_2
VEL_3
NOTE_ON_80
TIME_SHIFT_64ND_2
NOTE_OFF_80
TIME_SHIFT_64ND_2
VEL_3
NOTE_ON_80
TIME_SHIFT_64ND_3
NOTE_OFF_80
TIME_SHIFT_64ND_3
VEL_4
NOTE_ON_79
VEL_3
NOTE_ON_55
VEL_3
NOTE_ON_51
TIME_SHIFT_64ND_5
NOTE_OFF_79
VEL_4
NOTE_ON_80
TIME_SHIFT_64ND_5
NOTE_OFF_80
VEL_3
NOTE_ON_82
TIME_SHIFT_64ND_5
NOTE_OFF_82
NOTE_OFF_55
NOTE_OFF_51
VEL_4
NOTE_ON_80
TIME_SHIFT_64ND_5
NOTE_OFF_80
VEL_4
NOTE_ON_79
TIME_SHIFT_64ND_5
NOTE_OFF_79
VEL_4
NOTE_ON_77
TIME_SHIFT_64ND_5
NOTE_OFF_77
VEL_4
NOTE_ON_75
TIME_SHIFT_64ND_5
NOTE_OFF_75
VEL_3
NOTE_ON_74
TIME_SHIFT_64ND_5
NOTE_OFF_74
VEL_3
NOTE_ON_72
TIME_SHIFT_64ND_5
NOTE_OFF_72
VEL_4
NOTE_ON_70
TIME_SHIFT_64ND_5
NOTE_OFF_70
VEL_3
NOTE_ON_68
TIME_SHIFT_64ND_5
NOTE_OFF_68
VEL_3
NOTE_ON_67
TIME_SHIFT_64ND_5
NOTE_OFF_67
VEL_4
NOTE_ON_65
TIME_SHIFT_64ND_15
VEL_2
NOTE_ON_44
VEL_3
NOTE_ON_56
TIME_SHIFT_64ND_8
NOTE_OFF_65
VEL_3
NOTE_ON_72
TIME_SHIFT_64ND_8
NOTE_OFF_72
NOTE_OFF_44
NOTE_OFF_56
VEL_3
NOTE_ON_63
VEL_3
NOTE_ON_55
VEL_2
NOTE_ON_46
TIME_SHIFT_64ND_15
NOTE_OFF_63
NOTE_OFF_55
NOTE_OFF_46
VEL_3
NOTE_ON_62
VEL_2
NOTE_ON_46
VEL_3
NOTE_ON_53
TIME_SHIFT_64ND_16
NOTE_OFF_62
NOTE_OFF_46
NOTE_OFF_53
VEL_5
NOTE_ON_75
VEL_3
NOTE_ON_63
TIME_SHIFT_64ND_5
NOTE_OFF_63
VEL_3
NOTE_ON_67
TIME_SHIFT_64ND_5
NOTE_OFF_67
VEL_3
NOTE_ON_65
TIME_SHIFT_64ND_5
NOTE_OFF_65
VEL_3
NOTE_ON_63
TIME_SHIFT_64ND_5
NOTE_OFF_63
VEL_3
NOTE_ON_62
TIME_SHIFT_64ND_5
NOTE_OFF_62
VEL_3
NOTE_ON_60
TIME_SHIFT_64ND_5
NOTE_OFF_60
VEL_3
NOTE_ON_58
TIME_SHIFT_64ND_5
NOTE_OFF_58
VEL_3
NOTE_ON_56
TIME_SHIFT_64ND_5
NOTE_OFF_56
VEL_3
NOTE_ON_55
TIME_SHIFT_64ND_5
NOTE_OFF_75
NOTE_OFF_55
VEL_3
NOTE_ON_74
VEL_4
NOTE_ON_77
VEL_3
NOTE_ON_53
TIME_SHIFT_64ND_5
NOTE_OFF_53
VEL_3
NOTE_ON_51
TIME_SHIFT_64ND_5
NOTE_OFF_51
VEL_3
NOTE_ON_50
TIME_SHIFT_64ND_5
NOTE_OFF_74
NOTE_OFF_77
NOTE_OFF_50
VEL_4
NOTE_ON_75
VEL_5
NOTE_ON_79
VEL_3
NOTE_ON_48
TIME_SHIFT_64ND_5
NOTE_OFF_48
VEL_3
NOTE_ON_63
TIME_SHIFT_64ND_5
NOTE_OFF_63
VEL_3
NOTE_ON_62
TIME_SHIFT_64ND_5
NOTE_OFF_62
VEL_3
NOTE_ON_60
TIME_SHIFT_64ND_5
NOTE_OFF_60
VEL_3
NOTE_ON_58
TIME_SHIFT_64ND_5
NOTE_OFF_58
VEL_3
NOTE_ON_56
TIME_SHIFT_64ND_5
NOTE_OFF_56
VEL_3
NOTE_ON_55
TIME_SHIFT_64ND_5
NOTE_OFF_55
VEL_3
NOTE_ON_53
TIME_SHIFT_64ND_5
NOTE_OFF_53
VEL_3
NOTE_ON_51
TIME_SHIFT_64ND_5
NOTE_OFF_75
NOTE_OFF_79
NOTE_OFF_51
VEL_3
NOTE_ON_77
VEL_4
NOTE_ON_80
VEL_3
NOTE_ON_50
TIME_SHIFT_64ND_5
NOTE_OFF_50
VEL_3
NOTE_ON_48
TIME_SHIFT_64ND_5
NOTE_OFF_48
VEL_3
NOTE_ON_46
TIME_SHIFT_64ND_5
NOTE_OFF_77
NOTE_OFF_80
NOTE_OFF_46
VEL_4
NOTE_ON_82
VEL_3
NOTE_ON_79
VEL_3
NOTE_ON_44
TIME_SHIFT_64ND_5
NOTE_OFF_82
NOTE_OFF_79
VEL_3
NOTE_ON_77
VEL_4
NOTE_ON_80
TIME_SHIFT_64ND_5
NOTE_OFF_77
NOTE_OFF_80
VEL_3
NOTE_ON_79
VEL_4
NOTE_ON_82
TIME_SHIFT_64ND_5
NOTE_OFF_79
NOTE_OFF_82
VEL_4
NOTE_ON_84
VEL_3
NOTE_ON_80
TIME_SHIFT_64ND_5
NOTE_OFF_84
NOTE_OFF_80
VEL_4
NOTE_ON_82
VEL_3
NOTE_ON_79
TIME_SHIFT_64ND_5
NOTE_OFF_82
NOTE_OFF_79
VEL_4
NOTE_ON_80
VEL_3
NOTE_ON_77
TIME_SHIFT_64ND_5
NOTE_OFF_80
NOTE_OFF_77
NOTE_OFF_44
VEL_3
NOTE_ON_75
VEL_4
NOTE_ON_79
VEL_3
NOTE_ON_46
TIME_SHIFT_64ND_15
NOTE_OFF_75
NOTE_OFF_79
NOTE_OFF_46
VEL_3
NOTE_ON_74
VEL_4
NOTE_ON_77
VEL_3
NOTE_ON_46
TIME_SHIFT_64ND_16
NOTE_OFF_74
NOTE_OFF_77
NOTE_OFF_46
VEL_5
NOTE_ON_75
VEL_3
NOTE_ON_63
TIME_SHIFT_64ND_5
NOTE_OFF_63
VEL_3
NOTE_ON_67
TIME_SHIFT_64ND_5
NOTE_OFF_67
VEL_2
NOTE_ON_65
TIME_SHIFT_64ND_5
NOTE_OFF_65
VEL_3
NOTE_ON_63
TIME_SHIFT_64ND_5
NOTE_OFF_63
VEL_3
NOTE_ON_62
TIME_SHIFT_64ND_5
NOTE_OFF_62
VEL_3
NOTE_ON_60
TIME_SHIFT_64ND_5
NOTE_OFF_60
VEL_3
NOTE_ON_58
TIME_SHIFT_64ND_5
NOTE_OFF_58
VEL_3
NOTE_ON_56
TIME_SHIFT_64ND_5
NOTE_OFF_56
VEL_3
NOTE_ON_55
TIME_SHIFT_64ND_5
NOTE_OFF_75
NOTE_OFF_55
VEL_3
NOTE_ON_74
VEL_4
NOTE_ON_77
VEL_3
NOTE_ON_53
TIME_SHIFT_64ND_5
NOTE_OFF_53
VEL_3
NOTE_ON_51
TIME_SHIFT_64ND_5
NOTE_OFF_51
VEL_3
NOTE_ON_50
TIME_SHIFT_64ND_5
NOTE_OFF_74
NOTE_OFF_77
NOTE_OFF_50
VEL_4
NOTE_ON_75
VEL_5
NOTE_ON_79
VEL_3
NOTE_ON_48
TIME_SHIFT_64ND_5
NOTE_OFF_48
VEL_3
NOTE_ON_63
TIME_SHIFT_64ND_5
NOTE_OFF_63
VEL_3
NOTE_ON_62
TIME_SHIFT_64ND_5
NOTE_OFF_62
VEL_3
NOTE_ON_60
TIME_SHIFT_64ND_5
NOTE_OFF_60
VEL_3
NOTE_ON_58
TIME_SHIFT_64ND_5
NOTE_OFF_58
VEL_3
NOTE_ON_56
TIME_SHIFT_64ND_5
NOTE_OFF_56
VEL_3
NOTE_ON_55
TIME_SHIFT_64ND_5
NOTE_OFF_55
VEL_3
NOTE_ON_53
TIME_SHIFT_64ND_5
NOTE_OFF_53
VEL_3
NOTE_ON_51
TIME_SHIFT_64ND_5
NOTE_OFF_75
NOTE_OFF_79
NOTE_OFF_51
VEL_3
NOTE_ON_77
VEL_4
NOTE_ON_80
VEL_3
NOTE_ON_50
TIME_SHIFT_64ND_5
NOTE_OFF_50
VEL_3
NOTE_ON_48
TIME_SHIFT_64ND_5
NOTE_OFF_48
VEL_3
NOTE_ON_46
TIME_SHIFT_64ND_5
NOTE_OFF_77
NOTE_OFF_80
NOTE_OFF_46
VEL_4
NOTE_ON_82
VEL_3
NOTE_ON_79
VEL_3
NOTE_ON_44
TIME_SHIFT_64ND_5
NOTE_OFF_82
NOTE_OFF_79
VEL_3
NOTE_ON_77
VEL_4
NOTE_ON_80
TIME_SHIFT_64ND_5
NOTE_OFF_77
NOTE_OFF_80
VEL_3
NOTE_ON_79
VEL_4
NOTE_ON_82
TIME_SHIFT_64ND_5
NOTE_OFF_79
NOTE_OFF_82
VEL_4
NOTE_ON_84
VEL_3
NOTE_ON_80
TIME_SHIFT_64ND_5
NOTE_OFF_84
NOTE_OFF_80
VEL_4
NOTE_ON_82
VEL_3
NOTE_ON_79
TIME_SHIFT_64ND_5
NOTE_OFF_82
NOTE_OFF_79
VEL_4
NOTE_ON_80
VEL_3
NOTE_ON_77
TIME_SHIFT_64ND_5
NOTE_OFF_80
NOTE_OFF_77
NOTE_OFF_44
VEL_3
NOTE_ON_75
VEL_4
NOTE_ON_79
VEL_3
NOTE_ON_46
TIME_SHIFT_64ND_15
NOTE_OFF_75
NOTE_OFF_79
NOTE_OFF_46
VEL_3
NOTE_ON_74
VEL_4
NOTE_ON_77
VEL_3
NOTE_ON_46
TIME_SHIFT_64ND_16
NOTE_OFF_74
NOTE_OFF_77
NOTE_OFF_46
VEL_3
NOTE_ON_75
VEL_2
NOTE_ON_63
TIME_SHIFT_64ND_5
NOTE_OFF_63
VEL_1
NOTE_ON_67
TIME_SHIFT_64ND_5
NOTE_OFF_67
VEL_1
NOTE_ON_70
TIME_SHIFT_64ND_5
NOTE_OFF_70
VEL_2
NOTE_ON_63
TIME_SHIFT_64ND_5
NOTE_OFF_63
VEL_2
NOTE_ON_67
TIME_SHIFT_64ND_5
NOTE_OFF_67
VEL_2
NOTE_ON_70
TIME_SHIFT_64ND_5
NOTE_OFF_70
VEL_2
NOTE_ON_63
TIME_SHIFT_64ND_5
NOTE_OFF_63
VEL_1
NOTE_ON_67
TIME_SHIFT_64ND_5
NOTE_OFF_67
VEL_1
NOTE_ON_70
TIME_SHIFT_64ND_3
NOTE_OFF_75
VEL_4
NOTE_ON_79
TIME_SHIFT_64ND_2
NOTE_OFF_79
NOTE_OFF_70
VEL_3
NOTE_ON_77
VEL_2
NOTE_ON_63
TIME_SHIFT_64ND_5
NOTE_OFF_63
VEL_2
NOTE_ON_68
TIME_SHIFT_64ND_5
NOTE_OFF_68
VEL_2
NOTE_ON_74
TIME_SHIFT_64ND_5
NOTE_OFF_77
NOTE_OFF_74
VEL_3
NOTE_ON_75
VEL_2
NOTE_ON_63
TIME_SHIFT_64ND_5
NOTE_OFF_63
VEL_1
NOTE_ON_67
TIME_SHIFT_64ND_5
NOTE_OFF_67
VEL_1
NOTE_ON_70
TIME_SHIFT_64ND_5
NOTE_OFF_75
NOTE_OFF_70
VEL_3
NOTE_ON_75
VEL_2
NOTE_ON_63
TIME_SHIFT_64ND_5
NOTE_OFF_63
VEL_1
NOTE_ON_67
TIME_SHIFT_64ND_5
NOTE_OFF_67
VEL_1
NOTE_ON_70
TIME_SHIFT_64ND_5
NOTE_OFF_75
NOTE_OFF_70
VEL_3
NOTE_ON_75
VEL_2
NOTE_ON_63
TIME_SHIFT_64ND_5
NOTE_OFF_63
VEL_1
NOTE_ON_67
TIME_SHIFT_64ND_5
NOTE_OFF_67
VEL_1
NOTE_ON_70
TIME_SHIFT_64ND_5
NOTE_OFF_75
NOTE_OFF_70
VEL_3
NOTE_ON_80
VEL_2
NOTE_ON_63
TIME_SHIFT_64ND_4
NOTE_OFF_80
VEL_3
NOTE_ON_77
TIME_SHIFT_64ND_1
NOTE_OFF_63
VEL_1
NOTE_ON_68
TIME_SHIFT_64ND_5
NOTE_OFF_68
VEL_1
NOTE_ON_74
TIME_SHIFT_64ND_5
NOTE_OFF_77
NOTE_OFF_74
VEL_3
NOTE_ON_82
VEL_2
NOTE_ON_63
TIME_SHIFT_64ND_5
NOTE_OFF_63
VEL_1
NOTE_ON_67
TIME_SHIFT_64ND_5
NOTE_OFF_67
VEL_1
NOTE_ON_70
TIME_SHIFT_64ND_5
NOTE_OFF_82
NOTE_OFF_70
VEL_3
NOTE_ON_82
VEL_2
NOTE_ON_63
TIME_SHIFT_64ND_5
NOTE_OFF_63
VEL_1
NOTE_ON_67
TIME_SHIFT_64ND_5
NOTE_OFF_67
VEL_1
NOTE_ON_70
TIME_SHIFT_64ND_5
NOTE_OFF_82
NOTE_OFF_70
VEL_3
NOTE_ON_82
VEL_2
NOTE_ON_63
TIME_SHIFT_64ND_5
NOTE_OFF_63
VEL_1
NOTE_ON_67
TIME_SHIFT_64ND_5
NOTE_OFF_67
VEL_1
NOTE_ON_70
TIME_SHIFT_64ND_5
NOTE_OFF_82
NOTE_OFF_70
VEL_3
NOTE_ON_80
VEL_2
NOTE_ON_63
TIME_SHIFT_64ND_4
NOTE_OFF_80
VEL_3
NOTE_ON_77
TIME_SHIFT_64ND_1
NOTE_OFF_63
VEL_1
NOTE_ON_68
TIME_SHIFT_64ND_5
NOTE_OFF_68
VEL_1
NOTE_ON_74
TIME_SHIFT_64ND_5
NOTE_OFF_77
NOTE_OFF_74
VEL_3
NOTE_ON_75
VEL_2
NOTE_ON_63
TIME_SHIFT_64ND_5
NOTE_OFF_63
VEL_1
NOTE_ON_67
TIME_SHIFT_64ND_5
NOTE_OFF_67
VEL_1
NOTE_ON_70
TIME_SHIFT_64ND_5
NOTE_OFF_70
VEL_2
NOTE_ON_63
TIME_SHIFT_64ND_5
NOTE_OFF_63
VEL_1
NOTE_ON_67
TIME_SHIFT_64ND_5
NOTE_OFF_67
VEL_1
NOTE_ON_70
TIME_SHIFT_64ND_5
NOTE_OFF_70
VEL_2
NOTE_ON_63
TIME_SHIFT_64ND_5
NOTE_OFF_63
VEL_1
NOTE_ON_67
TIME_SHIFT_64ND_5
NOTE_OFF_67
VEL_1
NOTE_ON_70
TIME_SHIFT_64ND_3
NOTE_OFF_75
VEL_3
NOTE_ON_79
TIME_SHIFT_64ND_2
NOTE_OFF_79
NOTE_OFF_70
VEL_3
NOTE_ON_77
VEL_2
NOTE_ON_63
TIME_SHIFT_64ND_5
NOTE_OFF_63
VEL_1
NOTE_ON_68
TIME_SHIFT_64ND_5
NOTE_OFF_68
VEL_1
NOTE_ON_74
TIME_SHIFT_64ND_5
NOTE_OFF_77
NOTE_OFF_74
VEL_3
NOTE_ON_75
VEL_2
NOTE_ON_63
TIME_SHIFT_64ND_5
NOTE_OFF_63
VEL_1
NOTE_ON_67
TIME_SHIFT_64ND_5
NOTE_OFF_67
VEL_1
NOTE_ON_70
TIME_SHIFT_64ND_5
NOTE_OFF_75
NOTE_OFF_70
VEL_3
NOTE_ON_75
VEL_2
NOTE_ON_63
TIME_SHIFT_64ND_5
NOTE_OFF_63
VEL_1
NOTE_ON_67
TIME_SHIFT_64ND_5
NOTE_OFF_67
VEL_1
NOTE_ON_70
TIME_SHIFT_64ND_5
NOTE_OFF_75
NOTE_OFF_70
VEL_3
NOTE_ON_75
VEL_2
NOTE_ON_63
TIME_SHIFT_64ND_5
NOTE_OFF_63
VEL_1
NOTE_ON_67
TIME_SHIFT_64ND_5
NOTE_OFF_67
VEL_1
NOTE_ON_70
TIME_SHIFT_64ND_5
NOTE_OFF_75
NOTE_OFF_70
VEL_3
NOTE_ON_80
VEL_2
NOTE_ON_63
TIME_SHIFT_64ND_4
NOTE_OFF_80
VEL_3
NOTE_ON_77
TIME_SHIFT_64ND_1
NOTE_OFF_63
VEL_1
NOTE_ON_68
TIME_SHIFT_64ND_5
NOTE_OFF_68
VEL_1
NOTE_ON_74
TIME_SHIFT_64ND_5
NOTE_OFF_77
NOTE_OFF_74
VEL_3
NOTE_ON_82
VEL_2
NOTE_ON_63
TIME_SHIFT_64ND_5
NOTE_OFF_63
VEL_1
NOTE_ON_67
TIME_SHIFT_64ND_5
NOTE_OFF_67
VEL_1
NOTE_ON_70
TIME_SHIFT_64ND_5
NOTE_OFF_82
NOTE_OFF_70
VEL_3
NOTE_ON_82
VEL_2
NOTE_ON_63
TIME_SHIFT_64ND_5
NOTE_OFF_63
VEL_1
NOTE_ON_67
TIME_SHIFT_64ND_5
NOTE_OFF_67
VEL_1
NOTE_ON_70
TIME_SHIFT_64ND_5
NOTE_OFF_82
NOTE_OFF_70
VEL_3
NOTE_ON_82
VEL_2
NOTE_ON_63
TIME_SHIFT_64ND_5
NOTE_OFF_63
VEL_1
NOTE_ON_67
TIME_SHIFT_64ND_5
NOTE_OFF_67
VEL_1
NOTE_ON_70
TIME_SHIFT_64ND_5
NOTE_OFF_82
NOTE_OFF_70
VEL_3
NOTE_ON_80
VEL_2
NOTE_ON_63
TIME_SHIFT_64ND_4
NOTE_OFF_80
VEL_3
NOTE_ON_77
TIME_SHIFT_64ND_1
NOTE_OFF_63
VEL_1
NOTE_ON_68
TIME_SHIFT_64ND_5
NOTE_OFF_68
VEL_1
NOTE_ON_74
TIME_SHIFT_64ND_5
NOTE_OFF_77
NOTE_OFF_74
VEL_3
NOTE_ON_75
VEL_1
NOTE_ON_63
TIME_SHIFT_64ND_5
NOTE_OFF_63
VEL_1
NOTE_ON_67
TIME_SHIFT_64ND_5
NOTE_OFF_67
VEL_1
NOTE_ON_70
TIME_SHIFT_64ND_5
NOTE_OFF_70
VEL_1
NOTE_ON_63
TIME_SHIFT_64ND_5
NOTE_OFF_63
VEL_1
NOTE_ON_67
TIME_SHIFT_64ND_5
NOTE_OFF_67
VEL_1
NOTE_ON_70
TIME_SHIFT_64ND_5
NOTE_OFF_70
VEL_1
NOTE_ON_63
TIME_SHIFT_64ND_5
NOTE_OFF_63
VEL_1
NOTE_ON_67
TIME_SHIFT_64ND_5
NOTE_OFF_67
VEL_1
NOTE_ON_70
TIME_SHIFT_64ND_3
NOTE_OFF_75
VEL_3
NOTE_ON_79
TIME_SHIFT_64ND_2
NOTE_OFF_79
NOTE_OFF_70
VEL_2
NOTE_ON_77
VEL_1
NOTE_ON_63
TIME_SHIFT_64ND_5
NOTE_OFF_63
VEL_1
NOTE_ON_68
TIME_SHIFT_64ND_5
NOTE_OFF_68
VEL_1
NOTE_ON_74
TIME_SHIFT_64ND_5
NOTE_OFF_77
NOTE_OFF_74
VEL_3
NOTE_ON_75
VEL_1
NOTE_ON_63
VEL_1
NOTE_ON_67
TIME_SHIFT_64ND_15
NOTE_OFF_75
NOTE_OFF_63
NOTE_OFF_67
VEL_2
NOTE_ON_82
VEL_2
NOTE_ON_79
TIME_SHIFT_64ND_15
NOTE_OFF_82
NOTE_OFF_79
VEL_2
NOTE_ON_82
VEL_2
NOTE_ON_79
TIME_SHIFT_64ND_16
NOTE_OFF_82
NOTE_OFF_79
VEL_1
NOTE_ON_43
VEL_1
NOTE_ON_39
TIME_SHIFT_64ND_16
NOTE_OFF_43
NOTE_OFF_39
VEL_1
NOTE_ON_43
VEL_1
NOTE_ON_39
TIME_SHIFT_64ND_16
NOTE_OFF_43
NOTE_OFF_39
TIME_SHIFT_64ND_33
VEL_4
NOTE_ON_58
TIME_SHIFT_64ND_11
NOTE_OFF_58
VEL_4
NOTE_ON_55
TIME_SHIFT_64ND_4
NOTE_OFF_55
VEL_4
NOTE_ON_63
VEL_3
NOTE_ON_51
VEL_3
NOTE_ON_39
TIME_SHIFT_64ND_11
NOTE_OFF_63
VEL_4
NOTE_ON_63
TIME_SHIFT_64ND_4
NOTE_OFF_63
NOTE_OFF_51
NOTE_OFF_39
VEL_4
NOTE_ON_63
TIME_SHIFT_64ND_2
NOTE_OFF_63
VEL_3
NOTE_ON_65
TIME_SHIFT_64ND_2
NOTE_OFF_65
VEL_4
NOTE_ON_63
TIME_SHIFT_64ND_2
NOTE_OFF_63
VEL_3
NOTE_ON_65
TIME_SHIFT_64ND_2
NOTE_OFF_65
VEL_4
NOTE_ON_63
TIME_SHIFT_64ND_1
NOTE_OFF_63
VEL_3
NOTE_ON_65
TIME_SHIFT_64ND_1
NOTE_OFF_65
VEL_4
NOTE_ON_63
TIME_SHIFT_64ND_1
NOTE_OFF_63
VEL_4
NOTE_ON_62
TIME_SHIFT_64ND_2
NOTE_OFF_62
VEL_3
NOTE_ON_63
TIME_SHIFT_64ND_2
NOTE_OFF_63
VEL_4
NOTE_ON_65
VEL_3
NOTE_ON_50
VEL_3
NOTE_ON_38
TIME_SHIFT_64ND_15
NOTE_OFF_65
NOTE_OFF_50
NOTE_OFF_38
VEL_4
NOTE_ON_58
TIME_SHIFT_64ND_11
NOTE_OFF_58
VEL_4
NOTE_ON_70
TIME_SHIFT_64ND_4
NOTE_OFF_70
VEL_5
NOTE_ON_68
TIME_SHIFT_64ND_15
VEL_2
NOTE_ON_39
TIME_SHIFT_64ND_15
NOTE_OFF_68
NOTE_OFF_39
VEL_4
NOTE_ON_67
VEL_3
NOTE_ON_51
TIME_SHIFT_64ND_5
NOTE_OFF_67
NOTE_OFF_51
TIME_SHIFT_64ND_9
VEL_3
NOTE_ON_63
TIME_SHIFT_64ND_11
NOTE_OFF_63
VEL_2
NOTE_ON_72
TIME_SHIFT_64ND_4
NOTE_OFF_72
VEL_3
NOTE_ON_70
TIME_SHIFT_64ND_15
VEL_1
NOTE_ON_53
TIME_SHIFT_64ND_15
NOTE_OFF_70
NOTE_OFF_53
VEL_3
NOTE_ON_68
VEL_2
NOTE_ON_50
TIME_SHIFT_64ND_5
NOTE_OFF_68
NOTE_OFF_50
TIME_SHIFT_64ND_9
VEL_4
NOTE_ON_58
TIME_SHIFT_64ND_11
NOTE_OFF_58
VEL_4
NOTE_ON_70
TIME_SHIFT_64ND_4
NOTE_OFF_70
VEL_5
NOTE_ON_68
TIME_SHIFT_64ND_15
VEL_2
NOTE_ON_51
TIME_SHIFT_64ND_15
NOTE_OFF_68
NOTE_OFF_51
VEL_4
NOTE_ON_67
VEL_3
NOTE_ON_39
TIME_SHIFT_64ND_6
NOTE_OFF_67
NOTE_OFF_39
TIME_SHIFT_64ND_9
VEL_5
NOTE_ON_75
VEL_3
NOTE_ON_43
TIME_SHIFT_64ND_11
NOTE_OFF_75
VEL_4
NOTE_ON_67
TIME_SHIFT_64ND_4
NOTE_OFF_67
NOTE_OFF_43
VEL_4
NOTE_ON_65
VEL_3
NOTE_ON_44
TIME_SHIFT_64ND_11
NOTE_OFF_65
VEL_4
NOTE_ON_65
TIME_SHIFT_64ND_3
NOTE_OFF_65
NOTE_OFF_44
VEL_4
NOTE_ON_65
TIME_SHIFT_64ND_2
NOTE_OFF_65
VEL_3
NOTE_ON_67
TIME_SHIFT_64ND_2
NOTE_OFF_67
VEL_4
NOTE_ON_65
TIME_SHIFT_64ND_2
NOTE_OFF_65
VEL_3
NOTE_ON_67
TIME_SHIFT_64ND_2
NOTE_OFF_67
VEL_4
NOTE_ON_65
TIME_SHIFT_64ND_1
NOTE_OFF_65
VEL_3
NOTE_ON_67
TIME_SHIFT_64ND_1
NOTE_OFF_67
VEL_4
NOTE_ON_65
TIME_SHIFT_64ND_1
NOTE_OFF_65
VEL_4
NOTE_ON_64
TIME_SHIFT_64ND_2
NOTE_OFF_64
VEL_3
NOTE_ON_65
TIME_SHIFT_64ND_2
NOTE_OFF_65
VEL_4
NOTE_ON_68
TIME_SHIFT_64ND_11
NOTE_OFF_68
VEL_4
NOTE_ON_65
TIME_SHIFT_64ND_4
NOTE_OFF_65
VEL_4
NOTE_ON_62
VEL_3
NOTE_ON_46
TIME_SHIFT_64ND_11
NOTE_OFF_62
VEL_4
NOTE_ON_58
TIME_SHIFT_64ND_4
NOTE_OFF_58
NOTE_OFF_46
VEL_5
NOTE_ON_63
TIME_SHIFT_64ND_11
NOTE_OFF_63
VEL_2
NOTE_ON_51
TIME_SHIFT_64ND_4
NOTE_OFF_51
VEL_3
NOTE_ON_55
TIME_SHIFT_64ND_11
NOTE_OFF_55
VEL_3
NOTE_ON_58
TIME_SHIFT_64ND_4
NOTE_OFF_58
VEL_3
NOTE_ON_63
TIME_SHIFT_64ND_11
VEL_3
NOTE_ON_67
TIME_SHIFT_64ND_4
NOTE_OFF_67
NOTE_OFF_63
VEL_4
NOTE_ON_70
TIME_SHIFT_64ND_11
NOTE_OFF_70
VEL_3
NOTE_ON_75
TIME_SHIFT_64ND_4
NOTE_OFF_75
VEL_4
NOTE_ON_79
TIME_SHIFT_64ND_11
NOTE_OFF_79
VEL_3
NOTE_ON_70
TIME_SHIFT_64ND_4
NOTE_OFF_70
VEL_4
NOTE_ON_75
TIME_SHIFT_64ND_11
NOTE_OFF_75
VEL_3
NOTE_ON_79
TIME_SHIFT_64ND_4
NOTE_OFF_79
VEL_4
NOTE_ON_82
TIME_SHIFT_64ND_11
NOTE_OFF_82
VEL_3
NOTE_ON_75
TIME_SHIFT_64ND_4
NOTE_OFF_75
VEL_4
NOTE_ON_79
TIME_SHIFT_64ND_11
NOTE_OFF_79
VEL_4
NOTE_ON_82
TIME_SHIFT_64ND_4
NOTE_OFF_82
VEL_4
NOTE_ON_85
TIME_SHIFT_64ND_11
VEL_2
NOTE_ON_68
TIME_SHIFT_64ND_4
NOTE_OFF_68
VEL_3
NOTE_ON_67
TIME_SHIFT_64ND_11
NOTE_OFF_67
VEL_3
NOTE_ON_65
TIME_SHIFT_64ND_4
NOTE_OFF_85
NOTE_OFF_65
VEL_3
NOTE_ON_84
VEL_3
NOTE_ON_64
TIME_SHIFT_64ND_2
NOTE_OFF_84
VEL_3
NOTE_ON_85
TIME_SHIFT_64ND_2
NOTE_OFF_85
VEL_4
NOTE_ON_84
TIME_SHIFT_64ND_2
NOTE_OFF_84
VEL_3
NOTE_ON_85
TIME_SHIFT_64ND_2
NOTE_OFF_85
VEL_3
NOTE_ON_84
TIME_SHIFT_64ND_2
NOTE_OFF_84
VEL_3
NOTE_ON_85
TIME_SHIFT_64ND_2
NOTE_OFF_85
NOTE_OFF_64
VEL_4
NOTE_ON_84
VEL_3
NOTE_ON_67
TIME_SHIFT_64ND_2
NOTE_OFF_84
VEL_3
NOTE_ON_85
TIME_SHIFT_64ND_2
NOTE_OFF_85
NOTE_OFF_67
VEL_4
NOTE_ON_84
VEL_3
NOTE_ON_60
TIME_SHIFT_64ND_2
NOTE_OFF_84
VEL_3
NOTE_ON_85
TIME_SHIFT_64ND_2
NOTE_OFF_85
VEL_3
NOTE_ON_84
TIME_SHIFT_64ND_2
NOTE_OFF_84
VEL_4
NOTE_ON_82
TIME_SHIFT_64ND_4
NOTE_OFF_60
VEL_3
NOTE_ON_64
TIME_SHIFT_64ND_4
NOTE_OFF_82
NOTE_OFF_64
VEL_4
NOTE_ON_80
VEL_2
NOTE_ON_65
TIME_SHIFT_64ND_5
NOTE_OFF_65
VEL_2
NOTE_ON_68
TIME_SHIFT_64ND_5
NOTE_OFF_68
VEL_2
NOTE_ON_72
TIME_SHIFT_64ND_5
NOTE_OFF_80
NOTE_OFF_72
VEL_4
NOTE_ON_77
VEL_2
NOTE_ON_65
TIME_SHIFT_64ND_5
NOTE_OFF_65
VEL_2
NOTE_ON_68
TIME_SHIFT_64ND_5
NOTE_OFF_68
VEL_2
NOTE_ON_72
TIME_SHIFT_64ND_5
NOTE_OFF_77
NOTE_OFF_72
VEL_4
NOTE_ON_77
VEL_2
NOTE_ON_65
TIME_SHIFT_64ND_5
NOTE_OFF_65
VEL_2
NOTE_ON_68
TIME_SHIFT_64ND_5
NOTE_OFF_68
VEL_2
NOTE_ON_72
TIME_SHIFT_64ND_5
NOTE_OFF_77
NOTE_OFF_72
VEL_4
NOTE_ON_79
VEL_2
NOTE_ON_64
TIME_SHIFT_64ND_5
NOTE_OFF_64
VEL_2
NOTE_ON_67
TIME_SHIFT_64ND_5
NOTE_OFF_67
VEL_2
NOTE_ON_72
TIME_SHIFT_64ND_5
NOTE_OFF_79
NOTE_OFF_72
VEL_4
NOTE_ON_79
VEL_2
NOTE_ON_65
TIME_SHIFT_64ND_5
NOTE_OFF_65
VEL_2
NOTE_ON_68
TIME_SHIFT_64ND_5
NOTE_OFF_68
VEL_2
NOTE_ON_72
TIME_SHIFT_64ND_5
NOTE_OFF_79
NOTE_OFF_72
VEL_4
NOTE_ON_80
VEL_2
NOTE_ON_65
TIME_SHIFT_64ND_5
NOTE_OFF_65
VEL_2
NOTE_ON_68
TIME_SHIFT_64ND_5
NOTE_OFF_68
VEL_1
NOTE_ON_72
TIME_SHIFT_64ND_5
NOTE_OFF_80
NOTE_OFF_72
VEL_3
NOTE_ON_77
VEL_2
NOTE_ON_65
TIME_SHIFT_64ND_5
NOTE_OFF_65
VEL_2
NOTE_ON_68
TIME_SHIFT_64ND_5
NOTE_OFF_68
VEL_2
NOTE_ON_72
TIME_SHIFT_64ND_5
NOTE_OFF_72
VEL_2
NOTE_ON_65
TIME_SHIFT_64ND_5
NOTE_OFF_65
VEL_2
NOTE_ON_68
TIME_SHIFT_64ND_5
NOTE_OFF_68
VEL_2
NOTE_ON_72
TIME_SHIFT_64ND_5
NOTE_OFF_77
NOTE_OFF_72
VEL_4
NOTE_ON_80
VEL_2
NOTE_ON_63
TIME_SHIFT_64ND_5
NOTE_OFF_63
VEL_2
NOTE_ON_66
TIME_SHIFT_64ND_5
NOTE_OFF_66
VEL_2
NOTE_ON_72
TIME_SHIFT_64ND_5
NOTE_OFF_80
NOTE_OFF_72
VEL_4
NOTE_ON_80
VEL_2
NOTE_ON_63
TIME_SHIFT_64ND_5
NOTE_OFF_63
VEL_2
NOTE_ON_66
TIME_SHIFT_64ND_5
NOTE_OFF_66
VEL_2
NOTE_ON_72
TIME_SHIFT_64ND_5
NOTE_OFF_80
NOTE_OFF_72
VEL_4
NOTE_ON_80
VEL_2
NOTE_ON_63
TIME_SHIFT_64ND_5
NOTE_OFF_63
VEL_2
NOTE_ON_66
TIME_SHIFT_64ND_5
NOTE_OFF_66
VEL_2
NOTE_ON_72
TIME_SHIFT_64ND_1
NOTE_OFF_80
VEL_4
NOTE_ON_84
TIME_SHIFT_64ND_3
NOTE_OFF_84
NOTE_OFF_72
VEL_4
NOTE_ON_84
VEL_2
NOTE_ON_63
TIME_SHIFT_64ND_2
NOTE_OFF_84
VEL_3
NOTE_ON_85
TIME_SHIFT_64ND_2
NOTE_OFF_85
VEL_4
NOTE_ON_84
TIME_SHIFT_64ND_1
NOTE_OFF_63
VEL_2
NOTE_ON_66
TIME_SHIFT_64ND_1
NOTE_OFF_84
VEL_3
NOTE_ON_85
TIME_SHIFT_64ND_2
NOTE_OFF_85
VEL_4
NOTE_ON_84
TIME_SHIFT_64ND_1
NOTE_OFF_84
VEL_3
NOTE_ON_85
TIME_SHIFT_64ND_1
NOTE_OFF_85
NOTE_OFF_66
VEL_4
NOTE_ON_84
VEL_2
NOTE_ON_72
TIME_SHIFT_64ND_1
NOTE_OFF_84
VEL_4
NOTE_ON_82
TIME_SHIFT_64ND_2
NOTE_OFF_82
VEL_3
NOTE_ON_84
TIME_SHIFT_64ND_2
NOTE_OFF_84
NOTE_OFF_72
VEL_4
NOTE_ON_85
VEL_2
NOTE_ON_61
TIME_SHIFT_64ND_5
NOTE_OFF_61
VEL_2
NOTE_ON_65
TIME_SHIFT_64ND_5
NOTE_OFF_65
VEL_2
NOTE_ON_68
TIME_SHIFT_64ND_5
NOTE_OFF_68
VEL_2
NOTE_ON_61
TIME_SHIFT_64ND_5
NOTE_OFF_61
VEL_2
NOTE_ON_65
TIME_SHIFT_64ND_5
NOTE_OFF_65
VEL_1
NOTE_ON_68
TIME_SHIFT_64ND_5
NOTE_OFF_85
NOTE_OFF_68
VEL_3
NOTE_ON_73
VEL_2
NOTE_ON_61
TIME_SHIFT_64ND_5
NOTE_OFF_61
VEL_2
NOTE_ON_65
TIME_SHIFT_64ND_5
NOTE_OFF_65
VEL_2
NOTE_ON_68
TIME_SHIFT_64ND_5
NOTE_OFF_68
VEL_2
NOTE_ON_61
TIME_SHIFT_64ND_5
NOTE_OFF_61
VEL_2
NOTE_ON_65
TIME_SHIFT_64ND_5
NOTE_OFF_65
VEL_2
NOTE_ON_68
TIME_SHIFT_64ND_5
NOTE_OFF_73
NOTE_OFF_68
VEL_4
NOTE_ON_82
VEL_2
NOTE_ON_62
TIME_SHIFT_64ND_5
NOTE_OFF_62
VEL_2
NOTE_ON_65
TIME_SHIFT_64ND_5
NOTE_OFF_65
VEL_2
NOTE_ON_70
TIME_SHIFT_64ND_5
NOTE_OFF_82
NOTE_OFF_70
VEL_4
NOTE_ON_82
VEL_2
NOTE_ON_62
TIME_SHIFT_64ND_5
NOTE_OFF_62
VEL_2
NOTE_ON_65
TIME_SHIFT_64ND_5
NOTE_OFF_65
VEL_2
NOTE_ON_70
TIME_SHIFT_64ND_5
NOTE_OFF_82
NOTE_OFF_70
VEL_4
NOTE_ON_82
VEL_2
NOTE_ON_62
TIME_SHIFT_64ND_5
NOTE_OFF_62
VEL_2
NOTE_ON_65
TIME_SHIFT_64ND_5
NOTE_OFF_65
VEL_2
NOTE_ON_70
TIME_SHIFT_64ND_5
NOTE_OFF_82
NOTE_OFF_70
VEL_4
NOTE_ON_80
VEL_2
NOTE_ON_62
TIME_SHIFT_64ND_2
NOTE_OFF_80
VEL_3
NOTE_ON_82
TIME_SHIFT_64ND_2
NOTE_OFF_82
VEL_4
NOTE_ON_80
TIME_SHIFT_64ND_1
NOTE_OFF_62
VEL_2
NOTE_ON_65
TIME_SHIFT_64ND_1
NOTE_OFF_80
VEL_3
NOTE_ON_82
TIME_SHIFT_64ND_2
NOTE_OFF_82
VEL_4
NOTE_ON_80
TIME_SHIFT_64ND_1
NOTE_OFF_80
VEL_3
NOTE_ON_82
TIME_SHIFT_64ND_1
NOTE_OFF_82
NOTE_OFF_65
VEL_4
NOTE_ON_80
VEL_2
NOTE_ON_70
TIME_SHIFT_64ND_1
NOTE_OFF_80
VEL_4
NOTE_ON_79
TIME_SHIFT_64ND_2
NOTE_OFF_79
VEL_3
NOTE_ON_80
TIME_SHIFT_64ND_2
NOTE_OFF_80
NOTE_OFF_70
VEL_4
NOTE_ON_79
VEL_2
NOTE_ON_63
TIME_SHIFT_64ND_5
NOTE_OFF_63
VEL_2
NOTE_ON_67
TIME_SHIFT_64ND_5
NOTE_OFF_67
VEL_2
NOTE_ON_70
TIME_SHIFT_64ND_5
NOTE_OFF_70
VEL_2
NOTE_ON_63
TIME_SHIFT_64ND_5
NOTE_OFF_63
VEL_2
NOTE_ON_67
TIME_SHIFT_64ND_5
NOTE_OFF_67
VEL_1
NOTE_ON_70
TIME_SHIFT_64ND_5
NOTE_OFF_79
NOTE_OFF_70
VEL_3
NOTE_ON_75
VEL_2
NOTE_ON_63
TIME_SHIFT_64ND_5
NOTE_OFF_63
VEL_2
NOTE_ON_67
TIME_SHIFT_64ND_5
NOTE_OFF_67
VEL_2
NOTE_ON_70
TIME_SHIFT_64ND_5
NOTE_OFF_70
VEL_2
NOTE_ON_63
TIME_SHIFT_64ND_5
NOTE_OFF_63
VEL_2
NOTE_ON_67
TIME_SHIFT_64ND_5
NOTE_OFF_67
VEL_2
NOTE_ON_70
TIME_SHIFT_64ND_5
NOTE_OFF_75
NOTE_OFF_70
VEL_4
NOTE_ON_74
VEL_2
NOTE_ON_65
TIME_SHIFT_64ND_5
NOTE_OFF_65
VEL_2
NOTE_ON_68
TIME_SHIFT_64ND_5
NOTE_OFF_68
VEL_2
NOTE_ON_71
TIME_SHIFT_64ND_5
NOTE_OFF_74
NOTE_OFF_71
VEL_3
NOTE_ON_74
VEL_2
NOTE_ON_65
TIME_SHIFT_64ND_5
NOTE_OFF_65
VEL_2
NOTE_ON_68
TIME_SHIFT_64ND_5
NOTE_OFF_68
VEL_1
NOTE_ON_71
TIME_SHIFT_64ND_5
NOTE_OFF_74
NOTE_OFF_71
VEL_4
NOTE_ON_74
VEL_2
NOTE_ON_65
TIME_SHIFT_64ND_5
NOTE_OFF_65
VEL_2
NOTE_ON_68
TIME_SHIFT_64ND_5
NOTE_OFF_68
VEL_2
NOTE_ON_71
TIME_SHIFT_64ND_1
NOTE_OFF_74
VEL_3
NOTE_ON_74
TIME_SHIFT_64ND_3
NOTE_OFF_74
NOTE_OFF_71
VEL_4
NOTE_ON_74
VEL_2
NOTE_ON_65
TIME_SHIFT_64ND_2
NOTE_OFF_74
VEL_3
NOTE_ON_75
TIME_SHIFT_64ND_2
NOTE_OFF_75
VEL_4
NOTE_ON_74
TIME_SHIFT_64ND_1
NOTE_OFF_65
VEL_2
NOTE_ON_68
TIME_SHIFT_64ND_1
NOTE_OFF_74
VEL_3
NOTE_ON_75
TIME_SHIFT_64ND_2
NOTE_OFF_75
VEL_3
NOTE_ON_74
TIME_SHIFT_64ND_1
NOTE_OFF_74
VEL_3
NOTE_ON_75
TIME_SHIFT_64ND_1
NOTE_OFF_75
NOTE_OFF_68
VEL_3
NOTE_ON_74
VEL_2
NOTE_ON_71
TIME_SHIFT_64ND_1
NOTE_OFF_74
VEL_3
NOTE_ON_72
TIME_SHIFT_64ND_2
NOTE_OFF_72
VEL_3
NOTE_ON_74
TIME_SHIFT_64ND_2
NOTE_OFF_74
NOTE_OFF_71
VEL_4
NOTE_ON_75
VEL_2
NOTE_ON_63
TIME_SHIFT_64ND_5
NOTE_OFF_63
VEL_2
NOTE_ON_68
TIME_SHIFT_64ND_5
NOTE_OFF_68
VEL_2
NOTE_ON_71
TIME_SHIFT_64ND_5
NOTE_OFF_75
NOTE_OFF_71
VEL_4
NOTE_ON_75
VEL_2
NOTE_ON_63
TIME_SHIFT_64ND_5
NOTE_OFF_63
VEL_2
NOTE_ON_68
TIME_SHIFT_64ND_5
NOTE_OFF_68
VEL_2
NOTE_ON_71
TIME_SHIFT_64ND_5
NOTE_OFF_75
NOTE_OFF_71
VEL_4
NOTE_ON_75
VEL_2
NOTE_ON_63
TIME_SHIFT_64ND_5
NOTE_OFF_63
VEL_2
NOTE_ON_68
TIME_SHIFT_64ND_5
NOTE_OFF_68
VEL_2
NOTE_ON_71
TIME_SHIFT_64ND_1
NOTE_OFF_75
VEL_3
NOTE_ON_75
TIME_SHIFT_64ND_3
NOTE_OFF_75
NOTE_OFF_71
VEL_4
NOTE_ON_75
VEL_2
NOTE_ON_63
TIME_SHIFT_64ND_2
NOTE_OFF_75
VEL_3
NOTE_ON_77
TIME_SHIFT_64ND_2
NOTE_OFF_77
VEL_4
NOTE_ON_75
TIME_SHIFT_64ND_1
NOTE_OFF_63
VEL_2
NOTE_ON_68
TIME_SHIFT_64ND_1
NOTE_OFF_75
VEL_3
NOTE_ON_77
TIME_SHIFT_64ND_2
NOTE_OFF_77
VEL_4
NOTE_ON_75
TIME_SHIFT_64ND_1
NOTE_OFF_75
VEL_3
NOTE_ON_77
TIME_SHIFT_64ND_1
NOTE_OFF_77
NOTE_OFF_68
VEL_4
NOTE_ON_75
VEL_2
NOTE_ON_71
TIME_SHIFT_64ND_1
NOTE_OFF_75
VEL_3
NOTE_ON_74
TIME_SHIFT_64ND_2
NOTE_OFF_74
VEL_3
NOTE_ON_75
TIME_SHIFT_64ND_2
NOTE_OFF_75
NOTE_OFF_71
VEL_4
NOTE_ON_77
VEL_3
NOTE_ON_61
TIME_SHIFT_64ND_5
NOTE_OFF_61
VEL_2
NOTE_ON_68
TIME_SHIFT_64ND_5
NOTE_OFF_68
VEL_2
NOTE_ON_71
TIME_SHIFT_64ND_5
VEL_4
NOTE_ON_77
NOTE_OFF_77
NOTE_OFF_77
NOTE_OFF_71
VEL_3
NOTE_ON_61
TIME_SHIFT_64ND_5
NOTE_OFF_61
VEL_2
NOTE_ON_68
TIME_SHIFT_64ND_5
NOTE_OFF_68
VEL_2
NOTE_ON_71
TIME_SHIFT_64ND_5
NOTE_OFF_71
VEL_4
NOTE_ON_77
VEL_3
NOTE_ON_61
TIME_SHIFT_64ND_5
NOTE_OFF_61
VEL_2
NOTE_ON_68
TIME_SHIFT_64ND_5
NOTE_OFF_68
VEL_2
NOTE_ON_71
TIME_SHIFT_64ND_1
VEL_4
NOTE_ON_77
NOTE_OFF_77
NOTE_OFF_77
TIME_SHIFT_64ND_4
NOTE_OFF_71
VEL_4
NOTE_ON_77
VEL_3
NOTE_ON_61
TIME_SHIFT_64ND_2
NOTE_OFF_77
VEL_3
NOTE_ON_79
TIME_SHIFT_64ND_2
NOTE_OFF_79
VEL_4
NOTE_ON_77
TIME_SHIFT_64ND_1
NOTE_OFF_61
VEL_2
NOTE_ON_68
TIME_SHIFT_64ND_1
NOTE_OFF_77
VEL_3
NOTE_ON_79
TIME_SHIFT_64ND_2
NOTE_OFF_79
VEL_4
NOTE_ON_77
TIME_SHIFT_64ND_1
NOTE_OFF_77
VEL_3
NOTE_ON_79
TIME_SHIFT_64ND_1
NOTE_OFF_79
NOTE_OFF_68
VEL_4
NOTE_ON_77
VEL_2
NOTE_ON_71
TIME_SHIFT_64ND_1
NOTE_OFF_77
VEL_4
NOTE_ON_75
TIME_SHIFT_64ND_2
NOTE_OFF_75
VEL_3
NOTE_ON_77
TIME_SHIFT_64ND_2
NOTE_OFF_77
NOTE_OFF_71
VEL_4
NOTE_ON_78
VEL_3
NOTE_ON_61
TIME_SHIFT_64ND_5
NOTE_OFF_61
VEL_2
NOTE_ON_66
TIME_SHIFT_64ND_5
VEL_2
NOTE_ON_70
NOTE_OFF_66
TIME_SHIFT_64ND_5
NOTE_OFF_70
NOTE_OFF_78
VEL_4
NOTE_ON_78
VEL_3
NOTE_ON_61
TIME_SHIFT_64ND_5
NOTE_OFF_61
VEL_3
NOTE_ON_66
TIME_SHIFT_64ND_5
VEL_2
NOTE_ON_70
NOTE_OFF_66
TIME_SHIFT_64ND_5
NOTE_OFF_70
NOTE_OFF_78
VEL_4
NOTE_ON_78
VEL_3
NOTE_ON_61
TIME_SHIFT_64ND_5
NOTE_OFF_61
VEL_3
NOTE_ON_66
TIME_SHIFT_64ND_5
VEL_3
NOTE_ON_70
NOTE_OFF_66
TIME_SHIFT_64ND_1
NOTE_OFF_78
VEL_4
NOTE_ON_78
TIME_SHIFT_64ND_3
NOTE_OFF_78
NOTE_OFF_70
VEL_4
NOTE_ON_78
VEL_3
NOTE_ON_61
TIME_SHIFT_64ND_2
NOTE_OFF_78
VEL_4
NOTE_ON_80
TIME_SHIFT_64ND_2
NOTE_OFF_80
VEL_4
NOTE_ON_78
TIME_SHIFT_64ND_1
NOTE_OFF_61
VEL_3
NOTE_ON_66
TIME_SHIFT_64ND_1
NOTE_OFF_78
VEL_3
NOTE_ON_80
TIME_SHIFT_64ND_2
NOTE_OFF_80
VEL_4
NOTE_ON_78
TIME_SHIFT_64ND_1
NOTE_OFF_78
VEL_4
NOTE_ON_80
TIME_SHIFT_64ND_1
VEL_3
NOTE_ON_70
NOTE_OFF_80
NOTE_OFF_66
VEL_4
NOTE_ON_78
TIME_SHIFT_64ND_1
NOTE_OFF_78
VEL_4
NOTE_ON_77
TIME_SHIFT_64ND_2
NOTE_OFF_77
VEL_3
NOTE_ON_78
TIME_SHIFT_64ND_2
NOTE_OFF_70
NOTE_OFF_78
VEL_5
NOTE_ON_83
VEL_3
NOTE_ON_61
TIME_SHIFT_64ND_5
NOTE_OFF_61
VEL_3
NOTE_ON_65
TIME_SHIFT_64ND_5
NOTE_OFF_65
VEL_2
NOTE_ON_68
TIME_SHIFT_64ND_5
NOTE_OFF_83
NOTE_OFF_68
VEL_4
NOTE_ON_83
VEL_3
NOTE_ON_61
TIME_SHIFT_64ND_5
NOTE_OFF_61
VEL_2
NOTE_ON_65
TIME_SHIFT_64ND_5
NOTE_OFF_65
VEL_2
NOTE_ON_68
TIME_SHIFT_64ND_5
NOTE_OFF_83
NOTE_OFF_68
VEL_5
NOTE_ON_83
VEL_2
NOTE_ON_61
TIME_SHIFT_64ND_5
NOTE_OFF_61
VEL_2
NOTE_ON_65
TIME_SHIFT_64ND_5
NOTE_OFF_65
VEL_2
NOTE_ON_68
TIME_SHIFT_64ND_1
NOTE_OFF_83
VEL_4
NOTE_ON_83
TIME_SHIFT_64ND_3
NOTE_OFF_83
NOTE_OFF_68
VEL_4
NOTE_ON_85
VEL_2
NOTE_ON_61
TIME_SHIFT_64ND_4
NOTE_OFF_85
VEL_4
NOTE_ON_83
TIME_SHIFT_64ND_1
NOTE_OFF_61
VEL_2
NOTE_ON_65
TIME_SHIFT_64ND_2
NOTE_OFF_83
VEL_4
NOTE_ON_82
TIME_SHIFT_64ND_2
NOTE_OFF_65
VEL_2
NOTE_ON_68
TIME_SHIFT_64ND_1
NOTE_OFF_82
VEL_3
NOTE_ON_83
TIME_SHIFT_64ND_4
NOTE_OFF_83
NOTE_OFF_68
VEL_4
NOTE_ON_82
VEL_2
NOTE_ON_62
TIME_SHIFT_64ND_5
NOTE_OFF_62
VEL_2
NOTE_ON_65
TIME_SHIFT_64ND_5
NOTE_OFF_65
VEL_2
NOTE_ON_70
TIME_SHIFT_64ND_5
NOTE_OFF_82
NOTE_OFF_70
VEL_4
NOTE_ON_82
VEL_2
NOTE_ON_62
TIME_SHIFT_64ND_5
NOTE_OFF_62
VEL_2
NOTE_ON_65
TIME_SHIFT_64ND_5
NOTE_OFF_65
VEL_2
NOTE_ON_70
TIME_SHIFT_64ND_5
NOTE_OFF_82
NOTE_OFF_70
VEL_4
NOTE_ON_82
VEL_2
NOTE_ON_62
TIME_SHIFT_64ND_5
NOTE_OFF_62
VEL_2
NOTE_ON_65
TIME_SHIFT_64ND_5
NOTE_OFF_65
VEL_2
NOTE_ON_70
TIME_SHIFT_64ND_5
NOTE_OFF_82
NOTE_OFF_70
VEL_4
NOTE_ON_82
VEL_2
NOTE_ON_62
TIME_SHIFT_64ND_4
NOTE_OFF_82
VEL_4
NOTE_ON_80
TIME_SHIFT_64ND_1
NOTE_OFF_62
VEL_2
NOTE_ON_65
TIME_SHIFT_64ND_2
NOTE_OFF_80
VEL_4
NOTE_ON_79
TIME_SHIFT_64ND_2
NOTE_OFF_65
VEL_2
NOTE_ON_70
TIME_SHIFT_64ND_1
NOTE_OFF_79
VEL_3
NOTE_ON_80
TIME_SHIFT_64ND_4
NOTE_OFF_80
NOTE_OFF_70
VEL_4
NOTE_ON_79
VEL_2
NOTE_ON_63
TIME_SHIFT_64ND_5
NOTE_OFF_63
VEL_2
NOTE_ON_70
TIME_SHIFT_64ND_5
NOTE_OFF_70
VEL_2
NOTE_ON_73
TIME_SHIFT_64ND_5
NOTE_OFF_73
VEL_2
NOTE_ON_63
TIME_SHIFT_64ND_5
NOTE_OFF_63
VEL_2
NOTE_ON_70
TIME_SHIFT_64ND_5
NOTE_OFF_70
VEL_1
NOTE_ON_73
TIME_SHIFT_64ND_5
NOTE_OFF_79
NOTE_OFF_73
VEL_3
NOTE_ON_75
VEL_2
NOTE_ON_63
TIME_SHIFT_64ND_5
NOTE_OFF_63
VEL_2
NOTE_ON_70
TIME_SHIFT_64ND_5
NOTE_OFF_70
VEL_2
NOTE_ON_73
TIME_SHIFT_64ND_5
NOTE_OFF_73
VEL_2
NOTE_ON_63
TIME_SHIFT_64ND_5
NOTE_OFF_63
VEL_2
NOTE_ON_67
TIME_SHIFT_64ND_5
NOTE_OFF_67
VEL_2
NOTE_ON_70
TIME_SHIFT_64ND_5
NOTE_OFF_75
NOTE_OFF_70
VEL_4
NOTE_ON_84
VEL_3
NOTE_ON_64
TIME_SHIFT_64ND_5
NOTE_OFF_64
VEL_2
NOTE_ON_67
TIME_SHIFT_64ND_5
NOTE_OFF_67
VEL_2
NOTE_ON_72
TIME_SHIFT_64ND_5
NOTE_OFF_84
NOTE_OFF_72
VEL_4
NOTE_ON_84
VEL_3
NOTE_ON_64
TIME_SHIFT_64ND_5
NOTE_OFF_64
VEL_2
NOTE_ON_67
TIME_SHIFT_64ND_5
NOTE_OFF_67
VEL_2
NOTE_ON_72
TIME_SHIFT_64ND_5
NOTE_OFF_84
NOTE_OFF_72
VEL_4
NOTE_ON_84
VEL_2
NOTE_ON_64
TIME_SHIFT_64ND_5
NOTE_OFF_64
VEL_2
NOTE_ON_67
TIME_SHIFT_64ND_5
NOTE_OFF_67
VEL_2
NOTE_ON_72
TIME_SHIFT_64ND_5
NOTE_OFF_84
NOTE_OFF_72
VEL_4
NOTE_ON_84
VEL_2
NOTE_ON_64
TIME_SHIFT_64ND_4
NOTE_OFF_84
VEL_4
NOTE_ON_82
TIME_SHIFT_64ND_1
NOTE_OFF_64
VEL_2
NOTE_ON_67
TIME_SHIFT_64ND_2
NOTE_OFF_82
VEL_4
NOTE_ON_80
TIME_SHIFT_64ND_2
NOTE_OFF_67
VEL_2
NOTE_ON_72
TIME_SHIFT_64ND_1
NOTE_OFF_80
VEL_3
NOTE_ON_82
TIME_SHIFT_64ND_4
NOTE_OFF_82
NOTE_OFF_72
VEL_4
NOTE_ON_80
VEL_3
NOTE_ON_65
TIME_SHIFT_64ND_5
NOTE_OFF_80
VEL_3
NOTE_ON_84
TIME_SHIFT_64ND_5
NOTE_OFF_84
VEL_3
NOTE_ON_82
TIME_SHIFT_64ND_5
NOTE_OFF_82
NOTE_OFF_65
VEL_3
NOTE_ON_80
TIME_SHIFT_64ND_5
NOTE_OFF_80
VEL_4
NOTE_ON_79
TIME_SHIFT_64ND_5
NOTE_OFF_79
VEL_3
NOTE_ON_77
TIME_SHIFT_64ND_5
NOTE_OFF_77
VEL_3
NOTE_ON_75
TIME_SHIFT_64ND_5
NOTE_OFF_75
VEL_3
NOTE_ON_73
TIME_SHIFT_64ND_5
NOTE_OFF_73
VEL_3
NOTE_ON_72
TIME_SHIFT_64ND_5
NOTE_OFF_72
VEL_4
NOTE_ON_70
TIME_SHIFT_64ND_5
NOTE_OFF_70
VEL_3
NOTE_ON_68
TIME_SHIFT_64ND_5
NOTE_OFF_68
VEL_3
NOTE_ON_67
TIME_SHIFT_64ND_5
NOTE_OFF_67
VEL_4
NOTE_ON_65
TIME_SHIFT_64ND_5
NOTE_OFF_65
VEL_3
NOTE_ON_72
TIME_SHIFT_64ND_5
NOTE_OFF_72
VEL_3
NOTE_ON_70
TIME_SHIFT_64ND_5
NOTE_OFF_70
VEL_3
NOTE_ON_68
TIME_SHIFT_64ND_5
NOTE_OFF_68
VEL_4
NOTE_ON_67
TIME_SHIFT_64ND_5
NOTE_OFF_67
VEL_3
NOTE_ON_65
TIME_SHIFT_64ND_5
NOTE_OFF_65
VEL_3
NOTE_ON_63
TIME_SHIFT_64ND_5
NOTE_OFF_63
VEL_3
NOTE_ON_61
TIME_SHIFT_64ND_5
NOTE_OFF_61
VEL_3
NOTE_ON_60
TIME_SHIFT_64ND_5
NOTE_OFF_60
VEL_4
NOTE_ON_58
TIME_SHIFT_64ND_5
NOTE_OFF_58
VEL_3
NOTE_ON_56
TIME_SHIFT_64ND_5
NOTE_OFF_56
VEL_3
NOTE_ON_55
TIME_SHIFT_64ND_5
NOTE_OFF_55
VEL_4
NOTE_ON_53
VEL_2
NOTE_ON_45
TIME_SHIFT_64ND_5
NOTE_OFF_45
VEL_2
NOTE_ON_48
TIME_SHIFT_64ND_5
NOTE_OFF_48
VEL_2
NOTE_ON_51
TIME_SHIFT_64ND_5
NOTE_OFF_53
NOTE_OFF_51
VEL_4
NOTE_ON_53
VEL_2
NOTE_ON_45
TIME_SHIFT_64ND_5
NOTE_OFF_45
VEL_2
NOTE_ON_48
TIME_SHIFT_64ND_5
NOTE_OFF_48
VEL_2
NOTE_ON_51
TIME_SHIFT_64ND_5
NOTE_OFF_53
NOTE_OFF_51
VEL_4
NOTE_ON_53
VEL_2
NOTE_ON_45
TIME_SHIFT_64ND_5
NOTE_OFF_45
VEL_2
NOTE_ON_48
TIME_SHIFT_64ND_5
NOTE_OFF_48
VEL_2
NOTE_ON_51
TIME_SHIFT_64ND_5
NOTE_OFF_53
NOTE_OFF_51
VEL_4
NOTE_ON_63
VEL_2
NOTE_ON_45
TIME_SHIFT_64ND_5
NOTE_OFF_45
VEL_2
NOTE_ON_48
TIME_SHIFT_64ND_5
NOTE_OFF_48
VEL_2
NOTE_ON_53
TIME_SHIFT_64ND_5
NOTE_OFF_63
NOTE_OFF_53
VEL_3
NOTE_ON_61
VEL_2
NOTE_ON_46
TIME_SHIFT_64ND_2
NOTE_OFF_61
VEL_3
NOTE_ON_63
TIME_SHIFT_64ND_2
NOTE_OFF_63
VEL_3
NOTE_ON_61
TIME_SHIFT_64ND_1
NOTE_OFF_46
VEL_2
NOTE_ON_49
NOTE_OFF_61
VEL_3
NOTE_ON_63
TIME_SHIFT_64ND_2
NOTE_OFF_63
VEL_3
NOTE_ON_61
TIME_SHIFT_64ND_2
NOTE_OFF_61
VEL_3
NOTE_ON_63
VEL_2
NOTE_ON_53
NOTE_OFF_49
TIME_SHIFT_64ND_1
NOTE_OFF_63
VEL_4
NOTE_ON_61
TIME_SHIFT_64ND_2
NOTE_OFF_61
VEL_3
NOTE_ON_63
TIME_SHIFT_64ND_2
NOTE_OFF_53
NOTE_OFF_63
VEL_4
NOTE_ON_61
VEL_2
NOTE_ON_46
TIME_SHIFT_64ND_2
NOTE_OFF_61
VEL_3
NOTE_ON_63
TIME_SHIFT_64ND_2
NOTE_OFF_63
NOTE_OFF_46
VEL_3
NOTE_ON_61
VEL_2
NOTE_ON_49
TIME_SHIFT_64ND_2
NOTE_OFF_61
VEL_3
NOTE_ON_60
TIME_SHIFT_64ND_2
NOTE_OFF_49
VEL_2
NOTE_ON_53
TIME_SHIFT_64ND_5
VEL_3
NOTE_ON_58
VEL_2
NOTE_ON_46
NOTE_OFF_60
NOTE_OFF_53
TIME_SHIFT_64ND_5
NOTE_OFF_46
VEL_2
NOTE_ON_49
TIME_SHIFT_64ND_5
NOTE_OFF_49
VEL_2
NOTE_ON_53
TIME_SHIFT_64ND_5
NOTE_OFF_58
NOTE_OFF_53
VEL_2
NOTE_ON_46
TIME_SHIFT_64ND_5
NOTE_OFF_46
VEL_2
NOTE_ON_49
TIME_SHIFT_64ND_5
NOTE_OFF_49
VEL_2
NOTE_ON_53
TIME_SHIFT_64ND_5
NOTE_OFF_53
VEL_4
NOTE_ON_55
VEL_2
NOTE_ON_47
TIME_SHIFT_64ND_5
NOTE_OFF_47
VEL_2
NOTE_ON_50
TIME_SHIFT_64ND_5
NOTE_OFF_50
VEL_2
NOTE_ON_53
TIME_SHIFT_64ND_5
NOTE_OFF_55
NOTE_OFF_53
VEL_4
NOTE_ON_55
VEL_2
NOTE_ON_47
TIME_SHIFT_64ND_5
NOTE_OFF_47
VEL_2
NOTE_ON_50
TIME_SHIFT_64ND_5
NOTE_OFF_50
VEL_2
NOTE_ON_53
TIME_SHIFT_64ND_5
NOTE_OFF_55
NOTE_OFF_53
VEL_4
NOTE_ON_55
VEL_2
NOTE_ON_47
TIME_SHIFT_64ND_5
NOTE_OFF_47
VEL_2
NOTE_ON_50
TIME_SHIFT_64ND_5
NOTE_OFF_50
VEL_2
NOTE_ON_53
TIME_SHIFT_64ND_5
NOTE_OFF_55
NOTE_OFF_53
VEL_4
NOTE_ON_65
VEL_2
NOTE_ON_47
TIME_SHIFT_64ND_5
NOTE_OFF_47
VEL_2
NOTE_ON_50
TIME_SHIFT_64ND_5
NOTE_OFF_50
VEL_2
NOTE_ON_55
TIME_SHIFT_64ND_5
NOTE_OFF_65
NOTE_OFF_55
VEL_3
NOTE_ON_64
VEL_3
NOTE_ON_48
TIME_SHIFT_64ND_5
NOTE_OFF_64
VEL_3
NOTE_ON_62
TIME_SHIFT_64ND_5
NOTE_OFF_62
VEL_3
NOTE_ON_60
TIME_SHIFT_64ND_2
NOTE_OFF_60
TIME_SHIFT_64ND_2
NOTE_OFF_48
VEL_3
NOTE_ON_60
TIME_SHIFT_64ND_2
NOTE_OFF_60
TIME_SHIFT_64ND_2
VEL_3
NOTE_ON_60
TIME_SHIFT_64ND_2
NOTE_OFF_60
TIME_SHIFT_64ND_2
VEL_3
NOTE_ON_60
TIME_SHIFT_64ND_3
NOTE_OFF_60
TIME_SHIFT_64ND_3
VEL_3
NOTE_ON_67
VEL_3
NOTE_ON_52
VEL_2
NOTE_ON_48
TIME_SHIFT_64ND_5
NOTE_OFF_67
VEL_3
NOTE_ON_65
TIME_SHIFT_64ND_5
NOTE_OFF_65
VEL_3
NOTE_ON_64
TIME_SHIFT_64ND_2
NOTE_OFF_64
TIME_SHIFT_64ND_2
NOTE_OFF_52
NOTE_OFF_48
VEL_3
NOTE_ON_64
TIME_SHIFT_64ND_2
NOTE_OFF_64
TIME_SHIFT_64ND_2
VEL_3
NOTE_ON_64
TIME_SHIFT_64ND_2
NOTE_OFF_64
TIME_SHIFT_64ND_2
VEL_3
NOTE_ON_64
TIME_SHIFT_64ND_3
NOTE_OFF_64
TIME_SHIFT_64ND_3
VEL_4
NOTE_ON_70
VEL_3
NOTE_ON_52
VEL_2
NOTE_ON_48
TIME_SHIFT_64ND_5
NOTE_OFF_70
VEL_3
NOTE_ON_68
TIME_SHIFT_64ND_5
NOTE_OFF_68
VEL_3
NOTE_ON_67
TIME_SHIFT_64ND_2
NOTE_OFF_67
TIME_SHIFT_64ND_2
NOTE_OFF_52
NOTE_OFF_48
VEL_3
NOTE_ON_67
TIME_SHIFT_64ND_2
NOTE_OFF_67
TIME_SHIFT_64ND_2
VEL_3
NOTE_ON_67
TIME_SHIFT_64ND_2
NOTE_OFF_67
TIME_SHIFT_64ND_2
VEL_3
NOTE_ON_67
TIME_SHIFT_64ND_3
NOTE_OFF_67
TIME_SHIFT_64ND_3
VEL_4
NOTE_ON_79
VEL_3
NOTE_ON_52
VEL_3
NOTE_ON_48
TIME_SHIFT_64ND_5
NOTE_OFF_79
VEL_3
NOTE_ON_77
TIME_SHIFT_64ND_5
NOTE_OFF_77
VEL_3
NOTE_ON_76
TIME_SHIFT_64ND_5
NOTE_OFF_76
NOTE_OFF_52
NOTE_OFF_48
VEL_4
NOTE_ON_73
TIME_SHIFT_64ND_5
NOTE_OFF_73
VEL_3
NOTE_ON_72
TIME_SHIFT_64ND_5
NOTE_OFF_72
VEL_3
NOTE_ON_70
TIME_SHIFT_64ND_5
NOTE_OFF_70
VEL_4
NOTE_ON_68
VEL_3
NOTE_ON_56
VEL_3
NOTE_ON_53
TIME_SHIFT_64ND_5
NOTE_OFF_68
VEL_3
NOTE_ON_72
TIME_SHIFT_64ND_5
NOTE_OFF_72
VEL_3
NOTE_ON_77
TIME_SHIFT_64ND_2
NOTE_OFF_77
TIME_SHIFT_64ND_2
NOTE_OFF_56
NOTE_OFF_53
VEL_4
NOTE_ON_77
TIME_SHIFT_64ND_2
NOTE_OFF_77
TIME_SHIFT_64ND_2
VEL_3
NOTE_ON_77
TIME_SHIFT_64ND_2
NOTE_OFF_77
TIME_SHIFT_64ND_2
VEL_3
NOTE_ON_77
TIME_SHIFT_64ND_3
NOTE_OFF_77
TIME_SHIFT_64ND_3
VEL_4
NOTE_ON_76
VEL_3
NOTE_ON_55
VEL_3
NOTE_ON_48
TIME_SHIFT_64ND_5
NOTE_OFF_76
VEL_4
NOTE_ON_79
TIME_SHIFT_64ND_5
NOTE_OFF_79
VEL_4
NOTE_ON_82
TIME_SHIFT_64ND_2
NOTE_OFF_82
TIME_SHIFT_64ND_2
NOTE_OFF_55
NOTE_OFF_48
VEL_4
NOTE_ON_82
TIME_SHIFT_64ND_2
NOTE_OFF_82
TIME_SHIFT_64ND_2
VEL_3
NOTE_ON_82
TIME_SHIFT_64ND_2
NOTE_OFF_82
TIME_SHIFT_64ND_2
VEL_3
NOTE_ON_82
TIME_SHIFT_64ND_3
NOTE_OFF_82
TIME_SHIFT_64ND_3
VEL_4
NOTE_ON_80
VEL_3
NOTE_ON_56
VEL_3
NOTE_ON_53
TIME_SHIFT_64ND_5
NOTE_OFF_80
VEL_4
NOTE_ON_84
TIME_SHIFT_64ND_5
NOTE_OFF_84
VEL_4
NOTE_ON_89
TIME_SHIFT_64ND_2
NOTE_OFF_89
TIME_SHIFT_64ND_2
NOTE_OFF_56
NOTE_OFF_53
VEL_4
NOTE_ON_89
TIME_SHIFT_64ND_2
NOTE_OFF_89
TIME_SHIFT_64ND_2
VEL_4
NOTE_ON_89
TIME_SHIFT_64ND_2
NOTE_OFF_89
TIME_SHIFT_64ND_2
VEL_4
NOTE_ON_89
TIME_SHIFT_64ND_3
NOTE_OFF_89
TIME_SHIFT_64ND_3
VEL_4
NOTE_ON_79
VEL_4
NOTE_ON_58
VEL_3
NOTE_ON_46
TIME_SHIFT_64ND_5
NOTE_OFF_79
VEL_4
NOTE_ON_82
TIME_SHIFT_64ND_5
NOTE_OFF_82
VEL_4
NOTE_ON_85
TIME_SHIFT_64ND_2
NOTE_OFF_85
TIME_SHIFT_64ND_2
NOTE_OFF_58
NOTE_OFF_46
VEL_4
NOTE_ON_85
TIME_SHIFT_64ND_2
NOTE_OFF_85
TIME_SHIFT_64ND_2
VEL_3
NOTE_ON_85
TIME_SHIFT_64ND_2
NOTE_OFF_85
TIME_SHIFT_64ND_2
VEL_3
NOTE_ON_85
TIME_SHIFT_64ND_3
NOTE_OFF_85
TIME_SHIFT_64ND_3
VEL_4
NOTE_ON_60
TIME_SHIFT_64ND_15
NOTE_OFF_60
VEL_4
NOTE_ON_84
VEL_4
NOTE_ON_80
TIME_SHIFT_64ND_6
NOTE_OFF_84
NOTE_OFF_80
TIME_SHIFT_64ND_10
VEL_3
NOTE_ON_48
TIME_SHIFT_64ND_16
NOTE_OFF_48
VEL_3
NOTE_ON_76
VEL_3
NOTE_ON_70
TIME_SHIFT_64ND_15
NOTE_OFF_76
NOTE_OFF_70
VEL_3
NOTE_ON_75
VEL_2
NOTE_ON_57
TIME_SHIFT_64ND_5
NOTE_OFF_57
VEL_2
NOTE_ON_60
TIME_SHIFT_64ND_5
NOTE_OFF_60
VEL_2
NOTE_ON_66
TIME_SHIFT_64ND_5
NOTE_OFF_75
NOTE_OFF_66
VEL_3
NOTE_ON_75
VEL_2
NOTE_ON_57
TIME_SHIFT_64ND_5
NOTE_OFF_57
VEL_2
NOTE_ON_60
TIME_SHIFT_64ND_5
NOTE_OFF_60
VEL_2
NOTE_ON_66
TIME_SHIFT_64ND_5
NOTE_OFF_75
NOTE_OFF_66
VEL_3
NOTE_ON_75
VEL_2
NOTE_ON_57
TIME_SHIFT_64ND_5
NOTE_OFF_57
VEL_2
NOTE_ON_60
TIME_SHIFT_64ND_5
NOTE_OFF_60
VEL_2
NOTE_ON_66
TIME_SHIFT_64ND_5
NOTE_OFF_75
NOTE_OFF_66
VEL_3
NOTE_ON_75
VEL_2
NOTE_ON_57
TIME_SHIFT_64ND_5
NOTE_OFF_57
VEL_2
NOTE_ON_60
TIME_SHIFT_64ND_5
NOTE_OFF_60
VEL_2
NOTE_ON_66
TIME_SHIFT_64ND_5
NOTE_OFF_75
NOTE_OFF_66
VEL_3
NOTE_ON_74
VEL_2
NOTE_ON_58
TIME_SHIFT_64ND_5
NOTE_OFF_58
VEL_2
NOTE_ON_65
TIME_SHIFT_64ND_5
NOTE_OFF_65
VEL_2
NOTE_ON_68
TIME_SHIFT_64ND_5
NOTE_OFF_68
VEL_2
NOTE_ON_58
TIME_SHIFT_64ND_5
NOTE_OFF_58
VEL_2
NOTE_ON_65
TIME_SHIFT_64ND_5
NOTE_OFF_65
VEL_2
NOTE_ON_68
TIME_SHIFT_64ND_5
NOTE_OFF_74
NOTE_OFF_68
VEL_3
NOTE_ON_70
VEL_2
NOTE_ON_58
TIME_SHIFT_64ND_5
NOTE_OFF_58
VEL_2
NOTE_ON_65
TIME_SHIFT_64ND_5
NOTE_OFF_65
VEL_2
NOTE_ON_68
TIME_SHIFT_64ND_5
NOTE_OFF_68
VEL_2
NOTE_ON_58
TIME_SHIFT_64ND_5
NOTE_OFF_58
VEL_2
NOTE_ON_65
TIME_SHIFT_64ND_5
NOTE_OFF_65
VEL_2
NOTE_ON_68
TIME_SHIFT_64ND_5
NOTE_OFF_70
NOTE_OFF_68
VEL_4
NOTE_ON_73
VEL_2
NOTE_ON_55
TIME_SHIFT_64ND_5
NOTE_OFF_55
VEL_2
NOTE_ON_58
TIME_SHIFT_64ND_5
NOTE_OFF_58
VEL_2
NOTE_ON_63
TIME_SHIFT_64ND_5
NOTE_OFF_73
NOTE_OFF_63
VEL_4
NOTE_ON_73
VEL_3
NOTE_ON_55
TIME_SHIFT_64ND_5
NOTE_OFF_55
VEL_2
NOTE_ON_58
TIME_SHIFT_64ND_5
NOTE_OFF_58
VEL_2
NOTE_ON_63
TIME_SHIFT_64ND_5
NOTE_OFF_73
NOTE_OFF_63
VEL_4
NOTE_ON_73
VEL_2
NOTE_ON_55
TIME_SHIFT_64ND_2
NOTE_OFF_73
VEL_3
NOTE_ON_75
TIME_SHIFT_64ND_2
NOTE_OFF_75
VEL_4
NOTE_ON_73
TIME_SHIFT_64ND_1
NOTE_OFF_55
VEL_2
NOTE_ON_58
TIME_SHIFT_64ND_1
NOTE_OFF_73
VEL_3
NOTE_ON_75
TIME_SHIFT_64ND_2
NOTE_OFF_75
VEL_4
NOTE_ON_73
TIME_SHIFT_64ND_1
NOTE_OFF_73
VEL_3
NOTE_ON_75
TIME_SHIFT_64ND_1
NOTE_OFF_75
NOTE_OFF_58
VEL_4
NOTE_ON_73
VEL_2
NOTE_ON_63
TIME_SHIFT_64ND_1
NOTE_OFF_73
VEL_4
NOTE_ON_72
TIME_SHIFT_64ND_2
NOTE_OFF_72
VEL_3
NOTE_ON_73
TIME_SHIFT_64ND_2
NOTE_OFF_73
NOTE_OFF_63
VEL_4
NOTE_ON_82
VEL_2
NOTE_ON_55
TIME_SHIFT_64ND_5
NOTE_OFF_55
VEL_2
NOTE_ON_58
TIME_SHIFT_64ND_2
NOTE_OFF_82
VEL_4
NOTE_ON_73
TIME_SHIFT_64ND_2
NOTE_OFF_58
VEL_2
NOTE_ON_63
TIME_SHIFT_64ND_5
NOTE_OFF_73
NOTE_OFF_63
VEL_4
NOTE_ON_72
VEL_2
NOTE_ON_56
TIME_SHIFT_64ND_5
NOTE_OFF_56
VEL_2
NOTE_ON_60
TIME_SHIFT_64ND_5
NOTE_OFF_60
VEL_2
NOTE_ON_63
TIME_SHIFT_64ND_5
NOTE_OFF_72
NOTE_OFF_63
VEL_4
NOTE_ON_72
VEL_3
NOTE_ON_56
TIME_SHIFT_64ND_5
NOTE_OFF_56
VEL_2
NOTE_ON_60
TIME_SHIFT_64ND_5
NOTE_OFF_60
VEL_2
NOTE_ON_63
TIME_SHIFT_64ND_5
NOTE_OFF_72
NOTE_OFF_63
VEL_4
NOTE_ON_72
VEL_2
NOTE_ON_48
TIME_SHIFT_64ND_2
NOTE_OFF_72
VEL_3
NOTE_ON_73
TIME_SHIFT_64ND_2
NOTE_OFF_73
VEL_4
NOTE_ON_72
TIME_SHIFT_64ND_1
NOTE_OFF_48
VEL_2
NOTE_ON_51
TIME_SHIFT_64ND_1
NOTE_OFF_72
VEL_3
NOTE_ON_73
TIME_SHIFT_64ND_2
NOTE_OFF_73
VEL_4
NOTE_ON_72
TIME_SHIFT_64ND_1
NOTE_OFF_72
VEL_3
NOTE_ON_73
TIME_SHIFT_64ND_1
NOTE_OFF_73
NOTE_OFF_51
VEL_4
NOTE_ON_72
VEL_2
NOTE_ON_56
TIME_SHIFT_64ND_1
NOTE_OFF_72
VEL_4
NOTE_ON_70
TIME_SHIFT_64ND_2
NOTE_OFF_70
VEL_3
NOTE_ON_72
TIME_SHIFT_64ND_2
NOTE_OFF_72
NOTE_OFF_56
VEL_4
NOTE_ON_75
VEL_2
NOTE_ON_48
TIME_SHIFT_64ND_5
NOTE_OFF_48
VEL_2
NOTE_ON_51
TIME_SHIFT_64ND_2
NOTE_OFF_75
VEL_4
NOTE_ON_72
TIME_SHIFT_64ND_2
NOTE_OFF_51
VEL_2
NOTE_ON_56
TIME_SHIFT_64ND_5
NOTE_OFF_72
NOTE_OFF_56
VEL_4
NOTE_ON_70
VEL_2
NOTE_ON_49
TIME_SHIFT_64ND_5
NOTE_OFF_49
VEL_2
NOTE_ON_53
TIME_SHIFT_64ND_5
NOTE_OFF_53
VEL_2
NOTE_ON_56
TIME_SHIFT_64ND_5
NOTE_OFF_70
NOTE_OFF_56
VEL_4
NOTE_ON_70
VEL_3
NOTE_ON_49
TIME_SHIFT_64ND_5
NOTE_OFF_49
VEL_2
NOTE_ON_53
TIME_SHIFT_64ND_5
NOTE_OFF_53
VEL_2
NOTE_ON_56
TIME_SHIFT_64ND_5
NOTE_OFF_70
NOTE_OFF_56
VEL_4
NOTE_ON_70
VEL_2
NOTE_ON_50
TIME_SHIFT_64ND_2
NOTE_OFF_70
VEL_3
NOTE_ON_72
TIME_SHIFT_64ND_2
NOTE_OFF_72
VEL_4
NOTE_ON_70
TIME_SHIFT_64ND_1
NOTE_OFF_50
VEL_2
NOTE_ON_53
TIME_SHIFT_64ND_1
NOTE_OFF_70
VEL_3
NOTE_ON_72
TIME_SHIFT_64ND_2
NOTE_OFF_72
VEL_4
NOTE_ON_70
TIME_SHIFT_64ND_1
NOTE_OFF_70
VEL_3
NOTE_ON_72
TIME_SHIFT_64ND_1
NOTE_OFF_72
NOTE_OFF_53
VEL_4
NOTE_ON_70
VEL_2
NOTE_ON_58
TIME_SHIFT_64ND_1
NOTE_OFF_70
VEL_4
NOTE_ON_69
TIME_SHIFT_64ND_2
NOTE_OFF_69
VEL_3
NOTE_ON_70
TIME_SHIFT_64ND_2
NOTE_OFF_70
NOTE_OFF_58
VEL_4
NOTE_ON_77
VEL_2
NOTE_ON_50
TIME_SHIFT_64ND_5
NOTE_OFF_50
VEL_2
NOTE_ON_53
TIME_SHIFT_64ND_2
NOTE_OFF_77
VEL_4
NOTE_ON_68
TIME_SHIFT_64ND_2
NOTE_OFF_53
VEL_2
NOTE_ON_58
TIME_SHIFT_64ND_5
NOTE_OFF_68
NOTE_OFF_58
VEL_4
NOTE_ON_67
VEL_3
NOTE_ON_51
TIME_SHIFT_64ND_5
NOTE_OFF_67
VEL_4
NOTE_ON_70
TIME_SHIFT_64ND_5
NOTE_OFF_70
VEL_4
NOTE_ON_68
TIME_SHIFT_64ND_5
NOTE_OFF_68
VEL_4
NOTE_ON_67
TIME_SHIFT_64ND_5
NOTE_OFF_67
VEL_4
NOTE_ON_79
TIME_SHIFT_64ND_5
NOTE_OFF_79
VEL_4
NOTE_ON_77
TIME_SHIFT_64ND_5
NOTE_OFF_77
NOTE_OFF_51
VEL_4
NOTE_ON_75
TIME_SHIFT_64ND_5
NOTE_OFF_75
VEL_4
NOTE_ON_82
TIME_SHIFT_64ND_5
NOTE_OFF_82
VEL_4
NOTE_ON_80
TIME_SHIFT_64ND_5
NOTE_OFF_80
VEL_4
NOTE_ON_79
TIME_SHIFT_64ND_5
NOTE_OFF_79
VEL_4
NOTE_ON_77
TIME_SHIFT_64ND_5
NOTE_OFF_77
VEL_4
NOTE_ON_75
TIME_SHIFT_64ND_5
NOTE_OFF_75
VEL_4
NOTE_ON_74
VEL_3
NOTE_ON_56
VEL_2
NOTE_ON_53
TIME_SHIFT_64ND_5
NOTE_OFF_74
VEL_4
NOTE_ON_77
TIME_SHIFT_64ND_5
NOTE_OFF_77
VEL_4
NOTE_ON_75
TIME_SHIFT_64ND_5
NOTE_OFF_75
VEL_4
NOTE_ON_74
TIME_SHIFT_64ND_5
NOTE_OFF_74
VEL_4
NOTE_ON_80
TIME_SHIFT_64ND_5
NOTE_OFF_80
VEL_4
NOTE_ON_79
TIME_SHIFT_64ND_5
NOTE_OFF_79
NOTE_OFF_56
NOTE_OFF_53
VEL_4
NOTE_ON_77
TIME_SHIFT_64ND_5
NOTE_OFF_77
VEL_4
NOTE_ON_84
TIME_SHIFT_64ND_5
NOTE_OFF_84
VEL_4
NOTE_ON_82
TIME_SHIFT_64ND_5
NOTE_OFF_82
VEL_4
NOTE_ON_80
TIME_SHIFT_64ND_5
NOTE_OFF_80
VEL_4
NOTE_ON_79
TIME_SHIFT_64ND_5
NOTE_OFF_79
VEL_4
NOTE_ON_77
TIME_SHIFT_64ND_5
NOTE_OFF_77
VEL_4
NOTE_ON_75
TIME_SHIFT_64ND_7
NOTE_OFF_75
VEL_4
NOTE_ON_74
TIME_SHIFT_64ND_8
NOTE_OFF_74
VEL_4
NOTE_ON_77
TIME_SHIFT_64ND_7
NOTE_OFF_77
VEL_4
NOTE_ON_75
TIME_SHIFT_64ND_8
NOTE_OFF_75
VEL_4
NOTE_ON_79
TIME_SHIFT_64ND_7
NOTE_OFF_79
VEL_4
NOTE_ON_77
TIME_SHIFT_64ND_8
NOTE_OFF_77
VEL_4
NOTE_ON_80
TIME_SHIFT_64ND_8
NOTE_OFF_80
VEL_3
NOTE_ON_79
TIME_SHIFT_64ND_8
NOTE_OFF_79
VEL_4
NOTE_ON_82
TIME_SHIFT_64ND_8
NOTE_OFF_82
VEL_4
NOTE_ON_80
TIME_SHIFT_64ND_9
NOTE_OFF_80
VEL_4
NOTE_ON_84
TIME_SHIFT_64ND_16
NOTE_OFF_84
VEL_4
NOTE_ON_82
TIME_SHIFT_64ND_16
NOTE_OFF_82
VEL_4
NOTE_ON_80
TIME_SHIFT_64ND_17
NOTE_OFF_80
VEL_4
NOTE_ON_79
TIME_SHIFT_64ND_17
NOTE_OFF_79
VEL_4
NOTE_ON_77
TIME_SHIFT_64ND_17
NOTE_OFF_77
VEL_3
NOTE_ON_75
TIME_SHIFT_64ND_18
NOTE_OFF_75
VEL_3
NOTE_ON_74
VEL_1
NOTE_ON_58
VEL_1
NOTE_ON_56
VEL_1
NOTE_ON_53
TIME_SHIFT_64ND_21
NOTE_OFF_74
NOTE_OFF_58
NOTE_OFF_56
NOTE_OFF_53
VEL_4
NOTE_ON_80
TIME_SHIFT_64ND_44
NOTE_OFF_80
VEL_3
NOTE_ON_79
TIME_SHIFT_64ND_9
NOTE_OFF_79
VEL_3
NOTE_ON_80
TIME_SHIFT_64ND_9
NOTE_OFF_80
VEL_3
NOTE_ON_82
TIME_SHIFT_64ND_9
NOTE_OFF_82
VEL_3
NOTE_ON_80
TIME_SHIFT_64ND_9
NOTE_OFF_80
TIME_SHIFT_64ND_1
VEL_4
NOTE_ON_80
TIME_SHIFT_64ND_55
NOTE_OFF_80
VEL_3
NOTE_ON_74
TIME_SHIFT_64ND_19
NOTE_OFF_74
VEL_2
NOTE_ON_74
TIME_SHIFT_64ND_2
NOTE_OFF_74
VEL_3
NOTE_ON_75
TIME_SHIFT_64ND_2
NOTE_OFF_75
VEL_2
NOTE_ON_77
TIME_SHIFT_64ND_2
NOTE_OFF_77
VEL_3
NOTE_ON_75
TIME_SHIFT_64ND_2
NOTE_OFF_75
VEL_2
NOTE_ON_77
TIME_SHIFT_64ND_2
NOTE_OFF_77
VEL_3
NOTE_ON_75
TIME_SHIFT_64ND_2
NOTE_OFF_75
VEL_2
NOTE_ON_77
TIME_SHIFT_64ND_2
NOTE_OFF_77
VEL_3
NOTE_ON_75
TIME_SHIFT_64ND_2
NOTE_OFF_75
VEL_2
NOTE_ON_77
TIME_SHIFT_64ND_2
NOTE_OFF_77
VEL_3
NOTE_ON_75
TIME_SHIFT_64ND_2
NOTE_OFF_75
VEL_3
NOTE_ON_77
TIME_SHIFT_64ND_2
NOTE_OFF_77
VEL_2
NOTE_ON_75
TIME_SHIFT_64ND_2
NOTE_OFF_75
VEL_3
NOTE_ON_74
TIME_SHIFT_64ND_6
NOTE_OFF_74
VEL_3
NOTE_ON_75
TIME_SHIFT_64ND_9
NOTE_OFF_75
VEL_2
NOTE_ON_39
TIME_SHIFT_64ND_27
NOTE_OFF_39
TIME_SHIFT_64ND_27
VEL_4
NOTE_ON_63
TIME_SHIFT_64ND_11
NOTE_OFF_63
VEL_4
NOTE_ON_60
TIME_SHIFT_64ND_4
NOTE_OFF_60
VEL_4
NOTE_ON_68
VEL_3
NOTE_ON_56
VEL_3
NOTE_ON_44
TIME_SHIFT_64ND_11
NOTE_OFF_68
VEL_4
NOTE_ON_68
TIME_SHIFT_64ND_4
NOTE_OFF_68
NOTE_OFF_56
NOTE_OFF_44
VEL_4
NOTE_ON_68
TIME_SHIFT_64ND_2
NOTE_OFF_68
VEL_3
NOTE_ON_70
TIME_SHIFT_64ND_2
NOTE_OFF_70
VEL_4
NOTE_ON_68
TIME_SHIFT_64ND_2
NOTE_OFF_68
VEL_3
NOTE_ON_70
TIME_SHIFT_64ND_2
NOTE_OFF_70
VEL_4
NOTE_ON_68
TIME_SHIFT_64ND_1
NOTE_OFF_68
VEL_3
NOTE_ON_70
TIME_SHIFT_64ND_1
NOTE_OFF_70
VEL_4
NOTE_ON_68
TIME_SHIFT_64ND_1
NOTE_OFF_68
VEL_4
NOTE_ON_67
TIME_SHIFT_64ND_2
NOTE_OFF_67
VEL_3
NOTE_ON_68
TIME_SHIFT_64ND_2
NOTE_OFF_68
VEL_4
NOTE_ON_70
VEL_3
NOTE_ON_55
VEL_3
NOTE_ON_43
TIME_SHIFT_64ND_15
NOTE_OFF_70
NOTE_OFF_55
NOTE_OFF_43
VEL_4
NOTE_ON_63
TIME_SHIFT_64ND_11
NOTE_OFF_63
VEL_4
NOTE_ON_75
TIME_SHIFT_64ND_4
NOTE_OFF_75
VEL_5
NOTE_ON_73
TIME_SHIFT_64ND_15
VEL_2
NOTE_ON_44
TIME_SHIFT_64ND_15
NOTE_OFF_73
NOTE_OFF_44
VEL_4
NOTE_ON_72
VEL_3
NOTE_ON_56
TIME_SHIFT_64ND_5
NOTE_OFF_72
NOTE_OFF_56
TIME_SHIFT_64ND_9
VEL_3
NOTE_ON_68
TIME_SHIFT_64ND_11
NOTE_OFF_68
VEL_2
NOTE_ON_77
TIME_SHIFT_64ND_4
NOTE_OFF_77
VEL_3
NOTE_ON_75
TIME_SHIFT_64ND_15
VEL_1
NOTE_ON_58
TIME_SHIFT_64ND_15
NOTE_OFF_75
NOTE_OFF_58
VEL_3
NOTE_ON_73
VEL_2
NOTE_ON_55
TIME_SHIFT_64ND_5
NOTE_OFF_73
NOTE_OFF_55
TIME_SHIFT_64ND_9
VEL_4
NOTE_ON_63
TIME_SHIFT_64ND_11
NOTE_OFF_63
VEL_4
NOTE_ON_75
TIME_SHIFT_64ND_4
NOTE_OFF_75
VEL_5
NOTE_ON_73
TIME_SHIFT_64ND_15
VEL_2
NOTE_ON_56
TIME_SHIFT_64ND_15
NOTE_OFF_73
NOTE_OFF_56
VEL_4
NOTE_ON_72
VEL_3
NOTE_ON_44
TIME_SHIFT_64ND_6
NOTE_OFF_72
NOTE_OFF_44
TIME_SHIFT_64ND_9
VEL_5
NOTE_ON_80
VEL_3
NOTE_ON_48
TIME_SHIFT_64ND_11
NOTE_OFF_80
VEL_4
NOTE_ON_72
TIME_SHIFT_64ND_4
NOTE_OFF_72
NOTE_OFF_48
VEL_4
NOTE_ON_70
VEL_3
NOTE_ON_49
TIME_SHIFT_64ND_11
NOTE_OFF_70
VEL_4
NOTE_ON_70
TIME_SHIFT_64ND_4
NOTE_OFF_70
VEL_4
NOTE_ON_70
TIME_SHIFT_64ND_2
NOTE_OFF_70
VEL_3
NOTE_ON_72
TIME_SHIFT_64ND_2
NOTE_OFF_72
VEL_4
NOTE_ON_70
TIME_SHIFT_64ND_2
NOTE_OFF_70
VEL_3
NOTE_ON_72
TIME_SHIFT_64ND_2
NOTE_OFF_72
VEL_4
NOTE_ON_70
TIME_SHIFT_64ND_1
NOTE_OFF_70
VEL_3
NOTE_ON_72
TIME_SHIFT_64ND_1
NOTE_OFF_72
VEL_4
NOTE_ON_70
TIME_SHIFT_64ND_1
NOTE_OFF_70
VEL_4
NOTE_ON_69
TIME_SHIFT_64ND_2
NOTE_OFF_69
VEL_3
NOTE_ON_70
TIME_SHIFT_64ND_2
NOTE_OFF_70
NOTE_OFF_49
VEL_4
NOTE_ON_73
TIME_SHIFT_64ND_11
NOTE_OFF_73
VEL_4
NOTE_ON_70
TIME_SHIFT_64ND_4
NOTE_OFF_70
VEL_4
NOTE_ON_67
VEL_3
NOTE_ON_51
TIME_SHIFT_64ND_11
NOTE_OFF_67
VEL_4
NOTE_ON_63
TIME_SHIFT_64ND_4
NOTE_OFF_63
NOTE_OFF_51
VEL_5
NOTE_ON_68
TIME_SHIFT_64ND_11
NOTE_OFF_68
VEL_2
NOTE_ON_44
TIME_SHIFT_64ND_4
NOTE_OFF_44
VEL_3
NOTE_ON_48
TIME_SHIFT_64ND_11
NOTE_OFF_48
VEL_3
NOTE_ON_51
TIME_SHIFT_64ND_4
NOTE_OFF_51
VEL_3
NOTE_ON_56
TIME_SHIFT_64ND_11
NOTE_OFF_56
TIME_SHIFT_64ND_4
VEL_4
NOTE_ON_63
TIME_SHIFT_64ND_11
NOTE_OFF_63
VEL_4
NOTE_ON_60
TIME_SHIFT_64ND_4
NOTE_OFF_60
VEL_4
NOTE_ON_68
VEL_3
NOTE_ON_60
VEL_3
NOTE_ON_56
TIME_SHIFT_64ND_11
NOTE_OFF_68
VEL_4
NOTE_ON_68
TIME_SHIFT_64ND_4
NOTE_OFF_68
NOTE_OFF_60
NOTE_OFF_56
VEL_4
NOTE_ON_68
TIME_SHIFT_64ND_2
NOTE_OFF_68
VEL_3
NOTE_ON_70
TIME_SHIFT_64ND_2
NOTE_OFF_70
VEL_4
NOTE_ON_68
TIME_SHIFT_64ND_2
NOTE_OFF_68
VEL_3
NOTE_ON_70
TIME_SHIFT_64ND_2
NOTE_OFF_70
VEL_4
NOTE_ON_68
TIME_SHIFT_64ND_1
NOTE_OFF_68
VEL_3
NOTE_ON_70
TIME_SHIFT_64ND_1
NOTE_OFF_70
VEL_4
NOTE_ON_68
TIME_SHIFT_64ND_1
NOTE_OFF_68
VEL_4
NOTE_ON_67
TIME_SHIFT_64ND_2
NOTE_OFF_67
VEL_3
NOTE_ON_68
TIME_SHIFT_64ND_2
NOTE_OFF_68
VEL_4
NOTE_ON_70
VEL_3
NOTE_ON_58
VEL_3
NOTE_ON_55
TIME_SHIFT_64ND_15
NOTE_OFF_70
NOTE_OFF_58
NOTE_OFF_55
VEL_4
NOTE_ON_63
TIME_SHIFT_64ND_11
NOTE_OFF_63
VEL_4
NOTE_ON_75
TIME_SHIFT_64ND_4
NOTE_OFF_75
VEL_5
NOTE_ON_73
TIME_SHIFT_64ND_15
VEL_2
NOTE_ON_44
TIME_SHIFT_64ND_15
NOTE_OFF_73
NOTE_OFF_44
VEL_4
NOTE_ON_72
VEL_3
NOTE_ON_56
TIME_SHIFT_64ND_6
NOTE_OFF_72
TIME_SHIFT_64ND_9
NOTE_OFF_56
VEL_4
NOTE_ON_68
VEL_3
NOTE_ON_60
TIME_SHIFT_64ND_11
NOTE_OFF_68
VEL_4
NOTE_ON_80
TIME_SHIFT_64ND_4
NOTE_OFF_80
NOTE_OFF_60
VEL_4
NOTE_ON_79
TIME_SHIFT_64ND_15
NOTE_OFF_79
VEL_4
NOTE_ON_77
VEL_3
NOTE_ON_61
TIME_SHIFT_64ND_4
NOTE_OFF_77
NOTE_OFF_61
TIME_SHIFT_64ND_7
VEL_4
NOTE_ON_80
TIME_SHIFT_64ND_4
NOTE_OFF_80
VEL_4
NOTE_ON_77
TIME_SHIFT_64ND_15
NOTE_OFF_77
VEL_4
NOTE_ON_75
VEL_3
NOTE_ON_60
TIME_SHIFT_64ND_4
NOTE_OFF_75
NOTE_OFF_60
TIME_SHIFT_64ND_7
VEL_4
NOTE_ON_80
TIME_SHIFT_64ND_4
NOTE_OFF_80
VEL_4
NOTE_ON_75
TIME_SHIFT_64ND_15
NOTE_OFF_75
VEL_4
NOTE_ON_73
VEL_3
NOTE_ON_58
TIME_SHIFT_64ND_4
NOTE_OFF_73
NOTE_OFF_58
TIME_SHIFT_64ND_7
VEL_4
NOTE_ON_80
TIME_SHIFT_64ND_4
NOTE_OFF_80
VEL_4
NOTE_ON_73
TIME_SHIFT_64ND_15
NOTE_OFF_73
VEL_4
NOTE_ON_72
VEL_3
NOTE_ON_56
TIME_SHIFT_64ND_4
NOTE_OFF_72
NOTE_OFF_56
TIME_SHIFT_64ND_7
VEL_4
NOTE_ON_80
TIME_SHIFT_64ND_4
NOTE_OFF_80
VEL_4
NOTE_ON_72
TIME_SHIFT_64ND_11
NOTE_OFF_72
VEL_4
NOTE_ON_70
TIME_SHIFT_64ND_4
NOTE_OFF_70
VEL_4
NOTE_ON_73
VEL_3
NOTE_ON_49
VEL_3
NOTE_ON_61
TIME_SHIFT_64ND_11
NOTE_OFF_73
VEL_4
NOTE_ON_77
TIME_SHIFT_64ND_4
NOTE_OFF_77
NOTE_OFF_49
NOTE_OFF_61
VEL_4
NOTE_ON_75
VEL_3
NOTE_ON_60
VEL_3
NOTE_ON_51
TIME_SHIFT_64ND_15
NOTE_OFF_75
NOTE_OFF_60
VEL_4
NOTE_ON_67
VEL_3
NOTE_ON_58
TIME_SHIFT_64ND_14
NOTE_OFF_67
VEL_2
NOTE_ON_67
TIME_SHIFT_64ND_1
NOTE_OFF_67
NOTE_OFF_58
NOTE_OFF_51
VEL_4
NOTE_ON_68
VEL_3
NOTE_ON_56
TIME_SHIFT_64ND_4
NOTE_OFF_68
TIME_SHIFT_64ND_1
NOTE_OFF_56
VEL_2
NOTE_ON_60
TIME_SHIFT_64ND_5
NOTE_OFF_60
VEL_2
NOTE_ON_63
TIME_SHIFT_64ND_4
VEL_3
NOTE_ON_67
TIME_SHIFT_64ND_1
NOTE_OFF_67
NOTE_OFF_63
VEL_4
NOTE_ON_68
VEL_3
NOTE_ON_56
TIME_SHIFT_64ND_4
NOTE_OFF_68
TIME_SHIFT_64ND_1
NOTE_OFF_56
VEL_2
NOTE_ON_60
TIME_SHIFT_64ND_5
NOTE_OFF_60
VEL_3
NOTE_ON_63
TIME_SHIFT_64ND_4
VEL_3
NOTE_ON_67
TIME_SHIFT_64ND_1
NOTE_OFF_67
NOTE_OFF_63
VEL_4
NOTE_ON_68
VEL_3
NOTE_ON_56
TIME_SHIFT_64ND_4
NOTE_OFF_68
TIME_SHIFT_64ND_1
NOTE_OFF_56
VEL_3
NOTE_ON_60
TIME_SHIFT_64ND_5
NOTE_OFF_60
VEL_3
NOTE_ON_63
TIME_SHIFT_64ND_4
VEL_3
NOTE_ON_69
TIME_SHIFT_64ND_1
NOTE_OFF_69
NOTE_OFF_63
VEL_4
NOTE_ON_70
VEL_3
NOTE_ON_55
TIME_SHIFT_64ND_4
NOTE_OFF_70
TIME_SHIFT_64ND_1
NOTE_OFF_55
VEL_3
NOTE_ON_58
TIME_SHIFT_64ND_5
NOTE_OFF_58
VEL_3
NOTE_ON_63
TIME_SHIFT_64ND_5
NOTE_OFF_63
VEL_4
NOTE_ON_71
VEL_3
NOTE_ON_56
TIME_SHIFT_64ND_5
NOTE_OFF_56
VEL_2
NOTE_ON_60
TIME_SHIFT_64ND_5
NOTE_OFF_60
VEL_2
NOTE_ON_63
TIME_SHIFT_64ND_5
NOTE_OFF_71
NOTE_OFF_63
VEL_4
NOTE_ON_72
VEL_3
NOTE_ON_56
TIME_SHIFT_64ND_5
NOTE_OFF_56
VEL_2
NOTE_ON_60
TIME_SHIFT_64ND_5
NOTE_OFF_60
VEL_2
NOTE_ON_63
TIME_SHIFT_64ND_5
NOTE_OFF_72
NOTE_OFF_63
VEL_3
NOTE_ON_68
VEL_3
NOTE_ON_56
TIME_SHIFT_64ND_5
NOTE_OFF_56
VEL_2
NOTE_ON_60
TIME_SHIFT_64ND_5
NOTE_OFF_60
VEL_2
NOTE_ON_63
TIME_SHIFT_64ND_5
NOTE_OFF_63
VEL_3
NOTE_ON_56
TIME_SHIFT_64ND_5
NOTE_OFF_56
VEL_2
NOTE_ON_60
TIME_SHIFT_64ND_5
NOTE_OFF_60
VEL_2
NOTE_ON_63
TIME_SHIFT_64ND_4
VEL_2
NOTE_ON_71
TIME_SHIFT_64ND_1
NOTE_OFF_71
NOTE_OFF_68
NOTE_OFF_63
VEL_4
NOTE_ON_72
VEL_3
NOTE_ON_56
TIME_SHIFT_64ND_4
NOTE_OFF_72
TIME_SHIFT_64ND_1
NOTE_OFF_56
VEL_2
NOTE_ON_60
TIME_SHIFT_64ND_5
NOTE_OFF_60
VEL_2
NOTE_ON_63
TIME_SHIFT_64ND_4
VEL_3
NOTE_ON_71
TIME_SHIFT_64ND_1
NOTE_OFF_71
NOTE_OFF_63
VEL_4
NOTE_ON_72
VEL_3
NOTE_ON_56
TIME_SHIFT_64ND_4
NOTE_OFF_72
TIME_SHIFT_64ND_1
NOTE_OFF_56
VEL_2
NOTE_ON_60
TIME_SHIFT_64ND_5
NOTE_OFF_60
VEL_3
NOTE_ON_63
TIME_SHIFT_64ND_4
VEL_3
NOTE_ON_71
TIME_SHIFT_64ND_1
NOTE_OFF_71
NOTE_OFF_63
VEL_4
NOTE_ON_72
VEL_3
NOTE_ON_56
TIME_SHIFT_64ND_3
NOTE_OFF_72
TIME_SHIFT_64ND_1
NOTE_OFF_56
VEL_3
NOTE_ON_60
TIME_SHIFT_64ND_5
NOTE_OFF_60
VEL_3
NOTE_ON_63
TIME_SHIFT_64ND_5
NOTE_OFF_63
VEL_4
NOTE_ON_75
VEL_3
NOTE_ON_58
TIME_SHIFT_64ND_3
NOTE_OFF_75
VEL_4
NOTE_ON_73
TIME_SHIFT_64ND_1
NOTE_OFF_58
VEL_3
NOTE_ON_61
TIME_SHIFT_64ND_2
NOTE_OFF_73
VEL_4
NOTE_ON_72
TIME_SHIFT_64ND_2
NOTE_OFF_61
VEL_3
NOTE_ON_67
TIME_SHIFT_64ND_1
NOTE_OFF_72
VEL_4
NOTE_ON_73
TIME_SHIFT_64ND_4
NOTE_OFF_73
NOTE_OFF_67
VEL_4
NOTE_ON_75
VEL_3
NOTE_ON_60
TIME_SHIFT_64ND_5
NOTE_OFF_60
VEL_2
NOTE_ON_63
TIME_SHIFT_64ND_5
NOTE_OFF_63
VEL_2
NOTE_ON_68
TIME_SHIFT_64ND_5
NOTE_OFF_68
VEL_3
NOTE_ON_60
TIME_SHIFT_64ND_5
NOTE_OFF_60
VEL_2
NOTE_ON_63
TIME_SHIFT_64ND_5
NOTE_OFF_63
VEL_2
NOTE_ON_68
TIME_SHIFT_64ND_5
NOTE_OFF_75
NOTE_OFF_68
VEL_4
NOTE_ON_72
VEL_3
NOTE_ON_60
TIME_SHIFT_64ND_5
NOTE_OFF_60
VEL_2
NOTE_ON_63
TIME_SHIFT_64ND_5
NOTE_OFF_63
VEL_2
NOTE_ON_68
TIME_SHIFT_64ND_5
NOTE_OFF_68
VEL_3
NOTE_ON_60
TIME_SHIFT_64ND_5
NOTE_OFF_60
VEL_2
NOTE_ON_63
TIME_SHIFT_64ND_5
NOTE_OFF_63
VEL_2
NOTE_ON_68
TIME_SHIFT_64ND_5
NOTE_OFF_72
NOTE_OFF_68
VEL_5
NOTE_ON_80
VEL_3
NOTE_ON_60
TIME_SHIFT_64ND_5
NOTE_OFF_60
VEL_2
NOTE_ON_63
TIME_SHIFT_64ND_5
NOTE_OFF_63
VEL_2
NOTE_ON_68
TIME_SHIFT_64ND_4
NOTE_OFF_80
NOTE_OFF_68
VEL_5
NOTE_ON_80
VEL_3
NOTE_ON_60
TIME_SHIFT_64ND_5
NOTE_OFF_80
NOTE_OFF_60
VEL_4
NOTE_ON_84
VEL_2
NOTE_ON_63
TIME_SHIFT_64ND_5
NOTE_OFF_84
NOTE_OFF_63
VEL_4
NOTE_ON_87
VEL_2
NOTE_ON_68
TIME_SHIFT_64ND_5
NOTE_OFF_87
NOTE_OFF_68
VEL_5
NOTE_ON_78
VEL_2
NOTE_ON_60
TIME_SHIFT_64ND_5
NOTE_OFF_60
VEL_2
NOTE_ON_63
TIME_SHIFT_64ND_5
NOTE_OFF_63
VEL_2
NOTE_ON_68
TIME_SHIFT_64ND_5
NOTE_OFF_68
VEL_2
NOTE_ON_60
TIME_SHIFT_64ND_5
NOTE_OFF_60
VEL_2
NOTE_ON_63
TIME_SHIFT_64ND_5
NOTE_OFF_63
VEL_2
NOTE_ON_68
TIME_SHIFT_64ND_5
NOTE_OFF_78
NOTE_OFF_68
VEL_5
NOTE_ON_77
VEL_3
NOTE_ON_61
TIME_SHIFT_64ND_5
NOTE_OFF_61
VEL_2
NOTE_ON_65
TIME_SHIFT_64ND_5
NOTE_OFF_65
VEL_2
NOTE_ON_68
TIME_SHIFT_64ND_4
NOTE_OFF_77
NOTE_OFF_68
VEL_5
NOTE_ON_77
VEL_3
NOTE_ON_61
TIME_SHIFT_64ND_5
NOTE_OFF_77
NOTE_OFF_61
VEL_4
NOTE_ON_82
VEL_2
NOTE_ON_65
TIME_SHIFT_64ND_5
NOTE_OFF_82
NOTE_OFF_65
VEL_4
NOTE_ON_85
VEL_2
NOTE_ON_68
TIME_SHIFT_64ND_5
NOTE_OFF_85
NOTE_OFF_68
VEL_5
NOTE_ON_75
VEL_3
NOTE_ON_61
TIME_SHIFT_64ND_5
NOTE_OFF_61
VEL_2
NOTE_ON_63
TIME_SHIFT_64ND_5
NOTE_OFF_63
VEL_2
NOTE_ON_67
TIME_SHIFT_64ND_5
NOTE_OFF_67
VEL_3
NOTE_ON_61
TIME_SHIFT_64ND_5
NOTE_OFF_61
VEL_2
NOTE_ON_63
TIME_SHIFT_64ND_2
NOTE_OFF_75
VEL_4
NOTE_ON_77
TIME_SHIFT_64ND_2
NOTE_OFF_63
VEL_2
NOTE_ON_67
TIME_SHIFT_64ND_1
NOTE_OFF_77
VEL_5
NOTE_ON_79
TIME_SHIFT_64ND_3
NOTE_OFF_79
NOTE_OFF_67
VEL_5
NOTE_ON_80
VEL_3
NOTE_ON_60
TIME_SHIFT_64ND_5
NOTE_OFF_60
VEL_2
NOTE_ON_63
TIME_SHIFT_64ND_5
NOTE_OFF_63
VEL_2
NOTE_ON_68
TIME_SHIFT_64ND_4
NOTE_OFF_80
NOTE_OFF_68
VEL_5
NOTE_ON_80
VEL_3
NOTE_ON_60
TIME_SHIFT_64ND_5
NOTE_OFF_80
NOTE_OFF_60
VEL_4
NOTE_ON_82
VEL_2
NOTE_ON_63
TIME_SHIFT_64ND_5
NOTE_OFF_82
NOTE_OFF_63
VEL_4
NOTE_ON_84
VEL_2
NOTE_ON_68
TIME_SHIFT_64ND_5
NOTE_OFF_84
NOTE_OFF_68
VEL_5
NOTE_ON_73
VEL_3
NOTE_ON_58
TIME_SHIFT_64ND_5
NOTE_OFF_58
VEL_2
NOTE_ON_61
TIME_SHIFT_64ND_5
NOTE_OFF_61
VEL_2
NOTE_ON_67
TIME_SHIFT_64ND_5
NOTE_OFF_67
VEL_3
NOTE_ON_58
TIME_SHIFT_64ND_5
NOTE_OFF_58
VEL_2
NOTE_ON_61
TIME_SHIFT_64ND_5
NOTE_OFF_61
VEL_2
NOTE_ON_67
TIME_SHIFT_64ND_5
NOTE_OFF_73
NOTE_OFF_67
VEL_5
NOTE_ON_72
VEL_3
NOTE_ON_56
TIME_SHIFT_64ND_5
NOTE_OFF_72
VEL_4
NOTE_ON_75
TIME_SHIFT_64ND_5
NOTE_OFF_75
VEL_4
NOTE_ON_73
TIME_SHIFT_64ND_5
NOTE_OFF_73
NOTE_OFF_56
VEL_4
NOTE_ON_72
TIME_SHIFT_64ND_5
NOTE_OFF_72
VEL_4
NOTE_ON_84
TIME_SHIFT_64ND_5
NOTE_OFF_84
VEL_4
NOTE_ON_82
TIME_SHIFT_64ND_5
NOTE_OFF_82
VEL_4
NOTE_ON_80
TIME_SHIFT_64ND_5
NOTE_OFF_80
VEL_4
NOTE_ON_79
TIME_SHIFT_64ND_5
NOTE_OFF_79
VEL_4
NOTE_ON_77
TIME_SHIFT_64ND_5
NOTE_OFF_77
VEL_4
NOTE_ON_75
TIME_SHIFT_64ND_5
NOTE_OFF_75
VEL_4
NOTE_ON_73
TIME_SHIFT_64ND_5
NOTE_OFF_73
VEL_4
NOTE_ON_72
TIME_SHIFT_64ND_5
NOTE_OFF_72
VEL_5
NOTE_ON_75
TIME_SHIFT_64ND_11
NOTE_OFF_75
VEL_3
NOTE_ON_72
TIME_SHIFT_64ND_4
NOTE_OFF_72
VEL_4
NOTE_ON_70
VEL_2
NOTE_ON_67
VEL_2
NOTE_ON_63
TIME_SHIFT_64ND_15
NOTE_OFF_67
NOTE_OFF_63
TIME_SHIFT_64ND_7
NOTE_OFF_70
VEL_3
NOTE_ON_73
TIME_SHIFT_64ND_7
NOTE_OFF_73
VEL_3
NOTE_ON_72
TIME_SHIFT_64ND_7
NOTE_OFF_72
VEL_3
NOTE_ON_75
TIME_SHIFT_64ND_7
NOTE_OFF_75
VEL_3
NOTE_ON_75
VEL_2
NOTE_ON_51
TIME_SHIFT_64ND_5
NOTE_OFF_51
VEL_2
NOTE_ON_55
TIME_SHIFT_64ND_2
NOTE_OFF_75
VEL_3
NOTE_ON_73
TIME_SHIFT_64ND_2
NOTE_OFF_55
VEL_2
NOTE_ON_58
TIME_SHIFT_64ND_4
NOTE_OFF_73
TIME_SHIFT_64ND_1
NOTE_OFF_58
VEL_3
NOTE_ON_73
VEL_2
NOTE_ON_51
TIME_SHIFT_64ND_5
NOTE_OFF_51
VEL_1
NOTE_ON_55
TIME_SHIFT_64ND_5
NOTE_OFF_55
VEL_1
NOTE_ON_58
TIME_SHIFT_64ND_5
NOTE_OFF_58
VEL_2
NOTE_ON_51
TIME_SHIFT_64ND_5
NOTE_OFF_51
VEL_2
NOTE_ON_55
TIME_SHIFT_64ND_5
NOTE_OFF_55
VEL_2
NOTE_ON_58
TIME_SHIFT_64ND_5
NOTE_OFF_73
NOTE_OFF_58
VEL_3
NOTE_ON_72
VEL_2
NOTE_ON_51
TIME_SHIFT_64ND_5
NOTE_OFF_72
NOTE_OFF_51
VEL_3
NOTE_ON_70
VEL_2
NOTE_ON_56
TIME_SHIFT_64ND_5
NOTE_OFF_70
NOTE_OFF_56
VEL_3
NOTE_ON_68
VEL_2
NOTE_ON_60
TIME_SHIFT_64ND_5
NOTE_OFF_68
TIME_SHIFT_64ND_1
NOTE_OFF_60
VEL_3
NOTE_ON_68
VEL_2
NOTE_ON_51
TIME_SHIFT_64ND_5
NOTE_OFF_51
VEL_2
NOTE_ON_58
TIME_SHIFT_64ND_2
NOTE_OFF_68
VEL_3
NOTE_ON_67
TIME_SHIFT_64ND_2
NOTE_OFF_58
VEL_2
NOTE_ON_61
TIME_SHIFT_64ND_4
NOTE_OFF_67
TIME_SHIFT_64ND_1
NOTE_OFF_61
VEL_3
NOTE_ON_67
VEL_2
NOTE_ON_51
TIME_SHIFT_64ND_5
NOTE_OFF_51
VEL_1
NOTE_ON_58
TIME_SHIFT_64ND_5
NOTE_OFF_58
VEL_1
NOTE_ON_61
TIME_SHIFT_64ND_5
NOTE_OFF_61
VEL_2
NOTE_ON_51
TIME_SHIFT_64ND_5
NOTE_OFF_51
VEL_2
NOTE_ON_58
TIME_SHIFT_64ND_5
NOTE_OFF_58
VEL_2
NOTE_ON_61
TIME_SHIFT_64ND_5
NOTE_OFF_67
NOTE_OFF_61
VEL_3
NOTE_ON_68
VEL_2
NOTE_ON_51
TIME_SHIFT_64ND_5
NOTE_OFF_51
VEL_2
NOTE_ON_56
TIME_SHIFT_64ND_5
NOTE_OFF_56
VEL_2
NOTE_ON_60
TIME_SHIFT_64ND_5
NOTE_OFF_68
NOTE_OFF_60
VEL_3
NOTE_ON_70
VEL_2
NOTE_ON_51
TIME_SHIFT_64ND_5
NOTE_OFF_70
NOTE_OFF_51
VEL_3
NOTE_ON_72
VEL_2
NOTE_ON_55
TIME_SHIFT_64ND_5
NOTE_OFF_72
NOTE_OFF_55
VEL_3
NOTE_ON_73
VEL_2
NOTE_ON_58
TIME_SHIFT_64ND_4
NOTE_OFF_73
TIME_SHIFT_64ND_1
NOTE_OFF_58
VEL_3
NOTE_ON_73
VEL_2
NOTE_ON_51
TIME_SHIFT_64ND_5
NOTE_OFF_51
VEL_1
NOTE_ON_55
TIME_SHIFT_64ND_5
NOTE_OFF_55
VEL_1
NOTE_ON_58
TIME_SHIFT_64ND_5
NOTE_OFF_58
VEL_2
NOTE_ON_51
TIME_SHIFT_64ND_5
NOTE_OFF_51
VEL_2
NOTE_ON_55
TIME_SHIFT_64ND_5
NOTE_OFF_55
VEL_2
NOTE_ON_58
TIME_SHIFT_64ND_5
NOTE_OFF_73
NOTE_OFF_58
VEL_3
NOTE_ON_72
VEL_2
NOTE_ON_51
TIME_SHIFT_64ND_5
NOTE_OFF_72
NOTE_OFF_51
VEL_3
NOTE_ON_70
VEL_2
NOTE_ON_56
TIME_SHIFT_64ND_5
NOTE_OFF_70
NOTE_OFF_56
VEL_3
NOTE_ON_68
VEL_2
NOTE_ON_60
TIME_SHIFT_64ND_5
NOTE_OFF_68
TIME_SHIFT_64ND_1
NOTE_OFF_60
VEL_3
NOTE_ON_68
VEL_2
NOTE_ON_51
TIME_SHIFT_64ND_5
NOTE_OFF_51
VEL_2
NOTE_ON_58
TIME_SHIFT_64ND_2
NOTE_OFF_68
VEL_3
NOTE_ON_67
TIME_SHIFT_64ND_2
NOTE_OFF_58
VEL_2
NOTE_ON_61
TIME_SHIFT_64ND_4
NOTE_OFF_67
TIME_SHIFT_64ND_1
NOTE_OFF_61
VEL_3
NOTE_ON_67
VEL_2
NOTE_ON_51
TIME_SHIFT_64ND_5
NOTE_OFF_51
VEL_1
NOTE_ON_58
TIME_SHIFT_64ND_5
NOTE_OFF_58
VEL_1
NOTE_ON_61
TIME_SHIFT_64ND_5
NOTE_OFF_61
VEL_2
NOTE_ON_51
TIME_SHIFT_64ND_5
NOTE_OFF_51
VEL_2
NOTE_ON_58
TIME_SHIFT_64ND_5
NOTE_OFF_58
VEL_2
NOTE_ON_61
TIME_SHIFT_64ND_5
NOTE_OFF_67
NOTE_OFF_61
VEL_3
NOTE_ON_68
VEL_2
NOTE_ON_51
TIME_SHIFT_64ND_5
NOTE_OFF_51
VEL_2
NOTE_ON_56
TIME_SHIFT_64ND_5
NOTE_OFF_56
VEL_2
NOTE_ON_60
TIME_SHIFT_64ND_5
NOTE_OFF_68
NOTE_OFF_60
VEL_3
NOTE_ON_70
VEL_2
NOTE_ON_51
TIME_SHIFT_64ND_5
NOTE_OFF_70
NOTE_OFF_51
VEL_3
NOTE_ON_72
VEL_2
NOTE_ON_55
TIME_SHIFT_64ND_5
NOTE_OFF_72
NOTE_OFF_55
VEL_3
NOTE_ON_73
VEL_2
NOTE_ON_58
TIME_SHIFT_64ND_4
NOTE_OFF_73
TIME_SHIFT_64ND_1
NOTE_OFF_58
VEL_3
NOTE_ON_73
VEL_2
NOTE_ON_51
TIME_SHIFT_64ND_5
NOTE_OFF_51
VEL_1
NOTE_ON_55
TIME_SHIFT_64ND_5
NOTE_OFF_55
VEL_1
NOTE_ON_58
TIME_SHIFT_64ND_5
NOTE_OFF_58
VEL_2
NOTE_ON_52
TIME_SHIFT_64ND_5
NOTE_OFF_52
VEL_2
NOTE_ON_55
TIME_SHIFT_64ND_5
NOTE_OFF_55
VEL_2
NOTE_ON_58
TIME_SHIFT_64ND_5
NOTE_OFF_73
NOTE_OFF_58
VEL_3
NOTE_ON_72
VEL_2
NOTE_ON_53
TIME_SHIFT_64ND_5
NOTE_OFF_53
VEL_2
NOTE_ON_55
TIME_SHIFT_64ND_5
NOTE_OFF_55
VEL_2
NOTE_ON_56
TIME_SHIFT_64ND_5
NOTE_OFF_72
NOTE_OFF_56
VEL_3
NOTE_ON_70
VEL_3
NOTE_ON_49
TIME_SHIFT_64ND_5
NOTE_OFF_70
VEL_4
NOTE_ON_77
TIME_SHIFT_64ND_5
NOTE_OFF_77
VEL_3
NOTE_ON_75
TIME_SHIFT_64ND_5
NOTE_OFF_75
VEL_4
NOTE_ON_73
VEL_2
NOTE_ON_61
TIME_SHIFT_64ND_5
NOTE_OFF_73
VEL_3
NOTE_ON_72
TIME_SHIFT_64ND_5
NOTE_OFF_72
VEL_3
NOTE_ON_70
TIME_SHIFT_64ND_5
NOTE_OFF_70
NOTE_OFF_61
NOTE_OFF_49
VEL_4
NOTE_ON_68
VEL_3
NOTE_ON_60
VEL_3
NOTE_ON_51
TIME_SHIFT_64ND_15
NOTE_OFF_68
NOTE_OFF_60
VEL_3
NOTE_ON_67
VEL_2
NOTE_ON_58
TIME_SHIFT_64ND_15
NOTE_OFF_67
NOTE_OFF_58
NOTE_OFF_51
VEL_5
NOTE_ON_60
VEL_4
NOTE_ON_56
TIME_SHIFT_64ND_5
NOTE_OFF_60
VEL_4
NOTE_ON_63
TIME_SHIFT_64ND_5
NOTE_OFF_63
VEL_4
NOTE_ON_68
TIME_SHIFT_64ND_2
NOTE_OFF_68
TIME_SHIFT_64ND_2
NOTE_OFF_56
VEL_4
NOTE_ON_68
TIME_SHIFT_64ND_2
NOTE_OFF_68
TIME_SHIFT_64ND_2
VEL_3
NOTE_ON_68
TIME_SHIFT_64ND_2
NOTE_OFF_68
TIME_SHIFT_64ND_2
VEL_3
NOTE_ON_68
TIME_SHIFT_64ND_3
NOTE_OFF_68
TIME_SHIFT_64ND_3
VEL_5
NOTE_ON_67
VEL_4
NOTE_ON_58
VEL_3
NOTE_ON_51
TIME_SHIFT_64ND_5
NOTE_OFF_67
VEL_4
NOTE_ON_70
TIME_SHIFT_64ND_5
NOTE_OFF_70
VEL_4
NOTE_ON_73
TIME_SHIFT_64ND_2
NOTE_OFF_73
TIME_SHIFT_64ND_2
NOTE_OFF_58
NOTE_OFF_51
VEL_4
NOTE_ON_73
TIME_SHIFT_64ND_2
NOTE_OFF_73
TIME_SHIFT_64ND_2
VEL_4
NOTE_ON_73
TIME_SHIFT_64ND_2
NOTE_OFF_73
TIME_SHIFT_64ND_2
VEL_4
NOTE_ON_73
TIME_SHIFT_64ND_3
NOTE_OFF_73
TIME_SHIFT_64ND_3
VEL_5
NOTE_ON_72
VEL_4
NOTE_ON_60
VEL_4
NOTE_ON_56
TIME_SHIFT_64ND_5
NOTE_OFF_72
VEL_4
NOTE_ON_75
TIME_SHIFT_64ND_5
NOTE_OFF_75
VEL_4
NOTE_ON_80
TIME_SHIFT_64ND_2
NOTE_OFF_80
TIME_SHIFT_64ND_2
NOTE_OFF_60
NOTE_OFF_56
VEL_4
NOTE_ON_80
TIME_SHIFT_64ND_2
NOTE_OFF_80
TIME_SHIFT_64ND_2
VEL_4
NOTE_ON_80
TIME_SHIFT_64ND_2
NOTE_OFF_80
TIME_SHIFT_64ND_2
VEL_4
NOTE_ON_80
TIME_SHIFT_64ND_3
NOTE_OFF_80
TIME_SHIFT_64ND_3
VEL_4
NOTE_ON_79
VEL_4
NOTE_ON_51
VEL_4
NOTE_ON_58
TIME_SHIFT_64ND_5
NOTE_OFF_79
VEL_4
NOTE_ON_82
TIME_SHIFT_64ND_5
NOTE_OFF_82
VEL_4
NOTE_ON_85
TIME_SHIFT_64ND_2
NOTE_OFF_85
TIME_SHIFT_64ND_2
NOTE_OFF_51
NOTE_OFF_58
VEL_4
NOTE_ON_85
TIME_SHIFT_64ND_2
NOTE_OFF_85
TIME_SHIFT_64ND_2
VEL_4
NOTE_ON_85
TIME_SHIFT_64ND_2
NOTE_OFF_85
TIME_SHIFT_64ND_2
VEL_4
NOTE_ON_85
TIME_SHIFT_64ND_3
NOTE_OFF_85
TIME_SHIFT_64ND_3
VEL_5
NOTE_ON_84
VEL_4
NOTE_ON_60
VEL_4
NOTE_ON_56
TIME_SHIFT_64ND_5
NOTE_OFF_84
VEL_5
NOTE_ON_87
TIME_SHIFT_64ND_5
NOTE_OFF_87
VEL_4
NOTE_ON_85
TIME_SHIFT_64ND_5
NOTE_OFF_85
VEL_5
NOTE_ON_84
TIME_SHIFT_64ND_5
NOTE_OFF_84
VEL_4
NOTE_ON_82
TIME_SHIFT_64ND_5
NOTE_OFF_82
VEL_4
NOTE_ON_80
TIME_SHIFT_64ND_5
NOTE_OFF_80
VEL_5
NOTE_ON_79
TIME_SHIFT_64ND_5
NOTE_OFF_79
VEL_4
NOTE_ON_77
TIME_SHIFT_64ND_5
NOTE_OFF_77
VEL_4
NOTE_ON_75
TIME_SHIFT_64ND_5
NOTE_OFF_75
NOTE_OFF_60
NOTE_OFF_56
VEL_5
NOTE_ON_73
VEL_3
NOTE_ON_58
VEL_3
NOTE_ON_61
TIME_SHIFT_64ND_5
NOTE_OFF_73
VEL_4
NOTE_ON_72
TIME_SHIFT_64ND_5
NOTE_OFF_72
VEL_4
NOTE_ON_70
TIME_SHIFT_64ND_5
NOTE_OFF_70
NOTE_OFF_58
NOTE_OFF_61
VEL_5
NOTE_ON_68
VEL_4
NOTE_ON_63
VEL_4
NOTE_ON_60
TIME_SHIFT_64ND_5
NOTE_OFF_68
VEL_5
NOTE_ON_84
TIME_SHIFT_64ND_5
NOTE_OFF_84
VEL_4
NOTE_ON_82
TIME_SHIFT_64ND_5
NOTE_OFF_82
NOTE_OFF_63
NOTE_OFF_60
VEL_5
NOTE_ON_80
TIME_SHIFT_64ND_5
NOTE_OFF_80
VEL_5
NOTE_ON_79
TIME_SHIFT_64ND_5
NOTE_OFF_79
VEL_5
NOTE_ON_77
TIME_SHIFT_64ND_5
NOTE_OFF_77
VEL_5
NOTE_ON_75
TIME_SHIFT_64ND_5
NOTE_OFF_75
VEL_4
NOTE_ON_73
TIME_SHIFT_64ND_5
NOTE_OFF_73
VEL_4
NOTE_ON_72
TIME_SHIFT_64ND_5
NOTE_OFF_72
VEL_5
NOTE_ON_70
TIME_SHIFT_64ND_5
NOTE_OFF_70
VEL_4
NOTE_ON_68
TIME_SHIFT_64ND_5
NOTE_OFF_68
VEL_4
NOTE_ON_67
TIME_SHIFT_64ND_5
NOTE_OFF_67
VEL_5
NOTE_ON_65
VEL_4
NOTE_ON_49
TIME_SHIFT_64ND_12
NOTE_OFF_65
VEL_4
NOTE_ON_77
TIME_SHIFT_64ND_4
NOTE_OFF_77
VEL_5
NOTE_ON_73
VEL_3
NOTE_ON_61
TIME_SHIFT_64ND_12
NOTE_OFF_73
VEL_4
NOTE_ON_70
TIME_SHIFT_64ND_4
NOTE_OFF_70
NOTE_OFF_61
NOTE_OFF_49
VEL_5
NOTE_ON_68
VEL_4
NOTE_ON_60
VEL_3
NOTE_ON_51
TIME_SHIFT_64ND_15
NOTE_OFF_68
NOTE_OFF_60
VEL_3
NOTE_ON_67
VEL_3
NOTE_ON_58
TIME_SHIFT_64ND_2
NOTE_OFF_67
VEL_3
NOTE_ON_68
TIME_SHIFT_64ND_2
NOTE_OFF_68
VEL_3
NOTE_ON_67
TIME_SHIFT_64ND_2
NOTE_OFF_67
VEL_3
NOTE_ON_68
TIME_SHIFT_64ND_2
NOTE_OFF_68
VEL_3
NOTE_ON_67
TIME_SHIFT_64ND_2
NOTE_OFF_67
VEL_3
NOTE_ON_68
TIME_SHIFT_64ND_2
NOTE_OFF_68
VEL_3
NOTE_ON_67
TIME_SHIFT_64ND_2
NOTE_OFF_67
VEL_3
NOTE_ON_68
TIME_SHIFT_64ND_3
NOTE_OFF_68
NOTE_OFF_58
NOTE_OFF_51
VEL_5
NOTE_ON_84
VEL_4
NOTE_ON_60
VEL_4
NOTE_ON_56
TIME_SHIFT_64ND_5
NOTE_OFF_84
VEL_5
NOTE_ON_87
TIME_SHIFT_64ND_5
NOTE_OFF_87
VEL_4
NOTE_ON_85
TIME_SHIFT_64ND_5
NOTE_OFF_85
VEL_5
NOTE_ON_84
TIME_SHIFT_64ND_5
NOTE_OFF_84
VEL_4
NOTE_ON_82
TIME_SHIFT_64ND_5
NOTE_OFF_82
VEL_4
NOTE_ON_80
TIME_SHIFT_64ND_5
NOTE_OFF_80
VEL_5
NOTE_ON_79
TIME_SHIFT_64ND_5
NOTE_OFF_79
VEL_4
NOTE_ON_77
TIME_SHIFT_64ND_5
NOTE_OFF_77
VEL_4
NOTE_ON_75
TIME_SHIFT_64ND_5
NOTE_OFF_75
NOTE_OFF_60
NOTE_OFF_56
VEL_5
NOTE_ON_73
VEL_3
NOTE_ON_58
VEL_3
NOTE_ON_61
TIME_SHIFT_64ND_5
NOTE_OFF_73
VEL_4
NOTE_ON_72
TIME_SHIFT_64ND_5
NOTE_OFF_72
VEL_4
NOTE_ON_70
TIME_SHIFT_64ND_5
NOTE_OFF_70
NOTE_OFF_58
NOTE_OFF_61
VEL_5
NOTE_ON_68
VEL_4
NOTE_ON_63
VEL_4
NOTE_ON_60
TIME_SHIFT_64ND_5
NOTE_OFF_68
VEL_5
NOTE_ON_84
TIME_SHIFT_64ND_5
NOTE_OFF_84
VEL_4
NOTE_ON_82
TIME_SHIFT_64ND_5
NOTE_OFF_82
NOTE_OFF_63
NOTE_OFF_60
VEL_5
NOTE_ON_80
TIME_SHIFT_64ND_5
NOTE_OFF_80
VEL_5
NOTE_ON_79
TIME_SHIFT_64ND_5
NOTE_OFF_79
VEL_5
NOTE_ON_77
TIME_SHIFT_64ND_5
NOTE_OFF_77
VEL_5
NOTE_ON_75
TIME_SHIFT_64ND_5
NOTE_OFF_75
VEL_4
NOTE_ON_73
TIME_SHIFT_64ND_5
NOTE_OFF_73
VEL_4
NOTE_ON_72
TIME_SHIFT_64ND_5
NOTE_OFF_72
VEL_5
NOTE_ON_70
TIME_SHIFT_64ND_5
NOTE_OFF_70
VEL_4
NOTE_ON_68
TIME_SHIFT_64ND_5
NOTE_OFF_68
VEL_4
NOTE_ON_67
TIME_SHIFT_64ND_5
NOTE_OFF_67
VEL_5
NOTE_ON_65
VEL_4
NOTE_ON_49
TIME_SHIFT_64ND_12
NOTE_OFF_65
VEL_4
NOTE_ON_77
TIME_SHIFT_64ND_4
NOTE_OFF_77
VEL_5
NOTE_ON_73
VEL_3
NOTE_ON_61
TIME_SHIFT_64ND_12
NOTE_OFF_73
VEL_4
NOTE_ON_70
TIME_SHIFT_64ND_4
NOTE_OFF_70
NOTE_OFF_61
NOTE_OFF_49
VEL_5
NOTE_ON_68
VEL_4
NOTE_ON_60
VEL_3
NOTE_ON_51
TIME_SHIFT_64ND_15
NOTE_OFF_68
NOTE_OFF_60
VEL_3
NOTE_ON_67
VEL_3
NOTE_ON_58
TIME_SHIFT_64ND_2
NOTE_OFF_67
VEL_3
NOTE_ON_68
TIME_SHIFT_64ND_2
NOTE_OFF_68
VEL_3
NOTE_ON_67
TIME_SHIFT_64ND_2
NOTE_OFF_67
VEL_3
NOTE_ON_68
TIME_SHIFT_64ND_2
NOTE_OFF_68
VEL_3
NOTE_ON_67
TIME_SHIFT_64ND_2
NOTE_OFF_67
VEL_3
NOTE_ON_68
TIME_SHIFT_64ND_2
NOTE_OFF_68
VEL_3
NOTE_ON_67
TIME_SHIFT_64ND_2
NOTE_OFF_67
VEL_3
NOTE_ON_68
TIME_SHIFT_64ND_2
NOTE_OFF_68
NOTE_OFF_58
NOTE_OFF_51
VEL_4
NOTE_ON_68
VEL_3
NOTE_ON_56
TIME_SHIFT_64ND_5
NOTE_OFF_68
NOTE_OFF_56
VEL_4
NOTE_ON_72
VEL_3
NOTE_ON_60
TIME_SHIFT_64ND_5
NOTE_OFF_72
NOTE_OFF_60
VEL_3
NOTE_ON_70
VEL_3
NOTE_ON_58
TIME_SHIFT_64ND_5
NOTE_OFF_70
NOTE_OFF_58
VEL_4
NOTE_ON_68
VEL_3
NOTE_ON_56
TIME_SHIFT_64ND_5
NOTE_OFF_68
NOTE_OFF_56
VEL_4
NOTE_ON_67
VEL_3
NOTE_ON_55
TIME_SHIFT_64ND_5
NOTE_OFF_67
NOTE_OFF_55
VEL_4
NOTE_ON_65
VEL_3
NOTE_ON_53
TIME_SHIFT_64ND_5
NOTE_OFF_65
NOTE_OFF_53
VEL_4
NOTE_ON_63
VEL_3
NOTE_ON_51
TIME_SHIFT_64ND_5
NOTE_OFF_63
NOTE_OFF_51
VEL_4
NOTE_ON_61
VEL_3
NOTE_ON_49
TIME_SHIFT_64ND_5
NOTE_OFF_61
NOTE_OFF_49
VEL_4
NOTE_ON_60
VEL_3
NOTE_ON_48
TIME_SHIFT_64ND_5
NOTE_OFF_60
NOTE_OFF_48
VEL_4
NOTE_ON_61
VEL_3
NOTE_ON_49
TIME_SHIFT_64ND_4
NOTE_OFF_61
NOTE_OFF_49
VEL_4
NOTE_ON_63
VEL_3
NOTE_ON_51
TIME_SHIFT_64ND_4
NOTE_OFF_63
NOTE_OFF_51
VEL_4
NOTE_ON_65
VEL_3
NOTE_ON_53
TIME_SHIFT_64ND_4
NOTE_OFF_65
NOTE_OFF_53
VEL_3
NOTE_ON_67
VEL_3
NOTE_ON_55
TIME_SHIFT_64ND_4
NOTE_OFF_67
NOTE_OFF_55
VEL_4
NOTE_ON_68
VEL_3
NOTE_ON_56
TIME_SHIFT_64ND_5
NOTE_OFF_68
NOTE_OFF_56
VEL_4
NOTE_ON_72
VEL_3
NOTE_ON_60
TIME_SHIFT_64ND_5
NOTE_OFF_72
NOTE_OFF_60
VEL_3
NOTE_ON_70
VEL_3
NOTE_ON_58
TIME_SHIFT_64ND_5
NOTE_OFF_70
NOTE_OFF_58
VEL_4
NOTE_ON_68
VEL_3
NOTE_ON_56
TIME_SHIFT_64ND_5
NOTE_OFF_68
NOTE_OFF_56
VEL_4
NOTE_ON_67
VEL_3
NOTE_ON_55
TIME_SHIFT_64ND_5
NOTE_OFF_67
NOTE_OFF_55
VEL_4
NOTE_ON_65
VEL_3
NOTE_ON_53
TIME_SHIFT_64ND_5
NOTE_OFF_65
NOTE_OFF_53
VEL_4
NOTE_ON_63
VEL_3
NOTE_ON_51
TIME_SHIFT_64ND_5
NOTE_OFF_63
NOTE_OFF_51
VEL_4
NOTE_ON_61
VEL_3
NOTE_ON_49
TIME_SHIFT_64ND_5
NOTE_OFF_61
NOTE_OFF_49
VEL_4
NOTE_ON_60
VEL_3
NOTE_ON_48
TIME_SHIFT_64ND_5
NOTE_OFF_60
NOTE_OFF_48
VEL_4
NOTE_ON_61
VEL_3
NOTE_ON_49
TIME_SHIFT_64ND_4
NOTE_OFF_61
NOTE_OFF_49
VEL_4
NOTE_ON_63
VEL_3
NOTE_ON_51
TIME_SHIFT_64ND_4
NOTE_OFF_63
NOTE_OFF_51
VEL_4
NOTE_ON_65
VEL_3
NOTE_ON_53
TIME_SHIFT_64ND_4
NOTE_OFF_65
NOTE_OFF_53
VEL_3
NOTE_ON_67
VEL_3
NOTE_ON_55
TIME_SHIFT_64ND_4
NOTE_OFF_67
NOTE_OFF_55
VEL_4
NOTE_ON_68
VEL_3
NOTE_ON_56
TIME_SHIFT_64ND_5
NOTE_OFF_68
NOTE_OFF_56
VEL_4
NOTE_ON_72
VEL_3
NOTE_ON_60
TIME_SHIFT_64ND_5
NOTE_OFF_72
NOTE_OFF_60
VEL_3
NOTE_ON_70
VEL_3
NOTE_ON_58
TIME_SHIFT_64ND_5
NOTE_OFF_70
NOTE_OFF_58
VEL_4
NOTE_ON_68
VEL_3
NOTE_ON_56
TIME_SHIFT_64ND_5
NOTE_OFF_68
NOTE_OFF_56
VEL_4
NOTE_ON_67
VEL_3
NOTE_ON_55
TIME_SHIFT_64ND_5
NOTE_OFF_67
NOTE_OFF_55
VEL_4
NOTE_ON_65
VEL_3
NOTE_ON_53
TIME_SHIFT_64ND_5
NOTE_OFF_65
NOTE_OFF_53
VEL_4
NOTE_ON_63
VEL_3
NOTE_ON_51
TIME_SHIFT_64ND_5
NOTE_OFF_63
NOTE_OFF_51
VEL_4
NOTE_ON_61
VEL_3
NOTE_ON_49
TIME_SHIFT_64ND_5
NOTE_OFF_61
NOTE_OFF_49
VEL_4
NOTE_ON_60
VEL_3
NOTE_ON_48
TIME_SHIFT_64ND_5
NOTE_OFF_60
NOTE_OFF_48
VEL_4
NOTE_ON_68
VEL_3
NOTE_ON_56
TIME_SHIFT_64ND_5
NOTE_OFF_68
NOTE_OFF_56
VEL_4
NOTE_ON_67
VEL_3
NOTE_ON_55
TIME_SHIFT_64ND_5
NOTE_OFF_67
NOTE_OFF_55
VEL_4
NOTE_ON_65
VEL_3
NOTE_ON_53
TIME_SHIFT_64ND_5
NOTE_OFF_65
NOTE_OFF_53
VEL_4
NOTE_ON_63
VEL_3
NOTE_ON_51
TIME_SHIFT_64ND_5
NOTE_OFF_63
NOTE_OFF_51
VEL_4
NOTE_ON_61
VEL_3
NOTE_ON_49
TIME_SHIFT_64ND_5
NOTE_OFF_61
NOTE_OFF_49
VEL_4
NOTE_ON_60
VEL_3
NOTE_ON_48
TIME_SHIFT_64ND_5
NOTE_OFF_60
NOTE_OFF_48
VEL_4
NOTE_ON_68
VEL_3
NOTE_ON_56
TIME_SHIFT_64ND_5
NOTE_OFF_68
NOTE_OFF_56
VEL_4
NOTE_ON_67
VEL_3
NOTE_ON_55
TIME_SHIFT_64ND_5
NOTE_OFF_67
NOTE_OFF_55
VEL_4
NOTE_ON_65
VEL_3
NOTE_ON_53
TIME_SHIFT_64ND_5
NOTE_OFF_65
NOTE_OFF_53
VEL_4
NOTE_ON_63
VEL_3
NOTE_ON_51
TIME_SHIFT_64ND_5
NOTE_OFF_63
NOTE_OFF_51
VEL_4
NOTE_ON_61
VEL_3
NOTE_ON_49
TIME_SHIFT_64ND_5
NOTE_OFF_61
NOTE_OFF_49
VEL_4
NOTE_ON_60
VEL_3
NOTE_ON_48
TIME_SHIFT_64ND_5
NOTE_OFF_60
NOTE_OFF_48
VEL_4
NOTE_ON_68
VEL_3
NOTE_ON_56
TIME_SHIFT_64ND_11
NOTE_OFF_68
NOTE_OFF_56
VEL_3
NOTE_ON_60
VEL_2
NOTE_ON_48
TIME_SHIFT_64ND_4
NOTE_OFF_60
NOTE_OFF_48
VEL_3
NOTE_ON_60
VEL_2
NOTE_ON_48
TIME_SHIFT_64ND_3
NOTE_OFF_60
NOTE_OFF_48
VEL_2
NOTE_ON_61
VEL_2
NOTE_ON_49
TIME_SHIFT_64ND_3
NOTE_OFF_61
NOTE_OFF_49
VEL_3
NOTE_ON_60
VEL_2
NOTE_ON_48
TIME_SHIFT_64ND_3
NOTE_OFF_60
NOTE_OFF_48
VEL_2
NOTE_ON_61
VEL_2
NOTE_ON_49
TIME_SHIFT_64ND_3
NOTE_OFF_61
NOTE_OFF_49
VEL_3
NOTE_ON_60
VEL_2
NOTE_ON_48
TIME_SHIFT_64ND_3
NOTE_OFF_60
NOTE_OFF_48
VEL_2
NOTE_ON_61
VEL_2
NOTE_ON_49
TIME_SHIFT_64ND_3
NOTE_OFF_61
NOTE_OFF_49
VEL_3
NOTE_ON_60
VEL_2
NOTE_ON_48
TIME_SHIFT_64ND_2
NOTE_OFF_60
NOTE_OFF_48
VEL_2
NOTE_ON_61
VEL_2
NOTE_ON_49
TIME_SHIFT_64ND_2
NOTE_OFF_61
NOTE_OFF_49
VEL_3
NOTE_ON_60
VEL_2
NOTE_ON_48
TIME_SHIFT_64ND_2
NOTE_OFF_60
NOTE_OFF_48
VEL_2
NOTE_ON_61
VEL_2
NOTE_ON_49
TIME_SHIFT_64ND_2
NOTE_OFF_61
NOTE_OFF_49
VEL_3
NOTE_ON_60
VEL_2
NOTE_ON_48
TIME_SHIFT_64ND_4
NOTE_OFF_60
NOTE_OFF_48
VEL_3
NOTE_ON_61
VEL_2
NOTE_ON_49
TIME_SHIFT_64ND_4
NOTE_OFF_61
NOTE_OFF_49
VEL_3
NOTE_ON_63
VEL_2
NOTE_ON_51
TIME_SHIFT_64ND_16
NOTE_OFF_63
NOTE_OFF_51
VEL_3
NOTE_ON_63
VEL_2
NOTE_ON_51
TIME_SHIFT_64ND_18
NOTE_OFF_63
NOTE_OFF_51
VEL_3
NOTE_ON_68
VEL_1
NOTE_ON_56
TIME_SHIFT_64ND_5
NOTE_OFF_56
VEL_1
NOTE_ON_60
TIME_SHIFT_64ND_5
NOTE_OFF_60
VEL_1
NOTE_ON_63
TIME_SHIFT_64ND_5
NOTE_OFF_63
VEL_1
NOTE_ON_56
TIME_SHIFT_64ND_5
NOTE_OFF_56
VEL_1
NOTE_ON_60
TIME_SHIFT_64ND_5
NOTE_OFF_60
VEL_1
NOTE_ON_63
TIME_SHIFT_64ND_5
NOTE_OFF_63
VEL_1
NOTE_ON_56
TIME_SHIFT_64ND_5
NOTE_OFF_56
VEL_1
NOTE_ON_60
TIME_SHIFT_64ND_5
NOTE_OFF_60
VEL_1
NOTE_ON_63
TIME_SHIFT_64ND_3
NOTE_OFF_68
VEL_3
NOTE_ON_72
TIME_SHIFT_64ND_2
NOTE_OFF_72
NOTE_OFF_63
VEL_2
NOTE_ON_70
VEL_1
NOTE_ON_56
TIME_SHIFT_64ND_5
NOTE_OFF_56
VEL_1
NOTE_ON_61
TIME_SHIFT_64ND_5
NOTE_OFF_61
VEL_1
NOTE_ON_67
TIME_SHIFT_64ND_5
NOTE_OFF_70
NOTE_OFF_67
VEL_3
NOTE_ON_68
VEL_1
NOTE_ON_56
TIME_SHIFT_64ND_5
NOTE_OFF_56
VEL_1
NOTE_ON_60
TIME_SHIFT_64ND_5
NOTE_OFF_60
VEL_1
NOTE_ON_63
TIME_SHIFT_64ND_5
NOTE_OFF_68
NOTE_OFF_63
VEL_2
NOTE_ON_68
VEL_1
NOTE_ON_56
TIME_SHIFT_64ND_5
NOTE_OFF_56
VEL_1
NOTE_ON_60
TIME_SHIFT_64ND_5
NOTE_OFF_60
VEL_1
NOTE_ON_63
TIME_SHIFT_64ND_5
NOTE_OFF_68
NOTE_OFF_63
VEL_2
NOTE_ON_68
VEL_1
NOTE_ON_56
TIME_SHIFT_64ND_5
NOTE_OFF_56
VEL_1
NOTE_ON_60
TIME_SHIFT_64ND_5
NOTE_OFF_60
VEL_1
NOTE_ON_63
TIME_SHIFT_64ND_5
NOTE_OFF_68
NOTE_OFF_63
VEL_3
NOTE_ON_73
VEL_1
NOTE_ON_56
TIME_SHIFT_64ND_4
NOTE_OFF_73
VEL_2
NOTE_ON_70
TIME_SHIFT_64ND_1
NOTE_OFF_56
VEL_1
NOTE_ON_61
TIME_SHIFT_64ND_5
NOTE_OFF_61
VEL_1
NOTE_ON_67
TIME_SHIFT_64ND_5
NOTE_OFF_70
NOTE_OFF_67
VEL_3
NOTE_ON_75
VEL_1
NOTE_ON_56
TIME_SHIFT_64ND_5
NOTE_OFF_56
VEL_1
NOTE_ON_60
TIME_SHIFT_64ND_5
NOTE_OFF_60
VEL_1
NOTE_ON_63
TIME_SHIFT_64ND_5
NOTE_OFF_75
NOTE_OFF_63
VEL_2
NOTE_ON_75
VEL_1
NOTE_ON_56
TIME_SHIFT_64ND_5
NOTE_OFF_56
VEL_1
NOTE_ON_60
TIME_SHIFT_64ND_5
NOTE_OFF_60
VEL_1
NOTE_ON_63
TIME_SHIFT_64ND_5
NOTE_OFF_75
NOTE_OFF_63
VEL_2
NOTE_ON_75
VEL_1
NOTE_ON_56
TIME_SHIFT_64ND_5
NOTE_OFF_56
VEL_1
NOTE_ON_60
TIME_SHIFT_64ND_5
NOTE_OFF_60
VEL_1
NOTE_ON_63
TIME_SHIFT_64ND_5
NOTE_OFF_75
NOTE_OFF_63
VEL_3
NOTE_ON_73
VEL_1
NOTE_ON_56
TIME_SHIFT_64ND_4
NOTE_OFF_73
VEL_2
NOTE_ON_70
TIME_SHIFT_64ND_1
NOTE_OFF_56
VEL_1
NOTE_ON_61
TIME_SHIFT_64ND_5
NOTE_OFF_61
VEL_1
NOTE_ON_67
TIME_SHIFT_64ND_5
NOTE_OFF_70
NOTE_OFF_67
VEL_3
NOTE_ON_68
VEL_1
NOTE_ON_56
TIME_SHIFT_64ND_5
NOTE_OFF_56
VEL_1
NOTE_ON_60
TIME_SHIFT_64ND_5
NOTE_OFF_60
VEL_1
NOTE_ON_63
TIME_SHIFT_64ND_5
NOTE_OFF_63
VEL_1
NOTE_ON_56
TIME_SHIFT_64ND_5
NOTE_OFF_56
VEL_1
NOTE_ON_60
TIME_SHIFT_64ND_5
NOTE_OFF_60
VEL_1
NOTE_ON_63
TIME_SHIFT_64ND_5
NOTE_OFF_63
VEL_1
NOTE_ON_56
TIME_SHIFT_64ND_5
NOTE_OFF_56
VEL_1
NOTE_ON_60
TIME_SHIFT_64ND_5
NOTE_OFF_60
VEL_1
NOTE_ON_63
TIME_SHIFT_64ND_3
NOTE_OFF_68
VEL_3
NOTE_ON_72
TIME_SHIFT_64ND_2
NOTE_OFF_72
NOTE_OFF_63
VEL_2
NOTE_ON_70
VEL_1
NOTE_ON_56
TIME_SHIFT_64ND_5
NOTE_OFF_56
VEL_1
NOTE_ON_61
TIME_SHIFT_64ND_5
NOTE_OFF_61
VEL_1
NOTE_ON_67
TIME_SHIFT_64ND_5
NOTE_OFF_70
NOTE_OFF_67
VEL_2
NOTE_ON_68
VEL_1
NOTE_ON_56
TIME_SHIFT_64ND_5
NOTE_OFF_56
VEL_1
NOTE_ON_60
TIME_SHIFT_64ND_5
NOTE_OFF_60
VEL_1
NOTE_ON_63
TIME_SHIFT_64ND_5
NOTE_OFF_68
NOTE_OFF_63
VEL_2
NOTE_ON_68
VEL_1
NOTE_ON_56
TIME_SHIFT_64ND_5
NOTE_OFF_56
VEL_1
NOTE_ON_60
TIME_SHIFT_64ND_5
NOTE_OFF_60
VEL_1
NOTE_ON_63
TIME_SHIFT_64ND_5
NOTE_OFF_68
NOTE_OFF_63
VEL_2
NOTE_ON_68
VEL_1
NOTE_ON_56
TIME_SHIFT_64ND_5
NOTE_OFF_56
VEL_1
NOTE_ON_60
TIME_SHIFT_64ND_5
NOTE_OFF_60
VEL_1
NOTE_ON_63
TIME_SHIFT_64ND_5
NOTE_OFF_68
NOTE_OFF_63
VEL_2
NOTE_ON_73
VEL_1
NOTE_ON_56
TIME_SHIFT_64ND_4
NOTE_OFF_73
VEL_2
NOTE_ON_70
TIME_SHIFT_64ND_1
NOTE_OFF_56
VEL_1
NOTE_ON_61
TIME_SHIFT_64ND_5
NOTE_OFF_61
VEL_1
NOTE_ON_67
TIME_SHIFT_64ND_5
NOTE_OFF_70
NOTE_OFF_67
VEL_2
NOTE_ON_75
VEL_1
NOTE_ON_56
TIME_SHIFT_64ND_5
NOTE_OFF_56
VEL_1
NOTE_ON_60
TIME_SHIFT_64ND_5
NOTE_OFF_60
VEL_1
NOTE_ON_63
TIME_SHIFT_64ND_5
NOTE_OFF_75
NOTE_OFF_63
VEL_2
NOTE_ON_75
VEL_1
NOTE_ON_56
TIME_SHIFT_64ND_5
NOTE_OFF_56
VEL_1
NOTE_ON_60
TIME_SHIFT_64ND_5
NOTE_OFF_60
VEL_1
NOTE_ON_63
TIME_SHIFT_64ND_5
NOTE_OFF_75
NOTE_OFF_63
VEL_2
NOTE_ON_75
VEL_1
NOTE_ON_56
TIME_SHIFT_64ND_5
NOTE_OFF_56
VEL_1
NOTE_ON_60
TIME_SHIFT_64ND_5
NOTE_OFF_60
VEL_1
NOTE_ON_63
TIME_SHIFT_64ND_5
NOTE_OFF_75
NOTE_OFF_63
VEL_2
NOTE_ON_73
VEL_1
NOTE_ON_56
TIME_SHIFT_64ND_4
NOTE_OFF_73
VEL_2
NOTE_ON_70
TIME_SHIFT_64ND_1
NOTE_OFF_56
VEL_1
NOTE_ON_61
TIME_SHIFT_64ND_5
NOTE_OFF_61
VEL_1
NOTE_ON_67
TIME_SHIFT_64ND_5
NOTE_OFF_70
NOTE_OFF_67
VEL_2
NOTE_ON_68
VEL_1
NOTE_ON_56
TIME_SHIFT_64ND_5
NOTE_OFF_56
VEL_1
NOTE_ON_60
TIME_SHIFT_64ND_5
NOTE_OFF_60
VEL_1
NOTE_ON_63
TIME_SHIFT_64ND_5
NOTE_OFF_63
VEL_1
NOTE_ON_56
TIME_SHIFT_64ND_5
NOTE_OFF_56
VEL_1
NOTE_ON_60
TIME_SHIFT_64ND_5
NOTE_OFF_60
VEL_1
NOTE_ON_63
TIME_SHIFT_64ND_5
NOTE_OFF_63
VEL_1
NOTE_ON_56
TIME_SHIFT_64ND_5
NOTE_OFF_56
VEL_1
NOTE_ON_60
TIME_SHIFT_64ND_5
NOTE_OFF_60
VEL_1
NOTE_ON_63
TIME_SHIFT_64ND_3
NOTE_OFF_68
VEL_2
NOTE_ON_72
TIME_SHIFT_64ND_2
NOTE_OFF_72
NOTE_OFF_63
VEL_2
NOTE_ON_70
VEL_1
NOTE_ON_56
TIME_SHIFT_64ND_5
NOTE_OFF_56
VEL_1
NOTE_ON_61
TIME_SHIFT_64ND_5
NOTE_OFF_61
VEL_1
NOTE_ON_67
TIME_SHIFT_64ND_5
NOTE_OFF_70
NOTE_OFF_67
VEL_2
NOTE_ON_68
VEL_1
NOTE_ON_56
VEL_1
NOTE_ON_60
TIME_SHIFT_64ND_15
NOTE_OFF_68
NOTE_OFF_56
NOTE_OFF_60
VEL_1
NOTE_ON_72
VEL_2
NOTE_ON_75
TIME_SHIFT_64ND_15
NOTE_OFF_72
NOTE_OFF_75
VEL_2
NOTE_ON_75
VEL_1
NOTE_ON_72
TIME_SHIFT_64ND_16
NOTE_OFF_75
NOTE_OFF_72
VEL_1
NOTE_ON_48
VEL_1
NOTE_ON_44
TIME_SHIFT_64ND_16
NOTE_OFF_48
NOTE_OFF_44
VEL_1
NOTE_ON_44
VEL_1
NOTE_ON_48
TIME_SHIFT_64ND_16
NOTE_OFF_44
NOTE_OFF_48
