NOTE_ON_67
TIME_SHIFT_64ND_19
NOTE_OFF_67
NOTE_ON_71
NOTE_ON_55
TIME_SHIFT_64ND_19
NOTE_OFF_71
NOTE_OFF_55
NOTE_ON_43
TIME_SHIFT_64ND_19
NOTE_OFF_43
NOTE_ON_69
TIME_SHIFT_64ND_5
NOTE_OFF_69
NOTE_ON_67
TIME_SHIFT_64ND_5
NOTE_OFF_67
NOTE_ON_69
TIME_SHIFT_64ND_5
NOTE_OFF_69
NOTE_ON_71
TIME_SHIFT_64ND_5
NOTE_OFF_71
NOTE_ON_72
NOTE_ON_54
TIME_SHIFT_64ND_19
NOTE_OFF_72
NOTE_OFF_54
NOTE_ON_50
TIME_SHIFT_64ND_19
NOTE_OFF_50
NOTE_ON_72
NOTE_ON_55
TIME_SHIFT_64ND_9
NOTE_OFF_72
NOTE_ON_71
TIME_SHIFT_64ND_10
NOTE_OFF_71
NOTE_OFF_55
NOTE_ON_76
TIME_SHIFT_64ND_9
NOTE_OFF_76
NOTE_ON_74
TIME_SHIFT_64ND_10
NOTE_OFF_74
NOTE_ON_79
TIME_SHIFT_64ND_6
NOTE_OFF_79
NOTE_ON_78
TIME_SHIFT_64ND_6
NOTE_OFF_78
NOTE_ON_76
TIME_SHIFT_64ND_7
NOTE_OFF_76
NOTE_ON_74
NOTE_ON_59
TIME_SHIFT_64ND_19
NOTE_OFF_74
NOTE_OFF_59
NOTE_ON_72
NOTE_ON_57
NOTE_ON_50
TIME_SHIFT_64ND_3
NOTE_OFF_72
NOTE_ON_74
TIME_SHIFT_64ND_3
NOTE_OFF_74
NOTE_ON_72
TIME_SHIFT_64ND_3
NOTE_OFF_72
NOTE_ON_71
TIME_SHIFT_64ND_5
NOTE_OFF_71
NOTE_ON_72
TIME_SHIFT_64ND_5
NOTE_OFF_72
NOTE_OFF_57
NOTE_OFF_50
NOTE_ON_71
NOTE_ON_55
TIME_SHIFT_64ND_19
NOTE_OFF_71
NOTE_OFF_55
NOTE_ON_83
TIME_SHIFT_64ND_5
NOTE_OFF_83
NOTE_ON_81
TIME_SHIFT_64ND_5
NOTE_OFF_81
NOTE_ON_83
TIME_SHIFT_64ND_5
NOTE_OFF_83
NOTE_ON_84
TIME_SHIFT_64ND_5
NOTE_OFF_84
NOTE_ON_86
NOTE_ON_59
NOTE_ON_55
TIME_SHIFT_64ND_9
NOTE_OFF_86
TIME_SHIFT_64ND_9
NOTE_OFF_59
NOTE_OFF_55
NOTE_ON_59
NOTE_ON_55
TIME_SHIFT_64ND_19
NOTE_OFF_59
NOTE_OFF_55
NOTE_ON_81
NOTE_ON_62
NOTE_ON_54
TIME_SHIFT_64ND_6
NOTE_OFF_81
NOTE_ON_83
TIME_SHIFT_64ND_6
NOTE_OFF_83
NOTE_ON_81
TIME_SHIFT_64ND_7
NOTE_OFF_81
NOTE_OFF_62
NOTE_OFF_54
NOTE_ON_86
TIME_SHIFT_64ND_6
NOTE_OFF_86
NOTE_ON_85
TIME_SHIFT_64ND_6
NOTE_OFF_85
NOTE_ON_83
TIME_SHIFT_64ND_6
NOTE_OFF_83
NOTE_ON_81
TIME_SHIFT_64ND_6
NOTE_OFF_81
NOTE_ON_79
TIME_SHIFT_64ND_6
NOTE_OFF_79
NOTE_ON_78
TIME_SHIFT_64ND_7
NOTE_OFF_78
NOTE_ON_76
NOTE_ON_55
NOTE_ON_67
TIME_SHIFT_64ND_6
NOTE_OFF_76
NOTE_ON_79
TIME_SHIFT_64ND_6
NOTE_OFF_79
NOTE_ON_83
TIME_SHIFT_64ND_7
NOTE_OFF_83
NOTE_OFF_55
NOTE_OFF_67
NOTE_ON_74
NOTE_ON_66
NOTE_ON_57
TIME_SHIFT_64ND_19
NOTE_OFF_74
NOTE_OFF_66
NOTE_ON_73
NOTE_ON_64
TIME_SHIFT_64ND_3
NOTE_OFF_73
NOTE_ON_74
TIME_SHIFT_64ND_3
NOTE_OFF_74
NOTE_ON_73
TIME_SHIFT_64ND_3
NOTE_OFF_73
NOTE_ON_74
TIME_SHIFT_64ND_2
NOTE_OFF_74
NOTE_ON_73
TIME_SHIFT_64ND_2
NOTE_OFF_73
NOTE_ON_71
TIME_SHIFT_64ND_2
NOTE_OFF_71
NOTE_ON_73
TIME_SHIFT_64ND_2
NOTE_OFF_73
NOTE_OFF_64
NOTE_OFF_57
NOTE_ON_74
NOTE_ON_62
TIME_SHIFT_64ND_20
NOTE_OFF_74
NOTE_OFF_62
NOTE_ON_57
TIME_SHIFT_64ND_5
NOTE_OFF_57
TIME_SHIFT_64ND_15
NOTE_ON_50
TIME_SHIFT_64ND_10
NOTE_OFF_50
TIME_SHIFT_64ND_10
NOTE_ON_67
TIME_SHIFT_64ND_19
NOTE_OFF_67
NOTE_ON_71
NOTE_ON_55
TIME_SHIFT_64ND_19
NOTE_OFF_71
NOTE_OFF_55
NOTE_ON_43
TIME_SHIFT_64ND_19
NOTE_OFF_43
NOTE_ON_69
TIME_SHIFT_64ND_5
NOTE_OFF_69
NOTE_ON_67
TIME_SHIFT_64ND_5
NOTE_OFF_67
NOTE_ON_69
TIME_SHIFT_64ND_5
NOTE_OFF_69
NOTE_ON_71
TIME_SHIFT_64ND_5
NOTE_OFF_71
NOTE_ON_72
NOTE_ON_54
TIME_SHIFT_64ND_19
NOTE_OFF_72
NOTE_OFF_54
NOTE_ON_50
TIME_SHIFT_64ND_19
NOTE_OFF_50
NOTE_ON_72
NOTE_ON_55
TIME_SHIFT_64ND_9
NOTE_OFF_72
NOTE_ON_71
TIME_SHIFT_64ND_10
NOTE_OFF_71
NOTE_OFF_55
NOTE_ON_76
TIME_SHIFT_64ND_9
NOTE_OFF_76
NOTE_ON_74
TIME_SHIFT_64ND_10
NOTE_OFF_74
NOTE_ON_79
TIME_SHIFT_64ND_6
NOTE_OFF_79
NOTE_ON_78
TIME_SHIFT_64ND_6
NOTE_OFF_78
NOTE_ON_76
TIME_SHIFT_64ND_7
NOTE_OFF_76
NOTE_ON_74
NOTE_ON_59
TIME_SHIFT_64ND_19
NOTE_OFF_74
NOTE_OFF_59
NOTE_ON_72
NOTE_ON_57
NOTE_ON_50
TIME_SHIFT_64ND_3
NOTE_OFF_72
NOTE_ON_74
TIME_SHIFT_64ND_3
NOTE_OFF_74
NOTE_ON_72
TIME_SHIFT_64ND_3
NOTE_OFF_72
NOTE_ON_71
TIME_SHIFT_64ND_5
NOTE_OFF_71
NOTE_ON_72
TIME_SHIFT_64ND_5
NOTE_OFF_72
NOTE_OFF_57
NOTE_OFF_50
NOTE_ON_71
NOTE_ON_55
TIME_SHIFT_64ND_19
NOTE_OFF_71
NOTE_OFF_55
NOTE_ON_83
TIME_SHIFT_64ND_5
NOTE_OFF_83
NOTE_ON_81
TIME_SHIFT_64ND_5
NOTE_OFF_81
NOTE_ON_83
TIME_SHIFT_64ND_5
NOTE_OFF_83
NOTE_ON_84
TIME_SHIFT_64ND_5
NOTE_OFF_84
NOTE_ON_86
NOTE_ON_59
NOTE_ON_55
TIME_SHIFT_64ND_9
NOTE_OFF_86
TIME_SHIFT_64ND_9
NOTE_OFF_59
NOTE_OFF_55
NOTE_ON_59
NOTE_ON_55
TIME_SHIFT_64ND_19
NOTE_OFF_59
NOTE_OFF_55
NOTE_ON_81
NOTE_ON_62
NOTE_ON_54
TIME_SHIFT_64ND_6
NOTE_OFF_81
NOTE_ON_83
TIME_SHIFT_64ND_6
NOTE_OFF_83
NOTE_ON_81
TIME_SHIFT_64ND_7
NOTE_OFF_81
NOTE_OFF_62
NOTE_OFF_54
NOTE_ON_86
TIME_SHIFT_64ND_6
NOTE_OFF_86
NOTE_ON_85
TIME_SHIFT_64ND_6
NOTE_OFF_85
NOTE_ON_83
TIME_SHIFT_64ND_6
NOTE_OFF_83
NOTE_ON_81
TIME_SHIFT_64ND_6
NOTE_OFF_81
NOTE_ON_79
TIME_SHIFT_64ND_6
NOTE_OFF_79
NOTE_ON_78
TIME_SHIFT_64ND_7
NOTE_OFF_78
NOTE_ON_76
NOTE_ON_55
NOTE_ON_67
TIME_SHIFT_64ND_6
NOTE_OFF_76
NOTE_ON_79
TIME_SHIFT_64ND_6
NOTE_OFF_79
NOTE_ON_83
TIME_SHIFT_64ND_7
NOTE_OFF_83
NOTE_OFF_55
NOTE_OFF_67
NOTE_ON_74
NOTE_ON_66
NOTE_ON_57
TIME_SHIFT_64ND_19
NOTE_OFF_74
NOTE_OFF_66
NOTE_ON_73
NOTE_ON_64
TIME_SHIFT_64ND_3
NOTE_OFF_73
NOTE_ON_74
TIME_SHIFT_64ND_3
NOTE_OFF_74
NOTE_ON_73
TIME_SHIFT_64ND_3
NOTE_OFF_73
NOTE_ON_74
TIME_SHIFT_64ND_2
NOTE_OFF_74
NOTE_ON_73
TIME_SHIFT_64ND_2
NOTE_OFF_73
NOTE_ON_71
TIME_SHIFT_64ND_2
NOTE_OFF_71
NOTE_ON_73
TIME_SHIFT_64ND_2
NOTE_OFF_73
NOTE_OFF_64
NOTE_OFF_57
NOTE_ON_74
NOTE_ON_62
TIME_SHIFT_64ND_20
NOTE_OFF_74
NOTE_OFF_62
NOTE_ON_57
TIME_SHIFT_64ND_5
NOTE_OFF_57
TIME_SHIFT_64ND_15
NOTE_ON_50
TIME_SHIFT_64ND_10
NOTE_OFF_50
TIME_SHIFT_64ND_10
NOTE_ON_74
NOTE_ON_59
TIME_SHIFT_64ND_19
NOTE_OFF_74
NOTE_OFF_59
NOTE_ON_71
NOTE_ON_56
TIME_SHIFT_64ND_19
NOTE_OFF_71
NOTE_OFF_56
NOTE_ON_52
TIME_SHIFT_64ND_19
NOTE_OFF_52
NOTE_ON_72
NOTE_ON_57
TIME_SHIFT_64ND_5
NOTE_OFF_72
NOTE_ON_71
TIME_SHIFT_64ND_5
NOTE_OFF_71
NOTE_ON_72
TIME_SHIFT_64ND_5
NOTE_OFF_72
NOTE_ON_74
TIME_SHIFT_64ND_5
NOTE_OFF_74
NOTE_OFF_57
NOTE_ON_76
NOTE_ON_60
TIME_SHIFT_64ND_19
NOTE_OFF_76
NOTE_OFF_60
NOTE_ON_57
TIME_SHIFT_64ND_19
NOTE_OFF_57
NOTE_ON_72
NOTE_ON_54
TIME_SHIFT_64ND_9
NOTE_OFF_72
NOTE_ON_69
TIME_SHIFT_64ND_10
NOTE_OFF_69
NOTE_OFF_54
NOTE_ON_71
NOTE_ON_55
TIME_SHIFT_64ND_9
NOTE_OFF_71
NOTE_ON_67
TIME_SHIFT_64ND_10
NOTE_OFF_67
NOTE_OFF_55
NOTE_ON_79
TIME_SHIFT_64ND_6
NOTE_OFF_79
NOTE_ON_78
TIME_SHIFT_64ND_6
NOTE_OFF_78
NOTE_ON_76
TIME_SHIFT_64ND_7
NOTE_OFF_76
NOTE_ON_74
NOTE_ON_59
TIME_SHIFT_64ND_19
NOTE_OFF_74
NOTE_OFF_59
NOTE_ON_72
NOTE_ON_57
NOTE_ON_50
TIME_SHIFT_64ND_3
NOTE_OFF_72
NOTE_ON_74
TIME_SHIFT_64ND_3
NOTE_OFF_74
NOTE_ON_72
TIME_SHIFT_64ND_3
NOTE_OFF_72
NOTE_ON_71
TIME_SHIFT_64ND_5
NOTE_OFF_71
NOTE_ON_72
TIME_SHIFT_64ND_5
NOTE_OFF_72
NOTE_OFF_57
NOTE_OFF_50
NOTE_ON_71
NOTE_ON_55
TIME_SHIFT_64ND_19
NOTE_OFF_71
NOTE_OFF_55
NOTE_ON_76
NOTE_ON_60
TIME_SHIFT_64ND_5
NOTE_OFF_76
NOTE_ON_74
TIME_SHIFT_64ND_5
NOTE_OFF_74
NOTE_ON_76
TIME_SHIFT_64ND_5
NOTE_OFF_76
NOTE_ON_78
TIME_SHIFT_64ND_5
NOTE_OFF_78
NOTE_OFF_60
NOTE_ON_79
NOTE_ON_59
TIME_SHIFT_64ND_9
NOTE_OFF_79
NOTE_ON_79
TIME_SHIFT_64ND_5
NOTE_OFF_79
TIME_SHIFT_64ND_5
NOTE_OFF_59
NOTE_ON_79
NOTE_ON_55
TIME_SHIFT_64ND_5
NOTE_OFF_79
TIME_SHIFT_64ND_5
NOTE_ON_79
TIME_SHIFT_64ND_5
NOTE_OFF_79
TIME_SHIFT_64ND_5
NOTE_OFF_55
NOTE_ON_78
NOTE_ON_57
TIME_SHIFT_64ND_5
NOTE_OFF_78
NOTE_ON_76
TIME_SHIFT_64ND_5
NOTE_OFF_76
NOTE_ON_78
TIME_SHIFT_64ND_5
NOTE_OFF_78
NOTE_ON_79
TIME_SHIFT_64ND_5
NOTE_OFF_79
NOTE_OFF_57
NOTE_ON_81
NOTE_ON_54
TIME_SHIFT_64ND_9
NOTE_OFF_81
NOTE_ON_72
TIME_SHIFT_64ND_5
NOTE_OFF_72
TIME_SHIFT_64ND_5
NOTE_OFF_54
NOTE_ON_72
NOTE_ON_55
TIME_SHIFT_64ND_5
NOTE_OFF_72
TIME_SHIFT_64ND_5
NOTE_ON_71
TIME_SHIFT_64ND_5
NOTE_OFF_71
TIME_SHIFT_64ND_5
NOTE_OFF_55
NOTE_ON_69
NOTE_ON_48
NOTE_ON_60
TIME_SHIFT_64ND_6
NOTE_OFF_69
NOTE_ON_72
TIME_SHIFT_64ND_6
NOTE_OFF_72
NOTE_ON_76
TIME_SHIFT_64ND_7
NOTE_OFF_76
NOTE_OFF_48
NOTE_OFF_60
NOTE_ON_67
NOTE_ON_59
NOTE_ON_50
TIME_SHIFT_64ND_19
NOTE_OFF_67
NOTE_OFF_59
NOTE_ON_66
NOTE_ON_57
TIME_SHIFT_64ND_3
NOTE_OFF_66
NOTE_ON_67
TIME_SHIFT_64ND_3
NOTE_OFF_67
NOTE_ON_66
TIME_SHIFT_64ND_3
NOTE_OFF_66
NOTE_ON_67
TIME_SHIFT_64ND_2
NOTE_OFF_67
NOTE_ON_66
TIME_SHIFT_64ND_2
NOTE_OFF_66
NOTE_ON_64
TIME_SHIFT_64ND_2
NOTE_OFF_64
NOTE_ON_66
TIME_SHIFT_64ND_2
NOTE_OFF_66
NOTE_OFF_57
NOTE_OFF_50
NOTE_ON_67
NOTE_ON_55
TIME_SHIFT_64ND_20
NOTE_OFF_55
NOTE_ON_50
TIME_SHIFT_64ND_5
NOTE_OFF_50
TIME_SHIFT_64ND_15
NOTE_OFF_67
NOTE_ON_43
TIME_SHIFT_64ND_10
NOTE_OFF_43
TIME_SHIFT_64ND_10
NOTE_ON_74
NOTE_ON_59
TIME_SHIFT_64ND_19
NOTE_OFF_74
NOTE_OFF_59
NOTE_ON_71
NOTE_ON_56
TIME_SHIFT_64ND_19
NOTE_OFF_71
NOTE_OFF_56
NOTE_ON_52
TIME_SHIFT_64ND_19
NOTE_OFF_52
NOTE_ON_72
NOTE_ON_57
TIME_SHIFT_64ND_5
NOTE_OFF_72
NOTE_ON_71
TIME_SHIFT_64ND_5
NOTE_OFF_71
NOTE_ON_72
TIME_SHIFT_64ND_5
NOTE_OFF_72
NOTE_ON_74
TIME_SHIFT_64ND_5
NOTE_OFF_74
NOTE_OFF_57
NOTE_ON_76
NOTE_ON_60
TIME_SHIFT_64ND_19
NOTE_OFF_76
NOTE_OFF_60
NOTE_ON_57
TIME_SHIFT_64ND_19
NOTE_OFF_57
NOTE_ON_72
NOTE_ON_54
TIME_SHIFT_64ND_9
NOTE_OFF_72
NOTE_ON_69
TIME_SHIFT_64ND_10
NOTE_OFF_69
NOTE_OFF_54
NOTE_ON_71
NOTE_ON_55
TIME_SHIFT_64ND_9
NOTE_OFF_71
NOTE_ON_67
TIME_SHIFT_64ND_10
NOTE_OFF_67
NOTE_OFF_55
NOTE_ON_79
TIME_SHIFT_64ND_6
NOTE_OFF_79
NOTE_ON_78
TIME_SHIFT_64ND_6
NOTE_OFF_78
NOTE_ON_76
TIME_SHIFT_64ND_7
NOTE_OFF_76
NOTE_ON_74
NOTE_ON_59
TIME_SHIFT_64ND_19
NOTE_OFF_74
NOTE_OFF_59
NOTE_ON_72
NOTE_ON_57
NOTE_ON_50
TIME_SHIFT_64ND_3
NOTE_OFF_72
NOTE_ON_74
TIME_SHIFT_64ND_3
NOTE_OFF_74
NOTE_ON_72
TIME_SHIFT_64ND_3
NOTE_OFF_72
NOTE_ON_71
TIME_SHIFT_64ND_5
NOTE_OFF_71
NOTE_ON_72
TIME_SHIFT_64ND_5
NOTE_OFF_72
NOTE_OFF_57
NOTE_OFF_50
NOTE_ON_71
NOTE_ON_55
TIME_SHIFT_64ND_19
NOTE_OFF_71
NOTE_OFF_55
NOTE_ON_76
NOTE_ON_60
TIME_SHIFT_64ND_5
NOTE_OFF_76
NOTE_ON_74
TIME_SHIFT_64ND_5
NOTE_OFF_74
NOTE_ON_76
TIME_SHIFT_64ND_5
NOTE_OFF_76
NOTE_ON_78
TIME_SHIFT_64ND_5
NOTE_OFF_78
NOTE_OFF_60
NOTE_ON_79
NOTE_ON_59
TIME_SHIFT_64ND_9
NOTE_OFF_79
NOTE_ON_79
TIME_SHIFT_64ND_5
NOTE_OFF_79
TIME_SHIFT_64ND_5
NOTE_OFF_59
NOTE_ON_79
NOTE_ON_55
TIME_SHIFT_64ND_5
NOTE_OFF_79
TIME_SHIFT_64ND_5
NOTE_ON_79
TIME_SHIFT_64ND_5
NOTE_OFF_79
TIME_SHIFT_64ND_5
NOTE_OFF_55
NOTE_ON_78
NOTE_ON_57
TIME_SHIFT_64ND_5
NOTE_OFF_78
NOTE_ON_76
TIME_SHIFT_64ND_5
NOTE_OFF_76
NOTE_ON_78
TIME_SHIFT_64ND_5
NOTE_OFF_78
NOTE_ON_79
TIME_SHIFT_64ND_5
NOTE_OFF_79
NOTE_OFF_57
NOTE_ON_81
NOTE_ON_54
TIME_SHIFT_64ND_9
NOTE_OFF_81
NOTE_ON_72
TIME_SHIFT_64ND_5
NOTE_OFF_72
TIME_SHIFT_64ND_5
NOTE_OFF_54
NOTE_ON_72
NOTE_ON_55
TIME_SHIFT_64ND_5
NOTE_OFF_72
TIME_SHIFT_64ND_5
NOTE_ON_71
TIME_SHIFT_64ND_5
NOTE_OFF_71
TIME_SHIFT_64ND_5
NOTE_OFF_55
NOTE_ON_69
NOTE_ON_48
NOTE_ON_60
TIME_SHIFT_64ND_6
NOTE_OFF_69
NOTE_ON_72
TIME_SHIFT_64ND_6
NOTE_OFF_72
NOTE_ON_76
TIME_SHIFT_64ND_7
NOTE_OFF_76
NOTE_OFF_48
NOTE_OFF_60
NOTE_ON_67
NOTE_ON_59
NOTE_ON_50
TIME_SHIFT_64ND_19
NOTE_OFF_67
NOTE_OFF_59
NOTE_ON_66
NOTE_ON_57
TIME_SHIFT_64ND_3
NOTE_OFF_66
NOTE_ON_67
TIME_SHIFT_64ND_3
NOTE_OFF_67
NOTE_ON_66
TIME_SHIFT_64ND_3
NOTE_OFF_66
NOTE_ON_67
TIME_SHIFT_64ND_2
NOTE_OFF_67
NOTE_ON_66
TIME_SHIFT_64ND_2
NOTE_OFF_66
NOTE_ON_64
TIME_SHIFT_64ND_2
NOTE_OFF_64
NOTE_ON_66
TIME_SHIFT_64ND_2
NOTE_OFF_66
NOTE_OFF_57
NOTE_OFF_50
NOTE_ON_67
NOTE_ON_55
TIME_SHIFT_64ND_21
NOTE_OFF_55
NOTE_ON_50
TIME_SHIFT_64ND_6
NOTE_OFF_50
TIME_SHIFT_64ND_19
NOTE_OFF_67
NOTE_ON_43
TIME_SHIFT_64ND_25
NOTE_OFF_43
<END>
