TIME_SHIFT_64ND_24
VEL_2
NOTE_ON_72
TIME_SHIFT_64ND_8
NOTE_OFF_72
VEL_2
NOTE_ON_77
VEL_2
NOTE_ON_69
VEL_1
NOTE_ON_65
TIME_SHIFT_64ND_4
NOTE_OFF_77
VEL_2
NOTE_ON_72
TIME_SHIFT_64ND_4
NOTE_OFF_72
VEL_2
NOTE_ON_77
TIME_SHIFT_64ND_4
NOTE_OFF_77
VEL_2
NOTE_ON_72
TIME_SHIFT_64ND_4
NOTE_OFF_72
NOTE_OFF_69
NOTE_OFF_65
VEL_3
NOTE_ON_81
TIME_SHIFT_64ND_4
NOTE_OFF_81
VEL_2
NOTE_ON_77
TIME_SHIFT_64ND_4
NOTE_OFF_77
VEL_2
NOTE_ON_81
TIME_SHIFT_64ND_4
NOTE_OFF_81
VEL_2
NOTE_ON_77
TIME_SHIFT_64ND_4
NOTE_OFF_77
VEL_3
NOTE_ON_84
VEL_2
NOTE_ON_65
VEL_2
NOTE_ON_69
TIME_SHIFT_64ND_4
NOTE_OFF_65
NOTE_OFF_69
TIME_SHIFT_64ND_4
VEL_1
NOTE_ON_69
VEL_1
NOTE_ON_65
TIME_SHIFT_64ND_4
NOTE_OFF_69
NOTE_OFF_65
TIME_SHIFT_64ND_4
NOTE_OFF_84
VEL_2
NOTE_ON_82
VEL_1
NOTE_ON_69
VEL_1
NOTE_ON_65
TIME_SHIFT_64ND_4
NOTE_OFF_82
NOTE_OFF_69
NOTE_OFF_65
VEL_2
NOTE_ON_81
TIME_SHIFT_64ND_4
NOTE_OFF_81
VEL_2
NOTE_ON_79
VEL_1
NOTE_ON_69
VEL_1
NOTE_ON_65
TIME_SHIFT_64ND_4
NOTE_OFF_79
NOTE_OFF_69
NOTE_OFF_65
VEL_2
NOTE_ON_77
TIME_SHIFT_64ND_4
NOTE_OFF_77
VEL_2
NOTE_ON_76
VEL_1
NOTE_ON_60
VEL_2
NOTE_ON_67
TIME_SHIFT_64ND_4
NOTE_OFF_76
NOTE_OFF_60
NOTE_OFF_67
VEL_2
NOTE_ON_77
TIME_SHIFT_64ND_4
NOTE_OFF_77
VEL_2
NOTE_ON_79
VEL_1
NOTE_ON_67
VEL_1
NOTE_ON_60
TIME_SHIFT_64ND_4
NOTE_OFF_79
NOTE_OFF_67
NOTE_OFF_60
VEL_2
NOTE_ON_76
TIME_SHIFT_64ND_4
NOTE_OFF_76
VEL_2
NOTE_ON_72
VEL_1
NOTE_ON_67
VEL_1
NOTE_ON_60
TIME_SHIFT_64ND_4
NOTE_OFF_72
NOTE_OFF_67
NOTE_OFF_60
TIME_SHIFT_64ND_4
VEL_2
NOTE_ON_82
VEL_2
NOTE_ON_79
VEL_1
NOTE_ON_67
VEL_1
NOTE_ON_60
TIME_SHIFT_64ND_2
NOTE_OFF_82
NOTE_OFF_79
NOTE_OFF_67
NOTE_OFF_60
TIME_SHIFT_64ND_7
VEL_2
NOTE_ON_82
VEL_2
NOTE_ON_79
VEL_2
NOTE_ON_65
TIME_SHIFT_64ND_9
NOTE_OFF_65
VEL_1
NOTE_ON_60
TIME_SHIFT_64ND_2
NOTE_OFF_60
TIME_SHIFT_64ND_6
NOTE_OFF_82
NOTE_OFF_79
VEL_2
NOTE_ON_77
VEL_2
NOTE_ON_81
VEL_2
NOTE_ON_53
TIME_SHIFT_64ND_8
NOTE_OFF_77
NOTE_OFF_81
VEL_2
NOTE_ON_72
TIME_SHIFT_64ND_8
NOTE_OFF_72
NOTE_OFF_53
VEL_2
NOTE_ON_77
VEL_2
NOTE_ON_69
VEL_1
NOTE_ON_65
TIME_SHIFT_64ND_4
NOTE_OFF_77
VEL_2
NOTE_ON_72
TIME_SHIFT_64ND_4
NOTE_OFF_72
VEL_2
NOTE_ON_77
TIME_SHIFT_64ND_4
NOTE_OFF_77
VEL_2
NOTE_ON_72
TIME_SHIFT_64ND_4
NOTE_OFF_72
NOTE_OFF_69
NOTE_OFF_65
VEL_3
NOTE_ON_81
TIME_SHIFT_64ND_4
NOTE_OFF_81
VEL_2
NOTE_ON_77
TIME_SHIFT_64ND_4
NOTE_OFF_77
VEL_2
NOTE_ON_81
TIME_SHIFT_64ND_4
NOTE_OFF_81
VEL_2
NOTE_ON_77
TIME_SHIFT_64ND_4
NOTE_OFF_77
VEL_3
NOTE_ON_84
VEL_2
NOTE_ON_65
VEL_2
NOTE_ON_69
TIME_SHIFT_64ND_4
NOTE_OFF_65
NOTE_OFF_69
TIME_SHIFT_64ND_4
VEL_1
NOTE_ON_69
VEL_1
NOTE_ON_65
TIME_SHIFT_64ND_4
NOTE_OFF_69
NOTE_OFF_65
TIME_SHIFT_64ND_4
NOTE_OFF_84
VEL_2
NOTE_ON_82
VEL_1
NOTE_ON_69
VEL_1
NOTE_ON_65
TIME_SHIFT_64ND_4
NOTE_OFF_82
NOTE_OFF_69
NOTE_OFF_65
VEL_2
NOTE_ON_81
TIME_SHIFT_64ND_4
NOTE_OFF_81
VEL_2
NOTE_ON_79
VEL_1
NOTE_ON_69
VEL_1
NOTE_ON_65
TIME_SHIFT_64ND_4
NOTE_OFF_79
NOTE_OFF_69
NOTE_OFF_65
VEL_2
NOTE_ON_77
TIME_SHIFT_64ND_4
NOTE_OFF_77
VEL_2
NOTE_ON_79
VEL_1
NOTE_ON_58
VEL_2
NOTE_ON_67
TIME_SHIFT_64ND_4
NOTE_OFF_79
VEL_2
NOTE_ON_81
TIME_SHIFT_64ND_4
NOTE_OFF_81
VEL_2
NOTE_ON_82
TIME_SHIFT_64ND_4
NOTE_OFF_82
VEL_2
NOTE_ON_79
TIME_SHIFT_64ND_4
NOTE_OFF_79
NOTE_OFF_58
NOTE_OFF_67
VEL_2
NOTE_ON_77
VEL_1
NOTE_ON_67
VEL_1
NOTE_ON_60
TIME_SHIFT_64ND_4
NOTE_OFF_77
VEL_2
NOTE_ON_76
TIME_SHIFT_64ND_4
NOTE_OFF_76
VEL_2
NOTE_ON_74
TIME_SHIFT_64ND_4
NOTE_OFF_74
VEL_2
NOTE_ON_72
TIME_SHIFT_64ND_5
NOTE_OFF_72
NOTE_OFF_67
NOTE_OFF_60
VEL_2
NOTE_ON_77
VEL_2
NOTE_ON_65
TIME_SHIFT_64ND_16
NOTE_OFF_77
NOTE_OFF_65
TIME_SHIFT_64ND_8
VEL_2
NOTE_ON_72
TIME_SHIFT_64ND_8
NOTE_OFF_72
VEL_2
NOTE_ON_77
VEL_2
NOTE_ON_69
VEL_1
NOTE_ON_65
TIME_SHIFT_64ND_4
NOTE_OFF_77
VEL_2
NOTE_ON_72
TIME_SHIFT_64ND_4
NOTE_OFF_72
VEL_2
NOTE_ON_77
TIME_SHIFT_64ND_4
NOTE_OFF_77
VEL_2
NOTE_ON_72
TIME_SHIFT_64ND_4
NOTE_OFF_72
NOTE_OFF_69
NOTE_OFF_65
VEL_3
NOTE_ON_81
TIME_SHIFT_64ND_4
NOTE_OFF_81
VEL_2
NOTE_ON_77
TIME_SHIFT_64ND_4
NOTE_OFF_77
VEL_2
NOTE_ON_81
TIME_SHIFT_64ND_4
NOTE_OFF_81
VEL_2
NOTE_ON_77
TIME_SHIFT_64ND_4
NOTE_OFF_77
VEL_3
NOTE_ON_84
VEL_2
NOTE_ON_65
VEL_2
NOTE_ON_69
TIME_SHIFT_64ND_4
NOTE_OFF_65
NOTE_OFF_69
TIME_SHIFT_64ND_4
VEL_1
NOTE_ON_69
VEL_1
NOTE_ON_65
TIME_SHIFT_64ND_4
NOTE_OFF_69
NOTE_OFF_65
TIME_SHIFT_64ND_4
NOTE_OFF_84
VEL_2
NOTE_ON_82
VEL_1
NOTE_ON_69
VEL_1
NOTE_ON_65
TIME_SHIFT_64ND_4
NOTE_OFF_82
NOTE_OFF_69
NOTE_OFF_65
VEL_2
NOTE_ON_81
TIME_SHIFT_64ND_4
NOTE_OFF_81
VEL_2
NOTE_ON_79
VEL_1
NOTE_ON_69
VEL_1
NOTE_ON_65
TIME_SHIFT_64ND_4
NOTE_OFF_79
NOTE_OFF_69
NOTE_OFF_65
VEL_2
NOTE_ON_77
TIME_SHIFT_64ND_4
NOTE_OFF_77
VEL_2
NOTE_ON_76
VEL_1
NOTE_ON_60
VEL_2
NOTE_ON_67
TIME_SHIFT_64ND_4
NOTE_OFF_76
NOTE_OFF_60
NOTE_OFF_67
VEL_2
NOTE_ON_77
TIME_SHIFT_64ND_4
NOTE_OFF_77
VEL_2
NOTE_ON_79
VEL_1
NOTE_ON_67
VEL_1
NOTE_ON_60
TIME_SHIFT_64ND_4
NOTE_OFF_79
NOTE_OFF_67
NOTE_OFF_60
VEL_2
NOTE_ON_76
TIME_SHIFT_64ND_4
NOTE_OFF_76
VEL_2
NOTE_ON_72
VEL_1
NOTE_ON_67
VEL_1
NOTE_ON_60
TIME_SHIFT_64ND_4
NOTE_OFF_72
NOTE_OFF_67
NOTE_OFF_60
TIME_SHIFT_64ND_4
VEL_2
NOTE_ON_82
VEL_2
NOTE_ON_79
VEL_1
NOTE_ON_67
VEL_1
NOTE_ON_60
TIME_SHIFT_64ND_2
NOTE_OFF_82
NOTE_OFF_79
NOTE_OFF_67
NOTE_OFF_60
TIME_SHIFT_64ND_7
VEL_2
NOTE_ON_82
VEL_2
NOTE_ON_79
VEL_2
NOTE_ON_65
TIME_SHIFT_64ND_8
NOTE_OFF_65
VEL_1
NOTE_ON_60
TIME_SHIFT_64ND_2
NOTE_OFF_60
TIME_SHIFT_64ND_6
NOTE_OFF_82
NOTE_OFF_79
VEL_2
NOTE_ON_77
VEL_2
NOTE_ON_81
VEL_2
NOTE_ON_53
TIME_SHIFT_64ND_8
NOTE_OFF_77
NOTE_OFF_81
VEL_2
NOTE_ON_72
TIME_SHIFT_64ND_8
NOTE_OFF_72
NOTE_OFF_53
VEL_2
NOTE_ON_77
VEL_2
NOTE_ON_69
VEL_1
NOTE_ON_65
TIME_SHIFT_64ND_4
NOTE_OFF_77
VEL_2
NOTE_ON_72
TIME_SHIFT_64ND_4
NOTE_OFF_72
VEL_2
NOTE_ON_77
TIME_SHIFT_64ND_4
NOTE_OFF_77
VEL_2
NOTE_ON_72
TIME_SHIFT_64ND_4
NOTE_OFF_72
NOTE_OFF_69
NOTE_OFF_65
VEL_3
NOTE_ON_81
TIME_SHIFT_64ND_4
NOTE_OFF_81
VEL_2
NOTE_ON_77
TIME_SHIFT_64ND_4
NOTE_OFF_77
VEL_2
NOTE_ON_81
TIME_SHIFT_64ND_4
NOTE_OFF_81
VEL_2
NOTE_ON_77
TIME_SHIFT_64ND_4
NOTE_OFF_77
VEL_3
NOTE_ON_84
VEL_1
NOTE_ON_65
VEL_2
NOTE_ON_69
TIME_SHIFT_64ND_4
NOTE_OFF_65
NOTE_OFF_69
TIME_SHIFT_64ND_4
VEL_1
NOTE_ON_69
VEL_1
NOTE_ON_65
TIME_SHIFT_64ND_4
NOTE_OFF_69
NOTE_OFF_65
TIME_SHIFT_64ND_4
NOTE_OFF_84
VEL_2
NOTE_ON_82
VEL_1
NOTE_ON_69
VEL_1
NOTE_ON_65
TIME_SHIFT_64ND_4
NOTE_OFF_82
NOTE_OFF_69
NOTE_OFF_65
VEL_2
NOTE_ON_81
TIME_SHIFT_64ND_4
NOTE_OFF_81
VEL_2
NOTE_ON_79
VEL_1
NOTE_ON_69
VEL_1
NOTE_ON_65
TIME_SHIFT_64ND_4
NOTE_OFF_79
NOTE_OFF_69
NOTE_OFF_65
VEL_2
NOTE_ON_77
TIME_SHIFT_64ND_4
NOTE_OFF_77
VEL_2
NOTE_ON_79
VEL_1
NOTE_ON_58
VEL_2
NOTE_ON_67
TIME_SHIFT_64ND_4
NOTE_OFF_79
VEL_2
NOTE_ON_81
TIME_SHIFT_64ND_4
NOTE_OFF_81
VEL_2
NOTE_ON_82
TIME_SHIFT_64ND_4
NOTE_OFF_82
VEL_2
NOTE_ON_79
TIME_SHIFT_64ND_4
NOTE_OFF_79
NOTE_OFF_58
NOTE_OFF_67
VEL_2
NOTE_ON_77
VEL_1
NOTE_ON_67
VEL_1
NOTE_ON_60
TIME_SHIFT_64ND_4
NOTE_OFF_77
VEL_2
NOTE_ON_76
TIME_SHIFT_64ND_4
NOTE_OFF_76
VEL_2
NOTE_ON_74
TIME_SHIFT_64ND_4
NOTE_OFF_74
VEL_2
NOTE_ON_72
TIME_SHIFT_64ND_5
NOTE_OFF_72
NOTE_OFF_67
NOTE_OFF_60
VEL_2
NOTE_ON_77
VEL_2
NOTE_ON_65
TIME_SHIFT_64ND_16
NOTE_OFF_77
NOTE_OFF_65
TIME_SHIFT_64ND_8
VEL_2
NOTE_ON_72
TIME_SHIFT_64ND_9
NOTE_OFF_72
VEL_2
NOTE_ON_82
VEL_2
NOTE_ON_52
TIME_SHIFT_64ND_4
NOTE_OFF_82
NOTE_OFF_52
VEL_1
NOTE_ON_60
TIME_SHIFT_64ND_4
NOTE_OFF_60
VEL_2
NOTE_ON_82
VEL_1
NOTE_ON_52
TIME_SHIFT_64ND_4
NOTE_OFF_82
NOTE_OFF_52
VEL_1
NOTE_ON_60
TIME_SHIFT_64ND_4
NOTE_OFF_60
VEL_2
NOTE_ON_82
VEL_1
NOTE_ON_52
TIME_SHIFT_64ND_4
NOTE_OFF_82
NOTE_OFF_52
VEL_1
NOTE_ON_60
TIME_SHIFT_64ND_4
NOTE_OFF_60
VEL_2
NOTE_ON_86
VEL_1
NOTE_ON_52
TIME_SHIFT_64ND_4
NOTE_OFF_86
NOTE_OFF_52
VEL_2
NOTE_ON_82
VEL_1
NOTE_ON_60
TIME_SHIFT_64ND_4
NOTE_OFF_82
NOTE_OFF_60
VEL_3
NOTE_ON_81
VEL_2
NOTE_ON_53
TIME_SHIFT_64ND_4
NOTE_OFF_53
VEL_1
NOTE_ON_60
TIME_SHIFT_64ND_4
NOTE_OFF_60
VEL_1
NOTE_ON_53
TIME_SHIFT_64ND_4
NOTE_OFF_53
VEL_1
NOTE_ON_60
TIME_SHIFT_64ND_4
NOTE_OFF_81
NOTE_OFF_60
VEL_1
NOTE_ON_53
TIME_SHIFT_64ND_4
NOTE_OFF_53
VEL_1
NOTE_ON_60
TIME_SHIFT_64ND_4
NOTE_OFF_60
VEL_3
NOTE_ON_84
VEL_2
NOTE_ON_53
TIME_SHIFT_64ND_4
NOTE_OFF_53
VEL_1
NOTE_ON_60
TIME_SHIFT_64ND_4
NOTE_OFF_84
NOTE_OFF_60
VEL_3
NOTE_ON_76
VEL_2
NOTE_ON_55
TIME_SHIFT_64ND_4
NOTE_OFF_76
NOTE_OFF_55
VEL_1
NOTE_ON_60
TIME_SHIFT_64ND_4
NOTE_OFF_60
VEL_2
NOTE_ON_76
VEL_2
NOTE_ON_55
TIME_SHIFT_64ND_4
NOTE_OFF_76
NOTE_OFF_55
VEL_1
NOTE_ON_60
TIME_SHIFT_64ND_4
NOTE_OFF_60
VEL_3
NOTE_ON_76
VEL_2
NOTE_ON_55
TIME_SHIFT_64ND_4
NOTE_OFF_76
NOTE_OFF_55
VEL_1
NOTE_ON_60
TIME_SHIFT_64ND_4
NOTE_OFF_60
VEL_3
NOTE_ON_79
VEL_2
NOTE_ON_55
TIME_SHIFT_64ND_4
NOTE_OFF_79
NOTE_OFF_55
VEL_2
NOTE_ON_76
VEL_2
NOTE_ON_60
TIME_SHIFT_64ND_4
NOTE_OFF_76
NOTE_OFF_60
VEL_3
NOTE_ON_77
VEL_3
NOTE_ON_57
TIME_SHIFT_64ND_4
NOTE_OFF_57
VEL_2
NOTE_ON_60
TIME_SHIFT_64ND_4
NOTE_OFF_60
VEL_2
NOTE_ON_57
TIME_SHIFT_64ND_4
NOTE_OFF_57
VEL_1
NOTE_ON_60
TIME_SHIFT_64ND_4
NOTE_OFF_77
NOTE_OFF_60
VEL_2
NOTE_ON_57
TIME_SHIFT_64ND_4
NOTE_OFF_57
VEL_1
NOTE_ON_60
TIME_SHIFT_64ND_4
NOTE_OFF_60
VEL_3
NOTE_ON_72
VEL_2
NOTE_ON_57
TIME_SHIFT_64ND_4
NOTE_OFF_57
VEL_2
NOTE_ON_60
TIME_SHIFT_64ND_4
NOTE_OFF_72
NOTE_OFF_60
VEL_3
NOTE_ON_79
VEL_2
NOTE_ON_52
TIME_SHIFT_64ND_4
NOTE_OFF_79
NOTE_OFF_52
VEL_1
NOTE_ON_60
TIME_SHIFT_64ND_4
NOTE_OFF_60
VEL_3
NOTE_ON_79
VEL_2
NOTE_ON_52
TIME_SHIFT_64ND_4
NOTE_OFF_79
NOTE_OFF_52
VEL_1
NOTE_ON_60
TIME_SHIFT_64ND_4
NOTE_OFF_60
VEL_3
NOTE_ON_79
VEL_2
NOTE_ON_52
TIME_SHIFT_64ND_4
NOTE_OFF_79
NOTE_OFF_52
VEL_1
NOTE_ON_60
TIME_SHIFT_64ND_4
NOTE_OFF_60
VEL_3
NOTE_ON_67
VEL_1
NOTE_ON_52
TIME_SHIFT_64ND_4
NOTE_OFF_67
NOTE_OFF_52
VEL_3
NOTE_ON_70
VEL_1
NOTE_ON_60
TIME_SHIFT_64ND_4
NOTE_OFF_70
NOTE_OFF_60
VEL_3
NOTE_ON_69
VEL_2
NOTE_ON_53
TIME_SHIFT_64ND_4
NOTE_OFF_69
VEL_2
NOTE_ON_72
TIME_SHIFT_64ND_4
NOTE_OFF_72
VEL_3
NOTE_ON_70
TIME_SHIFT_64ND_4
NOTE_OFF_70
VEL_2
NOTE_ON_69
TIME_SHIFT_64ND_4
NOTE_OFF_69
NOTE_OFF_53
VEL_3
NOTE_ON_67
TIME_SHIFT_64ND_4
NOTE_OFF_67
VEL_2
NOTE_ON_65
TIME_SHIFT_64ND_4
NOTE_OFF_65
VEL_3
NOTE_ON_64
TIME_SHIFT_64ND_4
NOTE_OFF_64
VEL_2
NOTE_ON_65
TIME_SHIFT_64ND_4
NOTE_OFF_65
VEL_2
NOTE_ON_62
VEL_2
NOTE_ON_46
VEL_2
NOTE_ON_58
TIME_SHIFT_64ND_4
NOTE_OFF_62
VEL_3
NOTE_ON_70
TIME_SHIFT_64ND_4
NOTE_OFF_70
VEL_3
NOTE_ON_74
TIME_SHIFT_64ND_4
NOTE_OFF_74
VEL_2
NOTE_ON_72
TIME_SHIFT_64ND_4
NOTE_OFF_72
NOTE_OFF_46
NOTE_OFF_58
VEL_3
NOTE_ON_70
TIME_SHIFT_64ND_4
NOTE_OFF_70
VEL_2
NOTE_ON_69
TIME_SHIFT_64ND_4
NOTE_OFF_69
VEL_3
NOTE_ON_67
VEL_2
NOTE_ON_59
TIME_SHIFT_64ND_4
NOTE_OFF_67
VEL_3
NOTE_ON_65
TIME_SHIFT_64ND_5
NOTE_OFF_65
NOTE_OFF_59
VEL_3
NOTE_ON_64
VEL_3
NOTE_ON_60
TIME_SHIFT_64ND_9
NOTE_OFF_60
VEL_2
NOTE_ON_55
TIME_SHIFT_64ND_5
NOTE_OFF_55
TIME_SHIFT_64ND_5
NOTE_OFF_64
VEL_2
NOTE_ON_48
TIME_SHIFT_64ND_9
NOTE_OFF_48
VEL_2
NOTE_ON_72
TIME_SHIFT_64ND_8
NOTE_OFF_72
VEL_2
NOTE_ON_77
VEL_2
NOTE_ON_69
VEL_1
NOTE_ON_65
TIME_SHIFT_64ND_4
NOTE_OFF_77
VEL_2
NOTE_ON_72
TIME_SHIFT_64ND_4
NOTE_OFF_72
VEL_2
NOTE_ON_77
TIME_SHIFT_64ND_4
NOTE_OFF_77
VEL_2
NOTE_ON_72
TIME_SHIFT_64ND_4
NOTE_OFF_72
NOTE_OFF_69
NOTE_OFF_65
VEL_3
NOTE_ON_81
TIME_SHIFT_64ND_4
NOTE_OFF_81
VEL_2
NOTE_ON_77
TIME_SHIFT_64ND_4
NOTE_OFF_77
VEL_2
NOTE_ON_81
TIME_SHIFT_64ND_4
NOTE_OFF_81
VEL_2
NOTE_ON_77
TIME_SHIFT_64ND_4
NOTE_OFF_77
VEL_3
NOTE_ON_84
VEL_2
NOTE_ON_65
VEL_2
NOTE_ON_69
TIME_SHIFT_64ND_4
NOTE_OFF_65
NOTE_OFF_69
TIME_SHIFT_64ND_4
VEL_1
NOTE_ON_69
VEL_1
NOTE_ON_65
TIME_SHIFT_64ND_4
NOTE_OFF_69
NOTE_OFF_65
TIME_SHIFT_64ND_4
NOTE_OFF_84
VEL_2
NOTE_ON_82
VEL_1
NOTE_ON_69
VEL_1
NOTE_ON_65
TIME_SHIFT_64ND_4
NOTE_OFF_82
NOTE_OFF_69
NOTE_OFF_65
VEL_2
NOTE_ON_81
TIME_SHIFT_64ND_4
NOTE_OFF_81
VEL_2
NOTE_ON_79
VEL_1
NOTE_ON_69
VEL_1
NOTE_ON_65
TIME_SHIFT_64ND_4
NOTE_OFF_79
NOTE_OFF_69
NOTE_OFF_65
VEL_2
NOTE_ON_77
TIME_SHIFT_64ND_4
NOTE_OFF_77
VEL_2
NOTE_ON_76
VEL_1
NOTE_ON_60
VEL_2
NOTE_ON_67
TIME_SHIFT_64ND_4
NOTE_OFF_76
NOTE_OFF_60
NOTE_OFF_67
VEL_2
NOTE_ON_77
TIME_SHIFT_64ND_4
NOTE_OFF_77
VEL_2
NOTE_ON_79
VEL_1
NOTE_ON_67
VEL_1
NOTE_ON_60
TIME_SHIFT_64ND_4
NOTE_OFF_79
NOTE_OFF_67
NOTE_OFF_60
VEL_2
NOTE_ON_76
TIME_SHIFT_64ND_4
NOTE_OFF_76
VEL_2
NOTE_ON_72
VEL_1
NOTE_ON_67
VEL_1
NOTE_ON_60
TIME_SHIFT_64ND_4
NOTE_OFF_72
NOTE_OFF_67
NOTE_OFF_60
TIME_SHIFT_64ND_4
VEL_2
NOTE_ON_82
VEL_2
NOTE_ON_79
VEL_1
NOTE_ON_67
VEL_1
NOTE_ON_60
TIME_SHIFT_64ND_2
NOTE_OFF_82
NOTE_OFF_79
NOTE_OFF_67
NOTE_OFF_60
TIME_SHIFT_64ND_7
VEL_2
NOTE_ON_82
VEL_2
NOTE_ON_79
VEL_2
NOTE_ON_65
TIME_SHIFT_64ND_8
NOTE_OFF_65
VEL_1
NOTE_ON_60
TIME_SHIFT_64ND_2
NOTE_OFF_60
TIME_SHIFT_64ND_6
NOTE_OFF_82
NOTE_OFF_79
VEL_2
NOTE_ON_77
VEL_2
NOTE_ON_81
VEL_2
NOTE_ON_53
TIME_SHIFT_64ND_8
NOTE_OFF_77
NOTE_OFF_81
VEL_2
NOTE_ON_72
TIME_SHIFT_64ND_8
NOTE_OFF_72
NOTE_OFF_53
VEL_2
NOTE_ON_77
VEL_2
NOTE_ON_69
VEL_1
NOTE_ON_65
TIME_SHIFT_64ND_4
NOTE_OFF_77
VEL_2
NOTE_ON_72
TIME_SHIFT_64ND_4
NOTE_OFF_72
VEL_2
NOTE_ON_77
TIME_SHIFT_64ND_4
NOTE_OFF_77
VEL_2
NOTE_ON_72
TIME_SHIFT_64ND_4
NOTE_OFF_72
NOTE_OFF_69
NOTE_OFF_65
VEL_3
NOTE_ON_81
TIME_SHIFT_64ND_4
NOTE_OFF_81
VEL_2
NOTE_ON_77
TIME_SHIFT_64ND_4
NOTE_OFF_77
VEL_2
NOTE_ON_81
TIME_SHIFT_64ND_4
NOTE_OFF_81
VEL_2
NOTE_ON_77
TIME_SHIFT_64ND_5
NOTE_OFF_77
VEL_3
NOTE_ON_84
VEL_2
NOTE_ON_65
VEL_2
NOTE_ON_69
TIME_SHIFT_64ND_4
NOTE_OFF_65
NOTE_OFF_69
TIME_SHIFT_64ND_4
VEL_1
NOTE_ON_69
VEL_1
NOTE_ON_65
TIME_SHIFT_64ND_4
NOTE_OFF_69
NOTE_OFF_65
TIME_SHIFT_64ND_4
NOTE_OFF_84
VEL_2
NOTE_ON_82
VEL_1
NOTE_ON_69
VEL_1
NOTE_ON_65
TIME_SHIFT_64ND_4
NOTE_OFF_82
NOTE_OFF_69
NOTE_OFF_65
VEL_2
NOTE_ON_81
TIME_SHIFT_64ND_4
NOTE_OFF_81
VEL_2
NOTE_ON_79
VEL_1
NOTE_ON_69
VEL_1
NOTE_ON_65
TIME_SHIFT_64ND_4
NOTE_OFF_79
NOTE_OFF_69
NOTE_OFF_65
VEL_2
NOTE_ON_77
TIME_SHIFT_64ND_4
NOTE_OFF_77
VEL_2
NOTE_ON_79
VEL_1
NOTE_ON_58
VEL_2
NOTE_ON_67
TIME_SHIFT_64ND_4
NOTE_OFF_79
VEL_2
NOTE_ON_81
TIME_SHIFT_64ND_4
NOTE_OFF_81
VEL_2
NOTE_ON_82
TIME_SHIFT_64ND_4
NOTE_OFF_82
VEL_2
NOTE_ON_79
TIME_SHIFT_64ND_4
NOTE_OFF_79
NOTE_OFF_58
NOTE_OFF_67
VEL_2
NOTE_ON_77
VEL_1
NOTE_ON_67
VEL_1
NOTE_ON_60
TIME_SHIFT_64ND_4
NOTE_OFF_77
VEL_2
NOTE_ON_76
TIME_SHIFT_64ND_4
NOTE_OFF_76
VEL_2
NOTE_ON_74
TIME_SHIFT_64ND_4
NOTE_OFF_74
VEL_2
NOTE_ON_72
TIME_SHIFT_64ND_5
NOTE_OFF_72
NOTE_OFF_67
NOTE_OFF_60
VEL_2
NOTE_ON_77
VEL_2
NOTE_ON_65
VEL_1
NOTE_ON_53
TIME_SHIFT_64ND_16
NOTE_OFF_77
NOTE_OFF_65
NOTE_OFF_53
TIME_SHIFT_64ND_8
VEL_2
NOTE_ON_72
TIME_SHIFT_64ND_9
NOTE_OFF_72
VEL_2
NOTE_ON_82
VEL_2
NOTE_ON_52
TIME_SHIFT_64ND_4
NOTE_OFF_82
NOTE_OFF_52
VEL_1
NOTE_ON_60
TIME_SHIFT_64ND_4
NOTE_OFF_60
VEL_2
NOTE_ON_82
VEL_1
NOTE_ON_52
TIME_SHIFT_64ND_4
NOTE_OFF_82
NOTE_OFF_52
VEL_1
NOTE_ON_60
TIME_SHIFT_64ND_4
NOTE_OFF_60
VEL_2
NOTE_ON_82
VEL_1
NOTE_ON_52
TIME_SHIFT_64ND_4
NOTE_OFF_82
NOTE_OFF_52
VEL_1
NOTE_ON_60
TIME_SHIFT_64ND_4
NOTE_OFF_60
VEL_2
NOTE_ON_86
VEL_1
NOTE_ON_52
TIME_SHIFT_64ND_4
NOTE_OFF_86
NOTE_OFF_52
VEL_2
NOTE_ON_82
VEL_1
NOTE_ON_60
TIME_SHIFT_64ND_4
NOTE_OFF_82
NOTE_OFF_60
VEL_3
NOTE_ON_81
VEL_2
NOTE_ON_53
TIME_SHIFT_64ND_4
NOTE_OFF_53
VEL_1
NOTE_ON_60
TIME_SHIFT_64ND_4
NOTE_OFF_60
VEL_1
NOTE_ON_53
TIME_SHIFT_64ND_4
NOTE_OFF_53
VEL_1
NOTE_ON_60
TIME_SHIFT_64ND_4
NOTE_OFF_81
NOTE_OFF_60
VEL_1
NOTE_ON_53
TIME_SHIFT_64ND_4
NOTE_OFF_53
VEL_1
NOTE_ON_60
TIME_SHIFT_64ND_4
NOTE_OFF_60
VEL_3
NOTE_ON_84
VEL_2
NOTE_ON_53
TIME_SHIFT_64ND_4
NOTE_OFF_53
VEL_1
NOTE_ON_60
TIME_SHIFT_64ND_4
NOTE_OFF_84
NOTE_OFF_60
VEL_3
NOTE_ON_76
VEL_3
NOTE_ON_55
TIME_SHIFT_64ND_4
NOTE_OFF_76
NOTE_OFF_55
VEL_1
NOTE_ON_60
TIME_SHIFT_64ND_4
NOTE_OFF_60
VEL_2
NOTE_ON_76
VEL_2
NOTE_ON_55
TIME_SHIFT_64ND_4
NOTE_OFF_76
NOTE_OFF_55
VEL_1
NOTE_ON_60
TIME_SHIFT_64ND_4
NOTE_OFF_60
VEL_3
NOTE_ON_76
VEL_2
NOTE_ON_55
TIME_SHIFT_64ND_4
NOTE_OFF_76
NOTE_OFF_55
VEL_1
NOTE_ON_60
TIME_SHIFT_64ND_4
NOTE_OFF_60
VEL_3
NOTE_ON_79
VEL_2
NOTE_ON_55
TIME_SHIFT_64ND_4
NOTE_OFF_79
NOTE_OFF_55
VEL_3
NOTE_ON_76
VEL_2
NOTE_ON_60
TIME_SHIFT_64ND_4
NOTE_OFF_76
NOTE_OFF_60
VEL_3
NOTE_ON_77
VEL_2
NOTE_ON_57
TIME_SHIFT_64ND_4
NOTE_OFF_57
VEL_2
NOTE_ON_60
TIME_SHIFT_64ND_4
NOTE_OFF_60
VEL_2
NOTE_ON_57
TIME_SHIFT_64ND_4
NOTE_OFF_57
VEL_1
NOTE_ON_60
TIME_SHIFT_64ND_4
NOTE_OFF_77
NOTE_OFF_60
VEL_2
NOTE_ON_57
TIME_SHIFT_64ND_4
NOTE_OFF_57
VEL_1
NOTE_ON_60
TIME_SHIFT_64ND_4
NOTE_OFF_60
VEL_3
NOTE_ON_72
VEL_2
NOTE_ON_57
TIME_SHIFT_64ND_4
NOTE_OFF_57
VEL_2
NOTE_ON_60
TIME_SHIFT_64ND_4
NOTE_OFF_72
NOTE_OFF_60
VEL_3
NOTE_ON_79
VEL_2
NOTE_ON_52
TIME_SHIFT_64ND_4
NOTE_OFF_79
NOTE_OFF_52
VEL_1
NOTE_ON_60
TIME_SHIFT_64ND_4
NOTE_OFF_60
VEL_3
NOTE_ON_79
VEL_2
NOTE_ON_52
TIME_SHIFT_64ND_4
NOTE_OFF_79
NOTE_OFF_52
VEL_1
NOTE_ON_60
TIME_SHIFT_64ND_4
NOTE_OFF_60
VEL_3
NOTE_ON_79
VEL_2
NOTE_ON_52
TIME_SHIFT_64ND_4
NOTE_OFF_79
NOTE_OFF_52
VEL_1
NOTE_ON_60
TIME_SHIFT_64ND_4
NOTE_OFF_60
VEL_3
NOTE_ON_67
VEL_1
NOTE_ON_52
TIME_SHIFT_64ND_4
NOTE_OFF_67
NOTE_OFF_52
VEL_3
NOTE_ON_70
VEL_1
NOTE_ON_60
TIME_SHIFT_64ND_4
NOTE_OFF_70
NOTE_OFF_60
VEL_3
NOTE_ON_69
VEL_2
NOTE_ON_53
TIME_SHIFT_64ND_4
NOTE_OFF_69
VEL_2
NOTE_ON_72
TIME_SHIFT_64ND_4
NOTE_OFF_72
VEL_3
NOTE_ON_70
TIME_SHIFT_64ND_4
NOTE_OFF_70
VEL_2
NOTE_ON_69
TIME_SHIFT_64ND_4
NOTE_OFF_69
NOTE_OFF_53
VEL_3
NOTE_ON_67
TIME_SHIFT_64ND_4
NOTE_OFF_67
VEL_2
NOTE_ON_65
TIME_SHIFT_64ND_4
NOTE_OFF_65
VEL_3
NOTE_ON_64
TIME_SHIFT_64ND_4
NOTE_OFF_64
VEL_2
NOTE_ON_65
TIME_SHIFT_64ND_4
NOTE_OFF_65
VEL_2
NOTE_ON_62
VEL_2
NOTE_ON_46
VEL_2
NOTE_ON_58
TIME_SHIFT_64ND_4
NOTE_OFF_62
VEL_3
NOTE_ON_70
TIME_SHIFT_64ND_4
NOTE_OFF_70
VEL_3
NOTE_ON_74
TIME_SHIFT_64ND_4
NOTE_OFF_74
VEL_2
NOTE_ON_72
TIME_SHIFT_64ND_4
NOTE_OFF_72
NOTE_OFF_46
NOTE_OFF_58
VEL_3
NOTE_ON_70
TIME_SHIFT_64ND_4
NOTE_OFF_70
VEL_2
NOTE_ON_69
TIME_SHIFT_64ND_4
NOTE_OFF_69
VEL_3
NOTE_ON_67
VEL_2
NOTE_ON_59
TIME_SHIFT_64ND_4
NOTE_OFF_67
VEL_3
NOTE_ON_65
TIME_SHIFT_64ND_5
NOTE_OFF_65
NOTE_OFF_59
VEL_3
NOTE_ON_64
VEL_3
NOTE_ON_60
TIME_SHIFT_64ND_9
NOTE_OFF_60
VEL_2
NOTE_ON_55
TIME_SHIFT_64ND_5
NOTE_OFF_55
TIME_SHIFT_64ND_5
NOTE_OFF_64
VEL_2
NOTE_ON_48
TIME_SHIFT_64ND_9
NOTE_OFF_48
VEL_3
NOTE_ON_72
TIME_SHIFT_64ND_8
NOTE_OFF_72
VEL_3
NOTE_ON_77
VEL_2
NOTE_ON_69
VEL_2
NOTE_ON_65
TIME_SHIFT_64ND_4
NOTE_OFF_77
VEL_3
NOTE_ON_72
TIME_SHIFT_64ND_4
NOTE_OFF_72
VEL_3
NOTE_ON_77
TIME_SHIFT_64ND_4
NOTE_OFF_77
VEL_3
NOTE_ON_72
TIME_SHIFT_64ND_4
NOTE_OFF_72
NOTE_OFF_69
NOTE_OFF_65
VEL_3
NOTE_ON_81
TIME_SHIFT_64ND_4
NOTE_OFF_81
VEL_3
NOTE_ON_77
TIME_SHIFT_64ND_4
NOTE_OFF_77
VEL_3
NOTE_ON_81
TIME_SHIFT_64ND_4
NOTE_OFF_81
VEL_3
NOTE_ON_77
TIME_SHIFT_64ND_4
NOTE_OFF_77
VEL_3
NOTE_ON_84
VEL_2
NOTE_ON_65
VEL_2
NOTE_ON_69
TIME_SHIFT_64ND_4
NOTE_OFF_65
NOTE_OFF_69
TIME_SHIFT_64ND_4
VEL_2
NOTE_ON_69
VEL_1
NOTE_ON_65
TIME_SHIFT_64ND_4
NOTE_OFF_69
NOTE_OFF_65
TIME_SHIFT_64ND_4
NOTE_OFF_84
VEL_3
NOTE_ON_82
VEL_2
NOTE_ON_69
VEL_1
NOTE_ON_65
TIME_SHIFT_64ND_4
NOTE_OFF_82
NOTE_OFF_69
NOTE_OFF_65
VEL_3
NOTE_ON_81
TIME_SHIFT_64ND_4
NOTE_OFF_81
VEL_3
NOTE_ON_79
VEL_2
NOTE_ON_69
VEL_1
NOTE_ON_65
TIME_SHIFT_64ND_4
NOTE_OFF_79
NOTE_OFF_69
NOTE_OFF_65
VEL_3
NOTE_ON_77
TIME_SHIFT_64ND_4
NOTE_OFF_77
VEL_3
NOTE_ON_76
VEL_2
NOTE_ON_60
VEL_2
NOTE_ON_67
TIME_SHIFT_64ND_4
NOTE_OFF_76
NOTE_OFF_60
NOTE_OFF_67
VEL_3
NOTE_ON_77
TIME_SHIFT_64ND_4
NOTE_OFF_77
VEL_3
NOTE_ON_79
VEL_2
NOTE_ON_67
VEL_1
NOTE_ON_60
TIME_SHIFT_64ND_4
NOTE_OFF_79
NOTE_OFF_67
NOTE_OFF_60
VEL_3
NOTE_ON_76
TIME_SHIFT_64ND_4
NOTE_OFF_76
VEL_3
NOTE_ON_72
VEL_2
NOTE_ON_67
VEL_1
NOTE_ON_60
TIME_SHIFT_64ND_4
NOTE_OFF_72
NOTE_OFF_67
NOTE_OFF_60
TIME_SHIFT_64ND_4
VEL_3
NOTE_ON_82
VEL_2
NOTE_ON_79
VEL_2
NOTE_ON_67
VEL_1
NOTE_ON_60
TIME_SHIFT_64ND_2
NOTE_OFF_82
NOTE_OFF_79
NOTE_OFF_67
NOTE_OFF_60
TIME_SHIFT_64ND_7
VEL_3
NOTE_ON_82
VEL_2
NOTE_ON_79
VEL_2
NOTE_ON_65
TIME_SHIFT_64ND_8
NOTE_OFF_65
VEL_1
NOTE_ON_60
TIME_SHIFT_64ND_2
NOTE_OFF_60
TIME_SHIFT_64ND_6
NOTE_OFF_82
NOTE_OFF_79
VEL_2
NOTE_ON_77
VEL_3
NOTE_ON_81
VEL_2
NOTE_ON_53
TIME_SHIFT_64ND_8
NOTE_OFF_77
NOTE_OFF_81
VEL_3
NOTE_ON_72
TIME_SHIFT_64ND_8
NOTE_OFF_72
NOTE_OFF_53
VEL_3
NOTE_ON_77
VEL_2
NOTE_ON_69
VEL_2
NOTE_ON_65
TIME_SHIFT_64ND_4
NOTE_OFF_77
VEL_3
NOTE_ON_72
TIME_SHIFT_64ND_4
NOTE_OFF_72
VEL_3
NOTE_ON_77
TIME_SHIFT_64ND_4
NOTE_OFF_77
VEL_3
NOTE_ON_72
TIME_SHIFT_64ND_4
NOTE_OFF_72
NOTE_OFF_69
NOTE_OFF_65
VEL_3
NOTE_ON_81
TIME_SHIFT_64ND_4
NOTE_OFF_81
VEL_3
NOTE_ON_77
TIME_SHIFT_64ND_4
NOTE_OFF_77
VEL_3
NOTE_ON_81
TIME_SHIFT_64ND_4
NOTE_OFF_81
VEL_3
NOTE_ON_77
TIME_SHIFT_64ND_4
NOTE_OFF_77
VEL_4
NOTE_ON_84
VEL_2
NOTE_ON_65
VEL_2
NOTE_ON_69
TIME_SHIFT_64ND_4
NOTE_OFF_65
NOTE_OFF_69
TIME_SHIFT_64ND_4
VEL_2
NOTE_ON_69
VEL_1
NOTE_ON_65
TIME_SHIFT_64ND_4
NOTE_OFF_69
NOTE_OFF_65
TIME_SHIFT_64ND_4
NOTE_OFF_84
VEL_3
NOTE_ON_82
VEL_2
NOTE_ON_69
VEL_1
NOTE_ON_65
TIME_SHIFT_64ND_4
NOTE_OFF_82
NOTE_OFF_69
NOTE_OFF_65
VEL_3
NOTE_ON_81
TIME_SHIFT_64ND_4
NOTE_OFF_81
VEL_3
NOTE_ON_79
VEL_2
NOTE_ON_69
VEL_1
NOTE_ON_65
TIME_SHIFT_64ND_4
NOTE_OFF_79
NOTE_OFF_69
NOTE_OFF_65
VEL_3
NOTE_ON_77
TIME_SHIFT_64ND_4
NOTE_OFF_77
VEL_3
NOTE_ON_79
VEL_2
NOTE_ON_58
VEL_2
NOTE_ON_67
TIME_SHIFT_64ND_4
NOTE_OFF_79
VEL_3
NOTE_ON_81
TIME_SHIFT_64ND_4
NOTE_OFF_81
VEL_3
NOTE_ON_82
TIME_SHIFT_64ND_4
NOTE_OFF_82
VEL_3
NOTE_ON_79
TIME_SHIFT_64ND_4
NOTE_OFF_79
NOTE_OFF_58
NOTE_OFF_67
VEL_3
NOTE_ON_77
VEL_2
NOTE_ON_67
VEL_1
NOTE_ON_60
TIME_SHIFT_64ND_5
NOTE_OFF_77
VEL_3
NOTE_ON_76
TIME_SHIFT_64ND_5
NOTE_OFF_76
VEL_3
NOTE_ON_74
TIME_SHIFT_64ND_5
NOTE_OFF_74
VEL_3
NOTE_ON_72
TIME_SHIFT_64ND_5
NOTE_OFF_72
NOTE_OFF_67
NOTE_OFF_60
VEL_3
NOTE_ON_77
VEL_2
NOTE_ON_65
VEL_1
NOTE_ON_53
TIME_SHIFT_64ND_17
NOTE_OFF_77
NOTE_OFF_65
NOTE_OFF_53
