TIME_SHIFT_64ND_39
NOTE_ON_83
NOTE_ON_80
TIME_SHIFT_64ND_6
NOTE_OFF_83
NOTE_OFF_80
NOTE_ON_78
NOTE_ON_81
TIME_SHIFT_64ND_6
NOTE_OFF_78
NOTE_OFF_81
NOTE_ON_80
NOTE_ON_76
TIME_SHIFT_64ND_12
NOTE_OFF_80
NOTE_OFF_76
TIME_SHIFT_64ND_1
NOTE_ON_76
NOTE_ON_80
TIME_SHIFT_64ND_6
NOTE_OFF_76
NOTE_OFF_80
NOTE_ON_78
NOTE_ON_71
TIME_SHIFT_64ND_6
NOTE_OFF_78
NOTE_OFF_71
NOTE_ON_76
NOTE_ON_68
TIME_SHIFT_64ND_12
NOTE_OFF_76
NOTE_OFF_68
TIME_SHIFT_64ND_1
NOTE_ON_80
NOTE_ON_83
TIME_SHIFT_64ND_6
NOTE_OFF_80
NOTE_OFF_83
NOTE_ON_81
NOTE_ON_78
TIME_SHIFT_64ND_6
NOTE_OFF_81
NOTE_OFF_78
NOTE_ON_80
NOTE_ON_76
TIME_SHIFT_64ND_12
NOTE_OFF_80
NOTE_OFF_76
TIME_SHIFT_64ND_1
NOTE_ON_76
NOTE_ON_80
TIME_SHIFT_64ND_6
NOTE_OFF_76
NOTE_OFF_80
NOTE_ON_78
NOTE_ON_71
TIME_SHIFT_64ND_6
NOTE_OFF_78
NOTE_OFF_71
NOTE_ON_68
NOTE_ON_76
TIME_SHIFT_64ND_12
NOTE_OFF_68
NOTE_OFF_76
TIME_SHIFT_64ND_1
NOTE_ON_68
NOTE_ON_76
TIME_SHIFT_64ND_6
NOTE_OFF_68
NOTE_OFF_76
NOTE_ON_78
NOTE_ON_71
TIME_SHIFT_64ND_6
NOTE_OFF_78
NOTE_OFF_71
NOTE_ON_76
NOTE_ON_80
TIME_SHIFT_64ND_12
NOTE_OFF_76
NOTE_OFF_80
TIME_SHIFT_64ND_1
NOTE_ON_78
NOTE_ON_71
TIME_SHIFT_64ND_6
NOTE_OFF_78
NOTE_OFF_71
NOTE_ON_80
NOTE_ON_76
TIME_SHIFT_64ND_6
NOTE_OFF_80
NOTE_OFF_76
NOTE_ON_81
NOTE_ON_78
TIME_SHIFT_64ND_11
NOTE_OFF_81
NOTE_OFF_78
TIME_SHIFT_64ND_1
NOTE_ON_78
NOTE_ON_71
TIME_SHIFT_64ND_6
NOTE_OFF_78
NOTE_OFF_71
NOTE_ON_81
NOTE_ON_78
TIME_SHIFT_64ND_6
NOTE_OFF_81
NOTE_OFF_78
NOTE_ON_80
NOTE_ON_83
TIME_SHIFT_64ND_11
NOTE_OFF_80
NOTE_OFF_83
TIME_SHIFT_64ND_1
NOTE_ON_81
NOTE_ON_78
TIME_SHIFT_64ND_6
NOTE_OFF_81
NOTE_OFF_78
NOTE_ON_76
NOTE_ON_80
TIME_SHIFT_64ND_6
NOTE_OFF_76
NOTE_OFF_80
NOTE_ON_78
NOTE_ON_71
TIME_SHIFT_64ND_11
NOTE_OFF_78
NOTE_OFF_71
TIME_SHIFT_64ND_1
NOTE_ON_80
NOTE_ON_83
TIME_SHIFT_64ND_6
NOTE_OFF_80
NOTE_OFF_83
NOTE_ON_81
NOTE_ON_78
TIME_SHIFT_64ND_6
NOTE_OFF_81
NOTE_OFF_78
NOTE_ON_76
NOTE_ON_80
TIME_SHIFT_64ND_11
NOTE_OFF_76
NOTE_OFF_80
TIME_SHIFT_64ND_1
NOTE_ON_80
NOTE_ON_76
TIME_SHIFT_64ND_6
NOTE_OFF_80
NOTE_OFF_76
NOTE_ON_71
NOTE_ON_78
TIME_SHIFT_64ND_6
NOTE_OFF_71
NOTE_OFF_78
NOTE_ON_68
NOTE_ON_76
TIME_SHIFT_64ND_11
NOTE_OFF_68
NOTE_OFF_76
TIME_SHIFT_64ND_1
NOTE_ON_83
NOTE_ON_80
TIME_SHIFT_64ND_6
NOTE_OFF_83
NOTE_OFF_80
NOTE_ON_78
NOTE_ON_81
TIME_SHIFT_64ND_6
NOTE_OFF_78
NOTE_OFF_81
NOTE_ON_80
NOTE_ON_76
TIME_SHIFT_64ND_11
NOTE_OFF_80
NOTE_OFF_76
TIME_SHIFT_64ND_1
NOTE_ON_80
NOTE_ON_76
TIME_SHIFT_64ND_6
NOTE_OFF_80
NOTE_OFF_76
NOTE_ON_78
NOTE_ON_71
TIME_SHIFT_64ND_6
NOTE_OFF_78
NOTE_OFF_71
NOTE_ON_76
NOTE_ON_68
TIME_SHIFT_64ND_11
NOTE_OFF_76
NOTE_OFF_68
TIME_SHIFT_64ND_1
NOTE_ON_76
NOTE_ON_68
TIME_SHIFT_64ND_6
NOTE_OFF_76
NOTE_OFF_68
NOTE_ON_71
NOTE_ON_78
TIME_SHIFT_64ND_6
NOTE_OFF_71
NOTE_OFF_78
NOTE_ON_80
NOTE_ON_76
TIME_SHIFT_64ND_11
NOTE_OFF_80
NOTE_OFF_76
TIME_SHIFT_64ND_1
NOTE_ON_78
NOTE_ON_81
TIME_SHIFT_64ND_6
NOTE_OFF_78
NOTE_OFF_81
NOTE_ON_76
NOTE_ON_80
TIME_SHIFT_64ND_6
NOTE_OFF_76
NOTE_OFF_80
NOTE_ON_78
NOTE_ON_71
TIME_SHIFT_64ND_11
NOTE_OFF_78
NOTE_OFF_71
TIME_SHIFT_64ND_1
NOTE_ON_76
NOTE_ON_80
TIME_SHIFT_64ND_6
NOTE_OFF_76
NOTE_OFF_80
NOTE_ON_78
NOTE_ON_71
TIME_SHIFT_64ND_7
NOTE_OFF_78
NOTE_OFF_71
NOTE_ON_76
NOTE_ON_68
TIME_SHIFT_64ND_27
NOTE_OFF_76
NOTE_OFF_68
TIME_SHIFT_64ND_12
NOTE_ON_64
NOTE_ON_56
TIME_SHIFT_64ND_3
NOTE_OFF_64
NOTE_OFF_56
TIME_SHIFT_64ND_3
NOTE_ON_68
NOTE_ON_64
TIME_SHIFT_64ND_3
NOTE_OFF_68
NOTE_OFF_64
TIME_SHIFT_64ND_3
NOTE_ON_66
NOTE_ON_59
TIME_SHIFT_64ND_11
NOTE_OFF_66
NOTE_OFF_59
TIME_SHIFT_64ND_1
NOTE_ON_68
NOTE_ON_64
TIME_SHIFT_64ND_3
NOTE_OFF_68
NOTE_OFF_64
TIME_SHIFT_64ND_3
NOTE_ON_66
NOTE_ON_69
TIME_SHIFT_64ND_3
NOTE_OFF_66
NOTE_OFF_69
TIME_SHIFT_64ND_3
NOTE_ON_71
NOTE_ON_68
TIME_SHIFT_64ND_11
NOTE_OFF_71
NOTE_OFF_68
TIME_SHIFT_64ND_1
NOTE_ON_69
NOTE_ON_73
TIME_SHIFT_64ND_3
NOTE_OFF_69
NOTE_OFF_73
TIME_SHIFT_64ND_3
NOTE_ON_68
NOTE_ON_71
TIME_SHIFT_64ND_3
NOTE_OFF_68
NOTE_OFF_71
TIME_SHIFT_64ND_3
NOTE_ON_69
NOTE_ON_66
TIME_SHIFT_64ND_11
NOTE_OFF_69
NOTE_OFF_66
TIME_SHIFT_64ND_1
NOTE_ON_64
NOTE_ON_68
TIME_SHIFT_64ND_3
NOTE_OFF_64
NOTE_OFF_68
TIME_SHIFT_64ND_3
NOTE_ON_69
NOTE_ON_66
TIME_SHIFT_64ND_3
NOTE_OFF_69
NOTE_OFF_66
TIME_SHIFT_64ND_3
NOTE_ON_66
NOTE_ON_59
TIME_SHIFT_64ND_12
NOTE_OFF_66
NOTE_OFF_59
TIME_SHIFT_64ND_1
NOTE_ON_64
NOTE_ON_56
TIME_SHIFT_64ND_3
NOTE_OFF_64
NOTE_OFF_56
TIME_SHIFT_64ND_3
NOTE_ON_68
NOTE_ON_64
TIME_SHIFT_64ND_3
NOTE_OFF_68
NOTE_OFF_64
TIME_SHIFT_64ND_3
NOTE_ON_66
NOTE_ON_59
TIME_SHIFT_64ND_11
NOTE_OFF_66
NOTE_OFF_59
TIME_SHIFT_64ND_1
NOTE_ON_64
NOTE_ON_68
TIME_SHIFT_64ND_3
NOTE_OFF_64
NOTE_OFF_68
TIME_SHIFT_64ND_3
NOTE_ON_69
NOTE_ON_66
TIME_SHIFT_64ND_3
NOTE_OFF_69
NOTE_OFF_66
TIME_SHIFT_64ND_3
NOTE_ON_68
NOTE_ON_71
TIME_SHIFT_64ND_10
NOTE_OFF_68
NOTE_OFF_71
TIME_SHIFT_64ND_1
NOTE_ON_69
NOTE_ON_73
TIME_SHIFT_64ND_3
NOTE_OFF_69
NOTE_OFF_73
TIME_SHIFT_64ND_3
NOTE_ON_71
NOTE_ON_68
TIME_SHIFT_64ND_3
NOTE_OFF_71
NOTE_OFF_68
TIME_SHIFT_64ND_3
NOTE_ON_66
NOTE_ON_69
TIME_SHIFT_64ND_11
NOTE_OFF_66
NOTE_OFF_69
TIME_SHIFT_64ND_1
NOTE_ON_68
NOTE_ON_64
TIME_SHIFT_64ND_3
NOTE_OFF_68
NOTE_OFF_64
TIME_SHIFT_64ND_4
NOTE_ON_69
NOTE_ON_66
TIME_SHIFT_64ND_4
NOTE_OFF_69
NOTE_OFF_66
TIME_SHIFT_64ND_4
NOTE_ON_66
NOTE_ON_59
TIME_SHIFT_64ND_12
NOTE_OFF_66
NOTE_OFF_59
TIME_SHIFT_64ND_4
NOTE_ON_80
NOTE_ON_83
TIME_SHIFT_64ND_6
NOTE_OFF_80
NOTE_OFF_83
NOTE_ON_81
NOTE_ON_78
TIME_SHIFT_64ND_6
NOTE_OFF_81
NOTE_OFF_78
NOTE_ON_76
NOTE_ON_80
TIME_SHIFT_64ND_11
NOTE_OFF_76
NOTE_OFF_80
TIME_SHIFT_64ND_1
NOTE_ON_80
NOTE_ON_76
TIME_SHIFT_64ND_6
NOTE_OFF_80
NOTE_OFF_76
NOTE_ON_78
NOTE_ON_71
TIME_SHIFT_64ND_6
NOTE_OFF_78
NOTE_OFF_71
NOTE_ON_76
NOTE_ON_68
TIME_SHIFT_64ND_12
NOTE_OFF_76
NOTE_OFF_68
TIME_SHIFT_64ND_1
NOTE_ON_71
NOTE_ON_68
TIME_SHIFT_64ND_3
NOTE_OFF_71
NOTE_OFF_68
TIME_SHIFT_64ND_3
NOTE_ON_69
NOTE_ON_66
TIME_SHIFT_64ND_3
NOTE_OFF_69
NOTE_OFF_66
TIME_SHIFT_64ND_3
NOTE_ON_64
NOTE_ON_68
TIME_SHIFT_64ND_11
NOTE_OFF_64
NOTE_OFF_68
TIME_SHIFT_64ND_1
NOTE_ON_68
NOTE_ON_64
TIME_SHIFT_64ND_3
NOTE_OFF_68
NOTE_OFF_64
TIME_SHIFT_64ND_3
NOTE_ON_59
NOTE_ON_66
TIME_SHIFT_64ND_3
NOTE_OFF_59
NOTE_OFF_66
TIME_SHIFT_64ND_3
NOTE_ON_56
NOTE_ON_64
TIME_SHIFT_64ND_10
NOTE_OFF_56
NOTE_OFF_64
TIME_SHIFT_64ND_3
NOTE_ON_76
NOTE_ON_68
TIME_SHIFT_64ND_6
NOTE_OFF_76
NOTE_OFF_68
NOTE_ON_71
NOTE_ON_78
TIME_SHIFT_64ND_6
NOTE_OFF_71
NOTE_OFF_78
NOTE_ON_80
NOTE_ON_76
TIME_SHIFT_64ND_11
NOTE_OFF_80
NOTE_OFF_76
TIME_SHIFT_64ND_1
NOTE_ON_81
NOTE_ON_78
TIME_SHIFT_64ND_6
NOTE_OFF_81
NOTE_OFF_78
NOTE_ON_80
NOTE_ON_76
TIME_SHIFT_64ND_6
NOTE_OFF_80
NOTE_OFF_76
NOTE_ON_78
NOTE_ON_71
TIME_SHIFT_64ND_11
NOTE_OFF_78
NOTE_OFF_71
TIME_SHIFT_64ND_1
NOTE_ON_80
NOTE_ON_76
TIME_SHIFT_64ND_7
NOTE_OFF_80
NOTE_OFF_76
NOTE_ON_71
NOTE_ON_78
TIME_SHIFT_64ND_9
NOTE_OFF_71
NOTE_OFF_78
NOTE_ON_76
NOTE_ON_68
TIME_SHIFT_64ND_31
NOTE_OFF_76
NOTE_OFF_68
TIME_SHIFT_64ND_15
NOTE_ON_95
NOTE_ON_92
TIME_SHIFT_64ND_5
NOTE_OFF_95
NOTE_OFF_92
NOTE_ON_93
NOTE_ON_90
TIME_SHIFT_64ND_5
NOTE_OFF_93
NOTE_OFF_90
NOTE_ON_88
NOTE_ON_92
NOTE_ON_59
NOTE_ON_52
TIME_SHIFT_64ND_5
NOTE_OFF_59
NOTE_ON_64
TIME_SHIFT_64ND_5
NOTE_OFF_88
NOTE_OFF_92
NOTE_OFF_64
NOTE_ON_92
NOTE_ON_88
NOTE_ON_71
TIME_SHIFT_64ND_5
NOTE_OFF_92
NOTE_OFF_88
NOTE_ON_83
NOTE_ON_90
TIME_SHIFT_64ND_5
NOTE_OFF_71
NOTE_OFF_83
NOTE_OFF_90
NOTE_OFF_52
NOTE_ON_88
NOTE_ON_80
NOTE_ON_64
NOTE_ON_71
TIME_SHIFT_64ND_5
NOTE_OFF_64
NOTE_ON_59
TIME_SHIFT_64ND_5
NOTE_OFF_88
NOTE_OFF_80
NOTE_OFF_59
NOTE_ON_80
NOTE_ON_83
NOTE_ON_52
TIME_SHIFT_64ND_5
NOTE_OFF_80
NOTE_OFF_83
NOTE_ON_81
NOTE_ON_78
TIME_SHIFT_64ND_5
NOTE_OFF_52
NOTE_OFF_81
NOTE_OFF_78
NOTE_OFF_71
NOTE_ON_80
NOTE_ON_76
NOTE_ON_59
NOTE_ON_52
TIME_SHIFT_64ND_5
NOTE_OFF_59
NOTE_ON_64
TIME_SHIFT_64ND_5
NOTE_OFF_80
NOTE_OFF_76
NOTE_OFF_64
NOTE_ON_80
NOTE_ON_76
NOTE_ON_71
TIME_SHIFT_64ND_5
NOTE_OFF_80
NOTE_OFF_76
NOTE_ON_71
NOTE_ON_78
TIME_SHIFT_64ND_5
NOTE_OFF_71
NOTE_OFF_71
NOTE_OFF_78
NOTE_OFF_52
NOTE_ON_76
NOTE_ON_68
NOTE_ON_64
NOTE_ON_71
TIME_SHIFT_64ND_5
NOTE_OFF_64
NOTE_ON_59
TIME_SHIFT_64ND_5
NOTE_OFF_76
NOTE_OFF_68
NOTE_OFF_59
NOTE_ON_68
NOTE_ON_76
NOTE_ON_52
TIME_SHIFT_64ND_5
NOTE_OFF_68
NOTE_OFF_76
NOTE_ON_71
NOTE_ON_78
TIME_SHIFT_64ND_5
NOTE_OFF_52
NOTE_OFF_71
NOTE_OFF_78
NOTE_OFF_71
NOTE_ON_80
NOTE_ON_76
NOTE_ON_52
NOTE_ON_59
TIME_SHIFT_64ND_5
NOTE_OFF_52
NOTE_ON_64
TIME_SHIFT_64ND_5
NOTE_OFF_80
NOTE_OFF_76
NOTE_OFF_59
NOTE_OFF_64
NOTE_ON_71
NOTE_ON_78
TIME_SHIFT_64ND_5
NOTE_OFF_71
NOTE_OFF_78
NOTE_ON_80
NOTE_ON_76
TIME_SHIFT_64ND_5
NOTE_OFF_80
NOTE_OFF_76
NOTE_ON_81
NOTE_ON_78
NOTE_ON_71
NOTE_ON_63
TIME_SHIFT_64ND_5
NOTE_ON_59
TIME_SHIFT_64ND_5
NOTE_OFF_81
NOTE_OFF_78
NOTE_OFF_71
NOTE_OFF_63
NOTE_OFF_59
NOTE_ON_78
NOTE_ON_71
TIME_SHIFT_64ND_5
NOTE_OFF_78
NOTE_OFF_71
NOTE_ON_81
NOTE_ON_78
TIME_SHIFT_64ND_5
NOTE_OFF_81
NOTE_OFF_78
NOTE_ON_83
NOTE_ON_80
NOTE_ON_59
NOTE_ON_52
TIME_SHIFT_64ND_5
NOTE_ON_64
TIME_SHIFT_64ND_5
NOTE_OFF_83
NOTE_OFF_80
NOTE_OFF_59
NOTE_OFF_52
NOTE_OFF_64
NOTE_ON_78
NOTE_ON_81
TIME_SHIFT_64ND_5
NOTE_OFF_78
NOTE_OFF_81
NOTE_ON_80
NOTE_ON_76
TIME_SHIFT_64ND_5
NOTE_OFF_80
NOTE_OFF_76
NOTE_ON_71
NOTE_ON_78
NOTE_ON_63
NOTE_ON_66
TIME_SHIFT_64ND_5
NOTE_ON_59
TIME_SHIFT_64ND_5
NOTE_OFF_71
NOTE_OFF_78
NOTE_OFF_63
NOTE_OFF_66
NOTE_OFF_59
NOTE_ON_95
NOTE_ON_92
TIME_SHIFT_64ND_5
NOTE_OFF_95
NOTE_OFF_92
NOTE_ON_93
NOTE_ON_90
TIME_SHIFT_64ND_5
NOTE_OFF_93
NOTE_OFF_90
NOTE_ON_92
NOTE_ON_88
NOTE_ON_59
NOTE_ON_52
TIME_SHIFT_64ND_5
NOTE_OFF_59
NOTE_ON_64
TIME_SHIFT_64ND_5
NOTE_OFF_92
NOTE_OFF_88
NOTE_OFF_64
NOTE_ON_88
NOTE_ON_92
NOTE_ON_71
TIME_SHIFT_64ND_5
NOTE_OFF_88
NOTE_OFF_92
NOTE_ON_90
NOTE_ON_83
TIME_SHIFT_64ND_5
NOTE_OFF_71
NOTE_OFF_90
NOTE_OFF_83
NOTE_OFF_52
NOTE_ON_80
NOTE_ON_88
NOTE_ON_64
NOTE_ON_71
TIME_SHIFT_64ND_5
NOTE_OFF_64
NOTE_ON_59
TIME_SHIFT_64ND_5
NOTE_OFF_80
NOTE_OFF_88
NOTE_OFF_59
NOTE_ON_83
NOTE_ON_80
NOTE_ON_52
TIME_SHIFT_64ND_5
NOTE_OFF_83
NOTE_OFF_80
NOTE_ON_81
NOTE_ON_78
TIME_SHIFT_64ND_5
NOTE_OFF_52
NOTE_OFF_81
NOTE_OFF_78
NOTE_OFF_71
NOTE_ON_76
NOTE_ON_80
NOTE_ON_59
NOTE_ON_52
TIME_SHIFT_64ND_5
NOTE_OFF_59
NOTE_ON_64
TIME_SHIFT_64ND_5
NOTE_OFF_76
NOTE_OFF_80
NOTE_OFF_64
NOTE_ON_80
NOTE_ON_76
NOTE_ON_71
TIME_SHIFT_64ND_5
NOTE_OFF_80
NOTE_OFF_76
NOTE_ON_78
NOTE_ON_71
TIME_SHIFT_64ND_5
NOTE_OFF_71
NOTE_OFF_78
NOTE_OFF_71
NOTE_OFF_52
NOTE_ON_76
NOTE_ON_68
NOTE_ON_64
NOTE_ON_71
TIME_SHIFT_64ND_5
NOTE_OFF_64
NOTE_ON_59
TIME_SHIFT_64ND_5
NOTE_OFF_76
NOTE_OFF_68
NOTE_OFF_59
NOTE_ON_76
NOTE_ON_68
NOTE_ON_52
TIME_SHIFT_64ND_5
NOTE_OFF_76
NOTE_OFF_68
NOTE_ON_78
NOTE_ON_71
TIME_SHIFT_64ND_5
NOTE_OFF_52
NOTE_OFF_78
NOTE_OFF_71
NOTE_OFF_71
NOTE_ON_76
NOTE_ON_80
NOTE_ON_52
NOTE_ON_59
TIME_SHIFT_64ND_5
NOTE_OFF_52
NOTE_ON_64
TIME_SHIFT_64ND_5
NOTE_OFF_76
NOTE_OFF_80
NOTE_OFF_59
NOTE_OFF_64
NOTE_ON_81
NOTE_ON_78
TIME_SHIFT_64ND_5
NOTE_OFF_81
NOTE_OFF_78
NOTE_ON_76
NOTE_ON_80
TIME_SHIFT_64ND_5
NOTE_OFF_76
NOTE_OFF_80
NOTE_ON_71
NOTE_ON_78
NOTE_ON_63
NOTE_ON_69
TIME_SHIFT_64ND_5
NOTE_ON_59
TIME_SHIFT_64ND_5
NOTE_OFF_71
NOTE_OFF_78
NOTE_OFF_63
NOTE_OFF_69
NOTE_OFF_59
NOTE_ON_80
NOTE_ON_76
TIME_SHIFT_64ND_5
NOTE_OFF_80
NOTE_OFF_76
NOTE_ON_71
NOTE_ON_78
TIME_SHIFT_64ND_6
NOTE_OFF_71
NOTE_OFF_78
NOTE_ON_76
NOTE_ON_68
NOTE_ON_52
TIME_SHIFT_64ND_6
NOTE_OFF_52
NOTE_ON_59
TIME_SHIFT_64ND_5
NOTE_OFF_59
NOTE_ON_68
TIME_SHIFT_64ND_6
NOTE_OFF_68
NOTE_ON_64
TIME_SHIFT_64ND_6
NOTE_OFF_64
NOTE_OFF_76
NOTE_OFF_68
NOTE_ON_71
TIME_SHIFT_64ND_11
NOTE_OFF_71
NOTE_ON_64
NOTE_ON_56
TIME_SHIFT_64ND_2
NOTE_OFF_64
NOTE_OFF_56
TIME_SHIFT_64ND_3
NOTE_ON_68
NOTE_ON_64
TIME_SHIFT_64ND_3
NOTE_OFF_68
NOTE_OFF_64
TIME_SHIFT_64ND_3
NOTE_ON_66
NOTE_ON_59
TIME_SHIFT_64ND_10
NOTE_OFF_66
NOTE_OFF_59
TIME_SHIFT_64ND_1
NOTE_ON_68
NOTE_ON_64
TIME_SHIFT_64ND_2
NOTE_OFF_68
NOTE_OFF_64
TIME_SHIFT_64ND_3
NOTE_ON_69
NOTE_ON_66
TIME_SHIFT_64ND_2
NOTE_OFF_69
NOTE_OFF_66
TIME_SHIFT_64ND_3
NOTE_ON_68
NOTE_ON_71
TIME_SHIFT_64ND_10
NOTE_OFF_68
NOTE_OFF_71
TIME_SHIFT_64ND_1
NOTE_ON_73
NOTE_ON_69
TIME_SHIFT_64ND_2
NOTE_OFF_73
NOTE_OFF_69
TIME_SHIFT_64ND_3
NOTE_ON_68
NOTE_ON_71
TIME_SHIFT_64ND_2
NOTE_OFF_68
NOTE_OFF_71
TIME_SHIFT_64ND_3
NOTE_ON_66
NOTE_ON_69
TIME_SHIFT_64ND_10
NOTE_OFF_66
NOTE_OFF_69
TIME_SHIFT_64ND_1
NOTE_ON_68
NOTE_ON_64
TIME_SHIFT_64ND_2
NOTE_OFF_68
NOTE_OFF_64
TIME_SHIFT_64ND_3
NOTE_ON_66
NOTE_ON_69
TIME_SHIFT_64ND_2
NOTE_OFF_66
NOTE_OFF_69
TIME_SHIFT_64ND_3
NOTE_ON_66
NOTE_ON_59
TIME_SHIFT_64ND_10
NOTE_OFF_66
NOTE_OFF_59
TIME_SHIFT_64ND_1
NOTE_ON_64
NOTE_ON_56
TIME_SHIFT_64ND_3
NOTE_OFF_64
NOTE_OFF_56
TIME_SHIFT_64ND_3
NOTE_ON_68
NOTE_ON_64
TIME_SHIFT_64ND_3
NOTE_OFF_68
NOTE_OFF_64
TIME_SHIFT_64ND_3
NOTE_ON_66
NOTE_ON_59
TIME_SHIFT_64ND_10
NOTE_OFF_66
NOTE_OFF_59
TIME_SHIFT_64ND_1
NOTE_ON_68
NOTE_ON_64
TIME_SHIFT_64ND_2
NOTE_OFF_68
NOTE_OFF_64
TIME_SHIFT_64ND_3
NOTE_ON_66
NOTE_ON_69
TIME_SHIFT_64ND_3
NOTE_OFF_66
NOTE_OFF_69
TIME_SHIFT_64ND_3
NOTE_ON_71
NOTE_ON_68
TIME_SHIFT_64ND_10
NOTE_OFF_71
NOTE_OFF_68
TIME_SHIFT_64ND_1
NOTE_ON_69
NOTE_ON_73
TIME_SHIFT_64ND_2
NOTE_OFF_69
NOTE_OFF_73
TIME_SHIFT_64ND_3
NOTE_ON_68
NOTE_ON_71
TIME_SHIFT_64ND_3
NOTE_OFF_68
NOTE_OFF_71
TIME_SHIFT_64ND_3
NOTE_ON_69
NOTE_ON_66
TIME_SHIFT_64ND_12
NOTE_OFF_69
NOTE_OFF_66
TIME_SHIFT_64ND_1
NOTE_ON_64
NOTE_ON_68
TIME_SHIFT_64ND_4
NOTE_OFF_64
NOTE_OFF_68
TIME_SHIFT_64ND_4
NOTE_ON_69
NOTE_ON_66
TIME_SHIFT_64ND_4
NOTE_OFF_69
NOTE_OFF_66
TIME_SHIFT_64ND_5
NOTE_ON_66
NOTE_ON_59
TIME_SHIFT_64ND_22
NOTE_OFF_66
NOTE_OFF_59
TIME_SHIFT_64ND_7
NOTE_ON_95
NOTE_ON_92
TIME_SHIFT_64ND_5
NOTE_OFF_95
NOTE_OFF_92
NOTE_ON_90
NOTE_ON_93
TIME_SHIFT_64ND_5
NOTE_OFF_90
NOTE_OFF_93
NOTE_ON_92
NOTE_ON_88
NOTE_ON_59
NOTE_ON_52
TIME_SHIFT_64ND_5
NOTE_OFF_59
NOTE_ON_64
TIME_SHIFT_64ND_5
NOTE_OFF_92
NOTE_OFF_88
NOTE_OFF_64
NOTE_ON_88
NOTE_ON_92
NOTE_ON_71
TIME_SHIFT_64ND_5
NOTE_OFF_88
NOTE_OFF_92
NOTE_ON_90
NOTE_ON_83
TIME_SHIFT_64ND_5
NOTE_OFF_71
NOTE_OFF_90
NOTE_OFF_83
NOTE_OFF_52
NOTE_ON_88
NOTE_ON_80
NOTE_ON_64
NOTE_ON_71
TIME_SHIFT_64ND_5
NOTE_OFF_64
NOTE_ON_59
TIME_SHIFT_64ND_5
NOTE_OFF_88
NOTE_OFF_80
NOTE_OFF_59
NOTE_ON_80
NOTE_ON_83
NOTE_ON_52
TIME_SHIFT_64ND_5
NOTE_OFF_80
NOTE_OFF_83
NOTE_ON_81
NOTE_ON_78
TIME_SHIFT_64ND_5
NOTE_OFF_52
NOTE_OFF_81
NOTE_OFF_78
NOTE_OFF_71
NOTE_ON_80
NOTE_ON_76
NOTE_ON_59
NOTE_ON_52
TIME_SHIFT_64ND_5
NOTE_OFF_59
NOTE_ON_64
TIME_SHIFT_64ND_5
NOTE_OFF_80
NOTE_OFF_76
NOTE_OFF_64
NOTE_ON_76
NOTE_ON_80
NOTE_ON_71
TIME_SHIFT_64ND_5
NOTE_OFF_76
NOTE_OFF_80
NOTE_ON_78
NOTE_ON_71
TIME_SHIFT_64ND_5
NOTE_OFF_71
NOTE_OFF_78
NOTE_OFF_71
NOTE_OFF_52
NOTE_ON_68
NOTE_ON_76
NOTE_ON_64
NOTE_ON_71
TIME_SHIFT_64ND_5
NOTE_OFF_64
NOTE_ON_59
TIME_SHIFT_64ND_5
NOTE_OFF_68
NOTE_OFF_76
NOTE_OFF_59
NOTE_ON_56
NOTE_ON_64
NOTE_ON_52
TIME_SHIFT_64ND_3
NOTE_OFF_56
NOTE_OFF_64
TIME_SHIFT_64ND_3
NOTE_ON_66
NOTE_ON_59
TIME_SHIFT_64ND_3
NOTE_OFF_66
NOTE_OFF_59
TIME_SHIFT_64ND_2
NOTE_OFF_52
NOTE_OFF_71
NOTE_ON_64
NOTE_ON_68
TIME_SHIFT_64ND_12
NOTE_OFF_64
NOTE_OFF_68
NOTE_ON_69
NOTE_ON_66
TIME_SHIFT_64ND_3
NOTE_OFF_69
NOTE_OFF_66
TIME_SHIFT_64ND_3
NOTE_ON_68
NOTE_ON_64
TIME_SHIFT_64ND_3
NOTE_OFF_68
NOTE_OFF_64
TIME_SHIFT_64ND_3
NOTE_ON_66
NOTE_ON_59
TIME_SHIFT_64ND_13
NOTE_OFF_66
NOTE_OFF_59
TIME_SHIFT_64ND_1
NOTE_ON_68
NOTE_ON_64
TIME_SHIFT_64ND_4
NOTE_OFF_68
NOTE_OFF_64
TIME_SHIFT_64ND_4
NOTE_ON_66
NOTE_ON_59
TIME_SHIFT_64ND_5
NOTE_OFF_66
NOTE_OFF_59
TIME_SHIFT_64ND_5
NOTE_ON_56
NOTE_ON_64
TIME_SHIFT_64ND_34
NOTE_OFF_56
NOTE_OFF_64
TIME_SHIFT_64ND_10
NOTE_ON_71
NOTE_ON_59
TIME_SHIFT_64ND_7
NOTE_OFF_71
NOTE_OFF_59
TIME_SHIFT_64ND_7
NOTE_ON_71
NOTE_ON_59
NOTE_ON_64
NOTE_ON_67
NOTE_ON_47
NOTE_ON_40
TIME_SHIFT_64ND_9
NOTE_OFF_47
NOTE_OFF_40
TIME_SHIFT_64ND_3
NOTE_OFF_71
NOTE_OFF_59
NOTE_OFF_64
NOTE_OFF_67
NOTE_ON_57
TIME_SHIFT_64ND_4
NOTE_OFF_57
TIME_SHIFT_64ND_1
NOTE_ON_55
TIME_SHIFT_64ND_3
NOTE_OFF_55
TIME_SHIFT_64ND_3
NOTE_ON_69
NOTE_ON_66
NOTE_ON_57
NOTE_ON_47
NOTE_ON_39
TIME_SHIFT_64ND_9
NOTE_OFF_47
NOTE_OFF_39
TIME_SHIFT_64ND_3
NOTE_OFF_69
NOTE_OFF_66
NOTE_OFF_57
NOTE_ON_55
TIME_SHIFT_64ND_4
NOTE_OFF_55
TIME_SHIFT_64ND_1
NOTE_ON_54
TIME_SHIFT_64ND_3
NOTE_OFF_54
TIME_SHIFT_64ND_3
NOTE_ON_67
NOTE_ON_64
NOTE_ON_55
NOTE_ON_47
NOTE_ON_40
TIME_SHIFT_64ND_9
NOTE_OFF_47
NOTE_OFF_40
TIME_SHIFT_64ND_3
NOTE_OFF_67
NOTE_OFF_64
NOTE_OFF_55
NOTE_ON_54
TIME_SHIFT_64ND_4
NOTE_OFF_54
TIME_SHIFT_64ND_1
NOTE_ON_52
TIME_SHIFT_64ND_3
NOTE_OFF_52
TIME_SHIFT_64ND_3
NOTE_ON_67
NOTE_ON_64
NOTE_ON_55
NOTE_ON_48
NOTE_ON_36
TIME_SHIFT_64ND_9
NOTE_OFF_48
NOTE_OFF_36
TIME_SHIFT_64ND_3
NOTE_OFF_67
NOTE_OFF_64
NOTE_OFF_55
NOTE_ON_54
TIME_SHIFT_64ND_4
NOTE_OFF_54
TIME_SHIFT_64ND_1
NOTE_ON_52
TIME_SHIFT_64ND_3
NOTE_OFF_52
TIME_SHIFT_64ND_3
NOTE_ON_64
NOTE_ON_55
NOTE_ON_59
NOTE_ON_67
NOTE_ON_47
NOTE_ON_35
TIME_SHIFT_64ND_9
NOTE_OFF_47
NOTE_OFF_35
TIME_SHIFT_64ND_3
NOTE_OFF_64
NOTE_OFF_55
NOTE_OFF_59
NOTE_OFF_67
NOTE_ON_54
TIME_SHIFT_64ND_4
NOTE_OFF_54
TIME_SHIFT_64ND_1
NOTE_ON_52
TIME_SHIFT_64ND_3
NOTE_OFF_52
TIME_SHIFT_64ND_3
NOTE_ON_64
NOTE_ON_52
NOTE_ON_55
NOTE_ON_61
NOTE_ON_46
NOTE_ON_34
TIME_SHIFT_64ND_9
NOTE_OFF_46
NOTE_OFF_34
TIME_SHIFT_64ND_3
NOTE_OFF_64
NOTE_OFF_52
NOTE_OFF_55
NOTE_OFF_61
NOTE_ON_51
TIME_SHIFT_64ND_4
NOTE_OFF_51
TIME_SHIFT_64ND_1
NOTE_ON_52
TIME_SHIFT_64ND_5
NOTE_OFF_52
TIME_SHIFT_64ND_2
NOTE_ON_55
NOTE_ON_67
NOTE_ON_64
NOTE_ON_59
NOTE_ON_47
NOTE_ON_35
TIME_SHIFT_64ND_26
NOTE_OFF_55
NOTE_OFF_67
NOTE_OFF_64
NOTE_OFF_59
NOTE_OFF_47
NOTE_OFF_35
NOTE_ON_66
NOTE_ON_63
NOTE_ON_54
NOTE_ON_47
NOTE_ON_35
TIME_SHIFT_64ND_13
NOTE_OFF_66
NOTE_OFF_63
NOTE_OFF_54
NOTE_OFF_47
NOTE_OFF_35
NOTE_ON_62
NOTE_ON_50
TIME_SHIFT_64ND_6
NOTE_OFF_62
NOTE_OFF_50
TIME_SHIFT_64ND_6
NOTE_ON_67
NOTE_ON_55
NOTE_ON_59
NOTE_ON_62
NOTE_ON_43
NOTE_ON_31
TIME_SHIFT_64ND_9
NOTE_OFF_43
NOTE_OFF_31
TIME_SHIFT_64ND_3
NOTE_OFF_67
NOTE_OFF_55
NOTE_OFF_59
NOTE_OFF_62
NOTE_ON_54
TIME_SHIFT_64ND_2
NOTE_OFF_54
TIME_SHIFT_64ND_3
NOTE_ON_55
TIME_SHIFT_64ND_3
NOTE_OFF_55
TIME_SHIFT_64ND_3
NOTE_ON_69
NOTE_ON_62
NOTE_ON_57
NOTE_ON_66
NOTE_ON_50
NOTE_ON_38
TIME_SHIFT_64ND_9
NOTE_OFF_50
NOTE_OFF_38
TIME_SHIFT_64ND_3
NOTE_OFF_69
NOTE_OFF_62
NOTE_OFF_57
NOTE_OFF_66
NOTE_ON_55
TIME_SHIFT_64ND_3
NOTE_OFF_55
TIME_SHIFT_64ND_3
NOTE_ON_57
TIME_SHIFT_64ND_3
NOTE_OFF_57
TIME_SHIFT_64ND_3
NOTE_ON_71
NOTE_ON_67
NOTE_ON_59
NOTE_ON_62
NOTE_ON_55
NOTE_ON_43
TIME_SHIFT_64ND_9
NOTE_OFF_55
NOTE_OFF_43
TIME_SHIFT_64ND_3
NOTE_OFF_71
NOTE_OFF_67
NOTE_OFF_59
NOTE_OFF_62
NOTE_ON_57
TIME_SHIFT_64ND_3
NOTE_OFF_57
TIME_SHIFT_64ND_3
NOTE_ON_59
TIME_SHIFT_64ND_3
NOTE_OFF_59
TIME_SHIFT_64ND_3
NOTE_ON_72
NOTE_ON_67
NOTE_ON_60
NOTE_ON_64
NOTE_ON_48
NOTE_ON_36
TIME_SHIFT_64ND_8
NOTE_OFF_48
NOTE_OFF_36
TIME_SHIFT_64ND_3
NOTE_OFF_72
NOTE_OFF_67
NOTE_OFF_60
NOTE_OFF_64
NOTE_ON_62
TIME_SHIFT_64ND_3
NOTE_OFF_62
TIME_SHIFT_64ND_3
NOTE_ON_64
TIME_SHIFT_64ND_3
NOTE_OFF_64
TIME_SHIFT_64ND_3
NOTE_ON_62
NOTE_ON_55
NOTE_ON_59
NOTE_ON_71
NOTE_ON_50
NOTE_ON_38
TIME_SHIFT_64ND_8
NOTE_OFF_50
NOTE_OFF_38
TIME_SHIFT_64ND_3
NOTE_OFF_62
NOTE_OFF_55
NOTE_OFF_59
NOTE_OFF_71
NOTE_ON_57
TIME_SHIFT_64ND_3
NOTE_OFF_57
TIME_SHIFT_64ND_3
NOTE_ON_59
TIME_SHIFT_64ND_3
NOTE_OFF_59
TIME_SHIFT_64ND_3
NOTE_ON_69
NOTE_ON_57
NOTE_ON_60
NOTE_ON_66
NOTE_ON_50
NOTE_ON_38
TIME_SHIFT_64ND_9
NOTE_OFF_50
NOTE_OFF_38
TIME_SHIFT_64ND_3
NOTE_OFF_69
NOTE_OFF_57
NOTE_OFF_60
NOTE_OFF_66
NOTE_ON_59
TIME_SHIFT_64ND_3
NOTE_OFF_59
TIME_SHIFT_64ND_4
NOTE_ON_54
TIME_SHIFT_64ND_4
NOTE_OFF_54
TIME_SHIFT_64ND_5
NOTE_ON_55
NOTE_ON_67
NOTE_ON_62
NOTE_ON_59
NOTE_ON_43
NOTE_ON_31
TIME_SHIFT_64ND_25
NOTE_OFF_55
NOTE_OFF_67
NOTE_OFF_62
NOTE_OFF_59
NOTE_OFF_43
NOTE_OFF_31
TIME_SHIFT_64ND_12
NOTE_ON_71
NOTE_ON_59
TIME_SHIFT_64ND_6
NOTE_OFF_71
NOTE_OFF_59
TIME_SHIFT_64ND_6
NOTE_ON_69
NOTE_ON_66
NOTE_ON_57
NOTE_ON_47
NOTE_ON_39
NOTE_ON_51
TIME_SHIFT_64ND_9
NOTE_OFF_47
NOTE_OFF_39
NOTE_OFF_51
TIME_SHIFT_64ND_3
NOTE_OFF_69
NOTE_OFF_66
NOTE_OFF_57
NOTE_ON_55
TIME_SHIFT_64ND_2
NOTE_OFF_55
TIME_SHIFT_64ND_3
NOTE_ON_54
TIME_SHIFT_64ND_3
NOTE_OFF_54
TIME_SHIFT_64ND_3
NOTE_ON_67
NOTE_ON_55
NOTE_ON_64
NOTE_ON_52
NOTE_ON_40
NOTE_ON_47
TIME_SHIFT_64ND_9
NOTE_OFF_52
NOTE_OFF_40
NOTE_OFF_47
TIME_SHIFT_64ND_3
NOTE_OFF_67
NOTE_OFF_55
NOTE_OFF_64
NOTE_ON_54
TIME_SHIFT_64ND_3
NOTE_OFF_54
TIME_SHIFT_64ND_3
NOTE_ON_52
TIME_SHIFT_64ND_3
NOTE_OFF_52
TIME_SHIFT_64ND_3
NOTE_ON_59
NOTE_ON_51
NOTE_ON_63
NOTE_ON_47
NOTE_ON_35
NOTE_ON_42
TIME_SHIFT_64ND_8
NOTE_OFF_47
NOTE_OFF_35
NOTE_OFF_42
TIME_SHIFT_64ND_3
NOTE_OFF_59
NOTE_OFF_51
NOTE_OFF_63
NOTE_ON_59
NOTE_ON_47
TIME_SHIFT_64ND_3
NOTE_OFF_59
NOTE_OFF_47
TIME_SHIFT_64ND_1
NOTE_ON_60
NOTE_ON_48
TIME_SHIFT_64ND_4
NOTE_OFF_60
NOTE_OFF_48
TIME_SHIFT_64ND_1
NOTE_ON_59
NOTE_ON_47
TIME_SHIFT_64ND_5
NOTE_OFF_59
NOTE_OFF_47
TIME_SHIFT_64ND_6
NOTE_ON_71
NOTE_ON_59
TIME_SHIFT_64ND_6
NOTE_OFF_71
NOTE_OFF_59
TIME_SHIFT_64ND_6
NOTE_ON_69
NOTE_ON_66
NOTE_ON_57
NOTE_ON_47
NOTE_ON_39
NOTE_ON_51
TIME_SHIFT_64ND_9
NOTE_OFF_47
NOTE_OFF_39
NOTE_OFF_51
TIME_SHIFT_64ND_3
NOTE_OFF_69
NOTE_OFF_66
NOTE_OFF_57
NOTE_ON_55
TIME_SHIFT_64ND_2
NOTE_OFF_55
TIME_SHIFT_64ND_3
NOTE_ON_54
TIME_SHIFT_64ND_3
NOTE_OFF_54
TIME_SHIFT_64ND_3
NOTE_ON_67
NOTE_ON_55
NOTE_ON_64
NOTE_ON_52
NOTE_ON_40
NOTE_ON_47
TIME_SHIFT_64ND_9
NOTE_OFF_52
NOTE_OFF_40
NOTE_OFF_47
TIME_SHIFT_64ND_3
NOTE_OFF_67
NOTE_OFF_55
NOTE_OFF_64
NOTE_ON_54
TIME_SHIFT_64ND_2
NOTE_OFF_54
TIME_SHIFT_64ND_3
NOTE_ON_52
TIME_SHIFT_64ND_3
NOTE_OFF_52
TIME_SHIFT_64ND_3
NOTE_ON_63
NOTE_ON_59
NOTE_ON_71
NOTE_ON_47
NOTE_ON_35
NOTE_ON_42
TIME_SHIFT_64ND_8
NOTE_OFF_47
NOTE_OFF_35
NOTE_OFF_42
TIME_SHIFT_64ND_3
NOTE_OFF_63
NOTE_OFF_59
NOTE_OFF_71
NOTE_ON_58
TIME_SHIFT_64ND_3
NOTE_OFF_58
TIME_SHIFT_64ND_1
NOTE_ON_60
TIME_SHIFT_64ND_4
NOTE_OFF_60
TIME_SHIFT_64ND_1
NOTE_ON_59
TIME_SHIFT_64ND_6
NOTE_OFF_59
TIME_SHIFT_64ND_6
NOTE_ON_71
NOTE_ON_59
TIME_SHIFT_64ND_6
NOTE_OFF_71
NOTE_OFF_59
TIME_SHIFT_64ND_6
NOTE_ON_76
NOTE_ON_71
NOTE_ON_64
NOTE_ON_52
NOTE_ON_44
NOTE_ON_56
TIME_SHIFT_64ND_9
NOTE_OFF_52
NOTE_OFF_44
NOTE_OFF_56
TIME_SHIFT_64ND_3
NOTE_OFF_76
NOTE_OFF_71
NOTE_OFF_64
NOTE_ON_62
TIME_SHIFT_64ND_2
NOTE_OFF_62
TIME_SHIFT_64ND_2
NOTE_ON_59
TIME_SHIFT_64ND_3
NOTE_OFF_59
TIME_SHIFT_64ND_3
NOTE_ON_72
NOTE_ON_60
NOTE_ON_64
NOTE_ON_57
NOTE_ON_45
NOTE_ON_52
TIME_SHIFT_64ND_8
NOTE_OFF_57
NOTE_OFF_45
NOTE_OFF_52
TIME_SHIFT_64ND_3
NOTE_OFF_72
NOTE_OFF_60
NOTE_OFF_64
NOTE_ON_59
TIME_SHIFT_64ND_2
NOTE_OFF_59
TIME_SHIFT_64ND_2
NOTE_ON_57
TIME_SHIFT_64ND_3
NOTE_OFF_57
TIME_SHIFT_64ND_3
NOTE_ON_74
NOTE_ON_69
NOTE_ON_62
NOTE_ON_50
NOTE_ON_42
NOTE_ON_54
TIME_SHIFT_64ND_9
NOTE_OFF_50
NOTE_OFF_42
NOTE_OFF_54
TIME_SHIFT_64ND_3
NOTE_OFF_74
NOTE_OFF_69
NOTE_OFF_62
NOTE_ON_60
TIME_SHIFT_64ND_2
NOTE_OFF_60
TIME_SHIFT_64ND_2
NOTE_ON_57
TIME_SHIFT_64ND_3
NOTE_OFF_57
TIME_SHIFT_64ND_3
NOTE_ON_71
NOTE_ON_59
NOTE_ON_62
NOTE_ON_55
NOTE_ON_43
NOTE_ON_50
TIME_SHIFT_64ND_8
NOTE_OFF_55
NOTE_OFF_43
NOTE_OFF_50
TIME_SHIFT_64ND_3
NOTE_OFF_71
NOTE_OFF_59
NOTE_OFF_62
NOTE_ON_57
TIME_SHIFT_64ND_2
NOTE_OFF_57
TIME_SHIFT_64ND_2
NOTE_ON_55
TIME_SHIFT_64ND_3
NOTE_OFF_55
TIME_SHIFT_64ND_3
NOTE_ON_72
NOTE_ON_67
NOTE_ON_60
NOTE_ON_52
NOTE_ON_40
NOTE_ON_48
TIME_SHIFT_64ND_8
NOTE_OFF_52
NOTE_OFF_40
NOTE_OFF_48
TIME_SHIFT_64ND_3
NOTE_OFF_72
NOTE_OFF_67
NOTE_OFF_60
NOTE_ON_59
TIME_SHIFT_64ND_2
NOTE_OFF_59
TIME_SHIFT_64ND_2
NOTE_ON_55
TIME_SHIFT_64ND_2
NOTE_OFF_55
TIME_SHIFT_64ND_3
NOTE_ON_69
NOTE_ON_57
NOTE_ON_60
NOTE_ON_54
NOTE_ON_42
NOTE_ON_48
TIME_SHIFT_64ND_8
NOTE_OFF_54
NOTE_OFF_42
NOTE_OFF_48
TIME_SHIFT_64ND_3
NOTE_OFF_69
NOTE_OFF_57
NOTE_OFF_60
NOTE_ON_55
TIME_SHIFT_64ND_2
NOTE_OFF_55
TIME_SHIFT_64ND_2
NOTE_ON_54
TIME_SHIFT_64ND_3
NOTE_OFF_54
TIME_SHIFT_64ND_3
NOTE_ON_71
NOTE_ON_66
NOTE_ON_59
NOTE_ON_47
NOTE_ON_39
NOTE_ON_51
TIME_SHIFT_64ND_8
NOTE_OFF_47
NOTE_OFF_39
NOTE_OFF_51
TIME_SHIFT_64ND_3
NOTE_OFF_71
NOTE_OFF_66
NOTE_OFF_59
NOTE_ON_57
TIME_SHIFT_64ND_2
NOTE_OFF_57
TIME_SHIFT_64ND_2
NOTE_ON_54
TIME_SHIFT_64ND_3
NOTE_OFF_54
TIME_SHIFT_64ND_3
NOTE_ON_67
NOTE_ON_55
NOTE_ON_59
NOTE_ON_52
NOTE_ON_40
NOTE_ON_47
TIME_SHIFT_64ND_8
NOTE_OFF_52
NOTE_OFF_40
NOTE_OFF_47
TIME_SHIFT_64ND_3
NOTE_OFF_67
NOTE_OFF_55
NOTE_OFF_59
NOTE_ON_54
TIME_SHIFT_64ND_2
NOTE_OFF_54
TIME_SHIFT_64ND_3
NOTE_ON_52
TIME_SHIFT_64ND_5
NOTE_OFF_52
TIME_SHIFT_64ND_2
NOTE_ON_64
NOTE_ON_67
NOTE_ON_55
NOTE_ON_60
NOTE_ON_48
NOTE_ON_36
TIME_SHIFT_64ND_9
NOTE_OFF_48
NOTE_OFF_36
TIME_SHIFT_64ND_3
NOTE_OFF_64
NOTE_OFF_67
NOTE_OFF_55
NOTE_OFF_60
NOTE_ON_54
TIME_SHIFT_64ND_2
NOTE_OFF_54
TIME_SHIFT_64ND_2
NOTE_ON_52
TIME_SHIFT_64ND_3
NOTE_OFF_52
TIME_SHIFT_64ND_3
NOTE_ON_64
NOTE_ON_67
NOTE_ON_61
NOTE_ON_55
NOTE_ON_34
NOTE_ON_46
TIME_SHIFT_64ND_8
NOTE_OFF_34
NOTE_OFF_46
TIME_SHIFT_64ND_3
NOTE_OFF_64
NOTE_OFF_67
NOTE_OFF_61
NOTE_OFF_55
NOTE_ON_54
TIME_SHIFT_64ND_2
NOTE_OFF_54
TIME_SHIFT_64ND_3
NOTE_ON_52
TIME_SHIFT_64ND_3
NOTE_OFF_52
TIME_SHIFT_64ND_3
NOTE_ON_63
NOTE_ON_59
NOTE_ON_51
NOTE_ON_47
NOTE_ON_35
TIME_SHIFT_64ND_9
NOTE_OFF_47
NOTE_OFF_35
TIME_SHIFT_64ND_3
NOTE_OFF_63
NOTE_OFF_59
NOTE_OFF_51
NOTE_ON_52
TIME_SHIFT_64ND_2
NOTE_OFF_52
TIME_SHIFT_64ND_3
NOTE_ON_54
TIME_SHIFT_64ND_3
NOTE_OFF_54
TIME_SHIFT_64ND_3
NOTE_ON_64
NOTE_ON_52
NOTE_ON_55
NOTE_ON_36
NOTE_ON_48
TIME_SHIFT_64ND_9
NOTE_OFF_36
NOTE_OFF_48
TIME_SHIFT_64ND_3
NOTE_OFF_64
NOTE_OFF_52
NOTE_OFF_55
NOTE_ON_54
TIME_SHIFT_64ND_2
NOTE_OFF_54
TIME_SHIFT_64ND_3
NOTE_ON_55
TIME_SHIFT_64ND_3
NOTE_OFF_55
TIME_SHIFT_64ND_3
NOTE_ON_60
NOTE_ON_53
NOTE_ON_45
NOTE_ON_33
TIME_SHIFT_64ND_8
NOTE_OFF_45
NOTE_OFF_33
TIME_SHIFT_64ND_2
NOTE_OFF_60
NOTE_OFF_53
NOTE_ON_69
NOTE_ON_65
NOTE_ON_60
TIME_SHIFT_64ND_2
NOTE_OFF_69
NOTE_OFF_65
NOTE_OFF_60
TIME_SHIFT_64ND_3
NOTE_ON_65
NOTE_ON_60
NOTE_ON_57
TIME_SHIFT_64ND_3
NOTE_OFF_65
NOTE_OFF_60
NOTE_OFF_57
TIME_SHIFT_64ND_3
NOTE_ON_64
NOTE_ON_59
NOTE_ON_55
NOTE_ON_47
NOTE_ON_35
TIME_SHIFT_64ND_10
NOTE_OFF_64
NOTE_OFF_59
NOTE_OFF_55
NOTE_OFF_47
NOTE_OFF_35
TIME_SHIFT_64ND_3
NOTE_ON_66
NOTE_ON_59
NOTE_ON_57
TIME_SHIFT_64ND_4
NOTE_OFF_66
NOTE_OFF_59
NOTE_OFF_57
TIME_SHIFT_64ND_4
NOTE_ON_63
NOTE_ON_59
NOTE_ON_54
TIME_SHIFT_64ND_5
NOTE_OFF_63
NOTE_OFF_59
NOTE_OFF_54
TIME_SHIFT_64ND_5
NOTE_ON_64
NOTE_ON_59
NOTE_ON_55
NOTE_ON_52
NOTE_ON_40
TIME_SHIFT_64ND_43
NOTE_OFF_64
NOTE_OFF_59
NOTE_OFF_55
NOTE_OFF_52
NOTE_OFF_40
TIME_SHIFT_64ND_22
NOTE_ON_95
NOTE_ON_92
TIME_SHIFT_64ND_5
NOTE_OFF_95
NOTE_OFF_92
NOTE_ON_93
NOTE_ON_90
TIME_SHIFT_64ND_5
NOTE_OFF_93
NOTE_OFF_90
NOTE_ON_92
NOTE_ON_88
NOTE_ON_59
NOTE_ON_52
TIME_SHIFT_64ND_5
NOTE_OFF_59
NOTE_ON_64
TIME_SHIFT_64ND_5
NOTE_OFF_92
NOTE_OFF_88
NOTE_OFF_64
NOTE_ON_92
NOTE_ON_88
NOTE_ON_71
TIME_SHIFT_64ND_5
NOTE_OFF_92
NOTE_OFF_88
NOTE_ON_90
NOTE_ON_83
TIME_SHIFT_64ND_5
NOTE_OFF_71
NOTE_OFF_90
NOTE_OFF_83
NOTE_OFF_52
NOTE_ON_88
NOTE_ON_80
NOTE_ON_64
NOTE_ON_71
TIME_SHIFT_64ND_5
NOTE_OFF_64
NOTE_ON_59
TIME_SHIFT_64ND_5
NOTE_OFF_88
NOTE_OFF_80
NOTE_OFF_59
NOTE_ON_80
NOTE_ON_83
NOTE_ON_52
TIME_SHIFT_64ND_5
NOTE_OFF_80
NOTE_OFF_83
NOTE_ON_81
NOTE_ON_78
TIME_SHIFT_64ND_5
NOTE_OFF_52
NOTE_OFF_81
NOTE_OFF_78
NOTE_OFF_71
NOTE_ON_80
NOTE_ON_76
NOTE_ON_59
NOTE_ON_52
TIME_SHIFT_64ND_5
NOTE_OFF_59
NOTE_ON_64
TIME_SHIFT_64ND_5
NOTE_OFF_80
NOTE_OFF_76
NOTE_OFF_64
NOTE_ON_80
NOTE_ON_76
NOTE_ON_71
TIME_SHIFT_64ND_5
NOTE_OFF_80
NOTE_OFF_76
NOTE_ON_78
NOTE_ON_71
TIME_SHIFT_64ND_5
NOTE_OFF_71
NOTE_OFF_78
NOTE_OFF_71
NOTE_OFF_52
NOTE_ON_76
NOTE_ON_68
NOTE_ON_64
NOTE_ON_71
TIME_SHIFT_64ND_5
NOTE_OFF_64
NOTE_ON_59
TIME_SHIFT_64ND_5
NOTE_OFF_76
NOTE_OFF_68
NOTE_OFF_59
NOTE_ON_76
NOTE_ON_68
NOTE_ON_52
TIME_SHIFT_64ND_5
NOTE_OFF_76
NOTE_OFF_68
NOTE_ON_78
NOTE_ON_71
TIME_SHIFT_64ND_5
NOTE_OFF_52
NOTE_OFF_78
NOTE_OFF_71
NOTE_OFF_71
NOTE_ON_80
NOTE_ON_76
NOTE_ON_52
NOTE_ON_59
TIME_SHIFT_64ND_5
NOTE_OFF_52
NOTE_ON_64
TIME_SHIFT_64ND_5
NOTE_OFF_80
NOTE_OFF_76
NOTE_OFF_59
NOTE_OFF_64
NOTE_ON_78
NOTE_ON_71
TIME_SHIFT_64ND_5
NOTE_OFF_78
NOTE_OFF_71
NOTE_ON_80
NOTE_ON_76
TIME_SHIFT_64ND_5
NOTE_OFF_80
NOTE_OFF_76
NOTE_ON_81
NOTE_ON_78
NOTE_ON_63
NOTE_ON_71
TIME_SHIFT_64ND_5
NOTE_ON_59
TIME_SHIFT_64ND_5
NOTE_OFF_81
NOTE_OFF_78
NOTE_OFF_63
NOTE_OFF_71
NOTE_OFF_59
NOTE_ON_78
NOTE_ON_71
TIME_SHIFT_64ND_5
NOTE_OFF_78
NOTE_OFF_71
NOTE_ON_81
NOTE_ON_78
TIME_SHIFT_64ND_5
NOTE_OFF_81
NOTE_OFF_78
NOTE_ON_83
NOTE_ON_80
NOTE_ON_59
NOTE_ON_52
TIME_SHIFT_64ND_5
NOTE_ON_64
TIME_SHIFT_64ND_5
NOTE_OFF_83
NOTE_OFF_80
NOTE_OFF_59
NOTE_OFF_52
NOTE_OFF_64
NOTE_ON_81
NOTE_ON_78
TIME_SHIFT_64ND_5
NOTE_OFF_81
NOTE_OFF_78
NOTE_ON_80
NOTE_ON_76
TIME_SHIFT_64ND_5
NOTE_OFF_80
NOTE_OFF_76
NOTE_ON_78
NOTE_ON_71
NOTE_ON_66
NOTE_ON_63
TIME_SHIFT_64ND_5
NOTE_ON_59
TIME_SHIFT_64ND_5
NOTE_OFF_78
NOTE_OFF_71
NOTE_OFF_66
NOTE_OFF_63
NOTE_OFF_59
NOTE_ON_95
NOTE_ON_92
TIME_SHIFT_64ND_5
NOTE_OFF_95
NOTE_OFF_92
NOTE_ON_93
NOTE_ON_90
TIME_SHIFT_64ND_5
NOTE_OFF_93
NOTE_OFF_90
NOTE_ON_92
NOTE_ON_88
NOTE_ON_59
NOTE_ON_52
TIME_SHIFT_64ND_5
NOTE_OFF_59
NOTE_ON_64
TIME_SHIFT_64ND_5
NOTE_OFF_92
NOTE_OFF_88
NOTE_OFF_64
NOTE_ON_92
NOTE_ON_88
NOTE_ON_71
TIME_SHIFT_64ND_5
NOTE_OFF_92
NOTE_OFF_88
NOTE_ON_90
NOTE_ON_83
TIME_SHIFT_64ND_5
NOTE_OFF_71
NOTE_OFF_90
NOTE_OFF_83
NOTE_OFF_52
NOTE_ON_88
NOTE_ON_80
NOTE_ON_64
NOTE_ON_71
TIME_SHIFT_64ND_5
NOTE_OFF_64
NOTE_ON_59
TIME_SHIFT_64ND_5
NOTE_OFF_88
NOTE_OFF_80
NOTE_OFF_59
NOTE_ON_80
NOTE_ON_83
NOTE_ON_52
TIME_SHIFT_64ND_5
NOTE_OFF_80
NOTE_OFF_83
NOTE_ON_81
NOTE_ON_78
TIME_SHIFT_64ND_5
NOTE_OFF_52
NOTE_OFF_81
NOTE_OFF_78
NOTE_OFF_71
NOTE_ON_80
NOTE_ON_76
NOTE_ON_59
NOTE_ON_52
TIME_SHIFT_64ND_5
NOTE_OFF_59
NOTE_ON_64
TIME_SHIFT_64ND_5
NOTE_OFF_80
NOTE_OFF_76
NOTE_OFF_64
NOTE_ON_80
NOTE_ON_76
NOTE_ON_71
TIME_SHIFT_64ND_5
NOTE_OFF_80
NOTE_OFF_76
NOTE_ON_78
NOTE_ON_71
TIME_SHIFT_64ND_5
NOTE_OFF_71
NOTE_OFF_78
NOTE_OFF_71
NOTE_OFF_52
NOTE_ON_76
NOTE_ON_68
NOTE_ON_64
NOTE_ON_71
TIME_SHIFT_64ND_5
NOTE_OFF_64
NOTE_ON_59
TIME_SHIFT_64ND_5
NOTE_OFF_76
NOTE_OFF_68
NOTE_OFF_59
NOTE_ON_76
NOTE_ON_68
NOTE_ON_52
TIME_SHIFT_64ND_5
NOTE_OFF_76
NOTE_OFF_68
NOTE_ON_78
NOTE_ON_71
TIME_SHIFT_64ND_5
NOTE_OFF_52
NOTE_OFF_78
NOTE_OFF_71
NOTE_OFF_71
NOTE_ON_80
NOTE_ON_76
NOTE_ON_52
NOTE_ON_59
TIME_SHIFT_64ND_5
NOTE_OFF_52
NOTE_ON_64
TIME_SHIFT_64ND_5
NOTE_OFF_80
NOTE_OFF_76
NOTE_OFF_59
NOTE_OFF_64
NOTE_ON_81
NOTE_ON_78
TIME_SHIFT_64ND_5
NOTE_OFF_81
NOTE_OFF_78
NOTE_ON_80
NOTE_ON_76
TIME_SHIFT_64ND_5
NOTE_OFF_80
NOTE_OFF_76
NOTE_ON_78
NOTE_ON_71
NOTE_ON_63
NOTE_ON_69
TIME_SHIFT_64ND_5
NOTE_ON_59
TIME_SHIFT_64ND_5
NOTE_OFF_78
NOTE_OFF_71
NOTE_OFF_63
NOTE_OFF_69
NOTE_OFF_59
NOTE_ON_80
NOTE_ON_76
TIME_SHIFT_64ND_5
NOTE_OFF_80
NOTE_OFF_76
NOTE_ON_78
NOTE_ON_71
TIME_SHIFT_64ND_6
NOTE_OFF_78
NOTE_OFF_71
NOTE_ON_76
NOTE_ON_68
NOTE_ON_52
TIME_SHIFT_64ND_6
NOTE_OFF_52
NOTE_ON_59
TIME_SHIFT_64ND_6
NOTE_OFF_59
NOTE_ON_68
TIME_SHIFT_64ND_6
NOTE_OFF_68
NOTE_ON_64
TIME_SHIFT_64ND_6
NOTE_OFF_64
NOTE_OFF_76
NOTE_OFF_68
NOTE_ON_71
TIME_SHIFT_64ND_12
NOTE_OFF_71
TIME_SHIFT_64ND_1
NOTE_ON_64
NOTE_ON_56
TIME_SHIFT_64ND_3
NOTE_OFF_64
NOTE_OFF_56
TIME_SHIFT_64ND_3
NOTE_ON_68
NOTE_ON_64
TIME_SHIFT_64ND_3
NOTE_OFF_68
NOTE_OFF_64
TIME_SHIFT_64ND_3
NOTE_ON_66
NOTE_ON_59
TIME_SHIFT_64ND_10
NOTE_OFF_66
NOTE_OFF_59
TIME_SHIFT_64ND_1
NOTE_ON_68
NOTE_ON_64
TIME_SHIFT_64ND_2
NOTE_OFF_68
NOTE_OFF_64
TIME_SHIFT_64ND_3
NOTE_ON_69
NOTE_ON_66
TIME_SHIFT_64ND_2
NOTE_OFF_69
NOTE_OFF_66
TIME_SHIFT_64ND_3
NOTE_ON_71
NOTE_ON_68
TIME_SHIFT_64ND_10
NOTE_OFF_71
NOTE_OFF_68
TIME_SHIFT_64ND_1
NOTE_ON_73
NOTE_ON_69
TIME_SHIFT_64ND_2
NOTE_OFF_73
NOTE_OFF_69
TIME_SHIFT_64ND_3
NOTE_ON_71
NOTE_ON_68
TIME_SHIFT_64ND_2
NOTE_OFF_71
NOTE_OFF_68
TIME_SHIFT_64ND_3
NOTE_ON_69
NOTE_ON_66
TIME_SHIFT_64ND_10
NOTE_OFF_69
NOTE_OFF_66
TIME_SHIFT_64ND_1
NOTE_ON_68
NOTE_ON_64
TIME_SHIFT_64ND_2
NOTE_OFF_68
NOTE_OFF_64
TIME_SHIFT_64ND_3
NOTE_ON_69
NOTE_ON_66
TIME_SHIFT_64ND_2
NOTE_OFF_69
NOTE_OFF_66
TIME_SHIFT_64ND_3
NOTE_ON_66
NOTE_ON_59
TIME_SHIFT_64ND_10
NOTE_OFF_66
NOTE_OFF_59
TIME_SHIFT_64ND_1
NOTE_ON_64
NOTE_ON_56
TIME_SHIFT_64ND_3
NOTE_OFF_64
NOTE_OFF_56
TIME_SHIFT_64ND_3
NOTE_ON_68
NOTE_ON_64
TIME_SHIFT_64ND_3
NOTE_OFF_68
NOTE_OFF_64
TIME_SHIFT_64ND_3
NOTE_ON_66
NOTE_ON_59
TIME_SHIFT_64ND_10
NOTE_OFF_66
NOTE_OFF_59
TIME_SHIFT_64ND_1
NOTE_ON_68
NOTE_ON_64
TIME_SHIFT_64ND_2
NOTE_OFF_68
NOTE_OFF_64
TIME_SHIFT_64ND_3
NOTE_ON_69
NOTE_ON_66
TIME_SHIFT_64ND_3
NOTE_OFF_69
NOTE_OFF_66
TIME_SHIFT_64ND_3
NOTE_ON_71
NOTE_ON_68
TIME_SHIFT_64ND_10
NOTE_OFF_71
NOTE_OFF_68
TIME_SHIFT_64ND_1
NOTE_ON_73
NOTE_ON_69
TIME_SHIFT_64ND_2
NOTE_OFF_73
NOTE_OFF_69
TIME_SHIFT_64ND_3
NOTE_ON_71
NOTE_ON_68
TIME_SHIFT_64ND_3
NOTE_OFF_71
NOTE_OFF_68
TIME_SHIFT_64ND_3
NOTE_ON_69
NOTE_ON_66
TIME_SHIFT_64ND_12
NOTE_OFF_69
NOTE_OFF_66
TIME_SHIFT_64ND_1
NOTE_ON_68
NOTE_ON_64
TIME_SHIFT_64ND_4
NOTE_OFF_68
NOTE_OFF_64
TIME_SHIFT_64ND_4
NOTE_ON_69
NOTE_ON_66
TIME_SHIFT_64ND_5
NOTE_OFF_69
NOTE_OFF_66
TIME_SHIFT_64ND_5
NOTE_ON_66
NOTE_ON_59
TIME_SHIFT_64ND_25
NOTE_OFF_66
NOTE_OFF_59
TIME_SHIFT_64ND_8
NOTE_ON_95
NOTE_ON_92
TIME_SHIFT_64ND_5
NOTE_OFF_95
NOTE_OFF_92
NOTE_ON_93
NOTE_ON_90
TIME_SHIFT_64ND_5
NOTE_OFF_93
NOTE_OFF_90
NOTE_ON_92
NOTE_ON_88
NOTE_ON_59
NOTE_ON_52
TIME_SHIFT_64ND_5
NOTE_OFF_59
NOTE_ON_64
TIME_SHIFT_64ND_5
NOTE_OFF_92
NOTE_OFF_88
NOTE_OFF_64
NOTE_ON_92
NOTE_ON_88
NOTE_ON_71
TIME_SHIFT_64ND_5
NOTE_OFF_92
NOTE_OFF_88
NOTE_ON_90
NOTE_ON_83
TIME_SHIFT_64ND_5
NOTE_OFF_71
NOTE_OFF_90
NOTE_OFF_83
NOTE_OFF_52
NOTE_ON_88
NOTE_ON_80
NOTE_ON_64
NOTE_ON_71
TIME_SHIFT_64ND_5
NOTE_OFF_64
NOTE_ON_59
TIME_SHIFT_64ND_5
NOTE_OFF_88
NOTE_OFF_80
NOTE_OFF_59
NOTE_ON_80
NOTE_ON_83
NOTE_ON_52
TIME_SHIFT_64ND_5
NOTE_OFF_80
NOTE_OFF_83
NOTE_ON_81
NOTE_ON_78
TIME_SHIFT_64ND_5
NOTE_OFF_52
NOTE_OFF_81
NOTE_OFF_78
NOTE_OFF_71
NOTE_ON_80
NOTE_ON_76
NOTE_ON_59
NOTE_ON_52
TIME_SHIFT_64ND_5
NOTE_OFF_59
NOTE_ON_64
TIME_SHIFT_64ND_5
NOTE_OFF_80
NOTE_OFF_76
NOTE_OFF_64
NOTE_ON_80
NOTE_ON_76
NOTE_ON_71
TIME_SHIFT_64ND_5
NOTE_OFF_80
NOTE_OFF_76
NOTE_ON_78
NOTE_ON_71
TIME_SHIFT_64ND_5
NOTE_OFF_71
NOTE_OFF_78
NOTE_OFF_71
NOTE_OFF_52
NOTE_ON_76
NOTE_ON_68
NOTE_ON_64
NOTE_ON_71
TIME_SHIFT_64ND_5
NOTE_OFF_64
NOTE_ON_59
TIME_SHIFT_64ND_5
NOTE_OFF_76
NOTE_OFF_68
NOTE_OFF_59
NOTE_ON_64
NOTE_ON_56
NOTE_ON_52
TIME_SHIFT_64ND_3
NOTE_OFF_64
NOTE_OFF_56
TIME_SHIFT_64ND_3
NOTE_ON_66
NOTE_ON_59
TIME_SHIFT_64ND_3
NOTE_OFF_66
NOTE_OFF_59
TIME_SHIFT_64ND_2
NOTE_OFF_52
NOTE_OFF_71
NOTE_ON_68
NOTE_ON_64
TIME_SHIFT_64ND_12
NOTE_OFF_68
NOTE_OFF_64
NOTE_ON_69
NOTE_ON_66
TIME_SHIFT_64ND_3
NOTE_OFF_69
NOTE_OFF_66
TIME_SHIFT_64ND_3
NOTE_ON_68
NOTE_ON_64
TIME_SHIFT_64ND_3
NOTE_OFF_68
NOTE_OFF_64
TIME_SHIFT_64ND_3
NOTE_ON_66
NOTE_ON_59
TIME_SHIFT_64ND_14
NOTE_OFF_66
NOTE_OFF_59
TIME_SHIFT_64ND_1
NOTE_ON_68
NOTE_ON_64
TIME_SHIFT_64ND_4
NOTE_OFF_68
NOTE_OFF_64
TIME_SHIFT_64ND_5
NOTE_ON_66
NOTE_ON_59
TIME_SHIFT_64ND_6
NOTE_OFF_66
NOTE_OFF_59
TIME_SHIFT_64ND_7
NOTE_ON_64
NOTE_ON_56
TIME_SHIFT_64ND_29
NOTE_OFF_64
NOTE_OFF_56
TIME_SHIFT_64ND_14
NOTE_ON_76
NOTE_ON_64
NOTE_ON_52
NOTE_ON_40
TIME_SHIFT_64ND_7
NOTE_OFF_76
NOTE_OFF_64
NOTE_OFF_52
NOTE_OFF_40
TIME_SHIFT_64ND_7
NOTE_ON_81
NOTE_ON_69
NOTE_ON_57
NOTE_ON_45
TIME_SHIFT_64ND_35
NOTE_OFF_81
NOTE_OFF_69
NOTE_OFF_57
NOTE_OFF_45
NOTE_ON_76
NOTE_ON_64
NOTE_ON_52
NOTE_ON_40
TIME_SHIFT_64ND_6
NOTE_OFF_76
NOTE_OFF_64
NOTE_OFF_52
NOTE_OFF_40
TIME_SHIFT_64ND_6
NOTE_ON_72
NOTE_ON_60
NOTE_ON_48
NOTE_ON_36
TIME_SHIFT_64ND_12
NOTE_OFF_72
NOTE_OFF_60
NOTE_OFF_48
NOTE_OFF_36
NOTE_ON_69
NOTE_ON_57
NOTE_ON_45
NOTE_ON_33
TIME_SHIFT_64ND_14
NOTE_OFF_69
NOTE_OFF_57
NOTE_OFF_45
NOTE_OFF_33
TIME_SHIFT_64ND_13
NOTE_ON_57
NOTE_ON_48
TIME_SHIFT_64ND_1
NOTE_ON_59
NOTE_ON_50
NOTE_OFF_57
NOTE_OFF_48
TIME_SHIFT_64ND_1
NOTE_ON_60
NOTE_ON_52
NOTE_OFF_59
NOTE_OFF_50
TIME_SHIFT_64ND_1
NOTE_ON_62
NOTE_ON_53
NOTE_OFF_60
NOTE_OFF_52
TIME_SHIFT_64ND_1
NOTE_ON_64
NOTE_ON_55
NOTE_OFF_62
NOTE_OFF_53
TIME_SHIFT_64ND_1
NOTE_ON_65
NOTE_ON_57
NOTE_OFF_64
NOTE_OFF_55
TIME_SHIFT_64ND_1
NOTE_ON_67
NOTE_ON_59
NOTE_OFF_65
NOTE_OFF_57
TIME_SHIFT_64ND_1
NOTE_OFF_67
NOTE_OFF_59
NOTE_ON_69
NOTE_ON_60
TIME_SHIFT_64ND_1
NOTE_ON_71
NOTE_ON_62
NOTE_OFF_69
NOTE_OFF_60
TIME_SHIFT_64ND_1
NOTE_ON_72
NOTE_ON_64
NOTE_OFF_71
NOTE_OFF_62
TIME_SHIFT_64ND_1
NOTE_ON_74
NOTE_ON_65
NOTE_OFF_72
NOTE_OFF_64
TIME_SHIFT_64ND_1
NOTE_ON_76
NOTE_ON_67
NOTE_OFF_74
NOTE_OFF_65
TIME_SHIFT_64ND_1
NOTE_ON_77
NOTE_ON_69
NOTE_OFF_76
NOTE_OFF_67
TIME_SHIFT_64ND_1
NOTE_ON_79
NOTE_ON_71
NOTE_OFF_77
NOTE_OFF_69
TIME_SHIFT_64ND_1
NOTE_OFF_79
NOTE_OFF_71
NOTE_ON_81
NOTE_ON_72
TIME_SHIFT_64ND_1
NOTE_ON_83
NOTE_ON_74
NOTE_OFF_81
NOTE_OFF_72
TIME_SHIFT_64ND_1
NOTE_ON_84
NOTE_ON_76
NOTE_OFF_83
NOTE_OFF_74
TIME_SHIFT_64ND_1
NOTE_ON_86
NOTE_ON_77
NOTE_OFF_84
NOTE_OFF_76
TIME_SHIFT_64ND_1
NOTE_ON_88
NOTE_ON_79
NOTE_OFF_86
NOTE_OFF_77
TIME_SHIFT_64ND_1
NOTE_ON_89
NOTE_ON_81
NOTE_OFF_88
NOTE_OFF_79
TIME_SHIFT_64ND_1
NOTE_ON_91
NOTE_ON_83
NOTE_OFF_89
NOTE_OFF_81
TIME_SHIFT_64ND_1
NOTE_OFF_91
NOTE_OFF_83
NOTE_ON_93
NOTE_ON_84
TIME_SHIFT_64ND_6
NOTE_OFF_93
NOTE_OFF_84
TIME_SHIFT_64ND_6
NOTE_ON_89
NOTE_ON_86
NOTE_ON_96
NOTE_ON_77
NOTE_ON_74
NOTE_ON_83
TIME_SHIFT_64ND_3
NOTE_OFF_89
NOTE_OFF_86
NOTE_OFF_96
NOTE_OFF_77
NOTE_OFF_74
NOTE_OFF_83
TIME_SHIFT_64ND_3
NOTE_ON_95
NOTE_ON_89
NOTE_ON_86
NOTE_ON_83
NOTE_ON_77
NOTE_ON_74
TIME_SHIFT_64ND_3
NOTE_OFF_95
NOTE_OFF_89
NOTE_OFF_86
NOTE_OFF_83
NOTE_OFF_77
NOTE_OFF_74
NOTE_ON_64
TIME_SHIFT_64ND_3
NOTE_OFF_64
NOTE_ON_93
NOTE_ON_84
NOTE_ON_76
NOTE_ON_72
NOTE_ON_81
TIME_SHIFT_64ND_2
NOTE_OFF_93
NOTE_ON_95
TIME_SHIFT_64ND_2
NOTE_OFF_95
NOTE_ON_93
TIME_SHIFT_64ND_2
NOTE_OFF_93
NOTE_ON_95
TIME_SHIFT_64ND_2
NOTE_OFF_95
NOTE_ON_93
TIME_SHIFT_64ND_2
NOTE_OFF_93
NOTE_ON_95
TIME_SHIFT_64ND_2
NOTE_OFF_95
NOTE_ON_93
TIME_SHIFT_64ND_2
NOTE_OFF_93
NOTE_ON_92
TIME_SHIFT_64ND_3
NOTE_OFF_92
NOTE_ON_95
TIME_SHIFT_64ND_3
NOTE_OFF_95
NOTE_ON_93
TIME_SHIFT_64ND_3
NOTE_OFF_93
NOTE_OFF_84
NOTE_OFF_76
NOTE_OFF_72
NOTE_OFF_81
NOTE_ON_83
NOTE_ON_92
NOTE_ON_80
NOTE_ON_76
NOTE_ON_71
TIME_SHIFT_64ND_10
NOTE_OFF_83
NOTE_OFF_92
NOTE_OFF_80
NOTE_OFF_76
NOTE_OFF_71
TIME_SHIFT_64ND_1
NOTE_ON_74
NOTE_ON_62
NOTE_ON_50
NOTE_ON_38
TIME_SHIFT_64ND_7
NOTE_OFF_74
NOTE_OFF_62
NOTE_OFF_50
NOTE_OFF_38
TIME_SHIFT_64ND_7
NOTE_ON_77
NOTE_ON_65
NOTE_ON_53
NOTE_ON_41
TIME_SHIFT_64ND_35
NOTE_OFF_77
NOTE_OFF_65
NOTE_OFF_53
NOTE_OFF_41
NOTE_ON_74
NOTE_ON_62
NOTE_ON_50
NOTE_ON_38
TIME_SHIFT_64ND_6
NOTE_OFF_74
NOTE_OFF_62
NOTE_OFF_50
NOTE_OFF_38
TIME_SHIFT_64ND_6
NOTE_ON_71
NOTE_ON_59
NOTE_ON_47
NOTE_ON_35
TIME_SHIFT_64ND_11
NOTE_OFF_71
NOTE_OFF_59
NOTE_OFF_47
NOTE_OFF_35
NOTE_ON_68
NOTE_ON_56
NOTE_ON_44
NOTE_ON_32
TIME_SHIFT_64ND_14
NOTE_OFF_68
NOTE_OFF_56
NOTE_OFF_44
NOTE_OFF_32
TIME_SHIFT_64ND_14
NOTE_ON_59
NOTE_ON_50
TIME_SHIFT_64ND_2
NOTE_ON_60
NOTE_ON_52
NOTE_OFF_59
NOTE_OFF_50
TIME_SHIFT_64ND_1
NOTE_ON_62
NOTE_ON_53
NOTE_OFF_60
NOTE_OFF_52
TIME_SHIFT_64ND_1
NOTE_ON_64
NOTE_ON_55
NOTE_OFF_62
NOTE_OFF_53
TIME_SHIFT_64ND_1
NOTE_ON_65
NOTE_ON_57
NOTE_OFF_64
NOTE_OFF_55
TIME_SHIFT_64ND_1
NOTE_ON_67
NOTE_ON_59
NOTE_OFF_65
NOTE_OFF_57
TIME_SHIFT_64ND_1
NOTE_ON_69
NOTE_ON_60
NOTE_OFF_67
NOTE_OFF_59
TIME_SHIFT_64ND_1
NOTE_OFF_69
NOTE_OFF_60
NOTE_ON_71
NOTE_ON_62
TIME_SHIFT_64ND_1
NOTE_ON_72
NOTE_ON_64
NOTE_OFF_71
NOTE_OFF_62
TIME_SHIFT_64ND_1
NOTE_ON_74
NOTE_ON_65
NOTE_OFF_72
NOTE_OFF_64
TIME_SHIFT_64ND_1
NOTE_ON_76
NOTE_ON_67
NOTE_OFF_74
NOTE_OFF_65
TIME_SHIFT_64ND_1
NOTE_ON_77
NOTE_ON_69
NOTE_OFF_76
NOTE_OFF_67
TIME_SHIFT_64ND_1
NOTE_ON_79
NOTE_ON_71
NOTE_OFF_77
NOTE_OFF_69
TIME_SHIFT_64ND_1
NOTE_ON_81
NOTE_ON_72
NOTE_OFF_79
NOTE_OFF_71
TIME_SHIFT_64ND_1
NOTE_OFF_81
NOTE_OFF_72
NOTE_ON_83
NOTE_ON_74
TIME_SHIFT_64ND_1
NOTE_ON_84
NOTE_ON_76
NOTE_OFF_83
NOTE_OFF_74
TIME_SHIFT_64ND_1
NOTE_ON_86
NOTE_ON_77
NOTE_OFF_84
NOTE_OFF_76
TIME_SHIFT_64ND_1
NOTE_ON_88
NOTE_ON_79
NOTE_OFF_86
NOTE_OFF_77
TIME_SHIFT_64ND_1
NOTE_ON_89
NOTE_ON_81
NOTE_OFF_88
NOTE_OFF_79
TIME_SHIFT_64ND_1
NOTE_ON_91
NOTE_ON_83
NOTE_OFF_89
NOTE_OFF_81
TIME_SHIFT_64ND_1
NOTE_ON_93
NOTE_ON_84
NOTE_OFF_91
NOTE_OFF_83
TIME_SHIFT_64ND_1
NOTE_OFF_93
NOTE_OFF_84
NOTE_ON_95
NOTE_ON_86
TIME_SHIFT_64ND_5
NOTE_OFF_95
NOTE_OFF_86
TIME_SHIFT_64ND_6
NOTE_ON_89
NOTE_ON_98
NOTE_ON_77
NOTE_ON_68
TIME_SHIFT_64ND_3
NOTE_OFF_89
NOTE_OFF_98
NOTE_OFF_77
NOTE_OFF_68
TIME_SHIFT_64ND_3
NOTE_ON_96
NOTE_ON_88
NOTE_ON_68
NOTE_ON_76
TIME_SHIFT_64ND_3
NOTE_OFF_96
NOTE_OFF_88
NOTE_OFF_68
NOTE_OFF_76
TIME_SHIFT_64ND_3
NOTE_ON_95
NOTE_ON_86
NOTE_ON_77
NOTE_ON_69
NOTE_ON_80
TIME_SHIFT_64ND_2
NOTE_OFF_95
NOTE_ON_96
TIME_SHIFT_64ND_2
NOTE_OFF_96
NOTE_ON_95
TIME_SHIFT_64ND_2
NOTE_OFF_95
NOTE_ON_96
TIME_SHIFT_64ND_2
NOTE_OFF_96
NOTE_ON_95
TIME_SHIFT_64ND_2
NOTE_OFF_95
NOTE_ON_96
TIME_SHIFT_64ND_2
NOTE_OFF_96
NOTE_ON_95
TIME_SHIFT_64ND_2
NOTE_OFF_95
NOTE_ON_93
TIME_SHIFT_64ND_3
NOTE_OFF_93
NOTE_ON_96
TIME_SHIFT_64ND_3
NOTE_OFF_96
NOTE_ON_95
TIME_SHIFT_64ND_3
NOTE_OFF_95
NOTE_OFF_86
NOTE_OFF_77
NOTE_OFF_69
NOTE_OFF_80
NOTE_ON_84
NOTE_ON_93
NOTE_ON_81
NOTE_ON_76
NOTE_ON_69
TIME_SHIFT_64ND_9
NOTE_OFF_84
NOTE_OFF_93
NOTE_OFF_81
NOTE_OFF_76
NOTE_OFF_69
TIME_SHIFT_64ND_2
NOTE_ON_88
NOTE_ON_100
TIME_SHIFT_64ND_3
NOTE_OFF_88
NOTE_OFF_100
TIME_SHIFT_64ND_9
NOTE_ON_93
NOTE_ON_105
TIME_SHIFT_64ND_3
NOTE_OFF_93
NOTE_OFF_105
TIME_SHIFT_64ND_8
NOTE_ON_64
TIME_SHIFT_64ND_2
NOTE_OFF_64
NOTE_ON_62
TIME_SHIFT_64ND_2
NOTE_OFF_62
NOTE_ON_61
TIME_SHIFT_64ND_1
NOTE_ON_67
TIME_SHIFT_64ND_1
NOTE_OFF_61
NOTE_ON_59
NOTE_ON_73
TIME_SHIFT_64ND_1
NOTE_ON_76
TIME_SHIFT_64ND_1
NOTE_OFF_59
NOTE_ON_57
NOTE_ON_81
TIME_SHIFT_64ND_8
NOTE_OFF_57
NOTE_OFF_81
NOTE_OFF_67
NOTE_OFF_73
NOTE_OFF_76
TIME_SHIFT_64ND_3
NOTE_ON_93
TIME_SHIFT_64ND_2
NOTE_OFF_93
NOTE_ON_91
TIME_SHIFT_64ND_2
NOTE_OFF_91
NOTE_ON_89
TIME_SHIFT_64ND_2
NOTE_OFF_89
NOTE_ON_88
TIME_SHIFT_64ND_2
NOTE_OFF_88
NOTE_ON_89
TIME_SHIFT_64ND_8
NOTE_OFF_89
TIME_SHIFT_64ND_3
NOTE_ON_69
NOTE_ON_77
NOTE_ON_81
NOTE_ON_74
TIME_SHIFT_64ND_2
NOTE_OFF_69
NOTE_ON_67
TIME_SHIFT_64ND_2
NOTE_OFF_67
NOTE_ON_65
TIME_SHIFT_64ND_2
NOTE_OFF_65
NOTE_OFF_77
NOTE_OFF_81
NOTE_OFF_74
NOTE_ON_64
TIME_SHIFT_64ND_2
NOTE_OFF_64
NOTE_ON_62
NOTE_ON_77
NOTE_ON_81
NOTE_ON_86
TIME_SHIFT_64ND_8
NOTE_OFF_62
NOTE_OFF_77
NOTE_OFF_81
NOTE_OFF_86
TIME_SHIFT_64ND_3
NOTE_ON_93
NOTE_ON_101
TIME_SHIFT_64ND_3
NOTE_OFF_93
NOTE_OFF_101
TIME_SHIFT_64ND_9
NOTE_ON_89
NOTE_ON_98
TIME_SHIFT_64ND_3
NOTE_OFF_89
NOTE_OFF_98
TIME_SHIFT_64ND_8
NOTE_ON_62
TIME_SHIFT_64ND_3
NOTE_OFF_62
NOTE_ON_60
TIME_SHIFT_64ND_3
NOTE_OFF_60
NOTE_ON_59
TIME_SHIFT_64ND_1
NOTE_ON_65
TIME_SHIFT_64ND_1
NOTE_OFF_59
NOTE_ON_57
NOTE_ON_71
TIME_SHIFT_64ND_1
NOTE_ON_74
TIME_SHIFT_64ND_1
NOTE_OFF_57
NOTE_ON_55
NOTE_ON_79
TIME_SHIFT_64ND_9
NOTE_OFF_55
NOTE_OFF_79
NOTE_OFF_65
NOTE_OFF_71
NOTE_OFF_74
TIME_SHIFT_64ND_3
NOTE_ON_91
TIME_SHIFT_64ND_2
NOTE_OFF_91
NOTE_ON_89
TIME_SHIFT_64ND_2
NOTE_OFF_89
NOTE_ON_88
TIME_SHIFT_64ND_2
NOTE_OFF_88
NOTE_ON_86
TIME_SHIFT_64ND_2
NOTE_OFF_86
NOTE_ON_88
TIME_SHIFT_64ND_8
NOTE_OFF_88
TIME_SHIFT_64ND_3
NOTE_ON_67
NOTE_ON_76
NOTE_ON_79
NOTE_ON_72
TIME_SHIFT_64ND_2
NOTE_OFF_67
NOTE_ON_65
TIME_SHIFT_64ND_2
NOTE_OFF_65
NOTE_ON_64
TIME_SHIFT_64ND_2
NOTE_OFF_64
NOTE_OFF_76
NOTE_OFF_79
NOTE_OFF_72
NOTE_ON_62
TIME_SHIFT_64ND_2
NOTE_OFF_62
NOTE_ON_60
NOTE_ON_76
NOTE_ON_79
NOTE_ON_84
TIME_SHIFT_64ND_8
NOTE_OFF_60
NOTE_OFF_76
NOTE_OFF_79
NOTE_OFF_84
TIME_SHIFT_64ND_3
NOTE_ON_91
NOTE_ON_100
TIME_SHIFT_64ND_3
NOTE_OFF_91
NOTE_OFF_100
TIME_SHIFT_64ND_9
NOTE_ON_89
NOTE_ON_98
TIME_SHIFT_64ND_3
NOTE_OFF_89
NOTE_OFF_98
TIME_SHIFT_64ND_8
NOTE_ON_74
TIME_SHIFT_64ND_3
NOTE_OFF_74
NOTE_ON_72
TIME_SHIFT_64ND_3
NOTE_OFF_72
NOTE_ON_71
TIME_SHIFT_64ND_3
NOTE_OFF_71
NOTE_ON_69
TIME_SHIFT_64ND_3
NOTE_OFF_69
NOTE_ON_68
NOTE_ON_77
NOTE_ON_83
NOTE_ON_86
TIME_SHIFT_64ND_8
NOTE_OFF_68
NOTE_OFF_77
NOTE_OFF_83
NOTE_OFF_86
TIME_SHIFT_64ND_3
NOTE_ON_89
NOTE_ON_98
TIME_SHIFT_64ND_3
NOTE_OFF_89
NOTE_OFF_98
TIME_SHIFT_64ND_9
NOTE_ON_88
NOTE_ON_96
TIME_SHIFT_64ND_3
NOTE_OFF_88
NOTE_OFF_96
TIME_SHIFT_64ND_8
NOTE_ON_76
TIME_SHIFT_64ND_2
NOTE_OFF_76
NOTE_ON_74
TIME_SHIFT_64ND_2
NOTE_OFF_74
NOTE_ON_72
TIME_SHIFT_64ND_2
NOTE_OFF_72
NOTE_ON_71
TIME_SHIFT_64ND_2
NOTE_OFF_71
NOTE_ON_69
NOTE_ON_76
NOTE_ON_81
NOTE_ON_84
TIME_SHIFT_64ND_8
NOTE_OFF_69
NOTE_OFF_76
NOTE_OFF_81
NOTE_OFF_84
TIME_SHIFT_64ND_3
NOTE_ON_72
TIME_SHIFT_64ND_2
NOTE_OFF_72
NOTE_ON_71
TIME_SHIFT_64ND_2
NOTE_OFF_71
NOTE_ON_69
TIME_SHIFT_64ND_2
NOTE_OFF_69
NOTE_ON_67
TIME_SHIFT_64ND_2
NOTE_OFF_67
NOTE_ON_65
NOTE_ON_77
NOTE_ON_81
NOTE_ON_84
TIME_SHIFT_64ND_8
NOTE_OFF_65
NOTE_OFF_77
NOTE_OFF_81
NOTE_OFF_84
TIME_SHIFT_64ND_3
NOTE_ON_69
TIME_SHIFT_64ND_2
NOTE_OFF_69
NOTE_ON_67
TIME_SHIFT_64ND_2
NOTE_OFF_67
NOTE_ON_65
TIME_SHIFT_64ND_3
NOTE_OFF_65
NOTE_ON_64
TIME_SHIFT_64ND_3
NOTE_OFF_64
NOTE_ON_63
NOTE_ON_72
NOTE_ON_81
NOTE_ON_77
TIME_SHIFT_64ND_8
NOTE_OFF_63
NOTE_OFF_72
NOTE_OFF_81
NOTE_OFF_77
TIME_SHIFT_64ND_3
NOTE_ON_96
TIME_SHIFT_64ND_2
NOTE_OFF_96
NOTE_ON_93
TIME_SHIFT_64ND_2
NOTE_OFF_93
NOTE_ON_89
TIME_SHIFT_64ND_2
NOTE_OFF_89
NOTE_ON_87
TIME_SHIFT_64ND_2
NOTE_OFF_87
NOTE_ON_88
NOTE_ON_71
NOTE_ON_64
NOTE_ON_80
TIME_SHIFT_64ND_8
NOTE_OFF_88
NOTE_OFF_71
NOTE_OFF_64
NOTE_OFF_80
TIME_SHIFT_64ND_3
NOTE_ON_76
TIME_SHIFT_64ND_2
NOTE_OFF_76
NOTE_ON_71
TIME_SHIFT_64ND_2
NOTE_OFF_71
NOTE_ON_68
TIME_SHIFT_64ND_2
NOTE_OFF_68
NOTE_ON_71
TIME_SHIFT_64ND_2
NOTE_OFF_71
NOTE_ON_64
TIME_SHIFT_64ND_9
NOTE_OFF_64
TIME_SHIFT_64ND_3
NOTE_ON_79
NOTE_ON_67
NOTE_ON_55
NOTE_ON_43
TIME_SHIFT_64ND_8
NOTE_OFF_79
NOTE_OFF_67
NOTE_OFF_55
NOTE_OFF_43
TIME_SHIFT_64ND_8
NOTE_ON_84
NOTE_ON_72
NOTE_ON_60
NOTE_ON_48
TIME_SHIFT_64ND_35
NOTE_OFF_84
NOTE_OFF_72
NOTE_OFF_60
NOTE_OFF_48
NOTE_ON_79
NOTE_ON_67
NOTE_ON_55
NOTE_ON_43
TIME_SHIFT_64ND_6
NOTE_OFF_79
NOTE_OFF_67
NOTE_OFF_55
NOTE_OFF_43
TIME_SHIFT_64ND_6
NOTE_ON_76
NOTE_ON_64
NOTE_ON_52
NOTE_ON_40
TIME_SHIFT_64ND_11
NOTE_OFF_76
NOTE_OFF_64
NOTE_OFF_52
NOTE_OFF_40
NOTE_ON_72
NOTE_ON_60
NOTE_ON_48
NOTE_ON_36
TIME_SHIFT_64ND_14
NOTE_OFF_72
NOTE_OFF_60
NOTE_OFF_48
NOTE_OFF_36
TIME_SHIFT_64ND_14
NOTE_ON_60
NOTE_ON_52
TIME_SHIFT_64ND_1
NOTE_ON_62
NOTE_ON_53
NOTE_OFF_60
NOTE_OFF_52
TIME_SHIFT_64ND_1
NOTE_ON_64
NOTE_ON_55
NOTE_OFF_62
NOTE_OFF_53
TIME_SHIFT_64ND_1
NOTE_ON_65
NOTE_ON_57
NOTE_OFF_64
NOTE_OFF_55
TIME_SHIFT_64ND_1
NOTE_ON_67
NOTE_ON_59
NOTE_OFF_65
NOTE_OFF_57
TIME_SHIFT_64ND_1
NOTE_ON_69
NOTE_ON_60
NOTE_OFF_67
NOTE_OFF_59
TIME_SHIFT_64ND_1
NOTE_ON_71
NOTE_ON_62
NOTE_OFF_69
NOTE_OFF_60
TIME_SHIFT_64ND_1
NOTE_OFF_71
NOTE_OFF_62
NOTE_ON_72
NOTE_ON_64
TIME_SHIFT_64ND_1
NOTE_ON_74
NOTE_ON_65
NOTE_OFF_72
NOTE_OFF_64
TIME_SHIFT_64ND_1
NOTE_ON_76
NOTE_ON_67
NOTE_OFF_74
NOTE_OFF_65
TIME_SHIFT_64ND_1
NOTE_ON_77
NOTE_ON_69
NOTE_OFF_76
NOTE_OFF_67
TIME_SHIFT_64ND_1
NOTE_ON_79
NOTE_ON_71
NOTE_OFF_77
NOTE_OFF_69
TIME_SHIFT_64ND_1
NOTE_ON_81
NOTE_ON_72
NOTE_OFF_79
NOTE_OFF_71
TIME_SHIFT_64ND_1
NOTE_ON_83
NOTE_ON_74
NOTE_OFF_81
NOTE_OFF_72
TIME_SHIFT_64ND_1
NOTE_OFF_83
NOTE_OFF_74
NOTE_ON_84
NOTE_ON_76
TIME_SHIFT_64ND_1
NOTE_ON_86
NOTE_ON_77
NOTE_OFF_84
NOTE_OFF_76
TIME_SHIFT_64ND_1
NOTE_ON_88
NOTE_ON_79
NOTE_OFF_86
NOTE_OFF_77
TIME_SHIFT_64ND_1
NOTE_ON_89
NOTE_ON_81
NOTE_OFF_88
NOTE_OFF_79
TIME_SHIFT_64ND_1
NOTE_ON_91
NOTE_ON_83
NOTE_OFF_89
NOTE_OFF_81
TIME_SHIFT_64ND_1
NOTE_ON_93
NOTE_ON_84
NOTE_OFF_91
NOTE_OFF_83
TIME_SHIFT_64ND_1
NOTE_ON_95
NOTE_ON_86
NOTE_OFF_93
NOTE_OFF_84
TIME_SHIFT_64ND_1
NOTE_OFF_95
NOTE_OFF_86
NOTE_ON_96
NOTE_ON_88
TIME_SHIFT_64ND_5
NOTE_OFF_96
NOTE_OFF_88
TIME_SHIFT_64ND_5
NOTE_ON_93
NOTE_ON_89
NOTE_ON_100
NOTE_ON_81
NOTE_ON_77
NOTE_ON_86
TIME_SHIFT_64ND_3
NOTE_OFF_93
NOTE_OFF_89
NOTE_OFF_100
NOTE_OFF_81
NOTE_OFF_77
NOTE_OFF_86
TIME_SHIFT_64ND_3
NOTE_ON_98
NOTE_ON_93
NOTE_ON_89
NOTE_ON_86
NOTE_ON_81
NOTE_ON_77
TIME_SHIFT_64ND_3
NOTE_OFF_98
NOTE_OFF_93
NOTE_OFF_89
NOTE_OFF_86
NOTE_OFF_81
NOTE_OFF_77
NOTE_ON_67
TIME_SHIFT_64ND_3
NOTE_ON_96
NOTE_ON_88
NOTE_ON_76
NOTE_ON_84
TIME_SHIFT_64ND_2
NOTE_OFF_96
NOTE_ON_98
TIME_SHIFT_64ND_2
NOTE_OFF_98
NOTE_ON_96
TIME_SHIFT_64ND_2
NOTE_OFF_96
NOTE_ON_98
TIME_SHIFT_64ND_2
NOTE_OFF_98
NOTE_ON_96
TIME_SHIFT_64ND_2
NOTE_OFF_96
NOTE_ON_98
TIME_SHIFT_64ND_2
NOTE_OFF_98
NOTE_ON_96
TIME_SHIFT_64ND_2
NOTE_OFF_96
NOTE_ON_95
TIME_SHIFT_64ND_3
NOTE_OFF_95
NOTE_ON_98
TIME_SHIFT_64ND_3
NOTE_OFF_98
NOTE_ON_96
TIME_SHIFT_64ND_3
NOTE_OFF_96
NOTE_OFF_88
NOTE_OFF_76
NOTE_OFF_84
NOTE_OFF_67
NOTE_ON_86
NOTE_ON_95
NOTE_ON_83
NOTE_ON_74
NOTE_ON_67
TIME_SHIFT_64ND_9
NOTE_OFF_86
NOTE_OFF_95
NOTE_OFF_83
NOTE_OFF_74
NOTE_OFF_67
TIME_SHIFT_64ND_1
NOTE_ON_74
NOTE_ON_62
NOTE_ON_50
NOTE_ON_38
TIME_SHIFT_64ND_7
NOTE_OFF_74
NOTE_OFF_62
NOTE_OFF_50
NOTE_OFF_38
TIME_SHIFT_64ND_7
NOTE_ON_77
NOTE_ON_65
NOTE_ON_53
NOTE_ON_41
TIME_SHIFT_64ND_35
NOTE_OFF_77
NOTE_OFF_65
NOTE_OFF_53
NOTE_OFF_41
NOTE_ON_74
NOTE_ON_62
NOTE_ON_50
NOTE_ON_38
TIME_SHIFT_64ND_9
NOTE_OFF_74
NOTE_OFF_62
NOTE_OFF_50
NOTE_OFF_38
TIME_SHIFT_64ND_3
NOTE_ON_71
NOTE_ON_59
NOTE_ON_47
NOTE_ON_35
TIME_SHIFT_64ND_12
NOTE_OFF_71
NOTE_OFF_59
NOTE_OFF_47
NOTE_OFF_35
NOTE_ON_67
NOTE_ON_55
NOTE_ON_43
NOTE_ON_31
TIME_SHIFT_64ND_14
NOTE_OFF_67
NOTE_OFF_55
NOTE_OFF_43
NOTE_OFF_31
TIME_SHIFT_64ND_14
NOTE_ON_59
NOTE_ON_50
TIME_SHIFT_64ND_1
NOTE_ON_60
NOTE_ON_52
NOTE_OFF_59
NOTE_OFF_50
TIME_SHIFT_64ND_1
NOTE_ON_62
NOTE_ON_53
NOTE_OFF_60
NOTE_OFF_52
TIME_SHIFT_64ND_1
NOTE_ON_64
NOTE_ON_55
NOTE_OFF_62
NOTE_OFF_53
TIME_SHIFT_64ND_1
NOTE_ON_65
NOTE_ON_57
NOTE_OFF_64
NOTE_OFF_55
TIME_SHIFT_64ND_1
NOTE_ON_67
NOTE_ON_59
NOTE_OFF_65
NOTE_OFF_57
TIME_SHIFT_64ND_1
NOTE_ON_69
NOTE_ON_60
NOTE_OFF_67
NOTE_OFF_59
TIME_SHIFT_64ND_1
NOTE_OFF_69
NOTE_OFF_60
NOTE_ON_71
NOTE_ON_62
TIME_SHIFT_64ND_1
NOTE_ON_72
NOTE_ON_64
NOTE_OFF_71
NOTE_OFF_62
TIME_SHIFT_64ND_1
NOTE_ON_74
NOTE_ON_65
NOTE_OFF_72
NOTE_OFF_64
TIME_SHIFT_64ND_1
NOTE_ON_76
NOTE_ON_67
NOTE_OFF_74
NOTE_OFF_65
TIME_SHIFT_64ND_1
NOTE_ON_77
NOTE_ON_69
NOTE_OFF_76
NOTE_OFF_67
TIME_SHIFT_64ND_1
NOTE_ON_79
NOTE_ON_71
NOTE_OFF_77
NOTE_OFF_69
TIME_SHIFT_64ND_1
NOTE_ON_81
NOTE_ON_72
NOTE_OFF_79
NOTE_OFF_71
TIME_SHIFT_64ND_1
NOTE_OFF_81
NOTE_OFF_72
NOTE_ON_83
NOTE_ON_74
TIME_SHIFT_64ND_1
NOTE_ON_84
NOTE_ON_76
NOTE_OFF_83
NOTE_OFF_74
TIME_SHIFT_64ND_1
NOTE_ON_86
NOTE_ON_77
NOTE_OFF_84
NOTE_OFF_76
TIME_SHIFT_64ND_1
NOTE_ON_88
NOTE_ON_79
NOTE_OFF_86
NOTE_OFF_77
TIME_SHIFT_64ND_1
NOTE_ON_89
NOTE_ON_81
NOTE_OFF_88
NOTE_OFF_79
TIME_SHIFT_64ND_1
NOTE_ON_91
NOTE_ON_83
NOTE_OFF_89
NOTE_OFF_81
TIME_SHIFT_64ND_1
NOTE_ON_93
NOTE_ON_84
NOTE_OFF_91
NOTE_OFF_83
TIME_SHIFT_64ND_1
NOTE_OFF_93
NOTE_OFF_84
NOTE_ON_95
NOTE_ON_86
TIME_SHIFT_64ND_5
NOTE_OFF_95
NOTE_OFF_86
TIME_SHIFT_64ND_6
NOTE_ON_93
NOTE_ON_101
NOTE_ON_81
NOTE_ON_71
TIME_SHIFT_64ND_3
NOTE_OFF_93
NOTE_OFF_101
NOTE_OFF_81
NOTE_OFF_71
TIME_SHIFT_64ND_3
NOTE_ON_100
NOTE_ON_91
NOTE_ON_71
NOTE_ON_79
TIME_SHIFT_64ND_3
NOTE_OFF_100
NOTE_OFF_91
NOTE_OFF_71
NOTE_OFF_79
TIME_SHIFT_64ND_3
NOTE_ON_98
NOTE_ON_89
NOTE_ON_67
NOTE_ON_71
NOTE_ON_77
TIME_SHIFT_64ND_2
NOTE_OFF_98
NOTE_ON_100
TIME_SHIFT_64ND_2
NOTE_OFF_100
NOTE_ON_98
TIME_SHIFT_64ND_2
NOTE_OFF_98
NOTE_ON_100
TIME_SHIFT_64ND_2
NOTE_OFF_100
NOTE_ON_98
TIME_SHIFT_64ND_2
NOTE_OFF_98
NOTE_ON_100
TIME_SHIFT_64ND_2
NOTE_OFF_100
NOTE_ON_98
TIME_SHIFT_64ND_2
NOTE_OFF_98
NOTE_ON_97
TIME_SHIFT_64ND_3
NOTE_OFF_97
NOTE_ON_100
TIME_SHIFT_64ND_3
NOTE_OFF_100
NOTE_ON_98
TIME_SHIFT_64ND_3
NOTE_OFF_98
NOTE_OFF_89
NOTE_OFF_67
NOTE_OFF_71
NOTE_OFF_77
NOTE_ON_88
NOTE_ON_96
NOTE_ON_76
NOTE_ON_72
TIME_SHIFT_64ND_9
NOTE_OFF_88
NOTE_OFF_96
NOTE_OFF_76
NOTE_OFF_72
TIME_SHIFT_64ND_2
NOTE_ON_91
TIME_SHIFT_64ND_3
NOTE_OFF_91
TIME_SHIFT_64ND_8
NOTE_ON_96
TIME_SHIFT_64ND_3
NOTE_OFF_96
TIME_SHIFT_64ND_8
NOTE_ON_67
TIME_SHIFT_64ND_2
NOTE_OFF_67
NOTE_ON_65
TIME_SHIFT_64ND_2
NOTE_OFF_65
NOTE_ON_64
TIME_SHIFT_64ND_1
NOTE_ON_70
TIME_SHIFT_64ND_1
NOTE_OFF_64
NOTE_ON_62
NOTE_ON_76
TIME_SHIFT_64ND_1
NOTE_ON_79
TIME_SHIFT_64ND_1
NOTE_OFF_62
NOTE_ON_60
NOTE_ON_84
TIME_SHIFT_64ND_8
NOTE_OFF_60
NOTE_OFF_84
NOTE_OFF_70
NOTE_OFF_76
NOTE_OFF_79
TIME_SHIFT_64ND_3
NOTE_ON_84
TIME_SHIFT_64ND_2
NOTE_OFF_84
NOTE_ON_88
TIME_SHIFT_64ND_2
NOTE_OFF_88
NOTE_ON_91
TIME_SHIFT_64ND_2
NOTE_OFF_91
NOTE_ON_88
TIME_SHIFT_64ND_2
NOTE_OFF_88
NOTE_ON_89
TIME_SHIFT_64ND_8
NOTE_OFF_89
TIME_SHIFT_64ND_3
NOTE_ON_72
NOTE_ON_77
NOTE_ON_81
TIME_SHIFT_64ND_2
NOTE_OFF_72
NOTE_ON_70
TIME_SHIFT_64ND_2
NOTE_OFF_70
NOTE_ON_69
TIME_SHIFT_64ND_2
NOTE_OFF_69
NOTE_OFF_77
NOTE_OFF_81
NOTE_ON_67
TIME_SHIFT_64ND_2
NOTE_OFF_67
NOTE_ON_65
NOTE_ON_77
NOTE_ON_81
NOTE_ON_72
TIME_SHIFT_64ND_8
NOTE_OFF_65
NOTE_OFF_77
NOTE_OFF_81
NOTE_OFF_72
TIME_SHIFT_64ND_3
NOTE_ON_93
NOTE_ON_101
TIME_SHIFT_64ND_3
NOTE_OFF_93
NOTE_OFF_101
TIME_SHIFT_64ND_9
NOTE_ON_90
NOTE_ON_98
TIME_SHIFT_64ND_3
NOTE_OFF_90
NOTE_OFF_98
TIME_SHIFT_64ND_8
NOTE_ON_69
TIME_SHIFT_64ND_3
NOTE_OFF_69
NOTE_ON_67
TIME_SHIFT_64ND_3
NOTE_OFF_67
NOTE_ON_66
TIME_SHIFT_64ND_1
NOTE_ON_72
TIME_SHIFT_64ND_1
NOTE_OFF_66
NOTE_ON_64
NOTE_ON_78
TIME_SHIFT_64ND_1
NOTE_ON_81
TIME_SHIFT_64ND_1
NOTE_OFF_64
NOTE_ON_62
NOTE_ON_86
TIME_SHIFT_64ND_9
NOTE_OFF_62
NOTE_OFF_86
NOTE_OFF_72
NOTE_OFF_78
NOTE_OFF_81
TIME_SHIFT_64ND_3
NOTE_ON_86
TIME_SHIFT_64ND_2
NOTE_OFF_86
NOTE_ON_90
TIME_SHIFT_64ND_2
NOTE_OFF_90
NOTE_ON_93
TIME_SHIFT_64ND_2
NOTE_OFF_93
NOTE_ON_90
TIME_SHIFT_64ND_2
NOTE_OFF_90
NOTE_ON_91
TIME_SHIFT_64ND_8
NOTE_OFF_91
TIME_SHIFT_64ND_3
NOTE_ON_74
NOTE_ON_83
NOTE_ON_79
TIME_SHIFT_64ND_2
NOTE_OFF_74
NOTE_ON_72
TIME_SHIFT_64ND_2
NOTE_OFF_72
NOTE_ON_71
TIME_SHIFT_64ND_2
NOTE_OFF_71
NOTE_OFF_83
NOTE_OFF_79
NOTE_ON_69
TIME_SHIFT_64ND_2
NOTE_OFF_69
NOTE_ON_67
NOTE_ON_74
NOTE_ON_79
NOTE_ON_83
TIME_SHIFT_64ND_8
NOTE_OFF_67
NOTE_OFF_74
NOTE_OFF_79
NOTE_OFF_83
TIME_SHIFT_64ND_3
NOTE_ON_95
NOTE_ON_103
TIME_SHIFT_64ND_3
NOTE_OFF_95
NOTE_OFF_103
TIME_SHIFT_64ND_8
NOTE_ON_92
NOTE_ON_100
TIME_SHIFT_64ND_3
NOTE_OFF_92
NOTE_OFF_100
TIME_SHIFT_64ND_8
NOTE_ON_71
TIME_SHIFT_64ND_2
NOTE_OFF_71
NOTE_ON_69
TIME_SHIFT_64ND_2
NOTE_OFF_69
NOTE_ON_68
TIME_SHIFT_64ND_1
NOTE_ON_74
TIME_SHIFT_64ND_1
NOTE_OFF_68
NOTE_ON_66
NOTE_ON_80
TIME_SHIFT_64ND_1
NOTE_ON_83
TIME_SHIFT_64ND_1
NOTE_OFF_66
NOTE_ON_64
NOTE_ON_88
TIME_SHIFT_64ND_8
NOTE_OFF_64
NOTE_OFF_88
NOTE_OFF_74
NOTE_OFF_80
NOTE_OFF_83
TIME_SHIFT_64ND_3
NOTE_ON_88
TIME_SHIFT_64ND_2
NOTE_OFF_88
NOTE_ON_92
TIME_SHIFT_64ND_2
NOTE_OFF_92
NOTE_ON_95
TIME_SHIFT_64ND_2
NOTE_OFF_95
NOTE_ON_92
TIME_SHIFT_64ND_2
NOTE_OFF_92
NOTE_ON_93
TIME_SHIFT_64ND_8
NOTE_OFF_93
TIME_SHIFT_64ND_3
NOTE_ON_76
NOTE_ON_81
NOTE_ON_84
TIME_SHIFT_64ND_2
NOTE_OFF_76
NOTE_ON_74
TIME_SHIFT_64ND_2
NOTE_OFF_74
NOTE_ON_72
TIME_SHIFT_64ND_2
NOTE_OFF_72
NOTE_OFF_81
NOTE_OFF_84
NOTE_ON_71
TIME_SHIFT_64ND_2
NOTE_OFF_71
NOTE_ON_69
NOTE_ON_76
NOTE_ON_81
NOTE_ON_84
TIME_SHIFT_64ND_8
NOTE_OFF_69
NOTE_OFF_76
NOTE_OFF_81
NOTE_OFF_84
TIME_SHIFT_64ND_3
NOTE_ON_76
TIME_SHIFT_64ND_2
NOTE_OFF_76
NOTE_ON_72
TIME_SHIFT_64ND_2
NOTE_OFF_72
NOTE_ON_69
TIME_SHIFT_64ND_2
NOTE_OFF_69
NOTE_ON_67
TIME_SHIFT_64ND_2
NOTE_OFF_67
NOTE_ON_65
TIME_SHIFT_64ND_8
NOTE_OFF_65
TIME_SHIFT_64ND_3
NOTE_ON_89
NOTE_ON_81
NOTE_ON_77
NOTE_ON_72
TIME_SHIFT_64ND_2
NOTE_OFF_89
NOTE_ON_93
TIME_SHIFT_64ND_2
NOTE_OFF_93
NOTE_ON_96
TIME_SHIFT_64ND_2
NOTE_OFF_96
NOTE_OFF_81
NOTE_OFF_77
NOTE_OFF_72
NOTE_ON_93
TIME_SHIFT_64ND_2
NOTE_OFF_93
NOTE_ON_89
NOTE_ON_77
NOTE_ON_81
NOTE_ON_84
TIME_SHIFT_64ND_8
NOTE_OFF_89
NOTE_OFF_77
NOTE_OFF_81
NOTE_OFF_84
TIME_SHIFT_64ND_3
NOTE_ON_77
TIME_SHIFT_64ND_2
NOTE_OFF_77
NOTE_ON_72
TIME_SHIFT_64ND_2
NOTE_OFF_72
NOTE_ON_69
TIME_SHIFT_64ND_2
NOTE_OFF_69
NOTE_ON_65
TIME_SHIFT_64ND_2
NOTE_OFF_65
NOTE_ON_64
TIME_SHIFT_64ND_8
NOTE_OFF_64
TIME_SHIFT_64ND_3
NOTE_ON_88
NOTE_ON_81
NOTE_ON_76
NOTE_ON_72
TIME_SHIFT_64ND_2
NOTE_OFF_88
NOTE_ON_93
TIME_SHIFT_64ND_2
NOTE_OFF_93
NOTE_ON_96
TIME_SHIFT_64ND_2
NOTE_OFF_96
NOTE_OFF_81
NOTE_OFF_76
NOTE_OFF_72
NOTE_ON_93
TIME_SHIFT_64ND_2
NOTE_OFF_93
NOTE_ON_88
NOTE_ON_76
NOTE_ON_81
NOTE_ON_84
TIME_SHIFT_64ND_8
NOTE_OFF_88
NOTE_OFF_76
NOTE_OFF_81
NOTE_OFF_84
TIME_SHIFT_64ND_3
NOTE_ON_76
TIME_SHIFT_64ND_2
NOTE_OFF_76
NOTE_ON_72
TIME_SHIFT_64ND_2
NOTE_OFF_72
NOTE_ON_69
TIME_SHIFT_64ND_2
NOTE_OFF_69
NOTE_ON_64
TIME_SHIFT_64ND_2
NOTE_OFF_64
NOTE_ON_63
TIME_SHIFT_64ND_8
NOTE_OFF_63
TIME_SHIFT_64ND_3
NOTE_ON_87
NOTE_ON_81
NOTE_ON_78
NOTE_ON_72
TIME_SHIFT_64ND_2
NOTE_OFF_87
NOTE_ON_93
TIME_SHIFT_64ND_2
NOTE_OFF_93
NOTE_ON_96
TIME_SHIFT_64ND_2
NOTE_OFF_96
NOTE_OFF_81
NOTE_OFF_78
NOTE_OFF_72
NOTE_ON_93
TIME_SHIFT_64ND_2
NOTE_OFF_93
NOTE_ON_87
NOTE_ON_78
NOTE_ON_81
NOTE_ON_84
TIME_SHIFT_64ND_8
NOTE_OFF_87
NOTE_OFF_78
NOTE_OFF_81
NOTE_OFF_84
TIME_SHIFT_64ND_3
NOTE_ON_75
TIME_SHIFT_64ND_2
NOTE_OFF_75
NOTE_ON_72
TIME_SHIFT_64ND_2
NOTE_OFF_72
NOTE_ON_69
TIME_SHIFT_64ND_2
NOTE_OFF_69
NOTE_ON_66
TIME_SHIFT_64ND_2
NOTE_OFF_66
NOTE_ON_64
TIME_SHIFT_64ND_8
NOTE_OFF_64
TIME_SHIFT_64ND_3
NOTE_ON_88
NOTE_ON_79
NOTE_ON_76
NOTE_ON_71
TIME_SHIFT_64ND_2
NOTE_OFF_88
NOTE_ON_91
TIME_SHIFT_64ND_2
NOTE_OFF_91
NOTE_ON_95
TIME_SHIFT_64ND_2
NOTE_OFF_95
NOTE_OFF_79
NOTE_OFF_76
NOTE_OFF_71
NOTE_ON_91
TIME_SHIFT_64ND_2
NOTE_OFF_91
NOTE_ON_88
NOTE_ON_76
NOTE_ON_79
NOTE_ON_83
TIME_SHIFT_64ND_8
NOTE_OFF_88
NOTE_OFF_76
NOTE_OFF_79
NOTE_OFF_83
TIME_SHIFT_64ND_3
NOTE_ON_71
TIME_SHIFT_64ND_2
NOTE_OFF_71
NOTE_ON_67
TIME_SHIFT_64ND_2
NOTE_OFF_67
NOTE_ON_64
TIME_SHIFT_64ND_2
NOTE_OFF_64
NOTE_ON_62
TIME_SHIFT_64ND_2
NOTE_OFF_62
NOTE_ON_60
TIME_SHIFT_64ND_8
NOTE_OFF_60
TIME_SHIFT_64ND_3
NOTE_ON_88
NOTE_ON_84
NOTE_ON_79
NOTE_ON_76
NOTE_ON_67
TIME_SHIFT_64ND_2
NOTE_OFF_88
NOTE_ON_91
TIME_SHIFT_64ND_2
NOTE_OFF_91
NOTE_ON_96
TIME_SHIFT_64ND_2
NOTE_OFF_96
NOTE_OFF_79
NOTE_OFF_76
NOTE_OFF_67
NOTE_ON_91
TIME_SHIFT_64ND_2
NOTE_OFF_91
NOTE_OFF_84
NOTE_ON_88
NOTE_ON_84
NOTE_ON_76
NOTE_ON_79
NOTE_ON_72
TIME_SHIFT_64ND_5
NOTE_OFF_88
NOTE_OFF_84
NOTE_OFF_76
NOTE_OFF_79
NOTE_OFF_72
TIME_SHIFT_64ND_5
NOTE_ON_72
TIME_SHIFT_64ND_2
NOTE_OFF_72
NOTE_ON_67
TIME_SHIFT_64ND_2
NOTE_OFF_67
NOTE_ON_64
TIME_SHIFT_64ND_2
NOTE_OFF_64
NOTE_ON_60
TIME_SHIFT_64ND_2
NOTE_OFF_60
NOTE_ON_59
TIME_SHIFT_64ND_7
NOTE_OFF_59
TIME_SHIFT_64ND_2
NOTE_ON_88
NOTE_ON_83
NOTE_ON_79
NOTE_ON_76
NOTE_ON_67
TIME_SHIFT_64ND_2
NOTE_OFF_88
NOTE_ON_91
TIME_SHIFT_64ND_2
NOTE_OFF_91
NOTE_ON_95
TIME_SHIFT_64ND_2
NOTE_OFF_95
NOTE_OFF_79
NOTE_OFF_76
NOTE_OFF_67
NOTE_ON_91
TIME_SHIFT_64ND_2
NOTE_OFF_91
NOTE_OFF_83
NOTE_ON_88
NOTE_ON_83
NOTE_ON_76
NOTE_ON_79
NOTE_ON_71
TIME_SHIFT_64ND_5
NOTE_OFF_88
NOTE_OFF_83
NOTE_OFF_76
NOTE_OFF_79
NOTE_OFF_71
TIME_SHIFT_64ND_5
NOTE_ON_71
TIME_SHIFT_64ND_2
NOTE_OFF_71
NOTE_ON_67
TIME_SHIFT_64ND_2
NOTE_OFF_67
NOTE_ON_64
TIME_SHIFT_64ND_2
NOTE_OFF_64
NOTE_ON_59
TIME_SHIFT_64ND_2
NOTE_OFF_59
NOTE_ON_58
TIME_SHIFT_64ND_8
NOTE_OFF_58
TIME_SHIFT_64ND_3
NOTE_ON_88
NOTE_ON_82
NOTE_ON_79
NOTE_ON_76
NOTE_ON_67
TIME_SHIFT_64ND_3
NOTE_OFF_88
NOTE_ON_91
TIME_SHIFT_64ND_3
NOTE_OFF_91
NOTE_ON_94
TIME_SHIFT_64ND_3
NOTE_OFF_94
NOTE_OFF_79
NOTE_OFF_76
NOTE_OFF_67
NOTE_ON_91
TIME_SHIFT_64ND_3
NOTE_OFF_91
NOTE_OFF_82
NOTE_ON_88
NOTE_ON_82
NOTE_ON_76
NOTE_ON_79
NOTE_ON_73
TIME_SHIFT_64ND_5
NOTE_OFF_88
NOTE_OFF_82
NOTE_OFF_76
NOTE_OFF_79
NOTE_OFF_73
TIME_SHIFT_64ND_5
NOTE_ON_70
NOTE_ON_79
NOTE_ON_76
NOTE_ON_73
TIME_SHIFT_64ND_2
NOTE_OFF_70
NOTE_ON_67
TIME_SHIFT_64ND_2
NOTE_OFF_67
NOTE_ON_64
TIME_SHIFT_64ND_2
NOTE_OFF_64
NOTE_OFF_79
NOTE_OFF_76
NOTE_OFF_73
NOTE_ON_61
TIME_SHIFT_64ND_2
NOTE_OFF_61
NOTE_ON_59
NOTE_ON_83
NOTE_ON_78
NOTE_ON_75
TIME_SHIFT_64ND_8
NOTE_OFF_59
NOTE_OFF_83
NOTE_OFF_78
NOTE_OFF_75
TIME_SHIFT_64ND_3
NOTE_ON_87
TIME_SHIFT_64ND_2
NOTE_OFF_87
NOTE_ON_95
TIME_SHIFT_64ND_2
NOTE_OFF_95
NOTE_ON_90
TIME_SHIFT_64ND_2
NOTE_OFF_90
NOTE_ON_87
TIME_SHIFT_64ND_2
NOTE_OFF_87
NOTE_ON_83
NOTE_ON_75
TIME_SHIFT_64ND_2
NOTE_OFF_83
NOTE_OFF_75
NOTE_ON_83
TIME_SHIFT_64ND_2
NOTE_OFF_83
NOTE_ON_78
TIME_SHIFT_64ND_2
NOTE_OFF_78
NOTE_ON_75
TIME_SHIFT_64ND_2
NOTE_OFF_75
NOTE_ON_81
TIME_SHIFT_64ND_2
NOTE_OFF_81
NOTE_ON_83
TIME_SHIFT_64ND_2
NOTE_OFF_83
NOTE_ON_81
TIME_SHIFT_64ND_2
NOTE_OFF_81
NOTE_ON_78
TIME_SHIFT_64ND_2
NOTE_OFF_78
NOTE_ON_76
NOTE_ON_67
TIME_SHIFT_64ND_2
NOTE_OFF_76
NOTE_OFF_67
NOTE_ON_76
TIME_SHIFT_64ND_2
NOTE_OFF_76
NOTE_ON_71
TIME_SHIFT_64ND_2
NOTE_OFF_71
NOTE_ON_67
TIME_SHIFT_64ND_2
NOTE_OFF_67
NOTE_ON_76
TIME_SHIFT_64ND_2
NOTE_OFF_76
NOTE_ON_79
TIME_SHIFT_64ND_2
NOTE_OFF_79
NOTE_ON_76
TIME_SHIFT_64ND_2
NOTE_OFF_76
NOTE_ON_74
TIME_SHIFT_64ND_2
NOTE_OFF_74
NOTE_ON_72
NOTE_ON_64
TIME_SHIFT_64ND_2
NOTE_OFF_72
NOTE_OFF_64
NOTE_ON_72
TIME_SHIFT_64ND_2
NOTE_OFF_72
NOTE_ON_67
TIME_SHIFT_64ND_2
NOTE_OFF_67
NOTE_ON_64
TIME_SHIFT_64ND_2
NOTE_OFF_64
NOTE_ON_72
TIME_SHIFT_64ND_2
NOTE_OFF_72
NOTE_ON_76
TIME_SHIFT_64ND_2
NOTE_OFF_76
NOTE_ON_72
TIME_SHIFT_64ND_2
NOTE_OFF_72
NOTE_ON_70
TIME_SHIFT_64ND_2
NOTE_OFF_70
NOTE_ON_71
NOTE_ON_63
TIME_SHIFT_64ND_2
NOTE_OFF_71
NOTE_OFF_63
NOTE_ON_71
TIME_SHIFT_64ND_2
NOTE_OFF_71
NOTE_ON_66
TIME_SHIFT_64ND_2
NOTE_OFF_66
NOTE_ON_63
TIME_SHIFT_64ND_2
NOTE_OFF_63
NOTE_ON_75
TIME_SHIFT_64ND_2
NOTE_OFF_75
NOTE_ON_83
TIME_SHIFT_64ND_2
NOTE_OFF_83
NOTE_ON_78
TIME_SHIFT_64ND_2
NOTE_OFF_78
NOTE_ON_75
TIME_SHIFT_64ND_2
NOTE_OFF_75
NOTE_ON_71
NOTE_ON_63
TIME_SHIFT_64ND_2
NOTE_OFF_71
NOTE_OFF_63
NOTE_ON_71
TIME_SHIFT_64ND_2
NOTE_OFF_71
NOTE_ON_66
TIME_SHIFT_64ND_2
NOTE_OFF_66
NOTE_ON_63
TIME_SHIFT_64ND_2
NOTE_OFF_63
NOTE_ON_69
TIME_SHIFT_64ND_2
NOTE_OFF_69
NOTE_ON_71
TIME_SHIFT_64ND_2
NOTE_OFF_71
NOTE_ON_69
TIME_SHIFT_64ND_2
NOTE_OFF_69
NOTE_ON_66
TIME_SHIFT_64ND_2
NOTE_OFF_66
NOTE_ON_64
NOTE_ON_55
TIME_SHIFT_64ND_2
NOTE_OFF_64
NOTE_OFF_55
NOTE_ON_64
TIME_SHIFT_64ND_2
NOTE_OFF_64
NOTE_ON_59
TIME_SHIFT_64ND_2
NOTE_OFF_59
NOTE_ON_55
TIME_SHIFT_64ND_2
NOTE_OFF_55
NOTE_ON_64
TIME_SHIFT_64ND_2
NOTE_OFF_64
NOTE_ON_67
TIME_SHIFT_64ND_2
NOTE_OFF_67
NOTE_ON_64
TIME_SHIFT_64ND_2
NOTE_OFF_64
NOTE_ON_62
TIME_SHIFT_64ND_2
NOTE_OFF_62
NOTE_ON_60
NOTE_ON_52
TIME_SHIFT_64ND_2
NOTE_OFF_60
NOTE_OFF_52
NOTE_ON_60
TIME_SHIFT_64ND_2
NOTE_OFF_60
NOTE_ON_55
TIME_SHIFT_64ND_2
NOTE_OFF_55
NOTE_ON_52
TIME_SHIFT_64ND_2
NOTE_OFF_52
NOTE_ON_60
TIME_SHIFT_64ND_2
NOTE_OFF_60
NOTE_ON_64
TIME_SHIFT_64ND_2
NOTE_OFF_64
NOTE_ON_60
TIME_SHIFT_64ND_2
NOTE_OFF_60
NOTE_ON_58
TIME_SHIFT_64ND_2
NOTE_OFF_58
NOTE_ON_59
NOTE_ON_51
TIME_SHIFT_64ND_2
NOTE_ON_55
NOTE_OFF_51
TIME_SHIFT_64ND_2
NOTE_OFF_55
NOTE_ON_54
TIME_SHIFT_64ND_2
NOTE_ON_51
NOTE_OFF_54
TIME_SHIFT_64ND_2
NOTE_OFF_51
NOTE_ON_47
TIME_SHIFT_64ND_2
NOTE_ON_63
NOTE_ON_54
NOTE_OFF_59
NOTE_OFF_47
TIME_SHIFT_64ND_2
NOTE_ON_66
NOTE_ON_58
NOTE_OFF_63
NOTE_OFF_54
TIME_SHIFT_64ND_2
NOTE_OFF_58
NOTE_ON_70
NOTE_ON_59
NOTE_OFF_66
TIME_SHIFT_64ND_2
NOTE_OFF_70
NOTE_OFF_59
NOTE_ON_71
NOTE_ON_63
TIME_SHIFT_64ND_2
NOTE_ON_75
NOTE_ON_66
NOTE_OFF_71
NOTE_OFF_63
TIME_SHIFT_64ND_2
NOTE_ON_78
NOTE_ON_70
NOTE_OFF_75
NOTE_OFF_66
TIME_SHIFT_64ND_2
NOTE_ON_82
NOTE_ON_71
NOTE_OFF_78
NOTE_OFF_70
TIME_SHIFT_64ND_2
NOTE_OFF_82
NOTE_OFF_71
NOTE_ON_83
NOTE_ON_75
TIME_SHIFT_64ND_2
NOTE_ON_87
NOTE_ON_78
NOTE_OFF_83
NOTE_OFF_75
TIME_SHIFT_64ND_2
NOTE_ON_90
NOTE_ON_82
NOTE_OFF_87
NOTE_OFF_78
TIME_SHIFT_64ND_2
NOTE_ON_94
NOTE_ON_83
NOTE_OFF_90
NOTE_OFF_82
TIME_SHIFT_64ND_2
NOTE_OFF_94
NOTE_OFF_83
NOTE_ON_95
NOTE_ON_87
TIME_SHIFT_64ND_12
NOTE_OFF_95
NOTE_OFF_87
TIME_SHIFT_64ND_35
NOTE_ON_95
NOTE_ON_92
TIME_SHIFT_64ND_4
NOTE_OFF_95
NOTE_OFF_92
NOTE_ON_93
NOTE_ON_90
TIME_SHIFT_64ND_4
NOTE_OFF_93
NOTE_OFF_90
NOTE_ON_92
NOTE_ON_88
NOTE_ON_76
NOTE_ON_83
TIME_SHIFT_64ND_3
NOTE_OFF_76
NOTE_OFF_83
TIME_SHIFT_64ND_1
NOTE_ON_83
NOTE_ON_76
TIME_SHIFT_64ND_3
NOTE_OFF_83
NOTE_OFF_76
NOTE_OFF_92
NOTE_OFF_88
TIME_SHIFT_64ND_1
NOTE_ON_92
NOTE_ON_88
TIME_SHIFT_64ND_4
NOTE_OFF_92
NOTE_OFF_88
NOTE_ON_90
NOTE_ON_83
TIME_SHIFT_64ND_4
NOTE_OFF_90
NOTE_OFF_83
NOTE_ON_88
NOTE_ON_80
NOTE_ON_76
NOTE_ON_71
TIME_SHIFT_64ND_3
NOTE_OFF_76
NOTE_OFF_71
TIME_SHIFT_64ND_1
NOTE_ON_76
NOTE_ON_71
TIME_SHIFT_64ND_3
NOTE_OFF_76
NOTE_OFF_71
NOTE_OFF_88
NOTE_OFF_80
TIME_SHIFT_64ND_1
NOTE_ON_80
NOTE_ON_83
TIME_SHIFT_64ND_4
NOTE_OFF_80
NOTE_OFF_83
NOTE_ON_81
NOTE_ON_78
TIME_SHIFT_64ND_4
NOTE_OFF_81
NOTE_OFF_78
NOTE_ON_80
NOTE_ON_76
NOTE_ON_71
NOTE_ON_64
TIME_SHIFT_64ND_3
NOTE_OFF_71
NOTE_OFF_64
TIME_SHIFT_64ND_1
NOTE_ON_71
NOTE_ON_64
TIME_SHIFT_64ND_3
NOTE_OFF_71
NOTE_OFF_64
NOTE_OFF_80
NOTE_OFF_76
TIME_SHIFT_64ND_1
NOTE_ON_80
NOTE_ON_76
TIME_SHIFT_64ND_4
NOTE_OFF_80
NOTE_OFF_76
NOTE_ON_78
NOTE_ON_71
TIME_SHIFT_64ND_4
NOTE_OFF_78
NOTE_OFF_71
NOTE_ON_76
NOTE_ON_68
NOTE_ON_59
NOTE_ON_64
TIME_SHIFT_64ND_3
NOTE_OFF_59
NOTE_OFF_64
TIME_SHIFT_64ND_1
NOTE_ON_64
NOTE_ON_59
TIME_SHIFT_64ND_3
NOTE_OFF_64
NOTE_OFF_59
NOTE_OFF_76
NOTE_OFF_68
TIME_SHIFT_64ND_1
NOTE_ON_76
NOTE_ON_68
TIME_SHIFT_64ND_4
NOTE_OFF_76
NOTE_OFF_68
NOTE_ON_78
NOTE_ON_71
TIME_SHIFT_64ND_4
NOTE_OFF_78
NOTE_OFF_71
NOTE_ON_80
NOTE_ON_76
NOTE_ON_59
NOTE_ON_52
TIME_SHIFT_64ND_3
NOTE_OFF_59
NOTE_OFF_52
TIME_SHIFT_64ND_1
NOTE_ON_59
NOTE_ON_52
TIME_SHIFT_64ND_3
NOTE_OFF_59
NOTE_OFF_52
NOTE_OFF_80
NOTE_OFF_76
TIME_SHIFT_64ND_1
NOTE_ON_78
NOTE_ON_71
TIME_SHIFT_64ND_4
NOTE_OFF_78
NOTE_OFF_71
NOTE_ON_80
NOTE_ON_76
TIME_SHIFT_64ND_4
NOTE_OFF_80
NOTE_OFF_76
NOTE_ON_81
NOTE_ON_78
NOTE_ON_63
NOTE_ON_71
TIME_SHIFT_64ND_3
NOTE_OFF_63
NOTE_OFF_71
TIME_SHIFT_64ND_1
NOTE_ON_71
NOTE_ON_63
TIME_SHIFT_64ND_3
NOTE_OFF_71
NOTE_OFF_63
NOTE_OFF_81
NOTE_OFF_78
TIME_SHIFT_64ND_1
NOTE_ON_78
NOTE_ON_71
TIME_SHIFT_64ND_4
NOTE_OFF_78
NOTE_OFF_71
NOTE_ON_81
NOTE_ON_78
TIME_SHIFT_64ND_4
NOTE_OFF_81
NOTE_OFF_78
NOTE_ON_83
NOTE_ON_80
NOTE_ON_59
NOTE_ON_52
TIME_SHIFT_64ND_3
NOTE_OFF_59
NOTE_OFF_52
TIME_SHIFT_64ND_1
NOTE_ON_59
NOTE_ON_52
TIME_SHIFT_64ND_3
NOTE_OFF_59
NOTE_OFF_52
NOTE_OFF_83
NOTE_OFF_80
TIME_SHIFT_64ND_1
NOTE_ON_81
NOTE_ON_78
TIME_SHIFT_64ND_4
NOTE_OFF_81
NOTE_OFF_78
NOTE_ON_80
NOTE_ON_76
TIME_SHIFT_64ND_4
NOTE_OFF_80
NOTE_OFF_76
NOTE_ON_78
NOTE_ON_71
NOTE_ON_71
NOTE_ON_59
TIME_SHIFT_64ND_3
NOTE_OFF_71
NOTE_OFF_59
TIME_SHIFT_64ND_1
NOTE_ON_71
NOTE_ON_59
TIME_SHIFT_64ND_3
NOTE_OFF_71
NOTE_OFF_59
NOTE_OFF_78
NOTE_OFF_71
TIME_SHIFT_64ND_1
NOTE_ON_95
NOTE_ON_92
TIME_SHIFT_64ND_4
NOTE_OFF_95
NOTE_OFF_92
NOTE_ON_93
NOTE_ON_90
TIME_SHIFT_64ND_4
NOTE_OFF_93
NOTE_OFF_90
NOTE_ON_92
NOTE_ON_88
NOTE_ON_76
NOTE_ON_83
TIME_SHIFT_64ND_3
NOTE_OFF_76
NOTE_OFF_83
TIME_SHIFT_64ND_1
NOTE_ON_83
NOTE_ON_76
TIME_SHIFT_64ND_3
NOTE_OFF_83
NOTE_OFF_76
NOTE_OFF_92
NOTE_OFF_88
TIME_SHIFT_64ND_1
NOTE_ON_92
NOTE_ON_88
TIME_SHIFT_64ND_4
NOTE_OFF_92
NOTE_OFF_88
NOTE_ON_90
NOTE_ON_83
TIME_SHIFT_64ND_4
NOTE_OFF_90
NOTE_OFF_83
NOTE_ON_88
NOTE_ON_80
NOTE_ON_76
NOTE_ON_71
TIME_SHIFT_64ND_3
NOTE_OFF_76
NOTE_OFF_71
TIME_SHIFT_64ND_1
NOTE_ON_76
NOTE_ON_71
TIME_SHIFT_64ND_3
NOTE_OFF_76
NOTE_OFF_71
NOTE_OFF_88
NOTE_OFF_80
TIME_SHIFT_64ND_1
NOTE_ON_80
NOTE_ON_83
TIME_SHIFT_64ND_4
NOTE_OFF_80
NOTE_OFF_83
NOTE_ON_81
NOTE_ON_78
TIME_SHIFT_64ND_4
NOTE_OFF_81
NOTE_OFF_78
NOTE_ON_80
NOTE_ON_76
NOTE_ON_71
NOTE_ON_64
TIME_SHIFT_64ND_3
NOTE_OFF_71
NOTE_OFF_64
TIME_SHIFT_64ND_1
NOTE_ON_71
NOTE_ON_64
TIME_SHIFT_64ND_3
NOTE_OFF_71
NOTE_OFF_64
NOTE_OFF_80
NOTE_OFF_76
TIME_SHIFT_64ND_1
NOTE_ON_80
NOTE_ON_76
TIME_SHIFT_64ND_4
NOTE_OFF_80
NOTE_OFF_76
NOTE_ON_78
NOTE_ON_71
TIME_SHIFT_64ND_4
NOTE_OFF_78
NOTE_OFF_71
NOTE_ON_76
NOTE_ON_68
NOTE_ON_64
NOTE_ON_59
TIME_SHIFT_64ND_3
NOTE_OFF_64
NOTE_OFF_59
TIME_SHIFT_64ND_1
NOTE_ON_64
NOTE_ON_59
TIME_SHIFT_64ND_3
NOTE_OFF_64
NOTE_OFF_59
NOTE_OFF_76
NOTE_OFF_68
TIME_SHIFT_64ND_1
NOTE_ON_76
NOTE_ON_68
TIME_SHIFT_64ND_4
NOTE_OFF_76
NOTE_OFF_68
NOTE_ON_78
NOTE_ON_71
TIME_SHIFT_64ND_4
NOTE_OFF_78
NOTE_OFF_71
NOTE_ON_80
NOTE_ON_76
NOTE_ON_59
NOTE_ON_52
TIME_SHIFT_64ND_3
NOTE_OFF_59
NOTE_OFF_52
TIME_SHIFT_64ND_1
NOTE_ON_59
NOTE_ON_52
TIME_SHIFT_64ND_3
NOTE_OFF_59
NOTE_OFF_52
NOTE_OFF_80
NOTE_OFF_76
TIME_SHIFT_64ND_1
NOTE_ON_81
NOTE_ON_78
TIME_SHIFT_64ND_4
NOTE_OFF_81
NOTE_OFF_78
NOTE_ON_80
NOTE_ON_76
TIME_SHIFT_64ND_4
NOTE_OFF_80
NOTE_OFF_76
NOTE_ON_78
NOTE_ON_71
NOTE_ON_59
NOTE_ON_63
TIME_SHIFT_64ND_3
NOTE_OFF_59
NOTE_OFF_63
TIME_SHIFT_64ND_1
NOTE_ON_63
NOTE_ON_59
TIME_SHIFT_64ND_3
NOTE_OFF_63
NOTE_OFF_59
NOTE_OFF_78
NOTE_OFF_71
TIME_SHIFT_64ND_1
NOTE_ON_80
NOTE_ON_76
TIME_SHIFT_64ND_4
NOTE_OFF_80
NOTE_OFF_76
NOTE_ON_78
NOTE_ON_71
TIME_SHIFT_64ND_4
NOTE_OFF_78
NOTE_OFF_71
NOTE_ON_76
NOTE_ON_68
NOTE_ON_52
NOTE_ON_59
TIME_SHIFT_64ND_3
NOTE_OFF_52
NOTE_OFF_59
TIME_SHIFT_64ND_1
NOTE_ON_52
NOTE_ON_59
TIME_SHIFT_64ND_3
NOTE_OFF_52
NOTE_OFF_59
TIME_SHIFT_64ND_1
NOTE_ON_64
TIME_SHIFT_64ND_3
NOTE_OFF_64
TIME_SHIFT_64ND_1
NOTE_ON_64
TIME_SHIFT_64ND_3
NOTE_OFF_64
TIME_SHIFT_64ND_1
NOTE_OFF_76
NOTE_OFF_68
NOTE_ON_71
TIME_SHIFT_64ND_9
NOTE_OFF_71
NOTE_ON_64
NOTE_ON_56
TIME_SHIFT_64ND_2
NOTE_OFF_64
NOTE_OFF_56
TIME_SHIFT_64ND_2
NOTE_ON_68
NOTE_ON_64
TIME_SHIFT_64ND_2
NOTE_OFF_68
NOTE_OFF_64
TIME_SHIFT_64ND_2
NOTE_ON_66
NOTE_ON_59
TIME_SHIFT_64ND_7
NOTE_OFF_66
NOTE_OFF_59
TIME_SHIFT_64ND_1
NOTE_ON_68
NOTE_ON_64
TIME_SHIFT_64ND_2
NOTE_OFF_68
NOTE_OFF_64
TIME_SHIFT_64ND_2
NOTE_ON_69
NOTE_ON_66
TIME_SHIFT_64ND_2
NOTE_OFF_69
NOTE_OFF_66
TIME_SHIFT_64ND_2
NOTE_ON_71
NOTE_ON_68
TIME_SHIFT_64ND_7
NOTE_OFF_71
NOTE_OFF_68
TIME_SHIFT_64ND_1
NOTE_ON_73
NOTE_ON_69
TIME_SHIFT_64ND_2
NOTE_OFF_73
NOTE_OFF_69
TIME_SHIFT_64ND_2
NOTE_ON_71
NOTE_ON_68
TIME_SHIFT_64ND_2
NOTE_OFF_71
NOTE_OFF_68
TIME_SHIFT_64ND_2
NOTE_ON_69
NOTE_ON_66
TIME_SHIFT_64ND_7
NOTE_OFF_69
NOTE_OFF_66
TIME_SHIFT_64ND_1
NOTE_ON_68
NOTE_ON_64
TIME_SHIFT_64ND_2
NOTE_OFF_68
NOTE_OFF_64
TIME_SHIFT_64ND_2
NOTE_ON_69
NOTE_ON_66
TIME_SHIFT_64ND_2
NOTE_OFF_69
NOTE_OFF_66
TIME_SHIFT_64ND_2
NOTE_ON_66
NOTE_ON_59
TIME_SHIFT_64ND_7
NOTE_OFF_66
NOTE_OFF_59
TIME_SHIFT_64ND_1
NOTE_ON_64
NOTE_ON_56
TIME_SHIFT_64ND_2
NOTE_OFF_64
NOTE_OFF_56
TIME_SHIFT_64ND_2
NOTE_ON_68
NOTE_ON_64
TIME_SHIFT_64ND_2
NOTE_OFF_68
NOTE_OFF_64
TIME_SHIFT_64ND_2
NOTE_ON_66
NOTE_ON_59
TIME_SHIFT_64ND_7
NOTE_OFF_66
NOTE_OFF_59
TIME_SHIFT_64ND_1
NOTE_ON_68
NOTE_ON_64
TIME_SHIFT_64ND_2
NOTE_OFF_68
NOTE_OFF_64
TIME_SHIFT_64ND_2
NOTE_ON_69
NOTE_ON_66
TIME_SHIFT_64ND_2
NOTE_OFF_69
NOTE_OFF_66
TIME_SHIFT_64ND_2
NOTE_ON_71
NOTE_ON_68
TIME_SHIFT_64ND_7
NOTE_OFF_71
NOTE_OFF_68
TIME_SHIFT_64ND_1
NOTE_ON_73
NOTE_ON_69
TIME_SHIFT_64ND_2
NOTE_OFF_73
NOTE_OFF_69
TIME_SHIFT_64ND_2
NOTE_ON_71
NOTE_ON_68
TIME_SHIFT_64ND_2
NOTE_OFF_71
NOTE_OFF_68
TIME_SHIFT_64ND_2
NOTE_ON_69
NOTE_ON_66
TIME_SHIFT_64ND_11
NOTE_OFF_69
NOTE_OFF_66
TIME_SHIFT_64ND_1
NOTE_ON_68
NOTE_ON_64
TIME_SHIFT_64ND_4
NOTE_OFF_68
NOTE_OFF_64
TIME_SHIFT_64ND_4
NOTE_ON_69
NOTE_ON_66
TIME_SHIFT_64ND_4
NOTE_OFF_69
NOTE_OFF_66
TIME_SHIFT_64ND_5
NOTE_ON_66
NOTE_ON_59
TIME_SHIFT_64ND_18
NOTE_OFF_66
NOTE_OFF_59
TIME_SHIFT_64ND_6
NOTE_ON_95
NOTE_ON_92
TIME_SHIFT_64ND_4
NOTE_OFF_95
NOTE_OFF_92
NOTE_ON_93
NOTE_ON_90
TIME_SHIFT_64ND_4
NOTE_OFF_93
NOTE_OFF_90
NOTE_ON_92
NOTE_ON_88
NOTE_ON_76
NOTE_ON_83
TIME_SHIFT_64ND_3
NOTE_OFF_76
NOTE_OFF_83
TIME_SHIFT_64ND_1
NOTE_ON_83
NOTE_ON_76
TIME_SHIFT_64ND_3
NOTE_OFF_83
NOTE_OFF_76
NOTE_OFF_92
NOTE_OFF_88
TIME_SHIFT_64ND_1
NOTE_ON_92
NOTE_ON_88
TIME_SHIFT_64ND_4
NOTE_OFF_92
NOTE_OFF_88
NOTE_ON_90
NOTE_ON_83
TIME_SHIFT_64ND_4
NOTE_OFF_90
NOTE_OFF_83
NOTE_ON_88
NOTE_ON_80
NOTE_ON_76
NOTE_ON_71
TIME_SHIFT_64ND_3
NOTE_OFF_76
NOTE_OFF_71
TIME_SHIFT_64ND_1
NOTE_ON_76
NOTE_ON_71
TIME_SHIFT_64ND_3
NOTE_OFF_76
NOTE_OFF_71
NOTE_OFF_88
NOTE_OFF_80
TIME_SHIFT_64ND_1
NOTE_ON_80
NOTE_ON_83
TIME_SHIFT_64ND_4
NOTE_OFF_80
NOTE_OFF_83
NOTE_ON_81
NOTE_ON_78
TIME_SHIFT_64ND_4
NOTE_OFF_81
NOTE_OFF_78
NOTE_ON_80
NOTE_ON_76
NOTE_ON_71
NOTE_ON_64
TIME_SHIFT_64ND_3
NOTE_OFF_71
NOTE_OFF_64
TIME_SHIFT_64ND_1
NOTE_ON_71
NOTE_ON_64
TIME_SHIFT_64ND_3
NOTE_OFF_71
NOTE_OFF_64
NOTE_OFF_80
NOTE_OFF_76
TIME_SHIFT_64ND_1
NOTE_ON_80
NOTE_ON_76
TIME_SHIFT_64ND_4
NOTE_OFF_80
NOTE_OFF_76
NOTE_ON_78
NOTE_ON_71
TIME_SHIFT_64ND_4
NOTE_OFF_78
NOTE_OFF_71
NOTE_ON_76
NOTE_ON_68
NOTE_ON_64
NOTE_ON_59
TIME_SHIFT_64ND_3
NOTE_OFF_64
NOTE_OFF_59
TIME_SHIFT_64ND_1
NOTE_ON_64
NOTE_ON_59
TIME_SHIFT_64ND_3
NOTE_OFF_64
NOTE_OFF_59
NOTE_OFF_76
NOTE_OFF_68
TIME_SHIFT_64ND_1
NOTE_ON_64
NOTE_ON_56
TIME_SHIFT_64ND_4
NOTE_OFF_64
NOTE_OFF_56
NOTE_ON_66
NOTE_ON_59
TIME_SHIFT_64ND_4
NOTE_OFF_66
NOTE_OFF_59
NOTE_ON_68
NOTE_ON_64
NOTE_ON_59
NOTE_ON_52
TIME_SHIFT_64ND_3
NOTE_OFF_59
NOTE_OFF_52
TIME_SHIFT_64ND_1
NOTE_ON_59
NOTE_ON_52
TIME_SHIFT_64ND_3
NOTE_OFF_59
NOTE_OFF_52
TIME_SHIFT_64ND_1
NOTE_OFF_68
NOTE_OFF_64
NOTE_ON_69
NOTE_ON_66
TIME_SHIFT_64ND_4
NOTE_OFF_69
NOTE_OFF_66
NOTE_ON_68
NOTE_ON_64
TIME_SHIFT_64ND_4
NOTE_OFF_68
NOTE_OFF_64
NOTE_ON_66
NOTE_ON_59
NOTE_ON_47
NOTE_ON_51
TIME_SHIFT_64ND_3
NOTE_OFF_47
NOTE_OFF_51
TIME_SHIFT_64ND_1
NOTE_ON_51
NOTE_ON_47
TIME_SHIFT_64ND_3
NOTE_OFF_51
NOTE_OFF_47
TIME_SHIFT_64ND_1
NOTE_OFF_66
NOTE_OFF_59
NOTE_ON_68
NOTE_ON_64
TIME_SHIFT_64ND_4
NOTE_OFF_68
NOTE_OFF_64
NOTE_ON_66
NOTE_ON_59
TIME_SHIFT_64ND_4
NOTE_OFF_66
NOTE_OFF_59
NOTE_ON_64
NOTE_ON_56
NOTE_ON_40
NOTE_ON_47
TIME_SHIFT_64ND_3
NOTE_OFF_40
NOTE_OFF_47
TIME_SHIFT_64ND_1
NOTE_ON_47
NOTE_ON_40
TIME_SHIFT_64ND_3
NOTE_OFF_47
NOTE_OFF_40
TIME_SHIFT_64ND_1
NOTE_ON_47
NOTE_ON_40
TIME_SHIFT_64ND_8
NOTE_OFF_64
NOTE_OFF_56
NOTE_OFF_47
NOTE_OFF_40
NOTE_ON_66
NOTE_ON_59
TIME_SHIFT_64ND_8
NOTE_OFF_66
NOTE_OFF_59
NOTE_ON_68
NOTE_ON_64
TIME_SHIFT_64ND_4
NOTE_OFF_68
NOTE_OFF_64
NOTE_ON_66
NOTE_ON_59
TIME_SHIFT_64ND_4
NOTE_OFF_66
NOTE_OFF_59
NOTE_ON_64
NOTE_ON_56
NOTE_ON_40
NOTE_ON_47
TIME_SHIFT_64ND_4
NOTE_OFF_40
NOTE_OFF_47
TIME_SHIFT_64ND_1
NOTE_ON_47
NOTE_ON_40
TIME_SHIFT_64ND_4
NOTE_OFF_47
NOTE_OFF_40
TIME_SHIFT_64ND_1
NOTE_ON_47
NOTE_ON_40
TIME_SHIFT_64ND_10
NOTE_OFF_64
NOTE_OFF_56
NOTE_OFF_47
NOTE_OFF_40
NOTE_ON_66
NOTE_ON_59
TIME_SHIFT_64ND_11
NOTE_OFF_66
NOTE_OFF_59
NOTE_ON_68
NOTE_ON_64
TIME_SHIFT_64ND_7
NOTE_OFF_68
NOTE_OFF_64
NOTE_ON_66
NOTE_ON_59
TIME_SHIFT_64ND_9
NOTE_OFF_66
NOTE_OFF_59
NOTE_ON_64
NOTE_ON_56
TIME_SHIFT_64ND_22
NOTE_OFF_64
NOTE_OFF_56
TIME_SHIFT_64ND_11
NOTE_ON_76
NOTE_ON_68
NOTE_ON_64
NOTE_ON_52
NOTE_ON_47
NOTE_ON_40
TIME_SHIFT_64ND_4
NOTE_OFF_76
NOTE_OFF_68
NOTE_OFF_64
NOTE_OFF_52
NOTE_OFF_47
NOTE_OFF_40
NOTE_ON_76
NOTE_ON_68
NOTE_ON_64
NOTE_ON_52
NOTE_ON_47
NOTE_ON_40
TIME_SHIFT_64ND_37
NOTE_OFF_76
NOTE_OFF_68
NOTE_OFF_64
NOTE_OFF_52
NOTE_OFF_47
NOTE_OFF_40
<END>
