TIME_SHIFT_64ND_8
VEL_1
NOTE_ON_28
TIME_SHIFT_64ND_3
NOTE_OFF_28
VEL_1
NOTE_ON_39
TIME_SHIFT_64ND_3
NOTE_OFF_39
VEL_1
NOTE_ON_40
TIME_SHIFT_64ND_3
NOTE_OFF_40
VEL_2
NOTE_ON_52
TIME_SHIFT_64ND_1
NOTE_OFF_52
TIME_SHIFT_64ND_1
VEL_1
NOTE_ON_28
TIME_SHIFT_64ND_3
NOTE_OFF_28
VEL_1
NOTE_ON_39
TIME_SHIFT_64ND_3
NOTE_OFF_39
VEL_1
NOTE_ON_40
TIME_SHIFT_64ND_3
NOTE_OFF_40
VEL_2
NOTE_ON_52
TIME_SHIFT_64ND_1
NOTE_OFF_52
TIME_SHIFT_64ND_1
VEL_1
NOTE_ON_28
TIME_SHIFT_64ND_3
NOTE_OFF_28
VEL_1
NOTE_ON_39
TIME_SHIFT_64ND_3
NOTE_OFF_39
VEL_1
NOTE_ON_40
TIME_SHIFT_64ND_3
NOTE_OFF_40
VEL_2
NOTE_ON_52
TIME_SHIFT_64ND_1
NOTE_OFF_52
TIME_SHIFT_64ND_1
VEL_1
NOTE_ON_28
TIME_SHIFT_64ND_3
NOTE_OFF_28
VEL_1
NOTE_ON_39
TIME_SHIFT_64ND_3
NOTE_OFF_39
VEL_1
NOTE_ON_40
TIME_SHIFT_64ND_3
NOTE_OFF_40
VEL_2
NOTE_ON_52
TIME_SHIFT_64ND_1
NOTE_OFF_52
TIME_SHIFT_64ND_1
VEL_1
NOTE_ON_28
TIME_SHIFT_64ND_3
NOTE_OFF_28
VEL_1
NOTE_ON_39
TIME_SHIFT_64ND_3
NOTE_OFF_39
VEL_1
NOTE_ON_40
TIME_SHIFT_64ND_3
NOTE_OFF_40
VEL_2
NOTE_ON_52
TIME_SHIFT_64ND_1
NOTE_OFF_52
TIME_SHIFT_64ND_1
VEL_1
NOTE_ON_28
TIME_SHIFT_64ND_3
NOTE_OFF_28
VEL_1
NOTE_ON_39
TIME_SHIFT_64ND_3
NOTE_OFF_39
VEL_1
NOTE_ON_40
TIME_SHIFT_64ND_3
NOTE_OFF_40
VEL_2
NOTE_ON_52
TIME_SHIFT_64ND_1
NOTE_OFF_52
TIME_SHIFT_64ND_1
VEL_1
NOTE_ON_28
TIME_SHIFT_64ND_3
NOTE_OFF_28
VEL_1
NOTE_ON_39
TIME_SHIFT_64ND_3
NOTE_OFF_39
VEL_1
NOTE_ON_40
TIME_SHIFT_64ND_3
NOTE_OFF_40
VEL_2
NOTE_ON_52
TIME_SHIFT_64ND_1
NOTE_OFF_52
TIME_SHIFT_64ND_1
VEL_1
NOTE_ON_28
TIME_SHIFT_64ND_3
NOTE_OFF_28
VEL_1
NOTE_ON_39
TIME_SHIFT_64ND_3
NOTE_OFF_39
VEL_1
NOTE_ON_40
TIME_SHIFT_64ND_3
NOTE_OFF_40
VEL_2
NOTE_ON_52
TIME_SHIFT_64ND_1
NOTE_OFF_52
TIME_SHIFT_64ND_1
VEL_1
NOTE_ON_29
TIME_SHIFT_64ND_4
NOTE_OFF_29
VEL_1
NOTE_ON_40
TIME_SHIFT_64ND_3
NOTE_OFF_40
VEL_1
NOTE_ON_41
TIME_SHIFT_64ND_3
NOTE_OFF_41
VEL_2
NOTE_ON_53
TIME_SHIFT_64ND_1
NOTE_OFF_53
TIME_SHIFT_64ND_1
VEL_1
NOTE_ON_29
TIME_SHIFT_64ND_3
NOTE_OFF_29
VEL_1
NOTE_ON_40
TIME_SHIFT_64ND_3
NOTE_OFF_40
VEL_1
NOTE_ON_41
TIME_SHIFT_64ND_3
NOTE_OFF_41
VEL_2
NOTE_ON_53
TIME_SHIFT_64ND_1
NOTE_OFF_53
TIME_SHIFT_64ND_1
VEL_1
NOTE_ON_29
TIME_SHIFT_64ND_3
NOTE_OFF_29
VEL_1
NOTE_ON_40
TIME_SHIFT_64ND_3
NOTE_OFF_40
VEL_1
NOTE_ON_41
TIME_SHIFT_64ND_3
NOTE_OFF_41
VEL_2
NOTE_ON_53
TIME_SHIFT_64ND_1
NOTE_OFF_53
TIME_SHIFT_64ND_1
VEL_1
NOTE_ON_29
TIME_SHIFT_64ND_3
NOTE_OFF_29
VEL_1
NOTE_ON_40
TIME_SHIFT_64ND_3
NOTE_OFF_40
VEL_1
NOTE_ON_41
TIME_SHIFT_64ND_3
NOTE_OFF_41
VEL_2
NOTE_ON_53
TIME_SHIFT_64ND_1
NOTE_OFF_53
TIME_SHIFT_64ND_1
VEL_1
NOTE_ON_29
TIME_SHIFT_64ND_3
NOTE_OFF_29
VEL_1
NOTE_ON_40
TIME_SHIFT_64ND_3
NOTE_OFF_40
VEL_1
NOTE_ON_41
TIME_SHIFT_64ND_3
NOTE_OFF_41
VEL_2
NOTE_ON_53
TIME_SHIFT_64ND_1
NOTE_OFF_53
TIME_SHIFT_64ND_1
VEL_1
NOTE_ON_29
TIME_SHIFT_64ND_3
NOTE_OFF_29
VEL_1
NOTE_ON_40
TIME_SHIFT_64ND_3
NOTE_OFF_40
VEL_1
NOTE_ON_41
TIME_SHIFT_64ND_3
NOTE_OFF_41
VEL_2
NOTE_ON_53
TIME_SHIFT_64ND_1
NOTE_OFF_53
TIME_SHIFT_64ND_1
VEL_1
NOTE_ON_29
TIME_SHIFT_64ND_3
NOTE_OFF_29
VEL_1
NOTE_ON_40
TIME_SHIFT_64ND_3
NOTE_OFF_40
VEL_1
NOTE_ON_41
TIME_SHIFT_64ND_3
NOTE_OFF_41
VEL_2
NOTE_ON_53
TIME_SHIFT_64ND_1
NOTE_OFF_53
TIME_SHIFT_64ND_1
VEL_1
NOTE_ON_29
TIME_SHIFT_64ND_3
NOTE_OFF_29
VEL_2
NOTE_ON_40
TIME_SHIFT_64ND_3
NOTE_OFF_40
VEL_2
NOTE_ON_41
TIME_SHIFT_64ND_3
NOTE_OFF_41
VEL_2
NOTE_ON_53
TIME_SHIFT_64ND_1
NOTE_OFF_53
TIME_SHIFT_64ND_1
VEL_2
NOTE_ON_32
TIME_SHIFT_64ND_3
NOTE_OFF_32
VEL_2
NOTE_ON_43
TIME_SHIFT_64ND_3
NOTE_OFF_43
VEL_2
NOTE_ON_44
TIME_SHIFT_64ND_3
NOTE_OFF_44
VEL_2
NOTE_ON_56
TIME_SHIFT_64ND_1
NOTE_OFF_56
TIME_SHIFT_64ND_1
VEL_2
NOTE_ON_32
TIME_SHIFT_64ND_3
NOTE_OFF_32
VEL_2
NOTE_ON_43
TIME_SHIFT_64ND_3
NOTE_OFF_43
VEL_2
NOTE_ON_44
TIME_SHIFT_64ND_3
NOTE_OFF_44
VEL_2
NOTE_ON_56
TIME_SHIFT_64ND_1
NOTE_OFF_56
TIME_SHIFT_64ND_1
VEL_2
NOTE_ON_32
TIME_SHIFT_64ND_3
NOTE_OFF_32
VEL_2
NOTE_ON_43
TIME_SHIFT_64ND_3
NOTE_OFF_43
VEL_2
NOTE_ON_44
TIME_SHIFT_64ND_3
NOTE_OFF_44
VEL_2
NOTE_ON_56
TIME_SHIFT_64ND_1
NOTE_OFF_56
TIME_SHIFT_64ND_1
VEL_2
NOTE_ON_32
TIME_SHIFT_64ND_3
NOTE_OFF_32
VEL_2
NOTE_ON_43
TIME_SHIFT_64ND_3
NOTE_OFF_43
VEL_2
NOTE_ON_44
TIME_SHIFT_64ND_3
NOTE_OFF_44
VEL_3
NOTE_ON_56
TIME_SHIFT_64ND_1
NOTE_OFF_56
TIME_SHIFT_64ND_1
VEL_2
NOTE_ON_33
TIME_SHIFT_64ND_3
NOTE_OFF_33
VEL_2
NOTE_ON_44
TIME_SHIFT_64ND_3
NOTE_OFF_44
VEL_2
NOTE_ON_45
TIME_SHIFT_64ND_3
NOTE_OFF_45
VEL_3
NOTE_ON_57
TIME_SHIFT_64ND_1
NOTE_OFF_57
TIME_SHIFT_64ND_1
VEL_2
NOTE_ON_33
TIME_SHIFT_64ND_3
NOTE_OFF_33
VEL_2
NOTE_ON_44
TIME_SHIFT_64ND_3
NOTE_OFF_44
VEL_2
NOTE_ON_45
TIME_SHIFT_64ND_3
NOTE_OFF_45
VEL_3
NOTE_ON_57
TIME_SHIFT_64ND_1
NOTE_OFF_57
TIME_SHIFT_64ND_1
VEL_2
NOTE_ON_33
TIME_SHIFT_64ND_3
NOTE_OFF_33
VEL_2
NOTE_ON_44
TIME_SHIFT_64ND_3
NOTE_OFF_44
VEL_2
NOTE_ON_45
TIME_SHIFT_64ND_3
NOTE_OFF_45
VEL_3
NOTE_ON_57
TIME_SHIFT_64ND_1
NOTE_OFF_57
TIME_SHIFT_64ND_1
VEL_2
NOTE_ON_33
TIME_SHIFT_64ND_3
NOTE_OFF_33
VEL_2
NOTE_ON_44
TIME_SHIFT_64ND_3
NOTE_OFF_44
VEL_2
NOTE_ON_45
TIME_SHIFT_64ND_3
NOTE_OFF_45
VEL_3
NOTE_ON_57
TIME_SHIFT_64ND_1
NOTE_OFF_57
TIME_SHIFT_64ND_1
VEL_2
NOTE_ON_34
TIME_SHIFT_64ND_3
NOTE_OFF_34
VEL_2
NOTE_ON_45
TIME_SHIFT_64ND_3
NOTE_OFF_45
VEL_2
NOTE_ON_46
TIME_SHIFT_64ND_3
NOTE_OFF_46
VEL_3
NOTE_ON_58
TIME_SHIFT_64ND_1
NOTE_OFF_58
TIME_SHIFT_64ND_1
VEL_2
NOTE_ON_34
TIME_SHIFT_64ND_3
NOTE_OFF_34
VEL_2
NOTE_ON_45
TIME_SHIFT_64ND_3
NOTE_OFF_45
VEL_2
NOTE_ON_46
TIME_SHIFT_64ND_3
NOTE_OFF_46
VEL_3
NOTE_ON_58
TIME_SHIFT_64ND_1
NOTE_OFF_58
TIME_SHIFT_64ND_1
VEL_2
NOTE_ON_37
TIME_SHIFT_64ND_3
NOTE_OFF_37
VEL_2
NOTE_ON_48
TIME_SHIFT_64ND_3
NOTE_OFF_48
VEL_2
NOTE_ON_49
TIME_SHIFT_64ND_3
NOTE_OFF_49
VEL_3
NOTE_ON_61
TIME_SHIFT_64ND_1
NOTE_OFF_61
TIME_SHIFT_64ND_1
VEL_2
NOTE_ON_37
TIME_SHIFT_64ND_3
NOTE_OFF_37
VEL_3
NOTE_ON_48
TIME_SHIFT_64ND_3
NOTE_OFF_48
VEL_3
NOTE_ON_49
TIME_SHIFT_64ND_3
NOTE_OFF_49
VEL_3
NOTE_ON_61
TIME_SHIFT_64ND_1
NOTE_OFF_61
TIME_SHIFT_64ND_1
VEL_2
NOTE_ON_38
TIME_SHIFT_64ND_3
NOTE_OFF_38
VEL_3
NOTE_ON_49
TIME_SHIFT_64ND_3
NOTE_OFF_49
VEL_3
NOTE_ON_50
TIME_SHIFT_64ND_3
NOTE_OFF_50
VEL_3
NOTE_ON_62
TIME_SHIFT_64ND_1
NOTE_OFF_62
TIME_SHIFT_64ND_1
VEL_3
NOTE_ON_38
TIME_SHIFT_64ND_3
NOTE_OFF_38
VEL_3
NOTE_ON_49
TIME_SHIFT_64ND_3
NOTE_OFF_49
VEL_3
NOTE_ON_50
TIME_SHIFT_64ND_3
NOTE_OFF_50
VEL_4
NOTE_ON_62
TIME_SHIFT_64ND_1
NOTE_OFF_62
TIME_SHIFT_64ND_1
VEL_3
NOTE_ON_39
TIME_SHIFT_64ND_3
NOTE_OFF_39
VEL_3
NOTE_ON_50
TIME_SHIFT_64ND_3
NOTE_OFF_50
VEL_3
NOTE_ON_51
TIME_SHIFT_64ND_3
NOTE_OFF_51
VEL_4
NOTE_ON_63
TIME_SHIFT_64ND_1
NOTE_OFF_63
TIME_SHIFT_64ND_1
VEL_3
NOTE_ON_39
TIME_SHIFT_64ND_3
NOTE_OFF_39
VEL_3
NOTE_ON_50
TIME_SHIFT_64ND_3
NOTE_OFF_50
VEL_3
NOTE_ON_51
TIME_SHIFT_64ND_3
NOTE_OFF_51
VEL_4
NOTE_ON_63
TIME_SHIFT_64ND_1
NOTE_OFF_63
TIME_SHIFT_64ND_1
VEL_3
NOTE_ON_40
TIME_SHIFT_64ND_3
NOTE_OFF_40
VEL_3
NOTE_ON_51
TIME_SHIFT_64ND_3
NOTE_OFF_51
VEL_3
NOTE_ON_52
TIME_SHIFT_64ND_3
NOTE_OFF_52
VEL_4
NOTE_ON_64
TIME_SHIFT_64ND_1
NOTE_OFF_64
TIME_SHIFT_64ND_1
VEL_3
NOTE_ON_41
TIME_SHIFT_64ND_3
NOTE_OFF_41
VEL_3
NOTE_ON_52
TIME_SHIFT_64ND_3
NOTE_OFF_52
VEL_3
NOTE_ON_53
TIME_SHIFT_64ND_3
NOTE_OFF_53
VEL_4
NOTE_ON_65
TIME_SHIFT_64ND_1
NOTE_OFF_65
TIME_SHIFT_64ND_1
VEL_3
NOTE_ON_44
TIME_SHIFT_64ND_2
NOTE_OFF_44
VEL_3
NOTE_ON_55
TIME_SHIFT_64ND_2
NOTE_OFF_55
VEL_3
NOTE_ON_56
TIME_SHIFT_64ND_2
NOTE_OFF_56
VEL_4
NOTE_ON_68
TIME_SHIFT_64ND_1
NOTE_OFF_68
TIME_SHIFT_64ND_1
VEL_3
NOTE_ON_45
TIME_SHIFT_64ND_2
NOTE_OFF_45
VEL_3
NOTE_ON_56
TIME_SHIFT_64ND_3
NOTE_OFF_56
VEL_3
NOTE_ON_57
TIME_SHIFT_64ND_2
NOTE_OFF_57
VEL_4
NOTE_ON_69
TIME_SHIFT_64ND_1
NOTE_OFF_69
TIME_SHIFT_64ND_1
VEL_3
NOTE_ON_46
TIME_SHIFT_64ND_2
NOTE_OFF_46
VEL_3
NOTE_ON_57
TIME_SHIFT_64ND_2
NOTE_OFF_57
VEL_3
NOTE_ON_58
TIME_SHIFT_64ND_2
NOTE_OFF_58
VEL_4
NOTE_ON_70
TIME_SHIFT_64ND_1
NOTE_OFF_70
TIME_SHIFT_64ND_1
VEL_3
NOTE_ON_49
TIME_SHIFT_64ND_2
NOTE_OFF_49
VEL_3
NOTE_ON_60
TIME_SHIFT_64ND_2
NOTE_OFF_60
VEL_3
NOTE_ON_61
TIME_SHIFT_64ND_2
NOTE_OFF_61
VEL_4
NOTE_ON_73
TIME_SHIFT_64ND_1
NOTE_OFF_73
TIME_SHIFT_64ND_1
VEL_3
NOTE_ON_50
TIME_SHIFT_64ND_2
NOTE_OFF_50
VEL_3
NOTE_ON_61
TIME_SHIFT_64ND_2
NOTE_OFF_61
VEL_3
NOTE_ON_62
TIME_SHIFT_64ND_2
NOTE_OFF_62
VEL_5
NOTE_ON_74
TIME_SHIFT_64ND_1
NOTE_OFF_74
TIME_SHIFT_64ND_1
VEL_3
NOTE_ON_51
TIME_SHIFT_64ND_2
NOTE_OFF_51
VEL_4
NOTE_ON_62
TIME_SHIFT_64ND_2
NOTE_OFF_62
VEL_4
NOTE_ON_63
TIME_SHIFT_64ND_2
NOTE_OFF_63
VEL_5
NOTE_ON_75
TIME_SHIFT_64ND_1
NOTE_OFF_75
TIME_SHIFT_64ND_1
VEL_3
NOTE_ON_52
TIME_SHIFT_64ND_2
NOTE_OFF_52
VEL_4
NOTE_ON_63
TIME_SHIFT_64ND_2
NOTE_OFF_63
VEL_4
NOTE_ON_64
TIME_SHIFT_64ND_2
NOTE_OFF_64
VEL_5
NOTE_ON_76
TIME_SHIFT_64ND_2
NOTE_OFF_76
TIME_SHIFT_64ND_5
VEL_3
NOTE_ON_53
VEL_3
NOTE_ON_41
TIME_SHIFT_64ND_3
NOTE_OFF_53
NOTE_OFF_41
VEL_4
NOTE_ON_77
VEL_4
NOTE_ON_65
TIME_SHIFT_64ND_3
NOTE_OFF_77
NOTE_OFF_65
VEL_3
NOTE_ON_56
VEL_3
NOTE_ON_44
TIME_SHIFT_64ND_3
NOTE_OFF_56
NOTE_OFF_44
VEL_4
NOTE_ON_80
VEL_4
NOTE_ON_68
TIME_SHIFT_64ND_3
NOTE_OFF_80
NOTE_OFF_68
VEL_3
NOTE_ON_57
VEL_3
NOTE_ON_45
TIME_SHIFT_64ND_3
NOTE_OFF_57
NOTE_OFF_45
VEL_4
NOTE_ON_69
VEL_4
NOTE_ON_81
TIME_SHIFT_64ND_3
NOTE_OFF_69
NOTE_OFF_81
VEL_3
NOTE_ON_58
VEL_3
NOTE_ON_46
TIME_SHIFT_64ND_3
NOTE_OFF_58
NOTE_OFF_46
VEL_4
NOTE_ON_70
VEL_4
NOTE_ON_82
TIME_SHIFT_64ND_3
NOTE_OFF_70
NOTE_OFF_82
VEL_3
NOTE_ON_61
VEL_3
NOTE_ON_49
TIME_SHIFT_64ND_3
NOTE_OFF_61
NOTE_OFF_49
VEL_4
NOTE_ON_73
VEL_4
NOTE_ON_85
TIME_SHIFT_64ND_3
NOTE_OFF_73
NOTE_OFF_85
VEL_4
NOTE_ON_62
VEL_4
NOTE_ON_50
TIME_SHIFT_64ND_3
NOTE_OFF_62
NOTE_OFF_50
VEL_4
NOTE_ON_86
VEL_4
NOTE_ON_74
TIME_SHIFT_64ND_2
NOTE_OFF_86
NOTE_OFF_74
VEL_4
NOTE_ON_63
VEL_4
NOTE_ON_51
TIME_SHIFT_64ND_2
NOTE_OFF_63
NOTE_OFF_51
VEL_4
NOTE_ON_75
VEL_4
NOTE_ON_87
TIME_SHIFT_64ND_2
NOTE_OFF_75
NOTE_OFF_87
VEL_4
NOTE_ON_64
VEL_4
NOTE_ON_52
TIME_SHIFT_64ND_2
NOTE_OFF_64
NOTE_OFF_52
VEL_4
NOTE_ON_76
VEL_4
NOTE_ON_88
TIME_SHIFT_64ND_2
NOTE_OFF_76
NOTE_OFF_88
VEL_4
NOTE_ON_65
VEL_4
NOTE_ON_53
TIME_SHIFT_64ND_2
NOTE_OFF_65
NOTE_OFF_53
VEL_4
NOTE_ON_77
VEL_4
NOTE_ON_89
TIME_SHIFT_64ND_2
NOTE_OFF_77
NOTE_OFF_89
VEL_4
NOTE_ON_56
VEL_4
NOTE_ON_68
TIME_SHIFT_64ND_2
NOTE_OFF_56
NOTE_OFF_68
VEL_4
NOTE_ON_80
VEL_4
NOTE_ON_92
TIME_SHIFT_64ND_2
NOTE_OFF_80
NOTE_OFF_92
VEL_4
NOTE_ON_69
VEL_4
NOTE_ON_57
TIME_SHIFT_64ND_2
NOTE_OFF_69
NOTE_OFF_57
VEL_4
NOTE_ON_81
VEL_4
NOTE_ON_93
TIME_SHIFT_64ND_2
NOTE_OFF_81
NOTE_OFF_93
VEL_4
NOTE_ON_58
VEL_4
NOTE_ON_70
TIME_SHIFT_64ND_2
NOTE_OFF_58
NOTE_OFF_70
VEL_4
NOTE_ON_82
VEL_4
NOTE_ON_94
TIME_SHIFT_64ND_2
NOTE_OFF_82
NOTE_OFF_94
VEL_4
NOTE_ON_73
VEL_4
NOTE_ON_61
TIME_SHIFT_64ND_2
NOTE_OFF_73
NOTE_OFF_61
VEL_4
NOTE_ON_85
VEL_4
NOTE_ON_97
TIME_SHIFT_64ND_2
NOTE_OFF_85
NOTE_OFF_97
VEL_4
NOTE_ON_74
VEL_4
NOTE_ON_62
TIME_SHIFT_64ND_2
NOTE_OFF_74
NOTE_OFF_62
VEL_4
NOTE_ON_98
VEL_4
NOTE_ON_86
TIME_SHIFT_64ND_2
NOTE_OFF_98
NOTE_OFF_86
VEL_4
NOTE_ON_75
VEL_4
NOTE_ON_63
TIME_SHIFT_64ND_2
NOTE_OFF_75
NOTE_OFF_63
VEL_5
NOTE_ON_99
VEL_5
NOTE_ON_87
TIME_SHIFT_64ND_2
NOTE_OFF_99
NOTE_OFF_87
VEL_5
NOTE_ON_76
VEL_5
NOTE_ON_64
TIME_SHIFT_64ND_2
NOTE_OFF_76
NOTE_OFF_64
VEL_5
NOTE_ON_100
VEL_5
NOTE_ON_88
TIME_SHIFT_64ND_2
NOTE_OFF_100
NOTE_OFF_88
VEL_5
NOTE_ON_77
VEL_5
NOTE_ON_65
TIME_SHIFT_64ND_2
NOTE_OFF_77
NOTE_OFF_65
VEL_5
NOTE_ON_101
VEL_5
NOTE_ON_89
TIME_SHIFT_64ND_2
NOTE_OFF_101
NOTE_OFF_89
TIME_SHIFT_64ND_59
VEL_4
NOTE_ON_62
VEL_5
NOTE_ON_68
VEL_4
NOTE_ON_56
VEL_4
NOTE_ON_59
VEL_3
NOTE_ON_50
VEL_4
NOTE_ON_53
VEL_3
NOTE_ON_41
VEL_3
NOTE_ON_47
TIME_SHIFT_64ND_6
NOTE_OFF_62
NOTE_OFF_68
NOTE_OFF_56
NOTE_OFF_59
NOTE_OFF_50
NOTE_OFF_53
NOTE_OFF_41
NOTE_OFF_47
TIME_SHIFT_64ND_6
VEL_4
NOTE_ON_60
VEL_4
NOTE_ON_57
VEL_5
NOTE_ON_69
VEL_3
NOTE_ON_48
VEL_4
NOTE_ON_51
VEL_3
NOTE_ON_39
VEL_3
NOTE_ON_45
TIME_SHIFT_64ND_6
NOTE_OFF_60
NOTE_OFF_57
NOTE_OFF_69
NOTE_OFF_48
NOTE_OFF_51
NOTE_OFF_39
NOTE_OFF_45
TIME_SHIFT_64ND_6
VEL_4
NOTE_ON_56
VEL_5
NOTE_ON_68
TIME_SHIFT_64ND_3
NOTE_OFF_56
NOTE_OFF_68
TIME_SHIFT_64ND_3
VEL_4
NOTE_ON_59
VEL_4
NOTE_ON_71
TIME_SHIFT_64ND_3
NOTE_OFF_59
NOTE_OFF_71
TIME_SHIFT_64ND_3
VEL_4
NOTE_ON_61
VEL_4
NOTE_ON_57
VEL_5
NOTE_ON_69
VEL_3
NOTE_ON_45
VEL_4
NOTE_ON_49
VEL_3
NOTE_ON_37
VEL_3
NOTE_ON_42
TIME_SHIFT_64ND_6
NOTE_OFF_61
NOTE_OFF_57
NOTE_OFF_69
NOTE_OFF_45
NOTE_OFF_49
NOTE_OFF_37
NOTE_OFF_42
TIME_SHIFT_64ND_6
VEL_4
NOTE_ON_56
VEL_5
NOTE_ON_68
TIME_SHIFT_64ND_6
NOTE_OFF_56
NOTE_OFF_68
VEL_3
NOTE_ON_59
VEL_4
NOTE_ON_71
TIME_SHIFT_64ND_3
NOTE_OFF_59
NOTE_OFF_71
TIME_SHIFT_64ND_3
VEL_4
NOTE_ON_57
VEL_5
NOTE_ON_69
VEL_4
NOTE_ON_63
VEL_3
NOTE_ON_45
VEL_4
NOTE_ON_48
VEL_3
NOTE_ON_36
VEL_3
NOTE_ON_42
TIME_SHIFT_64ND_3
NOTE_OFF_57
NOTE_OFF_69
NOTE_OFF_63
NOTE_OFF_45
NOTE_OFF_48
NOTE_OFF_36
NOTE_OFF_42
TIME_SHIFT_64ND_10
VEL_3
NOTE_ON_56
VEL_4
NOTE_ON_68
TIME_SHIFT_64ND_3
NOTE_OFF_56
NOTE_OFF_68
TIME_SHIFT_64ND_10
VEL_4
NOTE_ON_57
VEL_5
NOTE_ON_69
VEL_4
NOTE_ON_63
VEL_3
NOTE_ON_39
VEL_4
NOTE_ON_42
VEL_4
NOTE_ON_47
VEL_3
NOTE_ON_35
TIME_SHIFT_64ND_6
NOTE_OFF_39
NOTE_OFF_42
NOTE_OFF_47
NOTE_OFF_35
TIME_SHIFT_64ND_19
NOTE_OFF_57
NOTE_OFF_69
NOTE_OFF_63
VEL_3
NOTE_ON_61
VEL_4
NOTE_ON_66
VEL_4
NOTE_ON_69
VEL_3
NOTE_ON_57
VEL_3
NOTE_ON_42
VEL_3
NOTE_ON_45
VEL_3
NOTE_ON_33
VEL_3
NOTE_ON_37
TIME_SHIFT_64ND_6
NOTE_OFF_61
NOTE_OFF_66
NOTE_OFF_69
NOTE_OFF_57
NOTE_OFF_42
NOTE_OFF_45
NOTE_OFF_33
NOTE_OFF_37
VEL_3
NOTE_ON_56
VEL_4
NOTE_ON_68
TIME_SHIFT_64ND_6
NOTE_OFF_56
NOTE_OFF_68
VEL_3
NOTE_ON_57
VEL_4
NOTE_ON_69
TIME_SHIFT_64ND_6
NOTE_OFF_57
NOTE_OFF_69
VEL_4
NOTE_ON_59
VEL_4
NOTE_ON_71
TIME_SHIFT_64ND_7
NOTE_OFF_59
NOTE_OFF_71
VEL_4
NOTE_ON_66
VEL_5
NOTE_ON_72
VEL_4
NOTE_ON_60
VEL_4
NOTE_ON_63
VEL_3
NOTE_ON_39
VEL_4
NOTE_ON_44
VEL_3
NOTE_ON_32
VEL_3
NOTE_ON_36
TIME_SHIFT_64ND_7
NOTE_OFF_39
NOTE_OFF_44
NOTE_OFF_32
NOTE_OFF_36
TIME_SHIFT_64ND_20
NOTE_OFF_66
NOTE_OFF_72
NOTE_OFF_60
NOTE_OFF_63
VEL_3
NOTE_ON_63
VEL_3
NOTE_ON_60
VEL_4
NOTE_ON_72
VEL_3
NOTE_ON_39
VEL_3
NOTE_ON_43
VEL_3
NOTE_ON_31
VEL_3
NOTE_ON_36
TIME_SHIFT_64ND_6
NOTE_OFF_63
NOTE_OFF_60
NOTE_OFF_72
NOTE_OFF_39
NOTE_OFF_43
NOTE_OFF_31
NOTE_OFF_36
VEL_3
NOTE_ON_59
VEL_4
NOTE_ON_71
TIME_SHIFT_64ND_6
NOTE_OFF_59
NOTE_OFF_71
VEL_3
NOTE_ON_57
VEL_4
NOTE_ON_69
TIME_SHIFT_64ND_6
NOTE_OFF_57
NOTE_OFF_69
VEL_3
NOTE_ON_56
VEL_4
NOTE_ON_68
TIME_SHIFT_64ND_6
NOTE_OFF_56
NOTE_OFF_68
VEL_4
NOTE_ON_57
VEL_4
NOTE_ON_63
VEL_5
NOTE_ON_69
VEL_3
NOTE_ON_39
VEL_4
NOTE_ON_42
VEL_3
NOTE_ON_30
VEL_3
NOTE_ON_36
TIME_SHIFT_64ND_20
NOTE_OFF_57
NOTE_OFF_63
NOTE_OFF_69
NOTE_OFF_39
NOTE_OFF_42
NOTE_OFF_30
NOTE_OFF_36
VEL_3
NOTE_ON_60
VEL_4
NOTE_ON_72
VEL_2
NOTE_ON_36
VEL_3
NOTE_ON_48
TIME_SHIFT_64ND_3
NOTE_OFF_60
NOTE_OFF_72
NOTE_OFF_36
NOTE_OFF_48
TIME_SHIFT_64ND_3
VEL_4
NOTE_ON_59
VEL_5
NOTE_ON_71
VEL_3
NOTE_ON_35
VEL_3
NOTE_ON_47
TIME_SHIFT_64ND_6
NOTE_OFF_59
NOTE_OFF_71
NOTE_OFF_35
NOTE_OFF_47
VEL_3
NOTE_ON_57
VEL_4
NOTE_ON_69
VEL_2
NOTE_ON_33
VEL_3
NOTE_ON_45
TIME_SHIFT_64ND_5
NOTE_OFF_57
NOTE_OFF_69
NOTE_OFF_33
NOTE_OFF_45
TIME_SHIFT_64ND_1
VEL_3
NOTE_ON_55
VEL_4
NOTE_ON_67
VEL_2
NOTE_ON_31
VEL_3
NOTE_ON_43
TIME_SHIFT_64ND_3
NOTE_OFF_55
NOTE_OFF_67
NOTE_OFF_31
NOTE_OFF_43
TIME_SHIFT_64ND_3
VEL_3
NOTE_ON_59
VEL_4
NOTE_ON_71
VEL_2
NOTE_ON_35
VEL_3
NOTE_ON_47
TIME_SHIFT_64ND_3
NOTE_OFF_59
NOTE_OFF_71
NOTE_OFF_35
NOTE_OFF_47
TIME_SHIFT_64ND_3
VEL_4
NOTE_ON_57
VEL_5
NOTE_ON_69
VEL_3
NOTE_ON_33
VEL_3
NOTE_ON_45
TIME_SHIFT_64ND_6
NOTE_OFF_57
NOTE_OFF_69
NOTE_OFF_33
NOTE_OFF_45
VEL_3
NOTE_ON_55
VEL_4
NOTE_ON_67
VEL_2
NOTE_ON_31
VEL_3
NOTE_ON_43
TIME_SHIFT_64ND_5
NOTE_OFF_55
NOTE_OFF_67
NOTE_OFF_31
NOTE_OFF_43
TIME_SHIFT_64ND_1
VEL_3
NOTE_ON_53
VEL_4
NOTE_ON_65
VEL_2
NOTE_ON_29
VEL_3
NOTE_ON_41
TIME_SHIFT_64ND_3
NOTE_OFF_53
NOTE_OFF_65
NOTE_OFF_29
NOTE_OFF_41
TIME_SHIFT_64ND_3
VEL_3
NOTE_ON_57
VEL_4
NOTE_ON_69
VEL_2
NOTE_ON_33
VEL_3
NOTE_ON_45
TIME_SHIFT_64ND_3
NOTE_OFF_57
NOTE_OFF_69
NOTE_OFF_33
NOTE_OFF_45
TIME_SHIFT_64ND_3
VEL_4
NOTE_ON_55
VEL_5
NOTE_ON_67
VEL_3
NOTE_ON_31
VEL_3
NOTE_ON_43
TIME_SHIFT_64ND_6
NOTE_OFF_55
NOTE_OFF_67
NOTE_OFF_31
NOTE_OFF_43
VEL_3
NOTE_ON_53
VEL_4
NOTE_ON_65
VEL_2
NOTE_ON_29
VEL_3
NOTE_ON_41
TIME_SHIFT_64ND_5
NOTE_OFF_53
NOTE_OFF_65
NOTE_OFF_29
NOTE_OFF_41
TIME_SHIFT_64ND_1
VEL_3
NOTE_ON_52
VEL_4
NOTE_ON_64
VEL_2
NOTE_ON_28
VEL_3
NOTE_ON_40
TIME_SHIFT_64ND_3
NOTE_OFF_52
NOTE_OFF_64
NOTE_OFF_28
NOTE_OFF_40
TIME_SHIFT_64ND_3
VEL_3
NOTE_ON_55
VEL_4
NOTE_ON_67
VEL_2
NOTE_ON_31
VEL_3
NOTE_ON_43
TIME_SHIFT_64ND_3
NOTE_OFF_55
NOTE_OFF_67
NOTE_OFF_31
NOTE_OFF_43
TIME_SHIFT_64ND_3
VEL_4
NOTE_ON_53
VEL_5
NOTE_ON_65
VEL_3
NOTE_ON_29
VEL_3
NOTE_ON_41
TIME_SHIFT_64ND_6
NOTE_OFF_53
NOTE_OFF_65
NOTE_OFF_29
NOTE_OFF_41
VEL_3
NOTE_ON_52
VEL_4
NOTE_ON_64
VEL_2
NOTE_ON_28
VEL_3
NOTE_ON_40
TIME_SHIFT_64ND_5
NOTE_OFF_52
NOTE_OFF_64
NOTE_OFF_28
NOTE_OFF_40
TIME_SHIFT_64ND_1
VEL_3
NOTE_ON_51
VEL_4
NOTE_ON_63
VEL_2
NOTE_ON_27
VEL_3
NOTE_ON_39
TIME_SHIFT_64ND_3
NOTE_OFF_51
NOTE_OFF_63
NOTE_OFF_27
NOTE_OFF_39
TIME_SHIFT_64ND_3
VEL_3
NOTE_ON_53
VEL_4
NOTE_ON_65
VEL_2
NOTE_ON_29
VEL_3
NOTE_ON_41
TIME_SHIFT_64ND_3
NOTE_OFF_53
NOTE_OFF_65
NOTE_OFF_29
NOTE_OFF_41
TIME_SHIFT_64ND_3
VEL_4
NOTE_ON_53
VEL_5
NOTE_ON_65
VEL_3
NOTE_ON_29
VEL_3
NOTE_ON_41
TIME_SHIFT_64ND_6
NOTE_OFF_53
NOTE_OFF_65
NOTE_OFF_29
NOTE_OFF_41
VEL_3
NOTE_ON_52
VEL_4
NOTE_ON_64
VEL_2
NOTE_ON_28
VEL_3
NOTE_ON_40
TIME_SHIFT_64ND_5
NOTE_OFF_52
NOTE_OFF_64
NOTE_OFF_28
NOTE_OFF_40
TIME_SHIFT_64ND_1
VEL_3
NOTE_ON_52
VEL_4
NOTE_ON_64
VEL_2
NOTE_ON_28
VEL_3
NOTE_ON_40
TIME_SHIFT_64ND_3
NOTE_OFF_52
NOTE_OFF_64
NOTE_OFF_28
NOTE_OFF_40
TIME_SHIFT_64ND_3
VEL_3
NOTE_ON_51
VEL_4
NOTE_ON_63
VEL_2
NOTE_ON_27
VEL_3
NOTE_ON_39
TIME_SHIFT_64ND_3
NOTE_OFF_51
NOTE_OFF_63
NOTE_OFF_27
NOTE_OFF_39
TIME_SHIFT_64ND_3
VEL_4
NOTE_ON_53
VEL_5
NOTE_ON_65
VEL_3
NOTE_ON_29
VEL_4
NOTE_ON_41
TIME_SHIFT_64ND_6
NOTE_OFF_53
NOTE_OFF_65
NOTE_OFF_29
NOTE_OFF_41
VEL_3
NOTE_ON_52
VEL_4
NOTE_ON_64
VEL_2
NOTE_ON_28
VEL_3
NOTE_ON_40
TIME_SHIFT_64ND_5
NOTE_OFF_52
NOTE_OFF_64
NOTE_OFF_28
NOTE_OFF_40
TIME_SHIFT_64ND_1
VEL_3
NOTE_ON_52
VEL_4
NOTE_ON_64
VEL_2
NOTE_ON_28
VEL_3
NOTE_ON_40
TIME_SHIFT_64ND_3
NOTE_OFF_52
NOTE_OFF_64
NOTE_OFF_28
NOTE_OFF_40
TIME_SHIFT_64ND_3
VEL_3
NOTE_ON_51
VEL_4
NOTE_ON_63
VEL_2
NOTE_ON_27
VEL_3
NOTE_ON_39
TIME_SHIFT_64ND_3
NOTE_OFF_51
NOTE_OFF_63
NOTE_OFF_27
NOTE_OFF_39
TIME_SHIFT_64ND_3
VEL_4
NOTE_ON_52
VEL_5
NOTE_ON_64
VEL_3
NOTE_ON_28
VEL_3
NOTE_ON_40
TIME_SHIFT_64ND_25
NOTE_OFF_52
NOTE_OFF_64
NOTE_OFF_28
NOTE_OFF_40
VEL_4
NOTE_ON_64
VEL_5
NOTE_ON_76
VEL_4
NOTE_ON_71
VEL_4
NOTE_ON_68
VEL_3
NOTE_ON_40
VEL_3
NOTE_ON_52
VEL_3
NOTE_ON_47
VEL_3
NOTE_ON_44
TIME_SHIFT_64ND_6
NOTE_OFF_64
NOTE_OFF_76
NOTE_OFF_71
NOTE_OFF_68
NOTE_OFF_40
NOTE_OFF_52
NOTE_OFF_47
NOTE_OFF_44
TIME_SHIFT_64ND_6
VEL_4
NOTE_ON_76
VEL_4
NOTE_ON_52
TIME_SHIFT_64ND_4
NOTE_OFF_76
NOTE_OFF_52
VEL_5
NOTE_ON_78
VEL_4
NOTE_ON_54
TIME_SHIFT_64ND_4
NOTE_OFF_78
NOTE_OFF_54
VEL_5
NOTE_ON_80
VEL_4
NOTE_ON_56
TIME_SHIFT_64ND_4
NOTE_OFF_80
NOTE_OFF_56
VEL_4
NOTE_ON_69
VEL_5
NOTE_ON_81
VEL_3
NOTE_ON_45
VEL_4
NOTE_ON_57
TIME_SHIFT_64ND_6
NOTE_OFF_69
NOTE_OFF_81
NOTE_OFF_45
NOTE_OFF_57
TIME_SHIFT_64ND_6
VEL_4
NOTE_ON_68
VEL_4
NOTE_ON_80
VEL_4
NOTE_ON_71
VEL_3
NOTE_ON_41
VEL_3
NOTE_ON_53
TIME_SHIFT_64ND_3
NOTE_OFF_68
NOTE_OFF_80
NOTE_OFF_71
NOTE_OFF_41
NOTE_OFF_53
TIME_SHIFT_64ND_3
VEL_3
NOTE_ON_71
VEL_4
NOTE_ON_83
VEL_3
NOTE_ON_74
TIME_SHIFT_64ND_3
NOTE_OFF_71
NOTE_OFF_83
NOTE_OFF_74
TIME_SHIFT_64ND_3
VEL_4
NOTE_ON_72
VEL_4
NOTE_ON_69
VEL_5
NOTE_ON_81
VEL_3
NOTE_ON_45
VEL_4
NOTE_ON_57
TIME_SHIFT_64ND_6
NOTE_OFF_72
NOTE_OFF_69
NOTE_OFF_81
NOTE_OFF_45
NOTE_OFF_57
TIME_SHIFT_64ND_6
VEL_4
NOTE_ON_68
VEL_4
NOTE_ON_80
VEL_4
NOTE_ON_71
VEL_3
NOTE_ON_40
VEL_3
NOTE_ON_52
TIME_SHIFT_64ND_3
NOTE_OFF_68
NOTE_OFF_80
NOTE_OFF_71
NOTE_OFF_40
NOTE_OFF_52
TIME_SHIFT_64ND_3
VEL_3
NOTE_ON_71
VEL_4
NOTE_ON_83
VEL_3
NOTE_ON_74
TIME_SHIFT_64ND_3
NOTE_OFF_71
NOTE_OFF_83
NOTE_OFF_74
TIME_SHIFT_64ND_3
VEL_4
NOTE_ON_69
VEL_5
NOTE_ON_81
VEL_4
NOTE_ON_72
VEL_3
NOTE_ON_45
VEL_4
NOTE_ON_57
TIME_SHIFT_64ND_3
NOTE_OFF_69
NOTE_OFF_81
NOTE_OFF_72
NOTE_OFF_45
NOTE_OFF_57
TIME_SHIFT_64ND_10
VEL_3
NOTE_ON_68
VEL_4
NOTE_ON_80
VEL_3
NOTE_ON_71
VEL_3
NOTE_ON_41
VEL_3
NOTE_ON_38
VEL_3
NOTE_ON_50
TIME_SHIFT_64ND_3
NOTE_OFF_68
NOTE_OFF_80
NOTE_OFF_71
NOTE_OFF_41
NOTE_OFF_38
NOTE_OFF_50
TIME_SHIFT_64ND_9
VEL_4
NOTE_ON_69
VEL_5
NOTE_ON_81
VEL_4
NOTE_ON_72
VEL_3
NOTE_ON_52
VEL_3
NOTE_ON_45
VEL_4
NOTE_ON_57
TIME_SHIFT_64ND_22
VEL_3
NOTE_ON_36
TIME_SHIFT_64ND_2
NOTE_OFF_36
VEL_4
NOTE_ON_48
TIME_SHIFT_64ND_2
NOTE_OFF_69
NOTE_OFF_81
NOTE_OFF_72
NOTE_OFF_48
NOTE_OFF_52
NOTE_OFF_45
NOTE_OFF_57
VEL_3
NOTE_ON_84
VEL_4
NOTE_ON_89
VEL_4
NOTE_ON_93
VEL_3
NOTE_ON_81
VEL_3
NOTE_ON_65
VEL_4
NOTE_ON_69
VEL_3
NOTE_ON_57
VEL_3
NOTE_ON_60
TIME_SHIFT_64ND_6
NOTE_OFF_84
NOTE_OFF_89
NOTE_OFF_93
NOTE_OFF_81
VEL_3
NOTE_ON_80
VEL_4
NOTE_ON_92
TIME_SHIFT_64ND_6
NOTE_OFF_80
NOTE_OFF_92
VEL_3
NOTE_ON_81
VEL_4
NOTE_ON_93
TIME_SHIFT_64ND_6
NOTE_OFF_81
NOTE_OFF_93
VEL_4
NOTE_ON_83
VEL_4
NOTE_ON_95
TIME_SHIFT_64ND_3
NOTE_OFF_65
NOTE_OFF_69
NOTE_OFF_57
NOTE_OFF_60
VEL_3
NOTE_ON_36
TIME_SHIFT_64ND_2
NOTE_OFF_36
VEL_3
NOTE_ON_48
TIME_SHIFT_64ND_2
NOTE_OFF_83
NOTE_OFF_95
NOTE_OFF_48
VEL_4
NOTE_ON_88
VEL_4
NOTE_ON_84
VEL_5
NOTE_ON_96
VEL_3
NOTE_ON_67
VEL_4
NOTE_ON_72
VEL_3
NOTE_ON_60
VEL_3
NOTE_ON_64
TIME_SHIFT_64ND_22
NOTE_OFF_67
NOTE_OFF_72
NOTE_OFF_60
NOTE_OFF_64
VEL_3
NOTE_ON_33
TIME_SHIFT_64ND_2
NOTE_OFF_33
VEL_3
NOTE_ON_45
TIME_SHIFT_64ND_2
NOTE_OFF_88
NOTE_OFF_84
NOTE_OFF_96
NOTE_OFF_45
VEL_3
NOTE_ON_89
VEL_3
NOTE_ON_84
VEL_4
NOTE_ON_96
VEL_3
NOTE_ON_57
VEL_3
NOTE_ON_65
VEL_3
NOTE_ON_53
VEL_3
NOTE_ON_62
TIME_SHIFT_64ND_6
NOTE_OFF_89
NOTE_OFF_84
NOTE_OFF_96
VEL_3
NOTE_ON_83
VEL_4
NOTE_ON_95
TIME_SHIFT_64ND_6
NOTE_OFF_83
NOTE_OFF_95
VEL_3
NOTE_ON_81
VEL_4
NOTE_ON_93
TIME_SHIFT_64ND_6
NOTE_OFF_81
NOTE_OFF_93
VEL_4
NOTE_ON_80
VEL_4
NOTE_ON_92
TIME_SHIFT_64ND_3
NOTE_OFF_57
NOTE_OFF_65
NOTE_OFF_53
NOTE_OFF_62
VEL_3
NOTE_ON_33
TIME_SHIFT_64ND_2
NOTE_OFF_33
VEL_3
NOTE_ON_45
TIME_SHIFT_64ND_2
NOTE_OFF_80
NOTE_OFF_92
NOTE_OFF_45
VEL_4
NOTE_ON_81
VEL_4
NOTE_ON_84
VEL_5
NOTE_ON_93
VEL_4
NOTE_ON_88
VEL_3
NOTE_ON_64
VEL_4
NOTE_ON_69
VEL_3
NOTE_ON_57
VEL_3
NOTE_ON_60
TIME_SHIFT_64ND_19
NOTE_OFF_81
NOTE_OFF_84
NOTE_OFF_93
NOTE_OFF_88
VEL_3
NOTE_ON_84
VEL_4
NOTE_ON_96
TIME_SHIFT_64ND_6
NOTE_OFF_84
NOTE_OFF_96
NOTE_OFF_64
NOTE_OFF_69
NOTE_OFF_57
NOTE_OFF_60
VEL_4
NOTE_ON_83
VEL_4
NOTE_ON_95
VEL_3
NOTE_ON_35
VEL_4
NOTE_ON_47
TIME_SHIFT_64ND_6
NOTE_OFF_83
NOTE_OFF_95
NOTE_OFF_35
NOTE_OFF_47
VEL_3
NOTE_ON_81
VEL_4
NOTE_ON_93
TIME_SHIFT_64ND_5
NOTE_OFF_81
NOTE_OFF_93
TIME_SHIFT_64ND_1
VEL_3
NOTE_ON_80
VEL_4
NOTE_ON_92
VEL_3
NOTE_ON_64
VEL_3
NOTE_ON_59
VEL_3
NOTE_ON_68
TIME_SHIFT_64ND_3
NOTE_OFF_80
NOTE_OFF_92
NOTE_OFF_64
NOTE_OFF_59
NOTE_OFF_68
TIME_SHIFT_64ND_3
VEL_3
NOTE_ON_83
VEL_4
NOTE_ON_95
TIME_SHIFT_64ND_3
NOTE_OFF_83
NOTE_OFF_95
TIME_SHIFT_64ND_3
VEL_4
NOTE_ON_81
VEL_4
NOTE_ON_93
VEL_4
NOTE_ON_47
TIME_SHIFT_64ND_6
NOTE_OFF_81
NOTE_OFF_93
NOTE_OFF_47
VEL_3
NOTE_ON_73
VEL_4
NOTE_ON_85
TIME_SHIFT_64ND_5
NOTE_OFF_73
NOTE_OFF_85
TIME_SHIFT_64ND_1
VEL_3
NOTE_ON_78
VEL_4
NOTE_ON_90
VEL_3
NOTE_ON_61
VEL_3
NOTE_ON_66
VEL_3
NOTE_ON_69
TIME_SHIFT_64ND_3
NOTE_OFF_78
NOTE_OFF_90
NOTE_OFF_61
NOTE_OFF_66
NOTE_OFF_69
TIME_SHIFT_64ND_3
VEL_3
NOTE_ON_81
VEL_4
NOTE_ON_93
TIME_SHIFT_64ND_3
NOTE_OFF_81
NOTE_OFF_93
TIME_SHIFT_64ND_3
VEL_4
NOTE_ON_80
VEL_5
NOTE_ON_92
VEL_4
NOTE_ON_47
TIME_SHIFT_64ND_6
NOTE_OFF_80
NOTE_OFF_92
NOTE_OFF_47
VEL_3
NOTE_ON_78
VEL_4
NOTE_ON_90
TIME_SHIFT_64ND_5
NOTE_OFF_78
NOTE_OFF_90
TIME_SHIFT_64ND_1
VEL_3
NOTE_ON_76
VEL_4
NOTE_ON_88
VEL_3
NOTE_ON_59
VEL_3
NOTE_ON_64
VEL_3
NOTE_ON_68
TIME_SHIFT_64ND_3
NOTE_OFF_76
NOTE_OFF_88
NOTE_OFF_59
NOTE_OFF_64
NOTE_OFF_68
TIME_SHIFT_64ND_3
VEL_3
NOTE_ON_80
VEL_4
NOTE_ON_92
TIME_SHIFT_64ND_3
NOTE_OFF_80
NOTE_OFF_92
TIME_SHIFT_64ND_3
VEL_4
NOTE_ON_78
VEL_5
NOTE_ON_90
VEL_4
NOTE_ON_47
TIME_SHIFT_64ND_6
NOTE_OFF_78
NOTE_OFF_90
NOTE_OFF_47
VEL_3
NOTE_ON_76
VEL_4
NOTE_ON_88
TIME_SHIFT_64ND_5
NOTE_OFF_76
NOTE_OFF_88
TIME_SHIFT_64ND_1
VEL_3
NOTE_ON_75
VEL_4
NOTE_ON_87
VEL_2
NOTE_ON_57
VEL_2
NOTE_ON_63
VEL_3
NOTE_ON_66
TIME_SHIFT_64ND_3
NOTE_OFF_75
NOTE_OFF_87
NOTE_OFF_57
NOTE_OFF_63
NOTE_OFF_66
TIME_SHIFT_64ND_3
VEL_3
NOTE_ON_78
VEL_4
NOTE_ON_90
TIME_SHIFT_64ND_3
NOTE_OFF_78
NOTE_OFF_90
TIME_SHIFT_64ND_3
VEL_4
NOTE_ON_78
VEL_5
NOTE_ON_90
VEL_3
NOTE_ON_52
VEL_4
NOTE_ON_64
VEL_3
NOTE_ON_59
VEL_3
NOTE_ON_56
TIME_SHIFT_64ND_6
NOTE_OFF_78
NOTE_OFF_90
NOTE_OFF_52
NOTE_OFF_64
NOTE_OFF_59
NOTE_OFF_56
VEL_3
NOTE_ON_76
VEL_4
NOTE_ON_88
TIME_SHIFT_64ND_5
NOTE_OFF_76
NOTE_OFF_88
TIME_SHIFT_64ND_1
VEL_3
NOTE_ON_76
VEL_4
NOTE_ON_88
VEL_2
NOTE_ON_57
VEL_2
NOTE_ON_60
VEL_3
NOTE_ON_66
TIME_SHIFT_64ND_3
NOTE_OFF_76
NOTE_OFF_88
NOTE_OFF_57
NOTE_OFF_60
NOTE_OFF_66
TIME_SHIFT_64ND_3
VEL_3
NOTE_ON_75
VEL_4
NOTE_ON_87
TIME_SHIFT_64ND_3
NOTE_OFF_75
NOTE_OFF_87
TIME_SHIFT_64ND_3
VEL_4
NOTE_ON_78
VEL_5
NOTE_ON_90
VEL_3
NOTE_ON_52
VEL_4
NOTE_ON_64
VEL_3
NOTE_ON_59
VEL_3
NOTE_ON_56
TIME_SHIFT_64ND_6
NOTE_OFF_78
NOTE_OFF_90
NOTE_OFF_52
NOTE_OFF_64
NOTE_OFF_59
NOTE_OFF_56
VEL_3
NOTE_ON_76
VEL_4
NOTE_ON_88
TIME_SHIFT_64ND_5
NOTE_OFF_76
NOTE_OFF_88
TIME_SHIFT_64ND_1
VEL_3
NOTE_ON_76
VEL_4
NOTE_ON_88
VEL_3
NOTE_ON_57
VEL_3
NOTE_ON_60
VEL_3
NOTE_ON_66
TIME_SHIFT_64ND_3
NOTE_OFF_76
NOTE_OFF_88
NOTE_OFF_57
NOTE_OFF_60
NOTE_OFF_66
TIME_SHIFT_64ND_3
VEL_3
NOTE_ON_75
VEL_4
NOTE_ON_87
TIME_SHIFT_64ND_3
NOTE_OFF_75
NOTE_OFF_87
TIME_SHIFT_64ND_3
VEL_4
NOTE_ON_76
VEL_4
NOTE_ON_83
VEL_4
NOTE_ON_80
VEL_5
NOTE_ON_88
VEL_3
NOTE_ON_52
VEL_4
NOTE_ON_64
VEL_3
NOTE_ON_59
VEL_3
NOTE_ON_56
TIME_SHIFT_64ND_25
NOTE_OFF_76
NOTE_OFF_83
NOTE_OFF_80
NOTE_OFF_88
NOTE_OFF_52
NOTE_OFF_64
NOTE_OFF_59
NOTE_OFF_56
VEL_4
NOTE_ON_88
VEL_5
NOTE_ON_100
VEL_4
NOTE_ON_95
VEL_4
NOTE_ON_92
VEL_3
NOTE_ON_47
VEL_4
NOTE_ON_52
VEL_3
NOTE_ON_40
VEL_3
NOTE_ON_44
TIME_SHIFT_64ND_6
NOTE_OFF_88
NOTE_OFF_100
NOTE_OFF_95
NOTE_OFF_92
NOTE_OFF_47
NOTE_OFF_52
NOTE_OFF_40
NOTE_OFF_44
TIME_SHIFT_64ND_15
VEL_5
NOTE_ON_64
TIME_SHIFT_64ND_3
NOTE_OFF_64
VEL_5
NOTE_ON_64
TIME_SHIFT_64ND_6
NOTE_OFF_64
TIME_SHIFT_64ND_18
VEL_4
NOTE_ON_64
VEL_5
NOTE_ON_68
VEL_4
NOTE_ON_61
TIME_SHIFT_64ND_6
NOTE_OFF_64
NOTE_OFF_68
NOTE_OFF_61
TIME_SHIFT_64ND_19
VEL_4
NOTE_ON_68
VEL_4
NOTE_ON_63
VEL_5
NOTE_ON_71
VEL_4
NOTE_ON_56
TIME_SHIFT_64ND_46
NOTE_OFF_68
NOTE_OFF_63
NOTE_OFF_71
NOTE_OFF_56
VEL_4
NOTE_ON_68
VEL_4
NOTE_ON_64
VEL_5
NOTE_ON_76
VEL_3
NOTE_ON_49
VEL_3
NOTE_ON_61
TIME_SHIFT_64ND_3
NOTE_OFF_68
NOTE_OFF_64
NOTE_OFF_76
NOTE_OFF_49
NOTE_OFF_61
VEL_4
NOTE_ON_63
VEL_5
NOTE_ON_71
VEL_4
NOTE_ON_68
VEL_4
NOTE_ON_56
TIME_SHIFT_64ND_21
NOTE_OFF_63
NOTE_OFF_71
NOTE_OFF_68
NOTE_OFF_56
VEL_4
NOTE_ON_68
VEL_4
NOTE_ON_64
VEL_5
NOTE_ON_76
VEL_3
NOTE_ON_49
VEL_3
NOTE_ON_61
TIME_SHIFT_64ND_3
NOTE_OFF_68
NOTE_OFF_64
NOTE_OFF_76
NOTE_OFF_49
NOTE_OFF_61
VEL_4
NOTE_ON_68
VEL_4
NOTE_ON_63
VEL_5
NOTE_ON_71
VEL_4
NOTE_ON_56
TIME_SHIFT_64ND_21
NOTE_OFF_68
NOTE_OFF_63
NOTE_OFF_71
NOTE_OFF_56
VEL_4
NOTE_ON_68
VEL_4
NOTE_ON_64
VEL_5
NOTE_ON_76
VEL_3
NOTE_ON_49
VEL_3
NOTE_ON_61
TIME_SHIFT_64ND_3
NOTE_OFF_68
NOTE_OFF_64
NOTE_OFF_76
NOTE_OFF_49
NOTE_OFF_61
VEL_4
NOTE_ON_68
VEL_4
NOTE_ON_63
VEL_5
NOTE_ON_71
VEL_4
NOTE_ON_44
VEL_5
NOTE_ON_56
TIME_SHIFT_64ND_6
NOTE_OFF_44
NOTE_OFF_56
TIME_SHIFT_64ND_6
VEL_4
NOTE_ON_43
VEL_5
NOTE_ON_55
TIME_SHIFT_64ND_6
NOTE_OFF_43
NOTE_OFF_55
TIME_SHIFT_64ND_6
VEL_4
NOTE_ON_42
VEL_5
NOTE_ON_54
TIME_SHIFT_64ND_6
NOTE_OFF_42
NOTE_OFF_54
TIME_SHIFT_64ND_6
VEL_4
NOTE_ON_41
VEL_5
NOTE_ON_53
TIME_SHIFT_64ND_7
NOTE_OFF_41
NOTE_OFF_53
TIME_SHIFT_64ND_7
NOTE_OFF_68
NOTE_OFF_63
NOTE_OFF_71
VEL_4
NOTE_ON_71
VEL_4
NOTE_ON_64
VEL_5
NOTE_ON_76
VEL_4
NOTE_ON_62
VEL_4
NOTE_ON_68
VEL_4
NOTE_ON_40
VEL_5
NOTE_ON_52
TIME_SHIFT_64ND_5
NOTE_OFF_71
NOTE_OFF_64
NOTE_OFF_76
NOTE_OFF_62
NOTE_OFF_68
NOTE_OFF_40
NOTE_OFF_52
TIME_SHIFT_64ND_34
VEL_3
NOTE_ON_76
TIME_SHIFT_64ND_11
NOTE_OFF_76
VEL_3
NOTE_ON_84
VEL_2
NOTE_ON_57
TIME_SHIFT_64ND_4
VEL_1
NOTE_ON_69
TIME_SHIFT_64ND_2
NOTE_OFF_84
NOTE_OFF_57
VEL_3
NOTE_ON_88
TIME_SHIFT_64ND_2
NOTE_OFF_69
VEL_1
NOTE_ON_71
TIME_SHIFT_64ND_4
NOTE_OFF_88
NOTE_OFF_71
VEL_2
NOTE_ON_76
VEL_3
NOTE_ON_84
VEL_2
NOTE_ON_72
TIME_SHIFT_64ND_4
NOTE_OFF_72
VEL_2
NOTE_ON_71
TIME_SHIFT_64ND_2
NOTE_OFF_76
NOTE_OFF_84
VEL_2
NOTE_ON_77
TIME_SHIFT_64ND_2
NOTE_OFF_71
VEL_2
NOTE_ON_69
TIME_SHIFT_64ND_1
NOTE_OFF_77
TIME_SHIFT_64ND_3
NOTE_OFF_69
VEL_3
NOTE_ON_83
VEL_2
NOTE_ON_76
VEL_2
NOTE_ON_55
TIME_SHIFT_64ND_4
VEL_2
NOTE_ON_67
TIME_SHIFT_64ND_2
NOTE_OFF_83
NOTE_OFF_55
VEL_3
NOTE_ON_86
TIME_SHIFT_64ND_2
NOTE_OFF_67
VEL_2
NOTE_ON_69
TIME_SHIFT_64ND_4
NOTE_OFF_86
NOTE_OFF_76
NOTE_OFF_69
VEL_2
NOTE_ON_74
VEL_3
NOTE_ON_83
VEL_2
NOTE_ON_71
TIME_SHIFT_64ND_4
NOTE_OFF_71
VEL_2
NOTE_ON_69
TIME_SHIFT_64ND_2
NOTE_OFF_74
NOTE_OFF_83
VEL_2
NOTE_ON_76
TIME_SHIFT_64ND_2
NOTE_OFF_69
VEL_1
NOTE_ON_67
TIME_SHIFT_64ND_1
NOTE_OFF_76
TIME_SHIFT_64ND_3
NOTE_OFF_67
VEL_3
NOTE_ON_81
VEL_2
NOTE_ON_74
VEL_2
NOTE_ON_53
TIME_SHIFT_64ND_4
VEL_1
NOTE_ON_65
TIME_SHIFT_64ND_2
NOTE_OFF_81
NOTE_OFF_53
VEL_3
NOTE_ON_84
TIME_SHIFT_64ND_2
NOTE_OFF_65
VEL_2
NOTE_ON_67
TIME_SHIFT_64ND_4
NOTE_OFF_84
NOTE_OFF_74
NOTE_OFF_67
VEL_2
NOTE_ON_72
VEL_3
NOTE_ON_81
VEL_2
NOTE_ON_69
TIME_SHIFT_64ND_4
NOTE_OFF_69
VEL_2
NOTE_ON_67
TIME_SHIFT_64ND_2
NOTE_OFF_72
NOTE_OFF_81
VEL_2
NOTE_ON_74
TIME_SHIFT_64ND_2
NOTE_OFF_67
VEL_2
NOTE_ON_65
TIME_SHIFT_64ND_1
NOTE_OFF_74
TIME_SHIFT_64ND_3
NOTE_OFF_65
VEL_3
NOTE_ON_80
VEL_2
NOTE_ON_72
VEL_2
NOTE_ON_52
TIME_SHIFT_64ND_4
VEL_1
NOTE_ON_64
TIME_SHIFT_64ND_2
NOTE_OFF_80
NOTE_OFF_52
VEL_3
NOTE_ON_83
TIME_SHIFT_64ND_2
NOTE_OFF_64
VEL_2
NOTE_ON_65
TIME_SHIFT_64ND_4
NOTE_OFF_83
NOTE_OFF_72
NOTE_OFF_65
VEL_2
NOTE_ON_71
VEL_3
NOTE_ON_80
VEL_2
NOTE_ON_68
TIME_SHIFT_64ND_4
NOTE_OFF_68
VEL_2
NOTE_ON_65
TIME_SHIFT_64ND_2
NOTE_OFF_71
NOTE_OFF_80
VEL_2
NOTE_ON_72
TIME_SHIFT_64ND_2
NOTE_OFF_65
VEL_1
NOTE_ON_64
TIME_SHIFT_64ND_1
NOTE_OFF_72
TIME_SHIFT_64ND_3
NOTE_OFF_64
VEL_3
NOTE_ON_77
VEL_2
NOTE_ON_71
VEL_2
NOTE_ON_50
TIME_SHIFT_64ND_4
VEL_1
NOTE_ON_62
TIME_SHIFT_64ND_2
NOTE_OFF_77
NOTE_OFF_50
VEL_3
NOTE_ON_81
TIME_SHIFT_64ND_2
NOTE_OFF_62
VEL_1
NOTE_ON_64
TIME_SHIFT_64ND_4
NOTE_OFF_81
NOTE_OFF_71
NOTE_OFF_64
VEL_2
NOTE_ON_69
VEL_3
NOTE_ON_77
VEL_2
NOTE_ON_65
TIME_SHIFT_64ND_4
NOTE_OFF_65
VEL_2
NOTE_ON_62
TIME_SHIFT_64ND_2
NOTE_OFF_69
NOTE_OFF_77
VEL_2
NOTE_ON_71
TIME_SHIFT_64ND_2
NOTE_OFF_62
VEL_1
NOTE_ON_60
TIME_SHIFT_64ND_1
NOTE_OFF_71
TIME_SHIFT_64ND_3
NOTE_OFF_60
VEL_3
NOTE_ON_68
VEL_3
NOTE_ON_76
VEL_2
NOTE_ON_59
VEL_2
NOTE_ON_52
TIME_SHIFT_64ND_5
NOTE_OFF_68
NOTE_OFF_59
VEL_2
NOTE_ON_71
VEL_2
NOTE_ON_64
TIME_SHIFT_64ND_5
NOTE_OFF_71
NOTE_OFF_64
NOTE_OFF_52
VEL_3
NOTE_ON_68
VEL_2
NOTE_ON_59
TIME_SHIFT_64ND_6
NOTE_OFF_68
NOTE_OFF_76
NOTE_OFF_59
VEL_3
NOTE_ON_80
VEL_2
NOTE_ON_71
VEL_2
NOTE_ON_64
TIME_SHIFT_64ND_6
NOTE_OFF_80
NOTE_OFF_71
NOTE_OFF_64
VEL_3
NOTE_ON_68
VEL_4
NOTE_ON_76
VEL_2
NOTE_ON_59
VEL_2
NOTE_ON_52
TIME_SHIFT_64ND_5
NOTE_OFF_68
NOTE_OFF_59
VEL_2
NOTE_ON_71
VEL_2
NOTE_ON_64
TIME_SHIFT_64ND_5
NOTE_OFF_71
NOTE_OFF_64
NOTE_OFF_52
VEL_3
NOTE_ON_68
VEL_2
NOTE_ON_59
TIME_SHIFT_64ND_6
NOTE_OFF_68
NOTE_OFF_76
NOTE_OFF_59
VEL_3
NOTE_ON_80
VEL_2
NOTE_ON_71
VEL_2
NOTE_ON_64
TIME_SHIFT_64ND_6
NOTE_OFF_80
NOTE_OFF_71
NOTE_OFF_64
VEL_3
NOTE_ON_68
VEL_4
NOTE_ON_76
VEL_2
NOTE_ON_59
VEL_2
NOTE_ON_52
TIME_SHIFT_64ND_5
NOTE_OFF_68
NOTE_OFF_76
NOTE_OFF_59
VEL_3
NOTE_ON_80
VEL_3
NOTE_ON_71
VEL_2
NOTE_ON_64
TIME_SHIFT_64ND_3
NOTE_OFF_80
NOTE_OFF_71
NOTE_OFF_64
TIME_SHIFT_64ND_3
NOTE_OFF_52
VEL_3
NOTE_ON_68
VEL_4
NOTE_ON_76
VEL_2
NOTE_ON_59
VEL_2
NOTE_ON_52
TIME_SHIFT_64ND_6
NOTE_OFF_68
NOTE_OFF_76
NOTE_OFF_59
VEL_3
NOTE_ON_71
VEL_3
NOTE_ON_80
VEL_2
NOTE_ON_64
TIME_SHIFT_64ND_3
NOTE_OFF_71
NOTE_OFF_80
NOTE_OFF_64
TIME_SHIFT_64ND_3
NOTE_OFF_52
VEL_4
NOTE_ON_76
VEL_3
NOTE_ON_68
VEL_2
NOTE_ON_52
VEL_3
NOTE_ON_59
TIME_SHIFT_64ND_3
NOTE_OFF_76
NOTE_OFF_52
NOTE_OFF_59
TIME_SHIFT_64ND_3
VEL_3
NOTE_ON_71
TIME_SHIFT_64ND_3
NOTE_OFF_71
TIME_SHIFT_64ND_3
NOTE_OFF_68
VEL_3
NOTE_ON_68
VEL_3
NOTE_ON_59
VEL_3
NOTE_ON_64
VEL_3
NOTE_ON_52
VEL_3
NOTE_ON_56
TIME_SHIFT_64ND_3
NOTE_OFF_59
NOTE_OFF_64
NOTE_OFF_52
NOTE_OFF_56
TIME_SHIFT_64ND_3
VEL_4
NOTE_ON_71
TIME_SHIFT_64ND_3
NOTE_OFF_71
TIME_SHIFT_64ND_3
NOTE_OFF_68
VEL_4
NOTE_ON_76
VEL_3
NOTE_ON_64
VEL_3
NOTE_ON_52
VEL_4
NOTE_ON_56
VEL_4
NOTE_ON_59
VEL_3
NOTE_ON_47
TIME_SHIFT_64ND_3
NOTE_OFF_76
NOTE_OFF_52
NOTE_OFF_56
NOTE_OFF_59
NOTE_OFF_47
TIME_SHIFT_64ND_3
VEL_4
NOTE_ON_71
TIME_SHIFT_64ND_3
NOTE_OFF_71
TIME_SHIFT_64ND_3
NOTE_OFF_64
VEL_4
NOTE_ON_64
VEL_4
NOTE_ON_76
VEL_3
NOTE_ON_52
VEL_4
NOTE_ON_56
VEL_3
NOTE_ON_44
VEL_3
NOTE_ON_47
TIME_SHIFT_64ND_3
NOTE_OFF_64
NOTE_OFF_76
NOTE_OFF_52
NOTE_OFF_56
NOTE_OFF_44
NOTE_OFF_47
TIME_SHIFT_64ND_3
VEL_4
NOTE_ON_68
VEL_5
NOTE_ON_80
TIME_SHIFT_64ND_3
NOTE_OFF_68
NOTE_OFF_80
TIME_SHIFT_64ND_3
VEL_4
NOTE_ON_80
VEL_4
NOTE_ON_71
VEL_4
NOTE_ON_76
VEL_5
NOTE_ON_83
VEL_3
NOTE_ON_40
VEL_3
NOTE_ON_47
VEL_3
NOTE_ON_44
VEL_4
NOTE_ON_52
TIME_SHIFT_64ND_23
NOTE_OFF_80
NOTE_OFF_71
NOTE_OFF_76
NOTE_OFF_83
NOTE_OFF_40
NOTE_OFF_47
NOTE_OFF_44
NOTE_OFF_52
VEL_5
NOTE_ON_83
VEL_6
NOTE_ON_88
VEL_5
NOTE_ON_76
VEL_5
NOTE_ON_80
VEL_3
NOTE_ON_52
VEL_4
NOTE_ON_64
VEL_3
NOTE_ON_59
VEL_3
NOTE_ON_56
TIME_SHIFT_64ND_6
NOTE_OFF_83
NOTE_OFF_88
NOTE_OFF_76
NOTE_OFF_80
NOTE_OFF_52
NOTE_OFF_64
NOTE_OFF_59
NOTE_OFF_56
TIME_SHIFT_64ND_6
VEL_4
NOTE_ON_76
VEL_4
NOTE_ON_52
TIME_SHIFT_64ND_4
NOTE_OFF_76
NOTE_OFF_52
VEL_4
NOTE_ON_78
VEL_4
NOTE_ON_54
TIME_SHIFT_64ND_4
NOTE_OFF_78
NOTE_OFF_54
VEL_5
NOTE_ON_80
VEL_4
NOTE_ON_56
TIME_SHIFT_64ND_4
NOTE_OFF_80
NOTE_OFF_56
VEL_5
NOTE_ON_81
VEL_4
NOTE_ON_69
VEL_4
NOTE_ON_72
VEL_3
NOTE_ON_45
VEL_4
NOTE_ON_57
TIME_SHIFT_64ND_6
NOTE_OFF_81
NOTE_OFF_69
NOTE_OFF_72
NOTE_OFF_45
NOTE_OFF_57
TIME_SHIFT_64ND_6
VEL_4
NOTE_ON_80
VEL_3
NOTE_ON_68
VEL_3
NOTE_ON_71
VEL_2
NOTE_ON_41
VEL_3
NOTE_ON_53
TIME_SHIFT_64ND_3
NOTE_OFF_80
NOTE_OFF_68
NOTE_OFF_71
NOTE_OFF_41
NOTE_OFF_53
TIME_SHIFT_64ND_3
VEL_3
NOTE_ON_74
VEL_4
NOTE_ON_83
VEL_3
NOTE_ON_71
TIME_SHIFT_64ND_3
NOTE_OFF_74
NOTE_OFF_83
NOTE_OFF_71
TIME_SHIFT_64ND_3
VEL_4
NOTE_ON_72
VEL_5
NOTE_ON_81
VEL_4
NOTE_ON_69
VEL_3
NOTE_ON_45
VEL_4
NOTE_ON_57
TIME_SHIFT_64ND_5
NOTE_OFF_72
NOTE_OFF_81
NOTE_OFF_69
NOTE_OFF_45
NOTE_OFF_57
TIME_SHIFT_64ND_5
VEL_4
NOTE_ON_80
VEL_3
NOTE_ON_68
VEL_3
NOTE_ON_71
VEL_2
NOTE_ON_40
VEL_3
NOTE_ON_52
TIME_SHIFT_64ND_3
NOTE_OFF_80
NOTE_OFF_68
NOTE_OFF_71
NOTE_OFF_40
NOTE_OFF_52
TIME_SHIFT_64ND_3
VEL_3
NOTE_ON_71
VEL_4
NOTE_ON_83
VEL_3
NOTE_ON_74
TIME_SHIFT_64ND_3
NOTE_OFF_71
NOTE_OFF_83
NOTE_OFF_74
TIME_SHIFT_64ND_3
VEL_4
NOTE_ON_72
VEL_5
NOTE_ON_81
VEL_4
NOTE_ON_69
VEL_3
NOTE_ON_45
VEL_4
NOTE_ON_57
TIME_SHIFT_64ND_3
NOTE_OFF_72
NOTE_OFF_81
NOTE_OFF_69
NOTE_OFF_45
NOTE_OFF_57
TIME_SHIFT_64ND_9
VEL_4
NOTE_ON_80
VEL_3
NOTE_ON_68
VEL_3
NOTE_ON_71
VEL_3
NOTE_ON_41
VEL_3
NOTE_ON_38
VEL_3
NOTE_ON_50
TIME_SHIFT_64ND_3
NOTE_OFF_80
NOTE_OFF_68
NOTE_OFF_71
NOTE_OFF_41
NOTE_OFF_38
NOTE_OFF_50
TIME_SHIFT_64ND_9
VEL_5
NOTE_ON_81
VEL_4
NOTE_ON_72
VEL_4
NOTE_ON_69
VEL_3
NOTE_ON_52
VEL_3
NOTE_ON_45
VEL_4
NOTE_ON_57
TIME_SHIFT_64ND_23
NOTE_OFF_81
NOTE_OFF_72
NOTE_OFF_69
NOTE_OFF_52
NOTE_OFF_45
NOTE_OFF_57
VEL_3
NOTE_ON_81
VEL_4
NOTE_ON_93
TIME_SHIFT_64ND_3
NOTE_OFF_81
NOTE_OFF_93
TIME_SHIFT_64ND_3
VEL_4
NOTE_ON_83
VEL_4
NOTE_ON_95
TIME_SHIFT_64ND_3
NOTE_OFF_83
NOTE_OFF_95
TIME_SHIFT_64ND_3
VEL_4
NOTE_ON_84
VEL_5
NOTE_ON_96
VEL_3
NOTE_ON_57
VEL_4
NOTE_ON_69
TIME_SHIFT_64ND_3
NOTE_OFF_57
NOTE_OFF_69
TIME_SHIFT_64ND_3
VEL_4
NOTE_ON_59
VEL_4
NOTE_ON_71
TIME_SHIFT_64ND_3
NOTE_OFF_59
NOTE_OFF_71
TIME_SHIFT_64ND_3
VEL_4
NOTE_ON_60
VEL_5
NOTE_ON_72
TIME_SHIFT_64ND_5
NOTE_OFF_84
NOTE_OFF_96
VEL_3
NOTE_ON_83
VEL_4
NOTE_ON_95
TIME_SHIFT_64ND_3
NOTE_OFF_83
NOTE_OFF_95
TIME_SHIFT_64ND_3
VEL_4
NOTE_ON_81
VEL_5
NOTE_ON_93
TIME_SHIFT_64ND_5
NOTE_OFF_60
NOTE_OFF_72
VEL_3
NOTE_ON_59
VEL_4
NOTE_ON_71
TIME_SHIFT_64ND_3
NOTE_OFF_59
NOTE_OFF_71
TIME_SHIFT_64ND_3
VEL_4
NOTE_ON_57
VEL_5
NOTE_ON_69
TIME_SHIFT_64ND_5
NOTE_OFF_81
NOTE_OFF_93
VEL_3
NOTE_ON_79
VEL_4
NOTE_ON_91
TIME_SHIFT_64ND_3
NOTE_OFF_79
NOTE_OFF_91
TIME_SHIFT_64ND_3
VEL_4
NOTE_ON_77
VEL_5
NOTE_ON_89
TIME_SHIFT_64ND_5
NOTE_OFF_57
NOTE_OFF_69
VEL_3
NOTE_ON_55
VEL_4
NOTE_ON_67
TIME_SHIFT_64ND_3
NOTE_OFF_55
NOTE_OFF_67
TIME_SHIFT_64ND_3
VEL_4
NOTE_ON_53
VEL_5
NOTE_ON_65
TIME_SHIFT_64ND_5
NOTE_OFF_77
NOTE_OFF_89
VEL_4
NOTE_ON_76
VEL_5
NOTE_ON_88
TIME_SHIFT_64ND_3
NOTE_OFF_76
NOTE_OFF_88
TIME_SHIFT_64ND_3
VEL_4
NOTE_ON_74
VEL_5
NOTE_ON_86
TIME_SHIFT_64ND_3
NOTE_OFF_74
NOTE_OFF_86
TIME_SHIFT_64ND_3
NOTE_OFF_53
NOTE_OFF_65
VEL_4
NOTE_ON_73
VEL_5
NOTE_ON_85
VEL_4
NOTE_ON_64
VEL_4
NOTE_ON_52
TIME_SHIFT_64ND_3
NOTE_OFF_73
NOTE_OFF_85
NOTE_OFF_64
NOTE_OFF_52
TIME_SHIFT_64ND_3
VEL_5
NOTE_ON_86
VEL_4
NOTE_ON_74
VEL_4
NOTE_ON_77
VEL_3
NOTE_ON_50
VEL_4
NOTE_ON_62
TIME_SHIFT_64ND_5
NOTE_OFF_86
NOTE_OFF_74
NOTE_OFF_77
NOTE_OFF_50
NOTE_OFF_62
TIME_SHIFT_64ND_5
VEL_4
NOTE_ON_85
VEL_3
NOTE_ON_73
VEL_3
NOTE_ON_76
VEL_2
NOTE_ON_46
VEL_3
NOTE_ON_58
TIME_SHIFT_64ND_3
NOTE_OFF_85
NOTE_OFF_73
NOTE_OFF_76
NOTE_OFF_46
NOTE_OFF_58
TIME_SHIFT_64ND_3
VEL_3
NOTE_ON_79
VEL_4
NOTE_ON_88
VEL_3
NOTE_ON_76
TIME_SHIFT_64ND_3
NOTE_OFF_79
NOTE_OFF_88
NOTE_OFF_76
TIME_SHIFT_64ND_3
VEL_4
NOTE_ON_77
VEL_5
NOTE_ON_86
VEL_4
NOTE_ON_74
VEL_3
NOTE_ON_50
VEL_4
NOTE_ON_62
TIME_SHIFT_64ND_5
NOTE_OFF_77
NOTE_OFF_86
NOTE_OFF_74
NOTE_OFF_50
NOTE_OFF_62
TIME_SHIFT_64ND_5
VEL_4
NOTE_ON_85
VEL_3
NOTE_ON_73
VEL_3
NOTE_ON_76
VEL_2
NOTE_ON_45
VEL_3
NOTE_ON_57
TIME_SHIFT_64ND_3
NOTE_OFF_85
NOTE_OFF_73
NOTE_OFF_76
NOTE_OFF_45
NOTE_OFF_57
TIME_SHIFT_64ND_3
VEL_3
NOTE_ON_76
VEL_4
NOTE_ON_88
VEL_3
NOTE_ON_79
TIME_SHIFT_64ND_3
NOTE_OFF_76
NOTE_OFF_88
NOTE_OFF_79
TIME_SHIFT_64ND_3
VEL_4
NOTE_ON_77
VEL_5
NOTE_ON_86
VEL_4
NOTE_ON_74
VEL_3
NOTE_ON_50
VEL_4
NOTE_ON_62
TIME_SHIFT_64ND_3
NOTE_OFF_77
NOTE_OFF_86
NOTE_OFF_74
NOTE_OFF_50
NOTE_OFF_62
TIME_SHIFT_64ND_8
VEL_4
NOTE_ON_85
VEL_3
NOTE_ON_73
VEL_3
NOTE_ON_76
VEL_3
NOTE_ON_46
VEL_3
NOTE_ON_43
VEL_3
NOTE_ON_55
TIME_SHIFT_64ND_3
NOTE_OFF_85
NOTE_OFF_73
NOTE_OFF_76
NOTE_OFF_46
NOTE_OFF_43
NOTE_OFF_55
TIME_SHIFT_64ND_9
VEL_5
NOTE_ON_86
VEL_4
NOTE_ON_77
VEL_4
NOTE_ON_74
VEL_3
NOTE_ON_57
VEL_3
NOTE_ON_50
VEL_4
NOTE_ON_62
TIME_SHIFT_64ND_24
NOTE_OFF_86
NOTE_OFF_77
NOTE_OFF_74
NOTE_OFF_57
NOTE_OFF_50
NOTE_OFF_62
VEL_3
NOTE_ON_86
VEL_4
NOTE_ON_98
TIME_SHIFT_64ND_3
NOTE_OFF_86
NOTE_OFF_98
TIME_SHIFT_64ND_3
VEL_4
NOTE_ON_88
VEL_4
NOTE_ON_100
TIME_SHIFT_64ND_3
NOTE_OFF_88
NOTE_OFF_100
TIME_SHIFT_64ND_3
VEL_4
NOTE_ON_89
VEL_5
NOTE_ON_101
VEL_3
NOTE_ON_62
VEL_4
NOTE_ON_74
TIME_SHIFT_64ND_3
NOTE_OFF_62
NOTE_OFF_74
TIME_SHIFT_64ND_3
VEL_4
NOTE_ON_64
VEL_4
NOTE_ON_76
TIME_SHIFT_64ND_3
NOTE_OFF_64
NOTE_OFF_76
TIME_SHIFT_64ND_3
VEL_4
NOTE_ON_65
VEL_5
NOTE_ON_77
TIME_SHIFT_64ND_5
NOTE_OFF_89
NOTE_OFF_101
VEL_3
NOTE_ON_88
VEL_4
NOTE_ON_100
TIME_SHIFT_64ND_3
NOTE_OFF_88
NOTE_OFF_100
TIME_SHIFT_64ND_3
VEL_4
NOTE_ON_86
VEL_5
NOTE_ON_98
TIME_SHIFT_64ND_5
NOTE_OFF_65
NOTE_OFF_77
VEL_3
NOTE_ON_64
VEL_4
NOTE_ON_76
TIME_SHIFT_64ND_3
NOTE_OFF_64
NOTE_OFF_76
TIME_SHIFT_64ND_3
VEL_4
NOTE_ON_62
VEL_5
NOTE_ON_74
TIME_SHIFT_64ND_5
NOTE_OFF_86
NOTE_OFF_98
VEL_3
NOTE_ON_84
VEL_4
NOTE_ON_96
TIME_SHIFT_64ND_3
NOTE_OFF_84
NOTE_OFF_96
TIME_SHIFT_64ND_3
VEL_4
NOTE_ON_83
VEL_5
NOTE_ON_95
TIME_SHIFT_64ND_5
NOTE_OFF_62
NOTE_OFF_74
VEL_3
NOTE_ON_60
VEL_4
NOTE_ON_72
TIME_SHIFT_64ND_3
NOTE_OFF_60
NOTE_OFF_72
TIME_SHIFT_64ND_3
VEL_4
NOTE_ON_59
VEL_5
NOTE_ON_71
TIME_SHIFT_64ND_5
NOTE_OFF_83
NOTE_OFF_95
VEL_4
NOTE_ON_81
VEL_4
NOTE_ON_93
TIME_SHIFT_64ND_3
NOTE_OFF_81
NOTE_OFF_93
TIME_SHIFT_64ND_3
VEL_4
NOTE_ON_80
VEL_4
NOTE_ON_92
TIME_SHIFT_64ND_3
NOTE_OFF_80
NOTE_OFF_92
TIME_SHIFT_64ND_3
NOTE_OFF_59
NOTE_OFF_71
VEL_4
NOTE_ON_81
VEL_4
NOTE_ON_93
VEL_3
NOTE_ON_57
VEL_4
NOTE_ON_69
TIME_SHIFT_64ND_3
NOTE_OFF_81
NOTE_OFF_93
NOTE_OFF_57
NOTE_OFF_69
TIME_SHIFT_64ND_3
VEL_4
NOTE_ON_80
VEL_4
NOTE_ON_92
VEL_3
NOTE_ON_56
VEL_4
NOTE_ON_68
TIME_SHIFT_64ND_3
NOTE_OFF_80
NOTE_OFF_92
NOTE_OFF_56
NOTE_OFF_68
TIME_SHIFT_64ND_3
VEL_4
NOTE_ON_83
VEL_5
NOTE_ON_95
VEL_4
NOTE_ON_59
VEL_4
NOTE_ON_71
TIME_SHIFT_64ND_3
NOTE_OFF_83
NOTE_OFF_95
NOTE_OFF_59
NOTE_OFF_71
TIME_SHIFT_64ND_3
VEL_4
NOTE_ON_88
VEL_5
NOTE_ON_100
VEL_4
NOTE_ON_64
VEL_5
NOTE_ON_76
TIME_SHIFT_64ND_5
NOTE_OFF_88
NOTE_OFF_100
NOTE_OFF_64
NOTE_OFF_76
TIME_SHIFT_64ND_6
VEL_4
NOTE_ON_59
VEL_4
NOTE_ON_56
VEL_5
NOTE_ON_64
VEL_3
NOTE_ON_47
VEL_4
NOTE_ON_52
VEL_3
NOTE_ON_40
VEL_3
NOTE_ON_44
TIME_SHIFT_64ND_22
NOTE_OFF_59
NOTE_OFF_56
NOTE_OFF_64
NOTE_OFF_47
NOTE_OFF_52
NOTE_OFF_40
NOTE_OFF_44
VEL_4
NOTE_ON_81
VEL_5
NOTE_ON_93
VEL_4
NOTE_ON_57
VEL_4
NOTE_ON_69
TIME_SHIFT_64ND_3
NOTE_OFF_81
NOTE_OFF_93
NOTE_OFF_57
NOTE_OFF_69
TIME_SHIFT_64ND_3
VEL_4
NOTE_ON_84
VEL_5
NOTE_ON_96
VEL_4
NOTE_ON_60
VEL_5
NOTE_ON_72
TIME_SHIFT_64ND_3
NOTE_OFF_84
NOTE_OFF_96
NOTE_OFF_60
NOTE_OFF_72
TIME_SHIFT_64ND_3
VEL_4
NOTE_ON_88
VEL_5
NOTE_ON_100
VEL_4
NOTE_ON_64
VEL_5
NOTE_ON_76
TIME_SHIFT_64ND_5
NOTE_OFF_88
NOTE_OFF_100
NOTE_OFF_64
NOTE_OFF_76
TIME_SHIFT_64ND_6
VEL_4
NOTE_ON_60
VEL_4
NOTE_ON_57
VEL_5
NOTE_ON_64
VEL_3
NOTE_ON_48
VEL_4
NOTE_ON_52
VEL_3
NOTE_ON_40
VEL_3
NOTE_ON_45
TIME_SHIFT_64ND_22
NOTE_OFF_60
NOTE_OFF_57
NOTE_OFF_64
NOTE_OFF_48
NOTE_OFF_52
NOTE_OFF_40
NOTE_OFF_45
VEL_3
NOTE_ON_71
VEL_4
NOTE_ON_80
VEL_5
NOTE_ON_65
TIME_SHIFT_64ND_2
NOTE_OFF_71
NOTE_OFF_80
TIME_SHIFT_64ND_2
VEL_3
NOTE_ON_74
VEL_4
NOTE_ON_83
TIME_SHIFT_64ND_2
NOTE_OFF_74
NOTE_OFF_83
TIME_SHIFT_64ND_2
NOTE_OFF_65
VEL_3
NOTE_ON_71
VEL_4
NOTE_ON_80
VEL_4
NOTE_ON_64
TIME_SHIFT_64ND_3
NOTE_OFF_71
NOTE_OFF_80
NOTE_OFF_64
TIME_SHIFT_64ND_3
VEL_3
NOTE_ON_74
VEL_4
NOTE_ON_83
TIME_SHIFT_64ND_3
NOTE_OFF_74
NOTE_OFF_83
TIME_SHIFT_64ND_3
VEL_5
NOTE_ON_53
VEL_3
NOTE_ON_44
VEL_4
NOTE_ON_47
TIME_SHIFT_64ND_3
NOTE_OFF_44
NOTE_OFF_47
TIME_SHIFT_64ND_3
VEL_4
NOTE_ON_50
TIME_SHIFT_64ND_3
NOTE_OFF_50
TIME_SHIFT_64ND_3
NOTE_OFF_53
VEL_4
NOTE_ON_52
VEL_3
NOTE_ON_44
VEL_4
NOTE_ON_47
TIME_SHIFT_64ND_3
NOTE_OFF_52
NOTE_OFF_44
NOTE_OFF_47
TIME_SHIFT_64ND_3
VEL_4
NOTE_ON_50
TIME_SHIFT_64ND_3
NOTE_OFF_50
TIME_SHIFT_64ND_3
VEL_3
NOTE_ON_72
VEL_4
NOTE_ON_81
VEL_5
NOTE_ON_65
TIME_SHIFT_64ND_2
NOTE_OFF_72
NOTE_OFF_81
TIME_SHIFT_64ND_2
VEL_3
NOTE_ON_76
VEL_4
NOTE_ON_84
TIME_SHIFT_64ND_2
NOTE_OFF_76
NOTE_OFF_84
TIME_SHIFT_64ND_2
NOTE_OFF_65
VEL_3
NOTE_ON_72
VEL_4
NOTE_ON_81
VEL_4
NOTE_ON_64
TIME_SHIFT_64ND_2
NOTE_OFF_72
NOTE_OFF_81
NOTE_OFF_64
TIME_SHIFT_64ND_2
VEL_3
NOTE_ON_76
VEL_4
NOTE_ON_84
TIME_SHIFT_64ND_3
NOTE_OFF_76
NOTE_OFF_84
TIME_SHIFT_64ND_3
VEL_5
NOTE_ON_53
VEL_4
NOTE_ON_45
TIME_SHIFT_64ND_3
NOTE_OFF_45
TIME_SHIFT_64ND_3
VEL_4
NOTE_ON_48
TIME_SHIFT_64ND_3
NOTE_OFF_48
TIME_SHIFT_64ND_3
NOTE_OFF_53
VEL_4
NOTE_ON_52
VEL_4
NOTE_ON_45
TIME_SHIFT_64ND_3
NOTE_OFF_52
NOTE_OFF_45
TIME_SHIFT_64ND_3
VEL_4
NOTE_ON_48
TIME_SHIFT_64ND_3
NOTE_OFF_48
TIME_SHIFT_64ND_3
VEL_4
NOTE_ON_92
VEL_4
NOTE_ON_89
VEL_5
NOTE_ON_95
VEL_5
NOTE_ON_101
VEL_3
NOTE_ON_71
VEL_3
NOTE_ON_68
VEL_3
NOTE_ON_77
VEL_3
NOTE_ON_65
TIME_SHIFT_64ND_5
VEL_4
NOTE_ON_88
VEL_5
NOTE_ON_100
VEL_3
NOTE_ON_64
VEL_3
NOTE_ON_76
TIME_SHIFT_64ND_1
NOTE_OFF_92
NOTE_OFF_89
NOTE_OFF_95
NOTE_OFF_101
NOTE_OFF_71
NOTE_OFF_68
NOTE_OFF_77
NOTE_OFF_65
TIME_SHIFT_64ND_5
VEL_5
NOTE_ON_98
VEL_4
NOTE_ON_86
VEL_3
NOTE_ON_74
VEL_3
NOTE_ON_62
TIME_SHIFT_64ND_1
NOTE_OFF_88
NOTE_OFF_100
NOTE_OFF_64
NOTE_OFF_76
TIME_SHIFT_64ND_5
VEL_5
NOTE_ON_96
VEL_4
NOTE_ON_84
VEL_3
NOTE_ON_72
VEL_3
NOTE_ON_60
TIME_SHIFT_64ND_1
NOTE_OFF_98
NOTE_OFF_86
NOTE_OFF_74
NOTE_OFF_62
TIME_SHIFT_64ND_5
VEL_5
NOTE_ON_95
VEL_4
NOTE_ON_83
VEL_3
NOTE_ON_71
VEL_2
NOTE_ON_59
TIME_SHIFT_64ND_1
NOTE_OFF_96
NOTE_OFF_84
NOTE_OFF_72
NOTE_OFF_60
TIME_SHIFT_64ND_5
VEL_5
NOTE_ON_93
VEL_4
NOTE_ON_81
VEL_3
NOTE_ON_69
VEL_2
NOTE_ON_57
TIME_SHIFT_64ND_1
NOTE_OFF_95
NOTE_OFF_83
NOTE_OFF_71
NOTE_OFF_59
TIME_SHIFT_64ND_5
VEL_4
NOTE_ON_92
VEL_4
NOTE_ON_80
VEL_3
NOTE_ON_68
VEL_2
NOTE_ON_56
TIME_SHIFT_64ND_1
NOTE_OFF_93
NOTE_OFF_81
NOTE_OFF_69
NOTE_OFF_57
TIME_SHIFT_64ND_5
VEL_4
NOTE_ON_88
VEL_4
NOTE_ON_76
VEL_3
NOTE_ON_64
VEL_2
NOTE_ON_52
TIME_SHIFT_64ND_1
NOTE_OFF_92
NOTE_OFF_80
NOTE_OFF_68
NOTE_OFF_56
TIME_SHIFT_64ND_5
VEL_4
NOTE_ON_80
VEL_5
NOTE_ON_89
VEL_4
NOTE_ON_77
VEL_4
NOTE_ON_83
VEL_3
NOTE_ON_56
VEL_3
NOTE_ON_65
VEL_3
NOTE_ON_53
VEL_3
NOTE_ON_59
TIME_SHIFT_64ND_1
NOTE_OFF_88
NOTE_OFF_76
NOTE_OFF_64
NOTE_OFF_52
TIME_SHIFT_64ND_5
VEL_4
NOTE_ON_76
VEL_4
NOTE_ON_88
VEL_3
NOTE_ON_52
VEL_3
NOTE_ON_64
TIME_SHIFT_64ND_1
NOTE_OFF_80
NOTE_OFF_89
NOTE_OFF_77
NOTE_OFF_83
NOTE_OFF_56
NOTE_OFF_65
NOTE_OFF_53
NOTE_OFF_59
TIME_SHIFT_64ND_5
VEL_4
NOTE_ON_86
VEL_3
NOTE_ON_74
VEL_3
NOTE_ON_62
VEL_2
NOTE_ON_50
TIME_SHIFT_64ND_1
NOTE_OFF_76
NOTE_OFF_88
NOTE_OFF_52
NOTE_OFF_64
TIME_SHIFT_64ND_5
VEL_4
NOTE_ON_84
VEL_3
NOTE_ON_72
VEL_3
NOTE_ON_60
VEL_2
NOTE_ON_48
TIME_SHIFT_64ND_1
NOTE_OFF_86
NOTE_OFF_74
NOTE_OFF_62
NOTE_OFF_50
TIME_SHIFT_64ND_5
VEL_4
NOTE_ON_83
VEL_3
NOTE_ON_71
VEL_3
NOTE_ON_59
VEL_2
NOTE_ON_47
TIME_SHIFT_64ND_1
NOTE_OFF_84
NOTE_OFF_72
NOTE_OFF_60
NOTE_OFF_48
TIME_SHIFT_64ND_5
VEL_4
NOTE_ON_81
VEL_3
NOTE_ON_69
VEL_3
NOTE_ON_57
VEL_2
NOTE_ON_45
TIME_SHIFT_64ND_1
NOTE_OFF_83
NOTE_OFF_71
NOTE_OFF_59
NOTE_OFF_47
TIME_SHIFT_64ND_5
VEL_4
NOTE_ON_80
VEL_3
NOTE_ON_68
VEL_3
NOTE_ON_56
VEL_2
NOTE_ON_44
TIME_SHIFT_64ND_1
NOTE_OFF_81
NOTE_OFF_69
NOTE_OFF_57
NOTE_OFF_45
TIME_SHIFT_64ND_5
VEL_4
NOTE_ON_76
VEL_3
NOTE_ON_64
VEL_3
NOTE_ON_52
VEL_2
NOTE_ON_40
TIME_SHIFT_64ND_1
NOTE_OFF_80
NOTE_OFF_68
NOTE_OFF_56
NOTE_OFF_44
TIME_SHIFT_64ND_5
NOTE_OFF_76
NOTE_OFF_64
NOTE_OFF_52
NOTE_OFF_40
VEL_4
NOTE_ON_69
VEL_4
NOTE_ON_76
VEL_4
NOTE_ON_64
VEL_3
NOTE_ON_45
VEL_4
NOTE_ON_57
TIME_SHIFT_64ND_5
NOTE_OFF_69
NOTE_OFF_76
NOTE_OFF_64
NOTE_OFF_45
NOTE_OFF_57
VEL_4
NOTE_ON_72
VEL_3
NOTE_ON_48
VEL_3
NOTE_ON_60
TIME_SHIFT_64ND_3
NOTE_OFF_72
NOTE_OFF_48
NOTE_OFF_60
TIME_SHIFT_64ND_3
VEL_4
NOTE_ON_68
VEL_4
NOTE_ON_76
VEL_4
NOTE_ON_64
VEL_3
NOTE_ON_44
VEL_4
NOTE_ON_56
TIME_SHIFT_64ND_5
NOTE_OFF_68
NOTE_OFF_76
NOTE_OFF_64
NOTE_OFF_44
NOTE_OFF_56
VEL_4
NOTE_ON_71
VEL_3
NOTE_ON_47
VEL_3
NOTE_ON_59
TIME_SHIFT_64ND_3
NOTE_OFF_71
NOTE_OFF_47
NOTE_OFF_59
TIME_SHIFT_64ND_3
VEL_3
NOTE_ON_72
VEL_3
NOTE_ON_69
VEL_4
NOTE_ON_81
VEL_3
NOTE_ON_52
VEL_4
NOTE_ON_57
VEL_3
NOTE_ON_45
VEL_3
NOTE_ON_48
TIME_SHIFT_64ND_5
NOTE_OFF_72
NOTE_OFF_69
NOTE_OFF_81
NOTE_OFF_52
NOTE_OFF_57
NOTE_OFF_45
NOTE_OFF_48
VEL_3
NOTE_ON_76
VEL_3
NOTE_ON_72
VEL_4
NOTE_ON_84
TIME_SHIFT_64ND_3
NOTE_OFF_76
NOTE_OFF_72
NOTE_OFF_84
TIME_SHIFT_64ND_3
VEL_3
NOTE_ON_71
VEL_3
NOTE_ON_68
VEL_4
NOTE_ON_80
VEL_3
NOTE_ON_47
VEL_4
NOTE_ON_52
VEL_3
NOTE_ON_40
VEL_3
NOTE_ON_44
TIME_SHIFT_64ND_5
NOTE_OFF_71
NOTE_OFF_68
NOTE_OFF_80
NOTE_OFF_47
NOTE_OFF_52
NOTE_OFF_40
NOTE_OFF_44
VEL_3
NOTE_ON_74
VEL_3
NOTE_ON_71
VEL_4
NOTE_ON_83
TIME_SHIFT_64ND_3
NOTE_OFF_74
NOTE_OFF_71
NOTE_OFF_83
TIME_SHIFT_64ND_3
VEL_4
NOTE_ON_72
VEL_4
NOTE_ON_69
VEL_5
NOTE_ON_81
VEL_3
NOTE_ON_52
VEL_4
NOTE_ON_57
VEL_3
NOTE_ON_45
VEL_3
NOTE_ON_48
TIME_SHIFT_64ND_6
NOTE_OFF_72
NOTE_OFF_69
NOTE_OFF_81
NOTE_OFF_52
NOTE_OFF_57
NOTE_OFF_45
NOTE_OFF_48
TIME_SHIFT_64ND_17
VEL_4
NOTE_ON_86
VEL_5
NOTE_ON_89
VEL_4
NOTE_ON_77
VEL_4
NOTE_ON_81
VEL_3
NOTE_ON_45
VEL_4
NOTE_ON_50
VEL_3
NOTE_ON_38
VEL_3
NOTE_ON_41
TIME_SHIFT_64ND_6
NOTE_OFF_86
NOTE_OFF_89
NOTE_OFF_77
NOTE_OFF_81
NOTE_OFF_45
NOTE_OFF_50
NOTE_OFF_38
NOTE_OFF_41
TIME_SHIFT_64ND_17
VEL_5
NOTE_ON_88
VEL_6
NOTE_ON_93
VEL_5
NOTE_ON_81
VEL_5
NOTE_ON_84
VEL_4
NOTE_ON_40
VEL_4
NOTE_ON_45
VEL_4
NOTE_ON_33
VEL_4
NOTE_ON_36
TIME_SHIFT_64ND_23
NOTE_OFF_88
NOTE_OFF_93
NOTE_OFF_81
NOTE_OFF_84
NOTE_OFF_40
NOTE_OFF_45
NOTE_OFF_33
NOTE_OFF_36
TIME_SHIFT_64ND_21
VEL_5
NOTE_ON_64
TIME_SHIFT_64ND_3
NOTE_OFF_64
VEL_5
NOTE_ON_64
TIME_SHIFT_64ND_6
NOTE_OFF_64
TIME_SHIFT_64ND_18
VEL_4
NOTE_ON_64
VEL_5
NOTE_ON_68
VEL_4
NOTE_ON_61
TIME_SHIFT_64ND_6
NOTE_OFF_64
NOTE_OFF_68
NOTE_OFF_61
TIME_SHIFT_64ND_19
VEL_4
NOTE_ON_68
VEL_4
NOTE_ON_63
VEL_5
NOTE_ON_71
VEL_4
NOTE_ON_56
TIME_SHIFT_64ND_46
NOTE_OFF_68
NOTE_OFF_63
NOTE_OFF_71
NOTE_OFF_56
VEL_4
NOTE_ON_68
VEL_4
NOTE_ON_64
VEL_5
NOTE_ON_76
VEL_3
NOTE_ON_49
VEL_3
NOTE_ON_61
TIME_SHIFT_64ND_3
NOTE_OFF_68
NOTE_OFF_64
NOTE_OFF_76
NOTE_OFF_49
NOTE_OFF_61
VEL_4
NOTE_ON_63
VEL_5
NOTE_ON_71
VEL_4
NOTE_ON_68
VEL_4
NOTE_ON_56
TIME_SHIFT_64ND_21
NOTE_OFF_63
NOTE_OFF_71
NOTE_OFF_68
NOTE_OFF_56
VEL_4
NOTE_ON_68
VEL_4
NOTE_ON_64
VEL_5
NOTE_ON_76
VEL_3
NOTE_ON_49
VEL_3
NOTE_ON_61
TIME_SHIFT_64ND_3
NOTE_OFF_68
NOTE_OFF_64
NOTE_OFF_76
NOTE_OFF_49
NOTE_OFF_61
VEL_4
NOTE_ON_68
VEL_4
NOTE_ON_63
VEL_5
NOTE_ON_71
VEL_4
NOTE_ON_56
TIME_SHIFT_64ND_21
NOTE_OFF_68
NOTE_OFF_63
NOTE_OFF_71
NOTE_OFF_56
VEL_4
NOTE_ON_68
VEL_4
NOTE_ON_64
VEL_5
NOTE_ON_76
VEL_3
NOTE_ON_49
VEL_3
NOTE_ON_61
TIME_SHIFT_64ND_3
NOTE_OFF_68
NOTE_OFF_64
NOTE_OFF_76
NOTE_OFF_49
NOTE_OFF_61
VEL_4
NOTE_ON_68
VEL_4
NOTE_ON_63
VEL_5
NOTE_ON_71
VEL_4
NOTE_ON_44
VEL_5
NOTE_ON_56
TIME_SHIFT_64ND_6
NOTE_OFF_44
NOTE_OFF_56
TIME_SHIFT_64ND_6
VEL_4
NOTE_ON_43
VEL_5
NOTE_ON_55
TIME_SHIFT_64ND_6
NOTE_OFF_43
NOTE_OFF_55
TIME_SHIFT_64ND_6
VEL_4
NOTE_ON_42
VEL_5
NOTE_ON_54
TIME_SHIFT_64ND_6
NOTE_OFF_42
NOTE_OFF_54
TIME_SHIFT_64ND_6
VEL_4
NOTE_ON_41
VEL_5
NOTE_ON_53
TIME_SHIFT_64ND_7
NOTE_OFF_41
NOTE_OFF_53
TIME_SHIFT_64ND_7
NOTE_OFF_68
NOTE_OFF_63
NOTE_OFF_71
VEL_4
NOTE_ON_71
VEL_4
NOTE_ON_64
VEL_5
NOTE_ON_76
VEL_4
NOTE_ON_62
VEL_4
NOTE_ON_68
VEL_4
NOTE_ON_40
VEL_4
NOTE_ON_52
TIME_SHIFT_64ND_5
NOTE_OFF_71
NOTE_OFF_64
NOTE_OFF_76
NOTE_OFF_62
NOTE_OFF_68
NOTE_OFF_40
NOTE_OFF_52
TIME_SHIFT_64ND_34
VEL_3
NOTE_ON_76
TIME_SHIFT_64ND_11
NOTE_OFF_76
VEL_3
NOTE_ON_84
VEL_2
NOTE_ON_57
TIME_SHIFT_64ND_4
VEL_1
NOTE_ON_69
TIME_SHIFT_64ND_2
NOTE_OFF_84
NOTE_OFF_57
VEL_3
NOTE_ON_88
TIME_SHIFT_64ND_2
NOTE_OFF_69
VEL_1
NOTE_ON_71
TIME_SHIFT_64ND_4
NOTE_OFF_88
NOTE_OFF_71
VEL_2
NOTE_ON_76
VEL_3
NOTE_ON_84
VEL_2
NOTE_ON_72
TIME_SHIFT_64ND_4
NOTE_OFF_72
VEL_2
NOTE_ON_71
TIME_SHIFT_64ND_2
NOTE_OFF_76
NOTE_OFF_84
VEL_2
NOTE_ON_77
TIME_SHIFT_64ND_2
NOTE_OFF_71
VEL_2
NOTE_ON_69
TIME_SHIFT_64ND_1
NOTE_OFF_77
TIME_SHIFT_64ND_3
NOTE_OFF_69
VEL_3
NOTE_ON_83
VEL_2
NOTE_ON_76
VEL_2
NOTE_ON_55
TIME_SHIFT_64ND_4
VEL_2
NOTE_ON_67
TIME_SHIFT_64ND_2
NOTE_OFF_83
NOTE_OFF_55
VEL_3
NOTE_ON_86
TIME_SHIFT_64ND_2
NOTE_OFF_67
VEL_2
NOTE_ON_69
TIME_SHIFT_64ND_4
NOTE_OFF_86
NOTE_OFF_76
NOTE_OFF_69
VEL_2
NOTE_ON_74
VEL_3
NOTE_ON_83
VEL_2
NOTE_ON_71
TIME_SHIFT_64ND_4
NOTE_OFF_71
VEL_2
NOTE_ON_69
TIME_SHIFT_64ND_2
NOTE_OFF_74
NOTE_OFF_83
VEL_2
NOTE_ON_76
TIME_SHIFT_64ND_2
NOTE_OFF_69
VEL_1
NOTE_ON_67
TIME_SHIFT_64ND_1
NOTE_OFF_76
TIME_SHIFT_64ND_3
NOTE_OFF_67
VEL_3
NOTE_ON_81
VEL_2
NOTE_ON_74
VEL_2
NOTE_ON_53
TIME_SHIFT_64ND_4
VEL_1
NOTE_ON_65
TIME_SHIFT_64ND_2
NOTE_OFF_81
NOTE_OFF_53
VEL_3
NOTE_ON_84
TIME_SHIFT_64ND_2
NOTE_OFF_65
VEL_2
NOTE_ON_67
TIME_SHIFT_64ND_4
NOTE_OFF_84
NOTE_OFF_74
NOTE_OFF_67
VEL_2
NOTE_ON_72
VEL_3
NOTE_ON_81
VEL_2
NOTE_ON_69
TIME_SHIFT_64ND_4
NOTE_OFF_69
VEL_2
NOTE_ON_67
TIME_SHIFT_64ND_2
NOTE_OFF_72
NOTE_OFF_81
VEL_2
NOTE_ON_74
TIME_SHIFT_64ND_2
NOTE_OFF_67
VEL_2
NOTE_ON_65
TIME_SHIFT_64ND_1
NOTE_OFF_74
TIME_SHIFT_64ND_3
NOTE_OFF_65
VEL_3
NOTE_ON_80
VEL_2
NOTE_ON_72
VEL_2
NOTE_ON_52
TIME_SHIFT_64ND_4
VEL_1
NOTE_ON_64
TIME_SHIFT_64ND_2
NOTE_OFF_80
NOTE_OFF_52
VEL_3
NOTE_ON_83
TIME_SHIFT_64ND_2
NOTE_OFF_64
VEL_2
NOTE_ON_65
TIME_SHIFT_64ND_4
NOTE_OFF_83
NOTE_OFF_72
NOTE_OFF_65
VEL_2
NOTE_ON_71
VEL_3
NOTE_ON_80
VEL_2
NOTE_ON_68
TIME_SHIFT_64ND_4
NOTE_OFF_68
VEL_2
NOTE_ON_65
TIME_SHIFT_64ND_2
NOTE_OFF_71
NOTE_OFF_80
VEL_2
NOTE_ON_72
TIME_SHIFT_64ND_2
NOTE_OFF_65
VEL_1
NOTE_ON_64
TIME_SHIFT_64ND_1
NOTE_OFF_72
TIME_SHIFT_64ND_3
NOTE_OFF_64
VEL_3
NOTE_ON_77
VEL_2
NOTE_ON_71
VEL_2
NOTE_ON_50
TIME_SHIFT_64ND_4
VEL_1
NOTE_ON_62
TIME_SHIFT_64ND_2
NOTE_OFF_77
NOTE_OFF_50
VEL_3
NOTE_ON_81
TIME_SHIFT_64ND_2
NOTE_OFF_62
VEL_1
NOTE_ON_64
TIME_SHIFT_64ND_4
NOTE_OFF_81
NOTE_OFF_71
NOTE_OFF_64
VEL_2
NOTE_ON_69
VEL_3
NOTE_ON_77
VEL_2
NOTE_ON_65
TIME_SHIFT_64ND_4
NOTE_OFF_65
VEL_2
NOTE_ON_62
TIME_SHIFT_64ND_2
NOTE_OFF_69
NOTE_OFF_77
VEL_2
NOTE_ON_71
TIME_SHIFT_64ND_2
NOTE_OFF_62
VEL_1
NOTE_ON_60
TIME_SHIFT_64ND_1
NOTE_OFF_71
TIME_SHIFT_64ND_3
NOTE_OFF_60
VEL_3
NOTE_ON_68
VEL_3
NOTE_ON_76
VEL_2
NOTE_ON_59
VEL_2
NOTE_ON_52
TIME_SHIFT_64ND_5
NOTE_OFF_68
NOTE_OFF_59
VEL_2
NOTE_ON_71
VEL_2
NOTE_ON_64
TIME_SHIFT_64ND_5
NOTE_OFF_71
NOTE_OFF_64
NOTE_OFF_52
VEL_3
NOTE_ON_68
VEL_2
NOTE_ON_59
TIME_SHIFT_64ND_6
NOTE_OFF_68
NOTE_OFF_76
NOTE_OFF_59
VEL_3
NOTE_ON_80
VEL_2
NOTE_ON_71
VEL_2
NOTE_ON_64
TIME_SHIFT_64ND_6
NOTE_OFF_80
NOTE_OFF_71
NOTE_OFF_64
VEL_3
NOTE_ON_68
VEL_4
NOTE_ON_76
VEL_2
NOTE_ON_59
VEL_2
NOTE_ON_52
TIME_SHIFT_64ND_5
NOTE_OFF_68
NOTE_OFF_59
VEL_2
NOTE_ON_71
VEL_2
NOTE_ON_64
TIME_SHIFT_64ND_5
NOTE_OFF_71
NOTE_OFF_64
NOTE_OFF_52
VEL_3
NOTE_ON_68
VEL_2
NOTE_ON_59
TIME_SHIFT_64ND_6
NOTE_OFF_68
NOTE_OFF_76
NOTE_OFF_59
VEL_3
NOTE_ON_80
VEL_2
NOTE_ON_71
VEL_2
NOTE_ON_64
TIME_SHIFT_64ND_6
NOTE_OFF_80
NOTE_OFF_71
NOTE_OFF_64
VEL_3
NOTE_ON_68
VEL_4
NOTE_ON_76
VEL_2
NOTE_ON_59
VEL_2
NOTE_ON_52
TIME_SHIFT_64ND_5
NOTE_OFF_68
NOTE_OFF_76
NOTE_OFF_59
VEL_3
NOTE_ON_80
VEL_3
NOTE_ON_71
VEL_2
NOTE_ON_64
TIME_SHIFT_64ND_3
NOTE_OFF_80
NOTE_OFF_71
NOTE_OFF_64
TIME_SHIFT_64ND_3
NOTE_OFF_52
VEL_3
NOTE_ON_68
VEL_4
NOTE_ON_76
VEL_2
NOTE_ON_59
VEL_2
NOTE_ON_52
TIME_SHIFT_64ND_6
NOTE_OFF_68
NOTE_OFF_76
NOTE_OFF_59
VEL_3
NOTE_ON_71
VEL_3
NOTE_ON_80
VEL_2
NOTE_ON_64
TIME_SHIFT_64ND_3
NOTE_OFF_71
NOTE_OFF_80
NOTE_OFF_64
TIME_SHIFT_64ND_3
NOTE_OFF_52
VEL_4
NOTE_ON_76
VEL_3
NOTE_ON_68
VEL_2
NOTE_ON_52
VEL_3
NOTE_ON_59
TIME_SHIFT_64ND_3
NOTE_OFF_76
NOTE_OFF_52
NOTE_OFF_59
TIME_SHIFT_64ND_3
VEL_3
NOTE_ON_71
TIME_SHIFT_64ND_3
NOTE_OFF_71
TIME_SHIFT_64ND_3
NOTE_OFF_68
VEL_3
NOTE_ON_68
VEL_3
NOTE_ON_59
VEL_3
NOTE_ON_64
VEL_3
NOTE_ON_52
VEL_3
NOTE_ON_56
TIME_SHIFT_64ND_3
NOTE_OFF_59
NOTE_OFF_64
NOTE_OFF_52
NOTE_OFF_56
TIME_SHIFT_64ND_3
VEL_4
NOTE_ON_71
TIME_SHIFT_64ND_3
NOTE_OFF_71
TIME_SHIFT_64ND_3
NOTE_OFF_68
VEL_4
NOTE_ON_76
VEL_3
NOTE_ON_64
VEL_3
NOTE_ON_52
VEL_4
NOTE_ON_56
VEL_4
NOTE_ON_59
VEL_3
NOTE_ON_47
TIME_SHIFT_64ND_3
NOTE_OFF_76
NOTE_OFF_52
NOTE_OFF_56
NOTE_OFF_59
NOTE_OFF_47
TIME_SHIFT_64ND_3
VEL_4
NOTE_ON_71
TIME_SHIFT_64ND_3
NOTE_OFF_71
TIME_SHIFT_64ND_3
NOTE_OFF_64
VEL_4
NOTE_ON_64
VEL_4
NOTE_ON_76
VEL_3
NOTE_ON_52
VEL_4
NOTE_ON_56
VEL_3
NOTE_ON_44
VEL_3
NOTE_ON_47
TIME_SHIFT_64ND_3
NOTE_OFF_64
NOTE_OFF_76
NOTE_OFF_52
NOTE_OFF_56
NOTE_OFF_44
NOTE_OFF_47
TIME_SHIFT_64ND_3
VEL_4
NOTE_ON_68
VEL_5
NOTE_ON_80
TIME_SHIFT_64ND_3
NOTE_OFF_68
NOTE_OFF_80
TIME_SHIFT_64ND_3
VEL_4
NOTE_ON_80
VEL_4
NOTE_ON_71
VEL_4
NOTE_ON_76
VEL_5
NOTE_ON_83
VEL_3
NOTE_ON_40
VEL_3
NOTE_ON_47
VEL_3
NOTE_ON_44
VEL_4
NOTE_ON_52
TIME_SHIFT_64ND_23
NOTE_OFF_80
NOTE_OFF_71
NOTE_OFF_76
NOTE_OFF_83
NOTE_OFF_40
NOTE_OFF_47
NOTE_OFF_44
NOTE_OFF_52
VEL_5
NOTE_ON_83
VEL_6
NOTE_ON_88
VEL_5
NOTE_ON_76
VEL_5
NOTE_ON_80
VEL_3
NOTE_ON_52
VEL_4
NOTE_ON_64
VEL_3
NOTE_ON_59
VEL_3
NOTE_ON_56
TIME_SHIFT_64ND_6
NOTE_OFF_83
NOTE_OFF_88
NOTE_OFF_76
NOTE_OFF_80
NOTE_OFF_52
NOTE_OFF_64
NOTE_OFF_59
NOTE_OFF_56
TIME_SHIFT_64ND_6
VEL_4
NOTE_ON_76
VEL_4
NOTE_ON_52
TIME_SHIFT_64ND_4
NOTE_OFF_76
NOTE_OFF_52
VEL_4
NOTE_ON_78
VEL_4
NOTE_ON_54
TIME_SHIFT_64ND_4
NOTE_OFF_78
NOTE_OFF_54
VEL_5
NOTE_ON_80
VEL_4
NOTE_ON_56
TIME_SHIFT_64ND_4
NOTE_OFF_80
NOTE_OFF_56
VEL_5
NOTE_ON_81
VEL_4
NOTE_ON_69
VEL_3
NOTE_ON_45
VEL_4
NOTE_ON_57
VEL_4
NOTE_ON_72
TIME_SHIFT_64ND_5
NOTE_OFF_81
NOTE_OFF_69
NOTE_OFF_45
NOTE_OFF_57
NOTE_OFF_72
TIME_SHIFT_64ND_5
VEL_4
NOTE_ON_80
VEL_3
NOTE_ON_68
VEL_3
NOTE_ON_71
VEL_2
NOTE_ON_41
VEL_3
NOTE_ON_53
TIME_SHIFT_64ND_3
NOTE_OFF_80
NOTE_OFF_68
NOTE_OFF_71
NOTE_OFF_41
NOTE_OFF_53
TIME_SHIFT_64ND_3
VEL_3
NOTE_ON_74
VEL_4
NOTE_ON_83
VEL_3
NOTE_ON_71
TIME_SHIFT_64ND_3
NOTE_OFF_74
NOTE_OFF_83
NOTE_OFF_71
TIME_SHIFT_64ND_3
VEL_4
NOTE_ON_72
VEL_5
NOTE_ON_81
VEL_4
NOTE_ON_69
VEL_3
NOTE_ON_45
VEL_4
NOTE_ON_57
TIME_SHIFT_64ND_5
NOTE_OFF_72
NOTE_OFF_81
NOTE_OFF_69
NOTE_OFF_45
NOTE_OFF_57
TIME_SHIFT_64ND_5
VEL_4
NOTE_ON_80
VEL_3
NOTE_ON_68
VEL_3
NOTE_ON_71
VEL_2
NOTE_ON_40
VEL_3
NOTE_ON_52
TIME_SHIFT_64ND_3
NOTE_OFF_80
NOTE_OFF_68
NOTE_OFF_71
NOTE_OFF_40
NOTE_OFF_52
TIME_SHIFT_64ND_3
VEL_3
NOTE_ON_71
VEL_4
NOTE_ON_83
VEL_3
NOTE_ON_74
TIME_SHIFT_64ND_3
NOTE_OFF_71
NOTE_OFF_83
NOTE_OFF_74
TIME_SHIFT_64ND_3
VEL_4
NOTE_ON_72
VEL_5
NOTE_ON_81
VEL_4
NOTE_ON_69
VEL_3
NOTE_ON_45
VEL_4
NOTE_ON_57
TIME_SHIFT_64ND_3
NOTE_OFF_72
NOTE_OFF_81
NOTE_OFF_69
NOTE_OFF_45
NOTE_OFF_57
TIME_SHIFT_64ND_9
VEL_4
NOTE_ON_80
VEL_3
NOTE_ON_68
VEL_3
NOTE_ON_71
VEL_3
NOTE_ON_41
VEL_3
NOTE_ON_38
VEL_3
NOTE_ON_50
TIME_SHIFT_64ND_3
NOTE_OFF_80
NOTE_OFF_68
NOTE_OFF_71
NOTE_OFF_41
NOTE_OFF_38
NOTE_OFF_50
TIME_SHIFT_64ND_9
VEL_5
NOTE_ON_81
VEL_4
NOTE_ON_72
VEL_4
NOTE_ON_69
VEL_3
NOTE_ON_52
VEL_3
NOTE_ON_45
VEL_4
NOTE_ON_57
TIME_SHIFT_64ND_23
NOTE_OFF_81
NOTE_OFF_72
NOTE_OFF_69
NOTE_OFF_52
NOTE_OFF_45
NOTE_OFF_57
VEL_3
NOTE_ON_81
VEL_4
NOTE_ON_93
TIME_SHIFT_64ND_3
NOTE_OFF_81
NOTE_OFF_93
TIME_SHIFT_64ND_3
VEL_4
NOTE_ON_83
VEL_4
NOTE_ON_95
TIME_SHIFT_64ND_3
NOTE_OFF_83
NOTE_OFF_95
TIME_SHIFT_64ND_3
VEL_4
NOTE_ON_84
VEL_5
NOTE_ON_96
VEL_3
NOTE_ON_57
VEL_4
NOTE_ON_69
TIME_SHIFT_64ND_3
NOTE_OFF_57
NOTE_OFF_69
TIME_SHIFT_64ND_3
VEL_4
NOTE_ON_59
VEL_4
NOTE_ON_71
TIME_SHIFT_64ND_3
NOTE_OFF_59
NOTE_OFF_71
TIME_SHIFT_64ND_3
VEL_4
NOTE_ON_60
VEL_5
NOTE_ON_72
TIME_SHIFT_64ND_5
NOTE_OFF_84
NOTE_OFF_96
VEL_3
NOTE_ON_83
VEL_4
NOTE_ON_95
TIME_SHIFT_64ND_3
NOTE_OFF_83
NOTE_OFF_95
TIME_SHIFT_64ND_3
VEL_4
NOTE_ON_81
VEL_5
NOTE_ON_93
TIME_SHIFT_64ND_5
NOTE_OFF_60
NOTE_OFF_72
VEL_3
NOTE_ON_59
VEL_4
NOTE_ON_71
TIME_SHIFT_64ND_3
NOTE_OFF_59
NOTE_OFF_71
TIME_SHIFT_64ND_3
VEL_4
NOTE_ON_57
VEL_5
NOTE_ON_69
TIME_SHIFT_64ND_5
NOTE_OFF_81
NOTE_OFF_93
VEL_3
NOTE_ON_79
VEL_4
NOTE_ON_91
TIME_SHIFT_64ND_3
NOTE_OFF_79
NOTE_OFF_91
TIME_SHIFT_64ND_3
VEL_4
NOTE_ON_77
VEL_5
NOTE_ON_89
TIME_SHIFT_64ND_5
NOTE_OFF_57
NOTE_OFF_69
VEL_3
NOTE_ON_55
VEL_4
NOTE_ON_67
TIME_SHIFT_64ND_3
NOTE_OFF_55
NOTE_OFF_67
TIME_SHIFT_64ND_3
VEL_4
NOTE_ON_53
VEL_5
NOTE_ON_65
TIME_SHIFT_64ND_5
NOTE_OFF_77
NOTE_OFF_89
VEL_4
NOTE_ON_76
VEL_5
NOTE_ON_88
TIME_SHIFT_64ND_3
NOTE_OFF_76
NOTE_OFF_88
TIME_SHIFT_64ND_3
VEL_4
NOTE_ON_74
VEL_5
NOTE_ON_86
TIME_SHIFT_64ND_3
NOTE_OFF_74
NOTE_OFF_86
TIME_SHIFT_64ND_3
NOTE_OFF_53
NOTE_OFF_65
VEL_4
NOTE_ON_73
VEL_5
NOTE_ON_85
VEL_4
NOTE_ON_64
VEL_4
NOTE_ON_52
TIME_SHIFT_64ND_3
NOTE_OFF_73
NOTE_OFF_85
NOTE_OFF_64
NOTE_OFF_52
TIME_SHIFT_64ND_3
VEL_5
NOTE_ON_86
VEL_4
NOTE_ON_74
VEL_4
NOTE_ON_77
VEL_3
NOTE_ON_50
VEL_4
NOTE_ON_62
TIME_SHIFT_64ND_5
NOTE_OFF_86
NOTE_OFF_74
NOTE_OFF_77
NOTE_OFF_50
NOTE_OFF_62
TIME_SHIFT_64ND_5
VEL_4
NOTE_ON_85
VEL_3
NOTE_ON_73
VEL_3
NOTE_ON_76
VEL_2
NOTE_ON_46
VEL_3
NOTE_ON_58
TIME_SHIFT_64ND_3
NOTE_OFF_85
NOTE_OFF_73
NOTE_OFF_76
NOTE_OFF_46
NOTE_OFF_58
TIME_SHIFT_64ND_3
VEL_3
NOTE_ON_79
VEL_4
NOTE_ON_88
VEL_3
NOTE_ON_76
TIME_SHIFT_64ND_3
NOTE_OFF_79
NOTE_OFF_88
NOTE_OFF_76
TIME_SHIFT_64ND_3
VEL_4
NOTE_ON_77
VEL_5
NOTE_ON_86
VEL_4
NOTE_ON_74
VEL_3
NOTE_ON_50
VEL_4
NOTE_ON_62
TIME_SHIFT_64ND_5
NOTE_OFF_77
NOTE_OFF_86
NOTE_OFF_74
NOTE_OFF_50
NOTE_OFF_62
TIME_SHIFT_64ND_5
VEL_4
NOTE_ON_85
VEL_3
NOTE_ON_73
VEL_3
NOTE_ON_76
VEL_2
NOTE_ON_45
VEL_3
NOTE_ON_57
TIME_SHIFT_64ND_3
NOTE_OFF_85
NOTE_OFF_73
NOTE_OFF_76
NOTE_OFF_45
NOTE_OFF_57
TIME_SHIFT_64ND_3
VEL_3
NOTE_ON_76
VEL_4
NOTE_ON_88
VEL_3
NOTE_ON_79
TIME_SHIFT_64ND_3
NOTE_OFF_76
NOTE_OFF_88
NOTE_OFF_79
TIME_SHIFT_64ND_3
VEL_4
NOTE_ON_77
VEL_5
NOTE_ON_86
VEL_4
NOTE_ON_74
VEL_3
NOTE_ON_50
VEL_4
NOTE_ON_62
TIME_SHIFT_64ND_3
NOTE_OFF_77
NOTE_OFF_86
NOTE_OFF_74
NOTE_OFF_50
NOTE_OFF_62
TIME_SHIFT_64ND_8
VEL_4
NOTE_ON_85
VEL_3
NOTE_ON_73
VEL_3
NOTE_ON_76
VEL_2
NOTE_ON_46
VEL_2
NOTE_ON_43
VEL_3
NOTE_ON_55
TIME_SHIFT_64ND_3
NOTE_OFF_85
NOTE_OFF_73
NOTE_OFF_76
NOTE_OFF_46
NOTE_OFF_43
NOTE_OFF_55
TIME_SHIFT_64ND_9
VEL_5
NOTE_ON_86
VEL_4
NOTE_ON_77
VEL_4
NOTE_ON_74
VEL_3
NOTE_ON_57
VEL_3
NOTE_ON_50
VEL_4
NOTE_ON_62
TIME_SHIFT_64ND_24
NOTE_OFF_86
NOTE_OFF_77
NOTE_OFF_74
NOTE_OFF_57
NOTE_OFF_50
NOTE_OFF_62
VEL_3
NOTE_ON_86
VEL_4
NOTE_ON_98
TIME_SHIFT_64ND_3
NOTE_OFF_86
NOTE_OFF_98
TIME_SHIFT_64ND_3
VEL_4
NOTE_ON_88
VEL_4
NOTE_ON_100
TIME_SHIFT_64ND_3
NOTE_OFF_88
NOTE_OFF_100
TIME_SHIFT_64ND_3
VEL_4
NOTE_ON_89
VEL_5
NOTE_ON_101
VEL_3
NOTE_ON_62
VEL_4
NOTE_ON_74
TIME_SHIFT_64ND_3
NOTE_OFF_62
NOTE_OFF_74
TIME_SHIFT_64ND_3
VEL_4
NOTE_ON_64
VEL_4
NOTE_ON_76
TIME_SHIFT_64ND_3
NOTE_OFF_64
NOTE_OFF_76
TIME_SHIFT_64ND_3
VEL_4
NOTE_ON_65
VEL_5
NOTE_ON_77
TIME_SHIFT_64ND_5
NOTE_OFF_89
NOTE_OFF_101
VEL_3
NOTE_ON_88
VEL_4
NOTE_ON_100
TIME_SHIFT_64ND_3
NOTE_OFF_88
NOTE_OFF_100
TIME_SHIFT_64ND_3
VEL_4
NOTE_ON_86
VEL_5
NOTE_ON_98
TIME_SHIFT_64ND_5
NOTE_OFF_65
NOTE_OFF_77
VEL_3
NOTE_ON_64
VEL_4
NOTE_ON_76
TIME_SHIFT_64ND_3
NOTE_OFF_64
NOTE_OFF_76
TIME_SHIFT_64ND_3
VEL_4
NOTE_ON_62
VEL_5
NOTE_ON_74
TIME_SHIFT_64ND_5
NOTE_OFF_86
NOTE_OFF_98
VEL_3
NOTE_ON_84
VEL_4
NOTE_ON_96
TIME_SHIFT_64ND_3
NOTE_OFF_84
NOTE_OFF_96
TIME_SHIFT_64ND_3
VEL_4
NOTE_ON_83
VEL_5
NOTE_ON_95
TIME_SHIFT_64ND_5
NOTE_OFF_62
NOTE_OFF_74
VEL_3
NOTE_ON_60
VEL_4
NOTE_ON_72
TIME_SHIFT_64ND_3
NOTE_OFF_60
NOTE_OFF_72
TIME_SHIFT_64ND_3
VEL_4
NOTE_ON_59
VEL_5
NOTE_ON_71
TIME_SHIFT_64ND_5
NOTE_OFF_83
NOTE_OFF_95
VEL_4
NOTE_ON_81
VEL_4
NOTE_ON_93
TIME_SHIFT_64ND_3
NOTE_OFF_81
NOTE_OFF_93
TIME_SHIFT_64ND_3
VEL_4
NOTE_ON_80
VEL_4
NOTE_ON_92
TIME_SHIFT_64ND_3
NOTE_OFF_80
NOTE_OFF_92
TIME_SHIFT_64ND_3
NOTE_OFF_59
NOTE_OFF_71
VEL_4
NOTE_ON_81
VEL_4
NOTE_ON_93
VEL_3
NOTE_ON_57
VEL_4
NOTE_ON_69
TIME_SHIFT_64ND_3
NOTE_OFF_81
NOTE_OFF_93
NOTE_OFF_57
NOTE_OFF_69
TIME_SHIFT_64ND_3
VEL_4
NOTE_ON_80
VEL_4
NOTE_ON_92
VEL_3
NOTE_ON_56
VEL_4
NOTE_ON_68
TIME_SHIFT_64ND_3
NOTE_OFF_80
NOTE_OFF_92
NOTE_OFF_56
NOTE_OFF_68
TIME_SHIFT_64ND_3
VEL_4
NOTE_ON_83
VEL_5
NOTE_ON_95
VEL_4
NOTE_ON_59
VEL_4
NOTE_ON_71
TIME_SHIFT_64ND_3
NOTE_OFF_83
NOTE_OFF_95
NOTE_OFF_59
NOTE_OFF_71
TIME_SHIFT_64ND_3
VEL_4
NOTE_ON_88
VEL_5
NOTE_ON_100
VEL_4
NOTE_ON_64
VEL_5
NOTE_ON_76
TIME_SHIFT_64ND_5
NOTE_OFF_88
NOTE_OFF_100
NOTE_OFF_64
NOTE_OFF_76
TIME_SHIFT_64ND_6
VEL_4
NOTE_ON_59
VEL_4
NOTE_ON_56
VEL_5
NOTE_ON_64
VEL_3
NOTE_ON_47
VEL_4
NOTE_ON_52
VEL_3
NOTE_ON_40
VEL_3
NOTE_ON_44
TIME_SHIFT_64ND_22
NOTE_OFF_59
NOTE_OFF_56
NOTE_OFF_64
NOTE_OFF_47
NOTE_OFF_52
NOTE_OFF_40
NOTE_OFF_44
VEL_4
NOTE_ON_81
VEL_4
NOTE_ON_93
VEL_3
NOTE_ON_57
VEL_4
NOTE_ON_69
TIME_SHIFT_64ND_3
NOTE_OFF_81
NOTE_OFF_93
NOTE_OFF_57
NOTE_OFF_69
TIME_SHIFT_64ND_3
VEL_4
NOTE_ON_84
VEL_5
NOTE_ON_96
VEL_4
NOTE_ON_60
VEL_4
NOTE_ON_72
TIME_SHIFT_64ND_3
NOTE_OFF_84
NOTE_OFF_96
NOTE_OFF_60
NOTE_OFF_72
TIME_SHIFT_64ND_3
VEL_4
NOTE_ON_88
VEL_5
NOTE_ON_100
VEL_4
NOTE_ON_64
VEL_5
NOTE_ON_76
TIME_SHIFT_64ND_5
NOTE_OFF_88
NOTE_OFF_100
NOTE_OFF_64
NOTE_OFF_76
TIME_SHIFT_64ND_6
VEL_4
NOTE_ON_60
VEL_4
NOTE_ON_57
VEL_5
NOTE_ON_64
VEL_3
NOTE_ON_48
VEL_4
NOTE_ON_52
VEL_3
NOTE_ON_40
VEL_3
NOTE_ON_45
TIME_SHIFT_64ND_22
NOTE_OFF_60
NOTE_OFF_57
NOTE_OFF_64
NOTE_OFF_48
NOTE_OFF_52
NOTE_OFF_40
NOTE_OFF_45
VEL_3
NOTE_ON_71
VEL_4
NOTE_ON_80
VEL_5
NOTE_ON_65
TIME_SHIFT_64ND_2
NOTE_OFF_71
NOTE_OFF_80
TIME_SHIFT_64ND_2
VEL_3
NOTE_ON_74
VEL_4
NOTE_ON_83
TIME_SHIFT_64ND_2
NOTE_OFF_74
NOTE_OFF_83
TIME_SHIFT_64ND_2
NOTE_OFF_65
VEL_3
NOTE_ON_71
VEL_4
NOTE_ON_80
VEL_4
NOTE_ON_64
TIME_SHIFT_64ND_3
NOTE_OFF_71
NOTE_OFF_80
NOTE_OFF_64
TIME_SHIFT_64ND_3
VEL_3
NOTE_ON_74
VEL_4
NOTE_ON_83
TIME_SHIFT_64ND_3
NOTE_OFF_74
NOTE_OFF_83
TIME_SHIFT_64ND_3
VEL_5
NOTE_ON_53
VEL_3
NOTE_ON_44
VEL_4
NOTE_ON_47
TIME_SHIFT_64ND_3
NOTE_OFF_44
NOTE_OFF_47
TIME_SHIFT_64ND_3
VEL_4
NOTE_ON_50
TIME_SHIFT_64ND_3
NOTE_OFF_50
TIME_SHIFT_64ND_3
NOTE_OFF_53
VEL_4
NOTE_ON_52
VEL_3
NOTE_ON_44
VEL_4
NOTE_ON_47
TIME_SHIFT_64ND_3
NOTE_OFF_52
NOTE_OFF_44
NOTE_OFF_47
TIME_SHIFT_64ND_3
VEL_4
NOTE_ON_50
TIME_SHIFT_64ND_3
NOTE_OFF_50
TIME_SHIFT_64ND_3
VEL_3
NOTE_ON_72
VEL_4
NOTE_ON_81
VEL_5
NOTE_ON_65
TIME_SHIFT_64ND_2
NOTE_OFF_72
NOTE_OFF_81
TIME_SHIFT_64ND_2
VEL_3
NOTE_ON_76
VEL_4
NOTE_ON_84
TIME_SHIFT_64ND_2
NOTE_OFF_76
NOTE_OFF_84
TIME_SHIFT_64ND_2
NOTE_OFF_65
VEL_3
NOTE_ON_72
VEL_4
NOTE_ON_81
VEL_4
NOTE_ON_64
TIME_SHIFT_64ND_2
NOTE_OFF_72
NOTE_OFF_81
NOTE_OFF_64
TIME_SHIFT_64ND_2
VEL_3
NOTE_ON_76
VEL_4
NOTE_ON_84
TIME_SHIFT_64ND_3
NOTE_OFF_76
NOTE_OFF_84
TIME_SHIFT_64ND_3
VEL_5
NOTE_ON_53
VEL_4
NOTE_ON_45
TIME_SHIFT_64ND_3
NOTE_OFF_45
TIME_SHIFT_64ND_3
VEL_4
NOTE_ON_48
TIME_SHIFT_64ND_3
NOTE_OFF_48
TIME_SHIFT_64ND_3
NOTE_OFF_53
VEL_4
NOTE_ON_52
VEL_4
NOTE_ON_45
TIME_SHIFT_64ND_3
NOTE_OFF_52
NOTE_OFF_45
TIME_SHIFT_64ND_3
VEL_4
NOTE_ON_48
TIME_SHIFT_64ND_3
NOTE_OFF_48
TIME_SHIFT_64ND_3
VEL_4
NOTE_ON_92
VEL_4
NOTE_ON_89
VEL_5
NOTE_ON_95
VEL_5
NOTE_ON_101
VEL_3
NOTE_ON_71
VEL_3
NOTE_ON_68
VEL_3
NOTE_ON_77
VEL_3
NOTE_ON_65
TIME_SHIFT_64ND_5
VEL_4
NOTE_ON_88
VEL_5
NOTE_ON_100
VEL_3
NOTE_ON_64
VEL_3
NOTE_ON_76
TIME_SHIFT_64ND_1
NOTE_OFF_92
NOTE_OFF_89
NOTE_OFF_95
NOTE_OFF_101
NOTE_OFF_71
NOTE_OFF_68
NOTE_OFF_77
NOTE_OFF_65
TIME_SHIFT_64ND_5
VEL_5
NOTE_ON_98
VEL_4
NOTE_ON_86
VEL_3
NOTE_ON_74
VEL_3
NOTE_ON_62
TIME_SHIFT_64ND_1
NOTE_OFF_88
NOTE_OFF_100
NOTE_OFF_64
NOTE_OFF_76
TIME_SHIFT_64ND_5
VEL_5
NOTE_ON_96
VEL_4
NOTE_ON_84
VEL_3
NOTE_ON_72
VEL_3
NOTE_ON_60
TIME_SHIFT_64ND_1
NOTE_OFF_98
NOTE_OFF_86
NOTE_OFF_74
NOTE_OFF_62
TIME_SHIFT_64ND_5
VEL_5
NOTE_ON_95
VEL_4
NOTE_ON_83
VEL_3
NOTE_ON_71
VEL_2
NOTE_ON_59
TIME_SHIFT_64ND_1
NOTE_OFF_96
NOTE_OFF_84
NOTE_OFF_72
NOTE_OFF_60
TIME_SHIFT_64ND_5
VEL_5
NOTE_ON_93
VEL_4
NOTE_ON_81
VEL_3
NOTE_ON_69
VEL_2
NOTE_ON_57
TIME_SHIFT_64ND_1
NOTE_OFF_95
NOTE_OFF_83
NOTE_OFF_71
NOTE_OFF_59
TIME_SHIFT_64ND_5
VEL_4
NOTE_ON_92
VEL_4
NOTE_ON_80
VEL_3
NOTE_ON_68
VEL_2
NOTE_ON_56
TIME_SHIFT_64ND_1
NOTE_OFF_93
NOTE_OFF_81
NOTE_OFF_69
NOTE_OFF_57
TIME_SHIFT_64ND_5
VEL_4
NOTE_ON_88
VEL_4
NOTE_ON_76
VEL_3
NOTE_ON_64
VEL_2
NOTE_ON_52
TIME_SHIFT_64ND_1
NOTE_OFF_92
NOTE_OFF_80
NOTE_OFF_68
NOTE_OFF_56
TIME_SHIFT_64ND_5
VEL_4
NOTE_ON_80
VEL_5
NOTE_ON_89
VEL_4
NOTE_ON_77
VEL_4
NOTE_ON_83
VEL_3
NOTE_ON_56
VEL_3
NOTE_ON_65
VEL_3
NOTE_ON_53
VEL_3
NOTE_ON_59
TIME_SHIFT_64ND_1
NOTE_OFF_88
NOTE_OFF_76
NOTE_OFF_64
NOTE_OFF_52
TIME_SHIFT_64ND_5
VEL_4
NOTE_ON_76
VEL_4
NOTE_ON_88
VEL_3
NOTE_ON_52
VEL_3
NOTE_ON_64
TIME_SHIFT_64ND_1
NOTE_OFF_80
NOTE_OFF_89
NOTE_OFF_77
NOTE_OFF_83
NOTE_OFF_56
NOTE_OFF_65
NOTE_OFF_53
NOTE_OFF_59
TIME_SHIFT_64ND_5
VEL_4
NOTE_ON_86
VEL_3
NOTE_ON_74
VEL_3
NOTE_ON_62
VEL_2
NOTE_ON_50
TIME_SHIFT_64ND_1
NOTE_OFF_76
NOTE_OFF_88
NOTE_OFF_52
NOTE_OFF_64
TIME_SHIFT_64ND_5
VEL_4
NOTE_ON_84
VEL_3
NOTE_ON_72
VEL_3
NOTE_ON_60
VEL_2
NOTE_ON_48
TIME_SHIFT_64ND_1
NOTE_OFF_86
NOTE_OFF_74
NOTE_OFF_62
NOTE_OFF_50
TIME_SHIFT_64ND_5
VEL_4
NOTE_ON_83
VEL_3
NOTE_ON_71
VEL_3
NOTE_ON_59
VEL_2
NOTE_ON_47
TIME_SHIFT_64ND_1
NOTE_OFF_84
NOTE_OFF_72
NOTE_OFF_60
NOTE_OFF_48
TIME_SHIFT_64ND_5
VEL_4
NOTE_ON_81
VEL_3
NOTE_ON_69
VEL_3
NOTE_ON_57
VEL_2
NOTE_ON_45
TIME_SHIFT_64ND_1
NOTE_OFF_83
NOTE_OFF_71
NOTE_OFF_59
NOTE_OFF_47
TIME_SHIFT_64ND_5
VEL_4
NOTE_ON_80
VEL_3
NOTE_ON_68
VEL_3
NOTE_ON_56
VEL_2
NOTE_ON_44
TIME_SHIFT_64ND_1
NOTE_OFF_81
NOTE_OFF_69
NOTE_OFF_57
NOTE_OFF_45
TIME_SHIFT_64ND_5
VEL_4
NOTE_ON_76
VEL_3
NOTE_ON_64
VEL_3
NOTE_ON_52
VEL_2
NOTE_ON_40
TIME_SHIFT_64ND_1
NOTE_OFF_80
NOTE_OFF_68
NOTE_OFF_56
NOTE_OFF_44
TIME_SHIFT_64ND_5
NOTE_OFF_76
NOTE_OFF_64
NOTE_OFF_52
NOTE_OFF_40
VEL_4
NOTE_ON_69
VEL_4
NOTE_ON_76
VEL_4
NOTE_ON_64
VEL_3
NOTE_ON_45
VEL_4
NOTE_ON_57
TIME_SHIFT_64ND_5
NOTE_OFF_69
NOTE_OFF_76
NOTE_OFF_64
NOTE_OFF_45
NOTE_OFF_57
VEL_4
NOTE_ON_72
VEL_3
NOTE_ON_48
VEL_3
NOTE_ON_60
TIME_SHIFT_64ND_3
NOTE_OFF_72
NOTE_OFF_48
NOTE_OFF_60
TIME_SHIFT_64ND_3
VEL_4
NOTE_ON_68
VEL_4
NOTE_ON_76
VEL_4
NOTE_ON_64
VEL_3
NOTE_ON_44
VEL_4
NOTE_ON_56
TIME_SHIFT_64ND_5
NOTE_OFF_68
NOTE_OFF_76
NOTE_OFF_64
NOTE_OFF_44
NOTE_OFF_56
VEL_4
NOTE_ON_71
VEL_3
NOTE_ON_47
VEL_3
NOTE_ON_59
TIME_SHIFT_64ND_3
NOTE_OFF_71
NOTE_OFF_47
NOTE_OFF_59
TIME_SHIFT_64ND_3
VEL_3
NOTE_ON_72
VEL_3
NOTE_ON_69
VEL_4
NOTE_ON_81
VEL_3
NOTE_ON_52
VEL_4
NOTE_ON_57
VEL_3
NOTE_ON_45
VEL_3
NOTE_ON_48
TIME_SHIFT_64ND_5
NOTE_OFF_72
NOTE_OFF_69
NOTE_OFF_81
NOTE_OFF_52
NOTE_OFF_57
NOTE_OFF_45
NOTE_OFF_48
VEL_3
NOTE_ON_76
VEL_3
NOTE_ON_72
VEL_4
NOTE_ON_84
TIME_SHIFT_64ND_3
NOTE_OFF_76
NOTE_OFF_72
NOTE_OFF_84
TIME_SHIFT_64ND_3
VEL_3
NOTE_ON_71
VEL_3
NOTE_ON_68
VEL_4
NOTE_ON_80
VEL_3
NOTE_ON_47
VEL_4
NOTE_ON_52
VEL_3
NOTE_ON_40
VEL_3
NOTE_ON_44
TIME_SHIFT_64ND_5
NOTE_OFF_71
NOTE_OFF_68
NOTE_OFF_80
NOTE_OFF_47
NOTE_OFF_52
NOTE_OFF_40
NOTE_OFF_44
VEL_3
NOTE_ON_74
VEL_3
NOTE_ON_71
VEL_4
NOTE_ON_83
TIME_SHIFT_64ND_3
NOTE_OFF_74
NOTE_OFF_71
NOTE_OFF_83
TIME_SHIFT_64ND_3
VEL_4
NOTE_ON_72
VEL_4
NOTE_ON_69
VEL_5
NOTE_ON_81
VEL_3
NOTE_ON_52
VEL_4
NOTE_ON_57
VEL_3
NOTE_ON_45
VEL_3
NOTE_ON_48
TIME_SHIFT_64ND_6
NOTE_OFF_72
NOTE_OFF_69
NOTE_OFF_81
NOTE_OFF_52
NOTE_OFF_57
NOTE_OFF_45
NOTE_OFF_48
TIME_SHIFT_64ND_17
VEL_4
NOTE_ON_86
VEL_5
NOTE_ON_89
VEL_4
NOTE_ON_77
VEL_4
NOTE_ON_81
VEL_3
NOTE_ON_45
VEL_4
NOTE_ON_50
VEL_3
NOTE_ON_38
VEL_3
NOTE_ON_41
TIME_SHIFT_64ND_6
NOTE_OFF_86
NOTE_OFF_89
NOTE_OFF_77
NOTE_OFF_81
NOTE_OFF_45
NOTE_OFF_50
NOTE_OFF_38
NOTE_OFF_41
TIME_SHIFT_64ND_17
VEL_5
NOTE_ON_88
VEL_6
NOTE_ON_93
VEL_5
NOTE_ON_81
VEL_5
NOTE_ON_84
VEL_4
NOTE_ON_40
VEL_4
NOTE_ON_45
VEL_4
NOTE_ON_33
VEL_4
NOTE_ON_36
TIME_SHIFT_64ND_23
NOTE_OFF_88
NOTE_OFF_93
NOTE_OFF_81
NOTE_OFF_84
NOTE_OFF_40
NOTE_OFF_45
NOTE_OFF_33
NOTE_OFF_36
TIME_SHIFT_64ND_11
VEL_2
NOTE_ON_73
TIME_SHIFT_64ND_6
NOTE_OFF_73
VEL_2
NOTE_ON_76
TIME_SHIFT_64ND_6
NOTE_OFF_76
VEL_2
NOTE_ON_69
TIME_SHIFT_64ND_11
VEL_2
NOTE_ON_61
VEL_2
NOTE_ON_52
TIME_SHIFT_64ND_6
NOTE_OFF_61
VEL_2
NOTE_ON_64
TIME_SHIFT_64ND_6
NOTE_OFF_69
NOTE_OFF_64
NOTE_OFF_52
VEL_2
NOTE_ON_45
TIME_SHIFT_64ND_3
NOTE_OFF_45
TIME_SHIFT_64ND_9
VEL_3
NOTE_ON_73
TIME_SHIFT_64ND_6
NOTE_OFF_73
VEL_3
NOTE_ON_76
TIME_SHIFT_64ND_6
NOTE_OFF_76
VEL_3
NOTE_ON_69
TIME_SHIFT_64ND_11
VEL_2
NOTE_ON_61
VEL_2
NOTE_ON_52
TIME_SHIFT_64ND_6
NOTE_OFF_61
VEL_2
NOTE_ON_64
TIME_SHIFT_64ND_6
NOTE_OFF_69
NOTE_OFF_64
NOTE_OFF_52
VEL_3
NOTE_ON_45
TIME_SHIFT_64ND_3
NOTE_OFF_45
TIME_SHIFT_64ND_9
VEL_3
NOTE_ON_81
VEL_2
NOTE_ON_73
VEL_1
NOTE_ON_65
VEL_1
NOTE_ON_61
VEL_2
NOTE_ON_71
TIME_SHIFT_64ND_5
NOTE_OFF_81
NOTE_OFF_65
NOTE_OFF_61
NOTE_OFF_71
VEL_2
NOTE_ON_80
TIME_SHIFT_64ND_3
NOTE_OFF_80
TIME_SHIFT_64ND_3
NOTE_OFF_73
VEL_3
NOTE_ON_80
VEL_2
NOTE_ON_73
VEL_2
NOTE_ON_66
VEL_2
NOTE_ON_69
TIME_SHIFT_64ND_5
NOTE_OFF_80
NOTE_OFF_66
NOTE_OFF_69
VEL_2
NOTE_ON_78
TIME_SHIFT_64ND_3
NOTE_OFF_78
TIME_SHIFT_64ND_3
NOTE_OFF_73
VEL_3
NOTE_ON_78
VEL_2
NOTE_ON_73
VEL_1
NOTE_ON_68
VEL_1
NOTE_ON_61
VEL_2
NOTE_ON_71
TIME_SHIFT_64ND_5
NOTE_OFF_78
NOTE_OFF_68
NOTE_OFF_61
NOTE_OFF_71
VEL_2
NOTE_ON_77
TIME_SHIFT_64ND_3
NOTE_OFF_77
TIME_SHIFT_64ND_3
NOTE_OFF_73
VEL_3
NOTE_ON_80
VEL_2
NOTE_ON_73
VEL_2
NOTE_ON_66
VEL_2
NOTE_ON_69
TIME_SHIFT_64ND_6
NOTE_OFF_80
NOTE_OFF_66
NOTE_OFF_69
VEL_2
NOTE_ON_78
TIME_SHIFT_64ND_3
NOTE_OFF_78
TIME_SHIFT_64ND_3
NOTE_OFF_73
VEL_3
NOTE_ON_78
VEL_2
NOTE_ON_73
VEL_1
NOTE_ON_68
VEL_1
NOTE_ON_61
VEL_2
NOTE_ON_71
TIME_SHIFT_64ND_6
NOTE_OFF_78
NOTE_OFF_68
NOTE_OFF_61
NOTE_OFF_71
VEL_2
NOTE_ON_77
TIME_SHIFT_64ND_3
NOTE_OFF_77
TIME_SHIFT_64ND_3
NOTE_OFF_73
VEL_2
NOTE_ON_73
VEL_3
NOTE_ON_78
VEL_2
NOTE_ON_66
VEL_2
NOTE_ON_69
TIME_SHIFT_64ND_6
NOTE_OFF_73
NOTE_OFF_78
NOTE_OFF_66
NOTE_OFF_69
TIME_SHIFT_64ND_6
VEL_2
NOTE_ON_57
TIME_SHIFT_64ND_6
NOTE_OFF_57
VEL_2
NOTE_ON_61
TIME_SHIFT_64ND_6
NOTE_OFF_61
VEL_3
NOTE_ON_54
TIME_SHIFT_64ND_3
NOTE_OFF_54
TIME_SHIFT_64ND_9
VEL_3
NOTE_ON_90
VEL_2
NOTE_ON_81
VEL_1
NOTE_ON_73
VEL_1
NOTE_ON_69
VEL_2
NOTE_ON_79
TIME_SHIFT_64ND_5
NOTE_OFF_90
NOTE_OFF_73
NOTE_OFF_69
NOTE_OFF_79
VEL_2
NOTE_ON_88
TIME_SHIFT_64ND_3
NOTE_OFF_88
TIME_SHIFT_64ND_3
NOTE_OFF_81
VEL_3
NOTE_ON_88
VEL_2
NOTE_ON_81
VEL_2
NOTE_ON_74
VEL_2
NOTE_ON_78
TIME_SHIFT_64ND_5
NOTE_OFF_88
NOTE_OFF_74
NOTE_OFF_78
VEL_2
NOTE_ON_86
TIME_SHIFT_64ND_3
NOTE_OFF_86
TIME_SHIFT_64ND_3
NOTE_OFF_81
VEL_3
NOTE_ON_86
VEL_2
NOTE_ON_81
VEL_1
NOTE_ON_76
VEL_1
NOTE_ON_69
VEL_2
NOTE_ON_79
TIME_SHIFT_64ND_6
NOTE_OFF_86
NOTE_OFF_76
NOTE_OFF_69
NOTE_OFF_79
VEL_2
NOTE_ON_85
TIME_SHIFT_64ND_3
NOTE_OFF_85
TIME_SHIFT_64ND_3
NOTE_OFF_81
VEL_3
NOTE_ON_88
VEL_2
NOTE_ON_81
VEL_2
NOTE_ON_74
VEL_2
NOTE_ON_78
TIME_SHIFT_64ND_6
NOTE_OFF_88
NOTE_OFF_74
NOTE_OFF_78
VEL_2
NOTE_ON_86
TIME_SHIFT_64ND_3
NOTE_OFF_86
TIME_SHIFT_64ND_3
NOTE_OFF_81
VEL_3
NOTE_ON_86
VEL_2
NOTE_ON_81
VEL_1
NOTE_ON_76
VEL_1
NOTE_ON_69
VEL_2
NOTE_ON_79
TIME_SHIFT_64ND_6
NOTE_OFF_86
NOTE_OFF_76
NOTE_OFF_69
NOTE_OFF_79
VEL_2
NOTE_ON_85
TIME_SHIFT_64ND_3
NOTE_OFF_85
TIME_SHIFT_64ND_3
NOTE_OFF_81
VEL_2
NOTE_ON_81
VEL_3
NOTE_ON_86
VEL_2
NOTE_ON_74
VEL_2
NOTE_ON_78
TIME_SHIFT_64ND_6
NOTE_OFF_81
NOTE_OFF_86
NOTE_OFF_74
NOTE_OFF_78
TIME_SHIFT_64ND_6
VEL_2
NOTE_ON_66
TIME_SHIFT_64ND_6
NOTE_OFF_66
VEL_2
NOTE_ON_69
TIME_SHIFT_64ND_6
NOTE_OFF_69
VEL_3
NOTE_ON_62
TIME_SHIFT_64ND_3
NOTE_OFF_62
TIME_SHIFT_64ND_9
VEL_2
NOTE_ON_74
TIME_SHIFT_64ND_6
NOTE_OFF_74
VEL_2
NOTE_ON_78
TIME_SHIFT_64ND_6
NOTE_OFF_78
VEL_2
NOTE_ON_71
TIME_SHIFT_64ND_11
VEL_2
NOTE_ON_62
VEL_2
NOTE_ON_54
TIME_SHIFT_64ND_6
NOTE_OFF_62
VEL_2
NOTE_ON_66
TIME_SHIFT_64ND_6
NOTE_OFF_71
NOTE_OFF_66
NOTE_OFF_54
VEL_2
NOTE_ON_47
TIME_SHIFT_64ND_3
NOTE_OFF_47
TIME_SHIFT_64ND_9
VEL_3
NOTE_ON_74
TIME_SHIFT_64ND_6
NOTE_OFF_74
VEL_3
NOTE_ON_78
TIME_SHIFT_64ND_6
NOTE_OFF_78
VEL_3
NOTE_ON_71
TIME_SHIFT_64ND_11
VEL_2
NOTE_ON_62
VEL_2
NOTE_ON_54
TIME_SHIFT_64ND_6
NOTE_OFF_62
VEL_2
NOTE_ON_66
TIME_SHIFT_64ND_6
NOTE_OFF_71
NOTE_OFF_66
NOTE_OFF_54
VEL_3
NOTE_ON_47
TIME_SHIFT_64ND_3
NOTE_OFF_47
TIME_SHIFT_64ND_9
VEL_2
NOTE_ON_86
VEL_3
NOTE_ON_95
TIME_SHIFT_64ND_3
NOTE_OFF_86
NOTE_OFF_95
TIME_SHIFT_64ND_3
VEL_2
NOTE_ON_90
VEL_3
NOTE_ON_98
TIME_SHIFT_64ND_3
NOTE_OFF_90
NOTE_OFF_98
TIME_SHIFT_64ND_3
VEL_2
NOTE_ON_88
VEL_3
NOTE_ON_97
VEL_2
NOTE_ON_52
TIME_SHIFT_64ND_3
NOTE_OFF_88
NOTE_OFF_97
TIME_SHIFT_64ND_3
VEL_2
NOTE_ON_86
VEL_3
NOTE_ON_95
TIME_SHIFT_64ND_3
NOTE_OFF_86
NOTE_OFF_95
TIME_SHIFT_64ND_3
NOTE_OFF_52
VEL_2
NOTE_ON_85
VEL_3
NOTE_ON_93
VEL_1
NOTE_ON_61
VEL_1
NOTE_ON_64
VEL_2
NOTE_ON_69
TIME_SHIFT_64ND_3
NOTE_OFF_85
NOTE_OFF_93
NOTE_OFF_61
NOTE_OFF_64
NOTE_OFF_69
TIME_SHIFT_64ND_3
VEL_2
NOTE_ON_88
VEL_3
NOTE_ON_97
TIME_SHIFT_64ND_3
NOTE_OFF_88
NOTE_OFF_97
TIME_SHIFT_64ND_3
VEL_3
NOTE_ON_86
VEL_3
NOTE_ON_95
VEL_2
NOTE_ON_64
TIME_SHIFT_64ND_3
NOTE_OFF_86
NOTE_OFF_95
TIME_SHIFT_64ND_3
VEL_2
NOTE_ON_85
VEL_3
NOTE_ON_93
TIME_SHIFT_64ND_3
NOTE_OFF_85
NOTE_OFF_93
TIME_SHIFT_64ND_3
NOTE_OFF_64
VEL_2
NOTE_ON_83
VEL_3
NOTE_ON_92
VEL_1
NOTE_ON_71
VEL_1
NOTE_ON_76
VEL_2
NOTE_ON_80
TIME_SHIFT_64ND_3
NOTE_OFF_83
NOTE_OFF_92
NOTE_OFF_71
NOTE_OFF_76
NOTE_OFF_80
TIME_SHIFT_64ND_3
VEL_2
NOTE_ON_86
VEL_3
NOTE_ON_95
TIME_SHIFT_64ND_3
NOTE_OFF_86
NOTE_OFF_95
TIME_SHIFT_64ND_3
VEL_3
NOTE_ON_85
VEL_3
NOTE_ON_93
VEL_2
NOTE_ON_76
VEL_2
NOTE_ON_69
VEL_2
NOTE_ON_81
TIME_SHIFT_64ND_3
NOTE_OFF_85
NOTE_OFF_93
NOTE_OFF_76
NOTE_OFF_69
NOTE_OFF_81
TIME_SHIFT_64ND_3
VEL_2
NOTE_ON_88
VEL_3
NOTE_ON_97
TIME_SHIFT_64ND_3
NOTE_OFF_88
NOTE_OFF_97
TIME_SHIFT_64ND_3
VEL_2
NOTE_ON_83
VEL_3
NOTE_ON_92
VEL_1
NOTE_ON_76
VEL_2
NOTE_ON_80
TIME_SHIFT_64ND_3
NOTE_OFF_83
NOTE_OFF_92
NOTE_OFF_76
NOTE_OFF_80
TIME_SHIFT_64ND_3
VEL_2
NOTE_ON_86
VEL_3
NOTE_ON_95
TIME_SHIFT_64ND_3
NOTE_OFF_86
NOTE_OFF_95
TIME_SHIFT_64ND_3
VEL_2
NOTE_ON_85
VEL_3
NOTE_ON_93
VEL_2
NOTE_ON_76
VEL_2
NOTE_ON_69
VEL_2
NOTE_ON_81
TIME_SHIFT_64ND_3
NOTE_OFF_85
NOTE_OFF_93
NOTE_OFF_76
NOTE_OFF_69
NOTE_OFF_81
TIME_SHIFT_64ND_8
VEL_2
NOTE_ON_61
TIME_SHIFT_64ND_4
NOTE_OFF_61
TIME_SHIFT_64ND_1
VEL_2
NOTE_ON_64
TIME_SHIFT_64ND_4
NOTE_OFF_64
TIME_SHIFT_64ND_1
VEL_2
NOTE_ON_57
TIME_SHIFT_64ND_11
VEL_3
NOTE_ON_73
VEL_2
NOTE_ON_64
VEL_1
NOTE_ON_52
VEL_1
NOTE_ON_45
TIME_SHIFT_64ND_3
NOTE_OFF_73
VEL_2
NOTE_ON_76
TIME_SHIFT_64ND_3
NOTE_OFF_76
NOTE_OFF_64
NOTE_OFF_52
NOTE_OFF_45
VEL_3
NOTE_ON_69
TIME_SHIFT_64ND_3
NOTE_OFF_69
TIME_SHIFT_64ND_3
NOTE_OFF_57
VEL_3
NOTE_ON_85
VEL_2
NOTE_ON_76
VEL_1
NOTE_ON_52
VEL_1
NOTE_ON_45
TIME_SHIFT_64ND_3
NOTE_OFF_85
VEL_2
NOTE_ON_88
TIME_SHIFT_64ND_3
NOTE_OFF_88
NOTE_OFF_76
NOTE_OFF_52
NOTE_OFF_45
VEL_3
NOTE_ON_81
TIME_SHIFT_64ND_3
NOTE_OFF_81
TIME_SHIFT_64ND_3
VEL_2
NOTE_ON_61
TIME_SHIFT_64ND_4
NOTE_OFF_61
TIME_SHIFT_64ND_1
VEL_2
NOTE_ON_64
TIME_SHIFT_64ND_4
NOTE_OFF_64
TIME_SHIFT_64ND_1
VEL_2
NOTE_ON_57
TIME_SHIFT_64ND_11
VEL_3
NOTE_ON_85
VEL_2
NOTE_ON_76
VEL_1
NOTE_ON_52
VEL_1
NOTE_ON_45
TIME_SHIFT_64ND_3
NOTE_OFF_85
VEL_2
NOTE_ON_88
TIME_SHIFT_64ND_3
NOTE_OFF_88
NOTE_OFF_76
NOTE_OFF_52
NOTE_OFF_45
VEL_3
NOTE_ON_81
TIME_SHIFT_64ND_3
NOTE_OFF_81
TIME_SHIFT_64ND_3
NOTE_OFF_57
VEL_3
NOTE_ON_97
VEL_2
NOTE_ON_88
VEL_1
NOTE_ON_52
VEL_1
NOTE_ON_45
TIME_SHIFT_64ND_3
NOTE_OFF_97
VEL_2
NOTE_ON_100
TIME_SHIFT_64ND_3
NOTE_OFF_100
NOTE_OFF_88
NOTE_OFF_52
NOTE_OFF_45
VEL_3
NOTE_ON_93
TIME_SHIFT_64ND_3
NOTE_OFF_93
TIME_SHIFT_64ND_3
VEL_3
NOTE_ON_93
VEL_2
NOTE_ON_85
VEL_1
NOTE_ON_65
VEL_1
NOTE_ON_61
VEL_2
NOTE_ON_71
TIME_SHIFT_64ND_4
NOTE_OFF_93
VEL_2
NOTE_ON_92
TIME_SHIFT_64ND_2
NOTE_OFF_65
NOTE_OFF_61
NOTE_OFF_71
TIME_SHIFT_64ND_2
NOTE_OFF_92
VEL_2
NOTE_ON_80
TIME_SHIFT_64ND_2
NOTE_OFF_80
TIME_SHIFT_64ND_2
NOTE_OFF_85
VEL_3
NOTE_ON_92
VEL_2
NOTE_ON_85
VEL_2
NOTE_ON_66
VEL_2
NOTE_ON_69
TIME_SHIFT_64ND_4
NOTE_OFF_92
VEL_2
NOTE_ON_90
TIME_SHIFT_64ND_2
NOTE_OFF_66
NOTE_OFF_69
TIME_SHIFT_64ND_2
NOTE_OFF_90
VEL_2
NOTE_ON_78
TIME_SHIFT_64ND_2
NOTE_OFF_78
TIME_SHIFT_64ND_2
NOTE_OFF_85
VEL_3
NOTE_ON_90
VEL_1
NOTE_ON_85
VEL_1
NOTE_ON_68
VEL_1
NOTE_ON_61
VEL_2
NOTE_ON_71
TIME_SHIFT_64ND_4
NOTE_OFF_90
VEL_2
NOTE_ON_89
TIME_SHIFT_64ND_2
NOTE_OFF_68
NOTE_OFF_61
NOTE_OFF_71
TIME_SHIFT_64ND_2
NOTE_OFF_89
VEL_2
NOTE_ON_77
TIME_SHIFT_64ND_2
NOTE_OFF_77
TIME_SHIFT_64ND_2
NOTE_OFF_85
VEL_3
NOTE_ON_92
VEL_1
NOTE_ON_85
VEL_2
NOTE_ON_66
VEL_2
NOTE_ON_69
TIME_SHIFT_64ND_4
NOTE_OFF_92
VEL_2
NOTE_ON_90
TIME_SHIFT_64ND_2
NOTE_OFF_66
NOTE_OFF_69
TIME_SHIFT_64ND_2
NOTE_OFF_90
VEL_2
NOTE_ON_78
TIME_SHIFT_64ND_2
NOTE_OFF_78
TIME_SHIFT_64ND_2
NOTE_OFF_85
VEL_3
NOTE_ON_90
VEL_1
NOTE_ON_85
VEL_1
NOTE_ON_68
VEL_1
NOTE_ON_61
VEL_2
NOTE_ON_71
TIME_SHIFT_64ND_4
NOTE_OFF_90
VEL_3
NOTE_ON_89
TIME_SHIFT_64ND_2
NOTE_OFF_68
NOTE_OFF_61
NOTE_OFF_71
TIME_SHIFT_64ND_2
NOTE_OFF_89
VEL_3
NOTE_ON_77
TIME_SHIFT_64ND_2
NOTE_OFF_77
TIME_SHIFT_64ND_2
NOTE_OFF_85
VEL_3
NOTE_ON_92
VEL_2
NOTE_ON_85
VEL_2
NOTE_ON_66
VEL_2
NOTE_ON_69
TIME_SHIFT_64ND_3
NOTE_OFF_92
NOTE_OFF_66
NOTE_OFF_69
VEL_3
NOTE_ON_90
TIME_SHIFT_64ND_3
NOTE_OFF_90
NOTE_OFF_85
VEL_3
NOTE_ON_85
TIME_SHIFT_64ND_3
NOTE_OFF_85
VEL_3
NOTE_ON_81
TIME_SHIFT_64ND_3
NOTE_OFF_81
VEL_3
NOTE_ON_80
TIME_SHIFT_64ND_3
NOTE_OFF_80
VEL_3
NOTE_ON_78
TIME_SHIFT_64ND_3
NOTE_OFF_78
VEL_3
NOTE_ON_73
TIME_SHIFT_64ND_3
NOTE_OFF_73
VEL_2
NOTE_ON_69
TIME_SHIFT_64ND_3
NOTE_OFF_69
VEL_2
NOTE_ON_66
TIME_SHIFT_64ND_3
NOTE_OFF_66
TIME_SHIFT_64ND_9
VEL_3
NOTE_ON_90
VEL_2
NOTE_ON_93
VEL_1
NOTE_ON_73
VEL_1
NOTE_ON_69
VEL_2
NOTE_ON_79
TIME_SHIFT_64ND_4
NOTE_OFF_90
VEL_2
NOTE_ON_88
TIME_SHIFT_64ND_2
NOTE_OFF_73
NOTE_OFF_69
NOTE_OFF_79
TIME_SHIFT_64ND_2
NOTE_OFF_88
VEL_2
NOTE_ON_81
TIME_SHIFT_64ND_2
NOTE_OFF_81
TIME_SHIFT_64ND_2
NOTE_OFF_93
VEL_3
NOTE_ON_88
VEL_2
NOTE_ON_93
VEL_2
NOTE_ON_74
VEL_2
NOTE_ON_78
TIME_SHIFT_64ND_4
NOTE_OFF_88
VEL_2
NOTE_ON_86
TIME_SHIFT_64ND_2
NOTE_OFF_74
NOTE_OFF_78
TIME_SHIFT_64ND_2
NOTE_OFF_86
VEL_2
NOTE_ON_81
TIME_SHIFT_64ND_2
NOTE_OFF_81
TIME_SHIFT_64ND_2
NOTE_OFF_93
VEL_3
NOTE_ON_86
VEL_2
NOTE_ON_93
VEL_1
NOTE_ON_76
VEL_1
NOTE_ON_69
VEL_2
NOTE_ON_79
TIME_SHIFT_64ND_4
NOTE_OFF_86
VEL_2
NOTE_ON_85
TIME_SHIFT_64ND_2
NOTE_OFF_76
NOTE_OFF_69
NOTE_OFF_79
TIME_SHIFT_64ND_2
NOTE_OFF_85
VEL_2
NOTE_ON_81
TIME_SHIFT_64ND_2
NOTE_OFF_81
TIME_SHIFT_64ND_2
NOTE_OFF_93
VEL_3
NOTE_ON_88
VEL_2
NOTE_ON_93
VEL_2
NOTE_ON_74
VEL_2
NOTE_ON_78
TIME_SHIFT_64ND_4
NOTE_OFF_88
VEL_2
NOTE_ON_86
TIME_SHIFT_64ND_2
NOTE_OFF_74
NOTE_OFF_78
TIME_SHIFT_64ND_2
NOTE_OFF_86
VEL_2
NOTE_ON_81
TIME_SHIFT_64ND_2
NOTE_OFF_81
TIME_SHIFT_64ND_2
NOTE_OFF_93
VEL_3
NOTE_ON_86
VEL_2
NOTE_ON_93
VEL_1
NOTE_ON_76
VEL_1
NOTE_ON_69
VEL_2
NOTE_ON_79
TIME_SHIFT_64ND_4
NOTE_OFF_86
VEL_3
NOTE_ON_85
TIME_SHIFT_64ND_2
NOTE_OFF_76
NOTE_OFF_69
NOTE_OFF_79
TIME_SHIFT_64ND_2
NOTE_OFF_85
VEL_3
NOTE_ON_81
TIME_SHIFT_64ND_2
NOTE_OFF_81
TIME_SHIFT_64ND_2
NOTE_OFF_93
VEL_3
NOTE_ON_88
VEL_3
NOTE_ON_93
VEL_2
NOTE_ON_74
VEL_2
NOTE_ON_78
TIME_SHIFT_64ND_3
NOTE_OFF_74
NOTE_OFF_78
TIME_SHIFT_64ND_1
NOTE_OFF_88
VEL_3
NOTE_ON_86
TIME_SHIFT_64ND_2
NOTE_OFF_93
TIME_SHIFT_64ND_2
NOTE_OFF_86
VEL_3
NOTE_ON_81
TIME_SHIFT_64ND_4
NOTE_OFF_81
VEL_3
NOTE_ON_78
TIME_SHIFT_64ND_3
NOTE_OFF_78
VEL_3
NOTE_ON_74
TIME_SHIFT_64ND_3
NOTE_OFF_74
VEL_3
NOTE_ON_69
TIME_SHIFT_64ND_3
NOTE_OFF_69
VEL_2
NOTE_ON_66
TIME_SHIFT_64ND_3
NOTE_OFF_66
VEL_2
NOTE_ON_62
TIME_SHIFT_64ND_3
NOTE_OFF_62
TIME_SHIFT_64ND_9
VEL_2
NOTE_ON_62
TIME_SHIFT_64ND_4
NOTE_OFF_62
TIME_SHIFT_64ND_1
VEL_2
NOTE_ON_66
TIME_SHIFT_64ND_4
NOTE_OFF_66
TIME_SHIFT_64ND_1
VEL_2
NOTE_ON_59
TIME_SHIFT_64ND_11
VEL_3
NOTE_ON_74
VEL_2
NOTE_ON_66
VEL_1
NOTE_ON_54
VEL_1
NOTE_ON_47
TIME_SHIFT_64ND_3
NOTE_OFF_74
VEL_2
NOTE_ON_78
TIME_SHIFT_64ND_3
NOTE_OFF_78
NOTE_OFF_66
NOTE_OFF_54
NOTE_OFF_47
VEL_3
NOTE_ON_71
TIME_SHIFT_64ND_3
NOTE_OFF_71
TIME_SHIFT_64ND_3
NOTE_OFF_59
VEL_3
NOTE_ON_86
VEL_2
NOTE_ON_78
VEL_1
NOTE_ON_54
VEL_1
NOTE_ON_47
TIME_SHIFT_64ND_3
NOTE_OFF_86
VEL_2
NOTE_ON_90
TIME_SHIFT_64ND_3
NOTE_OFF_90
NOTE_OFF_78
NOTE_OFF_54
NOTE_OFF_47
VEL_3
NOTE_ON_83
TIME_SHIFT_64ND_3
NOTE_OFF_83
TIME_SHIFT_64ND_3
VEL_2
NOTE_ON_62
TIME_SHIFT_64ND_4
NOTE_OFF_62
TIME_SHIFT_64ND_1
VEL_2
NOTE_ON_66
TIME_SHIFT_64ND_4
NOTE_OFF_66
TIME_SHIFT_64ND_1
VEL_2
NOTE_ON_59
TIME_SHIFT_64ND_11
VEL_3
NOTE_ON_86
VEL_2
NOTE_ON_78
VEL_1
NOTE_ON_54
VEL_1
NOTE_ON_47
TIME_SHIFT_64ND_3
NOTE_OFF_86
VEL_2
NOTE_ON_90
TIME_SHIFT_64ND_3
NOTE_OFF_90
NOTE_OFF_78
NOTE_OFF_54
NOTE_OFF_47
VEL_3
NOTE_ON_83
TIME_SHIFT_64ND_3
NOTE_OFF_83
TIME_SHIFT_64ND_3
NOTE_OFF_59
VEL_3
NOTE_ON_98
VEL_2
NOTE_ON_90
VEL_1
NOTE_ON_54
VEL_1
NOTE_ON_47
TIME_SHIFT_64ND_3
NOTE_OFF_98
VEL_2
NOTE_ON_102
TIME_SHIFT_64ND_3
NOTE_OFF_102
NOTE_OFF_90
NOTE_OFF_54
NOTE_OFF_47
VEL_3
NOTE_ON_95
TIME_SHIFT_64ND_3
NOTE_OFF_95
TIME_SHIFT_64ND_3
VEL_2
NOTE_ON_86
VEL_3
NOTE_ON_95
VEL_2
NOTE_ON_83
TIME_SHIFT_64ND_3
NOTE_OFF_86
NOTE_OFF_95
NOTE_OFF_83
TIME_SHIFT_64ND_3
VEL_2
NOTE_ON_90
VEL_3
NOTE_ON_98
VEL_2
NOTE_ON_86
TIME_SHIFT_64ND_3
NOTE_OFF_90
NOTE_OFF_98
NOTE_OFF_86
TIME_SHIFT_64ND_3
VEL_2
NOTE_ON_88
VEL_3
NOTE_ON_97
VEL_2
NOTE_ON_85
VEL_2
NOTE_ON_52
VEL_2
NOTE_ON_40
TIME_SHIFT_64ND_3
NOTE_OFF_88
NOTE_OFF_97
NOTE_OFF_85
NOTE_OFF_52
NOTE_OFF_40
TIME_SHIFT_64ND_3
VEL_2
NOTE_ON_86
VEL_3
NOTE_ON_95
VEL_2
NOTE_ON_83
TIME_SHIFT_64ND_3
NOTE_OFF_86
NOTE_OFF_95
NOTE_OFF_83
TIME_SHIFT_64ND_3
VEL_2
NOTE_ON_85
VEL_3
NOTE_ON_93
VEL_2
NOTE_ON_81
VEL_1
NOTE_ON_57
VEL_1
NOTE_ON_61
VEL_2
NOTE_ON_64
TIME_SHIFT_64ND_3
NOTE_OFF_85
NOTE_OFF_93
NOTE_OFF_81
NOTE_OFF_57
NOTE_OFF_61
NOTE_OFF_64
TIME_SHIFT_64ND_3
VEL_2
NOTE_ON_88
VEL_3
NOTE_ON_97
VEL_2
NOTE_ON_85
TIME_SHIFT_64ND_3
NOTE_OFF_88
NOTE_OFF_97
NOTE_OFF_85
TIME_SHIFT_64ND_3
VEL_3
NOTE_ON_86
VEL_3
NOTE_ON_95
VEL_3
NOTE_ON_83
VEL_2
NOTE_ON_52
TIME_SHIFT_64ND_3
NOTE_OFF_86
NOTE_OFF_95
NOTE_OFF_83
NOTE_OFF_52
TIME_SHIFT_64ND_3
VEL_2
NOTE_ON_85
VEL_3
NOTE_ON_93
VEL_2
NOTE_ON_81
TIME_SHIFT_64ND_3
NOTE_OFF_85
NOTE_OFF_93
NOTE_OFF_81
TIME_SHIFT_64ND_3
VEL_2
NOTE_ON_83
VEL_3
NOTE_ON_92
VEL_2
NOTE_ON_80
VEL_1
NOTE_ON_59
VEL_1
NOTE_ON_64
VEL_2
NOTE_ON_68
TIME_SHIFT_64ND_3
NOTE_OFF_83
NOTE_OFF_92
NOTE_OFF_80
NOTE_OFF_59
NOTE_OFF_64
NOTE_OFF_68
TIME_SHIFT_64ND_3
VEL_2
NOTE_ON_86
VEL_3
NOTE_ON_95
VEL_2
NOTE_ON_83
TIME_SHIFT_64ND_3
NOTE_OFF_86
NOTE_OFF_95
NOTE_OFF_83
TIME_SHIFT_64ND_3
VEL_3
NOTE_ON_85
VEL_3
NOTE_ON_93
VEL_3
NOTE_ON_81
VEL_2
NOTE_ON_64
VEL_2
NOTE_ON_61
VEL_2
NOTE_ON_69
VEL_2
NOTE_ON_57
TIME_SHIFT_64ND_3
NOTE_OFF_85
NOTE_OFF_93
NOTE_OFF_81
NOTE_OFF_64
NOTE_OFF_61
NOTE_OFF_69
NOTE_OFF_57
TIME_SHIFT_64ND_3
VEL_2
NOTE_ON_88
VEL_3
NOTE_ON_97
VEL_2
NOTE_ON_85
TIME_SHIFT_64ND_3
NOTE_OFF_88
NOTE_OFF_97
NOTE_OFF_85
TIME_SHIFT_64ND_3
VEL_2
NOTE_ON_83
VEL_3
NOTE_ON_92
VEL_2
NOTE_ON_80
VEL_1
NOTE_ON_64
VEL_2
NOTE_ON_68
TIME_SHIFT_64ND_3
NOTE_OFF_83
NOTE_OFF_92
NOTE_OFF_80
NOTE_OFF_64
NOTE_OFF_68
TIME_SHIFT_64ND_3
VEL_2
NOTE_ON_86
VEL_3
NOTE_ON_95
VEL_2
NOTE_ON_83
TIME_SHIFT_64ND_3
NOTE_OFF_86
NOTE_OFF_95
NOTE_OFF_83
TIME_SHIFT_64ND_3
VEL_2
NOTE_ON_85
VEL_3
NOTE_ON_93
VEL_2
NOTE_ON_81
VEL_2
NOTE_ON_64
VEL_2
NOTE_ON_61
VEL_2
NOTE_ON_69
VEL_2
NOTE_ON_57
TIME_SHIFT_64ND_3
NOTE_OFF_85
NOTE_OFF_93
NOTE_OFF_81
NOTE_OFF_64
NOTE_OFF_61
NOTE_OFF_69
NOTE_OFF_57
TIME_SHIFT_64ND_9
VEL_5
NOTE_ON_57
VEL_6
NOTE_ON_69
VEL_3
NOTE_ON_33
VEL_4
NOTE_ON_45
TIME_SHIFT_64ND_4
NOTE_OFF_57
NOTE_OFF_69
NOTE_OFF_33
NOTE_OFF_45
TIME_SHIFT_64ND_7
VEL_5
NOTE_ON_56
VEL_6
NOTE_ON_68
VEL_3
NOTE_ON_32
VEL_4
NOTE_ON_44
TIME_SHIFT_64ND_4
NOTE_OFF_56
NOTE_OFF_68
NOTE_OFF_32
NOTE_OFF_44
TIME_SHIFT_64ND_7
VEL_5
NOTE_ON_53
VEL_6
NOTE_ON_65
VEL_3
NOTE_ON_29
VEL_4
NOTE_ON_41
TIME_SHIFT_64ND_4
NOTE_OFF_53
NOTE_OFF_65
NOTE_OFF_29
NOTE_OFF_41
TIME_SHIFT_64ND_7
VEL_5
NOTE_ON_52
VEL_6
NOTE_ON_64
VEL_3
NOTE_ON_28
VEL_4
NOTE_ON_40
TIME_SHIFT_64ND_4
NOTE_OFF_52
NOTE_OFF_64
NOTE_OFF_28
NOTE_OFF_40
TIME_SHIFT_64ND_7
VEL_5
NOTE_ON_50
VEL_6
NOTE_ON_62
VEL_3
NOTE_ON_26
VEL_4
NOTE_ON_38
TIME_SHIFT_64ND_4
NOTE_OFF_50
NOTE_OFF_62
NOTE_OFF_26
NOTE_OFF_38
TIME_SHIFT_64ND_7
VEL_6
NOTE_ON_49
VEL_7
NOTE_ON_61
VEL_4
NOTE_ON_25
VEL_4
NOTE_ON_37
TIME_SHIFT_64ND_17
NOTE_OFF_49
NOTE_OFF_61
NOTE_OFF_25
NOTE_OFF_37
VEL_5
NOTE_ON_50
VEL_6
NOTE_ON_62
VEL_3
NOTE_ON_26
VEL_4
NOTE_ON_38
TIME_SHIFT_64ND_6
NOTE_OFF_50
NOTE_OFF_62
NOTE_OFF_26
NOTE_OFF_38
VEL_6
NOTE_ON_52
VEL_7
NOTE_ON_64
VEL_4
NOTE_ON_28
VEL_5
NOTE_ON_40
TIME_SHIFT_64ND_6
NOTE_OFF_52
NOTE_OFF_64
NOTE_OFF_28
NOTE_OFF_40
TIME_SHIFT_64ND_12
VEL_5
NOTE_ON_57
VEL_6
NOTE_ON_69
VEL_3
NOTE_ON_33
VEL_4
NOTE_ON_45
TIME_SHIFT_64ND_3
NOTE_OFF_57
NOTE_OFF_69
NOTE_OFF_33
NOTE_OFF_45
TIME_SHIFT_64ND_3
VEL_6
NOTE_ON_52
VEL_7
NOTE_ON_64
VEL_4
NOTE_ON_28
VEL_5
NOTE_ON_40
TIME_SHIFT_64ND_17
NOTE_OFF_52
NOTE_OFF_64
NOTE_OFF_28
NOTE_OFF_40
VEL_5
NOTE_ON_57
VEL_6
NOTE_ON_69
VEL_3
NOTE_ON_33
VEL_4
NOTE_ON_45
TIME_SHIFT_64ND_3
NOTE_OFF_57
NOTE_OFF_69
NOTE_OFF_33
NOTE_OFF_45
TIME_SHIFT_64ND_3
VEL_5
NOTE_ON_52
VEL_6
NOTE_ON_64
VEL_4
NOTE_ON_28
VEL_4
NOTE_ON_40
TIME_SHIFT_64ND_17
NOTE_OFF_52
NOTE_OFF_64
NOTE_OFF_28
NOTE_OFF_40
VEL_4
NOTE_ON_57
VEL_5
NOTE_ON_69
VEL_2
NOTE_ON_33
VEL_3
NOTE_ON_45
TIME_SHIFT_64ND_3
NOTE_OFF_57
NOTE_OFF_69
NOTE_OFF_33
NOTE_OFF_45
TIME_SHIFT_64ND_3
VEL_4
NOTE_ON_52
VEL_5
NOTE_ON_64
VEL_3
NOTE_ON_28
VEL_3
NOTE_ON_40
TIME_SHIFT_64ND_3
NOTE_OFF_52
NOTE_OFF_64
NOTE_OFF_28
NOTE_OFF_40
TIME_SHIFT_64ND_3
VEL_4
NOTE_ON_49
VEL_4
NOTE_ON_61
VEL_2
NOTE_ON_25
VEL_3
NOTE_ON_37
TIME_SHIFT_64ND_3
NOTE_OFF_49
NOTE_OFF_61
NOTE_OFF_25
NOTE_OFF_37
TIME_SHIFT_64ND_3
VEL_4
NOTE_ON_57
VEL_4
NOTE_ON_45
VEL_2
NOTE_ON_33
VEL_2
NOTE_ON_21
TIME_SHIFT_64ND_3
NOTE_OFF_57
NOTE_OFF_45
NOTE_OFF_33
NOTE_OFF_21
TIME_SHIFT_64ND_3
VEL_4
NOTE_ON_49
VEL_4
NOTE_ON_61
VEL_2
NOTE_ON_25
VEL_3
NOTE_ON_37
TIME_SHIFT_64ND_3
NOTE_OFF_49
NOTE_OFF_61
NOTE_OFF_25
NOTE_OFF_37
TIME_SHIFT_64ND_3
VEL_3
NOTE_ON_52
VEL_4
NOTE_ON_64
VEL_2
NOTE_ON_28
VEL_3
NOTE_ON_40
TIME_SHIFT_64ND_3
NOTE_OFF_52
NOTE_OFF_64
NOTE_OFF_28
NOTE_OFF_40
TIME_SHIFT_64ND_3
VEL_4
NOTE_ON_49
VEL_4
NOTE_ON_61
VEL_2
NOTE_ON_25
VEL_3
NOTE_ON_37
TIME_SHIFT_64ND_3
NOTE_OFF_49
NOTE_OFF_61
NOTE_OFF_25
NOTE_OFF_37
TIME_SHIFT_64ND_3
VEL_4
NOTE_ON_52
VEL_5
NOTE_ON_64
VEL_2
NOTE_ON_28
VEL_3
NOTE_ON_40
TIME_SHIFT_64ND_3
NOTE_OFF_52
NOTE_OFF_64
NOTE_OFF_28
NOTE_OFF_40
TIME_SHIFT_64ND_3
VEL_4
NOTE_ON_57
VEL_5
NOTE_ON_69
VEL_3
NOTE_ON_33
VEL_3
NOTE_ON_45
TIME_SHIFT_64ND_3
NOTE_OFF_57
NOTE_OFF_69
NOTE_OFF_33
NOTE_OFF_45
TIME_SHIFT_64ND_3
VEL_4
NOTE_ON_52
VEL_5
NOTE_ON_64
VEL_3
NOTE_ON_28
VEL_3
NOTE_ON_40
TIME_SHIFT_64ND_24
NOTE_OFF_52
NOTE_OFF_64
NOTE_OFF_28
NOTE_OFF_40
VEL_4
NOTE_ON_57
VEL_5
NOTE_ON_69
VEL_3
NOTE_ON_33
VEL_3
NOTE_ON_45
TIME_SHIFT_64ND_3
NOTE_OFF_57
NOTE_OFF_69
NOTE_OFF_33
NOTE_OFF_45
TIME_SHIFT_64ND_8
VEL_2
NOTE_ON_41
TIME_SHIFT_64ND_1
VEL_3
NOTE_ON_48
TIME_SHIFT_64ND_1
VEL_4
NOTE_ON_72
VEL_3
NOTE_ON_69
VEL_4
NOTE_ON_81
VEL_3
NOTE_ON_57
TIME_SHIFT_64ND_6
NOTE_OFF_72
NOTE_OFF_69
NOTE_OFF_81
NOTE_OFF_57
NOTE_OFF_48
NOTE_OFF_41
TIME_SHIFT_64ND_5
VEL_2
NOTE_ON_40
TIME_SHIFT_64ND_1
VEL_3
NOTE_ON_48
TIME_SHIFT_64ND_1
VEL_4
NOTE_ON_79
VEL_3
NOTE_ON_72
VEL_3
NOTE_ON_67
VEL_3
NOTE_ON_55
TIME_SHIFT_64ND_6
NOTE_OFF_79
NOTE_OFF_55
NOTE_OFF_48
NOTE_OFF_40
VEL_4
NOTE_ON_76
TIME_SHIFT_64ND_5
VEL_2
NOTE_ON_41
TIME_SHIFT_64ND_1
VEL_3
NOTE_ON_48
TIME_SHIFT_64ND_1
NOTE_OFF_76
NOTE_OFF_72
NOTE_OFF_67
VEL_4
NOTE_ON_77
VEL_3
NOTE_ON_69
VEL_3
NOTE_ON_65
VEL_3
NOTE_ON_57
TIME_SHIFT_64ND_6
NOTE_OFF_77
NOTE_OFF_57
NOTE_OFF_48
NOTE_OFF_41
VEL_4
NOTE_ON_74
TIME_SHIFT_64ND_5
VEL_3
NOTE_ON_43
TIME_SHIFT_64ND_1
VEL_3
NOTE_ON_52
TIME_SHIFT_64ND_1
NOTE_OFF_74
NOTE_OFF_69
NOTE_OFF_65
VEL_4
NOTE_ON_76
VEL_3
NOTE_ON_67
VEL_3
NOTE_ON_64
VEL_3
NOTE_ON_60
TIME_SHIFT_64ND_6
NOTE_OFF_76
NOTE_OFF_60
NOTE_OFF_52
NOTE_OFF_43
VEL_3
NOTE_ON_72
TIME_SHIFT_64ND_5
VEL_2
NOTE_ON_43
TIME_SHIFT_64ND_1
VEL_2
NOTE_ON_53
TIME_SHIFT_64ND_1
NOTE_OFF_72
NOTE_OFF_67
NOTE_OFF_64
VEL_4
NOTE_ON_74
VEL_3
NOTE_ON_65
VEL_3
NOTE_ON_62
VEL_3
NOTE_ON_59
TIME_SHIFT_64ND_6
NOTE_OFF_74
NOTE_OFF_59
NOTE_OFF_53
NOTE_OFF_43
VEL_3
NOTE_ON_71
TIME_SHIFT_64ND_5
VEL_2
NOTE_ON_48
TIME_SHIFT_64ND_1
VEL_0
NOTE_ON_55
TIME_SHIFT_64ND_1
NOTE_OFF_71
NOTE_OFF_65
NOTE_OFF_62
VEL_3
NOTE_ON_72
VEL_2
NOTE_ON_64
VEL_3
NOTE_ON_60
TIME_SHIFT_64ND_3
NOTE_OFF_72
VEL_3
NOTE_ON_74
TIME_SHIFT_64ND_3
NOTE_OFF_74
NOTE_OFF_64
NOTE_OFF_60
NOTE_OFF_55
NOTE_OFF_48
VEL_3
NOTE_ON_72
TIME_SHIFT_64ND_3
NOTE_OFF_72
VEL_3
NOTE_ON_71
TIME_SHIFT_64ND_3
NOTE_OFF_71
VEL_3
NOTE_ON_72
VEL_2
NOTE_ON_64
TIME_SHIFT_64ND_3
NOTE_OFF_72
NOTE_OFF_64
VEL_3
NOTE_ON_76
VEL_2
NOTE_ON_67
TIME_SHIFT_64ND_3
NOTE_OFF_76
NOTE_OFF_67
VEL_3
NOTE_ON_79
VEL_2
NOTE_ON_72
TIME_SHIFT_64ND_3
NOTE_OFF_79
NOTE_OFF_72
VEL_3
NOTE_ON_83
VEL_3
NOTE_ON_74
TIME_SHIFT_64ND_2
NOTE_OFF_83
VEL_3
NOTE_ON_86
TIME_SHIFT_64ND_1
NOTE_OFF_86
NOTE_OFF_74
VEL_3
NOTE_ON_84
VEL_3
NOTE_ON_76
TIME_SHIFT_64ND_3
NOTE_OFF_84
NOTE_OFF_76
VEL_3
NOTE_ON_83
TIME_SHIFT_64ND_3
NOTE_OFF_83
VEL_3
NOTE_ON_84
TIME_SHIFT_64ND_3
NOTE_OFF_84
VEL_3
NOTE_ON_86
TIME_SHIFT_64ND_1
VEL_2
NOTE_ON_55
TIME_SHIFT_64ND_1
VEL_3
NOTE_ON_65
TIME_SHIFT_64ND_1
NOTE_OFF_86
VEL_3
NOTE_ON_88
VEL_2
NOTE_ON_77
VEL_3
NOTE_ON_71
TIME_SHIFT_64ND_3
NOTE_OFF_88
TIME_SHIFT_64ND_3
NOTE_OFF_77
NOTE_OFF_71
NOTE_OFF_65
NOTE_OFF_55
TIME_SHIFT_64ND_3
VEL_3
NOTE_ON_86
TIME_SHIFT_64ND_3
NOTE_OFF_86
VEL_3
NOTE_ON_84
VEL_2
NOTE_ON_76
VEL_3
NOTE_ON_72
VEL_0
NOTE_ON_67
VEL_2
NOTE_ON_60
TIME_SHIFT_64ND_3
NOTE_OFF_84
VEL_3
NOTE_ON_86
TIME_SHIFT_64ND_3
NOTE_OFF_86
NOTE_OFF_76
NOTE_OFF_72
NOTE_OFF_67
NOTE_OFF_60
VEL_3
NOTE_ON_84
TIME_SHIFT_64ND_3
NOTE_OFF_84
VEL_3
NOTE_ON_83
TIME_SHIFT_64ND_3
NOTE_OFF_83
VEL_3
NOTE_ON_84
VEL_2
NOTE_ON_76
TIME_SHIFT_64ND_3
NOTE_OFF_84
NOTE_OFF_76
VEL_3
NOTE_ON_88
VEL_2
NOTE_ON_79
TIME_SHIFT_64ND_3
NOTE_OFF_88
NOTE_OFF_79
VEL_3
NOTE_ON_91
VEL_2
NOTE_ON_84
TIME_SHIFT_64ND_3
NOTE_OFF_91
NOTE_OFF_84
VEL_3
NOTE_ON_95
VEL_3
NOTE_ON_86
TIME_SHIFT_64ND_2
NOTE_OFF_95
VEL_3
NOTE_ON_98
TIME_SHIFT_64ND_1
NOTE_OFF_98
NOTE_OFF_86
VEL_3
NOTE_ON_96
VEL_3
NOTE_ON_88
TIME_SHIFT_64ND_3
NOTE_OFF_96
NOTE_OFF_88
VEL_3
NOTE_ON_95
TIME_SHIFT_64ND_3
NOTE_OFF_95
VEL_3
NOTE_ON_96
TIME_SHIFT_64ND_3
NOTE_OFF_96
VEL_3
NOTE_ON_98
TIME_SHIFT_64ND_1
VEL_2
NOTE_ON_67
TIME_SHIFT_64ND_1
VEL_3
NOTE_ON_77
TIME_SHIFT_64ND_1
NOTE_OFF_98
VEL_3
NOTE_ON_100
VEL_2
NOTE_ON_89
VEL_3
NOTE_ON_83
TIME_SHIFT_64ND_3
NOTE_OFF_100
TIME_SHIFT_64ND_3
NOTE_OFF_89
NOTE_OFF_83
NOTE_OFF_77
NOTE_OFF_67
TIME_SHIFT_64ND_3
VEL_3
NOTE_ON_98
TIME_SHIFT_64ND_3
NOTE_OFF_98
VEL_3
NOTE_ON_96
VEL_2
NOTE_ON_76
VEL_2
NOTE_ON_72
VEL_3
NOTE_ON_84
TIME_SHIFT_64ND_3
NOTE_OFF_96
NOTE_OFF_76
NOTE_OFF_72
NOTE_OFF_84
VEL_3
NOTE_ON_88
TIME_SHIFT_64ND_3
NOTE_OFF_88
VEL_3
NOTE_ON_96
TIME_SHIFT_64ND_3
NOTE_OFF_96
VEL_3
NOTE_ON_100
TIME_SHIFT_64ND_3
NOTE_OFF_100
VEL_4
NOTE_ON_103
VEL_3
NOTE_ON_67
TIME_SHIFT_64ND_3
NOTE_OFF_103
NOTE_OFF_67
VEL_3
NOTE_ON_91
TIME_SHIFT_64ND_3
NOTE_OFF_91
VEL_3
NOTE_ON_95
VEL_2
NOTE_ON_74
VEL_2
NOTE_ON_77
VEL_2
NOTE_ON_83
TIME_SHIFT_64ND_3
NOTE_OFF_95
NOTE_OFF_74
NOTE_OFF_77
NOTE_OFF_83
VEL_3
NOTE_ON_91
TIME_SHIFT_64ND_3
NOTE_OFF_91
VEL_4
NOTE_ON_96
VEL_3
NOTE_ON_72
TIME_SHIFT_64ND_3
NOTE_OFF_96
NOTE_OFF_72
VEL_3
NOTE_ON_88
TIME_SHIFT_64ND_3
NOTE_OFF_88
VEL_3
NOTE_ON_96
VEL_2
NOTE_ON_76
VEL_2
NOTE_ON_79
VEL_2
NOTE_ON_84
TIME_SHIFT_64ND_3
NOTE_OFF_96
NOTE_OFF_76
NOTE_OFF_79
NOTE_OFF_84
VEL_3
NOTE_ON_100
TIME_SHIFT_64ND_3
NOTE_OFF_100
VEL_4
NOTE_ON_103
VEL_3
NOTE_ON_67
TIME_SHIFT_64ND_3
NOTE_OFF_103
NOTE_OFF_67
VEL_3
NOTE_ON_91
TIME_SHIFT_64ND_3
NOTE_OFF_91
VEL_3
NOTE_ON_95
VEL_2
NOTE_ON_74
VEL_2
NOTE_ON_77
VEL_2
NOTE_ON_83
TIME_SHIFT_64ND_3
NOTE_OFF_95
NOTE_OFF_74
NOTE_OFF_77
NOTE_OFF_83
VEL_3
NOTE_ON_91
TIME_SHIFT_64ND_3
NOTE_OFF_91
VEL_3
NOTE_ON_96
VEL_3
NOTE_ON_72
TIME_SHIFT_64ND_3
NOTE_OFF_96
NOTE_OFF_72
VEL_3
NOTE_ON_88
TIME_SHIFT_64ND_3
NOTE_OFF_88
VEL_3
NOTE_ON_96
VEL_2
NOTE_ON_79
VEL_2
NOTE_ON_76
VEL_2
NOTE_ON_84
TIME_SHIFT_64ND_3
NOTE_OFF_96
NOTE_OFF_79
NOTE_OFF_76
NOTE_OFF_84
VEL_3
NOTE_ON_100
TIME_SHIFT_64ND_3
NOTE_OFF_100
VEL_4
NOTE_ON_103
VEL_3
NOTE_ON_67
TIME_SHIFT_64ND_3
NOTE_OFF_103
NOTE_OFF_67
VEL_3
NOTE_ON_91
TIME_SHIFT_64ND_3
NOTE_OFF_91
VEL_3
NOTE_ON_95
VEL_2
NOTE_ON_74
VEL_2
NOTE_ON_77
VEL_2
NOTE_ON_83
TIME_SHIFT_64ND_3
NOTE_OFF_95
NOTE_OFF_74
NOTE_OFF_77
NOTE_OFF_83
VEL_3
NOTE_ON_91
TIME_SHIFT_64ND_3
NOTE_OFF_91
VEL_4
NOTE_ON_96
VEL_3
NOTE_ON_72
TIME_SHIFT_64ND_3
NOTE_OFF_96
NOTE_OFF_72
VEL_3
NOTE_ON_88
TIME_SHIFT_64ND_3
NOTE_OFF_88
VEL_3
NOTE_ON_96
VEL_2
NOTE_ON_76
VEL_2
NOTE_ON_79
VEL_2
NOTE_ON_84
TIME_SHIFT_64ND_3
NOTE_OFF_96
NOTE_OFF_76
NOTE_OFF_79
NOTE_OFF_84
VEL_3
NOTE_ON_100
TIME_SHIFT_64ND_3
NOTE_OFF_100
VEL_4
NOTE_ON_103
VEL_3
NOTE_ON_67
TIME_SHIFT_64ND_3
NOTE_OFF_103
NOTE_OFF_67
VEL_3
NOTE_ON_91
TIME_SHIFT_64ND_3
NOTE_OFF_91
VEL_3
NOTE_ON_95
VEL_2
NOTE_ON_74
VEL_2
NOTE_ON_77
VEL_2
NOTE_ON_83
TIME_SHIFT_64ND_3
NOTE_OFF_95
NOTE_OFF_74
NOTE_OFF_77
NOTE_OFF_83
VEL_3
NOTE_ON_91
TIME_SHIFT_64ND_2
VEL_2
NOTE_ON_72
VEL_2
NOTE_ON_76
VEL_3
NOTE_ON_79
NOTE_OFF_91
VEL_4
NOTE_ON_96
VEL_3
NOTE_ON_84
TIME_SHIFT_64ND_3
NOTE_OFF_96
NOTE_OFF_84
NOTE_OFF_72
NOTE_OFF_76
NOTE_OFF_79
TIME_SHIFT_64ND_8
VEL_2
NOTE_ON_72
VEL_1
NOTE_ON_64
TIME_SHIFT_64ND_3
NOTE_OFF_72
NOTE_OFF_64
VEL_2
NOTE_ON_73
VEL_1
NOTE_ON_65
TIME_SHIFT_64ND_3
NOTE_OFF_73
NOTE_OFF_65
VEL_2
NOTE_ON_74
VEL_1
NOTE_ON_66
TIME_SHIFT_64ND_3
NOTE_OFF_74
NOTE_OFF_66
VEL_3
NOTE_ON_75
VEL_1
NOTE_ON_67
TIME_SHIFT_64ND_3
NOTE_OFF_75
NOTE_OFF_67
VEL_3
NOTE_ON_76
VEL_1
NOTE_ON_68
TIME_SHIFT_64ND_3
NOTE_OFF_76
NOTE_OFF_68
VEL_3
NOTE_ON_77
VEL_2
NOTE_ON_69
TIME_SHIFT_64ND_3
NOTE_OFF_77
NOTE_OFF_69
VEL_3
NOTE_ON_78
VEL_2
NOTE_ON_70
TIME_SHIFT_64ND_3
NOTE_OFF_78
NOTE_OFF_70
VEL_3
NOTE_ON_79
VEL_2
NOTE_ON_71
TIME_SHIFT_64ND_3
NOTE_OFF_79
NOTE_OFF_71
VEL_3
NOTE_ON_80
VEL_2
NOTE_ON_72
TIME_SHIFT_64ND_3
NOTE_OFF_80
NOTE_OFF_72
VEL_3
NOTE_ON_81
VEL_2
NOTE_ON_73
TIME_SHIFT_64ND_3
NOTE_OFF_81
NOTE_OFF_73
VEL_3
NOTE_ON_82
VEL_2
NOTE_ON_74
TIME_SHIFT_64ND_3
NOTE_OFF_82
NOTE_OFF_74
VEL_3
NOTE_ON_83
VEL_2
NOTE_ON_75
TIME_SHIFT_64ND_3
NOTE_OFF_83
NOTE_OFF_75
VEL_3
NOTE_ON_84
VEL_2
NOTE_ON_76
TIME_SHIFT_64ND_3
NOTE_OFF_84
NOTE_OFF_76
VEL_3
NOTE_ON_85
VEL_2
NOTE_ON_77
TIME_SHIFT_64ND_3
NOTE_OFF_85
NOTE_OFF_77
VEL_3
NOTE_ON_86
VEL_2
NOTE_ON_78
TIME_SHIFT_64ND_3
NOTE_OFF_86
NOTE_OFF_78
VEL_3
NOTE_ON_87
VEL_2
NOTE_ON_79
TIME_SHIFT_64ND_3
NOTE_OFF_87
NOTE_OFF_79
VEL_3
NOTE_ON_88
VEL_2
NOTE_ON_80
TIME_SHIFT_64ND_3
NOTE_OFF_88
NOTE_OFF_80
VEL_3
NOTE_ON_89
VEL_2
NOTE_ON_81
TIME_SHIFT_64ND_3
NOTE_OFF_89
NOTE_OFF_81
VEL_3
NOTE_ON_90
VEL_2
NOTE_ON_82
TIME_SHIFT_64ND_3
NOTE_OFF_90
NOTE_OFF_82
VEL_3
NOTE_ON_91
VEL_2
NOTE_ON_83
TIME_SHIFT_64ND_3
NOTE_OFF_91
NOTE_OFF_83
VEL_3
NOTE_ON_92
VEL_3
NOTE_ON_84
TIME_SHIFT_64ND_2
NOTE_OFF_92
NOTE_OFF_84
VEL_3
NOTE_ON_93
VEL_3
NOTE_ON_85
TIME_SHIFT_64ND_2
NOTE_OFF_93
NOTE_OFF_85
VEL_3
NOTE_ON_94
VEL_3
NOTE_ON_86
TIME_SHIFT_64ND_2
NOTE_OFF_94
NOTE_OFF_86
VEL_3
NOTE_ON_95
VEL_3
NOTE_ON_87
TIME_SHIFT_64ND_2
NOTE_OFF_95
NOTE_OFF_87
VEL_4
NOTE_ON_96
VEL_3
NOTE_ON_88
TIME_SHIFT_64ND_3
NOTE_OFF_96
NOTE_OFF_88
VEL_3
NOTE_ON_97
TIME_SHIFT_64ND_3
NOTE_OFF_97
VEL_2
NOTE_ON_100
TIME_SHIFT_64ND_3
NOTE_OFF_100
VEL_2
NOTE_ON_97
TIME_SHIFT_64ND_3
NOTE_OFF_97
VEL_2
NOTE_ON_88
TIME_SHIFT_64ND_3
NOTE_OFF_88
VEL_2
NOTE_ON_81
TIME_SHIFT_64ND_3
NOTE_OFF_81
VEL_2
NOTE_ON_85
TIME_SHIFT_64ND_3
NOTE_OFF_85
VEL_2
NOTE_ON_81
TIME_SHIFT_64ND_3
NOTE_OFF_81
VEL_2
NOTE_ON_85
TIME_SHIFT_64ND_3
NOTE_OFF_85
VEL_2
NOTE_ON_81
VEL_2
NOTE_ON_73
TIME_SHIFT_64ND_3
NOTE_OFF_81
NOTE_OFF_73
VEL_2
NOTE_ON_85
TIME_SHIFT_64ND_3
NOTE_OFF_85
VEL_2
NOTE_ON_81
VEL_2
NOTE_ON_76
TIME_SHIFT_64ND_3
NOTE_OFF_81
NOTE_OFF_76
VEL_2
NOTE_ON_85
TIME_SHIFT_64ND_3
NOTE_OFF_85
VEL_2
NOTE_ON_81
VEL_2
NOTE_ON_64
VEL_2
NOTE_ON_57
VEL_2
NOTE_ON_69
TIME_SHIFT_64ND_3
NOTE_OFF_81
NOTE_OFF_64
NOTE_OFF_57
NOTE_OFF_69
VEL_2
NOTE_ON_85
TIME_SHIFT_64ND_3
NOTE_OFF_85
VEL_2
NOTE_ON_88
TIME_SHIFT_64ND_3
NOTE_OFF_88
VEL_2
NOTE_ON_93
TIME_SHIFT_64ND_3
NOTE_OFF_93
VEL_2
NOTE_ON_97
TIME_SHIFT_64ND_3
NOTE_OFF_97
VEL_3
NOTE_ON_100
TIME_SHIFT_64ND_3
NOTE_OFF_100
VEL_3
NOTE_ON_97
TIME_SHIFT_64ND_3
NOTE_OFF_97
VEL_2
NOTE_ON_88
TIME_SHIFT_64ND_3
NOTE_OFF_88
VEL_2
NOTE_ON_81
TIME_SHIFT_64ND_3
NOTE_OFF_81
VEL_2
NOTE_ON_85
TIME_SHIFT_64ND_3
NOTE_OFF_85
VEL_2
NOTE_ON_81
TIME_SHIFT_64ND_3
NOTE_OFF_81
VEL_2
NOTE_ON_85
TIME_SHIFT_64ND_3
NOTE_OFF_85
VEL_2
NOTE_ON_81
VEL_2
NOTE_ON_73
TIME_SHIFT_64ND_3
NOTE_OFF_81
NOTE_OFF_73
VEL_2
NOTE_ON_85
TIME_SHIFT_64ND_3
NOTE_OFF_85
VEL_2
NOTE_ON_81
VEL_2
NOTE_ON_76
TIME_SHIFT_64ND_3
NOTE_OFF_81
NOTE_OFF_76
VEL_2
NOTE_ON_85
TIME_SHIFT_64ND_3
NOTE_OFF_85
VEL_2
NOTE_ON_81
VEL_2
NOTE_ON_64
VEL_2
NOTE_ON_57
VEL_2
NOTE_ON_69
TIME_SHIFT_64ND_3
NOTE_OFF_81
NOTE_OFF_64
NOTE_OFF_57
NOTE_OFF_69
VEL_2
NOTE_ON_85
TIME_SHIFT_64ND_3
NOTE_OFF_85
VEL_2
NOTE_ON_88
TIME_SHIFT_64ND_3
NOTE_OFF_88
VEL_2
NOTE_ON_93
TIME_SHIFT_64ND_3
NOTE_OFF_93
VEL_3
NOTE_ON_97
VEL_2
NOTE_ON_73
TIME_SHIFT_64ND_3
NOTE_OFF_97
NOTE_OFF_73
VEL_3
NOTE_ON_93
TIME_SHIFT_64ND_3
NOTE_OFF_93
VEL_3
NOTE_ON_92
VEL_2
NOTE_ON_77
VEL_2
NOTE_ON_83
TIME_SHIFT_64ND_3
NOTE_OFF_92
NOTE_OFF_77
NOTE_OFF_83
VEL_2
NOTE_ON_85
TIME_SHIFT_64ND_3
NOTE_OFF_85
VEL_2
NOTE_ON_97
VEL_2
NOTE_ON_78
TIME_SHIFT_64ND_3
NOTE_OFF_97
NOTE_OFF_78
VEL_2
NOTE_ON_92
TIME_SHIFT_64ND_3
NOTE_OFF_92
VEL_2
NOTE_ON_90
VEL_2
NOTE_ON_81
TIME_SHIFT_64ND_3
NOTE_OFF_90
NOTE_OFF_81
VEL_2
NOTE_ON_85
TIME_SHIFT_64ND_3
NOTE_OFF_85
VEL_2
NOTE_ON_97
VEL_2
NOTE_ON_73
TIME_SHIFT_64ND_3
NOTE_OFF_97
NOTE_OFF_73
VEL_2
NOTE_ON_90
TIME_SHIFT_64ND_3
NOTE_OFF_90
VEL_2
NOTE_ON_89
VEL_2
NOTE_ON_80
VEL_2
NOTE_ON_83
TIME_SHIFT_64ND_3
NOTE_OFF_89
NOTE_OFF_80
NOTE_OFF_83
VEL_2
NOTE_ON_85
TIME_SHIFT_64ND_3
NOTE_OFF_85
VEL_2
NOTE_ON_97
VEL_2
NOTE_ON_78
TIME_SHIFT_64ND_3
NOTE_OFF_97
NOTE_OFF_78
VEL_2
NOTE_ON_92
TIME_SHIFT_64ND_3
NOTE_OFF_92
VEL_2
NOTE_ON_90
VEL_2
NOTE_ON_81
TIME_SHIFT_64ND_3
NOTE_OFF_90
NOTE_OFF_81
VEL_2
NOTE_ON_85
TIME_SHIFT_64ND_3
NOTE_OFF_85
VEL_2
NOTE_ON_97
VEL_2
NOTE_ON_73
TIME_SHIFT_64ND_3
NOTE_OFF_97
NOTE_OFF_73
VEL_2
NOTE_ON_90
TIME_SHIFT_64ND_3
NOTE_OFF_90
VEL_2
NOTE_ON_89
VEL_2
NOTE_ON_80
VEL_2
NOTE_ON_83
TIME_SHIFT_64ND_3
NOTE_OFF_89
NOTE_OFF_80
NOTE_OFF_83
VEL_2
NOTE_ON_85
TIME_SHIFT_64ND_3
NOTE_OFF_85
VEL_3
NOTE_ON_97
VEL_2
NOTE_ON_78
VEL_2
NOTE_ON_81
TIME_SHIFT_64ND_3
NOTE_OFF_97
NOTE_OFF_78
NOTE_OFF_81
VEL_3
NOTE_ON_92
TIME_SHIFT_64ND_3
NOTE_OFF_92
VEL_3
NOTE_ON_90
TIME_SHIFT_64ND_3
NOTE_OFF_90
VEL_2
NOTE_ON_85
TIME_SHIFT_64ND_3
NOTE_OFF_85
VEL_2
NOTE_ON_81
TIME_SHIFT_64ND_3
NOTE_OFF_81
VEL_2
NOTE_ON_78
TIME_SHIFT_64ND_3
NOTE_OFF_78
VEL_2
NOTE_ON_73
TIME_SHIFT_64ND_3
NOTE_OFF_73
VEL_2
NOTE_ON_69
TIME_SHIFT_64ND_3
NOTE_OFF_69
VEL_2
NOTE_ON_66
TIME_SHIFT_64ND_3
NOTE_OFF_66
TIME_SHIFT_64ND_8
VEL_2
NOTE_ON_102
VEL_2
NOTE_ON_69
TIME_SHIFT_64ND_3
NOTE_OFF_102
NOTE_OFF_69
VEL_2
NOTE_ON_93
TIME_SHIFT_64ND_3
NOTE_OFF_93
VEL_2
NOTE_ON_88
VEL_2
NOTE_ON_76
VEL_2
NOTE_ON_79
TIME_SHIFT_64ND_3
NOTE_OFF_88
NOTE_OFF_76
NOTE_OFF_79
VEL_2
NOTE_ON_97
TIME_SHIFT_64ND_3
NOTE_OFF_97
VEL_2
NOTE_ON_100
VEL_2
NOTE_ON_74
TIME_SHIFT_64ND_3
NOTE_OFF_100
NOTE_OFF_74
VEL_2
NOTE_ON_93
TIME_SHIFT_64ND_3
NOTE_OFF_93
VEL_2
NOTE_ON_86
VEL_2
NOTE_ON_81
VEL_2
NOTE_ON_78
TIME_SHIFT_64ND_3
NOTE_OFF_86
NOTE_OFF_81
NOTE_OFF_78
VEL_2
NOTE_ON_98
TIME_SHIFT_64ND_3
NOTE_OFF_98
VEL_2
NOTE_ON_93
VEL_2
NOTE_ON_69
TIME_SHIFT_64ND_3
NOTE_OFF_93
NOTE_OFF_69
VEL_2
NOTE_ON_85
TIME_SHIFT_64ND_3
NOTE_OFF_85
VEL_2
NOTE_ON_93
VEL_2
NOTE_ON_76
VEL_2
NOTE_ON_79
TIME_SHIFT_64ND_3
NOTE_OFF_93
NOTE_OFF_76
NOTE_OFF_79
VEL_2
NOTE_ON_97
TIME_SHIFT_64ND_3
NOTE_OFF_97
VEL_2
NOTE_ON_100
VEL_2
NOTE_ON_74
TIME_SHIFT_64ND_3
NOTE_OFF_100
NOTE_OFF_74
VEL_2
NOTE_ON_93
TIME_SHIFT_64ND_3
NOTE_OFF_93
VEL_2
NOTE_ON_86
VEL_2
NOTE_ON_81
VEL_2
NOTE_ON_78
TIME_SHIFT_64ND_3
NOTE_OFF_86
NOTE_OFF_81
NOTE_OFF_78
VEL_2
NOTE_ON_98
TIME_SHIFT_64ND_3
NOTE_OFF_98
VEL_2
NOTE_ON_93
VEL_2
NOTE_ON_69
TIME_SHIFT_64ND_3
NOTE_OFF_93
NOTE_OFF_69
VEL_2
NOTE_ON_85
TIME_SHIFT_64ND_3
NOTE_OFF_85
VEL_2
NOTE_ON_93
VEL_2
NOTE_ON_76
VEL_2
NOTE_ON_79
TIME_SHIFT_64ND_3
NOTE_OFF_93
NOTE_OFF_76
NOTE_OFF_79
VEL_2
NOTE_ON_97
TIME_SHIFT_64ND_3
NOTE_OFF_97
VEL_3
NOTE_ON_100
VEL_2
NOTE_ON_74
VEL_2
NOTE_ON_78
TIME_SHIFT_64ND_3
NOTE_OFF_100
NOTE_OFF_74
NOTE_OFF_78
VEL_3
NOTE_ON_98
TIME_SHIFT_64ND_3
NOTE_OFF_98
VEL_3
NOTE_ON_93
TIME_SHIFT_64ND_3
NOTE_OFF_93
VEL_2
NOTE_ON_86
TIME_SHIFT_64ND_3
NOTE_OFF_86
VEL_2
NOTE_ON_81
TIME_SHIFT_64ND_3
NOTE_OFF_81
VEL_2
NOTE_ON_78
TIME_SHIFT_64ND_3
NOTE_OFF_78
VEL_2
NOTE_ON_74
TIME_SHIFT_64ND_3
NOTE_OFF_74
VEL_2
NOTE_ON_69
TIME_SHIFT_64ND_3
NOTE_OFF_69
VEL_2
NOTE_ON_62
TIME_SHIFT_64ND_3
NOTE_OFF_62
TIME_SHIFT_64ND_8
VEL_3
NOTE_ON_98
TIME_SHIFT_64ND_3
NOTE_OFF_98
VEL_2
NOTE_ON_102
TIME_SHIFT_64ND_3
NOTE_OFF_102
VEL_3
NOTE_ON_98
TIME_SHIFT_64ND_3
NOTE_OFF_98
VEL_2
NOTE_ON_90
TIME_SHIFT_64ND_3
NOTE_OFF_90
VEL_3
NOTE_ON_83
TIME_SHIFT_64ND_3
NOTE_OFF_83
VEL_2
NOTE_ON_86
TIME_SHIFT_64ND_3
NOTE_OFF_86
VEL_2
NOTE_ON_83
TIME_SHIFT_64ND_3
NOTE_OFF_83
VEL_2
NOTE_ON_86
TIME_SHIFT_64ND_3
NOTE_OFF_86
VEL_2
NOTE_ON_83
VEL_2
NOTE_ON_74
TIME_SHIFT_64ND_3
NOTE_OFF_83
NOTE_OFF_74
VEL_2
NOTE_ON_86
TIME_SHIFT_64ND_3
NOTE_OFF_86
VEL_2
NOTE_ON_83
VEL_2
NOTE_ON_78
TIME_SHIFT_64ND_3
NOTE_OFF_83
NOTE_OFF_78
VEL_2
NOTE_ON_86
TIME_SHIFT_64ND_3
NOTE_OFF_86
VEL_2
NOTE_ON_83
VEL_2
NOTE_ON_66
VEL_2
NOTE_ON_59
VEL_2
NOTE_ON_71
TIME_SHIFT_64ND_3
NOTE_OFF_83
NOTE_OFF_66
NOTE_OFF_59
NOTE_OFF_71
VEL_2
NOTE_ON_86
TIME_SHIFT_64ND_3
NOTE_OFF_86
VEL_2
NOTE_ON_90
TIME_SHIFT_64ND_3
NOTE_OFF_90
VEL_2
NOTE_ON_95
TIME_SHIFT_64ND_3
NOTE_OFF_95
VEL_2
NOTE_ON_98
TIME_SHIFT_64ND_3
NOTE_OFF_98
VEL_3
NOTE_ON_102
TIME_SHIFT_64ND_3
NOTE_OFF_102
VEL_3
NOTE_ON_98
TIME_SHIFT_64ND_3
NOTE_OFF_98
VEL_2
NOTE_ON_90
TIME_SHIFT_64ND_3
NOTE_OFF_90
VEL_2
NOTE_ON_83
TIME_SHIFT_64ND_3
NOTE_OFF_83
VEL_2
NOTE_ON_86
TIME_SHIFT_64ND_3
NOTE_OFF_86
VEL_2
NOTE_ON_83
TIME_SHIFT_64ND_3
NOTE_OFF_83
VEL_2
NOTE_ON_86
TIME_SHIFT_64ND_3
NOTE_OFF_86
VEL_2
NOTE_ON_83
VEL_2
NOTE_ON_74
TIME_SHIFT_64ND_3
NOTE_OFF_83
NOTE_OFF_74
VEL_2
NOTE_ON_86
TIME_SHIFT_64ND_3
NOTE_OFF_86
VEL_2
NOTE_ON_83
VEL_2
NOTE_ON_78
TIME_SHIFT_64ND_3
NOTE_OFF_83
NOTE_OFF_78
VEL_2
NOTE_ON_86
TIME_SHIFT_64ND_3
NOTE_OFF_86
VEL_2
NOTE_ON_83
VEL_2
NOTE_ON_66
VEL_2
NOTE_ON_59
VEL_2
NOTE_ON_71
TIME_SHIFT_64ND_3
NOTE_OFF_83
NOTE_OFF_66
NOTE_OFF_59
NOTE_OFF_71
VEL_2
NOTE_ON_86
TIME_SHIFT_64ND_3
NOTE_OFF_86
VEL_2
NOTE_ON_90
TIME_SHIFT_64ND_3
NOTE_OFF_90
VEL_2
NOTE_ON_95
TIME_SHIFT_64ND_3
NOTE_OFF_95
VEL_2
NOTE_ON_98
VEL_3
NOTE_ON_86
VEL_3
NOTE_ON_78
TIME_SHIFT_64ND_3
NOTE_OFF_98
VEL_3
NOTE_ON_90
TIME_SHIFT_64ND_3
NOTE_OFF_90
VEL_3
NOTE_ON_95
TIME_SHIFT_64ND_3
NOTE_OFF_95
VEL_2
NOTE_ON_98
TIME_SHIFT_64ND_3
NOTE_OFF_98
NOTE_OFF_86
NOTE_OFF_78
VEL_2
NOTE_ON_97
VEL_3
NOTE_ON_85
VEL_3
NOTE_ON_76
TIME_SHIFT_64ND_3
NOTE_OFF_97
NOTE_OFF_85
NOTE_OFF_76
VEL_2
NOTE_ON_88
TIME_SHIFT_64ND_3
NOTE_OFF_88
VEL_2
NOTE_ON_95
VEL_2
NOTE_ON_83
VEL_2
NOTE_ON_74
TIME_SHIFT_64ND_3
NOTE_OFF_95
NOTE_OFF_83
NOTE_OFF_74
VEL_2
NOTE_ON_100
TIME_SHIFT_64ND_3
NOTE_OFF_100
VEL_2
NOTE_ON_93
VEL_3
NOTE_ON_81
VEL_3
NOTE_ON_73
TIME_SHIFT_64ND_3
NOTE_OFF_93
VEL_2
NOTE_ON_88
TIME_SHIFT_64ND_3
NOTE_OFF_88
VEL_2
NOTE_ON_97
TIME_SHIFT_64ND_3
NOTE_OFF_97
VEL_2
NOTE_ON_100
TIME_SHIFT_64ND_3
NOTE_OFF_100
NOTE_OFF_81
NOTE_OFF_73
VEL_2
NOTE_ON_95
VEL_3
NOTE_ON_83
VEL_3
NOTE_ON_74
TIME_SHIFT_64ND_3
NOTE_OFF_95
NOTE_OFF_83
NOTE_OFF_74
VEL_2
NOTE_ON_88
TIME_SHIFT_64ND_3
NOTE_OFF_88
VEL_2
NOTE_ON_93
VEL_2
NOTE_ON_81
VEL_2
NOTE_ON_73
TIME_SHIFT_64ND_3
NOTE_OFF_93
NOTE_OFF_81
NOTE_OFF_73
VEL_2
NOTE_ON_100
TIME_SHIFT_64ND_3
NOTE_OFF_100
VEL_2
NOTE_ON_92
VEL_3
NOTE_ON_80
VEL_3
NOTE_ON_71
TIME_SHIFT_64ND_3
NOTE_OFF_92
VEL_2
NOTE_ON_88
TIME_SHIFT_64ND_3
NOTE_OFF_88
VEL_2
NOTE_ON_95
TIME_SHIFT_64ND_3
NOTE_OFF_95
VEL_2
NOTE_ON_100
TIME_SHIFT_64ND_3
NOTE_OFF_100
NOTE_OFF_80
NOTE_OFF_71
VEL_2
NOTE_ON_93
VEL_2
NOTE_ON_73
VEL_2
NOTE_ON_81
VEL_2
NOTE_ON_69
TIME_SHIFT_64ND_3
NOTE_OFF_93
NOTE_OFF_73
NOTE_OFF_81
NOTE_OFF_69
VEL_2
NOTE_ON_88
TIME_SHIFT_64ND_3
NOTE_OFF_88
VEL_2
NOTE_ON_97
TIME_SHIFT_64ND_3
NOTE_OFF_97
VEL_2
NOTE_ON_100
TIME_SHIFT_64ND_3
NOTE_OFF_100
VEL_2
NOTE_ON_92
VEL_2
NOTE_ON_76
VEL_2
NOTE_ON_64
VEL_2
NOTE_ON_68
VEL_2
NOTE_ON_71
TIME_SHIFT_64ND_3
NOTE_OFF_92
NOTE_OFF_76
NOTE_OFF_64
NOTE_OFF_68
NOTE_OFF_71
VEL_2
NOTE_ON_88
TIME_SHIFT_64ND_3
NOTE_OFF_88
VEL_2
NOTE_ON_95
TIME_SHIFT_64ND_3
NOTE_OFF_95
VEL_2
NOTE_ON_100
TIME_SHIFT_64ND_3
NOTE_OFF_100
VEL_2
NOTE_ON_93
VEL_2
NOTE_ON_69
VEL_2
NOTE_ON_57
VEL_2
NOTE_ON_61
VEL_2
NOTE_ON_64
TIME_SHIFT_64ND_3
NOTE_OFF_93
NOTE_OFF_69
NOTE_OFF_57
NOTE_OFF_61
NOTE_OFF_64
TIME_SHIFT_64ND_10
VEL_5
NOTE_ON_57
VEL_6
NOTE_ON_69
VEL_3
NOTE_ON_33
VEL_4
NOTE_ON_45
TIME_SHIFT_64ND_4
NOTE_OFF_57
NOTE_OFF_69
NOTE_OFF_33
NOTE_OFF_45
TIME_SHIFT_64ND_7
VEL_5
NOTE_ON_56
VEL_6
NOTE_ON_68
VEL_3
NOTE_ON_32
VEL_4
NOTE_ON_44
TIME_SHIFT_64ND_4
NOTE_OFF_56
NOTE_OFF_68
NOTE_OFF_32
NOTE_OFF_44
TIME_SHIFT_64ND_7
VEL_5
NOTE_ON_53
VEL_6
NOTE_ON_65
VEL_3
NOTE_ON_29
VEL_4
NOTE_ON_41
TIME_SHIFT_64ND_4
NOTE_OFF_53
NOTE_OFF_65
NOTE_OFF_29
NOTE_OFF_41
TIME_SHIFT_64ND_7
VEL_5
NOTE_ON_52
VEL_6
NOTE_ON_64
VEL_3
NOTE_ON_28
VEL_4
NOTE_ON_40
TIME_SHIFT_64ND_4
NOTE_OFF_52
NOTE_OFF_64
NOTE_OFF_28
NOTE_OFF_40
TIME_SHIFT_64ND_7
VEL_5
NOTE_ON_50
VEL_6
NOTE_ON_62
VEL_3
NOTE_ON_26
VEL_4
NOTE_ON_38
TIME_SHIFT_64ND_4
NOTE_OFF_50
NOTE_OFF_62
NOTE_OFF_26
NOTE_OFF_38
TIME_SHIFT_64ND_7
VEL_6
NOTE_ON_49
VEL_7
NOTE_ON_61
VEL_4
NOTE_ON_25
VEL_4
NOTE_ON_37
TIME_SHIFT_64ND_17
NOTE_OFF_49
NOTE_OFF_61
NOTE_OFF_25
NOTE_OFF_37
VEL_5
NOTE_ON_50
VEL_6
NOTE_ON_62
VEL_3
NOTE_ON_26
VEL_4
NOTE_ON_38
TIME_SHIFT_64ND_6
NOTE_OFF_50
NOTE_OFF_62
NOTE_OFF_26
NOTE_OFF_38
VEL_6
NOTE_ON_52
VEL_7
NOTE_ON_64
VEL_4
NOTE_ON_28
VEL_5
NOTE_ON_40
TIME_SHIFT_64ND_6
NOTE_OFF_52
NOTE_OFF_64
NOTE_OFF_28
NOTE_OFF_40
TIME_SHIFT_64ND_12
VEL_5
NOTE_ON_57
VEL_6
NOTE_ON_69
VEL_3
NOTE_ON_33
VEL_4
NOTE_ON_45
TIME_SHIFT_64ND_3
NOTE_OFF_57
NOTE_OFF_69
NOTE_OFF_33
NOTE_OFF_45
TIME_SHIFT_64ND_3
VEL_6
NOTE_ON_52
VEL_7
NOTE_ON_64
VEL_4
NOTE_ON_28
VEL_5
NOTE_ON_40
TIME_SHIFT_64ND_17
NOTE_OFF_52
NOTE_OFF_64
NOTE_OFF_28
NOTE_OFF_40
VEL_5
NOTE_ON_57
VEL_6
NOTE_ON_69
VEL_3
NOTE_ON_33
VEL_4
NOTE_ON_45
TIME_SHIFT_64ND_3
NOTE_OFF_57
NOTE_OFF_69
NOTE_OFF_33
NOTE_OFF_45
TIME_SHIFT_64ND_3
VEL_5
NOTE_ON_52
VEL_6
NOTE_ON_64
VEL_4
NOTE_ON_28
VEL_4
NOTE_ON_40
TIME_SHIFT_64ND_17
NOTE_OFF_52
NOTE_OFF_64
NOTE_OFF_28
NOTE_OFF_40
VEL_4
NOTE_ON_57
VEL_5
NOTE_ON_69
VEL_2
NOTE_ON_33
VEL_3
NOTE_ON_45
TIME_SHIFT_64ND_3
NOTE_OFF_57
NOTE_OFF_69
NOTE_OFF_33
NOTE_OFF_45
TIME_SHIFT_64ND_3
VEL_4
NOTE_ON_52
VEL_5
NOTE_ON_64
VEL_3
NOTE_ON_28
VEL_3
NOTE_ON_40
TIME_SHIFT_64ND_3
NOTE_OFF_52
NOTE_OFF_64
NOTE_OFF_28
NOTE_OFF_40
TIME_SHIFT_64ND_3
VEL_4
NOTE_ON_49
VEL_4
NOTE_ON_61
VEL_2
NOTE_ON_25
VEL_3
NOTE_ON_37
TIME_SHIFT_64ND_3
NOTE_OFF_49
NOTE_OFF_61
NOTE_OFF_25
NOTE_OFF_37
TIME_SHIFT_64ND_3
VEL_4
NOTE_ON_57
VEL_4
NOTE_ON_45
VEL_2
NOTE_ON_33
VEL_2
NOTE_ON_21
TIME_SHIFT_64ND_3
NOTE_OFF_57
NOTE_OFF_45
NOTE_OFF_33
NOTE_OFF_21
TIME_SHIFT_64ND_3
VEL_4
NOTE_ON_49
VEL_4
NOTE_ON_61
VEL_2
NOTE_ON_25
VEL_3
NOTE_ON_37
TIME_SHIFT_64ND_3
NOTE_OFF_49
NOTE_OFF_61
NOTE_OFF_25
NOTE_OFF_37
TIME_SHIFT_64ND_3
VEL_3
NOTE_ON_52
VEL_4
NOTE_ON_64
VEL_2
NOTE_ON_28
VEL_3
NOTE_ON_40
TIME_SHIFT_64ND_3
NOTE_OFF_52
NOTE_OFF_64
NOTE_OFF_28
NOTE_OFF_40
TIME_SHIFT_64ND_3
VEL_4
NOTE_ON_49
VEL_4
NOTE_ON_61
VEL_2
NOTE_ON_25
VEL_3
NOTE_ON_37
TIME_SHIFT_64ND_3
NOTE_OFF_49
NOTE_OFF_61
NOTE_OFF_25
NOTE_OFF_37
TIME_SHIFT_64ND_3
VEL_4
NOTE_ON_52
VEL_5
NOTE_ON_64
VEL_2
NOTE_ON_28
VEL_3
NOTE_ON_40
TIME_SHIFT_64ND_3
NOTE_OFF_52
NOTE_OFF_64
NOTE_OFF_28
NOTE_OFF_40
TIME_SHIFT_64ND_3
VEL_4
NOTE_ON_57
VEL_5
NOTE_ON_69
VEL_3
NOTE_ON_33
VEL_3
NOTE_ON_45
TIME_SHIFT_64ND_3
NOTE_OFF_57
NOTE_OFF_69
NOTE_OFF_33
NOTE_OFF_45
TIME_SHIFT_64ND_3
VEL_4
NOTE_ON_52
VEL_5
NOTE_ON_64
VEL_3
NOTE_ON_28
VEL_3
NOTE_ON_40
TIME_SHIFT_64ND_24
NOTE_OFF_52
NOTE_OFF_64
NOTE_OFF_28
NOTE_OFF_40
VEL_4
NOTE_ON_57
VEL_5
NOTE_ON_69
VEL_3
NOTE_ON_33
VEL_3
NOTE_ON_45
TIME_SHIFT_64ND_3
NOTE_OFF_57
NOTE_OFF_69
NOTE_OFF_33
NOTE_OFF_45
TIME_SHIFT_64ND_8
VEL_2
NOTE_ON_41
TIME_SHIFT_64ND_1
VEL_3
NOTE_ON_48
TIME_SHIFT_64ND_1
VEL_4
NOTE_ON_72
VEL_3
NOTE_ON_69
VEL_4
NOTE_ON_81
VEL_3
NOTE_ON_57
TIME_SHIFT_64ND_6
NOTE_OFF_72
NOTE_OFF_69
NOTE_OFF_81
NOTE_OFF_57
NOTE_OFF_48
NOTE_OFF_41
TIME_SHIFT_64ND_5
VEL_2
NOTE_ON_40
TIME_SHIFT_64ND_1
VEL_3
NOTE_ON_48
TIME_SHIFT_64ND_1
VEL_4
NOTE_ON_79
VEL_3
NOTE_ON_72
VEL_3
NOTE_ON_67
VEL_3
NOTE_ON_55
TIME_SHIFT_64ND_6
NOTE_OFF_79
NOTE_OFF_55
NOTE_OFF_48
NOTE_OFF_40
VEL_4
NOTE_ON_76
TIME_SHIFT_64ND_5
VEL_2
NOTE_ON_41
TIME_SHIFT_64ND_1
VEL_3
NOTE_ON_48
TIME_SHIFT_64ND_1
NOTE_OFF_76
NOTE_OFF_72
NOTE_OFF_67
VEL_4
NOTE_ON_77
VEL_3
NOTE_ON_69
VEL_3
NOTE_ON_65
VEL_3
NOTE_ON_57
TIME_SHIFT_64ND_6
NOTE_OFF_77
NOTE_OFF_57
NOTE_OFF_48
NOTE_OFF_41
VEL_4
NOTE_ON_74
TIME_SHIFT_64ND_5
VEL_3
NOTE_ON_43
TIME_SHIFT_64ND_1
VEL_3
NOTE_ON_52
TIME_SHIFT_64ND_1
NOTE_OFF_74
NOTE_OFF_69
NOTE_OFF_65
VEL_4
NOTE_ON_76
VEL_3
NOTE_ON_67
VEL_3
NOTE_ON_64
VEL_3
NOTE_ON_60
TIME_SHIFT_64ND_6
NOTE_OFF_76
NOTE_OFF_60
NOTE_OFF_52
NOTE_OFF_43
VEL_3
NOTE_ON_72
TIME_SHIFT_64ND_5
VEL_2
NOTE_ON_43
TIME_SHIFT_64ND_1
VEL_2
NOTE_ON_53
TIME_SHIFT_64ND_1
NOTE_OFF_72
NOTE_OFF_67
NOTE_OFF_64
VEL_4
NOTE_ON_74
VEL_3
NOTE_ON_65
VEL_3
NOTE_ON_62
VEL_3
NOTE_ON_59
TIME_SHIFT_64ND_6
NOTE_OFF_74
NOTE_OFF_59
NOTE_OFF_53
NOTE_OFF_43
VEL_3
NOTE_ON_71
TIME_SHIFT_64ND_5
VEL_2
NOTE_ON_48
TIME_SHIFT_64ND_1
VEL_0
NOTE_ON_55
TIME_SHIFT_64ND_1
NOTE_OFF_71
NOTE_OFF_65
NOTE_OFF_62
VEL_3
NOTE_ON_72
VEL_2
NOTE_ON_64
VEL_3
NOTE_ON_60
TIME_SHIFT_64ND_3
NOTE_OFF_72
VEL_3
NOTE_ON_74
TIME_SHIFT_64ND_3
NOTE_OFF_74
NOTE_OFF_64
NOTE_OFF_60
NOTE_OFF_55
NOTE_OFF_48
VEL_3
NOTE_ON_72
TIME_SHIFT_64ND_3
NOTE_OFF_72
VEL_3
NOTE_ON_71
TIME_SHIFT_64ND_3
NOTE_OFF_71
VEL_3
NOTE_ON_72
VEL_2
NOTE_ON_64
TIME_SHIFT_64ND_3
NOTE_OFF_72
NOTE_OFF_64
VEL_3
NOTE_ON_76
VEL_2
NOTE_ON_67
TIME_SHIFT_64ND_3
NOTE_OFF_76
NOTE_OFF_67
VEL_3
NOTE_ON_79
VEL_2
NOTE_ON_72
TIME_SHIFT_64ND_3
NOTE_OFF_79
NOTE_OFF_72
VEL_3
NOTE_ON_83
VEL_3
NOTE_ON_74
TIME_SHIFT_64ND_2
NOTE_OFF_83
VEL_3
NOTE_ON_86
TIME_SHIFT_64ND_1
NOTE_OFF_86
NOTE_OFF_74
VEL_3
NOTE_ON_84
VEL_3
NOTE_ON_76
TIME_SHIFT_64ND_3
NOTE_OFF_84
NOTE_OFF_76
VEL_3
NOTE_ON_83
TIME_SHIFT_64ND_3
NOTE_OFF_83
VEL_3
NOTE_ON_84
TIME_SHIFT_64ND_3
NOTE_OFF_84
VEL_3
NOTE_ON_86
TIME_SHIFT_64ND_1
VEL_2
NOTE_ON_55
TIME_SHIFT_64ND_1
VEL_3
NOTE_ON_65
TIME_SHIFT_64ND_1
NOTE_OFF_86
VEL_3
NOTE_ON_88
VEL_2
NOTE_ON_77
VEL_3
NOTE_ON_71
TIME_SHIFT_64ND_3
NOTE_OFF_88
TIME_SHIFT_64ND_3
NOTE_OFF_77
NOTE_OFF_71
NOTE_OFF_65
NOTE_OFF_55
TIME_SHIFT_64ND_3
VEL_3
NOTE_ON_86
TIME_SHIFT_64ND_3
NOTE_OFF_86
VEL_3
NOTE_ON_84
VEL_2
NOTE_ON_76
VEL_3
NOTE_ON_72
VEL_0
NOTE_ON_67
VEL_2
NOTE_ON_60
TIME_SHIFT_64ND_3
NOTE_OFF_84
VEL_3
NOTE_ON_86
TIME_SHIFT_64ND_3
NOTE_OFF_86
NOTE_OFF_76
NOTE_OFF_72
NOTE_OFF_67
NOTE_OFF_60
VEL_3
NOTE_ON_84
TIME_SHIFT_64ND_3
NOTE_OFF_84
VEL_3
NOTE_ON_83
TIME_SHIFT_64ND_3
NOTE_OFF_83
VEL_3
NOTE_ON_84
VEL_2
NOTE_ON_76
TIME_SHIFT_64ND_3
NOTE_OFF_84
NOTE_OFF_76
VEL_3
NOTE_ON_88
VEL_2
NOTE_ON_79
TIME_SHIFT_64ND_3
NOTE_OFF_88
NOTE_OFF_79
VEL_3
NOTE_ON_91
VEL_2
NOTE_ON_84
TIME_SHIFT_64ND_3
NOTE_OFF_91
NOTE_OFF_84
VEL_3
NOTE_ON_95
VEL_3
NOTE_ON_86
TIME_SHIFT_64ND_2
NOTE_OFF_95
VEL_3
NOTE_ON_98
TIME_SHIFT_64ND_1
NOTE_OFF_98
NOTE_OFF_86
VEL_3
NOTE_ON_96
VEL_3
NOTE_ON_88
TIME_SHIFT_64ND_3
NOTE_OFF_96
NOTE_OFF_88
VEL_3
NOTE_ON_95
TIME_SHIFT_64ND_3
NOTE_OFF_95
VEL_3
NOTE_ON_96
TIME_SHIFT_64ND_3
NOTE_OFF_96
VEL_3
NOTE_ON_98
TIME_SHIFT_64ND_1
VEL_2
NOTE_ON_67
TIME_SHIFT_64ND_1
VEL_3
NOTE_ON_77
TIME_SHIFT_64ND_1
NOTE_OFF_98
VEL_3
NOTE_ON_100
VEL_2
NOTE_ON_89
VEL_3
NOTE_ON_83
TIME_SHIFT_64ND_3
NOTE_OFF_100
TIME_SHIFT_64ND_3
NOTE_OFF_89
NOTE_OFF_83
NOTE_OFF_77
NOTE_OFF_67
TIME_SHIFT_64ND_3
VEL_3
NOTE_ON_98
TIME_SHIFT_64ND_3
NOTE_OFF_98
VEL_3
NOTE_ON_96
VEL_2
NOTE_ON_76
VEL_2
NOTE_ON_72
VEL_3
NOTE_ON_84
TIME_SHIFT_64ND_3
NOTE_OFF_96
NOTE_OFF_76
NOTE_OFF_72
NOTE_OFF_84
VEL_3
NOTE_ON_88
TIME_SHIFT_64ND_3
NOTE_OFF_88
VEL_3
NOTE_ON_96
TIME_SHIFT_64ND_3
NOTE_OFF_96
VEL_3
NOTE_ON_100
TIME_SHIFT_64ND_3
NOTE_OFF_100
VEL_4
NOTE_ON_103
VEL_3
NOTE_ON_67
TIME_SHIFT_64ND_3
NOTE_OFF_103
NOTE_OFF_67
VEL_3
NOTE_ON_91
TIME_SHIFT_64ND_3
NOTE_OFF_91
VEL_3
NOTE_ON_95
VEL_2
NOTE_ON_74
VEL_2
NOTE_ON_77
VEL_2
NOTE_ON_83
TIME_SHIFT_64ND_3
NOTE_OFF_95
NOTE_OFF_74
NOTE_OFF_77
NOTE_OFF_83
VEL_3
NOTE_ON_91
TIME_SHIFT_64ND_3
NOTE_OFF_91
VEL_4
NOTE_ON_96
VEL_3
NOTE_ON_72
TIME_SHIFT_64ND_3
NOTE_OFF_96
NOTE_OFF_72
VEL_3
NOTE_ON_88
TIME_SHIFT_64ND_3
NOTE_OFF_88
VEL_3
NOTE_ON_96
VEL_2
NOTE_ON_76
VEL_2
NOTE_ON_79
VEL_2
NOTE_ON_84
TIME_SHIFT_64ND_3
NOTE_OFF_96
NOTE_OFF_76
NOTE_OFF_79
NOTE_OFF_84
VEL_3
NOTE_ON_100
TIME_SHIFT_64ND_3
NOTE_OFF_100
VEL_4
NOTE_ON_103
VEL_3
NOTE_ON_67
TIME_SHIFT_64ND_3
NOTE_OFF_103
NOTE_OFF_67
VEL_3
NOTE_ON_91
TIME_SHIFT_64ND_3
NOTE_OFF_91
VEL_3
NOTE_ON_95
VEL_2
NOTE_ON_74
VEL_2
NOTE_ON_77
VEL_2
NOTE_ON_83
TIME_SHIFT_64ND_3
NOTE_OFF_95
NOTE_OFF_74
NOTE_OFF_77
NOTE_OFF_83
VEL_3
NOTE_ON_91
TIME_SHIFT_64ND_3
NOTE_OFF_91
VEL_3
NOTE_ON_96
VEL_3
NOTE_ON_72
TIME_SHIFT_64ND_3
NOTE_OFF_96
NOTE_OFF_72
VEL_3
NOTE_ON_88
TIME_SHIFT_64ND_3
NOTE_OFF_88
VEL_3
NOTE_ON_96
VEL_2
NOTE_ON_76
VEL_2
NOTE_ON_79
VEL_2
NOTE_ON_84
TIME_SHIFT_64ND_3
NOTE_OFF_96
NOTE_OFF_76
NOTE_OFF_79
NOTE_OFF_84
VEL_3
NOTE_ON_100
TIME_SHIFT_64ND_3
NOTE_OFF_100
VEL_4
NOTE_ON_103
VEL_3
NOTE_ON_67
TIME_SHIFT_64ND_3
NOTE_OFF_103
NOTE_OFF_67
VEL_3
NOTE_ON_91
TIME_SHIFT_64ND_3
NOTE_OFF_91
VEL_3
NOTE_ON_95
VEL_2
NOTE_ON_74
VEL_2
NOTE_ON_77
VEL_2
NOTE_ON_83
TIME_SHIFT_64ND_3
NOTE_OFF_95
NOTE_OFF_74
NOTE_OFF_77
NOTE_OFF_83
VEL_3
NOTE_ON_91
TIME_SHIFT_64ND_3
NOTE_OFF_91
VEL_4
NOTE_ON_96
VEL_3
NOTE_ON_72
TIME_SHIFT_64ND_3
NOTE_OFF_96
NOTE_OFF_72
VEL_3
NOTE_ON_88
TIME_SHIFT_64ND_3
NOTE_OFF_88
VEL_3
NOTE_ON_96
VEL_2
NOTE_ON_76
VEL_2
NOTE_ON_79
VEL_2
NOTE_ON_84
TIME_SHIFT_64ND_3
NOTE_OFF_96
NOTE_OFF_76
NOTE_OFF_79
NOTE_OFF_84
VEL_3
NOTE_ON_100
TIME_SHIFT_64ND_3
NOTE_OFF_100
VEL_4
NOTE_ON_103
VEL_3
NOTE_ON_67
TIME_SHIFT_64ND_3
NOTE_OFF_103
NOTE_OFF_67
VEL_3
NOTE_ON_91
TIME_SHIFT_64ND_3
NOTE_OFF_91
VEL_3
NOTE_ON_95
VEL_2
NOTE_ON_74
VEL_2
NOTE_ON_77
VEL_2
NOTE_ON_83
TIME_SHIFT_64ND_3
NOTE_OFF_95
NOTE_OFF_74
NOTE_OFF_77
NOTE_OFF_83
VEL_3
NOTE_ON_91
TIME_SHIFT_64ND_2
VEL_2
NOTE_ON_72
VEL_2
NOTE_ON_76
VEL_3
NOTE_ON_79
NOTE_OFF_91
VEL_4
NOTE_ON_96
VEL_3
NOTE_ON_84
TIME_SHIFT_64ND_3
NOTE_OFF_96
NOTE_OFF_84
NOTE_OFF_72
NOTE_OFF_76
NOTE_OFF_79
TIME_SHIFT_64ND_8
VEL_2
NOTE_ON_72
VEL_1
NOTE_ON_64
TIME_SHIFT_64ND_3
NOTE_OFF_72
NOTE_OFF_64
VEL_2
NOTE_ON_73
VEL_1
NOTE_ON_65
TIME_SHIFT_64ND_3
NOTE_OFF_73
NOTE_OFF_65
VEL_2
NOTE_ON_74
VEL_1
NOTE_ON_66
TIME_SHIFT_64ND_3
NOTE_OFF_74
NOTE_OFF_66
VEL_3
NOTE_ON_75
VEL_1
NOTE_ON_67
TIME_SHIFT_64ND_3
NOTE_OFF_75
NOTE_OFF_67
VEL_3
NOTE_ON_76
VEL_1
NOTE_ON_68
TIME_SHIFT_64ND_3
NOTE_OFF_76
NOTE_OFF_68
VEL_3
NOTE_ON_77
VEL_2
NOTE_ON_69
TIME_SHIFT_64ND_3
NOTE_OFF_77
NOTE_OFF_69
VEL_3
NOTE_ON_78
VEL_2
NOTE_ON_70
TIME_SHIFT_64ND_3
NOTE_OFF_78
NOTE_OFF_70
VEL_3
NOTE_ON_79
VEL_2
NOTE_ON_71
TIME_SHIFT_64ND_3
NOTE_OFF_79
NOTE_OFF_71
VEL_3
NOTE_ON_80
VEL_2
NOTE_ON_72
TIME_SHIFT_64ND_3
NOTE_OFF_80
NOTE_OFF_72
VEL_3
NOTE_ON_81
VEL_2
NOTE_ON_73
TIME_SHIFT_64ND_3
NOTE_OFF_81
NOTE_OFF_73
VEL_3
NOTE_ON_82
VEL_2
NOTE_ON_74
TIME_SHIFT_64ND_3
NOTE_OFF_82
NOTE_OFF_74
VEL_3
NOTE_ON_83
VEL_2
NOTE_ON_75
TIME_SHIFT_64ND_3
NOTE_OFF_83
NOTE_OFF_75
VEL_3
NOTE_ON_84
VEL_2
NOTE_ON_76
TIME_SHIFT_64ND_3
NOTE_OFF_84
NOTE_OFF_76
VEL_3
NOTE_ON_85
VEL_2
NOTE_ON_77
TIME_SHIFT_64ND_3
NOTE_OFF_85
NOTE_OFF_77
VEL_3
NOTE_ON_86
VEL_2
NOTE_ON_78
TIME_SHIFT_64ND_3
NOTE_OFF_86
NOTE_OFF_78
VEL_3
NOTE_ON_87
VEL_2
NOTE_ON_79
TIME_SHIFT_64ND_3
NOTE_OFF_87
NOTE_OFF_79
VEL_3
NOTE_ON_88
VEL_2
NOTE_ON_80
TIME_SHIFT_64ND_3
NOTE_OFF_88
NOTE_OFF_80
VEL_3
NOTE_ON_89
VEL_2
NOTE_ON_81
TIME_SHIFT_64ND_3
NOTE_OFF_89
NOTE_OFF_81
VEL_3
NOTE_ON_90
VEL_2
NOTE_ON_82
TIME_SHIFT_64ND_3
NOTE_OFF_90
NOTE_OFF_82
VEL_3
NOTE_ON_91
VEL_2
NOTE_ON_83
TIME_SHIFT_64ND_3
NOTE_OFF_91
NOTE_OFF_83
VEL_3
NOTE_ON_92
VEL_3
NOTE_ON_84
TIME_SHIFT_64ND_2
NOTE_OFF_92
NOTE_OFF_84
VEL_3
NOTE_ON_93
VEL_3
NOTE_ON_85
TIME_SHIFT_64ND_2
NOTE_OFF_93
NOTE_OFF_85
VEL_3
NOTE_ON_94
VEL_3
NOTE_ON_86
TIME_SHIFT_64ND_2
NOTE_OFF_94
NOTE_OFF_86
VEL_3
NOTE_ON_95
VEL_3
NOTE_ON_87
TIME_SHIFT_64ND_2
NOTE_OFF_95
NOTE_OFF_87
VEL_4
NOTE_ON_96
VEL_3
NOTE_ON_88
TIME_SHIFT_64ND_3
NOTE_OFF_96
NOTE_OFF_88
VEL_3
NOTE_ON_97
TIME_SHIFT_64ND_3
NOTE_OFF_97
VEL_2
NOTE_ON_100
TIME_SHIFT_64ND_3
NOTE_OFF_100
VEL_2
NOTE_ON_97
TIME_SHIFT_64ND_3
NOTE_OFF_97
VEL_2
NOTE_ON_88
TIME_SHIFT_64ND_3
NOTE_OFF_88
VEL_2
NOTE_ON_81
TIME_SHIFT_64ND_3
NOTE_OFF_81
VEL_2
NOTE_ON_85
TIME_SHIFT_64ND_3
NOTE_OFF_85
VEL_2
NOTE_ON_81
TIME_SHIFT_64ND_3
NOTE_OFF_81
VEL_2
NOTE_ON_85
TIME_SHIFT_64ND_3
NOTE_OFF_85
VEL_2
NOTE_ON_81
VEL_2
NOTE_ON_73
TIME_SHIFT_64ND_3
NOTE_OFF_81
NOTE_OFF_73
VEL_2
NOTE_ON_85
TIME_SHIFT_64ND_3
NOTE_OFF_85
VEL_2
NOTE_ON_81
VEL_2
NOTE_ON_76
TIME_SHIFT_64ND_3
NOTE_OFF_81
NOTE_OFF_76
VEL_2
NOTE_ON_85
TIME_SHIFT_64ND_3
NOTE_OFF_85
VEL_2
NOTE_ON_81
VEL_2
NOTE_ON_64
VEL_2
NOTE_ON_57
VEL_2
NOTE_ON_69
TIME_SHIFT_64ND_3
NOTE_OFF_81
NOTE_OFF_64
NOTE_OFF_57
NOTE_OFF_69
VEL_2
NOTE_ON_85
TIME_SHIFT_64ND_3
NOTE_OFF_85
VEL_2
NOTE_ON_88
TIME_SHIFT_64ND_3
NOTE_OFF_88
VEL_2
NOTE_ON_93
TIME_SHIFT_64ND_3
NOTE_OFF_93
VEL_2
NOTE_ON_97
TIME_SHIFT_64ND_3
NOTE_OFF_97
VEL_3
NOTE_ON_100
TIME_SHIFT_64ND_3
NOTE_OFF_100
VEL_3
NOTE_ON_97
TIME_SHIFT_64ND_3
NOTE_OFF_97
VEL_2
NOTE_ON_88
TIME_SHIFT_64ND_3
NOTE_OFF_88
VEL_2
NOTE_ON_81
TIME_SHIFT_64ND_3
NOTE_OFF_81
VEL_2
NOTE_ON_85
TIME_SHIFT_64ND_3
NOTE_OFF_85
VEL_2
NOTE_ON_81
TIME_SHIFT_64ND_3
NOTE_OFF_81
VEL_2
NOTE_ON_85
TIME_SHIFT_64ND_3
NOTE_OFF_85
VEL_2
NOTE_ON_81
VEL_2
NOTE_ON_73
TIME_SHIFT_64ND_3
NOTE_OFF_81
NOTE_OFF_73
VEL_2
NOTE_ON_85
TIME_SHIFT_64ND_3
NOTE_OFF_85
VEL_2
NOTE_ON_81
VEL_2
NOTE_ON_76
TIME_SHIFT_64ND_3
NOTE_OFF_81
NOTE_OFF_76
VEL_2
NOTE_ON_85
TIME_SHIFT_64ND_3
NOTE_OFF_85
VEL_2
NOTE_ON_81
VEL_2
NOTE_ON_64
VEL_2
NOTE_ON_57
VEL_2
NOTE_ON_69
TIME_SHIFT_64ND_3
NOTE_OFF_81
NOTE_OFF_64
NOTE_OFF_57
NOTE_OFF_69
VEL_2
NOTE_ON_85
TIME_SHIFT_64ND_3
NOTE_OFF_85
VEL_2
NOTE_ON_88
TIME_SHIFT_64ND_3
NOTE_OFF_88
VEL_2
NOTE_ON_93
TIME_SHIFT_64ND_3
NOTE_OFF_93
VEL_3
NOTE_ON_97
VEL_2
NOTE_ON_93
VEL_2
NOTE_ON_73
TIME_SHIFT_64ND_3
NOTE_OFF_97
NOTE_OFF_93
NOTE_OFF_73
VEL_3
NOTE_ON_98
TIME_SHIFT_64ND_3
NOTE_OFF_98
VEL_3
NOTE_ON_97
VEL_2
NOTE_ON_92
VEL_2
NOTE_ON_77
VEL_2
NOTE_ON_83
TIME_SHIFT_64ND_3
NOTE_OFF_97
NOTE_OFF_92
NOTE_OFF_77
NOTE_OFF_83
VEL_2
NOTE_ON_98
TIME_SHIFT_64ND_3
NOTE_OFF_98
VEL_2
NOTE_ON_97
VEL_2
NOTE_ON_92
VEL_2
NOTE_ON_78
TIME_SHIFT_64ND_3
NOTE_OFF_97
NOTE_OFF_92
NOTE_OFF_78
VEL_2
NOTE_ON_98
TIME_SHIFT_64ND_3
NOTE_OFF_98
VEL_2
NOTE_ON_97
VEL_2
NOTE_ON_90
VEL_2
NOTE_ON_81
TIME_SHIFT_64ND_3
NOTE_OFF_97
NOTE_OFF_90
NOTE_OFF_81
VEL_2
NOTE_ON_98
TIME_SHIFT_64ND_3
NOTE_OFF_98
VEL_2
NOTE_ON_97
VEL_2
NOTE_ON_90
VEL_2
NOTE_ON_73
TIME_SHIFT_64ND_3
NOTE_OFF_97
NOTE_OFF_90
NOTE_OFF_73
VEL_2
NOTE_ON_98
TIME_SHIFT_64ND_3
NOTE_OFF_98
VEL_2
NOTE_ON_97
VEL_2
NOTE_ON_89
VEL_2
NOTE_ON_80
VEL_2
NOTE_ON_83
TIME_SHIFT_64ND_3
NOTE_OFF_97
NOTE_OFF_89
NOTE_OFF_80
NOTE_OFF_83
VEL_2
NOTE_ON_98
TIME_SHIFT_64ND_3
NOTE_OFF_98
VEL_2
NOTE_ON_97
VEL_2
NOTE_ON_92
VEL_2
NOTE_ON_78
TIME_SHIFT_64ND_3
NOTE_OFF_97
NOTE_OFF_92
NOTE_OFF_78
VEL_2
NOTE_ON_98
TIME_SHIFT_64ND_3
NOTE_OFF_98
VEL_2
NOTE_ON_97
VEL_2
NOTE_ON_90
VEL_2
NOTE_ON_81
TIME_SHIFT_64ND_3
NOTE_OFF_97
NOTE_OFF_90
NOTE_OFF_81
VEL_2
NOTE_ON_98
TIME_SHIFT_64ND_3
NOTE_OFF_98
VEL_2
NOTE_ON_97
VEL_2
NOTE_ON_90
VEL_2
NOTE_ON_73
TIME_SHIFT_64ND_3
NOTE_OFF_97
NOTE_OFF_90
NOTE_OFF_73
VEL_2
NOTE_ON_98
TIME_SHIFT_64ND_3
NOTE_OFF_98
VEL_2
NOTE_ON_97
VEL_2
NOTE_ON_89
VEL_2
NOTE_ON_80
VEL_2
NOTE_ON_83
TIME_SHIFT_64ND_3
NOTE_OFF_97
NOTE_OFF_89
NOTE_OFF_80
NOTE_OFF_83
VEL_2
NOTE_ON_98
TIME_SHIFT_64ND_3
NOTE_OFF_98
VEL_3
NOTE_ON_97
VEL_2
NOTE_ON_78
VEL_2
NOTE_ON_81
TIME_SHIFT_64ND_3
NOTE_OFF_97
NOTE_OFF_78
NOTE_OFF_81
VEL_3
NOTE_ON_92
TIME_SHIFT_64ND_3
NOTE_OFF_92
VEL_3
NOTE_ON_90
TIME_SHIFT_64ND_3
NOTE_OFF_90
VEL_2
NOTE_ON_85
TIME_SHIFT_64ND_3
NOTE_OFF_85
VEL_2
NOTE_ON_81
TIME_SHIFT_64ND_3
NOTE_OFF_81
VEL_2
NOTE_ON_78
TIME_SHIFT_64ND_3
NOTE_OFF_78
VEL_2
NOTE_ON_73
TIME_SHIFT_64ND_3
NOTE_OFF_73
VEL_2
NOTE_ON_69
TIME_SHIFT_64ND_3
NOTE_OFF_69
VEL_2
NOTE_ON_66
TIME_SHIFT_64ND_3
NOTE_OFF_66
TIME_SHIFT_64ND_8
VEL_2
NOTE_ON_102
VEL_2
NOTE_ON_69
TIME_SHIFT_64ND_3
NOTE_OFF_102
NOTE_OFF_69
VEL_2
NOTE_ON_93
TIME_SHIFT_64ND_3
NOTE_OFF_93
VEL_2
NOTE_ON_100
VEL_2
NOTE_ON_73
VEL_2
NOTE_ON_79
TIME_SHIFT_64ND_3
NOTE_OFF_100
NOTE_OFF_73
NOTE_OFF_79
VEL_2
NOTE_ON_93
TIME_SHIFT_64ND_3
NOTE_OFF_93
VEL_2
NOTE_ON_100
VEL_2
NOTE_ON_74
TIME_SHIFT_64ND_3
NOTE_OFF_100
NOTE_OFF_74
VEL_2
NOTE_ON_93
TIME_SHIFT_64ND_3
NOTE_OFF_93
VEL_2
NOTE_ON_98
VEL_2
NOTE_ON_81
VEL_2
NOTE_ON_78
TIME_SHIFT_64ND_3
NOTE_OFF_98
NOTE_OFF_81
NOTE_OFF_78
VEL_2
NOTE_ON_93
TIME_SHIFT_64ND_3
NOTE_OFF_93
VEL_2
NOTE_ON_98
VEL_2
NOTE_ON_69
TIME_SHIFT_64ND_3
NOTE_OFF_98
NOTE_OFF_69
VEL_2
NOTE_ON_93
TIME_SHIFT_64ND_3
NOTE_OFF_93
VEL_2
NOTE_ON_97
VEL_2
NOTE_ON_76
VEL_2
NOTE_ON_79
TIME_SHIFT_64ND_3
NOTE_OFF_97
NOTE_OFF_76
NOTE_OFF_79
VEL_2
NOTE_ON_93
TIME_SHIFT_64ND_3
NOTE_OFF_93
VEL_2
NOTE_ON_100
VEL_2
NOTE_ON_74
TIME_SHIFT_64ND_3
NOTE_OFF_100
NOTE_OFF_74
VEL_2
NOTE_ON_93
TIME_SHIFT_64ND_3
NOTE_OFF_93
VEL_2
NOTE_ON_98
VEL_2
NOTE_ON_81
VEL_2
NOTE_ON_78
TIME_SHIFT_64ND_3
NOTE_OFF_98
NOTE_OFF_81
NOTE_OFF_78
VEL_2
NOTE_ON_93
TIME_SHIFT_64ND_3
NOTE_OFF_93
VEL_2
NOTE_ON_98
VEL_2
NOTE_ON_69
TIME_SHIFT_64ND_3
NOTE_OFF_98
NOTE_OFF_69
VEL_2
NOTE_ON_93
TIME_SHIFT_64ND_3
NOTE_OFF_93
VEL_2
NOTE_ON_97
VEL_2
NOTE_ON_76
VEL_2
NOTE_ON_79
TIME_SHIFT_64ND_3
NOTE_OFF_97
NOTE_OFF_76
NOTE_OFF_79
VEL_2
NOTE_ON_93
TIME_SHIFT_64ND_3
NOTE_OFF_93
VEL_3
NOTE_ON_100
VEL_2
NOTE_ON_74
VEL_2
NOTE_ON_78
TIME_SHIFT_64ND_3
NOTE_OFF_100
NOTE_OFF_74
NOTE_OFF_78
VEL_3
NOTE_ON_98
TIME_SHIFT_64ND_3
NOTE_OFF_98
VEL_3
NOTE_ON_93
TIME_SHIFT_64ND_3
NOTE_OFF_93
VEL_2
NOTE_ON_86
TIME_SHIFT_64ND_3
NOTE_OFF_86
VEL_2
NOTE_ON_81
TIME_SHIFT_64ND_3
NOTE_OFF_81
VEL_2
NOTE_ON_78
TIME_SHIFT_64ND_3
NOTE_OFF_78
VEL_2
NOTE_ON_74
TIME_SHIFT_64ND_3
NOTE_OFF_74
VEL_2
NOTE_ON_69
TIME_SHIFT_64ND_3
NOTE_OFF_69
VEL_2
NOTE_ON_62
TIME_SHIFT_64ND_3
NOTE_OFF_62
TIME_SHIFT_64ND_8
VEL_3
NOTE_ON_98
TIME_SHIFT_64ND_3
NOTE_OFF_98
VEL_2
NOTE_ON_102
TIME_SHIFT_64ND_3
NOTE_OFF_102
VEL_3
NOTE_ON_98
TIME_SHIFT_64ND_3
NOTE_OFF_98
VEL_2
NOTE_ON_90
TIME_SHIFT_64ND_3
NOTE_OFF_90
VEL_3
NOTE_ON_83
TIME_SHIFT_64ND_3
NOTE_OFF_83
VEL_2
NOTE_ON_86
TIME_SHIFT_64ND_3
NOTE_OFF_86
VEL_2
NOTE_ON_83
TIME_SHIFT_64ND_3
NOTE_OFF_83
VEL_2
NOTE_ON_86
TIME_SHIFT_64ND_3
NOTE_OFF_86
VEL_2
NOTE_ON_83
VEL_2
NOTE_ON_74
TIME_SHIFT_64ND_3
NOTE_OFF_83
NOTE_OFF_74
VEL_2
NOTE_ON_86
TIME_SHIFT_64ND_3
NOTE_OFF_86
VEL_2
NOTE_ON_83
VEL_2
NOTE_ON_78
TIME_SHIFT_64ND_3
NOTE_OFF_83
NOTE_OFF_78
VEL_2
NOTE_ON_86
TIME_SHIFT_64ND_3
NOTE_OFF_86
VEL_2
NOTE_ON_83
VEL_2
NOTE_ON_66
VEL_2
NOTE_ON_62
VEL_2
NOTE_ON_71
TIME_SHIFT_64ND_3
NOTE_OFF_83
NOTE_OFF_66
NOTE_OFF_62
NOTE_OFF_71
VEL_2
NOTE_ON_86
TIME_SHIFT_64ND_3
NOTE_OFF_86
VEL_2
NOTE_ON_90
TIME_SHIFT_64ND_3
NOTE_OFF_90
VEL_2
NOTE_ON_95
TIME_SHIFT_64ND_3
NOTE_OFF_95
VEL_2
NOTE_ON_98
TIME_SHIFT_64ND_3
NOTE_OFF_98
VEL_3
NOTE_ON_102
TIME_SHIFT_64ND_3
NOTE_OFF_102
VEL_3
NOTE_ON_98
TIME_SHIFT_64ND_3
NOTE_OFF_98
VEL_2
NOTE_ON_90
TIME_SHIFT_64ND_3
NOTE_OFF_90
VEL_2
NOTE_ON_83
TIME_SHIFT_64ND_3
NOTE_OFF_83
VEL_2
NOTE_ON_86
TIME_SHIFT_64ND_3
NOTE_OFF_86
VEL_2
NOTE_ON_83
TIME_SHIFT_64ND_3
NOTE_OFF_83
VEL_2
NOTE_ON_86
TIME_SHIFT_64ND_3
NOTE_OFF_86
VEL_2
NOTE_ON_83
VEL_2
NOTE_ON_74
TIME_SHIFT_64ND_3
NOTE_OFF_83
NOTE_OFF_74
VEL_2
NOTE_ON_86
TIME_SHIFT_64ND_3
NOTE_OFF_86
VEL_2
NOTE_ON_83
VEL_2
NOTE_ON_78
TIME_SHIFT_64ND_3
NOTE_OFF_83
NOTE_OFF_78
VEL_2
NOTE_ON_86
TIME_SHIFT_64ND_3
NOTE_OFF_86
VEL_2
NOTE_ON_83
VEL_2
NOTE_ON_66
VEL_2
NOTE_ON_62
VEL_2
NOTE_ON_71
TIME_SHIFT_64ND_3
NOTE_OFF_83
NOTE_OFF_66
NOTE_OFF_62
NOTE_OFF_71
TIME_SHIFT_64ND_8
VEL_2
NOTE_ON_98
TIME_SHIFT_64ND_3
NOTE_OFF_98
VEL_3
NOTE_ON_101
TIME_SHIFT_64ND_3
NOTE_OFF_101
VEL_3
NOTE_ON_98
TIME_SHIFT_64ND_3
NOTE_OFF_98
VEL_2
NOTE_ON_89
TIME_SHIFT_64ND_3
NOTE_OFF_89
VEL_2
NOTE_ON_82
TIME_SHIFT_64ND_3
NOTE_OFF_82
VEL_2
NOTE_ON_86
TIME_SHIFT_64ND_3
NOTE_OFF_86
VEL_2
NOTE_ON_82
TIME_SHIFT_64ND_3
NOTE_OFF_82
VEL_2
NOTE_ON_86
TIME_SHIFT_64ND_3
NOTE_OFF_86
VEL_2
NOTE_ON_82
VEL_2
NOTE_ON_74
TIME_SHIFT_64ND_3
NOTE_OFF_82
NOTE_OFF_74
VEL_2
NOTE_ON_86
TIME_SHIFT_64ND_3
NOTE_OFF_86
VEL_2
NOTE_ON_82
VEL_2
NOTE_ON_77
TIME_SHIFT_64ND_3
NOTE_OFF_82
NOTE_OFF_77
VEL_2
NOTE_ON_86
TIME_SHIFT_64ND_3
NOTE_OFF_86
VEL_2
NOTE_ON_82
VEL_2
NOTE_ON_65
VEL_2
NOTE_ON_62
VEL_2
NOTE_ON_70
TIME_SHIFT_64ND_3
NOTE_OFF_82
NOTE_OFF_65
NOTE_OFF_62
NOTE_OFF_70
VEL_2
NOTE_ON_86
TIME_SHIFT_64ND_3
NOTE_OFF_86
VEL_2
NOTE_ON_89
TIME_SHIFT_64ND_3
NOTE_OFF_89
VEL_2
NOTE_ON_94
TIME_SHIFT_64ND_3
NOTE_OFF_94
VEL_2
NOTE_ON_98
TIME_SHIFT_64ND_3
NOTE_OFF_98
VEL_3
NOTE_ON_101
TIME_SHIFT_64ND_3
NOTE_OFF_101
VEL_3
NOTE_ON_98
TIME_SHIFT_64ND_3
NOTE_OFF_98
VEL_2
NOTE_ON_89
TIME_SHIFT_64ND_3
NOTE_OFF_89
VEL_2
NOTE_ON_82
TIME_SHIFT_64ND_3
NOTE_OFF_82
VEL_2
NOTE_ON_86
TIME_SHIFT_64ND_3
NOTE_OFF_86
VEL_2
NOTE_ON_82
TIME_SHIFT_64ND_3
NOTE_OFF_82
VEL_2
NOTE_ON_86
TIME_SHIFT_64ND_3
NOTE_OFF_86
VEL_2
NOTE_ON_82
VEL_2
NOTE_ON_74
TIME_SHIFT_64ND_3
NOTE_OFF_82
NOTE_OFF_74
VEL_2
NOTE_ON_86
TIME_SHIFT_64ND_3
NOTE_OFF_86
VEL_2
NOTE_ON_82
VEL_2
NOTE_ON_77
TIME_SHIFT_64ND_3
NOTE_OFF_82
NOTE_OFF_77
VEL_2
NOTE_ON_86
TIME_SHIFT_64ND_3
NOTE_OFF_86
VEL_2
NOTE_ON_82
VEL_2
NOTE_ON_65
VEL_2
NOTE_ON_62
VEL_2
NOTE_ON_70
TIME_SHIFT_64ND_3
NOTE_OFF_82
NOTE_OFF_65
NOTE_OFF_62
NOTE_OFF_70
TIME_SHIFT_64ND_9
VEL_2
NOTE_ON_82
TIME_SHIFT_64ND_2
NOTE_OFF_82
TIME_SHIFT_64ND_1
VEL_2
NOTE_ON_82
TIME_SHIFT_64ND_2
NOTE_OFF_82
TIME_SHIFT_64ND_1
VEL_2
NOTE_ON_94
TIME_SHIFT_64ND_2
NOTE_OFF_94
TIME_SHIFT_64ND_1
VEL_2
NOTE_ON_82
TIME_SHIFT_64ND_2
NOTE_OFF_82
TIME_SHIFT_64ND_1
VEL_2
NOTE_ON_81
TIME_SHIFT_64ND_2
NOTE_OFF_81
TIME_SHIFT_64ND_1
VEL_2
NOTE_ON_81
TIME_SHIFT_64ND_2
NOTE_OFF_81
TIME_SHIFT_64ND_1
VEL_2
NOTE_ON_93
TIME_SHIFT_64ND_2
NOTE_OFF_93
TIME_SHIFT_64ND_1
VEL_2
NOTE_ON_81
TIME_SHIFT_64ND_2
NOTE_OFF_81
TIME_SHIFT_64ND_1
VEL_2
NOTE_ON_78
TIME_SHIFT_64ND_2
NOTE_OFF_78
TIME_SHIFT_64ND_1
VEL_2
NOTE_ON_78
TIME_SHIFT_64ND_2
NOTE_OFF_78
TIME_SHIFT_64ND_1
VEL_2
NOTE_ON_90
TIME_SHIFT_64ND_2
NOTE_OFF_90
TIME_SHIFT_64ND_1
VEL_2
NOTE_ON_78
TIME_SHIFT_64ND_2
NOTE_OFF_78
TIME_SHIFT_64ND_1
VEL_2
NOTE_ON_77
TIME_SHIFT_64ND_2
NOTE_OFF_77
TIME_SHIFT_64ND_1
VEL_2
NOTE_ON_77
TIME_SHIFT_64ND_2
NOTE_OFF_77
TIME_SHIFT_64ND_1
VEL_2
NOTE_ON_89
TIME_SHIFT_64ND_2
NOTE_OFF_89
TIME_SHIFT_64ND_1
VEL_2
NOTE_ON_77
TIME_SHIFT_64ND_2
NOTE_OFF_77
TIME_SHIFT_64ND_1
VEL_2
NOTE_ON_75
TIME_SHIFT_64ND_2
NOTE_OFF_75
TIME_SHIFT_64ND_1
VEL_2
NOTE_ON_75
TIME_SHIFT_64ND_2
NOTE_OFF_75
TIME_SHIFT_64ND_1
VEL_2
NOTE_ON_87
TIME_SHIFT_64ND_2
NOTE_OFF_87
TIME_SHIFT_64ND_1
VEL_2
NOTE_ON_75
TIME_SHIFT_64ND_2
NOTE_OFF_75
TIME_SHIFT_64ND_1
VEL_2
NOTE_ON_74
TIME_SHIFT_64ND_2
NOTE_OFF_74
TIME_SHIFT_64ND_1
VEL_2
NOTE_ON_74
TIME_SHIFT_64ND_2
NOTE_OFF_74
TIME_SHIFT_64ND_1
VEL_2
NOTE_ON_86
TIME_SHIFT_64ND_2
NOTE_OFF_86
TIME_SHIFT_64ND_1
VEL_2
NOTE_ON_74
TIME_SHIFT_64ND_2
NOTE_OFF_74
TIME_SHIFT_64ND_1
VEL_2
NOTE_ON_86
TIME_SHIFT_64ND_4
NOTE_OFF_86
VEL_2
NOTE_ON_75
TIME_SHIFT_64ND_4
NOTE_OFF_75
VEL_2
NOTE_ON_87
TIME_SHIFT_64ND_4
NOTE_OFF_87
VEL_2
NOTE_ON_77
TIME_SHIFT_64ND_3
NOTE_OFF_77
VEL_2
NOTE_ON_77
TIME_SHIFT_64ND_3
NOTE_OFF_77
VEL_2
NOTE_ON_89
TIME_SHIFT_64ND_3
NOTE_OFF_89
VEL_2
NOTE_ON_77
TIME_SHIFT_64ND_3
NOTE_OFF_77
VEL_2
NOTE_ON_89
TIME_SHIFT_64ND_4
NOTE_OFF_89
VEL_2
NOTE_ON_82
TIME_SHIFT_64ND_2
VEL_2
NOTE_ON_70
TIME_SHIFT_64ND_2
NOTE_OFF_82
VEL_2
NOTE_ON_94
TIME_SHIFT_64ND_3
NOTE_OFF_94
NOTE_OFF_70
VEL_2
NOTE_ON_89
VEL_2
NOTE_ON_77
VEL_2
NOTE_ON_65
TIME_SHIFT_64ND_4
NOTE_OFF_89
VEL_2
NOTE_ON_77
TIME_SHIFT_64ND_4
NOTE_OFF_77
VEL_2
NOTE_ON_82
TIME_SHIFT_64ND_4
NOTE_OFF_82
VEL_2
NOTE_ON_89
TIME_SHIFT_64ND_4
NOTE_OFF_89
VEL_2
NOTE_ON_82
TIME_SHIFT_64ND_2
NOTE_OFF_77
NOTE_OFF_65
VEL_2
NOTE_ON_70
TIME_SHIFT_64ND_2
NOTE_OFF_82
VEL_2
NOTE_ON_94
TIME_SHIFT_64ND_3
NOTE_OFF_94
NOTE_OFF_70
VEL_2
NOTE_ON_89
VEL_2
NOTE_ON_77
VEL_2
NOTE_ON_65
TIME_SHIFT_64ND_4
NOTE_OFF_89
VEL_2
NOTE_ON_77
TIME_SHIFT_64ND_4
NOTE_OFF_77
VEL_2
NOTE_ON_82
TIME_SHIFT_64ND_4
NOTE_OFF_82
VEL_2
NOTE_ON_89
TIME_SHIFT_64ND_4
NOTE_OFF_89
VEL_2
NOTE_ON_82
TIME_SHIFT_64ND_2
NOTE_OFF_77
NOTE_OFF_65
VEL_2
NOTE_ON_70
TIME_SHIFT_64ND_2
NOTE_OFF_82
VEL_2
NOTE_ON_94
TIME_SHIFT_64ND_3
NOTE_OFF_94
NOTE_OFF_70
VEL_2
NOTE_ON_89
VEL_2
NOTE_ON_77
VEL_2
NOTE_ON_65
TIME_SHIFT_64ND_4
NOTE_OFF_89
VEL_2
NOTE_ON_82
TIME_SHIFT_64ND_2
NOTE_OFF_77
NOTE_OFF_65
VEL_2
NOTE_ON_70
TIME_SHIFT_64ND_2
NOTE_OFF_82
VEL_2
NOTE_ON_94
TIME_SHIFT_64ND_4
NOTE_OFF_94
NOTE_OFF_70
VEL_2
NOTE_ON_89
VEL_2
NOTE_ON_77
VEL_2
NOTE_ON_65
TIME_SHIFT_64ND_4
NOTE_OFF_89
VEL_2
NOTE_ON_82
TIME_SHIFT_64ND_2
NOTE_OFF_77
NOTE_OFF_65
VEL_2
NOTE_ON_70
TIME_SHIFT_64ND_2
NOTE_OFF_82
VEL_2
NOTE_ON_94
TIME_SHIFT_64ND_4
NOTE_OFF_94
NOTE_OFF_70
VEL_2
NOTE_ON_89
VEL_2
NOTE_ON_77
VEL_2
NOTE_ON_65
TIME_SHIFT_64ND_4
NOTE_OFF_89
VEL_2
NOTE_ON_82
TIME_SHIFT_64ND_2
NOTE_OFF_77
NOTE_OFF_65
VEL_2
NOTE_ON_70
TIME_SHIFT_64ND_2
NOTE_OFF_82
VEL_2
NOTE_ON_94
TIME_SHIFT_64ND_4
NOTE_OFF_94
NOTE_OFF_70
VEL_2
NOTE_ON_89
VEL_2
NOTE_ON_77
VEL_2
NOTE_ON_65
TIME_SHIFT_64ND_4
NOTE_OFF_89
VEL_2
NOTE_ON_82
TIME_SHIFT_64ND_2
NOTE_OFF_77
NOTE_OFF_65
VEL_2
NOTE_ON_70
TIME_SHIFT_64ND_2
NOTE_OFF_82
VEL_2
NOTE_ON_94
TIME_SHIFT_64ND_4
NOTE_OFF_94
NOTE_OFF_70
VEL_2
NOTE_ON_89
VEL_2
NOTE_ON_77
VEL_2
NOTE_ON_65
TIME_SHIFT_64ND_3
NOTE_OFF_89
NOTE_OFF_77
NOTE_OFF_65
TIME_SHIFT_64ND_8
VEL_2
NOTE_ON_82
VEL_2
NOTE_ON_86
TIME_SHIFT_64ND_3
NOTE_OFF_82
NOTE_OFF_86
VEL_2
NOTE_ON_83
VEL_2
NOTE_ON_87
TIME_SHIFT_64ND_3
NOTE_OFF_83
NOTE_OFF_87
VEL_2
NOTE_ON_84
VEL_2
NOTE_ON_88
TIME_SHIFT_64ND_3
NOTE_OFF_84
NOTE_OFF_88
VEL_2
NOTE_ON_85
VEL_2
NOTE_ON_89
TIME_SHIFT_64ND_3
NOTE_OFF_85
NOTE_OFF_89
VEL_2
NOTE_ON_86
VEL_2
NOTE_ON_90
TIME_SHIFT_64ND_3
NOTE_OFF_86
NOTE_OFF_90
VEL_2
NOTE_ON_87
VEL_2
NOTE_ON_91
TIME_SHIFT_64ND_3
NOTE_OFF_87
NOTE_OFF_91
VEL_2
NOTE_ON_88
VEL_2
NOTE_ON_92
TIME_SHIFT_64ND_3
NOTE_OFF_88
NOTE_OFF_92
VEL_2
NOTE_ON_93
VEL_2
NOTE_ON_89
TIME_SHIFT_64ND_3
NOTE_OFF_93
NOTE_OFF_89
VEL_2
NOTE_ON_90
VEL_2
NOTE_ON_94
TIME_SHIFT_64ND_3
NOTE_OFF_90
NOTE_OFF_94
VEL_2
NOTE_ON_91
VEL_2
NOTE_ON_95
TIME_SHIFT_64ND_3
NOTE_OFF_91
NOTE_OFF_95
VEL_2
NOTE_ON_92
VEL_2
NOTE_ON_96
TIME_SHIFT_64ND_3
NOTE_OFF_92
NOTE_OFF_96
VEL_2
NOTE_ON_93
VEL_3
NOTE_ON_97
TIME_SHIFT_64ND_3
NOTE_OFF_93
NOTE_OFF_97
VEL_2
NOTE_ON_94
VEL_3
NOTE_ON_98
TIME_SHIFT_64ND_3
NOTE_OFF_94
NOTE_OFF_98
VEL_2
NOTE_ON_93
VEL_3
NOTE_ON_97
TIME_SHIFT_64ND_3
NOTE_OFF_93
NOTE_OFF_97
VEL_2
NOTE_ON_92
VEL_3
NOTE_ON_96
TIME_SHIFT_64ND_3
NOTE_OFF_92
NOTE_OFF_96
VEL_2
NOTE_ON_91
VEL_2
NOTE_ON_95
TIME_SHIFT_64ND_3
NOTE_OFF_91
NOTE_OFF_95
VEL_2
NOTE_ON_90
VEL_2
NOTE_ON_94
TIME_SHIFT_64ND_3
NOTE_OFF_90
NOTE_OFF_94
VEL_2
NOTE_ON_89
VEL_2
NOTE_ON_93
TIME_SHIFT_64ND_3
NOTE_OFF_89
NOTE_OFF_93
VEL_2
NOTE_ON_88
VEL_2
NOTE_ON_92
TIME_SHIFT_64ND_3
NOTE_OFF_88
NOTE_OFF_92
VEL_2
NOTE_ON_87
VEL_2
NOTE_ON_91
TIME_SHIFT_64ND_3
NOTE_OFF_87
NOTE_OFF_91
VEL_2
NOTE_ON_86
VEL_2
NOTE_ON_90
TIME_SHIFT_64ND_3
NOTE_OFF_86
NOTE_OFF_90
VEL_2
NOTE_ON_85
VEL_2
NOTE_ON_89
TIME_SHIFT_64ND_3
NOTE_OFF_85
NOTE_OFF_89
VEL_2
NOTE_ON_84
VEL_2
NOTE_ON_88
TIME_SHIFT_64ND_3
NOTE_OFF_84
NOTE_OFF_88
VEL_2
NOTE_ON_83
VEL_2
NOTE_ON_87
TIME_SHIFT_64ND_3
NOTE_OFF_83
NOTE_OFF_87
VEL_2
NOTE_ON_82
VEL_2
NOTE_ON_86
TIME_SHIFT_64ND_3
NOTE_OFF_82
NOTE_OFF_86
VEL_2
NOTE_ON_81
VEL_2
NOTE_ON_85
TIME_SHIFT_64ND_3
NOTE_OFF_81
NOTE_OFF_85
VEL_2
NOTE_ON_80
VEL_2
NOTE_ON_84
TIME_SHIFT_64ND_3
NOTE_OFF_80
NOTE_OFF_84
VEL_2
NOTE_ON_79
VEL_2
NOTE_ON_83
TIME_SHIFT_64ND_3
NOTE_OFF_79
NOTE_OFF_83
VEL_2
NOTE_ON_78
VEL_2
NOTE_ON_82
TIME_SHIFT_64ND_3
NOTE_OFF_78
NOTE_OFF_82
VEL_2
NOTE_ON_77
VEL_2
NOTE_ON_81
TIME_SHIFT_64ND_3
NOTE_OFF_77
NOTE_OFF_81
VEL_2
NOTE_ON_76
VEL_2
NOTE_ON_80
TIME_SHIFT_64ND_3
NOTE_OFF_76
NOTE_OFF_80
VEL_2
NOTE_ON_75
VEL_2
NOTE_ON_79
TIME_SHIFT_64ND_3
NOTE_OFF_75
NOTE_OFF_79
VEL_2
NOTE_ON_74
VEL_2
NOTE_ON_78
TIME_SHIFT_64ND_3
NOTE_OFF_74
NOTE_OFF_78
VEL_2
NOTE_ON_73
VEL_2
NOTE_ON_77
TIME_SHIFT_64ND_3
NOTE_OFF_73
NOTE_OFF_77
VEL_2
NOTE_ON_72
VEL_2
NOTE_ON_76
TIME_SHIFT_64ND_3
NOTE_OFF_72
NOTE_OFF_76
VEL_2
NOTE_ON_71
VEL_2
NOTE_ON_75
TIME_SHIFT_64ND_3
NOTE_OFF_71
NOTE_OFF_75
VEL_2
NOTE_ON_70
VEL_2
NOTE_ON_74
TIME_SHIFT_64ND_3
NOTE_OFF_70
NOTE_OFF_74
VEL_2
NOTE_ON_69
VEL_2
NOTE_ON_73
TIME_SHIFT_64ND_3
NOTE_OFF_69
NOTE_OFF_73
VEL_2
NOTE_ON_68
VEL_2
NOTE_ON_72
TIME_SHIFT_64ND_3
NOTE_OFF_68
NOTE_OFF_72
VEL_2
NOTE_ON_67
VEL_2
NOTE_ON_71
TIME_SHIFT_64ND_3
NOTE_OFF_67
NOTE_OFF_71
VEL_3
NOTE_ON_66
VEL_3
NOTE_ON_70
TIME_SHIFT_64ND_3
NOTE_OFF_66
NOTE_OFF_70
VEL_3
NOTE_ON_65
VEL_3
NOTE_ON_69
TIME_SHIFT_64ND_3
NOTE_OFF_65
NOTE_OFF_69
VEL_2
NOTE_ON_64
VEL_3
NOTE_ON_68
TIME_SHIFT_64ND_3
NOTE_OFF_64
NOTE_OFF_68
VEL_2
NOTE_ON_63
VEL_3
NOTE_ON_67
TIME_SHIFT_64ND_3
NOTE_OFF_63
NOTE_OFF_67
VEL_2
NOTE_ON_62
VEL_3
NOTE_ON_66
TIME_SHIFT_64ND_3
NOTE_OFF_62
NOTE_OFF_66
VEL_2
NOTE_ON_61
VEL_3
NOTE_ON_65
TIME_SHIFT_64ND_3
NOTE_OFF_61
NOTE_OFF_65
VEL_2
NOTE_ON_60
VEL_3
NOTE_ON_64
TIME_SHIFT_64ND_3
NOTE_OFF_60
NOTE_OFF_64
VEL_2
NOTE_ON_59
VEL_3
NOTE_ON_63
TIME_SHIFT_64ND_3
NOTE_OFF_59
NOTE_OFF_63
VEL_2
NOTE_ON_58
VEL_3
NOTE_ON_62
TIME_SHIFT_64ND_3
NOTE_OFF_58
NOTE_OFF_62
VEL_2
NOTE_ON_57
VEL_3
NOTE_ON_61
TIME_SHIFT_64ND_3
NOTE_OFF_57
NOTE_OFF_61
VEL_2
NOTE_ON_56
VEL_3
NOTE_ON_60
TIME_SHIFT_64ND_3
NOTE_OFF_56
NOTE_OFF_60
VEL_2
NOTE_ON_55
VEL_3
NOTE_ON_59
TIME_SHIFT_64ND_3
NOTE_OFF_55
NOTE_OFF_59
VEL_2
NOTE_ON_54
VEL_3
NOTE_ON_58
TIME_SHIFT_64ND_3
NOTE_OFF_54
NOTE_OFF_58
VEL_2
NOTE_ON_53
VEL_3
NOTE_ON_57
TIME_SHIFT_64ND_3
NOTE_OFF_53
NOTE_OFF_57
VEL_2
NOTE_ON_52
VEL_3
NOTE_ON_56
TIME_SHIFT_64ND_3
NOTE_OFF_52
NOTE_OFF_56
VEL_2
NOTE_ON_51
VEL_3
NOTE_ON_55
TIME_SHIFT_64ND_3
NOTE_OFF_51
NOTE_OFF_55
VEL_2
NOTE_ON_50
VEL_3
NOTE_ON_54
TIME_SHIFT_64ND_3
NOTE_OFF_50
NOTE_OFF_54
VEL_2
NOTE_ON_49
VEL_3
NOTE_ON_53
TIME_SHIFT_64ND_3
NOTE_OFF_49
NOTE_OFF_53
VEL_2
NOTE_ON_48
VEL_3
NOTE_ON_52
TIME_SHIFT_64ND_3
NOTE_OFF_48
NOTE_OFF_52
VEL_2
NOTE_ON_47
VEL_3
NOTE_ON_51
TIME_SHIFT_64ND_3
NOTE_OFF_47
NOTE_OFF_51
VEL_2
NOTE_ON_46
VEL_3
NOTE_ON_50
TIME_SHIFT_64ND_3
NOTE_OFF_46
NOTE_OFF_50
VEL_2
NOTE_ON_45
VEL_3
NOTE_ON_49
TIME_SHIFT_64ND_3
NOTE_OFF_45
NOTE_OFF_49
VEL_3
NOTE_ON_44
VEL_3
NOTE_ON_48
TIME_SHIFT_64ND_3
NOTE_OFF_44
NOTE_OFF_48
VEL_3
NOTE_ON_43
VEL_3
NOTE_ON_47
TIME_SHIFT_64ND_3
NOTE_OFF_43
NOTE_OFF_47
VEL_2
NOTE_ON_42
VEL_3
NOTE_ON_46
TIME_SHIFT_64ND_3
NOTE_OFF_42
NOTE_OFF_46
VEL_2
NOTE_ON_41
VEL_3
NOTE_ON_45
TIME_SHIFT_64ND_3
NOTE_OFF_41
NOTE_OFF_45
VEL_2
NOTE_ON_40
VEL_3
NOTE_ON_44
TIME_SHIFT_64ND_3
NOTE_OFF_40
NOTE_OFF_44
VEL_2
NOTE_ON_39
VEL_2
NOTE_ON_45
TIME_SHIFT_64ND_3
NOTE_OFF_39
NOTE_OFF_45
VEL_2
NOTE_ON_46
VEL_2
NOTE_ON_38
TIME_SHIFT_64ND_3
NOTE_OFF_46
VEL_2
NOTE_ON_47
TIME_SHIFT_64ND_3
NOTE_OFF_47
NOTE_OFF_38
VEL_2
NOTE_ON_37
VEL_2
NOTE_ON_48
TIME_SHIFT_64ND_3
NOTE_OFF_37
NOTE_OFF_48
VEL_2
NOTE_ON_36
VEL_2
NOTE_ON_49
TIME_SHIFT_64ND_3
NOTE_OFF_36
NOTE_OFF_49
VEL_2
NOTE_ON_35
VEL_2
NOTE_ON_50
TIME_SHIFT_64ND_4
NOTE_OFF_35
NOTE_OFF_50
VEL_2
NOTE_ON_34
VEL_2
NOTE_ON_51
TIME_SHIFT_64ND_4
NOTE_OFF_34
NOTE_OFF_51
VEL_2
NOTE_ON_33
VEL_2
NOTE_ON_52
TIME_SHIFT_64ND_4
NOTE_OFF_33
NOTE_OFF_52
VEL_2
NOTE_ON_50
VEL_2
NOTE_ON_47
VEL_2
NOTE_ON_53
VEL_1
NOTE_ON_32
TIME_SHIFT_64ND_4
NOTE_OFF_50
NOTE_OFF_47
NOTE_OFF_53
NOTE_OFF_32
VEL_1
NOTE_ON_38
TIME_SHIFT_64ND_4
NOTE_OFF_38
VEL_1
NOTE_ON_41
TIME_SHIFT_64ND_4
NOTE_OFF_41
VEL_1
NOTE_ON_49
VEL_2
NOTE_ON_52
VEL_1
NOTE_ON_47
VEL_1
NOTE_ON_31
TIME_SHIFT_64ND_4
NOTE_OFF_31
VEL_1
NOTE_ON_37
TIME_SHIFT_64ND_2
NOTE_OFF_49
NOTE_OFF_52
VEL_2
NOTE_ON_55
TIME_SHIFT_64ND_2
NOTE_OFF_37
VEL_1
NOTE_ON_40
TIME_SHIFT_64ND_4
NOTE_OFF_55
NOTE_OFF_47
NOTE_OFF_40
VEL_2
NOTE_ON_50
VEL_2
NOTE_ON_47
VEL_2
NOTE_ON_53
VEL_1
NOTE_ON_32
TIME_SHIFT_64ND_4
NOTE_OFF_50
NOTE_OFF_47
NOTE_OFF_53
NOTE_OFF_32
VEL_1
NOTE_ON_38
TIME_SHIFT_64ND_4
NOTE_OFF_38
VEL_1
NOTE_ON_41
TIME_SHIFT_64ND_4
NOTE_OFF_41
VEL_2
NOTE_ON_49
VEL_2
NOTE_ON_52
VEL_2
NOTE_ON_47
VEL_1
NOTE_ON_32
TIME_SHIFT_64ND_4
NOTE_OFF_32
VEL_1
NOTE_ON_37
TIME_SHIFT_64ND_2
NOTE_OFF_49
NOTE_OFF_52
VEL_2
NOTE_ON_55
TIME_SHIFT_64ND_2
NOTE_OFF_37
VEL_1
NOTE_ON_40
TIME_SHIFT_64ND_4
NOTE_OFF_55
NOTE_OFF_47
NOTE_OFF_40
VEL_1
NOTE_ON_50
VEL_1
NOTE_ON_47
VEL_2
NOTE_ON_53
VEL_1
NOTE_ON_32
TIME_SHIFT_64ND_4
NOTE_OFF_50
NOTE_OFF_47
NOTE_OFF_53
NOTE_OFF_32
VEL_1
NOTE_ON_38
TIME_SHIFT_64ND_4
NOTE_OFF_38
VEL_1
NOTE_ON_41
TIME_SHIFT_64ND_4
NOTE_OFF_41
VEL_1
NOTE_ON_49
VEL_1
NOTE_ON_47
VEL_2
NOTE_ON_52
VEL_1
NOTE_ON_32
TIME_SHIFT_64ND_4
NOTE_OFF_49
NOTE_OFF_47
NOTE_OFF_52
NOTE_OFF_32
VEL_1
NOTE_ON_37
TIME_SHIFT_64ND_4
NOTE_OFF_37
VEL_1
NOTE_ON_40
TIME_SHIFT_64ND_4
NOTE_OFF_40
VEL_1
NOTE_ON_50
VEL_1
NOTE_ON_47
VEL_2
NOTE_ON_53
VEL_1
NOTE_ON_32
TIME_SHIFT_64ND_4
NOTE_OFF_32
VEL_1
NOTE_ON_38
TIME_SHIFT_64ND_4
NOTE_OFF_38
VEL_1
NOTE_ON_41
TIME_SHIFT_64ND_4
NOTE_OFF_41
VEL_1
NOTE_ON_38
TIME_SHIFT_64ND_4
NOTE_OFF_38
VEL_1
NOTE_ON_35
TIME_SHIFT_64ND_4
NOTE_OFF_35
VEL_1
NOTE_ON_32
TIME_SHIFT_64ND_4
NOTE_OFF_50
NOTE_OFF_47
NOTE_OFF_53
NOTE_OFF_32
VEL_1
NOTE_ON_29
TIME_SHIFT_64ND_2
VEL_1
NOTE_ON_28
TIME_SHIFT_64ND_1
NOTE_OFF_29
TIME_SHIFT_64ND_1
VEL_1
NOTE_ON_29
TIME_SHIFT_64ND_1
NOTE_OFF_28
TIME_SHIFT_64ND_1
VEL_1
NOTE_ON_30
TIME_SHIFT_64ND_1
NOTE_OFF_29
TIME_SHIFT_64ND_1
VEL_2
NOTE_ON_31
TIME_SHIFT_64ND_1
NOTE_OFF_30
TIME_SHIFT_64ND_1
VEL_2
NOTE_ON_32
TIME_SHIFT_64ND_1
NOTE_OFF_31
TIME_SHIFT_64ND_1
VEL_2
NOTE_ON_33
TIME_SHIFT_64ND_1
NOTE_OFF_32
TIME_SHIFT_64ND_1
VEL_2
NOTE_ON_34
TIME_SHIFT_64ND_1
NOTE_OFF_33
TIME_SHIFT_64ND_1
VEL_2
NOTE_ON_35
TIME_SHIFT_64ND_1
NOTE_OFF_34
TIME_SHIFT_64ND_1
VEL_2
NOTE_ON_36
TIME_SHIFT_64ND_1
NOTE_OFF_35
TIME_SHIFT_64ND_1
VEL_3
NOTE_ON_37
TIME_SHIFT_64ND_1
NOTE_OFF_36
TIME_SHIFT_64ND_1
VEL_3
NOTE_ON_38
TIME_SHIFT_64ND_1
NOTE_OFF_37
TIME_SHIFT_64ND_1
VEL_3
NOTE_ON_37
TIME_SHIFT_64ND_1
NOTE_OFF_38
TIME_SHIFT_64ND_1
VEL_2
NOTE_ON_36
TIME_SHIFT_64ND_1
NOTE_OFF_37
TIME_SHIFT_64ND_1
VEL_2
NOTE_ON_35
TIME_SHIFT_64ND_1
NOTE_OFF_36
TIME_SHIFT_64ND_1
VEL_2
NOTE_ON_34
TIME_SHIFT_64ND_1
NOTE_OFF_35
TIME_SHIFT_64ND_1
VEL_2
NOTE_ON_33
TIME_SHIFT_64ND_1
NOTE_OFF_34
TIME_SHIFT_64ND_1
VEL_2
NOTE_ON_32
TIME_SHIFT_64ND_1
NOTE_OFF_33
TIME_SHIFT_64ND_1
VEL_2
NOTE_ON_33
TIME_SHIFT_64ND_1
NOTE_OFF_32
TIME_SHIFT_64ND_1
VEL_2
NOTE_ON_34
TIME_SHIFT_64ND_1
NOTE_OFF_33
TIME_SHIFT_64ND_1
VEL_2
NOTE_ON_35
TIME_SHIFT_64ND_1
NOTE_OFF_34
TIME_SHIFT_64ND_1
VEL_2
NOTE_ON_36
TIME_SHIFT_64ND_1
NOTE_OFF_35
TIME_SHIFT_64ND_1
VEL_2
NOTE_ON_37
TIME_SHIFT_64ND_1
NOTE_OFF_36
TIME_SHIFT_64ND_1
VEL_2
NOTE_ON_38
TIME_SHIFT_64ND_1
NOTE_OFF_37
TIME_SHIFT_64ND_1
VEL_2
NOTE_ON_39
TIME_SHIFT_64ND_1
NOTE_OFF_38
TIME_SHIFT_64ND_1
VEL_2
NOTE_ON_40
TIME_SHIFT_64ND_1
NOTE_OFF_39
TIME_SHIFT_64ND_1
VEL_2
NOTE_ON_41
TIME_SHIFT_64ND_1
NOTE_OFF_40
TIME_SHIFT_64ND_1
VEL_2
NOTE_ON_40
TIME_SHIFT_64ND_1
NOTE_OFF_41
TIME_SHIFT_64ND_1
VEL_2
NOTE_ON_39
TIME_SHIFT_64ND_1
NOTE_OFF_40
TIME_SHIFT_64ND_1
VEL_2
NOTE_ON_38
TIME_SHIFT_64ND_1
NOTE_OFF_39
TIME_SHIFT_64ND_1
VEL_2
NOTE_ON_37
TIME_SHIFT_64ND_1
NOTE_OFF_38
TIME_SHIFT_64ND_1
VEL_2
NOTE_ON_36
TIME_SHIFT_64ND_1
NOTE_OFF_37
TIME_SHIFT_64ND_1
VEL_2
NOTE_ON_35
TIME_SHIFT_64ND_1
NOTE_OFF_36
TIME_SHIFT_64ND_1
VEL_2
NOTE_ON_34
TIME_SHIFT_64ND_1
NOTE_OFF_35
TIME_SHIFT_64ND_1
VEL_2
NOTE_ON_51
VEL_2
NOTE_ON_48
VEL_3
NOTE_ON_54
VEL_2
NOTE_ON_33
TIME_SHIFT_64ND_1
NOTE_OFF_34
TIME_SHIFT_64ND_3
NOTE_OFF_51
NOTE_OFF_48
NOTE_OFF_54
NOTE_OFF_33
VEL_1
NOTE_ON_39
TIME_SHIFT_64ND_4
NOTE_OFF_39
VEL_1
NOTE_ON_42
TIME_SHIFT_64ND_4
NOTE_OFF_42
VEL_2
NOTE_ON_48
VEL_2
NOTE_ON_53
VEL_2
NOTE_ON_50
VEL_2
NOTE_ON_33
TIME_SHIFT_64ND_4
NOTE_OFF_33
VEL_2
NOTE_ON_38
TIME_SHIFT_64ND_2
NOTE_OFF_48
NOTE_OFF_53
VEL_2
NOTE_ON_56
TIME_SHIFT_64ND_2
NOTE_OFF_38
VEL_2
NOTE_ON_41
TIME_SHIFT_64ND_4
NOTE_OFF_56
NOTE_OFF_50
NOTE_OFF_41
VEL_2
NOTE_ON_51
VEL_2
NOTE_ON_48
VEL_2
NOTE_ON_54
VEL_2
NOTE_ON_33
TIME_SHIFT_64ND_4
NOTE_OFF_51
NOTE_OFF_48
NOTE_OFF_54
NOTE_OFF_33
VEL_1
NOTE_ON_39
TIME_SHIFT_64ND_4
NOTE_OFF_39
VEL_1
NOTE_ON_42
TIME_SHIFT_64ND_4
NOTE_OFF_42
VEL_2
NOTE_ON_48
VEL_2
NOTE_ON_53
VEL_2
NOTE_ON_50
VEL_2
NOTE_ON_33
TIME_SHIFT_64ND_4
NOTE_OFF_33
VEL_2
NOTE_ON_38
TIME_SHIFT_64ND_2
NOTE_OFF_48
NOTE_OFF_53
VEL_2
NOTE_ON_56
TIME_SHIFT_64ND_2
NOTE_OFF_38
VEL_2
NOTE_ON_41
TIME_SHIFT_64ND_4
NOTE_OFF_56
NOTE_OFF_50
NOTE_OFF_41
VEL_2
NOTE_ON_51
VEL_2
NOTE_ON_48
VEL_2
NOTE_ON_54
VEL_2
NOTE_ON_33
TIME_SHIFT_64ND_4
NOTE_OFF_51
NOTE_OFF_48
NOTE_OFF_54
NOTE_OFF_33
VEL_1
NOTE_ON_39
TIME_SHIFT_64ND_4
NOTE_OFF_39
VEL_1
NOTE_ON_42
TIME_SHIFT_64ND_4
NOTE_OFF_42
VEL_2
NOTE_ON_48
VEL_2
NOTE_ON_50
VEL_2
NOTE_ON_53
VEL_2
NOTE_ON_33
TIME_SHIFT_64ND_4
NOTE_OFF_48
NOTE_OFF_50
NOTE_OFF_53
NOTE_OFF_33
VEL_2
NOTE_ON_38
TIME_SHIFT_64ND_4
NOTE_OFF_38
VEL_2
NOTE_ON_41
TIME_SHIFT_64ND_4
NOTE_OFF_41
VEL_2
NOTE_ON_51
VEL_2
NOTE_ON_48
VEL_2
NOTE_ON_54
VEL_2
NOTE_ON_33
TIME_SHIFT_64ND_4
NOTE_OFF_33
VEL_1
NOTE_ON_39
TIME_SHIFT_64ND_4
NOTE_OFF_39
VEL_1
NOTE_ON_42
TIME_SHIFT_64ND_4
NOTE_OFF_42
VEL_2
NOTE_ON_39
TIME_SHIFT_64ND_4
NOTE_OFF_39
VEL_2
NOTE_ON_36
TIME_SHIFT_64ND_4
NOTE_OFF_36
VEL_2
NOTE_ON_33
TIME_SHIFT_64ND_4
NOTE_OFF_51
NOTE_OFF_48
NOTE_OFF_54
NOTE_OFF_33
VEL_1
NOTE_ON_30
TIME_SHIFT_64ND_2
VEL_2
NOTE_ON_29
TIME_SHIFT_64ND_1
NOTE_OFF_30
TIME_SHIFT_64ND_1
VEL_2
NOTE_ON_30
TIME_SHIFT_64ND_1
NOTE_OFF_29
TIME_SHIFT_64ND_1
VEL_2
NOTE_ON_31
TIME_SHIFT_64ND_1
NOTE_OFF_30
TIME_SHIFT_64ND_1
VEL_2
NOTE_ON_32
TIME_SHIFT_64ND_1
NOTE_OFF_31
TIME_SHIFT_64ND_1
VEL_2
NOTE_ON_33
TIME_SHIFT_64ND_1
NOTE_OFF_32
TIME_SHIFT_64ND_1
VEL_2
NOTE_ON_34
TIME_SHIFT_64ND_1
NOTE_OFF_33
TIME_SHIFT_64ND_1
VEL_2
NOTE_ON_35
TIME_SHIFT_64ND_1
NOTE_OFF_34
TIME_SHIFT_64ND_1
VEL_2
NOTE_ON_36
TIME_SHIFT_64ND_1
NOTE_OFF_35
TIME_SHIFT_64ND_1
VEL_3
NOTE_ON_37
TIME_SHIFT_64ND_1
NOTE_OFF_36
TIME_SHIFT_64ND_1
VEL_3
NOTE_ON_38
TIME_SHIFT_64ND_1
NOTE_OFF_37
TIME_SHIFT_64ND_1
VEL_3
NOTE_ON_39
TIME_SHIFT_64ND_1
NOTE_OFF_38
TIME_SHIFT_64ND_1
VEL_3
NOTE_ON_38
TIME_SHIFT_64ND_1
NOTE_OFF_39
TIME_SHIFT_64ND_1
VEL_3
NOTE_ON_37
TIME_SHIFT_64ND_1
NOTE_OFF_38
TIME_SHIFT_64ND_1
VEL_3
NOTE_ON_36
TIME_SHIFT_64ND_1
NOTE_OFF_37
TIME_SHIFT_64ND_1
VEL_3
NOTE_ON_35
TIME_SHIFT_64ND_1
NOTE_OFF_36
TIME_SHIFT_64ND_1
VEL_2
NOTE_ON_34
TIME_SHIFT_64ND_1
NOTE_OFF_35
TIME_SHIFT_64ND_1
VEL_2
NOTE_ON_33
TIME_SHIFT_64ND_1
NOTE_OFF_34
TIME_SHIFT_64ND_1
VEL_2
NOTE_ON_34
TIME_SHIFT_64ND_1
NOTE_OFF_33
TIME_SHIFT_64ND_1
VEL_2
NOTE_ON_35
TIME_SHIFT_64ND_1
NOTE_OFF_34
TIME_SHIFT_64ND_1
VEL_2
NOTE_ON_36
TIME_SHIFT_64ND_1
NOTE_OFF_35
TIME_SHIFT_64ND_1
VEL_3
NOTE_ON_37
TIME_SHIFT_64ND_1
NOTE_OFF_36
TIME_SHIFT_64ND_1
VEL_3
NOTE_ON_38
TIME_SHIFT_64ND_1
NOTE_OFF_37
TIME_SHIFT_64ND_1
VEL_3
NOTE_ON_39
TIME_SHIFT_64ND_1
NOTE_OFF_38
TIME_SHIFT_64ND_1
VEL_3
NOTE_ON_40
TIME_SHIFT_64ND_1
NOTE_OFF_39
TIME_SHIFT_64ND_1
VEL_3
NOTE_ON_41
TIME_SHIFT_64ND_1
NOTE_OFF_40
TIME_SHIFT_64ND_1
VEL_3
NOTE_ON_42
TIME_SHIFT_64ND_1
NOTE_OFF_41
TIME_SHIFT_64ND_1
VEL_3
NOTE_ON_41
TIME_SHIFT_64ND_1
NOTE_OFF_42
TIME_SHIFT_64ND_1
VEL_3
NOTE_ON_40
TIME_SHIFT_64ND_1
NOTE_OFF_41
TIME_SHIFT_64ND_1
VEL_3
NOTE_ON_39
TIME_SHIFT_64ND_1
NOTE_OFF_40
TIME_SHIFT_64ND_1
VEL_3
NOTE_ON_38
TIME_SHIFT_64ND_1
NOTE_OFF_39
TIME_SHIFT_64ND_1
VEL_3
NOTE_ON_37
TIME_SHIFT_64ND_1
NOTE_OFF_38
TIME_SHIFT_64ND_1
VEL_2
NOTE_ON_36
TIME_SHIFT_64ND_1
NOTE_OFF_37
TIME_SHIFT_64ND_1
VEL_2
NOTE_ON_35
TIME_SHIFT_64ND_1
NOTE_OFF_36
TIME_SHIFT_64ND_1
VEL_3
NOTE_ON_52
VEL_3
NOTE_ON_49
VEL_3
NOTE_ON_55
VEL_2
NOTE_ON_34
TIME_SHIFT_64ND_1
NOTE_OFF_35
TIME_SHIFT_64ND_3
NOTE_OFF_52
NOTE_OFF_49
NOTE_OFF_55
NOTE_OFF_34
VEL_2
NOTE_ON_40
TIME_SHIFT_64ND_4
NOTE_OFF_40
VEL_2
NOTE_ON_43
TIME_SHIFT_64ND_4
NOTE_OFF_43
VEL_2
NOTE_ON_51
VEL_3
NOTE_ON_54
VEL_2
NOTE_ON_49
VEL_2
NOTE_ON_34
TIME_SHIFT_64ND_4
NOTE_OFF_34
VEL_2
NOTE_ON_39
TIME_SHIFT_64ND_2
NOTE_OFF_51
NOTE_OFF_54
VEL_3
NOTE_ON_57
TIME_SHIFT_64ND_2
NOTE_OFF_39
VEL_2
NOTE_ON_42
TIME_SHIFT_64ND_4
NOTE_OFF_57
NOTE_OFF_49
NOTE_OFF_42
VEL_2
NOTE_ON_52
VEL_2
NOTE_ON_49
VEL_3
NOTE_ON_55
VEL_2
NOTE_ON_34
TIME_SHIFT_64ND_4
NOTE_OFF_52
NOTE_OFF_49
NOTE_OFF_55
NOTE_OFF_34
VEL_2
NOTE_ON_40
TIME_SHIFT_64ND_4
NOTE_OFF_40
VEL_2
NOTE_ON_43
TIME_SHIFT_64ND_4
NOTE_OFF_43
VEL_2
NOTE_ON_40
TIME_SHIFT_64ND_4
NOTE_OFF_40
VEL_2
NOTE_ON_37
TIME_SHIFT_64ND_4
NOTE_OFF_37
VEL_2
NOTE_ON_34
TIME_SHIFT_64ND_4
NOTE_OFF_34
VEL_3
NOTE_ON_53
VEL_3
NOTE_ON_50
VEL_3
NOTE_ON_56
VEL_2
NOTE_ON_35
TIME_SHIFT_64ND_4
NOTE_OFF_53
NOTE_OFF_50
NOTE_OFF_56
NOTE_OFF_35
VEL_2
NOTE_ON_41
TIME_SHIFT_64ND_4
NOTE_OFF_41
VEL_2
NOTE_ON_44
TIME_SHIFT_64ND_4
NOTE_OFF_44
VEL_2
NOTE_ON_52
VEL_3
NOTE_ON_55
VEL_2
NOTE_ON_50
VEL_2
NOTE_ON_35
TIME_SHIFT_64ND_4
NOTE_OFF_35
VEL_2
NOTE_ON_40
TIME_SHIFT_64ND_2
NOTE_OFF_52
NOTE_OFF_55
VEL_3
NOTE_ON_58
TIME_SHIFT_64ND_2
NOTE_OFF_40
VEL_2
NOTE_ON_43
TIME_SHIFT_64ND_4
NOTE_OFF_58
NOTE_OFF_50
NOTE_OFF_43
VEL_3
NOTE_ON_53
VEL_3
NOTE_ON_50
VEL_3
NOTE_ON_56
VEL_2
NOTE_ON_35
TIME_SHIFT_64ND_4
NOTE_OFF_53
NOTE_OFF_50
NOTE_OFF_56
NOTE_OFF_35
VEL_2
NOTE_ON_41
TIME_SHIFT_64ND_4
NOTE_OFF_41
VEL_2
NOTE_ON_44
TIME_SHIFT_64ND_4
NOTE_OFF_44
VEL_2
NOTE_ON_41
TIME_SHIFT_64ND_4
NOTE_OFF_41
VEL_2
NOTE_ON_38
TIME_SHIFT_64ND_4
NOTE_OFF_38
VEL_2
NOTE_ON_35
TIME_SHIFT_64ND_4
NOTE_OFF_35
VEL_3
NOTE_ON_44
VEL_2
NOTE_ON_32
TIME_SHIFT_64ND_3
NOTE_OFF_44
NOTE_OFF_32
VEL_3
NOTE_ON_43
VEL_2
NOTE_ON_31
TIME_SHIFT_64ND_3
NOTE_OFF_43
NOTE_OFF_31
VEL_3
NOTE_ON_44
VEL_2
NOTE_ON_32
TIME_SHIFT_64ND_3
NOTE_OFF_44
NOTE_OFF_32
VEL_3
NOTE_ON_45
VEL_2
NOTE_ON_33
TIME_SHIFT_64ND_3
NOTE_OFF_45
NOTE_OFF_33
VEL_3
NOTE_ON_46
VEL_3
NOTE_ON_34
TIME_SHIFT_64ND_3
NOTE_OFF_46
NOTE_OFF_34
VEL_3
NOTE_ON_47
VEL_3
NOTE_ON_35
TIME_SHIFT_64ND_3
NOTE_OFF_47
NOTE_OFF_35
VEL_3
NOTE_ON_48
VEL_3
NOTE_ON_36
TIME_SHIFT_64ND_3
NOTE_OFF_48
NOTE_OFF_36
VEL_4
NOTE_ON_49
VEL_3
NOTE_ON_37
TIME_SHIFT_64ND_3
NOTE_OFF_49
NOTE_OFF_37
VEL_4
NOTE_ON_50
VEL_3
NOTE_ON_38
TIME_SHIFT_64ND_3
NOTE_OFF_50
NOTE_OFF_38
VEL_4
NOTE_ON_51
VEL_3
NOTE_ON_39
TIME_SHIFT_64ND_3
NOTE_OFF_51
NOTE_OFF_39
VEL_4
NOTE_ON_52
VEL_3
NOTE_ON_40
TIME_SHIFT_64ND_3
NOTE_OFF_52
NOTE_OFF_40
VEL_4
NOTE_ON_53
VEL_3
NOTE_ON_41
TIME_SHIFT_64ND_3
NOTE_OFF_53
NOTE_OFF_41
VEL_4
NOTE_ON_52
VEL_3
NOTE_ON_40
TIME_SHIFT_64ND_3
NOTE_OFF_52
NOTE_OFF_40
VEL_4
NOTE_ON_51
VEL_3
NOTE_ON_39
TIME_SHIFT_64ND_3
NOTE_OFF_51
NOTE_OFF_39
VEL_4
NOTE_ON_50
VEL_3
NOTE_ON_38
TIME_SHIFT_64ND_3
NOTE_OFF_50
NOTE_OFF_38
VEL_4
NOTE_ON_49
VEL_3
NOTE_ON_37
TIME_SHIFT_64ND_3
NOTE_OFF_49
NOTE_OFF_37
VEL_4
NOTE_ON_48
VEL_3
NOTE_ON_36
TIME_SHIFT_64ND_3
NOTE_OFF_48
NOTE_OFF_36
VEL_3
NOTE_ON_47
VEL_3
NOTE_ON_35
TIME_SHIFT_64ND_3
NOTE_OFF_47
NOTE_OFF_35
VEL_3
NOTE_ON_48
VEL_3
NOTE_ON_36
TIME_SHIFT_64ND_3
NOTE_OFF_48
NOTE_OFF_36
VEL_3
NOTE_ON_49
VEL_3
NOTE_ON_37
TIME_SHIFT_64ND_3
NOTE_OFF_49
NOTE_OFF_37
VEL_3
NOTE_ON_50
VEL_3
NOTE_ON_38
TIME_SHIFT_64ND_3
NOTE_OFF_50
NOTE_OFF_38
VEL_3
NOTE_ON_51
VEL_3
NOTE_ON_39
TIME_SHIFT_64ND_3
NOTE_OFF_51
NOTE_OFF_39
VEL_4
NOTE_ON_52
VEL_3
NOTE_ON_40
TIME_SHIFT_64ND_3
NOTE_OFF_52
NOTE_OFF_40
VEL_4
NOTE_ON_53
VEL_3
NOTE_ON_41
TIME_SHIFT_64ND_3
NOTE_OFF_53
NOTE_OFF_41
VEL_4
NOTE_ON_54
VEL_3
NOTE_ON_42
TIME_SHIFT_64ND_3
NOTE_OFF_54
NOTE_OFF_42
VEL_4
NOTE_ON_55
VEL_3
NOTE_ON_43
TIME_SHIFT_64ND_3
NOTE_OFF_55
NOTE_OFF_43
VEL_4
NOTE_ON_56
VEL_3
NOTE_ON_44
TIME_SHIFT_64ND_3
NOTE_OFF_56
NOTE_OFF_44
VEL_4
NOTE_ON_55
VEL_3
NOTE_ON_43
TIME_SHIFT_64ND_3
NOTE_OFF_55
NOTE_OFF_43
VEL_4
NOTE_ON_54
VEL_3
NOTE_ON_42
TIME_SHIFT_64ND_3
NOTE_OFF_54
NOTE_OFF_42
VEL_4
NOTE_ON_53
VEL_3
NOTE_ON_41
TIME_SHIFT_64ND_3
NOTE_OFF_53
NOTE_OFF_41
VEL_4
NOTE_ON_52
VEL_3
NOTE_ON_40
TIME_SHIFT_64ND_3
NOTE_OFF_52
NOTE_OFF_40
VEL_3
NOTE_ON_51
VEL_2
NOTE_ON_39
TIME_SHIFT_64ND_3
NOTE_OFF_51
NOTE_OFF_39
VEL_3
NOTE_ON_38
VEL_3
NOTE_ON_50
TIME_SHIFT_64ND_3
NOTE_OFF_38
NOTE_OFF_50
VEL_4
NOTE_ON_51
VEL_4
NOTE_ON_63
TIME_SHIFT_64ND_3
NOTE_OFF_51
NOTE_OFF_63
VEL_3
NOTE_ON_40
VEL_3
NOTE_ON_52
TIME_SHIFT_64ND_3
NOTE_OFF_40
NOTE_OFF_52
VEL_4
NOTE_ON_53
VEL_4
NOTE_ON_65
TIME_SHIFT_64ND_3
NOTE_OFF_53
NOTE_OFF_65
VEL_4
NOTE_ON_42
VEL_4
NOTE_ON_54
TIME_SHIFT_64ND_3
NOTE_OFF_42
NOTE_OFF_54
VEL_4
NOTE_ON_55
VEL_4
NOTE_ON_67
TIME_SHIFT_64ND_3
NOTE_OFF_55
NOTE_OFF_67
VEL_4
NOTE_ON_44
VEL_4
NOTE_ON_56
TIME_SHIFT_64ND_3
NOTE_OFF_44
NOTE_OFF_56
VEL_4
NOTE_ON_57
VEL_4
NOTE_ON_69
TIME_SHIFT_64ND_3
NOTE_OFF_57
NOTE_OFF_69
VEL_4
NOTE_ON_46
VEL_4
NOTE_ON_58
TIME_SHIFT_64ND_3
NOTE_OFF_46
NOTE_OFF_58
VEL_4
NOTE_ON_59
VEL_4
NOTE_ON_71
TIME_SHIFT_64ND_3
NOTE_OFF_59
NOTE_OFF_71
VEL_4
NOTE_ON_47
VEL_4
NOTE_ON_59
TIME_SHIFT_64ND_3
NOTE_OFF_47
NOTE_OFF_59
VEL_4
NOTE_ON_58
VEL_4
NOTE_ON_70
TIME_SHIFT_64ND_3
NOTE_OFF_58
NOTE_OFF_70
VEL_4
NOTE_ON_45
VEL_4
NOTE_ON_57
TIME_SHIFT_64ND_3
NOTE_OFF_45
NOTE_OFF_57
VEL_4
NOTE_ON_56
VEL_4
NOTE_ON_68
TIME_SHIFT_64ND_3
NOTE_OFF_56
NOTE_OFF_68
VEL_4
NOTE_ON_43
VEL_4
NOTE_ON_55
TIME_SHIFT_64ND_3
NOTE_OFF_43
NOTE_OFF_55
VEL_4
NOTE_ON_54
VEL_4
NOTE_ON_66
TIME_SHIFT_64ND_3
NOTE_OFF_54
NOTE_OFF_66
VEL_4
NOTE_ON_41
VEL_4
NOTE_ON_53
TIME_SHIFT_64ND_3
NOTE_OFF_41
NOTE_OFF_53
VEL_3
NOTE_ON_54
VEL_3
NOTE_ON_66
TIME_SHIFT_64ND_3
NOTE_OFF_54
NOTE_OFF_66
VEL_3
NOTE_ON_43
VEL_3
NOTE_ON_55
TIME_SHIFT_64ND_3
NOTE_OFF_43
NOTE_OFF_55
VEL_4
NOTE_ON_56
VEL_4
NOTE_ON_68
TIME_SHIFT_64ND_3
NOTE_OFF_56
NOTE_OFF_68
VEL_4
NOTE_ON_45
VEL_4
NOTE_ON_57
TIME_SHIFT_64ND_3
NOTE_OFF_45
NOTE_OFF_57
VEL_4
NOTE_ON_58
VEL_4
NOTE_ON_70
TIME_SHIFT_64ND_3
NOTE_OFF_58
NOTE_OFF_70
VEL_4
NOTE_ON_47
VEL_4
NOTE_ON_59
TIME_SHIFT_64ND_3
NOTE_OFF_47
NOTE_OFF_59
VEL_4
NOTE_ON_60
VEL_4
NOTE_ON_72
TIME_SHIFT_64ND_3
NOTE_OFF_60
NOTE_OFF_72
VEL_4
NOTE_ON_49
VEL_4
NOTE_ON_61
TIME_SHIFT_64ND_3
NOTE_OFF_49
NOTE_OFF_61
VEL_4
NOTE_ON_62
VEL_4
NOTE_ON_74
TIME_SHIFT_64ND_3
NOTE_OFF_62
NOTE_OFF_74
VEL_4
NOTE_ON_50
VEL_4
NOTE_ON_62
TIME_SHIFT_64ND_3
NOTE_OFF_50
NOTE_OFF_62
VEL_4
NOTE_ON_61
VEL_4
NOTE_ON_73
TIME_SHIFT_64ND_3
NOTE_OFF_61
NOTE_OFF_73
VEL_4
NOTE_ON_48
VEL_4
NOTE_ON_60
TIME_SHIFT_64ND_3
NOTE_OFF_48
NOTE_OFF_60
VEL_4
NOTE_ON_59
VEL_4
NOTE_ON_71
TIME_SHIFT_64ND_3
NOTE_OFF_59
NOTE_OFF_71
VEL_3
NOTE_ON_46
VEL_3
NOTE_ON_58
TIME_SHIFT_64ND_3
NOTE_OFF_46
NOTE_OFF_58
VEL_4
NOTE_ON_57
VEL_4
NOTE_ON_69
TIME_SHIFT_64ND_3
NOTE_OFF_57
NOTE_OFF_69
VEL_3
NOTE_ON_44
VEL_3
NOTE_ON_56
TIME_SHIFT_64ND_3
NOTE_OFF_44
NOTE_OFF_56
VEL_4
NOTE_ON_57
VEL_4
NOTE_ON_69
TIME_SHIFT_64ND_3
NOTE_OFF_57
NOTE_OFF_69
VEL_4
NOTE_ON_46
VEL_4
NOTE_ON_58
TIME_SHIFT_64ND_3
NOTE_OFF_46
NOTE_OFF_58
VEL_4
NOTE_ON_59
VEL_4
NOTE_ON_71
TIME_SHIFT_64ND_3
NOTE_OFF_59
NOTE_OFF_71
VEL_4
NOTE_ON_48
VEL_4
NOTE_ON_60
TIME_SHIFT_64ND_3
NOTE_OFF_48
NOTE_OFF_60
VEL_4
NOTE_ON_61
VEL_4
NOTE_ON_73
TIME_SHIFT_64ND_3
NOTE_OFF_61
NOTE_OFF_73
VEL_4
NOTE_ON_50
VEL_4
NOTE_ON_62
TIME_SHIFT_64ND_3
NOTE_OFF_50
NOTE_OFF_62
VEL_4
NOTE_ON_63
VEL_4
NOTE_ON_75
TIME_SHIFT_64ND_3
NOTE_OFF_63
NOTE_OFF_75
VEL_4
NOTE_ON_52
VEL_4
NOTE_ON_64
TIME_SHIFT_64ND_3
NOTE_OFF_52
NOTE_OFF_64
VEL_5
NOTE_ON_65
VEL_5
NOTE_ON_77
TIME_SHIFT_64ND_3
NOTE_OFF_65
NOTE_OFF_77
VEL_4
NOTE_ON_52
VEL_4
NOTE_ON_64
TIME_SHIFT_64ND_3
NOTE_OFF_52
NOTE_OFF_64
VEL_4
NOTE_ON_63
VEL_4
NOTE_ON_75
TIME_SHIFT_64ND_3
NOTE_OFF_63
NOTE_OFF_75
VEL_4
NOTE_ON_50
VEL_4
NOTE_ON_62
TIME_SHIFT_64ND_3
NOTE_OFF_50
NOTE_OFF_62
VEL_4
NOTE_ON_61
VEL_4
NOTE_ON_73
TIME_SHIFT_64ND_3
NOTE_OFF_61
NOTE_OFF_73
VEL_4
NOTE_ON_48
VEL_4
NOTE_ON_60
TIME_SHIFT_64ND_3
NOTE_OFF_48
NOTE_OFF_60
VEL_3
NOTE_ON_59
VEL_3
NOTE_ON_71
TIME_SHIFT_64ND_3
NOTE_OFF_59
NOTE_OFF_71
VEL_3
NOTE_ON_46
VEL_4
NOTE_ON_58
TIME_SHIFT_64ND_3
NOTE_OFF_46
NOTE_OFF_58
VEL_4
NOTE_ON_57
VEL_4
NOTE_ON_69
TIME_SHIFT_64ND_3
NOTE_OFF_57
NOTE_OFF_69
VEL_4
NOTE_ON_44
VEL_4
NOTE_ON_56
TIME_SHIFT_64ND_3
NOTE_OFF_44
NOTE_OFF_56
VEL_4
NOTE_ON_57
VEL_4
NOTE_ON_69
TIME_SHIFT_64ND_3
NOTE_OFF_57
NOTE_OFF_69
VEL_4
NOTE_ON_46
VEL_4
NOTE_ON_58
TIME_SHIFT_64ND_3
NOTE_OFF_46
NOTE_OFF_58
VEL_4
NOTE_ON_59
VEL_4
NOTE_ON_71
TIME_SHIFT_64ND_3
NOTE_OFF_59
NOTE_OFF_71
VEL_4
NOTE_ON_48
VEL_4
NOTE_ON_60
TIME_SHIFT_64ND_3
NOTE_OFF_48
NOTE_OFF_60
VEL_4
NOTE_ON_61
VEL_4
NOTE_ON_73
TIME_SHIFT_64ND_3
NOTE_OFF_61
NOTE_OFF_73
VEL_4
NOTE_ON_50
VEL_4
NOTE_ON_62
TIME_SHIFT_64ND_3
NOTE_OFF_50
NOTE_OFF_62
VEL_5
NOTE_ON_63
VEL_5
NOTE_ON_75
TIME_SHIFT_64ND_3
NOTE_OFF_63
NOTE_OFF_75
VEL_5
NOTE_ON_52
VEL_5
NOTE_ON_64
TIME_SHIFT_64ND_3
NOTE_OFF_52
NOTE_OFF_64
VEL_5
NOTE_ON_65
VEL_5
NOTE_ON_77
TIME_SHIFT_64ND_3
NOTE_OFF_65
NOTE_OFF_77
VEL_4
NOTE_ON_52
VEL_4
NOTE_ON_64
TIME_SHIFT_64ND_3
NOTE_OFF_52
NOTE_OFF_64
VEL_4
NOTE_ON_63
VEL_4
NOTE_ON_75
TIME_SHIFT_64ND_3
NOTE_OFF_63
NOTE_OFF_75
VEL_4
NOTE_ON_50
VEL_4
NOTE_ON_62
TIME_SHIFT_64ND_3
NOTE_OFF_50
NOTE_OFF_62
VEL_4
NOTE_ON_61
VEL_4
NOTE_ON_73
TIME_SHIFT_64ND_3
NOTE_OFF_61
NOTE_OFF_73
VEL_3
NOTE_ON_48
VEL_4
NOTE_ON_60
TIME_SHIFT_64ND_3
NOTE_OFF_48
NOTE_OFF_60
VEL_4
NOTE_ON_59
VEL_4
NOTE_ON_71
TIME_SHIFT_64ND_3
NOTE_OFF_59
NOTE_OFF_71
VEL_4
NOTE_ON_46
VEL_4
NOTE_ON_58
TIME_SHIFT_64ND_3
NOTE_OFF_46
NOTE_OFF_58
VEL_4
NOTE_ON_57
VEL_4
NOTE_ON_69
TIME_SHIFT_64ND_3
NOTE_OFF_57
NOTE_OFF_69
VEL_4
NOTE_ON_44
VEL_4
NOTE_ON_56
TIME_SHIFT_64ND_3
NOTE_OFF_44
NOTE_OFF_56
VEL_4
NOTE_ON_57
VEL_4
NOTE_ON_69
TIME_SHIFT_64ND_3
NOTE_OFF_57
NOTE_OFF_69
VEL_4
NOTE_ON_46
VEL_4
NOTE_ON_58
TIME_SHIFT_64ND_3
NOTE_OFF_46
NOTE_OFF_58
VEL_4
NOTE_ON_59
VEL_4
NOTE_ON_71
TIME_SHIFT_64ND_3
NOTE_OFF_59
NOTE_OFF_71
VEL_4
NOTE_ON_48
VEL_4
NOTE_ON_60
TIME_SHIFT_64ND_3
NOTE_OFF_48
NOTE_OFF_60
VEL_4
NOTE_ON_61
VEL_4
NOTE_ON_73
TIME_SHIFT_64ND_3
NOTE_OFF_61
NOTE_OFF_73
VEL_4
NOTE_ON_50
VEL_4
NOTE_ON_62
TIME_SHIFT_64ND_3
NOTE_OFF_50
NOTE_OFF_62
VEL_4
NOTE_ON_63
VEL_4
NOTE_ON_75
TIME_SHIFT_64ND_3
NOTE_OFF_63
NOTE_OFF_75
VEL_4
NOTE_ON_52
VEL_4
NOTE_ON_64
TIME_SHIFT_64ND_3
NOTE_OFF_52
NOTE_OFF_64
VEL_4
NOTE_ON_65
VEL_4
NOTE_ON_77
TIME_SHIFT_64ND_3
NOTE_OFF_65
NOTE_OFF_77
VEL_4
NOTE_ON_53
VEL_4
NOTE_ON_65
TIME_SHIFT_64ND_3
NOTE_OFF_53
NOTE_OFF_65
VEL_5
NOTE_ON_68
VEL_5
NOTE_ON_80
TIME_SHIFT_64ND_3
NOTE_OFF_68
NOTE_OFF_80
VEL_4
NOTE_ON_50
VEL_4
NOTE_ON_62
TIME_SHIFT_64ND_3
NOTE_OFF_50
NOTE_OFF_62
VEL_4
NOTE_ON_71
VEL_4
NOTE_ON_83
TIME_SHIFT_64ND_3
NOTE_OFF_71
NOTE_OFF_83
VEL_4
NOTE_ON_47
VEL_4
NOTE_ON_59
TIME_SHIFT_64ND_3
NOTE_OFF_47
NOTE_OFF_59
VEL_4
NOTE_ON_74
VEL_4
NOTE_ON_86
TIME_SHIFT_64ND_3
NOTE_OFF_74
NOTE_OFF_86
VEL_4
NOTE_ON_44
VEL_4
NOTE_ON_56
TIME_SHIFT_64ND_3
NOTE_OFF_44
NOTE_OFF_56
VEL_4
NOTE_ON_77
VEL_4
NOTE_ON_89
TIME_SHIFT_64ND_3
NOTE_OFF_77
NOTE_OFF_89
VEL_5
NOTE_ON_41
VEL_5
NOTE_ON_53
TIME_SHIFT_64ND_3
NOTE_OFF_41
NOTE_OFF_53
VEL_5
NOTE_ON_80
VEL_5
NOTE_ON_92
TIME_SHIFT_64ND_3
NOTE_OFF_80
NOTE_OFF_92
VEL_5
NOTE_ON_38
VEL_5
NOTE_ON_50
TIME_SHIFT_64ND_3
NOTE_OFF_38
NOTE_OFF_50
VEL_5
NOTE_ON_83
VEL_5
NOTE_ON_95
TIME_SHIFT_64ND_3
NOTE_OFF_83
NOTE_OFF_95
VEL_5
NOTE_ON_35
VEL_5
NOTE_ON_47
TIME_SHIFT_64ND_3
NOTE_OFF_35
NOTE_OFF_47
VEL_5
NOTE_ON_86
VEL_5
NOTE_ON_98
TIME_SHIFT_64ND_3
NOTE_OFF_86
NOTE_OFF_98
VEL_5
NOTE_ON_32
VEL_5
NOTE_ON_44
TIME_SHIFT_64ND_3
NOTE_OFF_32
NOTE_OFF_44
VEL_5
NOTE_ON_89
VEL_5
NOTE_ON_101
TIME_SHIFT_64ND_3
NOTE_OFF_89
NOTE_OFF_101
TIME_SHIFT_64ND_23
VEL_5
NOTE_ON_62
VEL_5
NOTE_ON_59
VEL_6
NOTE_ON_68
VEL_3
NOTE_ON_41
VEL_4
NOTE_ON_53
TIME_SHIFT_64ND_6
NOTE_OFF_62
NOTE_OFF_59
NOTE_OFF_68
NOTE_OFF_41
NOTE_OFF_53
TIME_SHIFT_64ND_6
VEL_5
NOTE_ON_60
VEL_5
NOTE_ON_57
VEL_6
NOTE_ON_69
VEL_4
NOTE_ON_39
VEL_5
NOTE_ON_51
TIME_SHIFT_64ND_6
NOTE_OFF_60
NOTE_OFF_57
NOTE_OFF_69
NOTE_OFF_39
NOTE_OFF_51
VEL_4
NOTE_ON_42
VEL_4
NOTE_ON_54
TIME_SHIFT_64ND_6
NOTE_OFF_42
NOTE_OFF_54
VEL_5
NOTE_ON_68
VEL_5
NOTE_ON_80
VEL_4
NOTE_ON_45
VEL_4
NOTE_ON_57
TIME_SHIFT_64ND_3
NOTE_OFF_68
NOTE_OFF_80
TIME_SHIFT_64ND_3
NOTE_OFF_45
NOTE_OFF_57
VEL_4
NOTE_ON_71
VEL_5
NOTE_ON_83
TIME_SHIFT_64ND_3
NOTE_OFF_71
NOTE_OFF_83
TIME_SHIFT_64ND_3
VEL_5
NOTE_ON_73
VEL_5
NOTE_ON_69
VEL_6
NOTE_ON_81
VEL_4
NOTE_ON_37
VEL_4
NOTE_ON_49
TIME_SHIFT_64ND_6
NOTE_OFF_73
NOTE_OFF_69
NOTE_OFF_81
NOTE_OFF_37
NOTE_OFF_49
VEL_3
NOTE_ON_42
VEL_4
NOTE_ON_54
TIME_SHIFT_64ND_6
NOTE_OFF_42
NOTE_OFF_54
VEL_4
NOTE_ON_80
VEL_5
NOTE_ON_92
VEL_3
NOTE_ON_45
VEL_4
NOTE_ON_57
TIME_SHIFT_64ND_3
NOTE_OFF_80
NOTE_OFF_92
TIME_SHIFT_64ND_3
NOTE_OFF_45
NOTE_OFF_57
VEL_4
NOTE_ON_83
VEL_5
NOTE_ON_95
TIME_SHIFT_64ND_3
NOTE_OFF_83
NOTE_OFF_95
TIME_SHIFT_64ND_3
VEL_5
NOTE_ON_81
VEL_6
NOTE_ON_93
VEL_5
NOTE_ON_87
VEL_4
NOTE_ON_36
VEL_4
NOTE_ON_48
TIME_SHIFT_64ND_6
NOTE_OFF_81
NOTE_OFF_93
NOTE_OFF_87
NOTE_OFF_36
NOTE_OFF_48
VEL_3
NOTE_ON_42
VEL_4
NOTE_ON_54
TIME_SHIFT_64ND_6
NOTE_OFF_42
NOTE_OFF_54
VEL_4
NOTE_ON_68
VEL_5
NOTE_ON_80
VEL_3
NOTE_ON_45
VEL_4
NOTE_ON_57
TIME_SHIFT_64ND_6
NOTE_OFF_68
NOTE_OFF_80
NOTE_OFF_45
NOTE_OFF_57
TIME_SHIFT_64ND_6
VEL_5
NOTE_ON_69
VEL_5
NOTE_ON_81
VEL_5
NOTE_ON_75
VEL_4
NOTE_ON_35
VEL_4
NOTE_ON_47
TIME_SHIFT_64ND_6
NOTE_OFF_35
NOTE_OFF_47
VEL_4
NOTE_ON_39
VEL_4
NOTE_ON_51
TIME_SHIFT_64ND_6
NOTE_OFF_39
NOTE_OFF_51
VEL_4
NOTE_ON_42
VEL_4
NOTE_ON_54
TIME_SHIFT_64ND_6
NOTE_OFF_42
NOTE_OFF_54
TIME_SHIFT_64ND_6
NOTE_OFF_69
NOTE_OFF_81
NOTE_OFF_75
VEL_4
NOTE_ON_61
VEL_5
NOTE_ON_66
VEL_5
NOTE_ON_69
VEL_4
NOTE_ON_57
VEL_3
NOTE_ON_33
VEL_4
NOTE_ON_45
TIME_SHIFT_64ND_6
NOTE_OFF_61
NOTE_OFF_66
NOTE_OFF_69
NOTE_OFF_57
NOTE_OFF_33
NOTE_OFF_45
VEL_3
NOTE_ON_56
VEL_4
NOTE_ON_68
VEL_3
NOTE_ON_37
VEL_4
NOTE_ON_49
TIME_SHIFT_64ND_6
NOTE_OFF_56
NOTE_OFF_68
NOTE_OFF_37
NOTE_OFF_49
VEL_4
NOTE_ON_57
VEL_4
NOTE_ON_69
VEL_3
NOTE_ON_42
VEL_4
NOTE_ON_54
TIME_SHIFT_64ND_6
NOTE_OFF_57
NOTE_OFF_69
NOTE_OFF_42
NOTE_OFF_54
VEL_4
NOTE_ON_59
VEL_5
NOTE_ON_71
TIME_SHIFT_64ND_6
NOTE_OFF_59
NOTE_OFF_71
VEL_4
NOTE_ON_66
VEL_5
NOTE_ON_72
VEL_4
NOTE_ON_60
VEL_4
NOTE_ON_63
VEL_3
NOTE_ON_32
VEL_4
NOTE_ON_44
TIME_SHIFT_64ND_6
NOTE_OFF_32
NOTE_OFF_44
VEL_3
NOTE_ON_36
VEL_4
NOTE_ON_48
TIME_SHIFT_64ND_6
NOTE_OFF_36
NOTE_OFF_48
VEL_3
NOTE_ON_39
VEL_3
NOTE_ON_51
TIME_SHIFT_64ND_6
NOTE_OFF_39
NOTE_OFF_51
TIME_SHIFT_64ND_6
NOTE_OFF_66
NOTE_OFF_72
NOTE_OFF_60
NOTE_OFF_63
VEL_4
NOTE_ON_87
VEL_4
NOTE_ON_84
VEL_5
NOTE_ON_96
VEL_3
NOTE_ON_31
VEL_4
NOTE_ON_43
TIME_SHIFT_64ND_6
NOTE_OFF_87
NOTE_OFF_84
NOTE_OFF_96
NOTE_OFF_31
NOTE_OFF_43
VEL_4
NOTE_ON_83
VEL_5
NOTE_ON_95
VEL_3
NOTE_ON_36
VEL_4
NOTE_ON_48
TIME_SHIFT_64ND_6
NOTE_OFF_83
NOTE_OFF_95
NOTE_OFF_36
NOTE_OFF_48
VEL_4
NOTE_ON_81
VEL_5
NOTE_ON_93
VEL_3
NOTE_ON_39
VEL_4
NOTE_ON_51
TIME_SHIFT_64ND_6
NOTE_OFF_81
NOTE_OFF_93
NOTE_OFF_39
NOTE_OFF_51
VEL_4
NOTE_ON_80
VEL_5
NOTE_ON_92
TIME_SHIFT_64ND_6
NOTE_OFF_80
NOTE_OFF_92
VEL_4
NOTE_ON_81
VEL_4
NOTE_ON_87
VEL_5
NOTE_ON_93
VEL_3
NOTE_ON_30
VEL_4
NOTE_ON_42
TIME_SHIFT_64ND_6
NOTE_OFF_30
NOTE_OFF_42
VEL_3
NOTE_ON_33
VEL_3
NOTE_ON_45
TIME_SHIFT_64ND_6
NOTE_OFF_33
NOTE_OFF_45
VEL_3
NOTE_ON_48
VEL_3
NOTE_ON_36
TIME_SHIFT_64ND_6
NOTE_OFF_81
NOTE_OFF_87
NOTE_OFF_93
VEL_4
NOTE_ON_60
VEL_4
NOTE_ON_72
TIME_SHIFT_64ND_3
NOTE_OFF_60
NOTE_OFF_72
TIME_SHIFT_64ND_3
NOTE_OFF_48
NOTE_OFF_36
VEL_4
NOTE_ON_59
VEL_5
NOTE_ON_71
VEL_3
NOTE_ON_35
VEL_3
NOTE_ON_47
TIME_SHIFT_64ND_6
NOTE_OFF_59
NOTE_OFF_71
NOTE_OFF_35
NOTE_OFF_47
VEL_4
NOTE_ON_57
VEL_4
NOTE_ON_69
VEL_2
NOTE_ON_33
VEL_3
NOTE_ON_45
TIME_SHIFT_64ND_5
NOTE_OFF_57
NOTE_OFF_69
NOTE_OFF_33
NOTE_OFF_45
TIME_SHIFT_64ND_1
VEL_4
NOTE_ON_55
VEL_4
NOTE_ON_67
VEL_2
NOTE_ON_31
VEL_3
NOTE_ON_43
TIME_SHIFT_64ND_3
NOTE_OFF_55
NOTE_OFF_67
NOTE_OFF_31
NOTE_OFF_43
TIME_SHIFT_64ND_3
VEL_4
NOTE_ON_59
VEL_4
NOTE_ON_71
VEL_2
NOTE_ON_35
VEL_3
NOTE_ON_47
TIME_SHIFT_64ND_3
NOTE_OFF_59
NOTE_OFF_71
NOTE_OFF_35
NOTE_OFF_47
TIME_SHIFT_64ND_3
VEL_4
NOTE_ON_57
VEL_5
NOTE_ON_69
VEL_3
NOTE_ON_33
VEL_3
NOTE_ON_45
TIME_SHIFT_64ND_6
NOTE_OFF_57
NOTE_OFF_69
NOTE_OFF_33
NOTE_OFF_45
VEL_4
NOTE_ON_55
VEL_4
NOTE_ON_67
VEL_2
NOTE_ON_31
VEL_3
NOTE_ON_43
TIME_SHIFT_64ND_5
NOTE_OFF_55
NOTE_OFF_67
NOTE_OFF_31
NOTE_OFF_43
TIME_SHIFT_64ND_1
VEL_4
NOTE_ON_53
VEL_4
NOTE_ON_65
VEL_2
NOTE_ON_29
VEL_3
NOTE_ON_41
TIME_SHIFT_64ND_3
NOTE_OFF_53
NOTE_OFF_65
NOTE_OFF_29
NOTE_OFF_41
TIME_SHIFT_64ND_3
VEL_4
NOTE_ON_57
VEL_5
NOTE_ON_69
VEL_2
NOTE_ON_33
VEL_3
NOTE_ON_45
TIME_SHIFT_64ND_3
NOTE_OFF_57
NOTE_OFF_69
NOTE_OFF_33
NOTE_OFF_45
TIME_SHIFT_64ND_3
VEL_4
NOTE_ON_55
VEL_5
NOTE_ON_67
VEL_3
NOTE_ON_31
VEL_3
NOTE_ON_43
TIME_SHIFT_64ND_6
NOTE_OFF_55
NOTE_OFF_67
NOTE_OFF_31
NOTE_OFF_43
VEL_4
NOTE_ON_53
VEL_5
NOTE_ON_65
VEL_2
NOTE_ON_29
VEL_3
NOTE_ON_41
TIME_SHIFT_64ND_5
NOTE_OFF_53
NOTE_OFF_65
NOTE_OFF_29
NOTE_OFF_41
TIME_SHIFT_64ND_1
VEL_4
NOTE_ON_52
VEL_5
NOTE_ON_64
VEL_2
NOTE_ON_28
VEL_3
NOTE_ON_40
TIME_SHIFT_64ND_3
NOTE_OFF_52
NOTE_OFF_64
NOTE_OFF_28
NOTE_OFF_40
TIME_SHIFT_64ND_3
VEL_4
NOTE_ON_55
VEL_5
NOTE_ON_67
VEL_2
NOTE_ON_31
VEL_3
NOTE_ON_43
TIME_SHIFT_64ND_3
NOTE_OFF_55
NOTE_OFF_67
NOTE_OFF_31
NOTE_OFF_43
TIME_SHIFT_64ND_3
VEL_4
NOTE_ON_53
VEL_5
NOTE_ON_65
VEL_3
NOTE_ON_29
VEL_3
NOTE_ON_41
TIME_SHIFT_64ND_6
NOTE_OFF_53
NOTE_OFF_65
NOTE_OFF_29
NOTE_OFF_41
VEL_4
NOTE_ON_52
VEL_5
NOTE_ON_64
VEL_2
NOTE_ON_28
VEL_3
NOTE_ON_40
TIME_SHIFT_64ND_5
NOTE_OFF_52
NOTE_OFF_64
NOTE_OFF_28
NOTE_OFF_40
TIME_SHIFT_64ND_1
VEL_4
NOTE_ON_51
VEL_5
NOTE_ON_63
VEL_2
NOTE_ON_27
VEL_3
NOTE_ON_39
TIME_SHIFT_64ND_3
NOTE_OFF_51
NOTE_OFF_63
NOTE_OFF_27
NOTE_OFF_39
TIME_SHIFT_64ND_3
VEL_4
NOTE_ON_53
VEL_5
NOTE_ON_65
VEL_2
NOTE_ON_29
VEL_3
NOTE_ON_41
TIME_SHIFT_64ND_3
NOTE_OFF_53
NOTE_OFF_65
NOTE_OFF_29
NOTE_OFF_41
TIME_SHIFT_64ND_3
VEL_4
NOTE_ON_53
VEL_5
NOTE_ON_65
VEL_3
NOTE_ON_29
VEL_3
NOTE_ON_41
TIME_SHIFT_64ND_6
NOTE_OFF_53
NOTE_OFF_65
NOTE_OFF_29
NOTE_OFF_41
VEL_4
NOTE_ON_52
VEL_5
NOTE_ON_64
VEL_2
NOTE_ON_28
VEL_3
NOTE_ON_40
TIME_SHIFT_64ND_5
NOTE_OFF_52
NOTE_OFF_64
NOTE_OFF_28
NOTE_OFF_40
TIME_SHIFT_64ND_1
VEL_4
NOTE_ON_52
VEL_5
NOTE_ON_64
VEL_2
NOTE_ON_28
VEL_3
NOTE_ON_40
TIME_SHIFT_64ND_3
NOTE_OFF_52
NOTE_OFF_64
NOTE_OFF_28
NOTE_OFF_40
TIME_SHIFT_64ND_3
VEL_4
NOTE_ON_51
VEL_5
NOTE_ON_63
VEL_2
NOTE_ON_27
VEL_3
NOTE_ON_39
TIME_SHIFT_64ND_3
NOTE_OFF_51
NOTE_OFF_63
NOTE_OFF_27
NOTE_OFF_39
TIME_SHIFT_64ND_3
VEL_4
NOTE_ON_53
VEL_5
NOTE_ON_65
VEL_3
NOTE_ON_29
VEL_4
NOTE_ON_41
TIME_SHIFT_64ND_6
NOTE_OFF_53
NOTE_OFF_65
NOTE_OFF_29
NOTE_OFF_41
VEL_4
NOTE_ON_52
VEL_5
NOTE_ON_64
VEL_2
NOTE_ON_28
VEL_3
NOTE_ON_40
TIME_SHIFT_64ND_5
NOTE_OFF_52
NOTE_OFF_64
NOTE_OFF_28
NOTE_OFF_40
TIME_SHIFT_64ND_1
VEL_4
NOTE_ON_52
VEL_5
NOTE_ON_64
VEL_2
NOTE_ON_28
VEL_3
NOTE_ON_40
TIME_SHIFT_64ND_3
NOTE_OFF_52
NOTE_OFF_64
NOTE_OFF_28
NOTE_OFF_40
TIME_SHIFT_64ND_3
VEL_4
NOTE_ON_51
VEL_5
NOTE_ON_63
VEL_2
NOTE_ON_27
VEL_3
NOTE_ON_39
TIME_SHIFT_64ND_3
NOTE_OFF_51
NOTE_OFF_63
NOTE_OFF_27
NOTE_OFF_39
TIME_SHIFT_64ND_3
VEL_5
NOTE_ON_52
VEL_6
NOTE_ON_64
VEL_3
NOTE_ON_28
VEL_4
NOTE_ON_40
TIME_SHIFT_64ND_24
NOTE_OFF_52
NOTE_OFF_64
NOTE_OFF_28
NOTE_OFF_40
VEL_4
NOTE_ON_64
VEL_5
NOTE_ON_76
VEL_4
NOTE_ON_71
VEL_4
NOTE_ON_68
VEL_3
NOTE_ON_40
VEL_4
NOTE_ON_52
VEL_3
NOTE_ON_47
VEL_3
NOTE_ON_44
TIME_SHIFT_64ND_6
NOTE_OFF_64
NOTE_OFF_76
NOTE_OFF_71
NOTE_OFF_68
NOTE_OFF_40
NOTE_OFF_52
NOTE_OFF_47
NOTE_OFF_44
TIME_SHIFT_64ND_6
VEL_4
NOTE_ON_76
VEL_4
NOTE_ON_52
TIME_SHIFT_64ND_4
NOTE_OFF_76
NOTE_OFF_52
VEL_5
NOTE_ON_78
VEL_4
NOTE_ON_54
TIME_SHIFT_64ND_4
NOTE_OFF_78
NOTE_OFF_54
VEL_5
NOTE_ON_80
VEL_4
NOTE_ON_56
TIME_SHIFT_64ND_4
NOTE_OFF_80
NOTE_OFF_56
VEL_4
NOTE_ON_69
VEL_5
NOTE_ON_81
VEL_3
NOTE_ON_45
VEL_4
NOTE_ON_57
TIME_SHIFT_64ND_6
NOTE_OFF_69
NOTE_OFF_81
NOTE_OFF_45
NOTE_OFF_57
TIME_SHIFT_64ND_6
VEL_4
NOTE_ON_68
VEL_4
NOTE_ON_80
VEL_4
NOTE_ON_71
VEL_2
NOTE_ON_41
VEL_3
NOTE_ON_53
TIME_SHIFT_64ND_3
NOTE_OFF_68
NOTE_OFF_80
NOTE_OFF_71
TIME_SHIFT_64ND_3
NOTE_OFF_41
NOTE_OFF_53
VEL_3
NOTE_ON_71
VEL_4
NOTE_ON_83
VEL_3
NOTE_ON_74
TIME_SHIFT_64ND_3
NOTE_OFF_71
NOTE_OFF_83
NOTE_OFF_74
TIME_SHIFT_64ND_3
VEL_4
NOTE_ON_72
VEL_4
NOTE_ON_69
VEL_5
NOTE_ON_81
VEL_3
NOTE_ON_45
VEL_4
NOTE_ON_57
TIME_SHIFT_64ND_6
NOTE_OFF_72
NOTE_OFF_69
NOTE_OFF_81
NOTE_OFF_45
NOTE_OFF_57
TIME_SHIFT_64ND_6
VEL_3
NOTE_ON_68
VEL_4
NOTE_ON_80
VEL_3
NOTE_ON_71
VEL_2
NOTE_ON_40
VEL_3
NOTE_ON_52
TIME_SHIFT_64ND_3
NOTE_OFF_68
NOTE_OFF_80
NOTE_OFF_71
TIME_SHIFT_64ND_3
NOTE_OFF_40
NOTE_OFF_52
VEL_3
NOTE_ON_71
VEL_4
NOTE_ON_83
VEL_3
NOTE_ON_74
TIME_SHIFT_64ND_3
NOTE_OFF_71
NOTE_OFF_83
NOTE_OFF_74
TIME_SHIFT_64ND_3
VEL_4
NOTE_ON_69
VEL_5
NOTE_ON_81
VEL_4
NOTE_ON_72
VEL_3
NOTE_ON_45
VEL_4
NOTE_ON_57
TIME_SHIFT_64ND_3
NOTE_OFF_69
NOTE_OFF_81
NOTE_OFF_72
NOTE_OFF_45
NOTE_OFF_57
TIME_SHIFT_64ND_9
VEL_3
NOTE_ON_68
VEL_4
NOTE_ON_80
VEL_3
NOTE_ON_71
VEL_2
NOTE_ON_41
VEL_2
NOTE_ON_38
VEL_3
NOTE_ON_50
TIME_SHIFT_64ND_3
NOTE_OFF_68
NOTE_OFF_80
NOTE_OFF_71
NOTE_OFF_41
NOTE_OFF_38
NOTE_OFF_50
TIME_SHIFT_64ND_9
VEL_4
NOTE_ON_69
VEL_5
NOTE_ON_81
VEL_4
NOTE_ON_72
VEL_3
NOTE_ON_52
VEL_3
NOTE_ON_45
VEL_4
NOTE_ON_57
TIME_SHIFT_64ND_22
VEL_3
NOTE_ON_36
TIME_SHIFT_64ND_2
NOTE_OFF_36
VEL_4
NOTE_ON_48
TIME_SHIFT_64ND_2
NOTE_OFF_69
NOTE_OFF_81
NOTE_OFF_72
NOTE_OFF_48
NOTE_OFF_52
NOTE_OFF_45
NOTE_OFF_57
VEL_3
NOTE_ON_84
VEL_4
NOTE_ON_89
VEL_4
NOTE_ON_93
VEL_3
NOTE_ON_81
VEL_3
NOTE_ON_65
VEL_4
NOTE_ON_69
VEL_3
NOTE_ON_57
VEL_3
NOTE_ON_60
TIME_SHIFT_64ND_6
NOTE_OFF_84
NOTE_OFF_89
NOTE_OFF_93
NOTE_OFF_81
VEL_3
NOTE_ON_80
VEL_4
NOTE_ON_92
TIME_SHIFT_64ND_6
NOTE_OFF_80
NOTE_OFF_92
VEL_3
NOTE_ON_81
VEL_4
NOTE_ON_93
TIME_SHIFT_64ND_6
NOTE_OFF_81
NOTE_OFF_93
VEL_3
NOTE_ON_83
VEL_4
NOTE_ON_95
TIME_SHIFT_64ND_3
NOTE_OFF_65
NOTE_OFF_69
NOTE_OFF_57
NOTE_OFF_60
VEL_3
NOTE_ON_36
TIME_SHIFT_64ND_2
NOTE_OFF_36
VEL_3
NOTE_ON_48
TIME_SHIFT_64ND_2
NOTE_OFF_83
NOTE_OFF_95
NOTE_OFF_48
VEL_4
NOTE_ON_88
VEL_4
NOTE_ON_84
VEL_5
NOTE_ON_96
VEL_3
NOTE_ON_67
VEL_4
NOTE_ON_72
VEL_3
NOTE_ON_60
VEL_3
NOTE_ON_64
TIME_SHIFT_64ND_22
NOTE_OFF_67
NOTE_OFF_72
NOTE_OFF_60
NOTE_OFF_64
VEL_3
NOTE_ON_33
TIME_SHIFT_64ND_2
NOTE_OFF_33
VEL_3
NOTE_ON_45
TIME_SHIFT_64ND_2
NOTE_OFF_88
NOTE_OFF_84
NOTE_OFF_96
NOTE_OFF_45
VEL_4
NOTE_ON_89
VEL_4
NOTE_ON_84
VEL_5
NOTE_ON_96
VEL_3
NOTE_ON_57
VEL_3
NOTE_ON_65
VEL_3
NOTE_ON_53
VEL_3
NOTE_ON_62
TIME_SHIFT_64ND_6
NOTE_OFF_89
NOTE_OFF_84
NOTE_OFF_96
VEL_3
NOTE_ON_83
VEL_4
NOTE_ON_95
TIME_SHIFT_64ND_6
NOTE_OFF_83
NOTE_OFF_95
VEL_3
NOTE_ON_81
VEL_4
NOTE_ON_93
TIME_SHIFT_64ND_6
NOTE_OFF_81
NOTE_OFF_93
VEL_3
NOTE_ON_80
VEL_4
NOTE_ON_92
TIME_SHIFT_64ND_3
NOTE_OFF_57
NOTE_OFF_65
NOTE_OFF_53
NOTE_OFF_62
VEL_3
NOTE_ON_33
TIME_SHIFT_64ND_2
NOTE_OFF_33
VEL_3
NOTE_ON_45
TIME_SHIFT_64ND_2
NOTE_OFF_80
NOTE_OFF_92
NOTE_OFF_45
VEL_4
NOTE_ON_81
VEL_4
NOTE_ON_84
VEL_5
NOTE_ON_93
VEL_4
NOTE_ON_88
VEL_3
NOTE_ON_64
VEL_3
NOTE_ON_69
VEL_3
NOTE_ON_57
VEL_3
NOTE_ON_60
TIME_SHIFT_64ND_19
NOTE_OFF_81
NOTE_OFF_84
NOTE_OFF_93
NOTE_OFF_88
VEL_3
NOTE_ON_84
VEL_4
NOTE_ON_96
TIME_SHIFT_64ND_3
NOTE_OFF_84
NOTE_OFF_96
TIME_SHIFT_64ND_3
NOTE_OFF_64
NOTE_OFF_69
NOTE_OFF_57
NOTE_OFF_60
VEL_3
NOTE_ON_83
VEL_4
NOTE_ON_95
VEL_3
NOTE_ON_35
VEL_4
NOTE_ON_47
TIME_SHIFT_64ND_6
NOTE_OFF_83
NOTE_OFF_95
NOTE_OFF_35
NOTE_OFF_47
VEL_3
NOTE_ON_81
VEL_4
NOTE_ON_93
TIME_SHIFT_64ND_5
NOTE_OFF_81
NOTE_OFF_93
TIME_SHIFT_64ND_1
VEL_3
NOTE_ON_80
VEL_4
NOTE_ON_92
VEL_3
NOTE_ON_64
VEL_3
NOTE_ON_59
VEL_3
NOTE_ON_68
TIME_SHIFT_64ND_3
NOTE_OFF_80
NOTE_OFF_92
TIME_SHIFT_64ND_3
NOTE_OFF_64
NOTE_OFF_59
NOTE_OFF_68
VEL_3
NOTE_ON_83
VEL_4
NOTE_ON_95
TIME_SHIFT_64ND_3
NOTE_OFF_83
NOTE_OFF_95
TIME_SHIFT_64ND_3
VEL_3
NOTE_ON_81
VEL_4
NOTE_ON_93
VEL_4
NOTE_ON_47
TIME_SHIFT_64ND_6
NOTE_OFF_81
NOTE_OFF_93
NOTE_OFF_47
VEL_3
NOTE_ON_73
VEL_4
NOTE_ON_85
TIME_SHIFT_64ND_5
NOTE_OFF_73
NOTE_OFF_85
TIME_SHIFT_64ND_1
VEL_3
NOTE_ON_78
VEL_4
NOTE_ON_90
VEL_3
NOTE_ON_61
VEL_3
NOTE_ON_66
VEL_3
NOTE_ON_69
TIME_SHIFT_64ND_3
NOTE_OFF_78
NOTE_OFF_90
TIME_SHIFT_64ND_3
NOTE_OFF_61
NOTE_OFF_66
NOTE_OFF_69
VEL_3
NOTE_ON_81
VEL_4
NOTE_ON_93
TIME_SHIFT_64ND_3
NOTE_OFF_81
NOTE_OFF_93
TIME_SHIFT_64ND_3
VEL_4
NOTE_ON_80
VEL_5
NOTE_ON_92
VEL_4
NOTE_ON_47
TIME_SHIFT_64ND_6
NOTE_OFF_80
NOTE_OFF_92
NOTE_OFF_47
VEL_3
NOTE_ON_78
VEL_4
NOTE_ON_90
TIME_SHIFT_64ND_5
NOTE_OFF_78
NOTE_OFF_90
TIME_SHIFT_64ND_1
VEL_3
NOTE_ON_76
VEL_4
NOTE_ON_88
VEL_2
NOTE_ON_59
VEL_2
NOTE_ON_64
VEL_3
NOTE_ON_68
TIME_SHIFT_64ND_3
NOTE_OFF_76
NOTE_OFF_88
TIME_SHIFT_64ND_3
NOTE_OFF_59
NOTE_OFF_64
NOTE_OFF_68
VEL_3
NOTE_ON_80
VEL_4
NOTE_ON_92
TIME_SHIFT_64ND_3
NOTE_OFF_80
NOTE_OFF_92
TIME_SHIFT_64ND_3
VEL_4
NOTE_ON_78
VEL_5
NOTE_ON_90
VEL_4
NOTE_ON_47
TIME_SHIFT_64ND_6
NOTE_OFF_78
NOTE_OFF_90
NOTE_OFF_47
VEL_3
NOTE_ON_76
VEL_4
NOTE_ON_88
TIME_SHIFT_64ND_5
NOTE_OFF_76
NOTE_OFF_88
TIME_SHIFT_64ND_1
VEL_3
NOTE_ON_75
VEL_4
NOTE_ON_87
VEL_2
NOTE_ON_57
VEL_2
NOTE_ON_63
VEL_3
NOTE_ON_66
TIME_SHIFT_64ND_3
NOTE_OFF_75
NOTE_OFF_87
TIME_SHIFT_64ND_3
NOTE_OFF_57
NOTE_OFF_63
NOTE_OFF_66
VEL_3
NOTE_ON_78
VEL_4
NOTE_ON_90
TIME_SHIFT_64ND_3
NOTE_OFF_78
NOTE_OFF_90
TIME_SHIFT_64ND_3
VEL_4
NOTE_ON_78
VEL_5
NOTE_ON_90
VEL_3
NOTE_ON_52
VEL_4
NOTE_ON_64
VEL_3
NOTE_ON_59
VEL_3
NOTE_ON_56
TIME_SHIFT_64ND_6
NOTE_OFF_78
NOTE_OFF_90
NOTE_OFF_52
NOTE_OFF_64
NOTE_OFF_59
NOTE_OFF_56
VEL_3
NOTE_ON_76
VEL_4
NOTE_ON_88
TIME_SHIFT_64ND_5
NOTE_OFF_76
NOTE_OFF_88
TIME_SHIFT_64ND_1
VEL_3
NOTE_ON_76
VEL_4
NOTE_ON_88
VEL_2
NOTE_ON_57
VEL_2
NOTE_ON_60
VEL_3
NOTE_ON_66
TIME_SHIFT_64ND_3
NOTE_OFF_76
NOTE_OFF_88
TIME_SHIFT_64ND_3
NOTE_OFF_57
NOTE_OFF_60
NOTE_OFF_66
VEL_3
NOTE_ON_75
VEL_4
NOTE_ON_87
TIME_SHIFT_64ND_3
NOTE_OFF_75
NOTE_OFF_87
TIME_SHIFT_64ND_3
VEL_4
NOTE_ON_78
VEL_5
NOTE_ON_90
VEL_3
NOTE_ON_52
VEL_3
NOTE_ON_64
VEL_3
NOTE_ON_59
VEL_3
NOTE_ON_56
TIME_SHIFT_64ND_6
NOTE_OFF_78
NOTE_OFF_90
NOTE_OFF_52
NOTE_OFF_64
NOTE_OFF_59
NOTE_OFF_56
VEL_3
NOTE_ON_76
VEL_4
NOTE_ON_88
TIME_SHIFT_64ND_5
NOTE_OFF_76
NOTE_OFF_88
TIME_SHIFT_64ND_1
VEL_3
NOTE_ON_76
VEL_4
NOTE_ON_88
VEL_2
NOTE_ON_57
VEL_2
NOTE_ON_60
VEL_3
NOTE_ON_66
TIME_SHIFT_64ND_3
NOTE_OFF_76
NOTE_OFF_88
TIME_SHIFT_64ND_3
NOTE_OFF_57
NOTE_OFF_60
NOTE_OFF_66
VEL_3
NOTE_ON_75
VEL_4
NOTE_ON_87
TIME_SHIFT_64ND_3
NOTE_OFF_75
NOTE_OFF_87
TIME_SHIFT_64ND_3
VEL_4
NOTE_ON_76
VEL_4
NOTE_ON_83
VEL_4
NOTE_ON_80
VEL_5
NOTE_ON_88
VEL_3
NOTE_ON_52
VEL_4
NOTE_ON_64
VEL_3
NOTE_ON_59
VEL_3
NOTE_ON_56
TIME_SHIFT_64ND_25
NOTE_OFF_76
NOTE_OFF_83
NOTE_OFF_80
NOTE_OFF_88
NOTE_OFF_52
NOTE_OFF_64
NOTE_OFF_59
NOTE_OFF_56
VEL_4
NOTE_ON_88
VEL_5
NOTE_ON_100
VEL_4
NOTE_ON_95
VEL_4
NOTE_ON_92
VEL_3
NOTE_ON_47
VEL_4
NOTE_ON_52
VEL_3
NOTE_ON_40
VEL_3
NOTE_ON_44
TIME_SHIFT_64ND_6
NOTE_OFF_88
NOTE_OFF_100
NOTE_OFF_95
NOTE_OFF_92
NOTE_OFF_47
NOTE_OFF_52
NOTE_OFF_40
NOTE_OFF_44
TIME_SHIFT_64ND_15
VEL_4
NOTE_ON_71
VEL_5
NOTE_ON_76
VEL_4
NOTE_ON_64
VEL_4
NOTE_ON_68
VEL_3
NOTE_ON_59
VEL_3
NOTE_ON_56
VEL_3
NOTE_ON_52
TIME_SHIFT_64ND_3
NOTE_OFF_71
NOTE_OFF_76
NOTE_OFF_64
NOTE_OFF_68
NOTE_OFF_59
NOTE_OFF_56
NOTE_OFF_52
VEL_4
NOTE_ON_71
VEL_5
NOTE_ON_76
VEL_4
NOTE_ON_64
VEL_4
NOTE_ON_68
VEL_4
NOTE_ON_59
VEL_3
NOTE_ON_56
VEL_3
NOTE_ON_52
TIME_SHIFT_64ND_6
NOTE_OFF_71
NOTE_OFF_76
NOTE_OFF_64
NOTE_OFF_68
NOTE_OFF_59
NOTE_OFF_56
NOTE_OFF_52
TIME_SHIFT_64ND_18
VEL_4
NOTE_ON_76
VEL_4
NOTE_ON_68
VEL_4
NOTE_ON_73
VEL_5
NOTE_ON_80
VEL_4
NOTE_ON_61
VEL_4
NOTE_ON_49
VEL_4
NOTE_ON_52
VEL_4
NOTE_ON_56
TIME_SHIFT_64ND_6
NOTE_OFF_76
NOTE_OFF_68
NOTE_OFF_73
NOTE_OFF_80
NOTE_OFF_61
NOTE_OFF_49
NOTE_OFF_52
NOTE_OFF_56
TIME_SHIFT_64ND_18
VEL_4
NOTE_ON_80
VEL_4
NOTE_ON_71
VEL_5
NOTE_ON_83
VEL_4
NOTE_ON_75
VEL_3
NOTE_ON_51
VEL_3
NOTE_ON_44
VEL_4
NOTE_ON_56
TIME_SHIFT_64ND_36
NOTE_OFF_80
NOTE_OFF_71
NOTE_OFF_83
NOTE_OFF_75
NOTE_OFF_51
NOTE_OFF_44
NOTE_OFF_56
VEL_5
NOTE_ON_83
VEL_4
NOTE_ON_71
VEL_4
NOTE_ON_76
VEL_4
NOTE_ON_80
VEL_3
NOTE_ON_37
VEL_3
NOTE_ON_49
TIME_SHIFT_64ND_3
NOTE_OFF_37
NOTE_OFF_49
TIME_SHIFT_64ND_6
NOTE_OFF_83
NOTE_OFF_71
NOTE_OFF_76
NOTE_OFF_80
VEL_4
NOTE_ON_76
VEL_5
NOTE_ON_88
TIME_SHIFT_64ND_3
NOTE_OFF_76
NOTE_OFF_88
VEL_4
NOTE_ON_75
VEL_4
NOTE_ON_71
VEL_5
NOTE_ON_80
VEL_5
NOTE_ON_83
VEL_4
NOTE_ON_56
VEL_4
NOTE_ON_44
TIME_SHIFT_64ND_6
NOTE_OFF_75
NOTE_OFF_71
NOTE_OFF_80
NOTE_OFF_83
NOTE_OFF_56
NOTE_OFF_44
TIME_SHIFT_64ND_6
VEL_5
NOTE_ON_83
VEL_4
NOTE_ON_80
VEL_4
NOTE_ON_71
VEL_4
NOTE_ON_76
VEL_3
NOTE_ON_49
VEL_3
NOTE_ON_61
TIME_SHIFT_64ND_3
NOTE_OFF_49
NOTE_OFF_61
TIME_SHIFT_64ND_6
NOTE_OFF_83
NOTE_OFF_80
NOTE_OFF_71
NOTE_OFF_76
VEL_5
NOTE_ON_88
VEL_4
NOTE_ON_76
TIME_SHIFT_64ND_3
NOTE_OFF_88
NOTE_OFF_76
VEL_5
NOTE_ON_83
VEL_4
NOTE_ON_71
VEL_4
NOTE_ON_75
VEL_5
NOTE_ON_80
VEL_4
NOTE_ON_68
VEL_4
NOTE_ON_56
TIME_SHIFT_64ND_6
NOTE_OFF_83
NOTE_OFF_71
NOTE_OFF_75
NOTE_OFF_80
NOTE_OFF_68
NOTE_OFF_56
TIME_SHIFT_64ND_6
VEL_5
NOTE_ON_83
VEL_4
NOTE_ON_76
VEL_4
NOTE_ON_80
VEL_4
NOTE_ON_71
VEL_3
NOTE_ON_49
VEL_3
NOTE_ON_61
TIME_SHIFT_64ND_3
NOTE_OFF_49
NOTE_OFF_61
TIME_SHIFT_64ND_6
NOTE_OFF_83
NOTE_OFF_76
NOTE_OFF_80
NOTE_OFF_71
VEL_4
NOTE_ON_76
VEL_5
NOTE_ON_88
TIME_SHIFT_64ND_3
NOTE_OFF_76
NOTE_OFF_88
VEL_4
NOTE_ON_80
VEL_4
NOTE_ON_71
VEL_5
NOTE_ON_83
VEL_4
NOTE_ON_75
VEL_4
NOTE_ON_44
VEL_5
NOTE_ON_56
TIME_SHIFT_64ND_6
NOTE_OFF_44
NOTE_OFF_56
TIME_SHIFT_64ND_6
VEL_4
NOTE_ON_43
VEL_5
NOTE_ON_55
TIME_SHIFT_64ND_6
NOTE_OFF_43
NOTE_OFF_55
TIME_SHIFT_64ND_6
VEL_4
NOTE_ON_42
VEL_5
NOTE_ON_54
TIME_SHIFT_64ND_6
NOTE_OFF_42
NOTE_OFF_54
TIME_SHIFT_64ND_6
VEL_4
NOTE_ON_41
VEL_5
NOTE_ON_53
TIME_SHIFT_64ND_7
NOTE_OFF_41
NOTE_OFF_53
TIME_SHIFT_64ND_7
NOTE_OFF_80
NOTE_OFF_71
NOTE_OFF_83
NOTE_OFF_75
VEL_5
NOTE_ON_80
VEL_5
NOTE_ON_83
VEL_6
NOTE_ON_88
VEL_5
NOTE_ON_74
VEL_5
NOTE_ON_76
VEL_4
NOTE_ON_40
VEL_4
NOTE_ON_47
VEL_4
NOTE_ON_44
VEL_5
NOTE_ON_52
TIME_SHIFT_64ND_5
NOTE_OFF_80
NOTE_OFF_83
NOTE_OFF_88
NOTE_OFF_74
NOTE_OFF_76
NOTE_OFF_40
NOTE_OFF_47
NOTE_OFF_44
NOTE_OFF_52
TIME_SHIFT_64ND_34
VEL_3
NOTE_ON_64
VEL_3
NOTE_ON_76
TIME_SHIFT_64ND_11
NOTE_OFF_64
NOTE_OFF_76
VEL_4
NOTE_ON_93
VEL_4
NOTE_ON_96
VEL_4
NOTE_ON_72
VEL_4
NOTE_ON_69
TIME_SHIFT_64ND_4
NOTE_OFF_93
NOTE_OFF_96
VEL_3
NOTE_ON_95
VEL_3
NOTE_ON_91
TIME_SHIFT_64ND_1
NOTE_OFF_95
NOTE_OFF_91
NOTE_OFF_72
NOTE_OFF_69
VEL_3
NOTE_ON_89
VEL_3
NOTE_ON_93
VEL_3
NOTE_ON_76
TIME_SHIFT_64ND_3
NOTE_OFF_89
NOTE_OFF_93
VEL_3
NOTE_ON_88
VEL_3
NOTE_ON_91
TIME_SHIFT_64ND_3
NOTE_OFF_88
NOTE_OFF_91
NOTE_OFF_76
VEL_3
NOTE_ON_86
VEL_3
NOTE_ON_89
VEL_4
NOTE_ON_72
VEL_4
NOTE_ON_69
TIME_SHIFT_64ND_3
NOTE_OFF_86
NOTE_OFF_89
VEL_3
NOTE_ON_84
VEL_3
NOTE_ON_88
TIME_SHIFT_64ND_3
NOTE_OFF_84
NOTE_OFF_88
NOTE_OFF_72
NOTE_OFF_69
VEL_3
NOTE_ON_83
VEL_3
NOTE_ON_86
TIME_SHIFT_64ND_3
NOTE_OFF_83
NOTE_OFF_86
VEL_3
NOTE_ON_81
VEL_3
NOTE_ON_84
TIME_SHIFT_64ND_3
NOTE_OFF_81
NOTE_OFF_84
VEL_3
NOTE_ON_79
VEL_3
NOTE_ON_83
VEL_4
NOTE_ON_62
VEL_4
NOTE_ON_59
TIME_SHIFT_64ND_2
NOTE_OFF_79
NOTE_OFF_83
VEL_3
NOTE_ON_77
VEL_3
NOTE_ON_81
TIME_SHIFT_64ND_2
NOTE_OFF_77
NOTE_OFF_81
VEL_3
NOTE_ON_76
VEL_3
NOTE_ON_79
TIME_SHIFT_64ND_2
VEL_3
NOTE_ON_77
VEL_3
NOTE_ON_74
NOTE_OFF_76
NOTE_OFF_79
TIME_SHIFT_64ND_1
NOTE_OFF_62
NOTE_OFF_59
VEL_3
NOTE_ON_67
TIME_SHIFT_64ND_1
NOTE_OFF_77
NOTE_OFF_74
VEL_3
NOTE_ON_76
VEL_3
NOTE_ON_72
TIME_SHIFT_64ND_2
NOTE_OFF_76
NOTE_OFF_72
VEL_3
NOTE_ON_74
VEL_3
NOTE_ON_71
TIME_SHIFT_64ND_2
NOTE_OFF_74
NOTE_OFF_71
VEL_2
NOTE_ON_72
VEL_2
NOTE_ON_69
TIME_SHIFT_64ND_2
NOTE_OFF_72
NOTE_OFF_69
NOTE_OFF_67
VEL_2
NOTE_ON_67
VEL_2
NOTE_ON_71
VEL_3
NOTE_ON_62
VEL_3
NOTE_ON_59
TIME_SHIFT_64ND_6
NOTE_OFF_67
NOTE_OFF_71
NOTE_OFF_62
NOTE_OFF_59
TIME_SHIFT_64ND_6
VEL_4
NOTE_ON_89
VEL_4
NOTE_ON_93
VEL_4
NOTE_ON_65
VEL_4
NOTE_ON_69
TIME_SHIFT_64ND_4
NOTE_OFF_89
NOTE_OFF_93
VEL_3
NOTE_ON_91
VEL_3
NOTE_ON_88
TIME_SHIFT_64ND_1
NOTE_OFF_91
NOTE_OFF_88
NOTE_OFF_65
NOTE_OFF_69
VEL_3
NOTE_ON_86
VEL_3
NOTE_ON_89
VEL_3
NOTE_ON_72
TIME_SHIFT_64ND_3
NOTE_OFF_86
NOTE_OFF_89
VEL_3
NOTE_ON_84
VEL_3
NOTE_ON_88
TIME_SHIFT_64ND_3
NOTE_OFF_84
NOTE_OFF_88
NOTE_OFF_72
VEL_3
NOTE_ON_83
VEL_3
NOTE_ON_86
VEL_4
NOTE_ON_65
VEL_4
NOTE_ON_69
TIME_SHIFT_64ND_3
NOTE_OFF_83
NOTE_OFF_86
VEL_3
NOTE_ON_81
VEL_3
NOTE_ON_84
TIME_SHIFT_64ND_3
NOTE_OFF_81
NOTE_OFF_84
NOTE_OFF_65
NOTE_OFF_69
VEL_3
NOTE_ON_79
VEL_3
NOTE_ON_83
TIME_SHIFT_64ND_3
NOTE_OFF_79
NOTE_OFF_83
VEL_3
NOTE_ON_77
VEL_3
NOTE_ON_81
TIME_SHIFT_64ND_3
NOTE_OFF_77
NOTE_OFF_81
VEL_3
NOTE_ON_76
VEL_3
NOTE_ON_79
VEL_4
NOTE_ON_55
VEL_4
NOTE_ON_59
TIME_SHIFT_64ND_2
NOTE_OFF_76
NOTE_OFF_79
VEL_3
NOTE_ON_74
VEL_3
NOTE_ON_77
TIME_SHIFT_64ND_2
NOTE_OFF_74
NOTE_OFF_77
VEL_3
NOTE_ON_72
VEL_3
NOTE_ON_76
TIME_SHIFT_64ND_2
VEL_2
NOTE_ON_74
VEL_2
NOTE_ON_71
NOTE_OFF_72
NOTE_OFF_76
TIME_SHIFT_64ND_1
NOTE_OFF_55
NOTE_OFF_59
VEL_3
NOTE_ON_64
TIME_SHIFT_64ND_1
NOTE_OFF_74
NOTE_OFF_71
VEL_2
NOTE_ON_72
VEL_2
NOTE_ON_69
TIME_SHIFT_64ND_2
NOTE_OFF_72
NOTE_OFF_69
VEL_2
NOTE_ON_71
VEL_2
NOTE_ON_67
TIME_SHIFT_64ND_2
NOTE_OFF_71
NOTE_OFF_67
VEL_2
NOTE_ON_69
VEL_2
NOTE_ON_65
TIME_SHIFT_64ND_2
NOTE_OFF_69
NOTE_OFF_65
NOTE_OFF_64
VEL_2
NOTE_ON_64
VEL_2
NOTE_ON_67
VEL_3
NOTE_ON_55
VEL_3
NOTE_ON_59
TIME_SHIFT_64ND_6
NOTE_OFF_64
NOTE_OFF_67
NOTE_OFF_55
NOTE_OFF_59
TIME_SHIFT_64ND_5
VEL_4
NOTE_ON_86
VEL_4
NOTE_ON_89
VEL_4
NOTE_ON_65
VEL_4
NOTE_ON_62
TIME_SHIFT_64ND_4
NOTE_OFF_86
NOTE_OFF_89
VEL_3
NOTE_ON_88
VEL_3
NOTE_ON_84
TIME_SHIFT_64ND_1
NOTE_OFF_88
NOTE_OFF_84
NOTE_OFF_65
NOTE_OFF_62
VEL_3
NOTE_ON_83
VEL_3
NOTE_ON_86
VEL_3
NOTE_ON_69
TIME_SHIFT_64ND_3
NOTE_OFF_83
NOTE_OFF_86
VEL_3
NOTE_ON_81
VEL_3
NOTE_ON_84
TIME_SHIFT_64ND_3
NOTE_OFF_81
NOTE_OFF_84
NOTE_OFF_69
VEL_3
NOTE_ON_79
VEL_3
NOTE_ON_83
VEL_4
NOTE_ON_65
VEL_4
NOTE_ON_62
TIME_SHIFT_64ND_3
NOTE_OFF_79
NOTE_OFF_83
VEL_3
NOTE_ON_77
VEL_3
NOTE_ON_81
TIME_SHIFT_64ND_3
NOTE_OFF_77
NOTE_OFF_81
NOTE_OFF_65
NOTE_OFF_62
VEL_3
NOTE_ON_76
VEL_3
NOTE_ON_79
TIME_SHIFT_64ND_3
NOTE_OFF_76
NOTE_OFF_79
VEL_3
NOTE_ON_74
VEL_3
NOTE_ON_77
TIME_SHIFT_64ND_3
NOTE_OFF_74
NOTE_OFF_77
VEL_3
NOTE_ON_72
VEL_3
NOTE_ON_76
VEL_4
NOTE_ON_52
VEL_4
NOTE_ON_55
TIME_SHIFT_64ND_2
NOTE_OFF_72
NOTE_OFF_76
VEL_3
NOTE_ON_71
VEL_3
NOTE_ON_74
TIME_SHIFT_64ND_2
NOTE_OFF_71
NOTE_OFF_74
VEL_3
NOTE_ON_69
VEL_3
NOTE_ON_72
TIME_SHIFT_64ND_2
VEL_3
NOTE_ON_71
VEL_3
NOTE_ON_67
NOTE_OFF_69
NOTE_OFF_72
TIME_SHIFT_64ND_1
NOTE_OFF_52
NOTE_OFF_55
VEL_3
NOTE_ON_60
TIME_SHIFT_64ND_1
NOTE_OFF_71
NOTE_OFF_67
VEL_3
NOTE_ON_69
VEL_3
NOTE_ON_65
TIME_SHIFT_64ND_2
NOTE_OFF_69
NOTE_OFF_65
VEL_2
NOTE_ON_67
VEL_2
NOTE_ON_64
TIME_SHIFT_64ND_2
NOTE_OFF_67
NOTE_OFF_64
VEL_2
NOTE_ON_65
VEL_2
NOTE_ON_62
TIME_SHIFT_64ND_2
NOTE_OFF_65
NOTE_OFF_62
NOTE_OFF_60
VEL_2
NOTE_ON_60
VEL_2
NOTE_ON_64
VEL_3
NOTE_ON_52
VEL_3
NOTE_ON_55
TIME_SHIFT_64ND_6
NOTE_OFF_60
NOTE_OFF_64
NOTE_OFF_52
NOTE_OFF_55
TIME_SHIFT_64ND_6
VEL_4
NOTE_ON_83
VEL_4
NOTE_ON_86
VEL_4
NOTE_ON_62
VEL_4
NOTE_ON_59
TIME_SHIFT_64ND_4
NOTE_OFF_83
NOTE_OFF_86
VEL_3
NOTE_ON_84
VEL_3
NOTE_ON_81
TIME_SHIFT_64ND_1
NOTE_OFF_84
NOTE_OFF_81
NOTE_OFF_62
NOTE_OFF_59
VEL_3
NOTE_ON_79
VEL_3
NOTE_ON_83
VEL_3
NOTE_ON_65
TIME_SHIFT_64ND_3
NOTE_OFF_79
NOTE_OFF_83
VEL_3
NOTE_ON_77
VEL_3
NOTE_ON_81
TIME_SHIFT_64ND_3
NOTE_OFF_77
NOTE_OFF_81
NOTE_OFF_65
VEL_3
NOTE_ON_76
VEL_3
NOTE_ON_79
VEL_4
NOTE_ON_59
VEL_4
NOTE_ON_62
TIME_SHIFT_64ND_3
NOTE_OFF_76
NOTE_OFF_79
VEL_3
NOTE_ON_74
VEL_3
NOTE_ON_77
TIME_SHIFT_64ND_3
NOTE_OFF_74
NOTE_OFF_77
NOTE_OFF_59
NOTE_OFF_62
VEL_3
NOTE_ON_72
VEL_3
NOTE_ON_76
TIME_SHIFT_64ND_3
NOTE_OFF_72
NOTE_OFF_76
VEL_3
NOTE_ON_71
VEL_3
NOTE_ON_74
TIME_SHIFT_64ND_3
NOTE_OFF_71
NOTE_OFF_74
VEL_3
NOTE_ON_69
VEL_3
NOTE_ON_72
VEL_4
NOTE_ON_52
VEL_4
NOTE_ON_48
TIME_SHIFT_64ND_2
NOTE_OFF_69
NOTE_OFF_72
VEL_3
NOTE_ON_67
VEL_3
NOTE_ON_71
TIME_SHIFT_64ND_2
NOTE_OFF_67
NOTE_OFF_71
VEL_3
NOTE_ON_65
VEL_3
NOTE_ON_69
TIME_SHIFT_64ND_2
VEL_3
NOTE_ON_67
VEL_3
NOTE_ON_64
NOTE_OFF_65
NOTE_OFF_69
TIME_SHIFT_64ND_1
NOTE_OFF_52
NOTE_OFF_48
VEL_3
NOTE_ON_57
TIME_SHIFT_64ND_1
NOTE_OFF_67
NOTE_OFF_64
VEL_3
NOTE_ON_65
VEL_3
NOTE_ON_62
TIME_SHIFT_64ND_2
NOTE_OFF_65
NOTE_OFF_62
VEL_2
NOTE_ON_64
VEL_2
NOTE_ON_60
TIME_SHIFT_64ND_2
NOTE_OFF_64
NOTE_OFF_60
VEL_2
NOTE_ON_62
VEL_2
NOTE_ON_59
TIME_SHIFT_64ND_2
NOTE_OFF_62
NOTE_OFF_59
NOTE_OFF_57
VEL_2
NOTE_ON_57
VEL_2
NOTE_ON_60
VEL_3
NOTE_ON_52
VEL_3
NOTE_ON_48
TIME_SHIFT_64ND_6
NOTE_OFF_57
NOTE_OFF_60
NOTE_OFF_52
NOTE_OFF_48
TIME_SHIFT_64ND_6
VEL_4
NOTE_ON_79
VEL_4
NOTE_ON_83
VEL_4
NOTE_ON_55
VEL_4
NOTE_ON_59
TIME_SHIFT_64ND_4
NOTE_OFF_79
NOTE_OFF_83
VEL_3
NOTE_ON_81
VEL_3
NOTE_ON_77
TIME_SHIFT_64ND_1
NOTE_OFF_81
NOTE_OFF_77
NOTE_OFF_55
NOTE_OFF_59
VEL_3
NOTE_ON_76
VEL_3
NOTE_ON_79
VEL_3
NOTE_ON_62
TIME_SHIFT_64ND_3
NOTE_OFF_76
NOTE_OFF_79
VEL_3
NOTE_ON_74
VEL_3
NOTE_ON_77
TIME_SHIFT_64ND_3
NOTE_OFF_74
NOTE_OFF_77
NOTE_OFF_62
VEL_3
NOTE_ON_72
VEL_3
NOTE_ON_76
VEL_4
NOTE_ON_55
VEL_4
NOTE_ON_59
TIME_SHIFT_64ND_3
NOTE_OFF_72
NOTE_OFF_76
VEL_3
NOTE_ON_71
VEL_3
NOTE_ON_74
TIME_SHIFT_64ND_3
NOTE_OFF_71
NOTE_OFF_74
NOTE_OFF_55
NOTE_OFF_59
VEL_3
NOTE_ON_69
VEL_3
NOTE_ON_72
TIME_SHIFT_64ND_3
NOTE_OFF_69
NOTE_OFF_72
VEL_3
NOTE_ON_67
VEL_3
NOTE_ON_71
TIME_SHIFT_64ND_3
NOTE_OFF_67
NOTE_OFF_71
VEL_3
NOTE_ON_65
VEL_3
NOTE_ON_69
VEL_4
NOTE_ON_48
VEL_4
NOTE_ON_45
TIME_SHIFT_64ND_2
NOTE_OFF_65
NOTE_OFF_69
VEL_3
NOTE_ON_64
VEL_3
NOTE_ON_67
TIME_SHIFT_64ND_2
NOTE_OFF_64
NOTE_OFF_67
VEL_3
NOTE_ON_62
VEL_3
NOTE_ON_65
TIME_SHIFT_64ND_2
VEL_2
NOTE_ON_64
VEL_2
NOTE_ON_60
NOTE_OFF_62
NOTE_OFF_65
TIME_SHIFT_64ND_1
NOTE_OFF_48
NOTE_OFF_45
VEL_3
NOTE_ON_53
TIME_SHIFT_64ND_1
NOTE_OFF_64
NOTE_OFF_60
VEL_2
NOTE_ON_62
VEL_2
NOTE_ON_59
TIME_SHIFT_64ND_2
NOTE_OFF_62
NOTE_OFF_59
VEL_2
NOTE_ON_60
VEL_2
NOTE_ON_57
TIME_SHIFT_64ND_2
NOTE_OFF_60
NOTE_OFF_57
VEL_2
NOTE_ON_59
VEL_2
NOTE_ON_55
TIME_SHIFT_64ND_2
NOTE_OFF_59
NOTE_OFF_55
NOTE_OFF_53
VEL_2
NOTE_ON_53
VEL_2
NOTE_ON_57
VEL_3
NOTE_ON_45
VEL_3
NOTE_ON_48
TIME_SHIFT_64ND_6
NOTE_OFF_53
NOTE_OFF_57
NOTE_OFF_45
NOTE_OFF_48
TIME_SHIFT_64ND_6
VEL_4
NOTE_ON_47
VEL_4
NOTE_ON_52
VEL_4
NOTE_ON_44
VEL_4
NOTE_ON_40
TIME_SHIFT_64ND_4
VEL_4
NOTE_ON_52
TIME_SHIFT_64ND_4
NOTE_OFF_52
VEL_4
NOTE_ON_56
TIME_SHIFT_64ND_4
NOTE_OFF_56
NOTE_OFF_47
NOTE_OFF_52
NOTE_OFF_44
NOTE_OFF_40
VEL_4
NOTE_ON_64
TIME_SHIFT_64ND_3
NOTE_OFF_64
VEL_4
NOTE_ON_64
TIME_SHIFT_64ND_2
VEL_4
NOTE_ON_59
VEL_3
NOTE_ON_52
VEL_3
NOTE_ON_50
TIME_SHIFT_64ND_2
NOTE_OFF_64
VEL_4
NOTE_ON_68
TIME_SHIFT_64ND_3
NOTE_OFF_68
NOTE_OFF_59
NOTE_OFF_52
NOTE_OFF_50
VEL_4
NOTE_ON_64
VEL_3
NOTE_ON_49
VEL_3
NOTE_ON_52
VEL_4
NOTE_ON_58
TIME_SHIFT_64ND_3
NOTE_OFF_49
NOTE_OFF_52
NOTE_OFF_58
TIME_SHIFT_64ND_1
NOTE_OFF_64
VEL_4
NOTE_ON_64
TIME_SHIFT_64ND_3
NOTE_OFF_64
VEL_4
NOTE_ON_68
TIME_SHIFT_64ND_4
NOTE_OFF_68
VEL_4
NOTE_ON_76
VEL_3
NOTE_ON_52
VEL_4
NOTE_ON_57
VEL_3
NOTE_ON_48
TIME_SHIFT_64ND_3
NOTE_OFF_52
NOTE_OFF_57
NOTE_OFF_48
TIME_SHIFT_64ND_1
NOTE_OFF_76
VEL_4
NOTE_ON_76
TIME_SHIFT_64ND_4
NOTE_OFF_76
VEL_4
NOTE_ON_80
TIME_SHIFT_64ND_4
NOTE_OFF_80
VEL_4
NOTE_ON_76
VEL_4
NOTE_ON_56
VEL_4
NOTE_ON_47
VEL_4
NOTE_ON_52
TIME_SHIFT_64ND_3
NOTE_OFF_76
VEL_4
NOTE_ON_76
TIME_SHIFT_64ND_4
NOTE_OFF_76
VEL_4
NOTE_ON_80
TIME_SHIFT_64ND_4
NOTE_OFF_80
NOTE_OFF_56
NOTE_OFF_47
NOTE_OFF_52
VEL_4
NOTE_ON_88
TIME_SHIFT_64ND_3
NOTE_OFF_88
VEL_4
NOTE_ON_88
TIME_SHIFT_64ND_2
VEL_4
NOTE_ON_71
VEL_3
NOTE_ON_62
VEL_3
NOTE_ON_64
TIME_SHIFT_64ND_2
NOTE_OFF_88
VEL_4
NOTE_ON_92
TIME_SHIFT_64ND_3
NOTE_OFF_92
NOTE_OFF_71
NOTE_OFF_62
NOTE_OFF_64
VEL_4
NOTE_ON_88
VEL_4
NOTE_ON_70
VEL_3
NOTE_ON_64
VEL_3
NOTE_ON_61
TIME_SHIFT_64ND_3
NOTE_OFF_70
NOTE_OFF_64
NOTE_OFF_61
TIME_SHIFT_64ND_1
NOTE_OFF_88
VEL_4
NOTE_ON_88
TIME_SHIFT_64ND_3
NOTE_OFF_88
VEL_4
NOTE_ON_92
TIME_SHIFT_64ND_4
NOTE_OFF_92
VEL_4
NOTE_ON_100
VEL_4
NOTE_ON_69
VEL_3
NOTE_ON_64
VEL_3
NOTE_ON_60
TIME_SHIFT_64ND_3
NOTE_OFF_69
NOTE_OFF_64
NOTE_OFF_60
TIME_SHIFT_64ND_1
NOTE_OFF_100
VEL_4
NOTE_ON_92
TIME_SHIFT_64ND_4
NOTE_OFF_92
VEL_4
NOTE_ON_104
TIME_SHIFT_64ND_4
NOTE_OFF_104
VEL_4
NOTE_ON_88
VEL_4
NOTE_ON_68
VEL_4
NOTE_ON_64
VEL_4
NOTE_ON_59
TIME_SHIFT_64ND_3
NOTE_OFF_88
VEL_4
NOTE_ON_100
TIME_SHIFT_64ND_3
NOTE_OFF_100
VEL_4
NOTE_ON_92
TIME_SHIFT_64ND_3
NOTE_OFF_92
NOTE_OFF_68
NOTE_OFF_64
NOTE_OFF_59
VEL_4
NOTE_ON_104
VEL_3
NOTE_ON_64
VEL_4
NOTE_ON_76
VEL_3
NOTE_ON_71
VEL_3
NOTE_ON_74
TIME_SHIFT_64ND_3
NOTE_OFF_64
NOTE_OFF_76
NOTE_OFF_71
NOTE_OFF_74
TIME_SHIFT_64ND_1
NOTE_OFF_104
VEL_4
NOTE_ON_88
TIME_SHIFT_64ND_3
NOTE_OFF_88
VEL_4
NOTE_ON_100
TIME_SHIFT_64ND_3
NOTE_OFF_100
VEL_5
NOTE_ON_92
VEL_3
NOTE_ON_70
VEL_4
NOTE_ON_76
VEL_3
NOTE_ON_64
VEL_3
NOTE_ON_73
TIME_SHIFT_64ND_3
NOTE_OFF_70
NOTE_OFF_76
NOTE_OFF_64
NOTE_OFF_73
TIME_SHIFT_64ND_1
NOTE_OFF_92
VEL_4
NOTE_ON_104
TIME_SHIFT_64ND_3
NOTE_OFF_104
VEL_4
NOTE_ON_88
TIME_SHIFT_64ND_3
NOTE_OFF_88
VEL_5
NOTE_ON_100
VEL_3
NOTE_ON_64
VEL_3
NOTE_ON_69
VEL_4
NOTE_ON_76
VEL_3
NOTE_ON_72
TIME_SHIFT_64ND_3
NOTE_OFF_64
NOTE_OFF_69
NOTE_OFF_76
NOTE_OFF_72
TIME_SHIFT_64ND_1
NOTE_OFF_100
VEL_5
NOTE_ON_92
TIME_SHIFT_64ND_3
NOTE_OFF_92
VEL_5
NOTE_ON_104
TIME_SHIFT_64ND_3
NOTE_OFF_104
VEL_5
NOTE_ON_88
VEL_3
NOTE_ON_68
VEL_3
NOTE_ON_64
VEL_4
NOTE_ON_76
VEL_3
NOTE_ON_71
TIME_SHIFT_64ND_11
NOTE_OFF_88
NOTE_OFF_68
NOTE_OFF_64
NOTE_OFF_76
NOTE_OFF_71
VEL_5
NOTE_ON_95
VEL_5
NOTE_ON_92
VEL_6
NOTE_ON_100
VEL_3
NOTE_ON_76
VEL_4
NOTE_ON_80
VEL_3
NOTE_ON_71
VEL_4
NOTE_ON_83
TIME_SHIFT_64ND_3
NOTE_OFF_95
NOTE_OFF_92
NOTE_OFF_100
NOTE_OFF_76
NOTE_OFF_80
NOTE_OFF_71
NOTE_OFF_83
TIME_SHIFT_64ND_13
VEL_4
NOTE_ON_64
VEL_5
NOTE_ON_76
VEL_3
NOTE_ON_40
VEL_4
NOTE_ON_52
TIME_SHIFT_64ND_5
NOTE_OFF_64
NOTE_OFF_76
NOTE_OFF_40
NOTE_OFF_52
VEL_4
NOTE_ON_66
VEL_5
NOTE_ON_78
VEL_3
NOTE_ON_42
VEL_4
NOTE_ON_54
TIME_SHIFT_64ND_5
NOTE_OFF_66
NOTE_OFF_78
NOTE_OFF_42
NOTE_OFF_54
VEL_4
NOTE_ON_68
VEL_5
NOTE_ON_80
VEL_4
NOTE_ON_44
VEL_4
NOTE_ON_56
TIME_SHIFT_64ND_5
NOTE_OFF_68
NOTE_OFF_80
NOTE_OFF_44
NOTE_OFF_56
VEL_4
NOTE_ON_69
VEL_5
NOTE_ON_81
VEL_4
NOTE_ON_72
VEL_4
NOTE_ON_45
VEL_5
NOTE_ON_57
TIME_SHIFT_64ND_6
NOTE_OFF_69
NOTE_OFF_81
NOTE_OFF_72
NOTE_OFF_45
NOTE_OFF_57
TIME_SHIFT_64ND_6
VEL_3
NOTE_ON_68
VEL_4
NOTE_ON_80
VEL_3
NOTE_ON_71
VEL_2
NOTE_ON_41
VEL_3
NOTE_ON_53
TIME_SHIFT_64ND_3
NOTE_OFF_68
NOTE_OFF_80
NOTE_OFF_71
TIME_SHIFT_64ND_3
NOTE_OFF_41
NOTE_OFF_53
VEL_3
NOTE_ON_71
VEL_4
NOTE_ON_83
VEL_3
NOTE_ON_74
TIME_SHIFT_64ND_3
NOTE_OFF_71
NOTE_OFF_83
NOTE_OFF_74
TIME_SHIFT_64ND_3
VEL_4
NOTE_ON_72
VEL_4
NOTE_ON_69
VEL_5
NOTE_ON_81
VEL_3
NOTE_ON_45
VEL_4
NOTE_ON_57
TIME_SHIFT_64ND_5
NOTE_OFF_72
NOTE_OFF_69
NOTE_OFF_81
NOTE_OFF_45
NOTE_OFF_57
TIME_SHIFT_64ND_5
VEL_3
NOTE_ON_68
VEL_4
NOTE_ON_80
VEL_3
NOTE_ON_71
VEL_3
NOTE_ON_52
VEL_2
NOTE_ON_40
TIME_SHIFT_64ND_3
NOTE_OFF_68
NOTE_OFF_80
NOTE_OFF_71
TIME_SHIFT_64ND_3
NOTE_OFF_52
NOTE_OFF_40
VEL_3
NOTE_ON_71
VEL_4
NOTE_ON_83
VEL_3
NOTE_ON_74
TIME_SHIFT_64ND_3
NOTE_OFF_71
NOTE_OFF_83
NOTE_OFF_74
TIME_SHIFT_64ND_3
VEL_4
NOTE_ON_69
VEL_5
NOTE_ON_81
VEL_4
NOTE_ON_72
VEL_4
NOTE_ON_57
VEL_3
NOTE_ON_45
TIME_SHIFT_64ND_3
NOTE_OFF_69
NOTE_OFF_81
NOTE_OFF_72
NOTE_OFF_57
NOTE_OFF_45
TIME_SHIFT_64ND_9
VEL_3
NOTE_ON_68
VEL_4
NOTE_ON_80
VEL_3
NOTE_ON_71
VEL_2
NOTE_ON_41
VEL_3
NOTE_ON_50
VEL_2
NOTE_ON_38
TIME_SHIFT_64ND_3
NOTE_OFF_68
NOTE_OFF_80
NOTE_OFF_71
NOTE_OFF_41
NOTE_OFF_50
NOTE_OFF_38
TIME_SHIFT_64ND_9
VEL_4
NOTE_ON_69
VEL_5
NOTE_ON_81
VEL_4
NOTE_ON_72
VEL_3
NOTE_ON_45
VEL_3
NOTE_ON_52
VEL_4
NOTE_ON_57
TIME_SHIFT_64ND_23
NOTE_OFF_69
NOTE_OFF_81
NOTE_OFF_72
NOTE_OFF_45
NOTE_OFF_52
NOTE_OFF_57
VEL_3
NOTE_ON_81
VEL_4
NOTE_ON_93
TIME_SHIFT_64ND_3
NOTE_OFF_81
NOTE_OFF_93
TIME_SHIFT_64ND_3
VEL_4
NOTE_ON_83
VEL_4
NOTE_ON_95
TIME_SHIFT_64ND_3
NOTE_OFF_83
NOTE_OFF_95
TIME_SHIFT_64ND_3
VEL_4
NOTE_ON_84
VEL_5
NOTE_ON_96
VEL_4
NOTE_ON_69
VEL_3
NOTE_ON_57
TIME_SHIFT_64ND_3
NOTE_OFF_69
NOTE_OFF_57
TIME_SHIFT_64ND_3
VEL_4
NOTE_ON_59
VEL_4
NOTE_ON_71
TIME_SHIFT_64ND_3
NOTE_OFF_59
NOTE_OFF_71
TIME_SHIFT_64ND_3
VEL_4
NOTE_ON_60
VEL_5
NOTE_ON_72
TIME_SHIFT_64ND_5
NOTE_OFF_84
NOTE_OFF_96
VEL_3
NOTE_ON_83
VEL_4
NOTE_ON_95
TIME_SHIFT_64ND_3
NOTE_OFF_83
NOTE_OFF_95
TIME_SHIFT_64ND_3
VEL_4
NOTE_ON_81
VEL_5
NOTE_ON_93
TIME_SHIFT_64ND_5
NOTE_OFF_60
NOTE_OFF_72
VEL_3
NOTE_ON_59
VEL_4
NOTE_ON_71
TIME_SHIFT_64ND_3
NOTE_OFF_59
NOTE_OFF_71
TIME_SHIFT_64ND_3
VEL_4
NOTE_ON_57
VEL_5
NOTE_ON_69
TIME_SHIFT_64ND_5
NOTE_OFF_81
NOTE_OFF_93
VEL_3
NOTE_ON_79
VEL_4
NOTE_ON_91
TIME_SHIFT_64ND_3
NOTE_OFF_79
NOTE_OFF_91
TIME_SHIFT_64ND_3
VEL_4
NOTE_ON_77
VEL_5
NOTE_ON_89
TIME_SHIFT_64ND_5
NOTE_OFF_57
NOTE_OFF_69
VEL_4
NOTE_ON_67
VEL_3
NOTE_ON_55
TIME_SHIFT_64ND_3
NOTE_OFF_67
NOTE_OFF_55
TIME_SHIFT_64ND_3
VEL_5
NOTE_ON_65
VEL_4
NOTE_ON_53
TIME_SHIFT_64ND_5
NOTE_OFF_77
NOTE_OFF_89
VEL_4
NOTE_ON_76
VEL_5
NOTE_ON_88
TIME_SHIFT_64ND_3
NOTE_OFF_76
NOTE_OFF_88
TIME_SHIFT_64ND_3
VEL_4
NOTE_ON_74
VEL_5
NOTE_ON_86
TIME_SHIFT_64ND_3
NOTE_OFF_74
NOTE_OFF_86
TIME_SHIFT_64ND_3
NOTE_OFF_65
NOTE_OFF_53
VEL_4
NOTE_ON_73
VEL_5
NOTE_ON_85
VEL_4
NOTE_ON_52
VEL_4
NOTE_ON_64
TIME_SHIFT_64ND_3
NOTE_OFF_73
NOTE_OFF_85
NOTE_OFF_52
NOTE_OFF_64
TIME_SHIFT_64ND_3
VEL_5
NOTE_ON_86
VEL_4
NOTE_ON_74
VEL_4
NOTE_ON_77
VEL_4
NOTE_ON_62
VEL_3
NOTE_ON_50
TIME_SHIFT_64ND_5
NOTE_OFF_86
NOTE_OFF_74
NOTE_OFF_77
NOTE_OFF_62
NOTE_OFF_50
TIME_SHIFT_64ND_5
VEL_4
NOTE_ON_85
VEL_3
NOTE_ON_73
VEL_3
NOTE_ON_76
VEL_3
NOTE_ON_58
VEL_2
NOTE_ON_46
TIME_SHIFT_64ND_3
NOTE_OFF_85
NOTE_OFF_73
NOTE_OFF_76
NOTE_OFF_58
NOTE_OFF_46
TIME_SHIFT_64ND_3
VEL_3
NOTE_ON_79
VEL_4
NOTE_ON_88
VEL_3
NOTE_ON_76
TIME_SHIFT_64ND_3
NOTE_OFF_79
NOTE_OFF_88
NOTE_OFF_76
TIME_SHIFT_64ND_3
VEL_4
NOTE_ON_77
VEL_5
NOTE_ON_86
VEL_4
NOTE_ON_74
VEL_4
NOTE_ON_62
VEL_3
NOTE_ON_50
TIME_SHIFT_64ND_5
NOTE_OFF_77
NOTE_OFF_86
NOTE_OFF_74
NOTE_OFF_62
NOTE_OFF_50
TIME_SHIFT_64ND_5
VEL_4
NOTE_ON_85
VEL_3
NOTE_ON_73
VEL_3
NOTE_ON_76
VEL_3
NOTE_ON_57
VEL_2
NOTE_ON_45
TIME_SHIFT_64ND_3
NOTE_OFF_85
NOTE_OFF_73
NOTE_OFF_76
NOTE_OFF_57
NOTE_OFF_45
TIME_SHIFT_64ND_3
VEL_3
NOTE_ON_76
VEL_4
NOTE_ON_88
VEL_3
NOTE_ON_79
TIME_SHIFT_64ND_3
NOTE_OFF_76
NOTE_OFF_88
NOTE_OFF_79
TIME_SHIFT_64ND_3
VEL_4
NOTE_ON_77
VEL_5
NOTE_ON_86
VEL_4
NOTE_ON_74
VEL_4
NOTE_ON_62
VEL_3
NOTE_ON_50
TIME_SHIFT_64ND_3
NOTE_OFF_77
NOTE_OFF_86
NOTE_OFF_74
NOTE_OFF_62
NOTE_OFF_50
TIME_SHIFT_64ND_8
VEL_4
NOTE_ON_85
VEL_3
NOTE_ON_73
VEL_3
NOTE_ON_76
VEL_2
NOTE_ON_43
VEL_3
NOTE_ON_55
VEL_2
NOTE_ON_46
TIME_SHIFT_64ND_3
NOTE_OFF_85
NOTE_OFF_73
NOTE_OFF_76
NOTE_OFF_43
NOTE_OFF_55
NOTE_OFF_46
TIME_SHIFT_64ND_9
VEL_5
NOTE_ON_86
VEL_4
NOTE_ON_77
VEL_4
NOTE_ON_74
VEL_4
NOTE_ON_62
VEL_3
NOTE_ON_57
VEL_3
NOTE_ON_50
TIME_SHIFT_64ND_24
NOTE_OFF_86
NOTE_OFF_77
NOTE_OFF_74
NOTE_OFF_62
NOTE_OFF_57
NOTE_OFF_50
VEL_3
NOTE_ON_86
VEL_4
NOTE_ON_98
TIME_SHIFT_64ND_3
NOTE_OFF_86
NOTE_OFF_98
TIME_SHIFT_64ND_3
VEL_4
NOTE_ON_88
VEL_4
NOTE_ON_100
TIME_SHIFT_64ND_3
NOTE_OFF_88
NOTE_OFF_100
TIME_SHIFT_64ND_3
VEL_4
NOTE_ON_89
VEL_5
NOTE_ON_101
VEL_4
NOTE_ON_74
VEL_3
NOTE_ON_62
TIME_SHIFT_64ND_3
NOTE_OFF_74
NOTE_OFF_62
TIME_SHIFT_64ND_3
VEL_4
NOTE_ON_76
VEL_4
NOTE_ON_64
TIME_SHIFT_64ND_3
NOTE_OFF_76
NOTE_OFF_64
TIME_SHIFT_64ND_3
VEL_5
NOTE_ON_77
VEL_4
NOTE_ON_65
TIME_SHIFT_64ND_5
NOTE_OFF_89
NOTE_OFF_101
VEL_3
NOTE_ON_88
VEL_4
NOTE_ON_100
TIME_SHIFT_64ND_3
NOTE_OFF_88
NOTE_OFF_100
TIME_SHIFT_64ND_3
VEL_4
NOTE_ON_86
VEL_5
NOTE_ON_98
TIME_SHIFT_64ND_5
NOTE_OFF_77
NOTE_OFF_65
VEL_4
NOTE_ON_76
VEL_3
NOTE_ON_64
TIME_SHIFT_64ND_3
NOTE_OFF_76
NOTE_OFF_64
TIME_SHIFT_64ND_3
VEL_4
NOTE_ON_62
VEL_5
NOTE_ON_74
TIME_SHIFT_64ND_5
NOTE_OFF_86
NOTE_OFF_98
VEL_3
NOTE_ON_84
VEL_4
NOTE_ON_96
TIME_SHIFT_64ND_3
NOTE_OFF_84
NOTE_OFF_96
TIME_SHIFT_64ND_3
VEL_4
NOTE_ON_83
VEL_5
NOTE_ON_95
TIME_SHIFT_64ND_5
NOTE_OFF_62
NOTE_OFF_74
VEL_3
NOTE_ON_60
VEL_4
NOTE_ON_72
TIME_SHIFT_64ND_3
NOTE_OFF_60
NOTE_OFF_72
TIME_SHIFT_64ND_3
VEL_4
NOTE_ON_59
VEL_5
NOTE_ON_71
TIME_SHIFT_64ND_5
NOTE_OFF_83
NOTE_OFF_95
VEL_4
NOTE_ON_81
VEL_4
NOTE_ON_93
TIME_SHIFT_64ND_3
NOTE_OFF_81
NOTE_OFF_93
TIME_SHIFT_64ND_3
VEL_4
NOTE_ON_80
VEL_4
NOTE_ON_92
TIME_SHIFT_64ND_3
NOTE_OFF_80
NOTE_OFF_92
TIME_SHIFT_64ND_3
NOTE_OFF_59
NOTE_OFF_71
VEL_4
NOTE_ON_81
VEL_4
NOTE_ON_93
VEL_3
NOTE_ON_57
VEL_4
NOTE_ON_69
TIME_SHIFT_64ND_3
NOTE_OFF_81
NOTE_OFF_93
NOTE_OFF_57
NOTE_OFF_69
TIME_SHIFT_64ND_3
VEL_4
NOTE_ON_80
VEL_4
NOTE_ON_92
VEL_4
NOTE_ON_68
VEL_3
NOTE_ON_56
TIME_SHIFT_64ND_3
NOTE_OFF_80
NOTE_OFF_92
NOTE_OFF_68
NOTE_OFF_56
TIME_SHIFT_64ND_3
VEL_4
NOTE_ON_83
VEL_5
NOTE_ON_95
VEL_4
NOTE_ON_71
VEL_4
NOTE_ON_59
TIME_SHIFT_64ND_3
NOTE_OFF_83
NOTE_OFF_95
NOTE_OFF_71
NOTE_OFF_59
TIME_SHIFT_64ND_3
VEL_4
NOTE_ON_88
VEL_5
NOTE_ON_100
VEL_5
NOTE_ON_76
VEL_4
NOTE_ON_64
TIME_SHIFT_64ND_5
NOTE_OFF_88
NOTE_OFF_100
NOTE_OFF_76
NOTE_OFF_64
TIME_SHIFT_64ND_6
VEL_4
NOTE_ON_59
VEL_4
NOTE_ON_56
VEL_5
NOTE_ON_64
VEL_3
NOTE_ON_47
VEL_3
NOTE_ON_40
VEL_4
NOTE_ON_52
VEL_3
NOTE_ON_44
TIME_SHIFT_64ND_22
NOTE_OFF_59
NOTE_OFF_56
NOTE_OFF_64
NOTE_OFF_47
NOTE_OFF_40
NOTE_OFF_52
NOTE_OFF_44
VEL_4
NOTE_ON_81
VEL_4
NOTE_ON_93
VEL_3
NOTE_ON_57
VEL_4
NOTE_ON_69
TIME_SHIFT_64ND_3
NOTE_OFF_81
NOTE_OFF_93
NOTE_OFF_57
NOTE_OFF_69
TIME_SHIFT_64ND_3
VEL_4
NOTE_ON_84
VEL_5
NOTE_ON_96
VEL_4
NOTE_ON_60
VEL_4
NOTE_ON_72
TIME_SHIFT_64ND_3
NOTE_OFF_84
NOTE_OFF_96
NOTE_OFF_60
NOTE_OFF_72
TIME_SHIFT_64ND_3
VEL_4
NOTE_ON_88
VEL_5
NOTE_ON_100
VEL_4
NOTE_ON_64
VEL_5
NOTE_ON_76
TIME_SHIFT_64ND_5
NOTE_OFF_88
NOTE_OFF_100
NOTE_OFF_64
NOTE_OFF_76
TIME_SHIFT_64ND_6
VEL_4
NOTE_ON_60
VEL_4
NOTE_ON_57
VEL_5
NOTE_ON_64
VEL_3
NOTE_ON_40
VEL_4
NOTE_ON_52
VEL_3
NOTE_ON_45
VEL_3
NOTE_ON_48
TIME_SHIFT_64ND_22
NOTE_OFF_60
NOTE_OFF_57
NOTE_OFF_64
NOTE_OFF_40
NOTE_OFF_52
NOTE_OFF_45
NOTE_OFF_48
VEL_3
NOTE_ON_71
VEL_4
NOTE_ON_80
VEL_5
NOTE_ON_65
TIME_SHIFT_64ND_2
NOTE_OFF_71
NOTE_OFF_80
TIME_SHIFT_64ND_2
VEL_3
NOTE_ON_74
VEL_4
NOTE_ON_83
TIME_SHIFT_64ND_2
NOTE_OFF_74
NOTE_OFF_83
TIME_SHIFT_64ND_2
NOTE_OFF_65
VEL_3
NOTE_ON_71
VEL_4
NOTE_ON_80
VEL_4
NOTE_ON_64
TIME_SHIFT_64ND_3
NOTE_OFF_71
NOTE_OFF_80
NOTE_OFF_64
TIME_SHIFT_64ND_3
VEL_3
NOTE_ON_74
VEL_4
NOTE_ON_83
TIME_SHIFT_64ND_3
NOTE_OFF_74
NOTE_OFF_83
TIME_SHIFT_64ND_3
VEL_5
NOTE_ON_53
VEL_3
NOTE_ON_44
VEL_4
NOTE_ON_47
TIME_SHIFT_64ND_3
NOTE_OFF_44
NOTE_OFF_47
TIME_SHIFT_64ND_3
VEL_4
NOTE_ON_50
TIME_SHIFT_64ND_3
NOTE_OFF_50
TIME_SHIFT_64ND_3
NOTE_OFF_53
VEL_4
NOTE_ON_52
VEL_4
NOTE_ON_47
VEL_3
NOTE_ON_44
TIME_SHIFT_64ND_3
NOTE_OFF_52
NOTE_OFF_47
NOTE_OFF_44
TIME_SHIFT_64ND_3
VEL_4
NOTE_ON_50
TIME_SHIFT_64ND_3
NOTE_OFF_50
TIME_SHIFT_64ND_3
VEL_3
NOTE_ON_72
VEL_4
NOTE_ON_81
VEL_5
NOTE_ON_65
TIME_SHIFT_64ND_2
NOTE_OFF_72
NOTE_OFF_81
TIME_SHIFT_64ND_2
VEL_3
NOTE_ON_76
VEL_4
NOTE_ON_84
TIME_SHIFT_64ND_2
NOTE_OFF_76
NOTE_OFF_84
TIME_SHIFT_64ND_2
NOTE_OFF_65
VEL_3
NOTE_ON_72
VEL_4
NOTE_ON_81
VEL_4
NOTE_ON_64
TIME_SHIFT_64ND_2
NOTE_OFF_72
NOTE_OFF_81
NOTE_OFF_64
TIME_SHIFT_64ND_2
VEL_3
NOTE_ON_76
VEL_4
NOTE_ON_84
TIME_SHIFT_64ND_3
NOTE_OFF_76
NOTE_OFF_84
TIME_SHIFT_64ND_3
VEL_5
NOTE_ON_53
VEL_4
NOTE_ON_45
TIME_SHIFT_64ND_3
NOTE_OFF_45
TIME_SHIFT_64ND_3
VEL_4
NOTE_ON_48
TIME_SHIFT_64ND_3
NOTE_OFF_48
TIME_SHIFT_64ND_3
NOTE_OFF_53
VEL_4
NOTE_ON_52
VEL_4
NOTE_ON_45
TIME_SHIFT_64ND_3
NOTE_OFF_52
NOTE_OFF_45
TIME_SHIFT_64ND_3
VEL_4
NOTE_ON_48
TIME_SHIFT_64ND_3
NOTE_OFF_48
TIME_SHIFT_64ND_3
VEL_4
NOTE_ON_92
VEL_4
NOTE_ON_89
VEL_5
NOTE_ON_95
VEL_5
NOTE_ON_101
VEL_3
NOTE_ON_68
VEL_3
NOTE_ON_71
VEL_3
NOTE_ON_65
VEL_3
NOTE_ON_77
TIME_SHIFT_64ND_5
VEL_4
NOTE_ON_88
VEL_5
NOTE_ON_100
VEL_3
NOTE_ON_64
VEL_3
NOTE_ON_76
TIME_SHIFT_64ND_1
NOTE_OFF_92
NOTE_OFF_89
NOTE_OFF_95
NOTE_OFF_101
NOTE_OFF_68
NOTE_OFF_71
NOTE_OFF_65
NOTE_OFF_77
TIME_SHIFT_64ND_5
VEL_5
NOTE_ON_98
VEL_4
NOTE_ON_86
VEL_3
NOTE_ON_74
VEL_3
NOTE_ON_62
TIME_SHIFT_64ND_1
NOTE_OFF_88
NOTE_OFF_100
NOTE_OFF_64
NOTE_OFF_76
TIME_SHIFT_64ND_5
VEL_5
NOTE_ON_96
VEL_4
NOTE_ON_84
VEL_3
NOTE_ON_72
VEL_3
NOTE_ON_60
TIME_SHIFT_64ND_1
NOTE_OFF_98
NOTE_OFF_86
NOTE_OFF_74
NOTE_OFF_62
TIME_SHIFT_64ND_5
VEL_5
NOTE_ON_95
VEL_4
NOTE_ON_83
VEL_3
NOTE_ON_71
VEL_2
NOTE_ON_59
TIME_SHIFT_64ND_1
NOTE_OFF_96
NOTE_OFF_84
NOTE_OFF_72
NOTE_OFF_60
TIME_SHIFT_64ND_5
VEL_5
NOTE_ON_93
VEL_4
NOTE_ON_81
VEL_3
NOTE_ON_69
VEL_2
NOTE_ON_57
TIME_SHIFT_64ND_1
NOTE_OFF_95
NOTE_OFF_83
NOTE_OFF_71
NOTE_OFF_59
TIME_SHIFT_64ND_5
VEL_4
NOTE_ON_92
VEL_4
NOTE_ON_80
VEL_3
NOTE_ON_68
VEL_2
NOTE_ON_56
TIME_SHIFT_64ND_1
NOTE_OFF_93
NOTE_OFF_81
NOTE_OFF_69
NOTE_OFF_57
TIME_SHIFT_64ND_5
VEL_4
NOTE_ON_88
VEL_4
NOTE_ON_76
VEL_3
NOTE_ON_64
VEL_2
NOTE_ON_52
TIME_SHIFT_64ND_1
NOTE_OFF_92
NOTE_OFF_80
NOTE_OFF_68
NOTE_OFF_56
TIME_SHIFT_64ND_5
VEL_4
NOTE_ON_80
VEL_5
NOTE_ON_89
VEL_4
NOTE_ON_77
VEL_4
NOTE_ON_83
VEL_3
NOTE_ON_53
VEL_3
NOTE_ON_59
VEL_3
NOTE_ON_65
VEL_3
NOTE_ON_56
TIME_SHIFT_64ND_1
NOTE_OFF_88
NOTE_OFF_76
NOTE_OFF_64
NOTE_OFF_52
TIME_SHIFT_64ND_5
VEL_4
NOTE_ON_76
VEL_4
NOTE_ON_88
VEL_3
NOTE_ON_64
VEL_3
NOTE_ON_52
TIME_SHIFT_64ND_1
NOTE_OFF_80
NOTE_OFF_89
NOTE_OFF_77
NOTE_OFF_83
NOTE_OFF_53
NOTE_OFF_59
NOTE_OFF_65
NOTE_OFF_56
TIME_SHIFT_64ND_5
VEL_4
NOTE_ON_86
VEL_3
NOTE_ON_74
VEL_3
NOTE_ON_62
VEL_2
NOTE_ON_50
TIME_SHIFT_64ND_1
NOTE_OFF_76
NOTE_OFF_88
NOTE_OFF_64
NOTE_OFF_52
TIME_SHIFT_64ND_5
VEL_4
NOTE_ON_84
VEL_3
NOTE_ON_72
VEL_3
NOTE_ON_60
VEL_2
NOTE_ON_48
TIME_SHIFT_64ND_1
NOTE_OFF_86
NOTE_OFF_74
NOTE_OFF_62
NOTE_OFF_50
TIME_SHIFT_64ND_5
VEL_4
NOTE_ON_83
VEL_3
NOTE_ON_71
VEL_3
NOTE_ON_59
VEL_2
NOTE_ON_47
TIME_SHIFT_64ND_1
NOTE_OFF_84
NOTE_OFF_72
NOTE_OFF_60
NOTE_OFF_48
TIME_SHIFT_64ND_5
VEL_4
NOTE_ON_81
VEL_3
NOTE_ON_69
VEL_3
NOTE_ON_57
VEL_2
NOTE_ON_45
TIME_SHIFT_64ND_1
NOTE_OFF_83
NOTE_OFF_71
NOTE_OFF_59
NOTE_OFF_47
TIME_SHIFT_64ND_5
VEL_4
NOTE_ON_80
VEL_3
NOTE_ON_68
VEL_2
NOTE_ON_44
VEL_3
NOTE_ON_56
TIME_SHIFT_64ND_1
NOTE_OFF_81
NOTE_OFF_69
NOTE_OFF_57
NOTE_OFF_45
TIME_SHIFT_64ND_5
VEL_4
NOTE_ON_76
VEL_3
NOTE_ON_64
VEL_2
NOTE_ON_40
VEL_3
NOTE_ON_52
TIME_SHIFT_64ND_1
NOTE_OFF_80
NOTE_OFF_68
NOTE_OFF_44
NOTE_OFF_56
TIME_SHIFT_64ND_5
VEL_4
NOTE_ON_77
VEL_3
NOTE_ON_65
VEL_2
NOTE_ON_41
VEL_3
NOTE_ON_53
TIME_SHIFT_64ND_1
NOTE_OFF_76
NOTE_OFF_64
NOTE_OFF_40
NOTE_OFF_52
TIME_SHIFT_64ND_5
VEL_4
NOTE_ON_75
VEL_3
NOTE_ON_63
VEL_2
NOTE_ON_39
VEL_3
NOTE_ON_51
TIME_SHIFT_64ND_1
NOTE_OFF_77
NOTE_OFF_65
NOTE_OFF_41
NOTE_OFF_53
TIME_SHIFT_64ND_5
VEL_4
NOTE_ON_76
VEL_3
NOTE_ON_64
VEL_2
NOTE_ON_40
VEL_3
NOTE_ON_52
TIME_SHIFT_64ND_1
NOTE_OFF_75
NOTE_OFF_63
NOTE_OFF_39
NOTE_OFF_51
TIME_SHIFT_64ND_5
VEL_4
NOTE_ON_74
VEL_3
NOTE_ON_62
VEL_3
NOTE_ON_50
VEL_2
NOTE_ON_38
TIME_SHIFT_64ND_1
NOTE_OFF_76
NOTE_OFF_64
NOTE_OFF_40
NOTE_OFF_52
TIME_SHIFT_64ND_5
VEL_4
NOTE_ON_75
VEL_3
NOTE_ON_63
VEL_3
NOTE_ON_51
VEL_2
NOTE_ON_39
TIME_SHIFT_64ND_1
NOTE_OFF_74
NOTE_OFF_62
NOTE_OFF_50
NOTE_OFF_38
TIME_SHIFT_64ND_5
VEL_4
NOTE_ON_73
VEL_3
NOTE_ON_61
VEL_3
NOTE_ON_49
VEL_2
NOTE_ON_37
TIME_SHIFT_64ND_1
NOTE_OFF_75
NOTE_OFF_63
NOTE_OFF_51
NOTE_OFF_39
TIME_SHIFT_64ND_5
VEL_4
NOTE_ON_74
VEL_3
NOTE_ON_62
VEL_3
NOTE_ON_50
VEL_2
NOTE_ON_38
TIME_SHIFT_64ND_1
NOTE_OFF_73
NOTE_OFF_61
NOTE_OFF_49
NOTE_OFF_37
TIME_SHIFT_64ND_5
VEL_4
NOTE_ON_72
VEL_3
NOTE_ON_60
VEL_3
NOTE_ON_48
VEL_2
NOTE_ON_36
TIME_SHIFT_64ND_1
NOTE_OFF_74
NOTE_OFF_62
NOTE_OFF_50
NOTE_OFF_38
TIME_SHIFT_64ND_5
NOTE_OFF_72
NOTE_OFF_60
NOTE_OFF_48
NOTE_OFF_36
VEL_4
NOTE_ON_61
VEL_4
NOTE_ON_73
VEL_3
NOTE_ON_37
VEL_3
NOTE_ON_49
TIME_SHIFT_64ND_6
NOTE_OFF_61
NOTE_OFF_73
NOTE_OFF_37
NOTE_OFF_49
VEL_3
NOTE_ON_59
VEL_4
NOTE_ON_71
VEL_2
NOTE_ON_35
VEL_3
NOTE_ON_47
TIME_SHIFT_64ND_6
NOTE_OFF_59
NOTE_OFF_71
NOTE_OFF_35
NOTE_OFF_47
VEL_4
NOTE_ON_60
VEL_5
NOTE_ON_72
VEL_3
NOTE_ON_36
VEL_3
NOTE_ON_48
TIME_SHIFT_64ND_6
NOTE_OFF_60
NOTE_OFF_72
NOTE_OFF_36
NOTE_OFF_48
VEL_4
NOTE_ON_58
VEL_4
NOTE_ON_70
VEL_3
NOTE_ON_46
VEL_3
NOTE_ON_34
TIME_SHIFT_64ND_6
NOTE_OFF_58
NOTE_OFF_70
NOTE_OFF_46
NOTE_OFF_34
VEL_4
NOTE_ON_59
VEL_5
NOTE_ON_71
VEL_4
NOTE_ON_47
VEL_3
NOTE_ON_35
TIME_SHIFT_64ND_6
NOTE_OFF_59
NOTE_OFF_71
NOTE_OFF_47
NOTE_OFF_35
VEL_4
NOTE_ON_57
VEL_5
NOTE_ON_69
VEL_3
NOTE_ON_45
VEL_3
NOTE_ON_33
TIME_SHIFT_64ND_7
NOTE_OFF_57
NOTE_OFF_69
NOTE_OFF_45
NOTE_OFF_33
VEL_5
NOTE_ON_58
VEL_6
NOTE_ON_70
VEL_4
NOTE_ON_46
VEL_3
NOTE_ON_34
TIME_SHIFT_64ND_7
NOTE_OFF_58
NOTE_OFF_70
NOTE_OFF_46
NOTE_OFF_34
VEL_4
NOTE_ON_56
VEL_5
NOTE_ON_68
VEL_4
NOTE_ON_44
VEL_3
NOTE_ON_32
TIME_SHIFT_64ND_10
NOTE_OFF_56
NOTE_OFF_68
NOTE_OFF_44
NOTE_OFF_32
VEL_5
NOTE_ON_85
VEL_6
NOTE_ON_93
VEL_5
NOTE_ON_81
VEL_5
NOTE_ON_45
VEL_4
NOTE_ON_33
VEL_4
NOTE_ON_40
TIME_SHIFT_64ND_12
VEL_4
NOTE_ON_64
VEL_5
NOTE_ON_69
VEL_4
NOTE_ON_61
VEL_3
NOTE_ON_52
VEL_3
NOTE_ON_49
VEL_4
NOTE_ON_57
TIME_SHIFT_64ND_5
NOTE_OFF_64
NOTE_OFF_69
NOTE_OFF_61
NOTE_OFF_52
NOTE_OFF_49
NOTE_OFF_57
VEL_4
NOTE_ON_64
VEL_4
NOTE_ON_61
VEL_5
NOTE_ON_69
VEL_3
NOTE_ON_49
VEL_3
NOTE_ON_52
VEL_4
NOTE_ON_57
TIME_SHIFT_64ND_6
NOTE_OFF_64
NOTE_OFF_85
NOTE_OFF_93
NOTE_OFF_81
NOTE_OFF_61
NOTE_OFF_69
NOTE_OFF_49
NOTE_OFF_45
NOTE_OFF_33
NOTE_OFF_40
NOTE_OFF_52
NOTE_OFF_57
VEL_5
NOTE_ON_64
VEL_5
NOTE_ON_61
VEL_6
NOTE_ON_69
VEL_4
NOTE_ON_57
VEL_3
NOTE_ON_52
VEL_3
NOTE_ON_49
TIME_SHIFT_64ND_6
NOTE_OFF_64
NOTE_OFF_61
NOTE_OFF_69
NOTE_OFF_57
NOTE_OFF_52
NOTE_OFF_49
TIME_SHIFT_64ND_6
VEL_5
NOTE_ON_83
VEL_5
NOTE_ON_80
VEL_6
NOTE_ON_92
VEL_3
NOTE_ON_53
VEL_4
NOTE_ON_62
VEL_3
NOTE_ON_50
TIME_SHIFT_64ND_6
NOTE_OFF_83
NOTE_OFF_80
NOTE_OFF_92
NOTE_OFF_53
NOTE_OFF_62
NOTE_OFF_50
VEL_5
NOTE_ON_86
VEL_5
NOTE_ON_83
VEL_6
NOTE_ON_95
TIME_SHIFT_64ND_6
NOTE_OFF_86
NOTE_OFF_83
NOTE_OFF_95
VEL_5
NOTE_ON_85
VEL_5
NOTE_ON_81
VEL_6
NOTE_ON_93
VEL_4
NOTE_ON_52
VEL_5
NOTE_ON_57
VEL_4
NOTE_ON_49
VEL_4
NOTE_ON_45
TIME_SHIFT_64ND_6
NOTE_OFF_85
NOTE_OFF_81
NOTE_OFF_93
NOTE_OFF_52
NOTE_OFF_57
NOTE_OFF_49
NOTE_OFF_45
TIME_SHIFT_64ND_6
VEL_5
NOTE_ON_83
VEL_5
NOTE_ON_80
VEL_6
NOTE_ON_92
VEL_3
NOTE_ON_38
VEL_4
NOTE_ON_50
VEL_3
NOTE_ON_41
TIME_SHIFT_64ND_6
NOTE_OFF_83
NOTE_OFF_80
NOTE_OFF_92
NOTE_OFF_38
NOTE_OFF_50
NOTE_OFF_41
VEL_5
NOTE_ON_86
VEL_5
NOTE_ON_83
VEL_6
NOTE_ON_95
TIME_SHIFT_64ND_6
NOTE_OFF_86
NOTE_OFF_83
NOTE_OFF_95
VEL_5
NOTE_ON_85
VEL_5
NOTE_ON_81
VEL_6
NOTE_ON_93
VEL_3
NOTE_ON_37
VEL_3
NOTE_ON_40
VEL_4
NOTE_ON_45
VEL_3
NOTE_ON_33
TIME_SHIFT_64ND_6
NOTE_OFF_85
NOTE_OFF_81
NOTE_OFF_93
NOTE_OFF_37
NOTE_OFF_40
NOTE_OFF_45
NOTE_OFF_33
TIME_SHIFT_64ND_6
VEL_5
NOTE_ON_85
VEL_5
NOTE_ON_81
VEL_6
NOTE_ON_93
VEL_4
NOTE_ON_54
VEL_3
NOTE_ON_42
TIME_SHIFT_64ND_6
NOTE_OFF_85
NOTE_OFF_81
NOTE_OFF_93
NOTE_OFF_54
NOTE_OFF_42
TIME_SHIFT_64ND_6
VEL_5
NOTE_ON_89
VEL_6
NOTE_ON_97
VEL_5
NOTE_ON_85
VEL_4
NOTE_ON_49
VEL_4
NOTE_ON_37
VEL_4
NOTE_ON_44
TIME_SHIFT_64ND_12
VEL_4
NOTE_ON_68
VEL_5
NOTE_ON_73
VEL_4
NOTE_ON_65
VEL_3
NOTE_ON_53
VEL_4
NOTE_ON_61
VEL_3
NOTE_ON_56
TIME_SHIFT_64ND_5
NOTE_OFF_68
NOTE_OFF_73
NOTE_OFF_65
NOTE_OFF_53
NOTE_OFF_61
NOTE_OFF_56
VEL_4
NOTE_ON_68
VEL_4
NOTE_ON_65
VEL_5
NOTE_ON_73
VEL_4
NOTE_ON_61
VEL_3
NOTE_ON_56
VEL_3
NOTE_ON_53
TIME_SHIFT_64ND_6
NOTE_OFF_68
NOTE_OFF_89
NOTE_OFF_97
NOTE_OFF_85
NOTE_OFF_65
NOTE_OFF_73
NOTE_OFF_61
NOTE_OFF_49
NOTE_OFF_37
NOTE_OFF_44
NOTE_OFF_56
NOTE_OFF_53
VEL_5
NOTE_ON_68
VEL_5
NOTE_ON_65
VEL_6
NOTE_ON_73
VEL_3
NOTE_ON_53
VEL_3
NOTE_ON_56
VEL_4
NOTE_ON_61
TIME_SHIFT_64ND_6
NOTE_OFF_68
NOTE_OFF_65
NOTE_OFF_73
NOTE_OFF_53
NOTE_OFF_56
NOTE_OFF_61
TIME_SHIFT_64ND_6
VEL_5
NOTE_ON_87
VEL_5
NOTE_ON_84
VEL_6
NOTE_ON_96
VEL_3
NOTE_ON_54
VEL_3
NOTE_ON_57
VEL_4
NOTE_ON_66
TIME_SHIFT_64ND_6
NOTE_OFF_87
NOTE_OFF_84
NOTE_OFF_96
NOTE_OFF_54
NOTE_OFF_57
NOTE_OFF_66
VEL_5
NOTE_ON_90
VEL_5
NOTE_ON_87
VEL_6
NOTE_ON_99
TIME_SHIFT_64ND_6
NOTE_OFF_90
NOTE_OFF_87
NOTE_OFF_99
VEL_5
NOTE_ON_89
VEL_5
NOTE_ON_85
VEL_6
NOTE_ON_97
VEL_5
NOTE_ON_61
VEL_4
NOTE_ON_49
VEL_4
NOTE_ON_53
VEL_4
NOTE_ON_56
TIME_SHIFT_64ND_6
NOTE_OFF_89
NOTE_OFF_85
NOTE_OFF_97
NOTE_OFF_61
NOTE_OFF_49
NOTE_OFF_53
NOTE_OFF_56
TIME_SHIFT_64ND_6
VEL_5
NOTE_ON_87
VEL_5
NOTE_ON_84
VEL_6
NOTE_ON_96
VEL_4
NOTE_ON_54
VEL_3
NOTE_ON_45
VEL_3
NOTE_ON_42
TIME_SHIFT_64ND_6
NOTE_OFF_87
NOTE_OFF_84
NOTE_OFF_96
NOTE_OFF_54
NOTE_OFF_45
NOTE_OFF_42
VEL_5
NOTE_ON_90
VEL_5
NOTE_ON_87
VEL_6
NOTE_ON_99
TIME_SHIFT_64ND_6
NOTE_OFF_90
NOTE_OFF_87
NOTE_OFF_99
VEL_5
NOTE_ON_89
VEL_5
NOTE_ON_85
VEL_6
NOTE_ON_97
VEL_3
NOTE_ON_41
VEL_3
NOTE_ON_37
VEL_4
NOTE_ON_49
VEL_3
NOTE_ON_44
TIME_SHIFT_64ND_6
NOTE_OFF_89
NOTE_OFF_85
NOTE_OFF_97
NOTE_OFF_41
NOTE_OFF_37
NOTE_OFF_49
NOTE_OFF_44
TIME_SHIFT_64ND_6
VEL_5
NOTE_ON_89
VEL_5
NOTE_ON_85
VEL_6
NOTE_ON_97
VEL_4
NOTE_ON_58
VEL_3
NOTE_ON_46
TIME_SHIFT_64ND_6
NOTE_OFF_89
NOTE_OFF_85
NOTE_OFF_97
NOTE_OFF_58
NOTE_OFF_46
TIME_SHIFT_64ND_6
VEL_5
NOTE_ON_93
VEL_6
NOTE_ON_101
VEL_5
NOTE_ON_89
VEL_4
NOTE_ON_53
VEL_4
NOTE_ON_48
VEL_4
NOTE_ON_45
VEL_4
NOTE_ON_41
TIME_SHIFT_64ND_12
VEL_4
NOTE_ON_72
VEL_5
NOTE_ON_77
VEL_4
NOTE_ON_69
VEL_3
NOTE_ON_60
VEL_4
NOTE_ON_65
VEL_3
NOTE_ON_57
TIME_SHIFT_64ND_5
NOTE_OFF_72
NOTE_OFF_77
NOTE_OFF_69
NOTE_OFF_60
NOTE_OFF_65
NOTE_OFF_57
VEL_4
NOTE_ON_72
VEL_4
NOTE_ON_69
VEL_5
NOTE_ON_77
VEL_3
NOTE_ON_60
VEL_4
NOTE_ON_65
VEL_3
NOTE_ON_57
TIME_SHIFT_64ND_6
NOTE_OFF_72
NOTE_OFF_93
NOTE_OFF_101
NOTE_OFF_89
NOTE_OFF_69
NOTE_OFF_77
NOTE_OFF_60
NOTE_OFF_65
NOTE_OFF_53
NOTE_OFF_48
NOTE_OFF_45
NOTE_OFF_57
NOTE_OFF_41
VEL_5
NOTE_ON_72
VEL_5
NOTE_ON_69
VEL_6
NOTE_ON_77
VEL_4
NOTE_ON_65
VEL_3
NOTE_ON_60
VEL_3
NOTE_ON_57
TIME_SHIFT_64ND_6
NOTE_OFF_72
NOTE_OFF_69
NOTE_OFF_77
NOTE_OFF_65
NOTE_OFF_60
NOTE_OFF_57
TIME_SHIFT_64ND_6
VEL_4
NOTE_ON_91
VEL_4
NOTE_ON_88
VEL_5
NOTE_ON_100
VEL_3
NOTE_ON_58
VEL_3
NOTE_ON_61
VEL_3
NOTE_ON_70
TIME_SHIFT_64ND_6
NOTE_OFF_91
NOTE_OFF_88
NOTE_OFF_100
NOTE_OFF_58
NOTE_OFF_61
NOTE_OFF_70
VEL_4
NOTE_ON_94
VEL_4
NOTE_ON_91
VEL_5
NOTE_ON_103
TIME_SHIFT_64ND_6
NOTE_OFF_94
NOTE_OFF_91
NOTE_OFF_103
VEL_5
NOTE_ON_93
VEL_5
NOTE_ON_89
VEL_6
NOTE_ON_101
VEL_4
NOTE_ON_65
VEL_3
NOTE_ON_53
VEL_3
NOTE_ON_57
VEL_3
NOTE_ON_60
TIME_SHIFT_64ND_6
NOTE_OFF_93
NOTE_OFF_89
NOTE_OFF_101
NOTE_OFF_65
NOTE_OFF_53
NOTE_OFF_57
NOTE_OFF_60
TIME_SHIFT_64ND_6
VEL_4
NOTE_ON_91
VEL_4
NOTE_ON_88
VEL_5
NOTE_ON_100
VEL_3
NOTE_ON_58
VEL_3
NOTE_ON_49
VEL_3
NOTE_ON_46
TIME_SHIFT_64ND_6
NOTE_OFF_91
NOTE_OFF_88
NOTE_OFF_100
NOTE_OFF_58
NOTE_OFF_49
NOTE_OFF_46
VEL_4
NOTE_ON_94
VEL_4
NOTE_ON_91
VEL_5
NOTE_ON_103
TIME_SHIFT_64ND_6
NOTE_OFF_94
NOTE_OFF_91
NOTE_OFF_103
VEL_5
NOTE_ON_93
VEL_5
NOTE_ON_89
VEL_6
NOTE_ON_101
VEL_3
NOTE_ON_45
VEL_3
NOTE_ON_41
VEL_3
NOTE_ON_53
VEL_3
NOTE_ON_48
TIME_SHIFT_64ND_6
NOTE_OFF_93
NOTE_OFF_89
NOTE_OFF_101
NOTE_OFF_45
NOTE_OFF_41
NOTE_OFF_53
NOTE_OFF_48
TIME_SHIFT_64ND_6
VEL_4
NOTE_ON_81
VEL_4
NOTE_ON_77
VEL_5
NOTE_ON_89
VEL_4
NOTE_ON_50
VEL_3
NOTE_ON_38
TIME_SHIFT_64ND_6
NOTE_OFF_81
NOTE_OFF_77
NOTE_OFF_89
NOTE_OFF_50
NOTE_OFF_38
TIME_SHIFT_64ND_6
VEL_4
NOTE_ON_85
VEL_4
NOTE_ON_81
VEL_5
NOTE_ON_93
VEL_4
NOTE_ON_45
VEL_4
NOTE_ON_33
TIME_SHIFT_64ND_6
NOTE_OFF_85
NOTE_OFF_81
NOTE_OFF_93
VEL_4
NOTE_ON_80
VEL_4
NOTE_ON_92
TIME_SHIFT_64ND_6
NOTE_OFF_80
NOTE_OFF_92
NOTE_OFF_45
NOTE_OFF_33
VEL_4
NOTE_ON_81
VEL_5
NOTE_ON_93
VEL_3
NOTE_ON_52
VEL_4
NOTE_ON_64
VEL_3
NOTE_ON_57
VEL_3
NOTE_ON_61
TIME_SHIFT_64ND_6
NOTE_OFF_81
NOTE_OFF_93
VEL_4
NOTE_ON_83
VEL_4
NOTE_ON_95
TIME_SHIFT_64ND_6
NOTE_OFF_83
NOTE_OFF_95
NOTE_OFF_52
NOTE_OFF_64
NOTE_OFF_57
NOTE_OFF_61
VEL_4
NOTE_ON_85
VEL_5
NOTE_ON_97
VEL_4
NOTE_ON_33
VEL_4
NOTE_ON_45
TIME_SHIFT_64ND_11
NOTE_OFF_33
NOTE_OFF_45
VEL_3
NOTE_ON_61
VEL_4
NOTE_ON_65
VEL_3
NOTE_ON_53
VEL_3
NOTE_ON_57
TIME_SHIFT_64ND_6
NOTE_OFF_85
NOTE_OFF_97
VEL_4
NOTE_ON_85
VEL_5
NOTE_ON_97
TIME_SHIFT_64ND_6
NOTE_OFF_85
NOTE_OFF_97
NOTE_OFF_61
NOTE_OFF_65
NOTE_OFF_53
NOTE_OFF_57
VEL_4
NOTE_ON_85
VEL_5
NOTE_ON_97
VEL_4
NOTE_ON_33
VEL_4
NOTE_ON_45
TIME_SHIFT_64ND_6
NOTE_OFF_85
NOTE_OFF_97
VEL_4
NOTE_ON_83
VEL_4
NOTE_ON_95
TIME_SHIFT_64ND_6
NOTE_OFF_83
NOTE_OFF_95
NOTE_OFF_33
NOTE_OFF_45
VEL_4
NOTE_ON_81
VEL_5
NOTE_ON_93
VEL_3
NOTE_ON_62
VEL_3
NOTE_ON_54
VEL_4
NOTE_ON_66
TIME_SHIFT_64ND_6
NOTE_OFF_81
NOTE_OFF_93
VEL_4
NOTE_ON_80
VEL_4
NOTE_ON_92
TIME_SHIFT_64ND_6
NOTE_OFF_80
NOTE_OFF_92
NOTE_OFF_62
NOTE_OFF_54
NOTE_OFF_66
VEL_4
NOTE_ON_81
VEL_5
NOTE_ON_93
VEL_4
NOTE_ON_33
VEL_4
NOTE_ON_45
TIME_SHIFT_64ND_11
NOTE_OFF_33
NOTE_OFF_45
VEL_4
NOTE_ON_63
VEL_3
NOTE_ON_54
VEL_3
NOTE_ON_60
TIME_SHIFT_64ND_6
NOTE_OFF_81
NOTE_OFF_93
VEL_4
NOTE_ON_90
VEL_5
NOTE_ON_102
TIME_SHIFT_64ND_6
NOTE_OFF_90
NOTE_OFF_102
NOTE_OFF_63
NOTE_OFF_54
NOTE_OFF_60
VEL_4
NOTE_ON_88
VEL_5
NOTE_ON_100
VEL_4
NOTE_ON_45
VEL_4
NOTE_ON_33
TIME_SHIFT_64ND_5
NOTE_OFF_88
NOTE_OFF_100
VEL_4
NOTE_ON_86
VEL_4
NOTE_ON_98
TIME_SHIFT_64ND_6
NOTE_OFF_86
NOTE_OFF_98
NOTE_OFF_45
NOTE_OFF_33
VEL_4
NOTE_ON_85
VEL_5
NOTE_ON_97
VEL_3
NOTE_ON_52
VEL_4
NOTE_ON_64
VEL_3
NOTE_ON_56
TIME_SHIFT_64ND_5
NOTE_OFF_85
NOTE_OFF_97
VEL_4
NOTE_ON_88
VEL_4
NOTE_ON_100
TIME_SHIFT_64ND_6
NOTE_OFF_88
NOTE_OFF_100
NOTE_OFF_52
NOTE_OFF_64
NOTE_OFF_56
VEL_4
NOTE_ON_86
VEL_5
NOTE_ON_98
VEL_4
NOTE_ON_33
VEL_4
NOTE_ON_45
TIME_SHIFT_64ND_5
NOTE_OFF_86
NOTE_OFF_98
VEL_4
NOTE_ON_85
VEL_4
NOTE_ON_97
TIME_SHIFT_64ND_6
NOTE_OFF_85
NOTE_OFF_97
NOTE_OFF_33
NOTE_OFF_45
VEL_4
NOTE_ON_83
VEL_5
NOTE_ON_95
VEL_4
NOTE_ON_64
VEL_3
NOTE_ON_59
VEL_3
NOTE_ON_56
VEL_3
NOTE_ON_52
TIME_SHIFT_64ND_6
NOTE_OFF_83
NOTE_OFF_95
VEL_4
NOTE_ON_86
VEL_4
NOTE_ON_98
TIME_SHIFT_64ND_6
NOTE_OFF_86
NOTE_OFF_98
NOTE_OFF_64
NOTE_OFF_59
NOTE_OFF_56
NOTE_OFF_52
VEL_4
NOTE_ON_85
VEL_5
NOTE_ON_97
VEL_4
NOTE_ON_45
VEL_4
NOTE_ON_33
TIME_SHIFT_64ND_6
NOTE_OFF_85
NOTE_OFF_97
VEL_4
NOTE_ON_83
VEL_4
NOTE_ON_95
TIME_SHIFT_64ND_6
NOTE_OFF_83
NOTE_OFF_95
NOTE_OFF_45
NOTE_OFF_33
VEL_4
NOTE_ON_81
VEL_5
NOTE_ON_93
VEL_3
NOTE_ON_61
VEL_4
NOTE_ON_64
VEL_3
NOTE_ON_57
VEL_3
NOTE_ON_52
TIME_SHIFT_64ND_6
NOTE_OFF_81
NOTE_OFF_93
VEL_4
NOTE_ON_85
VEL_4
NOTE_ON_97
TIME_SHIFT_64ND_6
NOTE_OFF_85
NOTE_OFF_97
NOTE_OFF_61
NOTE_OFF_64
NOTE_OFF_57
NOTE_OFF_52
VEL_4
NOTE_ON_83
VEL_5
NOTE_ON_95
VEL_4
NOTE_ON_45
VEL_4
NOTE_ON_33
TIME_SHIFT_64ND_6
NOTE_OFF_83
NOTE_OFF_95
VEL_4
NOTE_ON_81
VEL_4
NOTE_ON_93
TIME_SHIFT_64ND_6
NOTE_OFF_81
NOTE_OFF_93
NOTE_OFF_45
NOTE_OFF_33
VEL_4
NOTE_ON_80
VEL_5
NOTE_ON_92
VEL_4
NOTE_ON_64
VEL_3
NOTE_ON_52
VEL_3
NOTE_ON_59
TIME_SHIFT_64ND_11
NOTE_OFF_80
NOTE_OFF_92
NOTE_OFF_64
NOTE_OFF_52
NOTE_OFF_59
VEL_4
NOTE_ON_81
VEL_5
NOTE_ON_93
VEL_4
NOTE_ON_45
VEL_4
NOTE_ON_33
TIME_SHIFT_64ND_6
NOTE_OFF_81
NOTE_OFF_93
VEL_4
NOTE_ON_80
VEL_4
NOTE_ON_92
TIME_SHIFT_64ND_6
NOTE_OFF_80
NOTE_OFF_92
NOTE_OFF_45
NOTE_OFF_33
VEL_4
NOTE_ON_81
VEL_5
NOTE_ON_93
VEL_3
NOTE_ON_52
VEL_3
NOTE_ON_61
VEL_4
NOTE_ON_64
VEL_3
NOTE_ON_57
TIME_SHIFT_64ND_6
NOTE_OFF_81
NOTE_OFF_93
VEL_4
NOTE_ON_83
VEL_4
NOTE_ON_95
TIME_SHIFT_64ND_6
NOTE_OFF_83
NOTE_OFF_95
NOTE_OFF_52
NOTE_OFF_61
NOTE_OFF_64
NOTE_OFF_57
VEL_4
NOTE_ON_85
VEL_5
NOTE_ON_97
VEL_4
NOTE_ON_33
VEL_4
NOTE_ON_45
TIME_SHIFT_64ND_11
NOTE_OFF_33
NOTE_OFF_45
VEL_3
NOTE_ON_53
VEL_4
NOTE_ON_65
VEL_3
NOTE_ON_61
VEL_3
NOTE_ON_57
TIME_SHIFT_64ND_6
NOTE_OFF_85
NOTE_OFF_97
VEL_4
NOTE_ON_85
VEL_5
NOTE_ON_97
TIME_SHIFT_64ND_6
NOTE_OFF_85
NOTE_OFF_97
NOTE_OFF_53
NOTE_OFF_65
NOTE_OFF_61
NOTE_OFF_57
VEL_4
NOTE_ON_85
VEL_5
NOTE_ON_97
VEL_4
NOTE_ON_33
VEL_4
NOTE_ON_45
TIME_SHIFT_64ND_6
NOTE_OFF_85
NOTE_OFF_97
VEL_4
NOTE_ON_83
VEL_4
NOTE_ON_95
TIME_SHIFT_64ND_6
NOTE_OFF_83
NOTE_OFF_95
NOTE_OFF_33
NOTE_OFF_45
VEL_4
NOTE_ON_81
VEL_5
NOTE_ON_93
VEL_4
NOTE_ON_66
VEL_3
NOTE_ON_54
VEL_3
NOTE_ON_62
TIME_SHIFT_64ND_6
NOTE_OFF_81
NOTE_OFF_93
VEL_4
NOTE_ON_80
VEL_4
NOTE_ON_92
TIME_SHIFT_64ND_6
NOTE_OFF_80
NOTE_OFF_92
NOTE_OFF_66
NOTE_OFF_54
NOTE_OFF_62
VEL_4
NOTE_ON_81
VEL_5
NOTE_ON_93
VEL_4
NOTE_ON_45
VEL_4
NOTE_ON_33
TIME_SHIFT_64ND_11
NOTE_OFF_45
NOTE_OFF_33
VEL_4
NOTE_ON_63
VEL_3
NOTE_ON_54
VEL_3
NOTE_ON_60
TIME_SHIFT_64ND_6
NOTE_OFF_81
NOTE_OFF_93
VEL_4
NOTE_ON_90
VEL_5
NOTE_ON_102
TIME_SHIFT_64ND_6
NOTE_OFF_90
NOTE_OFF_102
NOTE_OFF_63
NOTE_OFF_54
NOTE_OFF_60
VEL_4
NOTE_ON_88
VEL_5
NOTE_ON_100
VEL_4
NOTE_ON_33
VEL_4
NOTE_ON_45
TIME_SHIFT_64ND_6
NOTE_OFF_88
NOTE_OFF_100
VEL_4
NOTE_ON_86
VEL_4
NOTE_ON_98
TIME_SHIFT_64ND_6
NOTE_OFF_86
NOTE_OFF_98
NOTE_OFF_33
NOTE_OFF_45
VEL_4
NOTE_ON_85
VEL_5
NOTE_ON_97
VEL_4
NOTE_ON_64
VEL_3
NOTE_ON_52
VEL_3
NOTE_ON_56
TIME_SHIFT_64ND_6
NOTE_OFF_85
NOTE_OFF_97
VEL_4
NOTE_ON_88
VEL_4
NOTE_ON_100
TIME_SHIFT_64ND_6
NOTE_OFF_88
NOTE_OFF_100
NOTE_OFF_64
NOTE_OFF_52
NOTE_OFF_56
VEL_4
NOTE_ON_86
VEL_5
NOTE_ON_98
VEL_4
NOTE_ON_33
VEL_4
NOTE_ON_45
TIME_SHIFT_64ND_6
NOTE_OFF_86
NOTE_OFF_98
VEL_4
NOTE_ON_85
VEL_4
NOTE_ON_97
TIME_SHIFT_64ND_6
NOTE_OFF_85
NOTE_OFF_97
NOTE_OFF_33
NOTE_OFF_45
VEL_4
NOTE_ON_83
VEL_5
NOTE_ON_95
VEL_3
NOTE_ON_52
VEL_3
NOTE_ON_59
VEL_3
NOTE_ON_56
VEL_4
NOTE_ON_64
TIME_SHIFT_64ND_6
NOTE_OFF_83
NOTE_OFF_95
VEL_4
NOTE_ON_86
VEL_4
NOTE_ON_98
TIME_SHIFT_64ND_6
NOTE_OFF_86
NOTE_OFF_98
NOTE_OFF_52
NOTE_OFF_59
NOTE_OFF_56
NOTE_OFF_64
VEL_4
NOTE_ON_85
VEL_5
NOTE_ON_97
VEL_4
NOTE_ON_45
VEL_4
NOTE_ON_33
TIME_SHIFT_64ND_6
NOTE_OFF_85
NOTE_OFF_97
VEL_4
NOTE_ON_83
VEL_4
NOTE_ON_95
TIME_SHIFT_64ND_6
NOTE_OFF_83
NOTE_OFF_95
NOTE_OFF_45
NOTE_OFF_33
VEL_4
NOTE_ON_81
VEL_5
NOTE_ON_93
VEL_3
NOTE_ON_57
VEL_4
NOTE_ON_64
VEL_3
NOTE_ON_61
VEL_3
NOTE_ON_52
TIME_SHIFT_64ND_6
NOTE_OFF_81
NOTE_OFF_93
VEL_4
NOTE_ON_85
VEL_4
NOTE_ON_97
TIME_SHIFT_64ND_6
NOTE_OFF_85
NOTE_OFF_97
NOTE_OFF_57
NOTE_OFF_64
NOTE_OFF_61
NOTE_OFF_52
VEL_4
NOTE_ON_83
VEL_5
NOTE_ON_95
VEL_4
NOTE_ON_45
VEL_4
NOTE_ON_33
TIME_SHIFT_64ND_6
NOTE_OFF_83
NOTE_OFF_95
VEL_4
NOTE_ON_81
VEL_4
NOTE_ON_93
TIME_SHIFT_64ND_6
NOTE_OFF_81
NOTE_OFF_93
NOTE_OFF_45
NOTE_OFF_33
VEL_4
NOTE_ON_80
VEL_5
NOTE_ON_92
VEL_3
NOTE_ON_52
VEL_3
NOTE_ON_59
VEL_4
NOTE_ON_64
TIME_SHIFT_64ND_12
NOTE_OFF_80
NOTE_OFF_92
NOTE_OFF_52
NOTE_OFF_59
NOTE_OFF_64
VEL_3
NOTE_ON_69
VEL_4
NOTE_ON_81
VEL_2
NOTE_ON_45
VEL_3
NOTE_ON_57
TIME_SHIFT_64ND_6
NOTE_OFF_69
NOTE_OFF_81
NOTE_OFF_45
NOTE_OFF_57
VEL_3
NOTE_ON_68
VEL_3
NOTE_ON_80
VEL_2
NOTE_ON_44
VEL_2
NOTE_ON_56
TIME_SHIFT_64ND_6
NOTE_OFF_68
NOTE_OFF_80
NOTE_OFF_44
NOTE_OFF_56
VEL_3
NOTE_ON_65
VEL_4
NOTE_ON_77
VEL_3
NOTE_ON_53
VEL_2
NOTE_ON_41
TIME_SHIFT_64ND_6
NOTE_OFF_65
NOTE_OFF_77
NOTE_OFF_53
NOTE_OFF_41
VEL_3
NOTE_ON_69
VEL_4
NOTE_ON_81
VEL_2
NOTE_ON_57
VEL_2
NOTE_ON_45
TIME_SHIFT_64ND_5
NOTE_OFF_69
NOTE_OFF_81
NOTE_OFF_57
NOTE_OFF_45
VEL_3
NOTE_ON_68
VEL_4
NOTE_ON_80
VEL_3
NOTE_ON_56
VEL_2
NOTE_ON_44
TIME_SHIFT_64ND_5
NOTE_OFF_68
NOTE_OFF_80
NOTE_OFF_56
NOTE_OFF_44
VEL_3
NOTE_ON_65
VEL_4
NOTE_ON_77
VEL_2
NOTE_ON_41
VEL_3
NOTE_ON_53
TIME_SHIFT_64ND_5
NOTE_OFF_65
NOTE_OFF_77
NOTE_OFF_41
NOTE_OFF_53
VEL_4
NOTE_ON_64
VEL_4
NOTE_ON_76
VEL_2
NOTE_ON_40
VEL_3
NOTE_ON_52
TIME_SHIFT_64ND_5
NOTE_OFF_64
NOTE_OFF_76
NOTE_OFF_40
NOTE_OFF_52
VEL_3
NOTE_ON_68
VEL_4
NOTE_ON_80
VEL_2
NOTE_ON_44
VEL_3
NOTE_ON_56
TIME_SHIFT_64ND_5
NOTE_OFF_68
NOTE_OFF_80
NOTE_OFF_44
NOTE_OFF_56
VEL_4
NOTE_ON_65
VEL_5
NOTE_ON_77
VEL_3
NOTE_ON_41
VEL_3
NOTE_ON_53
TIME_SHIFT_64ND_5
NOTE_OFF_65
NOTE_OFF_77
NOTE_OFF_41
NOTE_OFF_53
VEL_3
NOTE_ON_64
VEL_4
NOTE_ON_76
VEL_3
NOTE_ON_52
VEL_2
NOTE_ON_40
TIME_SHIFT_64ND_5
NOTE_OFF_64
NOTE_OFF_76
NOTE_OFF_52
NOTE_OFF_40
VEL_4
NOTE_ON_62
VEL_5
NOTE_ON_74
VEL_3
NOTE_ON_50
VEL_3
NOTE_ON_38
TIME_SHIFT_64ND_5
NOTE_OFF_62
NOTE_OFF_74
NOTE_OFF_50
NOTE_OFF_38
VEL_3
NOTE_ON_65
VEL_4
NOTE_ON_77
VEL_3
NOTE_ON_53
VEL_2
NOTE_ON_41
TIME_SHIFT_64ND_5
NOTE_OFF_65
NOTE_OFF_77
NOTE_OFF_53
NOTE_OFF_41
VEL_4
NOTE_ON_62
VEL_5
NOTE_ON_74
VEL_3
NOTE_ON_50
VEL_3
NOTE_ON_38
TIME_SHIFT_64ND_5
NOTE_OFF_62
NOTE_OFF_74
NOTE_OFF_50
NOTE_OFF_38
VEL_4
NOTE_ON_61
VEL_5
NOTE_ON_73
VEL_3
NOTE_ON_49
VEL_3
NOTE_ON_37
TIME_SHIFT_64ND_5
NOTE_OFF_61
NOTE_OFF_73
NOTE_OFF_49
NOTE_OFF_37
VEL_5
NOTE_ON_70
VEL_4
NOTE_ON_58
VEL_3
NOTE_ON_34
VEL_3
NOTE_ON_46
TIME_SHIFT_64ND_6
NOTE_OFF_70
NOTE_OFF_58
NOTE_OFF_34
NOTE_OFF_46
TIME_SHIFT_64ND_6
VEL_3
NOTE_ON_69
VEL_4
NOTE_ON_81
VEL_2
NOTE_ON_45
VEL_3
NOTE_ON_57
TIME_SHIFT_64ND_6
NOTE_OFF_69
NOTE_OFF_81
NOTE_OFF_45
NOTE_OFF_57
VEL_3
NOTE_ON_68
VEL_3
NOTE_ON_80
VEL_2
NOTE_ON_44
VEL_2
NOTE_ON_56
TIME_SHIFT_64ND_6
NOTE_OFF_68
NOTE_OFF_80
NOTE_OFF_44
NOTE_OFF_56
VEL_3
NOTE_ON_65
VEL_4
NOTE_ON_77
VEL_2
NOTE_ON_41
VEL_3
NOTE_ON_53
TIME_SHIFT_64ND_5
NOTE_OFF_65
NOTE_OFF_77
NOTE_OFF_41
NOTE_OFF_53
VEL_3
NOTE_ON_69
VEL_4
NOTE_ON_81
VEL_2
NOTE_ON_45
VEL_2
NOTE_ON_57
TIME_SHIFT_64ND_5
NOTE_OFF_69
NOTE_OFF_81
NOTE_OFF_45
NOTE_OFF_57
VEL_3
NOTE_ON_68
VEL_4
NOTE_ON_80
VEL_2
NOTE_ON_44
VEL_3
NOTE_ON_56
TIME_SHIFT_64ND_5
NOTE_OFF_68
NOTE_OFF_80
NOTE_OFF_44
NOTE_OFF_56
VEL_3
NOTE_ON_65
VEL_4
NOTE_ON_77
VEL_2
NOTE_ON_41
VEL_3
NOTE_ON_53
TIME_SHIFT_64ND_5
NOTE_OFF_65
NOTE_OFF_77
NOTE_OFF_41
NOTE_OFF_53
VEL_4
NOTE_ON_64
VEL_4
NOTE_ON_76
VEL_2
NOTE_ON_40
VEL_3
NOTE_ON_52
TIME_SHIFT_64ND_5
NOTE_OFF_64
NOTE_OFF_76
NOTE_OFF_40
NOTE_OFF_52
VEL_3
NOTE_ON_68
VEL_4
NOTE_ON_80
VEL_3
NOTE_ON_56
VEL_2
NOTE_ON_44
TIME_SHIFT_64ND_5
NOTE_OFF_68
NOTE_OFF_80
NOTE_OFF_56
NOTE_OFF_44
VEL_4
NOTE_ON_65
VEL_5
NOTE_ON_77
VEL_3
NOTE_ON_53
VEL_3
NOTE_ON_41
TIME_SHIFT_64ND_5
NOTE_OFF_65
NOTE_OFF_77
NOTE_OFF_53
NOTE_OFF_41
VEL_3
NOTE_ON_64
VEL_4
NOTE_ON_76
VEL_3
NOTE_ON_52
VEL_2
NOTE_ON_40
TIME_SHIFT_64ND_5
NOTE_OFF_64
NOTE_OFF_76
NOTE_OFF_52
NOTE_OFF_40
VEL_4
NOTE_ON_62
VEL_5
NOTE_ON_74
VEL_3
NOTE_ON_50
VEL_3
NOTE_ON_38
TIME_SHIFT_64ND_5
NOTE_OFF_62
NOTE_OFF_74
NOTE_OFF_50
NOTE_OFF_38
VEL_3
NOTE_ON_65
VEL_4
NOTE_ON_77
VEL_3
NOTE_ON_53
VEL_2
NOTE_ON_41
TIME_SHIFT_64ND_5
NOTE_OFF_65
NOTE_OFF_77
NOTE_OFF_53
NOTE_OFF_41
VEL_4
NOTE_ON_62
VEL_5
NOTE_ON_74
VEL_3
NOTE_ON_50
VEL_3
NOTE_ON_38
TIME_SHIFT_64ND_5
NOTE_OFF_62
NOTE_OFF_74
NOTE_OFF_50
NOTE_OFF_38
VEL_4
NOTE_ON_61
VEL_5
NOTE_ON_73
VEL_3
NOTE_ON_37
VEL_3
NOTE_ON_49
TIME_SHIFT_64ND_5
NOTE_OFF_61
NOTE_OFF_73
NOTE_OFF_37
NOTE_OFF_49
VEL_5
NOTE_ON_70
VEL_4
NOTE_ON_58
VEL_3
NOTE_ON_34
VEL_3
NOTE_ON_46
TIME_SHIFT_64ND_6
NOTE_OFF_70
NOTE_OFF_58
NOTE_OFF_34
NOTE_OFF_46
TIME_SHIFT_64ND_6
VEL_3
NOTE_ON_57
VEL_4
NOTE_ON_69
VEL_2
NOTE_ON_33
VEL_3
NOTE_ON_45
TIME_SHIFT_64ND_6
NOTE_OFF_57
NOTE_OFF_69
NOTE_OFF_33
NOTE_OFF_45
VEL_3
NOTE_ON_58
VEL_4
NOTE_ON_70
VEL_2
NOTE_ON_34
VEL_3
NOTE_ON_46
TIME_SHIFT_64ND_5
NOTE_OFF_58
NOTE_OFF_70
NOTE_OFF_34
NOTE_OFF_46
VEL_3
NOTE_ON_61
VEL_4
NOTE_ON_73
VEL_3
NOTE_ON_49
VEL_2
NOTE_ON_37
TIME_SHIFT_64ND_5
NOTE_OFF_61
NOTE_OFF_73
NOTE_OFF_49
NOTE_OFF_37
VEL_3
NOTE_ON_62
VEL_4
NOTE_ON_74
VEL_3
NOTE_ON_50
VEL_2
NOTE_ON_38
TIME_SHIFT_64ND_5
NOTE_OFF_62
NOTE_OFF_74
NOTE_OFF_50
NOTE_OFF_38
VEL_3
NOTE_ON_64
VEL_4
NOTE_ON_76
VEL_3
NOTE_ON_52
VEL_2
NOTE_ON_40
TIME_SHIFT_64ND_5
NOTE_OFF_64
NOTE_OFF_76
NOTE_OFF_52
NOTE_OFF_40
VEL_3
NOTE_ON_65
VEL_4
NOTE_ON_77
VEL_3
NOTE_ON_53
VEL_2
NOTE_ON_41
TIME_SHIFT_64ND_5
NOTE_OFF_65
NOTE_OFF_77
NOTE_OFF_53
NOTE_OFF_41
VEL_3
NOTE_ON_68
VEL_4
NOTE_ON_80
VEL_3
NOTE_ON_56
VEL_2
NOTE_ON_44
TIME_SHIFT_64ND_5
NOTE_OFF_68
NOTE_OFF_80
NOTE_OFF_56
NOTE_OFF_44
VEL_3
NOTE_ON_69
VEL_4
NOTE_ON_81
VEL_3
NOTE_ON_57
VEL_2
NOTE_ON_45
TIME_SHIFT_64ND_5
NOTE_OFF_69
NOTE_OFF_81
NOTE_OFF_57
NOTE_OFF_45
VEL_3
NOTE_ON_70
VEL_4
NOTE_ON_82
VEL_3
NOTE_ON_58
VEL_2
NOTE_ON_46
TIME_SHIFT_64ND_5
NOTE_OFF_70
NOTE_OFF_82
NOTE_OFF_58
NOTE_OFF_46
VEL_3
NOTE_ON_73
VEL_4
NOTE_ON_85
VEL_3
NOTE_ON_61
VEL_2
NOTE_ON_49
TIME_SHIFT_64ND_5
NOTE_OFF_73
NOTE_OFF_85
NOTE_OFF_61
NOTE_OFF_49
VEL_3
NOTE_ON_74
VEL_4
NOTE_ON_86
VEL_3
NOTE_ON_62
VEL_2
NOTE_ON_50
TIME_SHIFT_64ND_5
NOTE_OFF_74
NOTE_OFF_86
NOTE_OFF_62
NOTE_OFF_50
VEL_3
NOTE_ON_76
VEL_4
NOTE_ON_88
VEL_3
NOTE_ON_64
VEL_2
NOTE_ON_52
TIME_SHIFT_64ND_5
NOTE_OFF_76
NOTE_OFF_88
NOTE_OFF_64
NOTE_OFF_52
VEL_3
NOTE_ON_77
VEL_4
NOTE_ON_89
VEL_3
NOTE_ON_65
VEL_2
NOTE_ON_53
TIME_SHIFT_64ND_5
NOTE_OFF_77
NOTE_OFF_89
NOTE_OFF_65
NOTE_OFF_53
VEL_3
NOTE_ON_80
VEL_4
NOTE_ON_92
VEL_3
NOTE_ON_68
VEL_2
NOTE_ON_56
TIME_SHIFT_64ND_5
NOTE_OFF_80
NOTE_OFF_92
NOTE_OFF_68
NOTE_OFF_56
VEL_4
NOTE_ON_81
VEL_4
NOTE_ON_93
VEL_3
NOTE_ON_69
VEL_3
NOTE_ON_57
TIME_SHIFT_64ND_5
NOTE_OFF_81
NOTE_OFF_93
NOTE_OFF_69
NOTE_OFF_57
VEL_4
NOTE_ON_82
VEL_4
NOTE_ON_94
VEL_3
NOTE_ON_70
VEL_3
NOTE_ON_58
TIME_SHIFT_64ND_6
NOTE_OFF_82
NOTE_OFF_94
NOTE_OFF_70
NOTE_OFF_58
VEL_4
NOTE_ON_85
VEL_4
NOTE_ON_97
VEL_3
NOTE_ON_73
VEL_3
NOTE_ON_61
TIME_SHIFT_64ND_5
NOTE_OFF_85
NOTE_OFF_97
NOTE_OFF_73
NOTE_OFF_61
VEL_4
NOTE_ON_82
VEL_4
NOTE_ON_94
VEL_3
NOTE_ON_58
VEL_3
NOTE_ON_70
TIME_SHIFT_64ND_5
NOTE_OFF_82
NOTE_OFF_94
NOTE_OFF_58
NOTE_OFF_70
VEL_3
NOTE_ON_81
VEL_4
NOTE_ON_93
VEL_2
NOTE_ON_57
VEL_3
NOTE_ON_69
TIME_SHIFT_64ND_5
NOTE_OFF_81
NOTE_OFF_93
NOTE_OFF_57
NOTE_OFF_69
VEL_3
NOTE_ON_80
VEL_4
NOTE_ON_92
VEL_2
NOTE_ON_56
VEL_3
NOTE_ON_68
TIME_SHIFT_64ND_5
NOTE_OFF_80
NOTE_OFF_92
NOTE_OFF_56
NOTE_OFF_68
VEL_3
NOTE_ON_77
VEL_4
NOTE_ON_89
VEL_2
NOTE_ON_53
VEL_3
NOTE_ON_65
TIME_SHIFT_64ND_5
NOTE_OFF_77
NOTE_OFF_89
NOTE_OFF_53
NOTE_OFF_65
VEL_3
NOTE_ON_76
VEL_4
NOTE_ON_88
VEL_3
NOTE_ON_64
VEL_2
NOTE_ON_52
TIME_SHIFT_64ND_5
NOTE_OFF_76
NOTE_OFF_88
NOTE_OFF_64
NOTE_OFF_52
VEL_3
NOTE_ON_74
VEL_4
NOTE_ON_86
VEL_3
NOTE_ON_62
VEL_2
NOTE_ON_50
TIME_SHIFT_64ND_5
NOTE_OFF_74
NOTE_OFF_86
NOTE_OFF_62
NOTE_OFF_50
VEL_3
NOTE_ON_73
VEL_4
NOTE_ON_85
VEL_3
NOTE_ON_61
VEL_2
NOTE_ON_49
TIME_SHIFT_64ND_5
NOTE_OFF_73
NOTE_OFF_85
NOTE_OFF_61
NOTE_OFF_49
VEL_3
NOTE_ON_70
VEL_4
NOTE_ON_82
VEL_3
NOTE_ON_58
VEL_2
NOTE_ON_46
TIME_SHIFT_64ND_5
NOTE_OFF_70
NOTE_OFF_82
NOTE_OFF_58
NOTE_OFF_46
VEL_3
NOTE_ON_69
VEL_4
NOTE_ON_81
VEL_2
NOTE_ON_45
VEL_3
NOTE_ON_57
TIME_SHIFT_64ND_5
NOTE_OFF_69
NOTE_OFF_81
NOTE_OFF_45
NOTE_OFF_57
VEL_3
NOTE_ON_68
VEL_4
NOTE_ON_80
VEL_2
NOTE_ON_44
VEL_3
NOTE_ON_56
TIME_SHIFT_64ND_5
NOTE_OFF_68
NOTE_OFF_80
NOTE_OFF_44
NOTE_OFF_56
VEL_3
NOTE_ON_65
VEL_4
NOTE_ON_77
VEL_2
NOTE_ON_41
VEL_3
NOTE_ON_53
TIME_SHIFT_64ND_5
NOTE_OFF_65
NOTE_OFF_77
NOTE_OFF_41
NOTE_OFF_53
VEL_3
NOTE_ON_64
VEL_4
NOTE_ON_76
VEL_2
NOTE_ON_40
VEL_3
NOTE_ON_52
TIME_SHIFT_64ND_5
NOTE_OFF_64
NOTE_OFF_76
NOTE_OFF_40
NOTE_OFF_52
VEL_4
NOTE_ON_62
VEL_4
NOTE_ON_74
VEL_3
NOTE_ON_38
VEL_3
NOTE_ON_50
TIME_SHIFT_64ND_5
NOTE_OFF_62
NOTE_OFF_74
NOTE_OFF_38
NOTE_OFF_50
VEL_4
NOTE_ON_61
VEL_4
NOTE_ON_73
VEL_3
NOTE_ON_49
VEL_3
NOTE_ON_37
TIME_SHIFT_64ND_5
NOTE_OFF_61
NOTE_OFF_73
NOTE_OFF_49
NOTE_OFF_37
VEL_4
NOTE_ON_58
VEL_5
NOTE_ON_70
VEL_3
NOTE_ON_34
VEL_3
NOTE_ON_46
TIME_SHIFT_64ND_5
NOTE_OFF_58
NOTE_OFF_70
NOTE_OFF_34
NOTE_OFF_46
VEL_3
NOTE_ON_57
VEL_4
NOTE_ON_69
VEL_2
NOTE_ON_33
VEL_3
NOTE_ON_45
TIME_SHIFT_64ND_6
NOTE_OFF_57
NOTE_OFF_69
NOTE_OFF_33
NOTE_OFF_45
VEL_3
NOTE_ON_58
VEL_4
NOTE_ON_70
VEL_2
NOTE_ON_34
VEL_3
NOTE_ON_46
TIME_SHIFT_64ND_5
NOTE_OFF_58
NOTE_OFF_70
NOTE_OFF_34
NOTE_OFF_46
VEL_3
NOTE_ON_61
VEL_4
NOTE_ON_73
VEL_2
NOTE_ON_37
VEL_3
NOTE_ON_49
TIME_SHIFT_64ND_5
NOTE_OFF_61
NOTE_OFF_73
NOTE_OFF_37
NOTE_OFF_49
VEL_3
NOTE_ON_62
VEL_4
NOTE_ON_74
VEL_3
NOTE_ON_50
VEL_2
NOTE_ON_38
TIME_SHIFT_64ND_5
NOTE_OFF_62
NOTE_OFF_74
NOTE_OFF_50
NOTE_OFF_38
VEL_3
NOTE_ON_64
VEL_4
NOTE_ON_76
VEL_3
NOTE_ON_52
VEL_2
NOTE_ON_40
TIME_SHIFT_64ND_5
NOTE_OFF_64
NOTE_OFF_76
NOTE_OFF_52
NOTE_OFF_40
VEL_3
NOTE_ON_65
VEL_4
NOTE_ON_77
VEL_3
NOTE_ON_53
VEL_2
NOTE_ON_41
TIME_SHIFT_64ND_5
NOTE_OFF_65
NOTE_OFF_77
NOTE_OFF_53
NOTE_OFF_41
VEL_3
NOTE_ON_68
VEL_4
NOTE_ON_80
VEL_3
NOTE_ON_56
VEL_2
NOTE_ON_44
TIME_SHIFT_64ND_5
NOTE_OFF_68
NOTE_OFF_80
NOTE_OFF_56
NOTE_OFF_44
VEL_3
NOTE_ON_69
VEL_4
NOTE_ON_81
VEL_3
NOTE_ON_57
VEL_2
NOTE_ON_45
TIME_SHIFT_64ND_5
NOTE_OFF_69
NOTE_OFF_81
NOTE_OFF_57
NOTE_OFF_45
VEL_3
NOTE_ON_70
VEL_4
NOTE_ON_82
VEL_2
NOTE_ON_46
VEL_3
NOTE_ON_58
TIME_SHIFT_64ND_5
NOTE_OFF_70
NOTE_OFF_82
NOTE_OFF_46
NOTE_OFF_58
VEL_3
NOTE_ON_73
VEL_4
NOTE_ON_85
VEL_2
NOTE_ON_49
VEL_3
NOTE_ON_61
TIME_SHIFT_64ND_5
NOTE_OFF_73
NOTE_OFF_85
NOTE_OFF_49
NOTE_OFF_61
VEL_4
NOTE_ON_74
VEL_4
NOTE_ON_86
VEL_3
NOTE_ON_50
VEL_3
NOTE_ON_62
TIME_SHIFT_64ND_5
NOTE_OFF_74
NOTE_OFF_86
NOTE_OFF_50
NOTE_OFF_62
VEL_4
NOTE_ON_76
VEL_4
NOTE_ON_88
VEL_3
NOTE_ON_52
VEL_3
NOTE_ON_64
TIME_SHIFT_64ND_5
NOTE_OFF_76
NOTE_OFF_88
NOTE_OFF_52
NOTE_OFF_64
VEL_4
NOTE_ON_77
VEL_4
NOTE_ON_89
VEL_3
NOTE_ON_53
VEL_3
NOTE_ON_65
TIME_SHIFT_64ND_5
NOTE_OFF_77
NOTE_OFF_89
NOTE_OFF_53
NOTE_OFF_65
VEL_4
NOTE_ON_80
VEL_5
NOTE_ON_92
VEL_3
NOTE_ON_56
VEL_3
NOTE_ON_68
TIME_SHIFT_64ND_5
NOTE_OFF_80
NOTE_OFF_92
NOTE_OFF_56
NOTE_OFF_68
VEL_4
NOTE_ON_81
VEL_5
NOTE_ON_93
VEL_3
NOTE_ON_57
VEL_3
NOTE_ON_69
TIME_SHIFT_64ND_5
NOTE_OFF_81
NOTE_OFF_93
NOTE_OFF_57
NOTE_OFF_69
VEL_4
NOTE_ON_82
VEL_5
NOTE_ON_94
VEL_3
NOTE_ON_70
VEL_3
NOTE_ON_58
TIME_SHIFT_64ND_6
NOTE_OFF_82
NOTE_OFF_94
NOTE_OFF_70
NOTE_OFF_58
VEL_6
NOTE_ON_85
VEL_6
NOTE_ON_97
VEL_4
NOTE_ON_73
VEL_4
NOTE_ON_61
TIME_SHIFT_64ND_5
NOTE_OFF_85
NOTE_OFF_97
NOTE_OFF_73
NOTE_OFF_61
TIME_SHIFT_64ND_16
VEL_5
NOTE_ON_94
VEL_6
NOTE_ON_98
VEL_5
NOTE_ON_86
VEL_5
NOTE_ON_89
VEL_4
NOTE_ON_62
VEL_3
NOTE_ON_50
VEL_3
NOTE_ON_53
VEL_3
NOTE_ON_58
TIME_SHIFT_64ND_5
NOTE_OFF_94
NOTE_OFF_98
NOTE_OFF_86
NOTE_OFF_89
NOTE_OFF_62
NOTE_OFF_50
NOTE_OFF_53
NOTE_OFF_58
TIME_SHIFT_64ND_16
VEL_5
NOTE_ON_88
VEL_6
NOTE_ON_100
VEL_5
NOTE_ON_97
VEL_5
NOTE_ON_93
VEL_3
NOTE_ON_52
VEL_4
NOTE_ON_57
VEL_3
NOTE_ON_49
VEL_3
NOTE_ON_45
TIME_SHIFT_64ND_5
NOTE_OFF_88
NOTE_OFF_100
NOTE_OFF_97
NOTE_OFF_93
NOTE_OFF_52
NOTE_OFF_57
NOTE_OFF_49
NOTE_OFF_45
TIME_SHIFT_64ND_16
VEL_6
NOTE_ON_89
VEL_6
NOTE_ON_94
VEL_7
NOTE_ON_101
VEL_4
NOTE_ON_38
VEL_5
NOTE_ON_50
VEL_4
NOTE_ON_41
VEL_4
NOTE_ON_46
TIME_SHIFT_64ND_5
NOTE_OFF_89
NOTE_OFF_94
NOTE_OFF_101
NOTE_OFF_38
NOTE_OFF_50
NOTE_OFF_41
NOTE_OFF_46
TIME_SHIFT_64ND_16
VEL_2
NOTE_ON_57
VEL_1
NOTE_ON_37
VEL_2
NOTE_ON_40
VEL_1
NOTE_ON_33
VEL_2
NOTE_ON_52
VEL_2
NOTE_ON_61
TIME_SHIFT_64ND_2
NOTE_OFF_57
NOTE_OFF_37
NOTE_OFF_40
NOTE_OFF_33
VEL_2
NOTE_ON_64
VEL_2
NOTE_ON_45
NOTE_OFF_52
NOTE_OFF_61
TIME_SHIFT_64ND_2
NOTE_OFF_64
NOTE_OFF_45
VEL_2
NOTE_ON_57
VEL_2
NOTE_ON_52
VEL_2
NOTE_ON_61
VEL_2
NOTE_ON_37
VEL_2
NOTE_ON_40
VEL_2
NOTE_ON_33
TIME_SHIFT_64ND_3
NOTE_OFF_57
NOTE_OFF_52
NOTE_OFF_61
NOTE_OFF_37
NOTE_OFF_40
NOTE_OFF_33
VEL_3
NOTE_ON_64
VEL_2
NOTE_ON_45
TIME_SHIFT_64ND_3
NOTE_OFF_64
NOTE_OFF_45
VEL_2
NOTE_ON_57
VEL_2
NOTE_ON_52
VEL_3
NOTE_ON_61
VEL_2
NOTE_ON_33
VEL_2
NOTE_ON_37
VEL_2
NOTE_ON_40
TIME_SHIFT_64ND_3
NOTE_OFF_57
NOTE_OFF_52
NOTE_OFF_61
NOTE_OFF_33
NOTE_OFF_37
NOTE_OFF_40
VEL_3
NOTE_ON_64
VEL_2
NOTE_ON_45
TIME_SHIFT_64ND_3
NOTE_OFF_64
NOTE_OFF_45
VEL_2
NOTE_ON_57
VEL_2
NOTE_ON_52
VEL_3
NOTE_ON_61
VEL_2
NOTE_ON_33
VEL_2
NOTE_ON_37
VEL_2
NOTE_ON_40
TIME_SHIFT_64ND_3
NOTE_OFF_57
NOTE_OFF_52
NOTE_OFF_61
NOTE_OFF_33
NOTE_OFF_37
NOTE_OFF_40
VEL_3
NOTE_ON_64
VEL_2
NOTE_ON_45
TIME_SHIFT_64ND_3
NOTE_OFF_64
NOTE_OFF_45
VEL_2
NOTE_ON_57
VEL_2
NOTE_ON_37
VEL_2
NOTE_ON_33
VEL_2
NOTE_ON_40
VEL_2
NOTE_ON_52
VEL_3
NOTE_ON_61
TIME_SHIFT_64ND_2
NOTE_OFF_57
NOTE_OFF_37
NOTE_OFF_33
NOTE_OFF_40
VEL_3
NOTE_ON_64
VEL_2
NOTE_ON_45
NOTE_OFF_52
NOTE_OFF_61
TIME_SHIFT_64ND_2
NOTE_OFF_64
NOTE_OFF_45
VEL_2
NOTE_ON_57
VEL_2
NOTE_ON_52
VEL_3
NOTE_ON_61
VEL_2
NOTE_ON_37
VEL_2
NOTE_ON_33
VEL_2
NOTE_ON_40
TIME_SHIFT_64ND_3
NOTE_OFF_57
NOTE_OFF_52
NOTE_OFF_61
NOTE_OFF_37
NOTE_OFF_33
NOTE_OFF_40
VEL_3
NOTE_ON_64
VEL_2
NOTE_ON_45
TIME_SHIFT_64ND_3
NOTE_OFF_64
NOTE_OFF_45
VEL_2
NOTE_ON_57
VEL_2
NOTE_ON_52
VEL_3
NOTE_ON_61
VEL_2
NOTE_ON_40
VEL_2
NOTE_ON_37
VEL_2
NOTE_ON_33
TIME_SHIFT_64ND_3
NOTE_OFF_57
NOTE_OFF_52
NOTE_OFF_61
NOTE_OFF_40
NOTE_OFF_37
NOTE_OFF_33
VEL_3
NOTE_ON_64
VEL_2
NOTE_ON_45
TIME_SHIFT_64ND_3
NOTE_OFF_64
NOTE_OFF_45
VEL_2
NOTE_ON_57
VEL_2
NOTE_ON_52
VEL_3
NOTE_ON_61
VEL_2
NOTE_ON_37
VEL_2
NOTE_ON_40
VEL_2
NOTE_ON_33
TIME_SHIFT_64ND_3
NOTE_OFF_57
NOTE_OFF_52
NOTE_OFF_61
NOTE_OFF_37
NOTE_OFF_40
NOTE_OFF_33
VEL_2
NOTE_ON_64
VEL_2
NOTE_ON_45
TIME_SHIFT_64ND_3
NOTE_OFF_64
NOTE_OFF_45
VEL_3
NOTE_ON_33
VEL_3
NOTE_ON_37
VEL_3
NOTE_ON_40
VEL_5
NOTE_ON_61
VEL_5
NOTE_ON_57
VEL_5
NOTE_ON_52
VEL_4
NOTE_ON_45
TIME_SHIFT_64ND_4
NOTE_OFF_61
NOTE_OFF_57
NOTE_OFF_52
NOTE_OFF_45
NOTE_OFF_33
NOTE_OFF_37
NOTE_OFF_40
TIME_SHIFT_64ND_14
VEL_4
NOTE_ON_76
VEL_5
NOTE_ON_81
VEL_4
NOTE_ON_69
VEL_4
NOTE_ON_73
VEL_3
NOTE_ON_52
VEL_4
NOTE_ON_57
VEL_3
NOTE_ON_49
VEL_3
NOTE_ON_45
TIME_SHIFT_64ND_2
NOTE_OFF_76
NOTE_OFF_81
NOTE_OFF_69
NOTE_OFF_73
NOTE_OFF_52
NOTE_OFF_57
NOTE_OFF_49
NOTE_OFF_45
VEL_5
NOTE_ON_69
VEL_6
NOTE_ON_81
VEL_5
NOTE_ON_76
VEL_5
NOTE_ON_73
VEL_4
NOTE_ON_52
VEL_5
NOTE_ON_57
VEL_4
NOTE_ON_49
VEL_4
NOTE_ON_45
TIME_SHIFT_64ND_5
NOTE_OFF_69
NOTE_OFF_81
NOTE_OFF_76
NOTE_OFF_73
NOTE_OFF_52
NOTE_OFF_57
NOTE_OFF_49
NOTE_OFF_45
TIME_SHIFT_64ND_14
VEL_4
NOTE_ON_88
VEL_5
NOTE_ON_93
VEL_4
NOTE_ON_81
VEL_4
NOTE_ON_85
VEL_4
NOTE_ON_45
VEL_3
NOTE_ON_33
VEL_3
NOTE_ON_37
VEL_3
NOTE_ON_40
TIME_SHIFT_64ND_2
NOTE_OFF_88
NOTE_OFF_93
NOTE_OFF_81
NOTE_OFF_85
NOTE_OFF_45
NOTE_OFF_33
NOTE_OFF_37
NOTE_OFF_40
VEL_5
NOTE_ON_81
VEL_6
NOTE_ON_93
VEL_5
NOTE_ON_88
VEL_5
NOTE_ON_85
VEL_5
NOTE_ON_45
VEL_4
NOTE_ON_33
VEL_4
NOTE_ON_37
VEL_4
NOTE_ON_40
TIME_SHIFT_64ND_5
NOTE_OFF_81
NOTE_OFF_93
NOTE_OFF_88
NOTE_OFF_85
NOTE_OFF_45
NOTE_OFF_33
NOTE_OFF_37
NOTE_OFF_40
