VEL_4
NOTE_ON_67
VEL_4
NOTE_ON_64
TIME_SHIFT_64ND_4
VEL_3
NOTE_ON_72
VEL_3
NOTE_ON_79
TIME_SHIFT_64ND_4
VEL_3
NOTE_ON_55
TIME_SHIFT_64ND_4
NOTE_OFF_72
NOTE_OFF_79
VEL_3
NOTE_ON_72
VEL_3
NOTE_ON_79
TIME_SHIFT_64ND_4
NOTE_OFF_72
NOTE_OFF_79
VEL_4
NOTE_ON_81
VEL_4
NOTE_ON_72
VEL_3
NOTE_ON_63
VEL_3
NOTE_ON_66
NOTE_OFF_67
NOTE_OFF_64
TIME_SHIFT_64ND_8
NOTE_OFF_81
NOTE_OFF_72
NOTE_OFF_63
NOTE_OFF_66
VEL_4
NOTE_ON_67
VEL_4
NOTE_ON_64
TIME_SHIFT_64ND_4
VEL_3
NOTE_ON_72
VEL_3
NOTE_ON_79
TIME_SHIFT_64ND_4
NOTE_OFF_55
VEL_3
NOTE_ON_55
TIME_SHIFT_64ND_4
NOTE_OFF_72
NOTE_OFF_79
VEL_3
NOTE_ON_72
VEL_3
NOTE_ON_79
TIME_SHIFT_64ND_4
NOTE_OFF_72
NOTE_OFF_79
NOTE_OFF_67
NOTE_OFF_64
VEL_4
NOTE_ON_72
VEL_4
NOTE_ON_76
VEL_3
NOTE_ON_60
VEL_3
NOTE_ON_67
TIME_SHIFT_64ND_8
NOTE_OFF_72
NOTE_OFF_76
NOTE_OFF_60
NOTE_OFF_67
VEL_4
NOTE_ON_62
VEL_4
NOTE_ON_67
TIME_SHIFT_64ND_4
VEL_3
NOTE_ON_72
VEL_3
NOTE_ON_77
TIME_SHIFT_64ND_4
NOTE_OFF_55
VEL_3
NOTE_ON_55
TIME_SHIFT_64ND_4
NOTE_OFF_72
NOTE_OFF_77
VEL_3
NOTE_ON_77
VEL_3
NOTE_ON_72
TIME_SHIFT_64ND_4
NOTE_OFF_77
NOTE_OFF_72
NOTE_OFF_62
NOTE_OFF_67
VEL_4
NOTE_ON_79
VEL_4
NOTE_ON_74
VEL_2
NOTE_ON_67
VEL_2
NOTE_ON_59
TIME_SHIFT_64ND_8
NOTE_OFF_79
NOTE_OFF_74
NOTE_OFF_67
NOTE_OFF_59
VEL_4
NOTE_ON_67
VEL_4
NOTE_ON_60
TIME_SHIFT_64ND_4
VEL_3
NOTE_ON_72
VEL_3
NOTE_ON_76
TIME_SHIFT_64ND_4
NOTE_OFF_55
VEL_3
NOTE_ON_55
TIME_SHIFT_64ND_4
NOTE_OFF_72
NOTE_OFF_76
VEL_3
NOTE_ON_76
VEL_3
NOTE_ON_72
TIME_SHIFT_64ND_4
NOTE_OFF_67
NOTE_OFF_76
NOTE_OFF_72
NOTE_OFF_60
VEL_3
NOTE_ON_72
VEL_3
NOTE_ON_67
VEL_2
NOTE_ON_64
VEL_2
NOTE_ON_60
TIME_SHIFT_64ND_8
NOTE_OFF_72
NOTE_OFF_67
NOTE_OFF_64
NOTE_OFF_60
VEL_4
NOTE_ON_64
TIME_SHIFT_64ND_4
VEL_2
NOTE_ON_72
VEL_2
NOTE_ON_67
TIME_SHIFT_64ND_4
NOTE_OFF_55
VEL_2
NOTE_ON_55
TIME_SHIFT_64ND_4
NOTE_OFF_72
NOTE_OFF_67
VEL_2
NOTE_ON_72
VEL_2
NOTE_ON_67
TIME_SHIFT_64ND_4
NOTE_OFF_72
NOTE_OFF_67
VEL_3
NOTE_ON_69
VEL_3
NOTE_ON_72
VEL_2
NOTE_ON_65
NOTE_OFF_64
TIME_SHIFT_64ND_8
NOTE_OFF_69
NOTE_OFF_72
NOTE_OFF_65
VEL_4
NOTE_ON_64
TIME_SHIFT_64ND_4
VEL_2
NOTE_ON_67
VEL_2
NOTE_ON_72
TIME_SHIFT_64ND_4
NOTE_OFF_55
VEL_2
NOTE_ON_55
TIME_SHIFT_64ND_4
NOTE_OFF_67
NOTE_OFF_72
VEL_2
NOTE_ON_67
VEL_2
NOTE_ON_72
TIME_SHIFT_64ND_4
NOTE_OFF_64
NOTE_OFF_67
NOTE_OFF_72
VEL_3
NOTE_ON_64
VEL_3
NOTE_ON_72
VEL_2
NOTE_ON_60
TIME_SHIFT_64ND_8
NOTE_OFF_64
NOTE_OFF_72
NOTE_OFF_60
VEL_3
NOTE_ON_62
TIME_SHIFT_64ND_4
VEL_2
NOTE_ON_67
VEL_2
NOTE_ON_65
TIME_SHIFT_64ND_4
NOTE_OFF_55
VEL_2
NOTE_ON_55
TIME_SHIFT_64ND_4
NOTE_OFF_67
NOTE_OFF_65
VEL_2
NOTE_ON_65
VEL_2
NOTE_ON_67
TIME_SHIFT_64ND_4
NOTE_OFF_65
NOTE_OFF_67
NOTE_OFF_62
VEL_3
NOTE_ON_67
VEL_2
NOTE_ON_64
TIME_SHIFT_64ND_8
NOTE_OFF_67
NOTE_OFF_64
VEL_3
NOTE_ON_60
TIME_SHIFT_64ND_4
VEL_2
NOTE_ON_64
VEL_2
NOTE_ON_67
TIME_SHIFT_64ND_4
NOTE_OFF_55
VEL_2
NOTE_ON_55
TIME_SHIFT_64ND_4
NOTE_OFF_64
NOTE_OFF_67
VEL_2
NOTE_ON_64
VEL_2
NOTE_ON_67
TIME_SHIFT_64ND_4
NOTE_OFF_64
NOTE_OFF_67
NOTE_OFF_60
VEL_2
NOTE_ON_67
VEL_2
NOTE_ON_64
VEL_2
NOTE_ON_60
TIME_SHIFT_64ND_8
NOTE_OFF_67
NOTE_OFF_64
NOTE_OFF_60
NOTE_OFF_55
VEL_4
NOTE_ON_64
VEL_4
NOTE_ON_67
TIME_SHIFT_64ND_4
VEL_3
NOTE_ON_72
VEL_3
NOTE_ON_79
TIME_SHIFT_64ND_4
VEL_3
NOTE_ON_55
TIME_SHIFT_64ND_4
NOTE_OFF_72
NOTE_OFF_79
VEL_3
NOTE_ON_79
VEL_3
NOTE_ON_72
TIME_SHIFT_64ND_4
NOTE_OFF_79
NOTE_OFF_72
VEL_4
NOTE_ON_81
VEL_4
NOTE_ON_72
VEL_3
NOTE_ON_63
VEL_3
NOTE_ON_66
NOTE_OFF_64
NOTE_OFF_67
TIME_SHIFT_64ND_8
NOTE_OFF_81
NOTE_OFF_72
NOTE_OFF_63
NOTE_OFF_66
VEL_4
NOTE_ON_67
VEL_4
NOTE_ON_64
TIME_SHIFT_64ND_4
VEL_3
NOTE_ON_72
VEL_3
NOTE_ON_79
TIME_SHIFT_64ND_4
NOTE_OFF_55
VEL_3
NOTE_ON_55
TIME_SHIFT_64ND_4
NOTE_OFF_72
NOTE_OFF_79
VEL_3
NOTE_ON_79
VEL_3
NOTE_ON_72
TIME_SHIFT_64ND_4
NOTE_OFF_79
NOTE_OFF_72
NOTE_OFF_67
NOTE_OFF_64
VEL_4
NOTE_ON_76
VEL_4
NOTE_ON_72
VEL_3
NOTE_ON_67
VEL_3
NOTE_ON_60
TIME_SHIFT_64ND_8
NOTE_OFF_76
NOTE_OFF_72
NOTE_OFF_67
NOTE_OFF_60
VEL_4
NOTE_ON_67
VEL_4
NOTE_ON_62
TIME_SHIFT_64ND_4
VEL_3
NOTE_ON_77
VEL_3
NOTE_ON_72
TIME_SHIFT_64ND_4
NOTE_OFF_55
VEL_3
NOTE_ON_55
TIME_SHIFT_64ND_4
NOTE_OFF_77
NOTE_OFF_72
VEL_3
NOTE_ON_77
VEL_3
NOTE_ON_72
TIME_SHIFT_64ND_4
NOTE_OFF_77
NOTE_OFF_72
NOTE_OFF_67
NOTE_OFF_62
VEL_4
NOTE_ON_79
VEL_4
NOTE_ON_74
VEL_2
NOTE_ON_67
VEL_2
NOTE_ON_59
TIME_SHIFT_64ND_8
NOTE_OFF_79
NOTE_OFF_74
NOTE_OFF_67
NOTE_OFF_59
VEL_4
NOTE_ON_67
VEL_4
NOTE_ON_60
TIME_SHIFT_64ND_4
VEL_3
NOTE_ON_76
VEL_3
NOTE_ON_72
TIME_SHIFT_64ND_4
NOTE_OFF_55
VEL_3
NOTE_ON_55
TIME_SHIFT_64ND_4
NOTE_OFF_76
NOTE_OFF_72
VEL_3
NOTE_ON_76
VEL_3
NOTE_ON_72
TIME_SHIFT_64ND_4
NOTE_OFF_67
NOTE_OFF_76
NOTE_OFF_72
NOTE_OFF_60
VEL_3
NOTE_ON_72
VEL_3
NOTE_ON_67
VEL_2
NOTE_ON_64
VEL_2
NOTE_ON_60
TIME_SHIFT_64ND_8
NOTE_OFF_72
NOTE_OFF_67
NOTE_OFF_64
NOTE_OFF_60
VEL_4
NOTE_ON_64
TIME_SHIFT_64ND_4
VEL_2
NOTE_ON_67
VEL_2
NOTE_ON_72
TIME_SHIFT_64ND_4
NOTE_OFF_55
VEL_2
NOTE_ON_55
TIME_SHIFT_64ND_4
NOTE_OFF_67
NOTE_OFF_72
VEL_2
NOTE_ON_72
VEL_2
NOTE_ON_67
TIME_SHIFT_64ND_4
NOTE_OFF_72
NOTE_OFF_67
VEL_3
NOTE_ON_69
VEL_3
NOTE_ON_72
VEL_2
NOTE_ON_65
NOTE_OFF_64
TIME_SHIFT_64ND_8
NOTE_OFF_69
NOTE_OFF_72
NOTE_OFF_65
VEL_4
NOTE_ON_64
TIME_SHIFT_64ND_4
VEL_2
NOTE_ON_72
VEL_2
NOTE_ON_67
TIME_SHIFT_64ND_4
NOTE_OFF_55
VEL_2
NOTE_ON_55
TIME_SHIFT_64ND_4
NOTE_OFF_72
NOTE_OFF_67
VEL_2
NOTE_ON_67
VEL_2
NOTE_ON_72
TIME_SHIFT_64ND_4
NOTE_OFF_64
NOTE_OFF_67
NOTE_OFF_72
VEL_3
NOTE_ON_64
VEL_3
NOTE_ON_72
VEL_2
NOTE_ON_60
TIME_SHIFT_64ND_8
NOTE_OFF_64
NOTE_OFF_72
NOTE_OFF_60
VEL_3
NOTE_ON_62
TIME_SHIFT_64ND_4
VEL_2
NOTE_ON_65
VEL_2
NOTE_ON_67
TIME_SHIFT_64ND_4
NOTE_OFF_55
VEL_2
NOTE_ON_55
TIME_SHIFT_64ND_4
NOTE_OFF_65
NOTE_OFF_67
VEL_2
NOTE_ON_65
VEL_2
NOTE_ON_67
TIME_SHIFT_64ND_4
NOTE_OFF_65
NOTE_OFF_67
NOTE_OFF_62
VEL_3
NOTE_ON_67
VEL_2
NOTE_ON_64
TIME_SHIFT_64ND_8
NOTE_OFF_67
NOTE_OFF_64
VEL_3
NOTE_ON_60
TIME_SHIFT_64ND_4
VEL_2
NOTE_ON_64
VEL_2
NOTE_ON_67
TIME_SHIFT_64ND_4
NOTE_OFF_55
VEL_2
NOTE_ON_55
TIME_SHIFT_64ND_4
NOTE_OFF_64
NOTE_OFF_67
VEL_2
NOTE_ON_64
VEL_2
NOTE_ON_67
TIME_SHIFT_64ND_4
NOTE_OFF_64
NOTE_OFF_67
NOTE_OFF_60
VEL_2
NOTE_ON_64
VEL_2
NOTE_ON_67
VEL_2
NOTE_ON_60
TIME_SHIFT_64ND_9
NOTE_OFF_64
NOTE_OFF_67
NOTE_OFF_60
NOTE_OFF_55
VEL_3
NOTE_ON_58
TIME_SHIFT_64ND_4
VEL_2
NOTE_ON_72
VEL_2
NOTE_ON_64
VEL_2
NOTE_ON_67
TIME_SHIFT_64ND_4
VEL_3
NOTE_ON_60
TIME_SHIFT_64ND_4
NOTE_OFF_72
NOTE_OFF_64
NOTE_OFF_67
VEL_2
NOTE_ON_67
VEL_2
NOTE_ON_64
VEL_2
NOTE_ON_72
TIME_SHIFT_64ND_4
NOTE_OFF_67
NOTE_OFF_64
NOTE_OFF_72
NOTE_OFF_58
VEL_3
NOTE_ON_64
VEL_3
NOTE_ON_72
VEL_3
NOTE_ON_69
VEL_3
NOTE_ON_57
TIME_SHIFT_64ND_8
NOTE_OFF_64
NOTE_OFF_72
NOTE_OFF_69
NOTE_OFF_57
VEL_4
NOTE_ON_55
TIME_SHIFT_64ND_4
VEL_2
NOTE_ON_72
VEL_2
NOTE_ON_64
VEL_2
NOTE_ON_70
TIME_SHIFT_64ND_4
NOTE_OFF_60
VEL_3
NOTE_ON_60
TIME_SHIFT_64ND_4
NOTE_OFF_72
NOTE_OFF_64
NOTE_OFF_70
VEL_2
NOTE_ON_70
VEL_2
NOTE_ON_64
VEL_2
NOTE_ON_72
TIME_SHIFT_64ND_4
NOTE_OFF_70
NOTE_OFF_64
NOTE_OFF_72
NOTE_OFF_55
VEL_3
NOTE_ON_65
VEL_3
NOTE_ON_72
VEL_3
NOTE_ON_70
VEL_3
NOTE_ON_53
TIME_SHIFT_64ND_8
NOTE_OFF_65
NOTE_OFF_72
NOTE_OFF_70
NOTE_OFF_53
VEL_4
NOTE_ON_52
TIME_SHIFT_64ND_4
VEL_3
NOTE_ON_72
VEL_3
NOTE_ON_67
VEL_3
NOTE_ON_70
TIME_SHIFT_64ND_4
NOTE_OFF_60
VEL_4
NOTE_ON_60
TIME_SHIFT_64ND_4
NOTE_OFF_72
NOTE_OFF_67
NOTE_OFF_70
VEL_3
NOTE_ON_70
VEL_3
NOTE_ON_67
VEL_3
NOTE_ON_72
TIME_SHIFT_64ND_4
NOTE_OFF_70
NOTE_OFF_67
NOTE_OFF_72
NOTE_OFF_60
NOTE_OFF_52
VEL_4
NOTE_ON_67
VEL_4
NOTE_ON_73
VEL_4
NOTE_ON_70
VEL_4
NOTE_ON_51
VEL_4
NOTE_ON_61
TIME_SHIFT_64ND_8
NOTE_OFF_67
NOTE_OFF_73
NOTE_OFF_70
NOTE_OFF_51
VEL_4
NOTE_ON_50
TIME_SHIFT_64ND_4
VEL_3
NOTE_ON_74
VEL_3
NOTE_ON_67
VEL_3
NOTE_ON_70
TIME_SHIFT_64ND_4
NOTE_OFF_61
VEL_4
NOTE_ON_62
TIME_SHIFT_64ND_4
NOTE_OFF_74
NOTE_OFF_67
NOTE_OFF_70
VEL_3
NOTE_ON_70
VEL_3
NOTE_ON_67
VEL_3
NOTE_ON_74
TIME_SHIFT_64ND_4
NOTE_OFF_70
NOTE_OFF_67
NOTE_OFF_74
NOTE_OFF_62
NOTE_OFF_50
VEL_4
NOTE_ON_67
VEL_4
NOTE_ON_76
VEL_4
NOTE_ON_70
VEL_4
NOTE_ON_49
VEL_4
NOTE_ON_64
TIME_SHIFT_64ND_8
NOTE_OFF_67
NOTE_OFF_76
NOTE_OFF_70
NOTE_OFF_49
NOTE_OFF_64
VEL_5
NOTE_ON_50
TIME_SHIFT_64ND_4
VEL_3
NOTE_ON_74
VEL_3
NOTE_ON_69
VEL_3
NOTE_ON_77
TIME_SHIFT_64ND_4
VEL_5
NOTE_ON_62
TIME_SHIFT_64ND_4
NOTE_OFF_74
NOTE_OFF_69
NOTE_OFF_77
VEL_3
NOTE_ON_77
VEL_3
NOTE_ON_69
VEL_3
NOTE_ON_74
TIME_SHIFT_64ND_4
NOTE_OFF_77
NOTE_OFF_69
NOTE_OFF_74
NOTE_OFF_62
NOTE_OFF_50
VEL_5
NOTE_ON_67
VEL_5
NOTE_ON_76
VEL_5
NOTE_ON_70
VEL_4
NOTE_ON_43
VEL_4
NOTE_ON_55
TIME_SHIFT_64ND_8
NOTE_OFF_67
NOTE_OFF_76
NOTE_OFF_70
NOTE_OFF_43
NOTE_OFF_55
VEL_5
NOTE_ON_45
TIME_SHIFT_64ND_4
VEL_3
NOTE_ON_74
VEL_3
NOTE_ON_65
VEL_3
NOTE_ON_69
TIME_SHIFT_64ND_4
VEL_5
NOTE_ON_57
TIME_SHIFT_64ND_4
NOTE_OFF_74
NOTE_OFF_65
NOTE_OFF_69
VEL_3
NOTE_ON_74
VEL_3
NOTE_ON_65
VEL_3
NOTE_ON_69
TIME_SHIFT_64ND_4
NOTE_OFF_74
NOTE_OFF_65
NOTE_OFF_69
NOTE_OFF_57
NOTE_OFF_45
VEL_5
NOTE_ON_64
VEL_5
NOTE_ON_73
VEL_5
NOTE_ON_69
VEL_5
NOTE_ON_33
VEL_5
NOTE_ON_45
TIME_SHIFT_64ND_8
NOTE_OFF_64
NOTE_OFF_73
NOTE_OFF_69
NOTE_OFF_33
NOTE_OFF_45
VEL_6
NOTE_ON_38
TIME_SHIFT_64ND_4
VEL_4
NOTE_ON_74
VEL_4
NOTE_ON_65
VEL_4
NOTE_ON_69
TIME_SHIFT_64ND_4
VEL_5
NOTE_ON_50
TIME_SHIFT_64ND_4
NOTE_OFF_74
NOTE_OFF_65
NOTE_OFF_69
VEL_4
NOTE_ON_74
VEL_4
NOTE_ON_65
VEL_4
NOTE_ON_69
TIME_SHIFT_64ND_4
NOTE_OFF_74
NOTE_OFF_65
NOTE_OFF_69
NOTE_OFF_50
NOTE_OFF_38
VEL_5
NOTE_ON_63
VEL_5
NOTE_ON_72
VEL_5
NOTE_ON_66
VEL_5
NOTE_ON_32
VEL_5
NOTE_ON_44
TIME_SHIFT_64ND_8
NOTE_OFF_63
NOTE_OFF_72
NOTE_OFF_66
NOTE_OFF_32
NOTE_OFF_44
VEL_6
NOTE_ON_43
VEL_6
NOTE_ON_31
TIME_SHIFT_64ND_4
VEL_4
NOTE_ON_72
VEL_4
NOTE_ON_62
VEL_4
NOTE_ON_65
TIME_SHIFT_64ND_4
NOTE_OFF_43
NOTE_OFF_31
VEL_6
NOTE_ON_55
TIME_SHIFT_64ND_4
NOTE_OFF_72
NOTE_OFF_62
NOTE_OFF_65
VEL_4
NOTE_ON_72
VEL_4
NOTE_ON_62
VEL_4
NOTE_ON_65
TIME_SHIFT_64ND_4
NOTE_OFF_72
NOTE_OFF_62
NOTE_OFF_65
NOTE_OFF_55
VEL_5
NOTE_ON_62
VEL_5
NOTE_ON_71
VEL_5
NOTE_ON_65
VEL_5
NOTE_ON_31
VEL_5
NOTE_ON_43
TIME_SHIFT_64ND_8
NOTE_OFF_62
NOTE_OFF_71
NOTE_OFF_65
NOTE_OFF_31
NOTE_OFF_43
VEL_6
NOTE_ON_36
TIME_SHIFT_64ND_4
VEL_4
NOTE_ON_67
VEL_4
NOTE_ON_72
TIME_SHIFT_64ND_4
NOTE_OFF_36
VEL_5
NOTE_ON_52
TIME_SHIFT_64ND_4
NOTE_OFF_67
NOTE_OFF_72
VEL_4
NOTE_ON_72
VEL_4
NOTE_ON_67
TIME_SHIFT_64ND_4
NOTE_OFF_72
NOTE_OFF_67
NOTE_OFF_52
VEL_5
NOTE_ON_69
VEL_5
NOTE_ON_72
VEL_5
NOTE_ON_53
TIME_SHIFT_64ND_8
NOTE_OFF_69
NOTE_OFF_72
NOTE_OFF_53
VEL_6
NOTE_ON_52
TIME_SHIFT_64ND_4
VEL_4
NOTE_ON_72
VEL_4
NOTE_ON_67
TIME_SHIFT_64ND_4
VEL_5
NOTE_ON_36
TIME_SHIFT_64ND_4
NOTE_OFF_72
NOTE_OFF_67
VEL_4
NOTE_ON_67
VEL_4
NOTE_ON_72
TIME_SHIFT_64ND_4
NOTE_OFF_67
NOTE_OFF_72
NOTE_OFF_52
VEL_5
NOTE_ON_64
VEL_5
NOTE_ON_72
VEL_5
NOTE_ON_67
VEL_5
NOTE_ON_48
TIME_SHIFT_64ND_8
NOTE_OFF_64
NOTE_OFF_72
NOTE_OFF_67
NOTE_OFF_48
NOTE_OFF_36
VEL_6
NOTE_ON_50
TIME_SHIFT_64ND_4
VEL_5
NOTE_ON_65
VEL_5
NOTE_ON_67
VEL_5
NOTE_ON_72
TIME_SHIFT_64ND_4
VEL_5
NOTE_ON_36
TIME_SHIFT_64ND_4
NOTE_OFF_65
NOTE_OFF_67
NOTE_OFF_72
VEL_5
NOTE_ON_65
VEL_5
NOTE_ON_67
VEL_5
NOTE_ON_72
TIME_SHIFT_64ND_4
NOTE_OFF_65
NOTE_OFF_67
NOTE_OFF_72
NOTE_OFF_50
VEL_6
NOTE_ON_67
VEL_6
NOTE_ON_72
VEL_5
NOTE_ON_52
TIME_SHIFT_64ND_8
NOTE_OFF_67
NOTE_OFF_72
NOTE_OFF_52
NOTE_OFF_36
VEL_6
NOTE_ON_48
TIME_SHIFT_64ND_4
VEL_5
NOTE_ON_64
VEL_5
NOTE_ON_67
VEL_5
NOTE_ON_72
TIME_SHIFT_64ND_4
VEL_5
NOTE_ON_36
TIME_SHIFT_64ND_4
NOTE_OFF_64
NOTE_OFF_67
NOTE_OFF_72
VEL_5
NOTE_ON_64
VEL_5
NOTE_ON_67
VEL_5
NOTE_ON_72
TIME_SHIFT_64ND_4
NOTE_OFF_64
NOTE_OFF_67
NOTE_OFF_72
NOTE_OFF_48
VEL_6
NOTE_ON_60
VEL_6
NOTE_ON_67
VEL_6
NOTE_ON_72
VEL_5
NOTE_ON_43
TIME_SHIFT_64ND_8
NOTE_OFF_60
NOTE_OFF_67
NOTE_OFF_72
NOTE_OFF_43
NOTE_OFF_36
VEL_5
NOTE_ON_43
VEL_6
NOTE_ON_52
TIME_SHIFT_64ND_4
VEL_4
NOTE_ON_67
VEL_4
NOTE_ON_72
VEL_4
NOTE_ON_64
TIME_SHIFT_64ND_4
VEL_5
NOTE_ON_36
TIME_SHIFT_64ND_4
NOTE_OFF_67
NOTE_OFF_72
NOTE_OFF_64
VEL_4
NOTE_ON_72
VEL_4
NOTE_ON_67
VEL_4
NOTE_ON_64
TIME_SHIFT_64ND_4
NOTE_OFF_72
NOTE_OFF_67
NOTE_OFF_64
NOTE_OFF_43
NOTE_OFF_52
VEL_5
NOTE_ON_67
VEL_5
NOTE_ON_72
VEL_5
NOTE_ON_65
VEL_5
NOTE_ON_53
VEL_4
NOTE_ON_45
TIME_SHIFT_64ND_8
NOTE_OFF_67
NOTE_OFF_72
NOTE_OFF_65
NOTE_OFF_53
NOTE_OFF_45
NOTE_OFF_36
VEL_6
NOTE_ON_52
VEL_5
NOTE_ON_43
TIME_SHIFT_64ND_4
VEL_4
NOTE_ON_72
VEL_4
NOTE_ON_67
VEL_4
NOTE_ON_64
TIME_SHIFT_64ND_4
VEL_5
NOTE_ON_36
TIME_SHIFT_64ND_4
NOTE_OFF_72
NOTE_OFF_67
NOTE_OFF_64
VEL_4
NOTE_ON_67
VEL_4
NOTE_ON_72
VEL_4
NOTE_ON_64
TIME_SHIFT_64ND_4
NOTE_OFF_67
NOTE_OFF_72
NOTE_OFF_64
NOTE_OFF_52
NOTE_OFF_43
VEL_5
NOTE_ON_60
VEL_5
NOTE_ON_72
VEL_5
NOTE_ON_67
VEL_5
NOTE_ON_48
VEL_4
NOTE_ON_40
TIME_SHIFT_64ND_8
NOTE_OFF_60
NOTE_OFF_72
NOTE_OFF_67
NOTE_OFF_48
NOTE_OFF_40
NOTE_OFF_36
VEL_6
NOTE_ON_50
VEL_5
NOTE_ON_41
TIME_SHIFT_64ND_4
VEL_4
NOTE_ON_67
VEL_4
NOTE_ON_62
VEL_4
NOTE_ON_72
TIME_SHIFT_64ND_5
VEL_5
NOTE_ON_36
TIME_SHIFT_64ND_4
NOTE_OFF_67
NOTE_OFF_62
NOTE_OFF_72
VEL_4
NOTE_ON_67
VEL_4
NOTE_ON_62
VEL_4
NOTE_ON_72
TIME_SHIFT_64ND_4
NOTE_OFF_67
NOTE_OFF_62
NOTE_OFF_72
NOTE_OFF_50
NOTE_OFF_41
VEL_5
NOTE_ON_67
VEL_5
NOTE_ON_64
VEL_5
NOTE_ON_72
VEL_5
NOTE_ON_52
VEL_4
NOTE_ON_43
TIME_SHIFT_64ND_8
NOTE_OFF_67
NOTE_OFF_64
NOTE_OFF_72
NOTE_OFF_52
NOTE_OFF_43
NOTE_OFF_36
VEL_6
NOTE_ON_48
VEL_5
NOTE_ON_40
TIME_SHIFT_64ND_4
VEL_4
NOTE_ON_60
VEL_4
NOTE_ON_67
VEL_4
NOTE_ON_72
TIME_SHIFT_64ND_5
VEL_5
NOTE_ON_36
TIME_SHIFT_64ND_4
NOTE_OFF_60
NOTE_OFF_67
NOTE_OFF_72
VEL_4
NOTE_ON_60
VEL_4
NOTE_ON_72
TIME_SHIFT_64ND_4
NOTE_OFF_60
NOTE_OFF_72
NOTE_OFF_48
NOTE_OFF_40
VEL_5
NOTE_ON_60
VEL_5
NOTE_ON_72
VEL_5
NOTE_ON_48
TIME_SHIFT_64ND_6
NOTE_OFF_60
NOTE_OFF_72
NOTE_OFF_48
TIME_SHIFT_64ND_2
NOTE_OFF_36
VEL_3
NOTE_ON_58
TIME_SHIFT_64ND_4
VEL_2
NOTE_ON_72
VEL_2
NOTE_ON_64
VEL_2
NOTE_ON_67
TIME_SHIFT_64ND_4
VEL_3
NOTE_ON_60
TIME_SHIFT_64ND_4
NOTE_OFF_72
NOTE_OFF_64
NOTE_OFF_67
VEL_2
NOTE_ON_67
VEL_2
NOTE_ON_64
VEL_2
NOTE_ON_72
TIME_SHIFT_64ND_4
NOTE_OFF_67
NOTE_OFF_64
NOTE_OFF_72
NOTE_OFF_58
VEL_3
NOTE_ON_64
VEL_3
NOTE_ON_72
VEL_3
NOTE_ON_69
VEL_3
NOTE_ON_57
TIME_SHIFT_64ND_8
NOTE_OFF_64
NOTE_OFF_72
NOTE_OFF_69
NOTE_OFF_57
VEL_4
NOTE_ON_55
TIME_SHIFT_64ND_4
VEL_2
NOTE_ON_72
VEL_2
NOTE_ON_64
VEL_2
NOTE_ON_70
TIME_SHIFT_64ND_4
NOTE_OFF_60
VEL_3
NOTE_ON_60
TIME_SHIFT_64ND_4
NOTE_OFF_72
NOTE_OFF_64
NOTE_OFF_70
VEL_2
NOTE_ON_70
VEL_2
NOTE_ON_64
VEL_2
NOTE_ON_72
TIME_SHIFT_64ND_4
NOTE_OFF_70
NOTE_OFF_64
NOTE_OFF_72
NOTE_OFF_55
VEL_3
NOTE_ON_65
VEL_3
NOTE_ON_72
VEL_3
NOTE_ON_70
VEL_3
NOTE_ON_53
TIME_SHIFT_64ND_8
NOTE_OFF_65
NOTE_OFF_72
NOTE_OFF_70
NOTE_OFF_53
VEL_4
NOTE_ON_52
TIME_SHIFT_64ND_4
VEL_3
NOTE_ON_72
VEL_3
NOTE_ON_67
VEL_3
NOTE_ON_70
TIME_SHIFT_64ND_4
NOTE_OFF_60
VEL_4
NOTE_ON_60
TIME_SHIFT_64ND_4
NOTE_OFF_72
NOTE_OFF_67
NOTE_OFF_70
VEL_3
NOTE_ON_70
VEL_3
NOTE_ON_67
VEL_3
NOTE_ON_72
TIME_SHIFT_64ND_4
NOTE_OFF_70
NOTE_OFF_67
NOTE_OFF_72
NOTE_OFF_60
NOTE_OFF_52
VEL_4
NOTE_ON_67
VEL_4
NOTE_ON_73
VEL_4
NOTE_ON_70
VEL_4
NOTE_ON_51
VEL_4
NOTE_ON_61
TIME_SHIFT_64ND_8
NOTE_OFF_67
NOTE_OFF_73
NOTE_OFF_70
NOTE_OFF_51
VEL_4
NOTE_ON_50
TIME_SHIFT_64ND_4
VEL_3
NOTE_ON_74
VEL_3
NOTE_ON_67
VEL_3
NOTE_ON_70
TIME_SHIFT_64ND_4
NOTE_OFF_61
VEL_4
NOTE_ON_62
TIME_SHIFT_64ND_4
NOTE_OFF_74
NOTE_OFF_67
NOTE_OFF_70
VEL_3
NOTE_ON_70
VEL_3
NOTE_ON_67
VEL_3
NOTE_ON_74
TIME_SHIFT_64ND_4
NOTE_OFF_70
NOTE_OFF_67
NOTE_OFF_74
NOTE_OFF_62
NOTE_OFF_50
VEL_4
NOTE_ON_67
VEL_4
NOTE_ON_76
VEL_4
NOTE_ON_70
VEL_4
NOTE_ON_49
VEL_4
NOTE_ON_64
TIME_SHIFT_64ND_8
NOTE_OFF_67
NOTE_OFF_76
NOTE_OFF_70
NOTE_OFF_49
NOTE_OFF_64
VEL_5
NOTE_ON_50
TIME_SHIFT_64ND_4
VEL_3
NOTE_ON_74
VEL_3
NOTE_ON_69
VEL_3
NOTE_ON_77
TIME_SHIFT_64ND_4
VEL_5
NOTE_ON_62
TIME_SHIFT_64ND_4
NOTE_OFF_74
NOTE_OFF_69
NOTE_OFF_77
VEL_3
NOTE_ON_77
VEL_3
NOTE_ON_69
VEL_3
NOTE_ON_74
TIME_SHIFT_64ND_4
NOTE_OFF_77
NOTE_OFF_69
NOTE_OFF_74
NOTE_OFF_62
NOTE_OFF_50
VEL_5
NOTE_ON_67
VEL_5
NOTE_ON_76
VEL_5
NOTE_ON_70
VEL_4
NOTE_ON_43
VEL_4
NOTE_ON_55
TIME_SHIFT_64ND_8
NOTE_OFF_67
NOTE_OFF_76
NOTE_OFF_70
NOTE_OFF_43
NOTE_OFF_55
VEL_5
NOTE_ON_45
TIME_SHIFT_64ND_4
VEL_3
NOTE_ON_74
VEL_3
NOTE_ON_65
VEL_3
NOTE_ON_69
TIME_SHIFT_64ND_4
VEL_5
NOTE_ON_57
TIME_SHIFT_64ND_4
NOTE_OFF_74
NOTE_OFF_65
NOTE_OFF_69
VEL_3
NOTE_ON_74
VEL_3
NOTE_ON_65
VEL_3
NOTE_ON_69
TIME_SHIFT_64ND_4
NOTE_OFF_74
NOTE_OFF_65
NOTE_OFF_69
NOTE_OFF_57
NOTE_OFF_45
VEL_5
NOTE_ON_64
VEL_5
NOTE_ON_73
VEL_5
NOTE_ON_69
VEL_5
NOTE_ON_33
VEL_5
NOTE_ON_45
TIME_SHIFT_64ND_8
NOTE_OFF_64
NOTE_OFF_73
NOTE_OFF_69
NOTE_OFF_33
NOTE_OFF_45
VEL_6
NOTE_ON_38
TIME_SHIFT_64ND_4
VEL_4
NOTE_ON_74
VEL_4
NOTE_ON_65
VEL_4
NOTE_ON_69
TIME_SHIFT_64ND_4
VEL_5
NOTE_ON_50
TIME_SHIFT_64ND_4
NOTE_OFF_74
NOTE_OFF_65
NOTE_OFF_69
VEL_4
NOTE_ON_74
VEL_4
NOTE_ON_65
VEL_4
NOTE_ON_69
TIME_SHIFT_64ND_4
NOTE_OFF_74
NOTE_OFF_65
NOTE_OFF_69
NOTE_OFF_50
NOTE_OFF_38
VEL_5
NOTE_ON_63
VEL_5
NOTE_ON_72
VEL_5
NOTE_ON_66
VEL_5
NOTE_ON_32
VEL_5
NOTE_ON_44
TIME_SHIFT_64ND_8
NOTE_OFF_63
NOTE_OFF_72
NOTE_OFF_66
NOTE_OFF_32
NOTE_OFF_44
VEL_6
NOTE_ON_43
VEL_6
NOTE_ON_31
TIME_SHIFT_64ND_4
VEL_4
NOTE_ON_72
VEL_4
NOTE_ON_62
VEL_4
NOTE_ON_65
TIME_SHIFT_64ND_4
NOTE_OFF_43
NOTE_OFF_31
VEL_6
NOTE_ON_55
TIME_SHIFT_64ND_4
NOTE_OFF_72
NOTE_OFF_62
NOTE_OFF_65
VEL_4
NOTE_ON_72
VEL_4
NOTE_ON_62
VEL_4
NOTE_ON_65
TIME_SHIFT_64ND_4
NOTE_OFF_72
NOTE_OFF_62
NOTE_OFF_65
NOTE_OFF_55
VEL_5
NOTE_ON_62
VEL_5
NOTE_ON_71
VEL_5
NOTE_ON_65
VEL_5
NOTE_ON_31
VEL_5
NOTE_ON_43
TIME_SHIFT_64ND_8
NOTE_OFF_62
NOTE_OFF_71
NOTE_OFF_65
NOTE_OFF_31
NOTE_OFF_43
VEL_7
NOTE_ON_36
TIME_SHIFT_64ND_4
VEL_4
NOTE_ON_67
VEL_4
NOTE_ON_72
TIME_SHIFT_64ND_4
NOTE_OFF_36
VEL_5
NOTE_ON_52
TIME_SHIFT_64ND_4
NOTE_OFF_67
NOTE_OFF_72
VEL_4
NOTE_ON_72
VEL_4
NOTE_ON_67
TIME_SHIFT_64ND_4
NOTE_OFF_72
NOTE_OFF_67
NOTE_OFF_52
VEL_5
NOTE_ON_69
VEL_5
NOTE_ON_72
VEL_5
NOTE_ON_53
TIME_SHIFT_64ND_8
NOTE_OFF_69
NOTE_OFF_72
NOTE_OFF_53
VEL_6
NOTE_ON_52
TIME_SHIFT_64ND_4
VEL_4
NOTE_ON_72
VEL_4
NOTE_ON_67
TIME_SHIFT_64ND_4
VEL_5
NOTE_ON_36
TIME_SHIFT_64ND_4
NOTE_OFF_72
NOTE_OFF_67
VEL_4
NOTE_ON_67
VEL_4
NOTE_ON_72
TIME_SHIFT_64ND_4
NOTE_OFF_67
NOTE_OFF_72
NOTE_OFF_52
VEL_5
NOTE_ON_64
VEL_5
NOTE_ON_72
VEL_5
NOTE_ON_67
VEL_5
NOTE_ON_48
TIME_SHIFT_64ND_8
NOTE_OFF_64
NOTE_OFF_72
NOTE_OFF_67
NOTE_OFF_48
NOTE_OFF_36
VEL_6
NOTE_ON_50
TIME_SHIFT_64ND_4
VEL_5
NOTE_ON_65
VEL_5
NOTE_ON_67
VEL_5
NOTE_ON_72
TIME_SHIFT_64ND_4
VEL_5
NOTE_ON_36
TIME_SHIFT_64ND_4
NOTE_OFF_65
NOTE_OFF_67
NOTE_OFF_72
VEL_5
NOTE_ON_65
VEL_5
NOTE_ON_67
VEL_5
NOTE_ON_72
TIME_SHIFT_64ND_4
NOTE_OFF_65
NOTE_OFF_67
NOTE_OFF_72
NOTE_OFF_50
VEL_6
NOTE_ON_67
VEL_6
NOTE_ON_72
VEL_5
NOTE_ON_52
TIME_SHIFT_64ND_8
NOTE_OFF_67
NOTE_OFF_72
NOTE_OFF_52
NOTE_OFF_36
VEL_6
NOTE_ON_48
TIME_SHIFT_64ND_4
VEL_5
NOTE_ON_64
VEL_5
NOTE_ON_67
VEL_5
NOTE_ON_72
TIME_SHIFT_64ND_4
VEL_5
NOTE_ON_36
TIME_SHIFT_64ND_4
NOTE_OFF_64
NOTE_OFF_67
NOTE_OFF_72
VEL_5
NOTE_ON_64
VEL_5
NOTE_ON_67
VEL_5
NOTE_ON_72
TIME_SHIFT_64ND_4
NOTE_OFF_64
NOTE_OFF_67
NOTE_OFF_72
NOTE_OFF_48
VEL_6
NOTE_ON_60
VEL_6
NOTE_ON_67
VEL_6
NOTE_ON_72
VEL_5
NOTE_ON_43
TIME_SHIFT_64ND_8
NOTE_OFF_60
NOTE_OFF_67
NOTE_OFF_72
NOTE_OFF_43
NOTE_OFF_36
VEL_6
NOTE_ON_43
VEL_6
NOTE_ON_52
TIME_SHIFT_64ND_4
VEL_4
NOTE_ON_67
VEL_4
NOTE_ON_72
VEL_4
NOTE_ON_64
TIME_SHIFT_64ND_4
VEL_5
NOTE_ON_36
TIME_SHIFT_64ND_4
NOTE_OFF_67
NOTE_OFF_72
NOTE_OFF_64
VEL_4
NOTE_ON_72
VEL_4
NOTE_ON_67
VEL_4
NOTE_ON_64
TIME_SHIFT_64ND_4
NOTE_OFF_72
NOTE_OFF_67
NOTE_OFF_64
NOTE_OFF_43
NOTE_OFF_52
VEL_5
NOTE_ON_67
VEL_5
NOTE_ON_72
VEL_5
NOTE_ON_65
VEL_5
NOTE_ON_53
VEL_5
NOTE_ON_45
TIME_SHIFT_64ND_8
NOTE_OFF_67
NOTE_OFF_72
NOTE_OFF_65
NOTE_OFF_53
NOTE_OFF_45
NOTE_OFF_36
VEL_6
NOTE_ON_52
VEL_6
NOTE_ON_43
TIME_SHIFT_64ND_4
VEL_4
NOTE_ON_72
VEL_4
NOTE_ON_67
VEL_4
NOTE_ON_64
TIME_SHIFT_64ND_4
VEL_5
NOTE_ON_36
TIME_SHIFT_64ND_4
NOTE_OFF_72
NOTE_OFF_67
NOTE_OFF_64
VEL_4
NOTE_ON_67
VEL_4
NOTE_ON_72
VEL_4
NOTE_ON_64
TIME_SHIFT_64ND_4
NOTE_OFF_67
NOTE_OFF_72
NOTE_OFF_64
NOTE_OFF_52
NOTE_OFF_43
VEL_5
NOTE_ON_60
VEL_5
NOTE_ON_72
VEL_5
NOTE_ON_67
VEL_5
NOTE_ON_48
VEL_5
NOTE_ON_40
TIME_SHIFT_64ND_8
NOTE_OFF_60
NOTE_OFF_72
NOTE_OFF_67
NOTE_OFF_48
NOTE_OFF_40
NOTE_OFF_36
VEL_6
NOTE_ON_50
VEL_6
NOTE_ON_41
TIME_SHIFT_64ND_4
VEL_4
NOTE_ON_67
VEL_4
NOTE_ON_62
VEL_4
NOTE_ON_72
TIME_SHIFT_64ND_5
VEL_5
NOTE_ON_36
TIME_SHIFT_64ND_4
NOTE_OFF_67
NOTE_OFF_62
NOTE_OFF_72
VEL_4
NOTE_ON_67
VEL_4
NOTE_ON_62
VEL_4
NOTE_ON_72
TIME_SHIFT_64ND_4
NOTE_OFF_67
NOTE_OFF_62
NOTE_OFF_72
NOTE_OFF_50
NOTE_OFF_41
VEL_5
NOTE_ON_67
VEL_5
NOTE_ON_64
VEL_5
NOTE_ON_72
VEL_5
NOTE_ON_52
VEL_5
NOTE_ON_43
TIME_SHIFT_64ND_8
NOTE_OFF_67
NOTE_OFF_64
NOTE_OFF_72
NOTE_OFF_52
NOTE_OFF_43
NOTE_OFF_36
VEL_6
NOTE_ON_48
VEL_6
NOTE_ON_40
TIME_SHIFT_64ND_4
VEL_4
NOTE_ON_60
VEL_4
NOTE_ON_67
VEL_4
NOTE_ON_72
TIME_SHIFT_64ND_5
VEL_5
NOTE_ON_36
TIME_SHIFT_64ND_4
NOTE_OFF_60
NOTE_OFF_67
NOTE_OFF_72
VEL_4
NOTE_ON_60
VEL_4
NOTE_ON_72
TIME_SHIFT_64ND_4
NOTE_OFF_60
NOTE_OFF_72
NOTE_OFF_48
NOTE_OFF_40
VEL_5
NOTE_ON_60
VEL_5
NOTE_ON_72
VEL_6
NOTE_ON_48
TIME_SHIFT_64ND_8
NOTE_OFF_60
NOTE_OFF_72
NOTE_OFF_48
NOTE_OFF_36
