VEL_2
NOTE_ON_67
VEL_3
NOTE_ON_71
VEL_2
NOTE_ON_57
TIME_SHIFT_64ND_10
VEL_2
NOTE_ON_64
NOTE_OFF_67
TIME_SHIFT_64ND_10
NOTE_OFF_64
NOTE_OFF_71
VEL_3
NOTE_ON_79
VEL_2
NOTE_ON_71
NOTE_OFF_57
TIME_SHIFT_64ND_8
NOTE_OFF_71
VEL_2
NOTE_ON_67
TIME_SHIFT_64ND_8
NOTE_OFF_79
NOTE_OFF_67
VEL_2
NOTE_ON_70
VEL_3
NOTE_ON_78
VEL_2
NOTE_ON_61
TIME_SHIFT_64ND_8
NOTE_OFF_70
VEL_2
NOTE_ON_67
TIME_SHIFT_64ND_8
NOTE_OFF_67
NOTE_OFF_78
NOTE_OFF_61
VEL_3
NOTE_ON_76
VEL_2
NOTE_ON_69
TIME_SHIFT_64ND_8
NOTE_OFF_69
VEL_2
NOTE_ON_67
TIME_SHIFT_64ND_8
NOTE_OFF_76
NOTE_OFF_67
VEL_2
NOTE_ON_69
VEL_3
NOTE_ON_74
VEL_2
NOTE_ON_62
TIME_SHIFT_64ND_9
NOTE_OFF_69
VEL_2
NOTE_ON_66
TIME_SHIFT_64ND_9
NOTE_OFF_66
NOTE_OFF_74
NOTE_OFF_62
VEL_2
NOTE_ON_71
VEL_2
NOTE_ON_68
VEL_1
NOTE_ON_65
TIME_SHIFT_64ND_8
NOTE_OFF_65
VEL_1
NOTE_ON_62
TIME_SHIFT_64ND_9
NOTE_OFF_71
NOTE_OFF_68
NOTE_OFF_62
VEL_2
NOTE_ON_69
VEL_2
NOTE_ON_73
VEL_2
NOTE_ON_57
TIME_SHIFT_64ND_9
NOTE_OFF_69
VEL_1
NOTE_ON_64
TIME_SHIFT_64ND_10
NOTE_OFF_64
NOTE_OFF_57
VEL_1
NOTE_ON_61
TIME_SHIFT_64ND_10
NOTE_OFF_61
VEL_1
NOTE_ON_57
TIME_SHIFT_64ND_10
NOTE_OFF_73
NOTE_OFF_57
VEL_2
NOTE_ON_67
VEL_2
NOTE_ON_71
VEL_2
NOTE_ON_45
TIME_SHIFT_64ND_10
NOTE_OFF_67
VEL_2
NOTE_ON_64
TIME_SHIFT_64ND_10
NOTE_OFF_64
NOTE_OFF_71
NOTE_OFF_45
VEL_3
NOTE_ON_79
VEL_2
NOTE_ON_71
TIME_SHIFT_64ND_8
NOTE_OFF_71
VEL_2
NOTE_ON_67
TIME_SHIFT_64ND_8
NOTE_OFF_79
NOTE_OFF_67
VEL_3
NOTE_ON_70
VEL_3
NOTE_ON_78
VEL_2
NOTE_ON_61
TIME_SHIFT_64ND_8
NOTE_OFF_70
VEL_2
NOTE_ON_67
TIME_SHIFT_64ND_8
NOTE_OFF_67
NOTE_OFF_78
NOTE_OFF_61
VEL_3
NOTE_ON_76
VEL_2
NOTE_ON_69
TIME_SHIFT_64ND_8
NOTE_OFF_69
VEL_2
NOTE_ON_67
TIME_SHIFT_64ND_8
NOTE_OFF_76
NOTE_OFF_67
VEL_3
NOTE_ON_69
VEL_3
NOTE_ON_74
VEL_2
NOTE_ON_62
TIME_SHIFT_64ND_9
NOTE_OFF_69
VEL_2
NOTE_ON_66
TIME_SHIFT_64ND_9
NOTE_OFF_66
NOTE_OFF_74
NOTE_OFF_62
VEL_2
NOTE_ON_71
VEL_2
NOTE_ON_68
VEL_1
NOTE_ON_65
TIME_SHIFT_64ND_8
NOTE_OFF_65
VEL_1
NOTE_ON_62
TIME_SHIFT_64ND_9
NOTE_OFF_71
NOTE_OFF_68
NOTE_OFF_62
VEL_2
NOTE_ON_69
VEL_2
NOTE_ON_73
VEL_2
NOTE_ON_57
TIME_SHIFT_64ND_10
NOTE_OFF_69
VEL_1
NOTE_ON_64
TIME_SHIFT_64ND_10
NOTE_OFF_64
NOTE_OFF_57
VEL_1
NOTE_ON_61
TIME_SHIFT_64ND_10
NOTE_OFF_61
VEL_1
NOTE_ON_57
TIME_SHIFT_64ND_11
NOTE_OFF_73
NOTE_OFF_57
VEL_2
NOTE_ON_69
VEL_3
NOTE_ON_72
VEL_2
NOTE_ON_50
TIME_SHIFT_64ND_9
NOTE_OFF_69
VEL_2
NOTE_ON_64
TIME_SHIFT_64ND_9
NOTE_OFF_64
NOTE_OFF_72
VEL_1
NOTE_ON_66
VEL_2
NOTE_ON_69
TIME_SHIFT_64ND_8
NOTE_OFF_66
VEL_1
NOTE_ON_63
TIME_SHIFT_64ND_8
NOTE_OFF_63
NOTE_OFF_69
NOTE_OFF_50
VEL_2
NOTE_ON_67
VEL_2
NOTE_ON_71
VEL_2
NOTE_ON_50
TIME_SHIFT_64ND_9
NOTE_OFF_67
VEL_2
NOTE_ON_62
TIME_SHIFT_64ND_9
NOTE_OFF_62
NOTE_OFF_71
VEL_1
NOTE_ON_63
VEL_2
NOTE_ON_66
TIME_SHIFT_64ND_8
NOTE_OFF_63
VEL_1
NOTE_ON_60
TIME_SHIFT_64ND_8
NOTE_OFF_60
NOTE_OFF_66
NOTE_OFF_50
VEL_2
NOTE_ON_62
VEL_2
NOTE_ON_67
VEL_2
NOTE_ON_50
TIME_SHIFT_64ND_9
NOTE_OFF_62
VEL_2
NOTE_ON_59
TIME_SHIFT_64ND_9
NOTE_OFF_59
NOTE_OFF_67
VEL_1
NOTE_ON_61
VEL_2
NOTE_ON_64
TIME_SHIFT_64ND_8
NOTE_OFF_61
VEL_1
NOTE_ON_58
TIME_SHIFT_64ND_8
NOTE_OFF_58
NOTE_OFF_64
NOTE_OFF_50
VEL_2
NOTE_ON_62
VEL_2
NOTE_ON_66
VEL_2
NOTE_ON_50
TIME_SHIFT_64ND_9
NOTE_OFF_62
VEL_1
NOTE_ON_57
TIME_SHIFT_64ND_9
NOTE_OFF_57
VEL_1
NOTE_ON_54
TIME_SHIFT_64ND_9
NOTE_OFF_50
NOTE_OFF_54
VEL_1
NOTE_ON_50
TIME_SHIFT_64ND_11
NOTE_OFF_66
NOTE_OFF_50
VEL_2
NOTE_ON_69
VEL_2
NOTE_ON_72
VEL_1
NOTE_ON_38
TIME_SHIFT_64ND_10
NOTE_OFF_69
VEL_1
NOTE_ON_64
TIME_SHIFT_64ND_10
NOTE_OFF_64
NOTE_OFF_72
VEL_1
NOTE_ON_66
VEL_2
NOTE_ON_69
TIME_SHIFT_64ND_8
NOTE_OFF_66
VEL_1
NOTE_ON_63
TIME_SHIFT_64ND_8
NOTE_OFF_63
NOTE_OFF_69
NOTE_OFF_38
VEL_2
NOTE_ON_67
VEL_2
NOTE_ON_71
VEL_1
NOTE_ON_50
TIME_SHIFT_64ND_9
NOTE_OFF_67
VEL_1
NOTE_ON_62
TIME_SHIFT_64ND_9
NOTE_OFF_62
NOTE_OFF_71
VEL_1
NOTE_ON_63
VEL_2
NOTE_ON_66
TIME_SHIFT_64ND_8
NOTE_OFF_63
VEL_1
NOTE_ON_60
TIME_SHIFT_64ND_8
NOTE_OFF_60
NOTE_OFF_66
NOTE_OFF_50
VEL_2
NOTE_ON_62
VEL_2
NOTE_ON_67
VEL_1
NOTE_ON_50
TIME_SHIFT_64ND_10
NOTE_OFF_62
VEL_1
NOTE_ON_59
TIME_SHIFT_64ND_10
NOTE_OFF_59
NOTE_OFF_67
VEL_1
NOTE_ON_61
VEL_2
NOTE_ON_64
TIME_SHIFT_64ND_9
NOTE_OFF_61
VEL_1
NOTE_ON_58
TIME_SHIFT_64ND_9
NOTE_OFF_58
NOTE_OFF_64
NOTE_OFF_50
VEL_1
NOTE_ON_62
VEL_2
NOTE_ON_66
VEL_1
NOTE_ON_50
TIME_SHIFT_64ND_9
NOTE_OFF_62
VEL_1
NOTE_ON_57
TIME_SHIFT_64ND_10
NOTE_OFF_57
VEL_1
NOTE_ON_54
TIME_SHIFT_64ND_9
NOTE_OFF_50
TIME_SHIFT_64ND_1
NOTE_OFF_54
VEL_1
NOTE_ON_50
TIME_SHIFT_64ND_10
NOTE_OFF_66
NOTE_OFF_50
VEL_2
NOTE_ON_62
VEL_2
NOTE_ON_66
VEL_2
NOTE_ON_47
TIME_SHIFT_64ND_9
NOTE_OFF_62
VEL_2
NOTE_ON_59
TIME_SHIFT_64ND_9
NOTE_OFF_59
NOTE_OFF_66
VEL_2
NOTE_ON_68
VEL_2
NOTE_ON_57
TIME_SHIFT_64ND_9
NOTE_OFF_57
VEL_2
NOTE_ON_56
TIME_SHIFT_64ND_9
NOTE_OFF_68
NOTE_OFF_56
NOTE_OFF_47
VEL_3
NOTE_ON_69
VEL_2
NOTE_ON_54
VEL_2
NOTE_ON_49
TIME_SHIFT_64ND_9
NOTE_OFF_54
VEL_2
NOTE_ON_52
TIME_SHIFT_64ND_9
NOTE_OFF_69
NOTE_OFF_52
NOTE_OFF_49
VEL_3
NOTE_ON_71
VEL_2
NOTE_ON_50
TIME_SHIFT_64ND_8
VEL_2
NOTE_ON_66
TIME_SHIFT_64ND_8
NOTE_OFF_66
NOTE_OFF_71
NOTE_OFF_50
VEL_3
NOTE_ON_73
VEL_2
NOTE_ON_52
TIME_SHIFT_64ND_9
VEL_2
NOTE_ON_64
TIME_SHIFT_64ND_9
NOTE_OFF_64
NOTE_OFF_73
VEL_2
NOTE_ON_71
VEL_2
NOTE_ON_68
VEL_2
NOTE_ON_63
TIME_SHIFT_64ND_9
NOTE_OFF_63
VEL_2
NOTE_ON_62
TIME_SHIFT_64ND_9
NOTE_OFF_71
NOTE_OFF_68
NOTE_OFF_62
NOTE_OFF_52
VEL_2
NOTE_ON_69
VEL_2
NOTE_ON_57
TIME_SHIFT_64ND_9
NOTE_OFF_69
VEL_2
NOTE_ON_61
TIME_SHIFT_64ND_9
NOTE_OFF_61
VEL_2
NOTE_ON_52
TIME_SHIFT_64ND_9
NOTE_OFF_52
VEL_2
NOTE_ON_49
TIME_SHIFT_64ND_10
NOTE_OFF_49
NOTE_OFF_57
VEL_2
NOTE_ON_62
VEL_2
NOTE_ON_66
VEL_2
NOTE_ON_47
TIME_SHIFT_64ND_9
NOTE_OFF_62
VEL_2
NOTE_ON_59
TIME_SHIFT_64ND_9
NOTE_OFF_59
NOTE_OFF_66
VEL_2
NOTE_ON_68
VEL_1
NOTE_ON_57
TIME_SHIFT_64ND_9
NOTE_OFF_57
VEL_1
NOTE_ON_56
TIME_SHIFT_64ND_9
NOTE_OFF_68
NOTE_OFF_56
NOTE_OFF_47
VEL_2
NOTE_ON_69
VEL_1
NOTE_ON_54
VEL_2
NOTE_ON_49
TIME_SHIFT_64ND_9
NOTE_OFF_54
VEL_1
NOTE_ON_52
TIME_SHIFT_64ND_9
NOTE_OFF_69
NOTE_OFF_52
NOTE_OFF_49
VEL_2
NOTE_ON_71
VEL_1
NOTE_ON_50
TIME_SHIFT_64ND_9
VEL_2
NOTE_ON_66
TIME_SHIFT_64ND_10
NOTE_OFF_66
NOTE_OFF_71
NOTE_OFF_50
VEL_2
NOTE_ON_73
VEL_2
NOTE_ON_52
TIME_SHIFT_64ND_9
VEL_2
NOTE_ON_64
TIME_SHIFT_64ND_9
NOTE_OFF_64
NOTE_OFF_73
VEL_2
NOTE_ON_71
VEL_2
NOTE_ON_68
VEL_2
NOTE_ON_63
TIME_SHIFT_64ND_9
NOTE_OFF_63
VEL_2
NOTE_ON_62
TIME_SHIFT_64ND_9
NOTE_OFF_71
NOTE_OFF_68
NOTE_OFF_62
NOTE_OFF_52
VEL_2
NOTE_ON_69
VEL_2
NOTE_ON_57
TIME_SHIFT_64ND_10
VEL_1
NOTE_ON_61
TIME_SHIFT_64ND_11
NOTE_OFF_61
VEL_1
NOTE_ON_52
TIME_SHIFT_64ND_11
NOTE_OFF_52
VEL_1
NOTE_ON_49
TIME_SHIFT_64ND_12
NOTE_OFF_69
NOTE_OFF_49
NOTE_OFF_57
VEL_2
NOTE_ON_67
VEL_3
NOTE_ON_71
VEL_2
NOTE_ON_45
TIME_SHIFT_64ND_10
NOTE_OFF_67
VEL_2
NOTE_ON_64
TIME_SHIFT_64ND_10
NOTE_OFF_64
NOTE_OFF_71
NOTE_OFF_45
VEL_3
NOTE_ON_79
VEL_2
NOTE_ON_71
TIME_SHIFT_64ND_8
NOTE_OFF_71
VEL_2
NOTE_ON_67
TIME_SHIFT_64ND_8
NOTE_OFF_79
NOTE_OFF_67
VEL_2
NOTE_ON_70
VEL_3
NOTE_ON_78
VEL_2
NOTE_ON_61
TIME_SHIFT_64ND_8
NOTE_OFF_70
VEL_2
NOTE_ON_67
TIME_SHIFT_64ND_8
NOTE_OFF_67
NOTE_OFF_78
NOTE_OFF_61
VEL_3
NOTE_ON_76
VEL_2
NOTE_ON_69
TIME_SHIFT_64ND_8
NOTE_OFF_69
VEL_2
NOTE_ON_67
TIME_SHIFT_64ND_8
NOTE_OFF_76
NOTE_OFF_67
VEL_2
NOTE_ON_69
VEL_3
NOTE_ON_74
VEL_2
NOTE_ON_62
TIME_SHIFT_64ND_9
NOTE_OFF_69
VEL_2
NOTE_ON_66
TIME_SHIFT_64ND_9
NOTE_OFF_66
NOTE_OFF_74
NOTE_OFF_62
VEL_2
NOTE_ON_71
VEL_2
NOTE_ON_68
VEL_1
NOTE_ON_65
TIME_SHIFT_64ND_8
NOTE_OFF_65
VEL_1
NOTE_ON_62
TIME_SHIFT_64ND_9
NOTE_OFF_71
NOTE_OFF_68
NOTE_OFF_62
VEL_2
NOTE_ON_69
VEL_2
NOTE_ON_73
VEL_2
NOTE_ON_57
TIME_SHIFT_64ND_9
NOTE_OFF_69
VEL_1
NOTE_ON_64
TIME_SHIFT_64ND_10
NOTE_OFF_64
NOTE_OFF_57
VEL_1
NOTE_ON_61
TIME_SHIFT_64ND_10
NOTE_OFF_61
VEL_1
NOTE_ON_57
TIME_SHIFT_64ND_11
NOTE_OFF_73
NOTE_OFF_57
VEL_2
NOTE_ON_67
VEL_2
NOTE_ON_71
VEL_2
NOTE_ON_45
TIME_SHIFT_64ND_10
NOTE_OFF_67
VEL_2
NOTE_ON_64
TIME_SHIFT_64ND_10
NOTE_OFF_64
NOTE_OFF_71
NOTE_OFF_45
VEL_2
NOTE_ON_79
VEL_1
NOTE_ON_71
TIME_SHIFT_64ND_9
NOTE_OFF_71
VEL_1
NOTE_ON_67
TIME_SHIFT_64ND_9
NOTE_OFF_79
NOTE_OFF_67
VEL_2
NOTE_ON_70
VEL_2
NOTE_ON_78
VEL_2
NOTE_ON_61
TIME_SHIFT_64ND_9
NOTE_OFF_70
VEL_2
NOTE_ON_67
TIME_SHIFT_64ND_10
NOTE_OFF_67
NOTE_OFF_78
NOTE_OFF_61
VEL_2
NOTE_ON_76
VEL_1
NOTE_ON_69
TIME_SHIFT_64ND_10
NOTE_OFF_69
VEL_1
NOTE_ON_67
TIME_SHIFT_64ND_10
NOTE_OFF_76
NOTE_OFF_67
VEL_2
NOTE_ON_69
VEL_2
NOTE_ON_74
VEL_2
NOTE_ON_62
TIME_SHIFT_64ND_11
VEL_1
NOTE_ON_66
TIME_SHIFT_64ND_2
NOTE_OFF_69
TIME_SHIFT_64ND_10
NOTE_OFF_66
NOTE_OFF_74
NOTE_OFF_62
VEL_2
NOTE_ON_71
VEL_1
NOTE_ON_68
VEL_1
NOTE_ON_65
TIME_SHIFT_64ND_12
VEL_1
NOTE_ON_62
TIME_SHIFT_64ND_2
NOTE_OFF_65
TIME_SHIFT_64ND_10
NOTE_OFF_71
NOTE_OFF_68
NOTE_OFF_62
VEL_1
NOTE_ON_69
VEL_2
NOTE_ON_73
VEL_1
NOTE_ON_57
TIME_SHIFT_64ND_12
VEL_1
NOTE_ON_64
TIME_SHIFT_64ND_13
NOTE_OFF_57
VEL_1
NOTE_ON_61
TIME_SHIFT_64ND_13
VEL_1
NOTE_ON_57
TIME_SHIFT_64ND_21
VEL_2
NOTE_ON_79
VEL_1
NOTE_ON_45
TIME_SHIFT_64ND_83
NOTE_OFF_79
NOTE_OFF_69
NOTE_OFF_73
NOTE_OFF_64
NOTE_OFF_45
NOTE_OFF_57
NOTE_OFF_61
