VEL_2
NOTE_ON_62
VEL_2
NOTE_ON_66
VEL_2
NOTE_ON_57
VEL_2
NOTE_ON_48
TIME_SHIFT_64ND_39
NOTE_OFF_62
VEL_2
NOTE_ON_67
VEL_2
NOTE_ON_62
VEL_2
NOTE_ON_47
VEL_2
NOTE_ON_55
NOTE_OFF_66
NOTE_OFF_57
NOTE_OFF_48
TIME_SHIFT_64ND_40
NOTE_OFF_67
NOTE_OFF_62
NOTE_OFF_47
NOTE_OFF_55
VEL_3
NOTE_ON_72
VEL_3
NOTE_ON_62
VEL_2
NOTE_ON_45
VEL_2
NOTE_ON_54
TIME_SHIFT_64ND_58
NOTE_OFF_72
NOTE_OFF_62
NOTE_OFF_45
NOTE_OFF_54
VEL_2
NOTE_ON_71
VEL_2
NOTE_ON_62
VEL_1
NOTE_ON_47
VEL_1
NOTE_ON_55
TIME_SHIFT_64ND_20
NOTE_OFF_71
NOTE_OFF_62
NOTE_OFF_47
NOTE_OFF_55
VEL_2
NOTE_ON_69
VEL_2
NOTE_ON_64
VEL_1
NOTE_ON_48
VEL_1
NOTE_ON_55
TIME_SHIFT_64ND_25
NOTE_OFF_69
VEL_2
NOTE_ON_71
TIME_SHIFT_64ND_4
NOTE_OFF_71
VEL_2
NOTE_ON_69
TIME_SHIFT_64ND_4
NOTE_OFF_69
VEL_2
NOTE_ON_67
TIME_SHIFT_64ND_4
NOTE_OFF_67
VEL_2
NOTE_ON_69
TIME_SHIFT_64ND_4
NOTE_OFF_69
NOTE_OFF_64
NOTE_OFF_48
NOTE_OFF_55
VEL_2
NOTE_ON_71
VEL_2
NOTE_ON_64
VEL_1
NOTE_ON_55
VEL_1
NOTE_ON_49
TIME_SHIFT_64ND_30
NOTE_OFF_71
VEL_2
NOTE_ON_67
TIME_SHIFT_64ND_10
NOTE_OFF_67
NOTE_OFF_64
NOTE_OFF_55
NOTE_OFF_49
VEL_2
NOTE_ON_71
VEL_2
NOTE_ON_62
VEL_1
NOTE_ON_55
VEL_1
NOTE_ON_50
TIME_SHIFT_64ND_40
NOTE_OFF_71
NOTE_OFF_55
VEL_2
NOTE_ON_69
VEL_1
NOTE_ON_54
TIME_SHIFT_64ND_40
NOTE_OFF_69
NOTE_OFF_62
NOTE_OFF_54
NOTE_OFF_50
VEL_2
NOTE_ON_65
VEL_2
NOTE_ON_68
VEL_2
NOTE_ON_50
VEL_2
NOTE_ON_59
TIME_SHIFT_64ND_40
NOTE_OFF_65
NOTE_OFF_68
NOTE_OFF_50
NOTE_OFF_59
VEL_3
NOTE_ON_69
VEL_3
NOTE_ON_64
VEL_2
NOTE_ON_48
VEL_2
NOTE_ON_57
TIME_SHIFT_64ND_42
NOTE_OFF_69
NOTE_OFF_64
NOTE_OFF_48
NOTE_OFF_57
VEL_3
NOTE_ON_74
VEL_3
NOTE_ON_65
VEL_2
NOTE_ON_56
VEL_2
NOTE_ON_47
TIME_SHIFT_64ND_26
NOTE_OFF_56
VEL_2
NOTE_ON_57
TIME_SHIFT_64ND_4
NOTE_OFF_57
VEL_2
NOTE_ON_56
TIME_SHIFT_64ND_4
NOTE_OFF_56
VEL_2
NOTE_ON_55
TIME_SHIFT_64ND_5
NOTE_OFF_55
VEL_2
NOTE_ON_56
TIME_SHIFT_64ND_2
VEL_2
NOTE_ON_64
TIME_SHIFT_64ND_4
NOTE_OFF_74
NOTE_OFF_65
NOTE_OFF_56
NOTE_OFF_47
VEL_3
NOTE_ON_72
VEL_2
NOTE_ON_48
TIME_SHIFT_64ND_42
NOTE_OFF_72
NOTE_OFF_64
NOTE_OFF_48
TIME_SHIFT_64ND_19
VEL_1
NOTE_ON_71
VEL_2
NOTE_ON_62
VEL_2
NOTE_ON_65
VEL_1
NOTE_ON_50
TIME_SHIFT_64ND_45
NOTE_OFF_71
NOTE_OFF_62
NOTE_OFF_65
NOTE_OFF_50
TIME_SHIFT_64ND_4
VEL_1
NOTE_ON_68
VEL_2
NOTE_ON_64
VEL_2
NOTE_ON_59
VEL_1
NOTE_ON_52
TIME_SHIFT_64ND_6
NOTE_OFF_68
NOTE_OFF_64
NOTE_OFF_59
NOTE_OFF_52
VEL_1
NOTE_ON_68
VEL_2
NOTE_ON_59
VEL_2
NOTE_ON_64
VEL_1
NOTE_ON_52
TIME_SHIFT_64ND_41
NOTE_OFF_68
NOTE_OFF_59
NOTE_OFF_52
VEL_1
NOTE_ON_69
VEL_1
NOTE_ON_60
VEL_1
NOTE_ON_45
TIME_SHIFT_64ND_21
NOTE_OFF_69
NOTE_OFF_60
NOTE_OFF_64
NOTE_OFF_45
TIME_SHIFT_64ND_21
VEL_2
NOTE_ON_66
VEL_2
NOTE_ON_48
TIME_SHIFT_64ND_10
VEL_1
NOTE_ON_62
TIME_SHIFT_64ND_10
NOTE_OFF_62
VEL_1
NOTE_ON_57
TIME_SHIFT_64ND_10
NOTE_OFF_57
VEL_1
NOTE_ON_50
TIME_SHIFT_64ND_11
NOTE_OFF_66
NOTE_OFF_50
NOTE_OFF_48
VEL_2
NOTE_ON_67
VEL_2
NOTE_ON_47
TIME_SHIFT_64ND_10
VEL_1
NOTE_ON_62
TIME_SHIFT_64ND_10
NOTE_OFF_62
VEL_1
NOTE_ON_55
TIME_SHIFT_64ND_10
NOTE_OFF_55
VEL_1
NOTE_ON_50
TIME_SHIFT_64ND_12
NOTE_OFF_67
NOTE_OFF_50
NOTE_OFF_47
VEL_2
NOTE_ON_72
VEL_2
NOTE_ON_45
TIME_SHIFT_64ND_11
VEL_1
NOTE_ON_63
TIME_SHIFT_64ND_12
VEL_1
NOTE_ON_54
TIME_SHIFT_64ND_13
VEL_1
NOTE_ON_48
TIME_SHIFT_64ND_65
NOTE_OFF_63
NOTE_OFF_72
NOTE_OFF_48
NOTE_OFF_54
NOTE_OFF_45
VEL_2
NOTE_ON_63
VEL_1
NOTE_ON_45
TIME_SHIFT_64ND_10
VEL_1
NOTE_ON_60
TIME_SHIFT_64ND_10
NOTE_OFF_60
VEL_1
NOTE_ON_54
TIME_SHIFT_64ND_10
NOTE_OFF_54
VEL_1
NOTE_ON_48
TIME_SHIFT_64ND_11
NOTE_OFF_63
NOTE_OFF_48
NOTE_OFF_45
VEL_2
NOTE_ON_64
VEL_2
NOTE_ON_43
TIME_SHIFT_64ND_10
VEL_1
NOTE_ON_59
TIME_SHIFT_64ND_10
NOTE_OFF_59
VEL_1
NOTE_ON_52
TIME_SHIFT_64ND_10
NOTE_OFF_52
VEL_1
NOTE_ON_47
TIME_SHIFT_64ND_12
NOTE_OFF_64
NOTE_OFF_47
NOTE_OFF_43
VEL_1
NOTE_ON_69
VEL_2
NOTE_ON_42
TIME_SHIFT_64ND_12
VEL_1
NOTE_ON_60
TIME_SHIFT_64ND_13
VEL_1
NOTE_ON_51
TIME_SHIFT_64ND_15
VEL_1
NOTE_ON_45
TIME_SHIFT_64ND_45
NOTE_OFF_69
NOTE_OFF_45
NOTE_OFF_51
NOTE_OFF_42
TIME_SHIFT_64ND_7
VEL_2
NOTE_ON_69
TIME_SHIFT_64ND_7
VEL_2
NOTE_ON_71
NOTE_OFF_69
TIME_SHIFT_64ND_6
NOTE_OFF_60
VEL_2
NOTE_ON_72
NOTE_OFF_71
TIME_SHIFT_64ND_6
VEL_2
NOTE_ON_71
NOTE_OFF_72
TIME_SHIFT_64ND_6
VEL_2
NOTE_ON_69
NOTE_OFF_71
TIME_SHIFT_64ND_7
NOTE_OFF_69
VEL_2
NOTE_ON_78
TIME_SHIFT_64ND_31
NOTE_OFF_78
VEL_2
NOTE_ON_76
TIME_SHIFT_64ND_11
NOTE_OFF_76
VEL_2
NOTE_ON_76
TIME_SHIFT_64ND_23
NOTE_OFF_76
VEL_1
NOTE_ON_75
TIME_SHIFT_64ND_27
NOTE_OFF_75
VEL_2
NOTE_ON_75
TIME_SHIFT_64ND_4
NOTE_OFF_75
VEL_2
NOTE_ON_75
TIME_SHIFT_64ND_4
NOTE_OFF_75
VEL_2
NOTE_ON_76
TIME_SHIFT_64ND_4
NOTE_OFF_76
VEL_2
NOTE_ON_75
TIME_SHIFT_64ND_4
NOTE_OFF_75
VEL_2
NOTE_ON_74
TIME_SHIFT_64ND_4
NOTE_OFF_74
VEL_2
NOTE_ON_75
TIME_SHIFT_64ND_4
NOTE_OFF_75
VEL_2
NOTE_ON_58
VEL_2
NOTE_ON_76
TIME_SHIFT_64ND_7
VEL_2
NOTE_ON_64
TIME_SHIFT_64ND_7
VEL_2
NOTE_ON_66
NOTE_OFF_64
TIME_SHIFT_64ND_6
VEL_2
NOTE_ON_67
NOTE_OFF_66
TIME_SHIFT_64ND_6
VEL_2
NOTE_ON_66
NOTE_OFF_67
TIME_SHIFT_64ND_6
VEL_2
NOTE_ON_64
NOTE_OFF_66
TIME_SHIFT_64ND_7
NOTE_OFF_64
VEL_2
NOTE_ON_73
TIME_SHIFT_64ND_21
NOTE_OFF_58
VEL_2
NOTE_ON_59
TIME_SHIFT_64ND_10
NOTE_OFF_73
VEL_2
NOTE_ON_71
TIME_SHIFT_64ND_5
VEL_2
NOTE_ON_61
TIME_SHIFT_64ND_3
VEL_2
NOTE_ON_64
TIME_SHIFT_64ND_3
NOTE_OFF_71
NOTE_OFF_76
NOTE_OFF_59
VEL_2
NOTE_ON_76
VEL_2
NOTE_ON_71
TIME_SHIFT_64ND_9
NOTE_OFF_76
VEL_2
NOTE_ON_76
TIME_SHIFT_64ND_7
VEL_2
NOTE_ON_78
NOTE_OFF_76
TIME_SHIFT_64ND_6
NOTE_OFF_71
VEL_3
NOTE_ON_79
VEL_2
NOTE_ON_70
NOTE_OFF_78
TIME_SHIFT_64ND_6
VEL_2
NOTE_ON_78
NOTE_OFF_79
TIME_SHIFT_64ND_6
VEL_2
NOTE_ON_76
TIME_SHIFT_64ND_1
NOTE_OFF_78
TIME_SHIFT_64ND_8
NOTE_OFF_64
NOTE_OFF_76
NOTE_OFF_61
VEL_2
NOTE_ON_91
TIME_SHIFT_64ND_8
NOTE_OFF_91
VEL_2
NOTE_ON_88
TIME_SHIFT_64ND_8
NOTE_OFF_88
VEL_2
NOTE_ON_85
TIME_SHIFT_64ND_8
NOTE_OFF_85
VEL_2
NOTE_ON_82
TIME_SHIFT_64ND_9
NOTE_OFF_82
VEL_1
NOTE_ON_79
TIME_SHIFT_64ND_10
NOTE_OFF_79
VEL_1
NOTE_ON_76
TIME_SHIFT_64ND_10
NOTE_OFF_76
NOTE_OFF_70
VEL_2
NOTE_ON_62
VEL_2
NOTE_ON_66
VEL_2
NOTE_ON_57
VEL_2
NOTE_ON_48
TIME_SHIFT_64ND_48
VEL_2
NOTE_ON_62
VEL_2
NOTE_ON_67
VEL_2
NOTE_ON_55
VEL_2
NOTE_ON_47
NOTE_OFF_62
NOTE_OFF_62
NOTE_OFF_66
NOTE_OFF_57
NOTE_OFF_48
TIME_SHIFT_64ND_46
NOTE_OFF_67
NOTE_OFF_55
NOTE_OFF_47
VEL_3
NOTE_ON_72
VEL_3
NOTE_ON_62
VEL_3
NOTE_ON_54
VEL_3
NOTE_ON_45
TIME_SHIFT_64ND_58
NOTE_OFF_72
NOTE_OFF_62
NOTE_OFF_54
NOTE_OFF_45
VEL_3
NOTE_ON_71
VEL_3
NOTE_ON_62
VEL_2
NOTE_ON_47
VEL_2
NOTE_ON_55
TIME_SHIFT_64ND_20
NOTE_OFF_71
NOTE_OFF_62
NOTE_OFF_47
NOTE_OFF_55
VEL_3
NOTE_ON_69
VEL_3
NOTE_ON_64
VEL_2
NOTE_ON_48
VEL_2
NOTE_ON_55
TIME_SHIFT_64ND_25
NOTE_OFF_69
VEL_2
NOTE_ON_71
TIME_SHIFT_64ND_4
NOTE_OFF_71
VEL_2
NOTE_ON_69
TIME_SHIFT_64ND_4
NOTE_OFF_69
VEL_2
NOTE_ON_67
TIME_SHIFT_64ND_4
NOTE_OFF_67
VEL_2
NOTE_ON_69
TIME_SHIFT_64ND_4
NOTE_OFF_69
NOTE_OFF_64
NOTE_OFF_48
NOTE_OFF_55
VEL_3
NOTE_ON_71
VEL_3
NOTE_ON_64
VEL_1
NOTE_ON_49
VEL_1
NOTE_ON_55
TIME_SHIFT_64ND_30
NOTE_OFF_71
VEL_2
NOTE_ON_67
TIME_SHIFT_64ND_10
NOTE_OFF_67
NOTE_OFF_64
NOTE_OFF_49
NOTE_OFF_55
VEL_2
NOTE_ON_71
VEL_2
NOTE_ON_62
VEL_1
NOTE_ON_55
VEL_1
NOTE_ON_50
TIME_SHIFT_64ND_40
NOTE_OFF_71
NOTE_OFF_55
VEL_1
NOTE_ON_69
VEL_1
NOTE_ON_54
TIME_SHIFT_64ND_40
NOTE_OFF_69
NOTE_OFF_62
NOTE_OFF_54
NOTE_OFF_50
VEL_2
NOTE_ON_68
VEL_2
NOTE_ON_65
VEL_1
NOTE_ON_50
VEL_1
NOTE_ON_59
TIME_SHIFT_64ND_40
NOTE_OFF_68
NOTE_OFF_65
NOTE_OFF_50
NOTE_OFF_59
VEL_2
NOTE_ON_64
VEL_2
NOTE_ON_69
VEL_2
NOTE_ON_57
VEL_2
NOTE_ON_48
TIME_SHIFT_64ND_42
NOTE_OFF_64
NOTE_OFF_69
NOTE_OFF_57
NOTE_OFF_48
VEL_3
NOTE_ON_74
VEL_3
NOTE_ON_65
VEL_2
NOTE_ON_56
VEL_2
NOTE_ON_47
TIME_SHIFT_64ND_26
NOTE_OFF_56
VEL_2
NOTE_ON_57
TIME_SHIFT_64ND_4
NOTE_OFF_57
VEL_2
NOTE_ON_56
TIME_SHIFT_64ND_4
NOTE_OFF_56
VEL_2
NOTE_ON_55
TIME_SHIFT_64ND_5
NOTE_OFF_55
VEL_2
NOTE_ON_56
TIME_SHIFT_64ND_2
VEL_2
NOTE_ON_64
TIME_SHIFT_64ND_4
NOTE_OFF_74
NOTE_OFF_65
NOTE_OFF_56
NOTE_OFF_47
VEL_3
NOTE_ON_72
VEL_2
NOTE_ON_48
TIME_SHIFT_64ND_42
NOTE_OFF_72
NOTE_OFF_64
NOTE_OFF_48
TIME_SHIFT_64ND_20
VEL_1
NOTE_ON_71
VEL_1
NOTE_ON_65
VEL_1
NOTE_ON_62
VEL_1
NOTE_ON_50
TIME_SHIFT_64ND_45
NOTE_OFF_71
NOTE_OFF_65
NOTE_OFF_62
NOTE_OFF_50
TIME_SHIFT_64ND_5
VEL_1
NOTE_ON_68
VEL_1
NOTE_ON_59
VEL_1
NOTE_ON_64
VEL_1
NOTE_ON_52
TIME_SHIFT_64ND_6
NOTE_OFF_68
NOTE_OFF_59
NOTE_OFF_64
NOTE_OFF_52
VEL_1
NOTE_ON_68
VEL_1
NOTE_ON_59
VEL_1
NOTE_ON_64
VEL_1
NOTE_ON_52
TIME_SHIFT_64ND_42
NOTE_OFF_68
NOTE_OFF_59
NOTE_OFF_52
VEL_1
NOTE_ON_69
VEL_1
NOTE_ON_60
VEL_1
NOTE_ON_45
TIME_SHIFT_64ND_21
NOTE_OFF_69
NOTE_OFF_60
NOTE_OFF_64
NOTE_OFF_45
TIME_SHIFT_64ND_40
VEL_1
NOTE_ON_60
VEL_1
NOTE_ON_63
VEL_1
NOTE_ON_69
VEL_1
NOTE_ON_48
TIME_SHIFT_64ND_46
NOTE_OFF_60
NOTE_OFF_63
NOTE_OFF_69
NOTE_OFF_48
TIME_SHIFT_64ND_5
VEL_1
NOTE_ON_57
VEL_1
NOTE_ON_62
VEL_1
NOTE_ON_66
VEL_1
NOTE_ON_50
TIME_SHIFT_64ND_6
NOTE_OFF_57
NOTE_OFF_62
NOTE_OFF_66
NOTE_OFF_50
VEL_1
NOTE_ON_57
VEL_1
NOTE_ON_66
VEL_1
NOTE_ON_62
VEL_1
NOTE_ON_50
TIME_SHIFT_64ND_43
NOTE_OFF_57
NOTE_OFF_66
NOTE_OFF_50
VEL_1
NOTE_ON_67
VEL_1
NOTE_ON_55
VEL_1
NOTE_ON_47
TIME_SHIFT_64ND_22
NOTE_OFF_67
NOTE_OFF_55
NOTE_OFF_62
NOTE_OFF_47
TIME_SHIFT_64ND_43
VEL_1
NOTE_ON_64
VEL_1
NOTE_ON_55
VEL_1
NOTE_ON_60
VEL_1
NOTE_ON_48
TIME_SHIFT_64ND_68
NOTE_OFF_64
NOTE_OFF_55
NOTE_OFF_60
NOTE_OFF_48
TIME_SHIFT_64ND_23
VEL_0
NOTE_ON_54
VEL_0
NOTE_ON_57
VEL_1
NOTE_ON_62
VEL_0
NOTE_ON_48
VEL_0
NOTE_ON_38
TIME_SHIFT_64ND_92
NOTE_OFF_54
NOTE_OFF_57
NOTE_OFF_62
NOTE_OFF_48
NOTE_OFF_38
VEL_1
NOTE_ON_62
VEL_0
NOTE_ON_55
VEL_0
NOTE_ON_31
VEL_0
NOTE_ON_47
TIME_SHIFT_64ND_123
NOTE_OFF_62
NOTE_OFF_55
NOTE_OFF_31
NOTE_OFF_47
