TIME_SHIFT_64ND_58
VEL_3
NOTE_ON_60
TIME_SHIFT_64ND_24
NOTE_OFF_60
VEL_3
NOTE_ON_65
VEL_2
NOTE_ON_41
TIME_SHIFT_64ND_48
VEL_1
NOTE_ON_60
VEL_1
NOTE_ON_53
VEL_1
NOTE_ON_57
VEL_1
NOTE_ON_48
TIME_SHIFT_64ND_59
NOTE_OFF_65
VEL_2
NOTE_ON_64
TIME_SHIFT_64ND_13
NOTE_OFF_64
VEL_3
NOTE_ON_65
TIME_SHIFT_64ND_13
NOTE_OFF_65
VEL_3
NOTE_ON_69
TIME_SHIFT_64ND_13
NOTE_OFF_69
NOTE_OFF_60
NOTE_OFF_53
VEL_3
NOTE_ON_72
TIME_SHIFT_64ND_15
NOTE_OFF_72
VEL_3
NOTE_ON_77
TIME_SHIFT_64ND_10
VEL_1
NOTE_ON_46
TIME_SHIFT_64ND_5
VEL_2
NOTE_ON_53
TIME_SHIFT_64ND_1
NOTE_OFF_46
TIME_SHIFT_64ND_3
NOTE_OFF_77
TIME_SHIFT_64ND_1
NOTE_OFF_57
NOTE_OFF_41
NOTE_OFF_48
VEL_2
NOTE_ON_65
TIME_SHIFT_64ND_1
VEL_3
NOTE_ON_77
VEL_2
NOTE_ON_62
TIME_SHIFT_64ND_56
VEL_2
NOTE_ON_60
VEL_2
NOTE_ON_76
NOTE_OFF_77
NOTE_OFF_62
TIME_SHIFT_64ND_14
NOTE_OFF_60
VEL_2
NOTE_ON_58
NOTE_OFF_76
VEL_2
NOTE_ON_74
TIME_SHIFT_64ND_17
NOTE_OFF_58
NOTE_OFF_53
VEL_2
NOTE_ON_72
VEL_2
NOTE_ON_57
VEL_2
NOTE_ON_48
NOTE_OFF_74
TIME_SHIFT_64ND_16
NOTE_OFF_72
VEL_2
NOTE_ON_77
TIME_SHIFT_64ND_16
NOTE_OFF_77
NOTE_OFF_65
NOTE_OFF_57
NOTE_OFF_48
VEL_2
NOTE_ON_67
VEL_2
NOTE_ON_64
VEL_2
NOTE_ON_58
VEL_2
NOTE_ON_48
TIME_SHIFT_64ND_14
NOTE_OFF_67
NOTE_OFF_58
VEL_2
NOTE_ON_69
VEL_2
NOTE_ON_57
TIME_SHIFT_64ND_14
NOTE_OFF_69
NOTE_OFF_57
VEL_3
NOTE_ON_70
VEL_2
NOTE_ON_55
TIME_SHIFT_64ND_14
NOTE_OFF_70
VEL_2
NOTE_ON_74
TIME_SHIFT_64ND_15
NOTE_OFF_74
NOTE_OFF_64
NOTE_OFF_55
NOTE_OFF_48
VEL_2
NOTE_ON_65
VEL_2
NOTE_ON_60
VEL_2
NOTE_ON_53
VEL_2
NOTE_ON_45
TIME_SHIFT_64ND_15
NOTE_OFF_65
NOTE_OFF_53
NOTE_OFF_45
VEL_2
NOTE_ON_67
VEL_2
NOTE_ON_64
VEL_2
NOTE_ON_55
VEL_2
NOTE_ON_48
TIME_SHIFT_64ND_15
NOTE_OFF_67
NOTE_OFF_64
NOTE_OFF_55
NOTE_OFF_48
VEL_3
NOTE_ON_69
VEL_3
NOTE_ON_65
VEL_2
NOTE_ON_57
VEL_2
NOTE_ON_53
TIME_SHIFT_64ND_17
NOTE_OFF_69
NOTE_OFF_65
VEL_2
NOTE_ON_72
TIME_SHIFT_64ND_17
NOTE_OFF_72
NOTE_OFF_60
NOTE_OFF_57
NOTE_OFF_53
VEL_2
NOTE_ON_67
VEL_2
NOTE_ON_64
VEL_2
NOTE_ON_60
VEL_2
NOTE_ON_48
VEL_2
NOTE_ON_55
TIME_SHIFT_64ND_16
NOTE_OFF_48
VEL_3
NOTE_ON_50
TIME_SHIFT_64ND_13
NOTE_OFF_50
VEL_2
NOTE_ON_48
TIME_SHIFT_64ND_12
NOTE_OFF_48
VEL_2
NOTE_ON_46
TIME_SHIFT_64ND_12
NOTE_OFF_67
NOTE_OFF_64
NOTE_OFF_60
NOTE_OFF_46
NOTE_OFF_55
VEL_3
NOTE_ON_43
TIME_SHIFT_64ND_1
VEL_3
NOTE_ON_60
TIME_SHIFT_64ND_13
NOTE_OFF_43
VEL_3
NOTE_ON_45
TIME_SHIFT_64ND_16
NOTE_OFF_60
NOTE_OFF_45
VEL_3
NOTE_ON_65
VEL_2
NOTE_ON_41
TIME_SHIFT_64ND_34
VEL_1
NOTE_ON_60
VEL_1
NOTE_ON_53
VEL_1
NOTE_ON_57
VEL_1
NOTE_ON_48
TIME_SHIFT_64ND_47
NOTE_OFF_65
VEL_2
NOTE_ON_64
TIME_SHIFT_64ND_13
NOTE_OFF_64
VEL_3
NOTE_ON_65
TIME_SHIFT_64ND_13
NOTE_OFF_65
VEL_3
NOTE_ON_69
TIME_SHIFT_64ND_13
NOTE_OFF_69
NOTE_OFF_60
NOTE_OFF_53
VEL_3
NOTE_ON_72
TIME_SHIFT_64ND_17
NOTE_OFF_72
VEL_3
NOTE_ON_81
TIME_SHIFT_64ND_10
VEL_1
NOTE_ON_49
TIME_SHIFT_64ND_5
VEL_1
NOTE_ON_57
TIME_SHIFT_64ND_1
NOTE_OFF_49
TIME_SHIFT_64ND_3
NOTE_OFF_81
TIME_SHIFT_64ND_1
NOTE_OFF_57
NOTE_OFF_57
NOTE_OFF_41
NOTE_OFF_48
VEL_3
NOTE_ON_81
VEL_2
NOTE_ON_67
VEL_2
NOTE_ON_69
VEL_2
NOTE_ON_64
TIME_SHIFT_64ND_42
NOTE_OFF_81
VEL_2
NOTE_ON_79
TIME_SHIFT_64ND_13
NOTE_OFF_79
VEL_2
NOTE_ON_77
TIME_SHIFT_64ND_13
NOTE_OFF_77
VEL_2
NOTE_ON_76
TIME_SHIFT_64ND_13
NOTE_OFF_76
NOTE_OFF_67
NOTE_OFF_64
VEL_3
NOTE_ON_77
VEL_2
NOTE_ON_62
VEL_2
NOTE_ON_50
TIME_SHIFT_64ND_14
NOTE_OFF_77
VEL_2
NOTE_ON_81
TIME_SHIFT_64ND_14
NOTE_OFF_81
VEL_3
NOTE_ON_74
TIME_SHIFT_64ND_13
NOTE_OFF_74
NOTE_OFF_69
NOTE_OFF_62
NOTE_OFF_50
VEL_2
NOTE_ON_77
VEL_2
NOTE_ON_68
VEL_1
NOTE_ON_53
VEL_1
NOTE_ON_60
TIME_SHIFT_64ND_13
NOTE_OFF_77
NOTE_OFF_68
NOTE_OFF_53
VEL_3
NOTE_ON_67
VEL_3
NOTE_ON_76
VEL_2
NOTE_ON_55
TIME_SHIFT_64ND_13
NOTE_OFF_67
VEL_2
NOTE_ON_72
TIME_SHIFT_64ND_14
NOTE_OFF_72
VEL_2
NOTE_ON_64
TIME_SHIFT_64ND_14
NOTE_OFF_64
NOTE_OFF_76
NOTE_OFF_55
NOTE_OFF_60
VEL_2
NOTE_ON_75
VEL_2
NOTE_ON_66
VEL_2
NOTE_ON_60
VEL_2
NOTE_ON_57
TIME_SHIFT_64ND_15
NOTE_OFF_75
NOTE_OFF_66
NOTE_OFF_60
NOTE_OFF_57
VEL_2
NOTE_ON_74
VEL_2
NOTE_ON_65
VEL_2
NOTE_ON_59
VEL_2
NOTE_ON_55
TIME_SHIFT_64ND_15
NOTE_OFF_59
VEL_2
NOTE_ON_67
TIME_SHIFT_64ND_15
NOTE_OFF_74
NOTE_OFF_67
VEL_2
NOTE_ON_76
VEL_2
NOTE_ON_57
TIME_SHIFT_64ND_15
NOTE_OFF_57
VEL_2
NOTE_ON_59
TIME_SHIFT_64ND_7
NOTE_OFF_76
VEL_2
NOTE_ON_72
TIME_SHIFT_64ND_7
NOTE_OFF_72
NOTE_OFF_65
NOTE_OFF_59
NOTE_OFF_55
VEL_2
NOTE_ON_64
VEL_2
NOTE_ON_72
VEL_2
NOTE_ON_60
VEL_2
NOTE_ON_48
TIME_SHIFT_64ND_15
NOTE_OFF_60
NOTE_OFF_48
VEL_2
NOTE_ON_50
TIME_SHIFT_64ND_16
NOTE_OFF_64
NOTE_OFF_50
VEL_2
NOTE_ON_46
TIME_SHIFT_64ND_16
NOTE_OFF_46
VEL_2
NOTE_ON_43
TIME_SHIFT_64ND_1
VEL_3
NOTE_ON_60
TIME_SHIFT_64ND_19
NOTE_OFF_60
NOTE_OFF_72
NOTE_OFF_43
VEL_3
NOTE_ON_65
VEL_2
NOTE_ON_41
TIME_SHIFT_64ND_34
VEL_1
NOTE_ON_60
VEL_1
NOTE_ON_53
VEL_1
NOTE_ON_57
VEL_1
NOTE_ON_48
TIME_SHIFT_64ND_46
NOTE_OFF_65
VEL_2
NOTE_ON_64
TIME_SHIFT_64ND_13
NOTE_OFF_64
VEL_3
NOTE_ON_65
TIME_SHIFT_64ND_13
NOTE_OFF_65
VEL_3
NOTE_ON_69
TIME_SHIFT_64ND_13
NOTE_OFF_69
NOTE_OFF_60
NOTE_OFF_53
VEL_3
NOTE_ON_72
TIME_SHIFT_64ND_15
NOTE_OFF_72
VEL_3
NOTE_ON_77
TIME_SHIFT_64ND_10
VEL_1
NOTE_ON_46
TIME_SHIFT_64ND_5
VEL_2
NOTE_ON_53
TIME_SHIFT_64ND_1
NOTE_OFF_46
TIME_SHIFT_64ND_3
NOTE_OFF_77
TIME_SHIFT_64ND_1
NOTE_OFF_57
NOTE_OFF_41
NOTE_OFF_48
VEL_2
NOTE_ON_65
TIME_SHIFT_64ND_1
VEL_3
NOTE_ON_77
VEL_2
NOTE_ON_62
TIME_SHIFT_64ND_56
VEL_2
NOTE_ON_60
VEL_2
NOTE_ON_76
NOTE_OFF_77
NOTE_OFF_62
TIME_SHIFT_64ND_14
NOTE_OFF_60
VEL_1
NOTE_ON_58
NOTE_OFF_76
VEL_2
NOTE_ON_74
TIME_SHIFT_64ND_17
NOTE_OFF_74
NOTE_OFF_58
NOTE_OFF_53
VEL_2
NOTE_ON_72
VEL_2
NOTE_ON_57
VEL_2
NOTE_ON_48
TIME_SHIFT_64ND_17
NOTE_OFF_72
VEL_2
NOTE_ON_77
TIME_SHIFT_64ND_16
NOTE_OFF_77
NOTE_OFF_65
NOTE_OFF_57
NOTE_OFF_48
VEL_2
NOTE_ON_67
VEL_2
NOTE_ON_64
VEL_2
NOTE_ON_58
VEL_2
NOTE_ON_48
TIME_SHIFT_64ND_14
NOTE_OFF_67
NOTE_OFF_58
VEL_2
NOTE_ON_69
VEL_2
NOTE_ON_57
TIME_SHIFT_64ND_14
NOTE_OFF_69
NOTE_OFF_57
VEL_2
NOTE_ON_70
VEL_2
NOTE_ON_55
TIME_SHIFT_64ND_14
NOTE_OFF_70
VEL_2
NOTE_ON_74
TIME_SHIFT_64ND_15
NOTE_OFF_74
NOTE_OFF_64
NOTE_OFF_55
NOTE_OFF_48
VEL_2
NOTE_ON_65
VEL_2
NOTE_ON_60
VEL_2
NOTE_ON_53
VEL_2
NOTE_ON_45
TIME_SHIFT_64ND_15
NOTE_OFF_65
NOTE_OFF_53
NOTE_OFF_45
VEL_2
NOTE_ON_67
VEL_2
NOTE_ON_64
VEL_2
NOTE_ON_55
VEL_2
NOTE_ON_48
TIME_SHIFT_64ND_15
NOTE_OFF_67
NOTE_OFF_64
NOTE_OFF_55
NOTE_OFF_48
VEL_3
NOTE_ON_69
VEL_3
NOTE_ON_65
VEL_2
NOTE_ON_57
VEL_2
NOTE_ON_53
TIME_SHIFT_64ND_17
NOTE_OFF_69
NOTE_OFF_65
VEL_2
NOTE_ON_72
TIME_SHIFT_64ND_17
NOTE_OFF_72
NOTE_OFF_60
NOTE_OFF_57
NOTE_OFF_53
VEL_2
NOTE_ON_67
VEL_2
NOTE_ON_64
VEL_2
NOTE_ON_60
VEL_2
NOTE_ON_48
VEL_2
NOTE_ON_55
TIME_SHIFT_64ND_16
NOTE_OFF_48
VEL_3
NOTE_ON_50
TIME_SHIFT_64ND_13
NOTE_OFF_50
VEL_2
NOTE_ON_48
TIME_SHIFT_64ND_12
NOTE_OFF_48
VEL_2
NOTE_ON_46
TIME_SHIFT_64ND_12
NOTE_OFF_67
NOTE_OFF_64
NOTE_OFF_60
NOTE_OFF_46
NOTE_OFF_55
VEL_3
NOTE_ON_43
TIME_SHIFT_64ND_1
VEL_3
NOTE_ON_60
TIME_SHIFT_64ND_13
NOTE_OFF_43
VEL_3
NOTE_ON_45
TIME_SHIFT_64ND_16
NOTE_OFF_60
NOTE_OFF_45
VEL_3
NOTE_ON_65
VEL_2
NOTE_ON_41
TIME_SHIFT_64ND_34
VEL_1
NOTE_ON_60
VEL_1
NOTE_ON_53
VEL_1
NOTE_ON_57
VEL_1
NOTE_ON_48
TIME_SHIFT_64ND_47
NOTE_OFF_65
VEL_2
NOTE_ON_64
TIME_SHIFT_64ND_13
NOTE_OFF_64
VEL_3
NOTE_ON_65
TIME_SHIFT_64ND_13
NOTE_OFF_65
VEL_3
NOTE_ON_69
TIME_SHIFT_64ND_13
NOTE_OFF_69
NOTE_OFF_60
NOTE_OFF_53
VEL_3
NOTE_ON_72
TIME_SHIFT_64ND_17
NOTE_OFF_72
VEL_3
NOTE_ON_81
TIME_SHIFT_64ND_10
VEL_1
NOTE_ON_49
TIME_SHIFT_64ND_5
VEL_1
NOTE_ON_57
TIME_SHIFT_64ND_1
NOTE_OFF_49
TIME_SHIFT_64ND_3
NOTE_OFF_81
TIME_SHIFT_64ND_1
NOTE_OFF_57
NOTE_OFF_57
NOTE_OFF_41
NOTE_OFF_48
VEL_3
NOTE_ON_81
VEL_2
NOTE_ON_67
VEL_2
NOTE_ON_69
VEL_2
NOTE_ON_64
TIME_SHIFT_64ND_42
NOTE_OFF_81
VEL_2
NOTE_ON_79
TIME_SHIFT_64ND_13
NOTE_OFF_79
VEL_2
NOTE_ON_77
TIME_SHIFT_64ND_13
NOTE_OFF_77
VEL_2
NOTE_ON_76
TIME_SHIFT_64ND_13
NOTE_OFF_76
NOTE_OFF_67
NOTE_OFF_64
VEL_3
NOTE_ON_77
VEL_2
NOTE_ON_62
VEL_2
NOTE_ON_50
TIME_SHIFT_64ND_14
NOTE_OFF_77
VEL_2
NOTE_ON_81
TIME_SHIFT_64ND_14
NOTE_OFF_81
VEL_3
NOTE_ON_74
TIME_SHIFT_64ND_13
NOTE_OFF_74
NOTE_OFF_69
NOTE_OFF_62
NOTE_OFF_50
VEL_2
NOTE_ON_77
VEL_2
NOTE_ON_68
VEL_1
NOTE_ON_53
VEL_1
NOTE_ON_60
TIME_SHIFT_64ND_13
NOTE_OFF_77
NOTE_OFF_68
NOTE_OFF_53
VEL_3
NOTE_ON_67
VEL_3
NOTE_ON_76
VEL_2
NOTE_ON_55
TIME_SHIFT_64ND_13
NOTE_OFF_67
VEL_2
NOTE_ON_72
TIME_SHIFT_64ND_14
NOTE_OFF_72
VEL_2
NOTE_ON_64
TIME_SHIFT_64ND_14
NOTE_OFF_64
NOTE_OFF_76
NOTE_OFF_55
NOTE_OFF_60
VEL_2
NOTE_ON_75
VEL_2
NOTE_ON_66
VEL_2
NOTE_ON_60
VEL_2
NOTE_ON_57
TIME_SHIFT_64ND_15
NOTE_OFF_75
NOTE_OFF_66
NOTE_OFF_60
NOTE_OFF_57
VEL_2
NOTE_ON_74
VEL_2
NOTE_ON_65
VEL_2
NOTE_ON_59
VEL_2
NOTE_ON_55
TIME_SHIFT_64ND_15
NOTE_OFF_59
VEL_2
NOTE_ON_67
TIME_SHIFT_64ND_15
NOTE_OFF_74
NOTE_OFF_67
VEL_2
NOTE_ON_76
VEL_2
NOTE_ON_57
TIME_SHIFT_64ND_15
NOTE_OFF_57
VEL_2
NOTE_ON_59
TIME_SHIFT_64ND_7
NOTE_OFF_76
VEL_2
NOTE_ON_72
TIME_SHIFT_64ND_7
NOTE_OFF_72
NOTE_OFF_65
NOTE_OFF_59
NOTE_OFF_55
VEL_2
NOTE_ON_64
VEL_2
NOTE_ON_72
VEL_2
NOTE_ON_60
VEL_2
NOTE_ON_48
TIME_SHIFT_64ND_15
NOTE_OFF_60
NOTE_OFF_48
VEL_2
NOTE_ON_50
TIME_SHIFT_64ND_16
NOTE_OFF_64
NOTE_OFF_50
VEL_2
NOTE_ON_46
TIME_SHIFT_64ND_16
NOTE_OFF_46
VEL_2
NOTE_ON_43
TIME_SHIFT_64ND_1
VEL_3
NOTE_ON_60
TIME_SHIFT_64ND_19
NOTE_OFF_60
NOTE_OFF_72
NOTE_OFF_43
VEL_3
NOTE_ON_65
VEL_3
NOTE_ON_41
TIME_SHIFT_64ND_37
VEL_1
NOTE_ON_60
VEL_1
NOTE_ON_53
VEL_1
NOTE_ON_57
VEL_1
NOTE_ON_48
TIME_SHIFT_64ND_47
NOTE_OFF_65
VEL_3
NOTE_ON_64
TIME_SHIFT_64ND_13
NOTE_OFF_64
VEL_3
NOTE_ON_65
TIME_SHIFT_64ND_13
NOTE_OFF_65
VEL_3
NOTE_ON_69
TIME_SHIFT_64ND_13
NOTE_OFF_69
NOTE_OFF_60
NOTE_OFF_53
NOTE_OFF_57
NOTE_OFF_48
NOTE_OFF_41
VEL_3
NOTE_ON_72
TIME_SHIFT_64ND_15
NOTE_OFF_72
VEL_3
NOTE_ON_75
VEL_2
NOTE_ON_70
VEL_2
NOTE_ON_55
VEL_2
NOTE_ON_48
TIME_SHIFT_64ND_16
NOTE_OFF_75
NOTE_OFF_70
TIME_SHIFT_64ND_1
NOTE_OFF_55
NOTE_OFF_48
VEL_3
NOTE_ON_75
VEL_2
NOTE_ON_69
VEL_2
NOTE_ON_54
VEL_2
NOTE_ON_50
TIME_SHIFT_64ND_13
NOTE_OFF_54
VEL_2
NOTE_ON_57
TIME_SHIFT_64ND_13
NOTE_OFF_57
VEL_2
NOTE_ON_62
TIME_SHIFT_64ND_13
VEL_3
NOTE_ON_66
TIME_SHIFT_64ND_13
NOTE_OFF_66
NOTE_OFF_75
NOTE_OFF_69
VEL_3
NOTE_ON_74
VEL_2
NOTE_ON_69
TIME_SHIFT_64ND_13
NOTE_OFF_74
NOTE_OFF_50
VEL_3
NOTE_ON_72
VEL_2
NOTE_ON_54
TIME_SHIFT_64ND_13
NOTE_OFF_72
NOTE_OFF_69
NOTE_OFF_54
VEL_3
NOTE_ON_70
VEL_2
NOTE_ON_55
TIME_SHIFT_64ND_13
NOTE_OFF_70
VEL_3
NOTE_ON_74
TIME_SHIFT_64ND_13
NOTE_OFF_74
VEL_3
NOTE_ON_67
TIME_SHIFT_64ND_13
NOTE_OFF_67
NOTE_OFF_55
NOTE_OFF_62
VEL_3
NOTE_ON_69
VEL_3
NOTE_ON_63
VEL_2
NOTE_ON_48
VEL_2
NOTE_ON_54
TIME_SHIFT_64ND_13
NOTE_OFF_69
NOTE_OFF_63
NOTE_OFF_48
NOTE_OFF_54
VEL_3
NOTE_ON_62
VEL_3
NOTE_ON_70
VEL_2
NOTE_ON_55
VEL_2
NOTE_ON_50
TIME_SHIFT_64ND_13
NOTE_OFF_62
VEL_2
NOTE_ON_67
TIME_SHIFT_64ND_13
NOTE_OFF_67
VEL_2
NOTE_ON_58
TIME_SHIFT_64ND_13
NOTE_OFF_58
NOTE_OFF_70
NOTE_OFF_55
NOTE_OFF_50
VEL_2
NOTE_ON_69
VEL_2
NOTE_ON_60
VEL_2
NOTE_ON_51
TIME_SHIFT_64ND_14
NOTE_OFF_69
NOTE_OFF_60
NOTE_OFF_51
VEL_3
NOTE_ON_67
VEL_2
NOTE_ON_58
VEL_2
NOTE_ON_50
TIME_SHIFT_64ND_13
NOTE_OFF_58
VEL_2
NOTE_ON_62
TIME_SHIFT_64ND_13
NOTE_OFF_62
VEL_2
NOTE_ON_55
TIME_SHIFT_64ND_15
NOTE_OFF_67
NOTE_OFF_55
NOTE_OFF_50
VEL_2
NOTE_ON_62
VEL_2
NOTE_ON_60
VEL_2
NOTE_ON_57
VEL_2
NOTE_ON_50
TIME_SHIFT_64ND_16
NOTE_OFF_62
NOTE_OFF_60
VEL_2
NOTE_ON_62
VEL_2
NOTE_ON_58
TIME_SHIFT_64ND_14
NOTE_OFF_57
NOTE_OFF_50
VEL_2
NOTE_ON_55
TIME_SHIFT_64ND_16
NOTE_OFF_62
NOTE_OFF_58
NOTE_OFF_55
VEL_2
NOTE_ON_43
TIME_SHIFT_64ND_16
NOTE_OFF_43
VEL_2
NOTE_ON_45
TIME_SHIFT_64ND_1
VEL_2
NOTE_ON_65
TIME_SHIFT_64ND_19
NOTE_OFF_65
NOTE_OFF_45
VEL_3
NOTE_ON_70
VEL_2
NOTE_ON_34
TIME_SHIFT_64ND_35
NOTE_OFF_34
VEL_1
NOTE_ON_65
VEL_1
NOTE_ON_58
VEL_1
NOTE_ON_62
VEL_1
NOTE_ON_53
TIME_SHIFT_64ND_47
NOTE_OFF_70
VEL_2
NOTE_ON_69
TIME_SHIFT_64ND_13
NOTE_OFF_69
VEL_2
NOTE_ON_70
TIME_SHIFT_64ND_13
NOTE_OFF_70
VEL_2
NOTE_ON_74
TIME_SHIFT_64ND_13
NOTE_OFF_74
NOTE_OFF_65
NOTE_OFF_58
NOTE_OFF_62
NOTE_OFF_53
VEL_2
NOTE_ON_77
TIME_SHIFT_64ND_15
VEL_2
NOTE_ON_82
VEL_1
NOTE_ON_62
VEL_1
NOTE_ON_55
TIME_SHIFT_64ND_17
NOTE_OFF_82
TIME_SHIFT_64ND_1
NOTE_OFF_77
NOTE_OFF_62
NOTE_OFF_55
VEL_2
NOTE_ON_82
VEL_2
NOTE_ON_76
VEL_1
NOTE_ON_61
VEL_1
NOTE_ON_57
TIME_SHIFT_64ND_13
NOTE_OFF_61
VEL_1
NOTE_ON_64
TIME_SHIFT_64ND_13
NOTE_OFF_64
VEL_1
NOTE_ON_69
TIME_SHIFT_64ND_13
VEL_2
NOTE_ON_73
TIME_SHIFT_64ND_13
NOTE_OFF_73
NOTE_OFF_82
NOTE_OFF_76
VEL_2
NOTE_ON_76
VEL_2
NOTE_ON_81
TIME_SHIFT_64ND_13
NOTE_OFF_57
VEL_2
NOTE_ON_61
NOTE_OFF_81
VEL_2
NOTE_ON_79
TIME_SHIFT_64ND_13
NOTE_OFF_79
NOTE_OFF_76
NOTE_OFF_61
VEL_2
NOTE_ON_77
VEL_2
NOTE_ON_62
TIME_SHIFT_64ND_13
NOTE_OFF_77
VEL_2
NOTE_ON_81
TIME_SHIFT_64ND_13
NOTE_OFF_81
VEL_2
NOTE_ON_74
TIME_SHIFT_64ND_14
NOTE_OFF_74
NOTE_OFF_62
NOTE_OFF_69
VEL_2
NOTE_ON_76
VEL_2
NOTE_ON_70
VEL_1
NOTE_ON_55
VEL_1
NOTE_ON_61
TIME_SHIFT_64ND_14
NOTE_OFF_76
NOTE_OFF_70
NOTE_OFF_55
NOTE_OFF_61
VEL_2
NOTE_ON_69
VEL_2
NOTE_ON_77
VEL_2
NOTE_ON_62
VEL_2
NOTE_ON_57
TIME_SHIFT_64ND_14
NOTE_OFF_69
VEL_2
NOTE_ON_74
TIME_SHIFT_64ND_13
NOTE_OFF_74
VEL_2
NOTE_ON_65
TIME_SHIFT_64ND_13
NOTE_OFF_65
NOTE_OFF_77
NOTE_OFF_62
NOTE_OFF_57
VEL_2
NOTE_ON_76
VEL_2
NOTE_ON_67
VEL_1
NOTE_ON_58
TIME_SHIFT_64ND_14
NOTE_OFF_76
NOTE_OFF_67
NOTE_OFF_58
VEL_2
NOTE_ON_65
VEL_2
NOTE_ON_74
VEL_2
NOTE_ON_57
TIME_SHIFT_64ND_13
NOTE_OFF_65
VEL_2
NOTE_ON_69
TIME_SHIFT_64ND_13
NOTE_OFF_69
VEL_2
NOTE_ON_62
TIME_SHIFT_64ND_15
NOTE_OFF_74
NOTE_OFF_62
VEL_2
NOTE_ON_67
VEL_2
NOTE_ON_69
VEL_1
NOTE_ON_64
VEL_1
NOTE_ON_61
TIME_SHIFT_64ND_17
NOTE_OFF_67
NOTE_OFF_64
NOTE_OFF_61
NOTE_OFF_57
VEL_2
NOTE_ON_65
VEL_1
NOTE_ON_57
VEL_2
NOTE_ON_62
TIME_SHIFT_64ND_15
NOTE_OFF_69
NOTE_OFF_57
VEL_1
NOTE_ON_58
TIME_SHIFT_64ND_16
NOTE_OFF_65
NOTE_OFF_62
VEL_1
NOTE_ON_67
VEL_1
NOTE_ON_64
VEL_1
NOTE_ON_60
TIME_SHIFT_64ND_18
NOTE_OFF_60
NOTE_OFF_58
VEL_2
NOTE_ON_48
TIME_SHIFT_64ND_17
NOTE_OFF_67
NOTE_OFF_64
VEL_2
NOTE_ON_60
TIME_SHIFT_64ND_12
NOTE_OFF_60
NOTE_OFF_48
VEL_2
NOTE_ON_65
VEL_2
NOTE_ON_41
TIME_SHIFT_64ND_34
VEL_1
NOTE_ON_60
VEL_1
NOTE_ON_53
VEL_1
NOTE_ON_57
VEL_1
NOTE_ON_48
TIME_SHIFT_64ND_46
NOTE_OFF_65
VEL_2
NOTE_ON_64
TIME_SHIFT_64ND_13
NOTE_OFF_64
VEL_2
NOTE_ON_65
TIME_SHIFT_64ND_13
NOTE_OFF_65
VEL_2
NOTE_ON_69
TIME_SHIFT_64ND_13
NOTE_OFF_69
NOTE_OFF_60
NOTE_OFF_53
VEL_2
NOTE_ON_72
TIME_SHIFT_64ND_15
NOTE_OFF_72
VEL_2
NOTE_ON_77
TIME_SHIFT_64ND_10
VEL_1
NOTE_ON_46
TIME_SHIFT_64ND_5
VEL_1
NOTE_ON_53
TIME_SHIFT_64ND_1
NOTE_OFF_46
TIME_SHIFT_64ND_3
NOTE_OFF_77
TIME_SHIFT_64ND_1
NOTE_OFF_57
NOTE_OFF_41
NOTE_OFF_48
VEL_2
NOTE_ON_65
TIME_SHIFT_64ND_1
VEL_2
NOTE_ON_77
VEL_2
NOTE_ON_62
TIME_SHIFT_64ND_56
VEL_1
NOTE_ON_60
VEL_1
NOTE_ON_76
NOTE_OFF_77
NOTE_OFF_62
TIME_SHIFT_64ND_13
NOTE_OFF_60
VEL_1
NOTE_ON_58
VEL_1
NOTE_ON_74
NOTE_OFF_76
TIME_SHIFT_64ND_18
NOTE_OFF_74
NOTE_OFF_58
NOTE_OFF_53
VEL_2
NOTE_ON_72
VEL_1
NOTE_ON_57
VEL_1
NOTE_ON_48
TIME_SHIFT_64ND_17
NOTE_OFF_72
VEL_2
NOTE_ON_77
TIME_SHIFT_64ND_16
NOTE_OFF_77
NOTE_OFF_65
NOTE_OFF_57
NOTE_OFF_48
VEL_2
NOTE_ON_67
VEL_2
NOTE_ON_64
VEL_2
NOTE_ON_58
VEL_2
NOTE_ON_48
TIME_SHIFT_64ND_14
NOTE_OFF_67
NOTE_OFF_58
VEL_2
NOTE_ON_69
VEL_2
NOTE_ON_57
TIME_SHIFT_64ND_14
NOTE_OFF_69
NOTE_OFF_57
VEL_2
NOTE_ON_70
VEL_2
NOTE_ON_55
TIME_SHIFT_64ND_14
NOTE_OFF_70
VEL_2
NOTE_ON_74
TIME_SHIFT_64ND_15
NOTE_OFF_74
NOTE_OFF_64
NOTE_OFF_55
NOTE_OFF_48
VEL_2
NOTE_ON_65
VEL_2
NOTE_ON_60
VEL_2
NOTE_ON_53
VEL_2
NOTE_ON_45
TIME_SHIFT_64ND_15
NOTE_OFF_65
NOTE_OFF_53
NOTE_OFF_45
VEL_2
NOTE_ON_67
VEL_2
NOTE_ON_64
VEL_2
NOTE_ON_55
VEL_2
NOTE_ON_48
TIME_SHIFT_64ND_15
NOTE_OFF_67
NOTE_OFF_64
NOTE_OFF_55
NOTE_OFF_48
VEL_2
NOTE_ON_69
VEL_2
NOTE_ON_65
VEL_2
NOTE_ON_57
VEL_2
NOTE_ON_53
TIME_SHIFT_64ND_17
NOTE_OFF_69
NOTE_OFF_65
VEL_2
NOTE_ON_72
TIME_SHIFT_64ND_17
NOTE_OFF_72
NOTE_OFF_60
NOTE_OFF_57
NOTE_OFF_53
VEL_2
NOTE_ON_67
VEL_2
NOTE_ON_64
VEL_2
NOTE_ON_60
VEL_2
NOTE_ON_48
VEL_2
NOTE_ON_55
TIME_SHIFT_64ND_16
NOTE_OFF_48
VEL_2
NOTE_ON_50
TIME_SHIFT_64ND_13
NOTE_OFF_50
VEL_2
NOTE_ON_48
TIME_SHIFT_64ND_12
NOTE_OFF_48
VEL_2
NOTE_ON_46
TIME_SHIFT_64ND_12
NOTE_OFF_67
NOTE_OFF_64
NOTE_OFF_60
NOTE_OFF_46
NOTE_OFF_55
VEL_2
NOTE_ON_43
TIME_SHIFT_64ND_1
VEL_2
NOTE_ON_60
TIME_SHIFT_64ND_13
NOTE_OFF_43
VEL_2
NOTE_ON_45
TIME_SHIFT_64ND_16
NOTE_OFF_60
NOTE_OFF_45
VEL_3
NOTE_ON_65
VEL_2
NOTE_ON_41
TIME_SHIFT_64ND_36
VEL_1
NOTE_ON_60
VEL_1
NOTE_ON_53
VEL_1
NOTE_ON_57
VEL_1
NOTE_ON_48
TIME_SHIFT_64ND_47
NOTE_OFF_65
VEL_2
NOTE_ON_64
TIME_SHIFT_64ND_14
NOTE_OFF_64
VEL_2
NOTE_ON_65
TIME_SHIFT_64ND_14
NOTE_OFF_65
VEL_2
NOTE_ON_69
TIME_SHIFT_64ND_14
NOTE_OFF_69
NOTE_OFF_60
NOTE_OFF_53
VEL_2
NOTE_ON_72
TIME_SHIFT_64ND_18
NOTE_OFF_72
VEL_2
NOTE_ON_81
TIME_SHIFT_64ND_23
NOTE_OFF_81
TIME_SHIFT_64ND_1
NOTE_OFF_57
NOTE_OFF_48
NOTE_OFF_41
VEL_2
NOTE_ON_81
VEL_1
NOTE_ON_74
VEL_1
NOTE_ON_67
VEL_1
NOTE_ON_65
VEL_1
NOTE_ON_59
VEL_1
NOTE_ON_47
VEL_1
NOTE_ON_43
TIME_SHIFT_64ND_61
NOTE_OFF_81
VEL_2
NOTE_ON_79
TIME_SHIFT_64ND_14
NOTE_OFF_79
VEL_2
NOTE_ON_77
TIME_SHIFT_64ND_14
NOTE_OFF_77
VEL_2
NOTE_ON_74
TIME_SHIFT_64ND_15
NOTE_OFF_74
NOTE_OFF_74
NOTE_OFF_67
NOTE_OFF_65
NOTE_OFF_59
NOTE_OFF_47
NOTE_OFF_43
VEL_2
NOTE_ON_72
VEL_1
NOTE_ON_60
VEL_1
NOTE_ON_48
VEL_1
NOTE_ON_57
TIME_SHIFT_64ND_14
NOTE_OFF_72
VEL_2
NOTE_ON_77
TIME_SHIFT_64ND_14
NOTE_OFF_77
NOTE_OFF_60
NOTE_OFF_48
NOTE_OFF_57
VEL_2
NOTE_ON_67
VEL_1
NOTE_ON_64
VEL_1
NOTE_ON_58
VEL_1
NOTE_ON_48
VEL_1
NOTE_ON_60
TIME_SHIFT_64ND_15
NOTE_OFF_67
NOTE_OFF_58
VEL_2
NOTE_ON_69
VEL_1
NOTE_ON_57
TIME_SHIFT_64ND_15
NOTE_OFF_69
NOTE_OFF_57
VEL_2
NOTE_ON_70
VEL_1
NOTE_ON_55
TIME_SHIFT_64ND_15
NOTE_OFF_70
VEL_2
NOTE_ON_74
TIME_SHIFT_64ND_15
NOTE_OFF_74
NOTE_OFF_64
NOTE_OFF_55
NOTE_OFF_48
NOTE_OFF_60
VEL_2
NOTE_ON_67
VEL_2
NOTE_ON_62
VEL_1
NOTE_ON_55
VEL_1
NOTE_ON_46
TIME_SHIFT_64ND_16
NOTE_OFF_67
NOTE_OFF_55
NOTE_OFF_46
VEL_2
NOTE_ON_66
VEL_2
NOTE_ON_69
VEL_1
NOTE_ON_57
VEL_1
NOTE_ON_50
TIME_SHIFT_64ND_17
NOTE_OFF_66
NOTE_OFF_69
NOTE_OFF_57
NOTE_OFF_50
VEL_2
NOTE_ON_70
VEL_2
NOTE_ON_55
VEL_2
NOTE_ON_58
TIME_SHIFT_64ND_17
NOTE_OFF_70
VEL_2
NOTE_ON_74
TIME_SHIFT_64ND_21
NOTE_OFF_74
NOTE_OFF_62
NOTE_OFF_55
NOTE_OFF_58
VEL_1
NOTE_ON_62
VEL_1
NOTE_ON_58
VEL_1
NOTE_ON_55
VEL_1
NOTE_ON_48
TIME_SHIFT_64ND_30
NOTE_OFF_62
VEL_1
NOTE_ON_64
VEL_1
NOTE_ON_60
VEL_1
NOTE_ON_36
TIME_SHIFT_64ND_41
NOTE_OFF_64
NOTE_OFF_58
NOTE_OFF_36
NOTE_OFF_55
VEL_1
NOTE_ON_65
VEL_1
NOTE_ON_57
VEL_1
NOTE_ON_41
TIME_SHIFT_64ND_163
NOTE_OFF_65
NOTE_OFF_57
NOTE_OFF_60
NOTE_OFF_41
NOTE_OFF_48
