TIME_SHIFT_64ND_27
VEL_5
NOTE_ON_76
VEL_6
NOTE_ON_81
VEL_5
NOTE_ON_73
VEL_4
NOTE_ON_45
VEL_4
NOTE_ON_57
TIME_SHIFT_64ND_4
NOTE_OFF_45
NOTE_OFF_57
TIME_SHIFT_64ND_4
VEL_4
NOTE_ON_49
VEL_4
NOTE_ON_61
TIME_SHIFT_64ND_4
NOTE_OFF_49
NOTE_OFF_61
TIME_SHIFT_64ND_4
NOTE_OFF_76
NOTE_OFF_81
NOTE_OFF_73
VEL_5
NOTE_ON_76
VEL_6
NOTE_ON_80
VEL_5
NOTE_ON_71
VEL_4
NOTE_ON_52
VEL_5
NOTE_ON_64
TIME_SHIFT_64ND_12
NOTE_OFF_76
NOTE_OFF_80
NOTE_OFF_71
NOTE_OFF_52
NOTE_OFF_64
VEL_5
NOTE_ON_78
VEL_5
NOTE_ON_75
VEL_5
NOTE_ON_69
VEL_3
NOTE_ON_48
VEL_4
NOTE_ON_60
TIME_SHIFT_64ND_4
NOTE_OFF_78
NOTE_OFF_75
NOTE_OFF_69
NOTE_OFF_48
NOTE_OFF_60
VEL_5
NOTE_ON_68
VEL_5
NOTE_ON_73
VEL_5
NOTE_ON_76
VEL_4
NOTE_ON_61
VEL_4
NOTE_ON_49
TIME_SHIFT_64ND_15
NOTE_OFF_68
NOTE_OFF_73
NOTE_OFF_76
NOTE_OFF_61
NOTE_OFF_49
TIME_SHIFT_64ND_1
VEL_5
NOTE_ON_78
VEL_4
NOTE_ON_73
VEL_4
NOTE_ON_69
VEL_4
NOTE_ON_57
VEL_3
NOTE_ON_45
TIME_SHIFT_64ND_15
NOTE_OFF_78
NOTE_OFF_73
NOTE_OFF_69
NOTE_OFF_57
NOTE_OFF_45
TIME_SHIFT_64ND_1
VEL_5
NOTE_ON_71
VEL_5
NOTE_ON_66
VEL_5
NOTE_ON_75
VEL_3
NOTE_ON_47
VEL_4
NOTE_ON_59
TIME_SHIFT_64ND_15
NOTE_OFF_71
NOTE_OFF_66
NOTE_OFF_75
NOTE_OFF_47
NOTE_OFF_59
TIME_SHIFT_64ND_1
VEL_5
NOTE_ON_76
VEL_5
NOTE_ON_71
VEL_5
NOTE_ON_68
VEL_3
NOTE_ON_40
VEL_4
NOTE_ON_52
TIME_SHIFT_64ND_11
NOTE_OFF_76
NOTE_OFF_71
NOTE_OFF_68
NOTE_OFF_40
NOTE_OFF_52
TIME_SHIFT_64ND_4
VEL_5
NOTE_ON_66
VEL_5
NOTE_ON_71
VEL_5
NOTE_ON_74
VEL_3
NOTE_ON_42
VEL_4
NOTE_ON_54
TIME_SHIFT_64ND_4
NOTE_OFF_66
NOTE_OFF_42
NOTE_OFF_54
TIME_SHIFT_64ND_4
VEL_5
NOTE_ON_64
VEL_3
NOTE_ON_44
VEL_4
NOTE_ON_56
TIME_SHIFT_64ND_4
NOTE_OFF_64
NOTE_OFF_44
NOTE_OFF_56
TIME_SHIFT_64ND_4
NOTE_OFF_71
NOTE_OFF_74
VEL_5
NOTE_ON_69
VEL_5
NOTE_ON_73
VEL_5
NOTE_ON_64
VEL_4
NOTE_ON_45
VEL_4
NOTE_ON_57
TIME_SHIFT_64ND_11
NOTE_OFF_69
NOTE_OFF_73
NOTE_OFF_64
NOTE_OFF_45
NOTE_OFF_57
VEL_5
NOTE_ON_71
VEL_4
NOTE_ON_68
VEL_4
NOTE_ON_62
VEL_3
NOTE_ON_41
VEL_4
NOTE_ON_53
TIME_SHIFT_64ND_4
NOTE_OFF_71
NOTE_OFF_68
NOTE_OFF_62
NOTE_OFF_41
NOTE_OFF_53
VEL_4
NOTE_ON_61
VEL_4
NOTE_ON_66
VEL_5
NOTE_ON_69
VEL_4
NOTE_ON_54
VEL_3
NOTE_ON_42
TIME_SHIFT_64ND_15
NOTE_OFF_61
NOTE_OFF_66
NOTE_OFF_69
NOTE_OFF_54
NOTE_OFF_42
TIME_SHIFT_64ND_1
VEL_5
NOTE_ON_71
VEL_5
NOTE_ON_66
VEL_5
NOTE_ON_62
VEL_4
NOTE_ON_50
VEL_3
NOTE_ON_38
TIME_SHIFT_64ND_15
NOTE_OFF_71
NOTE_OFF_66
NOTE_OFF_62
NOTE_OFF_50
NOTE_OFF_38
TIME_SHIFT_64ND_1
VEL_4
NOTE_ON_64
VEL_4
NOTE_ON_59
VEL_5
NOTE_ON_68
VEL_3
NOTE_ON_40
VEL_4
NOTE_ON_52
TIME_SHIFT_64ND_15
NOTE_OFF_64
NOTE_OFF_59
NOTE_OFF_68
NOTE_OFF_40
NOTE_OFF_52
TIME_SHIFT_64ND_1
VEL_5
NOTE_ON_69
VEL_4
NOTE_ON_64
VEL_4
NOTE_ON_61
VEL_3
NOTE_ON_33
VEL_4
NOTE_ON_45
TIME_SHIFT_64ND_12
NOTE_OFF_69
NOTE_OFF_64
NOTE_OFF_61
NOTE_OFF_33
NOTE_OFF_45
TIME_SHIFT_64ND_4
VEL_5
NOTE_ON_69
VEL_4
NOTE_ON_61
VEL_4
NOTE_ON_64
VEL_3
NOTE_ON_33
VEL_4
NOTE_ON_45
TIME_SHIFT_64ND_4
NOTE_OFF_33
NOTE_OFF_45
TIME_SHIFT_64ND_4
VEL_4
NOTE_ON_49
VEL_3
NOTE_ON_37
TIME_SHIFT_64ND_4
NOTE_OFF_49
NOTE_OFF_37
TIME_SHIFT_64ND_4
NOTE_OFF_69
NOTE_OFF_61
NOTE_OFF_64
VEL_5
NOTE_ON_68
VEL_5
NOTE_ON_64
VEL_4
NOTE_ON_59
VEL_4
NOTE_ON_52
VEL_3
NOTE_ON_40
TIME_SHIFT_64ND_11
NOTE_OFF_68
NOTE_OFF_64
NOTE_OFF_59
NOTE_OFF_52
NOTE_OFF_40
VEL_4
NOTE_ON_66
VEL_4
NOTE_ON_57
VEL_4
NOTE_ON_63
VEL_3
NOTE_ON_48
VEL_3
NOTE_ON_36
TIME_SHIFT_64ND_4
NOTE_OFF_66
NOTE_OFF_57
NOTE_OFF_63
NOTE_OFF_48
NOTE_OFF_36
VEL_4
NOTE_ON_61
VEL_4
NOTE_ON_64
VEL_4
NOTE_ON_56
VEL_3
NOTE_ON_49
VEL_3
NOTE_ON_37
TIME_SHIFT_64ND_15
NOTE_OFF_61
NOTE_OFF_64
NOTE_OFF_56
NOTE_OFF_49
NOTE_OFF_37
TIME_SHIFT_64ND_1
VEL_4
NOTE_ON_66
VEL_4
NOTE_ON_57
VEL_4
NOTE_ON_61
VEL_3
NOTE_ON_45
VEL_3
NOTE_ON_33
TIME_SHIFT_64ND_15
NOTE_OFF_66
NOTE_OFF_57
NOTE_OFF_61
NOTE_OFF_45
NOTE_OFF_33
TIME_SHIFT_64ND_1
VEL_4
NOTE_ON_59
VEL_4
NOTE_ON_63
VEL_4
NOTE_ON_54
VEL_3
NOTE_ON_47
VEL_3
NOTE_ON_35
TIME_SHIFT_64ND_15
NOTE_OFF_59
NOTE_OFF_63
NOTE_OFF_54
NOTE_OFF_47
NOTE_OFF_35
TIME_SHIFT_64ND_1
VEL_4
NOTE_ON_64
VEL_4
NOTE_ON_59
VEL_4
NOTE_ON_56
VEL_3
NOTE_ON_40
VEL_3
NOTE_ON_28
TIME_SHIFT_64ND_11
NOTE_OFF_64
NOTE_OFF_59
NOTE_OFF_56
NOTE_OFF_40
NOTE_OFF_28
TIME_SHIFT_64ND_4
VEL_4
NOTE_ON_54
VEL_4
NOTE_ON_59
VEL_4
NOTE_ON_62
VEL_3
NOTE_ON_30
VEL_3
NOTE_ON_42
TIME_SHIFT_64ND_4
NOTE_OFF_54
NOTE_OFF_30
NOTE_OFF_42
TIME_SHIFT_64ND_4
VEL_4
NOTE_ON_52
VEL_3
NOTE_ON_44
VEL_3
NOTE_ON_32
TIME_SHIFT_64ND_4
NOTE_OFF_52
NOTE_OFF_44
NOTE_OFF_32
TIME_SHIFT_64ND_4
NOTE_OFF_59
NOTE_OFF_62
VEL_4
NOTE_ON_61
VEL_4
NOTE_ON_57
VEL_4
NOTE_ON_52
VEL_3
NOTE_ON_45
VEL_3
NOTE_ON_33
TIME_SHIFT_64ND_11
NOTE_OFF_61
NOTE_OFF_57
NOTE_OFF_52
NOTE_OFF_45
NOTE_OFF_33
VEL_4
NOTE_ON_59
VEL_3
NOTE_ON_50
VEL_3
NOTE_ON_56
VEL_3
NOTE_ON_41
VEL_2
NOTE_ON_29
TIME_SHIFT_64ND_4
NOTE_OFF_59
NOTE_OFF_50
NOTE_OFF_56
NOTE_OFF_41
NOTE_OFF_29
VEL_3
NOTE_ON_54
VEL_4
NOTE_ON_57
VEL_3
NOTE_ON_49
VEL_3
NOTE_ON_42
VEL_2
NOTE_ON_30
TIME_SHIFT_64ND_15
NOTE_OFF_54
NOTE_OFF_57
NOTE_OFF_49
NOTE_OFF_42
NOTE_OFF_30
TIME_SHIFT_64ND_1
VEL_4
NOTE_ON_59
VEL_3
NOTE_ON_50
VEL_3
NOTE_ON_54
VEL_3
NOTE_ON_38
VEL_2
NOTE_ON_26
TIME_SHIFT_64ND_15
NOTE_OFF_59
NOTE_OFF_50
NOTE_OFF_54
NOTE_OFF_38
NOTE_OFF_26
TIME_SHIFT_64ND_1
VEL_3
NOTE_ON_52
VEL_4
NOTE_ON_56
VEL_3
NOTE_ON_47
VEL_2
NOTE_ON_40
VEL_2
NOTE_ON_28
TIME_SHIFT_64ND_15
NOTE_OFF_52
NOTE_OFF_56
NOTE_OFF_47
NOTE_OFF_40
NOTE_OFF_28
TIME_SHIFT_64ND_1
VEL_3
NOTE_ON_57
VEL_3
NOTE_ON_52
VEL_3
NOTE_ON_49
VEL_2
NOTE_ON_40
VEL_2
NOTE_ON_33
TIME_SHIFT_64ND_12
NOTE_OFF_57
NOTE_OFF_52
NOTE_OFF_49
NOTE_OFF_40
NOTE_OFF_33
TIME_SHIFT_64ND_4
VEL_4
NOTE_ON_69
VEL_4
NOTE_ON_57
VEL_4
NOTE_ON_61
VEL_4
NOTE_ON_64
VEL_4
NOTE_ON_45
VEL_4
NOTE_ON_33
TIME_SHIFT_64ND_4
NOTE_OFF_45
NOTE_OFF_33
TIME_SHIFT_64ND_4
VEL_4
NOTE_ON_49
TIME_SHIFT_64ND_4
NOTE_OFF_49
TIME_SHIFT_64ND_4
NOTE_OFF_69
NOTE_OFF_57
NOTE_OFF_61
NOTE_OFF_64
VEL_5
NOTE_ON_69
VEL_4
NOTE_ON_57
VEL_4
NOTE_ON_62
VEL_4
NOTE_ON_66
VEL_5
NOTE_ON_50
VEL_5
NOTE_ON_38
TIME_SHIFT_64ND_4
NOTE_OFF_50
NOTE_OFF_38
TIME_SHIFT_64ND_4
VEL_5
NOTE_ON_45
VEL_4
NOTE_ON_33
TIME_SHIFT_64ND_4
NOTE_OFF_45
NOTE_OFF_33
TIME_SHIFT_64ND_4
VEL_5
NOTE_ON_43
VEL_4
NOTE_ON_31
TIME_SHIFT_64ND_4
NOTE_OFF_43
NOTE_OFF_31
TIME_SHIFT_64ND_4
VEL_5
NOTE_ON_42
VEL_4
NOTE_ON_30
TIME_SHIFT_64ND_4
NOTE_OFF_42
NOTE_OFF_30
TIME_SHIFT_64ND_4
NOTE_OFF_69
NOTE_OFF_57
NOTE_OFF_62
NOTE_OFF_66
VEL_4
NOTE_ON_69
VEL_4
NOTE_ON_57
VEL_4
NOTE_ON_62
VEL_4
NOTE_ON_66
VEL_5
NOTE_ON_42
VEL_4
NOTE_ON_30
TIME_SHIFT_64ND_15
NOTE_OFF_69
NOTE_OFF_57
NOTE_OFF_62
NOTE_OFF_66
NOTE_OFF_42
NOTE_OFF_30
VEL_4
NOTE_ON_67
VEL_4
NOTE_ON_71
VEL_4
NOTE_ON_62
VEL_4
NOTE_ON_64
VEL_5
NOTE_ON_50
VEL_5
NOTE_ON_38
TIME_SHIFT_64ND_4
NOTE_OFF_50
NOTE_OFF_38
TIME_SHIFT_64ND_4
VEL_4
NOTE_ON_47
VEL_4
NOTE_ON_35
TIME_SHIFT_64ND_4
NOTE_OFF_47
NOTE_OFF_35
TIME_SHIFT_64ND_4
VEL_4
NOTE_ON_45
VEL_4
NOTE_ON_33
TIME_SHIFT_64ND_4
NOTE_OFF_45
NOTE_OFF_33
TIME_SHIFT_64ND_4
VEL_4
NOTE_ON_43
VEL_4
NOTE_ON_31
TIME_SHIFT_64ND_4
NOTE_OFF_43
NOTE_OFF_31
TIME_SHIFT_64ND_4
NOTE_OFF_67
NOTE_OFF_71
NOTE_OFF_62
NOTE_OFF_64
VEL_4
NOTE_ON_71
VEL_4
NOTE_ON_62
VEL_4
NOTE_ON_64
VEL_4
NOTE_ON_67
VEL_5
NOTE_ON_43
VEL_4
NOTE_ON_31
TIME_SHIFT_64ND_15
NOTE_OFF_71
NOTE_OFF_62
NOTE_OFF_64
NOTE_OFF_67
NOTE_OFF_43
NOTE_OFF_31
VEL_3
NOTE_ON_64
VEL_3
NOTE_ON_55
VEL_3
NOTE_ON_57
VEL_3
NOTE_ON_61
VEL_5
NOTE_ON_45
VEL_4
NOTE_ON_33
TIME_SHIFT_64ND_4
NOTE_OFF_45
NOTE_OFF_33
TIME_SHIFT_64ND_4
NOTE_OFF_64
NOTE_OFF_55
NOTE_OFF_57
NOTE_OFF_61
VEL_4
NOTE_ON_40
VEL_4
NOTE_ON_28
TIME_SHIFT_64ND_4
NOTE_OFF_40
NOTE_OFF_28
TIME_SHIFT_64ND_4
VEL_3
NOTE_ON_64
VEL_3
NOTE_ON_55
VEL_3
NOTE_ON_57
VEL_3
NOTE_ON_61
VEL_4
NOTE_ON_38
VEL_4
NOTE_ON_26
TIME_SHIFT_64ND_4
NOTE_OFF_38
NOTE_OFF_26
TIME_SHIFT_64ND_4
NOTE_OFF_64
NOTE_OFF_55
NOTE_OFF_57
NOTE_OFF_61
VEL_4
NOTE_ON_37
VEL_4
NOTE_ON_25
TIME_SHIFT_64ND_4
NOTE_OFF_37
NOTE_OFF_25
TIME_SHIFT_64ND_4
VEL_3
NOTE_ON_64
VEL_3
NOTE_ON_55
VEL_3
NOTE_ON_57
VEL_3
NOTE_ON_61
VEL_5
NOTE_ON_37
VEL_4
NOTE_ON_25
TIME_SHIFT_64ND_7
NOTE_OFF_64
NOTE_OFF_55
NOTE_OFF_57
NOTE_OFF_61
TIME_SHIFT_64ND_7
NOTE_OFF_37
NOTE_OFF_25
VEL_4
NOTE_ON_69
VEL_4
NOTE_ON_62
VEL_4
NOTE_ON_60
VEL_5
NOTE_ON_50
VEL_5
NOTE_ON_38
TIME_SHIFT_64ND_4
NOTE_OFF_50
NOTE_OFF_38
TIME_SHIFT_64ND_4
VEL_4
NOTE_ON_45
VEL_4
NOTE_ON_33
TIME_SHIFT_64ND_4
NOTE_OFF_45
NOTE_OFF_33
TIME_SHIFT_64ND_4
VEL_4
NOTE_ON_43
VEL_4
NOTE_ON_31
TIME_SHIFT_64ND_4
NOTE_OFF_43
NOTE_OFF_31
TIME_SHIFT_64ND_4
VEL_4
NOTE_ON_42
VEL_4
NOTE_ON_30
TIME_SHIFT_64ND_4
NOTE_OFF_42
NOTE_OFF_30
TIME_SHIFT_64ND_4
VEL_5
NOTE_ON_42
VEL_4
NOTE_ON_30
TIME_SHIFT_64ND_15
NOTE_OFF_69
NOTE_OFF_62
NOTE_OFF_60
NOTE_OFF_42
NOTE_OFF_30
VEL_3
NOTE_ON_62
VEL_3
NOTE_ON_60
VEL_3
NOTE_ON_55
VEL_4
NOTE_ON_43
VEL_4
NOTE_ON_31
TIME_SHIFT_64ND_4
NOTE_OFF_43
NOTE_OFF_31
TIME_SHIFT_64ND_4
NOTE_OFF_62
NOTE_OFF_60
NOTE_OFF_55
VEL_4
NOTE_ON_45
VEL_4
NOTE_ON_33
TIME_SHIFT_64ND_4
NOTE_OFF_45
NOTE_OFF_33
TIME_SHIFT_64ND_4
VEL_3
NOTE_ON_62
VEL_3
NOTE_ON_60
VEL_3
NOTE_ON_55
VEL_4
NOTE_ON_47
VEL_4
NOTE_ON_35
TIME_SHIFT_64ND_4
NOTE_OFF_47
NOTE_OFF_35
TIME_SHIFT_64ND_4
NOTE_OFF_62
NOTE_OFF_60
NOTE_OFF_55
VEL_4
NOTE_ON_48
VEL_4
NOTE_ON_36
TIME_SHIFT_64ND_4
NOTE_OFF_48
NOTE_OFF_36
TIME_SHIFT_64ND_4
VEL_4
NOTE_ON_62
VEL_3
NOTE_ON_60
VEL_3
NOTE_ON_55
VEL_5
NOTE_ON_50
VEL_4
NOTE_ON_38
TIME_SHIFT_64ND_4
NOTE_OFF_50
NOTE_OFF_38
TIME_SHIFT_64ND_4
NOTE_OFF_62
NOTE_OFF_60
NOTE_OFF_55
VEL_5
NOTE_ON_52
VEL_4
NOTE_ON_40
TIME_SHIFT_64ND_4
NOTE_OFF_52
NOTE_OFF_40
TIME_SHIFT_64ND_4
VEL_4
NOTE_ON_62
VEL_3
NOTE_ON_59
VEL_3
NOTE_ON_55
VEL_5
NOTE_ON_50
VEL_4
NOTE_ON_38
TIME_SHIFT_64ND_15
NOTE_OFF_62
NOTE_OFF_59
NOTE_OFF_55
NOTE_OFF_50
NOTE_OFF_38
VEL_5
NOTE_ON_67
VEL_4
NOTE_ON_62
VEL_4
NOTE_ON_55
VEL_5
NOTE_ON_47
VEL_4
NOTE_ON_35
TIME_SHIFT_64ND_7
NOTE_OFF_67
NOTE_OFF_62
NOTE_OFF_55
NOTE_OFF_47
NOTE_OFF_35
TIME_SHIFT_64ND_7
VEL_4
NOTE_ON_66
VEL_4
NOTE_ON_62
VEL_4
NOTE_ON_57
VEL_4
NOTE_ON_45
VEL_4
NOTE_ON_33
TIME_SHIFT_64ND_7
NOTE_OFF_66
NOTE_OFF_62
NOTE_OFF_57
NOTE_OFF_45
NOTE_OFF_33
TIME_SHIFT_64ND_7
VEL_4
NOTE_ON_64
VEL_4
NOTE_ON_62
VEL_4
NOTE_ON_59
VEL_4
NOTE_ON_43
VEL_4
NOTE_ON_31
TIME_SHIFT_64ND_8
NOTE_OFF_64
NOTE_OFF_62
NOTE_OFF_59
NOTE_OFF_43
NOTE_OFF_31
TIME_SHIFT_64ND_4
VEL_4
NOTE_ON_66
VEL_4
NOTE_ON_62
VEL_4
NOTE_ON_59
VEL_4
NOTE_ON_42
VEL_4
NOTE_ON_30
TIME_SHIFT_64ND_4
NOTE_OFF_66
NOTE_OFF_62
NOTE_OFF_59
NOTE_OFF_42
NOTE_OFF_30
VEL_5
NOTE_ON_67
VEL_5
NOTE_ON_62
VEL_5
NOTE_ON_59
VEL_5
NOTE_ON_40
VEL_4
NOTE_ON_28
TIME_SHIFT_64ND_7
NOTE_OFF_67
NOTE_OFF_62
NOTE_OFF_59
NOTE_OFF_40
NOTE_OFF_28
TIME_SHIFT_64ND_7
VEL_4
NOTE_ON_64
VEL_3
NOTE_ON_55
VEL_3
NOTE_ON_57
VEL_3
NOTE_ON_61
VEL_4
NOTE_ON_45
VEL_3
NOTE_ON_33
TIME_SHIFT_64ND_16
NOTE_OFF_64
NOTE_OFF_55
NOTE_OFF_57
NOTE_OFF_61
NOTE_OFF_45
NOTE_OFF_33
VEL_4
NOTE_ON_62
VEL_4
NOTE_ON_57
VEL_4
NOTE_ON_54
VEL_4
NOTE_ON_50
VEL_4
NOTE_ON_38
TIME_SHIFT_64ND_15
NOTE_OFF_62
NOTE_OFF_57
NOTE_OFF_54
NOTE_OFF_50
NOTE_OFF_38
TIME_SHIFT_64ND_15
VEL_4
NOTE_ON_69
VEL_4
NOTE_ON_57
VEL_4
NOTE_ON_61
VEL_4
NOTE_ON_64
VEL_4
NOTE_ON_45
VEL_4
NOTE_ON_33
TIME_SHIFT_64ND_4
NOTE_OFF_45
NOTE_OFF_33
TIME_SHIFT_64ND_4
VEL_4
NOTE_ON_49
TIME_SHIFT_64ND_4
NOTE_OFF_49
TIME_SHIFT_64ND_4
NOTE_OFF_69
NOTE_OFF_57
NOTE_OFF_61
NOTE_OFF_64
VEL_5
NOTE_ON_69
VEL_4
NOTE_ON_57
VEL_4
NOTE_ON_62
VEL_4
NOTE_ON_66
VEL_5
NOTE_ON_50
VEL_5
NOTE_ON_38
TIME_SHIFT_64ND_4
NOTE_OFF_50
NOTE_OFF_38
TIME_SHIFT_64ND_4
VEL_5
NOTE_ON_45
VEL_4
NOTE_ON_33
TIME_SHIFT_64ND_4
NOTE_OFF_45
NOTE_OFF_33
TIME_SHIFT_64ND_4
VEL_5
NOTE_ON_43
VEL_4
NOTE_ON_31
TIME_SHIFT_64ND_4
NOTE_OFF_43
NOTE_OFF_31
TIME_SHIFT_64ND_4
VEL_5
NOTE_ON_42
VEL_4
NOTE_ON_30
TIME_SHIFT_64ND_4
NOTE_OFF_42
NOTE_OFF_30
TIME_SHIFT_64ND_4
NOTE_OFF_69
NOTE_OFF_57
NOTE_OFF_62
NOTE_OFF_66
VEL_4
NOTE_ON_69
VEL_4
NOTE_ON_57
VEL_4
NOTE_ON_62
VEL_4
NOTE_ON_66
VEL_5
NOTE_ON_42
VEL_4
NOTE_ON_30
TIME_SHIFT_64ND_15
NOTE_OFF_69
NOTE_OFF_57
NOTE_OFF_62
NOTE_OFF_66
NOTE_OFF_42
NOTE_OFF_30
VEL_4
NOTE_ON_67
VEL_4
NOTE_ON_71
VEL_4
NOTE_ON_62
VEL_4
NOTE_ON_64
VEL_5
NOTE_ON_50
VEL_5
NOTE_ON_38
TIME_SHIFT_64ND_4
NOTE_OFF_50
NOTE_OFF_38
TIME_SHIFT_64ND_4
VEL_4
NOTE_ON_47
VEL_4
NOTE_ON_35
TIME_SHIFT_64ND_4
NOTE_OFF_47
NOTE_OFF_35
TIME_SHIFT_64ND_4
VEL_4
NOTE_ON_45
VEL_4
NOTE_ON_33
TIME_SHIFT_64ND_4
NOTE_OFF_45
NOTE_OFF_33
TIME_SHIFT_64ND_4
VEL_4
NOTE_ON_43
VEL_4
NOTE_ON_31
TIME_SHIFT_64ND_4
NOTE_OFF_43
NOTE_OFF_31
TIME_SHIFT_64ND_4
NOTE_OFF_67
NOTE_OFF_71
NOTE_OFF_62
NOTE_OFF_64
VEL_4
NOTE_ON_71
VEL_4
NOTE_ON_62
VEL_4
NOTE_ON_64
VEL_4
NOTE_ON_67
VEL_5
NOTE_ON_43
VEL_4
NOTE_ON_31
TIME_SHIFT_64ND_15
NOTE_OFF_71
NOTE_OFF_62
NOTE_OFF_64
NOTE_OFF_67
NOTE_OFF_43
NOTE_OFF_31
VEL_3
NOTE_ON_64
VEL_3
NOTE_ON_55
VEL_3
NOTE_ON_57
VEL_3
NOTE_ON_61
VEL_5
NOTE_ON_45
VEL_4
NOTE_ON_33
TIME_SHIFT_64ND_4
NOTE_OFF_45
NOTE_OFF_33
TIME_SHIFT_64ND_4
NOTE_OFF_64
NOTE_OFF_55
NOTE_OFF_57
NOTE_OFF_61
VEL_4
NOTE_ON_40
VEL_4
NOTE_ON_28
TIME_SHIFT_64ND_4
NOTE_OFF_40
NOTE_OFF_28
TIME_SHIFT_64ND_4
VEL_3
NOTE_ON_64
VEL_3
NOTE_ON_55
VEL_3
NOTE_ON_57
VEL_3
NOTE_ON_61
VEL_4
NOTE_ON_38
VEL_4
NOTE_ON_26
TIME_SHIFT_64ND_4
NOTE_OFF_38
NOTE_OFF_26
TIME_SHIFT_64ND_4
NOTE_OFF_64
NOTE_OFF_55
NOTE_OFF_57
NOTE_OFF_61
VEL_4
NOTE_ON_37
VEL_4
NOTE_ON_25
TIME_SHIFT_64ND_4
NOTE_OFF_37
NOTE_OFF_25
TIME_SHIFT_64ND_4
VEL_3
NOTE_ON_64
VEL_3
NOTE_ON_55
VEL_3
NOTE_ON_57
VEL_3
NOTE_ON_61
VEL_5
NOTE_ON_37
VEL_4
NOTE_ON_25
TIME_SHIFT_64ND_7
NOTE_OFF_64
NOTE_OFF_55
NOTE_OFF_57
NOTE_OFF_61
TIME_SHIFT_64ND_7
NOTE_OFF_37
NOTE_OFF_25
VEL_4
NOTE_ON_69
VEL_4
NOTE_ON_62
VEL_4
NOTE_ON_60
VEL_5
NOTE_ON_50
VEL_5
NOTE_ON_38
TIME_SHIFT_64ND_4
NOTE_OFF_50
NOTE_OFF_38
TIME_SHIFT_64ND_4
VEL_4
NOTE_ON_45
VEL_4
NOTE_ON_33
TIME_SHIFT_64ND_4
NOTE_OFF_45
NOTE_OFF_33
TIME_SHIFT_64ND_4
VEL_4
NOTE_ON_43
VEL_4
NOTE_ON_31
TIME_SHIFT_64ND_4
NOTE_OFF_43
NOTE_OFF_31
TIME_SHIFT_64ND_4
VEL_4
NOTE_ON_42
VEL_4
NOTE_ON_30
TIME_SHIFT_64ND_4
NOTE_OFF_42
NOTE_OFF_30
TIME_SHIFT_64ND_4
VEL_5
NOTE_ON_42
VEL_4
NOTE_ON_30
TIME_SHIFT_64ND_15
NOTE_OFF_69
NOTE_OFF_62
NOTE_OFF_60
NOTE_OFF_42
NOTE_OFF_30
VEL_3
NOTE_ON_62
VEL_3
NOTE_ON_60
VEL_3
NOTE_ON_55
VEL_4
NOTE_ON_43
VEL_4
NOTE_ON_31
TIME_SHIFT_64ND_4
NOTE_OFF_43
NOTE_OFF_31
TIME_SHIFT_64ND_4
NOTE_OFF_62
NOTE_OFF_60
NOTE_OFF_55
VEL_4
NOTE_ON_45
VEL_4
NOTE_ON_33
TIME_SHIFT_64ND_4
NOTE_OFF_45
NOTE_OFF_33
TIME_SHIFT_64ND_4
VEL_3
NOTE_ON_62
VEL_3
NOTE_ON_60
VEL_3
NOTE_ON_55
VEL_4
NOTE_ON_47
VEL_4
NOTE_ON_35
TIME_SHIFT_64ND_4
NOTE_OFF_47
NOTE_OFF_35
TIME_SHIFT_64ND_4
NOTE_OFF_62
NOTE_OFF_60
NOTE_OFF_55
VEL_4
NOTE_ON_48
VEL_4
NOTE_ON_36
TIME_SHIFT_64ND_4
NOTE_OFF_48
NOTE_OFF_36
TIME_SHIFT_64ND_4
VEL_4
NOTE_ON_62
VEL_3
NOTE_ON_60
VEL_3
NOTE_ON_55
VEL_5
NOTE_ON_50
VEL_4
NOTE_ON_38
TIME_SHIFT_64ND_4
NOTE_OFF_50
NOTE_OFF_38
TIME_SHIFT_64ND_4
NOTE_OFF_62
NOTE_OFF_60
NOTE_OFF_55
VEL_5
NOTE_ON_52
VEL_4
NOTE_ON_40
TIME_SHIFT_64ND_4
NOTE_OFF_52
NOTE_OFF_40
TIME_SHIFT_64ND_4
VEL_4
NOTE_ON_62
VEL_3
NOTE_ON_59
VEL_3
NOTE_ON_55
VEL_5
NOTE_ON_50
VEL_4
NOTE_ON_38
TIME_SHIFT_64ND_15
NOTE_OFF_62
NOTE_OFF_59
NOTE_OFF_55
NOTE_OFF_50
NOTE_OFF_38
VEL_5
NOTE_ON_67
VEL_4
NOTE_ON_62
VEL_4
NOTE_ON_55
VEL_5
NOTE_ON_47
VEL_4
NOTE_ON_35
TIME_SHIFT_64ND_7
NOTE_OFF_67
NOTE_OFF_62
NOTE_OFF_55
NOTE_OFF_47
NOTE_OFF_35
TIME_SHIFT_64ND_7
VEL_4
NOTE_ON_66
VEL_4
NOTE_ON_62
VEL_4
NOTE_ON_57
VEL_4
NOTE_ON_45
VEL_4
NOTE_ON_33
TIME_SHIFT_64ND_7
NOTE_OFF_66
NOTE_OFF_62
NOTE_OFF_57
NOTE_OFF_45
NOTE_OFF_33
TIME_SHIFT_64ND_7
VEL_4
NOTE_ON_64
VEL_4
NOTE_ON_62
VEL_4
NOTE_ON_59
VEL_4
NOTE_ON_43
VEL_4
NOTE_ON_31
TIME_SHIFT_64ND_8
NOTE_OFF_64
NOTE_OFF_62
NOTE_OFF_59
NOTE_OFF_43
NOTE_OFF_31
TIME_SHIFT_64ND_4
VEL_4
NOTE_ON_66
VEL_4
NOTE_ON_62
VEL_4
NOTE_ON_59
VEL_4
NOTE_ON_42
VEL_4
NOTE_ON_30
TIME_SHIFT_64ND_4
NOTE_OFF_66
NOTE_OFF_62
NOTE_OFF_59
NOTE_OFF_42
NOTE_OFF_30
VEL_5
NOTE_ON_67
VEL_5
NOTE_ON_62
VEL_5
NOTE_ON_59
VEL_5
NOTE_ON_40
VEL_4
NOTE_ON_28
TIME_SHIFT_64ND_7
NOTE_OFF_67
NOTE_OFF_62
NOTE_OFF_59
NOTE_OFF_40
NOTE_OFF_28
TIME_SHIFT_64ND_7
VEL_4
NOTE_ON_64
VEL_3
NOTE_ON_55
VEL_3
NOTE_ON_57
VEL_3
NOTE_ON_61
VEL_4
NOTE_ON_45
VEL_3
NOTE_ON_33
TIME_SHIFT_64ND_16
NOTE_OFF_64
NOTE_OFF_55
NOTE_OFF_57
NOTE_OFF_61
NOTE_OFF_45
NOTE_OFF_33
VEL_4
NOTE_ON_62
VEL_4
NOTE_ON_57
VEL_4
NOTE_ON_54
VEL_4
NOTE_ON_50
VEL_4
NOTE_ON_38
TIME_SHIFT_64ND_16
NOTE_OFF_62
NOTE_OFF_57
NOTE_OFF_54
NOTE_OFF_50
NOTE_OFF_38
TIME_SHIFT_64ND_16
VEL_5
NOTE_ON_76
VEL_5
NOTE_ON_73
VEL_5
NOTE_ON_81
VEL_4
NOTE_ON_57
VEL_3
NOTE_ON_45
TIME_SHIFT_64ND_4
NOTE_OFF_57
NOTE_OFF_45
TIME_SHIFT_64ND_4
VEL_4
NOTE_ON_61
VEL_3
NOTE_ON_49
TIME_SHIFT_64ND_4
NOTE_OFF_61
NOTE_OFF_49
TIME_SHIFT_64ND_4
NOTE_OFF_76
NOTE_OFF_73
NOTE_OFF_81
VEL_5
NOTE_ON_80
VEL_5
NOTE_ON_76
VEL_5
NOTE_ON_71
VEL_4
NOTE_ON_64
VEL_4
NOTE_ON_52
TIME_SHIFT_64ND_12
NOTE_OFF_80
NOTE_OFF_76
NOTE_OFF_71
NOTE_OFF_64
NOTE_OFF_52
VEL_5
NOTE_ON_78
VEL_4
NOTE_ON_75
VEL_4
NOTE_ON_69
VEL_3
NOTE_ON_60
VEL_3
NOTE_ON_48
TIME_SHIFT_64ND_4
NOTE_OFF_78
NOTE_OFF_75
NOTE_OFF_69
NOTE_OFF_60
NOTE_OFF_48
VEL_5
NOTE_ON_76
VEL_4
NOTE_ON_73
VEL_4
NOTE_ON_68
VEL_4
NOTE_ON_61
VEL_3
NOTE_ON_49
TIME_SHIFT_64ND_15
NOTE_OFF_76
NOTE_OFF_73
NOTE_OFF_68
NOTE_OFF_61
NOTE_OFF_49
TIME_SHIFT_64ND_1
VEL_4
NOTE_ON_78
VEL_4
NOTE_ON_73
VEL_4
NOTE_ON_69
VEL_3
NOTE_ON_57
VEL_3
NOTE_ON_45
TIME_SHIFT_64ND_15
NOTE_OFF_78
NOTE_OFF_73
NOTE_OFF_69
NOTE_OFF_57
NOTE_OFF_45
TIME_SHIFT_64ND_1
VEL_5
NOTE_ON_75
VEL_4
NOTE_ON_71
VEL_4
NOTE_ON_66
VEL_3
NOTE_ON_59
VEL_3
NOTE_ON_47
TIME_SHIFT_64ND_15
NOTE_OFF_75
NOTE_OFF_71
NOTE_OFF_66
NOTE_OFF_59
NOTE_OFF_47
TIME_SHIFT_64ND_1
VEL_5
NOTE_ON_76
VEL_4
NOTE_ON_71
VEL_4
NOTE_ON_68
VEL_3
NOTE_ON_52
VEL_3
NOTE_ON_40
TIME_SHIFT_64ND_11
NOTE_OFF_76
NOTE_OFF_71
NOTE_OFF_68
NOTE_OFF_52
NOTE_OFF_40
TIME_SHIFT_64ND_4
VEL_5
NOTE_ON_66
VEL_5
NOTE_ON_74
VEL_4
NOTE_ON_71
VEL_3
NOTE_ON_54
VEL_3
NOTE_ON_42
TIME_SHIFT_64ND_4
NOTE_OFF_66
NOTE_OFF_54
NOTE_OFF_42
TIME_SHIFT_64ND_4
VEL_5
NOTE_ON_64
VEL_3
NOTE_ON_56
VEL_3
NOTE_ON_44
TIME_SHIFT_64ND_4
NOTE_OFF_64
NOTE_OFF_56
NOTE_OFF_44
TIME_SHIFT_64ND_4
NOTE_OFF_74
NOTE_OFF_71
VEL_5
NOTE_ON_73
VEL_4
NOTE_ON_69
VEL_4
NOTE_ON_64
VEL_4
NOTE_ON_57
VEL_3
NOTE_ON_45
TIME_SHIFT_64ND_11
NOTE_OFF_73
NOTE_OFF_69
NOTE_OFF_64
NOTE_OFF_57
NOTE_OFF_45
VEL_4
NOTE_ON_71
VEL_4
NOTE_ON_68
VEL_4
NOTE_ON_62
VEL_3
NOTE_ON_53
VEL_3
NOTE_ON_41
TIME_SHIFT_64ND_4
NOTE_OFF_71
NOTE_OFF_68
NOTE_OFF_62
NOTE_OFF_53
NOTE_OFF_41
VEL_4
NOTE_ON_69
VEL_4
NOTE_ON_66
VEL_4
NOTE_ON_61
VEL_3
NOTE_ON_54
VEL_3
NOTE_ON_42
TIME_SHIFT_64ND_15
NOTE_OFF_69
NOTE_OFF_66
NOTE_OFF_61
NOTE_OFF_54
NOTE_OFF_42
TIME_SHIFT_64ND_1
VEL_5
NOTE_ON_71
VEL_4
NOTE_ON_66
VEL_4
NOTE_ON_62
VEL_3
NOTE_ON_50
VEL_3
NOTE_ON_38
TIME_SHIFT_64ND_15
NOTE_OFF_71
NOTE_OFF_66
NOTE_OFF_62
NOTE_OFF_50
NOTE_OFF_38
TIME_SHIFT_64ND_1
VEL_4
NOTE_ON_68
VEL_4
NOTE_ON_64
VEL_4
NOTE_ON_59
VEL_3
NOTE_ON_52
VEL_3
NOTE_ON_40
TIME_SHIFT_64ND_15
NOTE_OFF_68
NOTE_OFF_64
NOTE_OFF_59
NOTE_OFF_52
NOTE_OFF_40
TIME_SHIFT_64ND_1
VEL_4
NOTE_ON_69
VEL_4
NOTE_ON_64
VEL_4
NOTE_ON_61
VEL_3
NOTE_ON_45
VEL_3
NOTE_ON_33
TIME_SHIFT_64ND_12
NOTE_OFF_69
NOTE_OFF_64
NOTE_OFF_61
NOTE_OFF_45
NOTE_OFF_33
TIME_SHIFT_64ND_4
VEL_4
NOTE_ON_64
VEL_4
NOTE_ON_61
VEL_4
NOTE_ON_69
VEL_3
NOTE_ON_45
VEL_3
NOTE_ON_33
TIME_SHIFT_64ND_4
NOTE_OFF_45
NOTE_OFF_33
TIME_SHIFT_64ND_4
VEL_3
NOTE_ON_49
VEL_3
NOTE_ON_37
TIME_SHIFT_64ND_4
NOTE_OFF_49
NOTE_OFF_37
TIME_SHIFT_64ND_4
NOTE_OFF_64
NOTE_OFF_61
NOTE_OFF_69
VEL_4
NOTE_ON_68
VEL_4
NOTE_ON_64
VEL_4
NOTE_ON_59
VEL_3
NOTE_ON_52
VEL_3
NOTE_ON_40
TIME_SHIFT_64ND_11
NOTE_OFF_68
NOTE_OFF_64
NOTE_OFF_59
NOTE_OFF_52
NOTE_OFF_40
VEL_4
NOTE_ON_66
VEL_3
NOTE_ON_63
VEL_3
NOTE_ON_57
VEL_3
NOTE_ON_48
VEL_2
NOTE_ON_36
TIME_SHIFT_64ND_4
NOTE_OFF_66
NOTE_OFF_63
NOTE_OFF_57
NOTE_OFF_48
NOTE_OFF_36
VEL_4
NOTE_ON_64
VEL_3
NOTE_ON_61
VEL_3
NOTE_ON_56
VEL_3
NOTE_ON_49
VEL_3
NOTE_ON_37
TIME_SHIFT_64ND_15
NOTE_OFF_64
NOTE_OFF_61
NOTE_OFF_56
NOTE_OFF_49
NOTE_OFF_37
TIME_SHIFT_64ND_1
VEL_4
NOTE_ON_66
VEL_3
NOTE_ON_61
VEL_3
NOTE_ON_57
VEL_3
NOTE_ON_45
VEL_3
NOTE_ON_33
TIME_SHIFT_64ND_15
NOTE_OFF_66
NOTE_OFF_61
NOTE_OFF_57
NOTE_OFF_45
NOTE_OFF_33
TIME_SHIFT_64ND_1
VEL_4
NOTE_ON_63
VEL_3
NOTE_ON_59
VEL_3
NOTE_ON_54
VEL_3
NOTE_ON_47
VEL_2
NOTE_ON_35
TIME_SHIFT_64ND_15
NOTE_OFF_63
NOTE_OFF_59
NOTE_OFF_54
NOTE_OFF_47
NOTE_OFF_35
TIME_SHIFT_64ND_1
VEL_4
NOTE_ON_64
VEL_3
NOTE_ON_59
VEL_3
NOTE_ON_56
VEL_3
NOTE_ON_40
VEL_2
NOTE_ON_28
TIME_SHIFT_64ND_11
NOTE_OFF_64
NOTE_OFF_59
NOTE_OFF_56
NOTE_OFF_40
NOTE_OFF_28
TIME_SHIFT_64ND_4
VEL_3
NOTE_ON_54
VEL_3
NOTE_ON_62
VEL_3
NOTE_ON_59
VEL_2
NOTE_ON_42
VEL_2
NOTE_ON_30
TIME_SHIFT_64ND_4
NOTE_OFF_54
NOTE_OFF_42
NOTE_OFF_30
TIME_SHIFT_64ND_4
VEL_3
NOTE_ON_52
VEL_2
NOTE_ON_44
VEL_2
NOTE_ON_32
TIME_SHIFT_64ND_4
NOTE_OFF_52
NOTE_OFF_44
NOTE_OFF_32
TIME_SHIFT_64ND_4
NOTE_OFF_62
NOTE_OFF_59
VEL_3
NOTE_ON_61
VEL_3
NOTE_ON_57
VEL_3
NOTE_ON_52
VEL_2
NOTE_ON_45
VEL_2
NOTE_ON_33
TIME_SHIFT_64ND_12
NOTE_OFF_61
NOTE_OFF_57
NOTE_OFF_52
NOTE_OFF_45
NOTE_OFF_33
VEL_3
NOTE_ON_59
VEL_2
NOTE_ON_56
VEL_2
NOTE_ON_50
VEL_2
NOTE_ON_41
VEL_1
NOTE_ON_29
TIME_SHIFT_64ND_4
NOTE_OFF_59
NOTE_OFF_56
NOTE_OFF_50
NOTE_OFF_41
NOTE_OFF_29
VEL_3
NOTE_ON_57
VEL_3
NOTE_ON_54
VEL_3
NOTE_ON_49
VEL_2
NOTE_ON_42
VEL_2
NOTE_ON_30
TIME_SHIFT_64ND_17
NOTE_OFF_57
NOTE_OFF_54
NOTE_OFF_49
NOTE_OFF_42
NOTE_OFF_30
TIME_SHIFT_64ND_1
VEL_3
NOTE_ON_59
VEL_3
NOTE_ON_54
VEL_3
NOTE_ON_50
VEL_2
NOTE_ON_38
VEL_2
NOTE_ON_26
TIME_SHIFT_64ND_19
NOTE_OFF_59
NOTE_OFF_54
NOTE_OFF_50
NOTE_OFF_38
NOTE_OFF_26
TIME_SHIFT_64ND_1
VEL_2
NOTE_ON_56
VEL_2
NOTE_ON_52
VEL_2
NOTE_ON_47
VEL_2
NOTE_ON_40
VEL_1
NOTE_ON_28
TIME_SHIFT_64ND_25
NOTE_OFF_56
NOTE_OFF_52
NOTE_OFF_47
NOTE_OFF_40
NOTE_OFF_28
TIME_SHIFT_64ND_1
VEL_2
NOTE_ON_57
VEL_2
NOTE_ON_52
VEL_2
NOTE_ON_49
VEL_1
NOTE_ON_40
VEL_1
NOTE_ON_33
TIME_SHIFT_64ND_25
NOTE_OFF_57
NOTE_OFF_52
NOTE_OFF_49
NOTE_OFF_40
NOTE_OFF_33
