TIME_SHIFT_64ND_55
VEL_2
NOTE_ON_63
TIME_SHIFT_64ND_9
VEL_1
NOTE_ON_44
TIME_SHIFT_64ND_9
NOTE_OFF_63
NOTE_OFF_44
VEL_3
NOTE_ON_68
VEL_2
NOTE_ON_63
TIME_SHIFT_64ND_9
NOTE_OFF_63
VEL_1
NOTE_ON_59
VEL_1
NOTE_ON_56
TIME_SHIFT_64ND_9
NOTE_OFF_68
NOTE_OFF_56
VEL_2
NOTE_ON_71
VEL_1
NOTE_ON_51
TIME_SHIFT_64ND_8
NOTE_OFF_59
NOTE_OFF_51
VEL_2
NOTE_ON_44
TIME_SHIFT_64ND_8
NOTE_OFF_71
NOTE_OFF_44
VEL_3
NOTE_ON_70
VEL_1
NOTE_ON_63
TIME_SHIFT_64ND_9
NOTE_OFF_63
VEL_1
NOTE_ON_61
VEL_1
NOTE_ON_55
TIME_SHIFT_64ND_9
NOTE_OFF_70
NOTE_OFF_55
VEL_2
NOTE_ON_67
VEL_1
NOTE_ON_51
TIME_SHIFT_64ND_8
NOTE_OFF_61
NOTE_OFF_51
VEL_1
NOTE_ON_44
TIME_SHIFT_64ND_8
NOTE_OFF_67
NOTE_OFF_44
VEL_3
NOTE_ON_68
VEL_2
NOTE_ON_63
TIME_SHIFT_64ND_9
NOTE_OFF_63
VEL_1
NOTE_ON_59
VEL_1
NOTE_ON_56
TIME_SHIFT_64ND_9
NOTE_OFF_68
NOTE_OFF_56
VEL_3
NOTE_ON_70
VEL_1
NOTE_ON_51
TIME_SHIFT_64ND_8
NOTE_OFF_59
NOTE_OFF_51
VEL_1
NOTE_ON_43
TIME_SHIFT_64ND_8
NOTE_OFF_70
NOTE_OFF_43
VEL_3
NOTE_ON_71
VEL_2
NOTE_ON_64
TIME_SHIFT_64ND_9
NOTE_OFF_64
VEL_1
NOTE_ON_59
VEL_1
NOTE_ON_61
TIME_SHIFT_64ND_9
NOTE_OFF_71
NOTE_OFF_61
VEL_3
NOTE_ON_73
VEL_2
NOTE_ON_52
TIME_SHIFT_64ND_9
NOTE_OFF_59
NOTE_OFF_52
VEL_2
NOTE_ON_42
TIME_SHIFT_64ND_9
NOTE_OFF_73
NOTE_OFF_42
VEL_2
NOTE_ON_75
VEL_2
NOTE_ON_66
TIME_SHIFT_64ND_9
NOTE_OFF_66
VEL_1
NOTE_ON_63
VEL_1
NOTE_ON_59
TIME_SHIFT_64ND_9
NOTE_OFF_75
NOTE_OFF_59
VEL_2
NOTE_ON_76
VEL_1
NOTE_ON_54
TIME_SHIFT_64ND_9
NOTE_OFF_63
NOTE_OFF_54
VEL_2
NOTE_ON_42
TIME_SHIFT_64ND_9
NOTE_OFF_76
NOTE_OFF_42
VEL_2
NOTE_ON_73
VEL_1
NOTE_ON_66
TIME_SHIFT_64ND_10
NOTE_OFF_66
VEL_1
NOTE_ON_64
VEL_1
NOTE_ON_58
TIME_SHIFT_64ND_10
NOTE_OFF_73
NOTE_OFF_58
VEL_2
NOTE_ON_75
VEL_1
NOTE_ON_54
TIME_SHIFT_64ND_11
NOTE_OFF_64
NOTE_OFF_54
VEL_1
NOTE_ON_47
TIME_SHIFT_64ND_11
NOTE_OFF_75
NOTE_OFF_47
VEL_2
NOTE_ON_71
VEL_1
NOTE_ON_66
TIME_SHIFT_64ND_11
VEL_1
NOTE_ON_63
VEL_1
NOTE_ON_59
TIME_SHIFT_64ND_13
NOTE_OFF_71
VEL_1
NOTE_ON_54
TIME_SHIFT_64ND_37
NOTE_OFF_63
NOTE_OFF_54
NOTE_OFF_59
NOTE_OFF_66
TIME_SHIFT_64ND_10
VEL_2
NOTE_ON_66
TIME_SHIFT_64ND_9
VEL_1
NOTE_ON_47
TIME_SHIFT_64ND_9
NOTE_OFF_66
NOTE_OFF_47
VEL_3
NOTE_ON_71
VEL_2
NOTE_ON_66
TIME_SHIFT_64ND_8
NOTE_OFF_66
VEL_1
NOTE_ON_63
VEL_1
NOTE_ON_59
TIME_SHIFT_64ND_8
NOTE_OFF_71
NOTE_OFF_59
VEL_2
NOTE_ON_75
VEL_1
NOTE_ON_54
TIME_SHIFT_64ND_8
NOTE_OFF_63
NOTE_OFF_54
VEL_2
NOTE_ON_47
TIME_SHIFT_64ND_8
NOTE_OFF_75
NOTE_OFF_47
VEL_3
NOTE_ON_73
VEL_1
NOTE_ON_67
TIME_SHIFT_64ND_8
VEL_1
NOTE_ON_64
VEL_1
NOTE_ON_61
TIME_SHIFT_64ND_8
NOTE_OFF_73
NOTE_OFF_61
VEL_2
NOTE_ON_70
VEL_1
NOTE_ON_54
TIME_SHIFT_64ND_8
NOTE_OFF_64
NOTE_OFF_54
NOTE_OFF_67
VEL_1
NOTE_ON_47
TIME_SHIFT_64ND_8
NOTE_OFF_70
NOTE_OFF_47
VEL_3
NOTE_ON_71
VEL_2
NOTE_ON_66
TIME_SHIFT_64ND_9
NOTE_OFF_66
VEL_1
NOTE_ON_63
VEL_1
NOTE_ON_59
TIME_SHIFT_64ND_9
NOTE_OFF_71
NOTE_OFF_59
VEL_3
NOTE_ON_73
VEL_1
NOTE_ON_54
TIME_SHIFT_64ND_8
NOTE_OFF_63
NOTE_OFF_54
VEL_1
NOTE_ON_44
TIME_SHIFT_64ND_8
NOTE_OFF_73
NOTE_OFF_44
VEL_3
NOTE_ON_75
VEL_2
NOTE_ON_65
TIME_SHIFT_64ND_9
NOTE_OFF_65
VEL_1
NOTE_ON_63
VEL_1
NOTE_ON_59
TIME_SHIFT_64ND_9
NOTE_OFF_75
NOTE_OFF_59
VEL_3
NOTE_ON_77
VEL_2
NOTE_ON_53
TIME_SHIFT_64ND_8
NOTE_OFF_63
NOTE_OFF_53
VEL_2
NOTE_ON_46
TIME_SHIFT_64ND_8
NOTE_OFF_77
NOTE_OFF_46
VEL_3
NOTE_ON_78
VEL_2
NOTE_ON_70
TIME_SHIFT_64ND_9
NOTE_OFF_70
VEL_2
NOTE_ON_66
VEL_1
NOTE_ON_63
TIME_SHIFT_64ND_9
NOTE_OFF_78
NOTE_OFF_63
VEL_3
NOTE_ON_80
VEL_1
NOTE_ON_58
TIME_SHIFT_64ND_9
NOTE_OFF_66
NOTE_OFF_58
VEL_2
NOTE_ON_46
TIME_SHIFT_64ND_9
NOTE_OFF_80
NOTE_OFF_46
VEL_3
NOTE_ON_77
VEL_1
NOTE_ON_71
TIME_SHIFT_64ND_10
VEL_1
NOTE_ON_68
VEL_1
NOTE_ON_62
TIME_SHIFT_64ND_10
NOTE_OFF_77
NOTE_OFF_62
VEL_2
NOTE_ON_78
VEL_1
NOTE_ON_58
TIME_SHIFT_64ND_11
NOTE_OFF_68
NOTE_OFF_58
NOTE_OFF_71
VEL_1
NOTE_ON_51
TIME_SHIFT_64ND_11
NOTE_OFF_78
NOTE_OFF_51
VEL_2
NOTE_ON_75
VEL_1
NOTE_ON_70
TIME_SHIFT_64ND_12
VEL_1
NOTE_ON_66
VEL_1
NOTE_ON_63
TIME_SHIFT_64ND_13
VEL_1
NOTE_ON_58
TIME_SHIFT_64ND_37
NOTE_OFF_66
NOTE_OFF_75
NOTE_OFF_58
NOTE_OFF_63
NOTE_OFF_70
TIME_SHIFT_64ND_11
VEL_3
NOTE_ON_75
TIME_SHIFT_64ND_9
VEL_1
NOTE_ON_51
TIME_SHIFT_64ND_9
NOTE_OFF_75
NOTE_OFF_51
VEL_3
NOTE_ON_76
VEL_1
NOTE_ON_70
TIME_SHIFT_64ND_8
NOTE_OFF_70
VEL_1
NOTE_ON_67
VEL_1
NOTE_ON_64
TIME_SHIFT_64ND_8
NOTE_OFF_76
NOTE_OFF_64
VEL_2
NOTE_ON_73
VEL_1
NOTE_ON_61
TIME_SHIFT_64ND_8
NOTE_OFF_67
NOTE_OFF_61
VEL_1
NOTE_ON_51
TIME_SHIFT_64ND_8
NOTE_OFF_73
NOTE_OFF_51
VEL_3
NOTE_ON_75
VEL_1
NOTE_ON_71
TIME_SHIFT_64ND_9
NOTE_OFF_71
VEL_1
NOTE_ON_68
VEL_1
NOTE_ON_63
TIME_SHIFT_64ND_9
NOTE_OFF_75
NOTE_OFF_63
VEL_2
NOTE_ON_71
VEL_1
NOTE_ON_59
TIME_SHIFT_64ND_9
NOTE_OFF_68
NOTE_OFF_59
VEL_1
NOTE_ON_51
TIME_SHIFT_64ND_9
NOTE_OFF_71
NOTE_OFF_51
VEL_2
NOTE_ON_71
VEL_1
NOTE_ON_65
TIME_SHIFT_64ND_9
NOTE_OFF_65
VEL_1
NOTE_ON_62
VEL_1
NOTE_ON_59
TIME_SHIFT_64ND_9
NOTE_OFF_71
NOTE_OFF_59
VEL_2
NOTE_ON_68
VEL_1
NOTE_ON_56
TIME_SHIFT_64ND_10
NOTE_OFF_62
NOTE_OFF_56
VEL_2
NOTE_ON_39
TIME_SHIFT_64ND_10
NOTE_OFF_68
NOTE_OFF_39
VEL_2
NOTE_ON_67
VEL_1
NOTE_ON_67
TIME_SHIFT_64ND_11
VEL_1
NOTE_ON_63
VEL_1
NOTE_ON_58
TIME_SHIFT_64ND_12
NOTE_OFF_67
VEL_1
NOTE_ON_70
TIME_SHIFT_64ND_35
NOTE_OFF_70
NOTE_OFF_63
NOTE_OFF_58
NOTE_OFF_67
TIME_SHIFT_64ND_12
VEL_2
NOTE_ON_63
TIME_SHIFT_64ND_9
VEL_1
NOTE_ON_44
TIME_SHIFT_64ND_9
NOTE_OFF_63
NOTE_OFF_44
VEL_3
NOTE_ON_68
VEL_1
NOTE_ON_63
TIME_SHIFT_64ND_9
NOTE_OFF_63
VEL_1
NOTE_ON_59
VEL_1
NOTE_ON_56
TIME_SHIFT_64ND_9
NOTE_OFF_68
NOTE_OFF_56
VEL_3
NOTE_ON_70
VEL_1
NOTE_ON_51
TIME_SHIFT_64ND_8
NOTE_OFF_59
NOTE_OFF_51
VEL_2
NOTE_ON_40
TIME_SHIFT_64ND_8
NOTE_OFF_70
NOTE_OFF_40
VEL_3
NOTE_ON_71
VEL_1
NOTE_ON_64
TIME_SHIFT_64ND_8
VEL_1
NOTE_ON_61
VEL_1
NOTE_ON_56
VEL_1
NOTE_ON_59
TIME_SHIFT_64ND_8
NOTE_OFF_71
NOTE_OFF_56
VEL_3
NOTE_ON_73
VEL_1
NOTE_ON_55
TIME_SHIFT_64ND_8
NOTE_OFF_61
NOTE_OFF_55
NOTE_OFF_59
NOTE_OFF_64
VEL_1
NOTE_ON_42
TIME_SHIFT_64ND_8
NOTE_OFF_73
NOTE_OFF_42
VEL_3
NOTE_ON_75
VEL_1
NOTE_ON_64
TIME_SHIFT_64ND_8
VEL_2
NOTE_ON_61
VEL_1
NOTE_ON_54
VEL_1
NOTE_ON_58
TIME_SHIFT_64ND_8
NOTE_OFF_75
NOTE_OFF_54
VEL_3
NOTE_ON_73
VEL_1
NOTE_ON_52
TIME_SHIFT_64ND_8
NOTE_OFF_61
NOTE_OFF_52
NOTE_OFF_58
NOTE_OFF_64
VEL_2
NOTE_ON_35
TIME_SHIFT_64ND_8
NOTE_OFF_73
NOTE_OFF_35
VEL_3
NOTE_ON_71
VEL_1
NOTE_ON_63
TIME_SHIFT_64ND_9
NOTE_OFF_71
NOTE_OFF_63
VEL_1
NOTE_ON_59
VEL_1
NOTE_ON_54
TIME_SHIFT_64ND_9
NOTE_OFF_54
VEL_2
NOTE_ON_71
VEL_1
NOTE_ON_51
TIME_SHIFT_64ND_8
NOTE_OFF_59
NOTE_OFF_51
VEL_2
NOTE_ON_39
TIME_SHIFT_64ND_8
NOTE_OFF_71
NOTE_OFF_39
VEL_3
NOTE_ON_71
VEL_1
NOTE_ON_63
TIME_SHIFT_64ND_10
NOTE_OFF_63
VEL_2
NOTE_ON_61
VEL_1
NOTE_ON_55
TIME_SHIFT_64ND_9
NOTE_OFF_71
NOTE_OFF_55
VEL_2
NOTE_ON_70
VEL_1
NOTE_ON_51
TIME_SHIFT_64ND_5
NOTE_OFF_61
VEL_2
NOTE_ON_63
TIME_SHIFT_64ND_5
NOTE_OFF_51
VEL_2
NOTE_ON_44
TIME_SHIFT_64ND_10
NOTE_OFF_63
NOTE_OFF_70
NOTE_OFF_44
VEL_2
NOTE_ON_68
VEL_2
NOTE_ON_63
TIME_SHIFT_64ND_9
NOTE_OFF_63
VEL_1
NOTE_ON_59
VEL_1
NOTE_ON_56
TIME_SHIFT_64ND_9
NOTE_OFF_68
NOTE_OFF_56
VEL_2
NOTE_ON_71
VEL_1
NOTE_ON_51
TIME_SHIFT_64ND_9
NOTE_OFF_59
NOTE_OFF_51
VEL_2
NOTE_ON_44
TIME_SHIFT_64ND_9
NOTE_OFF_71
NOTE_OFF_44
VEL_2
NOTE_ON_70
VEL_1
NOTE_ON_63
TIME_SHIFT_64ND_9
NOTE_OFF_63
VEL_1
NOTE_ON_61
VEL_1
NOTE_ON_55
TIME_SHIFT_64ND_9
NOTE_OFF_70
NOTE_OFF_55
VEL_2
NOTE_ON_67
VEL_1
NOTE_ON_51
TIME_SHIFT_64ND_8
NOTE_OFF_61
NOTE_OFF_51
VEL_1
NOTE_ON_44
TIME_SHIFT_64ND_8
NOTE_OFF_67
NOTE_OFF_44
VEL_3
NOTE_ON_68
VEL_2
NOTE_ON_63
TIME_SHIFT_64ND_9
NOTE_OFF_63
VEL_1
NOTE_ON_59
VEL_1
NOTE_ON_56
TIME_SHIFT_64ND_9
NOTE_OFF_68
NOTE_OFF_56
VEL_3
NOTE_ON_70
VEL_1
NOTE_ON_51
TIME_SHIFT_64ND_8
NOTE_OFF_59
NOTE_OFF_51
VEL_1
NOTE_ON_43
TIME_SHIFT_64ND_8
NOTE_OFF_70
NOTE_OFF_43
VEL_3
NOTE_ON_71
VEL_2
NOTE_ON_64
TIME_SHIFT_64ND_9
NOTE_OFF_64
VEL_1
NOTE_ON_59
VEL_1
NOTE_ON_61
TIME_SHIFT_64ND_9
NOTE_OFF_71
NOTE_OFF_61
VEL_3
NOTE_ON_73
VEL_2
NOTE_ON_52
TIME_SHIFT_64ND_9
NOTE_OFF_59
NOTE_OFF_52
VEL_2
NOTE_ON_42
TIME_SHIFT_64ND_9
NOTE_OFF_73
NOTE_OFF_42
VEL_2
NOTE_ON_75
VEL_2
NOTE_ON_66
TIME_SHIFT_64ND_9
NOTE_OFF_66
VEL_1
NOTE_ON_63
VEL_1
NOTE_ON_59
TIME_SHIFT_64ND_9
NOTE_OFF_75
NOTE_OFF_59
VEL_2
NOTE_ON_76
VEL_1
NOTE_ON_54
TIME_SHIFT_64ND_9
NOTE_OFF_63
NOTE_OFF_54
VEL_2
NOTE_ON_42
TIME_SHIFT_64ND_9
NOTE_OFF_76
NOTE_OFF_42
VEL_2
NOTE_ON_73
VEL_1
NOTE_ON_66
TIME_SHIFT_64ND_10
NOTE_OFF_66
VEL_1
NOTE_ON_64
VEL_1
NOTE_ON_58
TIME_SHIFT_64ND_10
NOTE_OFF_73
NOTE_OFF_58
VEL_2
NOTE_ON_75
VEL_1
NOTE_ON_54
TIME_SHIFT_64ND_11
NOTE_OFF_64
NOTE_OFF_54
VEL_1
NOTE_ON_47
TIME_SHIFT_64ND_11
NOTE_OFF_75
NOTE_OFF_47
VEL_2
NOTE_ON_71
VEL_1
NOTE_ON_66
TIME_SHIFT_64ND_12
VEL_1
NOTE_ON_63
VEL_1
NOTE_ON_59
TIME_SHIFT_64ND_14
VEL_1
NOTE_ON_54
TIME_SHIFT_64ND_42
NOTE_OFF_63
NOTE_OFF_71
NOTE_OFF_54
NOTE_OFF_59
NOTE_OFF_66
TIME_SHIFT_64ND_14
VEL_3
NOTE_ON_66
TIME_SHIFT_64ND_9
VEL_1
NOTE_ON_47
TIME_SHIFT_64ND_9
NOTE_OFF_66
NOTE_OFF_47
VEL_3
NOTE_ON_71
VEL_2
NOTE_ON_66
TIME_SHIFT_64ND_8
NOTE_OFF_66
VEL_1
NOTE_ON_63
VEL_1
NOTE_ON_59
TIME_SHIFT_64ND_8
NOTE_OFF_71
NOTE_OFF_59
VEL_2
NOTE_ON_75
VEL_1
NOTE_ON_54
TIME_SHIFT_64ND_8
NOTE_OFF_63
NOTE_OFF_54
VEL_2
NOTE_ON_47
TIME_SHIFT_64ND_8
NOTE_OFF_75
NOTE_OFF_47
VEL_3
NOTE_ON_73
VEL_1
NOTE_ON_67
TIME_SHIFT_64ND_8
VEL_1
NOTE_ON_64
VEL_1
NOTE_ON_61
TIME_SHIFT_64ND_8
NOTE_OFF_73
NOTE_OFF_61
VEL_2
NOTE_ON_70
VEL_1
NOTE_ON_54
TIME_SHIFT_64ND_8
NOTE_OFF_64
NOTE_OFF_54
NOTE_OFF_67
VEL_1
NOTE_ON_47
TIME_SHIFT_64ND_8
NOTE_OFF_70
NOTE_OFF_47
VEL_3
NOTE_ON_71
VEL_2
NOTE_ON_66
TIME_SHIFT_64ND_9
NOTE_OFF_66
VEL_1
NOTE_ON_63
VEL_1
NOTE_ON_59
TIME_SHIFT_64ND_9
NOTE_OFF_71
NOTE_OFF_59
VEL_3
NOTE_ON_73
VEL_1
NOTE_ON_54
TIME_SHIFT_64ND_8
NOTE_OFF_63
NOTE_OFF_54
VEL_1
NOTE_ON_44
TIME_SHIFT_64ND_8
NOTE_OFF_73
NOTE_OFF_44
VEL_3
NOTE_ON_75
VEL_2
NOTE_ON_65
TIME_SHIFT_64ND_9
NOTE_OFF_65
VEL_1
NOTE_ON_63
VEL_1
NOTE_ON_59
TIME_SHIFT_64ND_9
NOTE_OFF_75
NOTE_OFF_59
VEL_3
NOTE_ON_77
VEL_2
NOTE_ON_53
TIME_SHIFT_64ND_8
NOTE_OFF_63
NOTE_OFF_53
VEL_2
NOTE_ON_46
TIME_SHIFT_64ND_8
NOTE_OFF_77
NOTE_OFF_46
VEL_3
NOTE_ON_78
VEL_2
NOTE_ON_70
TIME_SHIFT_64ND_9
NOTE_OFF_70
VEL_2
NOTE_ON_66
VEL_1
NOTE_ON_63
TIME_SHIFT_64ND_9
NOTE_OFF_78
NOTE_OFF_63
VEL_3
NOTE_ON_80
VEL_1
NOTE_ON_58
TIME_SHIFT_64ND_9
NOTE_OFF_66
NOTE_OFF_58
VEL_2
NOTE_ON_46
TIME_SHIFT_64ND_9
NOTE_OFF_80
NOTE_OFF_46
VEL_3
NOTE_ON_77
VEL_1
NOTE_ON_71
TIME_SHIFT_64ND_10
VEL_1
NOTE_ON_68
VEL_1
NOTE_ON_62
TIME_SHIFT_64ND_10
NOTE_OFF_77
NOTE_OFF_62
VEL_2
NOTE_ON_78
VEL_1
NOTE_ON_58
TIME_SHIFT_64ND_11
NOTE_OFF_68
NOTE_OFF_58
NOTE_OFF_71
VEL_1
NOTE_ON_51
TIME_SHIFT_64ND_11
NOTE_OFF_78
NOTE_OFF_51
VEL_2
NOTE_ON_75
VEL_1
NOTE_ON_70
TIME_SHIFT_64ND_12
VEL_1
NOTE_ON_66
VEL_1
NOTE_ON_63
TIME_SHIFT_64ND_13
VEL_1
NOTE_ON_58
TIME_SHIFT_64ND_37
NOTE_OFF_66
NOTE_OFF_75
NOTE_OFF_58
NOTE_OFF_63
NOTE_OFF_70
TIME_SHIFT_64ND_11
VEL_3
NOTE_ON_75
TIME_SHIFT_64ND_9
VEL_1
NOTE_ON_51
TIME_SHIFT_64ND_9
NOTE_OFF_75
NOTE_OFF_51
VEL_3
NOTE_ON_76
VEL_1
NOTE_ON_70
TIME_SHIFT_64ND_8
NOTE_OFF_70
VEL_1
NOTE_ON_67
VEL_1
NOTE_ON_64
TIME_SHIFT_64ND_8
NOTE_OFF_76
NOTE_OFF_64
VEL_2
NOTE_ON_73
VEL_1
NOTE_ON_61
TIME_SHIFT_64ND_8
NOTE_OFF_67
NOTE_OFF_61
VEL_1
NOTE_ON_51
TIME_SHIFT_64ND_8
NOTE_OFF_73
NOTE_OFF_51
VEL_3
NOTE_ON_75
VEL_1
NOTE_ON_71
TIME_SHIFT_64ND_9
NOTE_OFF_71
VEL_1
NOTE_ON_68
VEL_1
NOTE_ON_63
TIME_SHIFT_64ND_9
NOTE_OFF_75
NOTE_OFF_63
VEL_2
NOTE_ON_71
VEL_1
NOTE_ON_59
TIME_SHIFT_64ND_9
NOTE_OFF_68
NOTE_OFF_59
VEL_1
NOTE_ON_51
TIME_SHIFT_64ND_9
NOTE_OFF_71
NOTE_OFF_51
VEL_2
NOTE_ON_71
VEL_1
NOTE_ON_65
TIME_SHIFT_64ND_9
NOTE_OFF_65
VEL_1
NOTE_ON_62
VEL_1
NOTE_ON_59
TIME_SHIFT_64ND_9
NOTE_OFF_71
NOTE_OFF_59
VEL_2
NOTE_ON_68
VEL_1
NOTE_ON_56
TIME_SHIFT_64ND_10
NOTE_OFF_62
NOTE_OFF_56
VEL_2
NOTE_ON_39
TIME_SHIFT_64ND_10
NOTE_OFF_68
NOTE_OFF_39
VEL_2
NOTE_ON_67
VEL_1
NOTE_ON_67
TIME_SHIFT_64ND_11
VEL_1
NOTE_ON_63
VEL_1
NOTE_ON_58
TIME_SHIFT_64ND_12
NOTE_OFF_67
VEL_1
NOTE_ON_70
TIME_SHIFT_64ND_35
NOTE_OFF_70
NOTE_OFF_63
NOTE_OFF_58
NOTE_OFF_67
TIME_SHIFT_64ND_12
VEL_2
NOTE_ON_63
TIME_SHIFT_64ND_9
VEL_1
NOTE_ON_44
TIME_SHIFT_64ND_9
NOTE_OFF_63
NOTE_OFF_44
VEL_3
NOTE_ON_68
VEL_1
NOTE_ON_63
TIME_SHIFT_64ND_9
NOTE_OFF_63
VEL_1
NOTE_ON_59
VEL_1
NOTE_ON_56
TIME_SHIFT_64ND_9
NOTE_OFF_68
NOTE_OFF_56
VEL_3
NOTE_ON_70
VEL_1
NOTE_ON_51
TIME_SHIFT_64ND_8
NOTE_OFF_59
NOTE_OFF_51
VEL_2
NOTE_ON_40
TIME_SHIFT_64ND_8
NOTE_OFF_70
NOTE_OFF_40
VEL_3
NOTE_ON_71
VEL_1
NOTE_ON_64
TIME_SHIFT_64ND_8
VEL_1
NOTE_ON_61
VEL_1
NOTE_ON_56
VEL_1
NOTE_ON_59
TIME_SHIFT_64ND_8
NOTE_OFF_71
NOTE_OFF_56
VEL_3
NOTE_ON_73
VEL_1
NOTE_ON_55
TIME_SHIFT_64ND_8
NOTE_OFF_61
NOTE_OFF_55
NOTE_OFF_59
NOTE_OFF_64
VEL_1
NOTE_ON_42
TIME_SHIFT_64ND_8
NOTE_OFF_73
NOTE_OFF_42
VEL_3
NOTE_ON_75
VEL_1
NOTE_ON_64
TIME_SHIFT_64ND_8
VEL_2
NOTE_ON_61
VEL_1
NOTE_ON_54
VEL_1
NOTE_ON_58
TIME_SHIFT_64ND_8
NOTE_OFF_75
NOTE_OFF_54
VEL_3
NOTE_ON_73
VEL_1
NOTE_ON_52
TIME_SHIFT_64ND_8
NOTE_OFF_61
NOTE_OFF_52
NOTE_OFF_58
NOTE_OFF_64
VEL_2
NOTE_ON_35
TIME_SHIFT_64ND_8
NOTE_OFF_73
NOTE_OFF_35
VEL_3
NOTE_ON_71
VEL_1
NOTE_ON_63
TIME_SHIFT_64ND_9
NOTE_OFF_71
NOTE_OFF_63
VEL_1
NOTE_ON_59
VEL_1
NOTE_ON_54
TIME_SHIFT_64ND_9
NOTE_OFF_54
VEL_2
NOTE_ON_71
VEL_1
NOTE_ON_51
TIME_SHIFT_64ND_8
NOTE_OFF_59
NOTE_OFF_51
VEL_2
NOTE_ON_39
TIME_SHIFT_64ND_8
NOTE_OFF_71
NOTE_OFF_39
VEL_3
NOTE_ON_71
VEL_1
NOTE_ON_63
TIME_SHIFT_64ND_10
NOTE_OFF_63
VEL_2
NOTE_ON_61
VEL_1
NOTE_ON_55
TIME_SHIFT_64ND_9
NOTE_OFF_71
NOTE_OFF_55
VEL_2
NOTE_ON_70
VEL_1
NOTE_ON_51
TIME_SHIFT_64ND_5
NOTE_OFF_61
VEL_2
NOTE_ON_63
TIME_SHIFT_64ND_5
NOTE_OFF_51
VEL_2
NOTE_ON_44
TIME_SHIFT_64ND_10
NOTE_OFF_63
NOTE_OFF_70
NOTE_OFF_44
VEL_2
NOTE_ON_68
VEL_2
NOTE_ON_63
TIME_SHIFT_64ND_9
NOTE_OFF_63
VEL_1
NOTE_ON_59
VEL_1
NOTE_ON_56
TIME_SHIFT_64ND_9
NOTE_OFF_68
NOTE_OFF_56
VEL_3
NOTE_ON_70
VEL_1
NOTE_ON_51
TIME_SHIFT_64ND_9
NOTE_OFF_59
NOTE_OFF_51
VEL_2
NOTE_ON_44
TIME_SHIFT_64ND_9
NOTE_OFF_70
NOTE_OFF_44
VEL_3
NOTE_ON_71
VEL_2
NOTE_ON_63
TIME_SHIFT_64ND_9
NOTE_OFF_63
VEL_2
NOTE_ON_59
VEL_1
NOTE_ON_56
TIME_SHIFT_64ND_9
NOTE_OFF_71
NOTE_OFF_56
VEL_3
NOTE_ON_75
VEL_1
NOTE_ON_51
TIME_SHIFT_64ND_9
NOTE_OFF_59
NOTE_OFF_51
VEL_2
NOTE_ON_44
TIME_SHIFT_64ND_9
NOTE_OFF_75
NOTE_OFF_44
VEL_3
NOTE_ON_80
VEL_2
NOTE_ON_63
TIME_SHIFT_64ND_10
NOTE_OFF_63
VEL_2
NOTE_ON_56
TIME_SHIFT_64ND_10
NOTE_OFF_80
NOTE_OFF_56
VEL_2
NOTE_ON_58
VEL_1
NOTE_ON_51
TIME_SHIFT_64ND_11
NOTE_OFF_51
VEL_1
NOTE_ON_44
TIME_SHIFT_64ND_11
NOTE_OFF_58
NOTE_OFF_44
VEL_2
NOTE_ON_59
VEL_2
NOTE_ON_63
TIME_SHIFT_64ND_12
NOTE_OFF_63
VEL_1
NOTE_ON_56
TIME_SHIFT_64ND_12
NOTE_OFF_59
NOTE_OFF_56
VEL_2
NOTE_ON_63
VEL_1
NOTE_ON_51
TIME_SHIFT_64ND_27
NOTE_OFF_51
VEL_1
NOTE_ON_68
VEL_1
NOTE_ON_32
TIME_SHIFT_64ND_110
NOTE_OFF_68
NOTE_OFF_63
NOTE_OFF_32
