VEL_3
NOTE_ON_71
VEL_2
NOTE_ON_59
VEL_2
NOTE_ON_55
TIME_SHIFT_64ND_9
VEL_2
NOTE_ON_62
TIME_SHIFT_64ND_1
NOTE_OFF_59
TIME_SHIFT_64ND_4
NOTE_OFF_55
TIME_SHIFT_64ND_5
VEL_2
NOTE_ON_67
TIME_SHIFT_64ND_1
NOTE_OFF_62
TIME_SHIFT_64ND_8
NOTE_OFF_67
VEL_3
NOTE_ON_79
VEL_2
NOTE_ON_58
VEL_2
NOTE_ON_49
TIME_SHIFT_64ND_1
NOTE_OFF_71
TIME_SHIFT_64ND_9
VEL_2
NOTE_ON_64
TIME_SHIFT_64ND_1
NOTE_OFF_58
TIME_SHIFT_64ND_4
NOTE_OFF_49
TIME_SHIFT_64ND_5
VEL_2
NOTE_ON_67
TIME_SHIFT_64ND_1
NOTE_OFF_64
TIME_SHIFT_64ND_9
NOTE_OFF_79
NOTE_OFF_67
VEL_3
NOTE_ON_78
VEL_2
NOTE_ON_57
VEL_2
NOTE_ON_50
TIME_SHIFT_64ND_10
VEL_2
NOTE_ON_62
TIME_SHIFT_64ND_1
NOTE_OFF_57
TIME_SHIFT_64ND_4
NOTE_OFF_50
TIME_SHIFT_64ND_5
VEL_1
NOTE_ON_66
TIME_SHIFT_64ND_1
NOTE_OFF_62
TIME_SHIFT_64ND_2
VEL_2
NOTE_ON_76
TIME_SHIFT_64ND_1
NOTE_OFF_78
TIME_SHIFT_64ND_6
NOTE_OFF_66
VEL_2
NOTE_ON_74
VEL_1
NOTE_ON_60
VEL_1
NOTE_ON_54
TIME_SHIFT_64ND_1
NOTE_OFF_76
TIME_SHIFT_64ND_9
VEL_1
NOTE_ON_62
TIME_SHIFT_64ND_1
NOTE_OFF_60
TIME_SHIFT_64ND_4
NOTE_OFF_54
TIME_SHIFT_64ND_5
VEL_1
NOTE_ON_69
TIME_SHIFT_64ND_1
NOTE_OFF_62
TIME_SHIFT_64ND_8
NOTE_OFF_74
NOTE_OFF_69
VEL_3
NOTE_ON_71
VEL_2
NOTE_ON_59
VEL_2
NOTE_ON_55
TIME_SHIFT_64ND_9
VEL_2
NOTE_ON_62
TIME_SHIFT_64ND_1
NOTE_OFF_59
TIME_SHIFT_64ND_4
NOTE_OFF_55
TIME_SHIFT_64ND_5
VEL_2
NOTE_ON_67
TIME_SHIFT_64ND_1
NOTE_OFF_62
TIME_SHIFT_64ND_8
NOTE_OFF_67
VEL_3
NOTE_ON_79
VEL_2
NOTE_ON_58
VEL_2
NOTE_ON_49
TIME_SHIFT_64ND_1
NOTE_OFF_71
TIME_SHIFT_64ND_9
VEL_2
NOTE_ON_64
TIME_SHIFT_64ND_1
NOTE_OFF_58
TIME_SHIFT_64ND_4
NOTE_OFF_49
TIME_SHIFT_64ND_5
VEL_2
NOTE_ON_67
TIME_SHIFT_64ND_1
NOTE_OFF_64
TIME_SHIFT_64ND_9
NOTE_OFF_79
NOTE_OFF_67
VEL_3
NOTE_ON_78
VEL_2
NOTE_ON_57
VEL_2
NOTE_ON_50
TIME_SHIFT_64ND_9
VEL_2
NOTE_ON_62
TIME_SHIFT_64ND_1
NOTE_OFF_57
TIME_SHIFT_64ND_4
NOTE_OFF_50
TIME_SHIFT_64ND_5
VEL_1
NOTE_ON_66
TIME_SHIFT_64ND_1
NOTE_OFF_62
TIME_SHIFT_64ND_2
VEL_2
NOTE_ON_76
TIME_SHIFT_64ND_1
NOTE_OFF_78
TIME_SHIFT_64ND_6
NOTE_OFF_66
VEL_2
NOTE_ON_74
VEL_1
NOTE_ON_60
VEL_1
NOTE_ON_54
TIME_SHIFT_64ND_1
NOTE_OFF_76
TIME_SHIFT_64ND_9
VEL_1
NOTE_ON_62
TIME_SHIFT_64ND_1
NOTE_OFF_60
TIME_SHIFT_64ND_4
NOTE_OFF_54
TIME_SHIFT_64ND_5
VEL_1
NOTE_ON_69
TIME_SHIFT_64ND_1
NOTE_OFF_62
TIME_SHIFT_64ND_9
NOTE_OFF_74
NOTE_OFF_69
VEL_3
NOTE_ON_71
VEL_2
NOTE_ON_59
VEL_2
NOTE_ON_55
TIME_SHIFT_64ND_9
VEL_2
NOTE_ON_62
TIME_SHIFT_64ND_1
NOTE_OFF_59
TIME_SHIFT_64ND_4
NOTE_OFF_55
TIME_SHIFT_64ND_5
VEL_2
NOTE_ON_67
TIME_SHIFT_64ND_1
NOTE_OFF_62
TIME_SHIFT_64ND_9
NOTE_OFF_67
VEL_3
NOTE_ON_79
VEL_2
NOTE_ON_47
VEL_2
NOTE_ON_55
TIME_SHIFT_64ND_1
NOTE_OFF_71
TIME_SHIFT_64ND_9
VEL_2
NOTE_ON_62
TIME_SHIFT_64ND_5
NOTE_OFF_47
TIME_SHIFT_64ND_5
VEL_2
NOTE_ON_67
TIME_SHIFT_64ND_1
NOTE_OFF_62
TIME_SHIFT_64ND_9
NOTE_OFF_79
NOTE_OFF_67
VEL_3
NOTE_ON_76
VEL_2
NOTE_ON_48
TIME_SHIFT_64ND_9
NOTE_OFF_55
VEL_2
NOTE_ON_64
TIME_SHIFT_64ND_5
NOTE_OFF_48
TIME_SHIFT_64ND_5
VEL_2
NOTE_ON_67
TIME_SHIFT_64ND_1
NOTE_OFF_64
TIME_SHIFT_64ND_2
VEL_3
NOTE_ON_74
TIME_SHIFT_64ND_1
NOTE_OFF_76
TIME_SHIFT_64ND_6
NOTE_OFF_67
VEL_3
NOTE_ON_72
VEL_2
NOTE_ON_55
VEL_2
NOTE_ON_52
TIME_SHIFT_64ND_1
NOTE_OFF_74
TIME_SHIFT_64ND_9
VEL_2
NOTE_ON_60
TIME_SHIFT_64ND_1
NOTE_OFF_55
TIME_SHIFT_64ND_4
NOTE_OFF_52
TIME_SHIFT_64ND_5
VEL_2
NOTE_ON_67
TIME_SHIFT_64ND_1
NOTE_OFF_60
TIME_SHIFT_64ND_9
NOTE_OFF_72
NOTE_OFF_67
VEL_3
NOTE_ON_69
VEL_1
NOTE_ON_55
VEL_1
NOTE_ON_50
TIME_SHIFT_64ND_9
VEL_2
NOTE_ON_60
TIME_SHIFT_64ND_1
NOTE_OFF_55
TIME_SHIFT_64ND_4
NOTE_OFF_50
TIME_SHIFT_64ND_5
NOTE_OFF_60
VEL_1
NOTE_ON_67
TIME_SHIFT_64ND_10
NOTE_OFF_67
VEL_3
NOTE_ON_74
VEL_1
NOTE_ON_54
VEL_1
NOTE_ON_50
TIME_SHIFT_64ND_1
NOTE_OFF_69
TIME_SHIFT_64ND_9
VEL_1
NOTE_ON_60
TIME_SHIFT_64ND_1
NOTE_OFF_54
TIME_SHIFT_64ND_4
NOTE_OFF_50
TIME_SHIFT_64ND_5
NOTE_OFF_60
VEL_1
NOTE_ON_69
TIME_SHIFT_64ND_10
NOTE_OFF_74
NOTE_OFF_69
VEL_2
NOTE_ON_71
VEL_1
NOTE_ON_50
VEL_1
NOTE_ON_43
TIME_SHIFT_64ND_10
VEL_1
NOTE_ON_59
TIME_SHIFT_64ND_1
NOTE_OFF_50
TIME_SHIFT_64ND_4
NOTE_OFF_43
TIME_SHIFT_64ND_5
VEL_1
NOTE_ON_67
TIME_SHIFT_64ND_1
NOTE_OFF_59
TIME_SHIFT_64ND_9
NOTE_OFF_67
VEL_1
NOTE_ON_55
TIME_SHIFT_64ND_10
VEL_1
NOTE_ON_59
TIME_SHIFT_64ND_5
NOTE_OFF_55
TIME_SHIFT_64ND_5
VEL_1
NOTE_ON_67
TIME_SHIFT_64ND_1
NOTE_OFF_59
TIME_SHIFT_64ND_10
NOTE_OFF_71
NOTE_OFF_67
VEL_3
NOTE_ON_71
VEL_2
NOTE_ON_59
VEL_2
NOTE_ON_55
TIME_SHIFT_64ND_9
VEL_2
NOTE_ON_62
TIME_SHIFT_64ND_1
NOTE_OFF_59
TIME_SHIFT_64ND_4
NOTE_OFF_55
TIME_SHIFT_64ND_5
VEL_2
NOTE_ON_67
TIME_SHIFT_64ND_1
NOTE_OFF_62
TIME_SHIFT_64ND_8
NOTE_OFF_67
VEL_3
NOTE_ON_79
VEL_2
NOTE_ON_58
VEL_2
NOTE_ON_49
TIME_SHIFT_64ND_1
NOTE_OFF_71
TIME_SHIFT_64ND_9
NOTE_OFF_58
VEL_2
NOTE_ON_64
TIME_SHIFT_64ND_5
NOTE_OFF_49
TIME_SHIFT_64ND_5
VEL_2
NOTE_ON_67
TIME_SHIFT_64ND_1
NOTE_OFF_64
TIME_SHIFT_64ND_9
NOTE_OFF_79
NOTE_OFF_67
VEL_3
NOTE_ON_78
VEL_2
NOTE_ON_57
VEL_2
NOTE_ON_50
TIME_SHIFT_64ND_10
VEL_2
NOTE_ON_62
TIME_SHIFT_64ND_1
NOTE_OFF_57
TIME_SHIFT_64ND_4
NOTE_OFF_50
TIME_SHIFT_64ND_5
VEL_1
NOTE_ON_66
TIME_SHIFT_64ND_1
NOTE_OFF_62
TIME_SHIFT_64ND_2
VEL_2
NOTE_ON_76
TIME_SHIFT_64ND_1
NOTE_OFF_78
TIME_SHIFT_64ND_6
NOTE_OFF_66
VEL_2
NOTE_ON_74
VEL_1
NOTE_ON_60
VEL_1
NOTE_ON_54
TIME_SHIFT_64ND_1
NOTE_OFF_76
TIME_SHIFT_64ND_9
VEL_1
NOTE_ON_62
TIME_SHIFT_64ND_1
NOTE_OFF_60
TIME_SHIFT_64ND_4
NOTE_OFF_54
TIME_SHIFT_64ND_5
VEL_1
NOTE_ON_69
TIME_SHIFT_64ND_1
NOTE_OFF_62
TIME_SHIFT_64ND_8
NOTE_OFF_74
NOTE_OFF_69
VEL_3
NOTE_ON_71
VEL_2
NOTE_ON_59
VEL_2
NOTE_ON_55
TIME_SHIFT_64ND_9
VEL_2
NOTE_ON_62
TIME_SHIFT_64ND_1
NOTE_OFF_59
TIME_SHIFT_64ND_4
NOTE_OFF_55
TIME_SHIFT_64ND_5
VEL_2
NOTE_ON_67
TIME_SHIFT_64ND_1
NOTE_OFF_62
TIME_SHIFT_64ND_8
NOTE_OFF_67
VEL_3
NOTE_ON_79
VEL_2
NOTE_ON_58
VEL_2
NOTE_ON_49
TIME_SHIFT_64ND_1
NOTE_OFF_71
TIME_SHIFT_64ND_9
VEL_2
NOTE_ON_64
TIME_SHIFT_64ND_1
NOTE_OFF_58
TIME_SHIFT_64ND_4
NOTE_OFF_49
TIME_SHIFT_64ND_5
VEL_2
NOTE_ON_67
TIME_SHIFT_64ND_1
NOTE_OFF_64
TIME_SHIFT_64ND_9
NOTE_OFF_79
NOTE_OFF_67
VEL_3
NOTE_ON_78
VEL_2
NOTE_ON_57
VEL_2
NOTE_ON_50
TIME_SHIFT_64ND_9
VEL_2
NOTE_ON_62
TIME_SHIFT_64ND_1
NOTE_OFF_57
TIME_SHIFT_64ND_4
NOTE_OFF_50
TIME_SHIFT_64ND_5
VEL_1
NOTE_ON_66
TIME_SHIFT_64ND_1
NOTE_OFF_62
TIME_SHIFT_64ND_2
VEL_2
NOTE_ON_76
TIME_SHIFT_64ND_1
NOTE_OFF_78
TIME_SHIFT_64ND_6
NOTE_OFF_66
VEL_2
NOTE_ON_74
VEL_1
NOTE_ON_60
VEL_1
NOTE_ON_54
TIME_SHIFT_64ND_1
NOTE_OFF_76
TIME_SHIFT_64ND_9
VEL_1
NOTE_ON_62
TIME_SHIFT_64ND_1
NOTE_OFF_60
TIME_SHIFT_64ND_4
NOTE_OFF_54
TIME_SHIFT_64ND_5
VEL_1
NOTE_ON_69
TIME_SHIFT_64ND_1
NOTE_OFF_62
TIME_SHIFT_64ND_9
NOTE_OFF_74
NOTE_OFF_69
VEL_3
NOTE_ON_71
VEL_2
NOTE_ON_59
VEL_2
NOTE_ON_55
TIME_SHIFT_64ND_9
VEL_2
NOTE_ON_62
TIME_SHIFT_64ND_1
NOTE_OFF_59
TIME_SHIFT_64ND_4
NOTE_OFF_55
TIME_SHIFT_64ND_5
VEL_2
NOTE_ON_67
TIME_SHIFT_64ND_1
NOTE_OFF_62
TIME_SHIFT_64ND_9
NOTE_OFF_67
VEL_3
NOTE_ON_79
VEL_2
NOTE_ON_47
VEL_2
NOTE_ON_55
TIME_SHIFT_64ND_1
NOTE_OFF_71
TIME_SHIFT_64ND_9
VEL_2
NOTE_ON_62
TIME_SHIFT_64ND_5
NOTE_OFF_47
TIME_SHIFT_64ND_5
VEL_2
NOTE_ON_67
TIME_SHIFT_64ND_1
NOTE_OFF_62
TIME_SHIFT_64ND_9
NOTE_OFF_79
NOTE_OFF_67
VEL_3
NOTE_ON_76
VEL_2
NOTE_ON_48
TIME_SHIFT_64ND_9
NOTE_OFF_55
VEL_2
NOTE_ON_64
TIME_SHIFT_64ND_5
NOTE_OFF_48
TIME_SHIFT_64ND_5
VEL_2
NOTE_ON_67
TIME_SHIFT_64ND_1
NOTE_OFF_64
TIME_SHIFT_64ND_2
VEL_3
NOTE_ON_74
TIME_SHIFT_64ND_1
NOTE_OFF_76
TIME_SHIFT_64ND_6
NOTE_OFF_67
VEL_3
NOTE_ON_72
VEL_2
NOTE_ON_55
VEL_2
NOTE_ON_52
TIME_SHIFT_64ND_1
NOTE_OFF_74
TIME_SHIFT_64ND_9
VEL_2
NOTE_ON_60
TIME_SHIFT_64ND_1
NOTE_OFF_55
TIME_SHIFT_64ND_4
NOTE_OFF_52
TIME_SHIFT_64ND_5
VEL_2
NOTE_ON_67
TIME_SHIFT_64ND_1
NOTE_OFF_60
TIME_SHIFT_64ND_9
NOTE_OFF_72
NOTE_OFF_67
VEL_3
NOTE_ON_69
VEL_1
NOTE_ON_55
VEL_1
NOTE_ON_50
TIME_SHIFT_64ND_9
VEL_2
NOTE_ON_60
TIME_SHIFT_64ND_1
NOTE_OFF_55
TIME_SHIFT_64ND_4
NOTE_OFF_50
TIME_SHIFT_64ND_5
VEL_1
NOTE_ON_67
TIME_SHIFT_64ND_1
NOTE_OFF_60
TIME_SHIFT_64ND_9
NOTE_OFF_67
VEL_3
NOTE_ON_74
VEL_1
NOTE_ON_54
VEL_1
NOTE_ON_50
TIME_SHIFT_64ND_1
NOTE_OFF_69
TIME_SHIFT_64ND_10
VEL_1
NOTE_ON_60
TIME_SHIFT_64ND_1
NOTE_OFF_54
TIME_SHIFT_64ND_4
NOTE_OFF_50
TIME_SHIFT_64ND_5
VEL_1
NOTE_ON_69
TIME_SHIFT_64ND_1
NOTE_OFF_60
TIME_SHIFT_64ND_10
NOTE_OFF_74
NOTE_OFF_69
VEL_2
NOTE_ON_71
VEL_1
NOTE_ON_50
VEL_1
NOTE_ON_43
TIME_SHIFT_64ND_10
VEL_1
NOTE_ON_59
TIME_SHIFT_64ND_1
NOTE_OFF_50
TIME_SHIFT_64ND_4
NOTE_OFF_43
TIME_SHIFT_64ND_5
VEL_1
NOTE_ON_67
TIME_SHIFT_64ND_1
NOTE_OFF_59
TIME_SHIFT_64ND_9
NOTE_OFF_67
VEL_1
NOTE_ON_55
TIME_SHIFT_64ND_10
VEL_1
NOTE_ON_59
TIME_SHIFT_64ND_5
NOTE_OFF_55
TIME_SHIFT_64ND_5
VEL_1
NOTE_ON_67
TIME_SHIFT_64ND_1
NOTE_OFF_59
TIME_SHIFT_64ND_9
NOTE_OFF_67
NOTE_OFF_71
VEL_3
NOTE_ON_71
VEL_3
NOTE_ON_67
VEL_2
NOTE_ON_52
TIME_SHIFT_64ND_9
VEL_2
NOTE_ON_59
TIME_SHIFT_64ND_9
VEL_2
NOTE_ON_64
TIME_SHIFT_64ND_1
NOTE_OFF_59
TIME_SHIFT_64ND_9
NOTE_OFF_64
NOTE_OFF_52
VEL_3
NOTE_ON_69
VEL_3
NOTE_ON_72
VEL_2
NOTE_ON_45
TIME_SHIFT_64ND_1
NOTE_OFF_71
NOTE_OFF_67
TIME_SHIFT_64ND_9
VEL_2
NOTE_ON_57
TIME_SHIFT_64ND_9
VEL_2
NOTE_ON_64
TIME_SHIFT_64ND_1
NOTE_OFF_57
TIME_SHIFT_64ND_9
NOTE_OFF_69
NOTE_OFF_72
NOTE_OFF_64
NOTE_OFF_45
VEL_3
NOTE_ON_69
VEL_3
NOTE_ON_66
VEL_2
NOTE_ON_50
TIME_SHIFT_64ND_9
VEL_2
NOTE_ON_57
TIME_SHIFT_64ND_9
VEL_2
NOTE_ON_62
TIME_SHIFT_64ND_1
NOTE_OFF_57
TIME_SHIFT_64ND_2
NOTE_OFF_50
VEL_2
NOTE_ON_48
TIME_SHIFT_64ND_7
NOTE_OFF_48
NOTE_OFF_62
VEL_3
NOTE_ON_67
VEL_3
NOTE_ON_71
VEL_2
NOTE_ON_47
TIME_SHIFT_64ND_1
NOTE_OFF_69
NOTE_OFF_66
TIME_SHIFT_64ND_9
VEL_2
NOTE_ON_55
TIME_SHIFT_64ND_9
VEL_2
NOTE_ON_62
TIME_SHIFT_64ND_1
NOTE_OFF_55
TIME_SHIFT_64ND_9
NOTE_OFF_67
NOTE_OFF_71
NOTE_OFF_62
NOTE_OFF_47
VEL_3
NOTE_ON_64
VEL_3
NOTE_ON_67
VEL_1
NOTE_ON_48
TIME_SHIFT_64ND_9
VEL_1
NOTE_ON_55
TIME_SHIFT_64ND_9
VEL_1
NOTE_ON_60
TIME_SHIFT_64ND_1
NOTE_OFF_55
TIME_SHIFT_64ND_9
NOTE_OFF_64
NOTE_OFF_60
NOTE_OFF_48
VEL_2
NOTE_ON_69
VEL_2
NOTE_ON_64
VEL_1
NOTE_ON_42
TIME_SHIFT_64ND_1
NOTE_OFF_67
TIME_SHIFT_64ND_9
VEL_1
NOTE_ON_54
TIME_SHIFT_64ND_9
VEL_1
NOTE_ON_60
TIME_SHIFT_64ND_1
NOTE_OFF_54
TIME_SHIFT_64ND_9
NOTE_OFF_69
NOTE_OFF_64
NOTE_OFF_60
NOTE_OFF_42
VEL_2
NOTE_ON_66
VEL_2
NOTE_ON_63
VEL_1
NOTE_ON_47
TIME_SHIFT_64ND_10
VEL_2
NOTE_ON_54
TIME_SHIFT_64ND_10
VEL_2
NOTE_ON_59
TIME_SHIFT_64ND_1
NOTE_OFF_54
TIME_SHIFT_64ND_2
NOTE_OFF_47
VEL_2
NOTE_ON_45
TIME_SHIFT_64ND_7
NOTE_OFF_66
NOTE_OFF_63
NOTE_OFF_45
NOTE_OFF_59
VEL_2
NOTE_ON_67
VEL_2
NOTE_ON_62
VEL_1
NOTE_ON_43
TIME_SHIFT_64ND_9
VEL_1
NOTE_ON_55
TIME_SHIFT_64ND_9
VEL_1
NOTE_ON_59
TIME_SHIFT_64ND_1
NOTE_OFF_55
TIME_SHIFT_64ND_9
NOTE_OFF_67
NOTE_OFF_62
NOTE_OFF_59
NOTE_OFF_43
VEL_3
NOTE_ON_64
VEL_1
NOTE_ON_48
TIME_SHIFT_64ND_9
VEL_1
NOTE_ON_55
TIME_SHIFT_64ND_9
VEL_1
NOTE_ON_60
TIME_SHIFT_64ND_1
NOTE_OFF_55
TIME_SHIFT_64ND_9
NOTE_OFF_60
NOTE_OFF_48
VEL_3
NOTE_ON_66
VEL_1
NOTE_ON_50
VEL_1
NOTE_ON_48
TIME_SHIFT_64ND_1
NOTE_OFF_64
TIME_SHIFT_64ND_9
VEL_1
NOTE_ON_57
TIME_SHIFT_64ND_1
NOTE_OFF_50
TIME_SHIFT_64ND_9
VEL_1
NOTE_ON_62
TIME_SHIFT_64ND_1
NOTE_OFF_57
TIME_SHIFT_64ND_9
NOTE_OFF_66
NOTE_OFF_62
NOTE_OFF_48
VEL_3
NOTE_ON_67
VEL_1
NOTE_ON_47
VEL_1
NOTE_ON_50
TIME_SHIFT_64ND_9
VEL_2
NOTE_ON_55
TIME_SHIFT_64ND_9
NOTE_OFF_55
VEL_2
NOTE_ON_62
TIME_SHIFT_64ND_2
NOTE_OFF_47
VEL_3
NOTE_ON_69
VEL_2
NOTE_ON_45
TIME_SHIFT_64ND_1
NOTE_OFF_67
TIME_SHIFT_64ND_7
NOTE_OFF_45
NOTE_OFF_62
VEL_3
NOTE_ON_71
VEL_1
NOTE_ON_43
TIME_SHIFT_64ND_1
NOTE_OFF_69
TIME_SHIFT_64ND_16
VEL_1
NOTE_ON_57
TIME_SHIFT_64ND_11
VEL_1
NOTE_ON_62
TIME_SHIFT_64ND_3
VEL_2
NOTE_ON_72
TIME_SHIFT_64ND_1
NOTE_OFF_71
TIME_SHIFT_64ND_7
NOTE_OFF_72
NOTE_OFF_62
NOTE_OFF_50
NOTE_OFF_43
NOTE_OFF_57
VEL_2
NOTE_ON_74
VEL_2
NOTE_ON_59
VEL_2
NOTE_ON_55
TIME_SHIFT_64ND_9
VEL_2
NOTE_ON_62
TIME_SHIFT_64ND_1
NOTE_OFF_59
TIME_SHIFT_64ND_4
NOTE_OFF_55
TIME_SHIFT_64ND_5
VEL_2
NOTE_ON_67
TIME_SHIFT_64ND_1
NOTE_OFF_62
TIME_SHIFT_64ND_8
NOTE_OFF_67
VEL_3
NOTE_ON_79
VEL_2
NOTE_ON_58
VEL_2
NOTE_ON_49
TIME_SHIFT_64ND_1
NOTE_OFF_74
TIME_SHIFT_64ND_9
VEL_2
NOTE_ON_64
TIME_SHIFT_64ND_1
NOTE_OFF_58
TIME_SHIFT_64ND_4
NOTE_OFF_49
TIME_SHIFT_64ND_5
VEL_2
NOTE_ON_67
TIME_SHIFT_64ND_1
NOTE_OFF_64
TIME_SHIFT_64ND_8
NOTE_OFF_79
NOTE_OFF_67
VEL_3
NOTE_ON_78
VEL_2
NOTE_ON_57
VEL_2
NOTE_ON_50
TIME_SHIFT_64ND_9
VEL_2
NOTE_ON_62
TIME_SHIFT_64ND_1
NOTE_OFF_57
TIME_SHIFT_64ND_4
NOTE_OFF_50
TIME_SHIFT_64ND_5
VEL_1
NOTE_ON_66
TIME_SHIFT_64ND_1
NOTE_OFF_62
TIME_SHIFT_64ND_2
VEL_2
NOTE_ON_76
TIME_SHIFT_64ND_1
NOTE_OFF_78
TIME_SHIFT_64ND_6
NOTE_OFF_66
VEL_2
NOTE_ON_74
VEL_1
NOTE_ON_60
VEL_1
NOTE_ON_54
TIME_SHIFT_64ND_1
NOTE_OFF_76
TIME_SHIFT_64ND_9
VEL_1
NOTE_ON_62
TIME_SHIFT_64ND_1
NOTE_OFF_60
TIME_SHIFT_64ND_4
NOTE_OFF_54
TIME_SHIFT_64ND_5
VEL_1
NOTE_ON_69
TIME_SHIFT_64ND_1
NOTE_OFF_62
TIME_SHIFT_64ND_8
NOTE_OFF_74
NOTE_OFF_69
VEL_3
NOTE_ON_71
VEL_2
NOTE_ON_59
VEL_2
NOTE_ON_55
TIME_SHIFT_64ND_9
VEL_2
NOTE_ON_62
TIME_SHIFT_64ND_1
NOTE_OFF_59
TIME_SHIFT_64ND_4
NOTE_OFF_55
TIME_SHIFT_64ND_5
VEL_2
NOTE_ON_67
TIME_SHIFT_64ND_1
NOTE_OFF_62
TIME_SHIFT_64ND_8
NOTE_OFF_67
VEL_3
NOTE_ON_79
VEL_2
NOTE_ON_58
VEL_2
NOTE_ON_49
TIME_SHIFT_64ND_1
NOTE_OFF_71
TIME_SHIFT_64ND_9
VEL_2
NOTE_ON_64
TIME_SHIFT_64ND_1
NOTE_OFF_58
TIME_SHIFT_64ND_4
NOTE_OFF_49
TIME_SHIFT_64ND_5
VEL_2
NOTE_ON_67
TIME_SHIFT_64ND_1
NOTE_OFF_64
TIME_SHIFT_64ND_8
NOTE_OFF_79
NOTE_OFF_67
VEL_3
NOTE_ON_78
VEL_2
NOTE_ON_57
VEL_2
NOTE_ON_50
TIME_SHIFT_64ND_9
VEL_2
NOTE_ON_62
TIME_SHIFT_64ND_1
NOTE_OFF_57
TIME_SHIFT_64ND_4
NOTE_OFF_50
TIME_SHIFT_64ND_4
VEL_1
NOTE_ON_66
TIME_SHIFT_64ND_1
NOTE_OFF_62
TIME_SHIFT_64ND_2
VEL_2
NOTE_ON_76
TIME_SHIFT_64ND_1
NOTE_OFF_78
TIME_SHIFT_64ND_6
NOTE_OFF_66
VEL_2
NOTE_ON_74
VEL_1
NOTE_ON_60
VEL_1
NOTE_ON_54
TIME_SHIFT_64ND_1
NOTE_OFF_76
TIME_SHIFT_64ND_9
VEL_1
NOTE_ON_62
TIME_SHIFT_64ND_1
NOTE_OFF_60
TIME_SHIFT_64ND_4
NOTE_OFF_54
TIME_SHIFT_64ND_5
VEL_1
NOTE_ON_69
TIME_SHIFT_64ND_1
NOTE_OFF_62
TIME_SHIFT_64ND_9
NOTE_OFF_74
NOTE_OFF_69
VEL_3
NOTE_ON_71
VEL_2
NOTE_ON_59
VEL_2
NOTE_ON_55
TIME_SHIFT_64ND_9
VEL_2
NOTE_ON_62
TIME_SHIFT_64ND_1
NOTE_OFF_59
TIME_SHIFT_64ND_4
NOTE_OFF_55
TIME_SHIFT_64ND_5
VEL_2
NOTE_ON_67
TIME_SHIFT_64ND_1
NOTE_OFF_62
TIME_SHIFT_64ND_9
NOTE_OFF_67
VEL_3
NOTE_ON_79
VEL_2
NOTE_ON_47
VEL_2
NOTE_ON_55
TIME_SHIFT_64ND_1
NOTE_OFF_71
TIME_SHIFT_64ND_9
VEL_2
NOTE_ON_62
TIME_SHIFT_64ND_5
NOTE_OFF_47
TIME_SHIFT_64ND_5
VEL_2
NOTE_ON_67
TIME_SHIFT_64ND_1
NOTE_OFF_62
TIME_SHIFT_64ND_9
NOTE_OFF_79
NOTE_OFF_67
VEL_3
NOTE_ON_76
VEL_2
NOTE_ON_48
TIME_SHIFT_64ND_9
NOTE_OFF_55
VEL_2
NOTE_ON_64
TIME_SHIFT_64ND_5
NOTE_OFF_48
TIME_SHIFT_64ND_5
VEL_2
NOTE_ON_67
TIME_SHIFT_64ND_1
NOTE_OFF_64
TIME_SHIFT_64ND_2
VEL_3
NOTE_ON_74
TIME_SHIFT_64ND_1
NOTE_OFF_76
TIME_SHIFT_64ND_6
NOTE_OFF_67
VEL_3
NOTE_ON_72
VEL_2
NOTE_ON_55
VEL_2
NOTE_ON_52
TIME_SHIFT_64ND_1
NOTE_OFF_74
TIME_SHIFT_64ND_9
VEL_2
NOTE_ON_60
TIME_SHIFT_64ND_1
NOTE_OFF_55
TIME_SHIFT_64ND_4
NOTE_OFF_52
TIME_SHIFT_64ND_5
VEL_2
NOTE_ON_67
TIME_SHIFT_64ND_1
NOTE_OFF_60
TIME_SHIFT_64ND_9
NOTE_OFF_72
NOTE_OFF_67
VEL_3
NOTE_ON_69
VEL_1
NOTE_ON_55
VEL_1
NOTE_ON_50
TIME_SHIFT_64ND_9
VEL_2
NOTE_ON_60
TIME_SHIFT_64ND_1
NOTE_OFF_55
TIME_SHIFT_64ND_4
NOTE_OFF_50
TIME_SHIFT_64ND_5
VEL_1
NOTE_ON_67
TIME_SHIFT_64ND_1
NOTE_OFF_60
TIME_SHIFT_64ND_9
NOTE_OFF_67
VEL_3
NOTE_ON_74
VEL_1
NOTE_ON_54
VEL_1
NOTE_ON_50
TIME_SHIFT_64ND_1
NOTE_OFF_69
TIME_SHIFT_64ND_9
VEL_1
NOTE_ON_60
TIME_SHIFT_64ND_1
NOTE_OFF_54
TIME_SHIFT_64ND_4
NOTE_OFF_50
TIME_SHIFT_64ND_5
VEL_1
NOTE_ON_69
TIME_SHIFT_64ND_1
NOTE_OFF_60
TIME_SHIFT_64ND_10
NOTE_OFF_74
NOTE_OFF_69
VEL_2
NOTE_ON_71
VEL_1
NOTE_ON_50
VEL_1
NOTE_ON_43
TIME_SHIFT_64ND_10
VEL_1
NOTE_ON_59
TIME_SHIFT_64ND_10
VEL_1
NOTE_ON_67
TIME_SHIFT_64ND_10
NOTE_OFF_67
TIME_SHIFT_64ND_10
NOTE_OFF_59
VEL_1
NOTE_ON_59
TIME_SHIFT_64ND_10
NOTE_OFF_59
VEL_1
NOTE_ON_67
TIME_SHIFT_64ND_12
NOTE_OFF_67
NOTE_OFF_71
NOTE_OFF_50
NOTE_OFF_43
VEL_3
NOTE_ON_71
VEL_3
NOTE_ON_67
VEL_2
NOTE_ON_52
TIME_SHIFT_64ND_9
VEL_2
NOTE_ON_59
TIME_SHIFT_64ND_9
VEL_2
NOTE_ON_64
TIME_SHIFT_64ND_1
NOTE_OFF_59
TIME_SHIFT_64ND_9
NOTE_OFF_64
NOTE_OFF_52
VEL_3
NOTE_ON_69
VEL_3
NOTE_ON_72
VEL_2
NOTE_ON_45
TIME_SHIFT_64ND_1
NOTE_OFF_71
NOTE_OFF_67
TIME_SHIFT_64ND_9
VEL_2
NOTE_ON_57
TIME_SHIFT_64ND_9
VEL_2
NOTE_ON_64
TIME_SHIFT_64ND_1
NOTE_OFF_57
TIME_SHIFT_64ND_9
NOTE_OFF_69
NOTE_OFF_72
NOTE_OFF_64
NOTE_OFF_45
VEL_3
NOTE_ON_69
VEL_3
NOTE_ON_66
VEL_2
NOTE_ON_50
TIME_SHIFT_64ND_9
VEL_2
NOTE_ON_57
TIME_SHIFT_64ND_9
VEL_2
NOTE_ON_62
TIME_SHIFT_64ND_1
NOTE_OFF_57
TIME_SHIFT_64ND_2
NOTE_OFF_50
VEL_3
NOTE_ON_48
TIME_SHIFT_64ND_7
NOTE_OFF_48
NOTE_OFF_62
VEL_3
NOTE_ON_67
VEL_3
NOTE_ON_71
VEL_2
NOTE_ON_47
TIME_SHIFT_64ND_1
NOTE_OFF_69
NOTE_OFF_66
TIME_SHIFT_64ND_9
VEL_2
NOTE_ON_55
TIME_SHIFT_64ND_9
VEL_2
NOTE_ON_62
TIME_SHIFT_64ND_1
NOTE_OFF_55
TIME_SHIFT_64ND_9
NOTE_OFF_67
NOTE_OFF_71
NOTE_OFF_62
NOTE_OFF_47
VEL_3
NOTE_ON_64
VEL_3
NOTE_ON_67
VEL_1
NOTE_ON_48
TIME_SHIFT_64ND_9
VEL_1
NOTE_ON_55
TIME_SHIFT_64ND_9
VEL_1
NOTE_ON_60
TIME_SHIFT_64ND_1
NOTE_OFF_55
TIME_SHIFT_64ND_9
NOTE_OFF_64
NOTE_OFF_60
NOTE_OFF_48
VEL_2
NOTE_ON_69
VEL_2
NOTE_ON_64
VEL_1
NOTE_ON_42
TIME_SHIFT_64ND_1
NOTE_OFF_67
TIME_SHIFT_64ND_9
VEL_1
NOTE_ON_54
TIME_SHIFT_64ND_9
VEL_1
NOTE_ON_60
TIME_SHIFT_64ND_1
NOTE_OFF_54
TIME_SHIFT_64ND_9
NOTE_OFF_69
NOTE_OFF_64
NOTE_OFF_60
NOTE_OFF_42
VEL_2
NOTE_ON_66
VEL_2
NOTE_ON_63
VEL_1
NOTE_ON_47
TIME_SHIFT_64ND_10
VEL_2
NOTE_ON_54
TIME_SHIFT_64ND_10
VEL_2
NOTE_ON_59
TIME_SHIFT_64ND_1
NOTE_OFF_54
TIME_SHIFT_64ND_2
NOTE_OFF_47
VEL_2
NOTE_ON_45
TIME_SHIFT_64ND_7
NOTE_OFF_66
NOTE_OFF_63
NOTE_OFF_45
NOTE_OFF_59
VEL_2
NOTE_ON_67
VEL_2
NOTE_ON_62
VEL_1
NOTE_ON_43
TIME_SHIFT_64ND_9
VEL_1
NOTE_ON_55
TIME_SHIFT_64ND_9
VEL_1
NOTE_ON_59
TIME_SHIFT_64ND_1
NOTE_OFF_55
TIME_SHIFT_64ND_9
NOTE_OFF_67
NOTE_OFF_62
NOTE_OFF_59
NOTE_OFF_43
VEL_3
NOTE_ON_64
VEL_1
NOTE_ON_48
TIME_SHIFT_64ND_9
VEL_1
NOTE_ON_55
TIME_SHIFT_64ND_9
VEL_1
NOTE_ON_60
TIME_SHIFT_64ND_1
NOTE_OFF_55
TIME_SHIFT_64ND_9
NOTE_OFF_60
NOTE_OFF_48
VEL_3
NOTE_ON_66
VEL_1
NOTE_ON_50
VEL_1
NOTE_ON_48
TIME_SHIFT_64ND_1
NOTE_OFF_64
TIME_SHIFT_64ND_9
VEL_1
NOTE_ON_57
TIME_SHIFT_64ND_1
NOTE_OFF_50
TIME_SHIFT_64ND_9
VEL_1
NOTE_ON_62
TIME_SHIFT_64ND_1
NOTE_OFF_57
TIME_SHIFT_64ND_9
NOTE_OFF_66
NOTE_OFF_62
NOTE_OFF_48
VEL_3
NOTE_ON_67
VEL_1
NOTE_ON_47
VEL_1
NOTE_ON_50
TIME_SHIFT_64ND_9
VEL_2
NOTE_ON_55
TIME_SHIFT_64ND_9
NOTE_OFF_55
VEL_2
NOTE_ON_62
TIME_SHIFT_64ND_2
NOTE_OFF_47
VEL_3
NOTE_ON_69
VEL_2
NOTE_ON_45
TIME_SHIFT_64ND_1
NOTE_OFF_67
TIME_SHIFT_64ND_7
NOTE_OFF_69
NOTE_OFF_45
NOTE_OFF_62
VEL_3
NOTE_ON_71
VEL_1
NOTE_ON_43
TIME_SHIFT_64ND_17
VEL_1
NOTE_ON_57
TIME_SHIFT_64ND_11
VEL_1
NOTE_ON_62
TIME_SHIFT_64ND_3
VEL_2
NOTE_ON_72
TIME_SHIFT_64ND_1
NOTE_OFF_71
TIME_SHIFT_64ND_7
NOTE_OFF_72
NOTE_OFF_62
NOTE_OFF_50
NOTE_OFF_43
NOTE_OFF_57
VEL_2
NOTE_ON_74
VEL_2
NOTE_ON_59
VEL_2
NOTE_ON_55
TIME_SHIFT_64ND_9
VEL_2
NOTE_ON_62
TIME_SHIFT_64ND_1
NOTE_OFF_59
TIME_SHIFT_64ND_4
NOTE_OFF_55
TIME_SHIFT_64ND_5
VEL_2
NOTE_ON_67
TIME_SHIFT_64ND_1
NOTE_OFF_62
TIME_SHIFT_64ND_8
NOTE_OFF_67
VEL_3
NOTE_ON_79
VEL_2
NOTE_ON_58
VEL_2
NOTE_ON_49
TIME_SHIFT_64ND_1
NOTE_OFF_74
TIME_SHIFT_64ND_9
VEL_2
NOTE_ON_64
TIME_SHIFT_64ND_1
NOTE_OFF_58
TIME_SHIFT_64ND_4
NOTE_OFF_49
TIME_SHIFT_64ND_5
VEL_2
NOTE_ON_67
TIME_SHIFT_64ND_1
NOTE_OFF_64
TIME_SHIFT_64ND_8
NOTE_OFF_79
NOTE_OFF_67
VEL_3
NOTE_ON_78
VEL_2
NOTE_ON_57
VEL_2
NOTE_ON_50
TIME_SHIFT_64ND_10
VEL_2
NOTE_ON_62
TIME_SHIFT_64ND_1
NOTE_OFF_57
TIME_SHIFT_64ND_4
NOTE_OFF_50
TIME_SHIFT_64ND_5
VEL_1
NOTE_ON_66
TIME_SHIFT_64ND_1
NOTE_OFF_62
TIME_SHIFT_64ND_2
VEL_2
NOTE_ON_76
TIME_SHIFT_64ND_1
NOTE_OFF_78
TIME_SHIFT_64ND_6
NOTE_OFF_66
VEL_2
NOTE_ON_74
VEL_1
NOTE_ON_60
VEL_1
NOTE_ON_54
TIME_SHIFT_64ND_1
NOTE_OFF_76
TIME_SHIFT_64ND_9
VEL_1
NOTE_ON_62
TIME_SHIFT_64ND_1
NOTE_OFF_60
TIME_SHIFT_64ND_4
NOTE_OFF_54
TIME_SHIFT_64ND_5
VEL_1
NOTE_ON_69
TIME_SHIFT_64ND_1
NOTE_OFF_62
TIME_SHIFT_64ND_8
NOTE_OFF_74
NOTE_OFF_69
VEL_3
NOTE_ON_71
VEL_2
NOTE_ON_59
VEL_2
NOTE_ON_55
TIME_SHIFT_64ND_9
VEL_2
NOTE_ON_62
TIME_SHIFT_64ND_1
NOTE_OFF_59
TIME_SHIFT_64ND_4
NOTE_OFF_55
TIME_SHIFT_64ND_5
VEL_2
NOTE_ON_67
TIME_SHIFT_64ND_1
NOTE_OFF_62
TIME_SHIFT_64ND_8
NOTE_OFF_67
VEL_3
NOTE_ON_79
VEL_2
NOTE_ON_58
VEL_2
NOTE_ON_49
TIME_SHIFT_64ND_1
NOTE_OFF_71
TIME_SHIFT_64ND_9
VEL_2
NOTE_ON_64
TIME_SHIFT_64ND_1
NOTE_OFF_58
TIME_SHIFT_64ND_4
NOTE_OFF_49
TIME_SHIFT_64ND_5
VEL_2
NOTE_ON_67
TIME_SHIFT_64ND_1
NOTE_OFF_64
TIME_SHIFT_64ND_8
NOTE_OFF_79
NOTE_OFF_67
VEL_3
NOTE_ON_78
VEL_2
NOTE_ON_57
VEL_2
NOTE_ON_50
TIME_SHIFT_64ND_9
VEL_2
NOTE_ON_62
TIME_SHIFT_64ND_1
NOTE_OFF_57
TIME_SHIFT_64ND_4
NOTE_OFF_50
TIME_SHIFT_64ND_5
VEL_1
NOTE_ON_66
TIME_SHIFT_64ND_1
NOTE_OFF_62
TIME_SHIFT_64ND_2
VEL_2
NOTE_ON_76
TIME_SHIFT_64ND_1
NOTE_OFF_78
TIME_SHIFT_64ND_6
NOTE_OFF_66
VEL_2
NOTE_ON_74
VEL_1
NOTE_ON_60
VEL_1
NOTE_ON_54
TIME_SHIFT_64ND_1
NOTE_OFF_76
TIME_SHIFT_64ND_9
VEL_1
NOTE_ON_62
TIME_SHIFT_64ND_1
NOTE_OFF_60
TIME_SHIFT_64ND_4
NOTE_OFF_54
TIME_SHIFT_64ND_5
VEL_1
NOTE_ON_69
TIME_SHIFT_64ND_1
NOTE_OFF_62
TIME_SHIFT_64ND_9
NOTE_OFF_74
NOTE_OFF_69
VEL_3
NOTE_ON_71
VEL_2
NOTE_ON_59
VEL_2
NOTE_ON_55
TIME_SHIFT_64ND_9
VEL_2
NOTE_ON_62
TIME_SHIFT_64ND_1
NOTE_OFF_59
TIME_SHIFT_64ND_4
NOTE_OFF_55
TIME_SHIFT_64ND_5
VEL_2
NOTE_ON_67
TIME_SHIFT_64ND_1
NOTE_OFF_62
TIME_SHIFT_64ND_9
NOTE_OFF_67
VEL_3
NOTE_ON_79
VEL_2
NOTE_ON_47
VEL_2
NOTE_ON_55
TIME_SHIFT_64ND_1
NOTE_OFF_71
TIME_SHIFT_64ND_9
VEL_2
NOTE_ON_62
TIME_SHIFT_64ND_5
NOTE_OFF_47
TIME_SHIFT_64ND_5
VEL_2
NOTE_ON_67
TIME_SHIFT_64ND_1
NOTE_OFF_62
TIME_SHIFT_64ND_9
NOTE_OFF_79
NOTE_OFF_67
VEL_3
NOTE_ON_76
VEL_2
NOTE_ON_48
TIME_SHIFT_64ND_10
NOTE_OFF_55
VEL_2
NOTE_ON_64
TIME_SHIFT_64ND_5
NOTE_OFF_48
TIME_SHIFT_64ND_5
VEL_2
NOTE_ON_67
TIME_SHIFT_64ND_1
NOTE_OFF_64
TIME_SHIFT_64ND_2
VEL_3
NOTE_ON_74
TIME_SHIFT_64ND_1
NOTE_OFF_76
TIME_SHIFT_64ND_6
NOTE_OFF_67
VEL_3
NOTE_ON_72
VEL_2
NOTE_ON_55
VEL_2
NOTE_ON_52
TIME_SHIFT_64ND_1
NOTE_OFF_74
TIME_SHIFT_64ND_9
VEL_2
NOTE_ON_60
TIME_SHIFT_64ND_1
NOTE_OFF_55
TIME_SHIFT_64ND_4
NOTE_OFF_52
TIME_SHIFT_64ND_5
VEL_2
NOTE_ON_67
TIME_SHIFT_64ND_1
NOTE_OFF_60
TIME_SHIFT_64ND_9
NOTE_OFF_72
NOTE_OFF_67
VEL_3
NOTE_ON_69
VEL_1
NOTE_ON_55
VEL_1
NOTE_ON_50
TIME_SHIFT_64ND_9
VEL_2
NOTE_ON_60
TIME_SHIFT_64ND_1
NOTE_OFF_55
TIME_SHIFT_64ND_4
NOTE_OFF_50
TIME_SHIFT_64ND_5
VEL_1
NOTE_ON_67
TIME_SHIFT_64ND_1
NOTE_OFF_60
TIME_SHIFT_64ND_9
NOTE_OFF_67
VEL_3
NOTE_ON_74
VEL_1
NOTE_ON_54
VEL_1
NOTE_ON_50
TIME_SHIFT_64ND_1
NOTE_OFF_69
TIME_SHIFT_64ND_9
VEL_1
NOTE_ON_60
TIME_SHIFT_64ND_1
NOTE_OFF_54
TIME_SHIFT_64ND_4
NOTE_OFF_50
TIME_SHIFT_64ND_5
VEL_1
NOTE_ON_69
TIME_SHIFT_64ND_1
NOTE_OFF_60
TIME_SHIFT_64ND_10
NOTE_OFF_74
NOTE_OFF_69
VEL_2
NOTE_ON_71
VEL_1
NOTE_ON_43
VEL_1
NOTE_ON_50
TIME_SHIFT_64ND_10
VEL_1
NOTE_ON_59
TIME_SHIFT_64ND_10
VEL_1
NOTE_ON_67
TIME_SHIFT_64ND_10
NOTE_OFF_67
TIME_SHIFT_64ND_13
NOTE_OFF_59
VEL_1
NOTE_ON_59
TIME_SHIFT_64ND_13
VEL_1
NOTE_ON_67
TIME_SHIFT_64ND_1
NOTE_OFF_59
TIME_SHIFT_64ND_12
NOTE_OFF_71
NOTE_OFF_43
NOTE_OFF_50
NOTE_OFF_67
