VEL_3
NOTE_ON_59
VEL_2
NOTE_ON_55
VEL_2
NOTE_ON_52
TIME_SHIFT_64ND_20
NOTE_OFF_59
VEL_3
NOTE_ON_60
TIME_SHIFT_64ND_10
NOTE_OFF_60
VEL_3
NOTE_ON_59
TIME_SHIFT_64ND_10
NOTE_OFF_59
NOTE_OFF_55
NOTE_OFF_52
VEL_3
NOTE_ON_71
VEL_3
NOTE_ON_59
VEL_2
NOTE_ON_54
VEL_2
NOTE_ON_51
TIME_SHIFT_64ND_10
NOTE_OFF_59
VEL_2
NOTE_ON_66
TIME_SHIFT_64ND_10
VEL_2
NOTE_ON_78
TIME_SHIFT_64ND_9
NOTE_OFF_71
TIME_SHIFT_64ND_1
NOTE_OFF_78
VEL_2
NOTE_ON_71
TIME_SHIFT_64ND_10
NOTE_OFF_71
NOTE_OFF_66
NOTE_OFF_54
NOTE_OFF_51
VEL_3
NOTE_ON_71
VEL_3
NOTE_ON_59
VEL_2
NOTE_ON_55
VEL_2
NOTE_ON_52
TIME_SHIFT_64ND_10
VEL_3
NOTE_ON_79
TIME_SHIFT_64ND_10
NOTE_OFF_59
VEL_3
NOTE_ON_60
TIME_SHIFT_64ND_10
NOTE_OFF_60
VEL_3
NOTE_ON_59
TIME_SHIFT_64ND_10
NOTE_OFF_79
NOTE_OFF_71
NOTE_OFF_59
NOTE_OFF_55
NOTE_OFF_52
VEL_2
NOTE_ON_71
VEL_3
NOTE_ON_59
VEL_1
NOTE_ON_54
VEL_1
NOTE_ON_51
TIME_SHIFT_64ND_10
NOTE_OFF_59
VEL_2
NOTE_ON_66
TIME_SHIFT_64ND_10
VEL_2
NOTE_ON_78
TIME_SHIFT_64ND_9
NOTE_OFF_71
TIME_SHIFT_64ND_1
NOTE_OFF_78
VEL_1
NOTE_ON_71
TIME_SHIFT_64ND_10
NOTE_OFF_71
NOTE_OFF_66
NOTE_OFF_54
NOTE_OFF_51
VEL_2
NOTE_ON_71
VEL_2
NOTE_ON_59
VEL_1
NOTE_ON_55
VEL_1
NOTE_ON_52
TIME_SHIFT_64ND_10
VEL_2
NOTE_ON_79
TIME_SHIFT_64ND_10
NOTE_OFF_59
VEL_2
NOTE_ON_60
TIME_SHIFT_64ND_10
NOTE_OFF_60
VEL_2
NOTE_ON_59
TIME_SHIFT_64ND_10
NOTE_OFF_79
NOTE_OFF_71
NOTE_OFF_59
NOTE_OFF_55
NOTE_OFF_52
VEL_2
NOTE_ON_71
VEL_2
NOTE_ON_59
VEL_1
NOTE_ON_54
VEL_1
NOTE_ON_50
TIME_SHIFT_64ND_11
NOTE_OFF_59
VEL_2
NOTE_ON_66
TIME_SHIFT_64ND_11
VEL_2
NOTE_ON_78
TIME_SHIFT_64ND_9
NOTE_OFF_71
TIME_SHIFT_64ND_1
NOTE_OFF_78
VEL_1
NOTE_ON_71
TIME_SHIFT_64ND_10
NOTE_OFF_71
NOTE_OFF_66
NOTE_OFF_54
NOTE_OFF_50
VEL_2
NOTE_ON_71
VEL_2
NOTE_ON_59
VEL_1
NOTE_ON_52
VEL_1
NOTE_ON_48
TIME_SHIFT_64ND_11
VEL_1
NOTE_ON_76
TIME_SHIFT_64ND_10
NOTE_OFF_59
VEL_2
NOTE_ON_60
TIME_SHIFT_64ND_10
NOTE_OFF_60
VEL_2
NOTE_ON_59
TIME_SHIFT_64ND_10
NOTE_OFF_76
NOTE_OFF_71
NOTE_OFF_59
NOTE_OFF_52
NOTE_OFF_48
VEL_2
NOTE_ON_71
VEL_2
NOTE_ON_59
VEL_1
NOTE_ON_51
VEL_1
NOTE_ON_47
TIME_SHIFT_64ND_10
NOTE_OFF_59
VEL_1
NOTE_ON_66
TIME_SHIFT_64ND_11
VEL_1
NOTE_ON_78
TIME_SHIFT_64ND_10
NOTE_OFF_71
TIME_SHIFT_64ND_1
NOTE_OFF_78
VEL_1
NOTE_ON_71
TIME_SHIFT_64ND_11
NOTE_OFF_71
NOTE_OFF_66
NOTE_OFF_51
NOTE_OFF_47
VEL_3
NOTE_ON_71
VEL_2
NOTE_ON_59
VEL_2
NOTE_ON_55
VEL_1
NOTE_ON_52
TIME_SHIFT_64ND_10
VEL_3
NOTE_ON_83
TIME_SHIFT_64ND_10
NOTE_OFF_59
VEL_2
NOTE_ON_60
TIME_SHIFT_64ND_10
NOTE_OFF_60
VEL_2
NOTE_ON_59
TIME_SHIFT_64ND_10
NOTE_OFF_83
NOTE_OFF_71
NOTE_OFF_59
NOTE_OFF_55
NOTE_OFF_52
VEL_2
NOTE_ON_71
VEL_3
NOTE_ON_59
VEL_1
NOTE_ON_54
VEL_1
NOTE_ON_51
TIME_SHIFT_64ND_10
NOTE_OFF_59
VEL_2
NOTE_ON_66
TIME_SHIFT_64ND_10
VEL_2
NOTE_ON_78
TIME_SHIFT_64ND_9
NOTE_OFF_71
TIME_SHIFT_64ND_1
NOTE_OFF_78
VEL_1
NOTE_ON_71
TIME_SHIFT_64ND_10
NOTE_OFF_71
NOTE_OFF_66
NOTE_OFF_54
NOTE_OFF_51
VEL_3
NOTE_ON_71
VEL_3
NOTE_ON_59
VEL_2
NOTE_ON_55
VEL_2
NOTE_ON_52
TIME_SHIFT_64ND_10
VEL_3
NOTE_ON_79
TIME_SHIFT_64ND_10
NOTE_OFF_59
VEL_3
NOTE_ON_60
TIME_SHIFT_64ND_10
NOTE_OFF_60
VEL_3
NOTE_ON_59
TIME_SHIFT_64ND_10
NOTE_OFF_79
NOTE_OFF_71
NOTE_OFF_59
NOTE_OFF_55
NOTE_OFF_52
VEL_2
NOTE_ON_71
VEL_2
NOTE_ON_59
VEL_1
NOTE_ON_54
VEL_1
NOTE_ON_51
TIME_SHIFT_64ND_10
NOTE_OFF_59
VEL_2
NOTE_ON_66
TIME_SHIFT_64ND_10
VEL_2
NOTE_ON_78
TIME_SHIFT_64ND_9
NOTE_OFF_71
TIME_SHIFT_64ND_1
NOTE_OFF_78
VEL_1
NOTE_ON_71
TIME_SHIFT_64ND_10
NOTE_OFF_71
NOTE_OFF_66
NOTE_OFF_54
NOTE_OFF_51
VEL_2
NOTE_ON_71
VEL_2
NOTE_ON_59
VEL_1
NOTE_ON_55
VEL_1
NOTE_ON_52
TIME_SHIFT_64ND_10
VEL_2
NOTE_ON_79
TIME_SHIFT_64ND_10
NOTE_OFF_59
VEL_2
NOTE_ON_60
TIME_SHIFT_64ND_10
NOTE_OFF_60
VEL_2
NOTE_ON_59
TIME_SHIFT_64ND_10
NOTE_OFF_79
NOTE_OFF_71
NOTE_OFF_59
NOTE_OFF_55
NOTE_OFF_52
VEL_2
NOTE_ON_71
VEL_2
NOTE_ON_59
VEL_1
NOTE_ON_50
VEL_1
NOTE_ON_54
TIME_SHIFT_64ND_11
NOTE_OFF_59
VEL_2
NOTE_ON_66
TIME_SHIFT_64ND_11
VEL_1
NOTE_ON_78
TIME_SHIFT_64ND_9
NOTE_OFF_71
TIME_SHIFT_64ND_1
NOTE_OFF_78
VEL_1
NOTE_ON_71
TIME_SHIFT_64ND_10
NOTE_OFF_71
NOTE_OFF_66
NOTE_OFF_50
NOTE_OFF_54
VEL_2
NOTE_ON_71
VEL_2
NOTE_ON_59
VEL_1
NOTE_ON_48
VEL_1
NOTE_ON_52
TIME_SHIFT_64ND_11
VEL_1
NOTE_ON_76
TIME_SHIFT_64ND_11
NOTE_OFF_59
VEL_1
NOTE_ON_60
TIME_SHIFT_64ND_11
NOTE_OFF_60
VEL_1
NOTE_ON_59
TIME_SHIFT_64ND_11
NOTE_OFF_76
NOTE_OFF_71
NOTE_OFF_59
NOTE_OFF_48
NOTE_OFF_52
VEL_2
NOTE_ON_71
VEL_1
NOTE_ON_59
VEL_1
NOTE_ON_47
VEL_1
NOTE_ON_51
TIME_SHIFT_64ND_11
NOTE_OFF_59
VEL_1
NOTE_ON_66
TIME_SHIFT_64ND_11
VEL_1
NOTE_ON_78
TIME_SHIFT_64ND_11
NOTE_OFF_71
TIME_SHIFT_64ND_1
NOTE_OFF_78
VEL_1
NOTE_ON_71
TIME_SHIFT_64ND_12
NOTE_OFF_71
NOTE_OFF_66
NOTE_OFF_47
NOTE_OFF_51
VEL_2
NOTE_ON_83
VEL_1
NOTE_ON_80
VEL_1
NOTE_ON_71
VEL_1
NOTE_ON_76
VEL_2
NOTE_ON_47
VEL_2
NOTE_ON_40
TIME_SHIFT_64ND_22
NOTE_OFF_47
VEL_2
NOTE_ON_49
TIME_SHIFT_64ND_10
NOTE_OFF_49
VEL_2
NOTE_ON_47
TIME_SHIFT_64ND_10
NOTE_OFF_83
NOTE_OFF_80
NOTE_OFF_71
NOTE_OFF_76
NOTE_OFF_47
NOTE_OFF_40
VEL_2
NOTE_ON_71
VEL_1
NOTE_ON_78
VEL_1
NOTE_ON_75
VEL_1
NOTE_ON_83
VEL_1
NOTE_ON_69
VEL_2
NOTE_ON_47
VEL_2
NOTE_ON_40
TIME_SHIFT_64ND_11
NOTE_OFF_71
NOTE_OFF_47
VEL_2
NOTE_ON_80
VEL_2
NOTE_ON_56
TIME_SHIFT_64ND_20
NOTE_OFF_80
NOTE_OFF_56
VEL_2
NOTE_ON_78
VEL_2
NOTE_ON_54
TIME_SHIFT_64ND_10
NOTE_OFF_78
NOTE_OFF_78
NOTE_OFF_75
NOTE_OFF_83
NOTE_OFF_69
NOTE_OFF_54
NOTE_OFF_40
VEL_2
NOTE_ON_76
VEL_1
NOTE_ON_71
VEL_1
NOTE_ON_68
VEL_2
NOTE_ON_47
VEL_2
NOTE_ON_40
TIME_SHIFT_64ND_20
NOTE_OFF_47
VEL_2
NOTE_ON_49
TIME_SHIFT_64ND_10
NOTE_OFF_49
VEL_2
NOTE_ON_47
TIME_SHIFT_64ND_10
NOTE_OFF_76
NOTE_OFF_71
NOTE_OFF_68
NOTE_OFF_47
NOTE_OFF_40
VEL_2
NOTE_ON_59
VEL_1
NOTE_ON_66
VEL_1
NOTE_ON_57
VEL_1
NOTE_ON_63
VEL_1
NOTE_ON_71
VEL_2
NOTE_ON_47
VEL_2
NOTE_ON_40
TIME_SHIFT_64ND_11
NOTE_OFF_59
NOTE_OFF_47
VEL_2
NOTE_ON_68
VEL_2
NOTE_ON_56
TIME_SHIFT_64ND_20
NOTE_OFF_68
NOTE_OFF_56
VEL_2
NOTE_ON_66
VEL_2
NOTE_ON_54
TIME_SHIFT_64ND_10
NOTE_OFF_66
NOTE_OFF_66
NOTE_OFF_57
NOTE_OFF_63
NOTE_OFF_71
NOTE_OFF_54
NOTE_OFF_40
VEL_2
NOTE_ON_64
VEL_1
NOTE_ON_59
VEL_1
NOTE_ON_56
VEL_2
NOTE_ON_47
VEL_2
NOTE_ON_40
TIME_SHIFT_64ND_21
NOTE_OFF_47
VEL_2
NOTE_ON_49
TIME_SHIFT_64ND_10
NOTE_OFF_49
VEL_2
NOTE_ON_47
TIME_SHIFT_64ND_10
NOTE_OFF_64
NOTE_OFF_59
NOTE_OFF_56
NOTE_OFF_47
NOTE_OFF_40
VEL_2
NOTE_ON_54
VEL_1
NOTE_ON_59
VEL_1
NOTE_ON_63
VEL_2
NOTE_ON_42
VEL_2
NOTE_ON_47
TIME_SHIFT_64ND_12
NOTE_OFF_54
NOTE_OFF_42
VEL_2
NOTE_ON_56
VEL_2
NOTE_ON_44
TIME_SHIFT_64ND_21
NOTE_OFF_56
NOTE_OFF_44
VEL_2
NOTE_ON_54
VEL_2
NOTE_ON_42
TIME_SHIFT_64ND_11
NOTE_OFF_54
NOTE_OFF_59
NOTE_OFF_63
NOTE_OFF_42
NOTE_OFF_47
VEL_1
NOTE_ON_61
VEL_1
NOTE_ON_58
VEL_2
NOTE_ON_52
VEL_1
NOTE_ON_42
TIME_SHIFT_64ND_21
NOTE_OFF_61
VEL_2
NOTE_ON_63
TIME_SHIFT_64ND_10
NOTE_OFF_63
VEL_1
NOTE_ON_61
TIME_SHIFT_64ND_10
NOTE_OFF_61
NOTE_OFF_58
NOTE_OFF_52
NOTE_OFF_42
VEL_1
NOTE_ON_59
VEL_1
NOTE_ON_51
VEL_2
NOTE_ON_42
VEL_2
NOTE_ON_30
TIME_SHIFT_64ND_12
NOTE_OFF_42
NOTE_OFF_30
VEL_2
NOTE_ON_44
VEL_2
NOTE_ON_32
TIME_SHIFT_64ND_22
NOTE_OFF_44
NOTE_OFF_32
VEL_1
NOTE_ON_42
VEL_1
NOTE_ON_30
TIME_SHIFT_64ND_12
NOTE_OFF_59
NOTE_OFF_51
NOTE_OFF_42
NOTE_OFF_30
VEL_2
NOTE_ON_83
VEL_2
NOTE_ON_71
VEL_2
NOTE_ON_80
VEL_2
NOTE_ON_76
VEL_2
NOTE_ON_40
VEL_2
NOTE_ON_28
TIME_SHIFT_64ND_20
NOTE_OFF_40
NOTE_OFF_28
VEL_2
NOTE_ON_49
TIME_SHIFT_64ND_10
NOTE_OFF_49
VEL_2
NOTE_ON_47
TIME_SHIFT_64ND_10
NOTE_OFF_83
NOTE_OFF_71
NOTE_OFF_80
NOTE_OFF_76
NOTE_OFF_47
VEL_2
NOTE_ON_71
VEL_1
NOTE_ON_78
VEL_1
NOTE_ON_75
VEL_1
NOTE_ON_83
VEL_1
NOTE_ON_69
VEL_2
NOTE_ON_47
VEL_2
NOTE_ON_40
TIME_SHIFT_64ND_11
NOTE_OFF_71
NOTE_OFF_47
VEL_2
NOTE_ON_80
VEL_2
NOTE_ON_56
TIME_SHIFT_64ND_20
NOTE_OFF_80
NOTE_OFF_56
VEL_2
NOTE_ON_78
VEL_2
NOTE_ON_54
TIME_SHIFT_64ND_10
NOTE_OFF_78
NOTE_OFF_78
NOTE_OFF_75
NOTE_OFF_83
NOTE_OFF_69
NOTE_OFF_54
NOTE_OFF_40
VEL_2
NOTE_ON_76
VEL_1
NOTE_ON_71
VEL_1
NOTE_ON_68
VEL_2
NOTE_ON_47
VEL_2
NOTE_ON_40
TIME_SHIFT_64ND_20
NOTE_OFF_47
VEL_2
NOTE_ON_49
TIME_SHIFT_64ND_10
NOTE_OFF_49
VEL_2
NOTE_ON_47
TIME_SHIFT_64ND_10
NOTE_OFF_76
NOTE_OFF_71
NOTE_OFF_68
NOTE_OFF_47
NOTE_OFF_40
VEL_2
NOTE_ON_59
VEL_1
NOTE_ON_66
VEL_1
NOTE_ON_57
VEL_1
NOTE_ON_63
VEL_1
NOTE_ON_71
VEL_2
NOTE_ON_47
VEL_2
NOTE_ON_40
TIME_SHIFT_64ND_11
NOTE_OFF_59
NOTE_OFF_47
VEL_2
NOTE_ON_68
VEL_2
NOTE_ON_56
TIME_SHIFT_64ND_20
NOTE_OFF_68
NOTE_OFF_56
VEL_2
NOTE_ON_66
VEL_2
NOTE_ON_54
TIME_SHIFT_64ND_10
NOTE_OFF_66
NOTE_OFF_66
NOTE_OFF_57
NOTE_OFF_63
NOTE_OFF_71
NOTE_OFF_54
NOTE_OFF_40
VEL_2
NOTE_ON_64
VEL_1
NOTE_ON_59
VEL_1
NOTE_ON_56
VEL_2
NOTE_ON_47
VEL_2
NOTE_ON_40
TIME_SHIFT_64ND_21
NOTE_OFF_47
VEL_2
NOTE_ON_49
TIME_SHIFT_64ND_10
NOTE_OFF_49
VEL_2
NOTE_ON_47
TIME_SHIFT_64ND_10
NOTE_OFF_64
NOTE_OFF_59
NOTE_OFF_56
NOTE_OFF_47
NOTE_OFF_40
VEL_2
NOTE_ON_54
VEL_1
NOTE_ON_59
VEL_1
NOTE_ON_63
VEL_2
NOTE_ON_42
VEL_2
NOTE_ON_47
TIME_SHIFT_64ND_12
NOTE_OFF_54
NOTE_OFF_42
VEL_2
NOTE_ON_56
VEL_2
NOTE_ON_44
TIME_SHIFT_64ND_21
NOTE_OFF_56
NOTE_OFF_44
VEL_2
NOTE_ON_54
VEL_2
NOTE_ON_42
TIME_SHIFT_64ND_11
NOTE_OFF_54
NOTE_OFF_59
NOTE_OFF_63
NOTE_OFF_42
NOTE_OFF_47
VEL_1
NOTE_ON_61
VEL_1
NOTE_ON_58
VEL_2
NOTE_ON_52
VEL_1
NOTE_ON_42
TIME_SHIFT_64ND_21
NOTE_OFF_61
VEL_1
NOTE_ON_63
TIME_SHIFT_64ND_10
NOTE_OFF_63
VEL_1
NOTE_ON_61
TIME_SHIFT_64ND_10
NOTE_OFF_61
NOTE_OFF_58
NOTE_OFF_52
NOTE_OFF_42
VEL_1
NOTE_ON_59
VEL_1
NOTE_ON_51
VEL_1
NOTE_ON_42
VEL_1
NOTE_ON_30
TIME_SHIFT_64ND_13
NOTE_OFF_42
NOTE_OFF_30
VEL_1
NOTE_ON_44
VEL_1
NOTE_ON_32
TIME_SHIFT_64ND_22
NOTE_OFF_44
NOTE_OFF_32
VEL_1
NOTE_ON_42
VEL_1
NOTE_ON_30
TIME_SHIFT_64ND_11
NOTE_OFF_59
NOTE_OFF_51
NOTE_OFF_42
NOTE_OFF_30
VEL_2
NOTE_ON_62
VEL_1
NOTE_ON_54
VEL_1
NOTE_ON_59
VEL_2
NOTE_ON_35
TIME_SHIFT_64ND_20
NOTE_OFF_35
VEL_2
NOTE_ON_37
TIME_SHIFT_64ND_10
NOTE_OFF_37
VEL_2
NOTE_ON_35
TIME_SHIFT_64ND_10
NOTE_OFF_62
NOTE_OFF_35
VEL_2
NOTE_ON_61
VEL_2
NOTE_ON_30
TIME_SHIFT_64ND_10
NOTE_OFF_30
VEL_2
NOTE_ON_42
TIME_SHIFT_64ND_10
VEL_2
NOTE_ON_57
TIME_SHIFT_64ND_10
NOTE_OFF_42
VEL_2
NOTE_ON_30
TIME_SHIFT_64ND_10
NOTE_OFF_61
NOTE_OFF_54
NOTE_OFF_30
VEL_2
NOTE_ON_64
VEL_2
NOTE_ON_28
TIME_SHIFT_64ND_19
NOTE_OFF_57
NOTE_OFF_28
VEL_2
NOTE_ON_56
VEL_2
NOTE_ON_30
TIME_SHIFT_64ND_10
NOTE_OFF_30
VEL_2
NOTE_ON_28
TIME_SHIFT_64ND_10
NOTE_OFF_56
NOTE_OFF_59
NOTE_OFF_28
VEL_2
NOTE_ON_61
VEL_1
NOTE_ON_57
VEL_2
NOTE_ON_33
TIME_SHIFT_64ND_10
NOTE_OFF_33
VEL_2
NOTE_ON_45
TIME_SHIFT_64ND_20
NOTE_OFF_45
VEL_2
NOTE_ON_44
TIME_SHIFT_64ND_10
NOTE_OFF_61
NOTE_OFF_57
NOTE_OFF_64
NOTE_OFF_44
VEL_2
NOTE_ON_69
VEL_2
NOTE_ON_66
VEL_2
NOTE_ON_61
VEL_2
NOTE_ON_42
TIME_SHIFT_64ND_20
NOTE_OFF_42
VEL_2
NOTE_ON_44
TIME_SHIFT_64ND_10
NOTE_OFF_44
VEL_2
NOTE_ON_42
TIME_SHIFT_64ND_10
NOTE_OFF_69
NOTE_OFF_42
VEL_2
NOTE_ON_68
VEL_1
NOTE_ON_37
TIME_SHIFT_64ND_10
NOTE_OFF_37
VEL_2
NOTE_ON_49
TIME_SHIFT_64ND_10
NOTE_OFF_66
VEL_2
NOTE_ON_64
TIME_SHIFT_64ND_10
NOTE_OFF_49
VEL_1
NOTE_ON_37
TIME_SHIFT_64ND_10
NOTE_OFF_68
NOTE_OFF_37
VEL_2
NOTE_ON_68
VEL_2
NOTE_ON_70
VEL_2
NOTE_ON_42
TIME_SHIFT_64ND_10
NOTE_OFF_42
VEL_2
NOTE_ON_54
TIME_SHIFT_64ND_10
NOTE_OFF_68
VEL_2
NOTE_ON_66
TIME_SHIFT_64ND_10
NOTE_OFF_54
VEL_2
NOTE_ON_42
TIME_SHIFT_64ND_10
NOTE_OFF_61
NOTE_OFF_70
NOTE_OFF_64
NOTE_OFF_42
VEL_2
NOTE_ON_71
VEL_1
NOTE_ON_63
VEL_2
NOTE_ON_35
TIME_SHIFT_64ND_10
NOTE_OFF_35
VEL_2
NOTE_ON_47
TIME_SHIFT_64ND_20
NOTE_OFF_47
VEL_2
NOTE_ON_47
TIME_SHIFT_64ND_10
NOTE_OFF_71
NOTE_OFF_63
NOTE_OFF_66
NOTE_OFF_47
VEL_2
NOTE_ON_64
VEL_2
NOTE_ON_71
VEL_3
NOTE_ON_59
VEL_1
NOTE_ON_48
TIME_SHIFT_64ND_20
NOTE_OFF_59
VEL_2
NOTE_ON_60
TIME_SHIFT_64ND_10
NOTE_OFF_60
VEL_2
NOTE_ON_59
TIME_SHIFT_64ND_10
NOTE_OFF_64
NOTE_OFF_71
NOTE_OFF_59
VEL_1
NOTE_ON_69
VEL_1
NOTE_ON_64
VEL_3
NOTE_ON_59
TIME_SHIFT_64ND_10
NOTE_OFF_59
VEL_3
NOTE_ON_62
TIME_SHIFT_64ND_20
NOTE_OFF_62
VEL_2
NOTE_ON_60
TIME_SHIFT_64ND_10
NOTE_OFF_69
NOTE_OFF_64
NOTE_OFF_60
NOTE_OFF_48
VEL_2
NOTE_ON_60
VEL_1
NOTE_ON_66
VEL_2
NOTE_ON_59
VEL_1
NOTE_ON_50
TIME_SHIFT_64ND_20
NOTE_OFF_60
NOTE_OFF_59
VEL_2
NOTE_ON_62
VEL_1
NOTE_ON_57
TIME_SHIFT_64ND_10
NOTE_OFF_62
VEL_2
NOTE_ON_60
TIME_SHIFT_64ND_10
NOTE_OFF_60
NOTE_OFF_66
NOTE_OFF_57
NOTE_OFF_50
VEL_2
NOTE_ON_59
VEL_1
NOTE_ON_67
VEL_2
NOTE_ON_55
TIME_SHIFT_64ND_10
NOTE_OFF_59
VEL_2
NOTE_ON_64
VEL_2
NOTE_ON_60
TIME_SHIFT_64ND_22
NOTE_OFF_64
NOTE_OFF_60
VEL_2
NOTE_ON_62
VEL_2
NOTE_ON_59
TIME_SHIFT_64ND_10
NOTE_OFF_62
NOTE_OFF_67
NOTE_OFF_59
NOTE_OFF_55
VEL_1
NOTE_ON_64
VEL_1
NOTE_ON_71
VEL_2
NOTE_ON_59
VEL_1
NOTE_ON_48
TIME_SHIFT_64ND_20
NOTE_OFF_59
VEL_2
NOTE_ON_60
TIME_SHIFT_64ND_10
NOTE_OFF_60
VEL_2
NOTE_ON_59
TIME_SHIFT_64ND_10
NOTE_OFF_64
NOTE_OFF_71
NOTE_OFF_59
VEL_1
NOTE_ON_69
VEL_1
NOTE_ON_64
VEL_2
NOTE_ON_59
TIME_SHIFT_64ND_11
NOTE_OFF_59
VEL_2
NOTE_ON_62
TIME_SHIFT_64ND_20
NOTE_OFF_62
VEL_2
NOTE_ON_60
TIME_SHIFT_64ND_10
NOTE_OFF_69
NOTE_OFF_64
NOTE_OFF_60
NOTE_OFF_48
VEL_2
NOTE_ON_60
VEL_1
NOTE_ON_66
VEL_1
NOTE_ON_59
VEL_1
NOTE_ON_50
TIME_SHIFT_64ND_21
NOTE_OFF_60
NOTE_OFF_59
VEL_2
NOTE_ON_62
VEL_1
NOTE_ON_57
TIME_SHIFT_64ND_11
NOTE_OFF_62
VEL_2
NOTE_ON_60
TIME_SHIFT_64ND_11
NOTE_OFF_60
NOTE_OFF_66
NOTE_OFF_57
NOTE_OFF_50
VEL_1
NOTE_ON_59
VEL_1
NOTE_ON_71
VEL_1
NOTE_ON_55
VEL_1
NOTE_ON_51
TIME_SHIFT_64ND_12
NOTE_OFF_59
NOTE_OFF_55
VEL_1
NOTE_ON_67
VEL_1
NOTE_ON_59
TIME_SHIFT_64ND_27
NOTE_OFF_67
NOTE_OFF_59
VEL_1
NOTE_ON_66
VEL_1
NOTE_ON_57
TIME_SHIFT_64ND_13
NOTE_OFF_66
TIME_SHIFT_64ND_1
NOTE_OFF_71
NOTE_OFF_57
NOTE_OFF_51
VEL_1
NOTE_ON_55
VEL_1
NOTE_ON_52
TIME_SHIFT_64ND_21
NOTE_OFF_55
VEL_2
NOTE_ON_60
TIME_SHIFT_64ND_10
NOTE_OFF_60
VEL_2
NOTE_ON_59
TIME_SHIFT_64ND_10
NOTE_OFF_59
NOTE_OFF_52
VEL_2
NOTE_ON_71
VEL_2
NOTE_ON_59
VEL_1
NOTE_ON_54
VEL_1
NOTE_ON_51
TIME_SHIFT_64ND_10
NOTE_OFF_59
VEL_2
NOTE_ON_66
TIME_SHIFT_64ND_10
VEL_2
NOTE_ON_78
TIME_SHIFT_64ND_9
NOTE_OFF_71
TIME_SHIFT_64ND_1
NOTE_OFF_78
VEL_2
NOTE_ON_71
TIME_SHIFT_64ND_10
NOTE_OFF_71
NOTE_OFF_66
NOTE_OFF_54
NOTE_OFF_51
VEL_2
NOTE_ON_71
VEL_2
NOTE_ON_59
VEL_1
NOTE_ON_55
VEL_1
NOTE_ON_52
TIME_SHIFT_64ND_10
VEL_2
NOTE_ON_79
TIME_SHIFT_64ND_10
NOTE_OFF_59
VEL_2
NOTE_ON_60
TIME_SHIFT_64ND_10
NOTE_OFF_60
VEL_2
NOTE_ON_59
TIME_SHIFT_64ND_10
NOTE_OFF_79
NOTE_OFF_71
NOTE_OFF_59
NOTE_OFF_55
NOTE_OFF_52
VEL_2
NOTE_ON_71
VEL_2
NOTE_ON_59
VEL_1
NOTE_ON_54
VEL_1
NOTE_ON_51
TIME_SHIFT_64ND_10
NOTE_OFF_59
VEL_2
NOTE_ON_66
TIME_SHIFT_64ND_10
VEL_2
NOTE_ON_78
TIME_SHIFT_64ND_9
NOTE_OFF_71
TIME_SHIFT_64ND_1
NOTE_OFF_78
VEL_1
NOTE_ON_71
TIME_SHIFT_64ND_10
NOTE_OFF_71
NOTE_OFF_66
NOTE_OFF_54
NOTE_OFF_51
VEL_2
NOTE_ON_71
VEL_2
NOTE_ON_59
VEL_1
NOTE_ON_55
VEL_1
NOTE_ON_52
TIME_SHIFT_64ND_10
VEL_2
NOTE_ON_83
TIME_SHIFT_64ND_10
NOTE_OFF_59
VEL_2
NOTE_ON_60
TIME_SHIFT_64ND_11
NOTE_OFF_60
VEL_2
NOTE_ON_59
TIME_SHIFT_64ND_11
NOTE_OFF_83
NOTE_OFF_71
NOTE_OFF_59
NOTE_OFF_55
NOTE_OFF_52
VEL_2
NOTE_ON_72
VEL_2
NOTE_ON_60
VEL_1
NOTE_ON_57
TIME_SHIFT_64ND_11
NOTE_OFF_60
VEL_2
NOTE_ON_71
TIME_SHIFT_64ND_11
VEL_1
NOTE_ON_83
TIME_SHIFT_64ND_10
NOTE_OFF_72
TIME_SHIFT_64ND_1
NOTE_OFF_83
VEL_1
NOTE_ON_72
TIME_SHIFT_64ND_11
NOTE_OFF_72
NOTE_OFF_71
NOTE_OFF_57
VEL_1
NOTE_ON_72
VEL_2
NOTE_ON_60
VEL_1
NOTE_ON_54
VEL_1
NOTE_ON_50
TIME_SHIFT_64ND_11
VEL_1
NOTE_ON_81
TIME_SHIFT_64ND_11
NOTE_OFF_60
VEL_1
NOTE_ON_62
TIME_SHIFT_64ND_11
NOTE_OFF_62
VEL_1
NOTE_ON_60
TIME_SHIFT_64ND_11
NOTE_OFF_81
NOTE_OFF_72
NOTE_OFF_60
NOTE_OFF_54
NOTE_OFF_50
VEL_2
NOTE_ON_71
VEL_1
NOTE_ON_59
VEL_1
NOTE_ON_55
TIME_SHIFT_64ND_11
NOTE_OFF_59
VEL_1
NOTE_ON_69
TIME_SHIFT_64ND_11
VEL_1
NOTE_ON_81
TIME_SHIFT_64ND_11
NOTE_OFF_71
TIME_SHIFT_64ND_1
NOTE_OFF_81
VEL_1
NOTE_ON_71
TIME_SHIFT_64ND_11
NOTE_OFF_71
NOTE_OFF_69
NOTE_OFF_55
VEL_1
NOTE_ON_71
VEL_1
NOTE_ON_59
VEL_1
NOTE_ON_52
VEL_1
NOTE_ON_48
TIME_SHIFT_64ND_11
VEL_1
NOTE_ON_79
TIME_SHIFT_64ND_11
NOTE_OFF_59
VEL_1
NOTE_ON_60
TIME_SHIFT_64ND_12
NOTE_OFF_60
VEL_1
NOTE_ON_59
TIME_SHIFT_64ND_12
NOTE_OFF_79
NOTE_OFF_71
NOTE_OFF_59
NOTE_OFF_52
NOTE_OFF_48
VEL_2
NOTE_ON_69
VEL_1
NOTE_ON_57
VEL_1
NOTE_ON_54
TIME_SHIFT_64ND_11
NOTE_OFF_57
VEL_1
NOTE_ON_67
TIME_SHIFT_64ND_12
VEL_1
NOTE_ON_79
TIME_SHIFT_64ND_12
NOTE_OFF_69
TIME_SHIFT_64ND_1
NOTE_OFF_79
VEL_1
NOTE_ON_69
TIME_SHIFT_64ND_12
NOTE_OFF_69
NOTE_OFF_67
NOTE_OFF_54
VEL_1
NOTE_ON_69
VEL_1
NOTE_ON_57
VEL_1
NOTE_ON_51
VEL_1
NOTE_ON_47
TIME_SHIFT_64ND_12
VEL_1
NOTE_ON_78
TIME_SHIFT_64ND_13
NOTE_OFF_57
VEL_1
NOTE_ON_59
TIME_SHIFT_64ND_17
NOTE_OFF_59
VEL_1
NOTE_ON_57
TIME_SHIFT_64ND_27
NOTE_OFF_78
NOTE_OFF_69
NOTE_OFF_51
NOTE_OFF_47
VEL_1
NOTE_ON_76
VEL_1
NOTE_ON_69
VEL_1
NOTE_ON_60
VEL_1
NOTE_ON_52
TIME_SHIFT_64ND_123
VEL_0
NOTE_ON_45
TIME_SHIFT_64ND_41
NOTE_OFF_76
NOTE_OFF_69
NOTE_OFF_45
NOTE_OFF_57
NOTE_OFF_60
NOTE_OFF_52
