TIME_SHIFT_64ND_53
NOTE_ON_48
TIME_SHIFT_64ND_10
NOTE_OFF_48
NOTE_ON_53
TIME_SHIFT_64ND_10
NOTE_ON_69
NOTE_ON_65
NOTE_ON_60
TIME_SHIFT_64ND_9
NOTE_OFF_69
NOTE_OFF_65
NOTE_OFF_60
NOTE_ON_69
NOTE_ON_65
NOTE_ON_60
TIME_SHIFT_64ND_9
NOTE_OFF_69
NOTE_OFF_65
NOTE_OFF_60
NOTE_OFF_53
NOTE_ON_57
TIME_SHIFT_64ND_10
NOTE_OFF_57
NOTE_ON_60
TIME_SHIFT_64ND_10
NOTE_ON_72
NOTE_ON_69
NOTE_ON_65
TIME_SHIFT_64ND_9
NOTE_OFF_72
NOTE_OFF_69
NOTE_OFF_65
NOTE_ON_72
NOTE_ON_69
NOTE_ON_65
TIME_SHIFT_64ND_9
NOTE_OFF_72
NOTE_OFF_69
NOTE_OFF_65
NOTE_OFF_60
NOTE_ON_53
TIME_SHIFT_64ND_10
NOTE_OFF_53
NOTE_ON_58
TIME_SHIFT_64ND_10
NOTE_OFF_58
NOTE_ON_74
NOTE_ON_70
NOTE_ON_65
NOTE_ON_62
TIME_SHIFT_64ND_9
NOTE_OFF_74
NOTE_OFF_70
NOTE_OFF_65
NOTE_OFF_62
NOTE_ON_74
NOTE_ON_70
NOTE_ON_65
TIME_SHIFT_64ND_10
NOTE_OFF_74
NOTE_OFF_70
NOTE_OFF_65
NOTE_ON_62
TIME_SHIFT_64ND_10
NOTE_OFF_62
NOTE_ON_60
TIME_SHIFT_64ND_10
NOTE_ON_72
NOTE_ON_69
NOTE_ON_65
TIME_SHIFT_64ND_9
NOTE_OFF_72
NOTE_OFF_69
NOTE_OFF_65
NOTE_ON_72
NOTE_ON_69
NOTE_ON_65
TIME_SHIFT_64ND_10
NOTE_OFF_72
NOTE_OFF_69
NOTE_OFF_65
NOTE_OFF_60
NOTE_ON_57
TIME_SHIFT_64ND_10
NOTE_OFF_57
NOTE_ON_58
TIME_SHIFT_64ND_9
NOTE_OFF_58
NOTE_ON_64
NOTE_ON_70
NOTE_ON_72
NOTE_ON_55
TIME_SHIFT_64ND_9
NOTE_OFF_64
NOTE_OFF_70
NOTE_OFF_72
NOTE_OFF_55
NOTE_ON_72
NOTE_ON_70
NOTE_ON_64
NOTE_ON_48
TIME_SHIFT_64ND_10
NOTE_OFF_48
NOTE_ON_58
TIME_SHIFT_64ND_10
NOTE_OFF_72
NOTE_OFF_70
NOTE_OFF_64
NOTE_OFF_58
NOTE_ON_57
TIME_SHIFT_64ND_10
NOTE_OFF_57
NOTE_ON_69
NOTE_ON_65
NOTE_ON_60
NOTE_ON_53
TIME_SHIFT_64ND_9
NOTE_OFF_69
NOTE_OFF_65
NOTE_OFF_60
NOTE_OFF_53
NOTE_ON_69
NOTE_ON_65
NOTE_ON_60
NOTE_ON_48
TIME_SHIFT_64ND_10
NOTE_OFF_48
NOTE_ON_57
TIME_SHIFT_64ND_10
NOTE_OFF_69
NOTE_OFF_65
NOTE_OFF_60
NOTE_OFF_57
NOTE_ON_52
TIME_SHIFT_64ND_9
NOTE_ON_67
NOTE_ON_60
TIME_SHIFT_64ND_10
NOTE_OFF_67
NOTE_OFF_60
NOTE_OFF_52
NOTE_ON_50
TIME_SHIFT_64ND_9
NOTE_ON_71
NOTE_ON_67
NOTE_ON_65
TIME_SHIFT_64ND_10
NOTE_OFF_71
NOTE_OFF_67
NOTE_OFF_65
NOTE_OFF_50
NOTE_ON_48
TIME_SHIFT_64ND_10
NOTE_ON_72
NOTE_ON_67
NOTE_ON_64
TIME_SHIFT_64ND_10
NOTE_OFF_72
NOTE_OFF_67
NOTE_OFF_64
TIME_SHIFT_64ND_1
NOTE_OFF_48
NOTE_ON_72
NOTE_ON_67
NOTE_ON_64
TIME_SHIFT_64ND_10
NOTE_ON_48
TIME_SHIFT_64ND_10
NOTE_OFF_72
NOTE_OFF_67
NOTE_OFF_64
NOTE_OFF_48
NOTE_ON_53
TIME_SHIFT_64ND_10
NOTE_ON_69
NOTE_ON_65
NOTE_ON_60
TIME_SHIFT_64ND_9
NOTE_OFF_69
NOTE_OFF_65
NOTE_OFF_60
NOTE_ON_69
NOTE_ON_65
NOTE_ON_60
TIME_SHIFT_64ND_9
NOTE_OFF_69
NOTE_OFF_65
NOTE_OFF_60
NOTE_OFF_53
NOTE_ON_57
TIME_SHIFT_64ND_10
NOTE_OFF_57
NOTE_ON_60
TIME_SHIFT_64ND_10
NOTE_ON_72
NOTE_ON_69
NOTE_ON_65
TIME_SHIFT_64ND_9
NOTE_OFF_72
NOTE_OFF_69
NOTE_OFF_65
NOTE_ON_72
NOTE_ON_69
NOTE_ON_65
TIME_SHIFT_64ND_9
NOTE_OFF_72
NOTE_OFF_69
NOTE_OFF_65
NOTE_OFF_60
NOTE_ON_53
TIME_SHIFT_64ND_10
NOTE_OFF_53
NOTE_ON_58
TIME_SHIFT_64ND_10
NOTE_OFF_58
NOTE_ON_74
NOTE_ON_70
NOTE_ON_65
NOTE_ON_62
TIME_SHIFT_64ND_9
NOTE_OFF_74
NOTE_OFF_70
NOTE_OFF_65
NOTE_OFF_62
NOTE_ON_74
NOTE_ON_70
NOTE_ON_65
TIME_SHIFT_64ND_10
NOTE_OFF_74
NOTE_OFF_70
NOTE_OFF_65
NOTE_ON_62
TIME_SHIFT_64ND_10
NOTE_OFF_62
NOTE_ON_60
TIME_SHIFT_64ND_10
NOTE_ON_72
NOTE_ON_69
NOTE_ON_65
TIME_SHIFT_64ND_9
NOTE_OFF_72
NOTE_OFF_69
NOTE_OFF_65
NOTE_ON_72
NOTE_ON_69
NOTE_ON_65
TIME_SHIFT_64ND_10
NOTE_OFF_72
NOTE_OFF_69
NOTE_OFF_65
NOTE_OFF_60
NOTE_ON_57
TIME_SHIFT_64ND_10
NOTE_OFF_57
NOTE_ON_58
TIME_SHIFT_64ND_10
NOTE_OFF_58
NOTE_ON_64
NOTE_ON_70
NOTE_ON_72
NOTE_ON_55
TIME_SHIFT_64ND_9
NOTE_OFF_64
NOTE_OFF_70
NOTE_OFF_72
NOTE_OFF_55
NOTE_ON_72
NOTE_ON_70
NOTE_ON_64
NOTE_ON_48
TIME_SHIFT_64ND_10
NOTE_OFF_48
NOTE_ON_58
TIME_SHIFT_64ND_10
NOTE_OFF_72
NOTE_OFF_70
NOTE_OFF_64
NOTE_OFF_58
NOTE_ON_57
TIME_SHIFT_64ND_10
NOTE_OFF_57
NOTE_ON_69
NOTE_ON_65
NOTE_ON_60
NOTE_ON_53
TIME_SHIFT_64ND_9
NOTE_OFF_69
NOTE_OFF_65
NOTE_OFF_60
NOTE_OFF_53
NOTE_ON_69
NOTE_ON_65
NOTE_ON_60
NOTE_ON_48
TIME_SHIFT_64ND_10
NOTE_OFF_48
NOTE_ON_57
TIME_SHIFT_64ND_10
NOTE_OFF_69
NOTE_OFF_65
NOTE_OFF_60
NOTE_OFF_57
NOTE_ON_52
TIME_SHIFT_64ND_9
NOTE_ON_67
NOTE_ON_60
TIME_SHIFT_64ND_10
NOTE_OFF_67
NOTE_OFF_60
NOTE_OFF_52
NOTE_ON_50
TIME_SHIFT_64ND_10
NOTE_ON_71
NOTE_ON_67
NOTE_ON_65
TIME_SHIFT_64ND_10
NOTE_OFF_71
NOTE_OFF_67
NOTE_OFF_65
NOTE_OFF_50
NOTE_ON_48
TIME_SHIFT_64ND_10
NOTE_ON_72
NOTE_ON_67
NOTE_ON_64
TIME_SHIFT_64ND_10
NOTE_OFF_72
NOTE_OFF_67
NOTE_OFF_64
TIME_SHIFT_64ND_1
NOTE_OFF_48
NOTE_ON_72
NOTE_ON_67
NOTE_ON_64
TIME_SHIFT_64ND_10
NOTE_OFF_72
NOTE_OFF_67
NOTE_OFF_64
NOTE_ON_60
NOTE_ON_48
TIME_SHIFT_64ND_10
NOTE_OFF_60
NOTE_OFF_48
NOTE_ON_70
NOTE_ON_55
TIME_SHIFT_64ND_10
NOTE_ON_64
NOTE_ON_60
TIME_SHIFT_64ND_9
NOTE_OFF_64
NOTE_OFF_60
NOTE_ON_64
NOTE_ON_60
TIME_SHIFT_64ND_9
NOTE_OFF_64
NOTE_OFF_60
NOTE_OFF_70
NOTE_OFF_55
NOTE_ON_69
NOTE_ON_53
TIME_SHIFT_64ND_10
NOTE_OFF_69
NOTE_OFF_53
NOTE_ON_67
NOTE_ON_52
TIME_SHIFT_64ND_10
NOTE_ON_60
NOTE_ON_58
TIME_SHIFT_64ND_9
NOTE_OFF_60
NOTE_OFF_58
NOTE_ON_60
NOTE_ON_58
TIME_SHIFT_64ND_9
NOTE_OFF_60
NOTE_OFF_58
NOTE_OFF_67
NOTE_OFF_52
NOTE_ON_60
NOTE_ON_48
TIME_SHIFT_64ND_10
NOTE_OFF_60
NOTE_OFF_48
NOTE_ON_70
NOTE_ON_55
TIME_SHIFT_64ND_9
NOTE_OFF_70
NOTE_OFF_55
NOTE_ON_69
NOTE_ON_60
NOTE_ON_53
TIME_SHIFT_64ND_9
NOTE_OFF_69
NOTE_OFF_60
NOTE_OFF_53
NOTE_ON_67
NOTE_ON_60
NOTE_ON_52
TIME_SHIFT_64ND_9
NOTE_OFF_67
NOTE_OFF_60
NOTE_OFF_52
NOTE_ON_65
NOTE_ON_59
NOTE_ON_50
TIME_SHIFT_64ND_10
NOTE_OFF_65
NOTE_OFF_59
NOTE_OFF_50
NOTE_ON_67
NOTE_ON_48
TIME_SHIFT_64ND_10
NOTE_ON_60
TIME_SHIFT_64ND_9
NOTE_OFF_60
NOTE_ON_60
TIME_SHIFT_64ND_9
NOTE_OFF_60
NOTE_OFF_67
NOTE_OFF_48
NOTE_ON_60
NOTE_ON_48
TIME_SHIFT_64ND_10
NOTE_OFF_60
NOTE_OFF_48
NOTE_ON_65
NOTE_ON_53
TIME_SHIFT_64ND_10
NOTE_ON_60
NOTE_ON_57
TIME_SHIFT_64ND_9
NOTE_OFF_60
NOTE_OFF_57
NOTE_ON_60
NOTE_ON_57
TIME_SHIFT_64ND_9
NOTE_OFF_60
NOTE_OFF_57
NOTE_OFF_65
NOTE_OFF_53
NOTE_ON_69
NOTE_ON_57
TIME_SHIFT_64ND_10
NOTE_OFF_69
NOTE_OFF_57
NOTE_ON_72
NOTE_ON_60
TIME_SHIFT_64ND_10
NOTE_ON_69
NOTE_ON_65
TIME_SHIFT_64ND_9
NOTE_OFF_69
NOTE_OFF_65
NOTE_ON_69
NOTE_ON_65
TIME_SHIFT_64ND_9
NOTE_OFF_69
NOTE_OFF_65
NOTE_OFF_72
NOTE_OFF_60
NOTE_ON_65
NOTE_ON_53
TIME_SHIFT_64ND_10
NOTE_OFF_65
NOTE_OFF_53
NOTE_ON_70
NOTE_ON_58
TIME_SHIFT_64ND_10
NOTE_OFF_70
NOTE_OFF_58
NOTE_ON_70
NOTE_ON_65
NOTE_ON_74
NOTE_ON_62
TIME_SHIFT_64ND_9
NOTE_OFF_70
NOTE_OFF_65
NOTE_OFF_74
NOTE_OFF_62
NOTE_ON_77
NOTE_ON_65
TIME_SHIFT_64ND_9
NOTE_OFF_77
NOTE_OFF_65
NOTE_ON_65
NOTE_ON_70
NOTE_ON_74
NOTE_ON_62
TIME_SHIFT_64ND_10
NOTE_OFF_65
NOTE_OFF_70
NOTE_OFF_74
NOTE_OFF_62
NOTE_ON_72
NOTE_ON_60
TIME_SHIFT_64ND_10
NOTE_ON_69
NOTE_ON_65
TIME_SHIFT_64ND_9
NOTE_OFF_69
NOTE_OFF_65
NOTE_ON_69
NOTE_ON_65
TIME_SHIFT_64ND_10
NOTE_OFF_69
NOTE_OFF_65
NOTE_OFF_72
NOTE_OFF_60
NOTE_ON_57
TIME_SHIFT_64ND_10
NOTE_OFF_57
NOTE_ON_58
TIME_SHIFT_64ND_9
NOTE_OFF_58
NOTE_ON_64
NOTE_ON_70
NOTE_ON_72
NOTE_ON_55
TIME_SHIFT_64ND_9
NOTE_OFF_64
NOTE_OFF_70
NOTE_OFF_72
NOTE_OFF_55
NOTE_ON_72
NOTE_ON_70
NOTE_ON_64
NOTE_ON_48
TIME_SHIFT_64ND_9
NOTE_OFF_48
NOTE_ON_58
TIME_SHIFT_64ND_10
NOTE_OFF_72
NOTE_OFF_70
NOTE_OFF_64
NOTE_OFF_58
NOTE_ON_57
TIME_SHIFT_64ND_10
NOTE_OFF_57
NOTE_ON_69
NOTE_ON_65
NOTE_ON_60
NOTE_ON_53
TIME_SHIFT_64ND_9
NOTE_OFF_69
NOTE_OFF_65
NOTE_OFF_60
NOTE_OFF_53
NOTE_ON_69
NOTE_ON_65
NOTE_ON_60
NOTE_ON_48
TIME_SHIFT_64ND_9
NOTE_OFF_69
NOTE_OFF_65
NOTE_OFF_60
NOTE_OFF_48
NOTE_ON_69
NOTE_ON_65
NOTE_ON_60
NOTE_ON_57
TIME_SHIFT_64ND_10
NOTE_OFF_69
NOTE_OFF_65
NOTE_OFF_60
NOTE_OFF_57
NOTE_ON_55
NOTE_ON_46
TIME_SHIFT_64ND_9
NOTE_ON_67
NOTE_ON_62
TIME_SHIFT_64ND_10
NOTE_OFF_67
NOTE_OFF_62
NOTE_OFF_55
NOTE_OFF_46
NOTE_ON_52
NOTE_ON_48
TIME_SHIFT_64ND_10
NOTE_ON_60
NOTE_ON_58
TIME_SHIFT_64ND_10
NOTE_OFF_60
NOTE_OFF_58
NOTE_OFF_52
NOTE_OFF_48
NOTE_ON_53
TIME_SHIFT_64ND_10
NOTE_ON_65
NOTE_ON_60
NOTE_ON_57
TIME_SHIFT_64ND_10
NOTE_OFF_65
NOTE_OFF_60
NOTE_OFF_57
TIME_SHIFT_64ND_1
NOTE_OFF_53
NOTE_ON_65
NOTE_ON_60
NOTE_ON_57
TIME_SHIFT_64ND_9
NOTE_OFF_65
NOTE_OFF_60
NOTE_OFF_57
NOTE_ON_60
NOTE_ON_48
TIME_SHIFT_64ND_10
NOTE_OFF_60
NOTE_OFF_48
NOTE_ON_70
NOTE_ON_55
TIME_SHIFT_64ND_10
NOTE_ON_64
NOTE_ON_60
TIME_SHIFT_64ND_9
NOTE_OFF_64
NOTE_OFF_60
NOTE_ON_64
NOTE_ON_60
TIME_SHIFT_64ND_9
NOTE_OFF_64
NOTE_OFF_60
NOTE_OFF_70
NOTE_OFF_55
NOTE_ON_69
NOTE_ON_53
TIME_SHIFT_64ND_10
NOTE_OFF_69
NOTE_OFF_53
NOTE_ON_67
NOTE_ON_52
TIME_SHIFT_64ND_10
NOTE_ON_60
NOTE_ON_58
TIME_SHIFT_64ND_9
NOTE_OFF_60
NOTE_OFF_58
NOTE_ON_60
NOTE_ON_58
TIME_SHIFT_64ND_9
NOTE_OFF_60
NOTE_OFF_58
NOTE_OFF_67
NOTE_OFF_52
NOTE_ON_60
NOTE_ON_48
TIME_SHIFT_64ND_10
NOTE_OFF_60
NOTE_OFF_48
NOTE_ON_70
NOTE_ON_55
TIME_SHIFT_64ND_9
NOTE_OFF_70
NOTE_OFF_55
NOTE_ON_69
NOTE_ON_60
NOTE_ON_53
TIME_SHIFT_64ND_9
NOTE_OFF_69
NOTE_OFF_60
NOTE_OFF_53
NOTE_ON_67
NOTE_ON_60
NOTE_ON_52
TIME_SHIFT_64ND_9
NOTE_OFF_67
NOTE_OFF_60
NOTE_OFF_52
NOTE_ON_65
NOTE_ON_59
NOTE_ON_50
TIME_SHIFT_64ND_10
NOTE_OFF_65
NOTE_OFF_59
NOTE_OFF_50
NOTE_ON_67
NOTE_ON_48
TIME_SHIFT_64ND_10
NOTE_ON_60
TIME_SHIFT_64ND_9
NOTE_OFF_60
NOTE_ON_60
TIME_SHIFT_64ND_9
NOTE_OFF_60
NOTE_OFF_67
NOTE_OFF_48
NOTE_ON_60
NOTE_ON_48
TIME_SHIFT_64ND_10
NOTE_OFF_60
NOTE_OFF_48
NOTE_ON_65
NOTE_ON_53
TIME_SHIFT_64ND_10
NOTE_ON_60
NOTE_ON_57
TIME_SHIFT_64ND_9
NOTE_OFF_60
NOTE_OFF_57
NOTE_ON_60
NOTE_ON_57
TIME_SHIFT_64ND_9
NOTE_OFF_60
NOTE_OFF_57
NOTE_OFF_65
NOTE_OFF_53
NOTE_ON_69
NOTE_ON_57
TIME_SHIFT_64ND_10
NOTE_OFF_69
NOTE_OFF_57
NOTE_ON_72
NOTE_ON_60
TIME_SHIFT_64ND_10
NOTE_ON_69
NOTE_ON_65
TIME_SHIFT_64ND_9
NOTE_OFF_69
NOTE_OFF_65
NOTE_ON_69
NOTE_ON_65
TIME_SHIFT_64ND_9
NOTE_OFF_69
NOTE_OFF_65
NOTE_OFF_72
NOTE_OFF_60
NOTE_ON_65
NOTE_ON_53
TIME_SHIFT_64ND_10
NOTE_OFF_65
NOTE_OFF_53
NOTE_ON_70
NOTE_ON_58
TIME_SHIFT_64ND_10
NOTE_OFF_70
NOTE_OFF_58
NOTE_ON_70
NOTE_ON_65
NOTE_ON_74
NOTE_ON_62
TIME_SHIFT_64ND_10
NOTE_OFF_70
NOTE_OFF_65
NOTE_OFF_74
NOTE_OFF_62
NOTE_ON_77
NOTE_ON_65
TIME_SHIFT_64ND_9
NOTE_OFF_77
NOTE_OFF_65
NOTE_ON_65
NOTE_ON_70
NOTE_ON_74
NOTE_ON_62
TIME_SHIFT_64ND_10
NOTE_OFF_65
NOTE_OFF_70
NOTE_OFF_74
NOTE_OFF_62
NOTE_ON_72
NOTE_ON_60
TIME_SHIFT_64ND_10
NOTE_ON_69
NOTE_ON_65
TIME_SHIFT_64ND_9
NOTE_OFF_69
NOTE_OFF_65
NOTE_ON_69
NOTE_ON_65
TIME_SHIFT_64ND_10
NOTE_OFF_69
NOTE_OFF_65
NOTE_OFF_72
NOTE_OFF_60
NOTE_ON_57
TIME_SHIFT_64ND_10
NOTE_OFF_57
NOTE_ON_58
TIME_SHIFT_64ND_9
NOTE_OFF_58
NOTE_ON_64
NOTE_ON_70
NOTE_ON_72
NOTE_ON_55
TIME_SHIFT_64ND_9
NOTE_OFF_64
NOTE_OFF_70
NOTE_OFF_72
NOTE_OFF_55
NOTE_ON_72
NOTE_ON_70
NOTE_ON_64
NOTE_ON_48
TIME_SHIFT_64ND_10
NOTE_OFF_48
NOTE_ON_58
TIME_SHIFT_64ND_10
NOTE_OFF_72
NOTE_OFF_70
NOTE_OFF_64
NOTE_OFF_58
NOTE_ON_57
TIME_SHIFT_64ND_10
NOTE_OFF_57
NOTE_ON_69
NOTE_ON_65
NOTE_ON_60
NOTE_ON_53
TIME_SHIFT_64ND_9
NOTE_OFF_69
NOTE_OFF_65
NOTE_OFF_60
NOTE_OFF_53
NOTE_ON_69
NOTE_ON_65
NOTE_ON_60
NOTE_ON_48
TIME_SHIFT_64ND_9
NOTE_OFF_69
NOTE_OFF_65
NOTE_OFF_60
NOTE_OFF_48
NOTE_ON_69
NOTE_ON_65
NOTE_ON_60
NOTE_ON_57
TIME_SHIFT_64ND_10
NOTE_OFF_69
NOTE_OFF_65
NOTE_OFF_60
NOTE_OFF_57
NOTE_ON_55
NOTE_ON_46
TIME_SHIFT_64ND_10
NOTE_ON_67
NOTE_ON_62
TIME_SHIFT_64ND_11
NOTE_OFF_67
NOTE_OFF_62
NOTE_OFF_55
NOTE_OFF_46
NOTE_ON_52
NOTE_ON_48
TIME_SHIFT_64ND_10
NOTE_ON_60
NOTE_ON_58
TIME_SHIFT_64ND_11
NOTE_OFF_60
NOTE_OFF_58
NOTE_OFF_52
NOTE_OFF_48
NOTE_ON_53
TIME_SHIFT_64ND_11
NOTE_ON_65
NOTE_ON_60
NOTE_ON_57
TIME_SHIFT_64ND_11
NOTE_OFF_65
NOTE_OFF_60
NOTE_OFF_57
TIME_SHIFT_64ND_1
NOTE_OFF_53
NOTE_ON_65
NOTE_ON_60
NOTE_ON_57
TIME_SHIFT_64ND_11
NOTE_OFF_65
NOTE_OFF_60
NOTE_OFF_57
<END>
