TIME_SHIFT_64ND_10
VEL_3
NOTE_ON_81
VEL_3
NOTE_ON_57
TIME_SHIFT_64ND_10
NOTE_OFF_81
NOTE_OFF_57
VEL_4
NOTE_ON_88
VEL_3
NOTE_ON_64
TIME_SHIFT_64ND_62
NOTE_OFF_88
NOTE_OFF_64
VEL_3
NOTE_ON_86
VEL_2
NOTE_ON_62
TIME_SHIFT_64ND_2
NOTE_OFF_86
NOTE_OFF_62
VEL_2
NOTE_ON_88
VEL_2
NOTE_ON_64
TIME_SHIFT_64ND_2
NOTE_OFF_88
NOTE_OFF_64
VEL_3
NOTE_ON_86
VEL_3
NOTE_ON_62
TIME_SHIFT_64ND_8
NOTE_OFF_86
NOTE_OFF_62
VEL_3
NOTE_ON_84
VEL_2
NOTE_ON_60
TIME_SHIFT_64ND_9
NOTE_OFF_84
NOTE_OFF_60
VEL_3
NOTE_ON_86
VEL_2
NOTE_ON_62
TIME_SHIFT_64ND_9
NOTE_OFF_86
NOTE_OFF_62
VEL_3
NOTE_ON_88
VEL_3
NOTE_ON_64
TIME_SHIFT_64ND_8
NOTE_OFF_88
NOTE_OFF_64
VEL_4
NOTE_ON_89
VEL_3
NOTE_ON_65
TIME_SHIFT_64ND_8
NOTE_OFF_89
NOTE_OFF_65
VEL_4
NOTE_ON_91
VEL_3
NOTE_ON_67
TIME_SHIFT_64ND_8
NOTE_OFF_91
NOTE_OFF_67
VEL_4
NOTE_ON_88
VEL_3
NOTE_ON_64
TIME_SHIFT_64ND_8
NOTE_OFF_88
NOTE_OFF_64
VEL_4
NOTE_ON_89
VEL_3
NOTE_ON_65
TIME_SHIFT_64ND_8
NOTE_OFF_89
NOTE_OFF_65
VEL_3
NOTE_ON_88
VEL_3
NOTE_ON_64
TIME_SHIFT_64ND_4
NOTE_OFF_88
NOTE_OFF_64
VEL_3
NOTE_ON_86
VEL_3
NOTE_ON_62
TIME_SHIFT_64ND_2
NOTE_OFF_86
NOTE_OFF_62
VEL_3
NOTE_ON_88
VEL_3
NOTE_ON_64
TIME_SHIFT_64ND_2
NOTE_OFF_88
NOTE_OFF_64
VEL_4
NOTE_ON_86
VEL_3
NOTE_ON_62
TIME_SHIFT_64ND_19
NOTE_OFF_86
NOTE_OFF_62
VEL_3
NOTE_ON_84
VEL_3
NOTE_ON_60
TIME_SHIFT_64ND_19
NOTE_OFF_84
NOTE_OFF_60
VEL_3
NOTE_ON_82
VEL_3
NOTE_ON_58
TIME_SHIFT_64ND_19
NOTE_OFF_82
NOTE_OFF_58
VEL_2
NOTE_ON_45
TIME_SHIFT_64ND_10
NOTE_OFF_45
VEL_3
NOTE_ON_57
VEL_2
NOTE_ON_52
TIME_SHIFT_64ND_8
NOTE_OFF_57
NOTE_OFF_52
VEL_3
NOTE_ON_61
VEL_2
NOTE_ON_57
TIME_SHIFT_64ND_8
NOTE_OFF_61
NOTE_OFF_57
VEL_3
NOTE_ON_64
VEL_2
NOTE_ON_61
TIME_SHIFT_64ND_8
NOTE_OFF_64
NOTE_OFF_61
VEL_3
NOTE_ON_69
VEL_2
NOTE_ON_64
TIME_SHIFT_64ND_8
NOTE_OFF_69
NOTE_OFF_64
VEL_3
NOTE_ON_73
VEL_2
NOTE_ON_69
TIME_SHIFT_64ND_8
NOTE_OFF_73
NOTE_OFF_69
VEL_3
NOTE_ON_76
VEL_3
NOTE_ON_73
TIME_SHIFT_64ND_7
NOTE_OFF_76
NOTE_OFF_73
VEL_3
NOTE_ON_69
VEL_2
NOTE_ON_61
TIME_SHIFT_64ND_8
NOTE_OFF_69
NOTE_OFF_61
VEL_3
NOTE_ON_73
VEL_2
NOTE_ON_64
TIME_SHIFT_64ND_7
NOTE_OFF_73
NOTE_OFF_64
VEL_3
NOTE_ON_76
VEL_2
NOTE_ON_69
TIME_SHIFT_64ND_7
NOTE_OFF_76
NOTE_OFF_69
VEL_3
NOTE_ON_81
VEL_2
NOTE_ON_73
TIME_SHIFT_64ND_8
NOTE_OFF_81
NOTE_OFF_73
VEL_3
NOTE_ON_85
VEL_2
NOTE_ON_76
TIME_SHIFT_64ND_8
NOTE_OFF_85
NOTE_OFF_76
VEL_4
NOTE_ON_88
VEL_3
NOTE_ON_81
TIME_SHIFT_64ND_7
NOTE_OFF_88
NOTE_OFF_81
VEL_3
NOTE_ON_85
VEL_2
NOTE_ON_76
TIME_SHIFT_64ND_8
NOTE_OFF_85
NOTE_OFF_76
VEL_3
NOTE_ON_81
VEL_2
NOTE_ON_73
TIME_SHIFT_64ND_8
NOTE_OFF_81
NOTE_OFF_73
VEL_3
NOTE_ON_76
VEL_2
NOTE_ON_69
TIME_SHIFT_64ND_8
NOTE_OFF_76
NOTE_OFF_69
VEL_3
NOTE_ON_73
VEL_2
NOTE_ON_64
TIME_SHIFT_64ND_8
NOTE_OFF_73
NOTE_OFF_64
VEL_3
NOTE_ON_69
VEL_2
NOTE_ON_61
TIME_SHIFT_64ND_8
NOTE_OFF_69
NOTE_OFF_61
VEL_3
NOTE_ON_76
VEL_2
NOTE_ON_69
TIME_SHIFT_64ND_8
NOTE_OFF_76
NOTE_OFF_69
VEL_3
NOTE_ON_73
VEL_2
NOTE_ON_64
TIME_SHIFT_64ND_8
NOTE_OFF_73
NOTE_OFF_64
VEL_2
NOTE_ON_69
VEL_2
NOTE_ON_61
TIME_SHIFT_64ND_9
NOTE_OFF_69
NOTE_OFF_61
VEL_2
NOTE_ON_64
VEL_2
NOTE_ON_57
TIME_SHIFT_64ND_9
NOTE_OFF_57
NOTE_OFF_64
VEL_2
NOTE_ON_61
VEL_1
NOTE_ON_57
TIME_SHIFT_64ND_9
NOTE_OFF_57
NOTE_OFF_61
VEL_2
NOTE_ON_57
VEL_1
NOTE_ON_52
TIME_SHIFT_64ND_9
NOTE_OFF_57
NOTE_OFF_52
VEL_2
NOTE_ON_45
TIME_SHIFT_64ND_10
NOTE_OFF_45
VEL_3
NOTE_ON_81
VEL_2
NOTE_ON_57
TIME_SHIFT_64ND_10
NOTE_OFF_81
NOTE_OFF_57
VEL_3
NOTE_ON_88
VEL_2
NOTE_ON_64
TIME_SHIFT_64ND_62
NOTE_OFF_88
NOTE_OFF_64
VEL_2
NOTE_ON_86
VEL_2
NOTE_ON_62
TIME_SHIFT_64ND_2
NOTE_OFF_86
NOTE_OFF_62
VEL_2
NOTE_ON_88
VEL_2
NOTE_ON_64
TIME_SHIFT_64ND_2
NOTE_OFF_88
NOTE_OFF_64
VEL_3
NOTE_ON_86
VEL_2
NOTE_ON_62
TIME_SHIFT_64ND_8
NOTE_OFF_86
NOTE_OFF_62
VEL_3
NOTE_ON_84
VEL_2
NOTE_ON_60
TIME_SHIFT_64ND_9
NOTE_OFF_84
NOTE_OFF_60
VEL_3
NOTE_ON_86
VEL_2
NOTE_ON_62
TIME_SHIFT_64ND_9
NOTE_OFF_86
NOTE_OFF_62
VEL_3
NOTE_ON_88
VEL_2
NOTE_ON_64
TIME_SHIFT_64ND_8
NOTE_OFF_88
NOTE_OFF_64
VEL_3
NOTE_ON_89
VEL_2
NOTE_ON_65
TIME_SHIFT_64ND_8
NOTE_OFF_89
NOTE_OFF_65
VEL_3
NOTE_ON_91
VEL_2
NOTE_ON_67
TIME_SHIFT_64ND_8
NOTE_OFF_91
NOTE_OFF_67
VEL_3
NOTE_ON_88
VEL_2
NOTE_ON_64
TIME_SHIFT_64ND_8
NOTE_OFF_88
NOTE_OFF_64
VEL_3
NOTE_ON_89
VEL_2
NOTE_ON_65
TIME_SHIFT_64ND_8
NOTE_OFF_89
NOTE_OFF_65
VEL_3
NOTE_ON_88
VEL_2
NOTE_ON_64
TIME_SHIFT_64ND_4
NOTE_OFF_88
NOTE_OFF_64
VEL_3
NOTE_ON_86
VEL_2
NOTE_ON_62
TIME_SHIFT_64ND_2
NOTE_OFF_86
NOTE_OFF_62
VEL_2
NOTE_ON_88
VEL_2
NOTE_ON_64
TIME_SHIFT_64ND_2
NOTE_OFF_88
NOTE_OFF_64
VEL_3
NOTE_ON_86
VEL_2
NOTE_ON_62
TIME_SHIFT_64ND_19
NOTE_OFF_86
NOTE_OFF_62
VEL_3
NOTE_ON_84
VEL_2
NOTE_ON_60
TIME_SHIFT_64ND_20
NOTE_OFF_84
NOTE_OFF_60
VEL_3
NOTE_ON_82
VEL_2
NOTE_ON_58
TIME_SHIFT_64ND_20
NOTE_OFF_82
NOTE_OFF_58
VEL_2
NOTE_ON_81
VEL_2
NOTE_ON_57
TIME_SHIFT_64ND_8
NOTE_OFF_81
NOTE_OFF_57
VEL_2
NOTE_ON_82
VEL_2
NOTE_ON_58
TIME_SHIFT_64ND_8
NOTE_OFF_82
NOTE_OFF_58
VEL_3
NOTE_ON_84
VEL_2
NOTE_ON_60
TIME_SHIFT_64ND_8
NOTE_OFF_84
NOTE_OFF_60
VEL_3
NOTE_ON_86
VEL_2
NOTE_ON_62
TIME_SHIFT_64ND_8
NOTE_OFF_86
NOTE_OFF_62
VEL_3
NOTE_ON_89
VEL_2
NOTE_ON_65
TIME_SHIFT_64ND_13
NOTE_OFF_89
NOTE_OFF_65
VEL_3
NOTE_ON_86
VEL_2
NOTE_ON_62
TIME_SHIFT_64ND_2
NOTE_OFF_86
NOTE_OFF_62
VEL_2
NOTE_ON_88
VEL_2
NOTE_ON_64
TIME_SHIFT_64ND_2
NOTE_OFF_88
NOTE_OFF_64
VEL_3
NOTE_ON_86
VEL_2
NOTE_ON_62
TIME_SHIFT_64ND_19
NOTE_OFF_86
NOTE_OFF_62
VEL_3
NOTE_ON_84
VEL_2
NOTE_ON_60
TIME_SHIFT_64ND_19
NOTE_OFF_84
NOTE_OFF_60
VEL_3
NOTE_ON_82
VEL_2
NOTE_ON_58
TIME_SHIFT_64ND_19
NOTE_OFF_82
NOTE_OFF_58
VEL_2
NOTE_ON_81
VEL_2
NOTE_ON_57
TIME_SHIFT_64ND_8
NOTE_OFF_81
NOTE_OFF_57
VEL_2
NOTE_ON_82
VEL_2
NOTE_ON_58
TIME_SHIFT_64ND_8
NOTE_OFF_82
NOTE_OFF_58
VEL_3
NOTE_ON_84
VEL_2
NOTE_ON_60
TIME_SHIFT_64ND_8
NOTE_OFF_84
NOTE_OFF_60
VEL_3
NOTE_ON_86
VEL_2
NOTE_ON_62
TIME_SHIFT_64ND_8
NOTE_OFF_86
NOTE_OFF_62
VEL_3
NOTE_ON_88
VEL_2
NOTE_ON_64
TIME_SHIFT_64ND_8
NOTE_OFF_88
NOTE_OFF_64
VEL_3
NOTE_ON_91
VEL_2
NOTE_ON_67
TIME_SHIFT_64ND_8
NOTE_OFF_91
NOTE_OFF_67
VEL_3
NOTE_ON_89
VEL_2
NOTE_ON_65
TIME_SHIFT_64ND_5
NOTE_OFF_89
NOTE_OFF_65
VEL_2
NOTE_ON_86
VEL_2
NOTE_ON_62
TIME_SHIFT_64ND_2
NOTE_OFF_86
NOTE_OFF_62
VEL_2
NOTE_ON_88
VEL_2
NOTE_ON_64
TIME_SHIFT_64ND_2
NOTE_OFF_88
NOTE_OFF_64
VEL_3
NOTE_ON_86
VEL_2
NOTE_ON_62
TIME_SHIFT_64ND_9
NOTE_OFF_86
NOTE_OFF_62
VEL_3
NOTE_ON_84
VEL_2
NOTE_ON_60
TIME_SHIFT_64ND_9
NOTE_OFF_84
NOTE_OFF_60
VEL_2
NOTE_ON_82
VEL_2
NOTE_ON_58
TIME_SHIFT_64ND_9
NOTE_OFF_82
NOTE_OFF_58
VEL_3
NOTE_ON_86
VEL_2
NOTE_ON_62
TIME_SHIFT_64ND_9
NOTE_OFF_86
NOTE_OFF_62
VEL_2
NOTE_ON_85
VEL_2
NOTE_ON_61
TIME_SHIFT_64ND_9
NOTE_OFF_85
NOTE_OFF_61
VEL_4
NOTE_ON_45
TIME_SHIFT_64ND_7
VEL_3
NOTE_ON_70
VEL_1
NOTE_ON_61
TIME_SHIFT_64ND_5
NOTE_OFF_70
VEL_2
NOTE_ON_69
TIME_SHIFT_64ND_5
NOTE_OFF_69
NOTE_OFF_61
NOTE_OFF_45
VEL_3
NOTE_ON_52
TIME_SHIFT_64ND_5
VEL_3
NOTE_ON_70
VEL_1
NOTE_ON_61
TIME_SHIFT_64ND_5
NOTE_OFF_70
VEL_2
NOTE_ON_69
TIME_SHIFT_64ND_5
NOTE_OFF_69
NOTE_OFF_61
NOTE_OFF_52
VEL_3
NOTE_ON_57
TIME_SHIFT_64ND_5
VEL_3
NOTE_ON_70
VEL_1
NOTE_ON_61
TIME_SHIFT_64ND_5
NOTE_OFF_70
VEL_2
NOTE_ON_69
TIME_SHIFT_64ND_5
NOTE_OFF_69
NOTE_OFF_61
NOTE_OFF_57
VEL_4
NOTE_ON_45
TIME_SHIFT_64ND_5
VEL_3
NOTE_ON_69
VEL_1
NOTE_ON_62
TIME_SHIFT_64ND_5
NOTE_OFF_69
VEL_2
NOTE_ON_67
TIME_SHIFT_64ND_5
NOTE_OFF_67
NOTE_OFF_62
NOTE_OFF_45
VEL_3
NOTE_ON_52
TIME_SHIFT_64ND_4
VEL_3
NOTE_ON_69
VEL_1
NOTE_ON_62
TIME_SHIFT_64ND_4
NOTE_OFF_69
VEL_2
NOTE_ON_67
TIME_SHIFT_64ND_4
NOTE_OFF_67
NOTE_OFF_62
NOTE_OFF_52
VEL_3
NOTE_ON_58
TIME_SHIFT_64ND_4
VEL_2
NOTE_ON_69
VEL_1
NOTE_ON_62
TIME_SHIFT_64ND_5
NOTE_OFF_69
VEL_2
NOTE_ON_67
TIME_SHIFT_64ND_5
NOTE_OFF_67
NOTE_OFF_62
NOTE_OFF_58
VEL_4
NOTE_ON_45
TIME_SHIFT_64ND_6
VEL_3
NOTE_ON_70
VEL_1
NOTE_ON_61
TIME_SHIFT_64ND_5
NOTE_OFF_70
VEL_2
NOTE_ON_69
TIME_SHIFT_64ND_5
NOTE_OFF_69
NOTE_OFF_61
NOTE_OFF_45
VEL_3
NOTE_ON_52
TIME_SHIFT_64ND_5
VEL_3
NOTE_ON_70
VEL_2
NOTE_ON_61
TIME_SHIFT_64ND_5
NOTE_OFF_70
VEL_2
NOTE_ON_69
TIME_SHIFT_64ND_5
NOTE_OFF_69
NOTE_OFF_61
NOTE_OFF_52
VEL_3
NOTE_ON_57
TIME_SHIFT_64ND_5
VEL_3
NOTE_ON_70
VEL_2
NOTE_ON_61
TIME_SHIFT_64ND_5
NOTE_OFF_70
VEL_2
NOTE_ON_69
TIME_SHIFT_64ND_5
NOTE_OFF_69
NOTE_OFF_61
NOTE_OFF_57
VEL_4
NOTE_ON_45
TIME_SHIFT_64ND_5
VEL_3
NOTE_ON_70
VEL_1
NOTE_ON_62
TIME_SHIFT_64ND_5
NOTE_OFF_70
VEL_2
NOTE_ON_69
TIME_SHIFT_64ND_5
NOTE_OFF_69
NOTE_OFF_62
NOTE_OFF_45
VEL_3
NOTE_ON_52
TIME_SHIFT_64ND_5
VEL_3
NOTE_ON_69
VEL_1
NOTE_ON_62
TIME_SHIFT_64ND_5
NOTE_OFF_69
VEL_2
NOTE_ON_67
TIME_SHIFT_64ND_5
NOTE_OFF_67
NOTE_OFF_62
NOTE_OFF_52
VEL_3
NOTE_ON_58
TIME_SHIFT_64ND_5
VEL_2
NOTE_ON_67
VEL_1
NOTE_ON_62
TIME_SHIFT_64ND_5
NOTE_OFF_67
VEL_2
NOTE_ON_64
TIME_SHIFT_64ND_5
NOTE_OFF_64
NOTE_OFF_62
NOTE_OFF_58
VEL_4
NOTE_ON_45
TIME_SHIFT_64ND_6
VEL_3
NOTE_ON_70
VEL_1
NOTE_ON_61
TIME_SHIFT_64ND_5
NOTE_OFF_70
VEL_3
NOTE_ON_69
TIME_SHIFT_64ND_5
NOTE_OFF_69
NOTE_OFF_61
NOTE_OFF_45
VEL_3
NOTE_ON_52
TIME_SHIFT_64ND_5
VEL_3
NOTE_ON_70
VEL_1
NOTE_ON_61
TIME_SHIFT_64ND_5
NOTE_OFF_70
VEL_3
NOTE_ON_69
TIME_SHIFT_64ND_5
NOTE_OFF_69
NOTE_OFF_61
NOTE_OFF_52
VEL_3
NOTE_ON_57
TIME_SHIFT_64ND_5
VEL_3
NOTE_ON_70
VEL_1
NOTE_ON_61
TIME_SHIFT_64ND_5
NOTE_OFF_70
VEL_3
NOTE_ON_69
TIME_SHIFT_64ND_5
NOTE_OFF_69
NOTE_OFF_61
NOTE_OFF_57
VEL_4
NOTE_ON_41
TIME_SHIFT_64ND_6
VEL_3
NOTE_ON_67
VEL_2
NOTE_ON_57
TIME_SHIFT_64ND_5
NOTE_OFF_67
VEL_3
NOTE_ON_65
TIME_SHIFT_64ND_5
NOTE_OFF_65
NOTE_OFF_57
NOTE_OFF_41
VEL_3
NOTE_ON_48
TIME_SHIFT_64ND_5
VEL_3
NOTE_ON_67
VEL_2
NOTE_ON_57
TIME_SHIFT_64ND_5
NOTE_OFF_67
VEL_3
NOTE_ON_65
TIME_SHIFT_64ND_5
NOTE_OFF_65
NOTE_OFF_57
NOTE_OFF_48
VEL_4
NOTE_ON_57
TIME_SHIFT_64ND_5
NOTE_OFF_57
VEL_3
NOTE_ON_67
VEL_2
NOTE_ON_57
TIME_SHIFT_64ND_5
NOTE_OFF_67
VEL_3
NOTE_ON_65
TIME_SHIFT_64ND_5
NOTE_OFF_65
NOTE_OFF_57
VEL_4
NOTE_ON_48
TIME_SHIFT_64ND_6
VEL_3
NOTE_ON_65
VEL_2
NOTE_ON_60
TIME_SHIFT_64ND_5
NOTE_OFF_65
VEL_3
NOTE_ON_64
TIME_SHIFT_64ND_5
NOTE_OFF_64
NOTE_OFF_60
NOTE_OFF_48
VEL_4
NOTE_ON_55
TIME_SHIFT_64ND_5
VEL_3
NOTE_ON_65
VEL_2
NOTE_ON_60
TIME_SHIFT_64ND_5
NOTE_OFF_65
VEL_3
NOTE_ON_64
TIME_SHIFT_64ND_5
NOTE_OFF_64
NOTE_OFF_60
NOTE_OFF_55
VEL_4
NOTE_ON_60
TIME_SHIFT_64ND_5
NOTE_OFF_60
VEL_3
NOTE_ON_65
VEL_2
NOTE_ON_60
TIME_SHIFT_64ND_5
NOTE_OFF_65
VEL_3
NOTE_ON_64
TIME_SHIFT_64ND_5
NOTE_OFF_64
NOTE_OFF_60
VEL_4
NOTE_ON_55
TIME_SHIFT_64ND_4
NOTE_OFF_55
TIME_SHIFT_64ND_1
VEL_3
NOTE_ON_64
VEL_2
NOTE_ON_58
TIME_SHIFT_64ND_6
NOTE_OFF_64
VEL_3
NOTE_ON_62
TIME_SHIFT_64ND_6
NOTE_OFF_62
NOTE_OFF_58
VEL_3
NOTE_ON_57
TIME_SHIFT_64ND_4
NOTE_OFF_57
TIME_SHIFT_64ND_1
VEL_3
NOTE_ON_64
VEL_1
NOTE_ON_58
TIME_SHIFT_64ND_6
NOTE_OFF_64
VEL_2
NOTE_ON_62
TIME_SHIFT_64ND_4
VEL_3
NOTE_ON_60
TIME_SHIFT_64ND_2
NOTE_OFF_62
NOTE_OFF_58
NOTE_OFF_60
VEL_3
NOTE_ON_58
TIME_SHIFT_64ND_5
NOTE_OFF_58
TIME_SHIFT_64ND_2
VEL_3
NOTE_ON_64
VEL_1
NOTE_ON_58
TIME_SHIFT_64ND_6
NOTE_OFF_64
VEL_2
NOTE_ON_62
TIME_SHIFT_64ND_8
NOTE_OFF_62
NOTE_OFF_58
VEL_4
NOTE_ON_45
TIME_SHIFT_64ND_7
VEL_3
NOTE_ON_70
VEL_1
NOTE_ON_61
TIME_SHIFT_64ND_5
NOTE_OFF_70
VEL_2
NOTE_ON_69
TIME_SHIFT_64ND_5
NOTE_OFF_69
NOTE_OFF_61
NOTE_OFF_45
VEL_3
NOTE_ON_52
TIME_SHIFT_64ND_5
VEL_3
NOTE_ON_70
VEL_1
NOTE_ON_61
TIME_SHIFT_64ND_5
NOTE_OFF_70
VEL_2
NOTE_ON_69
TIME_SHIFT_64ND_5
NOTE_OFF_69
NOTE_OFF_61
NOTE_OFF_52
VEL_3
NOTE_ON_57
TIME_SHIFT_64ND_5
VEL_3
NOTE_ON_70
VEL_1
NOTE_ON_61
TIME_SHIFT_64ND_5
NOTE_OFF_70
VEL_2
NOTE_ON_69
TIME_SHIFT_64ND_5
NOTE_OFF_69
NOTE_OFF_61
NOTE_OFF_57
VEL_4
NOTE_ON_45
TIME_SHIFT_64ND_5
VEL_3
NOTE_ON_69
VEL_1
NOTE_ON_62
TIME_SHIFT_64ND_5
NOTE_OFF_69
VEL_2
NOTE_ON_67
TIME_SHIFT_64ND_5
NOTE_OFF_67
NOTE_OFF_62
NOTE_OFF_45
VEL_3
NOTE_ON_52
TIME_SHIFT_64ND_4
VEL_3
NOTE_ON_69
VEL_1
NOTE_ON_62
TIME_SHIFT_64ND_4
NOTE_OFF_69
VEL_2
NOTE_ON_67
TIME_SHIFT_64ND_4
NOTE_OFF_67
NOTE_OFF_62
NOTE_OFF_52
VEL_3
NOTE_ON_58
TIME_SHIFT_64ND_4
VEL_2
NOTE_ON_69
VEL_1
NOTE_ON_62
TIME_SHIFT_64ND_4
NOTE_OFF_69
VEL_2
NOTE_ON_67
TIME_SHIFT_64ND_5
NOTE_OFF_67
NOTE_OFF_62
NOTE_OFF_58
VEL_4
NOTE_ON_45
TIME_SHIFT_64ND_6
VEL_3
NOTE_ON_70
VEL_1
NOTE_ON_61
TIME_SHIFT_64ND_5
NOTE_OFF_70
VEL_2
NOTE_ON_69
TIME_SHIFT_64ND_5
NOTE_OFF_69
NOTE_OFF_61
NOTE_OFF_45
VEL_3
NOTE_ON_52
TIME_SHIFT_64ND_5
VEL_3
NOTE_ON_70
VEL_1
NOTE_ON_61
TIME_SHIFT_64ND_5
NOTE_OFF_70
VEL_2
NOTE_ON_69
TIME_SHIFT_64ND_5
NOTE_OFF_69
NOTE_OFF_61
NOTE_OFF_52
VEL_3
NOTE_ON_57
TIME_SHIFT_64ND_5
VEL_3
NOTE_ON_70
VEL_1
NOTE_ON_61
TIME_SHIFT_64ND_5
NOTE_OFF_70
VEL_2
NOTE_ON_69
TIME_SHIFT_64ND_5
NOTE_OFF_69
NOTE_OFF_61
NOTE_OFF_57
VEL_3
NOTE_ON_45
TIME_SHIFT_64ND_5
VEL_3
NOTE_ON_69
VEL_1
NOTE_ON_62
TIME_SHIFT_64ND_5
NOTE_OFF_69
VEL_2
NOTE_ON_67
TIME_SHIFT_64ND_5
NOTE_OFF_67
NOTE_OFF_62
NOTE_OFF_45
VEL_3
NOTE_ON_52
TIME_SHIFT_64ND_5
VEL_3
NOTE_ON_69
VEL_1
NOTE_ON_62
TIME_SHIFT_64ND_5
NOTE_OFF_69
VEL_2
NOTE_ON_67
TIME_SHIFT_64ND_5
NOTE_OFF_67
NOTE_OFF_62
NOTE_OFF_52
VEL_3
NOTE_ON_58
TIME_SHIFT_64ND_5
VEL_2
NOTE_ON_69
VEL_1
NOTE_ON_62
TIME_SHIFT_64ND_5
NOTE_OFF_69
VEL_2
NOTE_ON_67
TIME_SHIFT_64ND_5
NOTE_OFF_67
NOTE_OFF_62
NOTE_OFF_58
VEL_3
NOTE_ON_45
TIME_SHIFT_64ND_10
NOTE_OFF_45
VEL_3
NOTE_ON_81
VEL_2
NOTE_ON_57
TIME_SHIFT_64ND_9
NOTE_OFF_81
NOTE_OFF_57
VEL_3
NOTE_ON_83
VEL_2
NOTE_ON_59
TIME_SHIFT_64ND_8
NOTE_OFF_83
NOTE_OFF_59
VEL_3
NOTE_ON_85
VEL_3
NOTE_ON_61
TIME_SHIFT_64ND_9
NOTE_OFF_85
NOTE_OFF_61
VEL_3
NOTE_ON_86
VEL_3
NOTE_ON_62
TIME_SHIFT_64ND_8
NOTE_OFF_86
NOTE_OFF_62
VEL_3
NOTE_ON_88
VEL_3
NOTE_ON_64
TIME_SHIFT_64ND_8
NOTE_OFF_88
NOTE_OFF_64
VEL_3
NOTE_ON_89
VEL_3
NOTE_ON_65
TIME_SHIFT_64ND_12
NOTE_OFF_89
NOTE_OFF_65
VEL_3
NOTE_ON_88
VEL_3
NOTE_ON_64
TIME_SHIFT_64ND_2
NOTE_OFF_88
NOTE_OFF_64
VEL_3
NOTE_ON_89
VEL_2
NOTE_ON_65
TIME_SHIFT_64ND_2
NOTE_OFF_89
NOTE_OFF_65
VEL_3
NOTE_ON_88
VEL_3
NOTE_ON_64
TIME_SHIFT_64ND_8
NOTE_OFF_88
NOTE_OFF_64
VEL_3
NOTE_ON_86
VEL_3
NOTE_ON_62
TIME_SHIFT_64ND_8
NOTE_OFF_86
NOTE_OFF_62
VEL_3
NOTE_ON_84
VEL_2
NOTE_ON_60
TIME_SHIFT_64ND_8
NOTE_OFF_84
NOTE_OFF_60
VEL_3
NOTE_ON_86
VEL_3
NOTE_ON_62
TIME_SHIFT_64ND_8
NOTE_OFF_86
NOTE_OFF_62
VEL_3
NOTE_ON_88
VEL_2
NOTE_ON_64
TIME_SHIFT_64ND_8
NOTE_OFF_88
NOTE_OFF_64
VEL_3
NOTE_ON_89
VEL_2
NOTE_ON_65
TIME_SHIFT_64ND_8
NOTE_OFF_89
NOTE_OFF_65
VEL_3
NOTE_ON_91
VEL_3
NOTE_ON_67
TIME_SHIFT_64ND_8
NOTE_OFF_91
NOTE_OFF_67
VEL_3
NOTE_ON_88
VEL_3
NOTE_ON_64
TIME_SHIFT_64ND_8
NOTE_OFF_88
NOTE_OFF_64
VEL_3
NOTE_ON_89
VEL_2
NOTE_ON_65
TIME_SHIFT_64ND_8
NOTE_OFF_89
NOTE_OFF_65
VEL_3
NOTE_ON_88
VEL_2
NOTE_ON_64
TIME_SHIFT_64ND_4
NOTE_OFF_88
NOTE_OFF_64
VEL_3
NOTE_ON_86
VEL_2
NOTE_ON_62
TIME_SHIFT_64ND_2
NOTE_OFF_86
NOTE_OFF_62
VEL_3
NOTE_ON_88
VEL_2
NOTE_ON_64
TIME_SHIFT_64ND_2
NOTE_OFF_88
NOTE_OFF_64
VEL_3
NOTE_ON_86
VEL_3
NOTE_ON_62
TIME_SHIFT_64ND_18
NOTE_OFF_86
NOTE_OFF_62
VEL_3
NOTE_ON_84
VEL_2
NOTE_ON_60
TIME_SHIFT_64ND_19
NOTE_OFF_84
NOTE_OFF_60
VEL_3
NOTE_ON_82
VEL_2
NOTE_ON_58
TIME_SHIFT_64ND_19
NOTE_OFF_82
NOTE_OFF_58
VEL_3
NOTE_ON_81
VEL_3
NOTE_ON_57
TIME_SHIFT_64ND_9
NOTE_OFF_81
NOTE_OFF_57
VEL_3
NOTE_ON_83
VEL_3
NOTE_ON_59
TIME_SHIFT_64ND_8
NOTE_OFF_83
NOTE_OFF_59
VEL_3
NOTE_ON_85
VEL_3
NOTE_ON_61
TIME_SHIFT_64ND_8
NOTE_OFF_85
NOTE_OFF_61
VEL_3
NOTE_ON_86
VEL_3
NOTE_ON_62
TIME_SHIFT_64ND_8
NOTE_OFF_86
NOTE_OFF_62
VEL_3
NOTE_ON_88
VEL_3
NOTE_ON_64
TIME_SHIFT_64ND_8
NOTE_OFF_88
NOTE_OFF_64
VEL_4
NOTE_ON_89
VEL_3
NOTE_ON_65
TIME_SHIFT_64ND_8
NOTE_OFF_89
NOTE_OFF_65
VEL_4
NOTE_ON_91
VEL_3
NOTE_ON_67
TIME_SHIFT_64ND_8
NOTE_OFF_91
NOTE_OFF_67
VEL_4
NOTE_ON_93
VEL_3
NOTE_ON_69
TIME_SHIFT_64ND_4
NOTE_OFF_93
NOTE_OFF_69
VEL_4
NOTE_ON_94
VEL_3
NOTE_ON_70
TIME_SHIFT_64ND_2
NOTE_OFF_94
NOTE_OFF_70
VEL_4
NOTE_ON_96
VEL_3
NOTE_ON_72
TIME_SHIFT_64ND_2
NOTE_OFF_96
NOTE_OFF_72
VEL_4
NOTE_ON_94
VEL_3
NOTE_ON_70
TIME_SHIFT_64ND_15
NOTE_OFF_94
NOTE_OFF_70
VEL_4
NOTE_ON_93
VEL_3
NOTE_ON_69
TIME_SHIFT_64ND_8
NOTE_OFF_93
NOTE_OFF_69
VEL_4
NOTE_ON_91
VEL_3
NOTE_ON_67
TIME_SHIFT_64ND_8
NOTE_OFF_91
NOTE_OFF_67
VEL_4
NOTE_ON_93
VEL_3
NOTE_ON_69
TIME_SHIFT_64ND_16
NOTE_OFF_93
NOTE_OFF_69
VEL_4
NOTE_ON_93
VEL_3
NOTE_ON_69
TIME_SHIFT_64ND_8
NOTE_OFF_93
NOTE_OFF_69
VEL_4
NOTE_ON_91
VEL_3
NOTE_ON_67
TIME_SHIFT_64ND_8
NOTE_OFF_91
NOTE_OFF_67
VEL_5
NOTE_ON_94
VEL_3
NOTE_ON_70
TIME_SHIFT_64ND_8
NOTE_OFF_94
NOTE_OFF_70
VEL_4
NOTE_ON_93
VEL_3
NOTE_ON_69
TIME_SHIFT_64ND_4
NOTE_OFF_93
NOTE_OFF_69
VEL_4
NOTE_ON_89
VEL_2
NOTE_ON_65
TIME_SHIFT_64ND_2
NOTE_OFF_89
NOTE_OFF_65
VEL_3
NOTE_ON_91
VEL_2
NOTE_ON_67
TIME_SHIFT_64ND_2
NOTE_OFF_91
NOTE_OFF_67
VEL_4
NOTE_ON_89
VEL_3
NOTE_ON_65
TIME_SHIFT_64ND_8
NOTE_OFF_89
NOTE_OFF_65
VEL_4
NOTE_ON_87
VEL_3
NOTE_ON_63
TIME_SHIFT_64ND_8
NOTE_OFF_87
NOTE_OFF_63
VEL_4
NOTE_ON_86
VEL_3
NOTE_ON_62
TIME_SHIFT_64ND_8
NOTE_OFF_86
NOTE_OFF_62
VEL_3
NOTE_ON_88
VEL_2
NOTE_ON_64
TIME_SHIFT_64ND_9
NOTE_OFF_88
NOTE_OFF_64
VEL_3
NOTE_ON_84
VEL_2
NOTE_ON_60
TIME_SHIFT_64ND_9
NOTE_OFF_84
NOTE_OFF_60
VEL_3
NOTE_ON_82
VEL_3
NOTE_ON_58
TIME_SHIFT_64ND_9
NOTE_OFF_82
NOTE_OFF_58
VEL_3
NOTE_ON_45
TIME_SHIFT_64ND_7
VEL_3
NOTE_ON_70
VEL_1
NOTE_ON_61
TIME_SHIFT_64ND_5
NOTE_OFF_70
VEL_2
NOTE_ON_69
TIME_SHIFT_64ND_5
NOTE_OFF_69
NOTE_OFF_61
NOTE_OFF_45
VEL_3
NOTE_ON_52
TIME_SHIFT_64ND_5
VEL_3
NOTE_ON_70
VEL_1
NOTE_ON_61
TIME_SHIFT_64ND_5
NOTE_OFF_70
VEL_2
NOTE_ON_69
TIME_SHIFT_64ND_5
NOTE_OFF_69
NOTE_OFF_61
NOTE_OFF_52
VEL_3
NOTE_ON_57
TIME_SHIFT_64ND_5
VEL_3
NOTE_ON_70
VEL_1
NOTE_ON_61
TIME_SHIFT_64ND_5
NOTE_OFF_70
VEL_2
NOTE_ON_69
TIME_SHIFT_64ND_5
NOTE_OFF_69
NOTE_OFF_61
NOTE_OFF_57
VEL_3
NOTE_ON_45
TIME_SHIFT_64ND_5
VEL_3
NOTE_ON_69
VEL_1
NOTE_ON_62
TIME_SHIFT_64ND_5
NOTE_OFF_69
VEL_2
NOTE_ON_67
TIME_SHIFT_64ND_5
NOTE_OFF_67
NOTE_OFF_62
NOTE_OFF_45
VEL_3
NOTE_ON_52
TIME_SHIFT_64ND_4
VEL_3
NOTE_ON_69
VEL_1
NOTE_ON_62
TIME_SHIFT_64ND_4
NOTE_OFF_69
VEL_2
NOTE_ON_67
TIME_SHIFT_64ND_4
NOTE_OFF_67
NOTE_OFF_62
NOTE_OFF_52
VEL_3
NOTE_ON_58
TIME_SHIFT_64ND_4
VEL_2
NOTE_ON_69
VEL_1
NOTE_ON_62
TIME_SHIFT_64ND_4
NOTE_OFF_69
VEL_2
NOTE_ON_67
TIME_SHIFT_64ND_5
NOTE_OFF_67
NOTE_OFF_62
NOTE_OFF_58
VEL_3
NOTE_ON_45
TIME_SHIFT_64ND_6
VEL_3
NOTE_ON_70
VEL_1
NOTE_ON_61
TIME_SHIFT_64ND_5
NOTE_OFF_70
VEL_2
NOTE_ON_69
TIME_SHIFT_64ND_5
NOTE_OFF_69
NOTE_OFF_61
NOTE_OFF_45
VEL_3
NOTE_ON_52
TIME_SHIFT_64ND_5
VEL_3
NOTE_ON_70
VEL_1
NOTE_ON_61
TIME_SHIFT_64ND_5
NOTE_OFF_70
VEL_2
NOTE_ON_69
TIME_SHIFT_64ND_5
NOTE_OFF_69
NOTE_OFF_61
NOTE_OFF_52
VEL_3
NOTE_ON_57
TIME_SHIFT_64ND_5
VEL_3
NOTE_ON_70
VEL_1
NOTE_ON_61
TIME_SHIFT_64ND_5
NOTE_OFF_70
VEL_2
NOTE_ON_69
TIME_SHIFT_64ND_5
NOTE_OFF_69
NOTE_OFF_61
NOTE_OFF_57
VEL_3
NOTE_ON_45
TIME_SHIFT_64ND_5
VEL_3
NOTE_ON_70
VEL_1
NOTE_ON_62
TIME_SHIFT_64ND_5
NOTE_OFF_70
VEL_2
NOTE_ON_69
TIME_SHIFT_64ND_5
NOTE_OFF_69
NOTE_OFF_62
NOTE_OFF_45
VEL_3
NOTE_ON_52
TIME_SHIFT_64ND_5
VEL_3
NOTE_ON_69
VEL_1
NOTE_ON_62
TIME_SHIFT_64ND_5
NOTE_OFF_69
VEL_2
NOTE_ON_67
TIME_SHIFT_64ND_5
NOTE_OFF_67
NOTE_OFF_62
NOTE_OFF_52
VEL_3
NOTE_ON_58
TIME_SHIFT_64ND_5
VEL_2
NOTE_ON_67
VEL_1
NOTE_ON_62
TIME_SHIFT_64ND_5
NOTE_OFF_67
VEL_2
NOTE_ON_64
TIME_SHIFT_64ND_5
NOTE_OFF_64
NOTE_OFF_62
NOTE_OFF_58
VEL_4
NOTE_ON_45
TIME_SHIFT_64ND_6
VEL_3
NOTE_ON_70
VEL_1
NOTE_ON_61
TIME_SHIFT_64ND_5
NOTE_OFF_70
VEL_3
NOTE_ON_69
TIME_SHIFT_64ND_5
NOTE_OFF_69
NOTE_OFF_61
NOTE_OFF_45
VEL_3
NOTE_ON_52
TIME_SHIFT_64ND_5
VEL_3
NOTE_ON_70
VEL_1
NOTE_ON_61
TIME_SHIFT_64ND_5
NOTE_OFF_70
VEL_3
NOTE_ON_69
TIME_SHIFT_64ND_5
NOTE_OFF_69
NOTE_OFF_61
NOTE_OFF_52
VEL_3
NOTE_ON_57
TIME_SHIFT_64ND_5
VEL_3
NOTE_ON_70
VEL_1
NOTE_ON_61
TIME_SHIFT_64ND_5
NOTE_OFF_70
VEL_3
NOTE_ON_69
TIME_SHIFT_64ND_5
NOTE_OFF_69
NOTE_OFF_61
NOTE_OFF_57
VEL_4
NOTE_ON_41
TIME_SHIFT_64ND_6
VEL_3
NOTE_ON_67
VEL_1
NOTE_ON_57
TIME_SHIFT_64ND_5
NOTE_OFF_67
VEL_2
NOTE_ON_65
TIME_SHIFT_64ND_5
NOTE_OFF_65
NOTE_OFF_57
NOTE_OFF_41
VEL_3
NOTE_ON_48
TIME_SHIFT_64ND_5
VEL_3
NOTE_ON_67
VEL_1
NOTE_ON_57
TIME_SHIFT_64ND_5
NOTE_OFF_67
VEL_2
NOTE_ON_65
TIME_SHIFT_64ND_5
NOTE_OFF_65
NOTE_OFF_57
NOTE_OFF_48
VEL_4
NOTE_ON_57
TIME_SHIFT_64ND_5
NOTE_OFF_57
VEL_3
NOTE_ON_67
VEL_1
NOTE_ON_57
TIME_SHIFT_64ND_5
NOTE_OFF_67
VEL_2
NOTE_ON_65
TIME_SHIFT_64ND_5
NOTE_OFF_65
NOTE_OFF_57
VEL_4
NOTE_ON_48
TIME_SHIFT_64ND_6
VEL_3
NOTE_ON_65
VEL_2
NOTE_ON_60
TIME_SHIFT_64ND_5
NOTE_OFF_65
VEL_3
NOTE_ON_64
TIME_SHIFT_64ND_5
NOTE_OFF_64
NOTE_OFF_60
NOTE_OFF_48
VEL_4
NOTE_ON_55
TIME_SHIFT_64ND_5
VEL_3
NOTE_ON_65
VEL_2
NOTE_ON_60
TIME_SHIFT_64ND_5
NOTE_OFF_65
VEL_3
NOTE_ON_64
TIME_SHIFT_64ND_5
NOTE_OFF_64
NOTE_OFF_60
NOTE_OFF_55
VEL_4
NOTE_ON_60
TIME_SHIFT_64ND_5
NOTE_OFF_60
VEL_3
NOTE_ON_65
VEL_2
NOTE_ON_60
TIME_SHIFT_64ND_5
NOTE_OFF_65
VEL_3
NOTE_ON_64
TIME_SHIFT_64ND_5
NOTE_OFF_64
NOTE_OFF_60
VEL_4
NOTE_ON_55
TIME_SHIFT_64ND_4
NOTE_OFF_55
TIME_SHIFT_64ND_1
VEL_3
NOTE_ON_64
VEL_1
NOTE_ON_58
TIME_SHIFT_64ND_6
NOTE_OFF_64
VEL_2
NOTE_ON_62
TIME_SHIFT_64ND_6
NOTE_OFF_62
NOTE_OFF_58
VEL_3
NOTE_ON_57
TIME_SHIFT_64ND_4
NOTE_OFF_57
TIME_SHIFT_64ND_1
VEL_3
NOTE_ON_64
VEL_1
NOTE_ON_58
TIME_SHIFT_64ND_6
NOTE_OFF_64
VEL_2
NOTE_ON_62
TIME_SHIFT_64ND_4
VEL_3
NOTE_ON_60
TIME_SHIFT_64ND_2
NOTE_OFF_62
NOTE_OFF_58
NOTE_OFF_60
VEL_3
NOTE_ON_58
TIME_SHIFT_64ND_5
NOTE_OFF_58
TIME_SHIFT_64ND_2
VEL_3
NOTE_ON_64
VEL_1
NOTE_ON_58
TIME_SHIFT_64ND_6
NOTE_OFF_64
VEL_2
NOTE_ON_62
TIME_SHIFT_64ND_7
NOTE_OFF_62
NOTE_OFF_58
VEL_4
NOTE_ON_45
TIME_SHIFT_64ND_18
NOTE_OFF_45
VEL_3
NOTE_ON_52
TIME_SHIFT_64ND_18
NOTE_OFF_52
VEL_3
NOTE_ON_61
VEL_3
NOTE_ON_64
VEL_3
NOTE_ON_57
TIME_SHIFT_64ND_18
NOTE_OFF_61
NOTE_OFF_64
NOTE_OFF_57
VEL_2
NOTE_ON_50
TIME_SHIFT_64ND_6
NOTE_OFF_50
VEL_3
NOTE_ON_52
TIME_SHIFT_64ND_6
NOTE_OFF_52
VEL_3
NOTE_ON_53
TIME_SHIFT_64ND_6
NOTE_OFF_53
VEL_3
NOTE_ON_62
VEL_3
NOTE_ON_64
VEL_3
NOTE_ON_58
VEL_3
NOTE_ON_55
TIME_SHIFT_64ND_6
NOTE_OFF_55
VEL_3
NOTE_ON_57
TIME_SHIFT_64ND_3
NOTE_OFF_62
NOTE_OFF_64
NOTE_OFF_58
TIME_SHIFT_64ND_3
NOTE_OFF_57
VEL_3
NOTE_ON_58
TIME_SHIFT_64ND_6
NOTE_OFF_58
VEL_3
NOTE_ON_60
TIME_SHIFT_64ND_6
NOTE_OFF_60
VEL_3
NOTE_ON_58
TIME_SHIFT_64ND_6
NOTE_OFF_58
VEL_3
NOTE_ON_57
TIME_SHIFT_64ND_6
NOTE_OFF_57
VEL_4
NOTE_ON_45
TIME_SHIFT_64ND_18
NOTE_OFF_45
VEL_3
NOTE_ON_52
TIME_SHIFT_64ND_18
NOTE_OFF_52
VEL_3
NOTE_ON_64
VEL_3
NOTE_ON_61
VEL_3
NOTE_ON_57
TIME_SHIFT_64ND_20
NOTE_OFF_64
NOTE_OFF_61
NOTE_OFF_57
VEL_2
NOTE_ON_50
TIME_SHIFT_64ND_6
NOTE_OFF_50
VEL_2
NOTE_ON_52
TIME_SHIFT_64ND_6
NOTE_OFF_52
VEL_2
NOTE_ON_53
TIME_SHIFT_64ND_6
NOTE_OFF_53
VEL_2
NOTE_ON_62
VEL_2
NOTE_ON_64
VEL_2
NOTE_ON_58
VEL_2
NOTE_ON_55
TIME_SHIFT_64ND_6
NOTE_OFF_55
VEL_3
NOTE_ON_57
TIME_SHIFT_64ND_3
NOTE_OFF_62
NOTE_OFF_64
NOTE_OFF_58
TIME_SHIFT_64ND_3
NOTE_OFF_57
VEL_3
NOTE_ON_58
TIME_SHIFT_64ND_7
NOTE_OFF_58
VEL_3
NOTE_ON_60
TIME_SHIFT_64ND_7
NOTE_OFF_60
VEL_3
NOTE_ON_58
TIME_SHIFT_64ND_7
NOTE_OFF_58
VEL_2
NOTE_ON_57
TIME_SHIFT_64ND_8
NOTE_OFF_57
VEL_3
NOTE_ON_76
VEL_3
NOTE_ON_70
VEL_2
NOTE_ON_62
VEL_2
NOTE_ON_56
TIME_SHIFT_64ND_82
NOTE_OFF_76
NOTE_OFF_70
NOTE_OFF_62
NOTE_OFF_56
VEL_3
NOTE_ON_82
VEL_2
NOTE_ON_58
TIME_SHIFT_64ND_65
NOTE_OFF_82
NOTE_OFF_58
VEL_3
NOTE_ON_84
VEL_2
NOTE_ON_60
TIME_SHIFT_64ND_9
NOTE_OFF_84
NOTE_OFF_60
VEL_3
NOTE_ON_86
VEL_2
NOTE_ON_62
TIME_SHIFT_64ND_9
NOTE_OFF_86
NOTE_OFF_62
VEL_2
NOTE_ON_89
VEL_2
NOTE_ON_65
TIME_SHIFT_64ND_9
NOTE_OFF_89
NOTE_OFF_65
VEL_3
NOTE_ON_86
VEL_2
NOTE_ON_62
TIME_SHIFT_64ND_8
NOTE_OFF_86
NOTE_OFF_62
VEL_3
NOTE_ON_84
VEL_2
NOTE_ON_60
TIME_SHIFT_64ND_4
NOTE_OFF_84
NOTE_OFF_60
VEL_2
NOTE_ON_84
VEL_2
NOTE_ON_60
TIME_SHIFT_64ND_2
NOTE_OFF_84
NOTE_OFF_60
VEL_2
NOTE_ON_86
VEL_2
NOTE_ON_62
TIME_SHIFT_64ND_2
NOTE_OFF_86
NOTE_OFF_62
VEL_2
NOTE_ON_84
VEL_2
NOTE_ON_60
TIME_SHIFT_64ND_8
NOTE_OFF_84
NOTE_OFF_60
VEL_3
NOTE_ON_82
VEL_2
NOTE_ON_58
TIME_SHIFT_64ND_9
NOTE_OFF_82
NOTE_OFF_58
VEL_3
NOTE_ON_77
VEL_2
NOTE_ON_53
TIME_SHIFT_64ND_9
NOTE_OFF_77
NOTE_OFF_53
VEL_2
NOTE_ON_82
VEL_2
NOTE_ON_58
TIME_SHIFT_64ND_10
NOTE_OFF_82
NOTE_OFF_58
VEL_2
NOTE_ON_81
VEL_2
NOTE_ON_57
TIME_SHIFT_64ND_41
NOTE_OFF_81
NOTE_OFF_57
VEL_2
NOTE_ON_80
VEL_2
NOTE_ON_56
TIME_SHIFT_64ND_10
NOTE_OFF_80
NOTE_OFF_56
VEL_2
NOTE_ON_77
VEL_2
NOTE_ON_53
TIME_SHIFT_64ND_10
NOTE_OFF_77
NOTE_OFF_53
VEL_2
NOTE_ON_76
VEL_2
NOTE_ON_52
TIME_SHIFT_64ND_10
NOTE_OFF_76
NOTE_OFF_52
VEL_2
NOTE_ON_74
VEL_2
NOTE_ON_50
TIME_SHIFT_64ND_10
NOTE_OFF_74
NOTE_OFF_50
VEL_2
NOTE_ON_45
TIME_SHIFT_64ND_10
NOTE_OFF_45
VEL_2
NOTE_ON_57
VEL_2
NOTE_ON_52
TIME_SHIFT_64ND_10
NOTE_OFF_57
NOTE_OFF_52
VEL_2
NOTE_ON_61
VEL_2
NOTE_ON_57
TIME_SHIFT_64ND_10
NOTE_OFF_61
NOTE_OFF_57
VEL_2
NOTE_ON_64
VEL_2
NOTE_ON_61
TIME_SHIFT_64ND_9
NOTE_OFF_64
NOTE_OFF_61
VEL_2
NOTE_ON_69
VEL_2
NOTE_ON_64
TIME_SHIFT_64ND_9
NOTE_OFF_69
NOTE_OFF_64
VEL_2
NOTE_ON_73
VEL_2
NOTE_ON_69
TIME_SHIFT_64ND_9
NOTE_OFF_73
NOTE_OFF_69
VEL_3
NOTE_ON_76
VEL_2
NOTE_ON_73
TIME_SHIFT_64ND_9
NOTE_OFF_76
NOTE_OFF_73
VEL_2
NOTE_ON_69
VEL_2
NOTE_ON_61
TIME_SHIFT_64ND_9
NOTE_OFF_69
NOTE_OFF_61
VEL_2
NOTE_ON_73
VEL_2
NOTE_ON_64
TIME_SHIFT_64ND_9
NOTE_OFF_73
NOTE_OFF_64
VEL_2
NOTE_ON_76
VEL_2
NOTE_ON_69
TIME_SHIFT_64ND_9
NOTE_OFF_76
NOTE_OFF_69
VEL_2
NOTE_ON_81
VEL_2
NOTE_ON_73
TIME_SHIFT_64ND_9
NOTE_OFF_81
NOTE_OFF_73
VEL_2
NOTE_ON_85
VEL_2
NOTE_ON_76
TIME_SHIFT_64ND_9
NOTE_OFF_85
NOTE_OFF_76
VEL_3
NOTE_ON_88
VEL_2
NOTE_ON_81
TIME_SHIFT_64ND_10
NOTE_OFF_88
NOTE_OFF_81
VEL_2
NOTE_ON_69
VEL_2
NOTE_ON_61
TIME_SHIFT_64ND_10
NOTE_OFF_69
NOTE_OFF_61
VEL_2
NOTE_ON_73
VEL_2
NOTE_ON_64
TIME_SHIFT_64ND_10
NOTE_OFF_73
NOTE_OFF_64
VEL_2
NOTE_ON_76
VEL_2
NOTE_ON_69
TIME_SHIFT_64ND_10
NOTE_OFF_76
NOTE_OFF_69
VEL_2
NOTE_ON_81
VEL_2
NOTE_ON_73
TIME_SHIFT_64ND_10
NOTE_OFF_81
NOTE_OFF_73
VEL_2
NOTE_ON_85
VEL_2
NOTE_ON_76
TIME_SHIFT_64ND_11
NOTE_OFF_85
NOTE_OFF_76
VEL_3
NOTE_ON_88
VEL_2
NOTE_ON_81
TIME_SHIFT_64ND_11
NOTE_OFF_88
NOTE_OFF_81
VEL_2
NOTE_ON_81
VEL_2
NOTE_ON_73
TIME_SHIFT_64ND_11
NOTE_OFF_81
NOTE_OFF_73
VEL_2
NOTE_ON_85
VEL_2
NOTE_ON_76
TIME_SHIFT_64ND_11
NOTE_OFF_85
NOTE_OFF_76
VEL_2
NOTE_ON_88
VEL_2
NOTE_ON_81
TIME_SHIFT_64ND_11
NOTE_OFF_88
NOTE_OFF_81
VEL_2
NOTE_ON_93
VEL_2
NOTE_ON_85
TIME_SHIFT_64ND_12
NOTE_OFF_93
NOTE_OFF_85
VEL_2
NOTE_ON_97
VEL_2
NOTE_ON_88
TIME_SHIFT_64ND_12
NOTE_OFF_97
NOTE_OFF_88
VEL_2
NOTE_ON_105
VEL_2
NOTE_ON_93
VEL_2
NOTE_ON_100
VEL_1
NOTE_ON_76
VEL_1
NOTE_ON_69
VEL_1
NOTE_ON_85
TIME_SHIFT_64ND_62
NOTE_OFF_105
NOTE_OFF_93
NOTE_OFF_100
NOTE_OFF_76
NOTE_OFF_69
NOTE_OFF_85
