VEL_2
NOTE_ON_58
VEL_2
NOTE_ON_51
TIME_SHIFT_64ND_8
NOTE_OFF_58
VEL_2
NOTE_ON_58
TIME_SHIFT_64ND_16
NOTE_OFF_58
VEL_2
NOTE_ON_58
TIME_SHIFT_64ND_8
NOTE_OFF_58
NOTE_OFF_51
VEL_2
NOTE_ON_58
VEL_2
NOTE_ON_51
TIME_SHIFT_64ND_8
NOTE_OFF_58
VEL_2
NOTE_ON_58
TIME_SHIFT_64ND_16
NOTE_OFF_58
VEL_2
NOTE_ON_58
TIME_SHIFT_64ND_8
NOTE_OFF_58
NOTE_OFF_51
VEL_3
NOTE_ON_79
VEL_3
NOTE_ON_75
VEL_2
NOTE_ON_58
VEL_2
NOTE_ON_51
TIME_SHIFT_64ND_8
NOTE_OFF_58
VEL_2
NOTE_ON_58
TIME_SHIFT_64ND_16
NOTE_OFF_79
NOTE_OFF_75
NOTE_OFF_58
VEL_3
NOTE_ON_74
VEL_3
NOTE_ON_77
VEL_2
NOTE_ON_58
TIME_SHIFT_64ND_8
NOTE_OFF_74
NOTE_OFF_77
NOTE_OFF_58
NOTE_OFF_51
VEL_3
NOTE_ON_77
VEL_3
NOTE_ON_80
VEL_2
NOTE_ON_58
VEL_2
NOTE_ON_51
TIME_SHIFT_64ND_8
NOTE_OFF_58
VEL_2
NOTE_ON_58
TIME_SHIFT_64ND_8
NOTE_OFF_77
NOTE_OFF_80
VEL_3
NOTE_ON_74
VEL_3
NOTE_ON_77
TIME_SHIFT_64ND_8
NOTE_OFF_74
NOTE_OFF_77
NOTE_OFF_58
VEL_3
NOTE_ON_79
VEL_3
NOTE_ON_75
VEL_2
NOTE_ON_58
TIME_SHIFT_64ND_8
NOTE_OFF_79
NOTE_OFF_75
NOTE_OFF_58
NOTE_OFF_51
VEL_3
NOTE_ON_75
VEL_3
NOTE_ON_72
VEL_2
NOTE_ON_58
VEL_2
NOTE_ON_51
TIME_SHIFT_64ND_8
NOTE_OFF_58
VEL_2
NOTE_ON_58
TIME_SHIFT_64ND_8
NOTE_OFF_75
NOTE_OFF_72
VEL_3
NOTE_ON_68
VEL_3
NOTE_ON_72
TIME_SHIFT_64ND_8
NOTE_OFF_58
VEL_2
NOTE_ON_58
TIME_SHIFT_64ND_8
NOTE_OFF_68
NOTE_OFF_72
NOTE_OFF_58
NOTE_OFF_51
VEL_2
NOTE_ON_70
VEL_2
NOTE_ON_67
VEL_2
NOTE_ON_58
VEL_2
NOTE_ON_51
TIME_SHIFT_64ND_8
NOTE_OFF_58
VEL_2
NOTE_ON_58
TIME_SHIFT_64ND_17
NOTE_OFF_58
VEL_2
NOTE_ON_58
TIME_SHIFT_64ND_8
NOTE_OFF_70
NOTE_OFF_67
NOTE_OFF_58
NOTE_OFF_51
VEL_3
NOTE_ON_72
VEL_3
NOTE_ON_68
VEL_2
NOTE_ON_51
VEL_2
NOTE_ON_65
TIME_SHIFT_64ND_8
VEL_2
NOTE_ON_58
TIME_SHIFT_64ND_8
NOTE_OFF_72
VEL_3
NOTE_ON_74
TIME_SHIFT_64ND_8
NOTE_OFF_74
NOTE_OFF_58
VEL_3
NOTE_ON_77
VEL_2
NOTE_ON_58
TIME_SHIFT_64ND_8
NOTE_OFF_77
NOTE_OFF_68
NOTE_OFF_58
NOTE_OFF_51
NOTE_OFF_65
VEL_3
NOTE_ON_74
VEL_3
NOTE_ON_68
VEL_2
NOTE_ON_51
VEL_2
NOTE_ON_65
TIME_SHIFT_64ND_8
VEL_2
NOTE_ON_58
TIME_SHIFT_64ND_8
NOTE_OFF_74
VEL_3
NOTE_ON_70
TIME_SHIFT_64ND_8
NOTE_OFF_58
VEL_2
NOTE_ON_58
TIME_SHIFT_64ND_8
NOTE_OFF_70
NOTE_OFF_68
NOTE_OFF_58
NOTE_OFF_51
NOTE_OFF_65
VEL_3
NOTE_ON_72
VEL_3
NOTE_ON_67
VEL_2
NOTE_ON_58
VEL_2
NOTE_ON_51
TIME_SHIFT_64ND_8
NOTE_OFF_72
NOTE_OFF_58
VEL_3
NOTE_ON_74
VEL_2
NOTE_ON_58
TIME_SHIFT_64ND_8
NOTE_OFF_74
VEL_3
NOTE_ON_79
TIME_SHIFT_64ND_8
NOTE_OFF_79
NOTE_OFF_58
VEL_3
NOTE_ON_72
VEL_2
NOTE_ON_58
TIME_SHIFT_64ND_8
NOTE_OFF_72
NOTE_OFF_67
NOTE_OFF_58
NOTE_OFF_51
VEL_2
NOTE_ON_70
VEL_2
NOTE_ON_67
VEL_2
NOTE_ON_58
VEL_2
NOTE_ON_51
TIME_SHIFT_64ND_8
NOTE_OFF_58
VEL_2
NOTE_ON_58
TIME_SHIFT_64ND_17
NOTE_OFF_58
VEL_2
NOTE_ON_58
TIME_SHIFT_64ND_8
NOTE_OFF_70
NOTE_OFF_67
NOTE_OFF_58
NOTE_OFF_51
VEL_4
NOTE_ON_70
VEL_4
NOTE_ON_74
VEL_2
NOTE_ON_62
VEL_2
NOTE_ON_55
TIME_SHIFT_64ND_8
NOTE_OFF_62
VEL_2
NOTE_ON_62
TIME_SHIFT_64ND_16
NOTE_OFF_70
NOTE_OFF_74
NOTE_OFF_62
VEL_3
NOTE_ON_67
VEL_3
NOTE_ON_70
VEL_2
NOTE_ON_62
TIME_SHIFT_64ND_8
NOTE_OFF_67
NOTE_OFF_70
NOTE_OFF_62
NOTE_OFF_55
VEL_3
NOTE_ON_72
VEL_3
NOTE_ON_69
VEL_2
NOTE_ON_63
VEL_2
NOTE_ON_55
TIME_SHIFT_64ND_8
NOTE_OFF_63
VEL_2
NOTE_ON_63
TIME_SHIFT_64ND_8
NOTE_OFF_72
VEL_4
NOTE_ON_78
TIME_SHIFT_64ND_8
NOTE_OFF_78
NOTE_OFF_63
VEL_3
NOTE_ON_81
VEL_2
NOTE_ON_63
TIME_SHIFT_64ND_8
NOTE_OFF_81
NOTE_OFF_69
NOTE_OFF_63
NOTE_OFF_55
VEL_4
NOTE_ON_79
VEL_3
NOTE_ON_70
VEL_2
NOTE_ON_62
VEL_2
NOTE_ON_55
TIME_SHIFT_64ND_8
NOTE_OFF_79
NOTE_OFF_62
VEL_3
NOTE_ON_74
VEL_2
NOTE_ON_62
TIME_SHIFT_64ND_8
NOTE_OFF_74
NOTE_OFF_70
NOTE_OFF_62
NOTE_OFF_55
VEL_3
NOTE_ON_72
VEL_3
NOTE_ON_69
VEL_2
NOTE_ON_63
VEL_2
NOTE_ON_55
TIME_SHIFT_64ND_8
NOTE_OFF_72
NOTE_OFF_63
VEL_3
NOTE_ON_74
VEL_2
NOTE_ON_63
TIME_SHIFT_64ND_8
NOTE_OFF_74
NOTE_OFF_69
NOTE_OFF_63
NOTE_OFF_55
VEL_2
NOTE_ON_70
VEL_2
NOTE_ON_67
VEL_2
NOTE_ON_62
VEL_1
NOTE_ON_55
TIME_SHIFT_64ND_8
NOTE_OFF_62
VEL_2
NOTE_ON_62
TIME_SHIFT_64ND_16
NOTE_OFF_62
VEL_2
NOTE_ON_62
TIME_SHIFT_64ND_8
NOTE_OFF_70
NOTE_OFF_67
NOTE_OFF_62
NOTE_OFF_55
VEL_3
NOTE_ON_77
VEL_3
NOTE_ON_70
VEL_2
NOTE_ON_53
VEL_3
NOTE_ON_62
TIME_SHIFT_64ND_8
NOTE_OFF_53
VEL_2
NOTE_ON_53
TIME_SHIFT_64ND_16
NOTE_OFF_77
NOTE_OFF_70
NOTE_OFF_62
VEL_3
NOTE_ON_79
VEL_3
NOTE_ON_69
VEL_2
NOTE_ON_63
TIME_SHIFT_64ND_8
NOTE_OFF_79
NOTE_OFF_63
VEL_3
NOTE_ON_75
VEL_3
NOTE_ON_60
TIME_SHIFT_64ND_8
NOTE_OFF_75
NOTE_OFF_60
VEL_3
NOTE_ON_77
VEL_3
NOTE_ON_62
TIME_SHIFT_64ND_8
NOTE_OFF_77
NOTE_OFF_62
VEL_4
NOTE_ON_79
VEL_3
NOTE_ON_63
TIME_SHIFT_64ND_8
NOTE_OFF_79
NOTE_OFF_63
VEL_3
NOTE_ON_81
VEL_3
NOTE_ON_65
TIME_SHIFT_64ND_8
NOTE_OFF_81
NOTE_OFF_69
NOTE_OFF_65
NOTE_OFF_53
VEL_4
NOTE_ON_77
VEL_3
NOTE_ON_70
VEL_3
NOTE_ON_62
TIME_SHIFT_64ND_8
NOTE_OFF_77
NOTE_OFF_70
NOTE_OFF_62
VEL_3
NOTE_ON_74
VEL_3
NOTE_ON_68
VEL_3
NOTE_ON_59
TIME_SHIFT_64ND_8
NOTE_OFF_74
NOTE_OFF_68
NOTE_OFF_59
VEL_3
NOTE_ON_69
VEL_3
NOTE_ON_75
VEL_3
NOTE_ON_60
TIME_SHIFT_64ND_8
NOTE_OFF_69
NOTE_OFF_75
NOTE_OFF_60
VEL_3
NOTE_ON_73
VEL_2
NOTE_ON_65
VEL_3
NOTE_ON_57
TIME_SHIFT_64ND_8
NOTE_OFF_73
NOTE_OFF_57
VEL_3
NOTE_ON_74
VEL_3
NOTE_ON_58
TIME_SHIFT_64ND_8
NOTE_OFF_74
VEL_3
NOTE_ON_72
VEL_2
NOTE_ON_68
VEL_2
NOTE_ON_63
TIME_SHIFT_64ND_8
NOTE_OFF_72
NOTE_OFF_63
VEL_2
NOTE_ON_71
VEL_2
NOTE_ON_62
TIME_SHIFT_64ND_8
NOTE_OFF_71
NOTE_OFF_68
VEL_2
NOTE_ON_70
TIME_SHIFT_64ND_9
NOTE_OFF_70
NOTE_OFF_65
NOTE_OFF_62
NOTE_OFF_58
VEL_3
NOTE_ON_79
VEL_3
NOTE_ON_75
VEL_2
NOTE_ON_58
VEL_2
NOTE_ON_51
TIME_SHIFT_64ND_8
NOTE_OFF_58
VEL_2
NOTE_ON_58
TIME_SHIFT_64ND_16
NOTE_OFF_79
NOTE_OFF_75
NOTE_OFF_58
VEL_3
NOTE_ON_77
VEL_3
NOTE_ON_74
VEL_2
NOTE_ON_58
TIME_SHIFT_64ND_8
NOTE_OFF_77
NOTE_OFF_74
NOTE_OFF_58
NOTE_OFF_51
VEL_3
NOTE_ON_77
VEL_3
NOTE_ON_80
VEL_2
NOTE_ON_58
VEL_2
NOTE_ON_51
TIME_SHIFT_64ND_8
NOTE_OFF_58
VEL_2
NOTE_ON_58
TIME_SHIFT_64ND_8
NOTE_OFF_77
NOTE_OFF_80
VEL_3
NOTE_ON_74
VEL_3
NOTE_ON_77
TIME_SHIFT_64ND_8
NOTE_OFF_74
NOTE_OFF_77
NOTE_OFF_58
VEL_3
NOTE_ON_79
VEL_3
NOTE_ON_75
VEL_2
NOTE_ON_58
TIME_SHIFT_64ND_8
NOTE_OFF_79
NOTE_OFF_75
NOTE_OFF_58
NOTE_OFF_51
VEL_3
NOTE_ON_72
VEL_3
NOTE_ON_75
VEL_2
NOTE_ON_58
VEL_2
NOTE_ON_51
TIME_SHIFT_64ND_8
NOTE_OFF_58
VEL_2
NOTE_ON_58
TIME_SHIFT_64ND_8
NOTE_OFF_72
NOTE_OFF_75
VEL_3
NOTE_ON_72
VEL_3
NOTE_ON_68
TIME_SHIFT_64ND_8
NOTE_OFF_58
VEL_2
NOTE_ON_58
TIME_SHIFT_64ND_8
NOTE_OFF_72
NOTE_OFF_68
NOTE_OFF_58
NOTE_OFF_51
VEL_2
NOTE_ON_70
VEL_2
NOTE_ON_67
VEL_2
NOTE_ON_58
VEL_2
NOTE_ON_51
TIME_SHIFT_64ND_8
NOTE_OFF_58
VEL_2
NOTE_ON_58
TIME_SHIFT_64ND_17
NOTE_OFF_58
VEL_2
NOTE_ON_58
TIME_SHIFT_64ND_8
NOTE_OFF_70
NOTE_OFF_67
NOTE_OFF_58
NOTE_OFF_51
VEL_3
NOTE_ON_72
VEL_3
NOTE_ON_68
VEL_2
NOTE_ON_51
VEL_2
NOTE_ON_65
TIME_SHIFT_64ND_8
VEL_2
NOTE_ON_58
TIME_SHIFT_64ND_8
NOTE_OFF_72
VEL_3
NOTE_ON_74
TIME_SHIFT_64ND_8
NOTE_OFF_74
NOTE_OFF_58
VEL_3
NOTE_ON_77
VEL_2
NOTE_ON_58
TIME_SHIFT_64ND_8
NOTE_OFF_77
NOTE_OFF_68
NOTE_OFF_58
NOTE_OFF_51
NOTE_OFF_65
VEL_3
NOTE_ON_74
VEL_3
NOTE_ON_68
VEL_2
NOTE_ON_51
VEL_2
NOTE_ON_65
TIME_SHIFT_64ND_8
VEL_2
NOTE_ON_58
TIME_SHIFT_64ND_8
NOTE_OFF_74
VEL_3
NOTE_ON_70
TIME_SHIFT_64ND_8
NOTE_OFF_58
VEL_2
NOTE_ON_58
TIME_SHIFT_64ND_8
NOTE_OFF_70
NOTE_OFF_68
NOTE_OFF_58
NOTE_OFF_51
NOTE_OFF_65
VEL_3
NOTE_ON_72
VEL_3
NOTE_ON_67
VEL_2
NOTE_ON_58
VEL_2
NOTE_ON_51
TIME_SHIFT_64ND_8
NOTE_OFF_72
NOTE_OFF_58
VEL_3
NOTE_ON_74
VEL_2
NOTE_ON_58
TIME_SHIFT_64ND_8
NOTE_OFF_74
VEL_3
NOTE_ON_79
TIME_SHIFT_64ND_8
NOTE_OFF_79
NOTE_OFF_58
VEL_3
NOTE_ON_72
VEL_2
NOTE_ON_58
TIME_SHIFT_64ND_8
NOTE_OFF_72
NOTE_OFF_67
NOTE_OFF_58
NOTE_OFF_51
VEL_2
NOTE_ON_67
VEL_2
NOTE_ON_70
VEL_2
NOTE_ON_58
VEL_2
NOTE_ON_51
TIME_SHIFT_64ND_8
NOTE_OFF_58
VEL_2
NOTE_ON_58
TIME_SHIFT_64ND_17
NOTE_OFF_58
VEL_2
NOTE_ON_58
TIME_SHIFT_64ND_8
NOTE_OFF_67
NOTE_OFF_70
NOTE_OFF_58
NOTE_OFF_51
VEL_4
NOTE_ON_70
VEL_4
NOTE_ON_74
VEL_2
NOTE_ON_62
VEL_2
NOTE_ON_55
TIME_SHIFT_64ND_8
NOTE_OFF_62
VEL_2
NOTE_ON_62
TIME_SHIFT_64ND_16
NOTE_OFF_70
NOTE_OFF_74
NOTE_OFF_62
VEL_3
NOTE_ON_67
VEL_3
NOTE_ON_70
VEL_2
NOTE_ON_62
TIME_SHIFT_64ND_8
NOTE_OFF_67
NOTE_OFF_70
NOTE_OFF_62
NOTE_OFF_55
VEL_3
NOTE_ON_72
VEL_3
NOTE_ON_69
VEL_2
NOTE_ON_63
VEL_2
NOTE_ON_55
TIME_SHIFT_64ND_8
NOTE_OFF_63
VEL_2
NOTE_ON_63
TIME_SHIFT_64ND_8
NOTE_OFF_72
VEL_4
NOTE_ON_78
TIME_SHIFT_64ND_8
NOTE_OFF_78
NOTE_OFF_63
VEL_3
NOTE_ON_81
VEL_2
NOTE_ON_63
TIME_SHIFT_64ND_8
NOTE_OFF_81
NOTE_OFF_69
NOTE_OFF_63
NOTE_OFF_55
VEL_4
NOTE_ON_79
VEL_3
NOTE_ON_70
VEL_2
NOTE_ON_62
VEL_2
NOTE_ON_55
TIME_SHIFT_64ND_8
NOTE_OFF_79
NOTE_OFF_62
VEL_3
NOTE_ON_74
VEL_2
NOTE_ON_62
TIME_SHIFT_64ND_8
NOTE_OFF_74
NOTE_OFF_70
NOTE_OFF_62
NOTE_OFF_55
VEL_3
NOTE_ON_72
VEL_3
NOTE_ON_69
VEL_2
NOTE_ON_63
VEL_2
NOTE_ON_55
TIME_SHIFT_64ND_8
NOTE_OFF_72
NOTE_OFF_63
VEL_3
NOTE_ON_74
VEL_2
NOTE_ON_63
TIME_SHIFT_64ND_8
NOTE_OFF_74
NOTE_OFF_69
NOTE_OFF_63
NOTE_OFF_55
VEL_2
NOTE_ON_70
VEL_2
NOTE_ON_67
VEL_2
NOTE_ON_62
VEL_1
NOTE_ON_55
TIME_SHIFT_64ND_8
NOTE_OFF_62
VEL_2
NOTE_ON_62
TIME_SHIFT_64ND_16
NOTE_OFF_62
VEL_2
NOTE_ON_62
TIME_SHIFT_64ND_8
NOTE_OFF_70
NOTE_OFF_67
NOTE_OFF_62
NOTE_OFF_55
VEL_3
NOTE_ON_70
VEL_3
NOTE_ON_65
VEL_2
NOTE_ON_62
VEL_2
NOTE_ON_53
TIME_SHIFT_64ND_8
NOTE_OFF_62
VEL_2
NOTE_ON_62
TIME_SHIFT_64ND_8
NOTE_OFF_70
NOTE_OFF_65
NOTE_OFF_62
NOTE_OFF_53
VEL_3
NOTE_ON_66
VEL_3
NOTE_ON_72
VEL_3
NOTE_ON_63
TIME_SHIFT_64ND_8
NOTE_OFF_66
NOTE_OFF_72
NOTE_OFF_63
VEL_3
NOTE_ON_75
VEL_3
NOTE_ON_70
VEL_2
NOTE_ON_66
TIME_SHIFT_64ND_8
NOTE_OFF_75
NOTE_OFF_70
NOTE_OFF_66
VEL_3
NOTE_ON_66
VEL_3
NOTE_ON_72
VEL_3
NOTE_ON_63
TIME_SHIFT_64ND_8
NOTE_OFF_66
NOTE_OFF_72
NOTE_OFF_63
VEL_3
NOTE_ON_75
VEL_2
NOTE_ON_70
VEL_2
NOTE_ON_66
TIME_SHIFT_64ND_8
NOTE_OFF_75
NOTE_OFF_70
NOTE_OFF_66
VEL_3
NOTE_ON_72
VEL_3
NOTE_ON_78
VEL_3
NOTE_ON_70
TIME_SHIFT_64ND_8
NOTE_OFF_72
NOTE_OFF_78
NOTE_OFF_70
VEL_3
NOTE_ON_70
VEL_3
NOTE_ON_75
VEL_2
NOTE_ON_66
TIME_SHIFT_64ND_8
NOTE_OFF_70
NOTE_OFF_75
NOTE_OFF_66
VEL_3
NOTE_ON_74
VEL_3
NOTE_ON_69
VEL_2
NOTE_ON_65
VEL_2
NOTE_ON_53
TIME_SHIFT_64ND_8
NOTE_OFF_65
VEL_2
NOTE_ON_65
TIME_SHIFT_64ND_8
NOTE_OFF_74
NOTE_OFF_65
VEL_3
NOTE_ON_72
VEL_2
NOTE_ON_63
TIME_SHIFT_64ND_8
NOTE_OFF_72
NOTE_OFF_63
VEL_3
NOTE_ON_74
VEL_2
NOTE_ON_63
TIME_SHIFT_64ND_8
NOTE_OFF_74
NOTE_OFF_69
NOTE_OFF_63
NOTE_OFF_53
VEL_2
NOTE_ON_65
VEL_2
NOTE_ON_70
VEL_2
NOTE_ON_58
VEL_2
NOTE_ON_62
TIME_SHIFT_64ND_8
NOTE_OFF_58
NOTE_OFF_62
VEL_2
NOTE_ON_59
TIME_SHIFT_64ND_6
NOTE_OFF_59
VEL_2
NOTE_ON_62
TIME_SHIFT_64ND_2
VEL_2
NOTE_ON_60
TIME_SHIFT_64ND_1
NOTE_OFF_62
TIME_SHIFT_64ND_8
NOTE_OFF_60
VEL_2
NOTE_ON_58
TIME_SHIFT_64ND_8
NOTE_OFF_65
NOTE_OFF_70
NOTE_OFF_58
VEL_3
NOTE_ON_74
VEL_3
NOTE_ON_77
VEL_2
NOTE_ON_34
TIME_SHIFT_64ND_8
NOTE_OFF_34
VEL_2
NOTE_ON_58
TIME_SHIFT_64ND_16
NOTE_OFF_74
NOTE_OFF_77
NOTE_OFF_58
VEL_3
NOTE_ON_68
VEL_3
NOTE_ON_72
VEL_2
NOTE_ON_58
TIME_SHIFT_64ND_8
NOTE_OFF_68
NOTE_OFF_72
NOTE_OFF_58
VEL_3
NOTE_ON_72
VEL_3
NOTE_ON_75
VEL_2
NOTE_ON_58
TIME_SHIFT_64ND_8
NOTE_OFF_58
VEL_2
NOTE_ON_58
TIME_SHIFT_64ND_8
NOTE_OFF_72
NOTE_OFF_75
VEL_3
NOTE_ON_74
VEL_3
NOTE_ON_70
TIME_SHIFT_64ND_8
NOTE_OFF_74
NOTE_OFF_70
NOTE_OFF_58
VEL_3
NOTE_ON_67
VEL_3
NOTE_ON_70
VEL_2
NOTE_ON_58
TIME_SHIFT_64ND_8
NOTE_OFF_67
NOTE_OFF_70
NOTE_OFF_58
VEL_3
NOTE_ON_74
VEL_3
NOTE_ON_70
VEL_2
NOTE_ON_58
TIME_SHIFT_64ND_8
NOTE_OFF_58
VEL_2
NOTE_ON_58
TIME_SHIFT_64ND_8
NOTE_OFF_74
NOTE_OFF_70
VEL_3
NOTE_ON_68
VEL_3
NOTE_ON_72
TIME_SHIFT_64ND_8
NOTE_OFF_58
VEL_2
NOTE_ON_58
TIME_SHIFT_64ND_8
NOTE_OFF_68
NOTE_OFF_72
NOTE_OFF_58
VEL_2
NOTE_ON_68
VEL_2
NOTE_ON_65
VEL_2
NOTE_ON_58
TIME_SHIFT_64ND_8
NOTE_OFF_58
VEL_2
NOTE_ON_58
TIME_SHIFT_64ND_17
NOTE_OFF_58
VEL_2
NOTE_ON_58
TIME_SHIFT_64ND_8
NOTE_OFF_68
NOTE_OFF_65
NOTE_OFF_58
VEL_4
NOTE_ON_77
VEL_4
NOTE_ON_80
VEL_3
NOTE_ON_34
TIME_SHIFT_64ND_8
NOTE_OFF_34
VEL_2
NOTE_ON_58
TIME_SHIFT_64ND_16
NOTE_OFF_77
NOTE_OFF_80
NOTE_OFF_58
VEL_3
NOTE_ON_76
VEL_3
NOTE_ON_79
VEL_2
NOTE_ON_58
TIME_SHIFT_64ND_8
NOTE_OFF_76
NOTE_OFF_79
NOTE_OFF_58
VEL_3
NOTE_ON_73
VEL_3
NOTE_ON_76
VEL_2
NOTE_ON_58
TIME_SHIFT_64ND_8
NOTE_OFF_73
NOTE_OFF_76
NOTE_OFF_58
VEL_3
NOTE_ON_76
VEL_3
NOTE_ON_79
VEL_2
NOTE_ON_58
TIME_SHIFT_64ND_8
NOTE_OFF_76
NOTE_OFF_79
VEL_3
NOTE_ON_77
VEL_3
NOTE_ON_74
TIME_SHIFT_64ND_8
NOTE_OFF_77
NOTE_OFF_74
NOTE_OFF_58
VEL_3
NOTE_ON_74
VEL_3
NOTE_ON_71
VEL_2
NOTE_ON_58
TIME_SHIFT_64ND_8
NOTE_OFF_74
NOTE_OFF_71
NOTE_OFF_58
VEL_3
NOTE_ON_74
VEL_3
NOTE_ON_77
VEL_2
NOTE_ON_58
TIME_SHIFT_64ND_8
NOTE_OFF_74
NOTE_OFF_77
NOTE_OFF_58
VEL_3
NOTE_ON_72
VEL_3
NOTE_ON_75
VEL_2
NOTE_ON_58
TIME_SHIFT_64ND_8
NOTE_OFF_72
NOTE_OFF_75
VEL_3
NOTE_ON_72
VEL_3
NOTE_ON_68
TIME_SHIFT_64ND_8
NOTE_OFF_72
NOTE_OFF_68
NOTE_OFF_58
VEL_3
NOTE_ON_65
VEL_3
NOTE_ON_68
VEL_2
NOTE_ON_58
TIME_SHIFT_64ND_8
NOTE_OFF_65
NOTE_OFF_68
NOTE_OFF_58
VEL_3
NOTE_ON_65
VEL_3
NOTE_ON_62
VEL_2
NOTE_ON_57
TIME_SHIFT_64ND_8
NOTE_OFF_57
VEL_2
NOTE_ON_58
TIME_SHIFT_64ND_6
NOTE_OFF_58
VEL_2
NOTE_ON_61
TIME_SHIFT_64ND_2
VEL_2
NOTE_ON_59
TIME_SHIFT_64ND_1
NOTE_OFF_61
TIME_SHIFT_64ND_8
VEL_2
NOTE_ON_58
TIME_SHIFT_64ND_1
NOTE_OFF_59
TIME_SHIFT_64ND_8
NOTE_OFF_65
NOTE_OFF_62
NOTE_OFF_58
VEL_3
NOTE_ON_69
VEL_3
NOTE_ON_78
VEL_2
NOTE_ON_63
TIME_SHIFT_64ND_8
NOTE_OFF_69
VEL_2
NOTE_ON_70
TIME_SHIFT_64ND_8
NOTE_OFF_70
NOTE_OFF_63
VEL_3
NOTE_ON_71
VEL_1
NOTE_ON_56
TIME_SHIFT_64ND_8
NOTE_OFF_71
NOTE_OFF_78
VEL_3
NOTE_ON_80
VEL_2
NOTE_ON_72
TIME_SHIFT_64ND_8
NOTE_OFF_80
NOTE_OFF_56
VEL_3
NOTE_ON_78
VEL_2
NOTE_ON_57
TIME_SHIFT_64ND_3
NOTE_OFF_78
VEL_3
NOTE_ON_80
TIME_SHIFT_64ND_3
NOTE_OFF_80
VEL_3
NOTE_ON_78
TIME_SHIFT_64ND_3
NOTE_OFF_78
VEL_3
NOTE_ON_77
VEL_2
NOTE_ON_63
TIME_SHIFT_64ND_8
NOTE_OFF_77
VEL_3
NOTE_ON_76
TIME_SHIFT_64ND_8
NOTE_OFF_76
NOTE_OFF_63
VEL_3
NOTE_ON_77
VEL_2
NOTE_ON_60
TIME_SHIFT_64ND_8
NOTE_OFF_77
NOTE_OFF_72
NOTE_OFF_60
NOTE_OFF_57
VEL_3
NOTE_ON_64
VEL_3
NOTE_ON_73
VEL_2
NOTE_ON_58
TIME_SHIFT_64ND_8
NOTE_OFF_64
VEL_2
NOTE_ON_65
TIME_SHIFT_64ND_6
NOTE_OFF_65
VEL_2
NOTE_ON_68
TIME_SHIFT_64ND_2
NOTE_OFF_68
NOTE_OFF_58
VEL_3
NOTE_ON_66
VEL_1
NOTE_ON_56
TIME_SHIFT_64ND_8
NOTE_OFF_66
NOTE_OFF_73
VEL_2
NOTE_ON_65
VEL_3
NOTE_ON_73
TIME_SHIFT_64ND_8
NOTE_OFF_65
NOTE_OFF_73
NOTE_OFF_56
VEL_3
NOTE_ON_73
VEL_2
NOTE_ON_70
VEL_2
NOTE_ON_64
VEL_2
NOTE_ON_55
TIME_SHIFT_64ND_8
NOTE_OFF_73
VEL_3
NOTE_ON_72
TIME_SHIFT_64ND_8
NOTE_OFF_72
VEL_3
NOTE_ON_71
TIME_SHIFT_64ND_8
NOTE_OFF_71
VEL_3
NOTE_ON_72
VEL_2
NOTE_ON_48
TIME_SHIFT_64ND_8
NOTE_OFF_72
NOTE_OFF_70
NOTE_OFF_64
NOTE_OFF_48
NOTE_OFF_55
VEL_3
NOTE_ON_72
VEL_3
NOTE_ON_68
VEL_2
NOTE_ON_48
VEL_2
NOTE_ON_41
TIME_SHIFT_64ND_8
NOTE_OFF_48
VEL_2
NOTE_ON_48
TIME_SHIFT_64ND_8
NOTE_OFF_72
NOTE_OFF_68
VEL_3
NOTE_ON_70
VEL_3
NOTE_ON_73
TIME_SHIFT_64ND_8
NOTE_OFF_70
NOTE_OFF_73
NOTE_OFF_48
VEL_3
NOTE_ON_77
VEL_3
NOTE_ON_73
VEL_2
NOTE_ON_48
TIME_SHIFT_64ND_8
NOTE_OFF_77
NOTE_OFF_73
NOTE_OFF_48
NOTE_OFF_41
VEL_3
NOTE_ON_70
VEL_3
NOTE_ON_73
VEL_2
NOTE_ON_48
VEL_2
NOTE_ON_41
TIME_SHIFT_64ND_8
NOTE_OFF_48
VEL_2
NOTE_ON_48
TIME_SHIFT_64ND_8
NOTE_OFF_70
NOTE_OFF_73
VEL_3
NOTE_ON_70
VEL_3
NOTE_ON_67
TIME_SHIFT_64ND_8
NOTE_OFF_48
VEL_2
NOTE_ON_48
TIME_SHIFT_64ND_8
NOTE_OFF_70
NOTE_OFF_67
NOTE_OFF_48
NOTE_OFF_41
VEL_3
NOTE_ON_64
VEL_3
NOTE_ON_67
VEL_2
NOTE_ON_48
VEL_2
NOTE_ON_41
TIME_SHIFT_64ND_8
NOTE_OFF_64
NOTE_OFF_67
NOTE_OFF_48
VEL_3
NOTE_ON_65
VEL_3
NOTE_ON_68
VEL_2
NOTE_ON_48
TIME_SHIFT_64ND_8
NOTE_OFF_65
NOTE_OFF_68
VEL_3
NOTE_ON_70
VEL_3
NOTE_ON_67
TIME_SHIFT_64ND_8
NOTE_OFF_70
NOTE_OFF_67
NOTE_OFF_48
VEL_3
NOTE_ON_73
VEL_3
NOTE_ON_70
VEL_2
NOTE_ON_48
TIME_SHIFT_64ND_8
NOTE_OFF_73
NOTE_OFF_70
NOTE_OFF_48
NOTE_OFF_41
VEL_2
NOTE_ON_68
VEL_2
NOTE_ON_72
VEL_3
NOTE_ON_41
VEL_3
NOTE_ON_48
TIME_SHIFT_64ND_8
NOTE_OFF_41
VEL_3
NOTE_ON_41
TIME_SHIFT_64ND_17
NOTE_OFF_41
VEL_3
NOTE_ON_40
TIME_SHIFT_64ND_8
NOTE_OFF_68
NOTE_OFF_72
NOTE_OFF_40
NOTE_OFF_48
VEL_4
NOTE_ON_72
VEL_4
NOTE_ON_68
VEL_3
NOTE_ON_39
TIME_SHIFT_64ND_8
NOTE_OFF_39
VEL_2
NOTE_ON_63
TIME_SHIFT_64ND_8
NOTE_OFF_72
NOTE_OFF_68
VEL_4
NOTE_ON_72
VEL_4
NOTE_ON_75
TIME_SHIFT_64ND_8
NOTE_OFF_72
NOTE_OFF_75
NOTE_OFF_63
VEL_3
NOTE_ON_80
VEL_3
NOTE_ON_77
VEL_2
NOTE_ON_63
TIME_SHIFT_64ND_8
NOTE_OFF_80
NOTE_OFF_77
NOTE_OFF_63
VEL_3
NOTE_ON_77
VEL_3
NOTE_ON_73
VEL_2
NOTE_ON_63
TIME_SHIFT_64ND_8
NOTE_OFF_63
VEL_2
NOTE_ON_63
TIME_SHIFT_64ND_8
NOTE_OFF_77
NOTE_OFF_73
VEL_3
NOTE_ON_70
VEL_3
NOTE_ON_73
TIME_SHIFT_64ND_8
NOTE_OFF_63
VEL_2
NOTE_ON_63
TIME_SHIFT_64ND_8
NOTE_OFF_70
NOTE_OFF_73
NOTE_OFF_63
VEL_4
NOTE_ON_70
VEL_4
NOTE_ON_67
VEL_2
NOTE_ON_63
TIME_SHIFT_64ND_8
NOTE_OFF_70
NOTE_OFF_67
NOTE_OFF_63
VEL_3
NOTE_ON_68
VEL_3
NOTE_ON_72
VEL_2
NOTE_ON_63
TIME_SHIFT_64ND_8
NOTE_OFF_68
NOTE_OFF_72
VEL_4
NOTE_ON_73
VEL_4
NOTE_ON_70
TIME_SHIFT_64ND_8
NOTE_OFF_73
NOTE_OFF_70
NOTE_OFF_63
VEL_3
NOTE_ON_76
VEL_3
NOTE_ON_73
VEL_2
NOTE_ON_63
TIME_SHIFT_64ND_8
NOTE_OFF_76
NOTE_OFF_73
NOTE_OFF_63
VEL_3
NOTE_ON_72
VEL_3
NOTE_ON_75
VEL_3
NOTE_ON_56
TIME_SHIFT_64ND_8
NOTE_OFF_56
VEL_2
NOTE_ON_63
TIME_SHIFT_64ND_8
NOTE_OFF_63
VEL_3
NOTE_ON_68
TIME_SHIFT_64ND_8
NOTE_OFF_68
VEL_3
NOTE_ON_67
TIME_SHIFT_64ND_8
NOTE_OFF_72
NOTE_OFF_75
NOTE_OFF_67
VEL_2
NOTE_ON_75
VEL_2
NOTE_ON_72
VEL_2
NOTE_ON_68
VEL_3
NOTE_ON_67
TIME_SHIFT_64ND_8
NOTE_OFF_75
NOTE_OFF_72
NOTE_OFF_68
VEL_2
NOTE_ON_75
VEL_2
NOTE_ON_68
VEL_2
NOTE_ON_72
TIME_SHIFT_64ND_16
NOTE_OFF_75
NOTE_OFF_68
NOTE_OFF_72
NOTE_OFF_67
VEL_1
NOTE_ON_72
VEL_2
NOTE_ON_75
VEL_1
NOTE_ON_68
VEL_3
NOTE_ON_65
TIME_SHIFT_64ND_8
NOTE_OFF_72
NOTE_OFF_75
NOTE_OFF_68
NOTE_OFF_65
VEL_2
NOTE_ON_72
VEL_2
NOTE_ON_75
VEL_2
NOTE_ON_68
VEL_3
NOTE_ON_60
TIME_SHIFT_64ND_8
NOTE_OFF_72
NOTE_OFF_75
NOTE_OFF_68
VEL_2
NOTE_ON_68
VEL_2
NOTE_ON_72
VEL_2
NOTE_ON_75
TIME_SHIFT_64ND_8
NOTE_OFF_60
VEL_3
NOTE_ON_59
TIME_SHIFT_64ND_8
NOTE_OFF_68
NOTE_OFF_72
NOTE_OFF_75
NOTE_OFF_59
VEL_2
NOTE_ON_75
VEL_1
NOTE_ON_68
VEL_1
NOTE_ON_72
VEL_2
NOTE_ON_60
TIME_SHIFT_64ND_8
NOTE_OFF_75
NOTE_OFF_68
NOTE_OFF_72
NOTE_OFF_60
VEL_3
NOTE_ON_65
TIME_SHIFT_64ND_8
VEL_2
NOTE_ON_72
VEL_2
NOTE_ON_75
VEL_2
NOTE_ON_68
TIME_SHIFT_64ND_8
NOTE_OFF_72
NOTE_OFF_75
NOTE_OFF_68
NOTE_OFF_65
VEL_3
NOTE_ON_67
TIME_SHIFT_64ND_8
VEL_2
NOTE_ON_75
VEL_2
NOTE_ON_72
VEL_2
NOTE_ON_68
TIME_SHIFT_64ND_8
NOTE_OFF_75
NOTE_OFF_72
NOTE_OFF_68
NOTE_OFF_67
VEL_3
NOTE_ON_67
TIME_SHIFT_64ND_8
VEL_2
NOTE_ON_68
VEL_2
NOTE_ON_75
VEL_2
NOTE_ON_72
TIME_SHIFT_64ND_8
NOTE_OFF_68
NOTE_OFF_75
NOTE_OFF_72
NOTE_OFF_67
VEL_3
NOTE_ON_65
TIME_SHIFT_64ND_8
VEL_2
NOTE_ON_75
VEL_2
NOTE_ON_72
VEL_2
NOTE_ON_68
TIME_SHIFT_64ND_8
NOTE_OFF_75
NOTE_OFF_72
NOTE_OFF_68
NOTE_OFF_65
VEL_2
NOTE_ON_75
VEL_2
NOTE_ON_68
VEL_2
NOTE_ON_72
VEL_3
NOTE_ON_67
TIME_SHIFT_64ND_8
NOTE_OFF_75
NOTE_OFF_68
NOTE_OFF_72
VEL_2
NOTE_ON_72
VEL_2
NOTE_ON_75
VEL_2
NOTE_ON_68
TIME_SHIFT_64ND_16
NOTE_OFF_72
NOTE_OFF_75
NOTE_OFF_68
NOTE_OFF_67
VEL_2
NOTE_ON_75
VEL_1
NOTE_ON_72
VEL_1
NOTE_ON_68
VEL_3
NOTE_ON_65
TIME_SHIFT_64ND_8
NOTE_OFF_75
NOTE_OFF_72
NOTE_OFF_68
NOTE_OFF_65
VEL_2
NOTE_ON_68
VEL_2
NOTE_ON_75
VEL_2
NOTE_ON_72
VEL_3
NOTE_ON_60
TIME_SHIFT_64ND_8
NOTE_OFF_68
NOTE_OFF_75
NOTE_OFF_72
VEL_2
NOTE_ON_75
VEL_2
NOTE_ON_72
VEL_2
NOTE_ON_68
TIME_SHIFT_64ND_8
NOTE_OFF_60
VEL_3
NOTE_ON_59
TIME_SHIFT_64ND_8
NOTE_OFF_75
NOTE_OFF_72
NOTE_OFF_68
NOTE_OFF_59
VEL_2
NOTE_ON_75
VEL_1
NOTE_ON_68
VEL_1
NOTE_ON_72
VEL_2
NOTE_ON_60
TIME_SHIFT_64ND_8
NOTE_OFF_75
NOTE_OFF_68
NOTE_OFF_72
NOTE_OFF_60
VEL_3
NOTE_ON_65
TIME_SHIFT_64ND_8
NOTE_OFF_65
VEL_2
NOTE_ON_68
VEL_2
NOTE_ON_72
VEL_2
NOTE_ON_75
VEL_3
NOTE_ON_67
TIME_SHIFT_64ND_8
NOTE_OFF_68
NOTE_OFF_72
NOTE_OFF_75
NOTE_OFF_67
VEL_3
NOTE_ON_68
TIME_SHIFT_64ND_8
NOTE_OFF_68
VEL_2
NOTE_ON_72
VEL_2
NOTE_ON_75
VEL_2
NOTE_ON_68
VEL_2
NOTE_ON_67
TIME_SHIFT_64ND_8
NOTE_OFF_72
NOTE_OFF_75
NOTE_OFF_68
NOTE_OFF_67
VEL_3
NOTE_ON_67
TIME_SHIFT_64ND_8
VEL_2
NOTE_ON_68
VEL_2
NOTE_ON_75
VEL_2
NOTE_ON_72
TIME_SHIFT_64ND_8
NOTE_OFF_68
NOTE_OFF_75
NOTE_OFF_72
NOTE_OFF_67
VEL_3
NOTE_ON_65
TIME_SHIFT_64ND_8
VEL_2
NOTE_ON_75
VEL_2
NOTE_ON_72
VEL_2
NOTE_ON_68
TIME_SHIFT_64ND_8
NOTE_OFF_75
NOTE_OFF_72
NOTE_OFF_68
NOTE_OFF_65
VEL_4
NOTE_ON_84
VEL_4
NOTE_ON_80
VEL_3
NOTE_ON_34
TIME_SHIFT_64ND_8
NOTE_OFF_34
VEL_2
NOTE_ON_58
TIME_SHIFT_64ND_16
NOTE_OFF_84
NOTE_OFF_80
NOTE_OFF_58
VEL_3
NOTE_ON_79
VEL_3
NOTE_ON_76
VEL_2
NOTE_ON_58
TIME_SHIFT_64ND_8
NOTE_OFF_79
NOTE_OFF_76
NOTE_OFF_58
VEL_3
NOTE_ON_79
VEL_3
NOTE_ON_82
VEL_2
NOTE_ON_58
TIME_SHIFT_64ND_8
NOTE_OFF_58
VEL_2
NOTE_ON_58
TIME_SHIFT_64ND_8
NOTE_OFF_79
NOTE_OFF_82
VEL_3
NOTE_ON_77
VEL_3
NOTE_ON_80
TIME_SHIFT_64ND_8
NOTE_OFF_77
NOTE_OFF_80
NOTE_OFF_58
VEL_3
NOTE_ON_77
VEL_3
NOTE_ON_74
VEL_2
NOTE_ON_58
TIME_SHIFT_64ND_8
NOTE_OFF_77
NOTE_OFF_74
NOTE_OFF_58
VEL_3
NOTE_ON_70
VEL_3
NOTE_ON_74
VEL_2
NOTE_ON_58
TIME_SHIFT_64ND_8
NOTE_OFF_58
VEL_2
NOTE_ON_58
TIME_SHIFT_64ND_8
NOTE_OFF_70
NOTE_OFF_74
VEL_3
NOTE_ON_70
VEL_3
NOTE_ON_67
TIME_SHIFT_64ND_8
NOTE_OFF_58
VEL_2
NOTE_ON_58
TIME_SHIFT_64ND_8
NOTE_OFF_70
NOTE_OFF_67
NOTE_OFF_58
VEL_3
NOTE_ON_67
VEL_3
NOTE_ON_64
VEL_2
NOTE_ON_58
TIME_SHIFT_64ND_8
NOTE_OFF_58
VEL_2
NOTE_ON_58
TIME_SHIFT_64ND_8
NOTE_OFF_67
NOTE_OFF_64
VEL_3
NOTE_ON_65
VEL_3
NOTE_ON_68
TIME_SHIFT_64ND_8
NOTE_OFF_58
VEL_2
NOTE_ON_58
TIME_SHIFT_64ND_8
NOTE_OFF_65
NOTE_OFF_68
NOTE_OFF_58
VEL_3
NOTE_ON_71
VEL_3
NOTE_ON_66
VEL_2
NOTE_ON_57
VEL_3
NOTE_ON_63
TIME_SHIFT_64ND_8
NOTE_OFF_57
VEL_2
NOTE_ON_57
TIME_SHIFT_64ND_16
NOTE_OFF_71
NOTE_OFF_57
VEL_3
NOTE_ON_73
VEL_2
NOTE_ON_57
TIME_SHIFT_64ND_8
NOTE_OFF_73
NOTE_OFF_66
NOTE_OFF_57
NOTE_OFF_63
VEL_2
NOTE_ON_64
VEL_3
NOTE_ON_71
VEL_2
NOTE_ON_56
TIME_SHIFT_64ND_8
NOTE_OFF_64
NOTE_OFF_71
VEL_3
NOTE_ON_76
TIME_SHIFT_64ND_8
NOTE_OFF_76
NOTE_OFF_56
VEL_3
NOTE_ON_78
TIME_SHIFT_64ND_8
NOTE_OFF_78
VEL_3
NOTE_ON_80
TIME_SHIFT_64ND_8
NOTE_OFF_80
VEL_3
NOTE_ON_83
TIME_SHIFT_64ND_8
NOTE_OFF_83
VEL_3
NOTE_ON_80
TIME_SHIFT_64ND_8
NOTE_OFF_80
VEL_3
NOTE_ON_78
TIME_SHIFT_64ND_8
NOTE_OFF_78
VEL_3
NOTE_ON_76
TIME_SHIFT_64ND_9
NOTE_OFF_76
VEL_3
NOTE_ON_75
VEL_2
NOTE_ON_68
VEL_2
NOTE_ON_58
VEL_2
NOTE_ON_65
TIME_SHIFT_64ND_18
NOTE_OFF_75
VEL_3
NOTE_ON_74
TIME_SHIFT_64ND_18
NOTE_OFF_74
NOTE_OFF_68
NOTE_OFF_58
NOTE_OFF_65
VEL_3
NOTE_ON_75
VEL_3
NOTE_ON_79
VEL_2
NOTE_ON_58
VEL_2
NOTE_ON_51
TIME_SHIFT_64ND_8
NOTE_OFF_58
VEL_2
NOTE_ON_58
TIME_SHIFT_64ND_16
NOTE_OFF_75
NOTE_OFF_79
NOTE_OFF_58
VEL_3
NOTE_ON_77
VEL_3
NOTE_ON_74
VEL_2
NOTE_ON_58
TIME_SHIFT_64ND_8
NOTE_OFF_77
NOTE_OFF_74
NOTE_OFF_58
NOTE_OFF_51
VEL_3
NOTE_ON_77
VEL_3
NOTE_ON_80
VEL_2
NOTE_ON_58
VEL_2
NOTE_ON_51
TIME_SHIFT_64ND_8
NOTE_OFF_58
VEL_2
NOTE_ON_58
TIME_SHIFT_64ND_8
NOTE_OFF_77
NOTE_OFF_80
VEL_3
NOTE_ON_77
VEL_3
NOTE_ON_74
TIME_SHIFT_64ND_8
NOTE_OFF_77
NOTE_OFF_74
NOTE_OFF_58
VEL_3
NOTE_ON_79
VEL_3
NOTE_ON_75
VEL_2
NOTE_ON_58
TIME_SHIFT_64ND_8
NOTE_OFF_79
NOTE_OFF_75
NOTE_OFF_58
NOTE_OFF_51
VEL_3
NOTE_ON_75
VEL_3
NOTE_ON_72
VEL_2
NOTE_ON_58
VEL_2
NOTE_ON_51
TIME_SHIFT_64ND_8
NOTE_OFF_58
VEL_2
NOTE_ON_58
TIME_SHIFT_64ND_8
NOTE_OFF_75
NOTE_OFF_72
VEL_3
NOTE_ON_72
VEL_3
NOTE_ON_68
TIME_SHIFT_64ND_8
NOTE_OFF_58
VEL_2
NOTE_ON_58
TIME_SHIFT_64ND_8
NOTE_OFF_72
NOTE_OFF_68
NOTE_OFF_58
NOTE_OFF_51
VEL_2
NOTE_ON_70
VEL_2
NOTE_ON_67
VEL_2
NOTE_ON_58
VEL_2
NOTE_ON_51
TIME_SHIFT_64ND_8
NOTE_OFF_58
VEL_2
NOTE_ON_58
TIME_SHIFT_64ND_17
NOTE_OFF_58
VEL_2
NOTE_ON_58
TIME_SHIFT_64ND_8
NOTE_OFF_70
NOTE_OFF_67
NOTE_OFF_58
NOTE_OFF_51
VEL_3
NOTE_ON_72
VEL_3
NOTE_ON_68
VEL_2
NOTE_ON_51
VEL_2
NOTE_ON_65
TIME_SHIFT_64ND_8
VEL_2
NOTE_ON_58
TIME_SHIFT_64ND_8
NOTE_OFF_72
VEL_3
NOTE_ON_74
TIME_SHIFT_64ND_8
NOTE_OFF_74
NOTE_OFF_58
VEL_3
NOTE_ON_77
VEL_2
NOTE_ON_58
TIME_SHIFT_64ND_8
NOTE_OFF_77
NOTE_OFF_68
NOTE_OFF_58
NOTE_OFF_51
NOTE_OFF_65
VEL_3
NOTE_ON_74
VEL_3
NOTE_ON_68
VEL_2
NOTE_ON_51
VEL_2
NOTE_ON_65
TIME_SHIFT_64ND_8
VEL_2
NOTE_ON_58
TIME_SHIFT_64ND_8
NOTE_OFF_74
VEL_3
NOTE_ON_70
TIME_SHIFT_64ND_8
NOTE_OFF_58
VEL_2
NOTE_ON_58
TIME_SHIFT_64ND_8
NOTE_OFF_70
NOTE_OFF_68
NOTE_OFF_58
NOTE_OFF_51
NOTE_OFF_65
VEL_3
NOTE_ON_72
VEL_3
NOTE_ON_67
VEL_2
NOTE_ON_58
VEL_2
NOTE_ON_51
TIME_SHIFT_64ND_8
NOTE_OFF_72
NOTE_OFF_58
VEL_3
NOTE_ON_74
VEL_2
NOTE_ON_58
TIME_SHIFT_64ND_8
NOTE_OFF_74
VEL_3
NOTE_ON_79
TIME_SHIFT_64ND_8
NOTE_OFF_79
NOTE_OFF_58
VEL_3
NOTE_ON_72
VEL_2
NOTE_ON_58
TIME_SHIFT_64ND_8
NOTE_OFF_72
NOTE_OFF_67
NOTE_OFF_58
NOTE_OFF_51
VEL_2
NOTE_ON_70
VEL_2
NOTE_ON_67
VEL_2
NOTE_ON_58
VEL_2
NOTE_ON_51
TIME_SHIFT_64ND_8
NOTE_OFF_58
VEL_2
NOTE_ON_58
TIME_SHIFT_64ND_17
NOTE_OFF_58
VEL_2
NOTE_ON_58
TIME_SHIFT_64ND_8
NOTE_OFF_70
NOTE_OFF_67
NOTE_OFF_58
NOTE_OFF_51
VEL_4
NOTE_ON_70
VEL_4
NOTE_ON_74
VEL_2
NOTE_ON_62
VEL_2
NOTE_ON_55
TIME_SHIFT_64ND_8
NOTE_OFF_62
VEL_2
NOTE_ON_62
TIME_SHIFT_64ND_16
NOTE_OFF_70
NOTE_OFF_74
NOTE_OFF_62
VEL_3
NOTE_ON_70
VEL_3
NOTE_ON_67
VEL_2
NOTE_ON_62
TIME_SHIFT_64ND_8
NOTE_OFF_70
NOTE_OFF_67
NOTE_OFF_62
NOTE_OFF_55
VEL_3
NOTE_ON_72
VEL_3
NOTE_ON_69
VEL_2
NOTE_ON_63
VEL_2
NOTE_ON_55
TIME_SHIFT_64ND_8
NOTE_OFF_63
VEL_2
NOTE_ON_63
TIME_SHIFT_64ND_8
NOTE_OFF_72
VEL_4
NOTE_ON_78
TIME_SHIFT_64ND_8
NOTE_OFF_78
NOTE_OFF_63
VEL_3
NOTE_ON_81
VEL_2
NOTE_ON_63
TIME_SHIFT_64ND_8
NOTE_OFF_81
NOTE_OFF_69
NOTE_OFF_63
NOTE_OFF_55
VEL_4
NOTE_ON_79
VEL_3
NOTE_ON_70
VEL_2
NOTE_ON_62
VEL_2
NOTE_ON_55
TIME_SHIFT_64ND_8
NOTE_OFF_79
NOTE_OFF_62
VEL_3
NOTE_ON_74
VEL_2
NOTE_ON_62
TIME_SHIFT_64ND_8
NOTE_OFF_74
NOTE_OFF_70
NOTE_OFF_62
NOTE_OFF_55
VEL_3
NOTE_ON_72
VEL_3
NOTE_ON_69
VEL_2
NOTE_ON_63
VEL_2
NOTE_ON_55
TIME_SHIFT_64ND_8
NOTE_OFF_72
NOTE_OFF_63
VEL_3
NOTE_ON_74
VEL_2
NOTE_ON_63
TIME_SHIFT_64ND_8
NOTE_OFF_74
NOTE_OFF_69
NOTE_OFF_63
NOTE_OFF_55
VEL_2
NOTE_ON_70
VEL_2
NOTE_ON_67
VEL_2
NOTE_ON_62
VEL_1
NOTE_ON_55
TIME_SHIFT_64ND_8
NOTE_OFF_62
VEL_2
NOTE_ON_62
TIME_SHIFT_64ND_16
NOTE_OFF_62
VEL_2
NOTE_ON_62
TIME_SHIFT_64ND_8
NOTE_OFF_70
NOTE_OFF_67
NOTE_OFF_62
NOTE_OFF_55
VEL_3
NOTE_ON_77
VEL_3
NOTE_ON_70
VEL_2
NOTE_ON_53
VEL_3
NOTE_ON_62
TIME_SHIFT_64ND_8
NOTE_OFF_53
VEL_2
NOTE_ON_53
TIME_SHIFT_64ND_16
NOTE_OFF_77
NOTE_OFF_70
NOTE_OFF_62
VEL_3
NOTE_ON_79
VEL_3
NOTE_ON_69
VEL_2
NOTE_ON_63
TIME_SHIFT_64ND_8
NOTE_OFF_79
NOTE_OFF_63
VEL_3
NOTE_ON_75
VEL_3
NOTE_ON_60
TIME_SHIFT_64ND_8
NOTE_OFF_75
NOTE_OFF_60
VEL_3
NOTE_ON_77
VEL_3
NOTE_ON_62
TIME_SHIFT_64ND_8
NOTE_OFF_77
NOTE_OFF_62
VEL_4
NOTE_ON_79
VEL_3
NOTE_ON_63
TIME_SHIFT_64ND_8
NOTE_OFF_79
NOTE_OFF_63
VEL_3
NOTE_ON_81
VEL_3
NOTE_ON_65
TIME_SHIFT_64ND_8
NOTE_OFF_81
NOTE_OFF_69
NOTE_OFF_65
NOTE_OFF_53
VEL_4
NOTE_ON_77
VEL_3
NOTE_ON_70
VEL_3
NOTE_ON_62
TIME_SHIFT_64ND_8
NOTE_OFF_77
NOTE_OFF_70
NOTE_OFF_62
VEL_3
NOTE_ON_74
VEL_3
NOTE_ON_68
VEL_3
NOTE_ON_59
TIME_SHIFT_64ND_8
NOTE_OFF_74
NOTE_OFF_68
NOTE_OFF_59
VEL_3
NOTE_ON_75
VEL_3
NOTE_ON_69
VEL_3
NOTE_ON_60
TIME_SHIFT_64ND_8
NOTE_OFF_75
NOTE_OFF_69
NOTE_OFF_60
VEL_3
NOTE_ON_73
VEL_2
NOTE_ON_65
VEL_3
NOTE_ON_57
TIME_SHIFT_64ND_8
NOTE_OFF_73
NOTE_OFF_57
VEL_3
NOTE_ON_74
VEL_3
NOTE_ON_58
TIME_SHIFT_64ND_8
NOTE_OFF_74
VEL_3
NOTE_ON_72
VEL_2
NOTE_ON_68
VEL_2
NOTE_ON_63
TIME_SHIFT_64ND_8
NOTE_OFF_72
NOTE_OFF_63
VEL_2
NOTE_ON_71
VEL_2
NOTE_ON_62
TIME_SHIFT_64ND_8
NOTE_OFF_71
NOTE_OFF_68
VEL_2
NOTE_ON_70
TIME_SHIFT_64ND_9
NOTE_OFF_70
NOTE_OFF_65
NOTE_OFF_62
NOTE_OFF_58
VEL_3
NOTE_ON_75
VEL_3
NOTE_ON_79
VEL_2
NOTE_ON_58
VEL_2
NOTE_ON_51
TIME_SHIFT_64ND_8
NOTE_OFF_58
VEL_2
NOTE_ON_58
TIME_SHIFT_64ND_16
NOTE_OFF_75
NOTE_OFF_79
NOTE_OFF_58
VEL_3
NOTE_ON_77
VEL_3
NOTE_ON_74
VEL_2
NOTE_ON_58
TIME_SHIFT_64ND_8
NOTE_OFF_77
NOTE_OFF_74
NOTE_OFF_58
NOTE_OFF_51
VEL_3
NOTE_ON_77
VEL_3
NOTE_ON_80
VEL_2
NOTE_ON_58
VEL_2
NOTE_ON_51
TIME_SHIFT_64ND_8
NOTE_OFF_58
VEL_2
NOTE_ON_58
TIME_SHIFT_64ND_8
NOTE_OFF_77
NOTE_OFF_80
VEL_3
NOTE_ON_77
VEL_3
NOTE_ON_74
TIME_SHIFT_64ND_8
NOTE_OFF_77
NOTE_OFF_74
NOTE_OFF_58
VEL_3
NOTE_ON_79
VEL_3
NOTE_ON_75
VEL_2
NOTE_ON_58
TIME_SHIFT_64ND_8
NOTE_OFF_79
NOTE_OFF_75
NOTE_OFF_58
NOTE_OFF_51
VEL_3
NOTE_ON_75
VEL_3
NOTE_ON_72
VEL_2
NOTE_ON_58
VEL_2
NOTE_ON_51
TIME_SHIFT_64ND_8
NOTE_OFF_58
VEL_2
NOTE_ON_58
TIME_SHIFT_64ND_8
NOTE_OFF_75
NOTE_OFF_72
VEL_3
NOTE_ON_72
VEL_3
NOTE_ON_68
TIME_SHIFT_64ND_8
NOTE_OFF_58
VEL_2
NOTE_ON_58
TIME_SHIFT_64ND_8
NOTE_OFF_72
NOTE_OFF_68
NOTE_OFF_58
NOTE_OFF_51
VEL_2
NOTE_ON_70
VEL_2
NOTE_ON_67
VEL_2
NOTE_ON_58
VEL_2
NOTE_ON_51
TIME_SHIFT_64ND_8
NOTE_OFF_58
VEL_2
NOTE_ON_58
TIME_SHIFT_64ND_17
NOTE_OFF_58
VEL_2
NOTE_ON_58
TIME_SHIFT_64ND_8
NOTE_OFF_70
NOTE_OFF_67
NOTE_OFF_58
NOTE_OFF_51
VEL_3
NOTE_ON_72
VEL_3
NOTE_ON_68
VEL_2
NOTE_ON_51
VEL_2
NOTE_ON_65
TIME_SHIFT_64ND_8
VEL_2
NOTE_ON_58
TIME_SHIFT_64ND_8
NOTE_OFF_72
VEL_3
NOTE_ON_74
TIME_SHIFT_64ND_8
NOTE_OFF_74
NOTE_OFF_58
VEL_3
NOTE_ON_77
VEL_2
NOTE_ON_58
TIME_SHIFT_64ND_8
NOTE_OFF_77
NOTE_OFF_68
NOTE_OFF_58
NOTE_OFF_51
NOTE_OFF_65
VEL_3
NOTE_ON_74
VEL_3
NOTE_ON_68
VEL_2
NOTE_ON_51
VEL_2
NOTE_ON_65
TIME_SHIFT_64ND_8
VEL_2
NOTE_ON_58
TIME_SHIFT_64ND_8
NOTE_OFF_74
VEL_3
NOTE_ON_70
TIME_SHIFT_64ND_8
NOTE_OFF_58
VEL_2
NOTE_ON_58
TIME_SHIFT_64ND_8
NOTE_OFF_70
NOTE_OFF_68
NOTE_OFF_58
NOTE_OFF_51
NOTE_OFF_65
VEL_3
NOTE_ON_72
VEL_3
NOTE_ON_67
VEL_2
NOTE_ON_58
VEL_2
NOTE_ON_51
TIME_SHIFT_64ND_8
NOTE_OFF_72
NOTE_OFF_58
VEL_3
NOTE_ON_74
VEL_2
NOTE_ON_58
TIME_SHIFT_64ND_8
NOTE_OFF_74
VEL_3
NOTE_ON_79
TIME_SHIFT_64ND_8
NOTE_OFF_79
NOTE_OFF_58
VEL_3
NOTE_ON_72
VEL_2
NOTE_ON_58
TIME_SHIFT_64ND_8
NOTE_OFF_72
NOTE_OFF_67
NOTE_OFF_58
NOTE_OFF_51
VEL_2
NOTE_ON_70
VEL_2
NOTE_ON_67
VEL_2
NOTE_ON_58
VEL_2
NOTE_ON_51
TIME_SHIFT_64ND_8
NOTE_OFF_58
VEL_2
NOTE_ON_58
TIME_SHIFT_64ND_17
NOTE_OFF_58
VEL_2
NOTE_ON_58
TIME_SHIFT_64ND_8
NOTE_OFF_70
NOTE_OFF_67
NOTE_OFF_58
NOTE_OFF_51
VEL_3
NOTE_ON_73
VEL_2
NOTE_ON_67
VEL_3
NOTE_ON_65
TIME_SHIFT_64ND_8
NOTE_OFF_65
VEL_2
NOTE_ON_51
TIME_SHIFT_64ND_16
NOTE_OFF_73
NOTE_OFF_67
NOTE_OFF_51
VEL_3
NOTE_ON_72
VEL_2
NOTE_ON_67
VEL_2
NOTE_ON_63
TIME_SHIFT_64ND_8
NOTE_OFF_72
NOTE_OFF_67
NOTE_OFF_63
VEL_3
NOTE_ON_72
VEL_2
NOTE_ON_67
VEL_3
NOTE_ON_63
TIME_SHIFT_64ND_8
NOTE_OFF_63
VEL_2
NOTE_ON_62
TIME_SHIFT_64ND_8
NOTE_OFF_62
VEL_2
NOTE_ON_61
TIME_SHIFT_64ND_8
NOTE_OFF_72
VEL_3
NOTE_ON_70
TIME_SHIFT_64ND_8
NOTE_OFF_70
NOTE_OFF_67
NOTE_OFF_61
VEL_3
NOTE_ON_67
VEL_2
NOTE_ON_63
VEL_3
NOTE_ON_59
TIME_SHIFT_64ND_8
NOTE_OFF_67
NOTE_OFF_59
VEL_3
NOTE_ON_68
VEL_2
NOTE_ON_60
TIME_SHIFT_64ND_8
NOTE_OFF_68
NOTE_OFF_63
NOTE_OFF_60
VEL_3
NOTE_ON_71
VEL_3
NOTE_ON_55
TIME_SHIFT_64ND_8
NOTE_OFF_71
NOTE_OFF_55
VEL_3
NOTE_ON_72
VEL_2
NOTE_ON_56
TIME_SHIFT_64ND_8
NOTE_OFF_72
NOTE_OFF_56
VEL_3
NOTE_ON_74
VEL_3
NOTE_ON_59
TIME_SHIFT_64ND_8
NOTE_OFF_74
NOTE_OFF_59
VEL_3
NOTE_ON_75
VEL_3
NOTE_ON_60
TIME_SHIFT_64ND_8
NOTE_OFF_75
NOTE_OFF_60
VEL_3
NOTE_ON_80
VEL_2
NOTE_ON_75
VEL_2
NOTE_ON_72
VEL_2
NOTE_ON_53
TIME_SHIFT_64ND_8
NOTE_OFF_80
NOTE_OFF_75
NOTE_OFF_72
VEL_3
NOTE_ON_72
VEL_2
NOTE_ON_68
VEL_2
NOTE_ON_63
TIME_SHIFT_64ND_8
NOTE_OFF_72
NOTE_OFF_68
NOTE_OFF_63
NOTE_OFF_53
VEL_2
NOTE_ON_68
VEL_3
NOTE_ON_72
VEL_2
NOTE_ON_63
VEL_2
NOTE_ON_46
TIME_SHIFT_64ND_8
NOTE_OFF_46
VEL_2
NOTE_ON_58
TIME_SHIFT_64ND_16
NOTE_OFF_68
NOTE_OFF_72
NOTE_OFF_63
NOTE_OFF_58
VEL_3
NOTE_ON_74
VEL_2
NOTE_ON_68
VEL_2
NOTE_ON_65
VEL_2
NOTE_ON_58
TIME_SHIFT_64ND_8
NOTE_OFF_74
NOTE_OFF_68
NOTE_OFF_65
VEL_2
NOTE_ON_68
VEL_3
NOTE_ON_72
VEL_2
NOTE_ON_63
TIME_SHIFT_64ND_8
NOTE_OFF_58
VEL_2
NOTE_ON_58
TIME_SHIFT_64ND_8
NOTE_OFF_68
NOTE_OFF_72
NOTE_OFF_63
VEL_3
NOTE_ON_70
VEL_2
NOTE_ON_68
VEL_2
NOTE_ON_62
TIME_SHIFT_64ND_8
NOTE_OFF_58
VEL_2
NOTE_ON_58
TIME_SHIFT_64ND_8
NOTE_OFF_70
NOTE_OFF_68
NOTE_OFF_62
NOTE_OFF_58
VEL_2
NOTE_ON_63
VEL_3
NOTE_ON_67
VEL_2
NOTE_ON_46
TIME_SHIFT_64ND_8
NOTE_OFF_46
VEL_3
NOTE_ON_58
TIME_SHIFT_64ND_16
NOTE_OFF_63
NOTE_OFF_67
NOTE_OFF_58
VEL_3
NOTE_ON_70
VEL_2
NOTE_ON_63
VEL_2
NOTE_ON_62
TIME_SHIFT_64ND_8
NOTE_OFF_70
NOTE_OFF_63
VEL_3
NOTE_ON_68
VEL_2
NOTE_ON_63
TIME_SHIFT_64ND_8
NOTE_OFF_62
VEL_2
NOTE_ON_60
TIME_SHIFT_64ND_8
NOTE_OFF_68
NOTE_OFF_63
VEL_3
NOTE_ON_67
VEL_2
NOTE_ON_63
TIME_SHIFT_64ND_8
NOTE_OFF_60
VEL_2
NOTE_ON_58
TIME_SHIFT_64ND_8
NOTE_OFF_67
NOTE_OFF_63
NOTE_OFF_58
VEL_2
NOTE_ON_65
VEL_2
NOTE_ON_60
VEL_2
NOTE_ON_56
VEL_2
NOTE_ON_46
TIME_SHIFT_64ND_8
NOTE_OFF_65
NOTE_OFF_60
NOTE_OFF_56
NOTE_OFF_46
VEL_2
NOTE_ON_68
VEL_2
NOTE_ON_63
VEL_1
NOTE_ON_60
TIME_SHIFT_64ND_8
NOTE_OFF_68
NOTE_OFF_63
NOTE_OFF_60
VEL_2
NOTE_ON_65
VEL_2
NOTE_ON_60
VEL_2
NOTE_ON_56
TIME_SHIFT_64ND_8
NOTE_OFF_65
NOTE_OFF_60
NOTE_OFF_56
VEL_2
NOTE_ON_67
VEL_2
NOTE_ON_62
VEL_1
NOTE_ON_58
TIME_SHIFT_64ND_8
NOTE_OFF_67
NOTE_OFF_62
NOTE_OFF_58
VEL_2
NOTE_ON_65
VEL_2
NOTE_ON_60
VEL_1
NOTE_ON_56
TIME_SHIFT_64ND_16
NOTE_OFF_65
NOTE_OFF_60
NOTE_OFF_56
VEL_2
NOTE_ON_70
VEL_2
NOTE_ON_67
VEL_2
NOTE_ON_62
VEL_1
NOTE_ON_56
VEL_1
NOTE_ON_46
TIME_SHIFT_64ND_16
NOTE_OFF_70
NOTE_OFF_67
NOTE_OFF_62
NOTE_OFF_56
NOTE_OFF_46
VEL_2
NOTE_ON_46
VEL_1
NOTE_ON_39
TIME_SHIFT_64ND_8
NOTE_OFF_46
VEL_1
NOTE_ON_46
TIME_SHIFT_64ND_16
NOTE_OFF_46
VEL_1
NOTE_ON_46
TIME_SHIFT_64ND_8
NOTE_OFF_46
NOTE_OFF_39
VEL_1
NOTE_ON_46
VEL_1
NOTE_ON_39
TIME_SHIFT_64ND_8
NOTE_OFF_46
VEL_1
NOTE_ON_46
TIME_SHIFT_64ND_16
NOTE_OFF_46
VEL_1
NOTE_ON_46
TIME_SHIFT_64ND_8
NOTE_OFF_46
NOTE_OFF_39
VEL_2
NOTE_ON_75
VEL_2
NOTE_ON_79
VEL_1
NOTE_ON_46
VEL_1
NOTE_ON_39
TIME_SHIFT_64ND_8
NOTE_OFF_46
VEL_1
NOTE_ON_46
TIME_SHIFT_64ND_16
NOTE_OFF_75
NOTE_OFF_79
NOTE_OFF_46
VEL_2
NOTE_ON_77
VEL_2
NOTE_ON_74
VEL_1
NOTE_ON_46
TIME_SHIFT_64ND_8
NOTE_OFF_77
NOTE_OFF_74
NOTE_OFF_46
NOTE_OFF_39
VEL_2
NOTE_ON_77
VEL_2
NOTE_ON_80
VEL_1
NOTE_ON_46
VEL_1
NOTE_ON_39
TIME_SHIFT_64ND_8
NOTE_OFF_46
VEL_1
NOTE_ON_46
TIME_SHIFT_64ND_8
NOTE_OFF_77
NOTE_OFF_80
VEL_2
NOTE_ON_77
VEL_2
NOTE_ON_74
TIME_SHIFT_64ND_8
NOTE_OFF_77
NOTE_OFF_74
NOTE_OFF_46
VEL_2
NOTE_ON_79
VEL_2
NOTE_ON_75
VEL_1
NOTE_ON_46
TIME_SHIFT_64ND_8
NOTE_OFF_79
NOTE_OFF_75
NOTE_OFF_46
NOTE_OFF_39
VEL_2
NOTE_ON_75
VEL_2
NOTE_ON_72
VEL_1
NOTE_ON_46
VEL_1
NOTE_ON_39
TIME_SHIFT_64ND_8
NOTE_OFF_46
VEL_1
NOTE_ON_46
TIME_SHIFT_64ND_8
NOTE_OFF_75
NOTE_OFF_72
VEL_1
NOTE_ON_72
VEL_1
NOTE_ON_68
TIME_SHIFT_64ND_9
NOTE_OFF_46
VEL_1
NOTE_ON_46
TIME_SHIFT_64ND_9
NOTE_OFF_72
NOTE_OFF_68
NOTE_OFF_46
NOTE_OFF_39
VEL_1
NOTE_ON_70
VEL_1
NOTE_ON_67
VEL_1
NOTE_ON_46
VEL_1
NOTE_ON_39
TIME_SHIFT_64ND_9
NOTE_OFF_46
VEL_1
NOTE_ON_46
TIME_SHIFT_64ND_17
NOTE_OFF_46
VEL_1
NOTE_ON_46
TIME_SHIFT_64ND_8
NOTE_OFF_70
NOTE_OFF_67
NOTE_OFF_46
NOTE_OFF_39
VEL_1
NOTE_ON_63
VEL_1
NOTE_ON_57
VEL_1
NOTE_ON_54
VEL_1
NOTE_ON_47
VEL_1
NOTE_ON_39
TIME_SHIFT_64ND_8
NOTE_OFF_47
VEL_1
NOTE_ON_47
TIME_SHIFT_64ND_17
NOTE_OFF_47
VEL_1
NOTE_ON_47
TIME_SHIFT_64ND_8
NOTE_OFF_47
NOTE_OFF_39
VEL_1
NOTE_ON_47
VEL_1
NOTE_ON_39
TIME_SHIFT_64ND_8
NOTE_OFF_47
VEL_1
NOTE_ON_47
TIME_SHIFT_64ND_17
NOTE_OFF_47
VEL_0
NOTE_ON_47
TIME_SHIFT_64ND_8
NOTE_OFF_63
NOTE_OFF_57
NOTE_OFF_54
NOTE_OFF_47
NOTE_OFF_39
VEL_2
NOTE_ON_79
VEL_2
NOTE_ON_87
VEL_2
NOTE_ON_39
TIME_SHIFT_64ND_8
NOTE_OFF_39
VEL_1
NOTE_ON_46
TIME_SHIFT_64ND_8
NOTE_OFF_46
VEL_2
NOTE_ON_51
TIME_SHIFT_64ND_9
NOTE_OFF_51
VEL_1
NOTE_ON_55
TIME_SHIFT_64ND_9
NOTE_OFF_55
VEL_2
NOTE_ON_58
TIME_SHIFT_64ND_17
NOTE_OFF_79
NOTE_OFF_87
VEL_2
NOTE_ON_89
TIME_SHIFT_64ND_3
NOTE_OFF_89
VEL_2
NOTE_ON_91
TIME_SHIFT_64ND_3
NOTE_OFF_91
VEL_2
NOTE_ON_89
TIME_SHIFT_64ND_3
NOTE_OFF_89
VEL_2
NOTE_ON_87
TIME_SHIFT_64ND_3
NOTE_OFF_87
VEL_1
NOTE_ON_84
TIME_SHIFT_64ND_3
NOTE_OFF_84
VEL_1
NOTE_ON_82
TIME_SHIFT_64ND_3
NOTE_OFF_82
NOTE_OFF_58
VEL_2
NOTE_ON_79
TIME_SHIFT_64ND_35
NOTE_OFF_79
VEL_2
NOTE_ON_75
VEL_2
NOTE_ON_77
VEL_2
NOTE_ON_71
VEL_1
NOTE_ON_56
VEL_1
NOTE_ON_63
TIME_SHIFT_64ND_39
NOTE_OFF_75
NOTE_OFF_77
NOTE_OFF_71
NOTE_OFF_56
NOTE_OFF_63
VEL_1
NOTE_ON_87
VEL_2
NOTE_ON_99
VEL_1
NOTE_ON_94
VEL_1
NOTE_ON_91
VEL_1
NOTE_ON_39
VEL_1
NOTE_ON_27
TIME_SHIFT_64ND_78
NOTE_OFF_87
NOTE_OFF_99
NOTE_OFF_94
NOTE_OFF_91
NOTE_OFF_39
NOTE_OFF_27
