VEL_2
NOTE_ON_44
VEL_2
NOTE_ON_39
VEL_2
NOTE_ON_32
TIME_SHIFT_64ND_21
NOTE_OFF_44
NOTE_OFF_39
NOTE_OFF_32
VEL_2
NOTE_ON_47
VEL_1
NOTE_ON_35
VEL_1
NOTE_ON_39
TIME_SHIFT_64ND_21
NOTE_OFF_47
NOTE_OFF_35
NOTE_OFF_39
VEL_3
NOTE_ON_51
VEL_2
NOTE_ON_39
VEL_2
NOTE_ON_44
VEL_2
NOTE_ON_32
TIME_SHIFT_64ND_21
NOTE_OFF_39
NOTE_OFF_44
NOTE_OFF_32
VEL_1
NOTE_ON_35
VEL_2
NOTE_ON_47
VEL_1
NOTE_ON_39
TIME_SHIFT_64ND_21
NOTE_OFF_35
NOTE_OFF_47
NOTE_OFF_39
VEL_2
NOTE_ON_39
VEL_2
NOTE_ON_44
VEL_2
NOTE_ON_32
TIME_SHIFT_64ND_21
NOTE_OFF_51
NOTE_OFF_39
NOTE_OFF_44
NOTE_OFF_32
VEL_3
NOTE_ON_54
VEL_1
NOTE_ON_39
VEL_2
NOTE_ON_47
VEL_1
NOTE_ON_35
TIME_SHIFT_64ND_10
NOTE_OFF_54
VEL_3
NOTE_ON_52
TIME_SHIFT_64ND_10
NOTE_OFF_52
NOTE_OFF_39
NOTE_OFF_47
NOTE_OFF_35
VEL_3
NOTE_ON_51
VEL_2
NOTE_ON_44
VEL_2
NOTE_ON_32
VEL_2
NOTE_ON_39
TIME_SHIFT_64ND_21
NOTE_OFF_51
NOTE_OFF_44
NOTE_OFF_32
NOTE_OFF_39
VEL_3
NOTE_ON_52
VEL_2
NOTE_ON_47
VEL_1
NOTE_ON_35
VEL_1
NOTE_ON_39
TIME_SHIFT_64ND_21
NOTE_OFF_52
NOTE_OFF_47
NOTE_OFF_35
NOTE_OFF_39
VEL_3
NOTE_ON_51
VEL_2
NOTE_ON_44
VEL_2
NOTE_ON_32
VEL_2
NOTE_ON_39
TIME_SHIFT_64ND_21
NOTE_OFF_51
NOTE_OFF_44
NOTE_OFF_32
NOTE_OFF_39
VEL_4
NOTE_ON_56
VEL_1
NOTE_ON_35
VEL_2
NOTE_ON_47
VEL_1
NOTE_ON_39
TIME_SHIFT_64ND_21
NOTE_OFF_56
NOTE_OFF_35
NOTE_OFF_47
NOTE_OFF_39
VEL_4
NOTE_ON_58
VEL_2
NOTE_ON_32
VEL_2
NOTE_ON_44
VEL_2
NOTE_ON_39
TIME_SHIFT_64ND_21
NOTE_OFF_58
NOTE_OFF_32
NOTE_OFF_44
NOTE_OFF_39
VEL_4
NOTE_ON_59
VEL_2
NOTE_ON_47
VEL_1
NOTE_ON_35
VEL_1
NOTE_ON_39
TIME_SHIFT_64ND_21
NOTE_OFF_59
NOTE_OFF_47
NOTE_OFF_35
NOTE_OFF_39
VEL_4
NOTE_ON_58
VEL_2
NOTE_ON_44
VEL_2
NOTE_ON_32
VEL_2
NOTE_ON_39
TIME_SHIFT_64ND_21
NOTE_OFF_44
NOTE_OFF_32
NOTE_OFF_39
VEL_2
NOTE_ON_47
VEL_2
NOTE_ON_35
VEL_2
NOTE_ON_39
TIME_SHIFT_64ND_21
NOTE_OFF_58
NOTE_OFF_47
NOTE_OFF_35
NOTE_OFF_39
VEL_4
NOTE_ON_56
VEL_2
NOTE_ON_32
VEL_2
NOTE_ON_44
VEL_2
NOTE_ON_39
TIME_SHIFT_64ND_21
NOTE_OFF_56
NOTE_OFF_32
NOTE_OFF_44
NOTE_OFF_39
VEL_1
NOTE_ON_35
VEL_2
NOTE_ON_47
VEL_1
NOTE_ON_39
TIME_SHIFT_64ND_21
NOTE_OFF_35
NOTE_OFF_47
NOTE_OFF_39
VEL_4
NOTE_ON_61
VEL_2
NOTE_ON_45
VEL_2
NOTE_ON_37
VEL_2
NOTE_ON_33
TIME_SHIFT_64ND_21
NOTE_OFF_45
NOTE_OFF_37
NOTE_OFF_33
VEL_2
NOTE_ON_40
VEL_2
NOTE_ON_49
VEL_2
NOTE_ON_37
TIME_SHIFT_64ND_21
NOTE_OFF_61
NOTE_OFF_40
NOTE_OFF_49
NOTE_OFF_37
VEL_4
NOTE_ON_68
VEL_2
NOTE_ON_28
VEL_2
NOTE_ON_40
VEL_2
NOTE_ON_32
TIME_SHIFT_64ND_21
NOTE_OFF_68
NOTE_OFF_28
NOTE_OFF_40
NOTE_OFF_32
VEL_2
NOTE_ON_32
VEL_2
NOTE_ON_44
VEL_2
NOTE_ON_35
TIME_SHIFT_64ND_21
NOTE_OFF_32
NOTE_OFF_44
NOTE_OFF_35
VEL_4
NOTE_ON_61
VEL_2
NOTE_ON_45
VEL_2
NOTE_ON_33
VEL_2
NOTE_ON_37
TIME_SHIFT_64ND_21
NOTE_OFF_45
NOTE_OFF_33
NOTE_OFF_37
VEL_2
NOTE_ON_49
VEL_2
NOTE_ON_40
VEL_2
NOTE_ON_37
TIME_SHIFT_64ND_21
NOTE_OFF_61
NOTE_OFF_49
NOTE_OFF_40
NOTE_OFF_37
VEL_4
NOTE_ON_68
VEL_2
NOTE_ON_40
VEL_2
NOTE_ON_32
VEL_2
NOTE_ON_28
TIME_SHIFT_64ND_21
NOTE_OFF_68
NOTE_OFF_40
NOTE_OFF_32
NOTE_OFF_28
VEL_4
NOTE_ON_68
VEL_2
NOTE_ON_44
VEL_2
NOTE_ON_35
VEL_2
NOTE_ON_32
TIME_SHIFT_64ND_21
NOTE_OFF_68
NOTE_OFF_44
NOTE_OFF_35
NOTE_OFF_32
VEL_4
NOTE_ON_63
VEL_2
NOTE_ON_43
VEL_2
NOTE_ON_31
VEL_2
NOTE_ON_34
TIME_SHIFT_64ND_21
NOTE_OFF_43
NOTE_OFF_31
NOTE_OFF_34
VEL_2
NOTE_ON_46
VEL_1
NOTE_ON_39
VEL_1
NOTE_ON_34
TIME_SHIFT_64ND_21
NOTE_OFF_63
NOTE_OFF_46
NOTE_OFF_39
NOTE_OFF_34
VEL_4
NOTE_ON_61
VEL_2
NOTE_ON_43
VEL_2
NOTE_ON_34
VEL_2
NOTE_ON_31
TIME_SHIFT_64ND_21
NOTE_OFF_43
NOTE_OFF_34
NOTE_OFF_31
VEL_2
NOTE_ON_46
VEL_1
NOTE_ON_39
VEL_1
NOTE_ON_34
TIME_SHIFT_64ND_21
NOTE_OFF_61
NOTE_OFF_46
NOTE_OFF_39
NOTE_OFF_34
VEL_4
NOTE_ON_59
VEL_2
NOTE_ON_44
VEL_2
NOTE_ON_39
VEL_2
NOTE_ON_32
TIME_SHIFT_64ND_21
NOTE_OFF_59
NOTE_OFF_44
NOTE_OFF_39
NOTE_OFF_32
VEL_3
NOTE_ON_63
VEL_2
NOTE_ON_47
VEL_1
NOTE_ON_39
VEL_1
NOTE_ON_35
TIME_SHIFT_64ND_21
NOTE_OFF_63
NOTE_OFF_47
NOTE_OFF_39
NOTE_OFF_35
VEL_4
NOTE_ON_58
VEL_2
NOTE_ON_43
VEL_2
NOTE_ON_34
VEL_2
NOTE_ON_31
TIME_SHIFT_64ND_21
NOTE_OFF_58
NOTE_OFF_43
NOTE_OFF_34
NOTE_OFF_31
VEL_2
NOTE_ON_46
VEL_1
NOTE_ON_39
VEL_1
NOTE_ON_34
TIME_SHIFT_64ND_21
NOTE_OFF_46
NOTE_OFF_39
NOTE_OFF_34
VEL_4
NOTE_ON_56
VEL_2
NOTE_ON_44
VEL_2
NOTE_ON_35
VEL_2
NOTE_ON_32
TIME_SHIFT_64ND_21
NOTE_OFF_44
NOTE_OFF_35
NOTE_OFF_32
VEL_2
NOTE_ON_47
VEL_1
NOTE_ON_39
VEL_1
NOTE_ON_35
TIME_SHIFT_64ND_21
NOTE_OFF_56
NOTE_OFF_47
NOTE_OFF_39
NOTE_OFF_35
VEL_3
NOTE_ON_54
VEL_2
NOTE_ON_45
VEL_2
NOTE_ON_37
VEL_2
NOTE_ON_33
TIME_SHIFT_64ND_21
NOTE_OFF_54
NOTE_OFF_45
NOTE_OFF_37
NOTE_OFF_33
VEL_3
NOTE_ON_52
VEL_2
NOTE_ON_49
VEL_1
NOTE_ON_40
VEL_1
NOTE_ON_37
TIME_SHIFT_64ND_22
NOTE_OFF_52
NOTE_OFF_49
NOTE_OFF_40
NOTE_OFF_37
VEL_3
NOTE_ON_51
VEL_2
NOTE_ON_44
VEL_1
NOTE_ON_39
VEL_1
NOTE_ON_32
TIME_SHIFT_64ND_21
NOTE_OFF_51
NOTE_OFF_44
NOTE_OFF_39
NOTE_OFF_32
VEL_1
NOTE_ON_47
VEL_1
NOTE_ON_39
VEL_1
NOTE_ON_35
TIME_SHIFT_64ND_22
NOTE_OFF_47
NOTE_OFF_39
NOTE_OFF_35
VEL_4
NOTE_ON_51
VEL_2
NOTE_ON_44
VEL_2
NOTE_ON_39
VEL_2
NOTE_ON_32
TIME_SHIFT_64ND_21
NOTE_OFF_44
NOTE_OFF_39
NOTE_OFF_32
VEL_2
NOTE_ON_47
VEL_2
NOTE_ON_39
VEL_2
NOTE_ON_35
TIME_SHIFT_64ND_21
NOTE_OFF_47
NOTE_OFF_39
NOTE_OFF_35
VEL_2
NOTE_ON_44
VEL_2
NOTE_ON_39
VEL_2
NOTE_ON_32
TIME_SHIFT_64ND_21
NOTE_OFF_51
NOTE_OFF_44
NOTE_OFF_39
NOTE_OFF_32
VEL_4
NOTE_ON_54
VEL_2
NOTE_ON_47
VEL_2
NOTE_ON_39
VEL_2
NOTE_ON_35
TIME_SHIFT_64ND_10
NOTE_OFF_54
VEL_3
NOTE_ON_52
TIME_SHIFT_64ND_10
NOTE_OFF_52
NOTE_OFF_47
NOTE_OFF_39
NOTE_OFF_35
VEL_4
NOTE_ON_51
VEL_2
NOTE_ON_44
VEL_2
NOTE_ON_39
VEL_2
NOTE_ON_32
TIME_SHIFT_64ND_21
NOTE_OFF_51
NOTE_OFF_44
NOTE_OFF_39
NOTE_OFF_32
VEL_3
NOTE_ON_52
VEL_2
NOTE_ON_47
VEL_2
NOTE_ON_39
VEL_2
NOTE_ON_35
TIME_SHIFT_64ND_21
NOTE_OFF_52
NOTE_OFF_47
NOTE_OFF_39
NOTE_OFF_35
VEL_4
NOTE_ON_51
VEL_2
NOTE_ON_44
VEL_2
NOTE_ON_39
VEL_2
NOTE_ON_32
TIME_SHIFT_64ND_21
NOTE_OFF_51
NOTE_OFF_44
NOTE_OFF_39
NOTE_OFF_32
VEL_4
NOTE_ON_56
VEL_2
NOTE_ON_47
VEL_2
NOTE_ON_39
VEL_2
NOTE_ON_35
TIME_SHIFT_64ND_21
NOTE_OFF_56
NOTE_OFF_47
NOTE_OFF_39
NOTE_OFF_35
VEL_4
NOTE_ON_58
VEL_2
NOTE_ON_44
VEL_2
NOTE_ON_39
VEL_2
NOTE_ON_32
TIME_SHIFT_64ND_20
NOTE_OFF_58
NOTE_OFF_44
NOTE_OFF_39
NOTE_OFF_32
VEL_4
NOTE_ON_59
VEL_2
NOTE_ON_47
VEL_2
NOTE_ON_39
VEL_2
NOTE_ON_35
TIME_SHIFT_64ND_21
NOTE_OFF_59
NOTE_OFF_47
NOTE_OFF_39
NOTE_OFF_35
VEL_5
NOTE_ON_58
VEL_2
NOTE_ON_44
VEL_2
NOTE_ON_39
VEL_2
NOTE_ON_32
TIME_SHIFT_64ND_21
NOTE_OFF_44
NOTE_OFF_39
NOTE_OFF_32
VEL_2
NOTE_ON_47
VEL_2
NOTE_ON_39
VEL_2
NOTE_ON_35
TIME_SHIFT_64ND_21
NOTE_OFF_58
NOTE_OFF_47
NOTE_OFF_39
NOTE_OFF_35
VEL_4
NOTE_ON_56
VEL_2
NOTE_ON_44
VEL_2
NOTE_ON_39
VEL_2
NOTE_ON_32
TIME_SHIFT_64ND_21
NOTE_OFF_56
NOTE_OFF_44
NOTE_OFF_39
NOTE_OFF_32
VEL_2
NOTE_ON_47
VEL_2
NOTE_ON_39
VEL_2
NOTE_ON_35
TIME_SHIFT_64ND_21
NOTE_OFF_47
NOTE_OFF_39
NOTE_OFF_35
VEL_5
NOTE_ON_61
VEL_3
NOTE_ON_45
VEL_2
NOTE_ON_33
VEL_2
NOTE_ON_37
TIME_SHIFT_64ND_21
NOTE_OFF_45
NOTE_OFF_33
NOTE_OFF_37
VEL_3
NOTE_ON_49
VEL_2
NOTE_ON_40
VEL_2
NOTE_ON_37
TIME_SHIFT_64ND_21
NOTE_OFF_61
NOTE_OFF_49
NOTE_OFF_40
NOTE_OFF_37
VEL_4
NOTE_ON_64
VEL_3
NOTE_ON_40
VEL_2
NOTE_ON_32
VEL_2
NOTE_ON_28
TIME_SHIFT_64ND_21
NOTE_OFF_64
NOTE_OFF_40
NOTE_OFF_32
NOTE_OFF_28
VEL_3
NOTE_ON_44
VEL_2
NOTE_ON_35
VEL_2
NOTE_ON_32
TIME_SHIFT_64ND_21
NOTE_OFF_44
NOTE_OFF_35
NOTE_OFF_32
VEL_5
NOTE_ON_64
VEL_3
NOTE_ON_45
VEL_3
NOTE_ON_33
VEL_3
NOTE_ON_37
TIME_SHIFT_64ND_21
NOTE_OFF_45
NOTE_OFF_33
NOTE_OFF_37
VEL_3
NOTE_ON_49
VEL_2
NOTE_ON_40
VEL_2
NOTE_ON_37
TIME_SHIFT_64ND_21
NOTE_OFF_64
NOTE_OFF_49
NOTE_OFF_40
NOTE_OFF_37
VEL_4
NOTE_ON_64
VEL_3
NOTE_ON_40
VEL_3
NOTE_ON_32
VEL_3
NOTE_ON_28
TIME_SHIFT_64ND_21
NOTE_OFF_40
NOTE_OFF_32
NOTE_OFF_28
VEL_3
NOTE_ON_44
VEL_2
NOTE_ON_35
VEL_2
NOTE_ON_32
TIME_SHIFT_64ND_21
NOTE_OFF_64
NOTE_OFF_44
NOTE_OFF_35
NOTE_OFF_32
VEL_5
NOTE_ON_62
VEL_3
NOTE_ON_42
VEL_3
NOTE_ON_33
VEL_3
NOTE_ON_30
TIME_SHIFT_64ND_21
NOTE_OFF_42
NOTE_OFF_33
NOTE_OFF_30
VEL_3
NOTE_ON_45
VEL_2
NOTE_ON_38
VEL_2
NOTE_ON_33
TIME_SHIFT_64ND_21
NOTE_OFF_45
NOTE_OFF_38
NOTE_OFF_33
VEL_3
NOTE_ON_42
VEL_3
NOTE_ON_38
VEL_3
NOTE_ON_30
TIME_SHIFT_64ND_21
NOTE_OFF_42
NOTE_OFF_38
NOTE_OFF_30
VEL_3
NOTE_ON_45
VEL_2
NOTE_ON_38
VEL_2
NOTE_ON_33
TIME_SHIFT_64ND_21
NOTE_OFF_45
NOTE_OFF_38
NOTE_OFF_33
VEL_3
NOTE_ON_42
VEL_3
NOTE_ON_38
VEL_3
NOTE_ON_30
TIME_SHIFT_64ND_21
NOTE_OFF_42
NOTE_OFF_38
NOTE_OFF_30
VEL_3
NOTE_ON_45
VEL_2
NOTE_ON_38
VEL_2
NOTE_ON_33
TIME_SHIFT_64ND_21
NOTE_OFF_62
NOTE_OFF_45
NOTE_OFF_38
NOTE_OFF_33
VEL_4
NOTE_ON_60
VEL_3
NOTE_ON_44
VEL_3
NOTE_ON_39
VEL_3
NOTE_ON_32
TIME_SHIFT_64ND_21
NOTE_OFF_60
NOTE_OFF_44
NOTE_OFF_39
NOTE_OFF_32
VEL_3
NOTE_ON_48
VEL_2
NOTE_ON_39
VEL_2
NOTE_ON_36
TIME_SHIFT_64ND_21
NOTE_OFF_48
NOTE_OFF_39
NOTE_OFF_36
VEL_5
NOTE_ON_61
VEL_3
NOTE_ON_45
VEL_3
NOTE_ON_33
VEL_3
NOTE_ON_37
TIME_SHIFT_64ND_21
NOTE_OFF_45
NOTE_OFF_33
NOTE_OFF_37
VEL_3
NOTE_ON_49
VEL_2
NOTE_ON_40
VEL_2
NOTE_ON_37
TIME_SHIFT_64ND_21
NOTE_OFF_61
NOTE_OFF_49
NOTE_OFF_40
NOTE_OFF_37
VEL_4
NOTE_ON_68
VEL_3
NOTE_ON_40
VEL_2
NOTE_ON_32
VEL_2
NOTE_ON_28
TIME_SHIFT_64ND_21
NOTE_OFF_68
NOTE_OFF_40
NOTE_OFF_32
NOTE_OFF_28
VEL_4
NOTE_ON_68
VEL_3
NOTE_ON_44
VEL_2
NOTE_ON_35
VEL_2
NOTE_ON_32
TIME_SHIFT_64ND_21
NOTE_OFF_68
NOTE_OFF_44
NOTE_OFF_35
NOTE_OFF_32
VEL_4
NOTE_ON_63
VEL_3
NOTE_ON_47
VEL_2
NOTE_ON_35
VEL_2
NOTE_ON_42
TIME_SHIFT_64ND_21
NOTE_OFF_63
NOTE_OFF_47
NOTE_OFF_35
NOTE_OFF_42
VEL_4
NOTE_ON_59
VEL_2
NOTE_ON_51
VEL_2
NOTE_ON_42
VEL_2
NOTE_ON_39
TIME_SHIFT_64ND_21
NOTE_OFF_59
NOTE_OFF_51
NOTE_OFF_42
NOTE_OFF_39
VEL_4
NOTE_ON_58
VEL_3
NOTE_ON_43
VEL_2
NOTE_ON_39
VEL_2
NOTE_ON_31
TIME_SHIFT_64ND_21
NOTE_OFF_43
NOTE_OFF_39
NOTE_OFF_31
VEL_2
NOTE_ON_46
VEL_2
NOTE_ON_39
VEL_2
NOTE_ON_34
TIME_SHIFT_64ND_21
NOTE_OFF_58
NOTE_OFF_46
NOTE_OFF_39
NOTE_OFF_34
VEL_4
NOTE_ON_56
VEL_2
NOTE_ON_44
VEL_2
NOTE_ON_39
VEL_2
NOTE_ON_32
TIME_SHIFT_64ND_21
NOTE_OFF_44
NOTE_OFF_39
NOTE_OFF_32
VEL_2
NOTE_ON_47
VEL_1
NOTE_ON_39
VEL_1
NOTE_ON_35
TIME_SHIFT_64ND_21
NOTE_OFF_47
NOTE_OFF_39
NOTE_OFF_35
VEL_2
NOTE_ON_44
VEL_2
NOTE_ON_39
VEL_2
NOTE_ON_32
TIME_SHIFT_64ND_21
NOTE_OFF_56
NOTE_OFF_44
NOTE_OFF_39
NOTE_OFF_32
VEL_2
NOTE_ON_47
VEL_1
NOTE_ON_39
VEL_1
NOTE_ON_35
TIME_SHIFT_64ND_22
NOTE_OFF_47
NOTE_OFF_39
NOTE_OFF_35
VEL_4
NOTE_ON_81
VEL_4
NOTE_ON_88
VEL_4
NOTE_ON_85
VEL_4
NOTE_ON_76
VEL_3
NOTE_ON_45
VEL_2
NOTE_ON_37
VEL_2
NOTE_ON_33
TIME_SHIFT_64ND_21
NOTE_OFF_81
NOTE_OFF_88
NOTE_OFF_85
NOTE_OFF_76
NOTE_OFF_45
NOTE_OFF_37
VEL_4
NOTE_ON_73
VEL_4
NOTE_ON_85
VEL_3
NOTE_ON_45
VEL_2
NOTE_ON_37
TIME_SHIFT_64ND_20
NOTE_OFF_73
NOTE_OFF_85
NOTE_OFF_45
NOTE_OFF_37
NOTE_OFF_33
VEL_4
NOTE_ON_83
VEL_4
NOTE_ON_87
VEL_4
NOTE_ON_75
VEL_4
NOTE_ON_78
VEL_3
NOTE_ON_47
VEL_2
NOTE_ON_39
VEL_2
NOTE_ON_35
TIME_SHIFT_64ND_21
NOTE_OFF_83
NOTE_OFF_87
NOTE_OFF_75
NOTE_OFF_78
NOTE_OFF_47
NOTE_OFF_39
VEL_4
NOTE_ON_83
VEL_3
NOTE_ON_71
VEL_3
NOTE_ON_47
VEL_3
NOTE_ON_39
TIME_SHIFT_64ND_21
NOTE_OFF_83
NOTE_OFF_71
NOTE_OFF_47
NOTE_OFF_39
NOTE_OFF_35
VEL_4
NOTE_ON_73
VEL_4
NOTE_ON_76
VEL_4
NOTE_ON_81
VEL_4
NOTE_ON_85
VEL_3
NOTE_ON_49
VEL_2
NOTE_ON_40
VEL_2
NOTE_ON_37
TIME_SHIFT_64ND_21
NOTE_OFF_73
NOTE_OFF_76
NOTE_OFF_81
NOTE_OFF_85
NOTE_OFF_49
NOTE_OFF_40
VEL_4
NOTE_ON_81
VEL_3
NOTE_ON_69
VEL_3
NOTE_ON_49
VEL_2
NOTE_ON_40
TIME_SHIFT_64ND_21
NOTE_OFF_81
NOTE_OFF_69
NOTE_OFF_49
NOTE_OFF_40
NOTE_OFF_37
VEL_4
NOTE_ON_74
VEL_4
NOTE_ON_78
VEL_3
NOTE_ON_66
VEL_3
NOTE_ON_69
VEL_3
NOTE_ON_50
VEL_2
NOTE_ON_42
VEL_2
NOTE_ON_38
TIME_SHIFT_64ND_21
NOTE_OFF_50
NOTE_OFF_42
VEL_3
NOTE_ON_50
VEL_2
NOTE_ON_42
TIME_SHIFT_64ND_21
NOTE_OFF_74
NOTE_OFF_78
NOTE_OFF_66
NOTE_OFF_69
NOTE_OFF_50
NOTE_OFF_42
NOTE_OFF_38
VEL_4
NOTE_ON_76
VEL_4
NOTE_ON_81
VEL_4
NOTE_ON_85
VEL_4
NOTE_ON_88
VEL_3
NOTE_ON_45
VEL_2
NOTE_ON_37
VEL_2
NOTE_ON_33
TIME_SHIFT_64ND_21
NOTE_OFF_76
NOTE_OFF_81
NOTE_OFF_85
NOTE_OFF_88
NOTE_OFF_45
NOTE_OFF_37
VEL_4
NOTE_ON_73
VEL_4
NOTE_ON_85
VEL_2
NOTE_ON_45
VEL_2
NOTE_ON_37
TIME_SHIFT_64ND_20
NOTE_OFF_73
NOTE_OFF_85
NOTE_OFF_45
NOTE_OFF_37
NOTE_OFF_33
VEL_5
NOTE_ON_83
VEL_5
NOTE_ON_87
VEL_4
NOTE_ON_75
VEL_4
NOTE_ON_78
VEL_3
NOTE_ON_47
VEL_2
NOTE_ON_39
VEL_2
NOTE_ON_35
TIME_SHIFT_64ND_20
NOTE_OFF_83
NOTE_OFF_87
NOTE_OFF_75
NOTE_OFF_78
NOTE_OFF_47
NOTE_OFF_39
VEL_4
NOTE_ON_83
VEL_4
NOTE_ON_71
VEL_2
NOTE_ON_47
VEL_2
NOTE_ON_39
TIME_SHIFT_64ND_21
NOTE_OFF_83
NOTE_OFF_71
NOTE_OFF_47
NOTE_OFF_39
NOTE_OFF_35
VEL_4
NOTE_ON_73
VEL_4
NOTE_ON_76
VEL_5
NOTE_ON_81
VEL_5
NOTE_ON_85
VEL_3
NOTE_ON_49
VEL_2
NOTE_ON_40
VEL_2
NOTE_ON_37
TIME_SHIFT_64ND_21
NOTE_OFF_49
NOTE_OFF_40
VEL_3
NOTE_ON_49
VEL_2
NOTE_ON_40
TIME_SHIFT_64ND_21
NOTE_OFF_73
NOTE_OFF_76
NOTE_OFF_81
NOTE_OFF_85
NOTE_OFF_49
NOTE_OFF_40
NOTE_OFF_37
VEL_4
NOTE_ON_78
VEL_4
NOTE_ON_74
VEL_4
NOTE_ON_66
VEL_4
NOTE_ON_69
VEL_3
NOTE_ON_50
VEL_2
NOTE_ON_42
VEL_2
NOTE_ON_38
TIME_SHIFT_64ND_21
NOTE_OFF_50
NOTE_OFF_42
VEL_3
NOTE_ON_50
VEL_2
NOTE_ON_42
TIME_SHIFT_64ND_21
NOTE_OFF_78
NOTE_OFF_74
NOTE_OFF_66
NOTE_OFF_69
NOTE_OFF_50
NOTE_OFF_42
NOTE_OFF_38
VEL_5
NOTE_ON_85
VEL_4
NOTE_ON_81
VEL_4
NOTE_ON_76
VEL_5
NOTE_ON_88
VEL_3
NOTE_ON_45
VEL_2
NOTE_ON_37
VEL_2
NOTE_ON_33
TIME_SHIFT_64ND_20
NOTE_OFF_85
NOTE_OFF_81
NOTE_OFF_76
NOTE_OFF_88
NOTE_OFF_45
NOTE_OFF_37
VEL_4
NOTE_ON_73
VEL_5
NOTE_ON_85
VEL_3
NOTE_ON_45
VEL_2
NOTE_ON_37
TIME_SHIFT_64ND_20
NOTE_OFF_73
NOTE_OFF_85
NOTE_OFF_45
NOTE_OFF_37
NOTE_OFF_33
VEL_4
NOTE_ON_75
VEL_5
NOTE_ON_87
VEL_5
NOTE_ON_83
VEL_4
NOTE_ON_78
VEL_3
NOTE_ON_47
VEL_2
NOTE_ON_39
VEL_2
NOTE_ON_35
TIME_SHIFT_64ND_21
NOTE_OFF_75
NOTE_OFF_87
NOTE_OFF_83
NOTE_OFF_78
NOTE_OFF_47
NOTE_OFF_39
VEL_4
NOTE_ON_83
VEL_4
NOTE_ON_71
VEL_3
NOTE_ON_47
VEL_2
NOTE_ON_39
TIME_SHIFT_64ND_20
NOTE_OFF_83
NOTE_OFF_71
NOTE_OFF_47
NOTE_OFF_39
NOTE_OFF_35
VEL_5
NOTE_ON_81
VEL_4
NOTE_ON_76
VEL_4
NOTE_ON_73
VEL_5
NOTE_ON_85
VEL_3
NOTE_ON_49
VEL_2
NOTE_ON_40
VEL_2
NOTE_ON_37
TIME_SHIFT_64ND_20
NOTE_OFF_81
NOTE_OFF_76
NOTE_OFF_73
NOTE_OFF_85
NOTE_OFF_49
NOTE_OFF_40
VEL_5
NOTE_ON_81
VEL_4
NOTE_ON_69
VEL_3
NOTE_ON_49
VEL_2
NOTE_ON_40
TIME_SHIFT_64ND_20
NOTE_OFF_81
NOTE_OFF_69
NOTE_OFF_49
NOTE_OFF_40
NOTE_OFF_37
VEL_5
NOTE_ON_74
VEL_4
NOTE_ON_69
VEL_4
NOTE_ON_66
VEL_5
NOTE_ON_78
VEL_3
NOTE_ON_50
VEL_2
NOTE_ON_42
VEL_2
NOTE_ON_38
TIME_SHIFT_64ND_20
NOTE_OFF_50
NOTE_OFF_42
VEL_3
NOTE_ON_50
VEL_2
NOTE_ON_42
TIME_SHIFT_64ND_20
NOTE_OFF_74
NOTE_OFF_69
NOTE_OFF_66
NOTE_OFF_78
NOTE_OFF_50
NOTE_OFF_42
NOTE_OFF_38
VEL_5
NOTE_ON_81
VEL_5
NOTE_ON_78
VEL_5
NOTE_ON_73
VEL_5
NOTE_ON_85
VEL_3
NOTE_ON_45
VEL_3
NOTE_ON_37
VEL_3
NOTE_ON_33
TIME_SHIFT_64ND_20
NOTE_OFF_45
NOTE_OFF_37
VEL_3
NOTE_ON_45
VEL_2
NOTE_ON_37
TIME_SHIFT_64ND_20
NOTE_OFF_81
NOTE_OFF_78
NOTE_OFF_73
NOTE_OFF_85
NOTE_OFF_45
NOTE_OFF_37
NOTE_OFF_33
VEL_5
NOTE_ON_78
VEL_5
NOTE_ON_74
VEL_4
NOTE_ON_69
VEL_4
NOTE_ON_66
VEL_3
NOTE_ON_50
VEL_2
NOTE_ON_42
VEL_2
NOTE_ON_38
TIME_SHIFT_64ND_20
NOTE_OFF_50
NOTE_OFF_42
VEL_3
NOTE_ON_50
VEL_2
NOTE_ON_42
TIME_SHIFT_64ND_20
NOTE_OFF_78
NOTE_OFF_74
NOTE_OFF_69
NOTE_OFF_66
NOTE_OFF_50
NOTE_OFF_42
NOTE_OFF_38
VEL_5
NOTE_ON_85
VEL_5
NOTE_ON_78
VEL_5
NOTE_ON_73
VEL_5
NOTE_ON_81
VEL_3
NOTE_ON_45
VEL_3
NOTE_ON_37
VEL_3
NOTE_ON_33
TIME_SHIFT_64ND_20
NOTE_OFF_45
NOTE_OFF_37
VEL_3
NOTE_ON_45
VEL_2
NOTE_ON_37
TIME_SHIFT_64ND_20
NOTE_OFF_85
NOTE_OFF_78
NOTE_OFF_73
NOTE_OFF_81
NOTE_OFF_45
NOTE_OFF_37
NOTE_OFF_33
VEL_4
NOTE_ON_71
VEL_4
NOTE_ON_74
VEL_5
NOTE_ON_80
VEL_4
NOTE_ON_68
VEL_3
NOTE_ON_47
VEL_3
NOTE_ON_38
VEL_3
NOTE_ON_35
TIME_SHIFT_64ND_20
NOTE_OFF_71
NOTE_OFF_74
NOTE_OFF_80
NOTE_OFF_68
NOTE_OFF_47
NOTE_OFF_38
VEL_5
NOTE_ON_78
VEL_4
NOTE_ON_66
VEL_3
NOTE_ON_47
VEL_2
NOTE_ON_38
TIME_SHIFT_64ND_20
NOTE_OFF_78
NOTE_OFF_66
NOTE_OFF_47
NOTE_OFF_38
NOTE_OFF_35
VEL_5
NOTE_ON_76
VEL_5
NOTE_ON_81
VEL_5
NOTE_ON_85
VEL_5
NOTE_ON_73
VEL_3
NOTE_ON_45
VEL_3
NOTE_ON_37
VEL_3
NOTE_ON_33
TIME_SHIFT_64ND_20
NOTE_OFF_45
NOTE_OFF_37
VEL_3
NOTE_ON_45
VEL_2
NOTE_ON_37
TIME_SHIFT_64ND_20
NOTE_OFF_76
NOTE_OFF_81
NOTE_OFF_85
NOTE_OFF_73
NOTE_OFF_45
NOTE_OFF_37
NOTE_OFF_33
VEL_4
NOTE_ON_66
VEL_4
NOTE_ON_69
VEL_5
NOTE_ON_74
VEL_5
NOTE_ON_78
VEL_3
NOTE_ON_50
VEL_3
NOTE_ON_42
VEL_3
NOTE_ON_38
TIME_SHIFT_64ND_20
NOTE_OFF_50
NOTE_OFF_42
VEL_3
NOTE_ON_50
VEL_2
NOTE_ON_42
TIME_SHIFT_64ND_20
NOTE_OFF_66
NOTE_OFF_69
NOTE_OFF_74
NOTE_OFF_78
NOTE_OFF_50
NOTE_OFF_42
NOTE_OFF_38
VEL_5
NOTE_ON_81
VEL_5
NOTE_ON_78
VEL_5
NOTE_ON_73
VEL_5
NOTE_ON_85
VEL_3
NOTE_ON_42
VEL_3
NOTE_ON_49
VEL_3
NOTE_ON_37
TIME_SHIFT_64ND_20
NOTE_OFF_42
NOTE_OFF_49
VEL_3
NOTE_ON_49
VEL_2
NOTE_ON_42
TIME_SHIFT_64ND_20
NOTE_OFF_81
NOTE_OFF_78
NOTE_OFF_73
NOTE_OFF_85
NOTE_OFF_49
NOTE_OFF_42
NOTE_OFF_37
VEL_5
NOTE_ON_84
VEL_4
NOTE_ON_75
VEL_4
NOTE_ON_78
VEL_5
NOTE_ON_87
VEL_3
NOTE_ON_48
VEL_3
NOTE_ON_44
VEL_3
NOTE_ON_36
TIME_SHIFT_64ND_20
NOTE_OFF_48
NOTE_OFF_44
VEL_3
NOTE_ON_48
VEL_2
NOTE_ON_44
TIME_SHIFT_64ND_20
NOTE_OFF_84
NOTE_OFF_75
NOTE_OFF_78
NOTE_OFF_87
NOTE_OFF_48
NOTE_OFF_44
NOTE_OFF_36
VEL_4
NOTE_ON_76
VEL_4
NOTE_ON_88
VEL_4
NOTE_ON_80
VEL_4
NOTE_ON_85
VEL_2
NOTE_ON_44
VEL_3
NOTE_ON_49
VEL_2
NOTE_ON_37
TIME_SHIFT_64ND_20
NOTE_OFF_76
NOTE_OFF_88
NOTE_OFF_80
NOTE_OFF_85
NOTE_OFF_44
NOTE_OFF_49
VEL_4
NOTE_ON_92
VEL_4
NOTE_ON_80
VEL_3
NOTE_ON_49
VEL_2
NOTE_ON_44
TIME_SHIFT_64ND_20
NOTE_OFF_92
NOTE_OFF_80
NOTE_OFF_49
NOTE_OFF_44
NOTE_OFF_37
VEL_4
NOTE_ON_86
VEL_4
NOTE_ON_74
VEL_4
NOTE_ON_78
VEL_4
NOTE_ON_81
VEL_3
NOTE_ON_50
VEL_2
NOTE_ON_42
VEL_2
NOTE_ON_38
TIME_SHIFT_64ND_21
NOTE_OFF_50
NOTE_OFF_42
VEL_2
NOTE_ON_50
VEL_2
NOTE_ON_42
TIME_SHIFT_64ND_21
NOTE_OFF_86
NOTE_OFF_74
NOTE_OFF_78
NOTE_OFF_81
NOTE_OFF_50
NOTE_OFF_42
NOTE_OFF_38
VEL_3
NOTE_ON_80
VEL_3
NOTE_ON_72
VEL_3
NOTE_ON_78
VEL_3
NOTE_ON_84
VEL_2
NOTE_ON_51
VEL_2
NOTE_ON_44
VEL_2
NOTE_ON_39
TIME_SHIFT_64ND_21
NOTE_OFF_51
NOTE_OFF_44
VEL_2
NOTE_ON_51
VEL_2
NOTE_ON_44
TIME_SHIFT_64ND_20
NOTE_OFF_80
NOTE_OFF_72
NOTE_OFF_78
NOTE_OFF_84
NOTE_OFF_51
NOTE_OFF_44
NOTE_OFF_39
VEL_3
NOTE_ON_85
VEL_3
NOTE_ON_76
VEL_3
NOTE_ON_73
VEL_3
NOTE_ON_80
VEL_2
NOTE_ON_52
VEL_2
NOTE_ON_49
VEL_2
NOTE_ON_40
TIME_SHIFT_64ND_20
NOTE_OFF_85
NOTE_OFF_76
NOTE_OFF_73
NOTE_OFF_80
NOTE_OFF_52
NOTE_OFF_49
VEL_2
NOTE_ON_80
VEL_2
NOTE_ON_68
VEL_2
NOTE_ON_52
VEL_1
NOTE_ON_49
TIME_SHIFT_64ND_21
NOTE_OFF_80
NOTE_OFF_68
NOTE_OFF_52
NOTE_OFF_49
NOTE_OFF_40
VEL_2
NOTE_ON_69
VEL_2
NOTE_ON_75
VEL_2
NOTE_ON_81
VEL_2
NOTE_ON_73
VEL_2
NOTE_ON_54
VEL_1
NOTE_ON_49
VEL_1
NOTE_ON_42
TIME_SHIFT_64ND_21
NOTE_OFF_54
NOTE_OFF_49
VEL_1
NOTE_ON_54
VEL_1
NOTE_ON_49
TIME_SHIFT_64ND_21
NOTE_OFF_69
NOTE_OFF_75
NOTE_OFF_81
NOTE_OFF_73
NOTE_OFF_54
NOTE_OFF_49
NOTE_OFF_42
VEL_2
NOTE_ON_73
VEL_2
NOTE_ON_76
VEL_2
NOTE_ON_80
VEL_2
NOTE_ON_68
VEL_1
NOTE_ON_56
VEL_1
NOTE_ON_49
VEL_1
NOTE_ON_44
TIME_SHIFT_64ND_21
NOTE_OFF_56
NOTE_OFF_49
VEL_1
NOTE_ON_56
VEL_1
NOTE_ON_49
TIME_SHIFT_64ND_21
NOTE_OFF_73
NOTE_OFF_76
NOTE_OFF_80
NOTE_OFF_68
NOTE_OFF_56
NOTE_OFF_49
NOTE_OFF_44
VEL_2
NOTE_ON_78
VEL_2
NOTE_ON_66
VEL_2
NOTE_ON_73
VEL_2
NOTE_ON_75
VEL_2
NOTE_ON_57
VEL_1
NOTE_ON_49
VEL_1
NOTE_ON_45
TIME_SHIFT_64ND_21
NOTE_OFF_57
NOTE_OFF_49
VEL_2
NOTE_ON_57
VEL_1
NOTE_ON_49
TIME_SHIFT_64ND_20
NOTE_OFF_78
NOTE_OFF_66
NOTE_OFF_73
NOTE_OFF_75
NOTE_OFF_57
NOTE_OFF_49
NOTE_OFF_45
VEL_3
NOTE_ON_85
VEL_3
NOTE_ON_73
VEL_2
NOTE_ON_54
VEL_1
NOTE_ON_51
VEL_1
NOTE_ON_42
TIME_SHIFT_64ND_10
NOTE_OFF_85
NOTE_OFF_73
TIME_SHIFT_64ND_10
NOTE_OFF_54
NOTE_OFF_51
VEL_2
NOTE_ON_54
VEL_2
NOTE_ON_51
TIME_SHIFT_64ND_21
NOTE_OFF_54
NOTE_OFF_51
NOTE_OFF_42
VEL_5
NOTE_ON_70
VEL_5
NOTE_ON_73
VEL_5
NOTE_ON_79
VEL_5
NOTE_ON_82
VEL_3
NOTE_ON_51
VEL_4
NOTE_ON_55
VEL_3
NOTE_ON_43
TIME_SHIFT_64ND_21
NOTE_OFF_51
NOTE_OFF_55
VEL_3
NOTE_ON_55
VEL_3
NOTE_ON_51
TIME_SHIFT_64ND_21
NOTE_OFF_55
NOTE_OFF_51
NOTE_OFF_43
VEL_4
NOTE_ON_51
VEL_3
NOTE_ON_46
VEL_3
NOTE_ON_39
TIME_SHIFT_64ND_21
NOTE_OFF_51
NOTE_OFF_46
VEL_3
NOTE_ON_51
VEL_3
NOTE_ON_46
TIME_SHIFT_64ND_21
NOTE_OFF_70
NOTE_OFF_73
NOTE_OFF_79
NOTE_OFF_82
NOTE_OFF_51
NOTE_OFF_46
NOTE_OFF_39
VEL_6
NOTE_ON_71
VEL_6
NOTE_ON_75
VEL_6
NOTE_ON_80
VEL_6
NOTE_ON_83
VEL_4
NOTE_ON_56
VEL_4
NOTE_ON_51
VEL_4
NOTE_ON_44
TIME_SHIFT_64ND_21
NOTE_OFF_71
NOTE_OFF_75
NOTE_OFF_80
NOTE_OFF_83
NOTE_OFF_56
NOTE_OFF_51
VEL_4
NOTE_ON_56
VEL_3
NOTE_ON_51
TIME_SHIFT_64ND_20
NOTE_OFF_56
NOTE_OFF_51
NOTE_OFF_44
VEL_6
NOTE_ON_80
VEL_6
NOTE_ON_92
VEL_4
NOTE_ON_39
VEL_4
NOTE_ON_47
VEL_4
NOTE_ON_35
TIME_SHIFT_64ND_21
NOTE_OFF_80
NOTE_OFF_92
NOTE_OFF_39
NOTE_OFF_47
VEL_4
NOTE_ON_47
VEL_3
NOTE_ON_39
TIME_SHIFT_64ND_21
NOTE_OFF_47
NOTE_OFF_39
NOTE_OFF_35
VEL_6
NOTE_ON_80
VEL_6
NOTE_ON_88
VEL_6
NOTE_ON_76
VEL_6
NOTE_ON_85
VEL_4
NOTE_ON_44
VEL_4
NOTE_ON_49
VEL_4
NOTE_ON_37
TIME_SHIFT_64ND_21
NOTE_OFF_80
NOTE_OFF_88
NOTE_OFF_76
NOTE_OFF_85
NOTE_OFF_44
NOTE_OFF_49
VEL_4
NOTE_ON_49
VEL_3
NOTE_ON_44
TIME_SHIFT_64ND_20
NOTE_OFF_49
NOTE_OFF_44
NOTE_OFF_37
VEL_5
NOTE_ON_75
VEL_5
NOTE_ON_87
VEL_5
NOTE_ON_83
VEL_5
NOTE_ON_79
VEL_3
NOTE_ON_43
VEL_4
NOTE_ON_51
VEL_3
NOTE_ON_39
TIME_SHIFT_64ND_21
NOTE_OFF_75
NOTE_OFF_87
NOTE_OFF_83
NOTE_OFF_79
NOTE_OFF_43
NOTE_OFF_51
VEL_5
NOTE_ON_83
VEL_5
NOTE_ON_71
VEL_4
NOTE_ON_51
VEL_3
NOTE_ON_43
TIME_SHIFT_64ND_21
NOTE_OFF_83
NOTE_OFF_71
NOTE_OFF_51
NOTE_OFF_43
NOTE_OFF_39
VEL_6
NOTE_ON_80
VEL_5
NOTE_ON_68
VEL_4
NOTE_ON_44
VEL_4
NOTE_ON_39
VEL_3
NOTE_ON_32
TIME_SHIFT_64ND_21
NOTE_OFF_80
NOTE_OFF_68
NOTE_OFF_44
NOTE_OFF_39
NOTE_OFF_32
VEL_4
NOTE_ON_47
VEL_3
NOTE_ON_39
VEL_3
NOTE_ON_35
TIME_SHIFT_64ND_21
NOTE_OFF_47
NOTE_OFF_39
NOTE_OFF_35
VEL_5
NOTE_ON_63
VEL_6
NOTE_ON_75
VEL_4
NOTE_ON_44
VEL_4
NOTE_ON_39
VEL_3
NOTE_ON_32
TIME_SHIFT_64ND_21
NOTE_OFF_44
NOTE_OFF_39
NOTE_OFF_32
VEL_3
NOTE_ON_47
VEL_3
NOTE_ON_39
VEL_2
NOTE_ON_35
TIME_SHIFT_64ND_21
NOTE_OFF_47
NOTE_OFF_39
NOTE_OFF_35
VEL_4
NOTE_ON_44
VEL_4
NOTE_ON_39
VEL_3
NOTE_ON_32
TIME_SHIFT_64ND_21
NOTE_OFF_63
NOTE_OFF_75
NOTE_OFF_44
NOTE_OFF_39
NOTE_OFF_32
VEL_5
NOTE_ON_66
VEL_6
NOTE_ON_78
VEL_4
NOTE_ON_47
VEL_3
NOTE_ON_39
VEL_3
NOTE_ON_35
TIME_SHIFT_64ND_10
NOTE_OFF_66
NOTE_OFF_78
VEL_5
NOTE_ON_64
VEL_5
NOTE_ON_76
TIME_SHIFT_64ND_10
NOTE_OFF_64
NOTE_OFF_76
NOTE_OFF_47
NOTE_OFF_39
NOTE_OFF_35
VEL_6
NOTE_ON_75
VEL_5
NOTE_ON_63
VEL_4
NOTE_ON_44
VEL_4
NOTE_ON_39
VEL_3
NOTE_ON_32
TIME_SHIFT_64ND_20
NOTE_OFF_75
NOTE_OFF_63
NOTE_OFF_44
NOTE_OFF_39
NOTE_OFF_32
VEL_5
NOTE_ON_76
VEL_5
NOTE_ON_64
VEL_4
NOTE_ON_47
VEL_3
NOTE_ON_39
VEL_3
NOTE_ON_35
TIME_SHIFT_64ND_20
NOTE_OFF_76
NOTE_OFF_64
NOTE_OFF_47
NOTE_OFF_39
NOTE_OFF_35
VEL_5
NOTE_ON_63
VEL_6
NOTE_ON_75
VEL_4
NOTE_ON_44
VEL_3
NOTE_ON_39
VEL_3
NOTE_ON_32
TIME_SHIFT_64ND_21
NOTE_OFF_63
NOTE_OFF_75
NOTE_OFF_44
NOTE_OFF_39
NOTE_OFF_32
VEL_5
NOTE_ON_68
VEL_6
NOTE_ON_80
VEL_4
NOTE_ON_47
VEL_3
NOTE_ON_39
VEL_3
NOTE_ON_35
TIME_SHIFT_64ND_20
NOTE_OFF_68
NOTE_OFF_80
NOTE_OFF_47
NOTE_OFF_39
NOTE_OFF_35
VEL_6
NOTE_ON_70
VEL_6
NOTE_ON_82
VEL_4
NOTE_ON_44
VEL_4
NOTE_ON_39
VEL_3
NOTE_ON_32
TIME_SHIFT_64ND_21
NOTE_OFF_70
NOTE_OFF_82
NOTE_OFF_44
NOTE_OFF_39
NOTE_OFF_32
VEL_6
NOTE_ON_71
VEL_6
NOTE_ON_83
VEL_4
NOTE_ON_47
VEL_3
NOTE_ON_39
VEL_3
NOTE_ON_35
TIME_SHIFT_64ND_21
NOTE_OFF_71
NOTE_OFF_83
NOTE_OFF_47
NOTE_OFF_39
NOTE_OFF_35
VEL_6
NOTE_ON_70
VEL_7
NOTE_ON_82
VEL_4
NOTE_ON_44
VEL_4
NOTE_ON_39
VEL_3
NOTE_ON_32
TIME_SHIFT_64ND_21
NOTE_OFF_44
NOTE_OFF_39
NOTE_OFF_32
VEL_4
NOTE_ON_47
VEL_3
NOTE_ON_39
VEL_3
NOTE_ON_35
TIME_SHIFT_64ND_21
NOTE_OFF_70
NOTE_OFF_82
NOTE_OFF_47
NOTE_OFF_39
NOTE_OFF_35
VEL_6
NOTE_ON_68
VEL_6
NOTE_ON_80
VEL_4
NOTE_ON_44
VEL_3
NOTE_ON_39
VEL_3
NOTE_ON_32
TIME_SHIFT_64ND_21
NOTE_OFF_68
NOTE_OFF_80
NOTE_OFF_44
NOTE_OFF_39
NOTE_OFF_32
VEL_4
NOTE_ON_47
VEL_3
NOTE_ON_39
VEL_3
NOTE_ON_35
TIME_SHIFT_64ND_21
NOTE_OFF_47
NOTE_OFF_39
NOTE_OFF_35
VEL_6
NOTE_ON_73
VEL_7
NOTE_ON_85
VEL_5
NOTE_ON_45
VEL_3
NOTE_ON_33
VEL_4
NOTE_ON_37
TIME_SHIFT_64ND_21
NOTE_OFF_45
NOTE_OFF_33
NOTE_OFF_37
VEL_4
NOTE_ON_49
VEL_3
NOTE_ON_40
VEL_3
NOTE_ON_37
TIME_SHIFT_64ND_21
NOTE_OFF_73
NOTE_OFF_85
NOTE_OFF_49
NOTE_OFF_40
NOTE_OFF_37
VEL_6
NOTE_ON_92
VEL_5
NOTE_ON_80
VEL_3
NOTE_ON_40
VEL_3
NOTE_ON_44
VEL_4
NOTE_ON_52
TIME_SHIFT_64ND_21
NOTE_OFF_92
NOTE_OFF_80
NOTE_OFF_40
NOTE_OFF_44
NOTE_OFF_52
VEL_3
NOTE_ON_44
VEL_3
NOTE_ON_47
VEL_4
NOTE_ON_56
TIME_SHIFT_64ND_21
NOTE_OFF_44
NOTE_OFF_47
NOTE_OFF_56
VEL_6
NOTE_ON_73
VEL_7
NOTE_ON_85
VEL_5
NOTE_ON_45
VEL_3
NOTE_ON_33
VEL_4
NOTE_ON_37
TIME_SHIFT_64ND_21
NOTE_OFF_45
NOTE_OFF_33
NOTE_OFF_37
VEL_4
NOTE_ON_49
VEL_3
NOTE_ON_40
VEL_3
NOTE_ON_37
TIME_SHIFT_64ND_21
NOTE_OFF_73
NOTE_OFF_85
NOTE_OFF_49
NOTE_OFF_40
NOTE_OFF_37
VEL_5
NOTE_ON_80
VEL_6
NOTE_ON_92
VEL_3
NOTE_ON_40
VEL_3
NOTE_ON_44
VEL_4
NOTE_ON_52
TIME_SHIFT_64ND_21
NOTE_OFF_80
NOTE_OFF_92
NOTE_OFF_40
NOTE_OFF_44
NOTE_OFF_52
VEL_5
NOTE_ON_80
VEL_6
NOTE_ON_92
VEL_3
NOTE_ON_44
VEL_3
NOTE_ON_47
VEL_4
NOTE_ON_56
TIME_SHIFT_64ND_21
NOTE_OFF_80
NOTE_OFF_92
NOTE_OFF_44
NOTE_OFF_47
NOTE_OFF_56
VEL_6
NOTE_ON_75
VEL_6
NOTE_ON_87
VEL_5
NOTE_ON_43
VEL_3
NOTE_ON_31
VEL_4
NOTE_ON_34
TIME_SHIFT_64ND_21
NOTE_OFF_43
NOTE_OFF_31
NOTE_OFF_34
VEL_3
NOTE_ON_46
VEL_3
NOTE_ON_39
VEL_2
NOTE_ON_34
TIME_SHIFT_64ND_21
NOTE_OFF_75
NOTE_OFF_87
NOTE_OFF_46
NOTE_OFF_39
NOTE_OFF_34
VEL_5
NOTE_ON_73
VEL_6
NOTE_ON_85
VEL_4
NOTE_ON_43
VEL_3
NOTE_ON_34
VEL_3
NOTE_ON_31
TIME_SHIFT_64ND_21
NOTE_OFF_43
NOTE_OFF_34
NOTE_OFF_31
VEL_3
NOTE_ON_46
VEL_2
NOTE_ON_39
VEL_2
NOTE_ON_34
TIME_SHIFT_64ND_21
NOTE_OFF_73
NOTE_OFF_85
NOTE_OFF_46
NOTE_OFF_39
NOTE_OFF_34
VEL_5
NOTE_ON_71
VEL_6
NOTE_ON_83
VEL_4
NOTE_ON_44
VEL_4
NOTE_ON_39
VEL_3
NOTE_ON_32
TIME_SHIFT_64ND_21
NOTE_OFF_71
NOTE_OFF_83
NOTE_OFF_44
NOTE_OFF_39
NOTE_OFF_32
VEL_5
NOTE_ON_75
VEL_6
NOTE_ON_87
VEL_3
NOTE_ON_47
VEL_3
NOTE_ON_39
VEL_2
NOTE_ON_35
TIME_SHIFT_64ND_21
NOTE_OFF_75
NOTE_OFF_87
NOTE_OFF_47
NOTE_OFF_39
NOTE_OFF_35
VEL_5
NOTE_ON_70
VEL_6
NOTE_ON_82
VEL_4
NOTE_ON_39
VEL_3
NOTE_ON_34
VEL_3
NOTE_ON_27
TIME_SHIFT_64ND_21
NOTE_OFF_70
NOTE_OFF_82
NOTE_OFF_39
NOTE_OFF_34
NOTE_OFF_27
VEL_3
NOTE_ON_43
VEL_2
NOTE_ON_39
VEL_2
NOTE_ON_31
TIME_SHIFT_64ND_21
NOTE_OFF_43
NOTE_OFF_39
NOTE_OFF_31
VEL_5
NOTE_ON_68
VEL_6
NOTE_ON_80
VEL_4
NOTE_ON_44
VEL_3
NOTE_ON_35
VEL_3
NOTE_ON_32
TIME_SHIFT_64ND_21
NOTE_OFF_44
NOTE_OFF_35
NOTE_OFF_32
VEL_3
NOTE_ON_47
VEL_2
NOTE_ON_39
VEL_2
NOTE_ON_35
TIME_SHIFT_64ND_21
NOTE_OFF_68
NOTE_OFF_80
NOTE_OFF_47
NOTE_OFF_39
NOTE_OFF_35
VEL_5
NOTE_ON_66
VEL_5
NOTE_ON_78
VEL_3
NOTE_ON_45
VEL_3
NOTE_ON_37
VEL_2
NOTE_ON_33
TIME_SHIFT_64ND_21
NOTE_OFF_66
NOTE_OFF_78
NOTE_OFF_45
NOTE_OFF_37
NOTE_OFF_33
VEL_4
NOTE_ON_64
VEL_5
NOTE_ON_76
VEL_3
NOTE_ON_49
VEL_2
NOTE_ON_40
VEL_2
NOTE_ON_37
TIME_SHIFT_64ND_22
NOTE_OFF_64
NOTE_OFF_76
NOTE_OFF_49
NOTE_OFF_40
NOTE_OFF_37
VEL_4
NOTE_ON_63
VEL_5
NOTE_ON_75
VEL_3
NOTE_ON_44
VEL_2
NOTE_ON_39
VEL_2
NOTE_ON_32
TIME_SHIFT_64ND_21
NOTE_OFF_63
NOTE_OFF_75
NOTE_OFF_44
NOTE_OFF_39
NOTE_OFF_32
VEL_2
NOTE_ON_47
VEL_1
NOTE_ON_39
VEL_1
NOTE_ON_35
TIME_SHIFT_64ND_22
NOTE_OFF_47
NOTE_OFF_39
NOTE_OFF_35
VEL_3
NOTE_ON_51
VEL_2
NOTE_ON_44
VEL_1
NOTE_ON_39
VEL_1
NOTE_ON_32
TIME_SHIFT_64ND_21
NOTE_OFF_44
NOTE_OFF_39
NOTE_OFF_32
VEL_2
NOTE_ON_47
VEL_1
NOTE_ON_39
VEL_1
NOTE_ON_35
TIME_SHIFT_64ND_21
NOTE_OFF_47
NOTE_OFF_39
NOTE_OFF_35
VEL_2
NOTE_ON_44
VEL_1
NOTE_ON_39
VEL_1
NOTE_ON_32
TIME_SHIFT_64ND_21
NOTE_OFF_51
NOTE_OFF_44
NOTE_OFF_39
NOTE_OFF_32
VEL_3
NOTE_ON_54
VEL_2
NOTE_ON_47
VEL_1
NOTE_ON_39
VEL_1
NOTE_ON_35
TIME_SHIFT_64ND_10
NOTE_OFF_54
VEL_3
NOTE_ON_52
TIME_SHIFT_64ND_10
NOTE_OFF_52
NOTE_OFF_47
NOTE_OFF_39
NOTE_OFF_35
VEL_3
NOTE_ON_51
VEL_2
NOTE_ON_44
VEL_1
NOTE_ON_39
VEL_1
NOTE_ON_32
TIME_SHIFT_64ND_21
NOTE_OFF_51
NOTE_OFF_44
NOTE_OFF_39
NOTE_OFF_32
VEL_3
NOTE_ON_52
VEL_2
NOTE_ON_47
VEL_1
NOTE_ON_39
VEL_1
NOTE_ON_35
TIME_SHIFT_64ND_21
NOTE_OFF_52
NOTE_OFF_47
NOTE_OFF_39
NOTE_OFF_35
VEL_3
NOTE_ON_51
VEL_2
NOTE_ON_44
VEL_1
NOTE_ON_39
VEL_1
NOTE_ON_32
TIME_SHIFT_64ND_21
NOTE_OFF_51
NOTE_OFF_44
NOTE_OFF_39
NOTE_OFF_32
VEL_3
NOTE_ON_56
VEL_1
NOTE_ON_47
VEL_1
NOTE_ON_39
VEL_1
NOTE_ON_35
TIME_SHIFT_64ND_21
NOTE_OFF_56
NOTE_OFF_47
NOTE_OFF_39
NOTE_OFF_35
VEL_3
NOTE_ON_58
VEL_2
NOTE_ON_44
VEL_1
NOTE_ON_39
VEL_1
NOTE_ON_32
TIME_SHIFT_64ND_21
NOTE_OFF_58
NOTE_OFF_44
NOTE_OFF_39
NOTE_OFF_32
VEL_3
NOTE_ON_59
VEL_1
NOTE_ON_47
VEL_1
NOTE_ON_39
VEL_1
NOTE_ON_35
TIME_SHIFT_64ND_21
NOTE_OFF_59
NOTE_OFF_47
NOTE_OFF_39
NOTE_OFF_35
VEL_3
NOTE_ON_58
VEL_2
NOTE_ON_44
VEL_1
NOTE_ON_39
VEL_1
NOTE_ON_32
TIME_SHIFT_64ND_21
NOTE_OFF_44
NOTE_OFF_39
NOTE_OFF_32
VEL_2
NOTE_ON_47
VEL_1
NOTE_ON_39
VEL_1
NOTE_ON_35
TIME_SHIFT_64ND_21
NOTE_OFF_58
NOTE_OFF_47
NOTE_OFF_39
NOTE_OFF_35
VEL_3
NOTE_ON_56
VEL_2
NOTE_ON_44
VEL_1
NOTE_ON_39
VEL_1
NOTE_ON_32
TIME_SHIFT_64ND_21
NOTE_OFF_56
NOTE_OFF_44
NOTE_OFF_39
NOTE_OFF_32
VEL_1
NOTE_ON_47
VEL_1
NOTE_ON_39
VEL_1
NOTE_ON_35
TIME_SHIFT_64ND_21
NOTE_OFF_47
NOTE_OFF_39
NOTE_OFF_35
VEL_4
NOTE_ON_61
VEL_2
NOTE_ON_45
VEL_2
NOTE_ON_33
VEL_2
NOTE_ON_37
TIME_SHIFT_64ND_21
NOTE_OFF_45
NOTE_OFF_33
NOTE_OFF_37
VEL_2
NOTE_ON_49
VEL_2
NOTE_ON_40
VEL_1
NOTE_ON_37
TIME_SHIFT_64ND_21
NOTE_OFF_61
NOTE_OFF_49
NOTE_OFF_40
NOTE_OFF_37
VEL_3
NOTE_ON_64
VEL_2
NOTE_ON_40
VEL_2
NOTE_ON_32
VEL_2
NOTE_ON_28
TIME_SHIFT_64ND_21
NOTE_OFF_64
NOTE_OFF_40
NOTE_OFF_32
NOTE_OFF_28
VEL_2
NOTE_ON_44
VEL_2
NOTE_ON_35
VEL_1
NOTE_ON_32
TIME_SHIFT_64ND_21
NOTE_OFF_44
NOTE_OFF_35
NOTE_OFF_32
VEL_4
NOTE_ON_64
VEL_2
NOTE_ON_45
VEL_2
NOTE_ON_33
VEL_2
NOTE_ON_37
TIME_SHIFT_64ND_21
NOTE_OFF_45
NOTE_OFF_33
NOTE_OFF_37
VEL_2
NOTE_ON_49
VEL_2
NOTE_ON_40
VEL_1
NOTE_ON_37
TIME_SHIFT_64ND_21
NOTE_OFF_64
NOTE_OFF_49
NOTE_OFF_40
NOTE_OFF_37
VEL_4
NOTE_ON_64
VEL_2
NOTE_ON_40
VEL_2
NOTE_ON_32
VEL_2
NOTE_ON_28
TIME_SHIFT_64ND_21
NOTE_OFF_40
NOTE_OFF_32
NOTE_OFF_28
VEL_2
NOTE_ON_44
VEL_2
NOTE_ON_35
VEL_1
NOTE_ON_32
TIME_SHIFT_64ND_21
NOTE_OFF_64
NOTE_OFF_44
NOTE_OFF_35
NOTE_OFF_32
VEL_2
NOTE_ON_45
VEL_2
NOTE_ON_33
VEL_2
NOTE_ON_37
TIME_SHIFT_64ND_21
NOTE_OFF_45
NOTE_OFF_33
NOTE_OFF_37
VEL_2
NOTE_ON_49
VEL_1
NOTE_ON_40
VEL_1
NOTE_ON_37
TIME_SHIFT_64ND_21
NOTE_OFF_49
NOTE_OFF_40
NOTE_OFF_37
VEL_4
NOTE_ON_68
VEL_2
NOTE_ON_40
VEL_2
NOTE_ON_32
VEL_2
NOTE_ON_28
TIME_SHIFT_64ND_21
NOTE_OFF_40
NOTE_OFF_32
NOTE_OFF_28
VEL_2
NOTE_ON_44
VEL_1
NOTE_ON_35
VEL_1
NOTE_ON_32
TIME_SHIFT_64ND_21
NOTE_OFF_68
NOTE_OFF_44
NOTE_OFF_35
NOTE_OFF_32
VEL_4
NOTE_ON_63
VEL_2
NOTE_ON_47
VEL_2
NOTE_ON_35
VEL_2
NOTE_ON_42
TIME_SHIFT_64ND_21
NOTE_OFF_63
NOTE_OFF_47
NOTE_OFF_35
NOTE_OFF_42
VEL_3
NOTE_ON_59
VEL_2
NOTE_ON_51
VEL_1
NOTE_ON_42
VEL_1
NOTE_ON_39
TIME_SHIFT_64ND_21
NOTE_OFF_59
NOTE_OFF_51
NOTE_OFF_42
NOTE_OFF_39
VEL_3
NOTE_ON_58
VEL_2
NOTE_ON_51
VEL_2
NOTE_ON_43
VEL_2
NOTE_ON_39
TIME_SHIFT_64ND_21
NOTE_OFF_51
NOTE_OFF_43
VEL_2
NOTE_ON_51
VEL_1
NOTE_ON_43
TIME_SHIFT_64ND_21
NOTE_OFF_58
NOTE_OFF_51
NOTE_OFF_43
NOTE_OFF_39
VEL_3
NOTE_ON_56
VEL_2
NOTE_ON_44
VEL_2
NOTE_ON_39
VEL_1
NOTE_ON_32
TIME_SHIFT_64ND_21
NOTE_OFF_56
NOTE_OFF_44
NOTE_OFF_39
VEL_1
NOTE_ON_44
VEL_1
NOTE_ON_39
TIME_SHIFT_64ND_21
NOTE_OFF_44
NOTE_OFF_39
NOTE_OFF_32
VEL_1
NOTE_ON_45
VEL_1
NOTE_ON_37
VEL_1
NOTE_ON_33
TIME_SHIFT_64ND_21
NOTE_OFF_45
NOTE_OFF_37
VEL_1
NOTE_ON_45
VEL_1
NOTE_ON_37
TIME_SHIFT_64ND_21
NOTE_OFF_45
NOTE_OFF_37
NOTE_OFF_33
VEL_1
NOTE_ON_42
VEL_1
NOTE_ON_50
VEL_1
NOTE_ON_38
TIME_SHIFT_64ND_21
NOTE_OFF_42
NOTE_OFF_50
VEL_1
NOTE_ON_42
VEL_1
NOTE_ON_50
TIME_SHIFT_64ND_21
NOTE_OFF_42
NOTE_OFF_50
NOTE_OFF_38
VEL_1
NOTE_ON_40
VEL_1
NOTE_ON_49
VEL_1
NOTE_ON_37
TIME_SHIFT_64ND_21
NOTE_OFF_40
NOTE_OFF_49
VEL_1
NOTE_ON_49
VEL_1
NOTE_ON_40
TIME_SHIFT_64ND_21
NOTE_OFF_49
NOTE_OFF_40
NOTE_OFF_37
VEL_1
NOTE_ON_44
VEL_1
NOTE_ON_39
VEL_1
NOTE_ON_32
TIME_SHIFT_64ND_21
NOTE_OFF_44
NOTE_OFF_39
NOTE_OFF_32
VEL_1
NOTE_ON_47
VEL_1
NOTE_ON_39
VEL_1
NOTE_ON_35
TIME_SHIFT_64ND_21
NOTE_OFF_47
NOTE_OFF_39
NOTE_OFF_35
VEL_2
NOTE_ON_51
VEL_1
NOTE_ON_44
VEL_1
NOTE_ON_39
VEL_1
NOTE_ON_32
TIME_SHIFT_64ND_21
NOTE_OFF_44
NOTE_OFF_39
NOTE_OFF_32
VEL_1
NOTE_ON_47
VEL_1
NOTE_ON_39
VEL_1
NOTE_ON_35
TIME_SHIFT_64ND_21
NOTE_OFF_47
NOTE_OFF_39
NOTE_OFF_35
VEL_1
NOTE_ON_44
VEL_1
NOTE_ON_39
VEL_1
NOTE_ON_32
TIME_SHIFT_64ND_21
NOTE_OFF_51
NOTE_OFF_44
NOTE_OFF_39
NOTE_OFF_32
VEL_2
NOTE_ON_54
VEL_1
NOTE_ON_47
VEL_1
NOTE_ON_39
VEL_1
NOTE_ON_35
TIME_SHIFT_64ND_10
NOTE_OFF_54
VEL_1
NOTE_ON_52
TIME_SHIFT_64ND_11
NOTE_OFF_52
NOTE_OFF_47
NOTE_OFF_39
NOTE_OFF_35
VEL_2
NOTE_ON_51
VEL_1
NOTE_ON_44
VEL_1
NOTE_ON_39
VEL_1
NOTE_ON_32
TIME_SHIFT_64ND_21
NOTE_OFF_51
NOTE_OFF_44
NOTE_OFF_39
NOTE_OFF_32
VEL_2
NOTE_ON_52
VEL_1
NOTE_ON_47
VEL_1
NOTE_ON_39
VEL_1
NOTE_ON_35
TIME_SHIFT_64ND_21
NOTE_OFF_52
NOTE_OFF_47
NOTE_OFF_39
NOTE_OFF_35
VEL_1
NOTE_ON_44
VEL_1
NOTE_ON_39
VEL_1
NOTE_ON_32
TIME_SHIFT_64ND_21
NOTE_OFF_44
NOTE_OFF_39
VEL_1
NOTE_ON_44
VEL_1
NOTE_ON_39
TIME_SHIFT_64ND_22
NOTE_OFF_44
NOTE_OFF_39
NOTE_OFF_32
VEL_1
NOTE_ON_45
VEL_1
NOTE_ON_37
VEL_1
NOTE_ON_33
TIME_SHIFT_64ND_22
NOTE_OFF_45
NOTE_OFF_37
VEL_1
NOTE_ON_45
VEL_1
NOTE_ON_37
TIME_SHIFT_64ND_22
NOTE_OFF_45
NOTE_OFF_37
NOTE_OFF_33
VEL_1
NOTE_ON_32
VEL_1
NOTE_ON_40
VEL_1
NOTE_ON_28
TIME_SHIFT_64ND_22
NOTE_OFF_32
NOTE_OFF_40
VEL_1
NOTE_ON_32
VEL_1
NOTE_ON_40
TIME_SHIFT_64ND_21
NOTE_OFF_32
NOTE_OFF_40
NOTE_OFF_28
VEL_1
NOTE_ON_33
VEL_1
NOTE_ON_42
VEL_1
NOTE_ON_30
TIME_SHIFT_64ND_22
NOTE_OFF_33
NOTE_OFF_42
VEL_1
NOTE_ON_33
VEL_1
NOTE_ON_42
TIME_SHIFT_64ND_21
NOTE_OFF_33
NOTE_OFF_42
NOTE_OFF_30
VEL_1
NOTE_ON_51
VEL_1
NOTE_ON_44
VEL_1
NOTE_ON_39
VEL_1
NOTE_ON_32
TIME_SHIFT_64ND_22
NOTE_OFF_44
NOTE_OFF_39
NOTE_OFF_32
VEL_1
NOTE_ON_47
VEL_0
NOTE_ON_39
VEL_0
NOTE_ON_35
TIME_SHIFT_64ND_22
NOTE_OFF_47
NOTE_OFF_39
NOTE_OFF_35
VEL_1
NOTE_ON_44
VEL_1
NOTE_ON_39
VEL_1
NOTE_ON_32
TIME_SHIFT_64ND_22
NOTE_OFF_51
NOTE_OFF_44
NOTE_OFF_39
NOTE_OFF_32
VEL_1
NOTE_ON_47
VEL_1
NOTE_ON_39
VEL_0
NOTE_ON_35
TIME_SHIFT_64ND_21
NOTE_OFF_47
NOTE_OFF_39
NOTE_OFF_35
VEL_1
NOTE_ON_32
VEL_1
NOTE_ON_35
TIME_SHIFT_64ND_22
NOTE_OFF_32
NOTE_OFF_35
VEL_0
NOTE_ON_35
VEL_1
NOTE_ON_39
TIME_SHIFT_64ND_22
NOTE_OFF_35
NOTE_OFF_39
VEL_1
NOTE_ON_32
VEL_1
NOTE_ON_35
TIME_SHIFT_64ND_22
NOTE_OFF_32
NOTE_OFF_35
VEL_0
NOTE_ON_35
VEL_1
NOTE_ON_39
TIME_SHIFT_64ND_22
NOTE_OFF_35
NOTE_OFF_39
VEL_1
NOTE_ON_32
TIME_SHIFT_64ND_44
NOTE_OFF_32
VEL_1
NOTE_ON_35
TIME_SHIFT_64ND_46
NOTE_OFF_35
VEL_1
NOTE_ON_32
TIME_SHIFT_64ND_47
NOTE_OFF_32
VEL_1
NOTE_ON_35
TIME_SHIFT_64ND_47
NOTE_OFF_35
