TIME_SHIFT_64ND_52
NOTE_ON_69
TIME_SHIFT_64ND_15
NOTE_OFF_69
NOTE_ON_71
TIME_SHIFT_64ND_6
NOTE_OFF_71
NOTE_ON_69
NOTE_ON_38
NOTE_ON_50
TIME_SHIFT_64ND_3
NOTE_ON_74
TIME_SHIFT_64ND_3
NOTE_OFF_74
NOTE_ON_78
TIME_SHIFT_64ND_3
NOTE_OFF_78
NOTE_OFF_38
NOTE_OFF_50
NOTE_ON_79
TIME_SHIFT_64ND_3
NOTE_OFF_79
NOTE_ON_78
TIME_SHIFT_64ND_3
NOTE_OFF_78
NOTE_ON_74
TIME_SHIFT_64ND_3
NOTE_OFF_69
NOTE_OFF_74
NOTE_ON_69
NOTE_ON_66
NOTE_ON_62
TIME_SHIFT_64ND_3
NOTE_ON_74
TIME_SHIFT_64ND_3
NOTE_OFF_74
NOTE_ON_78
TIME_SHIFT_64ND_3
NOTE_OFF_78
NOTE_OFF_66
NOTE_OFF_62
NOTE_ON_79
TIME_SHIFT_64ND_3
NOTE_OFF_79
NOTE_ON_78
TIME_SHIFT_64ND_3
NOTE_OFF_78
NOTE_ON_74
TIME_SHIFT_64ND_4
NOTE_OFF_74
NOTE_OFF_69
NOTE_ON_71
NOTE_ON_50
TIME_SHIFT_64ND_3
NOTE_ON_74
TIME_SHIFT_64ND_3
NOTE_OFF_74
NOTE_ON_79
TIME_SHIFT_64ND_3
NOTE_OFF_79
NOTE_OFF_50
NOTE_ON_81
TIME_SHIFT_64ND_3
NOTE_OFF_81
NOTE_ON_79
TIME_SHIFT_64ND_3
NOTE_OFF_79
NOTE_ON_74
TIME_SHIFT_64ND_3
NOTE_OFF_71
NOTE_OFF_74
NOTE_ON_71
NOTE_ON_62
NOTE_ON_67
TIME_SHIFT_64ND_3
NOTE_ON_74
TIME_SHIFT_64ND_3
NOTE_OFF_74
NOTE_ON_79
TIME_SHIFT_64ND_3
NOTE_OFF_79
NOTE_OFF_62
NOTE_OFF_67
NOTE_ON_81
TIME_SHIFT_64ND_3
NOTE_OFF_81
NOTE_ON_79
TIME_SHIFT_64ND_3
NOTE_OFF_79
NOTE_ON_74
TIME_SHIFT_64ND_4
NOTE_OFF_74
NOTE_OFF_71
NOTE_ON_69
NOTE_ON_50
TIME_SHIFT_64ND_3
NOTE_ON_74
TIME_SHIFT_64ND_3
NOTE_OFF_74
NOTE_ON_78
TIME_SHIFT_64ND_3
NOTE_OFF_78
NOTE_OFF_50
NOTE_ON_79
TIME_SHIFT_64ND_3
NOTE_OFF_79
NOTE_ON_78
TIME_SHIFT_64ND_3
NOTE_OFF_78
NOTE_ON_74
TIME_SHIFT_64ND_3
NOTE_OFF_74
NOTE_OFF_69
NOTE_ON_74
NOTE_ON_57
NOTE_ON_66
NOTE_ON_62
TIME_SHIFT_64ND_3
NOTE_ON_78
TIME_SHIFT_64ND_3
NOTE_OFF_78
NOTE_ON_81
TIME_SHIFT_64ND_3
NOTE_OFF_81
NOTE_OFF_57
NOTE_OFF_66
NOTE_OFF_62
NOTE_ON_83
TIME_SHIFT_64ND_3
NOTE_OFF_83
NOTE_ON_81
TIME_SHIFT_64ND_3
NOTE_OFF_81
NOTE_ON_78
TIME_SHIFT_64ND_3
NOTE_OFF_78
NOTE_OFF_74
NOTE_ON_78
NOTE_ON_50
TIME_SHIFT_64ND_3
NOTE_OFF_78
NOTE_ON_79
TIME_SHIFT_64ND_3
NOTE_OFF_79
NOTE_ON_81
TIME_SHIFT_64ND_3
NOTE_OFF_81
NOTE_OFF_50
NOTE_ON_83
TIME_SHIFT_64ND_3
NOTE_OFF_83
NOTE_ON_85
TIME_SHIFT_64ND_3
NOTE_OFF_85
NOTE_ON_86
TIME_SHIFT_64ND_3
NOTE_OFF_86
NOTE_ON_88
NOTE_ON_66
NOTE_ON_62
NOTE_ON_57
TIME_SHIFT_64ND_3
NOTE_OFF_88
NOTE_ON_90
TIME_SHIFT_64ND_3
NOTE_OFF_90
NOTE_ON_91
TIME_SHIFT_64ND_3
NOTE_OFF_91
NOTE_OFF_66
NOTE_OFF_62
NOTE_OFF_57
NOTE_ON_92
TIME_SHIFT_64ND_3
NOTE_OFF_92
NOTE_ON_95
TIME_SHIFT_64ND_3
NOTE_OFF_95
NOTE_ON_93
TIME_SHIFT_64ND_4
NOTE_OFF_93
NOTE_ON_91
NOTE_ON_45
TIME_SHIFT_64ND_3
NOTE_OFF_91
NOTE_ON_93
TIME_SHIFT_64ND_3
NOTE_OFF_93
NOTE_ON_91
TIME_SHIFT_64ND_3
NOTE_OFF_91
NOTE_OFF_45
NOTE_ON_90
TIME_SHIFT_64ND_3
NOTE_OFF_90
NOTE_ON_91
TIME_SHIFT_64ND_3
NOTE_OFF_91
NOTE_ON_90
TIME_SHIFT_64ND_3
NOTE_OFF_90
NOTE_ON_88
NOTE_ON_57
NOTE_ON_67
NOTE_ON_61
TIME_SHIFT_64ND_3
NOTE_OFF_88
NOTE_ON_90
TIME_SHIFT_64ND_3
NOTE_OFF_90
NOTE_ON_88
TIME_SHIFT_64ND_3
NOTE_OFF_88
NOTE_OFF_57
NOTE_OFF_67
NOTE_OFF_61
NOTE_ON_86
TIME_SHIFT_64ND_3
NOTE_OFF_86
NOTE_ON_88
TIME_SHIFT_64ND_3
NOTE_OFF_88
NOTE_ON_86
TIME_SHIFT_64ND_3
NOTE_OFF_86
NOTE_ON_85
NOTE_ON_45
TIME_SHIFT_64ND_3
NOTE_OFF_85
NOTE_ON_86
TIME_SHIFT_64ND_3
NOTE_OFF_86
NOTE_ON_85
TIME_SHIFT_64ND_3
NOTE_OFF_85
NOTE_OFF_45
NOTE_ON_83
TIME_SHIFT_64ND_3
NOTE_OFF_83
NOTE_ON_85
TIME_SHIFT_64ND_3
NOTE_OFF_85
NOTE_ON_83
TIME_SHIFT_64ND_3
NOTE_OFF_83
NOTE_ON_81
NOTE_ON_67
NOTE_ON_61
NOTE_ON_57
TIME_SHIFT_64ND_3
NOTE_OFF_81
NOTE_ON_83
TIME_SHIFT_64ND_3
NOTE_OFF_83
NOTE_ON_81
TIME_SHIFT_64ND_3
NOTE_OFF_81
NOTE_OFF_67
NOTE_OFF_61
NOTE_OFF_57
NOTE_ON_79
TIME_SHIFT_64ND_3
NOTE_OFF_79
NOTE_ON_81
TIME_SHIFT_64ND_3
NOTE_OFF_81
NOTE_ON_79
TIME_SHIFT_64ND_4
NOTE_OFF_79
NOTE_ON_78
NOTE_ON_50
TIME_SHIFT_64ND_3
NOTE_OFF_78
NOTE_ON_79
TIME_SHIFT_64ND_3
NOTE_OFF_79
NOTE_ON_78
TIME_SHIFT_64ND_3
NOTE_OFF_78
NOTE_OFF_50
NOTE_ON_76
TIME_SHIFT_64ND_3
NOTE_OFF_76
NOTE_ON_78
TIME_SHIFT_64ND_3
NOTE_OFF_78
NOTE_ON_76
TIME_SHIFT_64ND_3
NOTE_OFF_76
NOTE_ON_74
NOTE_ON_57
NOTE_ON_66
NOTE_ON_62
TIME_SHIFT_64ND_3
NOTE_OFF_74
NOTE_ON_76
TIME_SHIFT_64ND_3
NOTE_OFF_76
NOTE_ON_74
TIME_SHIFT_64ND_3
NOTE_OFF_74
NOTE_OFF_57
NOTE_OFF_66
NOTE_OFF_62
NOTE_ON_73
TIME_SHIFT_64ND_3
NOTE_OFF_73
NOTE_ON_74
TIME_SHIFT_64ND_3
NOTE_OFF_74
NOTE_ON_73
TIME_SHIFT_64ND_3
NOTE_OFF_73
NOTE_ON_71
NOTE_ON_50
TIME_SHIFT_64ND_3
NOTE_OFF_71
NOTE_ON_73
TIME_SHIFT_64ND_3
NOTE_OFF_73
NOTE_ON_71
TIME_SHIFT_64ND_3
NOTE_OFF_71
NOTE_OFF_50
NOTE_ON_69
TIME_SHIFT_64ND_3
NOTE_OFF_69
NOTE_ON_71
TIME_SHIFT_64ND_3
NOTE_OFF_71
NOTE_ON_69
TIME_SHIFT_64ND_3
NOTE_OFF_69
NOTE_ON_68
NOTE_ON_65
NOTE_ON_62
NOTE_ON_59
TIME_SHIFT_64ND_3
NOTE_OFF_68
NOTE_ON_71
TIME_SHIFT_64ND_3
NOTE_OFF_71
NOTE_ON_73
TIME_SHIFT_64ND_3
NOTE_OFF_73
NOTE_OFF_65
NOTE_OFF_62
NOTE_OFF_59
NOTE_ON_74
TIME_SHIFT_64ND_3
NOTE_OFF_74
NOTE_ON_71
TIME_SHIFT_64ND_3
NOTE_OFF_71
NOTE_ON_68
TIME_SHIFT_64ND_4
NOTE_OFF_68
NOTE_ON_69
NOTE_ON_38
NOTE_ON_50
TIME_SHIFT_64ND_3
NOTE_ON_74
TIME_SHIFT_64ND_3
NOTE_OFF_74
NOTE_ON_78
TIME_SHIFT_64ND_3
NOTE_OFF_78
NOTE_OFF_38
NOTE_OFF_50
NOTE_ON_79
TIME_SHIFT_64ND_3
NOTE_OFF_79
NOTE_ON_78
TIME_SHIFT_64ND_3
NOTE_OFF_78
NOTE_ON_74
TIME_SHIFT_64ND_3
NOTE_OFF_69
NOTE_OFF_74
NOTE_ON_69
NOTE_ON_66
NOTE_ON_62
TIME_SHIFT_64ND_3
NOTE_ON_74
TIME_SHIFT_64ND_3
NOTE_OFF_74
NOTE_ON_78
TIME_SHIFT_64ND_3
NOTE_OFF_78
NOTE_OFF_66
NOTE_OFF_62
NOTE_ON_79
TIME_SHIFT_64ND_3
NOTE_OFF_79
NOTE_ON_78
TIME_SHIFT_64ND_3
NOTE_OFF_78
NOTE_ON_74
TIME_SHIFT_64ND_4
NOTE_OFF_74
NOTE_OFF_69
NOTE_ON_71
NOTE_ON_50
TIME_SHIFT_64ND_3
NOTE_ON_74
TIME_SHIFT_64ND_3
NOTE_OFF_74
NOTE_ON_79
TIME_SHIFT_64ND_3
NOTE_OFF_79
NOTE_OFF_50
NOTE_ON_81
TIME_SHIFT_64ND_3
NOTE_OFF_81
NOTE_ON_79
TIME_SHIFT_64ND_3
NOTE_OFF_79
NOTE_ON_74
TIME_SHIFT_64ND_3
NOTE_OFF_71
NOTE_OFF_74
NOTE_ON_71
NOTE_ON_62
NOTE_ON_67
TIME_SHIFT_64ND_3
NOTE_ON_74
TIME_SHIFT_64ND_3
NOTE_OFF_74
NOTE_ON_79
TIME_SHIFT_64ND_3
NOTE_OFF_79
NOTE_OFF_62
NOTE_OFF_67
NOTE_ON_81
TIME_SHIFT_64ND_3
NOTE_OFF_81
NOTE_ON_79
TIME_SHIFT_64ND_3
NOTE_OFF_79
NOTE_ON_74
TIME_SHIFT_64ND_4
NOTE_OFF_74
NOTE_OFF_71
NOTE_ON_69
NOTE_ON_50
TIME_SHIFT_64ND_3
NOTE_ON_74
TIME_SHIFT_64ND_3
NOTE_OFF_74
NOTE_ON_78
TIME_SHIFT_64ND_3
NOTE_OFF_78
NOTE_OFF_50
NOTE_ON_79
TIME_SHIFT_64ND_3
NOTE_OFF_79
NOTE_ON_78
TIME_SHIFT_64ND_3
NOTE_OFF_78
NOTE_ON_74
TIME_SHIFT_64ND_3
NOTE_OFF_74
NOTE_OFF_69
NOTE_ON_74
NOTE_ON_57
NOTE_ON_66
NOTE_ON_62
TIME_SHIFT_64ND_3
NOTE_ON_78
TIME_SHIFT_64ND_3
NOTE_OFF_78
NOTE_ON_81
TIME_SHIFT_64ND_3
NOTE_OFF_81
NOTE_OFF_57
NOTE_OFF_66
NOTE_OFF_62
NOTE_ON_83
TIME_SHIFT_64ND_3
NOTE_OFF_83
NOTE_ON_81
TIME_SHIFT_64ND_3
NOTE_OFF_81
NOTE_ON_78
TIME_SHIFT_64ND_3
NOTE_OFF_78
NOTE_OFF_74
NOTE_ON_78
NOTE_ON_50
TIME_SHIFT_64ND_3
NOTE_OFF_78
NOTE_ON_79
TIME_SHIFT_64ND_3
NOTE_OFF_79
NOTE_ON_81
TIME_SHIFT_64ND_3
NOTE_OFF_81
NOTE_OFF_50
NOTE_ON_83
TIME_SHIFT_64ND_3
NOTE_OFF_83
NOTE_ON_85
TIME_SHIFT_64ND_3
NOTE_OFF_85
NOTE_ON_86
TIME_SHIFT_64ND_3
NOTE_OFF_86
NOTE_ON_88
NOTE_ON_66
NOTE_ON_62
NOTE_ON_57
TIME_SHIFT_64ND_3
NOTE_OFF_88
NOTE_ON_90
TIME_SHIFT_64ND_3
NOTE_OFF_90
NOTE_ON_91
TIME_SHIFT_64ND_3
NOTE_OFF_91
NOTE_OFF_66
NOTE_OFF_62
NOTE_OFF_57
NOTE_ON_92
TIME_SHIFT_64ND_3
NOTE_OFF_92
NOTE_ON_95
TIME_SHIFT_64ND_3
NOTE_OFF_95
NOTE_ON_93
TIME_SHIFT_64ND_4
NOTE_OFF_93
NOTE_ON_86
NOTE_ON_57
NOTE_ON_45
TIME_SHIFT_64ND_3
NOTE_OFF_86
NOTE_ON_98
TIME_SHIFT_64ND_3
NOTE_OFF_98
NOTE_ON_97
TIME_SHIFT_64ND_3
NOTE_OFF_97
NOTE_OFF_57
NOTE_OFF_45
NOTE_ON_95
TIME_SHIFT_64ND_3
NOTE_OFF_95
NOTE_ON_93
TIME_SHIFT_64ND_3
NOTE_OFF_93
NOTE_ON_91
TIME_SHIFT_64ND_3
NOTE_OFF_91
NOTE_ON_90
NOTE_ON_62
NOTE_ON_66
NOTE_ON_57
TIME_SHIFT_64ND_3
NOTE_OFF_90
NOTE_ON_88
TIME_SHIFT_64ND_3
NOTE_OFF_88
NOTE_ON_86
TIME_SHIFT_64ND_3
NOTE_OFF_86
NOTE_OFF_62
NOTE_OFF_66
NOTE_OFF_57
NOTE_ON_85
TIME_SHIFT_64ND_3
NOTE_OFF_85
NOTE_ON_86
TIME_SHIFT_64ND_3
NOTE_OFF_86
NOTE_ON_83
TIME_SHIFT_64ND_3
NOTE_OFF_83
NOTE_ON_81
NOTE_ON_57
NOTE_ON_45
TIME_SHIFT_64ND_3
NOTE_OFF_81
NOTE_ON_91
TIME_SHIFT_64ND_3
NOTE_OFF_91
NOTE_ON_90
TIME_SHIFT_64ND_3
NOTE_OFF_90
NOTE_OFF_57
NOTE_OFF_45
NOTE_ON_88
TIME_SHIFT_64ND_3
NOTE_OFF_88
NOTE_ON_86
TIME_SHIFT_64ND_3
NOTE_OFF_86
NOTE_ON_85
TIME_SHIFT_64ND_3
NOTE_OFF_85
NOTE_ON_83
NOTE_ON_57
NOTE_ON_61
NOTE_ON_67
TIME_SHIFT_64ND_3
NOTE_OFF_83
NOTE_ON_81
TIME_SHIFT_64ND_3
NOTE_OFF_81
NOTE_ON_79
TIME_SHIFT_64ND_3
NOTE_OFF_79
NOTE_OFF_57
NOTE_OFF_61
NOTE_OFF_67
NOTE_ON_78
TIME_SHIFT_64ND_3
NOTE_OFF_78
NOTE_ON_79
TIME_SHIFT_64ND_3
NOTE_OFF_79
NOTE_ON_76
TIME_SHIFT_64ND_4
NOTE_OFF_76
NOTE_ON_74
NOTE_ON_50
TIME_SHIFT_64ND_3
NOTE_OFF_74
NOTE_ON_78
TIME_SHIFT_64ND_3
NOTE_OFF_78
NOTE_ON_81
TIME_SHIFT_64ND_3
NOTE_OFF_81
NOTE_OFF_50
NOTE_ON_83
TIME_SHIFT_64ND_3
NOTE_OFF_83
NOTE_ON_81
TIME_SHIFT_64ND_3
NOTE_OFF_81
NOTE_ON_78
TIME_SHIFT_64ND_3
NOTE_OFF_78
NOTE_ON_74
NOTE_ON_57
NOTE_ON_62
NOTE_ON_66
TIME_SHIFT_64ND_3
NOTE_OFF_74
NOTE_ON_78
TIME_SHIFT_64ND_3
NOTE_OFF_78
NOTE_ON_81
TIME_SHIFT_64ND_3
NOTE_OFF_81
NOTE_OFF_57
NOTE_OFF_62
NOTE_OFF_66
NOTE_ON_86
TIME_SHIFT_64ND_3
NOTE_OFF_86
NOTE_ON_90
TIME_SHIFT_64ND_4
NOTE_OFF_90
NOTE_ON_93
TIME_SHIFT_64ND_4
NOTE_OFF_93
NOTE_ON_98
NOTE_ON_38
NOTE_ON_50
TIME_SHIFT_64ND_5
NOTE_OFF_98
NOTE_OFF_38
NOTE_OFF_50
TIME_SHIFT_64ND_16
NOTE_ON_69
TIME_SHIFT_64ND_15
NOTE_OFF_69
NOTE_ON_71
TIME_SHIFT_64ND_6
NOTE_OFF_71
NOTE_ON_69
NOTE_ON_38
NOTE_ON_50
TIME_SHIFT_64ND_3
NOTE_ON_74
TIME_SHIFT_64ND_3
NOTE_OFF_74
NOTE_ON_78
TIME_SHIFT_64ND_3
NOTE_OFF_78
NOTE_OFF_38
NOTE_OFF_50
NOTE_ON_79
TIME_SHIFT_64ND_3
NOTE_OFF_79
NOTE_ON_78
TIME_SHIFT_64ND_3
NOTE_OFF_78
NOTE_ON_74
TIME_SHIFT_64ND_3
NOTE_OFF_69
NOTE_OFF_74
NOTE_ON_69
NOTE_ON_66
NOTE_ON_62
TIME_SHIFT_64ND_3
NOTE_ON_74
TIME_SHIFT_64ND_3
NOTE_OFF_74
NOTE_ON_78
TIME_SHIFT_64ND_3
NOTE_OFF_78
NOTE_OFF_66
NOTE_OFF_62
NOTE_ON_79
TIME_SHIFT_64ND_3
NOTE_OFF_79
NOTE_ON_78
TIME_SHIFT_64ND_3
NOTE_OFF_78
NOTE_ON_74
TIME_SHIFT_64ND_4
NOTE_OFF_74
NOTE_OFF_69
NOTE_ON_71
NOTE_ON_50
TIME_SHIFT_64ND_3
NOTE_ON_74
TIME_SHIFT_64ND_3
NOTE_OFF_74
NOTE_ON_79
TIME_SHIFT_64ND_3
NOTE_OFF_79
NOTE_OFF_50
NOTE_ON_81
TIME_SHIFT_64ND_3
NOTE_OFF_81
NOTE_ON_79
TIME_SHIFT_64ND_3
NOTE_OFF_79
NOTE_ON_74
TIME_SHIFT_64ND_3
NOTE_OFF_71
NOTE_OFF_74
NOTE_ON_71
NOTE_ON_62
NOTE_ON_67
TIME_SHIFT_64ND_3
NOTE_ON_74
TIME_SHIFT_64ND_3
NOTE_OFF_74
NOTE_ON_79
TIME_SHIFT_64ND_3
NOTE_OFF_79
NOTE_OFF_62
NOTE_OFF_67
NOTE_ON_81
TIME_SHIFT_64ND_3
NOTE_OFF_81
NOTE_ON_79
TIME_SHIFT_64ND_3
NOTE_OFF_79
NOTE_ON_74
TIME_SHIFT_64ND_4
NOTE_OFF_74
NOTE_OFF_71
NOTE_ON_69
NOTE_ON_50
TIME_SHIFT_64ND_3
NOTE_ON_74
TIME_SHIFT_64ND_3
NOTE_OFF_74
NOTE_ON_78
TIME_SHIFT_64ND_3
NOTE_OFF_78
NOTE_OFF_50
NOTE_ON_79
TIME_SHIFT_64ND_3
NOTE_OFF_79
NOTE_ON_78
TIME_SHIFT_64ND_3
NOTE_OFF_78
NOTE_ON_74
TIME_SHIFT_64ND_3
NOTE_OFF_74
NOTE_OFF_69
NOTE_ON_74
NOTE_ON_57
NOTE_ON_66
NOTE_ON_62
TIME_SHIFT_64ND_3
NOTE_ON_78
TIME_SHIFT_64ND_3
NOTE_OFF_78
NOTE_ON_81
TIME_SHIFT_64ND_3
NOTE_OFF_81
NOTE_OFF_57
NOTE_OFF_66
NOTE_OFF_62
NOTE_ON_83
TIME_SHIFT_64ND_3
NOTE_OFF_83
NOTE_ON_81
TIME_SHIFT_64ND_3
NOTE_OFF_81
NOTE_ON_78
TIME_SHIFT_64ND_3
NOTE_OFF_78
NOTE_OFF_74
NOTE_ON_78
NOTE_ON_50
TIME_SHIFT_64ND_3
NOTE_OFF_78
NOTE_ON_79
TIME_SHIFT_64ND_3
NOTE_OFF_79
NOTE_ON_81
TIME_SHIFT_64ND_3
NOTE_OFF_81
NOTE_OFF_50
NOTE_ON_83
TIME_SHIFT_64ND_3
NOTE_OFF_83
NOTE_ON_85
TIME_SHIFT_64ND_3
NOTE_OFF_85
NOTE_ON_86
TIME_SHIFT_64ND_3
NOTE_OFF_86
NOTE_ON_88
NOTE_ON_66
NOTE_ON_62
NOTE_ON_57
TIME_SHIFT_64ND_3
NOTE_OFF_88
NOTE_ON_90
TIME_SHIFT_64ND_3
NOTE_OFF_90
NOTE_ON_91
TIME_SHIFT_64ND_3
NOTE_OFF_91
NOTE_OFF_66
NOTE_OFF_62
NOTE_OFF_57
NOTE_ON_92
TIME_SHIFT_64ND_3
NOTE_OFF_92
NOTE_ON_95
TIME_SHIFT_64ND_3
NOTE_OFF_95
NOTE_ON_93
TIME_SHIFT_64ND_4
NOTE_OFF_93
NOTE_ON_91
NOTE_ON_45
TIME_SHIFT_64ND_3
NOTE_OFF_91
NOTE_ON_93
TIME_SHIFT_64ND_3
NOTE_OFF_93
NOTE_ON_91
TIME_SHIFT_64ND_3
NOTE_OFF_91
NOTE_OFF_45
NOTE_ON_90
TIME_SHIFT_64ND_3
NOTE_OFF_90
NOTE_ON_91
TIME_SHIFT_64ND_3
NOTE_OFF_91
NOTE_ON_90
TIME_SHIFT_64ND_3
NOTE_OFF_90
NOTE_ON_88
NOTE_ON_57
NOTE_ON_67
NOTE_ON_61
TIME_SHIFT_64ND_3
NOTE_OFF_88
NOTE_ON_90
TIME_SHIFT_64ND_3
NOTE_OFF_90
NOTE_ON_88
TIME_SHIFT_64ND_3
NOTE_OFF_88
NOTE_OFF_57
NOTE_OFF_67
NOTE_OFF_61
NOTE_ON_86
TIME_SHIFT_64ND_3
NOTE_OFF_86
NOTE_ON_88
TIME_SHIFT_64ND_3
NOTE_OFF_88
NOTE_ON_86
TIME_SHIFT_64ND_3
NOTE_OFF_86
NOTE_ON_85
NOTE_ON_45
TIME_SHIFT_64ND_3
NOTE_OFF_85
NOTE_ON_86
TIME_SHIFT_64ND_3
NOTE_OFF_86
NOTE_ON_85
TIME_SHIFT_64ND_3
NOTE_OFF_85
NOTE_OFF_45
NOTE_ON_83
TIME_SHIFT_64ND_3
NOTE_OFF_83
NOTE_ON_85
TIME_SHIFT_64ND_3
NOTE_OFF_85
NOTE_ON_83
TIME_SHIFT_64ND_3
NOTE_OFF_83
NOTE_ON_81
NOTE_ON_67
NOTE_ON_61
NOTE_ON_57
TIME_SHIFT_64ND_3
NOTE_OFF_81
NOTE_ON_83
TIME_SHIFT_64ND_3
NOTE_OFF_83
NOTE_ON_81
TIME_SHIFT_64ND_3
NOTE_OFF_81
NOTE_OFF_67
NOTE_OFF_61
NOTE_OFF_57
NOTE_ON_79
TIME_SHIFT_64ND_3
NOTE_OFF_79
NOTE_ON_81
TIME_SHIFT_64ND_3
NOTE_OFF_81
NOTE_ON_79
TIME_SHIFT_64ND_4
NOTE_OFF_79
NOTE_ON_78
NOTE_ON_50
TIME_SHIFT_64ND_3
NOTE_OFF_78
NOTE_ON_79
TIME_SHIFT_64ND_3
NOTE_OFF_79
NOTE_ON_78
TIME_SHIFT_64ND_3
NOTE_OFF_78
NOTE_OFF_50
NOTE_ON_76
TIME_SHIFT_64ND_3
NOTE_OFF_76
NOTE_ON_78
TIME_SHIFT_64ND_3
NOTE_OFF_78
NOTE_ON_76
TIME_SHIFT_64ND_3
NOTE_OFF_76
NOTE_ON_74
NOTE_ON_57
NOTE_ON_66
NOTE_ON_62
TIME_SHIFT_64ND_3
NOTE_OFF_74
NOTE_ON_76
TIME_SHIFT_64ND_3
NOTE_OFF_76
NOTE_ON_74
TIME_SHIFT_64ND_3
NOTE_OFF_74
NOTE_OFF_57
NOTE_OFF_66
NOTE_OFF_62
NOTE_ON_73
TIME_SHIFT_64ND_3
NOTE_OFF_73
NOTE_ON_74
TIME_SHIFT_64ND_3
NOTE_OFF_74
NOTE_ON_73
TIME_SHIFT_64ND_3
NOTE_OFF_73
NOTE_ON_71
NOTE_ON_50
TIME_SHIFT_64ND_3
NOTE_OFF_71
NOTE_ON_73
TIME_SHIFT_64ND_3
NOTE_OFF_73
NOTE_ON_71
TIME_SHIFT_64ND_3
NOTE_OFF_71
NOTE_OFF_50
NOTE_ON_69
TIME_SHIFT_64ND_3
NOTE_OFF_69
NOTE_ON_71
TIME_SHIFT_64ND_3
NOTE_OFF_71
NOTE_ON_69
TIME_SHIFT_64ND_3
NOTE_OFF_69
NOTE_ON_68
NOTE_ON_65
NOTE_ON_62
NOTE_ON_59
TIME_SHIFT_64ND_3
NOTE_OFF_68
NOTE_ON_71
TIME_SHIFT_64ND_3
NOTE_OFF_71
NOTE_ON_73
TIME_SHIFT_64ND_3
NOTE_OFF_73
NOTE_OFF_65
NOTE_OFF_62
NOTE_OFF_59
NOTE_ON_74
TIME_SHIFT_64ND_4
NOTE_OFF_74
NOTE_ON_71
TIME_SHIFT_64ND_4
NOTE_OFF_71
NOTE_ON_68
TIME_SHIFT_64ND_4
NOTE_OFF_68
NOTE_ON_69
NOTE_ON_38
NOTE_ON_50
TIME_SHIFT_64ND_3
NOTE_ON_74
TIME_SHIFT_64ND_3
NOTE_OFF_74
NOTE_ON_78
TIME_SHIFT_64ND_3
NOTE_OFF_78
NOTE_OFF_38
NOTE_OFF_50
NOTE_ON_79
TIME_SHIFT_64ND_3
NOTE_OFF_79
NOTE_ON_78
TIME_SHIFT_64ND_3
NOTE_OFF_78
NOTE_ON_74
TIME_SHIFT_64ND_3
NOTE_OFF_69
NOTE_OFF_74
NOTE_ON_69
NOTE_ON_66
NOTE_ON_62
TIME_SHIFT_64ND_3
NOTE_ON_74
TIME_SHIFT_64ND_3
NOTE_OFF_74
NOTE_ON_78
TIME_SHIFT_64ND_3
NOTE_OFF_78
NOTE_OFF_66
NOTE_OFF_62
NOTE_ON_79
TIME_SHIFT_64ND_3
NOTE_OFF_79
NOTE_ON_78
TIME_SHIFT_64ND_3
NOTE_OFF_78
NOTE_ON_74
TIME_SHIFT_64ND_4
NOTE_OFF_74
NOTE_OFF_69
NOTE_ON_71
NOTE_ON_50
TIME_SHIFT_64ND_3
NOTE_ON_74
TIME_SHIFT_64ND_3
NOTE_OFF_74
NOTE_ON_79
TIME_SHIFT_64ND_3
NOTE_OFF_79
NOTE_OFF_50
NOTE_ON_81
TIME_SHIFT_64ND_3
NOTE_OFF_81
NOTE_ON_79
TIME_SHIFT_64ND_3
NOTE_OFF_79
NOTE_ON_74
TIME_SHIFT_64ND_3
NOTE_OFF_71
NOTE_OFF_74
NOTE_ON_71
NOTE_ON_62
NOTE_ON_67
TIME_SHIFT_64ND_3
NOTE_ON_74
TIME_SHIFT_64ND_3
NOTE_OFF_74
NOTE_ON_79
TIME_SHIFT_64ND_3
NOTE_OFF_79
NOTE_OFF_62
NOTE_OFF_67
NOTE_ON_81
TIME_SHIFT_64ND_3
NOTE_OFF_81
NOTE_ON_79
TIME_SHIFT_64ND_3
NOTE_OFF_79
NOTE_ON_74
TIME_SHIFT_64ND_4
NOTE_OFF_74
NOTE_OFF_71
NOTE_ON_69
NOTE_ON_50
TIME_SHIFT_64ND_3
NOTE_ON_74
TIME_SHIFT_64ND_3
NOTE_OFF_74
NOTE_ON_78
TIME_SHIFT_64ND_3
NOTE_OFF_78
NOTE_OFF_50
NOTE_ON_79
TIME_SHIFT_64ND_3
NOTE_OFF_79
NOTE_ON_78
TIME_SHIFT_64ND_3
NOTE_OFF_78
NOTE_ON_74
TIME_SHIFT_64ND_3
NOTE_OFF_74
NOTE_OFF_69
NOTE_ON_74
NOTE_ON_57
NOTE_ON_66
NOTE_ON_62
TIME_SHIFT_64ND_3
NOTE_ON_78
TIME_SHIFT_64ND_3
NOTE_OFF_78
NOTE_ON_81
TIME_SHIFT_64ND_3
NOTE_OFF_81
NOTE_OFF_57
NOTE_OFF_66
NOTE_OFF_62
NOTE_ON_83
TIME_SHIFT_64ND_3
NOTE_OFF_83
NOTE_ON_81
TIME_SHIFT_64ND_3
NOTE_OFF_81
NOTE_ON_78
TIME_SHIFT_64ND_3
NOTE_OFF_78
NOTE_OFF_74
NOTE_ON_78
NOTE_ON_50
TIME_SHIFT_64ND_3
NOTE_OFF_78
NOTE_ON_79
TIME_SHIFT_64ND_3
NOTE_OFF_79
NOTE_ON_81
TIME_SHIFT_64ND_3
NOTE_OFF_81
NOTE_OFF_50
NOTE_ON_83
TIME_SHIFT_64ND_3
NOTE_OFF_83
NOTE_ON_85
TIME_SHIFT_64ND_3
NOTE_OFF_85
NOTE_ON_86
TIME_SHIFT_64ND_3
NOTE_OFF_86
NOTE_ON_88
NOTE_ON_66
NOTE_ON_62
NOTE_ON_57
TIME_SHIFT_64ND_3
NOTE_OFF_88
NOTE_ON_90
TIME_SHIFT_64ND_3
NOTE_OFF_90
NOTE_ON_91
TIME_SHIFT_64ND_3
NOTE_OFF_91
NOTE_OFF_66
NOTE_OFF_62
NOTE_OFF_57
NOTE_ON_92
TIME_SHIFT_64ND_3
NOTE_OFF_92
NOTE_ON_95
TIME_SHIFT_64ND_3
NOTE_OFF_95
NOTE_ON_93
TIME_SHIFT_64ND_4
NOTE_OFF_93
NOTE_ON_86
NOTE_ON_57
NOTE_ON_45
TIME_SHIFT_64ND_3
NOTE_OFF_86
NOTE_ON_98
TIME_SHIFT_64ND_3
NOTE_OFF_98
NOTE_ON_97
TIME_SHIFT_64ND_3
NOTE_OFF_97
NOTE_OFF_57
NOTE_OFF_45
NOTE_ON_95
TIME_SHIFT_64ND_3
NOTE_OFF_95
NOTE_ON_93
TIME_SHIFT_64ND_3
NOTE_OFF_93
NOTE_ON_91
TIME_SHIFT_64ND_3
NOTE_OFF_91
NOTE_ON_90
NOTE_ON_62
NOTE_ON_66
NOTE_ON_57
TIME_SHIFT_64ND_3
NOTE_OFF_90
NOTE_ON_88
TIME_SHIFT_64ND_3
NOTE_OFF_88
NOTE_ON_86
TIME_SHIFT_64ND_3
NOTE_OFF_86
NOTE_OFF_62
NOTE_OFF_66
NOTE_OFF_57
NOTE_ON_85
TIME_SHIFT_64ND_3
NOTE_OFF_85
NOTE_ON_86
TIME_SHIFT_64ND_3
NOTE_OFF_86
NOTE_ON_83
TIME_SHIFT_64ND_3
NOTE_OFF_83
NOTE_ON_81
NOTE_ON_57
NOTE_ON_45
TIME_SHIFT_64ND_3
NOTE_OFF_81
NOTE_ON_91
TIME_SHIFT_64ND_3
NOTE_OFF_91
NOTE_ON_90
TIME_SHIFT_64ND_3
NOTE_OFF_90
NOTE_OFF_57
NOTE_OFF_45
NOTE_ON_88
TIME_SHIFT_64ND_3
NOTE_OFF_88
NOTE_ON_86
TIME_SHIFT_64ND_3
NOTE_OFF_86
NOTE_ON_85
TIME_SHIFT_64ND_3
NOTE_OFF_85
NOTE_ON_83
NOTE_ON_57
NOTE_ON_61
NOTE_ON_67
TIME_SHIFT_64ND_3
NOTE_OFF_83
NOTE_ON_81
TIME_SHIFT_64ND_3
NOTE_OFF_81
NOTE_ON_79
TIME_SHIFT_64ND_3
NOTE_OFF_79
NOTE_OFF_57
NOTE_OFF_61
NOTE_OFF_67
NOTE_ON_78
TIME_SHIFT_64ND_3
NOTE_OFF_78
NOTE_ON_79
TIME_SHIFT_64ND_3
NOTE_OFF_79
NOTE_ON_76
TIME_SHIFT_64ND_4
NOTE_OFF_76
NOTE_ON_74
NOTE_ON_50
TIME_SHIFT_64ND_3
NOTE_OFF_74
NOTE_ON_78
TIME_SHIFT_64ND_3
NOTE_OFF_78
NOTE_ON_81
TIME_SHIFT_64ND_3
NOTE_OFF_81
NOTE_OFF_50
NOTE_ON_83
TIME_SHIFT_64ND_3
NOTE_OFF_83
NOTE_ON_81
TIME_SHIFT_64ND_3
NOTE_OFF_81
NOTE_ON_78
TIME_SHIFT_64ND_3
NOTE_OFF_78
NOTE_ON_74
NOTE_ON_57
NOTE_ON_62
NOTE_ON_66
TIME_SHIFT_64ND_3
NOTE_OFF_74
NOTE_ON_78
TIME_SHIFT_64ND_3
NOTE_OFF_78
NOTE_ON_81
TIME_SHIFT_64ND_3
NOTE_OFF_81
NOTE_OFF_57
NOTE_OFF_62
NOTE_OFF_66
NOTE_ON_86
TIME_SHIFT_64ND_3
NOTE_OFF_86
NOTE_ON_90
TIME_SHIFT_64ND_4
NOTE_OFF_90
NOTE_ON_93
TIME_SHIFT_64ND_4
NOTE_OFF_93
NOTE_ON_98
NOTE_ON_38
NOTE_ON_50
TIME_SHIFT_64ND_5
NOTE_OFF_98
NOTE_OFF_38
NOTE_OFF_50
TIME_SHIFT_64ND_16
NOTE_ON_62
TIME_SHIFT_64ND_15
NOTE_OFF_62
NOTE_ON_64
TIME_SHIFT_64ND_6
NOTE_OFF_64
NOTE_ON_66
TIME_SHIFT_64ND_3
NOTE_ON_71
TIME_SHIFT_64ND_3
NOTE_OFF_71
NOTE_ON_73
TIME_SHIFT_64ND_3
NOTE_OFF_73
NOTE_ON_74
TIME_SHIFT_64ND_3
NOTE_OFF_74
NOTE_ON_73
TIME_SHIFT_64ND_3
NOTE_OFF_73
NOTE_ON_71
TIME_SHIFT_64ND_3
NOTE_OFF_71
NOTE_OFF_66
NOTE_ON_59
TIME_SHIFT_64ND_3
NOTE_ON_74
TIME_SHIFT_64ND_3
NOTE_OFF_74
NOTE_ON_76
TIME_SHIFT_64ND_3
NOTE_OFF_76
NOTE_ON_78
TIME_SHIFT_64ND_3
NOTE_OFF_78
NOTE_ON_76
TIME_SHIFT_64ND_3
NOTE_OFF_76
NOTE_ON_74
TIME_SHIFT_64ND_4
NOTE_OFF_74
NOTE_OFF_59
NOTE_ON_61
TIME_SHIFT_64ND_3
NOTE_ON_70
TIME_SHIFT_64ND_3
NOTE_OFF_70
NOTE_ON_78
TIME_SHIFT_64ND_3
NOTE_OFF_78
NOTE_OFF_61
NOTE_ON_62
TIME_SHIFT_64ND_3
NOTE_ON_71
TIME_SHIFT_64ND_3
NOTE_OFF_71
NOTE_ON_78
TIME_SHIFT_64ND_3
NOTE_OFF_78
NOTE_OFF_62
NOTE_ON_64
TIME_SHIFT_64ND_3
NOTE_ON_73
TIME_SHIFT_64ND_3
NOTE_OFF_73
NOTE_ON_78
TIME_SHIFT_64ND_3
NOTE_OFF_78
NOTE_OFF_64
NOTE_ON_67
TIME_SHIFT_64ND_3
NOTE_ON_76
TIME_SHIFT_64ND_3
NOTE_OFF_76
NOTE_ON_78
TIME_SHIFT_64ND_4
NOTE_OFF_78
NOTE_OFF_67
NOTE_ON_66
TIME_SHIFT_64ND_3
NOTE_ON_74
TIME_SHIFT_64ND_3
NOTE_OFF_74
NOTE_ON_78
TIME_SHIFT_64ND_3
NOTE_OFF_78
NOTE_ON_83
TIME_SHIFT_64ND_3
NOTE_OFF_83
NOTE_ON_78
TIME_SHIFT_64ND_3
NOTE_OFF_78
NOTE_ON_74
TIME_SHIFT_64ND_3
NOTE_OFF_74
NOTE_OFF_66
NOTE_ON_62
TIME_SHIFT_64ND_3
NOTE_ON_74
TIME_SHIFT_64ND_3
NOTE_OFF_74
NOTE_ON_78
TIME_SHIFT_64ND_3
NOTE_OFF_78
NOTE_ON_83
TIME_SHIFT_64ND_3
NOTE_OFF_83
NOTE_ON_78
TIME_SHIFT_64ND_3
NOTE_OFF_78
NOTE_ON_74
TIME_SHIFT_64ND_3
NOTE_OFF_74
NOTE_OFF_62
NOTE_ON_59
TIME_SHIFT_64ND_3
NOTE_ON_71
TIME_SHIFT_64ND_3
NOTE_OFF_71
NOTE_ON_74
TIME_SHIFT_64ND_3
NOTE_OFF_74
NOTE_ON_83
TIME_SHIFT_64ND_3
NOTE_OFF_83
NOTE_ON_74
TIME_SHIFT_64ND_3
NOTE_OFF_74
NOTE_ON_71
TIME_SHIFT_64ND_3
NOTE_OFF_71
NOTE_OFF_59
NOTE_ON_57
TIME_SHIFT_64ND_3
NOTE_ON_71
TIME_SHIFT_64ND_3
NOTE_OFF_71
NOTE_ON_74
TIME_SHIFT_64ND_3
NOTE_OFF_74
NOTE_ON_83
TIME_SHIFT_64ND_3
NOTE_OFF_83
NOTE_ON_74
TIME_SHIFT_64ND_3
NOTE_OFF_74
NOTE_ON_71
TIME_SHIFT_64ND_4
NOTE_OFF_71
NOTE_OFF_57
NOTE_ON_83
NOTE_ON_55
NOTE_ON_43
TIME_SHIFT_64ND_3
NOTE_ON_74
TIME_SHIFT_64ND_3
NOTE_OFF_74
NOTE_ON_79
TIME_SHIFT_64ND_3
NOTE_OFF_83
NOTE_OFF_79
NOTE_OFF_55
NOTE_OFF_43
NOTE_ON_83
TIME_SHIFT_64ND_3
NOTE_OFF_83
NOTE_ON_79
TIME_SHIFT_64ND_3
NOTE_OFF_79
NOTE_ON_74
TIME_SHIFT_64ND_3
NOTE_OFF_74
NOTE_ON_86
NOTE_ON_50
NOTE_ON_55
NOTE_ON_59
TIME_SHIFT_64ND_3
NOTE_ON_79
TIME_SHIFT_64ND_3
NOTE_OFF_79
NOTE_ON_83
TIME_SHIFT_64ND_3
NOTE_OFF_86
NOTE_OFF_83
NOTE_OFF_50
NOTE_OFF_55
NOTE_OFF_59
NOTE_ON_86
TIME_SHIFT_64ND_3
NOTE_OFF_86
NOTE_ON_83
TIME_SHIFT_64ND_3
NOTE_OFF_83
NOTE_ON_79
TIME_SHIFT_64ND_3
NOTE_OFF_79
NOTE_ON_91
NOTE_ON_43
NOTE_ON_55
TIME_SHIFT_64ND_3
NOTE_ON_83
TIME_SHIFT_64ND_3
NOTE_OFF_83
NOTE_ON_86
TIME_SHIFT_64ND_3
NOTE_OFF_91
NOTE_OFF_86
NOTE_OFF_43
NOTE_OFF_55
NOTE_ON_91
TIME_SHIFT_64ND_3
NOTE_OFF_91
NOTE_ON_86
TIME_SHIFT_64ND_3
NOTE_OFF_86
NOTE_ON_83
TIME_SHIFT_64ND_3
NOTE_OFF_83
NOTE_ON_95
NOTE_ON_50
NOTE_ON_59
NOTE_ON_55
TIME_SHIFT_64ND_3
NOTE_ON_86
TIME_SHIFT_64ND_3
NOTE_OFF_86
NOTE_ON_91
TIME_SHIFT_64ND_3
NOTE_OFF_95
NOTE_OFF_91
NOTE_OFF_50
NOTE_OFF_59
NOTE_OFF_55
NOTE_ON_95
TIME_SHIFT_64ND_3
NOTE_OFF_95
NOTE_ON_91
TIME_SHIFT_64ND_3
NOTE_OFF_91
NOTE_ON_86
TIME_SHIFT_64ND_4
NOTE_OFF_86
NOTE_ON_93
NOTE_ON_38
NOTE_ON_50
TIME_SHIFT_64ND_3
NOTE_ON_86
TIME_SHIFT_64ND_3
NOTE_OFF_86
NOTE_ON_88
TIME_SHIFT_64ND_3
NOTE_OFF_88
NOTE_OFF_38
NOTE_OFF_50
NOTE_ON_90
TIME_SHIFT_64ND_3
NOTE_OFF_90
NOTE_ON_88
TIME_SHIFT_64ND_3
NOTE_OFF_88
NOTE_ON_86
TIME_SHIFT_64ND_3
NOTE_OFF_86
NOTE_ON_57
TIME_SHIFT_64ND_3
NOTE_ON_86
TIME_SHIFT_64ND_3
NOTE_OFF_86
NOTE_ON_88
TIME_SHIFT_64ND_3
NOTE_OFF_88
NOTE_ON_90
TIME_SHIFT_64ND_3
NOTE_OFF_90
NOTE_ON_88
TIME_SHIFT_64ND_3
NOTE_OFF_88
NOTE_ON_86
TIME_SHIFT_64ND_3
NOTE_OFF_86
NOTE_ON_66
TIME_SHIFT_64ND_3
NOTE_ON_86
TIME_SHIFT_64ND_3
NOTE_OFF_86
NOTE_ON_88
TIME_SHIFT_64ND_3
NOTE_OFF_88
NOTE_ON_90
TIME_SHIFT_64ND_3
NOTE_OFF_90
NOTE_ON_88
TIME_SHIFT_64ND_3
NOTE_OFF_88
NOTE_ON_86
TIME_SHIFT_64ND_3
NOTE_OFF_86
NOTE_OFF_93
NOTE_OFF_66
NOTE_ON_93
NOTE_ON_62
TIME_SHIFT_64ND_3
NOTE_ON_86
TIME_SHIFT_64ND_3
NOTE_OFF_86
NOTE_ON_88
TIME_SHIFT_64ND_3
NOTE_OFF_88
NOTE_ON_90
TIME_SHIFT_64ND_3
NOTE_OFF_90
NOTE_ON_88
TIME_SHIFT_64ND_3
NOTE_OFF_88
NOTE_ON_86
TIME_SHIFT_64ND_3
NOTE_OFF_86
NOTE_OFF_93
NOTE_OFF_57
NOTE_ON_93
NOTE_ON_33
NOTE_ON_45
NOTE_OFF_62
TIME_SHIFT_64ND_3
NOTE_ON_81
TIME_SHIFT_64ND_3
NOTE_OFF_81
NOTE_ON_86
TIME_SHIFT_64ND_3
NOTE_OFF_86
NOTE_OFF_33
NOTE_OFF_45
NOTE_ON_88
TIME_SHIFT_64ND_3
NOTE_OFF_88
NOTE_ON_86
TIME_SHIFT_64ND_3
NOTE_OFF_86
NOTE_ON_81
TIME_SHIFT_64ND_3
NOTE_OFF_93
NOTE_OFF_81
NOTE_ON_93
NOTE_ON_64
NOTE_ON_62
NOTE_ON_57
TIME_SHIFT_64ND_3
NOTE_ON_81
TIME_SHIFT_64ND_3
NOTE_OFF_81
NOTE_ON_86
TIME_SHIFT_64ND_3
NOTE_OFF_86
NOTE_OFF_64
NOTE_OFF_62
NOTE_OFF_57
NOTE_ON_88
TIME_SHIFT_64ND_3
NOTE_OFF_88
NOTE_ON_86
TIME_SHIFT_64ND_3
NOTE_OFF_86
NOTE_ON_81
TIME_SHIFT_64ND_3
NOTE_OFF_81
NOTE_OFF_93
NOTE_ON_33
NOTE_ON_45
TIME_SHIFT_64ND_3
NOTE_ON_81
TIME_SHIFT_64ND_3
NOTE_OFF_81
NOTE_ON_85
TIME_SHIFT_64ND_3
NOTE_OFF_85
NOTE_OFF_33
NOTE_OFF_45
NOTE_ON_93
TIME_SHIFT_64ND_3
NOTE_ON_85
TIME_SHIFT_64ND_3
NOTE_OFF_85
NOTE_ON_81
TIME_SHIFT_64ND_3
NOTE_OFF_81
NOTE_OFF_93
NOTE_ON_57
NOTE_ON_64
NOTE_ON_61
TIME_SHIFT_64ND_3
NOTE_ON_79
TIME_SHIFT_64ND_3
NOTE_OFF_79
NOTE_ON_85
TIME_SHIFT_64ND_3
NOTE_OFF_85
NOTE_OFF_57
NOTE_OFF_64
NOTE_OFF_61
NOTE_ON_91
TIME_SHIFT_64ND_3
NOTE_ON_85
TIME_SHIFT_64ND_3
NOTE_OFF_85
NOTE_ON_79
TIME_SHIFT_64ND_4
NOTE_OFF_79
NOTE_OFF_91
NOTE_ON_46
NOTE_ON_34
TIME_SHIFT_64ND_3
NOTE_ON_78
TIME_SHIFT_64ND_3
NOTE_OFF_78
NOTE_ON_85
TIME_SHIFT_64ND_3
NOTE_OFF_85
NOTE_OFF_46
NOTE_OFF_34
NOTE_ON_90
TIME_SHIFT_64ND_3
NOTE_ON_85
TIME_SHIFT_64ND_3
NOTE_OFF_85
NOTE_ON_78
TIME_SHIFT_64ND_3
NOTE_OFF_78
NOTE_OFF_90
NOTE_ON_64
NOTE_ON_54
TIME_SHIFT_64ND_3
NOTE_ON_85
TIME_SHIFT_64ND_3
NOTE_OFF_85
NOTE_ON_90
TIME_SHIFT_64ND_3
NOTE_OFF_90
NOTE_ON_97
TIME_SHIFT_64ND_3
NOTE_ON_90
TIME_SHIFT_64ND_3
NOTE_OFF_90
NOTE_ON_85
TIME_SHIFT_64ND_4
NOTE_OFF_85
NOTE_OFF_97
NOTE_OFF_64
NOTE_OFF_54
NOTE_ON_62
NOTE_ON_59
TIME_SHIFT_64ND_3
NOTE_ON_86
TIME_SHIFT_64ND_3
NOTE_OFF_86
NOTE_ON_90
TIME_SHIFT_64ND_3
NOTE_OFF_90
NOTE_ON_98
TIME_SHIFT_64ND_3
NOTE_ON_90
TIME_SHIFT_64ND_3
NOTE_OFF_90
NOTE_ON_86
TIME_SHIFT_64ND_4
NOTE_OFF_86
NOTE_OFF_98
NOTE_OFF_62
NOTE_OFF_59
NOTE_ON_56
NOTE_ON_65
NOTE_ON_62
TIME_SHIFT_64ND_3
NOTE_ON_86
TIME_SHIFT_64ND_3
NOTE_OFF_86
NOTE_ON_89
TIME_SHIFT_64ND_3
NOTE_OFF_89
NOTE_ON_95
TIME_SHIFT_64ND_3
NOTE_ON_89
TIME_SHIFT_64ND_3
NOTE_OFF_89
NOTE_ON_86
TIME_SHIFT_64ND_4
NOTE_OFF_86
NOTE_OFF_95
NOTE_OFF_56
NOTE_OFF_65
NOTE_OFF_62
NOTE_ON_93
NOTE_ON_57
NOTE_ON_45
TIME_SHIFT_64ND_3
NOTE_OFF_93
NOTE_ON_98
TIME_SHIFT_64ND_3
NOTE_OFF_98
NOTE_ON_97
TIME_SHIFT_64ND_3
NOTE_OFF_97
NOTE_OFF_57
NOTE_OFF_45
NOTE_ON_95
TIME_SHIFT_64ND_3
NOTE_OFF_95
NOTE_ON_93
TIME_SHIFT_64ND_3
NOTE_OFF_93
NOTE_ON_91
TIME_SHIFT_64ND_3
NOTE_OFF_91
NOTE_ON_90
NOTE_ON_62
NOTE_ON_66
NOTE_ON_57
TIME_SHIFT_64ND_3
NOTE_OFF_90
NOTE_ON_88
TIME_SHIFT_64ND_3
NOTE_OFF_88
NOTE_ON_86
TIME_SHIFT_64ND_3
NOTE_OFF_86
NOTE_OFF_62
NOTE_OFF_66
NOTE_OFF_57
NOTE_ON_85
TIME_SHIFT_64ND_3
NOTE_OFF_85
NOTE_ON_86
TIME_SHIFT_64ND_3
NOTE_OFF_86
NOTE_ON_83
TIME_SHIFT_64ND_3
NOTE_OFF_83
NOTE_ON_81
NOTE_ON_57
NOTE_ON_45
TIME_SHIFT_64ND_3
NOTE_OFF_81
NOTE_ON_91
TIME_SHIFT_64ND_3
NOTE_OFF_91
NOTE_ON_90
TIME_SHIFT_64ND_3
NOTE_OFF_90
NOTE_OFF_57
NOTE_OFF_45
NOTE_ON_88
TIME_SHIFT_64ND_3
NOTE_OFF_88
NOTE_ON_86
TIME_SHIFT_64ND_3
NOTE_OFF_86
NOTE_ON_85
TIME_SHIFT_64ND_3
NOTE_OFF_85
NOTE_ON_83
NOTE_ON_57
NOTE_ON_61
NOTE_ON_67
TIME_SHIFT_64ND_3
NOTE_OFF_83
NOTE_ON_81
TIME_SHIFT_64ND_3
NOTE_OFF_81
NOTE_ON_79
TIME_SHIFT_64ND_3
NOTE_OFF_79
NOTE_OFF_57
NOTE_OFF_61
NOTE_OFF_67
NOTE_ON_78
TIME_SHIFT_64ND_3
NOTE_OFF_78
NOTE_ON_79
TIME_SHIFT_64ND_3
NOTE_OFF_79
NOTE_ON_76
TIME_SHIFT_64ND_4
NOTE_OFF_76
NOTE_ON_74
NOTE_ON_50
TIME_SHIFT_64ND_3
NOTE_OFF_74
NOTE_ON_78
TIME_SHIFT_64ND_3
NOTE_OFF_78
NOTE_ON_81
TIME_SHIFT_64ND_3
NOTE_OFF_81
NOTE_OFF_50
NOTE_ON_83
TIME_SHIFT_64ND_3
NOTE_OFF_83
NOTE_ON_81
TIME_SHIFT_64ND_3
NOTE_OFF_81
NOTE_ON_78
TIME_SHIFT_64ND_3
NOTE_OFF_78
NOTE_ON_74
NOTE_ON_57
NOTE_ON_62
NOTE_ON_66
TIME_SHIFT_64ND_3
NOTE_OFF_74
NOTE_ON_78
TIME_SHIFT_64ND_3
NOTE_OFF_78
NOTE_ON_81
TIME_SHIFT_64ND_3
NOTE_OFF_81
NOTE_OFF_57
NOTE_OFF_62
NOTE_OFF_66
NOTE_ON_86
TIME_SHIFT_64ND_3
NOTE_OFF_86
NOTE_ON_90
TIME_SHIFT_64ND_4
NOTE_OFF_90
NOTE_ON_93
TIME_SHIFT_64ND_4
NOTE_OFF_93
NOTE_ON_98
NOTE_ON_38
NOTE_ON_50
TIME_SHIFT_64ND_5
NOTE_OFF_98
NOTE_OFF_38
NOTE_OFF_50
TIME_SHIFT_64ND_16
NOTE_ON_62
TIME_SHIFT_64ND_15
NOTE_OFF_62
NOTE_ON_64
TIME_SHIFT_64ND_6
NOTE_OFF_64
NOTE_ON_66
TIME_SHIFT_64ND_3
NOTE_ON_71
TIME_SHIFT_64ND_3
NOTE_OFF_71
NOTE_ON_73
TIME_SHIFT_64ND_3
NOTE_OFF_73
NOTE_ON_74
TIME_SHIFT_64ND_3
NOTE_OFF_74
NOTE_ON_73
TIME_SHIFT_64ND_3
NOTE_OFF_73
NOTE_ON_71
TIME_SHIFT_64ND_3
NOTE_OFF_71
NOTE_OFF_66
NOTE_ON_59
TIME_SHIFT_64ND_3
NOTE_ON_74
TIME_SHIFT_64ND_3
NOTE_OFF_74
NOTE_ON_76
TIME_SHIFT_64ND_3
NOTE_OFF_76
NOTE_ON_78
TIME_SHIFT_64ND_3
NOTE_OFF_78
NOTE_ON_76
TIME_SHIFT_64ND_3
NOTE_OFF_76
NOTE_ON_74
TIME_SHIFT_64ND_4
NOTE_OFF_74
NOTE_OFF_59
NOTE_ON_61
TIME_SHIFT_64ND_3
NOTE_ON_70
TIME_SHIFT_64ND_3
NOTE_OFF_70
NOTE_ON_78
TIME_SHIFT_64ND_3
NOTE_OFF_78
NOTE_OFF_61
NOTE_ON_62
TIME_SHIFT_64ND_3
NOTE_ON_71
TIME_SHIFT_64ND_3
NOTE_OFF_71
NOTE_ON_78
TIME_SHIFT_64ND_3
NOTE_OFF_78
NOTE_OFF_62
NOTE_ON_64
TIME_SHIFT_64ND_3
NOTE_ON_73
TIME_SHIFT_64ND_3
NOTE_OFF_73
NOTE_ON_78
TIME_SHIFT_64ND_3
NOTE_OFF_78
NOTE_OFF_64
NOTE_ON_67
TIME_SHIFT_64ND_3
NOTE_ON_76
TIME_SHIFT_64ND_3
NOTE_OFF_76
NOTE_ON_78
TIME_SHIFT_64ND_4
NOTE_OFF_78
NOTE_OFF_67
NOTE_ON_66
TIME_SHIFT_64ND_3
NOTE_ON_74
TIME_SHIFT_64ND_3
NOTE_OFF_74
NOTE_ON_78
TIME_SHIFT_64ND_3
NOTE_OFF_78
NOTE_ON_83
TIME_SHIFT_64ND_3
NOTE_OFF_83
NOTE_ON_78
TIME_SHIFT_64ND_3
NOTE_OFF_78
NOTE_ON_74
TIME_SHIFT_64ND_3
NOTE_OFF_74
NOTE_OFF_66
NOTE_ON_62
TIME_SHIFT_64ND_3
NOTE_ON_74
TIME_SHIFT_64ND_3
NOTE_OFF_74
NOTE_ON_78
TIME_SHIFT_64ND_3
NOTE_OFF_78
NOTE_ON_83
TIME_SHIFT_64ND_3
NOTE_OFF_83
NOTE_ON_78
TIME_SHIFT_64ND_3
NOTE_OFF_78
NOTE_ON_74
TIME_SHIFT_64ND_3
NOTE_OFF_74
NOTE_OFF_62
NOTE_ON_59
TIME_SHIFT_64ND_3
NOTE_ON_71
TIME_SHIFT_64ND_3
NOTE_OFF_71
NOTE_ON_74
TIME_SHIFT_64ND_3
NOTE_OFF_74
NOTE_ON_83
TIME_SHIFT_64ND_3
NOTE_OFF_83
NOTE_ON_74
TIME_SHIFT_64ND_3
NOTE_OFF_74
NOTE_ON_71
TIME_SHIFT_64ND_3
NOTE_OFF_71
NOTE_OFF_59
NOTE_ON_57
TIME_SHIFT_64ND_3
NOTE_ON_71
TIME_SHIFT_64ND_3
NOTE_OFF_71
NOTE_ON_74
TIME_SHIFT_64ND_3
NOTE_OFF_74
NOTE_ON_83
TIME_SHIFT_64ND_3
NOTE_OFF_83
NOTE_ON_74
TIME_SHIFT_64ND_3
NOTE_OFF_74
NOTE_ON_71
TIME_SHIFT_64ND_4
NOTE_OFF_71
NOTE_OFF_57
NOTE_ON_83
NOTE_ON_55
NOTE_ON_43
TIME_SHIFT_64ND_3
NOTE_ON_74
TIME_SHIFT_64ND_3
NOTE_OFF_74
NOTE_ON_79
TIME_SHIFT_64ND_3
NOTE_OFF_83
NOTE_OFF_79
NOTE_OFF_55
NOTE_OFF_43
NOTE_ON_83
TIME_SHIFT_64ND_3
NOTE_OFF_83
NOTE_ON_79
TIME_SHIFT_64ND_3
NOTE_OFF_79
NOTE_ON_74
TIME_SHIFT_64ND_3
NOTE_OFF_74
NOTE_ON_86
NOTE_ON_50
NOTE_ON_55
NOTE_ON_59
TIME_SHIFT_64ND_3
NOTE_ON_79
TIME_SHIFT_64ND_3
NOTE_OFF_79
NOTE_ON_83
TIME_SHIFT_64ND_3
NOTE_OFF_86
NOTE_OFF_83
NOTE_OFF_50
NOTE_OFF_55
NOTE_OFF_59
NOTE_ON_86
TIME_SHIFT_64ND_3
NOTE_OFF_86
NOTE_ON_83
TIME_SHIFT_64ND_3
NOTE_OFF_83
NOTE_ON_79
TIME_SHIFT_64ND_3
NOTE_OFF_79
NOTE_ON_91
NOTE_ON_43
NOTE_ON_55
TIME_SHIFT_64ND_3
NOTE_ON_83
TIME_SHIFT_64ND_3
NOTE_OFF_83
NOTE_ON_86
TIME_SHIFT_64ND_3
NOTE_OFF_91
NOTE_OFF_86
NOTE_OFF_43
NOTE_OFF_55
NOTE_ON_91
TIME_SHIFT_64ND_3
NOTE_OFF_91
NOTE_ON_86
TIME_SHIFT_64ND_3
NOTE_OFF_86
NOTE_ON_83
TIME_SHIFT_64ND_3
NOTE_OFF_83
NOTE_ON_95
NOTE_ON_50
NOTE_ON_59
NOTE_ON_55
TIME_SHIFT_64ND_3
NOTE_ON_86
TIME_SHIFT_64ND_3
NOTE_OFF_86
NOTE_ON_91
TIME_SHIFT_64ND_3
NOTE_OFF_95
NOTE_OFF_91
NOTE_OFF_50
NOTE_OFF_59
NOTE_OFF_55
NOTE_ON_95
TIME_SHIFT_64ND_3
NOTE_OFF_95
NOTE_ON_91
TIME_SHIFT_64ND_3
NOTE_OFF_91
NOTE_ON_86
TIME_SHIFT_64ND_4
NOTE_OFF_86
NOTE_ON_93
NOTE_ON_38
NOTE_ON_50
TIME_SHIFT_64ND_3
NOTE_ON_86
TIME_SHIFT_64ND_3
NOTE_OFF_86
NOTE_ON_88
TIME_SHIFT_64ND_3
NOTE_OFF_88
NOTE_OFF_38
NOTE_OFF_50
NOTE_ON_90
TIME_SHIFT_64ND_3
NOTE_OFF_90
NOTE_ON_88
TIME_SHIFT_64ND_3
NOTE_OFF_88
NOTE_ON_86
TIME_SHIFT_64ND_3
NOTE_OFF_86
NOTE_ON_57
TIME_SHIFT_64ND_3
NOTE_ON_86
TIME_SHIFT_64ND_3
NOTE_OFF_86
NOTE_ON_88
TIME_SHIFT_64ND_3
NOTE_OFF_88
NOTE_ON_90
TIME_SHIFT_64ND_3
NOTE_OFF_90
NOTE_ON_88
TIME_SHIFT_64ND_3
NOTE_OFF_88
NOTE_ON_86
TIME_SHIFT_64ND_3
NOTE_OFF_86
NOTE_ON_66
TIME_SHIFT_64ND_3
NOTE_ON_86
TIME_SHIFT_64ND_3
NOTE_OFF_86
NOTE_ON_88
TIME_SHIFT_64ND_3
NOTE_OFF_88
NOTE_ON_90
TIME_SHIFT_64ND_3
NOTE_OFF_90
NOTE_ON_88
TIME_SHIFT_64ND_3
NOTE_OFF_88
NOTE_ON_86
TIME_SHIFT_64ND_3
NOTE_OFF_86
NOTE_OFF_93
NOTE_OFF_66
NOTE_ON_93
NOTE_ON_62
TIME_SHIFT_64ND_3
NOTE_ON_86
TIME_SHIFT_64ND_3
NOTE_OFF_86
NOTE_ON_88
TIME_SHIFT_64ND_3
NOTE_OFF_88
NOTE_ON_90
TIME_SHIFT_64ND_3
NOTE_OFF_90
NOTE_ON_88
TIME_SHIFT_64ND_3
NOTE_OFF_88
NOTE_ON_86
TIME_SHIFT_64ND_3
NOTE_OFF_86
NOTE_OFF_93
NOTE_OFF_57
NOTE_ON_93
NOTE_ON_33
NOTE_ON_45
NOTE_OFF_62
TIME_SHIFT_64ND_3
NOTE_ON_81
TIME_SHIFT_64ND_3
NOTE_OFF_81
NOTE_ON_86
TIME_SHIFT_64ND_3
NOTE_OFF_86
NOTE_OFF_33
NOTE_OFF_45
NOTE_ON_88
TIME_SHIFT_64ND_3
NOTE_OFF_88
NOTE_ON_86
TIME_SHIFT_64ND_3
NOTE_OFF_86
NOTE_ON_81
TIME_SHIFT_64ND_3
NOTE_OFF_93
NOTE_OFF_81
NOTE_ON_93
NOTE_ON_64
NOTE_ON_62
NOTE_ON_57
TIME_SHIFT_64ND_3
NOTE_ON_81
TIME_SHIFT_64ND_3
NOTE_OFF_81
NOTE_ON_86
TIME_SHIFT_64ND_3
NOTE_OFF_86
NOTE_OFF_64
NOTE_OFF_62
NOTE_OFF_57
NOTE_ON_88
TIME_SHIFT_64ND_3
NOTE_OFF_88
NOTE_ON_86
TIME_SHIFT_64ND_3
NOTE_OFF_86
NOTE_ON_81
TIME_SHIFT_64ND_3
NOTE_OFF_81
NOTE_OFF_93
NOTE_ON_33
NOTE_ON_45
TIME_SHIFT_64ND_3
NOTE_ON_81
TIME_SHIFT_64ND_3
NOTE_OFF_81
NOTE_ON_85
TIME_SHIFT_64ND_3
NOTE_OFF_85
NOTE_OFF_33
NOTE_OFF_45
NOTE_ON_93
TIME_SHIFT_64ND_3
NOTE_ON_85
TIME_SHIFT_64ND_3
NOTE_OFF_85
NOTE_ON_81
TIME_SHIFT_64ND_3
NOTE_OFF_81
NOTE_OFF_93
NOTE_ON_57
NOTE_ON_64
NOTE_ON_61
TIME_SHIFT_64ND_3
NOTE_ON_79
TIME_SHIFT_64ND_3
NOTE_OFF_79
NOTE_ON_85
TIME_SHIFT_64ND_3
NOTE_OFF_85
NOTE_OFF_57
NOTE_OFF_64
NOTE_OFF_61
NOTE_ON_91
TIME_SHIFT_64ND_3
NOTE_ON_85
TIME_SHIFT_64ND_3
NOTE_OFF_85
NOTE_ON_79
TIME_SHIFT_64ND_4
NOTE_OFF_79
NOTE_OFF_91
NOTE_ON_46
NOTE_ON_34
TIME_SHIFT_64ND_3
NOTE_ON_78
TIME_SHIFT_64ND_3
NOTE_OFF_78
NOTE_ON_85
TIME_SHIFT_64ND_3
NOTE_OFF_85
NOTE_OFF_46
NOTE_OFF_34
NOTE_ON_90
TIME_SHIFT_64ND_3
NOTE_ON_85
TIME_SHIFT_64ND_3
NOTE_OFF_85
NOTE_ON_78
TIME_SHIFT_64ND_3
NOTE_OFF_78
NOTE_OFF_90
NOTE_ON_64
NOTE_ON_54
TIME_SHIFT_64ND_3
NOTE_ON_85
TIME_SHIFT_64ND_3
NOTE_OFF_85
NOTE_ON_90
TIME_SHIFT_64ND_3
NOTE_OFF_90
NOTE_ON_97
TIME_SHIFT_64ND_3
NOTE_ON_90
TIME_SHIFT_64ND_3
NOTE_OFF_90
NOTE_ON_85
TIME_SHIFT_64ND_4
NOTE_OFF_85
NOTE_OFF_97
NOTE_OFF_64
NOTE_OFF_54
NOTE_ON_62
NOTE_ON_59
TIME_SHIFT_64ND_3
NOTE_ON_86
TIME_SHIFT_64ND_3
NOTE_OFF_86
NOTE_ON_90
TIME_SHIFT_64ND_3
NOTE_OFF_90
NOTE_ON_98
TIME_SHIFT_64ND_3
NOTE_ON_90
TIME_SHIFT_64ND_3
NOTE_OFF_90
NOTE_ON_86
TIME_SHIFT_64ND_4
NOTE_OFF_86
NOTE_OFF_98
NOTE_OFF_62
NOTE_OFF_59
NOTE_ON_56
NOTE_ON_65
NOTE_ON_62
TIME_SHIFT_64ND_3
NOTE_ON_86
TIME_SHIFT_64ND_3
NOTE_OFF_86
NOTE_ON_89
TIME_SHIFT_64ND_3
NOTE_OFF_89
NOTE_ON_95
TIME_SHIFT_64ND_3
NOTE_ON_89
TIME_SHIFT_64ND_3
NOTE_OFF_89
NOTE_ON_86
TIME_SHIFT_64ND_4
NOTE_OFF_86
NOTE_OFF_95
NOTE_OFF_56
NOTE_OFF_65
NOTE_OFF_62
NOTE_ON_93
NOTE_ON_57
NOTE_ON_45
TIME_SHIFT_64ND_3
NOTE_OFF_93
NOTE_ON_98
TIME_SHIFT_64ND_3
NOTE_OFF_98
NOTE_ON_97
TIME_SHIFT_64ND_3
NOTE_OFF_97
NOTE_OFF_57
NOTE_OFF_45
NOTE_ON_95
TIME_SHIFT_64ND_3
NOTE_OFF_95
NOTE_ON_93
TIME_SHIFT_64ND_3
NOTE_OFF_93
NOTE_ON_91
TIME_SHIFT_64ND_3
NOTE_OFF_91
NOTE_ON_90
NOTE_ON_62
NOTE_ON_66
NOTE_ON_57
TIME_SHIFT_64ND_3
NOTE_OFF_90
NOTE_ON_88
TIME_SHIFT_64ND_3
NOTE_OFF_88
NOTE_ON_86
TIME_SHIFT_64ND_3
NOTE_OFF_86
NOTE_OFF_62
NOTE_OFF_66
NOTE_OFF_57
NOTE_ON_85
TIME_SHIFT_64ND_3
NOTE_OFF_85
NOTE_ON_86
TIME_SHIFT_64ND_3
NOTE_OFF_86
NOTE_ON_83
TIME_SHIFT_64ND_3
NOTE_OFF_83
NOTE_ON_81
NOTE_ON_57
NOTE_ON_45
TIME_SHIFT_64ND_3
NOTE_OFF_81
NOTE_ON_91
TIME_SHIFT_64ND_3
NOTE_OFF_91
NOTE_ON_90
TIME_SHIFT_64ND_3
NOTE_OFF_90
NOTE_OFF_57
NOTE_OFF_45
NOTE_ON_88
TIME_SHIFT_64ND_3
NOTE_OFF_88
NOTE_ON_86
TIME_SHIFT_64ND_3
NOTE_OFF_86
NOTE_ON_85
TIME_SHIFT_64ND_3
NOTE_OFF_85
NOTE_ON_83
NOTE_ON_57
NOTE_ON_61
NOTE_ON_67
TIME_SHIFT_64ND_3
NOTE_OFF_83
NOTE_ON_81
TIME_SHIFT_64ND_3
NOTE_OFF_81
NOTE_ON_79
TIME_SHIFT_64ND_3
NOTE_OFF_79
NOTE_OFF_57
NOTE_OFF_61
NOTE_OFF_67
NOTE_ON_78
TIME_SHIFT_64ND_3
NOTE_OFF_78
NOTE_ON_79
TIME_SHIFT_64ND_3
NOTE_OFF_79
NOTE_ON_76
TIME_SHIFT_64ND_4
NOTE_OFF_76
NOTE_ON_74
NOTE_ON_50
TIME_SHIFT_64ND_3
NOTE_OFF_74
NOTE_ON_78
TIME_SHIFT_64ND_3
NOTE_OFF_78
NOTE_ON_81
TIME_SHIFT_64ND_3
NOTE_OFF_81
NOTE_OFF_50
NOTE_ON_83
TIME_SHIFT_64ND_3
NOTE_OFF_83
NOTE_ON_81
TIME_SHIFT_64ND_3
NOTE_OFF_81
NOTE_ON_78
TIME_SHIFT_64ND_3
NOTE_OFF_78
NOTE_ON_74
NOTE_ON_66
NOTE_ON_62
NOTE_ON_57
TIME_SHIFT_64ND_3
NOTE_OFF_74
NOTE_ON_78
TIME_SHIFT_64ND_3
NOTE_OFF_78
NOTE_ON_81
TIME_SHIFT_64ND_3
NOTE_OFF_81
NOTE_OFF_66
NOTE_OFF_62
NOTE_OFF_57
NOTE_ON_83
TIME_SHIFT_64ND_3
NOTE_OFF_83
NOTE_ON_81
TIME_SHIFT_64ND_3
NOTE_OFF_81
NOTE_ON_78
TIME_SHIFT_64ND_3
NOTE_OFF_78
NOTE_ON_74
NOTE_ON_50
TIME_SHIFT_64ND_3
NOTE_OFF_74
NOTE_ON_81
TIME_SHIFT_64ND_3
NOTE_OFF_81
NOTE_ON_84
TIME_SHIFT_64ND_3
NOTE_OFF_84
NOTE_OFF_50
NOTE_ON_86
TIME_SHIFT_64ND_3
NOTE_OFF_86
NOTE_ON_84
TIME_SHIFT_64ND_3
NOTE_OFF_84
NOTE_ON_81
TIME_SHIFT_64ND_3
NOTE_OFF_81
NOTE_ON_74
NOTE_ON_62
NOTE_ON_69
NOTE_ON_72
TIME_SHIFT_64ND_3
NOTE_OFF_74
NOTE_ON_81
TIME_SHIFT_64ND_3
NOTE_OFF_81
NOTE_ON_84
TIME_SHIFT_64ND_3
NOTE_OFF_84
NOTE_OFF_62
NOTE_OFF_69
NOTE_OFF_72
NOTE_ON_86
TIME_SHIFT_64ND_3
NOTE_OFF_86
NOTE_ON_84
TIME_SHIFT_64ND_3
NOTE_OFF_84
NOTE_ON_81
TIME_SHIFT_64ND_3
NOTE_OFF_81
NOTE_ON_74
NOTE_ON_50
TIME_SHIFT_64ND_3
NOTE_OFF_74
NOTE_ON_79
TIME_SHIFT_64ND_3
NOTE_OFF_79
NOTE_ON_83
TIME_SHIFT_64ND_3
NOTE_OFF_83
NOTE_OFF_50
NOTE_ON_86
TIME_SHIFT_64ND_3
NOTE_OFF_86
NOTE_ON_91
TIME_SHIFT_64ND_3
NOTE_OFF_91
NOTE_ON_95
TIME_SHIFT_64ND_3
NOTE_OFF_95
NOTE_ON_98
NOTE_ON_71
NOTE_ON_67
NOTE_ON_62
TIME_SHIFT_64ND_3
NOTE_OFF_98
NOTE_ON_95
TIME_SHIFT_64ND_3
NOTE_OFF_95
NOTE_ON_91
TIME_SHIFT_64ND_3
NOTE_OFF_91
NOTE_OFF_71
NOTE_OFF_67
NOTE_OFF_62
NOTE_ON_86
TIME_SHIFT_64ND_3
NOTE_OFF_86
NOTE_ON_83
TIME_SHIFT_64ND_3
NOTE_OFF_83
NOTE_ON_79
TIME_SHIFT_64ND_3
NOTE_OFF_79
NOTE_ON_74
NOTE_ON_50
TIME_SHIFT_64ND_3
NOTE_OFF_74
NOTE_ON_79
TIME_SHIFT_64ND_3
NOTE_OFF_79
NOTE_ON_81
TIME_SHIFT_64ND_3
NOTE_OFF_81
NOTE_OFF_50
NOTE_ON_82
TIME_SHIFT_64ND_3
NOTE_OFF_82
NOTE_ON_81
TIME_SHIFT_64ND_3
NOTE_OFF_81
NOTE_ON_79
TIME_SHIFT_64ND_3
NOTE_OFF_79
NOTE_ON_74
NOTE_ON_62
NOTE_ON_67
NOTE_ON_70
TIME_SHIFT_64ND_3
NOTE_OFF_74
NOTE_ON_79
TIME_SHIFT_64ND_3
NOTE_OFF_79
NOTE_ON_81
TIME_SHIFT_64ND_3
NOTE_OFF_81
NOTE_OFF_62
NOTE_OFF_67
NOTE_OFF_70
NOTE_ON_82
TIME_SHIFT_64ND_3
NOTE_OFF_82
NOTE_ON_81
TIME_SHIFT_64ND_3
NOTE_OFF_81
NOTE_ON_79
TIME_SHIFT_64ND_3
NOTE_OFF_79
NOTE_ON_74
NOTE_ON_50
TIME_SHIFT_64ND_3
NOTE_OFF_74
NOTE_ON_78
TIME_SHIFT_64ND_3
NOTE_OFF_78
NOTE_ON_81
TIME_SHIFT_64ND_3
NOTE_OFF_81
NOTE_OFF_50
NOTE_ON_86
TIME_SHIFT_64ND_3
NOTE_OFF_86
NOTE_ON_90
TIME_SHIFT_64ND_3
NOTE_OFF_90
NOTE_ON_93
TIME_SHIFT_64ND_3
NOTE_OFF_93
NOTE_ON_98
NOTE_ON_69
NOTE_ON_66
NOTE_ON_62
TIME_SHIFT_64ND_3
NOTE_OFF_98
NOTE_ON_93
TIME_SHIFT_64ND_3
NOTE_OFF_93
NOTE_ON_90
TIME_SHIFT_64ND_3
NOTE_OFF_90
NOTE_OFF_69
NOTE_OFF_66
NOTE_OFF_62
NOTE_ON_86
TIME_SHIFT_64ND_3
NOTE_OFF_86
NOTE_ON_81
TIME_SHIFT_64ND_3
NOTE_OFF_81
NOTE_ON_78
TIME_SHIFT_64ND_3
NOTE_OFF_78
NOTE_ON_74
NOTE_ON_50
TIME_SHIFT_64ND_3
NOTE_OFF_74
TIME_SHIFT_64ND_1
NOTE_ON_74
TIME_SHIFT_64ND_3
NOTE_OFF_74
NOTE_ON_76
TIME_SHIFT_64ND_3
NOTE_OFF_76
NOTE_OFF_50
NOTE_ON_77
TIME_SHIFT_64ND_3
NOTE_OFF_77
NOTE_ON_76
TIME_SHIFT_64ND_3
NOTE_OFF_76
NOTE_ON_74
TIME_SHIFT_64ND_3
NOTE_OFF_74
NOTE_ON_65
NOTE_ON_59
NOTE_ON_56
TIME_SHIFT_64ND_3
NOTE_ON_74
TIME_SHIFT_64ND_3
NOTE_OFF_74
NOTE_ON_76
TIME_SHIFT_64ND_3
NOTE_OFF_76
NOTE_OFF_65
NOTE_OFF_59
NOTE_OFF_56
NOTE_ON_77
TIME_SHIFT_64ND_3
NOTE_OFF_77
NOTE_ON_76
TIME_SHIFT_64ND_3
NOTE_OFF_76
NOTE_ON_74
TIME_SHIFT_64ND_3
NOTE_OFF_74
NOTE_ON_50
TIME_SHIFT_64ND_3
NOTE_ON_73
TIME_SHIFT_64ND_3
NOTE_OFF_73
NOTE_ON_74
TIME_SHIFT_64ND_3
NOTE_OFF_74
NOTE_OFF_50
NOTE_ON_76
TIME_SHIFT_64ND_3
NOTE_OFF_76
NOTE_ON_74
TIME_SHIFT_64ND_3
NOTE_OFF_74
NOTE_ON_73
TIME_SHIFT_64ND_3
NOTE_OFF_73
NOTE_ON_64
NOTE_ON_61
TIME_SHIFT_64ND_3
NOTE_ON_67
TIME_SHIFT_64ND_3
NOTE_OFF_67
NOTE_ON_69
TIME_SHIFT_64ND_3
NOTE_OFF_69
NOTE_OFF_64
NOTE_OFF_61
NOTE_ON_70
TIME_SHIFT_64ND_3
NOTE_OFF_70
NOTE_ON_69
TIME_SHIFT_64ND_3
NOTE_OFF_69
NOTE_ON_67
TIME_SHIFT_64ND_3
NOTE_OFF_67
NOTE_ON_58
NOTE_ON_55
TIME_SHIFT_64ND_3
NOTE_ON_61
TIME_SHIFT_64ND_3
NOTE_OFF_61
NOTE_ON_62
TIME_SHIFT_64ND_3
NOTE_OFF_62
NOTE_OFF_58
NOTE_OFF_55
NOTE_ON_64
TIME_SHIFT_64ND_3
NOTE_OFF_64
NOTE_ON_62
TIME_SHIFT_64ND_3
NOTE_OFF_62
NOTE_ON_61
TIME_SHIFT_64ND_3
NOTE_OFF_61
NOTE_ON_52
NOTE_ON_49
TIME_SHIFT_64ND_3
NOTE_ON_55
TIME_SHIFT_64ND_3
NOTE_ON_57
TIME_SHIFT_64ND_1
NOTE_OFF_55
TIME_SHIFT_64ND_3
NOTE_ON_58
TIME_SHIFT_64ND_1
NOTE_OFF_57
TIME_SHIFT_64ND_3
NOTE_ON_57
TIME_SHIFT_64ND_1
NOTE_OFF_58
TIME_SHIFT_64ND_3
NOTE_ON_55
TIME_SHIFT_64ND_1
NOTE_OFF_57
TIME_SHIFT_64ND_3
NOTE_OFF_55
NOTE_OFF_52
NOTE_OFF_49
NOTE_ON_50
TIME_SHIFT_64ND_4
NOTE_ON_54
TIME_SHIFT_64ND_3
NOTE_ON_55
TIME_SHIFT_64ND_1
NOTE_OFF_54
TIME_SHIFT_64ND_2
NOTE_OFF_50
NOTE_ON_57
TIME_SHIFT_64ND_1
NOTE_OFF_55
TIME_SHIFT_64ND_2
NOTE_ON_55
TIME_SHIFT_64ND_1
NOTE_OFF_57
TIME_SHIFT_64ND_3
NOTE_ON_54
TIME_SHIFT_64ND_1
NOTE_OFF_55
TIME_SHIFT_64ND_3
NOTE_OFF_54
NOTE_ON_52
NOTE_ON_49
TIME_SHIFT_64ND_3
NOTE_ON_55
TIME_SHIFT_64ND_3
NOTE_ON_57
TIME_SHIFT_64ND_1
NOTE_OFF_55
TIME_SHIFT_64ND_3
NOTE_ON_58
TIME_SHIFT_64ND_1
NOTE_OFF_57
TIME_SHIFT_64ND_3
NOTE_ON_57
TIME_SHIFT_64ND_1
NOTE_OFF_58
TIME_SHIFT_64ND_3
NOTE_ON_55
TIME_SHIFT_64ND_1
NOTE_OFF_57
TIME_SHIFT_64ND_3
NOTE_OFF_55
NOTE_OFF_52
NOTE_OFF_49
NOTE_ON_50
TIME_SHIFT_64ND_3
NOTE_ON_54
TIME_SHIFT_64ND_4
NOTE_ON_55
NOTE_OFF_54
TIME_SHIFT_64ND_3
NOTE_OFF_50
NOTE_ON_57
TIME_SHIFT_64ND_1
NOTE_OFF_55
TIME_SHIFT_64ND_2
NOTE_ON_55
TIME_SHIFT_64ND_1
NOTE_OFF_57
TIME_SHIFT_64ND_3
NOTE_ON_54
TIME_SHIFT_64ND_1
NOTE_OFF_55
TIME_SHIFT_64ND_3
NOTE_OFF_54
NOTE_ON_52
NOTE_ON_49
TIME_SHIFT_64ND_3
NOTE_ON_55
TIME_SHIFT_64ND_3
NOTE_ON_57
TIME_SHIFT_64ND_1
NOTE_OFF_55
TIME_SHIFT_64ND_3
NOTE_ON_58
TIME_SHIFT_64ND_1
NOTE_OFF_57
TIME_SHIFT_64ND_3
NOTE_ON_57
TIME_SHIFT_64ND_1
NOTE_OFF_58
TIME_SHIFT_64ND_3
NOTE_ON_55
TIME_SHIFT_64ND_1
NOTE_OFF_57
TIME_SHIFT_64ND_3
NOTE_OFF_55
NOTE_OFF_52
NOTE_OFF_49
NOTE_ON_50
TIME_SHIFT_64ND_3
NOTE_ON_54
TIME_SHIFT_64ND_3
NOTE_ON_55
TIME_SHIFT_64ND_1
NOTE_OFF_54
TIME_SHIFT_64ND_3
NOTE_ON_57
TIME_SHIFT_64ND_1
NOTE_OFF_55
TIME_SHIFT_64ND_3
NOTE_ON_55
TIME_SHIFT_64ND_1
NOTE_OFF_57
TIME_SHIFT_64ND_3
NOTE_ON_54
TIME_SHIFT_64ND_1
NOTE_OFF_55
TIME_SHIFT_64ND_3
NOTE_OFF_54
NOTE_OFF_50
NOTE_ON_46
TIME_SHIFT_64ND_3
NOTE_ON_50
TIME_SHIFT_64ND_3
NOTE_ON_52
TIME_SHIFT_64ND_1
NOTE_OFF_50
TIME_SHIFT_64ND_3
NOTE_ON_55
TIME_SHIFT_64ND_1
NOTE_OFF_52
TIME_SHIFT_64ND_3
NOTE_ON_52
TIME_SHIFT_64ND_1
NOTE_OFF_55
TIME_SHIFT_64ND_3
NOTE_ON_50
TIME_SHIFT_64ND_1
NOTE_OFF_52
TIME_SHIFT_64ND_3
NOTE_OFF_50
NOTE_OFF_46
NOTE_ON_43
TIME_SHIFT_64ND_3
NOTE_ON_50
TIME_SHIFT_64ND_3
NOTE_ON_58
TIME_SHIFT_64ND_1
NOTE_OFF_50
TIME_SHIFT_64ND_3
NOTE_ON_62
TIME_SHIFT_64ND_1
NOTE_OFF_58
TIME_SHIFT_64ND_3
NOTE_ON_58
TIME_SHIFT_64ND_1
NOTE_OFF_62
TIME_SHIFT_64ND_3
NOTE_ON_50
TIME_SHIFT_64ND_1
NOTE_OFF_58
TIME_SHIFT_64ND_3
NOTE_OFF_50
NOTE_OFF_43
NOTE_ON_46
TIME_SHIFT_64ND_3
NOTE_ON_50
TIME_SHIFT_64ND_3
NOTE_ON_52
TIME_SHIFT_64ND_1
NOTE_OFF_50
TIME_SHIFT_64ND_3
NOTE_ON_55
TIME_SHIFT_64ND_1
NOTE_OFF_52
TIME_SHIFT_64ND_3
NOTE_ON_52
TIME_SHIFT_64ND_1
NOTE_OFF_55
TIME_SHIFT_64ND_3
NOTE_ON_50
TIME_SHIFT_64ND_1
NOTE_OFF_52
TIME_SHIFT_64ND_3
NOTE_OFF_50
NOTE_OFF_46
NOTE_ON_50
NOTE_ON_38
TIME_SHIFT_64ND_3
NOTE_ON_54
TIME_SHIFT_64ND_2
NOTE_OFF_50
NOTE_OFF_38
TIME_SHIFT_64ND_2
NOTE_ON_55
TIME_SHIFT_64ND_1
NOTE_OFF_54
TIME_SHIFT_64ND_3
NOTE_ON_57
NOTE_ON_49
NOTE_ON_37
TIME_SHIFT_64ND_1
NOTE_OFF_55
TIME_SHIFT_64ND_3
NOTE_ON_59
TIME_SHIFT_64ND_1
NOTE_OFF_57
TIME_SHIFT_64ND_1
NOTE_OFF_49
NOTE_OFF_37
TIME_SHIFT_64ND_2
NOTE_ON_61
TIME_SHIFT_64ND_1
NOTE_OFF_59
TIME_SHIFT_64ND_3
NOTE_ON_62
NOTE_ON_47
NOTE_ON_35
TIME_SHIFT_64ND_1
NOTE_OFF_61
TIME_SHIFT_64ND_3
NOTE_ON_64
TIME_SHIFT_64ND_1
NOTE_OFF_62
TIME_SHIFT_64ND_1
NOTE_OFF_47
NOTE_OFF_35
TIME_SHIFT_64ND_2
NOTE_ON_66
TIME_SHIFT_64ND_1
NOTE_OFF_64
TIME_SHIFT_64ND_3
NOTE_ON_67
NOTE_ON_45
NOTE_ON_33
TIME_SHIFT_64ND_1
NOTE_OFF_66
TIME_SHIFT_64ND_3
NOTE_ON_69
TIME_SHIFT_64ND_1
NOTE_OFF_67
TIME_SHIFT_64ND_1
NOTE_OFF_45
NOTE_OFF_33
TIME_SHIFT_64ND_2
NOTE_ON_71
TIME_SHIFT_64ND_1
NOTE_OFF_69
TIME_SHIFT_64ND_3
NOTE_ON_73
NOTE_ON_43
NOTE_ON_31
TIME_SHIFT_64ND_1
NOTE_OFF_71
TIME_SHIFT_64ND_3
NOTE_ON_74
TIME_SHIFT_64ND_1
NOTE_OFF_73
TIME_SHIFT_64ND_1
NOTE_OFF_43
NOTE_OFF_31
TIME_SHIFT_64ND_2
NOTE_ON_76
TIME_SHIFT_64ND_1
NOTE_OFF_74
TIME_SHIFT_64ND_3
NOTE_ON_78
NOTE_ON_42
NOTE_ON_30
TIME_SHIFT_64ND_1
NOTE_OFF_76
TIME_SHIFT_64ND_3
NOTE_ON_79
TIME_SHIFT_64ND_1
NOTE_OFF_78
TIME_SHIFT_64ND_1
NOTE_OFF_42
NOTE_OFF_30
TIME_SHIFT_64ND_2
NOTE_ON_81
TIME_SHIFT_64ND_1
NOTE_OFF_79
TIME_SHIFT_64ND_3
NOTE_ON_83
NOTE_ON_40
NOTE_ON_28
TIME_SHIFT_64ND_1
NOTE_OFF_81
TIME_SHIFT_64ND_2
NOTE_OFF_83
NOTE_ON_85
TIME_SHIFT_64ND_2
NOTE_OFF_85
NOTE_ON_86
TIME_SHIFT_64ND_2
NOTE_OFF_86
NOTE_ON_88
TIME_SHIFT_64ND_2
NOTE_OFF_88
NOTE_ON_90
TIME_SHIFT_64ND_2
NOTE_OFF_90
NOTE_ON_91
TIME_SHIFT_64ND_2
NOTE_OFF_91
NOTE_ON_93
TIME_SHIFT_64ND_2
NOTE_OFF_93
NOTE_ON_95
TIME_SHIFT_64ND_2
NOTE_OFF_95
NOTE_ON_97
TIME_SHIFT_64ND_2
NOTE_OFF_97
NOTE_OFF_40
NOTE_OFF_28
NOTE_ON_98
NOTE_ON_26
NOTE_ON_38
TIME_SHIFT_64ND_24
NOTE_OFF_98
NOTE_OFF_26
NOTE_OFF_38
TIME_SHIFT_64ND_24
NOTE_ON_66
NOTE_ON_78
NOTE_ON_74
NOTE_ON_69
NOTE_ON_50
NOTE_ON_57
NOTE_ON_62
TIME_SHIFT_64ND_24
NOTE_OFF_66
NOTE_OFF_78
NOTE_OFF_74
NOTE_OFF_69
NOTE_OFF_50
NOTE_OFF_57
NOTE_OFF_62
TIME_SHIFT_64ND_24
NOTE_ON_50
NOTE_ON_62
NOTE_ON_57
NOTE_ON_54
NOTE_ON_26
NOTE_ON_33
NOTE_ON_38
TIME_SHIFT_64ND_48
NOTE_OFF_50
NOTE_OFF_62
NOTE_OFF_57
NOTE_OFF_54
NOTE_OFF_26
NOTE_OFF_33
NOTE_OFF_38
