NOTE_ON_64
TIME_SHIFT_64ND_3
NOTE_OFF_64
NOTE_ON_67
TIME_SHIFT_64ND_3
NOTE_OFF_67
NOTE_ON_71
TIME_SHIFT_64ND_3
NOTE_OFF_71
NOTE_ON_67
TIME_SHIFT_64ND_3
NOTE_OFF_67
NOTE_ON_64
TIME_SHIFT_64ND_3
NOTE_OFF_64
NOTE_ON_67
TIME_SHIFT_64ND_3
NOTE_OFF_67
NOTE_ON_71
TIME_SHIFT_64ND_3
NOTE_OFF_71
NOTE_ON_67
TIME_SHIFT_64ND_3
NOTE_OFF_67
NOTE_ON_64
TIME_SHIFT_64ND_3
NOTE_OFF_64
NOTE_ON_67
TIME_SHIFT_64ND_4
NOTE_OFF_67
NOTE_ON_79
TIME_SHIFT_64ND_3
NOTE_ON_71
TIME_SHIFT_64ND_3
NOTE_OFF_71
NOTE_ON_64
TIME_SHIFT_64ND_3
NOTE_OFF_64
NOTE_ON_67
TIME_SHIFT_64ND_3
NOTE_OFF_79
NOTE_OFF_67
NOTE_ON_79
TIME_SHIFT_64ND_3
NOTE_ON_71
TIME_SHIFT_64ND_3
NOTE_OFF_71
NOTE_ON_63
TIME_SHIFT_64ND_3
NOTE_OFF_63
NOTE_ON_69
TIME_SHIFT_64ND_4
NOTE_OFF_79
NOTE_OFF_69
NOTE_ON_79
TIME_SHIFT_64ND_3
NOTE_ON_71
TIME_SHIFT_64ND_3
NOTE_OFF_71
NOTE_ON_63
TIME_SHIFT_64ND_3
NOTE_OFF_63
NOTE_ON_69
TIME_SHIFT_64ND_3
NOTE_OFF_79
NOTE_OFF_69
NOTE_ON_78
TIME_SHIFT_64ND_3
NOTE_ON_71
TIME_SHIFT_64ND_3
NOTE_OFF_71
NOTE_ON_63
TIME_SHIFT_64ND_3
NOTE_OFF_63
NOTE_ON_69
TIME_SHIFT_64ND_3
NOTE_OFF_78
NOTE_OFF_69
NOTE_ON_77
TIME_SHIFT_64ND_3
NOTE_ON_71
TIME_SHIFT_64ND_3
NOTE_OFF_71
NOTE_ON_63
TIME_SHIFT_64ND_3
NOTE_OFF_63
NOTE_ON_69
TIME_SHIFT_64ND_3
NOTE_OFF_77
NOTE_OFF_69
NOTE_ON_78
TIME_SHIFT_64ND_3
NOTE_ON_71
TIME_SHIFT_64ND_3
NOTE_OFF_71
NOTE_ON_64
TIME_SHIFT_64ND_3
NOTE_OFF_64
NOTE_ON_67
TIME_SHIFT_64ND_4
NOTE_OFF_78
NOTE_OFF_67
NOTE_ON_83
TIME_SHIFT_64ND_3
NOTE_ON_71
TIME_SHIFT_64ND_3
NOTE_OFF_71
NOTE_ON_64
TIME_SHIFT_64ND_3
NOTE_OFF_64
NOTE_ON_67
TIME_SHIFT_64ND_3
NOTE_OFF_83
NOTE_OFF_67
NOTE_ON_79
TIME_SHIFT_64ND_3
NOTE_ON_71
TIME_SHIFT_64ND_3
NOTE_OFF_71
NOTE_ON_64
TIME_SHIFT_64ND_3
NOTE_OFF_64
NOTE_ON_67
TIME_SHIFT_64ND_3
NOTE_OFF_79
NOTE_OFF_67
NOTE_ON_78
TIME_SHIFT_64ND_3
NOTE_ON_71
TIME_SHIFT_64ND_3
NOTE_OFF_71
NOTE_ON_64
TIME_SHIFT_64ND_3
NOTE_OFF_64
NOTE_ON_67
TIME_SHIFT_64ND_3
NOTE_OFF_78
NOTE_OFF_67
NOTE_ON_76
TIME_SHIFT_64ND_3
NOTE_ON_71
TIME_SHIFT_64ND_3
NOTE_OFF_71
NOTE_ON_63
TIME_SHIFT_64ND_3
NOTE_OFF_63
NOTE_ON_69
TIME_SHIFT_64ND_3
NOTE_OFF_76
NOTE_OFF_69
NOTE_ON_79
TIME_SHIFT_64ND_3
NOTE_ON_71
TIME_SHIFT_64ND_3
NOTE_OFF_71
NOTE_ON_63
TIME_SHIFT_64ND_3
NOTE_OFF_63
NOTE_ON_69
TIME_SHIFT_64ND_3
NOTE_OFF_79
NOTE_OFF_69
NOTE_ON_78
TIME_SHIFT_64ND_3
NOTE_ON_71
TIME_SHIFT_64ND_3
NOTE_OFF_71
NOTE_ON_63
TIME_SHIFT_64ND_3
NOTE_OFF_63
NOTE_ON_69
TIME_SHIFT_64ND_3
NOTE_OFF_78
NOTE_OFF_69
NOTE_ON_77
TIME_SHIFT_64ND_3
NOTE_ON_71
TIME_SHIFT_64ND_3
NOTE_OFF_71
NOTE_ON_63
TIME_SHIFT_64ND_3
NOTE_OFF_63
NOTE_ON_69
TIME_SHIFT_64ND_3
NOTE_OFF_77
NOTE_OFF_69
NOTE_ON_78
TIME_SHIFT_64ND_3
NOTE_ON_71
TIME_SHIFT_64ND_3
NOTE_OFF_71
NOTE_ON_64
TIME_SHIFT_64ND_3
NOTE_OFF_64
NOTE_ON_67
TIME_SHIFT_64ND_4
NOTE_OFF_78
NOTE_OFF_67
NOTE_ON_79
TIME_SHIFT_64ND_3
NOTE_ON_71
TIME_SHIFT_64ND_3
NOTE_OFF_71
NOTE_ON_64
TIME_SHIFT_64ND_3
NOTE_OFF_64
NOTE_ON_67
TIME_SHIFT_64ND_3
NOTE_OFF_79
NOTE_OFF_67
NOTE_ON_79
TIME_SHIFT_64ND_3
NOTE_ON_71
TIME_SHIFT_64ND_3
NOTE_OFF_71
NOTE_ON_62
TIME_SHIFT_64ND_3
NOTE_OFF_62
NOTE_ON_65
TIME_SHIFT_64ND_3
NOTE_OFF_79
NOTE_OFF_65
NOTE_ON_80
TIME_SHIFT_64ND_3
NOTE_ON_71
TIME_SHIFT_64ND_3
NOTE_OFF_71
NOTE_ON_62
TIME_SHIFT_64ND_3
NOTE_OFF_62
NOTE_ON_65
TIME_SHIFT_64ND_3
NOTE_OFF_80
NOTE_OFF_65
NOTE_ON_80
TIME_SHIFT_64ND_3
NOTE_ON_71
TIME_SHIFT_64ND_3
NOTE_OFF_71
NOTE_ON_60
TIME_SHIFT_64ND_3
NOTE_OFF_60
NOTE_ON_64
TIME_SHIFT_64ND_3
NOTE_OFF_80
NOTE_OFF_64
NOTE_ON_81
TIME_SHIFT_64ND_3
NOTE_ON_69
TIME_SHIFT_64ND_3
NOTE_OFF_69
NOTE_ON_60
TIME_SHIFT_64ND_3
NOTE_OFF_60
NOTE_ON_64
TIME_SHIFT_64ND_3
NOTE_OFF_81
NOTE_OFF_64
NOTE_ON_76
TIME_SHIFT_64ND_3
NOTE_ON_69
TIME_SHIFT_64ND_3
NOTE_OFF_69
NOTE_ON_60
TIME_SHIFT_64ND_3
NOTE_OFF_60
NOTE_ON_64
TIME_SHIFT_64ND_3
NOTE_OFF_76
NOTE_OFF_64
NOTE_ON_75
TIME_SHIFT_64ND_3
NOTE_ON_69
TIME_SHIFT_64ND_3
NOTE_OFF_69
NOTE_ON_60
TIME_SHIFT_64ND_3
NOTE_OFF_60
NOTE_ON_64
TIME_SHIFT_64ND_3
NOTE_OFF_75
NOTE_OFF_64
NOTE_ON_76
TIME_SHIFT_64ND_3
NOTE_ON_69
TIME_SHIFT_64ND_3
NOTE_OFF_69
NOTE_ON_59
TIME_SHIFT_64ND_3
NOTE_OFF_59
NOTE_ON_64
TIME_SHIFT_64ND_4
NOTE_OFF_76
NOTE_OFF_64
NOTE_ON_79
TIME_SHIFT_64ND_3
NOTE_ON_71
TIME_SHIFT_64ND_3
NOTE_OFF_71
NOTE_ON_59
TIME_SHIFT_64ND_3
NOTE_OFF_59
NOTE_ON_69
TIME_SHIFT_64ND_3
NOTE_OFF_79
NOTE_OFF_69
NOTE_ON_78
TIME_SHIFT_64ND_3
NOTE_ON_71
TIME_SHIFT_64ND_3
NOTE_OFF_71
NOTE_ON_59
TIME_SHIFT_64ND_3
NOTE_OFF_59
NOTE_ON_67
TIME_SHIFT_64ND_3
NOTE_OFF_78
NOTE_OFF_67
NOTE_ON_76
TIME_SHIFT_64ND_3
NOTE_ON_71
TIME_SHIFT_64ND_3
NOTE_OFF_71
NOTE_ON_59
TIME_SHIFT_64ND_3
NOTE_OFF_59
NOTE_ON_66
TIME_SHIFT_64ND_3
NOTE_OFF_76
NOTE_OFF_66
NOTE_ON_75
TIME_SHIFT_64ND_3
NOTE_ON_71
TIME_SHIFT_64ND_3
NOTE_OFF_71
NOTE_ON_64
TIME_SHIFT_64ND_3
NOTE_OFF_64
NOTE_ON_67
TIME_SHIFT_64ND_3
NOTE_OFF_75
NOTE_OFF_67
NOTE_ON_76
TIME_SHIFT_64ND_3
NOTE_OFF_76
NOTE_ON_71
TIME_SHIFT_64ND_3
NOTE_OFF_71
NOTE_ON_70
TIME_SHIFT_64ND_3
NOTE_OFF_70
NOTE_ON_71
TIME_SHIFT_64ND_3
NOTE_OFF_71
NOTE_ON_72
TIME_SHIFT_64ND_3
NOTE_OFF_72
NOTE_ON_71
TIME_SHIFT_64ND_3
NOTE_OFF_71
NOTE_ON_70
TIME_SHIFT_64ND_3
NOTE_OFF_70
NOTE_ON_71
TIME_SHIFT_64ND_3
NOTE_OFF_71
NOTE_ON_72
TIME_SHIFT_64ND_3
NOTE_OFF_72
NOTE_ON_71
TIME_SHIFT_64ND_3
NOTE_OFF_71
NOTE_ON_70
TIME_SHIFT_64ND_3
NOTE_OFF_70
NOTE_ON_71
TIME_SHIFT_64ND_4
NOTE_OFF_71
NOTE_ON_72
TIME_SHIFT_64ND_3
NOTE_OFF_72
NOTE_ON_71
TIME_SHIFT_64ND_4
NOTE_OFF_71
NOTE_ON_64
TIME_SHIFT_64ND_3
NOTE_OFF_64
NOTE_ON_67
TIME_SHIFT_64ND_4
NOTE_OFF_67
NOTE_ON_71
TIME_SHIFT_64ND_3
NOTE_OFF_71
NOTE_ON_67
TIME_SHIFT_64ND_3
NOTE_OFF_67
NOTE_ON_64
TIME_SHIFT_64ND_3
NOTE_OFF_64
NOTE_ON_67
TIME_SHIFT_64ND_3
NOTE_OFF_67
NOTE_ON_71
TIME_SHIFT_64ND_3
NOTE_OFF_71
NOTE_ON_67
TIME_SHIFT_64ND_3
NOTE_OFF_67
NOTE_ON_64
TIME_SHIFT_64ND_3
NOTE_OFF_64
NOTE_ON_67
TIME_SHIFT_64ND_4
NOTE_OFF_67
NOTE_ON_79
TIME_SHIFT_64ND_3
NOTE_ON_71
TIME_SHIFT_64ND_3
NOTE_OFF_71
NOTE_ON_64
TIME_SHIFT_64ND_3
NOTE_OFF_64
NOTE_ON_67
TIME_SHIFT_64ND_3
NOTE_OFF_79
NOTE_OFF_67
NOTE_ON_79
TIME_SHIFT_64ND_3
NOTE_ON_71
TIME_SHIFT_64ND_3
NOTE_OFF_71
NOTE_ON_63
TIME_SHIFT_64ND_3
NOTE_OFF_63
NOTE_ON_69
TIME_SHIFT_64ND_4
NOTE_OFF_79
NOTE_OFF_69
NOTE_ON_79
TIME_SHIFT_64ND_3
NOTE_ON_71
TIME_SHIFT_64ND_3
NOTE_OFF_71
NOTE_ON_63
TIME_SHIFT_64ND_3
NOTE_OFF_63
NOTE_ON_69
TIME_SHIFT_64ND_3
NOTE_OFF_79
NOTE_OFF_69
NOTE_ON_78
TIME_SHIFT_64ND_3
NOTE_ON_71
TIME_SHIFT_64ND_3
NOTE_OFF_71
NOTE_ON_63
TIME_SHIFT_64ND_3
NOTE_OFF_63
NOTE_ON_69
TIME_SHIFT_64ND_3
NOTE_OFF_78
NOTE_OFF_69
NOTE_ON_77
TIME_SHIFT_64ND_3
NOTE_ON_71
TIME_SHIFT_64ND_3
NOTE_OFF_71
NOTE_ON_63
TIME_SHIFT_64ND_3
NOTE_OFF_63
NOTE_ON_69
TIME_SHIFT_64ND_3
NOTE_OFF_77
NOTE_OFF_69
NOTE_ON_78
TIME_SHIFT_64ND_3
NOTE_ON_71
TIME_SHIFT_64ND_3
NOTE_OFF_71
NOTE_ON_64
TIME_SHIFT_64ND_3
NOTE_OFF_64
NOTE_ON_67
TIME_SHIFT_64ND_4
NOTE_OFF_78
NOTE_OFF_67
NOTE_ON_83
TIME_SHIFT_64ND_3
NOTE_ON_71
TIME_SHIFT_64ND_3
NOTE_OFF_71
NOTE_ON_64
TIME_SHIFT_64ND_3
NOTE_OFF_64
NOTE_ON_67
TIME_SHIFT_64ND_3
NOTE_OFF_83
NOTE_OFF_67
NOTE_ON_79
TIME_SHIFT_64ND_3
NOTE_ON_71
TIME_SHIFT_64ND_3
NOTE_OFF_71
NOTE_ON_64
TIME_SHIFT_64ND_3
NOTE_OFF_64
NOTE_ON_67
TIME_SHIFT_64ND_3
NOTE_OFF_79
NOTE_OFF_67
NOTE_ON_78
TIME_SHIFT_64ND_3
NOTE_ON_71
TIME_SHIFT_64ND_3
NOTE_OFF_71
NOTE_ON_64
TIME_SHIFT_64ND_3
NOTE_OFF_64
NOTE_ON_67
TIME_SHIFT_64ND_3
NOTE_OFF_78
NOTE_OFF_67
NOTE_ON_76
TIME_SHIFT_64ND_3
NOTE_ON_71
TIME_SHIFT_64ND_3
NOTE_OFF_71
NOTE_ON_63
TIME_SHIFT_64ND_3
NOTE_OFF_63
NOTE_ON_69
TIME_SHIFT_64ND_3
NOTE_OFF_76
NOTE_OFF_69
NOTE_ON_79
TIME_SHIFT_64ND_3
NOTE_ON_71
TIME_SHIFT_64ND_3
NOTE_OFF_71
NOTE_ON_63
TIME_SHIFT_64ND_3
NOTE_OFF_63
NOTE_ON_69
TIME_SHIFT_64ND_3
NOTE_OFF_79
NOTE_OFF_69
NOTE_ON_78
TIME_SHIFT_64ND_3
NOTE_ON_71
TIME_SHIFT_64ND_3
NOTE_OFF_71
NOTE_ON_63
TIME_SHIFT_64ND_3
NOTE_OFF_63
NOTE_ON_69
TIME_SHIFT_64ND_3
NOTE_OFF_78
NOTE_OFF_69
NOTE_ON_77
TIME_SHIFT_64ND_3
NOTE_ON_71
TIME_SHIFT_64ND_3
NOTE_OFF_71
NOTE_ON_63
TIME_SHIFT_64ND_3
NOTE_OFF_63
NOTE_ON_69
TIME_SHIFT_64ND_3
NOTE_OFF_77
NOTE_OFF_69
NOTE_ON_78
TIME_SHIFT_64ND_3
NOTE_ON_71
TIME_SHIFT_64ND_3
NOTE_OFF_71
NOTE_ON_64
TIME_SHIFT_64ND_3
NOTE_OFF_64
NOTE_ON_67
TIME_SHIFT_64ND_4
NOTE_OFF_78
NOTE_OFF_67
NOTE_ON_79
TIME_SHIFT_64ND_3
NOTE_ON_71
TIME_SHIFT_64ND_3
NOTE_OFF_71
NOTE_ON_64
TIME_SHIFT_64ND_3
NOTE_OFF_64
NOTE_ON_67
TIME_SHIFT_64ND_3
NOTE_OFF_79
NOTE_OFF_67
NOTE_ON_79
TIME_SHIFT_64ND_3
NOTE_ON_71
TIME_SHIFT_64ND_3
NOTE_OFF_71
NOTE_ON_62
TIME_SHIFT_64ND_3
NOTE_OFF_62
NOTE_ON_65
TIME_SHIFT_64ND_3
NOTE_OFF_79
NOTE_OFF_65
NOTE_ON_80
TIME_SHIFT_64ND_3
NOTE_ON_71
TIME_SHIFT_64ND_3
NOTE_OFF_71
NOTE_ON_62
TIME_SHIFT_64ND_3
NOTE_OFF_62
NOTE_ON_65
TIME_SHIFT_64ND_3
NOTE_OFF_80
NOTE_OFF_65
NOTE_ON_80
TIME_SHIFT_64ND_3
NOTE_ON_71
TIME_SHIFT_64ND_3
NOTE_OFF_71
NOTE_ON_60
TIME_SHIFT_64ND_3
NOTE_OFF_60
NOTE_ON_64
TIME_SHIFT_64ND_3
NOTE_OFF_80
NOTE_OFF_64
NOTE_ON_81
TIME_SHIFT_64ND_3
NOTE_ON_69
TIME_SHIFT_64ND_3
NOTE_OFF_69
NOTE_ON_60
TIME_SHIFT_64ND_3
NOTE_OFF_60
NOTE_ON_64
TIME_SHIFT_64ND_3
NOTE_OFF_81
NOTE_OFF_64
NOTE_ON_76
TIME_SHIFT_64ND_3
NOTE_ON_69
TIME_SHIFT_64ND_3
NOTE_OFF_69
NOTE_ON_60
TIME_SHIFT_64ND_3
NOTE_OFF_60
NOTE_ON_64
TIME_SHIFT_64ND_3
NOTE_OFF_76
NOTE_OFF_64
NOTE_ON_75
TIME_SHIFT_64ND_3
NOTE_ON_69
TIME_SHIFT_64ND_3
NOTE_OFF_69
NOTE_ON_60
TIME_SHIFT_64ND_3
NOTE_OFF_60
NOTE_ON_64
TIME_SHIFT_64ND_3
NOTE_OFF_75
NOTE_OFF_64
NOTE_ON_76
TIME_SHIFT_64ND_3
NOTE_ON_69
TIME_SHIFT_64ND_3
NOTE_OFF_69
NOTE_ON_59
TIME_SHIFT_64ND_3
NOTE_OFF_59
NOTE_ON_64
TIME_SHIFT_64ND_4
NOTE_OFF_76
NOTE_OFF_64
NOTE_ON_79
TIME_SHIFT_64ND_3
NOTE_ON_71
TIME_SHIFT_64ND_3
NOTE_OFF_71
NOTE_ON_59
TIME_SHIFT_64ND_3
NOTE_OFF_59
NOTE_ON_69
TIME_SHIFT_64ND_3
NOTE_OFF_79
NOTE_OFF_69
NOTE_ON_78
TIME_SHIFT_64ND_3
NOTE_ON_71
TIME_SHIFT_64ND_3
NOTE_OFF_71
NOTE_ON_59
TIME_SHIFT_64ND_3
NOTE_OFF_59
NOTE_ON_67
TIME_SHIFT_64ND_3
NOTE_OFF_78
NOTE_OFF_67
NOTE_ON_76
TIME_SHIFT_64ND_3
NOTE_ON_71
TIME_SHIFT_64ND_3
NOTE_OFF_71
NOTE_ON_59
TIME_SHIFT_64ND_3
NOTE_OFF_59
NOTE_ON_66
TIME_SHIFT_64ND_3
NOTE_OFF_76
NOTE_OFF_66
NOTE_ON_75
TIME_SHIFT_64ND_3
NOTE_ON_71
TIME_SHIFT_64ND_3
NOTE_OFF_71
NOTE_ON_64
TIME_SHIFT_64ND_3
NOTE_OFF_64
NOTE_ON_67
TIME_SHIFT_64ND_3
NOTE_OFF_75
NOTE_OFF_67
NOTE_ON_76
TIME_SHIFT_64ND_3
NOTE_OFF_76
NOTE_ON_71
TIME_SHIFT_64ND_3
NOTE_OFF_71
NOTE_ON_70
TIME_SHIFT_64ND_3
NOTE_OFF_70
NOTE_ON_71
TIME_SHIFT_64ND_3
NOTE_OFF_71
NOTE_ON_72
TIME_SHIFT_64ND_3
NOTE_OFF_72
NOTE_ON_71
TIME_SHIFT_64ND_3
NOTE_OFF_71
NOTE_ON_70
TIME_SHIFT_64ND_3
NOTE_OFF_70
NOTE_ON_71
TIME_SHIFT_64ND_3
NOTE_OFF_71
NOTE_ON_72
TIME_SHIFT_64ND_3
NOTE_OFF_72
NOTE_ON_71
TIME_SHIFT_64ND_4
NOTE_OFF_71
NOTE_ON_70
TIME_SHIFT_64ND_3
NOTE_OFF_70
NOTE_ON_71
TIME_SHIFT_64ND_4
NOTE_OFF_71
NOTE_ON_72
TIME_SHIFT_64ND_3
NOTE_OFF_72
NOTE_ON_71
TIME_SHIFT_64ND_4
NOTE_OFF_71
NOTE_ON_55
TIME_SHIFT_64ND_3
NOTE_OFF_55
NOTE_ON_59
TIME_SHIFT_64ND_3
NOTE_OFF_59
NOTE_ON_62
TIME_SHIFT_64ND_3
NOTE_ON_59
TIME_SHIFT_64ND_3
NOTE_OFF_59
NOTE_ON_55
TIME_SHIFT_64ND_3
NOTE_OFF_55
NOTE_ON_59
TIME_SHIFT_64ND_3
NOTE_OFF_62
NOTE_OFF_59
NOTE_ON_67
TIME_SHIFT_64ND_3
NOTE_ON_62
TIME_SHIFT_64ND_3
NOTE_OFF_62
NOTE_ON_55
TIME_SHIFT_64ND_3
NOTE_OFF_55
NOTE_ON_59
TIME_SHIFT_64ND_4
NOTE_OFF_67
NOTE_OFF_59
NOTE_ON_69
TIME_SHIFT_64ND_3
NOTE_ON_62
TIME_SHIFT_64ND_3
NOTE_OFF_62
NOTE_ON_55
TIME_SHIFT_64ND_3
NOTE_OFF_55
NOTE_ON_59
TIME_SHIFT_64ND_3
NOTE_OFF_69
NOTE_OFF_59
NOTE_ON_71
TIME_SHIFT_64ND_3
NOTE_ON_62
TIME_SHIFT_64ND_3
NOTE_OFF_62
NOTE_ON_54
TIME_SHIFT_64ND_3
NOTE_OFF_54
NOTE_ON_60
TIME_SHIFT_64ND_4
NOTE_OFF_71
NOTE_OFF_60
NOTE_ON_71
TIME_SHIFT_64ND_3
NOTE_ON_62
TIME_SHIFT_64ND_3
NOTE_OFF_62
NOTE_ON_54
TIME_SHIFT_64ND_3
NOTE_OFF_54
NOTE_ON_60
TIME_SHIFT_64ND_3
NOTE_OFF_71
NOTE_OFF_60
NOTE_ON_69
TIME_SHIFT_64ND_3
NOTE_ON_62
TIME_SHIFT_64ND_3
NOTE_OFF_62
NOTE_ON_54
TIME_SHIFT_64ND_3
NOTE_OFF_54
NOTE_ON_60
TIME_SHIFT_64ND_3
NOTE_OFF_69
NOTE_OFF_60
NOTE_ON_68
TIME_SHIFT_64ND_3
NOTE_ON_62
TIME_SHIFT_64ND_3
NOTE_OFF_62
NOTE_ON_54
TIME_SHIFT_64ND_3
NOTE_OFF_54
NOTE_ON_60
TIME_SHIFT_64ND_3
NOTE_OFF_68
NOTE_OFF_60
NOTE_ON_69
TIME_SHIFT_64ND_3
NOTE_ON_62
TIME_SHIFT_64ND_3
NOTE_OFF_62
NOTE_ON_55
TIME_SHIFT_64ND_3
NOTE_OFF_55
NOTE_ON_59
TIME_SHIFT_64ND_3
NOTE_OFF_69
NOTE_OFF_59
NOTE_ON_62
TIME_SHIFT_64ND_3
NOTE_ON_59
TIME_SHIFT_64ND_3
NOTE_OFF_59
NOTE_ON_55
TIME_SHIFT_64ND_3
NOTE_OFF_55
NOTE_ON_59
TIME_SHIFT_64ND_3
NOTE_OFF_62
NOTE_OFF_59
NOTE_ON_67
TIME_SHIFT_64ND_3
NOTE_ON_62
TIME_SHIFT_64ND_3
NOTE_OFF_62
NOTE_ON_55
TIME_SHIFT_64ND_3
NOTE_OFF_55
NOTE_ON_59
TIME_SHIFT_64ND_4
NOTE_OFF_67
NOTE_OFF_59
NOTE_ON_69
TIME_SHIFT_64ND_3
NOTE_ON_62
TIME_SHIFT_64ND_3
NOTE_OFF_62
NOTE_ON_55
TIME_SHIFT_64ND_3
NOTE_OFF_55
NOTE_ON_59
TIME_SHIFT_64ND_3
NOTE_OFF_69
NOTE_OFF_59
NOTE_ON_71
TIME_SHIFT_64ND_3
NOTE_ON_62
TIME_SHIFT_64ND_3
NOTE_OFF_62
NOTE_ON_54
TIME_SHIFT_64ND_3
NOTE_OFF_54
NOTE_ON_57
TIME_SHIFT_64ND_4
NOTE_OFF_71
NOTE_OFF_57
NOTE_ON_74
TIME_SHIFT_64ND_3
NOTE_ON_62
TIME_SHIFT_64ND_3
NOTE_OFF_62
NOTE_ON_54
TIME_SHIFT_64ND_3
NOTE_OFF_54
NOTE_ON_57
TIME_SHIFT_64ND_3
NOTE_OFF_74
NOTE_OFF_57
NOTE_ON_73
TIME_SHIFT_64ND_3
NOTE_ON_62
TIME_SHIFT_64ND_3
NOTE_OFF_62
NOTE_ON_54
TIME_SHIFT_64ND_3
NOTE_OFF_54
NOTE_ON_57
TIME_SHIFT_64ND_3
NOTE_OFF_73
NOTE_OFF_57
NOTE_ON_72
TIME_SHIFT_64ND_3
NOTE_ON_62
TIME_SHIFT_64ND_3
NOTE_OFF_62
NOTE_ON_54
TIME_SHIFT_64ND_3
NOTE_OFF_54
NOTE_ON_60
TIME_SHIFT_64ND_3
NOTE_OFF_72
NOTE_OFF_60
NOTE_ON_69
TIME_SHIFT_64ND_3
NOTE_ON_62
TIME_SHIFT_64ND_3
NOTE_OFF_62
NOTE_ON_55
TIME_SHIFT_64ND_3
NOTE_OFF_55
NOTE_ON_59
TIME_SHIFT_64ND_3
NOTE_OFF_69
NOTE_OFF_59
NOTE_ON_71
TIME_SHIFT_64ND_3
NOTE_ON_62
TIME_SHIFT_64ND_3
NOTE_OFF_62
NOTE_ON_55
TIME_SHIFT_64ND_3
NOTE_OFF_55
NOTE_ON_59
TIME_SHIFT_64ND_3
NOTE_OFF_71
NOTE_OFF_59
NOTE_ON_71
TIME_SHIFT_64ND_3
NOTE_ON_62
TIME_SHIFT_64ND_3
NOTE_OFF_62
NOTE_ON_56
TIME_SHIFT_64ND_3
NOTE_OFF_56
NOTE_ON_59
TIME_SHIFT_64ND_4
NOTE_OFF_71
NOTE_OFF_59
NOTE_ON_76
TIME_SHIFT_64ND_3
NOTE_ON_64
TIME_SHIFT_64ND_3
NOTE_OFF_64
NOTE_ON_56
TIME_SHIFT_64ND_3
NOTE_OFF_56
NOTE_ON_59
TIME_SHIFT_64ND_3
NOTE_OFF_76
NOTE_OFF_59
NOTE_ON_71
TIME_SHIFT_64ND_3
NOTE_ON_64
TIME_SHIFT_64ND_3
NOTE_OFF_64
NOTE_ON_57
TIME_SHIFT_64ND_3
NOTE_OFF_57
NOTE_ON_60
TIME_SHIFT_64ND_3
NOTE_OFF_71
NOTE_OFF_60
NOTE_ON_72
TIME_SHIFT_64ND_3
NOTE_ON_64
TIME_SHIFT_64ND_3
NOTE_OFF_64
NOTE_ON_57
TIME_SHIFT_64ND_3
NOTE_OFF_57
NOTE_ON_60
TIME_SHIFT_64ND_3
NOTE_OFF_72
NOTE_OFF_60
NOTE_ON_72
TIME_SHIFT_64ND_3
NOTE_ON_64
TIME_SHIFT_64ND_3
NOTE_OFF_64
NOTE_ON_59
TIME_SHIFT_64ND_3
NOTE_OFF_59
NOTE_ON_62
TIME_SHIFT_64ND_4
NOTE_OFF_72
NOTE_OFF_62
NOTE_ON_79
TIME_SHIFT_64ND_3
NOTE_ON_67
TIME_SHIFT_64ND_3
NOTE_OFF_67
NOTE_ON_59
TIME_SHIFT_64ND_3
NOTE_OFF_59
NOTE_ON_62
TIME_SHIFT_64ND_3
NOTE_OFF_79
NOTE_OFF_62
NOTE_ON_74
TIME_SHIFT_64ND_3
NOTE_ON_67
TIME_SHIFT_64ND_3
NOTE_OFF_67
NOTE_ON_60
TIME_SHIFT_64ND_3
NOTE_OFF_60
NOTE_ON_64
TIME_SHIFT_64ND_3
NOTE_OFF_74
NOTE_OFF_64
NOTE_ON_76
TIME_SHIFT_64ND_3
NOTE_ON_67
TIME_SHIFT_64ND_3
NOTE_OFF_67
NOTE_ON_60
TIME_SHIFT_64ND_3
NOTE_OFF_60
NOTE_ON_64
TIME_SHIFT_64ND_3
NOTE_OFF_76
NOTE_OFF_64
NOTE_ON_76
TIME_SHIFT_64ND_3
NOTE_ON_68
TIME_SHIFT_64ND_3
NOTE_OFF_68
NOTE_ON_60
TIME_SHIFT_64ND_3
NOTE_OFF_60
NOTE_ON_64
TIME_SHIFT_64ND_3
NOTE_OFF_76
NOTE_OFF_64
NOTE_ON_76
TIME_SHIFT_64ND_3
NOTE_ON_69
TIME_SHIFT_64ND_3
NOTE_OFF_69
NOTE_ON_60
TIME_SHIFT_64ND_3
NOTE_OFF_60
NOTE_ON_64
TIME_SHIFT_64ND_3
NOTE_OFF_76
NOTE_OFF_64
NOTE_ON_76
TIME_SHIFT_64ND_3
NOTE_ON_70
TIME_SHIFT_64ND_3
NOTE_OFF_70
NOTE_ON_59
TIME_SHIFT_64ND_3
NOTE_OFF_59
NOTE_ON_66
TIME_SHIFT_64ND_3
NOTE_OFF_76
NOTE_OFF_66
NOTE_ON_75
TIME_SHIFT_64ND_3
NOTE_ON_71
TIME_SHIFT_64ND_3
NOTE_OFF_71
NOTE_ON_47
TIME_SHIFT_64ND_3
NOTE_OFF_47
NOTE_ON_59
TIME_SHIFT_64ND_3
NOTE_OFF_75
NOTE_OFF_59
NOTE_ON_71
TIME_SHIFT_64ND_3
NOTE_ON_59
TIME_SHIFT_64ND_3
NOTE_OFF_59
NOTE_ON_43
TIME_SHIFT_64ND_3
NOTE_OFF_43
NOTE_ON_55
TIME_SHIFT_64ND_3
NOTE_OFF_71
NOTE_OFF_55
NOTE_ON_71
TIME_SHIFT_64ND_3
NOTE_ON_59
TIME_SHIFT_64ND_4
NOTE_OFF_59
NOTE_ON_42
TIME_SHIFT_64ND_3
NOTE_OFF_42
NOTE_ON_54
TIME_SHIFT_64ND_4
NOTE_OFF_71
NOTE_OFF_54
NOTE_ON_71
TIME_SHIFT_64ND_4
NOTE_ON_59
TIME_SHIFT_64ND_1
NOTE_OFF_59
NOTE_ON_59
TIME_SHIFT_64ND_1
NOTE_ON_64
TIME_SHIFT_64ND_1
NOTE_ON_67
TIME_SHIFT_64ND_1
NOTE_OFF_71
NOTE_ON_71
NOTE_ON_52
NOTE_ON_40
TIME_SHIFT_64ND_31
NOTE_OFF_71
NOTE_OFF_67
NOTE_OFF_64
NOTE_OFF_59
NOTE_OFF_52
NOTE_OFF_40
NOTE_ON_71
TIME_SHIFT_64ND_3
NOTE_OFF_71
NOTE_ON_67
TIME_SHIFT_64ND_3
NOTE_OFF_67
NOTE_ON_64
TIME_SHIFT_64ND_3
NOTE_OFF_64
NOTE_ON_67
TIME_SHIFT_64ND_3
NOTE_OFF_67
NOTE_ON_71
TIME_SHIFT_64ND_3
NOTE_OFF_71
NOTE_ON_67
TIME_SHIFT_64ND_3
NOTE_OFF_67
NOTE_ON_64
TIME_SHIFT_64ND_3
NOTE_OFF_64
NOTE_ON_67
TIME_SHIFT_64ND_4
NOTE_OFF_67
NOTE_ON_79
TIME_SHIFT_64ND_3
NOTE_ON_71
TIME_SHIFT_64ND_3
NOTE_OFF_71
NOTE_ON_64
TIME_SHIFT_64ND_3
NOTE_OFF_64
NOTE_ON_67
TIME_SHIFT_64ND_3
NOTE_OFF_79
NOTE_OFF_67
NOTE_ON_79
TIME_SHIFT_64ND_3
NOTE_ON_71
TIME_SHIFT_64ND_3
NOTE_OFF_71
NOTE_ON_63
TIME_SHIFT_64ND_3
NOTE_OFF_63
NOTE_ON_69
TIME_SHIFT_64ND_4
NOTE_OFF_79
NOTE_OFF_69
NOTE_ON_79
TIME_SHIFT_64ND_3
NOTE_ON_71
TIME_SHIFT_64ND_3
NOTE_OFF_71
NOTE_ON_63
TIME_SHIFT_64ND_3
NOTE_OFF_63
NOTE_ON_69
TIME_SHIFT_64ND_3
NOTE_OFF_79
NOTE_OFF_69
NOTE_ON_78
TIME_SHIFT_64ND_3
NOTE_ON_71
TIME_SHIFT_64ND_3
NOTE_OFF_71
NOTE_ON_63
TIME_SHIFT_64ND_3
NOTE_OFF_63
NOTE_ON_69
TIME_SHIFT_64ND_3
NOTE_OFF_78
NOTE_OFF_69
NOTE_ON_77
TIME_SHIFT_64ND_3
NOTE_ON_71
TIME_SHIFT_64ND_3
NOTE_OFF_71
NOTE_ON_63
TIME_SHIFT_64ND_3
NOTE_OFF_63
NOTE_ON_69
TIME_SHIFT_64ND_3
NOTE_OFF_77
NOTE_OFF_69
NOTE_ON_78
TIME_SHIFT_64ND_3
NOTE_ON_71
TIME_SHIFT_64ND_3
NOTE_OFF_71
NOTE_ON_64
TIME_SHIFT_64ND_3
NOTE_OFF_64
NOTE_ON_67
TIME_SHIFT_64ND_4
NOTE_OFF_78
NOTE_OFF_67
NOTE_ON_84
TIME_SHIFT_64ND_3
NOTE_ON_71
TIME_SHIFT_64ND_3
NOTE_OFF_71
NOTE_ON_64
TIME_SHIFT_64ND_3
NOTE_OFF_64
NOTE_ON_67
TIME_SHIFT_64ND_3
NOTE_OFF_84
NOTE_OFF_67
NOTE_ON_83
TIME_SHIFT_64ND_3
NOTE_ON_71
TIME_SHIFT_64ND_3
NOTE_OFF_71
NOTE_ON_64
TIME_SHIFT_64ND_3
NOTE_OFF_64
NOTE_ON_67
TIME_SHIFT_64ND_3
NOTE_OFF_83
NOTE_OFF_67
NOTE_ON_79
TIME_SHIFT_64ND_3
NOTE_ON_71
TIME_SHIFT_64ND_3
NOTE_OFF_71
NOTE_ON_64
TIME_SHIFT_64ND_3
NOTE_OFF_64
NOTE_ON_67
TIME_SHIFT_64ND_3
NOTE_OFF_79
NOTE_OFF_67
NOTE_ON_76
TIME_SHIFT_64ND_3
NOTE_ON_71
TIME_SHIFT_64ND_3
NOTE_OFF_71
NOTE_ON_63
TIME_SHIFT_64ND_3
NOTE_OFF_63
NOTE_ON_69
TIME_SHIFT_64ND_3
NOTE_OFF_76
NOTE_OFF_69
NOTE_ON_79
TIME_SHIFT_64ND_3
NOTE_ON_71
TIME_SHIFT_64ND_3
NOTE_OFF_71
NOTE_ON_63
TIME_SHIFT_64ND_3
NOTE_OFF_63
NOTE_ON_69
TIME_SHIFT_64ND_3
NOTE_OFF_79
NOTE_OFF_69
NOTE_ON_78
TIME_SHIFT_64ND_3
NOTE_ON_71
TIME_SHIFT_64ND_3
NOTE_OFF_71
NOTE_ON_63
TIME_SHIFT_64ND_3
NOTE_OFF_63
NOTE_ON_69
TIME_SHIFT_64ND_3
NOTE_OFF_78
NOTE_OFF_69
NOTE_ON_77
TIME_SHIFT_64ND_3
NOTE_ON_71
TIME_SHIFT_64ND_3
NOTE_OFF_71
NOTE_ON_63
TIME_SHIFT_64ND_3
NOTE_OFF_63
NOTE_ON_69
TIME_SHIFT_64ND_3
NOTE_OFF_77
NOTE_OFF_69
NOTE_ON_78
TIME_SHIFT_64ND_3
NOTE_ON_71
TIME_SHIFT_64ND_3
NOTE_OFF_71
NOTE_ON_64
TIME_SHIFT_64ND_3
NOTE_OFF_64
NOTE_ON_67
TIME_SHIFT_64ND_4
NOTE_OFF_78
NOTE_OFF_67
NOTE_ON_79
TIME_SHIFT_64ND_3
NOTE_ON_71
TIME_SHIFT_64ND_3
NOTE_OFF_71
NOTE_ON_64
TIME_SHIFT_64ND_3
NOTE_OFF_64
NOTE_ON_67
TIME_SHIFT_64ND_3
NOTE_OFF_79
NOTE_OFF_67
NOTE_ON_79
TIME_SHIFT_64ND_3
NOTE_ON_71
TIME_SHIFT_64ND_3
NOTE_OFF_71
NOTE_ON_62
TIME_SHIFT_64ND_3
NOTE_OFF_62
NOTE_ON_65
TIME_SHIFT_64ND_3
NOTE_OFF_79
NOTE_OFF_65
NOTE_ON_80
TIME_SHIFT_64ND_3
NOTE_ON_71
TIME_SHIFT_64ND_3
NOTE_OFF_71
NOTE_ON_62
TIME_SHIFT_64ND_3
NOTE_OFF_62
NOTE_ON_65
TIME_SHIFT_64ND_3
NOTE_OFF_80
NOTE_OFF_65
NOTE_ON_80
TIME_SHIFT_64ND_3
NOTE_ON_71
TIME_SHIFT_64ND_3
NOTE_OFF_71
NOTE_ON_60
TIME_SHIFT_64ND_3
NOTE_OFF_60
NOTE_ON_64
TIME_SHIFT_64ND_3
NOTE_OFF_80
NOTE_OFF_64
NOTE_ON_81
TIME_SHIFT_64ND_3
NOTE_ON_69
TIME_SHIFT_64ND_3
NOTE_OFF_69
NOTE_ON_60
TIME_SHIFT_64ND_3
NOTE_OFF_60
NOTE_ON_64
TIME_SHIFT_64ND_3
NOTE_OFF_81
NOTE_OFF_64
NOTE_ON_76
TIME_SHIFT_64ND_3
NOTE_ON_69
TIME_SHIFT_64ND_3
NOTE_OFF_69
NOTE_ON_60
TIME_SHIFT_64ND_3
NOTE_OFF_60
NOTE_ON_64
TIME_SHIFT_64ND_3
NOTE_OFF_76
NOTE_OFF_64
NOTE_ON_75
TIME_SHIFT_64ND_3
NOTE_ON_69
TIME_SHIFT_64ND_3
NOTE_OFF_69
NOTE_ON_60
TIME_SHIFT_64ND_3
NOTE_OFF_60
NOTE_ON_64
TIME_SHIFT_64ND_3
NOTE_OFF_75
NOTE_OFF_64
NOTE_ON_76
TIME_SHIFT_64ND_3
NOTE_ON_69
TIME_SHIFT_64ND_3
NOTE_OFF_69
NOTE_ON_59
TIME_SHIFT_64ND_3
NOTE_OFF_59
NOTE_ON_64
TIME_SHIFT_64ND_4
NOTE_OFF_76
NOTE_OFF_64
NOTE_ON_79
TIME_SHIFT_64ND_3
NOTE_ON_71
TIME_SHIFT_64ND_3
NOTE_OFF_71
NOTE_ON_59
TIME_SHIFT_64ND_3
NOTE_OFF_59
NOTE_ON_69
TIME_SHIFT_64ND_3
NOTE_OFF_79
NOTE_OFF_69
NOTE_ON_78
TIME_SHIFT_64ND_3
NOTE_ON_71
TIME_SHIFT_64ND_3
NOTE_OFF_71
NOTE_ON_59
TIME_SHIFT_64ND_3
NOTE_OFF_59
NOTE_ON_67
TIME_SHIFT_64ND_3
NOTE_OFF_78
NOTE_OFF_67
NOTE_ON_76
TIME_SHIFT_64ND_3
NOTE_ON_71
TIME_SHIFT_64ND_3
NOTE_OFF_71
NOTE_ON_59
TIME_SHIFT_64ND_3
NOTE_OFF_59
NOTE_ON_66
TIME_SHIFT_64ND_3
NOTE_OFF_76
NOTE_OFF_66
NOTE_ON_75
TIME_SHIFT_64ND_3
NOTE_ON_71
TIME_SHIFT_64ND_3
NOTE_OFF_71
NOTE_ON_64
TIME_SHIFT_64ND_3
NOTE_OFF_64
NOTE_ON_67
TIME_SHIFT_64ND_3
NOTE_OFF_75
NOTE_OFF_67
NOTE_ON_76
TIME_SHIFT_64ND_3
NOTE_OFF_76
NOTE_ON_71
TIME_SHIFT_64ND_3
NOTE_OFF_71
NOTE_ON_70
TIME_SHIFT_64ND_3
NOTE_OFF_70
NOTE_ON_71
TIME_SHIFT_64ND_3
NOTE_OFF_71
NOTE_ON_72
TIME_SHIFT_64ND_3
NOTE_OFF_72
NOTE_ON_71
TIME_SHIFT_64ND_3
NOTE_OFF_71
NOTE_ON_70
TIME_SHIFT_64ND_3
NOTE_OFF_70
NOTE_ON_71
TIME_SHIFT_64ND_3
NOTE_OFF_71
NOTE_ON_72
TIME_SHIFT_64ND_3
NOTE_OFF_72
NOTE_ON_71
TIME_SHIFT_64ND_4
NOTE_OFF_71
NOTE_ON_70
TIME_SHIFT_64ND_3
NOTE_OFF_70
NOTE_ON_71
TIME_SHIFT_64ND_4
NOTE_OFF_71
NOTE_ON_72
TIME_SHIFT_64ND_3
NOTE_OFF_72
NOTE_ON_71
TIME_SHIFT_64ND_4
NOTE_OFF_71
NOTE_ON_55
TIME_SHIFT_64ND_3
NOTE_OFF_55
NOTE_ON_59
TIME_SHIFT_64ND_3
NOTE_OFF_59
NOTE_ON_62
TIME_SHIFT_64ND_3
NOTE_ON_59
TIME_SHIFT_64ND_3
NOTE_OFF_59
NOTE_ON_55
TIME_SHIFT_64ND_3
NOTE_OFF_55
NOTE_ON_59
TIME_SHIFT_64ND_3
NOTE_OFF_62
NOTE_OFF_59
NOTE_ON_67
TIME_SHIFT_64ND_3
NOTE_ON_62
TIME_SHIFT_64ND_3
NOTE_OFF_62
NOTE_ON_55
TIME_SHIFT_64ND_3
NOTE_OFF_55
NOTE_ON_59
TIME_SHIFT_64ND_4
NOTE_OFF_67
NOTE_OFF_59
NOTE_ON_69
TIME_SHIFT_64ND_3
NOTE_ON_62
TIME_SHIFT_64ND_3
NOTE_OFF_62
NOTE_ON_55
TIME_SHIFT_64ND_3
NOTE_OFF_55
NOTE_ON_59
TIME_SHIFT_64ND_3
NOTE_OFF_69
NOTE_OFF_59
NOTE_ON_71
TIME_SHIFT_64ND_3
NOTE_ON_62
TIME_SHIFT_64ND_3
NOTE_OFF_62
NOTE_ON_54
TIME_SHIFT_64ND_3
NOTE_OFF_54
NOTE_ON_60
TIME_SHIFT_64ND_4
NOTE_OFF_71
NOTE_OFF_60
NOTE_ON_71
TIME_SHIFT_64ND_3
NOTE_ON_62
TIME_SHIFT_64ND_3
NOTE_OFF_62
NOTE_ON_54
TIME_SHIFT_64ND_3
NOTE_OFF_54
NOTE_ON_60
TIME_SHIFT_64ND_3
NOTE_OFF_71
NOTE_OFF_60
NOTE_ON_69
TIME_SHIFT_64ND_3
NOTE_ON_62
TIME_SHIFT_64ND_3
NOTE_OFF_62
NOTE_ON_54
TIME_SHIFT_64ND_3
NOTE_OFF_54
NOTE_ON_60
TIME_SHIFT_64ND_3
NOTE_OFF_69
NOTE_OFF_60
NOTE_ON_68
TIME_SHIFT_64ND_3
NOTE_ON_62
TIME_SHIFT_64ND_3
NOTE_OFF_62
NOTE_ON_54
TIME_SHIFT_64ND_3
NOTE_OFF_54
NOTE_ON_60
TIME_SHIFT_64ND_3
NOTE_OFF_68
NOTE_OFF_60
NOTE_ON_69
TIME_SHIFT_64ND_3
NOTE_ON_62
TIME_SHIFT_64ND_3
NOTE_OFF_62
NOTE_ON_55
TIME_SHIFT_64ND_3
NOTE_OFF_55
NOTE_ON_59
TIME_SHIFT_64ND_3
NOTE_OFF_69
NOTE_OFF_59
NOTE_ON_62
TIME_SHIFT_64ND_3
NOTE_ON_59
TIME_SHIFT_64ND_3
NOTE_OFF_59
NOTE_ON_55
TIME_SHIFT_64ND_3
NOTE_OFF_55
NOTE_ON_59
TIME_SHIFT_64ND_3
NOTE_OFF_62
NOTE_OFF_59
NOTE_ON_67
TIME_SHIFT_64ND_3
NOTE_ON_62
TIME_SHIFT_64ND_3
NOTE_OFF_62
NOTE_ON_55
TIME_SHIFT_64ND_3
NOTE_OFF_55
NOTE_ON_59
TIME_SHIFT_64ND_4
NOTE_OFF_67
NOTE_OFF_59
NOTE_ON_69
TIME_SHIFT_64ND_3
NOTE_ON_62
TIME_SHIFT_64ND_3
NOTE_OFF_62
NOTE_ON_55
TIME_SHIFT_64ND_3
NOTE_OFF_55
NOTE_ON_59
TIME_SHIFT_64ND_3
NOTE_OFF_69
NOTE_OFF_59
NOTE_ON_71
TIME_SHIFT_64ND_3
NOTE_ON_62
TIME_SHIFT_64ND_3
NOTE_OFF_62
NOTE_ON_54
TIME_SHIFT_64ND_3
NOTE_OFF_54
NOTE_ON_57
TIME_SHIFT_64ND_4
NOTE_OFF_71
NOTE_OFF_57
NOTE_ON_74
TIME_SHIFT_64ND_3
NOTE_ON_62
TIME_SHIFT_64ND_3
NOTE_OFF_62
NOTE_ON_54
TIME_SHIFT_64ND_3
NOTE_OFF_54
NOTE_ON_57
TIME_SHIFT_64ND_3
NOTE_OFF_74
NOTE_OFF_57
NOTE_ON_73
TIME_SHIFT_64ND_3
NOTE_ON_62
TIME_SHIFT_64ND_3
NOTE_OFF_62
NOTE_ON_54
TIME_SHIFT_64ND_3
NOTE_OFF_54
NOTE_ON_57
TIME_SHIFT_64ND_3
NOTE_OFF_73
NOTE_OFF_57
NOTE_ON_72
TIME_SHIFT_64ND_3
NOTE_ON_62
TIME_SHIFT_64ND_3
NOTE_OFF_62
NOTE_ON_54
TIME_SHIFT_64ND_3
NOTE_OFF_54
NOTE_ON_60
TIME_SHIFT_64ND_3
NOTE_OFF_72
NOTE_OFF_60
NOTE_ON_69
TIME_SHIFT_64ND_3
NOTE_ON_62
TIME_SHIFT_64ND_3
NOTE_OFF_62
NOTE_ON_55
TIME_SHIFT_64ND_3
NOTE_OFF_55
NOTE_ON_59
TIME_SHIFT_64ND_3
NOTE_OFF_69
NOTE_OFF_59
NOTE_ON_71
TIME_SHIFT_64ND_3
NOTE_ON_62
TIME_SHIFT_64ND_3
NOTE_OFF_62
NOTE_ON_55
TIME_SHIFT_64ND_3
NOTE_OFF_55
NOTE_ON_59
TIME_SHIFT_64ND_3
NOTE_OFF_71
NOTE_OFF_59
NOTE_ON_71
TIME_SHIFT_64ND_3
NOTE_ON_62
TIME_SHIFT_64ND_3
NOTE_OFF_62
NOTE_ON_56
TIME_SHIFT_64ND_3
NOTE_OFF_56
NOTE_ON_59
TIME_SHIFT_64ND_4
NOTE_OFF_71
NOTE_OFF_59
NOTE_ON_76
TIME_SHIFT_64ND_3
NOTE_ON_64
TIME_SHIFT_64ND_3
NOTE_OFF_64
NOTE_ON_56
TIME_SHIFT_64ND_3
NOTE_OFF_56
NOTE_ON_59
TIME_SHIFT_64ND_3
NOTE_OFF_76
NOTE_OFF_59
NOTE_ON_71
TIME_SHIFT_64ND_3
NOTE_ON_64
TIME_SHIFT_64ND_3
NOTE_OFF_64
NOTE_ON_57
TIME_SHIFT_64ND_3
NOTE_OFF_57
NOTE_ON_60
TIME_SHIFT_64ND_3
NOTE_OFF_71
NOTE_OFF_60
NOTE_ON_72
TIME_SHIFT_64ND_3
NOTE_ON_64
TIME_SHIFT_64ND_3
NOTE_OFF_64
NOTE_ON_57
TIME_SHIFT_64ND_3
NOTE_OFF_57
NOTE_ON_60
TIME_SHIFT_64ND_3
NOTE_OFF_72
NOTE_OFF_60
NOTE_ON_72
TIME_SHIFT_64ND_3
NOTE_ON_64
TIME_SHIFT_64ND_3
NOTE_OFF_64
NOTE_ON_59
TIME_SHIFT_64ND_3
NOTE_OFF_59
NOTE_ON_62
TIME_SHIFT_64ND_4
NOTE_OFF_72
NOTE_OFF_62
NOTE_ON_79
TIME_SHIFT_64ND_3
NOTE_ON_67
TIME_SHIFT_64ND_3
NOTE_OFF_67
NOTE_ON_59
TIME_SHIFT_64ND_3
NOTE_OFF_59
NOTE_ON_62
TIME_SHIFT_64ND_3
NOTE_OFF_79
NOTE_OFF_62
NOTE_ON_74
TIME_SHIFT_64ND_3
NOTE_ON_67
TIME_SHIFT_64ND_3
NOTE_OFF_67
NOTE_ON_60
TIME_SHIFT_64ND_3
NOTE_OFF_60
NOTE_ON_64
TIME_SHIFT_64ND_3
NOTE_OFF_74
NOTE_OFF_64
NOTE_ON_76
TIME_SHIFT_64ND_3
NOTE_ON_67
TIME_SHIFT_64ND_3
NOTE_OFF_67
NOTE_ON_60
TIME_SHIFT_64ND_3
NOTE_OFF_60
NOTE_ON_64
TIME_SHIFT_64ND_3
NOTE_OFF_76
NOTE_OFF_64
NOTE_ON_76
TIME_SHIFT_64ND_3
NOTE_ON_68
TIME_SHIFT_64ND_3
NOTE_OFF_68
NOTE_ON_60
TIME_SHIFT_64ND_3
NOTE_OFF_60
NOTE_ON_64
TIME_SHIFT_64ND_3
NOTE_OFF_76
NOTE_OFF_64
NOTE_ON_76
TIME_SHIFT_64ND_3
NOTE_ON_69
TIME_SHIFT_64ND_3
NOTE_OFF_69
NOTE_ON_60
TIME_SHIFT_64ND_3
NOTE_OFF_60
NOTE_ON_64
TIME_SHIFT_64ND_3
NOTE_OFF_76
NOTE_OFF_64
NOTE_ON_76
TIME_SHIFT_64ND_3
NOTE_ON_70
TIME_SHIFT_64ND_3
NOTE_OFF_70
NOTE_ON_59
TIME_SHIFT_64ND_3
NOTE_OFF_59
NOTE_ON_66
TIME_SHIFT_64ND_3
NOTE_OFF_76
NOTE_OFF_66
NOTE_ON_75
TIME_SHIFT_64ND_3
NOTE_ON_71
TIME_SHIFT_64ND_3
NOTE_OFF_71
NOTE_ON_47
TIME_SHIFT_64ND_3
NOTE_OFF_47
NOTE_ON_59
TIME_SHIFT_64ND_3
NOTE_OFF_75
NOTE_OFF_59
NOTE_ON_71
TIME_SHIFT_64ND_3
NOTE_ON_59
TIME_SHIFT_64ND_3
NOTE_OFF_59
NOTE_ON_43
TIME_SHIFT_64ND_3
NOTE_OFF_43
NOTE_ON_55
TIME_SHIFT_64ND_3
NOTE_OFF_71
NOTE_OFF_55
NOTE_ON_71
TIME_SHIFT_64ND_3
NOTE_ON_59
TIME_SHIFT_64ND_4
NOTE_OFF_59
NOTE_ON_42
TIME_SHIFT_64ND_3
NOTE_OFF_42
NOTE_ON_54
TIME_SHIFT_64ND_4
NOTE_OFF_71
NOTE_OFF_54
NOTE_ON_71
TIME_SHIFT_64ND_4
NOTE_ON_59
TIME_SHIFT_64ND_1
NOTE_OFF_59
NOTE_ON_59
TIME_SHIFT_64ND_1
NOTE_ON_64
TIME_SHIFT_64ND_1
NOTE_ON_67
TIME_SHIFT_64ND_1
NOTE_OFF_71
NOTE_ON_71
NOTE_ON_52
NOTE_ON_40
TIME_SHIFT_64ND_31
NOTE_OFF_71
NOTE_OFF_67
NOTE_OFF_64
NOTE_OFF_59
NOTE_OFF_52
NOTE_OFF_40
NOTE_ON_71
TIME_SHIFT_64ND_3
NOTE_OFF_71
NOTE_ON_67
TIME_SHIFT_64ND_4
NOTE_OFF_67
NOTE_ON_64
TIME_SHIFT_64ND_3
NOTE_OFF_64
NOTE_ON_67
TIME_SHIFT_64ND_3
NOTE_OFF_67
NOTE_ON_71
TIME_SHIFT_64ND_3
NOTE_OFF_71
NOTE_ON_67
TIME_SHIFT_64ND_3
NOTE_OFF_67
NOTE_ON_64
TIME_SHIFT_64ND_3
NOTE_OFF_64
NOTE_ON_67
TIME_SHIFT_64ND_4
NOTE_OFF_67
NOTE_ON_79
TIME_SHIFT_64ND_3
NOTE_ON_71
TIME_SHIFT_64ND_3
NOTE_OFF_71
NOTE_ON_64
TIME_SHIFT_64ND_3
NOTE_OFF_64
NOTE_ON_67
TIME_SHIFT_64ND_3
NOTE_OFF_79
NOTE_OFF_67
NOTE_ON_79
TIME_SHIFT_64ND_3
NOTE_ON_71
TIME_SHIFT_64ND_3
NOTE_OFF_71
NOTE_ON_63
TIME_SHIFT_64ND_3
NOTE_OFF_63
NOTE_ON_69
TIME_SHIFT_64ND_4
NOTE_OFF_79
NOTE_OFF_69
NOTE_ON_79
TIME_SHIFT_64ND_3
NOTE_ON_71
TIME_SHIFT_64ND_3
NOTE_OFF_71
NOTE_ON_63
TIME_SHIFT_64ND_3
NOTE_OFF_63
NOTE_ON_69
TIME_SHIFT_64ND_3
NOTE_OFF_79
NOTE_OFF_69
NOTE_ON_78
TIME_SHIFT_64ND_3
NOTE_ON_71
TIME_SHIFT_64ND_3
NOTE_OFF_71
NOTE_ON_63
TIME_SHIFT_64ND_3
NOTE_OFF_63
NOTE_ON_69
TIME_SHIFT_64ND_3
NOTE_OFF_78
NOTE_OFF_69
NOTE_ON_77
TIME_SHIFT_64ND_3
NOTE_ON_71
TIME_SHIFT_64ND_3
NOTE_OFF_71
NOTE_ON_63
TIME_SHIFT_64ND_3
NOTE_OFF_63
NOTE_ON_69
TIME_SHIFT_64ND_3
NOTE_OFF_77
NOTE_OFF_69
NOTE_ON_78
TIME_SHIFT_64ND_3
NOTE_ON_71
TIME_SHIFT_64ND_3
NOTE_OFF_71
NOTE_ON_64
TIME_SHIFT_64ND_3
NOTE_OFF_64
NOTE_ON_67
TIME_SHIFT_64ND_4
NOTE_OFF_78
NOTE_OFF_67
NOTE_ON_84
TIME_SHIFT_64ND_3
NOTE_ON_71
TIME_SHIFT_64ND_3
NOTE_OFF_71
NOTE_ON_64
TIME_SHIFT_64ND_3
NOTE_OFF_64
NOTE_ON_67
TIME_SHIFT_64ND_3
NOTE_OFF_84
NOTE_OFF_67
NOTE_ON_83
TIME_SHIFT_64ND_3
NOTE_ON_71
TIME_SHIFT_64ND_3
NOTE_OFF_71
NOTE_ON_64
TIME_SHIFT_64ND_3
NOTE_OFF_64
NOTE_ON_67
TIME_SHIFT_64ND_3
NOTE_OFF_83
NOTE_OFF_67
NOTE_ON_79
TIME_SHIFT_64ND_3
NOTE_ON_71
TIME_SHIFT_64ND_3
NOTE_OFF_71
NOTE_ON_64
TIME_SHIFT_64ND_3
NOTE_OFF_64
NOTE_ON_67
TIME_SHIFT_64ND_3
NOTE_OFF_79
NOTE_OFF_67
NOTE_ON_76
TIME_SHIFT_64ND_3
NOTE_ON_71
TIME_SHIFT_64ND_3
NOTE_OFF_71
NOTE_ON_63
TIME_SHIFT_64ND_3
NOTE_OFF_63
NOTE_ON_69
TIME_SHIFT_64ND_3
NOTE_OFF_76
NOTE_OFF_69
NOTE_ON_79
TIME_SHIFT_64ND_3
NOTE_ON_71
TIME_SHIFT_64ND_3
NOTE_OFF_71
NOTE_ON_63
TIME_SHIFT_64ND_3
NOTE_OFF_63
NOTE_ON_69
TIME_SHIFT_64ND_3
NOTE_OFF_79
NOTE_OFF_69
NOTE_ON_78
TIME_SHIFT_64ND_3
NOTE_ON_71
TIME_SHIFT_64ND_3
NOTE_OFF_71
NOTE_ON_63
TIME_SHIFT_64ND_3
NOTE_OFF_63
NOTE_ON_69
TIME_SHIFT_64ND_3
NOTE_OFF_78
NOTE_OFF_69
NOTE_ON_77
TIME_SHIFT_64ND_3
NOTE_ON_71
TIME_SHIFT_64ND_3
NOTE_OFF_71
NOTE_ON_63
TIME_SHIFT_64ND_3
NOTE_OFF_63
NOTE_ON_69
TIME_SHIFT_64ND_3
NOTE_OFF_77
NOTE_OFF_69
NOTE_ON_78
TIME_SHIFT_64ND_3
NOTE_ON_71
TIME_SHIFT_64ND_3
NOTE_OFF_71
NOTE_ON_64
TIME_SHIFT_64ND_3
NOTE_OFF_64
NOTE_ON_67
TIME_SHIFT_64ND_4
NOTE_OFF_78
NOTE_OFF_67
NOTE_ON_79
TIME_SHIFT_64ND_3
NOTE_ON_71
TIME_SHIFT_64ND_3
NOTE_OFF_71
NOTE_ON_64
TIME_SHIFT_64ND_3
NOTE_OFF_64
NOTE_ON_67
TIME_SHIFT_64ND_3
NOTE_OFF_79
NOTE_OFF_67
NOTE_ON_79
TIME_SHIFT_64ND_3
NOTE_ON_71
TIME_SHIFT_64ND_3
NOTE_OFF_71
NOTE_ON_62
TIME_SHIFT_64ND_3
NOTE_OFF_62
NOTE_ON_65
TIME_SHIFT_64ND_3
NOTE_OFF_79
NOTE_OFF_65
NOTE_ON_80
TIME_SHIFT_64ND_3
NOTE_ON_71
TIME_SHIFT_64ND_3
NOTE_OFF_71
NOTE_ON_62
TIME_SHIFT_64ND_3
NOTE_OFF_62
NOTE_ON_65
TIME_SHIFT_64ND_3
NOTE_OFF_80
NOTE_OFF_65
NOTE_ON_80
TIME_SHIFT_64ND_3
NOTE_ON_71
TIME_SHIFT_64ND_3
NOTE_OFF_71
NOTE_ON_60
TIME_SHIFT_64ND_3
NOTE_OFF_60
NOTE_ON_64
TIME_SHIFT_64ND_4
NOTE_OFF_80
NOTE_OFF_64
NOTE_ON_81
TIME_SHIFT_64ND_3
NOTE_ON_69
TIME_SHIFT_64ND_3
NOTE_OFF_69
NOTE_ON_60
TIME_SHIFT_64ND_3
NOTE_OFF_60
NOTE_ON_64
TIME_SHIFT_64ND_3
NOTE_OFF_81
NOTE_OFF_64
NOTE_ON_76
TIME_SHIFT_64ND_3
NOTE_ON_69
TIME_SHIFT_64ND_3
NOTE_OFF_69
NOTE_ON_60
TIME_SHIFT_64ND_3
NOTE_OFF_60
NOTE_ON_64
TIME_SHIFT_64ND_3
NOTE_OFF_76
NOTE_OFF_64
NOTE_ON_75
TIME_SHIFT_64ND_3
NOTE_ON_69
TIME_SHIFT_64ND_3
NOTE_OFF_69
NOTE_ON_60
TIME_SHIFT_64ND_3
NOTE_OFF_60
NOTE_ON_64
TIME_SHIFT_64ND_3
NOTE_OFF_75
NOTE_OFF_64
NOTE_ON_76
TIME_SHIFT_64ND_3
NOTE_ON_69
TIME_SHIFT_64ND_3
NOTE_OFF_69
NOTE_ON_59
TIME_SHIFT_64ND_3
NOTE_OFF_59
NOTE_ON_64
TIME_SHIFT_64ND_4
NOTE_OFF_76
NOTE_OFF_64
NOTE_ON_79
TIME_SHIFT_64ND_3
NOTE_ON_71
TIME_SHIFT_64ND_3
NOTE_OFF_71
NOTE_ON_59
TIME_SHIFT_64ND_3
NOTE_OFF_59
NOTE_ON_69
TIME_SHIFT_64ND_3
NOTE_OFF_79
NOTE_OFF_69
NOTE_ON_78
TIME_SHIFT_64ND_3
NOTE_ON_71
TIME_SHIFT_64ND_3
NOTE_OFF_71
NOTE_ON_59
TIME_SHIFT_64ND_3
NOTE_OFF_59
NOTE_ON_67
TIME_SHIFT_64ND_3
NOTE_OFF_78
NOTE_OFF_67
NOTE_ON_76
TIME_SHIFT_64ND_3
NOTE_ON_71
TIME_SHIFT_64ND_3
NOTE_OFF_71
NOTE_ON_59
TIME_SHIFT_64ND_3
NOTE_OFF_59
NOTE_ON_66
TIME_SHIFT_64ND_3
NOTE_OFF_76
NOTE_OFF_66
NOTE_ON_75
TIME_SHIFT_64ND_3
NOTE_ON_71
TIME_SHIFT_64ND_3
NOTE_OFF_71
NOTE_ON_64
TIME_SHIFT_64ND_3
NOTE_OFF_64
NOTE_ON_67
TIME_SHIFT_64ND_3
NOTE_OFF_75
NOTE_OFF_67
NOTE_ON_76
TIME_SHIFT_64ND_3
NOTE_ON_71
TIME_SHIFT_64ND_3
NOTE_OFF_71
NOTE_ON_64
TIME_SHIFT_64ND_3
NOTE_OFF_64
NOTE_ON_67
TIME_SHIFT_64ND_3
NOTE_OFF_76
NOTE_OFF_67
NOTE_ON_76
TIME_SHIFT_64ND_3
NOTE_ON_71
TIME_SHIFT_64ND_3
NOTE_OFF_71
NOTE_ON_64
TIME_SHIFT_64ND_3
NOTE_OFF_64
NOTE_ON_69
TIME_SHIFT_64ND_3
NOTE_OFF_76
NOTE_OFF_69
NOTE_ON_76
TIME_SHIFT_64ND_3
NOTE_ON_72
TIME_SHIFT_64ND_3
NOTE_OFF_72
NOTE_ON_64
TIME_SHIFT_64ND_3
NOTE_OFF_64
NOTE_ON_66
TIME_SHIFT_64ND_3
NOTE_OFF_76
NOTE_OFF_66
NOTE_ON_76
TIME_SHIFT_64ND_3
NOTE_ON_69
TIME_SHIFT_64ND_4
NOTE_OFF_69
NOTE_ON_64
TIME_SHIFT_64ND_3
NOTE_OFF_64
NOTE_ON_67
TIME_SHIFT_64ND_3
NOTE_OFF_76
NOTE_OFF_67
NOTE_ON_76
TIME_SHIFT_64ND_3
NOTE_ON_71
TIME_SHIFT_64ND_3
NOTE_OFF_71
NOTE_ON_64
TIME_SHIFT_64ND_3
NOTE_OFF_64
NOTE_ON_67
TIME_SHIFT_64ND_3
NOTE_OFF_76
NOTE_OFF_67
NOTE_ON_76
TIME_SHIFT_64ND_3
NOTE_ON_71
TIME_SHIFT_64ND_3
NOTE_OFF_71
NOTE_ON_64
TIME_SHIFT_64ND_3
NOTE_OFF_64
NOTE_ON_69
TIME_SHIFT_64ND_3
NOTE_OFF_76
NOTE_OFF_69
NOTE_ON_76
TIME_SHIFT_64ND_3
NOTE_ON_72
TIME_SHIFT_64ND_3
NOTE_OFF_72
NOTE_ON_64
TIME_SHIFT_64ND_3
NOTE_OFF_64
NOTE_ON_66
TIME_SHIFT_64ND_3
NOTE_OFF_76
NOTE_OFF_66
NOTE_ON_76
TIME_SHIFT_64ND_3
NOTE_ON_69
TIME_SHIFT_64ND_4
NOTE_OFF_69
NOTE_ON_64
TIME_SHIFT_64ND_3
NOTE_OFF_64
NOTE_ON_67
TIME_SHIFT_64ND_3
NOTE_OFF_76
NOTE_OFF_67
NOTE_ON_76
TIME_SHIFT_64ND_3
NOTE_ON_71
TIME_SHIFT_64ND_3
NOTE_OFF_71
NOTE_ON_64
TIME_SHIFT_64ND_3
NOTE_OFF_64
NOTE_ON_67
TIME_SHIFT_64ND_3
NOTE_OFF_76
NOTE_OFF_67
NOTE_ON_71
TIME_SHIFT_64ND_3
NOTE_ON_67
TIME_SHIFT_64ND_3
NOTE_OFF_67
NOTE_ON_59
TIME_SHIFT_64ND_3
NOTE_OFF_59
NOTE_ON_64
TIME_SHIFT_64ND_3
NOTE_OFF_71
NOTE_OFF_64
NOTE_ON_67
TIME_SHIFT_64ND_3
NOTE_ON_64
TIME_SHIFT_64ND_3
NOTE_OFF_64
NOTE_ON_55
TIME_SHIFT_64ND_3
NOTE_OFF_55
NOTE_ON_59
TIME_SHIFT_64ND_3
NOTE_OFF_67
NOTE_OFF_59
NOTE_ON_64
TIME_SHIFT_64ND_3
NOTE_ON_59
TIME_SHIFT_64ND_3
NOTE_OFF_59
NOTE_ON_52
TIME_SHIFT_64ND_3
NOTE_OFF_52
NOTE_ON_55
TIME_SHIFT_64ND_3
NOTE_OFF_64
NOTE_OFF_55
NOTE_ON_59
TIME_SHIFT_64ND_3
NOTE_ON_55
TIME_SHIFT_64ND_3
NOTE_OFF_55
NOTE_ON_52
TIME_SHIFT_64ND_3
NOTE_OFF_52
NOTE_ON_55
TIME_SHIFT_64ND_3
NOTE_OFF_59
NOTE_OFF_55
NOTE_ON_59
TIME_SHIFT_64ND_3
NOTE_ON_55
TIME_SHIFT_64ND_3
NOTE_OFF_55
NOTE_ON_47
TIME_SHIFT_64ND_3
NOTE_OFF_47
NOTE_ON_52
TIME_SHIFT_64ND_3
NOTE_OFF_59
NOTE_OFF_52
NOTE_ON_55
TIME_SHIFT_64ND_3
NOTE_ON_52
TIME_SHIFT_64ND_3
NOTE_OFF_52
NOTE_ON_43
TIME_SHIFT_64ND_3
NOTE_OFF_43
NOTE_ON_47
TIME_SHIFT_64ND_3
NOTE_OFF_55
NOTE_OFF_47
NOTE_ON_52
TIME_SHIFT_64ND_3
NOTE_ON_47
TIME_SHIFT_64ND_3
NOTE_OFF_52
NOTE_OFF_47
NOTE_ON_40
TIME_SHIFT_64ND_3
NOTE_ON_43
TIME_SHIFT_64ND_3
NOTE_OFF_43
NOTE_ON_47
TIME_SHIFT_64ND_3
NOTE_OFF_47
NOTE_ON_43
TIME_SHIFT_64ND_3
NOTE_OFF_43
NOTE_OFF_40
NOTE_ON_40
TIME_SHIFT_64ND_3
NOTE_ON_43
TIME_SHIFT_64ND_3
NOTE_OFF_43
NOTE_ON_47
TIME_SHIFT_64ND_3
NOTE_OFF_47
NOTE_ON_43
TIME_SHIFT_64ND_3
NOTE_OFF_43
NOTE_OFF_40
NOTE_ON_40
TIME_SHIFT_64ND_3
NOTE_ON_43
TIME_SHIFT_64ND_3
NOTE_OFF_43
NOTE_ON_47
TIME_SHIFT_64ND_3
NOTE_OFF_47
NOTE_ON_43
TIME_SHIFT_64ND_4
NOTE_OFF_43
NOTE_OFF_40
NOTE_ON_40
TIME_SHIFT_64ND_3
NOTE_ON_43
TIME_SHIFT_64ND_4
NOTE_OFF_43
NOTE_ON_47
TIME_SHIFT_64ND_4
NOTE_OFF_47
NOTE_ON_43
TIME_SHIFT_64ND_4
NOTE_OFF_43
NOTE_OFF_40
NOTE_ON_40
TIME_SHIFT_64ND_16
NOTE_OFF_40
TIME_SHIFT_64ND_16
NOTE_ON_79
NOTE_ON_67
NOTE_ON_71
NOTE_ON_76
NOTE_ON_52
NOTE_ON_59
NOTE_ON_64
TIME_SHIFT_64ND_8
NOTE_OFF_79
NOTE_OFF_67
NOTE_OFF_71
NOTE_OFF_76
NOTE_OFF_52
NOTE_OFF_59
NOTE_OFF_64
TIME_SHIFT_64ND_24
NOTE_ON_52
NOTE_ON_28
NOTE_ON_40
TIME_SHIFT_64ND_32
NOTE_OFF_52
NOTE_OFF_28
NOTE_OFF_40
