TIME_SHIFT_64ND_32
VEL_3
NOTE_ON_62
VEL_2
NOTE_ON_59
TIME_SHIFT_64ND_6
NOTE_OFF_62
NOTE_OFF_59
VEL_3
NOTE_ON_62
VEL_3
NOTE_ON_59
VEL_2
NOTE_ON_43
VEL_2
NOTE_ON_31
TIME_SHIFT_64ND_6
NOTE_OFF_62
NOTE_OFF_59
VEL_3
NOTE_ON_55
TIME_SHIFT_64ND_7
NOTE_OFF_55
NOTE_OFF_43
NOTE_OFF_31
VEL_3
NOTE_ON_71
VEL_3
NOTE_ON_67
VEL_3
NOTE_ON_62
TIME_SHIFT_64ND_7
NOTE_OFF_71
NOTE_OFF_67
NOTE_OFF_62
VEL_3
NOTE_ON_71
VEL_3
NOTE_ON_67
VEL_3
NOTE_ON_62
VEL_2
NOTE_ON_43
VEL_2
NOTE_ON_31
TIME_SHIFT_64ND_19
NOTE_OFF_71
NOTE_OFF_67
NOTE_OFF_62
VEL_3
NOTE_ON_67
VEL_2
NOTE_ON_59
TIME_SHIFT_64ND_13
NOTE_OFF_67
NOTE_OFF_59
NOTE_OFF_43
NOTE_OFF_31
VEL_3
NOTE_ON_71
VEL_3
NOTE_ON_62
TIME_SHIFT_64ND_6
NOTE_OFF_71
NOTE_OFF_62
VEL_3
NOTE_ON_71
VEL_3
NOTE_ON_62
VEL_2
NOTE_ON_43
VEL_2
NOTE_ON_31
TIME_SHIFT_64ND_6
NOTE_OFF_71
NOTE_OFF_62
VEL_3
NOTE_ON_67
VEL_2
NOTE_ON_59
TIME_SHIFT_64ND_7
NOTE_OFF_67
NOTE_OFF_59
NOTE_OFF_43
NOTE_OFF_31
VEL_3
NOTE_ON_79
VEL_3
NOTE_ON_74
VEL_3
NOTE_ON_71
TIME_SHIFT_64ND_7
NOTE_OFF_79
NOTE_OFF_74
NOTE_OFF_71
VEL_4
NOTE_ON_79
VEL_3
NOTE_ON_74
VEL_3
NOTE_ON_71
VEL_3
NOTE_ON_43
VEL_2
NOTE_ON_31
TIME_SHIFT_64ND_19
NOTE_OFF_79
NOTE_OFF_74
NOTE_OFF_71
VEL_3
NOTE_ON_74
VEL_2
NOTE_ON_71
VEL_2
NOTE_ON_67
TIME_SHIFT_64ND_14
NOTE_OFF_74
NOTE_OFF_71
NOTE_OFF_67
NOTE_OFF_43
NOTE_OFF_31
VEL_4
NOTE_ON_86
VEL_4
NOTE_ON_79
VEL_3
NOTE_ON_71
TIME_SHIFT_64ND_6
NOTE_OFF_86
NOTE_OFF_79
NOTE_OFF_71
VEL_5
NOTE_ON_86
VEL_4
NOTE_ON_79
VEL_3
NOTE_ON_71
TIME_SHIFT_64ND_6
NOTE_OFF_86
NOTE_OFF_79
NOTE_OFF_71
VEL_4
NOTE_ON_83
VEL_3
NOTE_ON_74
VEL_3
NOTE_ON_67
TIME_SHIFT_64ND_6
NOTE_OFF_83
NOTE_OFF_74
NOTE_OFF_67
VEL_4
NOTE_ON_79
VEL_3
NOTE_ON_71
VEL_3
NOTE_ON_62
TIME_SHIFT_64ND_6
NOTE_OFF_79
NOTE_OFF_71
NOTE_OFF_62
VEL_4
NOTE_ON_79
VEL_3
NOTE_ON_71
VEL_3
NOTE_ON_62
TIME_SHIFT_64ND_6
NOTE_OFF_79
NOTE_OFF_71
NOTE_OFF_62
VEL_4
NOTE_ON_74
VEL_3
NOTE_ON_67
VEL_3
NOTE_ON_59
TIME_SHIFT_64ND_6
NOTE_OFF_74
NOTE_OFF_67
NOTE_OFF_59
VEL_4
NOTE_ON_71
VEL_3
NOTE_ON_62
VEL_3
NOTE_ON_55
TIME_SHIFT_64ND_7
NOTE_OFF_71
NOTE_OFF_62
NOTE_OFF_55
VEL_4
NOTE_ON_74
VEL_3
NOTE_ON_67
VEL_3
NOTE_ON_59
VEL_2
NOTE_ON_50
TIME_SHIFT_64ND_21
NOTE_OFF_74
NOTE_OFF_67
NOTE_OFF_59
NOTE_OFF_50
VEL_2
NOTE_ON_69
VEL_2
NOTE_ON_60
VEL_2
NOTE_ON_62
VEL_2
NOTE_ON_66
VEL_2
NOTE_ON_50
VEL_2
NOTE_ON_38
TIME_SHIFT_64ND_14
NOTE_OFF_69
NOTE_OFF_60
NOTE_OFF_62
NOTE_OFF_66
NOTE_OFF_50
NOTE_OFF_38
VEL_2
NOTE_ON_71
TIME_SHIFT_64ND_7
NOTE_OFF_71
VEL_2
NOTE_ON_67
VEL_2
NOTE_ON_62
VEL_2
NOTE_ON_59
VEL_2
NOTE_ON_43
VEL_1
NOTE_ON_31
TIME_SHIFT_64ND_14
NOTE_OFF_43
NOTE_OFF_31
TIME_SHIFT_64ND_21
NOTE_OFF_67
NOTE_OFF_62
NOTE_OFF_59
VEL_3
NOTE_ON_62
VEL_2
NOTE_ON_50
TIME_SHIFT_64ND_7
NOTE_OFF_62
NOTE_OFF_50
VEL_3
NOTE_ON_67
VEL_3
NOTE_ON_62
VEL_2
NOTE_ON_55
VEL_2
NOTE_ON_50
VEL_2
NOTE_ON_47
TIME_SHIFT_64ND_13
NOTE_OFF_67
NOTE_OFF_62
NOTE_OFF_55
NOTE_OFF_50
NOTE_OFF_47
VEL_3
NOTE_ON_66
VEL_3
NOTE_ON_62
VEL_2
NOTE_ON_54
VEL_2
NOTE_ON_50
VEL_2
NOTE_ON_45
TIME_SHIFT_64ND_7
NOTE_OFF_66
NOTE_OFF_62
NOTE_OFF_54
NOTE_OFF_50
NOTE_OFF_45
VEL_3
NOTE_ON_69
VEL_3
NOTE_ON_62
VEL_2
NOTE_ON_57
VEL_2
NOTE_ON_50
VEL_2
NOTE_ON_48
TIME_SHIFT_64ND_33
NOTE_OFF_69
NOTE_OFF_62
NOTE_OFF_57
NOTE_OFF_50
NOTE_OFF_48
VEL_3
NOTE_ON_67
VEL_2
NOTE_ON_55
VEL_2
NOTE_ON_50
VEL_2
NOTE_ON_47
TIME_SHIFT_64ND_7
NOTE_OFF_67
NOTE_OFF_55
NOTE_OFF_50
NOTE_OFF_47
VEL_3
NOTE_ON_72
VEL_3
NOTE_ON_67
VEL_2
NOTE_ON_60
VEL_2
NOTE_ON_55
VEL_2
NOTE_ON_52
TIME_SHIFT_64ND_13
NOTE_OFF_72
NOTE_OFF_67
NOTE_OFF_60
NOTE_OFF_55
NOTE_OFF_52
VEL_3
NOTE_ON_71
VEL_3
NOTE_ON_67
VEL_2
NOTE_ON_59
VEL_2
NOTE_ON_55
VEL_2
NOTE_ON_50
TIME_SHIFT_64ND_7
NOTE_OFF_71
NOTE_OFF_67
NOTE_OFF_59
NOTE_OFF_55
NOTE_OFF_50
VEL_3
NOTE_ON_76
VEL_3
NOTE_ON_67
VEL_3
NOTE_ON_64
VEL_2
NOTE_ON_60
TIME_SHIFT_64ND_33
NOTE_OFF_76
NOTE_OFF_67
NOTE_OFF_64
NOTE_OFF_60
VEL_4
NOTE_ON_74
VEL_3
NOTE_ON_67
VEL_2
NOTE_ON_59
VEL_2
NOTE_ON_62
TIME_SHIFT_64ND_7
NOTE_OFF_74
NOTE_OFF_67
NOTE_OFF_59
NOTE_OFF_62
VEL_4
NOTE_ON_74
VEL_3
NOTE_ON_67
VEL_2
NOTE_ON_59
VEL_3
NOTE_ON_62
TIME_SHIFT_64ND_13
NOTE_OFF_74
NOTE_OFF_67
NOTE_OFF_59
NOTE_OFF_62
VEL_4
NOTE_ON_74
VEL_3
NOTE_ON_66
VEL_2
NOTE_ON_57
VEL_2
NOTE_ON_60
VEL_3
NOTE_ON_62
TIME_SHIFT_64ND_8
NOTE_OFF_74
NOTE_OFF_66
NOTE_OFF_57
NOTE_OFF_60
NOTE_OFF_62
VEL_4
NOTE_ON_79
VEL_3
NOTE_ON_67
VEL_2
NOTE_ON_59
VEL_3
NOTE_ON_62
VEL_2
NOTE_ON_55
TIME_SHIFT_64ND_13
NOTE_OFF_79
VEL_4
NOTE_ON_74
TIME_SHIFT_64ND_7
NOTE_OFF_74
VEL_4
NOTE_ON_71
TIME_SHIFT_64ND_13
NOTE_OFF_71
NOTE_OFF_67
NOTE_OFF_59
NOTE_OFF_62
NOTE_OFF_55
VEL_3
NOTE_ON_67
VEL_2
NOTE_ON_62
VEL_2
NOTE_ON_59
VEL_2
NOTE_ON_55
TIME_SHIFT_64ND_5
NOTE_OFF_67
NOTE_OFF_62
VEL_3
NOTE_ON_69
TIME_SHIFT_64ND_2
NOTE_OFF_69
NOTE_OFF_59
NOTE_OFF_55
VEL_3
NOTE_ON_67
VEL_2
NOTE_ON_61
VEL_2
NOTE_ON_55
VEL_2
NOTE_ON_52
TIME_SHIFT_64ND_6
NOTE_OFF_67
VEL_3
NOTE_ON_66
TIME_SHIFT_64ND_6
NOTE_OFF_66
NOTE_OFF_61
NOTE_OFF_55
NOTE_OFF_52
VEL_2
NOTE_ON_67
VEL_2
NOTE_ON_61
VEL_2
NOTE_ON_55
VEL_1
NOTE_ON_52
TIME_SHIFT_64ND_7
NOTE_OFF_67
NOTE_OFF_61
NOTE_OFF_55
NOTE_OFF_52
VEL_3
NOTE_ON_71
VEL_2
NOTE_ON_62
VEL_2
NOTE_ON_59
VEL_2
NOTE_ON_55
VEL_1
NOTE_ON_50
TIME_SHIFT_64ND_20
NOTE_OFF_71
NOTE_OFF_59
NOTE_OFF_55
VEL_2
NOTE_ON_69
VEL_2
NOTE_ON_57
VEL_1
NOTE_ON_54
TIME_SHIFT_64ND_14
NOTE_OFF_69
NOTE_OFF_62
NOTE_OFF_57
NOTE_OFF_54
NOTE_OFF_50
VEL_3
NOTE_ON_62
VEL_2
NOTE_ON_60
TIME_SHIFT_64ND_7
NOTE_OFF_62
NOTE_OFF_60
VEL_3
NOTE_ON_67
VEL_3
NOTE_ON_62
VEL_3
NOTE_ON_59
VEL_2
NOTE_ON_50
VEL_2
NOTE_ON_43
TIME_SHIFT_64ND_13
NOTE_OFF_67
NOTE_OFF_62
NOTE_OFF_59
VEL_3
NOTE_ON_66
VEL_3
NOTE_ON_62
VEL_3
NOTE_ON_57
TIME_SHIFT_64ND_7
NOTE_OFF_66
NOTE_OFF_62
NOTE_OFF_57
NOTE_OFF_50
NOTE_OFF_43
VEL_3
NOTE_ON_69
VEL_3
NOTE_ON_62
VEL_3
NOTE_ON_60
VEL_2
NOTE_ON_50
VEL_2
NOTE_ON_38
TIME_SHIFT_64ND_33
NOTE_OFF_69
NOTE_OFF_62
NOTE_OFF_60
NOTE_OFF_50
NOTE_OFF_38
VEL_4
NOTE_ON_67
VEL_3
NOTE_ON_62
VEL_3
NOTE_ON_59
VEL_3
NOTE_ON_50
VEL_2
NOTE_ON_43
TIME_SHIFT_64ND_7
NOTE_OFF_67
NOTE_OFF_62
NOTE_OFF_59
NOTE_OFF_50
NOTE_OFF_43
VEL_4
NOTE_ON_72
VEL_3
NOTE_ON_67
VEL_3
NOTE_ON_60
VEL_2
NOTE_ON_55
VEL_2
NOTE_ON_52
TIME_SHIFT_64ND_13
NOTE_OFF_72
NOTE_OFF_67
NOTE_OFF_60
NOTE_OFF_55
NOTE_OFF_52
VEL_4
NOTE_ON_71
VEL_3
NOTE_ON_67
VEL_3
NOTE_ON_59
VEL_2
NOTE_ON_55
VEL_2
NOTE_ON_50
TIME_SHIFT_64ND_7
NOTE_OFF_71
NOTE_OFF_67
NOTE_OFF_59
NOTE_OFF_55
NOTE_OFF_50
VEL_4
NOTE_ON_76
VEL_3
NOTE_ON_67
VEL_3
NOTE_ON_64
VEL_3
NOTE_ON_60
VEL_2
NOTE_ON_55
VEL_2
NOTE_ON_48
TIME_SHIFT_64ND_33
NOTE_OFF_76
NOTE_OFF_67
NOTE_OFF_64
NOTE_OFF_60
NOTE_OFF_55
NOTE_OFF_48
VEL_4
NOTE_ON_74
VEL_3
NOTE_ON_67
VEL_3
NOTE_ON_62
VEL_2
NOTE_ON_55
VEL_3
NOTE_ON_59
VEL_2
NOTE_ON_47
TIME_SHIFT_64ND_7
NOTE_OFF_74
NOTE_OFF_67
NOTE_OFF_62
NOTE_OFF_55
NOTE_OFF_59
NOTE_OFF_47
VEL_4
NOTE_ON_79
VEL_4
NOTE_ON_67
VEL_4
NOTE_ON_74
VEL_2
NOTE_ON_55
VEL_3
NOTE_ON_62
VEL_2
NOTE_ON_52
TIME_SHIFT_64ND_13
NOTE_OFF_79
NOTE_OFF_67
NOTE_OFF_74
NOTE_OFF_55
NOTE_OFF_62
NOTE_OFF_52
VEL_4
NOTE_ON_79
VEL_3
NOTE_ON_67
VEL_3
NOTE_ON_72
VEL_2
NOTE_ON_52
VEL_2
NOTE_ON_55
VEL_3
NOTE_ON_60
TIME_SHIFT_64ND_7
NOTE_OFF_79
NOTE_OFF_67
NOTE_OFF_72
NOTE_OFF_52
NOTE_OFF_55
NOTE_OFF_60
VEL_4
NOTE_ON_79
VEL_4
NOTE_ON_71
VEL_3
NOTE_ON_55
VEL_3
NOTE_ON_59
VEL_3
NOTE_ON_50
TIME_SHIFT_64ND_13
NOTE_OFF_79
NOTE_OFF_71
VEL_4
NOTE_ON_74
VEL_3
NOTE_ON_71
VEL_3
NOTE_ON_67
TIME_SHIFT_64ND_7
NOTE_OFF_74
NOTE_OFF_71
NOTE_OFF_67
VEL_4
NOTE_ON_71
VEL_3
NOTE_ON_67
VEL_3
NOTE_ON_62
TIME_SHIFT_64ND_13
NOTE_OFF_71
NOTE_OFF_67
NOTE_OFF_62
NOTE_OFF_55
NOTE_OFF_59
NOTE_OFF_50
VEL_2
NOTE_ON_71
VEL_2
NOTE_ON_67
VEL_2
NOTE_ON_62
TIME_SHIFT_64ND_7
NOTE_OFF_71
NOTE_OFF_67
NOTE_OFF_62
VEL_3
NOTE_ON_72
VEL_2
NOTE_ON_60
VEL_2
NOTE_ON_62
VEL_2
NOTE_ON_66
VEL_2
NOTE_ON_38
VEL_2
NOTE_ON_50
TIME_SHIFT_64ND_13
NOTE_OFF_72
VEL_2
NOTE_ON_69
TIME_SHIFT_64ND_7
NOTE_OFF_69
NOTE_OFF_60
NOTE_OFF_62
NOTE_OFF_66
NOTE_OFF_38
VEL_3
NOTE_ON_67
VEL_2
NOTE_ON_62
VEL_2
NOTE_ON_59
VEL_1
NOTE_ON_43
TIME_SHIFT_64ND_14
NOTE_OFF_43
NOTE_OFF_50
VEL_2
NOTE_ON_50
TIME_SHIFT_64ND_5
NOTE_OFF_50
TIME_SHIFT_64ND_2
NOTE_OFF_67
NOTE_OFF_62
NOTE_OFF_59
VEL_2
NOTE_ON_50
TIME_SHIFT_64ND_14
NOTE_OFF_50
VEL_2
NOTE_ON_67
VEL_2
NOTE_ON_62
VEL_2
NOTE_ON_59
VEL_2
NOTE_ON_50
TIME_SHIFT_64ND_7
NOTE_OFF_67
NOTE_OFF_62
NOTE_OFF_59
NOTE_OFF_50
VEL_2
NOTE_ON_66
VEL_2
NOTE_ON_62
VEL_2
NOTE_ON_57
VEL_2
NOTE_ON_50
TIME_SHIFT_64ND_13
NOTE_OFF_66
NOTE_OFF_62
NOTE_OFF_57
NOTE_OFF_50
VEL_2
NOTE_ON_67
VEL_2
NOTE_ON_62
VEL_2
NOTE_ON_59
VEL_2
NOTE_ON_50
TIME_SHIFT_64ND_7
NOTE_OFF_67
NOTE_OFF_62
NOTE_OFF_59
NOTE_OFF_50
VEL_2
NOTE_ON_71
VEL_2
NOTE_ON_62
VEL_2
NOTE_ON_50
VEL_1
NOTE_ON_38
TIME_SHIFT_64ND_13
NOTE_OFF_71
NOTE_OFF_50
VEL_2
NOTE_ON_69
VEL_2
NOTE_ON_60
VEL_2
NOTE_ON_50
TIME_SHIFT_64ND_6
NOTE_OFF_69
NOTE_OFF_60
NOTE_OFF_50
VEL_2
NOTE_ON_66
VEL_2
NOTE_ON_57
VEL_2
NOTE_ON_50
TIME_SHIFT_64ND_13
NOTE_OFF_50
NOTE_OFF_38
VEL_2
NOTE_ON_50
VEL_1
NOTE_ON_38
TIME_SHIFT_64ND_5
NOTE_OFF_50
NOTE_OFF_38
TIME_SHIFT_64ND_2
VEL_2
NOTE_ON_50
VEL_1
NOTE_ON_38
TIME_SHIFT_64ND_13
NOTE_OFF_66
NOTE_OFF_57
NOTE_OFF_62
NOTE_OFF_50
NOTE_OFF_38
VEL_2
NOTE_ON_67
VEL_2
NOTE_ON_62
VEL_2
NOTE_ON_59
VEL_2
NOTE_ON_50
VEL_1
NOTE_ON_38
TIME_SHIFT_64ND_7
NOTE_OFF_67
NOTE_OFF_62
NOTE_OFF_59
NOTE_OFF_50
NOTE_OFF_38
VEL_2
NOTE_ON_71
VEL_2
NOTE_ON_62
VEL_2
NOTE_ON_50
VEL_1
NOTE_ON_38
TIME_SHIFT_64ND_13
NOTE_OFF_71
NOTE_OFF_50
VEL_2
NOTE_ON_69
VEL_2
NOTE_ON_60
VEL_2
NOTE_ON_50
TIME_SHIFT_64ND_6
NOTE_OFF_69
NOTE_OFF_60
NOTE_OFF_50
VEL_2
NOTE_ON_66
VEL_2
NOTE_ON_57
VEL_2
NOTE_ON_50
TIME_SHIFT_64ND_13
NOTE_OFF_50
NOTE_OFF_38
VEL_2
NOTE_ON_50
VEL_1
NOTE_ON_38
TIME_SHIFT_64ND_5
NOTE_OFF_50
NOTE_OFF_38
TIME_SHIFT_64ND_2
VEL_2
NOTE_ON_50
VEL_2
NOTE_ON_38
TIME_SHIFT_64ND_13
NOTE_OFF_66
NOTE_OFF_57
NOTE_OFF_62
NOTE_OFF_50
NOTE_OFF_38
VEL_3
NOTE_ON_67
VEL_3
NOTE_ON_62
VEL_3
NOTE_ON_59
VEL_2
NOTE_ON_50
VEL_1
NOTE_ON_38
TIME_SHIFT_64ND_7
NOTE_OFF_67
NOTE_OFF_62
NOTE_OFF_59
NOTE_OFF_50
NOTE_OFF_38
VEL_4
NOTE_ON_74
VEL_3
NOTE_ON_65
VEL_2
NOTE_ON_50
VEL_2
NOTE_ON_38
TIME_SHIFT_64ND_13
NOTE_OFF_74
NOTE_OFF_65
NOTE_OFF_50
VEL_4
NOTE_ON_74
VEL_3
NOTE_ON_65
VEL_2
NOTE_ON_50
TIME_SHIFT_64ND_7
NOTE_OFF_74
NOTE_OFF_65
NOTE_OFF_50
VEL_4
NOTE_ON_72
VEL_3
NOTE_ON_65
VEL_3
NOTE_ON_64
VEL_2
NOTE_ON_50
TIME_SHIFT_64ND_14
NOTE_OFF_72
NOTE_OFF_65
NOTE_OFF_64
NOTE_OFF_50
NOTE_OFF_38
VEL_4
NOTE_ON_71
VEL_3
NOTE_ON_65
VEL_3
NOTE_ON_62
VEL_2
NOTE_ON_50
VEL_2
NOTE_ON_38
TIME_SHIFT_64ND_7
NOTE_OFF_71
NOTE_OFF_65
NOTE_OFF_62
NOTE_OFF_50
NOTE_OFF_38
VEL_3
NOTE_ON_69
VEL_2
NOTE_ON_64
VEL_2
NOTE_ON_60
VEL_2
NOTE_ON_52
VEL_2
NOTE_ON_40
TIME_SHIFT_64ND_13
NOTE_OFF_69
NOTE_OFF_64
NOTE_OFF_60
NOTE_OFF_52
NOTE_OFF_40
VEL_2
NOTE_ON_68
VEL_2
NOTE_ON_59
VEL_2
NOTE_ON_62
VEL_2
NOTE_ON_64
VEL_2
NOTE_ON_52
VEL_1
NOTE_ON_40
TIME_SHIFT_64ND_7
NOTE_OFF_68
NOTE_OFF_59
NOTE_OFF_62
NOTE_OFF_64
NOTE_OFF_52
NOTE_OFF_40
VEL_2
NOTE_ON_68
VEL_2
NOTE_ON_59
VEL_2
NOTE_ON_62
VEL_2
NOTE_ON_64
VEL_2
NOTE_ON_40
VEL_2
NOTE_ON_52
TIME_SHIFT_64ND_22
NOTE_OFF_68
NOTE_OFF_59
NOTE_OFF_62
NOTE_OFF_40
VEL_2
NOTE_ON_69
VEL_2
NOTE_ON_60
VEL_2
NOTE_ON_45
TIME_SHIFT_64ND_15
NOTE_OFF_69
NOTE_OFF_60
NOTE_OFF_64
NOTE_OFF_45
NOTE_OFF_52
VEL_2
NOTE_ON_72
VEL_2
NOTE_ON_64
VEL_2
NOTE_ON_52
TIME_SHIFT_64ND_7
NOTE_OFF_72
NOTE_OFF_64
NOTE_OFF_52
VEL_2
NOTE_ON_71
VEL_2
NOTE_ON_62
VEL_2
NOTE_ON_52
TIME_SHIFT_64ND_13
NOTE_OFF_71
NOTE_OFF_62
NOTE_OFF_52
VEL_2
NOTE_ON_72
VEL_2
NOTE_ON_64
VEL_2
NOTE_ON_52
TIME_SHIFT_64ND_7
NOTE_OFF_72
NOTE_OFF_64
NOTE_OFF_52
VEL_2
NOTE_ON_76
VEL_2
NOTE_ON_67
VEL_2
NOTE_ON_55
VEL_2
NOTE_ON_43
TIME_SHIFT_64ND_13
NOTE_OFF_76
NOTE_OFF_55
VEL_2
NOTE_ON_74
VEL_2
NOTE_ON_65
VEL_2
NOTE_ON_55
TIME_SHIFT_64ND_7
NOTE_OFF_74
NOTE_OFF_65
NOTE_OFF_55
VEL_2
NOTE_ON_71
VEL_2
NOTE_ON_62
VEL_2
NOTE_ON_55
TIME_SHIFT_64ND_13
NOTE_OFF_67
NOTE_OFF_55
NOTE_OFF_43
VEL_2
NOTE_ON_67
VEL_2
NOTE_ON_55
VEL_2
NOTE_ON_43
TIME_SHIFT_64ND_5
NOTE_OFF_55
NOTE_OFF_43
TIME_SHIFT_64ND_2
NOTE_OFF_67
VEL_2
NOTE_ON_67
VEL_2
NOTE_ON_55
VEL_2
NOTE_ON_43
TIME_SHIFT_64ND_13
NOTE_OFF_67
NOTE_OFF_71
NOTE_OFF_62
NOTE_OFF_55
NOTE_OFF_43
VEL_3
NOTE_ON_72
VEL_2
NOTE_ON_67
VEL_2
NOTE_ON_64
VEL_2
NOTE_ON_55
VEL_2
NOTE_ON_48
TIME_SHIFT_64ND_7
NOTE_OFF_72
NOTE_OFF_67
NOTE_OFF_64
NOTE_OFF_55
NOTE_OFF_48
VEL_3
NOTE_ON_76
VEL_2
NOTE_ON_67
VEL_2
NOTE_ON_55
VEL_2
NOTE_ON_43
TIME_SHIFT_64ND_13
NOTE_OFF_76
NOTE_OFF_55
VEL_3
NOTE_ON_74
VEL_2
NOTE_ON_65
VEL_2
NOTE_ON_55
TIME_SHIFT_64ND_7
NOTE_OFF_74
NOTE_OFF_65
NOTE_OFF_55
VEL_3
NOTE_ON_71
VEL_2
NOTE_ON_62
VEL_3
NOTE_ON_55
TIME_SHIFT_64ND_13
NOTE_OFF_67
NOTE_OFF_55
NOTE_OFF_43
VEL_3
NOTE_ON_67
VEL_3
NOTE_ON_55
VEL_2
NOTE_ON_43
TIME_SHIFT_64ND_5
NOTE_OFF_55
NOTE_OFF_43
TIME_SHIFT_64ND_2
NOTE_OFF_67
VEL_3
NOTE_ON_67
VEL_3
NOTE_ON_55
VEL_2
NOTE_ON_43
TIME_SHIFT_64ND_13
NOTE_OFF_67
NOTE_OFF_71
NOTE_OFF_62
NOTE_OFF_55
NOTE_OFF_43
VEL_4
NOTE_ON_72
VEL_4
NOTE_ON_67
VEL_4
NOTE_ON_64
VEL_3
NOTE_ON_55
VEL_2
NOTE_ON_48
TIME_SHIFT_64ND_8
NOTE_OFF_72
NOTE_OFF_67
NOTE_OFF_64
NOTE_OFF_55
NOTE_OFF_48
VEL_4
NOTE_ON_79
VEL_4
NOTE_ON_76
VEL_3
NOTE_ON_67
VEL_3
NOTE_ON_64
TIME_SHIFT_64ND_13
NOTE_OFF_79
NOTE_OFF_76
NOTE_OFF_67
NOTE_OFF_64
VEL_4
NOTE_ON_78
VEL_4
NOTE_ON_74
VEL_3
NOTE_ON_66
VEL_3
NOTE_ON_62
TIME_SHIFT_64ND_7
NOTE_OFF_78
NOTE_OFF_74
NOTE_OFF_66
NOTE_OFF_62
VEL_4
NOTE_ON_76
VEL_4
NOTE_ON_72
VEL_3
NOTE_ON_60
VEL_3
NOTE_ON_64
TIME_SHIFT_64ND_14
NOTE_OFF_76
NOTE_OFF_72
NOTE_OFF_60
NOTE_OFF_64
VEL_4
NOTE_ON_74
VEL_3
NOTE_ON_71
VEL_3
NOTE_ON_62
VEL_2
NOTE_ON_59
TIME_SHIFT_64ND_7
NOTE_OFF_74
NOTE_OFF_71
NOTE_OFF_62
NOTE_OFF_59
VEL_4
NOTE_ON_72
VEL_3
NOTE_ON_69
VEL_2
NOTE_ON_57
VEL_3
NOTE_ON_60
TIME_SHIFT_64ND_14
NOTE_OFF_72
NOTE_OFF_69
NOTE_OFF_57
NOTE_OFF_60
VEL_2
NOTE_ON_71
VEL_2
NOTE_ON_67
VEL_1
NOTE_ON_55
VEL_2
NOTE_ON_59
VEL_1
NOTE_ON_49
TIME_SHIFT_64ND_9
NOTE_OFF_71
NOTE_OFF_67
NOTE_OFF_55
NOTE_OFF_59
NOTE_OFF_49
VEL_2
NOTE_ON_74
VEL_2
NOTE_ON_71
VEL_2
NOTE_ON_62
VEL_2
NOTE_ON_59
VEL_2
NOTE_ON_50
TIME_SHIFT_64ND_32
NOTE_OFF_74
NOTE_OFF_71
NOTE_OFF_62
NOTE_OFF_59
VEL_2
NOTE_ON_69
VEL_2
NOTE_ON_66
VEL_2
NOTE_ON_54
VEL_2
NOTE_ON_57
TIME_SHIFT_64ND_37
NOTE_OFF_69
NOTE_OFF_66
NOTE_OFF_54
NOTE_OFF_57
NOTE_OFF_50
VEL_3
NOTE_ON_62
VEL_2
NOTE_ON_60
TIME_SHIFT_64ND_7
NOTE_OFF_62
NOTE_OFF_60
VEL_3
NOTE_ON_67
VEL_3
NOTE_ON_62
VEL_3
NOTE_ON_59
TIME_SHIFT_64ND_13
NOTE_OFF_67
NOTE_OFF_62
NOTE_OFF_59
VEL_3
NOTE_ON_66
VEL_3
NOTE_ON_62
VEL_3
NOTE_ON_57
TIME_SHIFT_64ND_7
NOTE_OFF_66
NOTE_OFF_62
NOTE_OFF_57
VEL_3
NOTE_ON_69
VEL_3
NOTE_ON_62
VEL_3
NOTE_ON_60
TIME_SHIFT_64ND_13
VEL_2
NOTE_ON_50
VEL_2
NOTE_ON_38
TIME_SHIFT_64ND_7
NOTE_OFF_50
NOTE_OFF_38
VEL_2
NOTE_ON_50
VEL_2
NOTE_ON_38
TIME_SHIFT_64ND_13
NOTE_OFF_69
NOTE_OFF_62
NOTE_OFF_60
VEL_3
NOTE_ON_67
VEL_3
NOTE_ON_62
VEL_3
NOTE_ON_59
TIME_SHIFT_64ND_7
NOTE_OFF_67
NOTE_OFF_62
NOTE_OFF_59
NOTE_OFF_50
NOTE_OFF_38
VEL_4
NOTE_ON_72
VEL_3
NOTE_ON_67
VEL_3
NOTE_ON_64
VEL_2
NOTE_ON_38
VEL_2
NOTE_ON_50
TIME_SHIFT_64ND_13
NOTE_OFF_72
NOTE_OFF_67
NOTE_OFF_64
VEL_3
NOTE_ON_71
VEL_3
NOTE_ON_67
VEL_3
NOTE_ON_62
TIME_SHIFT_64ND_7
NOTE_OFF_71
NOTE_OFF_67
NOTE_OFF_62
NOTE_OFF_38
VEL_4
NOTE_ON_76
VEL_3
NOTE_ON_67
VEL_3
NOTE_ON_64
VEL_3
NOTE_ON_60
TIME_SHIFT_64ND_13
NOTE_OFF_50
VEL_3
NOTE_ON_50
TIME_SHIFT_64ND_7
NOTE_OFF_50
VEL_3
NOTE_ON_50
TIME_SHIFT_64ND_13
NOTE_OFF_76
NOTE_OFF_67
NOTE_OFF_64
NOTE_OFF_60
VEL_4
NOTE_ON_74
VEL_3
NOTE_ON_67
VEL_2
NOTE_ON_59
VEL_2
NOTE_ON_62
TIME_SHIFT_64ND_7
NOTE_OFF_74
NOTE_OFF_67
NOTE_OFF_59
NOTE_OFF_62
NOTE_OFF_50
VEL_4
NOTE_ON_74
VEL_3
NOTE_ON_64
VEL_3
NOTE_ON_67
VEL_2
NOTE_ON_58
VEL_3
NOTE_ON_61
VEL_2
NOTE_ON_50
TIME_SHIFT_64ND_13
NOTE_OFF_74
NOTE_OFF_64
NOTE_OFF_67
NOTE_OFF_58
NOTE_OFF_61
VEL_4
NOTE_ON_74
VEL_3
NOTE_ON_66
VEL_2
NOTE_ON_57
VEL_3
NOTE_ON_60
TIME_SHIFT_64ND_8
NOTE_OFF_74
NOTE_OFF_66
NOTE_OFF_57
NOTE_OFF_60
VEL_4
NOTE_ON_79
VEL_3
NOTE_ON_67
VEL_3
NOTE_ON_55
VEL_3
NOTE_ON_59
TIME_SHIFT_64ND_13
NOTE_OFF_79
NOTE_OFF_50
VEL_4
NOTE_ON_74
VEL_3
NOTE_ON_50
TIME_SHIFT_64ND_7
NOTE_OFF_74
NOTE_OFF_50
VEL_4
NOTE_ON_71
VEL_3
NOTE_ON_50
TIME_SHIFT_64ND_13
NOTE_OFF_71
NOTE_OFF_67
VEL_3
NOTE_ON_67
VEL_2
NOTE_ON_62
TIME_SHIFT_64ND_5
NOTE_OFF_67
NOTE_OFF_62
VEL_3
NOTE_ON_69
TIME_SHIFT_64ND_2
NOTE_OFF_69
NOTE_OFF_50
NOTE_OFF_55
NOTE_OFF_59
VEL_3
NOTE_ON_67
VEL_2
NOTE_ON_61
VEL_2
NOTE_ON_57
VEL_2
NOTE_ON_50
VEL_2
NOTE_ON_52
VEL_2
NOTE_ON_55
TIME_SHIFT_64ND_7
NOTE_OFF_67
VEL_3
NOTE_ON_66
TIME_SHIFT_64ND_7
NOTE_OFF_66
NOTE_OFF_61
VEL_2
NOTE_ON_67
VEL_2
NOTE_ON_61
TIME_SHIFT_64ND_7
NOTE_OFF_67
NOTE_OFF_61
NOTE_OFF_57
NOTE_OFF_50
NOTE_OFF_52
NOTE_OFF_55
VEL_3
NOTE_ON_71
VEL_2
NOTE_ON_62
VEL_2
NOTE_ON_59
VEL_2
NOTE_ON_55
VEL_1
NOTE_ON_50
TIME_SHIFT_64ND_20
NOTE_OFF_71
NOTE_OFF_59
NOTE_OFF_55
VEL_3
NOTE_ON_69
VEL_2
NOTE_ON_57
VEL_1
NOTE_ON_54
TIME_SHIFT_64ND_14
NOTE_OFF_69
NOTE_OFF_62
NOTE_OFF_57
NOTE_OFF_54
NOTE_OFF_50
VEL_3
NOTE_ON_69
VEL_2
NOTE_ON_62
VEL_2
NOTE_ON_54
VEL_2
NOTE_ON_48
TIME_SHIFT_64ND_7
NOTE_OFF_69
NOTE_OFF_62
NOTE_OFF_54
NOTE_OFF_48
VEL_3
NOTE_ON_71
VEL_2
NOTE_ON_62
VEL_3
NOTE_ON_55
VEL_2
NOTE_ON_48
TIME_SHIFT_64ND_13
NOTE_OFF_71
NOTE_OFF_62
NOTE_OFF_55
NOTE_OFF_48
VEL_3
NOTE_ON_72
VEL_2
NOTE_ON_62
VEL_3
NOTE_ON_57
VEL_2
NOTE_ON_48
TIME_SHIFT_64ND_7
NOTE_OFF_72
NOTE_OFF_62
NOTE_OFF_57
NOTE_OFF_48
VEL_3
NOTE_ON_76
VEL_3
NOTE_ON_62
VEL_3
NOTE_ON_60
VEL_2
NOTE_ON_47
TIME_SHIFT_64ND_13
NOTE_OFF_76
NOTE_OFF_60
VEL_3
NOTE_ON_74
VEL_2
NOTE_ON_59
TIME_SHIFT_64ND_6
NOTE_OFF_74
NOTE_OFF_59
VEL_3
NOTE_ON_71
VEL_2
NOTE_ON_55
TIME_SHIFT_64ND_13
NOTE_OFF_71
NOTE_OFF_62
NOTE_OFF_55
NOTE_OFF_47
VEL_3
NOTE_ON_69
VEL_2
NOTE_ON_62
VEL_3
NOTE_ON_54
VEL_2
NOTE_ON_48
TIME_SHIFT_64ND_7
NOTE_OFF_69
NOTE_OFF_62
NOTE_OFF_54
NOTE_OFF_48
VEL_3
NOTE_ON_71
VEL_3
NOTE_ON_62
VEL_3
NOTE_ON_55
VEL_2
NOTE_ON_48
TIME_SHIFT_64ND_13
NOTE_OFF_71
NOTE_OFF_62
NOTE_OFF_55
NOTE_OFF_48
VEL_3
NOTE_ON_72
VEL_2
NOTE_ON_62
VEL_3
NOTE_ON_57
VEL_2
NOTE_ON_48
TIME_SHIFT_64ND_7
NOTE_OFF_72
NOTE_OFF_62
NOTE_OFF_57
NOTE_OFF_48
VEL_4
NOTE_ON_76
VEL_3
NOTE_ON_62
VEL_3
NOTE_ON_60
VEL_2
NOTE_ON_47
TIME_SHIFT_64ND_13
NOTE_OFF_76
NOTE_OFF_60
VEL_3
NOTE_ON_74
VEL_2
NOTE_ON_59
TIME_SHIFT_64ND_6
NOTE_OFF_74
NOTE_OFF_59
VEL_3
NOTE_ON_71
VEL_2
NOTE_ON_55
TIME_SHIFT_64ND_13
NOTE_OFF_71
NOTE_OFF_62
NOTE_OFF_55
NOTE_OFF_47
VEL_4
NOTE_ON_67
VEL_3
NOTE_ON_55
TIME_SHIFT_64ND_7
NOTE_OFF_67
NOTE_OFF_55
VEL_4
NOTE_ON_79
VEL_3
NOTE_ON_69
VEL_4
NOTE_ON_76
VEL_3
NOTE_ON_67
VEL_2
NOTE_ON_55
VEL_3
NOTE_ON_57
VEL_2
NOTE_ON_48
TIME_SHIFT_64ND_13
NOTE_OFF_79
NOTE_OFF_69
NOTE_OFF_76
NOTE_OFF_67
NOTE_OFF_55
NOTE_OFF_57
NOTE_OFF_48
VEL_4
NOTE_ON_79
VEL_3
NOTE_ON_69
VEL_4
NOTE_ON_76
VEL_3
NOTE_ON_67
VEL_2
NOTE_ON_48
VEL_2
NOTE_ON_55
VEL_3
NOTE_ON_57
TIME_SHIFT_64ND_7
NOTE_OFF_79
NOTE_OFF_69
NOTE_OFF_76
NOTE_OFF_67
NOTE_OFF_48
NOTE_OFF_55
NOTE_OFF_57
VEL_5
NOTE_ON_79
VEL_4
NOTE_ON_74
VEL_4
NOTE_ON_67
VEL_3
NOTE_ON_55
VEL_3
NOTE_ON_59
VEL_3
NOTE_ON_50
TIME_SHIFT_64ND_20
NOTE_OFF_79
NOTE_OFF_74
NOTE_OFF_67
VEL_4
NOTE_ON_74
VEL_3
NOTE_ON_71
TIME_SHIFT_64ND_13
NOTE_OFF_74
NOTE_OFF_71
NOTE_OFF_55
NOTE_OFF_59
NOTE_OFF_50
VEL_3
NOTE_ON_71
VEL_2
NOTE_ON_67
VEL_2
NOTE_ON_55
TIME_SHIFT_64ND_7
NOTE_OFF_71
NOTE_OFF_67
NOTE_OFF_55
VEL_3
NOTE_ON_72
VEL_2
NOTE_ON_66
VEL_2
NOTE_ON_57
VEL_2
NOTE_ON_50
TIME_SHIFT_64ND_7
NOTE_OFF_72
NOTE_OFF_57
VEL_3
NOTE_ON_76
VEL_2
NOTE_ON_60
TIME_SHIFT_64ND_7
NOTE_OFF_76
NOTE_OFF_60
VEL_3
NOTE_ON_74
VEL_2
NOTE_ON_59
TIME_SHIFT_64ND_7
NOTE_OFF_74
NOTE_OFF_66
NOTE_OFF_59
NOTE_OFF_50
VEL_3
NOTE_ON_72
VEL_2
NOTE_ON_66
VEL_2
NOTE_ON_57
VEL_2
NOTE_ON_50
TIME_SHIFT_64ND_20
NOTE_OFF_72
NOTE_OFF_66
NOTE_OFF_57
NOTE_OFF_50
VEL_3
NOTE_ON_71
VEL_2
NOTE_ON_67
VEL_2
NOTE_ON_55
TIME_SHIFT_64ND_14
NOTE_OFF_71
NOTE_OFF_67
NOTE_OFF_55
VEL_3
NOTE_ON_69
VEL_2
NOTE_ON_62
VEL_2
NOTE_ON_54
VEL_2
NOTE_ON_48
TIME_SHIFT_64ND_6
NOTE_OFF_69
NOTE_OFF_62
NOTE_OFF_54
NOTE_OFF_48
VEL_3
NOTE_ON_69
VEL_2
NOTE_ON_62
VEL_3
NOTE_ON_54
VEL_2
NOTE_ON_48
TIME_SHIFT_64ND_6
NOTE_OFF_69
NOTE_OFF_62
NOTE_OFF_54
NOTE_OFF_48
VEL_3
NOTE_ON_71
VEL_2
NOTE_ON_62
VEL_3
NOTE_ON_55
VEL_2
NOTE_ON_48
TIME_SHIFT_64ND_6
NOTE_OFF_71
NOTE_OFF_62
NOTE_OFF_55
NOTE_OFF_48
VEL_3
NOTE_ON_72
VEL_2
NOTE_ON_62
VEL_3
NOTE_ON_57
VEL_2
NOTE_ON_48
TIME_SHIFT_64ND_7
NOTE_OFF_72
NOTE_OFF_62
NOTE_OFF_57
NOTE_OFF_48
VEL_4
NOTE_ON_76
VEL_3
NOTE_ON_62
VEL_3
NOTE_ON_60
VEL_2
NOTE_ON_47
TIME_SHIFT_64ND_13
NOTE_OFF_76
NOTE_OFF_60
VEL_3
NOTE_ON_74
VEL_2
NOTE_ON_59
TIME_SHIFT_64ND_6
NOTE_OFF_74
NOTE_OFF_59
VEL_3
NOTE_ON_71
VEL_2
NOTE_ON_55
TIME_SHIFT_64ND_6
NOTE_OFF_71
NOTE_OFF_62
NOTE_OFF_55
NOTE_OFF_47
VEL_3
NOTE_ON_69
VEL_2
NOTE_ON_62
VEL_3
NOTE_ON_54
VEL_2
NOTE_ON_48
TIME_SHIFT_64ND_6
NOTE_OFF_69
NOTE_OFF_62
NOTE_OFF_54
NOTE_OFF_48
VEL_3
NOTE_ON_68
VEL_2
NOTE_ON_62
VEL_3
NOTE_ON_53
VEL_2
NOTE_ON_48
TIME_SHIFT_64ND_6
NOTE_OFF_68
NOTE_OFF_62
NOTE_OFF_53
NOTE_OFF_48
VEL_3
NOTE_ON_69
VEL_3
NOTE_ON_62
VEL_3
NOTE_ON_54
VEL_2
NOTE_ON_48
TIME_SHIFT_64ND_6
NOTE_OFF_69
NOTE_OFF_62
NOTE_OFF_54
NOTE_OFF_48
VEL_3
NOTE_ON_71
VEL_3
NOTE_ON_62
VEL_3
NOTE_ON_55
VEL_2
NOTE_ON_48
TIME_SHIFT_64ND_6
NOTE_OFF_71
NOTE_OFF_62
NOTE_OFF_55
NOTE_OFF_48
VEL_3
NOTE_ON_72
VEL_3
NOTE_ON_62
VEL_3
NOTE_ON_57
VEL_2
NOTE_ON_48
TIME_SHIFT_64ND_7
NOTE_OFF_72
NOTE_OFF_62
NOTE_OFF_57
NOTE_OFF_48
VEL_4
NOTE_ON_76
VEL_3
NOTE_ON_62
VEL_3
NOTE_ON_60
VEL_3
NOTE_ON_47
TIME_SHIFT_64ND_13
NOTE_OFF_76
NOTE_OFF_60
VEL_3
NOTE_ON_74
VEL_3
NOTE_ON_59
TIME_SHIFT_64ND_6
NOTE_OFF_74
NOTE_OFF_59
VEL_3
NOTE_ON_71
VEL_3
NOTE_ON_55
TIME_SHIFT_64ND_13
NOTE_OFF_71
NOTE_OFF_62
NOTE_OFF_55
NOTE_OFF_47
VEL_4
NOTE_ON_67
VEL_3
NOTE_ON_57
VEL_2
NOTE_ON_55
VEL_2
NOTE_ON_49
TIME_SHIFT_64ND_7
NOTE_OFF_67
NOTE_OFF_57
NOTE_OFF_55
NOTE_OFF_49
VEL_4
NOTE_ON_79
VEL_3
NOTE_ON_69
VEL_4
NOTE_ON_76
VEL_3
NOTE_ON_67
VEL_2
NOTE_ON_55
VEL_3
NOTE_ON_57
VEL_2
NOTE_ON_49
TIME_SHIFT_64ND_13
NOTE_OFF_79
NOTE_OFF_69
NOTE_OFF_76
NOTE_OFF_67
NOTE_OFF_55
NOTE_OFF_57
NOTE_OFF_49
VEL_4
NOTE_ON_79
VEL_3
NOTE_ON_69
VEL_4
NOTE_ON_76
VEL_3
NOTE_ON_67
VEL_2
NOTE_ON_49
VEL_2
NOTE_ON_55
VEL_3
NOTE_ON_57
TIME_SHIFT_64ND_7
NOTE_OFF_79
NOTE_OFF_69
NOTE_OFF_76
NOTE_OFF_67
NOTE_OFF_49
NOTE_OFF_55
NOTE_OFF_57
VEL_5
NOTE_ON_79
VEL_4
NOTE_ON_71
VEL_4
NOTE_ON_67
VEL_3
NOTE_ON_55
VEL_3
NOTE_ON_59
VEL_3
NOTE_ON_50
TIME_SHIFT_64ND_20
NOTE_OFF_79
NOTE_OFF_71
NOTE_OFF_67
VEL_4
NOTE_ON_74
VEL_3
NOTE_ON_71
TIME_SHIFT_64ND_13
NOTE_OFF_74
NOTE_OFF_71
NOTE_OFF_55
NOTE_OFF_59
NOTE_OFF_50
VEL_4
NOTE_ON_83
TIME_SHIFT_64ND_7
NOTE_OFF_83
VEL_4
NOTE_ON_79
TIME_SHIFT_64ND_13
NOTE_OFF_79
VEL_4
NOTE_ON_78
VEL_4
NOTE_ON_74
TIME_SHIFT_64ND_7
NOTE_OFF_78
NOTE_OFF_74
VEL_4
NOTE_ON_76
VEL_4
NOTE_ON_72
TIME_SHIFT_64ND_14
NOTE_OFF_76
NOTE_OFF_72
VEL_4
NOTE_ON_74
VEL_4
NOTE_ON_71
VEL_3
NOTE_ON_67
TIME_SHIFT_64ND_7
NOTE_OFF_74
NOTE_OFF_71
NOTE_OFF_67
VEL_3
NOTE_ON_72
VEL_3
NOTE_ON_67
VEL_3
NOTE_ON_64
TIME_SHIFT_64ND_14
NOTE_OFF_72
NOTE_OFF_67
NOTE_OFF_64
VEL_3
NOTE_ON_71
VEL_3
NOTE_ON_67
VEL_3
NOTE_ON_62
TIME_SHIFT_64ND_7
NOTE_OFF_71
NOTE_OFF_67
NOTE_OFF_62
VEL_3
NOTE_ON_69
VEL_3
NOTE_ON_67
VEL_3
NOTE_ON_64
VEL_3
NOTE_ON_61
TIME_SHIFT_64ND_14
NOTE_OFF_69
NOTE_OFF_67
NOTE_OFF_64
NOTE_OFF_61
VEL_3
NOTE_ON_76
VEL_3
NOTE_ON_67
VEL_3
NOTE_ON_64
VEL_3
NOTE_ON_61
TIME_SHIFT_64ND_7
NOTE_OFF_76
NOTE_OFF_67
NOTE_OFF_64
NOTE_OFF_61
VEL_3
NOTE_ON_76
VEL_3
NOTE_ON_67
VEL_3
NOTE_ON_64
VEL_3
NOTE_ON_61
TIME_SHIFT_64ND_21
NOTE_OFF_76
VEL_3
NOTE_ON_69
TIME_SHIFT_64ND_15
NOTE_OFF_69
NOTE_OFF_67
NOTE_OFF_64
NOTE_OFF_61
TIME_SHIFT_64ND_7
VEL_2
NOTE_ON_66
VEL_3
NOTE_ON_72
VEL_2
NOTE_ON_57
VEL_2
NOTE_ON_50
TIME_SHIFT_64ND_15
NOTE_OFF_66
NOTE_OFF_72
NOTE_OFF_57
NOTE_OFF_50
VEL_3
NOTE_ON_71
VEL_2
NOTE_ON_66
VEL_2
NOTE_ON_62
VEL_2
NOTE_ON_50
TIME_SHIFT_64ND_8
NOTE_OFF_71
NOTE_OFF_66
NOTE_OFF_62
NOTE_OFF_50
VEL_2
NOTE_ON_66
VEL_3
NOTE_ON_69
VEL_2
NOTE_ON_60
VEL_1
NOTE_ON_50
TIME_SHIFT_64ND_39
NOTE_OFF_66
NOTE_OFF_60
NOTE_OFF_50
VEL_3
NOTE_ON_62
VEL_2
NOTE_ON_59
TIME_SHIFT_64ND_6
NOTE_OFF_62
NOTE_OFF_59
NOTE_OFF_69
VEL_3
NOTE_ON_62
VEL_3
NOTE_ON_59
VEL_3
NOTE_ON_67
VEL_2
NOTE_ON_43
VEL_2
NOTE_ON_31
TIME_SHIFT_64ND_6
NOTE_OFF_62
NOTE_OFF_59
VEL_3
NOTE_ON_55
TIME_SHIFT_64ND_7
NOTE_OFF_55
NOTE_OFF_67
NOTE_OFF_43
NOTE_OFF_31
VEL_3
NOTE_ON_71
VEL_3
NOTE_ON_67
VEL_3
NOTE_ON_62
TIME_SHIFT_64ND_7
NOTE_OFF_71
NOTE_OFF_67
NOTE_OFF_62
VEL_3
NOTE_ON_71
VEL_3
NOTE_ON_67
VEL_3
NOTE_ON_62
VEL_2
NOTE_ON_43
VEL_2
NOTE_ON_31
TIME_SHIFT_64ND_19
NOTE_OFF_71
NOTE_OFF_67
NOTE_OFF_62
VEL_3
NOTE_ON_67
VEL_2
NOTE_ON_59
TIME_SHIFT_64ND_13
NOTE_OFF_67
NOTE_OFF_59
NOTE_OFF_43
NOTE_OFF_31
VEL_3
NOTE_ON_71
VEL_3
NOTE_ON_62
TIME_SHIFT_64ND_6
NOTE_OFF_71
NOTE_OFF_62
VEL_4
NOTE_ON_71
VEL_3
NOTE_ON_62
VEL_2
NOTE_ON_43
VEL_2
NOTE_ON_31
TIME_SHIFT_64ND_6
NOTE_OFF_71
NOTE_OFF_62
VEL_3
NOTE_ON_67
VEL_3
NOTE_ON_59
TIME_SHIFT_64ND_7
NOTE_OFF_67
NOTE_OFF_59
NOTE_OFF_43
NOTE_OFF_31
VEL_4
NOTE_ON_79
VEL_3
NOTE_ON_74
VEL_3
NOTE_ON_71
TIME_SHIFT_64ND_7
NOTE_OFF_79
NOTE_OFF_74
NOTE_OFF_71
VEL_4
NOTE_ON_79
VEL_3
NOTE_ON_74
VEL_3
NOTE_ON_71
VEL_3
NOTE_ON_38
TIME_SHIFT_64ND_19
NOTE_OFF_79
NOTE_OFF_74
NOTE_OFF_71
VEL_3
NOTE_ON_74
VEL_2
NOTE_ON_71
VEL_2
NOTE_ON_67
TIME_SHIFT_64ND_14
NOTE_OFF_74
NOTE_OFF_71
NOTE_OFF_67
NOTE_OFF_38
VEL_4
NOTE_ON_86
VEL_4
NOTE_ON_79
VEL_3
NOTE_ON_71
VEL_2
NOTE_ON_62
TIME_SHIFT_64ND_6
NOTE_OFF_86
NOTE_OFF_79
NOTE_OFF_71
NOTE_OFF_62
VEL_5
NOTE_ON_86
VEL_4
NOTE_ON_79
VEL_3
NOTE_ON_71
VEL_2
NOTE_ON_62
TIME_SHIFT_64ND_6
NOTE_OFF_86
NOTE_OFF_79
NOTE_OFF_71
NOTE_OFF_62
VEL_4
NOTE_ON_83
VEL_3
NOTE_ON_74
VEL_3
NOTE_ON_67
TIME_SHIFT_64ND_6
NOTE_OFF_83
NOTE_OFF_74
NOTE_OFF_67
VEL_4
NOTE_ON_79
VEL_3
NOTE_ON_71
VEL_3
NOTE_ON_62
TIME_SHIFT_64ND_6
NOTE_OFF_79
NOTE_OFF_71
NOTE_OFF_62
VEL_4
NOTE_ON_79
VEL_3
NOTE_ON_71
VEL_3
NOTE_ON_62
VEL_3
NOTE_ON_50
TIME_SHIFT_64ND_6
NOTE_OFF_79
NOTE_OFF_71
NOTE_OFF_62
NOTE_OFF_50
VEL_4
NOTE_ON_74
VEL_3
NOTE_ON_67
VEL_3
NOTE_ON_59
TIME_SHIFT_64ND_6
NOTE_OFF_74
NOTE_OFF_67
NOTE_OFF_59
VEL_4
NOTE_ON_71
VEL_3
NOTE_ON_62
VEL_3
NOTE_ON_55
TIME_SHIFT_64ND_7
NOTE_OFF_71
NOTE_OFF_62
NOTE_OFF_55
VEL_4
NOTE_ON_74
VEL_3
NOTE_ON_67
VEL_3
NOTE_ON_59
TIME_SHIFT_64ND_23
NOTE_OFF_74
NOTE_OFF_67
NOTE_OFF_59
VEL_2
NOTE_ON_69
VEL_2
NOTE_ON_60
VEL_2
NOTE_ON_62
VEL_2
NOTE_ON_66
VEL_2
NOTE_ON_50
VEL_2
NOTE_ON_38
TIME_SHIFT_64ND_16
NOTE_OFF_69
NOTE_OFF_60
NOTE_OFF_62
NOTE_OFF_66
NOTE_OFF_50
NOTE_OFF_38
VEL_2
NOTE_ON_71
TIME_SHIFT_64ND_9
NOTE_OFF_71
VEL_2
NOTE_ON_67
VEL_2
NOTE_ON_62
VEL_2
NOTE_ON_59
VEL_2
NOTE_ON_43
VEL_1
NOTE_ON_31
TIME_SHIFT_64ND_39
NOTE_OFF_67
NOTE_OFF_62
NOTE_OFF_59
NOTE_OFF_43
NOTE_OFF_31
