VEL_3
NOTE_ON_40
TIME_SHIFT_64ND_8
NOTE_OFF_40
VEL_2
NOTE_ON_47
TIME_SHIFT_64ND_8
NOTE_OFF_47
VEL_2
NOTE_ON_52
TIME_SHIFT_64ND_8
NOTE_OFF_52
VEL_2
NOTE_ON_56
TIME_SHIFT_64ND_8
NOTE_OFF_56
VEL_2
NOTE_ON_59
TIME_SHIFT_64ND_8
NOTE_OFF_59
VEL_2
NOTE_ON_64
TIME_SHIFT_64ND_8
NOTE_OFF_64
VEL_2
NOTE_ON_68
TIME_SHIFT_64ND_8
NOTE_OFF_68
VEL_2
NOTE_ON_71
TIME_SHIFT_64ND_8
NOTE_OFF_71
VEL_2
NOTE_ON_56
TIME_SHIFT_64ND_8
NOTE_OFF_56
VEL_2
NOTE_ON_59
TIME_SHIFT_64ND_8
NOTE_OFF_59
VEL_2
NOTE_ON_64
TIME_SHIFT_64ND_8
NOTE_OFF_64
VEL_2
NOTE_ON_68
TIME_SHIFT_64ND_8
NOTE_OFF_68
VEL_2
NOTE_ON_71
TIME_SHIFT_64ND_8
NOTE_OFF_71
VEL_2
NOTE_ON_76
TIME_SHIFT_64ND_8
NOTE_OFF_76
VEL_2
NOTE_ON_80
TIME_SHIFT_64ND_8
NOTE_OFF_80
VEL_2
NOTE_ON_83
TIME_SHIFT_64ND_8
NOTE_OFF_83
VEL_2
NOTE_ON_59
TIME_SHIFT_64ND_8
NOTE_OFF_59
VEL_2
NOTE_ON_68
TIME_SHIFT_64ND_8
NOTE_OFF_68
VEL_2
NOTE_ON_71
TIME_SHIFT_64ND_8
NOTE_OFF_71
VEL_2
NOTE_ON_76
TIME_SHIFT_64ND_8
NOTE_OFF_76
VEL_2
NOTE_ON_80
TIME_SHIFT_64ND_8
NOTE_OFF_80
VEL_2
NOTE_ON_83
TIME_SHIFT_64ND_8
NOTE_OFF_83
VEL_2
NOTE_ON_88
TIME_SHIFT_64ND_8
NOTE_OFF_88
VEL_2
NOTE_ON_92
TIME_SHIFT_64ND_8
NOTE_OFF_92
VEL_2
NOTE_ON_95
TIME_SHIFT_64ND_17
NOTE_OFF_95
TIME_SHIFT_64ND_17
VEL_2
NOTE_ON_57
VEL_2
NOTE_ON_59
VEL_2
NOTE_ON_63
VEL_1
NOTE_ON_47
TIME_SHIFT_64ND_17
NOTE_OFF_57
NOTE_OFF_59
NOTE_OFF_63
NOTE_OFF_47
TIME_SHIFT_64ND_17
VEL_2
NOTE_ON_64
VEL_2
NOTE_ON_59
VEL_2
NOTE_ON_56
VEL_2
NOTE_ON_40
TIME_SHIFT_64ND_15
NOTE_OFF_64
NOTE_OFF_59
NOTE_OFF_56
NOTE_OFF_40
TIME_SHIFT_64ND_46
VEL_2
NOTE_ON_64
VEL_2
NOTE_ON_59
VEL_3
NOTE_ON_68
VEL_1
NOTE_ON_52
VEL_2
NOTE_ON_56
TIME_SHIFT_64ND_31
NOTE_OFF_64
NOTE_OFF_59
NOTE_OFF_68
VEL_2
NOTE_ON_66
TIME_SHIFT_64ND_24
NOTE_OFF_66
VEL_2
NOTE_ON_64
TIME_SHIFT_64ND_8
NOTE_OFF_64
TIME_SHIFT_64ND_1
NOTE_OFF_52
NOTE_OFF_56
VEL_3
NOTE_ON_71
VEL_2
NOTE_ON_64
VEL_1
NOTE_ON_49
VEL_1
NOTE_ON_52
VEL_2
NOTE_ON_57
TIME_SHIFT_64ND_15
NOTE_OFF_71
VEL_2
NOTE_ON_69
TIME_SHIFT_64ND_31
NOTE_OFF_69
VEL_2
NOTE_ON_68
TIME_SHIFT_64ND_14
NOTE_OFF_68
TIME_SHIFT_64ND_2
NOTE_OFF_64
NOTE_OFF_49
NOTE_OFF_52
NOTE_OFF_57
VEL_2
NOTE_ON_66
VEL_2
NOTE_ON_58
VEL_1
NOTE_ON_49
VEL_2
NOTE_ON_52
TIME_SHIFT_64ND_14
NOTE_OFF_66
TIME_SHIFT_64ND_2
VEL_2
NOTE_ON_64
TIME_SHIFT_64ND_14
NOTE_OFF_64
TIME_SHIFT_64ND_2
VEL_2
NOTE_ON_63
TIME_SHIFT_64ND_14
NOTE_OFF_63
TIME_SHIFT_64ND_2
VEL_2
NOTE_ON_64
TIME_SHIFT_64ND_16
NOTE_OFF_64
TIME_SHIFT_64ND_2
NOTE_OFF_58
NOTE_OFF_49
NOTE_OFF_52
VEL_2
NOTE_ON_68
VEL_2
NOTE_ON_59
VEL_1
NOTE_ON_52
VEL_1
NOTE_ON_47
TIME_SHIFT_64ND_32
NOTE_OFF_68
NOTE_OFF_52
VEL_2
NOTE_ON_66
VEL_1
NOTE_ON_51
TIME_SHIFT_64ND_16
NOTE_OFF_66
NOTE_OFF_59
NOTE_OFF_51
NOTE_OFF_47
TIME_SHIFT_64ND_16
VEL_3
NOTE_ON_59
VEL_3
NOTE_ON_62
VEL_3
NOTE_ON_66
VEL_2
NOTE_ON_47
VEL_2
NOTE_ON_54
TIME_SHIFT_64ND_31
NOTE_OFF_59
NOTE_OFF_62
NOTE_OFF_66
NOTE_OFF_47
NOTE_OFF_54
VEL_3
NOTE_ON_61
VEL_4
NOTE_ON_66
VEL_2
NOTE_ON_45
VEL_2
NOTE_ON_54
TIME_SHIFT_64ND_24
NOTE_OFF_61
NOTE_OFF_66
NOTE_OFF_45
NOTE_OFF_54
VEL_4
NOTE_ON_68
VEL_3
NOTE_ON_65
VEL_3
NOTE_ON_59
VEL_3
NOTE_ON_54
VEL_2
NOTE_ON_44
TIME_SHIFT_64ND_8
NOTE_OFF_68
NOTE_OFF_65
NOTE_OFF_59
NOTE_OFF_54
NOTE_OFF_44
VEL_4
NOTE_ON_69
VEL_3
NOTE_ON_66
VEL_3
NOTE_ON_57
VEL_2
NOTE_ON_42
VEL_3
NOTE_ON_54
TIME_SHIFT_64ND_47
NOTE_OFF_69
NOTE_OFF_66
NOTE_OFF_57
VEL_2
NOTE_ON_66
TIME_SHIFT_64ND_16
NOTE_OFF_66
NOTE_OFF_42
NOTE_OFF_54
VEL_2
NOTE_ON_61
VEL_2
NOTE_ON_57
VEL_1
NOTE_ON_47
VEL_1
NOTE_ON_54
TIME_SHIFT_64ND_16
NOTE_OFF_61
VEL_2
NOTE_ON_63
TIME_SHIFT_64ND_16
NOTE_OFF_63
VEL_2
NOTE_ON_68
TIME_SHIFT_64ND_26
NOTE_OFF_68
VEL_2
NOTE_ON_66
TIME_SHIFT_64ND_9
NOTE_OFF_66
NOTE_OFF_57
NOTE_OFF_47
NOTE_OFF_54
VEL_2
NOTE_ON_56
VEL_2
NOTE_ON_64
VEL_1
NOTE_ON_40
TIME_SHIFT_64ND_31
NOTE_OFF_56
NOTE_OFF_64
NOTE_OFF_40
TIME_SHIFT_64ND_31
VEL_2
NOTE_ON_64
VEL_2
NOTE_ON_59
VEL_3
NOTE_ON_68
VEL_1
NOTE_ON_52
VEL_2
NOTE_ON_56
TIME_SHIFT_64ND_31
NOTE_OFF_64
NOTE_OFF_59
NOTE_OFF_68
VEL_2
NOTE_ON_66
TIME_SHIFT_64ND_24
NOTE_OFF_66
VEL_2
NOTE_ON_64
TIME_SHIFT_64ND_8
NOTE_OFF_64
TIME_SHIFT_64ND_1
NOTE_OFF_52
NOTE_OFF_56
VEL_4
NOTE_ON_76
VEL_3
NOTE_ON_64
VEL_2
NOTE_ON_49
VEL_2
NOTE_ON_56
VEL_2
NOTE_ON_61
TIME_SHIFT_64ND_46
NOTE_OFF_76
VEL_3
NOTE_ON_75
TIME_SHIFT_64ND_14
NOTE_OFF_75
TIME_SHIFT_64ND_2
NOTE_OFF_49
NOTE_OFF_56
NOTE_OFF_61
VEL_3
NOTE_ON_73
VEL_2
NOTE_ON_61
TIME_SHIFT_64ND_14
NOTE_OFF_73
TIME_SHIFT_64ND_2
VEL_3
NOTE_ON_71
TIME_SHIFT_64ND_14
NOTE_OFF_71
TIME_SHIFT_64ND_2
NOTE_OFF_64
VEL_3
NOTE_ON_69
VEL_3
NOTE_ON_65
VEL_2
NOTE_ON_59
TIME_SHIFT_64ND_14
NOTE_OFF_69
TIME_SHIFT_64ND_2
VEL_3
NOTE_ON_68
TIME_SHIFT_64ND_15
NOTE_OFF_68
TIME_SHIFT_64ND_2
NOTE_OFF_59
NOTE_OFF_61
VEL_3
NOTE_ON_73
VEL_2
NOTE_ON_57
VEL_2
NOTE_ON_61
TIME_SHIFT_64ND_32
NOTE_OFF_73
NOTE_OFF_65
VEL_2
NOTE_ON_66
TIME_SHIFT_64ND_16
NOTE_OFF_66
NOTE_OFF_57
NOTE_OFF_61
TIME_SHIFT_64ND_16
VEL_2
NOTE_ON_59
VEL_2
NOTE_ON_62
VEL_3
NOTE_ON_66
VEL_1
NOTE_ON_47
VEL_2
NOTE_ON_54
TIME_SHIFT_64ND_31
NOTE_OFF_59
NOTE_OFF_62
NOTE_OFF_66
NOTE_OFF_47
NOTE_OFF_54
VEL_2
NOTE_ON_61
VEL_3
NOTE_ON_66
VEL_1
NOTE_ON_45
VEL_2
NOTE_ON_54
TIME_SHIFT_64ND_24
NOTE_OFF_61
NOTE_OFF_66
NOTE_OFF_45
NOTE_OFF_54
VEL_3
NOTE_ON_68
VEL_2
NOTE_ON_65
VEL_2
NOTE_ON_59
VEL_2
NOTE_ON_54
VEL_2
NOTE_ON_44
TIME_SHIFT_64ND_8
NOTE_OFF_68
NOTE_OFF_65
NOTE_OFF_59
NOTE_OFF_54
NOTE_OFF_44
VEL_3
NOTE_ON_69
VEL_2
NOTE_ON_66
VEL_2
NOTE_ON_57
VEL_2
NOTE_ON_42
VEL_2
NOTE_ON_54
TIME_SHIFT_64ND_47
NOTE_OFF_69
NOTE_OFF_66
NOTE_OFF_57
VEL_2
NOTE_ON_66
TIME_SHIFT_64ND_16
NOTE_OFF_66
NOTE_OFF_42
NOTE_OFF_54
VEL_2
NOTE_ON_61
VEL_2
NOTE_ON_57
VEL_1
NOTE_ON_35
VEL_1
NOTE_ON_47
TIME_SHIFT_64ND_16
NOTE_OFF_61
VEL_2
NOTE_ON_63
TIME_SHIFT_64ND_16
NOTE_OFF_63
VEL_2
NOTE_ON_68
TIME_SHIFT_64ND_26
NOTE_OFF_68
VEL_2
NOTE_ON_66
TIME_SHIFT_64ND_9
NOTE_OFF_66
NOTE_OFF_57
NOTE_OFF_35
NOTE_OFF_47
VEL_2
NOTE_ON_56
VEL_2
NOTE_ON_64
VEL_1
NOTE_ON_40
TIME_SHIFT_64ND_47
NOTE_OFF_56
NOTE_OFF_64
NOTE_OFF_40
TIME_SHIFT_64ND_16
VEL_3
NOTE_ON_56
VEL_3
NOTE_ON_59
VEL_2
NOTE_ON_52
VEL_2
NOTE_ON_40
TIME_SHIFT_64ND_31
NOTE_OFF_56
NOTE_OFF_59
NOTE_OFF_52
NOTE_OFF_40
VEL_3
NOTE_ON_58
VEL_4
NOTE_ON_61
VEL_3
NOTE_ON_54
VEL_3
NOTE_ON_51
VEL_2
NOTE_ON_39
TIME_SHIFT_64ND_24
NOTE_OFF_58
NOTE_OFF_61
NOTE_OFF_54
VEL_4
NOTE_ON_63
VEL_3
NOTE_ON_60
TIME_SHIFT_64ND_8
NOTE_OFF_63
NOTE_OFF_60
NOTE_OFF_51
NOTE_OFF_39
VEL_3
NOTE_ON_56
VEL_3
NOTE_ON_61
VEL_4
NOTE_ON_64
VEL_3
NOTE_ON_49
VEL_3
NOTE_ON_37
TIME_SHIFT_64ND_31
NOTE_OFF_49
NOTE_OFF_37
VEL_3
NOTE_ON_35
VEL_3
NOTE_ON_47
TIME_SHIFT_64ND_16
NOTE_OFF_56
NOTE_OFF_61
NOTE_OFF_64
VEL_3
NOTE_ON_61
VEL_3
NOTE_ON_64
VEL_3
NOTE_ON_68
TIME_SHIFT_64ND_14
NOTE_OFF_61
NOTE_OFF_64
NOTE_OFF_68
TIME_SHIFT_64ND_2
NOTE_OFF_35
NOTE_OFF_47
VEL_3
NOTE_ON_61
VEL_3
NOTE_ON_64
VEL_3
NOTE_ON_66
VEL_4
NOTE_ON_46
VEL_3
NOTE_ON_34
TIME_SHIFT_64ND_14
NOTE_OFF_61
NOTE_OFF_64
NOTE_OFF_66
TIME_SHIFT_64ND_2
VEL_3
NOTE_ON_61
VEL_3
NOTE_ON_64
VEL_4
NOTE_ON_70
TIME_SHIFT_64ND_14
NOTE_OFF_61
NOTE_OFF_64
NOTE_OFF_70
TIME_SHIFT_64ND_2
NOTE_OFF_46
NOTE_OFF_34
VEL_3
NOTE_ON_61
VEL_3
NOTE_ON_64
VEL_4
NOTE_ON_73
VEL_3
NOTE_ON_32
VEL_4
NOTE_ON_44
TIME_SHIFT_64ND_24
NOTE_OFF_61
NOTE_OFF_64
NOTE_OFF_73
TIME_SHIFT_64ND_1
VEL_4
NOTE_ON_71
VEL_3
NOTE_ON_64
VEL_3
NOTE_ON_61
TIME_SHIFT_64ND_8
NOTE_OFF_71
NOTE_OFF_64
NOTE_OFF_61
TIME_SHIFT_64ND_1
NOTE_OFF_32
NOTE_OFF_44
VEL_3
NOTE_ON_64
VEL_4
NOTE_ON_71
VEL_3
NOTE_ON_61
VEL_4
NOTE_ON_42
VEL_3
NOTE_ON_30
TIME_SHIFT_64ND_31
NOTE_OFF_64
NOTE_OFF_71
NOTE_OFF_61
VEL_4
NOTE_ON_70
TIME_SHIFT_64ND_16
NOTE_OFF_70
TIME_SHIFT_64ND_16
NOTE_OFF_42
NOTE_OFF_30
VEL_4
NOTE_ON_68
VEL_4
NOTE_ON_76
VEL_4
NOTE_ON_71
VEL_3
NOTE_ON_30
VEL_4
NOTE_ON_42
TIME_SHIFT_64ND_31
NOTE_OFF_68
NOTE_OFF_76
NOTE_OFF_71
VEL_4
NOTE_ON_66
VEL_4
NOTE_ON_75
VEL_4
NOTE_ON_70
TIME_SHIFT_64ND_24
NOTE_OFF_66
NOTE_OFF_75
NOTE_OFF_70
VEL_3
NOTE_ON_64
VEL_3
NOTE_ON_73
TIME_SHIFT_64ND_8
NOTE_OFF_64
NOTE_OFF_73
NOTE_OFF_30
NOTE_OFF_42
VEL_4
NOTE_ON_71
VEL_4
NOTE_ON_66
VEL_4
NOTE_ON_63
VEL_3
NOTE_ON_30
VEL_4
NOTE_ON_42
TIME_SHIFT_64ND_31
NOTE_OFF_71
NOTE_OFF_66
NOTE_OFF_63
VEL_3
NOTE_ON_64
VEL_3
NOTE_ON_70
VEL_3
NOTE_ON_61
TIME_SHIFT_64ND_23
NOTE_OFF_64
NOTE_OFF_70
NOTE_OFF_61
VEL_3
NOTE_ON_68
VEL_2
NOTE_ON_63
VEL_2
NOTE_ON_59
TIME_SHIFT_64ND_8
NOTE_OFF_68
NOTE_OFF_63
NOTE_OFF_59
NOTE_OFF_30
NOTE_OFF_42
VEL_4
NOTE_ON_66
VEL_3
NOTE_ON_64
VEL_3
NOTE_ON_58
VEL_3
NOTE_ON_30
VEL_3
NOTE_ON_42
TIME_SHIFT_64ND_16
NOTE_OFF_66
NOTE_OFF_64
NOTE_OFF_58
VEL_3
NOTE_ON_64
VEL_3
NOTE_ON_61
TIME_SHIFT_64ND_16
NOTE_OFF_64
NOTE_OFF_61
VEL_4
NOTE_ON_68
VEL_3
NOTE_ON_64
VEL_3
NOTE_ON_58
TIME_SHIFT_64ND_16
NOTE_OFF_68
NOTE_OFF_64
NOTE_OFF_58
VEL_2
NOTE_ON_61
VEL_3
NOTE_ON_64
TIME_SHIFT_64ND_17
NOTE_OFF_61
NOTE_OFF_64
NOTE_OFF_30
NOTE_OFF_42
VEL_4
NOTE_ON_63
VEL_3
NOTE_ON_59
VEL_3
NOTE_ON_47
VEL_2
NOTE_ON_35
TIME_SHIFT_64ND_14
NOTE_OFF_63
NOTE_OFF_59
TIME_SHIFT_64ND_2
VEL_2
NOTE_ON_59
VEL_2
NOTE_ON_63
VEL_2
NOTE_ON_66
TIME_SHIFT_64ND_15
NOTE_OFF_59
NOTE_OFF_63
VEL_2
NOTE_ON_58
VEL_2
NOTE_ON_61
TIME_SHIFT_64ND_15
NOTE_OFF_58
NOTE_OFF_61
NOTE_OFF_66
VEL_2
NOTE_ON_64
VEL_2
NOTE_ON_56
VEL_2
NOTE_ON_59
TIME_SHIFT_64ND_13
NOTE_OFF_64
NOTE_OFF_56
NOTE_OFF_59
TIME_SHIFT_64ND_2
VEL_3
NOTE_ON_63
VEL_2
NOTE_ON_59
VEL_2
NOTE_ON_54
TIME_SHIFT_64ND_14
NOTE_OFF_63
TIME_SHIFT_64ND_2
VEL_2
NOTE_ON_64
TIME_SHIFT_64ND_14
NOTE_OFF_64
TIME_SHIFT_64ND_2
NOTE_OFF_59
NOTE_OFF_54
NOTE_OFF_47
NOTE_OFF_35
VEL_3
NOTE_ON_63
VEL_2
NOTE_ON_58
VEL_2
NOTE_ON_54
VEL_2
NOTE_ON_42
VEL_2
NOTE_ON_52
TIME_SHIFT_64ND_24
NOTE_OFF_63
VEL_2
NOTE_ON_61
TIME_SHIFT_64ND_9
NOTE_OFF_61
NOTE_OFF_58
NOTE_OFF_54
NOTE_OFF_42
NOTE_OFF_52
VEL_3
NOTE_ON_59
VEL_2
NOTE_ON_54
VEL_2
NOTE_ON_51
VEL_2
NOTE_ON_47
TIME_SHIFT_64ND_14
NOTE_OFF_59
NOTE_OFF_54
TIME_SHIFT_64ND_2
VEL_2
NOTE_ON_59
VEL_2
NOTE_ON_63
VEL_2
NOTE_ON_66
TIME_SHIFT_64ND_15
NOTE_OFF_59
NOTE_OFF_63
NOTE_OFF_51
NOTE_OFF_47
VEL_2
NOTE_ON_58
VEL_2
NOTE_ON_61
TIME_SHIFT_64ND_15
NOTE_OFF_58
NOTE_OFF_61
NOTE_OFF_66
VEL_2
NOTE_ON_64
VEL_2
NOTE_ON_56
VEL_2
NOTE_ON_59
TIME_SHIFT_64ND_13
NOTE_OFF_64
NOTE_OFF_56
NOTE_OFF_59
TIME_SHIFT_64ND_2
VEL_3
NOTE_ON_63
VEL_2
NOTE_ON_59
VEL_2
NOTE_ON_54
TIME_SHIFT_64ND_14
NOTE_OFF_63
TIME_SHIFT_64ND_2
VEL_2
NOTE_ON_64
TIME_SHIFT_64ND_14
NOTE_OFF_64
TIME_SHIFT_64ND_2
NOTE_OFF_59
NOTE_OFF_54
VEL_3
NOTE_ON_63
VEL_2
NOTE_ON_58
VEL_2
NOTE_ON_54
VEL_2
NOTE_ON_42
VEL_2
NOTE_ON_52
TIME_SHIFT_64ND_24
NOTE_OFF_63
VEL_2
NOTE_ON_61
TIME_SHIFT_64ND_9
NOTE_OFF_61
NOTE_OFF_58
NOTE_OFF_54
NOTE_OFF_42
NOTE_OFF_52
VEL_3
NOTE_ON_59
VEL_2
NOTE_ON_51
VEL_2
NOTE_ON_47
TIME_SHIFT_64ND_14
NOTE_OFF_59
NOTE_OFF_51
NOTE_OFF_47
TIME_SHIFT_64ND_2
VEL_2
NOTE_ON_66
VEL_2
NOTE_ON_63
VEL_3
NOTE_ON_71
VEL_3
NOTE_ON_59
VEL_2
NOTE_ON_47
TIME_SHIFT_64ND_16
NOTE_OFF_66
NOTE_OFF_63
NOTE_OFF_59
NOTE_OFF_47
VEL_3
NOTE_ON_64
VEL_3
NOTE_ON_49
VEL_3
NOTE_ON_59
TIME_SHIFT_64ND_18
NOTE_OFF_64
NOTE_OFF_71
NOTE_OFF_49
NOTE_OFF_59
VEL_3
NOTE_ON_66
VEL_3
NOTE_ON_69
VEL_2
NOTE_ON_51
VEL_3
NOTE_ON_59
TIME_SHIFT_64ND_18
NOTE_OFF_66
NOTE_OFF_69
NOTE_OFF_51
NOTE_OFF_59
TIME_SHIFT_64ND_2
VEL_2
NOTE_ON_64
VEL_2
NOTE_ON_59
VEL_3
NOTE_ON_68
VEL_1
NOTE_ON_52
VEL_2
NOTE_ON_56
TIME_SHIFT_64ND_31
NOTE_OFF_64
NOTE_OFF_59
NOTE_OFF_68
VEL_3
NOTE_ON_66
VEL_1
NOTE_ON_51
TIME_SHIFT_64ND_24
NOTE_OFF_66
VEL_2
NOTE_ON_64
TIME_SHIFT_64ND_8
NOTE_OFF_64
TIME_SHIFT_64ND_1
NOTE_OFF_51
NOTE_OFF_52
NOTE_OFF_56
VEL_3
NOTE_ON_71
VEL_2
NOTE_ON_64
VEL_1
NOTE_ON_49
VEL_1
NOTE_ON_52
VEL_2
NOTE_ON_57
TIME_SHIFT_64ND_15
NOTE_OFF_71
VEL_2
NOTE_ON_69
TIME_SHIFT_64ND_31
NOTE_OFF_69
VEL_2
NOTE_ON_68
TIME_SHIFT_64ND_14
NOTE_OFF_68
TIME_SHIFT_64ND_2
NOTE_OFF_64
NOTE_OFF_49
NOTE_OFF_52
NOTE_OFF_57
VEL_2
NOTE_ON_66
VEL_2
NOTE_ON_58
VEL_1
NOTE_ON_49
VEL_2
NOTE_ON_52
TIME_SHIFT_64ND_14
NOTE_OFF_66
TIME_SHIFT_64ND_2
VEL_2
NOTE_ON_64
TIME_SHIFT_64ND_14
NOTE_OFF_64
TIME_SHIFT_64ND_2
VEL_2
NOTE_ON_63
TIME_SHIFT_64ND_14
NOTE_OFF_63
TIME_SHIFT_64ND_2
VEL_2
NOTE_ON_64
TIME_SHIFT_64ND_16
NOTE_OFF_64
TIME_SHIFT_64ND_2
NOTE_OFF_58
NOTE_OFF_49
NOTE_OFF_52
VEL_2
NOTE_ON_68
VEL_2
NOTE_ON_59
VEL_1
NOTE_ON_52
VEL_1
NOTE_ON_47
TIME_SHIFT_64ND_32
NOTE_OFF_68
NOTE_OFF_52
VEL_2
NOTE_ON_66
VEL_1
NOTE_ON_51
TIME_SHIFT_64ND_16
NOTE_OFF_66
NOTE_OFF_59
NOTE_OFF_51
NOTE_OFF_47
TIME_SHIFT_64ND_16
VEL_3
NOTE_ON_59
VEL_3
NOTE_ON_62
VEL_3
NOTE_ON_66
VEL_2
NOTE_ON_47
VEL_2
NOTE_ON_54
TIME_SHIFT_64ND_31
NOTE_OFF_59
NOTE_OFF_62
NOTE_OFF_66
NOTE_OFF_47
NOTE_OFF_54
VEL_3
NOTE_ON_61
VEL_4
NOTE_ON_66
VEL_2
NOTE_ON_45
VEL_2
NOTE_ON_54
TIME_SHIFT_64ND_24
NOTE_OFF_61
NOTE_OFF_66
NOTE_OFF_45
NOTE_OFF_54
VEL_4
NOTE_ON_68
VEL_3
NOTE_ON_65
VEL_3
NOTE_ON_59
VEL_3
NOTE_ON_54
VEL_2
NOTE_ON_44
TIME_SHIFT_64ND_8
NOTE_OFF_68
NOTE_OFF_65
NOTE_OFF_59
NOTE_OFF_54
NOTE_OFF_44
VEL_3
NOTE_ON_66
VEL_4
NOTE_ON_69
VEL_3
NOTE_ON_57
VEL_2
NOTE_ON_42
VEL_3
NOTE_ON_54
TIME_SHIFT_64ND_46
NOTE_OFF_66
NOTE_OFF_69
NOTE_OFF_57
VEL_2
NOTE_ON_66
TIME_SHIFT_64ND_16
NOTE_OFF_66
NOTE_OFF_42
NOTE_OFF_54
VEL_2
NOTE_ON_61
VEL_2
NOTE_ON_57
VEL_1
NOTE_ON_47
VEL_1
NOTE_ON_54
TIME_SHIFT_64ND_16
NOTE_OFF_61
VEL_2
NOTE_ON_63
TIME_SHIFT_64ND_16
NOTE_OFF_63
VEL_2
NOTE_ON_68
TIME_SHIFT_64ND_26
NOTE_OFF_68
VEL_2
NOTE_ON_66
TIME_SHIFT_64ND_9
NOTE_OFF_66
NOTE_OFF_57
NOTE_OFF_47
NOTE_OFF_54
VEL_2
NOTE_ON_56
VEL_2
NOTE_ON_64
VEL_1
NOTE_ON_40
TIME_SHIFT_64ND_31
NOTE_OFF_56
NOTE_OFF_64
NOTE_OFF_40
TIME_SHIFT_64ND_31
VEL_3
NOTE_ON_64
VEL_4
NOTE_ON_71
VEL_4
NOTE_ON_68
VEL_2
NOTE_ON_52
VEL_3
NOTE_ON_59
TIME_SHIFT_64ND_31
NOTE_OFF_64
NOTE_OFF_71
NOTE_OFF_68
NOTE_OFF_52
NOTE_OFF_59
VEL_5
NOTE_ON_71
VEL_4
NOTE_ON_66
VEL_3
NOTE_ON_51
VEL_3
NOTE_ON_59
TIME_SHIFT_64ND_25
NOTE_OFF_71
NOTE_OFF_66
NOTE_OFF_51
NOTE_OFF_59
VEL_3
NOTE_ON_64
VEL_4
NOTE_ON_73
VEL_3
NOTE_ON_70
VEL_3
NOTE_ON_67
VEL_3
NOTE_ON_59
VEL_2
NOTE_ON_49
TIME_SHIFT_64ND_8
NOTE_OFF_59
TIME_SHIFT_64ND_1
NOTE_OFF_64
NOTE_OFF_73
NOTE_OFF_70
NOTE_OFF_67
NOTE_OFF_49
VEL_4
NOTE_ON_66
VEL_4
NOTE_ON_63
VEL_5
NOTE_ON_75
VEL_4
NOTE_ON_71
VEL_3
NOTE_ON_47
VEL_3
NOTE_ON_59
TIME_SHIFT_64ND_62
NOTE_OFF_66
NOTE_OFF_63
NOTE_OFF_75
NOTE_OFF_71
NOTE_OFF_47
NOTE_OFF_59
VEL_3
NOTE_ON_64
VEL_4
NOTE_ON_71
VEL_4
NOTE_ON_68
VEL_2
NOTE_ON_52
VEL_3
NOTE_ON_59
TIME_SHIFT_64ND_31
NOTE_OFF_64
NOTE_OFF_71
NOTE_OFF_68
NOTE_OFF_52
NOTE_OFF_59
VEL_5
NOTE_ON_71
VEL_4
NOTE_ON_66
VEL_3
NOTE_ON_51
VEL_3
NOTE_ON_59
TIME_SHIFT_64ND_25
NOTE_OFF_71
NOTE_OFF_66
NOTE_OFF_51
NOTE_OFF_59
VEL_3
NOTE_ON_64
VEL_4
NOTE_ON_73
VEL_3
NOTE_ON_70
VEL_3
NOTE_ON_67
VEL_2
NOTE_ON_49
VEL_3
NOTE_ON_59
TIME_SHIFT_64ND_8
NOTE_OFF_64
NOTE_OFF_73
NOTE_OFF_70
NOTE_OFF_67
NOTE_OFF_49
NOTE_OFF_59
VEL_4
NOTE_ON_66
VEL_4
NOTE_ON_63
VEL_5
NOTE_ON_75
VEL_4
NOTE_ON_71
VEL_3
NOTE_ON_47
VEL_3
NOTE_ON_59
TIME_SHIFT_64ND_59
NOTE_OFF_66
NOTE_OFF_63
NOTE_OFF_75
NOTE_OFF_71
NOTE_OFF_47
NOTE_OFF_59
TIME_SHIFT_64ND_3
VEL_2
NOTE_ON_59
VEL_2
NOTE_ON_62
VEL_3
NOTE_ON_66
VEL_2
NOTE_ON_47
VEL_2
NOTE_ON_54
TIME_SHIFT_64ND_32
NOTE_OFF_59
NOTE_OFF_62
NOTE_OFF_66
NOTE_OFF_47
NOTE_OFF_54
VEL_3
NOTE_ON_61
VEL_3
NOTE_ON_66
VEL_2
NOTE_ON_45
VEL_2
NOTE_ON_54
TIME_SHIFT_64ND_26
NOTE_OFF_61
NOTE_OFF_66
NOTE_OFF_45
NOTE_OFF_54
VEL_3
NOTE_ON_68
VEL_3
NOTE_ON_65
VEL_3
NOTE_ON_59
VEL_2
NOTE_ON_54
VEL_2
NOTE_ON_44
TIME_SHIFT_64ND_9
NOTE_OFF_68
NOTE_OFF_65
NOTE_OFF_59
NOTE_OFF_54
NOTE_OFF_44
VEL_3
NOTE_ON_69
VEL_3
NOTE_ON_66
VEL_3
NOTE_ON_57
VEL_2
NOTE_ON_42
VEL_2
NOTE_ON_54
TIME_SHIFT_64ND_48
NOTE_OFF_69
NOTE_OFF_66
NOTE_OFF_57
VEL_2
NOTE_ON_66
TIME_SHIFT_64ND_16
NOTE_OFF_66
NOTE_OFF_42
NOTE_OFF_54
VEL_2
NOTE_ON_61
VEL_2
NOTE_ON_57
VEL_1
NOTE_ON_35
VEL_1
NOTE_ON_47
TIME_SHIFT_64ND_16
NOTE_OFF_61
VEL_2
NOTE_ON_63
TIME_SHIFT_64ND_16
NOTE_OFF_63
VEL_2
NOTE_ON_68
TIME_SHIFT_64ND_27
NOTE_OFF_68
VEL_2
NOTE_ON_66
TIME_SHIFT_64ND_9
NOTE_OFF_66
NOTE_OFF_57
NOTE_OFF_35
NOTE_OFF_47
VEL_2
NOTE_ON_64
VEL_2
NOTE_ON_40
TIME_SHIFT_64ND_8
NOTE_OFF_40
VEL_2
NOTE_ON_47
TIME_SHIFT_64ND_8
NOTE_OFF_47
VEL_2
NOTE_ON_52
TIME_SHIFT_64ND_8
NOTE_OFF_52
VEL_2
NOTE_ON_56
TIME_SHIFT_64ND_8
NOTE_OFF_64
NOTE_OFF_56
VEL_2
NOTE_ON_59
TIME_SHIFT_64ND_8
NOTE_OFF_59
VEL_2
NOTE_ON_64
TIME_SHIFT_64ND_8
NOTE_OFF_64
VEL_2
NOTE_ON_68
TIME_SHIFT_64ND_8
NOTE_OFF_68
VEL_2
NOTE_ON_71
TIME_SHIFT_64ND_8
NOTE_OFF_71
VEL_2
NOTE_ON_56
TIME_SHIFT_64ND_8
NOTE_OFF_56
VEL_2
NOTE_ON_59
TIME_SHIFT_64ND_8
NOTE_OFF_59
VEL_2
NOTE_ON_64
TIME_SHIFT_64ND_8
NOTE_OFF_64
VEL_2
NOTE_ON_68
TIME_SHIFT_64ND_8
NOTE_OFF_68
VEL_2
NOTE_ON_71
TIME_SHIFT_64ND_8
NOTE_OFF_71
VEL_2
NOTE_ON_76
TIME_SHIFT_64ND_8
NOTE_OFF_76
VEL_2
NOTE_ON_80
TIME_SHIFT_64ND_8
NOTE_OFF_80
VEL_2
NOTE_ON_83
TIME_SHIFT_64ND_8
NOTE_OFF_83
VEL_2
NOTE_ON_59
TIME_SHIFT_64ND_8
NOTE_OFF_59
VEL_2
NOTE_ON_68
TIME_SHIFT_64ND_8
NOTE_OFF_68
VEL_2
NOTE_ON_71
TIME_SHIFT_64ND_8
NOTE_OFF_71
VEL_2
NOTE_ON_76
TIME_SHIFT_64ND_8
NOTE_OFF_76
VEL_2
NOTE_ON_80
TIME_SHIFT_64ND_8
NOTE_OFF_80
VEL_2
NOTE_ON_83
TIME_SHIFT_64ND_8
NOTE_OFF_83
VEL_2
NOTE_ON_88
TIME_SHIFT_64ND_8
NOTE_OFF_88
VEL_2
NOTE_ON_92
TIME_SHIFT_64ND_8
NOTE_OFF_92
VEL_2
NOTE_ON_95
TIME_SHIFT_64ND_17
NOTE_OFF_95
TIME_SHIFT_64ND_17
VEL_1
NOTE_ON_57
VEL_1
NOTE_ON_59
VEL_2
NOTE_ON_63
VEL_1
NOTE_ON_47
VEL_1
NOTE_ON_35
TIME_SHIFT_64ND_17
NOTE_OFF_57
NOTE_OFF_59
NOTE_OFF_63
NOTE_OFF_47
NOTE_OFF_35
TIME_SHIFT_64ND_17
VEL_2
NOTE_ON_64
VEL_1
NOTE_ON_59
VEL_1
NOTE_ON_56
VEL_1
NOTE_ON_40
VEL_1
NOTE_ON_28
TIME_SHIFT_64ND_15
NOTE_OFF_64
NOTE_OFF_59
NOTE_OFF_56
NOTE_OFF_40
NOTE_OFF_28
