VEL_2
NOTE_ON_47
VEL_2
NOTE_ON_40
TIME_SHIFT_64ND_18
NOTE_OFF_47
NOTE_OFF_40
VEL_2
NOTE_ON_55
VEL_1
NOTE_ON_46
TIME_SHIFT_64ND_19
NOTE_OFF_55
NOTE_OFF_46
VEL_2
NOTE_ON_47
VEL_2
NOTE_ON_40
TIME_SHIFT_64ND_18
NOTE_OFF_47
NOTE_OFF_40
VEL_2
NOTE_ON_55
VEL_1
NOTE_ON_43
TIME_SHIFT_64ND_18
NOTE_OFF_55
NOTE_OFF_43
VEL_2
NOTE_ON_47
VEL_2
NOTE_ON_40
TIME_SHIFT_64ND_18
NOTE_OFF_47
NOTE_OFF_40
VEL_2
NOTE_ON_55
VEL_1
NOTE_ON_46
TIME_SHIFT_64ND_18
NOTE_OFF_55
NOTE_OFF_46
VEL_2
NOTE_ON_40
VEL_2
NOTE_ON_47
TIME_SHIFT_64ND_18
NOTE_OFF_40
NOTE_OFF_47
VEL_2
NOTE_ON_55
VEL_1
NOTE_ON_43
TIME_SHIFT_64ND_19
NOTE_OFF_55
NOTE_OFF_43
VEL_2
NOTE_ON_40
VEL_2
NOTE_ON_47
TIME_SHIFT_64ND_18
NOTE_OFF_40
NOTE_OFF_47
VEL_1
NOTE_ON_46
VEL_2
NOTE_ON_55
TIME_SHIFT_64ND_18
NOTE_OFF_46
NOTE_OFF_55
VEL_2
NOTE_ON_47
VEL_1
NOTE_ON_40
TIME_SHIFT_64ND_18
NOTE_OFF_47
NOTE_OFF_40
VEL_1
NOTE_ON_55
VEL_1
NOTE_ON_43
TIME_SHIFT_64ND_19
NOTE_OFF_55
NOTE_OFF_43
VEL_2
NOTE_ON_47
VEL_1
NOTE_ON_40
TIME_SHIFT_64ND_18
NOTE_OFF_47
NOTE_OFF_40
VEL_1
NOTE_ON_55
VEL_1
NOTE_ON_46
TIME_SHIFT_64ND_19
NOTE_OFF_55
NOTE_OFF_46
VEL_1
NOTE_ON_40
VEL_2
NOTE_ON_47
TIME_SHIFT_64ND_19
NOTE_OFF_40
NOTE_OFF_47
VEL_1
NOTE_ON_55
VEL_1
NOTE_ON_43
TIME_SHIFT_64ND_21
NOTE_OFF_55
NOTE_OFF_43
VEL_3
NOTE_ON_64
VEL_1
NOTE_ON_40
VEL_2
NOTE_ON_47
TIME_SHIFT_64ND_19
NOTE_OFF_40
NOTE_OFF_47
VEL_1
NOTE_ON_55
VEL_1
NOTE_ON_46
TIME_SHIFT_64ND_19
NOTE_OFF_55
NOTE_OFF_46
VEL_1
NOTE_ON_40
VEL_2
NOTE_ON_47
TIME_SHIFT_64ND_18
NOTE_OFF_40
NOTE_OFF_47
VEL_1
NOTE_ON_55
VEL_1
NOTE_ON_43
TIME_SHIFT_64ND_18
NOTE_OFF_55
NOTE_OFF_43
VEL_1
NOTE_ON_40
VEL_2
NOTE_ON_47
TIME_SHIFT_64ND_18
NOTE_OFF_40
NOTE_OFF_47
VEL_1
NOTE_ON_55
VEL_1
NOTE_ON_46
TIME_SHIFT_64ND_19
NOTE_OFF_55
NOTE_OFF_46
VEL_1
NOTE_ON_40
VEL_2
NOTE_ON_47
TIME_SHIFT_64ND_20
NOTE_OFF_40
NOTE_OFF_47
VEL_1
NOTE_ON_43
VEL_1
NOTE_ON_55
TIME_SHIFT_64ND_1
NOTE_OFF_64
VEL_2
NOTE_ON_59
TIME_SHIFT_64ND_19
NOTE_OFF_43
NOTE_OFF_55
VEL_2
NOTE_ON_47
VEL_1
NOTE_ON_38
NOTE_OFF_59
VEL_3
NOTE_ON_62
TIME_SHIFT_64ND_17
NOTE_OFF_47
NOTE_OFF_38
VEL_1
NOTE_ON_46
VEL_1
NOTE_ON_55
TIME_SHIFT_64ND_18
NOTE_OFF_46
NOTE_OFF_55
VEL_2
NOTE_ON_47
VEL_1
NOTE_ON_38
TIME_SHIFT_64ND_18
NOTE_OFF_47
NOTE_OFF_38
VEL_1
NOTE_ON_43
VEL_1
NOTE_ON_55
TIME_SHIFT_64ND_19
NOTE_OFF_43
NOTE_OFF_55
VEL_1
NOTE_ON_38
VEL_2
NOTE_ON_47
TIME_SHIFT_64ND_17
NOTE_OFF_38
NOTE_OFF_47
VEL_1
NOTE_ON_55
VEL_1
NOTE_ON_46
TIME_SHIFT_64ND_17
NOTE_OFF_55
NOTE_OFF_46
VEL_1
NOTE_ON_38
VEL_2
NOTE_ON_47
TIME_SHIFT_64ND_18
NOTE_OFF_38
NOTE_OFF_47
VEL_1
NOTE_ON_55
VEL_1
NOTE_ON_43
TIME_SHIFT_64ND_19
NOTE_OFF_62
NOTE_OFF_55
NOTE_OFF_43
VEL_3
NOTE_ON_62
VEL_1
NOTE_ON_38
VEL_2
NOTE_ON_45
TIME_SHIFT_64ND_19
NOTE_OFF_38
NOTE_OFF_45
VEL_1
NOTE_ON_44
VEL_1
NOTE_ON_55
TIME_SHIFT_64ND_19
NOTE_OFF_44
NOTE_OFF_55
VEL_2
NOTE_ON_45
VEL_1
NOTE_ON_38
TIME_SHIFT_64ND_14
NOTE_OFF_62
VEL_2
NOTE_ON_66
TIME_SHIFT_64ND_5
NOTE_OFF_66
NOTE_OFF_45
NOTE_OFF_38
VEL_3
NOTE_ON_64
VEL_1
NOTE_ON_43
VEL_1
NOTE_ON_55
TIME_SHIFT_64ND_19
NOTE_OFF_64
NOTE_OFF_43
NOTE_OFF_55
VEL_3
NOTE_ON_62
VEL_2
NOTE_ON_45
VEL_1
NOTE_ON_38
TIME_SHIFT_64ND_18
NOTE_OFF_45
NOTE_OFF_38
VEL_1
NOTE_ON_44
VEL_1
NOTE_ON_54
TIME_SHIFT_64ND_18
NOTE_OFF_44
NOTE_OFF_54
VEL_2
NOTE_ON_45
VEL_1
NOTE_ON_38
TIME_SHIFT_64ND_19
NOTE_OFF_62
NOTE_OFF_45
NOTE_OFF_38
VEL_2
NOTE_ON_57
VEL_1
NOTE_ON_42
VEL_1
NOTE_ON_54
TIME_SHIFT_64ND_20
NOTE_OFF_57
NOTE_OFF_42
NOTE_OFF_54
VEL_3
NOTE_ON_59
VEL_2
NOTE_ON_43
VEL_1
NOTE_ON_31
TIME_SHIFT_64ND_19
NOTE_OFF_43
NOTE_OFF_31
VEL_1
NOTE_ON_52
VEL_1
NOTE_ON_55
TIME_SHIFT_64ND_18
NOTE_OFF_59
TIME_SHIFT_64ND_1
NOTE_OFF_52
NOTE_OFF_55
VEL_3
NOTE_ON_59
VEL_1
NOTE_ON_50
VEL_1
NOTE_ON_43
TIME_SHIFT_64ND_20
NOTE_OFF_50
NOTE_OFF_43
VEL_1
NOTE_ON_55
VEL_1
NOTE_ON_51
TIME_SHIFT_64ND_10
NOTE_OFF_59
TIME_SHIFT_64ND_1
VEL_2
NOTE_ON_59
TIME_SHIFT_64ND_10
NOTE_OFF_59
TIME_SHIFT_64ND_1
NOTE_OFF_55
NOTE_OFF_51
VEL_2
NOTE_ON_59
VEL_1
NOTE_ON_50
VEL_1
NOTE_ON_43
TIME_SHIFT_64ND_18
NOTE_OFF_50
NOTE_OFF_43
VEL_1
NOTE_ON_55
VEL_1
NOTE_ON_52
TIME_SHIFT_64ND_19
NOTE_OFF_55
NOTE_OFF_52
VEL_1
NOTE_ON_43
VEL_1
NOTE_ON_50
TIME_SHIFT_64ND_18
NOTE_OFF_43
NOTE_OFF_50
VEL_1
NOTE_ON_51
VEL_1
NOTE_ON_55
TIME_SHIFT_64ND_18
NOTE_OFF_51
NOTE_OFF_55
VEL_1
NOTE_ON_50
VEL_1
NOTE_ON_43
TIME_SHIFT_64ND_17
NOTE_OFF_50
NOTE_OFF_43
VEL_1
NOTE_ON_52
VEL_1
NOTE_ON_55
TIME_SHIFT_64ND_17
NOTE_OFF_52
NOTE_OFF_55
VEL_1
NOTE_ON_50
VEL_1
NOTE_ON_43
TIME_SHIFT_64ND_17
NOTE_OFF_50
NOTE_OFF_43
VEL_1
NOTE_ON_55
VEL_1
NOTE_ON_51
TIME_SHIFT_64ND_17
NOTE_OFF_59
NOTE_OFF_55
NOTE_OFF_51
VEL_1
NOTE_ON_50
VEL_1
NOTE_ON_43
TIME_SHIFT_64ND_17
NOTE_OFF_50
NOTE_OFF_43
VEL_1
NOTE_ON_55
VEL_1
NOTE_ON_52
TIME_SHIFT_64ND_18
NOTE_OFF_55
NOTE_OFF_52
VEL_2
NOTE_ON_50
VEL_1
NOTE_ON_43
TIME_SHIFT_64ND_18
NOTE_OFF_50
NOTE_OFF_43
VEL_1
NOTE_ON_51
VEL_1
NOTE_ON_55
TIME_SHIFT_64ND_18
NOTE_OFF_51
NOTE_OFF_55
VEL_2
NOTE_ON_54
VEL_1
NOTE_ON_47
TIME_SHIFT_64ND_18
NOTE_OFF_54
NOTE_OFF_47
VEL_1
NOTE_ON_62
VEL_1
NOTE_ON_53
TIME_SHIFT_64ND_18
NOTE_OFF_62
NOTE_OFF_53
VEL_2
NOTE_ON_54
VEL_1
NOTE_ON_47
TIME_SHIFT_64ND_18
NOTE_OFF_54
NOTE_OFF_47
VEL_1
NOTE_ON_62
VEL_1
NOTE_ON_50
TIME_SHIFT_64ND_20
NOTE_OFF_62
NOTE_OFF_50
VEL_3
NOTE_ON_71
VEL_1
NOTE_ON_47
VEL_2
NOTE_ON_54
TIME_SHIFT_64ND_19
NOTE_OFF_47
NOTE_OFF_54
VEL_1
NOTE_ON_62
VEL_1
NOTE_ON_53
TIME_SHIFT_64ND_18
NOTE_OFF_62
NOTE_OFF_53
VEL_1
NOTE_ON_47
VEL_2
NOTE_ON_54
TIME_SHIFT_64ND_18
NOTE_OFF_71
NOTE_OFF_47
NOTE_OFF_54
VEL_1
NOTE_ON_62
VEL_1
NOTE_ON_50
VEL_3
NOTE_ON_66
TIME_SHIFT_64ND_20
NOTE_OFF_62
NOTE_OFF_50
VEL_1
NOTE_ON_45
VEL_2
NOTE_ON_54
NOTE_OFF_66
VEL_3
NOTE_ON_69
TIME_SHIFT_64ND_18
NOTE_OFF_45
NOTE_OFF_54
VEL_1
NOTE_ON_62
VEL_1
NOTE_ON_53
TIME_SHIFT_64ND_19
NOTE_OFF_62
NOTE_OFF_53
VEL_2
NOTE_ON_54
VEL_1
NOTE_ON_45
TIME_SHIFT_64ND_18
NOTE_OFF_54
NOTE_OFF_45
VEL_1
NOTE_ON_62
VEL_1
NOTE_ON_50
TIME_SHIFT_64ND_18
NOTE_OFF_62
NOTE_OFF_50
VEL_2
NOTE_ON_54
VEL_1
NOTE_ON_45
TIME_SHIFT_64ND_17
NOTE_OFF_54
NOTE_OFF_45
VEL_1
NOTE_ON_62
VEL_1
NOTE_ON_53
TIME_SHIFT_64ND_17
NOTE_OFF_62
NOTE_OFF_53
VEL_1
NOTE_ON_45
VEL_2
NOTE_ON_54
TIME_SHIFT_64ND_18
NOTE_OFF_45
NOTE_OFF_54
VEL_1
NOTE_ON_62
VEL_1
NOTE_ON_50
TIME_SHIFT_64ND_19
NOTE_OFF_69
NOTE_OFF_62
NOTE_OFF_50
VEL_3
NOTE_ON_69
VEL_1
NOTE_ON_45
VEL_2
NOTE_ON_52
TIME_SHIFT_64ND_18
NOTE_OFF_45
NOTE_OFF_52
VEL_1
NOTE_ON_51
VEL_1
NOTE_ON_62
TIME_SHIFT_64ND_19
NOTE_OFF_51
NOTE_OFF_62
VEL_1
NOTE_ON_45
VEL_2
NOTE_ON_52
TIME_SHIFT_64ND_14
NOTE_OFF_69
VEL_2
NOTE_ON_73
TIME_SHIFT_64ND_5
NOTE_OFF_73
NOTE_OFF_45
NOTE_OFF_52
VEL_2
NOTE_ON_71
VEL_1
NOTE_ON_50
VEL_1
NOTE_ON_62
TIME_SHIFT_64ND_18
NOTE_OFF_71
NOTE_OFF_50
NOTE_OFF_62
VEL_3
NOTE_ON_69
VEL_1
NOTE_ON_52
VEL_1
NOTE_ON_45
TIME_SHIFT_64ND_18
NOTE_OFF_52
NOTE_OFF_45
VEL_1
NOTE_ON_51
VEL_1
NOTE_ON_61
TIME_SHIFT_64ND_18
NOTE_OFF_51
NOTE_OFF_61
VEL_2
NOTE_ON_52
VEL_1
NOTE_ON_45
TIME_SHIFT_64ND_18
NOTE_OFF_69
NOTE_OFF_52
NOTE_OFF_45
VEL_2
NOTE_ON_64
VEL_1
NOTE_ON_61
VEL_1
NOTE_ON_49
TIME_SHIFT_64ND_19
NOTE_OFF_64
NOTE_OFF_61
NOTE_OFF_49
VEL_3
NOTE_ON_66
VEL_2
NOTE_ON_51
VEL_1
NOTE_ON_45
TIME_SHIFT_64ND_18
NOTE_OFF_51
NOTE_OFF_45
VEL_1
NOTE_ON_61
VEL_1
NOTE_ON_50
TIME_SHIFT_64ND_18
NOTE_OFF_66
TIME_SHIFT_64ND_1
NOTE_OFF_61
NOTE_OFF_50
VEL_3
NOTE_ON_66
VEL_2
NOTE_ON_51
VEL_1
NOTE_ON_45
TIME_SHIFT_64ND_20
NOTE_OFF_51
NOTE_OFF_45
VEL_1
NOTE_ON_49
VEL_2
NOTE_ON_61
TIME_SHIFT_64ND_9
NOTE_OFF_66
TIME_SHIFT_64ND_1
VEL_3
NOTE_ON_66
TIME_SHIFT_64ND_9
NOTE_OFF_66
TIME_SHIFT_64ND_1
NOTE_OFF_49
NOTE_OFF_61
VEL_3
NOTE_ON_66
VEL_2
NOTE_ON_51
VEL_2
NOTE_ON_45
TIME_SHIFT_64ND_18
NOTE_OFF_51
NOTE_OFF_45
VEL_1
NOTE_ON_50
VEL_2
NOTE_ON_61
TIME_SHIFT_64ND_18
NOTE_OFF_50
NOTE_OFF_61
VEL_2
NOTE_ON_51
VEL_2
NOTE_ON_45
TIME_SHIFT_64ND_18
NOTE_OFF_51
NOTE_OFF_45
VEL_1
NOTE_ON_49
VEL_2
NOTE_ON_61
TIME_SHIFT_64ND_18
NOTE_OFF_49
NOTE_OFF_61
VEL_2
NOTE_ON_51
VEL_2
NOTE_ON_45
TIME_SHIFT_64ND_17
NOTE_OFF_51
NOTE_OFF_45
VEL_2
NOTE_ON_61
VEL_1
NOTE_ON_50
TIME_SHIFT_64ND_17
NOTE_OFF_61
NOTE_OFF_50
VEL_2
NOTE_ON_51
VEL_2
NOTE_ON_45
TIME_SHIFT_64ND_17
NOTE_OFF_51
NOTE_OFF_45
VEL_2
NOTE_ON_61
VEL_1
NOTE_ON_49
TIME_SHIFT_64ND_17
NOTE_OFF_66
NOTE_OFF_61
NOTE_OFF_49
VEL_2
NOTE_ON_45
VEL_2
NOTE_ON_51
TIME_SHIFT_64ND_18
NOTE_OFF_45
NOTE_OFF_51
VEL_2
NOTE_ON_60
VEL_1
NOTE_ON_50
TIME_SHIFT_64ND_18
NOTE_OFF_60
NOTE_OFF_50
VEL_2
NOTE_ON_51
VEL_2
NOTE_ON_45
TIME_SHIFT_64ND_18
NOTE_OFF_51
NOTE_OFF_45
VEL_2
NOTE_ON_60
VEL_1
NOTE_ON_48
TIME_SHIFT_64ND_18
NOTE_OFF_60
NOTE_OFF_48
VEL_2
NOTE_ON_51
VEL_2
NOTE_ON_42
TIME_SHIFT_64ND_18
NOTE_OFF_51
NOTE_OFF_42
VEL_2
NOTE_ON_57
VEL_1
NOTE_ON_50
TIME_SHIFT_64ND_18
NOTE_OFF_57
NOTE_OFF_50
VEL_2
NOTE_ON_42
VEL_2
NOTE_ON_51
TIME_SHIFT_64ND_17
NOTE_OFF_42
NOTE_OFF_51
VEL_2
NOTE_ON_57
VEL_1
NOTE_ON_48
TIME_SHIFT_64ND_18
NOTE_OFF_57
NOTE_OFF_48
VEL_1
NOTE_ON_42
VEL_2
NOTE_ON_51
TIME_SHIFT_64ND_18
NOTE_OFF_42
NOTE_OFF_51
VEL_1
NOTE_ON_50
VEL_1
NOTE_ON_57
TIME_SHIFT_64ND_18
NOTE_OFF_50
NOTE_OFF_57
VEL_2
NOTE_ON_51
VEL_1
NOTE_ON_42
TIME_SHIFT_64ND_18
NOTE_OFF_51
NOTE_OFF_42
VEL_1
NOTE_ON_57
VEL_1
NOTE_ON_48
TIME_SHIFT_64ND_18
NOTE_OFF_57
NOTE_OFF_48
VEL_1
NOTE_ON_51
VEL_1
NOTE_ON_42
TIME_SHIFT_64ND_19
NOTE_OFF_51
NOTE_OFF_42
VEL_1
NOTE_ON_57
VEL_1
NOTE_ON_50
TIME_SHIFT_64ND_21
NOTE_OFF_57
NOTE_OFF_50
VEL_3
NOTE_ON_69
VEL_1
NOTE_ON_42
VEL_1
NOTE_ON_51
TIME_SHIFT_64ND_18
NOTE_OFF_42
NOTE_OFF_51
VEL_1
NOTE_ON_57
VEL_1
NOTE_ON_48
TIME_SHIFT_64ND_19
NOTE_OFF_57
NOTE_OFF_48
VEL_1
NOTE_ON_41
VEL_1
NOTE_ON_51
TIME_SHIFT_64ND_18
NOTE_OFF_41
NOTE_OFF_51
VEL_1
NOTE_ON_57
VEL_1
NOTE_ON_50
TIME_SHIFT_64ND_18
NOTE_OFF_57
NOTE_OFF_50
VEL_1
NOTE_ON_41
VEL_1
NOTE_ON_51
TIME_SHIFT_64ND_18
NOTE_OFF_41
NOTE_OFF_51
VEL_1
NOTE_ON_57
VEL_1
NOTE_ON_47
TIME_SHIFT_64ND_18
NOTE_OFF_57
NOTE_OFF_47
VEL_1
NOTE_ON_40
VEL_1
NOTE_ON_48
TIME_SHIFT_64ND_18
NOTE_OFF_40
NOTE_OFF_48
VEL_1
NOTE_ON_57
VEL_1
NOTE_ON_47
TIME_SHIFT_64ND_18
NOTE_OFF_57
NOTE_OFF_47
VEL_1
NOTE_ON_40
VEL_1
NOTE_ON_48
TIME_SHIFT_64ND_18
NOTE_OFF_40
NOTE_OFF_48
VEL_1
NOTE_ON_45
VEL_1
NOTE_ON_57
TIME_SHIFT_64ND_18
NOTE_OFF_45
NOTE_OFF_57
VEL_1
NOTE_ON_48
VEL_1
NOTE_ON_40
TIME_SHIFT_64ND_18
NOTE_OFF_48
NOTE_OFF_40
VEL_1
NOTE_ON_47
VEL_1
NOTE_ON_57
TIME_SHIFT_64ND_18
NOTE_OFF_47
NOTE_OFF_57
VEL_1
NOTE_ON_48
VEL_1
NOTE_ON_40
TIME_SHIFT_64ND_18
NOTE_OFF_69
NOTE_OFF_48
NOTE_OFF_40
VEL_2
NOTE_ON_64
VEL_1
NOTE_ON_45
VEL_1
NOTE_ON_57
TIME_SHIFT_64ND_21
NOTE_OFF_64
NOTE_OFF_45
NOTE_OFF_57
VEL_1
NOTE_ON_40
VEL_1
NOTE_ON_48
TIME_SHIFT_64ND_1
VEL_3
NOTE_ON_65
TIME_SHIFT_64ND_17
NOTE_OFF_40
NOTE_OFF_48
VEL_1
NOTE_ON_57
VEL_1
NOTE_ON_47
TIME_SHIFT_64ND_18
NOTE_OFF_57
NOTE_OFF_47
VEL_1
NOTE_ON_40
VEL_1
NOTE_ON_48
TIME_SHIFT_64ND_18
NOTE_OFF_40
NOTE_OFF_48
VEL_1
NOTE_ON_57
VEL_1
NOTE_ON_45
TIME_SHIFT_64ND_18
NOTE_OFF_57
NOTE_OFF_45
VEL_1
NOTE_ON_40
VEL_1
NOTE_ON_48
TIME_SHIFT_64ND_19
NOTE_OFF_40
NOTE_OFF_48
VEL_1
NOTE_ON_47
VEL_1
NOTE_ON_57
TIME_SHIFT_64ND_20
NOTE_OFF_47
NOTE_OFF_57
VEL_1
NOTE_ON_48
VEL_1
NOTE_ON_40
TIME_SHIFT_64ND_20
NOTE_OFF_48
NOTE_OFF_40
VEL_1
NOTE_ON_45
VEL_1
NOTE_ON_57
TIME_SHIFT_64ND_21
NOTE_OFF_65
NOTE_OFF_45
NOTE_OFF_57
VEL_2
NOTE_ON_65
TIME_SHIFT_64ND_59
NOTE_OFF_65
VEL_2
NOTE_ON_69
TIME_SHIFT_64ND_5
NOTE_OFF_69
VEL_2
NOTE_ON_67
TIME_SHIFT_64ND_21
NOTE_OFF_67
VEL_2
NOTE_ON_65
TIME_SHIFT_64ND_64
NOTE_OFF_65
VEL_2
NOTE_ON_60
TIME_SHIFT_64ND_21
NOTE_OFF_60
VEL_2
NOTE_ON_62
TIME_SHIFT_64ND_40
NOTE_OFF_62
TIME_SHIFT_64ND_1
VEL_2
NOTE_ON_62
TIME_SHIFT_64ND_29
NOTE_OFF_62
TIME_SHIFT_64ND_1
VEL_2
NOTE_ON_62
TIME_SHIFT_64ND_9
NOTE_OFF_62
TIME_SHIFT_64ND_1
VEL_2
NOTE_ON_62
VEL_1
NOTE_ON_48
VEL_1
NOTE_ON_40
TIME_SHIFT_64ND_18
NOTE_OFF_48
NOTE_OFF_40
VEL_1
NOTE_ON_47
VEL_1
NOTE_ON_53
TIME_SHIFT_64ND_19
NOTE_OFF_47
NOTE_OFF_53
VEL_1
NOTE_ON_48
VEL_1
NOTE_ON_40
TIME_SHIFT_64ND_18
NOTE_OFF_48
NOTE_OFF_40
VEL_1
NOTE_ON_45
VEL_1
NOTE_ON_53
TIME_SHIFT_64ND_18
NOTE_OFF_45
NOTE_OFF_53
VEL_1
NOTE_ON_48
VEL_1
NOTE_ON_40
TIME_SHIFT_64ND_18
NOTE_OFF_48
NOTE_OFF_40
VEL_1
NOTE_ON_53
VEL_1
NOTE_ON_47
TIME_SHIFT_64ND_19
NOTE_OFF_53
NOTE_OFF_47
VEL_1
NOTE_ON_48
VEL_1
NOTE_ON_40
TIME_SHIFT_64ND_18
NOTE_OFF_48
NOTE_OFF_40
VEL_1
NOTE_ON_53
VEL_1
NOTE_ON_45
TIME_SHIFT_64ND_19
NOTE_OFF_62
NOTE_OFF_53
NOTE_OFF_45
TIME_SHIFT_64ND_77
VEL_2
NOTE_ON_62
TIME_SHIFT_64ND_57
NOTE_OFF_62
VEL_2
NOTE_ON_65
TIME_SHIFT_64ND_5
NOTE_OFF_65
VEL_2
NOTE_ON_64
TIME_SHIFT_64ND_21
NOTE_OFF_64
VEL_2
NOTE_ON_62
TIME_SHIFT_64ND_63
NOTE_OFF_62
VEL_2
NOTE_ON_57
TIME_SHIFT_64ND_23
VEL_2
NOTE_ON_59
TIME_SHIFT_64ND_41
NOTE_OFF_59
TIME_SHIFT_64ND_1
VEL_2
NOTE_ON_59
TIME_SHIFT_64ND_30
NOTE_OFF_59
TIME_SHIFT_64ND_1
VEL_2
NOTE_ON_59
TIME_SHIFT_64ND_10
NOTE_OFF_59
TIME_SHIFT_64ND_1
NOTE_OFF_57
VEL_2
NOTE_ON_59
VEL_1
NOTE_ON_56
VEL_1
NOTE_ON_52
VEL_1
NOTE_ON_40
TIME_SHIFT_64ND_43
NOTE_OFF_59
TIME_SHIFT_64ND_1
NOTE_OFF_56
NOTE_OFF_52
NOTE_OFF_40
VEL_2
NOTE_ON_59
VEL_1
NOTE_ON_51
VEL_1
NOTE_ON_54
VEL_1
NOTE_ON_47
VEL_1
NOTE_ON_35
TIME_SHIFT_64ND_46
NOTE_OFF_59
TIME_SHIFT_64ND_1
NOTE_OFF_51
NOTE_OFF_54
NOTE_OFF_47
NOTE_OFF_35
VEL_1
NOTE_ON_56
VEL_1
NOTE_ON_52
VEL_2
NOTE_ON_59
VEL_1
NOTE_ON_40
VEL_1
NOTE_ON_47
TIME_SHIFT_64ND_77
NOTE_OFF_56
NOTE_OFF_52
NOTE_OFF_59
VEL_1
NOTE_ON_50
TIME_SHIFT_64ND_6
VEL_1
NOTE_ON_52
TIME_SHIFT_64ND_6
VEL_1
NOTE_ON_56
TIME_SHIFT_64ND_6
NOTE_OFF_40
NOTE_OFF_47
VEL_2
NOTE_ON_59
VEL_1
NOTE_ON_28
VEL_1
NOTE_ON_40
TIME_SHIFT_64ND_71
NOTE_OFF_59
VEL_2
NOTE_ON_60
TIME_SHIFT_64ND_29
NOTE_OFF_60
NOTE_OFF_56
NOTE_OFF_52
NOTE_OFF_50
NOTE_OFF_28
NOTE_OFF_40
VEL_1
NOTE_ON_33
TIME_SHIFT_64ND_9
VEL_1
NOTE_ON_40
TIME_SHIFT_64ND_8
VEL_1
NOTE_ON_48
TIME_SHIFT_64ND_8
VEL_1
NOTE_ON_52
TIME_SHIFT_64ND_7
VEL_2
NOTE_ON_57
TIME_SHIFT_64ND_222
NOTE_OFF_57
NOTE_OFF_52
NOTE_OFF_48
NOTE_OFF_40
NOTE_OFF_33
