TIME_SHIFT_64ND_24
VEL_3
NOTE_ON_92
TIME_SHIFT_64ND_2
NOTE_OFF_92
VEL_2
NOTE_ON_93
TIME_SHIFT_64ND_2
NOTE_OFF_93
VEL_2
NOTE_ON_92
TIME_SHIFT_64ND_2
NOTE_OFF_92
VEL_2
NOTE_ON_93
TIME_SHIFT_64ND_2
NOTE_OFF_93
VEL_2
NOTE_ON_92
TIME_SHIFT_64ND_1
VEL_2
NOTE_ON_49
TIME_SHIFT_64ND_1
NOTE_OFF_92
VEL_2
NOTE_ON_91
VEL_2
NOTE_ON_56
TIME_SHIFT_64ND_1
NOTE_OFF_91
VEL_3
NOTE_ON_97
VEL_2
NOTE_ON_92
VEL_2
NOTE_ON_64
TIME_SHIFT_64ND_2
NOTE_OFF_97
NOTE_OFF_92
VEL_2
NOTE_ON_93
TIME_SHIFT_64ND_2
NOTE_OFF_93
VEL_2
NOTE_ON_92
TIME_SHIFT_64ND_2
NOTE_OFF_92
VEL_2
NOTE_ON_88
TIME_SHIFT_64ND_3
NOTE_OFF_88
VEL_2
NOTE_ON_87
TIME_SHIFT_64ND_3
NOTE_OFF_87
NOTE_OFF_64
NOTE_OFF_56
NOTE_OFF_49
VEL_2
NOTE_ON_85
VEL_3
NOTE_ON_92
TIME_SHIFT_64ND_2
NOTE_OFF_85
NOTE_OFF_92
VEL_2
NOTE_ON_87
TIME_SHIFT_64ND_2
NOTE_OFF_87
VEL_2
NOTE_ON_85
TIME_SHIFT_64ND_2
NOTE_OFF_85
VEL_2
NOTE_ON_81
TIME_SHIFT_64ND_3
NOTE_OFF_81
VEL_2
NOTE_ON_80
VEL_1
NOTE_ON_42
TIME_SHIFT_64ND_1
VEL_2
NOTE_ON_49
TIME_SHIFT_64ND_1
NOTE_OFF_80
VEL_2
NOTE_ON_78
VEL_3
NOTE_ON_85
VEL_2
NOTE_ON_57
TIME_SHIFT_64ND_2
NOTE_OFF_78
NOTE_OFF_85
VEL_2
NOTE_ON_80
TIME_SHIFT_64ND_2
NOTE_OFF_80
VEL_2
NOTE_ON_78
TIME_SHIFT_64ND_2
NOTE_OFF_78
NOTE_OFF_57
NOTE_OFF_49
NOTE_OFF_42
VEL_2
NOTE_ON_76
TIME_SHIFT_64ND_3
NOTE_OFF_76
VEL_2
NOTE_ON_75
VEL_2
NOTE_ON_49
TIME_SHIFT_64ND_1
VEL_2
NOTE_ON_56
TIME_SHIFT_64ND_1
NOTE_OFF_75
VEL_2
NOTE_ON_73
VEL_3
NOTE_ON_80
VEL_2
NOTE_ON_64
TIME_SHIFT_64ND_2
NOTE_OFF_73
NOTE_OFF_80
VEL_2
NOTE_ON_75
TIME_SHIFT_64ND_2
NOTE_OFF_75
VEL_2
NOTE_ON_73
TIME_SHIFT_64ND_2
NOTE_OFF_73
NOTE_OFF_64
NOTE_OFF_56
NOTE_OFF_49
VEL_2
NOTE_ON_69
TIME_SHIFT_64ND_3
NOTE_OFF_69
VEL_2
NOTE_ON_68
VEL_2
NOTE_ON_42
TIME_SHIFT_64ND_1
VEL_2
NOTE_ON_49
TIME_SHIFT_64ND_1
NOTE_OFF_68
VEL_3
NOTE_ON_73
VEL_2
NOTE_ON_66
VEL_2
NOTE_ON_57
TIME_SHIFT_64ND_2
NOTE_OFF_73
NOTE_OFF_66
VEL_2
NOTE_ON_68
TIME_SHIFT_64ND_2
NOTE_OFF_68
VEL_2
NOTE_ON_66
TIME_SHIFT_64ND_2
NOTE_OFF_66
NOTE_OFF_57
NOTE_OFF_49
NOTE_OFF_42
VEL_2
NOTE_ON_64
TIME_SHIFT_64ND_3
NOTE_OFF_64
VEL_2
NOTE_ON_63
VEL_2
NOTE_ON_37
TIME_SHIFT_64ND_1
VEL_2
NOTE_ON_44
TIME_SHIFT_64ND_1
NOTE_OFF_63
VEL_3
NOTE_ON_68
VEL_2
NOTE_ON_61
VEL_2
NOTE_ON_52
TIME_SHIFT_64ND_2
NOTE_OFF_68
NOTE_OFF_61
VEL_2
NOTE_ON_63
TIME_SHIFT_64ND_2
NOTE_OFF_63
VEL_2
NOTE_ON_61
TIME_SHIFT_64ND_2
NOTE_OFF_61
NOTE_OFF_52
NOTE_OFF_44
NOTE_OFF_37
VEL_2
NOTE_ON_59
TIME_SHIFT_64ND_3
NOTE_OFF_59
VEL_2
NOTE_ON_57
TIME_SHIFT_64ND_3
NOTE_OFF_57
VEL_2
NOTE_ON_56
TIME_SHIFT_64ND_11
VEL_2
NOTE_ON_51
VEL_3
NOTE_ON_60
VEL_3
NOTE_ON_44
TIME_SHIFT_64ND_12
NOTE_OFF_51
NOTE_OFF_60
VEL_2
NOTE_ON_49
VEL_2
NOTE_ON_32
VEL_2
NOTE_ON_58
TIME_SHIFT_64ND_12
NOTE_OFF_49
NOTE_OFF_32
NOTE_OFF_58
NOTE_OFF_44
VEL_2
NOTE_ON_44
VEL_2
NOTE_ON_60
VEL_2
NOTE_ON_51
TIME_SHIFT_64ND_6
NOTE_OFF_44
TIME_SHIFT_64ND_3
NOTE_OFF_60
NOTE_OFF_51
TIME_SHIFT_64ND_1
VEL_2
NOTE_ON_61
VEL_2
NOTE_ON_52
VEL_2
NOTE_ON_44
TIME_SHIFT_64ND_3
NOTE_OFF_61
NOTE_OFF_52
NOTE_OFF_44
VEL_2
NOTE_ON_63
VEL_2
NOTE_ON_60
VEL_2
NOTE_ON_54
VEL_2
NOTE_ON_44
TIME_SHIFT_64ND_24
NOTE_OFF_63
NOTE_OFF_60
NOTE_OFF_56
NOTE_OFF_54
VEL_2
NOTE_ON_64
VEL_2
NOTE_ON_32
VEL_2
NOTE_ON_56
TIME_SHIFT_64ND_12
VEL_1
NOTE_ON_49
TIME_SHIFT_64ND_2
NOTE_OFF_32
NOTE_OFF_56
VEL_2
NOTE_ON_56
TIME_SHIFT_64ND_2
NOTE_OFF_64
NOTE_OFF_44
VEL_2
NOTE_ON_92
VEL_3
NOTE_ON_97
VEL_2
NOTE_ON_64
TIME_SHIFT_64ND_2
NOTE_OFF_92
NOTE_OFF_97
VEL_2
NOTE_ON_93
TIME_SHIFT_64ND_2
NOTE_OFF_93
VEL_2
NOTE_ON_92
TIME_SHIFT_64ND_2
NOTE_OFF_92
VEL_2
NOTE_ON_88
TIME_SHIFT_64ND_3
NOTE_OFF_88
VEL_2
NOTE_ON_87
TIME_SHIFT_64ND_3
NOTE_OFF_87
NOTE_OFF_64
NOTE_OFF_56
NOTE_OFF_49
VEL_2
NOTE_ON_85
VEL_3
NOTE_ON_92
TIME_SHIFT_64ND_2
NOTE_OFF_85
NOTE_OFF_92
VEL_2
NOTE_ON_87
TIME_SHIFT_64ND_2
NOTE_OFF_87
VEL_2
NOTE_ON_85
TIME_SHIFT_64ND_2
NOTE_OFF_85
VEL_2
NOTE_ON_81
TIME_SHIFT_64ND_3
NOTE_OFF_81
VEL_2
NOTE_ON_80
VEL_2
NOTE_ON_42
TIME_SHIFT_64ND_1
VEL_2
NOTE_ON_49
TIME_SHIFT_64ND_1
NOTE_OFF_80
VEL_2
NOTE_ON_78
VEL_3
NOTE_ON_85
VEL_2
NOTE_ON_57
TIME_SHIFT_64ND_2
NOTE_OFF_78
NOTE_OFF_85
VEL_2
NOTE_ON_80
TIME_SHIFT_64ND_2
NOTE_OFF_80
VEL_2
NOTE_ON_78
TIME_SHIFT_64ND_2
NOTE_OFF_78
NOTE_OFF_57
NOTE_OFF_49
NOTE_OFF_42
VEL_2
NOTE_ON_76
TIME_SHIFT_64ND_3
NOTE_OFF_76
VEL_2
NOTE_ON_75
VEL_2
NOTE_ON_49
TIME_SHIFT_64ND_1
VEL_2
NOTE_ON_56
TIME_SHIFT_64ND_1
NOTE_OFF_75
VEL_3
NOTE_ON_80
VEL_2
NOTE_ON_73
VEL_2
NOTE_ON_64
TIME_SHIFT_64ND_2
NOTE_OFF_80
NOTE_OFF_73
VEL_2
NOTE_ON_75
TIME_SHIFT_64ND_2
NOTE_OFF_75
VEL_2
NOTE_ON_73
TIME_SHIFT_64ND_2
NOTE_OFF_73
NOTE_OFF_64
NOTE_OFF_56
NOTE_OFF_49
VEL_2
NOTE_ON_69
TIME_SHIFT_64ND_3
NOTE_OFF_69
VEL_2
NOTE_ON_68
VEL_1
NOTE_ON_42
TIME_SHIFT_64ND_1
VEL_2
NOTE_ON_49
TIME_SHIFT_64ND_1
NOTE_OFF_68
VEL_3
NOTE_ON_73
VEL_2
NOTE_ON_66
VEL_2
NOTE_ON_57
TIME_SHIFT_64ND_2
NOTE_OFF_73
NOTE_OFF_66
VEL_2
NOTE_ON_68
TIME_SHIFT_64ND_2
NOTE_OFF_68
VEL_2
NOTE_ON_66
TIME_SHIFT_64ND_2
NOTE_OFF_66
NOTE_OFF_57
NOTE_OFF_49
NOTE_OFF_42
VEL_2
NOTE_ON_64
TIME_SHIFT_64ND_3
NOTE_OFF_64
VEL_2
NOTE_ON_63
VEL_2
NOTE_ON_37
TIME_SHIFT_64ND_1
VEL_2
NOTE_ON_44
TIME_SHIFT_64ND_1
NOTE_OFF_63
VEL_2
NOTE_ON_61
VEL_3
NOTE_ON_68
VEL_2
NOTE_ON_52
TIME_SHIFT_64ND_2
NOTE_OFF_61
NOTE_OFF_68
VEL_2
NOTE_ON_63
TIME_SHIFT_64ND_2
NOTE_OFF_63
VEL_2
NOTE_ON_61
TIME_SHIFT_64ND_2
NOTE_OFF_61
NOTE_OFF_52
NOTE_OFF_44
NOTE_OFF_37
VEL_2
NOTE_ON_59
TIME_SHIFT_64ND_3
NOTE_OFF_59
VEL_2
NOTE_ON_58
TIME_SHIFT_64ND_3
NOTE_OFF_58
VEL_2
NOTE_ON_56
TIME_SHIFT_64ND_13
VEL_3
NOTE_ON_63
VEL_2
NOTE_ON_39
VEL_3
NOTE_ON_60
VEL_2
NOTE_ON_51
TIME_SHIFT_64ND_9
VEL_2
NOTE_ON_38
TIME_SHIFT_64ND_2
NOTE_OFF_38
VEL_2
NOTE_ON_39
TIME_SHIFT_64ND_1
NOTE_OFF_39
NOTE_OFF_39
TIME_SHIFT_64ND_1
NOTE_OFF_56
NOTE_OFF_60
VEL_3
NOTE_ON_39
VEL_3
NOTE_ON_58
VEL_2
NOTE_ON_55
TIME_SHIFT_64ND_2
NOTE_OFF_39
VEL_2
NOTE_ON_40
TIME_SHIFT_64ND_2
NOTE_OFF_40
VEL_3
NOTE_ON_39
TIME_SHIFT_64ND_2
NOTE_OFF_39
VEL_3
NOTE_ON_40
TIME_SHIFT_64ND_2
NOTE_OFF_40
VEL_3
NOTE_ON_39
TIME_SHIFT_64ND_2
NOTE_OFF_39
VEL_3
NOTE_ON_40
TIME_SHIFT_64ND_2
NOTE_OFF_40
VEL_3
NOTE_ON_39
TIME_SHIFT_64ND_1
NOTE_OFF_39
VEL_3
NOTE_ON_38
TIME_SHIFT_64ND_1
NOTE_OFF_38
VEL_3
NOTE_ON_39
TIME_SHIFT_64ND_1
NOTE_OFF_63
NOTE_OFF_39
NOTE_OFF_51
NOTE_OFF_58
NOTE_OFF_55
VEL_3
NOTE_ON_44
VEL_3
NOTE_ON_56
VEL_3
NOTE_ON_51
VEL_4
NOTE_ON_59
TIME_SHIFT_64ND_6
NOTE_OFF_44
TIME_SHIFT_64ND_3
NOTE_OFF_56
NOTE_OFF_51
NOTE_OFF_59
TIME_SHIFT_64ND_1
VEL_3
NOTE_ON_61
VEL_3
NOTE_ON_58
VEL_3
NOTE_ON_44
VEL_3
NOTE_ON_51
TIME_SHIFT_64ND_3
NOTE_OFF_61
NOTE_OFF_58
NOTE_OFF_44
NOTE_OFF_51
VEL_3
NOTE_ON_44
VEL_3
NOTE_ON_51
VEL_3
NOTE_ON_59
VEL_3
NOTE_ON_63
TIME_SHIFT_64ND_24
NOTE_OFF_44
NOTE_OFF_51
NOTE_OFF_59
NOTE_OFF_63
VEL_2
NOTE_ON_68
VEL_2
NOTE_ON_32
VEL_2
NOTE_ON_56
TIME_SHIFT_64ND_12
NOTE_OFF_32
NOTE_OFF_56
VEL_1
NOTE_ON_42
TIME_SHIFT_64ND_2
VEL_1
NOTE_ON_49
TIME_SHIFT_64ND_2
NOTE_OFF_68
VEL_2
NOTE_ON_97
VEL_1
NOTE_ON_90
VEL_2
NOTE_ON_57
TIME_SHIFT_64ND_2
NOTE_OFF_97
NOTE_OFF_90
VEL_2
NOTE_ON_92
TIME_SHIFT_64ND_2
NOTE_OFF_92
VEL_2
NOTE_ON_90
TIME_SHIFT_64ND_2
NOTE_OFF_90
NOTE_OFF_57
NOTE_OFF_49
VEL_2
NOTE_ON_86
TIME_SHIFT_64ND_3
NOTE_OFF_86
VEL_2
NOTE_ON_85
VEL_1
NOTE_ON_47
TIME_SHIFT_64ND_1
VEL_1
NOTE_ON_54
TIME_SHIFT_64ND_1
NOTE_OFF_85
NOTE_OFF_42
VEL_2
NOTE_ON_90
VEL_1
NOTE_ON_83
VEL_2
NOTE_ON_62
TIME_SHIFT_64ND_2
NOTE_OFF_90
NOTE_OFF_83
VEL_2
NOTE_ON_85
TIME_SHIFT_64ND_2
NOTE_OFF_85
VEL_2
NOTE_ON_83
TIME_SHIFT_64ND_2
NOTE_OFF_83
NOTE_OFF_62
NOTE_OFF_54
NOTE_OFF_47
VEL_2
NOTE_ON_81
TIME_SHIFT_64ND_3
NOTE_OFF_81
VEL_2
NOTE_ON_80
VEL_1
NOTE_ON_42
TIME_SHIFT_64ND_1
VEL_1
NOTE_ON_49
TIME_SHIFT_64ND_1
NOTE_OFF_80
VEL_2
NOTE_ON_85
VEL_1
NOTE_ON_78
VEL_2
NOTE_ON_57
TIME_SHIFT_64ND_2
NOTE_OFF_85
NOTE_OFF_78
VEL_2
NOTE_ON_80
TIME_SHIFT_64ND_2
NOTE_OFF_80
VEL_2
NOTE_ON_78
TIME_SHIFT_64ND_2
NOTE_OFF_78
NOTE_OFF_57
NOTE_OFF_49
NOTE_OFF_42
VEL_2
NOTE_ON_74
TIME_SHIFT_64ND_3
NOTE_OFF_74
VEL_2
NOTE_ON_73
VEL_1
NOTE_ON_47
TIME_SHIFT_64ND_1
VEL_1
NOTE_ON_54
TIME_SHIFT_64ND_1
NOTE_OFF_73
VEL_1
NOTE_ON_71
VEL_2
NOTE_ON_78
VEL_2
NOTE_ON_62
TIME_SHIFT_64ND_2
NOTE_OFF_71
NOTE_OFF_78
VEL_2
NOTE_ON_73
TIME_SHIFT_64ND_2
NOTE_OFF_73
VEL_2
NOTE_ON_71
TIME_SHIFT_64ND_2
NOTE_OFF_71
NOTE_OFF_62
NOTE_OFF_54
NOTE_OFF_47
VEL_2
NOTE_ON_69
TIME_SHIFT_64ND_3
NOTE_OFF_69
VEL_2
NOTE_ON_68
VEL_1
NOTE_ON_42
TIME_SHIFT_64ND_1
VEL_1
NOTE_ON_49
TIME_SHIFT_64ND_1
NOTE_OFF_68
VEL_1
NOTE_ON_66
VEL_2
NOTE_ON_73
VEL_2
NOTE_ON_57
TIME_SHIFT_64ND_2
NOTE_OFF_66
NOTE_OFF_73
VEL_2
NOTE_ON_68
TIME_SHIFT_64ND_2
NOTE_OFF_68
VEL_2
NOTE_ON_66
TIME_SHIFT_64ND_2
NOTE_OFF_66
NOTE_OFF_57
NOTE_OFF_49
NOTE_OFF_42
VEL_2
NOTE_ON_62
TIME_SHIFT_64ND_3
NOTE_OFF_62
VEL_1
NOTE_ON_61
TIME_SHIFT_64ND_3
NOTE_OFF_61
VEL_1
NOTE_ON_59
VEL_2
NOTE_ON_66
TIME_SHIFT_64ND_2
NOTE_OFF_59
NOTE_OFF_66
VEL_2
NOTE_ON_61
TIME_SHIFT_64ND_2
NOTE_OFF_61
VEL_2
NOTE_ON_59
TIME_SHIFT_64ND_2
NOTE_OFF_59
VEL_2
NOTE_ON_57
TIME_SHIFT_64ND_3
NOTE_OFF_57
VEL_2
NOTE_ON_56
TIME_SHIFT_64ND_3
NOTE_OFF_56
VEL_2
NOTE_ON_54
TIME_SHIFT_64ND_12
VEL_2
NOTE_ON_61
VEL_2
NOTE_ON_42
VEL_2
NOTE_ON_49
VEL_2
NOTE_ON_57
TIME_SHIFT_64ND_13
NOTE_OFF_61
NOTE_OFF_42
VEL_3
NOTE_ON_63
VEL_3
NOTE_ON_39
TIME_SHIFT_64ND_13
NOTE_OFF_63
NOTE_OFF_39
NOTE_OFF_49
NOTE_OFF_57
NOTE_OFF_54
VEL_2
NOTE_ON_44
VEL_2
NOTE_ON_56
VEL_2
NOTE_ON_51
VEL_2
NOTE_ON_60
TIME_SHIFT_64ND_6
NOTE_OFF_44
TIME_SHIFT_64ND_3
NOTE_OFF_56
NOTE_OFF_51
NOTE_OFF_60
TIME_SHIFT_64ND_1
VEL_2
NOTE_ON_61
VEL_2
NOTE_ON_56
VEL_2
NOTE_ON_44
VEL_2
NOTE_ON_52
TIME_SHIFT_64ND_3
NOTE_OFF_61
NOTE_OFF_56
NOTE_OFF_44
NOTE_OFF_52
VEL_2
NOTE_ON_63
VEL_1
NOTE_ON_54
VEL_2
NOTE_ON_60
VEL_1
NOTE_ON_44
TIME_SHIFT_64ND_25
NOTE_OFF_63
NOTE_OFF_54
VEL_2
NOTE_ON_64
VEL_1
NOTE_ON_32
VEL_1
NOTE_ON_56
TIME_SHIFT_64ND_13
NOTE_OFF_32
NOTE_OFF_56
NOTE_OFF_60
VEL_1
NOTE_ON_49
TIME_SHIFT_64ND_2
VEL_2
NOTE_ON_56
TIME_SHIFT_64ND_2
NOTE_OFF_64
NOTE_OFF_44
VEL_3
NOTE_ON_97
VEL_2
NOTE_ON_92
VEL_2
NOTE_ON_64
TIME_SHIFT_64ND_2
NOTE_OFF_97
NOTE_OFF_92
VEL_3
NOTE_ON_93
TIME_SHIFT_64ND_2
NOTE_OFF_93
VEL_2
NOTE_ON_92
TIME_SHIFT_64ND_2
NOTE_OFF_92
VEL_2
NOTE_ON_88
TIME_SHIFT_64ND_3
NOTE_OFF_88
VEL_2
NOTE_ON_87
TIME_SHIFT_64ND_3
NOTE_OFF_87
NOTE_OFF_64
NOTE_OFF_56
NOTE_OFF_49
VEL_2
NOTE_ON_85
VEL_3
NOTE_ON_92
TIME_SHIFT_64ND_2
NOTE_OFF_85
NOTE_OFF_92
VEL_2
NOTE_ON_87
TIME_SHIFT_64ND_2
NOTE_OFF_87
VEL_2
NOTE_ON_85
TIME_SHIFT_64ND_2
NOTE_OFF_85
VEL_2
NOTE_ON_81
TIME_SHIFT_64ND_3
NOTE_OFF_81
VEL_2
NOTE_ON_80
VEL_2
NOTE_ON_42
TIME_SHIFT_64ND_1
VEL_2
NOTE_ON_49
TIME_SHIFT_64ND_1
NOTE_OFF_80
VEL_3
NOTE_ON_85
VEL_2
NOTE_ON_78
VEL_2
NOTE_ON_57
TIME_SHIFT_64ND_2
NOTE_OFF_85
NOTE_OFF_78
VEL_2
NOTE_ON_80
TIME_SHIFT_64ND_2
NOTE_OFF_80
VEL_2
NOTE_ON_78
TIME_SHIFT_64ND_2
NOTE_OFF_78
NOTE_OFF_57
NOTE_OFF_49
NOTE_OFF_42
VEL_2
NOTE_ON_76
TIME_SHIFT_64ND_3
NOTE_OFF_76
VEL_2
NOTE_ON_75
VEL_1
NOTE_ON_49
TIME_SHIFT_64ND_1
VEL_2
NOTE_ON_56
TIME_SHIFT_64ND_1
NOTE_OFF_75
VEL_3
NOTE_ON_80
VEL_2
NOTE_ON_73
VEL_2
NOTE_ON_64
TIME_SHIFT_64ND_2
NOTE_OFF_80
NOTE_OFF_73
VEL_2
NOTE_ON_75
TIME_SHIFT_64ND_2
NOTE_OFF_75
VEL_2
NOTE_ON_73
TIME_SHIFT_64ND_2
NOTE_OFF_73
NOTE_OFF_64
NOTE_OFF_56
NOTE_OFF_49
VEL_2
NOTE_ON_69
TIME_SHIFT_64ND_3
NOTE_OFF_69
VEL_2
NOTE_ON_68
VEL_2
NOTE_ON_42
TIME_SHIFT_64ND_1
VEL_2
NOTE_ON_49
TIME_SHIFT_64ND_1
NOTE_OFF_68
VEL_2
NOTE_ON_66
VEL_3
NOTE_ON_73
VEL_2
NOTE_ON_57
TIME_SHIFT_64ND_2
NOTE_OFF_66
NOTE_OFF_73
VEL_2
NOTE_ON_68
TIME_SHIFT_64ND_2
NOTE_OFF_68
VEL_2
NOTE_ON_66
TIME_SHIFT_64ND_2
NOTE_OFF_66
NOTE_OFF_57
NOTE_OFF_49
NOTE_OFF_42
VEL_2
NOTE_ON_64
TIME_SHIFT_64ND_3
NOTE_OFF_64
VEL_2
NOTE_ON_63
VEL_1
NOTE_ON_37
TIME_SHIFT_64ND_1
VEL_2
NOTE_ON_44
TIME_SHIFT_64ND_1
NOTE_OFF_63
VEL_2
NOTE_ON_61
VEL_3
NOTE_ON_68
VEL_2
NOTE_ON_52
TIME_SHIFT_64ND_2
NOTE_OFF_61
NOTE_OFF_68
VEL_2
NOTE_ON_63
TIME_SHIFT_64ND_2
NOTE_OFF_63
VEL_2
NOTE_ON_61
TIME_SHIFT_64ND_2
NOTE_OFF_61
NOTE_OFF_52
NOTE_OFF_44
NOTE_OFF_37
VEL_2
NOTE_ON_59
TIME_SHIFT_64ND_3
NOTE_OFF_59
VEL_2
NOTE_ON_57
TIME_SHIFT_64ND_3
NOTE_OFF_57
VEL_3
NOTE_ON_56
TIME_SHIFT_64ND_11
VEL_2
NOTE_ON_51
VEL_3
NOTE_ON_60
VEL_2
NOTE_ON_44
TIME_SHIFT_64ND_12
NOTE_OFF_51
NOTE_OFF_60
VEL_2
NOTE_ON_52
VEL_2
NOTE_ON_32
VEL_3
NOTE_ON_61
TIME_SHIFT_64ND_12
NOTE_OFF_52
NOTE_OFF_32
NOTE_OFF_44
NOTE_OFF_56
NOTE_OFF_61
VEL_2
NOTE_ON_44
VEL_3
NOTE_ON_63
VEL_2
NOTE_ON_51
VEL_2
NOTE_ON_60
TIME_SHIFT_64ND_6
NOTE_OFF_44
TIME_SHIFT_64ND_3
NOTE_OFF_63
NOTE_OFF_51
NOTE_OFF_60
TIME_SHIFT_64ND_1
VEL_3
NOTE_ON_64
VEL_3
NOTE_ON_56
VEL_2
NOTE_ON_44
TIME_SHIFT_64ND_3
NOTE_OFF_64
NOTE_OFF_56
NOTE_OFF_44
VEL_2
NOTE_ON_37
VEL_3
NOTE_ON_61
VEL_2
NOTE_ON_52
TIME_SHIFT_64ND_15
NOTE_OFF_37
NOTE_OFF_61
NOTE_OFF_52
VEL_3
NOTE_ON_69
VEL_3
NOTE_ON_57
TIME_SHIFT_64ND_29
NOTE_OFF_69
VEL_2
NOTE_ON_60
VEL_1
NOTE_ON_51
VEL_1
NOTE_ON_44
TIME_SHIFT_64ND_14
NOTE_OFF_60
NOTE_OFF_51
VEL_2
NOTE_ON_61
VEL_1
NOTE_ON_32
VEL_1
NOTE_ON_52
TIME_SHIFT_64ND_14
NOTE_OFF_61
NOTE_OFF_32
NOTE_OFF_57
NOTE_OFF_44
NOTE_OFF_52
VEL_1
NOTE_ON_60
VEL_1
NOTE_ON_54
VEL_1
NOTE_ON_44
VEL_1
NOTE_ON_56
VEL_2
NOTE_ON_63
TIME_SHIFT_64ND_10
NOTE_OFF_60
NOTE_OFF_54
NOTE_OFF_44
NOTE_OFF_56
NOTE_OFF_63
TIME_SHIFT_64ND_5
VEL_2
NOTE_ON_64
VEL_1
NOTE_ON_60
VEL_1
NOTE_ON_54
VEL_1
NOTE_ON_44
TIME_SHIFT_64ND_4
NOTE_OFF_64
NOTE_OFF_60
NOTE_OFF_54
NOTE_OFF_44
VEL_2
NOTE_ON_61
VEL_1
NOTE_ON_52
VEL_1
NOTE_ON_37
TIME_SHIFT_64ND_16
NOTE_OFF_61
NOTE_OFF_52
NOTE_OFF_37
