VEL_4
NOTE_ON_65
VEL_4
NOTE_ON_41
TIME_SHIFT_64ND_7
NOTE_OFF_65
NOTE_OFF_41
TIME_SHIFT_64ND_3
VEL_4
NOTE_ON_65
TIME_SHIFT_64ND_3
NOTE_OFF_65
VEL_4
NOTE_ON_67
VEL_3
NOTE_ON_53
VEL_3
NOTE_ON_60
VEL_3
NOTE_ON_63
TIME_SHIFT_64ND_13
NOTE_OFF_67
NOTE_OFF_53
NOTE_OFF_60
NOTE_OFF_63
VEL_4
NOTE_ON_69
VEL_3
NOTE_ON_53
VEL_3
NOTE_ON_60
VEL_3
NOTE_ON_63
TIME_SHIFT_64ND_13
NOTE_OFF_69
NOTE_OFF_53
NOTE_OFF_60
NOTE_OFF_63
VEL_4
NOTE_ON_70
VEL_4
NOTE_ON_46
TIME_SHIFT_64ND_6
NOTE_OFF_70
NOTE_OFF_46
TIME_SHIFT_64ND_3
VEL_4
NOTE_ON_72
TIME_SHIFT_64ND_3
NOTE_OFF_72
VEL_4
NOTE_ON_74
VEL_3
NOTE_ON_53
VEL_3
NOTE_ON_58
VEL_3
NOTE_ON_62
TIME_SHIFT_64ND_13
NOTE_OFF_74
NOTE_OFF_53
NOTE_OFF_58
NOTE_OFF_62
VEL_4
NOTE_ON_75
VEL_3
NOTE_ON_46
TIME_SHIFT_64ND_6
NOTE_OFF_75
NOTE_OFF_46
VEL_4
NOTE_ON_77
TIME_SHIFT_64ND_7
NOTE_OFF_77
VEL_5
NOTE_ON_79
VEL_5
NOTE_ON_51
VEL_4
NOTE_ON_39
TIME_SHIFT_64ND_3
NOTE_OFF_79
TIME_SHIFT_64ND_6
VEL_4
NOTE_ON_81
TIME_SHIFT_64ND_1
NOTE_OFF_51
NOTE_OFF_39
VEL_3
NOTE_ON_55
TIME_SHIFT_64ND_1
VEL_3
NOTE_ON_58
TIME_SHIFT_64ND_1
VEL_3
NOTE_ON_63
TIME_SHIFT_64ND_1
NOTE_OFF_81
VEL_4
NOTE_ON_82
VEL_4
NOTE_ON_67
TIME_SHIFT_64ND_2
NOTE_OFF_82
VEL_4
NOTE_ON_84
TIME_SHIFT_64ND_2
NOTE_OFF_84
VEL_4
NOTE_ON_82
TIME_SHIFT_64ND_2
NOTE_OFF_82
VEL_4
NOTE_ON_84
TIME_SHIFT_64ND_2
NOTE_OFF_84
VEL_4
NOTE_ON_82
TIME_SHIFT_64ND_2
NOTE_OFF_82
VEL_4
NOTE_ON_84
TIME_SHIFT_64ND_2
NOTE_OFF_84
VEL_4
NOTE_ON_82
TIME_SHIFT_64ND_2
NOTE_OFF_82
VEL_4
NOTE_ON_84
TIME_SHIFT_64ND_2
NOTE_OFF_84
NOTE_OFF_67
NOTE_OFF_55
NOTE_OFF_58
NOTE_OFF_63
VEL_4
NOTE_ON_81
TIME_SHIFT_64ND_7
NOTE_OFF_81
VEL_3
NOTE_ON_79
TIME_SHIFT_64ND_5
NOTE_OFF_79
VEL_2
NOTE_ON_77
TIME_SHIFT_64ND_2
NOTE_OFF_77
VEL_3
NOTE_ON_82
VEL_2
NOTE_ON_46
TIME_SHIFT_64ND_4
NOTE_OFF_82
TIME_SHIFT_64ND_4
NOTE_OFF_46
TIME_SHIFT_64ND_4
VEL_3
NOTE_ON_82
TIME_SHIFT_64ND_3
NOTE_OFF_82
VEL_2
NOTE_ON_74
VEL_1
NOTE_ON_53
VEL_1
NOTE_ON_58
VEL_1
NOTE_ON_62
TIME_SHIFT_64ND_13
NOTE_OFF_53
NOTE_OFF_58
NOTE_OFF_62
VEL_1
NOTE_ON_53
VEL_1
NOTE_ON_58
VEL_1
NOTE_ON_62
TIME_SHIFT_64ND_12
NOTE_OFF_74
VEL_2
NOTE_ON_75
TIME_SHIFT_64ND_2
NOTE_OFF_75
NOTE_OFF_53
NOTE_OFF_58
NOTE_OFF_62
VEL_3
NOTE_ON_79
VEL_2
NOTE_ON_41
TIME_SHIFT_64ND_4
NOTE_OFF_79
TIME_SHIFT_64ND_4
NOTE_OFF_41
TIME_SHIFT_64ND_4
VEL_2
NOTE_ON_79
TIME_SHIFT_64ND_3
NOTE_OFF_79
VEL_2
NOTE_ON_69
VEL_1
NOTE_ON_53
VEL_1
NOTE_ON_60
VEL_1
NOTE_ON_63
TIME_SHIFT_64ND_13
NOTE_OFF_53
NOTE_OFF_60
NOTE_OFF_63
VEL_1
NOTE_ON_53
VEL_1
NOTE_ON_60
VEL_1
NOTE_ON_63
TIME_SHIFT_64ND_12
NOTE_OFF_69
VEL_2
NOTE_ON_70
TIME_SHIFT_64ND_2
NOTE_OFF_70
NOTE_OFF_53
NOTE_OFF_60
NOTE_OFF_63
VEL_3
NOTE_ON_74
VEL_2
NOTE_ON_46
TIME_SHIFT_64ND_3
NOTE_OFF_74
TIME_SHIFT_64ND_3
NOTE_OFF_46
TIME_SHIFT_64ND_3
VEL_2
NOTE_ON_74
TIME_SHIFT_64ND_3
NOTE_OFF_74
VEL_2
NOTE_ON_64
VEL_1
NOTE_ON_53
VEL_1
NOTE_ON_58
VEL_1
NOTE_ON_62
TIME_SHIFT_64ND_14
NOTE_OFF_53
NOTE_OFF_58
NOTE_OFF_62
VEL_1
NOTE_ON_53
VEL_1
NOTE_ON_58
VEL_1
NOTE_ON_62
TIME_SHIFT_64ND_14
NOTE_OFF_64
NOTE_OFF_53
NOTE_OFF_58
NOTE_OFF_62
VEL_3
NOTE_ON_65
VEL_3
NOTE_ON_41
TIME_SHIFT_64ND_3
NOTE_OFF_65
TIME_SHIFT_64ND_3
NOTE_OFF_41
TIME_SHIFT_64ND_3
VEL_3
NOTE_ON_69
TIME_SHIFT_64ND_3
NOTE_OFF_69
VEL_3
NOTE_ON_72
VEL_2
NOTE_ON_63
VEL_2
NOTE_ON_53
TIME_SHIFT_64ND_7
NOTE_OFF_72
VEL_3
NOTE_ON_75
TIME_SHIFT_64ND_7
NOTE_OFF_75
NOTE_OFF_63
NOTE_OFF_53
VEL_4
NOTE_ON_79
VEL_2
NOTE_ON_63
VEL_2
NOTE_ON_57
VEL_2
NOTE_ON_53
TIME_SHIFT_64ND_11
NOTE_OFF_79
VEL_3
NOTE_ON_77
TIME_SHIFT_64ND_2
NOTE_OFF_77
VEL_3
NOTE_ON_77
TIME_SHIFT_64ND_2
NOTE_OFF_77
NOTE_OFF_63
NOTE_OFF_57
NOTE_OFF_53
VEL_4
NOTE_ON_86
VEL_3
NOTE_ON_46
TIME_SHIFT_64ND_3
NOTE_OFF_86
TIME_SHIFT_64ND_3
NOTE_OFF_46
TIME_SHIFT_64ND_3
VEL_4
NOTE_ON_84
TIME_SHIFT_64ND_3
NOTE_OFF_84
VEL_3
NOTE_ON_82
VEL_2
NOTE_ON_62
VEL_2
NOTE_ON_58
VEL_2
NOTE_ON_53
TIME_SHIFT_64ND_2
NOTE_OFF_82
VEL_3
NOTE_ON_84
TIME_SHIFT_64ND_2
NOTE_OFF_84
VEL_3
NOTE_ON_82
TIME_SHIFT_64ND_3
NOTE_OFF_82
VEL_3
NOTE_ON_79
TIME_SHIFT_64ND_7
NOTE_OFF_79
NOTE_OFF_62
NOTE_OFF_58
NOTE_OFF_53
VEL_3
NOTE_ON_77
VEL_2
NOTE_ON_62
VEL_2
NOTE_ON_58
VEL_2
NOTE_ON_53
TIME_SHIFT_64ND_13
VEL_2
NOTE_ON_79
TIME_SHIFT_64ND_2
NOTE_OFF_79
NOTE_OFF_77
NOTE_OFF_62
NOTE_OFF_58
NOTE_OFF_53
VEL_3
NOTE_ON_82
VEL_2
NOTE_ON_46
TIME_SHIFT_64ND_4
NOTE_OFF_82
TIME_SHIFT_64ND_4
NOTE_OFF_46
TIME_SHIFT_64ND_4
VEL_2
NOTE_ON_82
TIME_SHIFT_64ND_3
NOTE_OFF_82
VEL_2
NOTE_ON_69
VEL_1
NOTE_ON_53
VEL_1
NOTE_ON_60
VEL_1
NOTE_ON_63
TIME_SHIFT_64ND_13
NOTE_OFF_53
NOTE_OFF_60
NOTE_OFF_63
VEL_1
NOTE_ON_53
VEL_1
NOTE_ON_60
VEL_1
NOTE_ON_63
TIME_SHIFT_64ND_10
NOTE_OFF_69
VEL_2
NOTE_ON_70
TIME_SHIFT_64ND_2
NOTE_OFF_70
VEL_2
NOTE_ON_74
TIME_SHIFT_64ND_2
NOTE_OFF_74
NOTE_OFF_53
NOTE_OFF_60
NOTE_OFF_63
VEL_3
NOTE_ON_77
VEL_2
NOTE_ON_46
TIME_SHIFT_64ND_4
NOTE_OFF_77
TIME_SHIFT_64ND_4
NOTE_OFF_46
TIME_SHIFT_64ND_4
VEL_2
NOTE_ON_77
TIME_SHIFT_64ND_3
NOTE_OFF_77
VEL_2
NOTE_ON_64
VEL_1
NOTE_ON_53
VEL_1
NOTE_ON_58
VEL_1
NOTE_ON_62
TIME_SHIFT_64ND_14
NOTE_OFF_53
NOTE_OFF_58
NOTE_OFF_62
VEL_1
NOTE_ON_53
VEL_1
NOTE_ON_58
VEL_1
NOTE_ON_62
TIME_SHIFT_64ND_13
NOTE_OFF_64
NOTE_OFF_53
NOTE_OFF_58
NOTE_OFF_62
VEL_3
NOTE_ON_65
VEL_3
NOTE_ON_41
TIME_SHIFT_64ND_3
NOTE_OFF_65
TIME_SHIFT_64ND_3
NOTE_OFF_41
TIME_SHIFT_64ND_3
VEL_3
NOTE_ON_69
TIME_SHIFT_64ND_3
NOTE_OFF_69
VEL_3
NOTE_ON_72
VEL_2
NOTE_ON_63
VEL_2
NOTE_ON_53
TIME_SHIFT_64ND_7
NOTE_OFF_72
VEL_3
NOTE_ON_75
TIME_SHIFT_64ND_7
NOTE_OFF_75
NOTE_OFF_63
NOTE_OFF_53
VEL_3
NOTE_ON_74
VEL_2
NOTE_ON_63
VEL_2
NOTE_ON_57
VEL_2
NOTE_ON_53
TIME_SHIFT_64ND_2
NOTE_OFF_74
VEL_3
NOTE_ON_75
TIME_SHIFT_64ND_2
NOTE_OFF_75
VEL_3
NOTE_ON_74
TIME_SHIFT_64ND_3
NOTE_OFF_74
VEL_3
NOTE_ON_72
TIME_SHIFT_64ND_7
NOTE_OFF_72
NOTE_OFF_63
NOTE_OFF_57
NOTE_OFF_53
VEL_4
NOTE_ON_74
VEL_3
NOTE_ON_46
TIME_SHIFT_64ND_3
NOTE_OFF_74
TIME_SHIFT_64ND_3
NOTE_OFF_46
TIME_SHIFT_64ND_3
VEL_3
NOTE_ON_65
TIME_SHIFT_64ND_3
NOTE_OFF_65
VEL_3
NOTE_ON_70
VEL_2
NOTE_ON_62
VEL_2
NOTE_ON_58
VEL_2
NOTE_ON_53
TIME_SHIFT_64ND_14
NOTE_OFF_70
NOTE_OFF_62
NOTE_OFF_58
NOTE_OFF_53
VEL_4
NOTE_ON_69
TIME_SHIFT_64ND_7
NOTE_OFF_69
VEL_3
NOTE_ON_67
TIME_SHIFT_64ND_7
NOTE_OFF_67
VEL_4
NOTE_ON_65
VEL_4
NOTE_ON_41
TIME_SHIFT_64ND_7
NOTE_OFF_65
NOTE_OFF_41
TIME_SHIFT_64ND_3
VEL_4
NOTE_ON_65
TIME_SHIFT_64ND_3
NOTE_OFF_65
VEL_4
NOTE_ON_67
VEL_3
NOTE_ON_53
VEL_3
NOTE_ON_60
VEL_3
NOTE_ON_63
TIME_SHIFT_64ND_13
NOTE_OFF_67
NOTE_OFF_53
NOTE_OFF_60
NOTE_OFF_63
VEL_4
NOTE_ON_69
VEL_3
NOTE_ON_53
VEL_3
NOTE_ON_60
VEL_3
NOTE_ON_63
TIME_SHIFT_64ND_13
NOTE_OFF_69
NOTE_OFF_53
NOTE_OFF_60
NOTE_OFF_63
VEL_4
NOTE_ON_70
VEL_4
NOTE_ON_46
TIME_SHIFT_64ND_6
NOTE_OFF_70
NOTE_OFF_46
TIME_SHIFT_64ND_3
VEL_4
NOTE_ON_72
TIME_SHIFT_64ND_3
NOTE_OFF_72
VEL_4
NOTE_ON_74
VEL_3
NOTE_ON_53
VEL_3
NOTE_ON_58
VEL_3
NOTE_ON_62
TIME_SHIFT_64ND_13
NOTE_OFF_74
NOTE_OFF_53
NOTE_OFF_58
NOTE_OFF_62
VEL_4
NOTE_ON_75
VEL_3
NOTE_ON_46
TIME_SHIFT_64ND_6
NOTE_OFF_75
NOTE_OFF_46
VEL_4
NOTE_ON_77
TIME_SHIFT_64ND_7
NOTE_OFF_77
VEL_5
NOTE_ON_79
VEL_5
NOTE_ON_51
VEL_4
NOTE_ON_39
TIME_SHIFT_64ND_3
NOTE_OFF_79
TIME_SHIFT_64ND_6
VEL_4
NOTE_ON_81
TIME_SHIFT_64ND_1
NOTE_OFF_51
NOTE_OFF_39
VEL_3
NOTE_ON_55
TIME_SHIFT_64ND_1
VEL_3
NOTE_ON_58
TIME_SHIFT_64ND_1
VEL_3
NOTE_ON_63
TIME_SHIFT_64ND_1
NOTE_OFF_81
VEL_4
NOTE_ON_82
VEL_4
NOTE_ON_67
TIME_SHIFT_64ND_2
NOTE_OFF_82
VEL_4
NOTE_ON_84
TIME_SHIFT_64ND_2
NOTE_OFF_84
VEL_4
NOTE_ON_82
TIME_SHIFT_64ND_2
NOTE_OFF_82
VEL_4
NOTE_ON_84
TIME_SHIFT_64ND_2
NOTE_OFF_84
VEL_4
NOTE_ON_82
TIME_SHIFT_64ND_2
NOTE_OFF_82
VEL_4
NOTE_ON_84
TIME_SHIFT_64ND_2
NOTE_OFF_84
VEL_4
NOTE_ON_82
TIME_SHIFT_64ND_2
NOTE_OFF_82
VEL_4
NOTE_ON_84
TIME_SHIFT_64ND_2
NOTE_OFF_84
NOTE_OFF_67
NOTE_OFF_55
NOTE_OFF_58
NOTE_OFF_63
VEL_4
NOTE_ON_81
TIME_SHIFT_64ND_7
NOTE_OFF_81
VEL_3
NOTE_ON_79
TIME_SHIFT_64ND_7
NOTE_OFF_79
VEL_2
NOTE_ON_77
TIME_SHIFT_64ND_2
NOTE_OFF_77
VEL_3
NOTE_ON_82
VEL_2
NOTE_ON_46
TIME_SHIFT_64ND_4
NOTE_OFF_82
TIME_SHIFT_64ND_4
NOTE_OFF_46
TIME_SHIFT_64ND_4
VEL_3
NOTE_ON_82
TIME_SHIFT_64ND_3
NOTE_OFF_82
VEL_2
NOTE_ON_74
VEL_1
NOTE_ON_53
VEL_1
NOTE_ON_58
VEL_1
NOTE_ON_62
TIME_SHIFT_64ND_13
NOTE_OFF_53
NOTE_OFF_58
NOTE_OFF_62
VEL_1
NOTE_ON_53
VEL_1
NOTE_ON_58
VEL_1
NOTE_ON_62
TIME_SHIFT_64ND_12
NOTE_OFF_74
VEL_2
NOTE_ON_75
TIME_SHIFT_64ND_2
NOTE_OFF_75
NOTE_OFF_53
NOTE_OFF_58
NOTE_OFF_62
VEL_3
NOTE_ON_79
VEL_2
NOTE_ON_41
TIME_SHIFT_64ND_4
NOTE_OFF_79
TIME_SHIFT_64ND_4
NOTE_OFF_41
TIME_SHIFT_64ND_4
VEL_2
NOTE_ON_79
TIME_SHIFT_64ND_3
NOTE_OFF_79
VEL_2
NOTE_ON_69
VEL_1
NOTE_ON_53
VEL_1
NOTE_ON_60
VEL_1
NOTE_ON_63
TIME_SHIFT_64ND_13
NOTE_OFF_53
NOTE_OFF_60
NOTE_OFF_63
VEL_1
NOTE_ON_53
VEL_1
NOTE_ON_60
VEL_1
NOTE_ON_63
TIME_SHIFT_64ND_12
NOTE_OFF_69
VEL_2
NOTE_ON_70
TIME_SHIFT_64ND_2
NOTE_OFF_70
NOTE_OFF_53
NOTE_OFF_60
NOTE_OFF_63
VEL_3
NOTE_ON_74
VEL_2
NOTE_ON_46
TIME_SHIFT_64ND_4
NOTE_OFF_74
TIME_SHIFT_64ND_4
NOTE_OFF_46
TIME_SHIFT_64ND_4
VEL_2
NOTE_ON_74
TIME_SHIFT_64ND_3
NOTE_OFF_74
VEL_2
NOTE_ON_64
VEL_1
NOTE_ON_53
VEL_1
NOTE_ON_58
VEL_1
NOTE_ON_62
TIME_SHIFT_64ND_14
NOTE_OFF_53
NOTE_OFF_58
NOTE_OFF_62
VEL_1
NOTE_ON_53
VEL_1
NOTE_ON_58
VEL_1
NOTE_ON_62
TIME_SHIFT_64ND_14
NOTE_OFF_64
NOTE_OFF_53
NOTE_OFF_58
NOTE_OFF_62
VEL_3
NOTE_ON_65
VEL_3
NOTE_ON_41
TIME_SHIFT_64ND_3
NOTE_OFF_65
TIME_SHIFT_64ND_3
NOTE_OFF_41
TIME_SHIFT_64ND_3
VEL_3
NOTE_ON_69
TIME_SHIFT_64ND_3
NOTE_OFF_69
VEL_3
NOTE_ON_72
VEL_2
NOTE_ON_63
VEL_2
NOTE_ON_53
TIME_SHIFT_64ND_7
NOTE_OFF_72
VEL_3
NOTE_ON_75
TIME_SHIFT_64ND_7
NOTE_OFF_75
NOTE_OFF_63
NOTE_OFF_53
VEL_4
NOTE_ON_79
VEL_2
NOTE_ON_63
VEL_2
NOTE_ON_57
VEL_2
NOTE_ON_53
TIME_SHIFT_64ND_11
NOTE_OFF_79
VEL_3
NOTE_ON_77
TIME_SHIFT_64ND_2
NOTE_OFF_77
VEL_3
NOTE_ON_77
TIME_SHIFT_64ND_2
NOTE_OFF_77
NOTE_OFF_63
NOTE_OFF_57
NOTE_OFF_53
VEL_4
NOTE_ON_86
VEL_3
NOTE_ON_46
TIME_SHIFT_64ND_3
NOTE_OFF_86
TIME_SHIFT_64ND_3
NOTE_OFF_46
TIME_SHIFT_64ND_3
VEL_3
NOTE_ON_84
TIME_SHIFT_64ND_3
NOTE_OFF_84
VEL_3
NOTE_ON_82
VEL_2
NOTE_ON_62
VEL_1
NOTE_ON_58
VEL_1
NOTE_ON_53
TIME_SHIFT_64ND_2
NOTE_OFF_82
VEL_3
NOTE_ON_84
TIME_SHIFT_64ND_2
NOTE_OFF_84
VEL_3
NOTE_ON_82
TIME_SHIFT_64ND_3
NOTE_OFF_82
VEL_3
NOTE_ON_79
TIME_SHIFT_64ND_7
NOTE_OFF_79
NOTE_OFF_62
NOTE_OFF_58
NOTE_OFF_53
VEL_3
NOTE_ON_77
VEL_2
NOTE_ON_62
VEL_1
NOTE_ON_58
VEL_1
NOTE_ON_53
TIME_SHIFT_64ND_13
VEL_2
NOTE_ON_79
TIME_SHIFT_64ND_2
NOTE_OFF_79
NOTE_OFF_77
NOTE_OFF_62
NOTE_OFF_58
NOTE_OFF_53
VEL_3
NOTE_ON_82
VEL_2
NOTE_ON_46
TIME_SHIFT_64ND_4
NOTE_OFF_82
TIME_SHIFT_64ND_4
NOTE_OFF_46
TIME_SHIFT_64ND_4
VEL_2
NOTE_ON_82
TIME_SHIFT_64ND_3
NOTE_OFF_82
VEL_2
NOTE_ON_69
VEL_1
NOTE_ON_53
VEL_1
NOTE_ON_60
VEL_1
NOTE_ON_63
TIME_SHIFT_64ND_13
NOTE_OFF_53
NOTE_OFF_60
NOTE_OFF_63
VEL_1
NOTE_ON_53
VEL_1
NOTE_ON_60
VEL_1
NOTE_ON_63
TIME_SHIFT_64ND_10
NOTE_OFF_69
VEL_2
NOTE_ON_70
TIME_SHIFT_64ND_2
NOTE_OFF_70
VEL_2
NOTE_ON_74
TIME_SHIFT_64ND_2
NOTE_OFF_74
NOTE_OFF_53
NOTE_OFF_60
NOTE_OFF_63
VEL_3
NOTE_ON_77
VEL_2
NOTE_ON_46
TIME_SHIFT_64ND_4
NOTE_OFF_77
TIME_SHIFT_64ND_4
NOTE_OFF_46
TIME_SHIFT_64ND_4
VEL_2
NOTE_ON_77
TIME_SHIFT_64ND_3
NOTE_OFF_77
VEL_2
NOTE_ON_64
VEL_1
NOTE_ON_53
VEL_1
NOTE_ON_58
VEL_1
NOTE_ON_62
TIME_SHIFT_64ND_14
NOTE_OFF_53
NOTE_OFF_58
NOTE_OFF_62
VEL_1
NOTE_ON_53
VEL_1
NOTE_ON_58
VEL_1
NOTE_ON_62
TIME_SHIFT_64ND_14
NOTE_OFF_64
NOTE_OFF_53
NOTE_OFF_58
NOTE_OFF_62
VEL_3
NOTE_ON_65
VEL_3
NOTE_ON_41
TIME_SHIFT_64ND_3
NOTE_OFF_65
TIME_SHIFT_64ND_3
NOTE_OFF_41
TIME_SHIFT_64ND_3
VEL_3
NOTE_ON_69
TIME_SHIFT_64ND_3
NOTE_OFF_69
VEL_3
NOTE_ON_72
VEL_2
NOTE_ON_63
VEL_2
NOTE_ON_53
TIME_SHIFT_64ND_7
NOTE_OFF_72
VEL_3
NOTE_ON_75
TIME_SHIFT_64ND_7
NOTE_OFF_75
NOTE_OFF_63
NOTE_OFF_53
VEL_3
NOTE_ON_74
VEL_2
NOTE_ON_63
VEL_2
NOTE_ON_57
VEL_2
NOTE_ON_53
TIME_SHIFT_64ND_2
NOTE_OFF_74
VEL_3
NOTE_ON_75
TIME_SHIFT_64ND_2
NOTE_OFF_75
VEL_3
NOTE_ON_74
TIME_SHIFT_64ND_3
NOTE_OFF_74
VEL_3
NOTE_ON_72
TIME_SHIFT_64ND_7
NOTE_OFF_72
NOTE_OFF_63
NOTE_OFF_57
NOTE_OFF_53
VEL_4
NOTE_ON_74
VEL_3
NOTE_ON_46
TIME_SHIFT_64ND_4
NOTE_OFF_74
TIME_SHIFT_64ND_4
NOTE_OFF_46
TIME_SHIFT_64ND_4
VEL_3
NOTE_ON_65
TIME_SHIFT_64ND_4
NOTE_OFF_65
VEL_3
NOTE_ON_70
VEL_2
NOTE_ON_62
VEL_2
NOTE_ON_58
VEL_2
NOTE_ON_53
TIME_SHIFT_64ND_14
NOTE_OFF_70
NOTE_OFF_62
NOTE_OFF_58
NOTE_OFF_53
VEL_2
NOTE_ON_69
TIME_SHIFT_64ND_7
NOTE_OFF_69
VEL_2
NOTE_ON_70
TIME_SHIFT_64ND_7
NOTE_OFF_70
VEL_2
NOTE_ON_72
VEL_2
NOTE_ON_41
TIME_SHIFT_64ND_11
NOTE_OFF_72
VEL_2
NOTE_ON_74
TIME_SHIFT_64ND_3
NOTE_OFF_74
NOTE_OFF_41
VEL_2
NOTE_ON_72
VEL_1
NOTE_ON_57
VEL_1
NOTE_ON_48
TIME_SHIFT_64ND_14
NOTE_OFF_72
NOTE_OFF_57
NOTE_OFF_48
VEL_3
NOTE_ON_76
VEL_2
NOTE_ON_57
VEL_1
NOTE_ON_48
TIME_SHIFT_64ND_7
NOTE_OFF_76
VEL_3
NOTE_ON_77
TIME_SHIFT_64ND_7
NOTE_OFF_77
NOTE_OFF_57
NOTE_OFF_48
VEL_3
NOTE_ON_79
VEL_2
NOTE_ON_41
TIME_SHIFT_64ND_11
NOTE_OFF_79
VEL_3
NOTE_ON_81
TIME_SHIFT_64ND_3
NOTE_OFF_81
NOTE_OFF_41
VEL_3
NOTE_ON_79
VEL_2
NOTE_ON_58
VEL_2
NOTE_ON_50
TIME_SHIFT_64ND_14
NOTE_OFF_79
NOTE_OFF_58
NOTE_OFF_50
VEL_3
NOTE_ON_77
VEL_2
NOTE_ON_58
VEL_2
NOTE_ON_50
TIME_SHIFT_64ND_7
NOTE_OFF_77
VEL_3
NOTE_ON_74
TIME_SHIFT_64ND_7
NOTE_OFF_74
NOTE_OFF_58
NOTE_OFF_50
VEL_3
NOTE_ON_72
VEL_2
NOTE_ON_41
TIME_SHIFT_64ND_7
NOTE_OFF_72
VEL_3
NOTE_ON_74
TIME_SHIFT_64ND_7
NOTE_OFF_74
NOTE_OFF_41
VEL_3
NOTE_ON_72
VEL_2
NOTE_ON_57
VEL_2
NOTE_ON_48
TIME_SHIFT_64ND_14
NOTE_OFF_72
NOTE_OFF_57
NOTE_OFF_48
VEL_3
NOTE_ON_76
VEL_2
NOTE_ON_57
VEL_2
NOTE_ON_48
TIME_SHIFT_64ND_7
NOTE_OFF_76
TIME_SHIFT_64ND_4
VEL_3
NOTE_ON_77
TIME_SHIFT_64ND_4
NOTE_OFF_77
NOTE_OFF_57
NOTE_OFF_48
VEL_3
NOTE_ON_79
VEL_2
NOTE_ON_41
TIME_SHIFT_64ND_5
NOTE_OFF_79
VEL_3
NOTE_ON_81
TIME_SHIFT_64ND_2
NOTE_OFF_41
TIME_SHIFT_64ND_2
NOTE_OFF_81
VEL_3
NOTE_ON_79
TIME_SHIFT_64ND_5
NOTE_OFF_79
VEL_3
NOTE_ON_77
VEL_2
NOTE_ON_58
VEL_1
NOTE_ON_50
TIME_SHIFT_64ND_7
NOTE_OFF_58
NOTE_OFF_50
TIME_SHIFT_64ND_7
VEL_2
NOTE_ON_41
TIME_SHIFT_64ND_7
NOTE_OFF_77
NOTE_OFF_41
VEL_3
NOTE_ON_74
TIME_SHIFT_64ND_7
NOTE_OFF_74
VEL_3
NOTE_ON_72
VEL_2
NOTE_ON_57
VEL_1
NOTE_ON_48
TIME_SHIFT_64ND_7
NOTE_OFF_72
NOTE_OFF_57
NOTE_OFF_48
VEL_3
NOTE_ON_74
TIME_SHIFT_64ND_7
NOTE_OFF_74
VEL_3
NOTE_ON_72
VEL_2
NOTE_ON_41
TIME_SHIFT_64ND_7
NOTE_OFF_41
TIME_SHIFT_64ND_7
NOTE_OFF_72
VEL_3
NOTE_ON_76
VEL_2
NOTE_ON_57
VEL_1
NOTE_ON_48
TIME_SHIFT_64ND_7
NOTE_OFF_76
NOTE_OFF_57
NOTE_OFF_48
VEL_3
NOTE_ON_77
TIME_SHIFT_64ND_7
NOTE_OFF_77
VEL_3
NOTE_ON_79
VEL_2
NOTE_ON_41
TIME_SHIFT_64ND_7
NOTE_OFF_79
NOTE_OFF_41
VEL_3
NOTE_ON_81
TIME_SHIFT_64ND_7
NOTE_OFF_81
VEL_3
NOTE_ON_79
VEL_2
NOTE_ON_58
VEL_2
NOTE_ON_50
TIME_SHIFT_64ND_2
NOTE_OFF_79
VEL_2
NOTE_ON_81
TIME_SHIFT_64ND_2
NOTE_OFF_81
VEL_3
NOTE_ON_79
TIME_SHIFT_64ND_2
NOTE_OFF_79
VEL_3
NOTE_ON_81
TIME_SHIFT_64ND_2
NOTE_OFF_81
NOTE_OFF_58
NOTE_OFF_50
VEL_3
NOTE_ON_79
TIME_SHIFT_64ND_2
NOTE_OFF_79
VEL_3
NOTE_ON_81
TIME_SHIFT_64ND_2
NOTE_OFF_81
VEL_3
NOTE_ON_79
TIME_SHIFT_64ND_2
NOTE_OFF_79
VEL_3
NOTE_ON_81
TIME_SHIFT_64ND_2
NOTE_OFF_81
VEL_3
NOTE_ON_77
VEL_2
NOTE_ON_41
TIME_SHIFT_64ND_7
NOTE_OFF_77
NOTE_OFF_41
VEL_3
NOTE_ON_74
TIME_SHIFT_64ND_7
NOTE_OFF_74
VEL_3
NOTE_ON_72
VEL_2
NOTE_ON_57
VEL_2
NOTE_ON_48
TIME_SHIFT_64ND_7
NOTE_OFF_72
NOTE_OFF_57
NOTE_OFF_48
VEL_3
NOTE_ON_74
TIME_SHIFT_64ND_7
NOTE_OFF_74
VEL_3
NOTE_ON_72
VEL_2
NOTE_ON_41
TIME_SHIFT_64ND_7
NOTE_OFF_41
TIME_SHIFT_64ND_7
NOTE_OFF_72
VEL_3
NOTE_ON_76
VEL_2
NOTE_ON_57
VEL_2
NOTE_ON_48
TIME_SHIFT_64ND_7
NOTE_OFF_76
VEL_3
NOTE_ON_77
TIME_SHIFT_64ND_7
NOTE_OFF_77
NOTE_OFF_57
VEL_4
NOTE_ON_79
VEL_2
NOTE_ON_58
VEL_2
NOTE_ON_52
TIME_SHIFT_64ND_5
NOTE_OFF_79
VEL_3
NOTE_ON_81
TIME_SHIFT_64ND_5
NOTE_OFF_81
VEL_3
NOTE_ON_79
TIME_SHIFT_64ND_5
NOTE_OFF_79
NOTE_OFF_58
NOTE_OFF_52
NOTE_OFF_48
VEL_4
NOTE_ON_77
VEL_2
NOTE_ON_57
VEL_2
NOTE_ON_53
TIME_SHIFT_64ND_11
NOTE_OFF_77
VEL_3
NOTE_ON_67
TIME_SHIFT_64ND_4
NOTE_OFF_67
NOTE_OFF_57
NOTE_OFF_53
VEL_4
NOTE_ON_77
TIME_SHIFT_64ND_5
NOTE_OFF_77
VEL_3
NOTE_ON_66
TIME_SHIFT_64ND_5
NOTE_OFF_66
VEL_4
NOTE_ON_77
TIME_SHIFT_64ND_4
NOTE_OFF_77
VEL_4
NOTE_ON_77
TIME_SHIFT_64ND_2
NOTE_OFF_77
VEL_4
NOTE_ON_65
VEL_4
NOTE_ON_41
TIME_SHIFT_64ND_7
NOTE_OFF_65
NOTE_OFF_41
TIME_SHIFT_64ND_3
VEL_4
NOTE_ON_65
TIME_SHIFT_64ND_3
NOTE_OFF_65
VEL_4
NOTE_ON_67
VEL_3
NOTE_ON_53
VEL_3
NOTE_ON_60
VEL_3
NOTE_ON_63
TIME_SHIFT_64ND_13
NOTE_OFF_67
NOTE_OFF_53
NOTE_OFF_60
NOTE_OFF_63
VEL_4
NOTE_ON_69
VEL_3
NOTE_ON_53
VEL_3
NOTE_ON_60
VEL_3
NOTE_ON_63
TIME_SHIFT_64ND_13
NOTE_OFF_69
NOTE_OFF_53
NOTE_OFF_60
NOTE_OFF_63
VEL_4
NOTE_ON_70
VEL_4
NOTE_ON_46
TIME_SHIFT_64ND_6
NOTE_OFF_70
NOTE_OFF_46
TIME_SHIFT_64ND_3
VEL_4
NOTE_ON_72
TIME_SHIFT_64ND_3
NOTE_OFF_72
VEL_4
NOTE_ON_74
VEL_3
NOTE_ON_53
VEL_3
NOTE_ON_58
VEL_3
NOTE_ON_62
TIME_SHIFT_64ND_13
NOTE_OFF_74
NOTE_OFF_53
NOTE_OFF_58
NOTE_OFF_62
VEL_4
NOTE_ON_75
VEL_3
NOTE_ON_46
TIME_SHIFT_64ND_6
NOTE_OFF_75
NOTE_OFF_46
VEL_4
NOTE_ON_77
TIME_SHIFT_64ND_7
NOTE_OFF_77
VEL_5
NOTE_ON_79
VEL_5
NOTE_ON_51
VEL_4
NOTE_ON_39
TIME_SHIFT_64ND_3
NOTE_OFF_79
TIME_SHIFT_64ND_6
VEL_4
NOTE_ON_81
TIME_SHIFT_64ND_1
NOTE_OFF_51
NOTE_OFF_39
VEL_3
NOTE_ON_55
TIME_SHIFT_64ND_1
VEL_3
NOTE_ON_58
TIME_SHIFT_64ND_1
VEL_3
NOTE_ON_63
TIME_SHIFT_64ND_1
NOTE_OFF_81
VEL_4
NOTE_ON_82
VEL_4
NOTE_ON_67
TIME_SHIFT_64ND_2
NOTE_OFF_82
VEL_4
NOTE_ON_84
TIME_SHIFT_64ND_2
NOTE_OFF_84
VEL_4
NOTE_ON_82
TIME_SHIFT_64ND_2
NOTE_OFF_82
VEL_4
NOTE_ON_84
TIME_SHIFT_64ND_2
NOTE_OFF_84
VEL_4
NOTE_ON_82
TIME_SHIFT_64ND_2
NOTE_OFF_82
VEL_4
NOTE_ON_84
TIME_SHIFT_64ND_2
NOTE_OFF_84
VEL_4
NOTE_ON_82
TIME_SHIFT_64ND_2
NOTE_OFF_82
VEL_4
NOTE_ON_84
TIME_SHIFT_64ND_2
NOTE_OFF_84
NOTE_OFF_67
NOTE_OFF_55
NOTE_OFF_58
NOTE_OFF_63
VEL_4
NOTE_ON_81
TIME_SHIFT_64ND_7
NOTE_OFF_81
VEL_3
NOTE_ON_79
TIME_SHIFT_64ND_5
NOTE_OFF_79
VEL_3
NOTE_ON_77
TIME_SHIFT_64ND_2
NOTE_OFF_77
VEL_3
NOTE_ON_82
VEL_3
NOTE_ON_46
TIME_SHIFT_64ND_4
NOTE_OFF_82
TIME_SHIFT_64ND_4
NOTE_OFF_46
TIME_SHIFT_64ND_4
VEL_3
NOTE_ON_82
TIME_SHIFT_64ND_3
NOTE_OFF_82
VEL_3
NOTE_ON_74
VEL_1
NOTE_ON_53
VEL_1
NOTE_ON_58
VEL_1
NOTE_ON_62
TIME_SHIFT_64ND_13
NOTE_OFF_53
NOTE_OFF_58
NOTE_OFF_62
VEL_1
NOTE_ON_53
VEL_1
NOTE_ON_58
VEL_1
NOTE_ON_62
TIME_SHIFT_64ND_12
NOTE_OFF_74
VEL_3
NOTE_ON_75
TIME_SHIFT_64ND_2
NOTE_OFF_75
NOTE_OFF_53
NOTE_OFF_58
NOTE_OFF_62
VEL_3
NOTE_ON_79
VEL_2
NOTE_ON_41
TIME_SHIFT_64ND_4
NOTE_OFF_79
TIME_SHIFT_64ND_4
NOTE_OFF_41
TIME_SHIFT_64ND_4
VEL_3
NOTE_ON_79
TIME_SHIFT_64ND_3
NOTE_OFF_79
VEL_3
NOTE_ON_69
VEL_1
NOTE_ON_53
VEL_1
NOTE_ON_60
VEL_1
NOTE_ON_63
TIME_SHIFT_64ND_13
NOTE_OFF_53
NOTE_OFF_60
NOTE_OFF_63
VEL_1
NOTE_ON_53
VEL_1
NOTE_ON_60
VEL_1
NOTE_ON_63
TIME_SHIFT_64ND_12
NOTE_OFF_69
VEL_3
NOTE_ON_70
TIME_SHIFT_64ND_2
NOTE_OFF_70
NOTE_OFF_53
NOTE_OFF_60
NOTE_OFF_63
VEL_3
NOTE_ON_74
VEL_3
NOTE_ON_46
TIME_SHIFT_64ND_4
NOTE_OFF_74
TIME_SHIFT_64ND_4
NOTE_OFF_46
TIME_SHIFT_64ND_4
VEL_3
NOTE_ON_74
TIME_SHIFT_64ND_3
NOTE_OFF_74
VEL_3
NOTE_ON_64
VEL_1
NOTE_ON_53
VEL_1
NOTE_ON_58
VEL_1
NOTE_ON_62
TIME_SHIFT_64ND_14
NOTE_OFF_53
NOTE_OFF_58
NOTE_OFF_62
VEL_1
NOTE_ON_53
VEL_1
NOTE_ON_58
VEL_1
NOTE_ON_62
TIME_SHIFT_64ND_14
NOTE_OFF_64
NOTE_OFF_53
NOTE_OFF_58
NOTE_OFF_62
VEL_3
NOTE_ON_65
VEL_3
NOTE_ON_41
TIME_SHIFT_64ND_3
NOTE_OFF_65
TIME_SHIFT_64ND_3
NOTE_OFF_41
TIME_SHIFT_64ND_3
VEL_3
NOTE_ON_69
TIME_SHIFT_64ND_3
NOTE_OFF_69
VEL_3
NOTE_ON_72
VEL_2
NOTE_ON_63
VEL_2
NOTE_ON_53
TIME_SHIFT_64ND_7
NOTE_OFF_72
VEL_3
NOTE_ON_75
TIME_SHIFT_64ND_7
NOTE_OFF_75
NOTE_OFF_63
NOTE_OFF_53
VEL_4
NOTE_ON_79
VEL_2
NOTE_ON_63
VEL_2
NOTE_ON_57
VEL_2
NOTE_ON_53
TIME_SHIFT_64ND_10
NOTE_OFF_79
VEL_3
NOTE_ON_77
TIME_SHIFT_64ND_2
NOTE_OFF_77
VEL_3
NOTE_ON_77
TIME_SHIFT_64ND_2
NOTE_OFF_77
NOTE_OFF_63
NOTE_OFF_57
NOTE_OFF_53
VEL_4
NOTE_ON_86
VEL_3
NOTE_ON_46
TIME_SHIFT_64ND_3
NOTE_OFF_86
TIME_SHIFT_64ND_3
NOTE_OFF_46
TIME_SHIFT_64ND_3
VEL_4
NOTE_ON_84
TIME_SHIFT_64ND_3
NOTE_OFF_84
VEL_3
NOTE_ON_82
VEL_2
NOTE_ON_62
VEL_2
NOTE_ON_58
VEL_2
NOTE_ON_53
TIME_SHIFT_64ND_2
NOTE_OFF_82
VEL_3
NOTE_ON_84
TIME_SHIFT_64ND_2
NOTE_OFF_84
VEL_4
NOTE_ON_82
TIME_SHIFT_64ND_3
NOTE_OFF_82
VEL_3
NOTE_ON_79
TIME_SHIFT_64ND_7
NOTE_OFF_79
NOTE_OFF_62
NOTE_OFF_58
NOTE_OFF_53
VEL_3
NOTE_ON_77
VEL_2
NOTE_ON_62
VEL_2
NOTE_ON_58
VEL_2
NOTE_ON_53
TIME_SHIFT_64ND_12
VEL_2
NOTE_ON_79
TIME_SHIFT_64ND_2
NOTE_OFF_79
NOTE_OFF_77
NOTE_OFF_62
NOTE_OFF_58
NOTE_OFF_53
VEL_3
NOTE_ON_82
VEL_2
NOTE_ON_46
TIME_SHIFT_64ND_4
NOTE_OFF_82
TIME_SHIFT_64ND_4
NOTE_OFF_46
TIME_SHIFT_64ND_4
VEL_2
NOTE_ON_82
TIME_SHIFT_64ND_3
NOTE_OFF_82
VEL_2
NOTE_ON_69
VEL_1
NOTE_ON_53
VEL_1
NOTE_ON_60
VEL_1
NOTE_ON_63
TIME_SHIFT_64ND_13
NOTE_OFF_53
NOTE_OFF_60
NOTE_OFF_63
VEL_1
NOTE_ON_53
VEL_1
NOTE_ON_60
VEL_1
NOTE_ON_63
TIME_SHIFT_64ND_10
NOTE_OFF_69
VEL_2
NOTE_ON_70
TIME_SHIFT_64ND_2
NOTE_OFF_70
VEL_2
NOTE_ON_74
TIME_SHIFT_64ND_2
NOTE_OFF_74
NOTE_OFF_53
NOTE_OFF_60
NOTE_OFF_63
VEL_3
NOTE_ON_77
VEL_2
NOTE_ON_46
TIME_SHIFT_64ND_4
NOTE_OFF_77
TIME_SHIFT_64ND_4
NOTE_OFF_46
TIME_SHIFT_64ND_4
VEL_2
NOTE_ON_77
TIME_SHIFT_64ND_3
NOTE_OFF_77
VEL_2
NOTE_ON_64
VEL_1
NOTE_ON_53
VEL_1
NOTE_ON_58
VEL_1
NOTE_ON_62
TIME_SHIFT_64ND_14
NOTE_OFF_53
NOTE_OFF_58
NOTE_OFF_62
VEL_1
NOTE_ON_53
VEL_1
NOTE_ON_58
VEL_1
NOTE_ON_62
TIME_SHIFT_64ND_13
NOTE_OFF_64
NOTE_OFF_53
NOTE_OFF_58
NOTE_OFF_62
VEL_3
NOTE_ON_65
VEL_3
NOTE_ON_41
TIME_SHIFT_64ND_3
NOTE_OFF_65
TIME_SHIFT_64ND_3
NOTE_OFF_41
TIME_SHIFT_64ND_3
VEL_3
NOTE_ON_69
TIME_SHIFT_64ND_3
NOTE_OFF_69
VEL_3
NOTE_ON_72
VEL_2
NOTE_ON_63
VEL_2
NOTE_ON_53
TIME_SHIFT_64ND_7
NOTE_OFF_72
VEL_3
NOTE_ON_75
TIME_SHIFT_64ND_7
NOTE_OFF_75
NOTE_OFF_63
NOTE_OFF_53
VEL_3
NOTE_ON_74
VEL_2
NOTE_ON_63
VEL_2
NOTE_ON_57
VEL_2
NOTE_ON_53
TIME_SHIFT_64ND_2
NOTE_OFF_74
VEL_3
NOTE_ON_75
TIME_SHIFT_64ND_2
NOTE_OFF_75
VEL_3
NOTE_ON_74
TIME_SHIFT_64ND_3
NOTE_OFF_74
VEL_3
NOTE_ON_72
TIME_SHIFT_64ND_7
NOTE_OFF_72
NOTE_OFF_63
NOTE_OFF_57
NOTE_OFF_53
VEL_4
NOTE_ON_74
VEL_3
NOTE_ON_46
TIME_SHIFT_64ND_3
NOTE_OFF_74
TIME_SHIFT_64ND_3
NOTE_OFF_46
TIME_SHIFT_64ND_3
VEL_3
NOTE_ON_65
TIME_SHIFT_64ND_3
NOTE_OFF_65
VEL_3
NOTE_ON_70
VEL_2
NOTE_ON_62
VEL_2
NOTE_ON_58
VEL_2
NOTE_ON_53
TIME_SHIFT_64ND_13
NOTE_OFF_70
NOTE_OFF_62
NOTE_OFF_58
NOTE_OFF_53
VEL_2
NOTE_ON_69
TIME_SHIFT_64ND_7
NOTE_OFF_69
VEL_2
NOTE_ON_70
TIME_SHIFT_64ND_7
NOTE_OFF_70
VEL_2
NOTE_ON_72
VEL_2
NOTE_ON_41
TIME_SHIFT_64ND_11
NOTE_OFF_72
VEL_2
NOTE_ON_74
TIME_SHIFT_64ND_3
NOTE_OFF_74
NOTE_OFF_41
VEL_2
NOTE_ON_72
VEL_1
NOTE_ON_57
VEL_1
NOTE_ON_48
TIME_SHIFT_64ND_14
NOTE_OFF_72
NOTE_OFF_57
NOTE_OFF_48
VEL_3
NOTE_ON_76
VEL_2
NOTE_ON_57
VEL_1
NOTE_ON_48
TIME_SHIFT_64ND_7
NOTE_OFF_76
VEL_3
NOTE_ON_77
TIME_SHIFT_64ND_7
NOTE_OFF_77
NOTE_OFF_57
NOTE_OFF_48
VEL_3
NOTE_ON_79
VEL_2
NOTE_ON_41
TIME_SHIFT_64ND_11
NOTE_OFF_79
VEL_3
NOTE_ON_81
TIME_SHIFT_64ND_3
NOTE_OFF_81
NOTE_OFF_41
VEL_3
NOTE_ON_79
VEL_2
NOTE_ON_58
VEL_2
NOTE_ON_50
TIME_SHIFT_64ND_14
NOTE_OFF_79
NOTE_OFF_58
NOTE_OFF_50
VEL_3
NOTE_ON_77
VEL_2
NOTE_ON_58
VEL_2
NOTE_ON_50
TIME_SHIFT_64ND_7
NOTE_OFF_77
VEL_3
NOTE_ON_74
TIME_SHIFT_64ND_7
NOTE_OFF_74
NOTE_OFF_58
NOTE_OFF_50
VEL_3
NOTE_ON_72
VEL_2
NOTE_ON_41
TIME_SHIFT_64ND_7
NOTE_OFF_72
VEL_3
NOTE_ON_74
TIME_SHIFT_64ND_7
NOTE_OFF_74
NOTE_OFF_41
VEL_3
NOTE_ON_72
VEL_2
NOTE_ON_57
VEL_2
NOTE_ON_48
TIME_SHIFT_64ND_14
NOTE_OFF_72
NOTE_OFF_57
NOTE_OFF_48
VEL_3
NOTE_ON_76
VEL_2
NOTE_ON_57
VEL_2
NOTE_ON_48
TIME_SHIFT_64ND_7
NOTE_OFF_76
TIME_SHIFT_64ND_4
VEL_3
NOTE_ON_77
TIME_SHIFT_64ND_4
NOTE_OFF_77
NOTE_OFF_57
NOTE_OFF_48
VEL_3
NOTE_ON_79
VEL_2
NOTE_ON_41
TIME_SHIFT_64ND_5
NOTE_OFF_79
VEL_3
NOTE_ON_81
TIME_SHIFT_64ND_2
NOTE_OFF_41
TIME_SHIFT_64ND_2
NOTE_OFF_81
VEL_3
NOTE_ON_79
TIME_SHIFT_64ND_5
NOTE_OFF_79
VEL_3
NOTE_ON_77
VEL_2
NOTE_ON_58
VEL_1
NOTE_ON_50
TIME_SHIFT_64ND_7
NOTE_OFF_58
NOTE_OFF_50
TIME_SHIFT_64ND_7
VEL_2
NOTE_ON_41
TIME_SHIFT_64ND_7
NOTE_OFF_77
NOTE_OFF_41
VEL_3
NOTE_ON_74
TIME_SHIFT_64ND_7
NOTE_OFF_74
VEL_3
NOTE_ON_72
VEL_2
NOTE_ON_57
VEL_1
NOTE_ON_48
TIME_SHIFT_64ND_7
NOTE_OFF_72
NOTE_OFF_57
NOTE_OFF_48
VEL_3
NOTE_ON_74
TIME_SHIFT_64ND_7
NOTE_OFF_74
VEL_3
NOTE_ON_72
VEL_2
NOTE_ON_41
TIME_SHIFT_64ND_7
NOTE_OFF_41
TIME_SHIFT_64ND_7
NOTE_OFF_72
VEL_3
NOTE_ON_76
VEL_2
NOTE_ON_57
VEL_1
NOTE_ON_48
TIME_SHIFT_64ND_7
NOTE_OFF_76
NOTE_OFF_57
NOTE_OFF_48
VEL_3
NOTE_ON_77
TIME_SHIFT_64ND_7
NOTE_OFF_77
VEL_3
NOTE_ON_79
VEL_2
NOTE_ON_41
TIME_SHIFT_64ND_7
NOTE_OFF_79
NOTE_OFF_41
VEL_3
NOTE_ON_81
TIME_SHIFT_64ND_7
NOTE_OFF_81
VEL_3
NOTE_ON_79
VEL_2
NOTE_ON_58
VEL_2
NOTE_ON_50
TIME_SHIFT_64ND_2
NOTE_OFF_79
VEL_2
NOTE_ON_81
TIME_SHIFT_64ND_2
NOTE_OFF_81
VEL_3
NOTE_ON_79
TIME_SHIFT_64ND_2
NOTE_OFF_79
VEL_3
NOTE_ON_81
TIME_SHIFT_64ND_2
NOTE_OFF_81
NOTE_OFF_58
NOTE_OFF_50
VEL_3
NOTE_ON_79
TIME_SHIFT_64ND_2
NOTE_OFF_79
VEL_3
NOTE_ON_81
TIME_SHIFT_64ND_2
NOTE_OFF_81
VEL_3
NOTE_ON_79
TIME_SHIFT_64ND_2
NOTE_OFF_79
VEL_3
NOTE_ON_81
TIME_SHIFT_64ND_2
NOTE_OFF_81
VEL_3
NOTE_ON_77
VEL_2
NOTE_ON_41
TIME_SHIFT_64ND_7
NOTE_OFF_77
NOTE_OFF_41
VEL_3
NOTE_ON_74
TIME_SHIFT_64ND_7
NOTE_OFF_74
VEL_3
NOTE_ON_72
VEL_2
NOTE_ON_57
VEL_2
NOTE_ON_48
TIME_SHIFT_64ND_7
NOTE_OFF_72
NOTE_OFF_57
NOTE_OFF_48
VEL_3
NOTE_ON_74
TIME_SHIFT_64ND_7
NOTE_OFF_74
VEL_3
NOTE_ON_72
VEL_2
NOTE_ON_41
TIME_SHIFT_64ND_7
NOTE_OFF_41
TIME_SHIFT_64ND_7
NOTE_OFF_72
VEL_3
NOTE_ON_76
VEL_2
NOTE_ON_57
VEL_2
NOTE_ON_48
TIME_SHIFT_64ND_7
NOTE_OFF_76
VEL_3
NOTE_ON_77
TIME_SHIFT_64ND_7
NOTE_OFF_77
NOTE_OFF_57
VEL_4
NOTE_ON_79
VEL_2
NOTE_ON_58
VEL_2
NOTE_ON_52
TIME_SHIFT_64ND_5
NOTE_OFF_79
VEL_3
NOTE_ON_81
TIME_SHIFT_64ND_5
NOTE_OFF_81
VEL_3
NOTE_ON_79
TIME_SHIFT_64ND_5
NOTE_OFF_79
NOTE_OFF_58
NOTE_OFF_52
NOTE_OFF_48
VEL_4
NOTE_ON_77
VEL_2
NOTE_ON_57
VEL_2
NOTE_ON_53
TIME_SHIFT_64ND_11
NOTE_OFF_77
VEL_3
NOTE_ON_67
TIME_SHIFT_64ND_4
NOTE_OFF_67
NOTE_OFF_57
NOTE_OFF_53
VEL_4
NOTE_ON_77
TIME_SHIFT_64ND_5
NOTE_OFF_77
VEL_3
NOTE_ON_66
TIME_SHIFT_64ND_6
NOTE_OFF_66
VEL_4
NOTE_ON_77
TIME_SHIFT_64ND_4
NOTE_OFF_77
VEL_4
NOTE_ON_77
TIME_SHIFT_64ND_2
NOTE_OFF_77
VEL_4
NOTE_ON_65
VEL_4
NOTE_ON_41
TIME_SHIFT_64ND_7
NOTE_OFF_65
NOTE_OFF_41
TIME_SHIFT_64ND_3
VEL_4
NOTE_ON_65
TIME_SHIFT_64ND_3
NOTE_OFF_65
VEL_4
NOTE_ON_67
VEL_3
NOTE_ON_53
VEL_3
NOTE_ON_60
VEL_3
NOTE_ON_63
TIME_SHIFT_64ND_13
NOTE_OFF_67
NOTE_OFF_53
NOTE_OFF_60
NOTE_OFF_63
VEL_4
NOTE_ON_69
VEL_3
NOTE_ON_53
VEL_3
NOTE_ON_60
VEL_3
NOTE_ON_63
TIME_SHIFT_64ND_13
NOTE_OFF_69
NOTE_OFF_53
NOTE_OFF_60
NOTE_OFF_63
VEL_4
NOTE_ON_70
VEL_4
NOTE_ON_46
TIME_SHIFT_64ND_6
NOTE_OFF_70
NOTE_OFF_46
TIME_SHIFT_64ND_3
VEL_4
NOTE_ON_72
TIME_SHIFT_64ND_3
NOTE_OFF_72
VEL_4
NOTE_ON_74
VEL_3
NOTE_ON_53
VEL_3
NOTE_ON_58
VEL_3
NOTE_ON_62
TIME_SHIFT_64ND_13
NOTE_OFF_74
NOTE_OFF_53
NOTE_OFF_58
NOTE_OFF_62
VEL_4
NOTE_ON_75
VEL_3
NOTE_ON_46
TIME_SHIFT_64ND_6
NOTE_OFF_75
NOTE_OFF_46
VEL_4
NOTE_ON_77
TIME_SHIFT_64ND_7
NOTE_OFF_77
VEL_5
NOTE_ON_79
VEL_5
NOTE_ON_51
VEL_4
NOTE_ON_39
TIME_SHIFT_64ND_3
NOTE_OFF_79
TIME_SHIFT_64ND_6
VEL_4
NOTE_ON_81
TIME_SHIFT_64ND_1
NOTE_OFF_51
NOTE_OFF_39
VEL_3
NOTE_ON_55
TIME_SHIFT_64ND_1
VEL_3
NOTE_ON_58
TIME_SHIFT_64ND_1
VEL_3
NOTE_ON_63
TIME_SHIFT_64ND_1
NOTE_OFF_81
VEL_4
NOTE_ON_82
VEL_4
NOTE_ON_67
TIME_SHIFT_64ND_2
NOTE_OFF_82
VEL_4
NOTE_ON_84
TIME_SHIFT_64ND_2
NOTE_OFF_84
VEL_4
NOTE_ON_82
TIME_SHIFT_64ND_2
NOTE_OFF_82
VEL_4
NOTE_ON_84
TIME_SHIFT_64ND_2
NOTE_OFF_84
VEL_4
NOTE_ON_82
TIME_SHIFT_64ND_2
NOTE_OFF_82
VEL_4
NOTE_ON_84
TIME_SHIFT_64ND_2
NOTE_OFF_84
VEL_4
NOTE_ON_82
TIME_SHIFT_64ND_2
NOTE_OFF_82
VEL_4
NOTE_ON_84
TIME_SHIFT_64ND_2
NOTE_OFF_84
NOTE_OFF_67
NOTE_OFF_55
NOTE_OFF_58
NOTE_OFF_63
VEL_4
NOTE_ON_81
TIME_SHIFT_64ND_7
NOTE_OFF_81
VEL_3
NOTE_ON_79
TIME_SHIFT_64ND_6
NOTE_OFF_79
VEL_3
NOTE_ON_77
TIME_SHIFT_64ND_2
NOTE_OFF_77
VEL_3
NOTE_ON_82
VEL_3
NOTE_ON_46
TIME_SHIFT_64ND_4
NOTE_OFF_82
TIME_SHIFT_64ND_4
NOTE_OFF_46
TIME_SHIFT_64ND_4
VEL_3
NOTE_ON_82
TIME_SHIFT_64ND_3
NOTE_OFF_82
VEL_3
NOTE_ON_74
VEL_1
NOTE_ON_53
VEL_1
NOTE_ON_58
VEL_1
NOTE_ON_62
TIME_SHIFT_64ND_13
NOTE_OFF_53
NOTE_OFF_58
NOTE_OFF_62
VEL_1
NOTE_ON_53
VEL_1
NOTE_ON_58
VEL_1
NOTE_ON_62
TIME_SHIFT_64ND_12
NOTE_OFF_74
VEL_3
NOTE_ON_75
TIME_SHIFT_64ND_2
NOTE_OFF_75
NOTE_OFF_53
NOTE_OFF_58
NOTE_OFF_62
VEL_3
NOTE_ON_79
VEL_2
NOTE_ON_41
TIME_SHIFT_64ND_4
NOTE_OFF_79
TIME_SHIFT_64ND_4
NOTE_OFF_41
TIME_SHIFT_64ND_4
VEL_3
NOTE_ON_79
TIME_SHIFT_64ND_3
NOTE_OFF_79
VEL_3
NOTE_ON_69
VEL_1
NOTE_ON_53
VEL_1
NOTE_ON_60
VEL_1
NOTE_ON_63
TIME_SHIFT_64ND_13
NOTE_OFF_53
NOTE_OFF_60
NOTE_OFF_63
VEL_1
NOTE_ON_53
VEL_1
NOTE_ON_60
VEL_1
NOTE_ON_63
TIME_SHIFT_64ND_12
NOTE_OFF_69
VEL_3
NOTE_ON_70
TIME_SHIFT_64ND_2
NOTE_OFF_70
NOTE_OFF_53
NOTE_OFF_60
NOTE_OFF_63
VEL_3
NOTE_ON_74
VEL_3
NOTE_ON_46
TIME_SHIFT_64ND_4
NOTE_OFF_74
TIME_SHIFT_64ND_4
NOTE_OFF_46
TIME_SHIFT_64ND_4
VEL_3
NOTE_ON_74
TIME_SHIFT_64ND_3
NOTE_OFF_74
VEL_3
NOTE_ON_64
VEL_1
NOTE_ON_53
VEL_1
NOTE_ON_58
VEL_1
NOTE_ON_62
TIME_SHIFT_64ND_14
NOTE_OFF_53
NOTE_OFF_58
NOTE_OFF_62
VEL_1
NOTE_ON_53
VEL_1
NOTE_ON_58
VEL_1
NOTE_ON_62
TIME_SHIFT_64ND_14
NOTE_OFF_64
NOTE_OFF_53
NOTE_OFF_58
NOTE_OFF_62
VEL_3
NOTE_ON_65
VEL_3
NOTE_ON_41
TIME_SHIFT_64ND_3
NOTE_OFF_65
TIME_SHIFT_64ND_3
NOTE_OFF_41
TIME_SHIFT_64ND_3
VEL_3
NOTE_ON_69
TIME_SHIFT_64ND_3
NOTE_OFF_69
VEL_3
NOTE_ON_72
VEL_2
NOTE_ON_63
VEL_2
NOTE_ON_53
TIME_SHIFT_64ND_7
NOTE_OFF_72
VEL_3
NOTE_ON_75
TIME_SHIFT_64ND_7
NOTE_OFF_75
NOTE_OFF_63
NOTE_OFF_53
VEL_4
NOTE_ON_79
VEL_2
NOTE_ON_63
VEL_2
NOTE_ON_57
VEL_2
NOTE_ON_53
TIME_SHIFT_64ND_11
NOTE_OFF_79
VEL_3
NOTE_ON_77
TIME_SHIFT_64ND_2
NOTE_OFF_77
VEL_3
NOTE_ON_77
TIME_SHIFT_64ND_2
NOTE_OFF_77
NOTE_OFF_63
NOTE_OFF_57
NOTE_OFF_53
VEL_4
NOTE_ON_86
VEL_3
NOTE_ON_46
TIME_SHIFT_64ND_3
NOTE_OFF_86
TIME_SHIFT_64ND_3
NOTE_OFF_46
TIME_SHIFT_64ND_3
VEL_3
NOTE_ON_84
TIME_SHIFT_64ND_3
NOTE_OFF_84
VEL_3
NOTE_ON_82
VEL_2
NOTE_ON_62
VEL_1
NOTE_ON_58
VEL_1
NOTE_ON_53
TIME_SHIFT_64ND_2
NOTE_OFF_82
VEL_3
NOTE_ON_84
TIME_SHIFT_64ND_2
NOTE_OFF_84
VEL_3
NOTE_ON_82
TIME_SHIFT_64ND_3
NOTE_OFF_82
VEL_3
NOTE_ON_79
TIME_SHIFT_64ND_7
NOTE_OFF_79
NOTE_OFF_62
NOTE_OFF_58
NOTE_OFF_53
VEL_3
NOTE_ON_77
VEL_2
NOTE_ON_62
VEL_1
NOTE_ON_58
VEL_1
NOTE_ON_53
TIME_SHIFT_64ND_13
VEL_2
NOTE_ON_79
TIME_SHIFT_64ND_2
NOTE_OFF_79
NOTE_OFF_77
NOTE_OFF_62
NOTE_OFF_58
NOTE_OFF_53
VEL_3
NOTE_ON_82
VEL_2
NOTE_ON_46
TIME_SHIFT_64ND_4
NOTE_OFF_82
TIME_SHIFT_64ND_4
NOTE_OFF_46
TIME_SHIFT_64ND_4
VEL_2
NOTE_ON_82
TIME_SHIFT_64ND_3
NOTE_OFF_82
VEL_2
NOTE_ON_69
VEL_1
NOTE_ON_53
VEL_1
NOTE_ON_60
VEL_1
NOTE_ON_63
TIME_SHIFT_64ND_13
NOTE_OFF_53
NOTE_OFF_60
NOTE_OFF_63
VEL_1
NOTE_ON_53
VEL_1
NOTE_ON_60
VEL_1
NOTE_ON_63
TIME_SHIFT_64ND_10
NOTE_OFF_69
VEL_2
NOTE_ON_70
TIME_SHIFT_64ND_2
NOTE_OFF_70
VEL_2
NOTE_ON_74
TIME_SHIFT_64ND_2
NOTE_OFF_74
NOTE_OFF_53
NOTE_OFF_60
NOTE_OFF_63
VEL_3
NOTE_ON_77
VEL_2
NOTE_ON_46
TIME_SHIFT_64ND_4
NOTE_OFF_77
TIME_SHIFT_64ND_4
NOTE_OFF_46
TIME_SHIFT_64ND_4
VEL_2
NOTE_ON_77
TIME_SHIFT_64ND_3
NOTE_OFF_77
VEL_2
NOTE_ON_64
VEL_1
NOTE_ON_53
VEL_1
NOTE_ON_58
VEL_1
NOTE_ON_62
TIME_SHIFT_64ND_14
NOTE_OFF_53
NOTE_OFF_58
NOTE_OFF_62
VEL_1
NOTE_ON_53
VEL_1
NOTE_ON_58
VEL_1
NOTE_ON_62
TIME_SHIFT_64ND_13
NOTE_OFF_64
NOTE_OFF_53
NOTE_OFF_58
NOTE_OFF_62
VEL_3
NOTE_ON_65
VEL_3
NOTE_ON_41
TIME_SHIFT_64ND_3
NOTE_OFF_65
TIME_SHIFT_64ND_3
NOTE_OFF_41
TIME_SHIFT_64ND_3
VEL_3
NOTE_ON_69
TIME_SHIFT_64ND_3
NOTE_OFF_69
VEL_3
NOTE_ON_72
VEL_2
NOTE_ON_63
VEL_2
NOTE_ON_53
TIME_SHIFT_64ND_7
NOTE_OFF_72
VEL_3
NOTE_ON_75
TIME_SHIFT_64ND_7
NOTE_OFF_75
NOTE_OFF_63
NOTE_OFF_53
VEL_3
NOTE_ON_74
VEL_2
NOTE_ON_63
VEL_2
NOTE_ON_57
VEL_2
NOTE_ON_53
TIME_SHIFT_64ND_2
NOTE_OFF_74
VEL_3
NOTE_ON_75
TIME_SHIFT_64ND_2
NOTE_OFF_75
VEL_3
NOTE_ON_74
TIME_SHIFT_64ND_3
NOTE_OFF_74
VEL_3
NOTE_ON_72
TIME_SHIFT_64ND_7
NOTE_OFF_72
NOTE_OFF_63
NOTE_OFF_57
NOTE_OFF_53
VEL_4
NOTE_ON_74
VEL_3
NOTE_ON_46
TIME_SHIFT_64ND_3
NOTE_OFF_74
TIME_SHIFT_64ND_3
NOTE_OFF_46
TIME_SHIFT_64ND_3
VEL_3
NOTE_ON_65
TIME_SHIFT_64ND_3
NOTE_OFF_65
VEL_3
NOTE_ON_70
VEL_2
NOTE_ON_62
VEL_2
NOTE_ON_58
VEL_2
NOTE_ON_53
TIME_SHIFT_64ND_14
NOTE_OFF_70
NOTE_OFF_62
NOTE_OFF_58
NOTE_OFF_53
VEL_3
NOTE_ON_46
TIME_SHIFT_64ND_14
NOTE_OFF_46
VEL_2
NOTE_ON_77
VEL_1
NOTE_ON_49
VEL_1
NOTE_ON_42
TIME_SHIFT_64ND_4
NOTE_OFF_77
TIME_SHIFT_64ND_7
VEL_2
NOTE_ON_77
TIME_SHIFT_64ND_4
NOTE_OFF_77
NOTE_OFF_49
NOTE_OFF_42
VEL_2
NOTE_ON_76
VEL_1
NOTE_ON_49
VEL_1
NOTE_ON_42
TIME_SHIFT_64ND_14
NOTE_OFF_76
NOTE_OFF_49
NOTE_OFF_42
VEL_2
NOTE_ON_73
VEL_1
NOTE_ON_49
VEL_1
NOTE_ON_42
TIME_SHIFT_64ND_7
NOTE_OFF_73
VEL_2
NOTE_ON_72
TIME_SHIFT_64ND_7
NOTE_OFF_72
NOTE_OFF_49
NOTE_OFF_42
VEL_2
NOTE_ON_70
VEL_1
NOTE_ON_49
VEL_1
NOTE_ON_42
TIME_SHIFT_64ND_7
NOTE_OFF_70
TIME_SHIFT_64ND_4
VEL_2
NOTE_ON_73
TIME_SHIFT_64ND_4
NOTE_OFF_73
NOTE_OFF_49
NOTE_OFF_42
VEL_2
NOTE_ON_72
VEL_1
NOTE_ON_49
VEL_1
NOTE_ON_42
TIME_SHIFT_64ND_2
NOTE_OFF_72
VEL_2
NOTE_ON_73
TIME_SHIFT_64ND_2
NOTE_OFF_73
VEL_2
NOTE_ON_72
TIME_SHIFT_64ND_11
NOTE_OFF_72
NOTE_OFF_49
NOTE_OFF_42
VEL_2
NOTE_ON_70
VEL_1
NOTE_ON_49
VEL_1
NOTE_ON_42
TIME_SHIFT_64ND_7
NOTE_OFF_70
TIME_SHIFT_64ND_4
VEL_2
NOTE_ON_64
TIME_SHIFT_64ND_4
NOTE_OFF_64
NOTE_OFF_49
NOTE_OFF_42
VEL_2
NOTE_ON_77
VEL_1
NOTE_ON_49
VEL_1
NOTE_ON_42
TIME_SHIFT_64ND_4
NOTE_OFF_77
TIME_SHIFT_64ND_7
VEL_2
NOTE_ON_77
TIME_SHIFT_64ND_4
NOTE_OFF_77
NOTE_OFF_49
NOTE_OFF_42
VEL_2
NOTE_ON_76
VEL_1
NOTE_ON_49
VEL_1
NOTE_ON_42
TIME_SHIFT_64ND_14
NOTE_OFF_76
NOTE_OFF_49
NOTE_OFF_42
VEL_2
NOTE_ON_73
VEL_1
NOTE_ON_49
VEL_1
NOTE_ON_42
TIME_SHIFT_64ND_7
NOTE_OFF_73
VEL_2
NOTE_ON_72
TIME_SHIFT_64ND_7
NOTE_OFF_72
NOTE_OFF_49
NOTE_OFF_42
VEL_2
NOTE_ON_70
VEL_1
NOTE_ON_49
VEL_1
NOTE_ON_42
TIME_SHIFT_64ND_5
NOTE_OFF_70
VEL_2
NOTE_ON_72
TIME_SHIFT_64ND_5
NOTE_OFF_72
VEL_2
NOTE_ON_70
TIME_SHIFT_64ND_5
NOTE_OFF_70
NOTE_OFF_49
NOTE_OFF_42
VEL_2
NOTE_ON_64
VEL_1
NOTE_ON_49
VEL_1
NOTE_ON_42
TIME_SHIFT_64ND_15
NOTE_OFF_49
NOTE_OFF_42
VEL_1
NOTE_ON_49
VEL_1
NOTE_ON_42
TIME_SHIFT_64ND_15
NOTE_OFF_64
NOTE_OFF_49
NOTE_OFF_42
VEL_2
NOTE_ON_77
VEL_1
NOTE_ON_49
VEL_1
NOTE_ON_42
TIME_SHIFT_64ND_4
NOTE_OFF_77
TIME_SHIFT_64ND_7
VEL_2
NOTE_ON_77
TIME_SHIFT_64ND_4
NOTE_OFF_77
NOTE_OFF_49
NOTE_OFF_42
VEL_2
NOTE_ON_76
VEL_1
NOTE_ON_49
VEL_1
NOTE_ON_42
TIME_SHIFT_64ND_14
NOTE_OFF_76
NOTE_OFF_49
NOTE_OFF_42
VEL_2
NOTE_ON_73
VEL_1
NOTE_ON_49
VEL_1
NOTE_ON_42
TIME_SHIFT_64ND_7
NOTE_OFF_73
VEL_2
NOTE_ON_72
TIME_SHIFT_64ND_7
NOTE_OFF_72
NOTE_OFF_49
NOTE_OFF_42
VEL_2
NOTE_ON_70
VEL_1
NOTE_ON_49
VEL_1
NOTE_ON_42
TIME_SHIFT_64ND_7
NOTE_OFF_70
TIME_SHIFT_64ND_4
VEL_2
NOTE_ON_73
TIME_SHIFT_64ND_4
NOTE_OFF_73
NOTE_OFF_49
NOTE_OFF_42
VEL_2
NOTE_ON_72
VEL_1
NOTE_ON_49
VEL_1
NOTE_ON_42
TIME_SHIFT_64ND_2
NOTE_OFF_72
VEL_2
NOTE_ON_73
TIME_SHIFT_64ND_2
NOTE_OFF_73
VEL_2
NOTE_ON_72
TIME_SHIFT_64ND_2
NOTE_OFF_72
VEL_2
NOTE_ON_73
TIME_SHIFT_64ND_2
NOTE_OFF_73
VEL_2
NOTE_ON_72
TIME_SHIFT_64ND_2
NOTE_OFF_72
VEL_2
NOTE_ON_73
TIME_SHIFT_64ND_2
NOTE_OFF_73
VEL_2
NOTE_ON_72
TIME_SHIFT_64ND_2
NOTE_OFF_72
VEL_2
NOTE_ON_73
TIME_SHIFT_64ND_2
NOTE_OFF_73
NOTE_OFF_49
NOTE_OFF_42
VEL_2
NOTE_ON_70
VEL_1
NOTE_ON_49
VEL_1
NOTE_ON_42
TIME_SHIFT_64ND_7
NOTE_OFF_70
TIME_SHIFT_64ND_4
VEL_2
NOTE_ON_64
TIME_SHIFT_64ND_4
NOTE_OFF_64
NOTE_OFF_49
NOTE_OFF_42
VEL_2
NOTE_ON_77
VEL_1
NOTE_ON_49
VEL_1
NOTE_ON_42
TIME_SHIFT_64ND_4
NOTE_OFF_77
TIME_SHIFT_64ND_7
VEL_2
NOTE_ON_77
TIME_SHIFT_64ND_4
NOTE_OFF_77
NOTE_OFF_49
NOTE_OFF_42
VEL_2
NOTE_ON_76
VEL_1
NOTE_ON_49
VEL_1
NOTE_ON_42
TIME_SHIFT_64ND_14
NOTE_OFF_76
NOTE_OFF_49
NOTE_OFF_42
VEL_2
NOTE_ON_73
VEL_1
NOTE_ON_49
VEL_1
NOTE_ON_42
TIME_SHIFT_64ND_11
NOTE_OFF_73
VEL_2
NOTE_ON_72
TIME_SHIFT_64ND_4
NOTE_OFF_72
NOTE_OFF_49
NOTE_OFF_42
VEL_2
NOTE_ON_70
VEL_1
NOTE_ON_49
VEL_1
NOTE_ON_41
TIME_SHIFT_64ND_5
NOTE_OFF_70
VEL_2
NOTE_ON_72
TIME_SHIFT_64ND_5
NOTE_OFF_72
VEL_2
NOTE_ON_70
TIME_SHIFT_64ND_5
NOTE_OFF_70
NOTE_OFF_49
VEL_2
NOTE_ON_69
VEL_1
NOTE_ON_48
TIME_SHIFT_64ND_22
NOTE_OFF_69
VEL_3
NOTE_ON_67
TIME_SHIFT_64ND_7
NOTE_OFF_67
NOTE_OFF_48
NOTE_OFF_41
VEL_4
NOTE_ON_65
VEL_4
NOTE_ON_41
TIME_SHIFT_64ND_7
NOTE_OFF_65
NOTE_OFF_41
TIME_SHIFT_64ND_3
VEL_4
NOTE_ON_65
TIME_SHIFT_64ND_3
NOTE_OFF_65
VEL_4
NOTE_ON_67
VEL_3
NOTE_ON_53
VEL_3
NOTE_ON_60
VEL_3
NOTE_ON_63
TIME_SHIFT_64ND_13
NOTE_OFF_67
NOTE_OFF_53
NOTE_OFF_60
NOTE_OFF_63
VEL_4
NOTE_ON_69
VEL_3
NOTE_ON_53
VEL_3
NOTE_ON_60
VEL_3
NOTE_ON_63
TIME_SHIFT_64ND_13
NOTE_OFF_69
NOTE_OFF_53
NOTE_OFF_60
NOTE_OFF_63
VEL_4
NOTE_ON_70
VEL_4
NOTE_ON_46
TIME_SHIFT_64ND_6
NOTE_OFF_70
NOTE_OFF_46
TIME_SHIFT_64ND_3
VEL_4
NOTE_ON_72
TIME_SHIFT_64ND_3
NOTE_OFF_72
VEL_4
NOTE_ON_74
VEL_3
NOTE_ON_53
VEL_3
NOTE_ON_58
VEL_3
NOTE_ON_62
TIME_SHIFT_64ND_13
NOTE_OFF_74
NOTE_OFF_53
NOTE_OFF_58
NOTE_OFF_62
VEL_4
NOTE_ON_75
VEL_3
NOTE_ON_46
TIME_SHIFT_64ND_6
NOTE_OFF_75
NOTE_OFF_46
VEL_4
NOTE_ON_77
TIME_SHIFT_64ND_7
NOTE_OFF_77
VEL_5
NOTE_ON_79
VEL_5
NOTE_ON_51
VEL_4
NOTE_ON_39
TIME_SHIFT_64ND_3
NOTE_OFF_79
TIME_SHIFT_64ND_6
VEL_4
NOTE_ON_81
TIME_SHIFT_64ND_1
NOTE_OFF_51
NOTE_OFF_39
VEL_3
NOTE_ON_55
TIME_SHIFT_64ND_1
VEL_3
NOTE_ON_58
TIME_SHIFT_64ND_1
VEL_3
NOTE_ON_63
TIME_SHIFT_64ND_1
NOTE_OFF_81
VEL_4
NOTE_ON_82
VEL_4
NOTE_ON_67
TIME_SHIFT_64ND_2
NOTE_OFF_82
VEL_4
NOTE_ON_84
TIME_SHIFT_64ND_2
NOTE_OFF_84
VEL_4
NOTE_ON_82
TIME_SHIFT_64ND_2
NOTE_OFF_82
VEL_4
NOTE_ON_84
TIME_SHIFT_64ND_2
NOTE_OFF_84
VEL_4
NOTE_ON_82
TIME_SHIFT_64ND_2
NOTE_OFF_82
VEL_4
NOTE_ON_84
TIME_SHIFT_64ND_2
NOTE_OFF_84
VEL_4
NOTE_ON_82
TIME_SHIFT_64ND_2
NOTE_OFF_82
VEL_4
NOTE_ON_84
TIME_SHIFT_64ND_2
NOTE_OFF_84
NOTE_OFF_67
NOTE_OFF_55
NOTE_OFF_58
NOTE_OFF_63
VEL_4
NOTE_ON_81
TIME_SHIFT_64ND_7
NOTE_OFF_81
VEL_3
NOTE_ON_79
TIME_SHIFT_64ND_6
NOTE_OFF_79
VEL_3
NOTE_ON_77
TIME_SHIFT_64ND_2
NOTE_OFF_77
VEL_3
NOTE_ON_82
VEL_3
NOTE_ON_46
TIME_SHIFT_64ND_4
NOTE_OFF_82
TIME_SHIFT_64ND_4
NOTE_OFF_46
TIME_SHIFT_64ND_4
VEL_3
NOTE_ON_82
TIME_SHIFT_64ND_3
NOTE_OFF_82
VEL_3
NOTE_ON_74
VEL_1
NOTE_ON_53
VEL_1
NOTE_ON_58
VEL_1
NOTE_ON_62
TIME_SHIFT_64ND_13
NOTE_OFF_53
NOTE_OFF_58
NOTE_OFF_62
VEL_1
NOTE_ON_53
VEL_1
NOTE_ON_58
VEL_1
NOTE_ON_62
TIME_SHIFT_64ND_12
NOTE_OFF_74
VEL_3
NOTE_ON_75
TIME_SHIFT_64ND_2
NOTE_OFF_75
NOTE_OFF_53
NOTE_OFF_58
NOTE_OFF_62
VEL_3
NOTE_ON_79
VEL_2
NOTE_ON_41
TIME_SHIFT_64ND_4
NOTE_OFF_79
TIME_SHIFT_64ND_4
NOTE_OFF_41
TIME_SHIFT_64ND_4
VEL_3
NOTE_ON_79
TIME_SHIFT_64ND_3
NOTE_OFF_79
VEL_3
NOTE_ON_69
VEL_1
NOTE_ON_53
VEL_1
NOTE_ON_60
VEL_1
NOTE_ON_63
TIME_SHIFT_64ND_13
NOTE_OFF_53
NOTE_OFF_60
NOTE_OFF_63
VEL_1
NOTE_ON_53
VEL_1
NOTE_ON_60
VEL_1
NOTE_ON_63
TIME_SHIFT_64ND_12
NOTE_OFF_69
VEL_3
NOTE_ON_70
TIME_SHIFT_64ND_2
NOTE_OFF_70
NOTE_OFF_53
NOTE_OFF_60
NOTE_OFF_63
VEL_3
NOTE_ON_74
VEL_3
NOTE_ON_46
TIME_SHIFT_64ND_4
NOTE_OFF_74
TIME_SHIFT_64ND_4
NOTE_OFF_46
TIME_SHIFT_64ND_4
VEL_3
NOTE_ON_74
TIME_SHIFT_64ND_3
NOTE_OFF_74
VEL_3
NOTE_ON_64
VEL_1
NOTE_ON_53
VEL_1
NOTE_ON_58
VEL_1
NOTE_ON_62
TIME_SHIFT_64ND_14
NOTE_OFF_53
NOTE_OFF_58
NOTE_OFF_62
VEL_1
NOTE_ON_53
VEL_1
NOTE_ON_58
VEL_1
NOTE_ON_62
TIME_SHIFT_64ND_14
NOTE_OFF_64
NOTE_OFF_53
NOTE_OFF_58
NOTE_OFF_62
VEL_3
NOTE_ON_65
VEL_3
NOTE_ON_41
TIME_SHIFT_64ND_3
NOTE_OFF_65
TIME_SHIFT_64ND_3
NOTE_OFF_41
TIME_SHIFT_64ND_3
VEL_3
NOTE_ON_69
TIME_SHIFT_64ND_3
NOTE_OFF_69
VEL_3
NOTE_ON_72
VEL_2
NOTE_ON_63
VEL_2
NOTE_ON_53
TIME_SHIFT_64ND_7
NOTE_OFF_72
VEL_3
NOTE_ON_75
TIME_SHIFT_64ND_7
NOTE_OFF_75
NOTE_OFF_63
NOTE_OFF_53
VEL_4
NOTE_ON_79
VEL_2
NOTE_ON_63
VEL_2
NOTE_ON_57
VEL_2
NOTE_ON_53
TIME_SHIFT_64ND_11
NOTE_OFF_79
VEL_3
NOTE_ON_77
TIME_SHIFT_64ND_2
NOTE_OFF_77
VEL_3
NOTE_ON_77
TIME_SHIFT_64ND_2
NOTE_OFF_77
NOTE_OFF_63
NOTE_OFF_57
NOTE_OFF_53
VEL_4
NOTE_ON_86
VEL_3
NOTE_ON_46
TIME_SHIFT_64ND_3
NOTE_OFF_86
TIME_SHIFT_64ND_3
NOTE_OFF_46
TIME_SHIFT_64ND_3
VEL_4
NOTE_ON_84
TIME_SHIFT_64ND_3
NOTE_OFF_84
VEL_3
NOTE_ON_82
VEL_2
NOTE_ON_62
VEL_2
NOTE_ON_58
VEL_2
NOTE_ON_53
TIME_SHIFT_64ND_2
NOTE_OFF_82
VEL_3
NOTE_ON_84
TIME_SHIFT_64ND_2
NOTE_OFF_84
VEL_4
NOTE_ON_82
TIME_SHIFT_64ND_3
NOTE_OFF_82
VEL_3
NOTE_ON_79
TIME_SHIFT_64ND_7
NOTE_OFF_79
NOTE_OFF_62
NOTE_OFF_58
NOTE_OFF_53
VEL_3
NOTE_ON_77
VEL_2
NOTE_ON_62
VEL_2
NOTE_ON_58
VEL_2
NOTE_ON_53
TIME_SHIFT_64ND_12
VEL_2
NOTE_ON_79
TIME_SHIFT_64ND_2
NOTE_OFF_79
NOTE_OFF_77
NOTE_OFF_62
NOTE_OFF_58
NOTE_OFF_53
VEL_3
NOTE_ON_82
VEL_2
NOTE_ON_46
TIME_SHIFT_64ND_4
NOTE_OFF_82
TIME_SHIFT_64ND_4
NOTE_OFF_46
TIME_SHIFT_64ND_4
VEL_2
NOTE_ON_82
TIME_SHIFT_64ND_3
NOTE_OFF_82
VEL_2
NOTE_ON_69
VEL_1
NOTE_ON_53
VEL_1
NOTE_ON_60
VEL_1
NOTE_ON_63
TIME_SHIFT_64ND_13
NOTE_OFF_53
NOTE_OFF_60
NOTE_OFF_63
VEL_1
NOTE_ON_53
VEL_1
NOTE_ON_60
VEL_1
NOTE_ON_63
TIME_SHIFT_64ND_10
NOTE_OFF_69
VEL_2
NOTE_ON_70
TIME_SHIFT_64ND_2
NOTE_OFF_70
VEL_2
NOTE_ON_74
TIME_SHIFT_64ND_2
NOTE_OFF_74
NOTE_OFF_53
NOTE_OFF_60
NOTE_OFF_63
VEL_3
NOTE_ON_77
VEL_2
NOTE_ON_46
TIME_SHIFT_64ND_4
NOTE_OFF_77
TIME_SHIFT_64ND_4
NOTE_OFF_46
TIME_SHIFT_64ND_4
VEL_2
NOTE_ON_77
TIME_SHIFT_64ND_3
NOTE_OFF_77
VEL_2
NOTE_ON_64
VEL_1
NOTE_ON_53
VEL_1
NOTE_ON_58
VEL_1
NOTE_ON_62
TIME_SHIFT_64ND_14
NOTE_OFF_53
NOTE_OFF_58
NOTE_OFF_62
VEL_1
NOTE_ON_53
VEL_1
NOTE_ON_58
VEL_1
NOTE_ON_62
TIME_SHIFT_64ND_13
NOTE_OFF_64
NOTE_OFF_53
NOTE_OFF_58
NOTE_OFF_62
VEL_3
NOTE_ON_65
VEL_3
NOTE_ON_41
TIME_SHIFT_64ND_3
NOTE_OFF_65
TIME_SHIFT_64ND_3
NOTE_OFF_41
TIME_SHIFT_64ND_3
VEL_3
NOTE_ON_69
TIME_SHIFT_64ND_3
NOTE_OFF_69
VEL_3
NOTE_ON_72
VEL_2
NOTE_ON_63
VEL_2
NOTE_ON_53
TIME_SHIFT_64ND_7
NOTE_OFF_72
VEL_3
NOTE_ON_75
TIME_SHIFT_64ND_7
NOTE_OFF_75
NOTE_OFF_63
NOTE_OFF_53
VEL_3
NOTE_ON_74
VEL_2
NOTE_ON_63
VEL_2
NOTE_ON_57
VEL_2
NOTE_ON_53
TIME_SHIFT_64ND_2
NOTE_OFF_74
VEL_3
NOTE_ON_75
TIME_SHIFT_64ND_2
NOTE_OFF_75
VEL_3
NOTE_ON_74
TIME_SHIFT_64ND_7
NOTE_OFF_74
VEL_3
NOTE_ON_72
TIME_SHIFT_64ND_3
NOTE_OFF_72
NOTE_OFF_63
NOTE_OFF_57
NOTE_OFF_53
VEL_4
NOTE_ON_74
VEL_3
NOTE_ON_46
TIME_SHIFT_64ND_3
NOTE_OFF_74
TIME_SHIFT_64ND_3
NOTE_OFF_46
TIME_SHIFT_64ND_3
VEL_3
NOTE_ON_65
TIME_SHIFT_64ND_3
NOTE_OFF_65
VEL_3
NOTE_ON_70
VEL_2
NOTE_ON_62
VEL_2
NOTE_ON_58
VEL_2
NOTE_ON_53
TIME_SHIFT_64ND_14
NOTE_OFF_70
NOTE_OFF_62
NOTE_OFF_58
NOTE_OFF_53
VEL_3
NOTE_ON_46
TIME_SHIFT_64ND_14
NOTE_OFF_46
VEL_2
NOTE_ON_77
VEL_1
NOTE_ON_49
VEL_1
NOTE_ON_42
TIME_SHIFT_64ND_4
NOTE_OFF_77
TIME_SHIFT_64ND_7
VEL_2
NOTE_ON_77
TIME_SHIFT_64ND_4
NOTE_OFF_77
NOTE_OFF_49
NOTE_OFF_42
VEL_2
NOTE_ON_76
VEL_1
NOTE_ON_49
VEL_1
NOTE_ON_42
TIME_SHIFT_64ND_14
NOTE_OFF_76
NOTE_OFF_49
NOTE_OFF_42
VEL_2
NOTE_ON_73
VEL_1
NOTE_ON_49
VEL_1
NOTE_ON_42
TIME_SHIFT_64ND_7
NOTE_OFF_73
VEL_2
NOTE_ON_72
TIME_SHIFT_64ND_7
NOTE_OFF_72
NOTE_OFF_49
NOTE_OFF_42
VEL_2
NOTE_ON_70
VEL_1
NOTE_ON_49
VEL_1
NOTE_ON_42
TIME_SHIFT_64ND_7
NOTE_OFF_70
TIME_SHIFT_64ND_4
VEL_2
NOTE_ON_73
TIME_SHIFT_64ND_4
NOTE_OFF_73
NOTE_OFF_49
NOTE_OFF_42
VEL_2
NOTE_ON_72
VEL_1
NOTE_ON_49
VEL_1
NOTE_ON_42
TIME_SHIFT_64ND_2
NOTE_OFF_72
VEL_2
NOTE_ON_73
TIME_SHIFT_64ND_2
NOTE_OFF_73
VEL_2
NOTE_ON_72
TIME_SHIFT_64ND_11
NOTE_OFF_72
NOTE_OFF_49
NOTE_OFF_42
VEL_2
NOTE_ON_70
VEL_1
NOTE_ON_49
VEL_1
NOTE_ON_42
TIME_SHIFT_64ND_7
NOTE_OFF_70
TIME_SHIFT_64ND_4
VEL_2
NOTE_ON_64
TIME_SHIFT_64ND_4
NOTE_OFF_64
NOTE_OFF_49
NOTE_OFF_42
VEL_2
NOTE_ON_77
VEL_1
NOTE_ON_49
VEL_1
NOTE_ON_42
TIME_SHIFT_64ND_4
NOTE_OFF_77
TIME_SHIFT_64ND_7
VEL_2
NOTE_ON_77
TIME_SHIFT_64ND_4
NOTE_OFF_77
NOTE_OFF_49
NOTE_OFF_42
VEL_2
NOTE_ON_76
VEL_1
NOTE_ON_49
VEL_1
NOTE_ON_42
TIME_SHIFT_64ND_14
NOTE_OFF_76
NOTE_OFF_49
NOTE_OFF_42
VEL_2
NOTE_ON_73
VEL_1
NOTE_ON_49
VEL_1
NOTE_ON_42
TIME_SHIFT_64ND_7
NOTE_OFF_73
VEL_2
NOTE_ON_72
TIME_SHIFT_64ND_7
NOTE_OFF_72
NOTE_OFF_49
NOTE_OFF_42
VEL_2
NOTE_ON_70
VEL_1
NOTE_ON_49
VEL_1
NOTE_ON_42
TIME_SHIFT_64ND_5
NOTE_OFF_70
VEL_2
NOTE_ON_72
TIME_SHIFT_64ND_5
NOTE_OFF_72
VEL_2
NOTE_ON_70
TIME_SHIFT_64ND_5
NOTE_OFF_70
NOTE_OFF_49
NOTE_OFF_42
VEL_2
NOTE_ON_64
VEL_1
NOTE_ON_49
VEL_1
NOTE_ON_42
TIME_SHIFT_64ND_15
NOTE_OFF_49
NOTE_OFF_42
VEL_1
NOTE_ON_49
VEL_1
NOTE_ON_42
TIME_SHIFT_64ND_15
NOTE_OFF_64
NOTE_OFF_49
NOTE_OFF_42
VEL_2
NOTE_ON_77
VEL_1
NOTE_ON_49
VEL_1
NOTE_ON_42
TIME_SHIFT_64ND_4
NOTE_OFF_77
TIME_SHIFT_64ND_7
VEL_2
NOTE_ON_77
TIME_SHIFT_64ND_4
NOTE_OFF_77
NOTE_OFF_49
NOTE_OFF_42
VEL_2
NOTE_ON_76
VEL_1
NOTE_ON_49
VEL_1
NOTE_ON_42
TIME_SHIFT_64ND_14
NOTE_OFF_76
NOTE_OFF_49
NOTE_OFF_42
VEL_2
NOTE_ON_73
VEL_1
NOTE_ON_49
VEL_1
NOTE_ON_42
TIME_SHIFT_64ND_7
NOTE_OFF_73
VEL_2
NOTE_ON_72
TIME_SHIFT_64ND_7
NOTE_OFF_72
NOTE_OFF_49
NOTE_OFF_42
VEL_2
NOTE_ON_70
VEL_1
NOTE_ON_49
VEL_1
NOTE_ON_42
TIME_SHIFT_64ND_7
NOTE_OFF_70
TIME_SHIFT_64ND_4
VEL_2
NOTE_ON_73
TIME_SHIFT_64ND_4
NOTE_OFF_73
NOTE_OFF_49
NOTE_OFF_42
VEL_2
NOTE_ON_72
VEL_1
NOTE_ON_49
VEL_1
NOTE_ON_42
TIME_SHIFT_64ND_2
NOTE_OFF_72
VEL_2
NOTE_ON_73
TIME_SHIFT_64ND_2
NOTE_OFF_73
VEL_2
NOTE_ON_72
TIME_SHIFT_64ND_2
NOTE_OFF_72
VEL_2
NOTE_ON_73
TIME_SHIFT_64ND_2
NOTE_OFF_73
VEL_2
NOTE_ON_72
TIME_SHIFT_64ND_2
NOTE_OFF_72
VEL_2
NOTE_ON_73
TIME_SHIFT_64ND_2
NOTE_OFF_73
VEL_2
NOTE_ON_72
TIME_SHIFT_64ND_2
NOTE_OFF_72
VEL_2
NOTE_ON_73
TIME_SHIFT_64ND_2
NOTE_OFF_73
NOTE_OFF_49
NOTE_OFF_42
VEL_2
NOTE_ON_70
VEL_1
NOTE_ON_49
VEL_1
NOTE_ON_42
TIME_SHIFT_64ND_7
NOTE_OFF_70
TIME_SHIFT_64ND_4
VEL_2
NOTE_ON_64
TIME_SHIFT_64ND_4
NOTE_OFF_64
NOTE_OFF_49
NOTE_OFF_42
VEL_2
NOTE_ON_77
VEL_1
NOTE_ON_49
VEL_1
NOTE_ON_42
TIME_SHIFT_64ND_4
NOTE_OFF_77
TIME_SHIFT_64ND_7
VEL_2
NOTE_ON_77
TIME_SHIFT_64ND_4
NOTE_OFF_77
NOTE_OFF_49
NOTE_OFF_42
VEL_2
NOTE_ON_76
VEL_1
NOTE_ON_49
VEL_1
NOTE_ON_42
TIME_SHIFT_64ND_14
NOTE_OFF_76
NOTE_OFF_49
NOTE_OFF_42
VEL_2
NOTE_ON_73
VEL_1
NOTE_ON_49
VEL_1
NOTE_ON_42
TIME_SHIFT_64ND_11
NOTE_OFF_73
VEL_2
NOTE_ON_72
TIME_SHIFT_64ND_4
NOTE_OFF_72
NOTE_OFF_49
NOTE_OFF_42
VEL_2
NOTE_ON_70
VEL_1
NOTE_ON_49
VEL_1
NOTE_ON_41
TIME_SHIFT_64ND_5
NOTE_OFF_70
VEL_2
NOTE_ON_72
TIME_SHIFT_64ND_5
NOTE_OFF_72
VEL_2
NOTE_ON_70
TIME_SHIFT_64ND_5
NOTE_OFF_70
NOTE_OFF_49
VEL_2
NOTE_ON_69
VEL_1
NOTE_ON_48
TIME_SHIFT_64ND_22
NOTE_OFF_69
VEL_3
NOTE_ON_67
TIME_SHIFT_64ND_7
NOTE_OFF_67
NOTE_OFF_48
NOTE_OFF_41
VEL_4
NOTE_ON_65
VEL_4
NOTE_ON_41
TIME_SHIFT_64ND_7
NOTE_OFF_65
NOTE_OFF_41
TIME_SHIFT_64ND_3
VEL_4
NOTE_ON_65
TIME_SHIFT_64ND_3
NOTE_OFF_65
VEL_4
NOTE_ON_67
VEL_3
NOTE_ON_53
VEL_3
NOTE_ON_60
VEL_3
NOTE_ON_63
TIME_SHIFT_64ND_13
NOTE_OFF_67
NOTE_OFF_53
NOTE_OFF_60
NOTE_OFF_63
VEL_4
NOTE_ON_69
VEL_3
NOTE_ON_53
VEL_3
NOTE_ON_60
VEL_3
NOTE_ON_63
TIME_SHIFT_64ND_13
NOTE_OFF_69
NOTE_OFF_53
NOTE_OFF_60
NOTE_OFF_63
VEL_4
NOTE_ON_70
VEL_4
NOTE_ON_46
TIME_SHIFT_64ND_6
NOTE_OFF_70
NOTE_OFF_46
TIME_SHIFT_64ND_3
VEL_4
NOTE_ON_72
TIME_SHIFT_64ND_3
NOTE_OFF_72
VEL_4
NOTE_ON_74
VEL_3
NOTE_ON_53
VEL_3
NOTE_ON_58
VEL_3
NOTE_ON_62
TIME_SHIFT_64ND_13
NOTE_OFF_74
NOTE_OFF_53
NOTE_OFF_58
NOTE_OFF_62
VEL_4
NOTE_ON_75
VEL_3
NOTE_ON_46
TIME_SHIFT_64ND_6
NOTE_OFF_75
NOTE_OFF_46
VEL_4
NOTE_ON_77
TIME_SHIFT_64ND_7
NOTE_OFF_77
VEL_5
NOTE_ON_79
VEL_5
NOTE_ON_51
VEL_4
NOTE_ON_39
TIME_SHIFT_64ND_3
NOTE_OFF_79
TIME_SHIFT_64ND_6
VEL_4
NOTE_ON_81
TIME_SHIFT_64ND_1
NOTE_OFF_51
NOTE_OFF_39
VEL_3
NOTE_ON_55
TIME_SHIFT_64ND_1
VEL_3
NOTE_ON_58
TIME_SHIFT_64ND_1
VEL_3
NOTE_ON_63
TIME_SHIFT_64ND_1
NOTE_OFF_81
VEL_4
NOTE_ON_82
VEL_4
NOTE_ON_67
TIME_SHIFT_64ND_2
NOTE_OFF_82
VEL_4
NOTE_ON_84
TIME_SHIFT_64ND_2
NOTE_OFF_84
VEL_4
NOTE_ON_82
TIME_SHIFT_64ND_2
NOTE_OFF_82
VEL_4
NOTE_ON_84
TIME_SHIFT_64ND_2
NOTE_OFF_84
VEL_4
NOTE_ON_82
TIME_SHIFT_64ND_2
NOTE_OFF_82
VEL_4
NOTE_ON_84
TIME_SHIFT_64ND_2
NOTE_OFF_84
VEL_4
NOTE_ON_82
TIME_SHIFT_64ND_2
NOTE_OFF_82
VEL_4
NOTE_ON_84
TIME_SHIFT_64ND_2
NOTE_OFF_84
NOTE_OFF_67
NOTE_OFF_55
NOTE_OFF_58
NOTE_OFF_63
VEL_4
NOTE_ON_81
TIME_SHIFT_64ND_7
NOTE_OFF_81
VEL_3
NOTE_ON_79
TIME_SHIFT_64ND_7
NOTE_OFF_79
VEL_3
NOTE_ON_77
TIME_SHIFT_64ND_2
NOTE_OFF_77
VEL_3
NOTE_ON_82
VEL_3
NOTE_ON_46
TIME_SHIFT_64ND_4
NOTE_OFF_82
TIME_SHIFT_64ND_4
NOTE_OFF_46
TIME_SHIFT_64ND_4
VEL_3
NOTE_ON_82
TIME_SHIFT_64ND_3
NOTE_OFF_82
VEL_3
NOTE_ON_74
VEL_1
NOTE_ON_53
VEL_1
NOTE_ON_58
VEL_1
NOTE_ON_62
TIME_SHIFT_64ND_13
NOTE_OFF_53
NOTE_OFF_58
NOTE_OFF_62
VEL_1
NOTE_ON_53
VEL_1
NOTE_ON_58
VEL_1
NOTE_ON_62
TIME_SHIFT_64ND_12
NOTE_OFF_74
VEL_3
NOTE_ON_75
TIME_SHIFT_64ND_2
NOTE_OFF_75
NOTE_OFF_53
NOTE_OFF_58
NOTE_OFF_62
VEL_3
NOTE_ON_79
VEL_2
NOTE_ON_41
TIME_SHIFT_64ND_4
NOTE_OFF_79
TIME_SHIFT_64ND_4
NOTE_OFF_41
TIME_SHIFT_64ND_4
VEL_3
NOTE_ON_79
TIME_SHIFT_64ND_3
NOTE_OFF_79
VEL_3
NOTE_ON_69
VEL_1
NOTE_ON_53
VEL_1
NOTE_ON_60
VEL_1
NOTE_ON_63
TIME_SHIFT_64ND_13
NOTE_OFF_53
NOTE_OFF_60
NOTE_OFF_63
VEL_1
NOTE_ON_53
VEL_1
NOTE_ON_60
VEL_1
NOTE_ON_63
TIME_SHIFT_64ND_12
NOTE_OFF_69
VEL_3
NOTE_ON_70
TIME_SHIFT_64ND_2
NOTE_OFF_70
NOTE_OFF_53
NOTE_OFF_60
NOTE_OFF_63
VEL_3
NOTE_ON_74
VEL_3
NOTE_ON_46
TIME_SHIFT_64ND_4
NOTE_OFF_74
TIME_SHIFT_64ND_4
NOTE_OFF_46
TIME_SHIFT_64ND_4
VEL_3
NOTE_ON_74
TIME_SHIFT_64ND_3
NOTE_OFF_74
VEL_3
NOTE_ON_64
VEL_1
NOTE_ON_53
VEL_1
NOTE_ON_58
VEL_1
NOTE_ON_62
TIME_SHIFT_64ND_14
NOTE_OFF_53
NOTE_OFF_58
NOTE_OFF_62
VEL_1
NOTE_ON_53
VEL_1
NOTE_ON_58
VEL_1
NOTE_ON_62
TIME_SHIFT_64ND_14
NOTE_OFF_64
NOTE_OFF_53
NOTE_OFF_58
NOTE_OFF_62
VEL_3
NOTE_ON_65
VEL_3
NOTE_ON_41
TIME_SHIFT_64ND_3
NOTE_OFF_65
TIME_SHIFT_64ND_3
NOTE_OFF_41
TIME_SHIFT_64ND_3
VEL_3
NOTE_ON_69
TIME_SHIFT_64ND_3
NOTE_OFF_69
VEL_3
NOTE_ON_72
VEL_2
NOTE_ON_63
VEL_2
NOTE_ON_53
TIME_SHIFT_64ND_7
NOTE_OFF_72
VEL_3
NOTE_ON_75
TIME_SHIFT_64ND_7
NOTE_OFF_75
NOTE_OFF_63
NOTE_OFF_53
VEL_4
NOTE_ON_79
VEL_2
NOTE_ON_63
VEL_2
NOTE_ON_57
VEL_2
NOTE_ON_53
TIME_SHIFT_64ND_11
NOTE_OFF_79
VEL_3
NOTE_ON_77
TIME_SHIFT_64ND_2
NOTE_OFF_77
VEL_3
NOTE_ON_77
TIME_SHIFT_64ND_2
NOTE_OFF_77
NOTE_OFF_63
NOTE_OFF_57
NOTE_OFF_53
VEL_4
NOTE_ON_86
VEL_3
NOTE_ON_46
TIME_SHIFT_64ND_4
NOTE_OFF_86
TIME_SHIFT_64ND_4
NOTE_OFF_46
TIME_SHIFT_64ND_3
VEL_3
NOTE_ON_84
TIME_SHIFT_64ND_3
NOTE_OFF_84
VEL_3
NOTE_ON_82
VEL_2
NOTE_ON_62
VEL_1
NOTE_ON_58
VEL_1
NOTE_ON_53
TIME_SHIFT_64ND_2
NOTE_OFF_82
VEL_3
NOTE_ON_84
TIME_SHIFT_64ND_2
NOTE_OFF_84
VEL_3
NOTE_ON_82
TIME_SHIFT_64ND_3
NOTE_OFF_82
VEL_3
NOTE_ON_79
TIME_SHIFT_64ND_7
NOTE_OFF_79
NOTE_OFF_62
NOTE_OFF_58
NOTE_OFF_53
VEL_3
NOTE_ON_77
VEL_2
NOTE_ON_62
VEL_1
NOTE_ON_58
VEL_1
NOTE_ON_53
TIME_SHIFT_64ND_13
VEL_2
NOTE_ON_79
TIME_SHIFT_64ND_2
NOTE_OFF_79
NOTE_OFF_77
NOTE_OFF_62
NOTE_OFF_58
NOTE_OFF_53
VEL_3
NOTE_ON_82
VEL_2
NOTE_ON_46
TIME_SHIFT_64ND_4
NOTE_OFF_82
TIME_SHIFT_64ND_4
NOTE_OFF_46
TIME_SHIFT_64ND_4
VEL_2
NOTE_ON_82
TIME_SHIFT_64ND_3
NOTE_OFF_82
VEL_2
NOTE_ON_69
VEL_1
NOTE_ON_53
VEL_1
NOTE_ON_60
VEL_1
NOTE_ON_63
TIME_SHIFT_64ND_13
NOTE_OFF_53
NOTE_OFF_60
NOTE_OFF_63
VEL_1
NOTE_ON_53
VEL_1
NOTE_ON_60
VEL_1
NOTE_ON_63
TIME_SHIFT_64ND_10
NOTE_OFF_69
VEL_2
NOTE_ON_70
TIME_SHIFT_64ND_2
NOTE_OFF_70
VEL_2
NOTE_ON_74
TIME_SHIFT_64ND_2
NOTE_OFF_74
NOTE_OFF_53
NOTE_OFF_60
NOTE_OFF_63
VEL_3
NOTE_ON_77
VEL_2
NOTE_ON_46
TIME_SHIFT_64ND_4
NOTE_OFF_77
TIME_SHIFT_64ND_4
NOTE_OFF_46
TIME_SHIFT_64ND_4
VEL_2
NOTE_ON_77
TIME_SHIFT_64ND_3
NOTE_OFF_77
VEL_2
NOTE_ON_64
VEL_1
NOTE_ON_53
VEL_1
NOTE_ON_58
VEL_1
NOTE_ON_62
TIME_SHIFT_64ND_14
NOTE_OFF_53
NOTE_OFF_58
NOTE_OFF_62
VEL_1
NOTE_ON_53
VEL_1
NOTE_ON_58
VEL_1
NOTE_ON_62
TIME_SHIFT_64ND_15
NOTE_OFF_64
NOTE_OFF_53
NOTE_OFF_58
NOTE_OFF_62
VEL_3
NOTE_ON_65
VEL_3
NOTE_ON_41
TIME_SHIFT_64ND_3
NOTE_OFF_65
TIME_SHIFT_64ND_3
NOTE_OFF_41
TIME_SHIFT_64ND_3
VEL_3
NOTE_ON_69
TIME_SHIFT_64ND_3
NOTE_OFF_69
VEL_3
NOTE_ON_72
VEL_3
NOTE_ON_63
VEL_2
NOTE_ON_53
TIME_SHIFT_64ND_7
NOTE_OFF_72
VEL_4
NOTE_ON_75
TIME_SHIFT_64ND_7
NOTE_OFF_75
NOTE_OFF_63
NOTE_OFF_53
VEL_3
NOTE_ON_74
VEL_3
NOTE_ON_63
VEL_2
NOTE_ON_57
VEL_2
NOTE_ON_53
TIME_SHIFT_64ND_2
NOTE_OFF_74
VEL_3
NOTE_ON_75
TIME_SHIFT_64ND_2
NOTE_OFF_75
VEL_4
NOTE_ON_74
TIME_SHIFT_64ND_7
NOTE_OFF_74
VEL_4
NOTE_ON_72
TIME_SHIFT_64ND_4
NOTE_OFF_72
NOTE_OFF_63
NOTE_OFF_57
NOTE_OFF_53
VEL_4
NOTE_ON_74
VEL_4
NOTE_ON_46
TIME_SHIFT_64ND_8
NOTE_OFF_74
VEL_4
NOTE_ON_65
TIME_SHIFT_64ND_8
NOTE_OFF_65
NOTE_OFF_46
VEL_4
NOTE_ON_82
VEL_4
NOTE_ON_70
VEL_3
NOTE_ON_62
VEL_2
NOTE_ON_53
VEL_2
NOTE_ON_46
TIME_SHIFT_64ND_32
NOTE_OFF_82
NOTE_OFF_70
NOTE_OFF_62
NOTE_OFF_53
NOTE_OFF_46
