VEL_2
NOTE_ON_58
VEL_2
NOTE_ON_53
VEL_2
NOTE_ON_46
VEL_1
NOTE_ON_41
VEL_1
NOTE_ON_34
TIME_SHIFT_64ND_33
NOTE_OFF_58
NOTE_OFF_53
NOTE_OFF_46
NOTE_OFF_41
NOTE_OFF_34
VEL_2
NOTE_ON_58
VEL_2
NOTE_ON_54
VEL_1
NOTE_ON_49
VEL_1
NOTE_ON_42
VEL_1
NOTE_ON_37
TIME_SHIFT_64ND_26
NOTE_OFF_58
VEL_2
NOTE_ON_58
TIME_SHIFT_64ND_9
NOTE_OFF_58
NOTE_OFF_54
NOTE_OFF_49
NOTE_OFF_42
NOTE_OFF_37
VEL_2
NOTE_ON_53
VEL_2
NOTE_ON_58
VEL_2
NOTE_ON_46
VEL_1
NOTE_ON_41
VEL_1
NOTE_ON_34
TIME_SHIFT_64ND_34
NOTE_OFF_53
NOTE_OFF_46
NOTE_OFF_41
NOTE_OFF_34
VEL_1
NOTE_ON_54
VEL_1
NOTE_ON_49
VEL_1
NOTE_ON_42
VEL_1
NOTE_ON_37
TIME_SHIFT_64ND_35
NOTE_OFF_54
NOTE_OFF_58
NOTE_OFF_49
NOTE_OFF_42
NOTE_OFF_37
VEL_2
NOTE_ON_58
VEL_2
NOTE_ON_53
VEL_2
NOTE_ON_46
VEL_1
NOTE_ON_41
VEL_1
NOTE_ON_34
TIME_SHIFT_64ND_33
NOTE_OFF_58
NOTE_OFF_53
NOTE_OFF_46
NOTE_OFF_41
NOTE_OFF_34
VEL_2
NOTE_ON_58
VEL_2
NOTE_ON_54
VEL_1
NOTE_ON_49
VEL_1
NOTE_ON_42
VEL_1
NOTE_ON_37
TIME_SHIFT_64ND_26
NOTE_OFF_58
VEL_2
NOTE_ON_58
TIME_SHIFT_64ND_9
NOTE_OFF_58
NOTE_OFF_54
NOTE_OFF_49
NOTE_OFF_42
NOTE_OFF_37
VEL_2
NOTE_ON_53
VEL_2
NOTE_ON_58
VEL_2
NOTE_ON_46
VEL_1
NOTE_ON_41
VEL_1
NOTE_ON_34
TIME_SHIFT_64ND_34
NOTE_OFF_53
NOTE_OFF_46
NOTE_OFF_41
NOTE_OFF_34
VEL_1
NOTE_ON_54
VEL_1
NOTE_ON_49
VEL_1
NOTE_ON_42
VEL_1
NOTE_ON_37
TIME_SHIFT_64ND_34
NOTE_OFF_54
NOTE_OFF_58
NOTE_OFF_49
NOTE_OFF_42
NOTE_OFF_37
VEL_2
NOTE_ON_58
VEL_2
NOTE_ON_53
VEL_2
NOTE_ON_46
VEL_1
NOTE_ON_41
VEL_1
NOTE_ON_34
TIME_SHIFT_64ND_33
NOTE_OFF_58
NOTE_OFF_53
NOTE_OFF_46
NOTE_OFF_41
NOTE_OFF_34
VEL_2
NOTE_ON_58
VEL_2
NOTE_ON_54
VEL_1
NOTE_ON_49
VEL_1
NOTE_ON_42
VEL_1
NOTE_ON_37
TIME_SHIFT_64ND_26
NOTE_OFF_58
VEL_2
NOTE_ON_58
TIME_SHIFT_64ND_8
NOTE_OFF_58
TIME_SHIFT_64ND_1
NOTE_OFF_54
NOTE_OFF_49
NOTE_OFF_42
NOTE_OFF_37
VEL_2
NOTE_ON_58
VEL_2
NOTE_ON_53
VEL_2
NOTE_ON_46
VEL_1
NOTE_ON_41
VEL_1
NOTE_ON_34
TIME_SHIFT_64ND_34
NOTE_OFF_58
NOTE_OFF_53
NOTE_OFF_46
NOTE_OFF_41
NOTE_OFF_34
VEL_3
NOTE_ON_61
VEL_2
NOTE_ON_54
VEL_1
NOTE_ON_49
VEL_1
NOTE_ON_42
VEL_1
NOTE_ON_37
TIME_SHIFT_64ND_25
NOTE_OFF_61
VEL_2
NOTE_ON_60
TIME_SHIFT_64ND_7
NOTE_OFF_60
TIME_SHIFT_64ND_1
NOTE_OFF_54
NOTE_OFF_49
NOTE_OFF_42
NOTE_OFF_37
VEL_3
NOTE_ON_60
VEL_2
NOTE_ON_53
VEL_2
NOTE_ON_46
VEL_1
NOTE_ON_41
VEL_1
NOTE_ON_34
TIME_SHIFT_64ND_25
NOTE_OFF_60
VEL_2
NOTE_ON_58
TIME_SHIFT_64ND_7
NOTE_OFF_58
TIME_SHIFT_64ND_1
NOTE_OFF_53
NOTE_OFF_46
NOTE_OFF_41
NOTE_OFF_34
VEL_2
NOTE_ON_58
VEL_2
NOTE_ON_54
VEL_1
NOTE_ON_49
VEL_1
NOTE_ON_42
VEL_1
NOTE_ON_37
TIME_SHIFT_64ND_25
NOTE_OFF_58
VEL_2
NOTE_ON_58
TIME_SHIFT_64ND_8
NOTE_OFF_58
TIME_SHIFT_64ND_1
NOTE_OFF_54
NOTE_OFF_49
NOTE_OFF_42
NOTE_OFF_37
VEL_2
NOTE_ON_53
VEL_2
NOTE_ON_58
VEL_2
NOTE_ON_46
VEL_1
NOTE_ON_41
VEL_1
NOTE_ON_34
TIME_SHIFT_64ND_34
NOTE_OFF_53
NOTE_OFF_46
NOTE_OFF_41
NOTE_OFF_34
VEL_1
NOTE_ON_54
VEL_1
NOTE_ON_49
VEL_1
NOTE_ON_42
VEL_1
NOTE_ON_37
TIME_SHIFT_64ND_34
NOTE_OFF_54
NOTE_OFF_58
NOTE_OFF_49
NOTE_OFF_42
NOTE_OFF_37
VEL_3
NOTE_ON_61
VEL_2
NOTE_ON_53
VEL_2
NOTE_ON_58
VEL_2
NOTE_ON_46
VEL_2
NOTE_ON_41
VEL_2
NOTE_ON_34
TIME_SHIFT_64ND_33
NOTE_OFF_61
NOTE_OFF_53
NOTE_OFF_58
NOTE_OFF_46
NOTE_OFF_41
NOTE_OFF_34
VEL_3
NOTE_ON_61
VEL_2
NOTE_ON_54
VEL_2
NOTE_ON_58
VEL_2
NOTE_ON_49
VEL_2
NOTE_ON_42
VEL_1
NOTE_ON_37
TIME_SHIFT_64ND_26
NOTE_OFF_61
VEL_2
NOTE_ON_61
TIME_SHIFT_64ND_8
NOTE_OFF_61
TIME_SHIFT_64ND_1
NOTE_OFF_54
NOTE_OFF_58
NOTE_OFF_49
NOTE_OFF_42
NOTE_OFF_37
VEL_3
NOTE_ON_61
VEL_2
NOTE_ON_53
VEL_2
NOTE_ON_58
VEL_2
NOTE_ON_46
VEL_2
NOTE_ON_41
VEL_2
NOTE_ON_34
TIME_SHIFT_64ND_33
NOTE_OFF_61
NOTE_OFF_53
NOTE_OFF_58
NOTE_OFF_46
NOTE_OFF_41
NOTE_OFF_34
VEL_3
NOTE_ON_61
VEL_3
NOTE_ON_65
VEL_3
NOTE_ON_54
VEL_2
NOTE_ON_49
VEL_2
NOTE_ON_42
VEL_1
NOTE_ON_37
TIME_SHIFT_64ND_26
NOTE_OFF_61
NOTE_OFF_65
VEL_2
NOTE_ON_60
VEL_3
NOTE_ON_63
TIME_SHIFT_64ND_4
NOTE_OFF_60
NOTE_OFF_63
VEL_3
NOTE_ON_65
TIME_SHIFT_64ND_4
NOTE_OFF_65
NOTE_OFF_54
NOTE_OFF_49
NOTE_OFF_42
NOTE_OFF_37
VEL_3
NOTE_ON_60
VEL_3
NOTE_ON_63
VEL_3
NOTE_ON_53
VEL_2
NOTE_ON_46
VEL_2
NOTE_ON_41
VEL_2
NOTE_ON_34
TIME_SHIFT_64ND_25
NOTE_OFF_60
NOTE_OFF_63
VEL_2
NOTE_ON_58
VEL_3
NOTE_ON_61
TIME_SHIFT_64ND_7
NOTE_OFF_58
NOTE_OFF_61
TIME_SHIFT_64ND_1
NOTE_OFF_53
NOTE_OFF_46
NOTE_OFF_41
NOTE_OFF_34
VEL_3
NOTE_ON_58
VEL_3
NOTE_ON_61
VEL_2
NOTE_ON_54
VEL_2
NOTE_ON_49
VEL_1
NOTE_ON_42
VEL_1
NOTE_ON_37
TIME_SHIFT_64ND_25
NOTE_OFF_58
NOTE_OFF_61
VEL_2
NOTE_ON_58
VEL_2
NOTE_ON_61
TIME_SHIFT_64ND_8
NOTE_OFF_58
NOTE_OFF_61
TIME_SHIFT_64ND_1
NOTE_OFF_54
NOTE_OFF_49
NOTE_OFF_42
NOTE_OFF_37
VEL_2
NOTE_ON_53
VEL_2
NOTE_ON_58
VEL_3
NOTE_ON_61
VEL_2
NOTE_ON_46
VEL_2
NOTE_ON_41
VEL_2
NOTE_ON_34
TIME_SHIFT_64ND_35
NOTE_OFF_53
NOTE_OFF_46
NOTE_OFF_41
NOTE_OFF_34
VEL_2
NOTE_ON_54
VEL_2
NOTE_ON_49
VEL_1
NOTE_ON_42
VEL_1
NOTE_ON_37
TIME_SHIFT_64ND_35
NOTE_OFF_54
NOTE_OFF_58
NOTE_OFF_61
NOTE_OFF_49
NOTE_OFF_42
NOTE_OFF_37
VEL_4
NOTE_ON_70
VEL_3
NOTE_ON_58
VEL_3
NOTE_ON_61
VEL_3
NOTE_ON_46
VEL_2
NOTE_ON_41
VEL_2
NOTE_ON_34
TIME_SHIFT_64ND_15
NOTE_OFF_70
VEL_4
NOTE_ON_68
TIME_SHIFT_64ND_10
NOTE_OFF_68
NOTE_OFF_58
NOTE_OFF_61
VEL_3
NOTE_ON_68
TIME_SHIFT_64ND_4
NOTE_OFF_68
NOTE_OFF_46
NOTE_OFF_41
NOTE_OFF_34
VEL_3
NOTE_ON_66
VEL_3
NOTE_ON_58
VEL_3
NOTE_ON_61
VEL_2
NOTE_ON_49
VEL_2
NOTE_ON_42
VEL_2
NOTE_ON_37
TIME_SHIFT_64ND_24
NOTE_OFF_66
VEL_3
NOTE_ON_65
TIME_SHIFT_64ND_7
NOTE_OFF_65
TIME_SHIFT_64ND_1
NOTE_OFF_58
NOTE_OFF_61
NOTE_OFF_49
NOTE_OFF_42
NOTE_OFF_37
VEL_3
NOTE_ON_61
VEL_3
NOTE_ON_65
VEL_3
NOTE_ON_58
VEL_2
NOTE_ON_46
VEL_2
NOTE_ON_41
VEL_2
NOTE_ON_34
TIME_SHIFT_64ND_35
NOTE_OFF_61
NOTE_OFF_65
NOTE_OFF_58
NOTE_OFF_46
NOTE_OFF_41
NOTE_OFF_34
VEL_3
NOTE_ON_61
VEL_2
NOTE_ON_58
VEL_2
NOTE_ON_49
VEL_1
NOTE_ON_42
VEL_1
NOTE_ON_37
TIME_SHIFT_64ND_35
NOTE_OFF_61
NOTE_OFF_58
NOTE_OFF_49
NOTE_OFF_42
NOTE_OFF_37
VEL_4
NOTE_ON_70
VEL_3
NOTE_ON_58
VEL_3
NOTE_ON_61
VEL_3
NOTE_ON_46
VEL_2
NOTE_ON_41
VEL_2
NOTE_ON_34
TIME_SHIFT_64ND_15
NOTE_OFF_70
VEL_4
NOTE_ON_68
TIME_SHIFT_64ND_11
NOTE_OFF_68
NOTE_OFF_58
NOTE_OFF_61
VEL_3
NOTE_ON_68
TIME_SHIFT_64ND_4
NOTE_OFF_68
NOTE_OFF_46
NOTE_OFF_41
NOTE_OFF_34
VEL_3
NOTE_ON_66
VEL_3
NOTE_ON_58
VEL_3
NOTE_ON_61
VEL_2
NOTE_ON_49
VEL_2
NOTE_ON_42
VEL_2
NOTE_ON_37
TIME_SHIFT_64ND_24
NOTE_OFF_66
VEL_3
NOTE_ON_65
TIME_SHIFT_64ND_7
NOTE_OFF_65
TIME_SHIFT_64ND_1
NOTE_OFF_58
NOTE_OFF_61
NOTE_OFF_49
NOTE_OFF_42
NOTE_OFF_37
VEL_3
NOTE_ON_61
VEL_3
NOTE_ON_65
VEL_3
NOTE_ON_58
VEL_2
NOTE_ON_46
VEL_2
NOTE_ON_41
VEL_2
NOTE_ON_34
TIME_SHIFT_64ND_35
NOTE_OFF_61
NOTE_OFF_65
NOTE_OFF_58
NOTE_OFF_46
NOTE_OFF_41
NOTE_OFF_34
VEL_3
NOTE_ON_61
VEL_2
NOTE_ON_58
VEL_2
NOTE_ON_49
VEL_1
NOTE_ON_42
VEL_1
NOTE_ON_37
TIME_SHIFT_64ND_35
NOTE_OFF_61
NOTE_OFF_58
NOTE_OFF_49
NOTE_OFF_42
NOTE_OFF_37
VEL_2
NOTE_ON_58
VEL_2
NOTE_ON_53
VEL_2
NOTE_ON_46
VEL_2
NOTE_ON_41
VEL_2
NOTE_ON_34
TIME_SHIFT_64ND_33
NOTE_OFF_58
NOTE_OFF_53
NOTE_OFF_46
NOTE_OFF_41
NOTE_OFF_34
VEL_2
NOTE_ON_58
VEL_2
NOTE_ON_54
VEL_2
NOTE_ON_49
VEL_2
NOTE_ON_42
VEL_1
NOTE_ON_37
TIME_SHIFT_64ND_26
NOTE_OFF_58
VEL_2
NOTE_ON_58
TIME_SHIFT_64ND_8
NOTE_OFF_58
TIME_SHIFT_64ND_1
NOTE_OFF_54
NOTE_OFF_49
NOTE_OFF_42
NOTE_OFF_37
VEL_2
NOTE_ON_53
VEL_2
NOTE_ON_58
VEL_2
NOTE_ON_46
VEL_2
NOTE_ON_41
VEL_2
NOTE_ON_34
TIME_SHIFT_64ND_34
NOTE_OFF_53
NOTE_OFF_58
NOTE_OFF_46
NOTE_OFF_41
NOTE_OFF_34
VEL_3
NOTE_ON_61
VEL_2
NOTE_ON_54
VEL_1
NOTE_ON_49
VEL_1
NOTE_ON_42
VEL_1
NOTE_ON_37
TIME_SHIFT_64ND_25
NOTE_OFF_61
VEL_3
NOTE_ON_60
TIME_SHIFT_64ND_4
NOTE_OFF_60
VEL_2
NOTE_ON_61
TIME_SHIFT_64ND_4
NOTE_OFF_61
NOTE_OFF_54
NOTE_OFF_49
NOTE_OFF_42
NOTE_OFF_37
VEL_3
NOTE_ON_60
VEL_2
NOTE_ON_53
VEL_2
NOTE_ON_46
VEL_2
NOTE_ON_41
VEL_2
NOTE_ON_34
TIME_SHIFT_64ND_25
NOTE_OFF_60
VEL_2
NOTE_ON_58
TIME_SHIFT_64ND_7
NOTE_OFF_58
TIME_SHIFT_64ND_1
NOTE_OFF_53
NOTE_OFF_46
NOTE_OFF_41
NOTE_OFF_34
VEL_3
NOTE_ON_58
VEL_2
NOTE_ON_54
VEL_2
NOTE_ON_49
VEL_1
NOTE_ON_42
VEL_1
NOTE_ON_37
TIME_SHIFT_64ND_25
NOTE_OFF_58
VEL_2
NOTE_ON_58
TIME_SHIFT_64ND_8
NOTE_OFF_58
TIME_SHIFT_64ND_1
NOTE_OFF_54
NOTE_OFF_49
NOTE_OFF_42
NOTE_OFF_37
VEL_2
NOTE_ON_53
VEL_2
NOTE_ON_58
VEL_2
NOTE_ON_46
VEL_2
NOTE_ON_41
VEL_2
NOTE_ON_34
TIME_SHIFT_64ND_34
NOTE_OFF_53
NOTE_OFF_46
NOTE_OFF_41
NOTE_OFF_34
VEL_2
NOTE_ON_54
VEL_1
NOTE_ON_49
VEL_1
NOTE_ON_42
VEL_1
NOTE_ON_37
TIME_SHIFT_64ND_34
NOTE_OFF_54
NOTE_OFF_58
NOTE_OFF_49
NOTE_OFF_42
NOTE_OFF_37
VEL_4
NOTE_ON_70
VEL_5
NOTE_ON_82
VEL_4
NOTE_ON_73
VEL_3
NOTE_ON_46
VEL_2
NOTE_ON_41
VEL_2
NOTE_ON_34
TIME_SHIFT_64ND_15
NOTE_OFF_70
NOTE_OFF_82
VEL_4
NOTE_ON_80
VEL_3
NOTE_ON_68
TIME_SHIFT_64ND_11
NOTE_OFF_80
NOTE_OFF_68
VEL_4
NOTE_ON_68
TIME_SHIFT_64ND_1
NOTE_OFF_68
VEL_3
NOTE_ON_73
TIME_SHIFT_64ND_1
NOTE_OFF_73
NOTE_OFF_73
VEL_3
NOTE_ON_80
TIME_SHIFT_64ND_1
NOTE_OFF_80
NOTE_OFF_46
NOTE_OFF_41
NOTE_OFF_34
VEL_4
NOTE_ON_78
VEL_3
NOTE_ON_66
VEL_4
NOTE_ON_73
VEL_2
NOTE_ON_49
VEL_2
NOTE_ON_42
VEL_2
NOTE_ON_37
TIME_SHIFT_64ND_24
NOTE_OFF_78
VEL_3
NOTE_ON_77
VEL_3
NOTE_ON_65
TIME_SHIFT_64ND_8
NOTE_OFF_77
NOTE_OFF_65
TIME_SHIFT_64ND_1
NOTE_OFF_66
NOTE_OFF_73
NOTE_OFF_49
NOTE_OFF_42
NOTE_OFF_37
VEL_4
NOTE_ON_73
VEL_4
NOTE_ON_77
VEL_3
NOTE_ON_65
VEL_3
NOTE_ON_46
VEL_2
NOTE_ON_41
VEL_2
NOTE_ON_34
TIME_SHIFT_64ND_34
NOTE_OFF_73
NOTE_OFF_77
NOTE_OFF_65
NOTE_OFF_46
NOTE_OFF_41
NOTE_OFF_34
VEL_4
NOTE_ON_70
VEL_3
NOTE_ON_61
VEL_4
NOTE_ON_73
VEL_2
NOTE_ON_49
VEL_1
NOTE_ON_42
VEL_1
NOTE_ON_37
TIME_SHIFT_64ND_34
NOTE_OFF_70
NOTE_OFF_61
NOTE_OFF_73
NOTE_OFF_49
NOTE_OFF_42
NOTE_OFF_37
VEL_4
NOTE_ON_70
VEL_5
NOTE_ON_82
VEL_4
NOTE_ON_73
VEL_3
NOTE_ON_46
VEL_2
NOTE_ON_41
VEL_2
NOTE_ON_34
TIME_SHIFT_64ND_15
NOTE_OFF_70
NOTE_OFF_82
VEL_4
NOTE_ON_80
VEL_3
NOTE_ON_68
TIME_SHIFT_64ND_11
NOTE_OFF_80
NOTE_OFF_68
VEL_4
NOTE_ON_68
TIME_SHIFT_64ND_1
NOTE_OFF_68
VEL_3
NOTE_ON_73
TIME_SHIFT_64ND_2
NOTE_OFF_73
NOTE_OFF_73
VEL_3
NOTE_ON_80
TIME_SHIFT_64ND_2
NOTE_OFF_80
NOTE_OFF_46
NOTE_OFF_41
NOTE_OFF_34
VEL_4
NOTE_ON_78
VEL_3
NOTE_ON_66
VEL_4
NOTE_ON_73
VEL_2
NOTE_ON_49
VEL_2
NOTE_ON_42
VEL_2
NOTE_ON_37
TIME_SHIFT_64ND_25
NOTE_OFF_78
VEL_3
NOTE_ON_77
VEL_3
NOTE_ON_65
TIME_SHIFT_64ND_8
NOTE_OFF_77
NOTE_OFF_65
TIME_SHIFT_64ND_1
NOTE_OFF_66
NOTE_OFF_73
NOTE_OFF_49
NOTE_OFF_42
NOTE_OFF_37
VEL_4
NOTE_ON_73
VEL_4
NOTE_ON_77
VEL_3
NOTE_ON_65
VEL_3
NOTE_ON_46
VEL_2
NOTE_ON_41
VEL_2
NOTE_ON_34
TIME_SHIFT_64ND_34
NOTE_OFF_73
NOTE_OFF_77
NOTE_OFF_65
NOTE_OFF_46
NOTE_OFF_41
NOTE_OFF_34
VEL_4
NOTE_ON_70
VEL_3
NOTE_ON_61
VEL_4
NOTE_ON_73
VEL_2
NOTE_ON_49
VEL_1
NOTE_ON_42
VEL_1
NOTE_ON_37
TIME_SHIFT_64ND_34
NOTE_OFF_70
NOTE_OFF_61
NOTE_OFF_73
NOTE_OFF_49
NOTE_OFF_42
NOTE_OFF_37
VEL_3
NOTE_ON_70
VEL_3
NOTE_ON_65
VEL_3
NOTE_ON_58
VEL_3
NOTE_ON_46
VEL_2
NOTE_ON_41
VEL_2
NOTE_ON_34
TIME_SHIFT_64ND_33
NOTE_OFF_70
NOTE_OFF_65
NOTE_OFF_58
NOTE_OFF_46
NOTE_OFF_41
NOTE_OFF_34
VEL_3
NOTE_ON_70
VEL_3
NOTE_ON_58
VEL_3
NOTE_ON_66
VEL_2
NOTE_ON_49
VEL_2
NOTE_ON_42
VEL_2
NOTE_ON_37
TIME_SHIFT_64ND_26
NOTE_OFF_70
NOTE_OFF_58
VEL_3
NOTE_ON_70
VEL_3
NOTE_ON_58
TIME_SHIFT_64ND_8
NOTE_OFF_70
NOTE_OFF_58
TIME_SHIFT_64ND_1
NOTE_OFF_66
NOTE_OFF_49
NOTE_OFF_42
NOTE_OFF_37
VEL_4
NOTE_ON_70
VEL_3
NOTE_ON_65
VEL_3
NOTE_ON_58
VEL_3
NOTE_ON_46
VEL_2
NOTE_ON_41
VEL_2
NOTE_ON_34
TIME_SHIFT_64ND_34
NOTE_OFF_70
NOTE_OFF_65
NOTE_OFF_58
NOTE_OFF_46
NOTE_OFF_41
NOTE_OFF_34
VEL_5
NOTE_ON_73
VEL_4
NOTE_ON_61
VEL_4
NOTE_ON_66
VEL_2
NOTE_ON_49
VEL_2
NOTE_ON_42
VEL_2
NOTE_ON_37
TIME_SHIFT_64ND_25
NOTE_OFF_73
NOTE_OFF_61
VEL_4
NOTE_ON_72
VEL_3
NOTE_ON_60
TIME_SHIFT_64ND_8
NOTE_OFF_72
NOTE_OFF_60
NOTE_OFF_66
NOTE_OFF_49
NOTE_OFF_42
NOTE_OFF_37
VEL_4
NOTE_ON_72
VEL_4
NOTE_ON_60
VEL_4
NOTE_ON_65
VEL_3
NOTE_ON_46
VEL_3
NOTE_ON_41
VEL_3
NOTE_ON_34
TIME_SHIFT_64ND_25
NOTE_OFF_72
NOTE_OFF_60
VEL_4
NOTE_ON_70
VEL_3
NOTE_ON_58
TIME_SHIFT_64ND_7
NOTE_OFF_70
NOTE_OFF_58
TIME_SHIFT_64ND_1
NOTE_OFF_65
NOTE_OFF_46
NOTE_OFF_41
NOTE_OFF_34
VEL_4
NOTE_ON_70
VEL_4
NOTE_ON_58
VEL_4
NOTE_ON_66
VEL_3
NOTE_ON_49
VEL_2
NOTE_ON_42
VEL_2
NOTE_ON_37
TIME_SHIFT_64ND_25
NOTE_OFF_70
NOTE_OFF_58
VEL_4
NOTE_ON_70
VEL_3
NOTE_ON_58
TIME_SHIFT_64ND_8
NOTE_OFF_70
NOTE_OFF_58
TIME_SHIFT_64ND_1
NOTE_OFF_66
NOTE_OFF_49
NOTE_OFF_42
NOTE_OFF_37
VEL_4
NOTE_ON_70
VEL_4
NOTE_ON_65
VEL_3
NOTE_ON_58
VEL_4
NOTE_ON_46
VEL_3
NOTE_ON_41
VEL_3
NOTE_ON_34
TIME_SHIFT_64ND_34
NOTE_OFF_70
NOTE_OFF_65
NOTE_OFF_58
NOTE_OFF_46
NOTE_OFF_41
NOTE_OFF_34
VEL_4
NOTE_ON_66
VEL_4
NOTE_ON_68
VEL_4
NOTE_ON_60
VEL_5
NOTE_ON_72
VEL_4
NOTE_ON_44
VEL_3
NOTE_ON_32
TIME_SHIFT_64ND_34
NOTE_OFF_66
NOTE_OFF_68
NOTE_OFF_60
NOTE_OFF_72
NOTE_OFF_44
NOTE_OFF_32
VEL_6
NOTE_ON_73
VEL_4
NOTE_ON_65
VEL_4
NOTE_ON_61
VEL_4
NOTE_ON_37
VEL_3
NOTE_ON_25
TIME_SHIFT_64ND_34
NOTE_OFF_73
NOTE_OFF_65
NOTE_OFF_61
NOTE_OFF_37
NOTE_OFF_25
VEL_5
NOTE_ON_77
VEL_4
NOTE_ON_73
VEL_4
NOTE_ON_65
VEL_4
NOTE_ON_61
VEL_4
NOTE_ON_56
VEL_4
NOTE_ON_49
TIME_SHIFT_64ND_26
NOTE_OFF_77
NOTE_OFF_73
NOTE_OFF_65
NOTE_OFF_61
NOTE_OFF_56
NOTE_OFF_49
VEL_5
NOTE_ON_78
VEL_4
NOTE_ON_66
VEL_4
NOTE_ON_63
TIME_SHIFT_64ND_9
NOTE_OFF_78
NOTE_OFF_66
NOTE_OFF_63
VEL_4
NOTE_ON_73
VEL_5
NOTE_ON_80
VEL_4
NOTE_ON_68
VEL_5
NOTE_ON_65
VEL_4
NOTE_ON_56
VEL_4
NOTE_ON_49
TIME_SHIFT_64ND_26
NOTE_OFF_73
NOTE_OFF_80
NOTE_OFF_68
NOTE_OFF_65
NOTE_OFF_56
NOTE_OFF_49
VEL_5
NOTE_ON_82
VEL_4
NOTE_ON_70
VEL_5
NOTE_ON_66
TIME_SHIFT_64ND_9
NOTE_OFF_82
NOTE_OFF_70
NOTE_OFF_66
VEL_6
NOTE_ON_84
VEL_5
NOTE_ON_80
VEL_5
NOTE_ON_72
VEL_5
NOTE_ON_68
VEL_4
NOTE_ON_56
VEL_4
NOTE_ON_63
TIME_SHIFT_64ND_26
NOTE_OFF_84
NOTE_OFF_80
NOTE_OFF_72
NOTE_OFF_68
NOTE_OFF_56
NOTE_OFF_63
VEL_6
NOTE_ON_85
VEL_5
NOTE_ON_73
VEL_5
NOTE_ON_65
TIME_SHIFT_64ND_9
NOTE_OFF_85
NOTE_OFF_73
NOTE_OFF_65
VEL_5
NOTE_ON_77
VEL_6
NOTE_ON_89
VEL_5
NOTE_ON_84
VEL_5
NOTE_ON_80
VEL_5
NOTE_ON_44
VEL_4
NOTE_ON_32
TIME_SHIFT_64ND_34
NOTE_OFF_44
NOTE_OFF_32
VEL_5
NOTE_ON_72
VEL_4
NOTE_ON_66
VEL_4
NOTE_ON_63
TIME_SHIFT_64ND_26
NOTE_OFF_72
NOTE_OFF_66
NOTE_OFF_63
VEL_4
NOTE_ON_70
VEL_4
NOTE_ON_66
VEL_4
NOTE_ON_61
TIME_SHIFT_64ND_8
NOTE_OFF_70
NOTE_OFF_66
NOTE_OFF_61
TIME_SHIFT_64ND_1
NOTE_OFF_77
NOTE_OFF_89
VEL_5
NOTE_ON_87
VEL_4
NOTE_ON_75
VEL_4
NOTE_ON_70
VEL_3
NOTE_ON_66
VEL_3
NOTE_ON_61
TIME_SHIFT_64ND_26
NOTE_OFF_70
NOTE_OFF_66
NOTE_OFF_61
VEL_4
NOTE_ON_68
VEL_3
NOTE_ON_66
VEL_3
NOTE_ON_60
TIME_SHIFT_64ND_8
NOTE_OFF_68
NOTE_OFF_66
NOTE_OFF_60
TIME_SHIFT_64ND_1
VEL_4
NOTE_ON_68
VEL_3
NOTE_ON_66
VEL_3
NOTE_ON_60
TIME_SHIFT_64ND_17
NOTE_OFF_87
NOTE_OFF_84
NOTE_OFF_80
NOTE_OFF_75
TIME_SHIFT_64ND_9
NOTE_OFF_68
NOTE_OFF_66
NOTE_OFF_60
VEL_4
NOTE_ON_66
VEL_5
NOTE_ON_78
VEL_4
NOTE_ON_72
VEL_4
NOTE_ON_75
VEL_4
NOTE_ON_63
VEL_4
NOTE_ON_60
VEL_4
NOTE_ON_57
TIME_SHIFT_64ND_9
NOTE_OFF_66
NOTE_OFF_78
NOTE_OFF_72
NOTE_OFF_75
NOTE_OFF_63
NOTE_OFF_60
NOTE_OFF_57
VEL_6
NOTE_ON_77
VEL_5
NOTE_ON_75
VEL_5
NOTE_ON_65
VEL_5
NOTE_ON_72
VEL_4
NOTE_ON_46
VEL_4
NOTE_ON_34
TIME_SHIFT_64ND_34
NOTE_OFF_77
NOTE_OFF_75
NOTE_OFF_65
NOTE_OFF_72
NOTE_OFF_46
NOTE_OFF_34
VEL_5
NOTE_ON_77
VEL_4
NOTE_ON_70
VEL_4
NOTE_ON_65
VEL_4
NOTE_ON_73
VEL_4
NOTE_ON_61
VEL_3
NOTE_ON_58
VEL_3
NOTE_ON_53
TIME_SHIFT_64ND_26
NOTE_OFF_77
NOTE_OFF_70
NOTE_OFF_65
NOTE_OFF_73
VEL_5
NOTE_ON_79
VEL_4
NOTE_ON_67
TIME_SHIFT_64ND_9
NOTE_OFF_79
NOTE_OFF_67
NOTE_OFF_61
NOTE_OFF_58
NOTE_OFF_53
VEL_5
NOTE_ON_81
VEL_4
NOTE_ON_77
VEL_4
NOTE_ON_69
VEL_4
NOTE_ON_73
VEL_5
NOTE_ON_49
VEL_4
NOTE_ON_37
TIME_SHIFT_64ND_26
NOTE_OFF_81
NOTE_OFF_77
NOTE_OFF_69
NOTE_OFF_73
VEL_5
NOTE_ON_82
VEL_4
NOTE_ON_70
TIME_SHIFT_64ND_9
NOTE_OFF_82
NOTE_OFF_70
NOTE_OFF_49
NOTE_OFF_37
VEL_6
NOTE_ON_84
VEL_5
NOTE_ON_77
VEL_5
NOTE_ON_72
VEL_4
NOTE_ON_53
VEL_4
NOTE_ON_65
VEL_4
NOTE_ON_61
VEL_4
NOTE_ON_58
TIME_SHIFT_64ND_27
NOTE_OFF_84
NOTE_OFF_77
NOTE_OFF_72
VEL_6
NOTE_ON_85
VEL_5
NOTE_ON_73
TIME_SHIFT_64ND_5
NOTE_OFF_85
NOTE_OFF_73
VEL_5
NOTE_ON_70
TIME_SHIFT_64ND_2
VEL_5
NOTE_ON_76
TIME_SHIFT_64ND_2
VEL_5
NOTE_ON_79
TIME_SHIFT_64ND_2
NOTE_OFF_53
NOTE_OFF_65
NOTE_OFF_61
NOTE_OFF_58
VEL_6
NOTE_ON_85
VEL_5
NOTE_ON_41
VEL_4
NOTE_ON_29
TIME_SHIFT_64ND_35
NOTE_OFF_41
NOTE_OFF_29
VEL_5
NOTE_ON_67
VEL_4
NOTE_ON_53
VEL_4
NOTE_ON_58
VEL_4
NOTE_ON_61
TIME_SHIFT_64ND_35
NOTE_OFF_85
NOTE_OFF_70
NOTE_OFF_76
NOTE_OFF_79
NOTE_OFF_67
NOTE_OFF_53
NOTE_OFF_58
NOTE_OFF_61
VEL_5
NOTE_ON_84
VEL_4
NOTE_ON_77
VEL_4
NOTE_ON_72
VEL_4
NOTE_ON_69
VEL_4
NOTE_ON_53
VEL_4
NOTE_ON_57
VEL_4
NOTE_ON_60
TIME_SHIFT_64ND_35
NOTE_OFF_84
NOTE_OFF_77
NOTE_OFF_72
NOTE_OFF_69
NOTE_OFF_53
NOTE_OFF_57
NOTE_OFF_60
VEL_5
NOTE_ON_53
TIME_SHIFT_64ND_24
NOTE_OFF_53
VEL_3
NOTE_ON_43
TIME_SHIFT_64ND_3
NOTE_OFF_43
VEL_3
NOTE_ON_44
TIME_SHIFT_64ND_3
NOTE_OFF_44
VEL_3
NOTE_ON_46
TIME_SHIFT_64ND_3
NOTE_OFF_46
VEL_5
NOTE_ON_68
VEL_4
NOTE_ON_60
VEL_4
NOTE_ON_56
VEL_4
NOTE_ON_54
VEL_4
NOTE_ON_65
VEL_3
NOTE_ON_44
TIME_SHIFT_64ND_3
NOTE_OFF_44
VEL_3
NOTE_ON_46
TIME_SHIFT_64ND_3
NOTE_OFF_46
VEL_4
NOTE_ON_44
TIME_SHIFT_64ND_3
NOTE_OFF_44
VEL_3
NOTE_ON_46
TIME_SHIFT_64ND_3
NOTE_OFF_46
VEL_4
NOTE_ON_44
TIME_SHIFT_64ND_3
NOTE_OFF_44
VEL_3
NOTE_ON_46
TIME_SHIFT_64ND_3
NOTE_OFF_46
VEL_4
NOTE_ON_44
TIME_SHIFT_64ND_3
NOTE_OFF_44
VEL_3
NOTE_ON_46
TIME_SHIFT_64ND_3
NOTE_OFF_46
VEL_4
NOTE_ON_44
TIME_SHIFT_64ND_3
NOTE_OFF_44
VEL_4
NOTE_ON_46
TIME_SHIFT_64ND_3
NOTE_OFF_46
VEL_4
NOTE_ON_44
TIME_SHIFT_64ND_2
NOTE_OFF_68
NOTE_OFF_60
NOTE_OFF_56
NOTE_OFF_54
NOTE_OFF_65
VEL_5
NOTE_ON_68
VEL_4
NOTE_ON_60
VEL_4
NOTE_ON_63
VEL_4
NOTE_ON_56
VEL_4
NOTE_ON_54
TIME_SHIFT_64ND_1
NOTE_OFF_44
VEL_4
NOTE_ON_46
TIME_SHIFT_64ND_3
NOTE_OFF_46
VEL_4
NOTE_ON_44
TIME_SHIFT_64ND_3
NOTE_OFF_44
VEL_3
NOTE_ON_46
TIME_SHIFT_64ND_3
VEL_4
NOTE_ON_44
NOTE_OFF_46
TIME_SHIFT_64ND_3
NOTE_OFF_44
VEL_3
NOTE_ON_46
TIME_SHIFT_64ND_3
VEL_4
NOTE_ON_44
NOTE_OFF_46
TIME_SHIFT_64ND_4
NOTE_OFF_44
VEL_3
NOTE_ON_46
TIME_SHIFT_64ND_4
NOTE_OFF_46
VEL_4
NOTE_ON_43
TIME_SHIFT_64ND_4
NOTE_OFF_43
VEL_3
NOTE_ON_44
TIME_SHIFT_64ND_4
NOTE_OFF_68
NOTE_OFF_60
NOTE_OFF_63
NOTE_OFF_56
NOTE_OFF_54
NOTE_OFF_44
VEL_5
NOTE_ON_68
VEL_4
NOTE_ON_61
VEL_4
NOTE_ON_53
VEL_4
NOTE_ON_49
TIME_SHIFT_64ND_35
NOTE_OFF_68
NOTE_OFF_61
NOTE_OFF_53
NOTE_OFF_49
VEL_4
NOTE_ON_49
TIME_SHIFT_64ND_24
NOTE_OFF_49
VEL_3
NOTE_ON_40
TIME_SHIFT_64ND_3
NOTE_OFF_40
VEL_3
NOTE_ON_41
TIME_SHIFT_64ND_3
NOTE_OFF_41
VEL_3
NOTE_ON_42
TIME_SHIFT_64ND_3
NOTE_OFF_42
VEL_5
NOTE_ON_65
VEL_4
NOTE_ON_57
VEL_4
NOTE_ON_51
VEL_4
NOTE_ON_61
VEL_3
NOTE_ON_41
TIME_SHIFT_64ND_3
NOTE_OFF_41
VEL_3
NOTE_ON_42
TIME_SHIFT_64ND_3
NOTE_OFF_42
VEL_4
NOTE_ON_41
TIME_SHIFT_64ND_3
NOTE_OFF_41
VEL_3
NOTE_ON_42
TIME_SHIFT_64ND_3
NOTE_OFF_42
VEL_4
NOTE_ON_41
TIME_SHIFT_64ND_3
NOTE_OFF_41
VEL_3
NOTE_ON_42
TIME_SHIFT_64ND_3
NOTE_OFF_42
VEL_4
NOTE_ON_41
TIME_SHIFT_64ND_3
NOTE_OFF_41
VEL_3
NOTE_ON_42
TIME_SHIFT_64ND_3
NOTE_OFF_42
VEL_4
NOTE_ON_41
TIME_SHIFT_64ND_3
NOTE_OFF_41
VEL_4
NOTE_ON_42
TIME_SHIFT_64ND_3
NOTE_OFF_42
VEL_4
NOTE_ON_41
TIME_SHIFT_64ND_2
NOTE_OFF_65
NOTE_OFF_57
NOTE_OFF_51
NOTE_OFF_61
VEL_4
NOTE_ON_51
VEL_5
NOTE_ON_65
VEL_4
NOTE_ON_57
VEL_4
NOTE_ON_60
TIME_SHIFT_64ND_1
NOTE_OFF_41
VEL_4
NOTE_ON_42
TIME_SHIFT_64ND_3
NOTE_OFF_42
VEL_4
NOTE_ON_41
TIME_SHIFT_64ND_3
NOTE_OFF_41
VEL_3
NOTE_ON_42
TIME_SHIFT_64ND_3
VEL_4
NOTE_ON_41
NOTE_OFF_42
TIME_SHIFT_64ND_3
NOTE_OFF_41
VEL_3
NOTE_ON_42
TIME_SHIFT_64ND_3
VEL_4
NOTE_ON_41
NOTE_OFF_42
TIME_SHIFT_64ND_4
NOTE_OFF_41
VEL_3
NOTE_ON_42
TIME_SHIFT_64ND_4
NOTE_OFF_42
VEL_4
NOTE_ON_40
TIME_SHIFT_64ND_4
NOTE_OFF_40
VEL_3
NOTE_ON_41
TIME_SHIFT_64ND_4
NOTE_OFF_51
NOTE_OFF_65
NOTE_OFF_57
NOTE_OFF_60
NOTE_OFF_41
VEL_5
NOTE_ON_58
VEL_4
NOTE_ON_49
VEL_4
NOTE_ON_42
TIME_SHIFT_64ND_35
NOTE_OFF_42
VEL_3
NOTE_ON_41
TIME_SHIFT_64ND_18
NOTE_OFF_41
VEL_2
NOTE_ON_37
TIME_SHIFT_64ND_19
NOTE_OFF_58
NOTE_OFF_49
NOTE_OFF_37
VEL_2
NOTE_ON_58
VEL_2
NOTE_ON_53
VEL_2
NOTE_ON_46
VEL_2
NOTE_ON_46
VEL_2
NOTE_ON_41
VEL_2
NOTE_ON_34
TIME_SHIFT_64ND_33
NOTE_OFF_58
NOTE_OFF_53
NOTE_OFF_46
NOTE_OFF_46
NOTE_OFF_41
NOTE_OFF_34
VEL_2
NOTE_ON_58
VEL_2
NOTE_ON_54
VEL_2
NOTE_ON_49
VEL_2
NOTE_ON_42
VEL_1
NOTE_ON_37
TIME_SHIFT_64ND_26
NOTE_OFF_58
VEL_2
NOTE_ON_58
TIME_SHIFT_64ND_9
NOTE_OFF_58
NOTE_OFF_54
NOTE_OFF_49
NOTE_OFF_42
NOTE_OFF_37
VEL_2
NOTE_ON_58
VEL_2
NOTE_ON_53
VEL_2
NOTE_ON_46
VEL_2
NOTE_ON_41
VEL_2
NOTE_ON_34
TIME_SHIFT_64ND_34
NOTE_OFF_58
NOTE_OFF_53
NOTE_OFF_46
NOTE_OFF_41
NOTE_OFF_34
VEL_3
NOTE_ON_61
VEL_2
NOTE_ON_54
VEL_1
NOTE_ON_49
VEL_1
NOTE_ON_42
VEL_1
NOTE_ON_37
TIME_SHIFT_64ND_25
NOTE_OFF_61
VEL_3
NOTE_ON_60
TIME_SHIFT_64ND_4
NOTE_OFF_60
VEL_2
NOTE_ON_61
TIME_SHIFT_64ND_4
NOTE_OFF_61
NOTE_OFF_54
NOTE_OFF_49
NOTE_OFF_42
NOTE_OFF_37
VEL_3
NOTE_ON_60
VEL_2
NOTE_ON_53
VEL_2
NOTE_ON_46
VEL_2
NOTE_ON_41
VEL_2
NOTE_ON_34
TIME_SHIFT_64ND_25
NOTE_OFF_60
VEL_2
NOTE_ON_58
TIME_SHIFT_64ND_8
NOTE_OFF_58
NOTE_OFF_53
NOTE_OFF_46
NOTE_OFF_41
NOTE_OFF_34
VEL_3
NOTE_ON_58
VEL_2
NOTE_ON_54
VEL_2
NOTE_ON_49
VEL_1
NOTE_ON_42
VEL_1
NOTE_ON_37
TIME_SHIFT_64ND_25
NOTE_OFF_58
VEL_2
NOTE_ON_58
TIME_SHIFT_64ND_8
NOTE_OFF_58
NOTE_OFF_54
NOTE_OFF_49
NOTE_OFF_42
NOTE_OFF_37
VEL_2
NOTE_ON_58
VEL_2
NOTE_ON_53
VEL_2
NOTE_ON_46
VEL_2
NOTE_ON_41
VEL_2
NOTE_ON_34
TIME_SHIFT_64ND_34
NOTE_OFF_58
NOTE_OFF_53
NOTE_OFF_46
NOTE_OFF_41
NOTE_OFF_34
VEL_4
NOTE_ON_52
VEL_6
NOTE_ON_61
VEL_4
NOTE_ON_55
VEL_4
NOTE_ON_45
VEL_3
NOTE_ON_33
TIME_SHIFT_64ND_26
NOTE_OFF_52
NOTE_OFF_61
NOTE_OFF_55
NOTE_OFF_45
NOTE_OFF_33
VEL_6
NOTE_ON_63
VEL_4
NOTE_ON_60
VEL_4
NOTE_ON_54
VEL_4
NOTE_ON_44
VEL_3
NOTE_ON_32
TIME_SHIFT_64ND_9
NOTE_OFF_63
NOTE_OFF_60
NOTE_OFF_54
NOTE_OFF_44
NOTE_OFF_32
VEL_6
NOTE_ON_65
VEL_4
NOTE_ON_61
VEL_4
NOTE_ON_53
VEL_4
NOTE_ON_37
VEL_3
NOTE_ON_25
TIME_SHIFT_64ND_34
NOTE_OFF_65
NOTE_OFF_61
NOTE_OFF_53
NOTE_OFF_37
NOTE_OFF_25
VEL_4
NOTE_ON_73
VEL_4
NOTE_ON_65
VEL_5
NOTE_ON_77
VEL_5
NOTE_ON_61
VEL_4
NOTE_ON_56
VEL_4
NOTE_ON_49
TIME_SHIFT_64ND_26
NOTE_OFF_73
NOTE_OFF_65
NOTE_OFF_77
NOTE_OFF_61
NOTE_OFF_56
NOTE_OFF_49
VEL_5
NOTE_ON_78
VEL_4
NOTE_ON_66
VEL_5
NOTE_ON_63
TIME_SHIFT_64ND_9
NOTE_OFF_78
NOTE_OFF_66
NOTE_OFF_63
VEL_6
NOTE_ON_80
VEL_5
NOTE_ON_73
VEL_5
NOTE_ON_68
VEL_5
NOTE_ON_65
VEL_4
NOTE_ON_56
VEL_4
NOTE_ON_49
TIME_SHIFT_64ND_26
NOTE_OFF_80
NOTE_OFF_73
NOTE_OFF_68
NOTE_OFF_65
NOTE_OFF_56
NOTE_OFF_49
VEL_6
NOTE_ON_82
VEL_5
NOTE_ON_70
VEL_5
NOTE_ON_66
TIME_SHIFT_64ND_9
NOTE_OFF_82
NOTE_OFF_70
NOTE_OFF_66
VEL_6
NOTE_ON_84
VEL_5
NOTE_ON_80
VEL_5
NOTE_ON_72
VEL_5
NOTE_ON_68
VEL_4
NOTE_ON_56
VEL_4
NOTE_ON_63
TIME_SHIFT_64ND_26
NOTE_OFF_84
NOTE_OFF_80
NOTE_OFF_72
NOTE_OFF_68
NOTE_OFF_56
NOTE_OFF_63
VEL_6
NOTE_ON_85
VEL_5
NOTE_ON_73
VEL_5
NOTE_ON_65
TIME_SHIFT_64ND_9
NOTE_OFF_85
NOTE_OFF_73
NOTE_OFF_65
VEL_6
NOTE_ON_89
VEL_5
NOTE_ON_77
VEL_5
NOTE_ON_84
VEL_5
NOTE_ON_80
VEL_6
NOTE_ON_44
VEL_5
NOTE_ON_32
TIME_SHIFT_64ND_34
NOTE_OFF_44
NOTE_OFF_32
VEL_5
NOTE_ON_72
VEL_4
NOTE_ON_66
VEL_4
NOTE_ON_63
TIME_SHIFT_64ND_26
NOTE_OFF_72
NOTE_OFF_66
NOTE_OFF_63
VEL_4
NOTE_ON_70
VEL_4
NOTE_ON_66
VEL_4
NOTE_ON_61
TIME_SHIFT_64ND_9
NOTE_OFF_89
NOTE_OFF_77
NOTE_OFF_70
NOTE_OFF_66
NOTE_OFF_61
VEL_6
NOTE_ON_87
VEL_5
NOTE_ON_75
VEL_4
NOTE_ON_70
VEL_4
NOTE_ON_66
VEL_4
NOTE_ON_61
TIME_SHIFT_64ND_26
NOTE_OFF_70
NOTE_OFF_66
NOTE_OFF_61
VEL_4
NOTE_ON_68
VEL_3
NOTE_ON_66
VEL_3
NOTE_ON_60
TIME_SHIFT_64ND_9
NOTE_OFF_68
NOTE_OFF_66
NOTE_OFF_60
VEL_4
NOTE_ON_68
VEL_3
NOTE_ON_66
VEL_3
NOTE_ON_60
TIME_SHIFT_64ND_17
NOTE_OFF_87
NOTE_OFF_84
NOTE_OFF_80
NOTE_OFF_75
TIME_SHIFT_64ND_9
NOTE_OFF_68
NOTE_OFF_66
NOTE_OFF_60
VEL_5
NOTE_ON_78
VEL_4
NOTE_ON_66
VEL_4
NOTE_ON_72
VEL_4
NOTE_ON_75
VEL_4
NOTE_ON_63
VEL_4
NOTE_ON_60
VEL_4
NOTE_ON_57
TIME_SHIFT_64ND_9
NOTE_OFF_78
NOTE_OFF_66
NOTE_OFF_72
NOTE_OFF_75
NOTE_OFF_63
NOTE_OFF_60
NOTE_OFF_57
VEL_5
NOTE_ON_75
VEL_6
NOTE_ON_77
VEL_5
NOTE_ON_65
VEL_5
NOTE_ON_72
VEL_4
NOTE_ON_46
VEL_4
NOTE_ON_34
TIME_SHIFT_64ND_34
NOTE_OFF_75
NOTE_OFF_77
NOTE_OFF_65
NOTE_OFF_72
NOTE_OFF_46
NOTE_OFF_34
VEL_5
NOTE_ON_77
VEL_4
NOTE_ON_70
VEL_4
NOTE_ON_65
VEL_4
NOTE_ON_73
VEL_4
NOTE_ON_61
VEL_3
NOTE_ON_58
VEL_3
NOTE_ON_53
TIME_SHIFT_64ND_26
NOTE_OFF_77
NOTE_OFF_70
NOTE_OFF_65
NOTE_OFF_73
VEL_5
NOTE_ON_79
VEL_4
NOTE_ON_67
TIME_SHIFT_64ND_9
NOTE_OFF_79
NOTE_OFF_67
NOTE_OFF_61
NOTE_OFF_58
NOTE_OFF_53
VEL_5
NOTE_ON_81
VEL_4
NOTE_ON_77
VEL_4
NOTE_ON_69
VEL_4
NOTE_ON_73
VEL_5
NOTE_ON_49
VEL_4
NOTE_ON_37
TIME_SHIFT_64ND_26
NOTE_OFF_81
NOTE_OFF_77
NOTE_OFF_69
NOTE_OFF_73
VEL_5
NOTE_ON_82
VEL_4
NOTE_ON_70
TIME_SHIFT_64ND_9
NOTE_OFF_82
NOTE_OFF_70
NOTE_OFF_49
NOTE_OFF_37
VEL_6
NOTE_ON_84
VEL_5
NOTE_ON_77
VEL_5
NOTE_ON_72
VEL_4
NOTE_ON_53
VEL_4
NOTE_ON_65
VEL_4
NOTE_ON_61
VEL_4
NOTE_ON_58
TIME_SHIFT_64ND_27
NOTE_OFF_84
NOTE_OFF_77
NOTE_OFF_72
VEL_6
NOTE_ON_85
VEL_5
NOTE_ON_73
TIME_SHIFT_64ND_5
NOTE_OFF_85
NOTE_OFF_73
VEL_5
NOTE_ON_70
TIME_SHIFT_64ND_2
VEL_5
NOTE_ON_76
TIME_SHIFT_64ND_2
VEL_5
NOTE_ON_79
TIME_SHIFT_64ND_2
NOTE_OFF_53
NOTE_OFF_65
NOTE_OFF_61
NOTE_OFF_58
VEL_6
NOTE_ON_85
VEL_5
NOTE_ON_41
VEL_4
NOTE_ON_29
TIME_SHIFT_64ND_35
NOTE_OFF_41
NOTE_OFF_29
VEL_5
NOTE_ON_67
VEL_4
NOTE_ON_53
VEL_4
NOTE_ON_58
VEL_4
NOTE_ON_61
TIME_SHIFT_64ND_35
NOTE_OFF_85
NOTE_OFF_70
NOTE_OFF_76
NOTE_OFF_79
NOTE_OFF_67
NOTE_OFF_53
NOTE_OFF_58
NOTE_OFF_61
VEL_5
NOTE_ON_84
VEL_4
NOTE_ON_77
VEL_4
NOTE_ON_72
VEL_4
NOTE_ON_69
VEL_4
NOTE_ON_53
VEL_4
NOTE_ON_57
VEL_4
NOTE_ON_60
TIME_SHIFT_64ND_35
NOTE_OFF_84
NOTE_OFF_77
NOTE_OFF_72
NOTE_OFF_69
NOTE_OFF_53
NOTE_OFF_57
NOTE_OFF_60
VEL_5
NOTE_ON_53
TIME_SHIFT_64ND_24
NOTE_OFF_53
VEL_3
NOTE_ON_43
TIME_SHIFT_64ND_3
NOTE_OFF_43
VEL_3
NOTE_ON_44
TIME_SHIFT_64ND_3
NOTE_OFF_44
VEL_3
NOTE_ON_46
TIME_SHIFT_64ND_3
NOTE_OFF_46
VEL_4
NOTE_ON_54
VEL_4
NOTE_ON_60
VEL_4
NOTE_ON_56
VEL_5
NOTE_ON_68
VEL_4
NOTE_ON_65
VEL_3
NOTE_ON_44
TIME_SHIFT_64ND_3
NOTE_OFF_44
VEL_3
NOTE_ON_46
TIME_SHIFT_64ND_3
NOTE_OFF_46
VEL_4
NOTE_ON_44
TIME_SHIFT_64ND_3
NOTE_OFF_44
VEL_3
NOTE_ON_46
TIME_SHIFT_64ND_3
NOTE_OFF_46
VEL_4
NOTE_ON_44
TIME_SHIFT_64ND_3
NOTE_OFF_44
VEL_3
NOTE_ON_46
TIME_SHIFT_64ND_3
NOTE_OFF_46
VEL_4
NOTE_ON_44
TIME_SHIFT_64ND_3
NOTE_OFF_44
VEL_3
NOTE_ON_46
TIME_SHIFT_64ND_3
NOTE_OFF_46
VEL_4
NOTE_ON_44
TIME_SHIFT_64ND_3
NOTE_OFF_44
VEL_4
NOTE_ON_46
TIME_SHIFT_64ND_3
NOTE_OFF_46
VEL_4
NOTE_ON_44
TIME_SHIFT_64ND_2
NOTE_OFF_54
NOTE_OFF_60
NOTE_OFF_56
NOTE_OFF_68
NOTE_OFF_65
VEL_5
NOTE_ON_68
VEL_4
NOTE_ON_60
VEL_4
NOTE_ON_54
VEL_4
NOTE_ON_56
VEL_4
NOTE_ON_63
TIME_SHIFT_64ND_1
NOTE_OFF_44
VEL_4
NOTE_ON_46
TIME_SHIFT_64ND_3
NOTE_OFF_46
VEL_4
NOTE_ON_44
TIME_SHIFT_64ND_3
NOTE_OFF_44
VEL_3
NOTE_ON_46
TIME_SHIFT_64ND_3
VEL_4
NOTE_ON_44
NOTE_OFF_46
TIME_SHIFT_64ND_3
NOTE_OFF_44
VEL_3
NOTE_ON_46
TIME_SHIFT_64ND_3
VEL_4
NOTE_ON_44
NOTE_OFF_46
TIME_SHIFT_64ND_4
NOTE_OFF_44
VEL_3
NOTE_ON_46
TIME_SHIFT_64ND_4
NOTE_OFF_46
VEL_4
NOTE_ON_43
TIME_SHIFT_64ND_4
NOTE_OFF_43
VEL_3
NOTE_ON_44
TIME_SHIFT_64ND_4
NOTE_OFF_68
NOTE_OFF_60
NOTE_OFF_54
NOTE_OFF_56
NOTE_OFF_63
NOTE_OFF_44
VEL_5
NOTE_ON_68
VEL_4
NOTE_ON_61
VEL_4
NOTE_ON_53
VEL_4
NOTE_ON_49
TIME_SHIFT_64ND_35
NOTE_OFF_68
NOTE_OFF_61
NOTE_OFF_53
NOTE_OFF_49
VEL_4
NOTE_ON_49
TIME_SHIFT_64ND_24
NOTE_OFF_49
VEL_3
NOTE_ON_40
TIME_SHIFT_64ND_3
NOTE_OFF_40
VEL_3
NOTE_ON_41
TIME_SHIFT_64ND_3
NOTE_OFF_41
VEL_3
NOTE_ON_42
TIME_SHIFT_64ND_3
NOTE_OFF_42
VEL_4
NOTE_ON_57
VEL_5
NOTE_ON_65
VEL_4
NOTE_ON_51
VEL_4
NOTE_ON_61
VEL_3
NOTE_ON_41
TIME_SHIFT_64ND_3
NOTE_OFF_41
VEL_3
NOTE_ON_42
TIME_SHIFT_64ND_3
NOTE_OFF_42
VEL_4
NOTE_ON_41
TIME_SHIFT_64ND_3
NOTE_OFF_41
VEL_3
NOTE_ON_42
TIME_SHIFT_64ND_3
NOTE_OFF_42
VEL_4
NOTE_ON_41
TIME_SHIFT_64ND_3
NOTE_OFF_41
VEL_3
NOTE_ON_42
TIME_SHIFT_64ND_3
NOTE_OFF_42
VEL_4
NOTE_ON_41
TIME_SHIFT_64ND_3
NOTE_OFF_41
VEL_3
NOTE_ON_42
TIME_SHIFT_64ND_3
NOTE_OFF_42
VEL_4
NOTE_ON_41
TIME_SHIFT_64ND_3
NOTE_OFF_41
VEL_4
NOTE_ON_42
TIME_SHIFT_64ND_3
NOTE_OFF_42
VEL_4
NOTE_ON_41
TIME_SHIFT_64ND_2
NOTE_OFF_57
NOTE_OFF_65
NOTE_OFF_51
NOTE_OFF_61
VEL_5
NOTE_ON_65
VEL_4
NOTE_ON_51
VEL_4
NOTE_ON_57
VEL_4
NOTE_ON_60
TIME_SHIFT_64ND_1
NOTE_OFF_41
VEL_4
NOTE_ON_42
TIME_SHIFT_64ND_3
NOTE_OFF_42
VEL_4
NOTE_ON_41
TIME_SHIFT_64ND_3
NOTE_OFF_41
VEL_3
NOTE_ON_42
TIME_SHIFT_64ND_3
VEL_4
NOTE_ON_41
NOTE_OFF_42
TIME_SHIFT_64ND_3
NOTE_OFF_41
VEL_3
NOTE_ON_42
TIME_SHIFT_64ND_3
VEL_4
NOTE_ON_41
NOTE_OFF_42
TIME_SHIFT_64ND_4
NOTE_OFF_41
VEL_3
NOTE_ON_42
TIME_SHIFT_64ND_4
NOTE_OFF_42
VEL_4
NOTE_ON_40
TIME_SHIFT_64ND_4
NOTE_OFF_40
VEL_3
NOTE_ON_41
TIME_SHIFT_64ND_4
NOTE_OFF_65
NOTE_OFF_51
NOTE_OFF_57
NOTE_OFF_60
NOTE_OFF_41
VEL_5
NOTE_ON_58
VEL_4
NOTE_ON_49
VEL_4
NOTE_ON_42
TIME_SHIFT_64ND_35
NOTE_OFF_42
VEL_3
NOTE_ON_41
TIME_SHIFT_64ND_18
NOTE_OFF_41
VEL_2
NOTE_ON_37
TIME_SHIFT_64ND_19
NOTE_OFF_58
NOTE_OFF_49
NOTE_OFF_37
VEL_2
NOTE_ON_58
VEL_2
NOTE_ON_53
VEL_2
NOTE_ON_46
VEL_2
NOTE_ON_46
VEL_2
NOTE_ON_41
VEL_2
NOTE_ON_34
TIME_SHIFT_64ND_33
NOTE_OFF_58
NOTE_OFF_53
NOTE_OFF_46
NOTE_OFF_46
NOTE_OFF_41
NOTE_OFF_34
VEL_2
NOTE_ON_58
VEL_2
NOTE_ON_54
VEL_2
NOTE_ON_49
VEL_2
NOTE_ON_42
VEL_1
NOTE_ON_37
TIME_SHIFT_64ND_26
NOTE_OFF_58
VEL_2
NOTE_ON_58
TIME_SHIFT_64ND_9
NOTE_OFF_58
NOTE_OFF_54
NOTE_OFF_49
NOTE_OFF_42
NOTE_OFF_37
VEL_2
NOTE_ON_58
VEL_2
NOTE_ON_53
VEL_2
NOTE_ON_46
VEL_2
NOTE_ON_41
VEL_2
NOTE_ON_34
TIME_SHIFT_64ND_34
NOTE_OFF_58
NOTE_OFF_53
NOTE_OFF_46
NOTE_OFF_41
NOTE_OFF_34
VEL_3
NOTE_ON_61
VEL_2
NOTE_ON_54
VEL_1
NOTE_ON_49
VEL_1
NOTE_ON_42
VEL_1
NOTE_ON_37
TIME_SHIFT_64ND_25
NOTE_OFF_61
VEL_3
NOTE_ON_60
TIME_SHIFT_64ND_4
NOTE_OFF_60
VEL_2
NOTE_ON_61
TIME_SHIFT_64ND_4
NOTE_OFF_61
NOTE_OFF_54
NOTE_OFF_49
NOTE_OFF_42
NOTE_OFF_37
VEL_3
NOTE_ON_60
VEL_2
NOTE_ON_53
VEL_2
NOTE_ON_46
VEL_2
NOTE_ON_41
VEL_2
NOTE_ON_34
TIME_SHIFT_64ND_25
NOTE_OFF_60
VEL_2
NOTE_ON_58
TIME_SHIFT_64ND_8
NOTE_OFF_58
NOTE_OFF_53
NOTE_OFF_46
NOTE_OFF_41
NOTE_OFF_34
VEL_3
NOTE_ON_58
VEL_2
NOTE_ON_54
VEL_2
NOTE_ON_49
VEL_1
NOTE_ON_42
VEL_1
NOTE_ON_37
TIME_SHIFT_64ND_25
NOTE_OFF_58
VEL_2
NOTE_ON_58
TIME_SHIFT_64ND_8
NOTE_OFF_58
NOTE_OFF_54
NOTE_OFF_49
NOTE_OFF_42
NOTE_OFF_37
VEL_2
NOTE_ON_58
VEL_2
NOTE_ON_53
VEL_2
NOTE_ON_46
VEL_2
NOTE_ON_41
VEL_2
NOTE_ON_34
TIME_SHIFT_64ND_34
NOTE_OFF_58
NOTE_OFF_53
NOTE_OFF_46
NOTE_OFF_41
NOTE_OFF_34
VEL_2
NOTE_ON_44
VEL_2
NOTE_ON_32
TIME_SHIFT_64ND_34
NOTE_OFF_44
NOTE_OFF_32
VEL_3
NOTE_ON_77
VEL_2
NOTE_ON_37
TIME_SHIFT_64ND_16
NOTE_OFF_37
VEL_1
NOTE_ON_44
TIME_SHIFT_64ND_15
NOTE_OFF_44
VEL_1
NOTE_ON_53
TIME_SHIFT_64ND_16
NOTE_OFF_53
VEL_1
NOTE_ON_61
TIME_SHIFT_64ND_16
NOTE_OFF_77
NOTE_OFF_61
VEL_3
NOTE_ON_78
VEL_2
NOTE_ON_37
TIME_SHIFT_64ND_16
NOTE_OFF_78
NOTE_OFF_37
VEL_2
NOTE_ON_77
VEL_1
NOTE_ON_44
TIME_SHIFT_64ND_15
NOTE_OFF_77
NOTE_OFF_44
VEL_3
NOTE_ON_75
VEL_1
NOTE_ON_53
TIME_SHIFT_64ND_15
NOTE_OFF_75
NOTE_OFF_53
VEL_2
NOTE_ON_73
VEL_1
NOTE_ON_61
TIME_SHIFT_64ND_16
NOTE_OFF_73
NOTE_OFF_61
VEL_3
NOTE_ON_72
VEL_2
NOTE_ON_39
TIME_SHIFT_64ND_16
NOTE_OFF_39
VEL_1
NOTE_ON_44
TIME_SHIFT_64ND_16
NOTE_OFF_72
NOTE_OFF_44
VEL_3
NOTE_ON_82
VEL_1
NOTE_ON_54
TIME_SHIFT_64ND_16
NOTE_OFF_54
VEL_1
NOTE_ON_60
TIME_SHIFT_64ND_16
NOTE_OFF_82
NOTE_OFF_60
VEL_3
NOTE_ON_80
VEL_1
NOTE_ON_39
TIME_SHIFT_64ND_16
NOTE_OFF_39
VEL_1
NOTE_ON_44
TIME_SHIFT_64ND_15
NOTE_OFF_44
VEL_1
NOTE_ON_54
TIME_SHIFT_64ND_15
NOTE_OFF_54
VEL_1
NOTE_ON_60
TIME_SHIFT_64ND_16
NOTE_OFF_80
NOTE_OFF_60
VEL_3
NOTE_ON_78
VEL_2
NOTE_ON_32
TIME_SHIFT_64ND_16
NOTE_OFF_32
VEL_1
NOTE_ON_44
TIME_SHIFT_64ND_15
NOTE_OFF_44
VEL_1
NOTE_ON_54
TIME_SHIFT_64ND_15
NOTE_OFF_54
VEL_1
NOTE_ON_60
TIME_SHIFT_64ND_16
NOTE_OFF_78
NOTE_OFF_60
VEL_3
NOTE_ON_80
VEL_2
NOTE_ON_32
TIME_SHIFT_64ND_16
NOTE_OFF_80
NOTE_OFF_32
VEL_2
NOTE_ON_78
VEL_1
NOTE_ON_44
TIME_SHIFT_64ND_15
NOTE_OFF_78
NOTE_OFF_44
VEL_3
NOTE_ON_77
VEL_1
NOTE_ON_54
TIME_SHIFT_64ND_15
NOTE_OFF_77
NOTE_OFF_54
VEL_2
NOTE_ON_75
VEL_1
NOTE_ON_60
TIME_SHIFT_64ND_16
NOTE_OFF_75
NOTE_OFF_60
VEL_3
NOTE_ON_73
VEL_2
NOTE_ON_37
TIME_SHIFT_64ND_16
NOTE_OFF_37
VEL_1
NOTE_ON_44
TIME_SHIFT_64ND_16
NOTE_OFF_73
NOTE_OFF_44
VEL_3
NOTE_ON_85
VEL_1
NOTE_ON_53
TIME_SHIFT_64ND_16
NOTE_OFF_53
VEL_1
NOTE_ON_61
TIME_SHIFT_64ND_16
NOTE_OFF_85
NOTE_OFF_61
VEL_3
NOTE_ON_80
VEL_2
NOTE_ON_37
TIME_SHIFT_64ND_16
NOTE_OFF_37
VEL_1
NOTE_ON_44
TIME_SHIFT_64ND_15
NOTE_OFF_44
VEL_1
NOTE_ON_53
TIME_SHIFT_64ND_15
NOTE_OFF_53
VEL_1
NOTE_ON_61
TIME_SHIFT_64ND_16
NOTE_OFF_80
NOTE_OFF_61
VEL_3
NOTE_ON_77
VEL_2
NOTE_ON_37
TIME_SHIFT_64ND_16
NOTE_OFF_37
VEL_1
NOTE_ON_44
TIME_SHIFT_64ND_15
NOTE_OFF_44
VEL_1
NOTE_ON_53
TIME_SHIFT_64ND_16
NOTE_OFF_53
VEL_1
NOTE_ON_61
TIME_SHIFT_64ND_16
NOTE_OFF_77
NOTE_OFF_61
VEL_3
NOTE_ON_78
VEL_2
NOTE_ON_34
TIME_SHIFT_64ND_15
NOTE_OFF_78
NOTE_OFF_34
VEL_2
NOTE_ON_77
VEL_1
NOTE_ON_46
TIME_SHIFT_64ND_15
NOTE_OFF_77
NOTE_OFF_46
VEL_3
NOTE_ON_75
VEL_1
NOTE_ON_56
TIME_SHIFT_64ND_15
NOTE_OFF_75
NOTE_OFF_56
VEL_2
NOTE_ON_74
VEL_1
NOTE_ON_62
TIME_SHIFT_64ND_9
NOTE_OFF_74
VEL_2
NOTE_ON_75
TIME_SHIFT_64ND_3
NOTE_OFF_75
VEL_2
NOTE_ON_77
TIME_SHIFT_64ND_3
NOTE_OFF_77
NOTE_OFF_62
VEL_3
NOTE_ON_75
VEL_2
NOTE_ON_39
TIME_SHIFT_64ND_15
NOTE_OFF_75
NOTE_OFF_39
VEL_3
NOTE_ON_74
VEL_1
NOTE_ON_46
TIME_SHIFT_64ND_15
NOTE_OFF_74
NOTE_OFF_46
VEL_3
NOTE_ON_75
VEL_1
NOTE_ON_54
TIME_SHIFT_64ND_15
NOTE_OFF_75
NOTE_OFF_54
VEL_3
NOTE_ON_77
VEL_1
NOTE_ON_63
TIME_SHIFT_64ND_15
NOTE_OFF_77
NOTE_OFF_63
VEL_3
NOTE_ON_78
VEL_2
NOTE_ON_42
TIME_SHIFT_64ND_15
NOTE_OFF_78
NOTE_OFF_42
VEL_3
NOTE_ON_70
VEL_1
NOTE_ON_51
TIME_SHIFT_64ND_15
NOTE_OFF_70
NOTE_OFF_51
VEL_3
NOTE_ON_77
VEL_1
NOTE_ON_58
TIME_SHIFT_64ND_16
NOTE_OFF_77
NOTE_OFF_58
VEL_3
NOTE_ON_75
VEL_1
NOTE_ON_63
TIME_SHIFT_64ND_9
NOTE_OFF_75
NOTE_OFF_63
VEL_2
NOTE_ON_72
TIME_SHIFT_64ND_3
NOTE_OFF_72
VEL_2
NOTE_ON_73
TIME_SHIFT_64ND_3
NOTE_OFF_73
VEL_2
NOTE_ON_73
VEL_2
NOTE_ON_43
TIME_SHIFT_64ND_3
NOTE_OFF_73
VEL_2
NOTE_ON_75
TIME_SHIFT_64ND_3
NOTE_OFF_75
VEL_2
NOTE_ON_73
TIME_SHIFT_64ND_3
NOTE_OFF_73
VEL_2
NOTE_ON_75
TIME_SHIFT_64ND_3
NOTE_OFF_75
VEL_2
NOTE_ON_73
TIME_SHIFT_64ND_3
NOTE_OFF_73
VEL_2
NOTE_ON_75
TIME_SHIFT_64ND_1
NOTE_OFF_43
VEL_1
NOTE_ON_52
TIME_SHIFT_64ND_2
NOTE_OFF_75
VEL_2
NOTE_ON_73
TIME_SHIFT_64ND_3
NOTE_OFF_73
VEL_2
NOTE_ON_75
TIME_SHIFT_64ND_3
NOTE_OFF_75
VEL_2
NOTE_ON_73
TIME_SHIFT_64ND_3
NOTE_OFF_73
VEL_2
NOTE_ON_75
TIME_SHIFT_64ND_3
NOTE_OFF_75
VEL_3
NOTE_ON_73
TIME_SHIFT_64ND_2
NOTE_OFF_52
VEL_1
NOTE_ON_61
TIME_SHIFT_64ND_1
NOTE_OFF_73
VEL_2
NOTE_ON_75
TIME_SHIFT_64ND_3
NOTE_OFF_75
VEL_2
NOTE_ON_73
TIME_SHIFT_64ND_3
NOTE_OFF_73
VEL_2
NOTE_ON_75
TIME_SHIFT_64ND_3
VEL_2
NOTE_ON_73
NOTE_OFF_75
TIME_SHIFT_64ND_3
NOTE_OFF_73
VEL_2
NOTE_ON_75
TIME_SHIFT_64ND_3
NOTE_OFF_61
VEL_2
NOTE_ON_73
VEL_1
NOTE_ON_70
NOTE_OFF_75
TIME_SHIFT_64ND_4
NOTE_OFF_73
VEL_2
NOTE_ON_75
TIME_SHIFT_64ND_4
NOTE_OFF_75
VEL_2
NOTE_ON_72
TIME_SHIFT_64ND_5
NOTE_OFF_72
VEL_2
NOTE_ON_73
TIME_SHIFT_64ND_4
NOTE_OFF_73
NOTE_OFF_70
VEL_3
NOTE_ON_82
VEL_2
NOTE_ON_44
TIME_SHIFT_64ND_16
NOTE_OFF_82
NOTE_OFF_44
VEL_3
NOTE_ON_80
VEL_1
NOTE_ON_51
TIME_SHIFT_64ND_16
NOTE_OFF_80
NOTE_OFF_51
VEL_3
NOTE_ON_78
VEL_1
NOTE_ON_60
TIME_SHIFT_64ND_16
NOTE_OFF_78
NOTE_OFF_60
VEL_3
NOTE_ON_68
VEL_1
NOTE_ON_66
TIME_SHIFT_64ND_16
NOTE_OFF_68
NOTE_OFF_66
VEL_3
NOTE_ON_75
VEL_2
NOTE_ON_32
TIME_SHIFT_64ND_16
NOTE_OFF_32
VEL_1
NOTE_ON_44
TIME_SHIFT_64ND_16
NOTE_OFF_44
VEL_1
NOTE_ON_54
TIME_SHIFT_64ND_16
NOTE_OFF_54
VEL_1
NOTE_ON_60
TIME_SHIFT_64ND_16
NOTE_OFF_75
NOTE_OFF_60
VEL_3
NOTE_ON_73
VEL_1
NOTE_ON_37
TIME_SHIFT_64ND_16
NOTE_OFF_37
VEL_1
NOTE_ON_44
TIME_SHIFT_64ND_16
NOTE_OFF_73
NOTE_OFF_44
VEL_1
NOTE_ON_53
TIME_SHIFT_64ND_16
NOTE_OFF_53
VEL_1
NOTE_ON_61
TIME_SHIFT_64ND_17
NOTE_OFF_61
VEL_3
NOTE_ON_77
VEL_2
NOTE_ON_37
TIME_SHIFT_64ND_16
NOTE_OFF_37
VEL_1
NOTE_ON_44
TIME_SHIFT_64ND_15
NOTE_OFF_44
VEL_1
NOTE_ON_53
TIME_SHIFT_64ND_16
NOTE_OFF_53
VEL_1
NOTE_ON_61
TIME_SHIFT_64ND_16
NOTE_OFF_77
NOTE_OFF_61
VEL_3
NOTE_ON_78
VEL_2
NOTE_ON_37
TIME_SHIFT_64ND_16
NOTE_OFF_78
NOTE_OFF_37
VEL_2
NOTE_ON_77
VEL_1
NOTE_ON_44
TIME_SHIFT_64ND_15
NOTE_OFF_77
NOTE_OFF_44
VEL_3
NOTE_ON_75
VEL_1
NOTE_ON_53
TIME_SHIFT_64ND_15
NOTE_OFF_75
NOTE_OFF_53
VEL_2
NOTE_ON_73
VEL_1
NOTE_ON_61
TIME_SHIFT_64ND_16
NOTE_OFF_73
NOTE_OFF_61
VEL_3
NOTE_ON_72
VEL_2
NOTE_ON_39
TIME_SHIFT_64ND_16
NOTE_OFF_39
VEL_1
NOTE_ON_44
TIME_SHIFT_64ND_16
NOTE_OFF_72
NOTE_OFF_44
VEL_3
NOTE_ON_82
VEL_1
NOTE_ON_54
TIME_SHIFT_64ND_16
NOTE_OFF_54
VEL_1
NOTE_ON_60
TIME_SHIFT_64ND_16
NOTE_OFF_82
NOTE_OFF_60
VEL_3
NOTE_ON_80
VEL_1
NOTE_ON_39
TIME_SHIFT_64ND_16
NOTE_OFF_39
VEL_1
NOTE_ON_44
TIME_SHIFT_64ND_15
NOTE_OFF_44
VEL_1
NOTE_ON_54
TIME_SHIFT_64ND_15
NOTE_OFF_54
VEL_1
NOTE_ON_60
TIME_SHIFT_64ND_16
NOTE_OFF_80
NOTE_OFF_60
VEL_3
NOTE_ON_78
VEL_2
NOTE_ON_32
TIME_SHIFT_64ND_16
NOTE_OFF_32
VEL_1
NOTE_ON_44
TIME_SHIFT_64ND_15
NOTE_OFF_44
VEL_1
NOTE_ON_54
TIME_SHIFT_64ND_15
NOTE_OFF_54
VEL_1
NOTE_ON_60
TIME_SHIFT_64ND_16
NOTE_OFF_78
NOTE_OFF_60
VEL_3
NOTE_ON_80
VEL_2
NOTE_ON_32
TIME_SHIFT_64ND_16
NOTE_OFF_80
NOTE_OFF_32
VEL_2
NOTE_ON_78
VEL_1
NOTE_ON_44
TIME_SHIFT_64ND_15
NOTE_OFF_78
NOTE_OFF_44
VEL_3
NOTE_ON_77
VEL_1
NOTE_ON_54
TIME_SHIFT_64ND_15
NOTE_OFF_77
NOTE_OFF_54
VEL_2
NOTE_ON_75
VEL_1
NOTE_ON_60
TIME_SHIFT_64ND_16
NOTE_OFF_75
NOTE_OFF_60
VEL_3
NOTE_ON_73
VEL_2
NOTE_ON_37
TIME_SHIFT_64ND_16
NOTE_OFF_37
VEL_1
NOTE_ON_44
TIME_SHIFT_64ND_16
NOTE_OFF_73
NOTE_OFF_44
VEL_3
NOTE_ON_85
VEL_1
NOTE_ON_53
TIME_SHIFT_64ND_16
NOTE_OFF_53
VEL_1
NOTE_ON_61
TIME_SHIFT_64ND_16
NOTE_OFF_85
NOTE_OFF_61
VEL_3
NOTE_ON_80
VEL_2
NOTE_ON_37
TIME_SHIFT_64ND_16
NOTE_OFF_37
VEL_1
NOTE_ON_44
TIME_SHIFT_64ND_15
NOTE_OFF_44
VEL_1
NOTE_ON_53
TIME_SHIFT_64ND_15
NOTE_OFF_53
VEL_1
NOTE_ON_61
TIME_SHIFT_64ND_16
NOTE_OFF_80
NOTE_OFF_61
VEL_3
NOTE_ON_77
VEL_2
NOTE_ON_37
TIME_SHIFT_64ND_16
NOTE_OFF_37
VEL_1
NOTE_ON_44
TIME_SHIFT_64ND_15
NOTE_OFF_44
VEL_1
NOTE_ON_53
TIME_SHIFT_64ND_16
NOTE_OFF_53
VEL_1
NOTE_ON_61
TIME_SHIFT_64ND_16
NOTE_OFF_77
NOTE_OFF_61
VEL_3
NOTE_ON_78
VEL_2
NOTE_ON_34
TIME_SHIFT_64ND_15
NOTE_OFF_78
NOTE_OFF_34
VEL_2
NOTE_ON_77
VEL_1
NOTE_ON_46
TIME_SHIFT_64ND_15
NOTE_OFF_77
NOTE_OFF_46
VEL_3
NOTE_ON_75
VEL_1
NOTE_ON_56
TIME_SHIFT_64ND_15
NOTE_OFF_75
NOTE_OFF_56
VEL_2
NOTE_ON_74
VEL_1
NOTE_ON_62
TIME_SHIFT_64ND_9
NOTE_OFF_74
VEL_2
NOTE_ON_75
TIME_SHIFT_64ND_3
NOTE_OFF_75
VEL_2
NOTE_ON_77
TIME_SHIFT_64ND_3
NOTE_OFF_77
NOTE_OFF_62
VEL_3
NOTE_ON_75
VEL_2
NOTE_ON_39
TIME_SHIFT_64ND_15
NOTE_OFF_75
NOTE_OFF_39
VEL_3
NOTE_ON_74
VEL_1
NOTE_ON_46
TIME_SHIFT_64ND_15
NOTE_OFF_74
NOTE_OFF_46
VEL_3
NOTE_ON_75
VEL_1
NOTE_ON_54
TIME_SHIFT_64ND_15
NOTE_OFF_75
NOTE_OFF_54
VEL_3
NOTE_ON_77
VEL_1
NOTE_ON_63
TIME_SHIFT_64ND_15
NOTE_OFF_77
NOTE_OFF_63
VEL_3
NOTE_ON_78
VEL_2
NOTE_ON_42
TIME_SHIFT_64ND_15
NOTE_OFF_78
NOTE_OFF_42
VEL_3
NOTE_ON_70
VEL_1
NOTE_ON_51
TIME_SHIFT_64ND_15
NOTE_OFF_70
NOTE_OFF_51
VEL_3
NOTE_ON_77
VEL_1
NOTE_ON_58
TIME_SHIFT_64ND_16
NOTE_OFF_77
NOTE_OFF_58
VEL_3
NOTE_ON_75
VEL_1
NOTE_ON_63
TIME_SHIFT_64ND_9
NOTE_OFF_75
NOTE_OFF_63
VEL_2
NOTE_ON_72
TIME_SHIFT_64ND_3
NOTE_OFF_72
VEL_2
NOTE_ON_73
TIME_SHIFT_64ND_3
NOTE_OFF_73
VEL_2
NOTE_ON_73
VEL_2
NOTE_ON_43
TIME_SHIFT_64ND_3
NOTE_OFF_73
VEL_2
NOTE_ON_75
TIME_SHIFT_64ND_3
NOTE_OFF_75
VEL_2
NOTE_ON_73
TIME_SHIFT_64ND_3
NOTE_OFF_73
VEL_2
NOTE_ON_75
TIME_SHIFT_64ND_3
NOTE_OFF_75
VEL_2
NOTE_ON_73
TIME_SHIFT_64ND_3
NOTE_OFF_73
VEL_2
NOTE_ON_75
TIME_SHIFT_64ND_1
NOTE_OFF_43
VEL_1
NOTE_ON_52
TIME_SHIFT_64ND_2
NOTE_OFF_75
VEL_2
NOTE_ON_73
TIME_SHIFT_64ND_3
NOTE_OFF_73
VEL_2
NOTE_ON_75
TIME_SHIFT_64ND_3
NOTE_OFF_75
VEL_2
NOTE_ON_73
TIME_SHIFT_64ND_3
NOTE_OFF_73
VEL_2
NOTE_ON_75
TIME_SHIFT_64ND_3
NOTE_OFF_75
VEL_3
NOTE_ON_73
TIME_SHIFT_64ND_2
NOTE_OFF_52
VEL_1
NOTE_ON_61
TIME_SHIFT_64ND_1
NOTE_OFF_73
VEL_2
NOTE_ON_75
TIME_SHIFT_64ND_3
NOTE_OFF_75
VEL_2
NOTE_ON_73
TIME_SHIFT_64ND_3
NOTE_OFF_73
VEL_2
NOTE_ON_75
TIME_SHIFT_64ND_3
VEL_2
NOTE_ON_73
NOTE_OFF_75
TIME_SHIFT_64ND_3
NOTE_OFF_73
VEL_2
NOTE_ON_75
TIME_SHIFT_64ND_3
NOTE_OFF_61
VEL_2
NOTE_ON_73
VEL_1
NOTE_ON_70
NOTE_OFF_75
TIME_SHIFT_64ND_4
NOTE_OFF_73
VEL_2
NOTE_ON_75
TIME_SHIFT_64ND_4
NOTE_OFF_75
VEL_2
NOTE_ON_72
TIME_SHIFT_64ND_5
NOTE_OFF_72
VEL_2
NOTE_ON_73
TIME_SHIFT_64ND_4
NOTE_OFF_73
NOTE_OFF_70
VEL_3
NOTE_ON_82
VEL_2
NOTE_ON_44
TIME_SHIFT_64ND_16
NOTE_OFF_82
NOTE_OFF_44
VEL_3
NOTE_ON_80
VEL_1
NOTE_ON_51
TIME_SHIFT_64ND_16
NOTE_OFF_80
NOTE_OFF_51
VEL_3
NOTE_ON_78
VEL_1
NOTE_ON_60
TIME_SHIFT_64ND_16
NOTE_OFF_78
NOTE_OFF_60
VEL_3
NOTE_ON_68
VEL_1
NOTE_ON_66
TIME_SHIFT_64ND_16
NOTE_OFF_68
NOTE_OFF_66
VEL_3
NOTE_ON_75
VEL_2
NOTE_ON_32
TIME_SHIFT_64ND_16
NOTE_OFF_32
VEL_1
NOTE_ON_44
TIME_SHIFT_64ND_16
NOTE_OFF_44
VEL_1
NOTE_ON_54
TIME_SHIFT_64ND_16
NOTE_OFF_54
VEL_1
NOTE_ON_60
TIME_SHIFT_64ND_16
NOTE_OFF_75
NOTE_OFF_60
VEL_3
NOTE_ON_73
VEL_1
NOTE_ON_37
TIME_SHIFT_64ND_16
NOTE_OFF_37
VEL_1
NOTE_ON_44
TIME_SHIFT_64ND_16
NOTE_OFF_73
NOTE_OFF_44
VEL_1
NOTE_ON_53
TIME_SHIFT_64ND_16
NOTE_OFF_53
VEL_1
NOTE_ON_61
TIME_SHIFT_64ND_17
NOTE_OFF_61
VEL_3
NOTE_ON_72
VEL_2
NOTE_ON_32
TIME_SHIFT_64ND_16
NOTE_OFF_32
VEL_1
NOTE_ON_44
TIME_SHIFT_64ND_15
NOTE_OFF_44
VEL_1
NOTE_ON_51
TIME_SHIFT_64ND_16
NOTE_OFF_51
VEL_1
NOTE_ON_60
TIME_SHIFT_64ND_16
NOTE_OFF_72
NOTE_OFF_60
VEL_3
NOTE_ON_73
VEL_2
NOTE_ON_32
TIME_SHIFT_64ND_16
NOTE_OFF_73
NOTE_OFF_32
VEL_3
NOTE_ON_72
VEL_1
NOTE_ON_44
TIME_SHIFT_64ND_15
NOTE_OFF_72
NOTE_OFF_44
VEL_3
NOTE_ON_70
VEL_1
NOTE_ON_51
TIME_SHIFT_64ND_15
NOTE_OFF_70
NOTE_OFF_51
VEL_3
NOTE_ON_68
VEL_1
NOTE_ON_60
TIME_SHIFT_64ND_16
NOTE_OFF_68
NOTE_OFF_60
VEL_3
NOTE_ON_67
VEL_2
NOTE_ON_34
TIME_SHIFT_64ND_16
NOTE_OFF_34
VEL_1
NOTE_ON_46
TIME_SHIFT_64ND_16
NOTE_OFF_67
NOTE_OFF_46
VEL_3
NOTE_ON_77
VEL_1
NOTE_ON_51
TIME_SHIFT_64ND_16
NOTE_OFF_51
VEL_1
NOTE_ON_61
TIME_SHIFT_64ND_16
NOTE_OFF_77
NOTE_OFF_61
VEL_3
NOTE_ON_75
VEL_2
NOTE_ON_34
TIME_SHIFT_64ND_16
NOTE_OFF_34
VEL_1
NOTE_ON_46
TIME_SHIFT_64ND_15
NOTE_OFF_46
VEL_1
NOTE_ON_51
TIME_SHIFT_64ND_15
NOTE_OFF_51
VEL_1
NOTE_ON_61
TIME_SHIFT_64ND_16
NOTE_OFF_75
NOTE_OFF_61
VEL_3
NOTE_ON_73
VEL_2
NOTE_ON_34
TIME_SHIFT_64ND_16
NOTE_OFF_34
VEL_1
NOTE_ON_46
TIME_SHIFT_64ND_15
NOTE_OFF_46
VEL_1
NOTE_ON_52
TIME_SHIFT_64ND_15
NOTE_OFF_52
VEL_2
NOTE_ON_61
TIME_SHIFT_64ND_16
NOTE_OFF_73
NOTE_OFF_61
VEL_3
NOTE_ON_75
VEL_2
NOTE_ON_34
TIME_SHIFT_64ND_16
NOTE_OFF_75
NOTE_OFF_34
VEL_3
NOTE_ON_73
VEL_2
NOTE_ON_46
TIME_SHIFT_64ND_15
NOTE_OFF_73
NOTE_OFF_46
VEL_3
NOTE_ON_72
VEL_2
NOTE_ON_52
TIME_SHIFT_64ND_15
NOTE_OFF_72
NOTE_OFF_52
VEL_3
NOTE_ON_70
VEL_2
NOTE_ON_61
TIME_SHIFT_64ND_16
NOTE_OFF_70
NOTE_OFF_61
VEL_3
NOTE_ON_69
VEL_2
NOTE_ON_36
TIME_SHIFT_64ND_16
NOTE_OFF_36
VEL_2
NOTE_ON_48
TIME_SHIFT_64ND_15
NOTE_OFF_69
NOTE_OFF_48
VEL_3
NOTE_ON_78
VEL_1
NOTE_ON_54
TIME_SHIFT_64ND_16
NOTE_OFF_54
VEL_1
NOTE_ON_63
TIME_SHIFT_64ND_16
NOTE_OFF_78
NOTE_OFF_63
VEL_3
NOTE_ON_77
VEL_2
NOTE_ON_36
TIME_SHIFT_64ND_16
NOTE_OFF_36
VEL_1
NOTE_ON_48
TIME_SHIFT_64ND_15
NOTE_OFF_48
VEL_2
NOTE_ON_51
TIME_SHIFT_64ND_15
NOTE_OFF_51
VEL_1
NOTE_ON_63
TIME_SHIFT_64ND_16
NOTE_OFF_77
NOTE_OFF_63
VEL_3
NOTE_ON_77
VEL_2
NOTE_ON_37
TIME_SHIFT_64ND_16
NOTE_OFF_37
VEL_1
NOTE_ON_49
TIME_SHIFT_64ND_15
NOTE_OFF_49
VEL_2
NOTE_ON_58
TIME_SHIFT_64ND_15
NOTE_OFF_58
VEL_2
NOTE_ON_65
TIME_SHIFT_64ND_16
NOTE_OFF_77
NOTE_OFF_65
VEL_3
NOTE_ON_78
VEL_2
NOTE_ON_37
TIME_SHIFT_64ND_15
NOTE_OFF_78
NOTE_OFF_37
VEL_3
NOTE_ON_77
VEL_2
NOTE_ON_49
TIME_SHIFT_64ND_15
NOTE_OFF_77
NOTE_OFF_49
VEL_3
NOTE_ON_75
VEL_2
NOTE_ON_58
TIME_SHIFT_64ND_15
NOTE_OFF_75
NOTE_OFF_58
VEL_3
NOTE_ON_73
VEL_2
NOTE_ON_65
TIME_SHIFT_64ND_15
NOTE_OFF_73
NOTE_OFF_65
VEL_3
NOTE_ON_73
VEL_2
NOTE_ON_39
TIME_SHIFT_64ND_16
NOTE_OFF_39
VEL_2
NOTE_ON_51
TIME_SHIFT_64ND_15
NOTE_OFF_73
NOTE_OFF_51
VEL_3
NOTE_ON_72
VEL_2
NOTE_ON_58
TIME_SHIFT_64ND_15
NOTE_OFF_58
VEL_2
NOTE_ON_66
TIME_SHIFT_64ND_15
NOTE_OFF_72
NOTE_OFF_66
VEL_2
NOTE_ON_41
TIME_SHIFT_64ND_15
NOTE_OFF_41
VEL_3
NOTE_ON_72
VEL_2
NOTE_ON_53
TIME_SHIFT_64ND_13
NOTE_OFF_72
VEL_3
NOTE_ON_75
TIME_SHIFT_64ND_2
NOTE_OFF_75
NOTE_OFF_53
VEL_3
NOTE_ON_73
VEL_2
NOTE_ON_58
TIME_SHIFT_64ND_15
NOTE_OFF_58
VEL_2
NOTE_ON_65
TIME_SHIFT_64ND_8
NOTE_OFF_73
VEL_3
NOTE_ON_72
TIME_SHIFT_64ND_8
NOTE_OFF_72
NOTE_OFF_65
VEL_3
NOTE_ON_72
VEL_2
NOTE_ON_42
TIME_SHIFT_64ND_16
NOTE_OFF_42
VEL_2
NOTE_ON_51
TIME_SHIFT_64ND_15
NOTE_OFF_72
NOTE_OFF_51
VEL_3
NOTE_ON_70
VEL_2
NOTE_ON_58
TIME_SHIFT_64ND_16
NOTE_OFF_58
VEL_2
NOTE_ON_63
TIME_SHIFT_64ND_15
NOTE_OFF_70
NOTE_OFF_63
VEL_2
NOTE_ON_42
TIME_SHIFT_64ND_16
NOTE_OFF_42
VEL_3
NOTE_ON_72
VEL_2
NOTE_ON_54
TIME_SHIFT_64ND_14
NOTE_OFF_72
VEL_3
NOTE_ON_75
TIME_SHIFT_64ND_2
NOTE_OFF_75
NOTE_OFF_54
VEL_3
NOTE_ON_73
VEL_2
NOTE_ON_58
TIME_SHIFT_64ND_16
NOTE_OFF_58
VEL_2
NOTE_ON_64
TIME_SHIFT_64ND_8
NOTE_OFF_73
VEL_3
NOTE_ON_72
TIME_SHIFT_64ND_8
NOTE_OFF_72
NOTE_OFF_64
VEL_3
NOTE_ON_72
VEL_2
NOTE_ON_41
TIME_SHIFT_64ND_16
NOTE_OFF_41
VEL_2
NOTE_ON_48
TIME_SHIFT_64ND_16
NOTE_OFF_72
NOTE_OFF_48
VEL_3
NOTE_ON_77
VEL_2
NOTE_ON_57
TIME_SHIFT_64ND_16
NOTE_OFF_57
VEL_1
NOTE_ON_65
TIME_SHIFT_64ND_16
NOTE_OFF_77
NOTE_OFF_65
VEL_3
NOTE_ON_78
VEL_2
NOTE_ON_39
TIME_SHIFT_64ND_16
NOTE_OFF_39
VEL_2
NOTE_ON_51
TIME_SHIFT_64ND_16
NOTE_OFF_78
NOTE_OFF_51
VEL_2
NOTE_ON_68
VEL_1
NOTE_ON_56
TIME_SHIFT_64ND_18
NOTE_OFF_56
VEL_1
NOTE_ON_60
VEL_1
NOTE_ON_66
TIME_SHIFT_64ND_18
NOTE_OFF_68
NOTE_OFF_60
NOTE_OFF_66
VEL_3
NOTE_ON_77
VEL_2
NOTE_ON_37
TIME_SHIFT_64ND_17
NOTE_OFF_37
VEL_1
NOTE_ON_44
TIME_SHIFT_64ND_15
NOTE_OFF_44
VEL_1
NOTE_ON_53
TIME_SHIFT_64ND_16
NOTE_OFF_53
VEL_1
NOTE_ON_61
TIME_SHIFT_64ND_16
NOTE_OFF_77
NOTE_OFF_61
VEL_3
NOTE_ON_78
VEL_2
NOTE_ON_37
TIME_SHIFT_64ND_16
NOTE_OFF_78
NOTE_OFF_37
VEL_2
NOTE_ON_77
VEL_1
NOTE_ON_44
TIME_SHIFT_64ND_15
NOTE_OFF_77
NOTE_OFF_44
VEL_3
NOTE_ON_75
VEL_1
NOTE_ON_53
TIME_SHIFT_64ND_15
NOTE_OFF_75
NOTE_OFF_53
VEL_2
NOTE_ON_73
VEL_1
NOTE_ON_61
TIME_SHIFT_64ND_16
NOTE_OFF_73
NOTE_OFF_61
VEL_3
NOTE_ON_72
VEL_2
NOTE_ON_39
TIME_SHIFT_64ND_16
NOTE_OFF_39
VEL_1
NOTE_ON_44
TIME_SHIFT_64ND_16
NOTE_OFF_72
NOTE_OFF_44
VEL_3
NOTE_ON_82
VEL_1
NOTE_ON_54
TIME_SHIFT_64ND_16
NOTE_OFF_54
VEL_1
NOTE_ON_60
TIME_SHIFT_64ND_16
NOTE_OFF_82
NOTE_OFF_60
VEL_3
NOTE_ON_80
VEL_1
NOTE_ON_39
TIME_SHIFT_64ND_16
NOTE_OFF_39
VEL_1
NOTE_ON_44
TIME_SHIFT_64ND_15
NOTE_OFF_44
VEL_1
NOTE_ON_54
TIME_SHIFT_64ND_15
NOTE_OFF_54
VEL_1
NOTE_ON_60
TIME_SHIFT_64ND_16
NOTE_OFF_80
NOTE_OFF_60
VEL_3
NOTE_ON_78
VEL_2
NOTE_ON_32
TIME_SHIFT_64ND_16
NOTE_OFF_32
VEL_1
NOTE_ON_44
TIME_SHIFT_64ND_15
NOTE_OFF_44
VEL_1
NOTE_ON_54
TIME_SHIFT_64ND_15
NOTE_OFF_54
VEL_1
NOTE_ON_60
TIME_SHIFT_64ND_16
NOTE_OFF_78
NOTE_OFF_60
VEL_3
NOTE_ON_80
VEL_2
NOTE_ON_32
TIME_SHIFT_64ND_16
NOTE_OFF_80
NOTE_OFF_32
VEL_2
NOTE_ON_78
VEL_1
NOTE_ON_44
TIME_SHIFT_64ND_15
NOTE_OFF_78
NOTE_OFF_44
VEL_3
NOTE_ON_77
VEL_1
NOTE_ON_54
TIME_SHIFT_64ND_15
NOTE_OFF_77
NOTE_OFF_54
VEL_2
NOTE_ON_75
VEL_1
NOTE_ON_60
TIME_SHIFT_64ND_16
NOTE_OFF_75
NOTE_OFF_60
VEL_3
NOTE_ON_73
VEL_2
NOTE_ON_37
TIME_SHIFT_64ND_16
NOTE_OFF_37
VEL_1
NOTE_ON_44
TIME_SHIFT_64ND_16
NOTE_OFF_73
NOTE_OFF_44
VEL_3
NOTE_ON_85
VEL_1
NOTE_ON_53
TIME_SHIFT_64ND_16
NOTE_OFF_53
VEL_1
NOTE_ON_61
TIME_SHIFT_64ND_16
NOTE_OFF_85
NOTE_OFF_61
VEL_3
NOTE_ON_80
VEL_2
NOTE_ON_37
TIME_SHIFT_64ND_16
NOTE_OFF_37
VEL_1
NOTE_ON_44
TIME_SHIFT_64ND_15
NOTE_OFF_44
VEL_1
NOTE_ON_53
TIME_SHIFT_64ND_15
NOTE_OFF_53
VEL_1
NOTE_ON_61
TIME_SHIFT_64ND_16
NOTE_OFF_80
NOTE_OFF_61
VEL_3
NOTE_ON_77
VEL_2
NOTE_ON_37
TIME_SHIFT_64ND_16
NOTE_OFF_37
VEL_1
NOTE_ON_44
TIME_SHIFT_64ND_15
NOTE_OFF_44
VEL_1
NOTE_ON_53
TIME_SHIFT_64ND_16
NOTE_OFF_53
VEL_1
NOTE_ON_61
TIME_SHIFT_64ND_16
NOTE_OFF_77
NOTE_OFF_61
VEL_3
NOTE_ON_78
VEL_2
NOTE_ON_34
TIME_SHIFT_64ND_15
NOTE_OFF_78
NOTE_OFF_34
VEL_2
NOTE_ON_77
VEL_1
NOTE_ON_46
TIME_SHIFT_64ND_15
NOTE_OFF_77
NOTE_OFF_46
VEL_3
NOTE_ON_75
VEL_1
NOTE_ON_56
TIME_SHIFT_64ND_15
NOTE_OFF_75
NOTE_OFF_56
VEL_2
NOTE_ON_74
VEL_1
NOTE_ON_62
TIME_SHIFT_64ND_9
NOTE_OFF_74
VEL_2
NOTE_ON_75
TIME_SHIFT_64ND_3
NOTE_OFF_75
VEL_2
NOTE_ON_77
TIME_SHIFT_64ND_3
NOTE_OFF_77
NOTE_OFF_62
VEL_3
NOTE_ON_75
VEL_2
NOTE_ON_39
TIME_SHIFT_64ND_15
NOTE_OFF_75
NOTE_OFF_39
VEL_3
NOTE_ON_74
VEL_1
NOTE_ON_46
TIME_SHIFT_64ND_15
NOTE_OFF_74
NOTE_OFF_46
VEL_3
NOTE_ON_75
VEL_1
NOTE_ON_54
TIME_SHIFT_64ND_15
NOTE_OFF_75
NOTE_OFF_54
VEL_3
NOTE_ON_77
VEL_1
NOTE_ON_63
TIME_SHIFT_64ND_15
NOTE_OFF_77
NOTE_OFF_63
VEL_3
NOTE_ON_78
VEL_2
NOTE_ON_42
TIME_SHIFT_64ND_15
NOTE_OFF_78
NOTE_OFF_42
VEL_3
NOTE_ON_70
VEL_1
NOTE_ON_51
TIME_SHIFT_64ND_15
NOTE_OFF_70
NOTE_OFF_51
VEL_3
NOTE_ON_77
VEL_1
NOTE_ON_58
TIME_SHIFT_64ND_16
NOTE_OFF_77
NOTE_OFF_58
VEL_3
NOTE_ON_75
VEL_1
NOTE_ON_63
TIME_SHIFT_64ND_9
NOTE_OFF_75
NOTE_OFF_63
VEL_2
NOTE_ON_72
TIME_SHIFT_64ND_3
NOTE_OFF_72
VEL_2
NOTE_ON_73
TIME_SHIFT_64ND_3
NOTE_OFF_73
VEL_2
NOTE_ON_73
VEL_2
NOTE_ON_43
TIME_SHIFT_64ND_3
NOTE_OFF_73
VEL_2
NOTE_ON_75
TIME_SHIFT_64ND_3
NOTE_OFF_75
VEL_2
NOTE_ON_73
TIME_SHIFT_64ND_3
NOTE_OFF_73
VEL_2
NOTE_ON_75
TIME_SHIFT_64ND_3
NOTE_OFF_75
VEL_2
NOTE_ON_73
TIME_SHIFT_64ND_3
NOTE_OFF_73
VEL_2
NOTE_ON_75
TIME_SHIFT_64ND_1
NOTE_OFF_43
VEL_1
NOTE_ON_52
TIME_SHIFT_64ND_2
NOTE_OFF_75
VEL_2
NOTE_ON_73
TIME_SHIFT_64ND_3
NOTE_OFF_73
VEL_2
NOTE_ON_75
TIME_SHIFT_64ND_3
NOTE_OFF_75
VEL_2
NOTE_ON_73
TIME_SHIFT_64ND_3
NOTE_OFF_73
VEL_2
NOTE_ON_75
TIME_SHIFT_64ND_3
NOTE_OFF_75
VEL_3
NOTE_ON_73
TIME_SHIFT_64ND_2
NOTE_OFF_52
VEL_1
NOTE_ON_61
TIME_SHIFT_64ND_1
NOTE_OFF_73
VEL_2
NOTE_ON_75
TIME_SHIFT_64ND_3
NOTE_OFF_75
VEL_2
NOTE_ON_73
TIME_SHIFT_64ND_3
NOTE_OFF_73
VEL_2
NOTE_ON_75
TIME_SHIFT_64ND_3
VEL_2
NOTE_ON_73
NOTE_OFF_75
TIME_SHIFT_64ND_3
NOTE_OFF_73
VEL_2
NOTE_ON_75
TIME_SHIFT_64ND_3
NOTE_OFF_61
VEL_2
NOTE_ON_73
VEL_1
NOTE_ON_70
NOTE_OFF_75
TIME_SHIFT_64ND_4
NOTE_OFF_73
VEL_2
NOTE_ON_75
TIME_SHIFT_64ND_4
NOTE_OFF_75
VEL_2
NOTE_ON_72
TIME_SHIFT_64ND_5
NOTE_OFF_72
VEL_2
NOTE_ON_73
TIME_SHIFT_64ND_4
NOTE_OFF_73
NOTE_OFF_70
VEL_3
NOTE_ON_82
VEL_2
NOTE_ON_44
TIME_SHIFT_64ND_16
NOTE_OFF_82
NOTE_OFF_44
VEL_3
NOTE_ON_80
VEL_1
NOTE_ON_51
TIME_SHIFT_64ND_16
NOTE_OFF_80
NOTE_OFF_51
VEL_3
NOTE_ON_78
VEL_1
NOTE_ON_60
TIME_SHIFT_64ND_16
NOTE_OFF_78
NOTE_OFF_60
VEL_3
NOTE_ON_68
VEL_1
NOTE_ON_66
TIME_SHIFT_64ND_16
NOTE_OFF_68
NOTE_OFF_66
VEL_3
NOTE_ON_75
VEL_2
NOTE_ON_32
TIME_SHIFT_64ND_16
NOTE_OFF_32
VEL_1
NOTE_ON_44
TIME_SHIFT_64ND_16
NOTE_OFF_44
VEL_1
NOTE_ON_54
TIME_SHIFT_64ND_16
NOTE_OFF_54
VEL_1
NOTE_ON_60
TIME_SHIFT_64ND_16
NOTE_OFF_75
NOTE_OFF_60
VEL_2
NOTE_ON_73
VEL_1
NOTE_ON_37
TIME_SHIFT_64ND_16
NOTE_OFF_37
VEL_1
NOTE_ON_44
TIME_SHIFT_64ND_16
NOTE_OFF_73
NOTE_OFF_44
VEL_1
NOTE_ON_53
TIME_SHIFT_64ND_16
NOTE_OFF_53
VEL_1
NOTE_ON_61
TIME_SHIFT_64ND_17
NOTE_OFF_61
VEL_3
NOTE_ON_72
VEL_2
NOTE_ON_32
TIME_SHIFT_64ND_16
NOTE_OFF_32
VEL_1
NOTE_ON_44
TIME_SHIFT_64ND_15
NOTE_OFF_44
VEL_1
NOTE_ON_51
TIME_SHIFT_64ND_16
NOTE_OFF_51
VEL_1
NOTE_ON_60
TIME_SHIFT_64ND_16
NOTE_OFF_72
NOTE_OFF_60
VEL_3
NOTE_ON_73
VEL_2
NOTE_ON_32
TIME_SHIFT_64ND_16
NOTE_OFF_73
NOTE_OFF_32
VEL_3
NOTE_ON_72
VEL_1
NOTE_ON_44
TIME_SHIFT_64ND_15
NOTE_OFF_72
NOTE_OFF_44
VEL_3
NOTE_ON_70
VEL_1
NOTE_ON_51
TIME_SHIFT_64ND_15
NOTE_OFF_70
NOTE_OFF_51
VEL_3
NOTE_ON_68
VEL_1
NOTE_ON_60
TIME_SHIFT_64ND_16
NOTE_OFF_68
NOTE_OFF_60
VEL_3
NOTE_ON_67
VEL_2
NOTE_ON_34
TIME_SHIFT_64ND_16
NOTE_OFF_34
VEL_1
NOTE_ON_46
TIME_SHIFT_64ND_16
NOTE_OFF_67
NOTE_OFF_46
VEL_3
NOTE_ON_77
VEL_1
NOTE_ON_51
TIME_SHIFT_64ND_16
NOTE_OFF_51
VEL_1
NOTE_ON_61
TIME_SHIFT_64ND_16
NOTE_OFF_77
NOTE_OFF_61
VEL_3
NOTE_ON_75
VEL_2
NOTE_ON_34
TIME_SHIFT_64ND_16
NOTE_OFF_34
VEL_1
NOTE_ON_46
TIME_SHIFT_64ND_15
NOTE_OFF_46
VEL_1
NOTE_ON_51
TIME_SHIFT_64ND_15
NOTE_OFF_51
VEL_1
NOTE_ON_61
TIME_SHIFT_64ND_16
NOTE_OFF_75
NOTE_OFF_61
VEL_3
NOTE_ON_73
VEL_2
NOTE_ON_34
TIME_SHIFT_64ND_16
NOTE_OFF_34
VEL_1
NOTE_ON_46
TIME_SHIFT_64ND_15
NOTE_OFF_46
VEL_1
NOTE_ON_52
TIME_SHIFT_64ND_15
NOTE_OFF_52
VEL_2
NOTE_ON_61
TIME_SHIFT_64ND_16
NOTE_OFF_73
NOTE_OFF_61
VEL_3
NOTE_ON_75
VEL_2
NOTE_ON_34
TIME_SHIFT_64ND_16
NOTE_OFF_75
NOTE_OFF_34
VEL_3
NOTE_ON_73
VEL_2
NOTE_ON_46
TIME_SHIFT_64ND_15
NOTE_OFF_73
NOTE_OFF_46
VEL_3
NOTE_ON_72
VEL_2
NOTE_ON_52
TIME_SHIFT_64ND_15
NOTE_OFF_72
NOTE_OFF_52
VEL_3
NOTE_ON_70
VEL_2
NOTE_ON_61
TIME_SHIFT_64ND_16
NOTE_OFF_70
NOTE_OFF_61
VEL_3
NOTE_ON_69
VEL_2
NOTE_ON_36
TIME_SHIFT_64ND_16
NOTE_OFF_36
VEL_2
NOTE_ON_48
TIME_SHIFT_64ND_15
NOTE_OFF_69
NOTE_OFF_48
VEL_3
NOTE_ON_78
VEL_1
NOTE_ON_54
TIME_SHIFT_64ND_16
NOTE_OFF_54
VEL_1
NOTE_ON_63
TIME_SHIFT_64ND_16
NOTE_OFF_78
NOTE_OFF_63
VEL_3
NOTE_ON_77
VEL_2
NOTE_ON_36
TIME_SHIFT_64ND_16
NOTE_OFF_36
VEL_1
NOTE_ON_48
TIME_SHIFT_64ND_15
NOTE_OFF_48
VEL_2
NOTE_ON_51
TIME_SHIFT_64ND_15
NOTE_OFF_51
VEL_1
NOTE_ON_63
TIME_SHIFT_64ND_16
NOTE_OFF_77
NOTE_OFF_63
VEL_3
NOTE_ON_77
VEL_2
NOTE_ON_37
TIME_SHIFT_64ND_16
NOTE_OFF_37
VEL_1
NOTE_ON_49
TIME_SHIFT_64ND_15
NOTE_OFF_49
VEL_2
NOTE_ON_58
TIME_SHIFT_64ND_15
NOTE_OFF_58
VEL_2
NOTE_ON_65
TIME_SHIFT_64ND_16
NOTE_OFF_77
NOTE_OFF_65
VEL_3
NOTE_ON_78
VEL_2
NOTE_ON_37
TIME_SHIFT_64ND_15
NOTE_OFF_78
NOTE_OFF_37
VEL_3
NOTE_ON_77
VEL_2
NOTE_ON_49
TIME_SHIFT_64ND_15
NOTE_OFF_77
NOTE_OFF_49
VEL_3
NOTE_ON_75
VEL_2
NOTE_ON_58
TIME_SHIFT_64ND_15
NOTE_OFF_75
NOTE_OFF_58
VEL_3
NOTE_ON_73
VEL_2
NOTE_ON_65
TIME_SHIFT_64ND_15
NOTE_OFF_73
NOTE_OFF_65
VEL_3
NOTE_ON_73
VEL_2
NOTE_ON_39
TIME_SHIFT_64ND_16
NOTE_OFF_39
VEL_2
NOTE_ON_51
TIME_SHIFT_64ND_15
NOTE_OFF_73
NOTE_OFF_51
VEL_3
NOTE_ON_72
VEL_2
NOTE_ON_58
TIME_SHIFT_64ND_15
NOTE_OFF_58
VEL_2
NOTE_ON_66
TIME_SHIFT_64ND_15
NOTE_OFF_72
NOTE_OFF_66
VEL_2
NOTE_ON_41
TIME_SHIFT_64ND_15
NOTE_OFF_41
VEL_3
NOTE_ON_72
VEL_2
NOTE_ON_53
TIME_SHIFT_64ND_13
NOTE_OFF_72
VEL_3
NOTE_ON_75
TIME_SHIFT_64ND_2
NOTE_OFF_75
NOTE_OFF_53
VEL_3
NOTE_ON_73
VEL_2
NOTE_ON_58
TIME_SHIFT_64ND_15
NOTE_OFF_58
VEL_2
NOTE_ON_65
TIME_SHIFT_64ND_8
NOTE_OFF_73
VEL_3
NOTE_ON_72
TIME_SHIFT_64ND_7
NOTE_OFF_72
NOTE_OFF_65
VEL_3
NOTE_ON_72
VEL_2
NOTE_ON_42
TIME_SHIFT_64ND_16
NOTE_OFF_42
VEL_2
NOTE_ON_51
TIME_SHIFT_64ND_15
NOTE_OFF_72
NOTE_OFF_51
VEL_3
NOTE_ON_70
VEL_2
NOTE_ON_58
TIME_SHIFT_64ND_16
NOTE_OFF_58
VEL_2
NOTE_ON_63
TIME_SHIFT_64ND_15
NOTE_OFF_70
NOTE_OFF_63
VEL_2
NOTE_ON_42
TIME_SHIFT_64ND_16
NOTE_OFF_42
VEL_3
NOTE_ON_72
VEL_2
NOTE_ON_54
TIME_SHIFT_64ND_14
NOTE_OFF_72
VEL_3
NOTE_ON_75
TIME_SHIFT_64ND_2
NOTE_OFF_75
NOTE_OFF_54
VEL_3
NOTE_ON_73
VEL_2
NOTE_ON_58
TIME_SHIFT_64ND_16
NOTE_OFF_58
VEL_2
NOTE_ON_64
TIME_SHIFT_64ND_8
NOTE_OFF_73
VEL_3
NOTE_ON_72
TIME_SHIFT_64ND_7
NOTE_OFF_72
NOTE_OFF_64
VEL_3
NOTE_ON_72
VEL_2
NOTE_ON_41
TIME_SHIFT_64ND_16
NOTE_OFF_41
VEL_2
NOTE_ON_48
TIME_SHIFT_64ND_16
NOTE_OFF_72
NOTE_OFF_48
VEL_3
NOTE_ON_77
VEL_2
NOTE_ON_57
TIME_SHIFT_64ND_16
NOTE_OFF_57
VEL_1
NOTE_ON_65
TIME_SHIFT_64ND_16
NOTE_OFF_77
NOTE_OFF_65
VEL_3
NOTE_ON_78
VEL_2
NOTE_ON_39
TIME_SHIFT_64ND_16
NOTE_OFF_39
VEL_2
NOTE_ON_51
TIME_SHIFT_64ND_16
NOTE_OFF_78
NOTE_OFF_51
VEL_2
NOTE_ON_68
VEL_1
NOTE_ON_56
TIME_SHIFT_64ND_18
NOTE_OFF_56
VEL_1
NOTE_ON_60
VEL_1
NOTE_ON_66
TIME_SHIFT_64ND_18
NOTE_OFF_68
NOTE_OFF_60
NOTE_OFF_66
VEL_3
NOTE_ON_77
VEL_2
NOTE_ON_37
TIME_SHIFT_64ND_17
NOTE_OFF_37
VEL_1
NOTE_ON_44
TIME_SHIFT_64ND_15
NOTE_OFF_44
VEL_1
NOTE_ON_53
TIME_SHIFT_64ND_16
NOTE_OFF_53
VEL_1
NOTE_ON_61
TIME_SHIFT_64ND_16
NOTE_OFF_77
NOTE_OFF_61
VEL_3
NOTE_ON_78
VEL_2
NOTE_ON_37
TIME_SHIFT_64ND_16
NOTE_OFF_78
NOTE_OFF_37
VEL_2
NOTE_ON_77
VEL_1
NOTE_ON_44
TIME_SHIFT_64ND_15
NOTE_OFF_77
NOTE_OFF_44
VEL_3
NOTE_ON_75
VEL_1
NOTE_ON_53
TIME_SHIFT_64ND_15
NOTE_OFF_75
NOTE_OFF_53
VEL_2
NOTE_ON_73
VEL_1
NOTE_ON_61
TIME_SHIFT_64ND_16
NOTE_OFF_73
NOTE_OFF_61
VEL_3
NOTE_ON_72
VEL_2
NOTE_ON_39
TIME_SHIFT_64ND_16
NOTE_OFF_39
VEL_1
NOTE_ON_44
TIME_SHIFT_64ND_16
NOTE_OFF_72
NOTE_OFF_44
VEL_3
NOTE_ON_82
VEL_1
NOTE_ON_54
TIME_SHIFT_64ND_16
NOTE_OFF_54
VEL_1
NOTE_ON_60
TIME_SHIFT_64ND_16
NOTE_OFF_82
NOTE_OFF_60
VEL_3
NOTE_ON_80
VEL_1
NOTE_ON_39
TIME_SHIFT_64ND_16
NOTE_OFF_39
VEL_1
NOTE_ON_44
TIME_SHIFT_64ND_15
NOTE_OFF_44
VEL_1
NOTE_ON_54
TIME_SHIFT_64ND_15
NOTE_OFF_54
VEL_1
NOTE_ON_60
TIME_SHIFT_64ND_16
NOTE_OFF_80
NOTE_OFF_60
VEL_3
NOTE_ON_78
VEL_2
NOTE_ON_32
TIME_SHIFT_64ND_16
NOTE_OFF_32
VEL_1
NOTE_ON_44
TIME_SHIFT_64ND_15
NOTE_OFF_44
VEL_1
NOTE_ON_54
TIME_SHIFT_64ND_15
NOTE_OFF_54
VEL_1
NOTE_ON_60
TIME_SHIFT_64ND_16
NOTE_OFF_78
NOTE_OFF_60
VEL_3
NOTE_ON_80
VEL_2
NOTE_ON_32
TIME_SHIFT_64ND_16
NOTE_OFF_80
NOTE_OFF_32
VEL_2
NOTE_ON_78
VEL_1
NOTE_ON_44
TIME_SHIFT_64ND_15
NOTE_OFF_78
NOTE_OFF_44
VEL_3
NOTE_ON_77
VEL_1
NOTE_ON_54
TIME_SHIFT_64ND_15
NOTE_OFF_77
NOTE_OFF_54
VEL_2
NOTE_ON_75
VEL_1
NOTE_ON_60
TIME_SHIFT_64ND_16
NOTE_OFF_75
NOTE_OFF_60
VEL_3
NOTE_ON_73
VEL_2
NOTE_ON_37
TIME_SHIFT_64ND_16
NOTE_OFF_37
VEL_1
NOTE_ON_44
TIME_SHIFT_64ND_16
NOTE_OFF_73
NOTE_OFF_44
VEL_3
NOTE_ON_85
VEL_1
NOTE_ON_53
TIME_SHIFT_64ND_16
NOTE_OFF_53
VEL_1
NOTE_ON_61
TIME_SHIFT_64ND_16
NOTE_OFF_85
NOTE_OFF_61
VEL_3
NOTE_ON_80
VEL_2
NOTE_ON_37
TIME_SHIFT_64ND_16
NOTE_OFF_37
VEL_1
NOTE_ON_44
TIME_SHIFT_64ND_15
NOTE_OFF_44
VEL_1
NOTE_ON_53
TIME_SHIFT_64ND_15
NOTE_OFF_53
VEL_1
NOTE_ON_61
TIME_SHIFT_64ND_16
NOTE_OFF_80
NOTE_OFF_61
VEL_3
NOTE_ON_77
VEL_2
NOTE_ON_37
TIME_SHIFT_64ND_16
NOTE_OFF_37
VEL_1
NOTE_ON_44
TIME_SHIFT_64ND_15
NOTE_OFF_44
VEL_1
NOTE_ON_53
TIME_SHIFT_64ND_16
NOTE_OFF_53
VEL_1
NOTE_ON_61
TIME_SHIFT_64ND_16
NOTE_OFF_77
NOTE_OFF_61
VEL_3
NOTE_ON_78
VEL_2
NOTE_ON_34
TIME_SHIFT_64ND_15
NOTE_OFF_78
NOTE_OFF_34
VEL_2
NOTE_ON_77
VEL_1
NOTE_ON_46
TIME_SHIFT_64ND_15
NOTE_OFF_77
NOTE_OFF_46
VEL_3
NOTE_ON_75
VEL_1
NOTE_ON_56
TIME_SHIFT_64ND_15
NOTE_OFF_75
NOTE_OFF_56
VEL_2
NOTE_ON_74
VEL_1
NOTE_ON_62
TIME_SHIFT_64ND_9
NOTE_OFF_74
VEL_2
NOTE_ON_75
TIME_SHIFT_64ND_3
NOTE_OFF_75
VEL_2
NOTE_ON_77
TIME_SHIFT_64ND_3
NOTE_OFF_77
NOTE_OFF_62
VEL_3
NOTE_ON_75
VEL_2
NOTE_ON_39
TIME_SHIFT_64ND_15
NOTE_OFF_75
NOTE_OFF_39
VEL_3
NOTE_ON_74
VEL_1
NOTE_ON_46
TIME_SHIFT_64ND_15
NOTE_OFF_74
NOTE_OFF_46
VEL_3
NOTE_ON_75
VEL_1
NOTE_ON_54
TIME_SHIFT_64ND_15
NOTE_OFF_75
NOTE_OFF_54
VEL_3
NOTE_ON_77
VEL_1
NOTE_ON_63
TIME_SHIFT_64ND_15
NOTE_OFF_77
NOTE_OFF_63
VEL_3
NOTE_ON_78
VEL_2
NOTE_ON_42
TIME_SHIFT_64ND_15
NOTE_OFF_78
NOTE_OFF_42
VEL_3
NOTE_ON_70
VEL_1
NOTE_ON_51
TIME_SHIFT_64ND_15
NOTE_OFF_70
NOTE_OFF_51
VEL_3
NOTE_ON_77
VEL_1
NOTE_ON_58
TIME_SHIFT_64ND_16
NOTE_OFF_77
NOTE_OFF_58
VEL_3
NOTE_ON_75
VEL_1
NOTE_ON_63
TIME_SHIFT_64ND_9
NOTE_OFF_75
NOTE_OFF_63
VEL_2
NOTE_ON_72
TIME_SHIFT_64ND_3
NOTE_OFF_72
VEL_2
NOTE_ON_73
TIME_SHIFT_64ND_3
NOTE_OFF_73
VEL_2
NOTE_ON_73
VEL_2
NOTE_ON_43
TIME_SHIFT_64ND_3
NOTE_OFF_73
VEL_2
NOTE_ON_75
TIME_SHIFT_64ND_3
NOTE_OFF_75
VEL_2
NOTE_ON_73
TIME_SHIFT_64ND_3
NOTE_OFF_73
VEL_2
NOTE_ON_75
TIME_SHIFT_64ND_3
NOTE_OFF_75
VEL_2
NOTE_ON_73
TIME_SHIFT_64ND_3
NOTE_OFF_73
VEL_2
NOTE_ON_75
TIME_SHIFT_64ND_1
NOTE_OFF_43
VEL_1
NOTE_ON_52
TIME_SHIFT_64ND_2
NOTE_OFF_75
VEL_2
NOTE_ON_73
TIME_SHIFT_64ND_3
NOTE_OFF_73
VEL_2
NOTE_ON_75
TIME_SHIFT_64ND_3
NOTE_OFF_75
VEL_2
NOTE_ON_73
TIME_SHIFT_64ND_3
NOTE_OFF_73
VEL_2
NOTE_ON_75
TIME_SHIFT_64ND_3
NOTE_OFF_75
VEL_3
NOTE_ON_73
TIME_SHIFT_64ND_2
NOTE_OFF_52
VEL_1
NOTE_ON_61
TIME_SHIFT_64ND_1
NOTE_OFF_73
VEL_2
NOTE_ON_75
TIME_SHIFT_64ND_3
NOTE_OFF_75
VEL_2
NOTE_ON_73
TIME_SHIFT_64ND_3
NOTE_OFF_73
VEL_2
NOTE_ON_75
TIME_SHIFT_64ND_3
VEL_2
NOTE_ON_73
NOTE_OFF_75
TIME_SHIFT_64ND_3
NOTE_OFF_73
VEL_2
NOTE_ON_75
TIME_SHIFT_64ND_3
NOTE_OFF_61
VEL_2
NOTE_ON_73
VEL_1
NOTE_ON_70
NOTE_OFF_75
TIME_SHIFT_64ND_4
NOTE_OFF_73
VEL_2
NOTE_ON_75
TIME_SHIFT_64ND_4
NOTE_OFF_75
VEL_2
NOTE_ON_72
TIME_SHIFT_64ND_5
NOTE_OFF_72
VEL_2
NOTE_ON_73
TIME_SHIFT_64ND_4
NOTE_OFF_73
NOTE_OFF_70
VEL_3
NOTE_ON_82
VEL_2
NOTE_ON_44
TIME_SHIFT_64ND_16
NOTE_OFF_82
NOTE_OFF_44
VEL_3
NOTE_ON_80
VEL_1
NOTE_ON_51
TIME_SHIFT_64ND_16
NOTE_OFF_80
NOTE_OFF_51
VEL_3
NOTE_ON_78
VEL_1
NOTE_ON_60
TIME_SHIFT_64ND_16
NOTE_OFF_78
NOTE_OFF_60
VEL_3
NOTE_ON_68
VEL_1
NOTE_ON_66
TIME_SHIFT_64ND_16
NOTE_OFF_68
NOTE_OFF_66
VEL_3
NOTE_ON_75
VEL_2
NOTE_ON_32
TIME_SHIFT_64ND_16
NOTE_OFF_32
VEL_1
NOTE_ON_44
TIME_SHIFT_64ND_16
NOTE_OFF_44
VEL_1
NOTE_ON_54
TIME_SHIFT_64ND_17
NOTE_OFF_54
VEL_1
NOTE_ON_60
TIME_SHIFT_64ND_17
NOTE_OFF_75
NOTE_OFF_60
VEL_2
NOTE_ON_73
VEL_1
NOTE_ON_61
VEL_1
NOTE_ON_53
VEL_1
NOTE_ON_49
TIME_SHIFT_64ND_34
NOTE_OFF_73
NOTE_OFF_61
NOTE_OFF_53
NOTE_OFF_49
TIME_SHIFT_64ND_34
VEL_2
NOTE_ON_58
VEL_2
NOTE_ON_53
VEL_2
NOTE_ON_46
VEL_1
NOTE_ON_41
VEL_1
NOTE_ON_34
TIME_SHIFT_64ND_33
NOTE_OFF_58
NOTE_OFF_53
NOTE_OFF_46
NOTE_OFF_41
NOTE_OFF_34
VEL_2
NOTE_ON_58
VEL_2
NOTE_ON_54
VEL_1
NOTE_ON_49
VEL_1
NOTE_ON_42
VEL_1
NOTE_ON_37
TIME_SHIFT_64ND_26
NOTE_OFF_58
VEL_2
NOTE_ON_58
TIME_SHIFT_64ND_8
NOTE_OFF_58
TIME_SHIFT_64ND_1
NOTE_OFF_54
NOTE_OFF_49
NOTE_OFF_42
NOTE_OFF_37
VEL_2
NOTE_ON_53
VEL_2
NOTE_ON_58
VEL_2
NOTE_ON_46
VEL_1
NOTE_ON_41
VEL_1
NOTE_ON_34
TIME_SHIFT_64ND_34
NOTE_OFF_53
NOTE_OFF_46
NOTE_OFF_41
NOTE_OFF_34
VEL_1
NOTE_ON_54
VEL_1
NOTE_ON_49
VEL_1
NOTE_ON_42
VEL_1
NOTE_ON_37
TIME_SHIFT_64ND_35
NOTE_OFF_54
NOTE_OFF_58
NOTE_OFF_49
NOTE_OFF_42
NOTE_OFF_37
VEL_2
NOTE_ON_58
VEL_2
NOTE_ON_53
VEL_2
NOTE_ON_46
VEL_1
NOTE_ON_41
VEL_1
NOTE_ON_34
TIME_SHIFT_64ND_33
NOTE_OFF_58
NOTE_OFF_53
NOTE_OFF_46
NOTE_OFF_41
NOTE_OFF_34
VEL_2
NOTE_ON_58
VEL_2
NOTE_ON_54
VEL_1
NOTE_ON_49
VEL_1
NOTE_ON_42
VEL_1
NOTE_ON_37
TIME_SHIFT_64ND_26
NOTE_OFF_58
VEL_2
NOTE_ON_58
TIME_SHIFT_64ND_8
NOTE_OFF_58
TIME_SHIFT_64ND_1
NOTE_OFF_54
NOTE_OFF_49
NOTE_OFF_42
NOTE_OFF_37
VEL_2
NOTE_ON_53
VEL_2
NOTE_ON_58
VEL_2
NOTE_ON_46
VEL_1
NOTE_ON_41
VEL_1
NOTE_ON_34
TIME_SHIFT_64ND_34
NOTE_OFF_53
NOTE_OFF_46
NOTE_OFF_41
NOTE_OFF_34
VEL_1
NOTE_ON_54
VEL_1
NOTE_ON_49
VEL_1
NOTE_ON_42
VEL_1
NOTE_ON_37
TIME_SHIFT_64ND_34
NOTE_OFF_54
NOTE_OFF_58
NOTE_OFF_49
NOTE_OFF_42
NOTE_OFF_37
VEL_2
NOTE_ON_58
VEL_2
NOTE_ON_53
VEL_2
NOTE_ON_46
VEL_1
NOTE_ON_41
VEL_1
NOTE_ON_34
TIME_SHIFT_64ND_33
NOTE_OFF_58
NOTE_OFF_53
NOTE_OFF_46
NOTE_OFF_41
NOTE_OFF_34
VEL_2
NOTE_ON_58
VEL_2
NOTE_ON_54
VEL_1
NOTE_ON_49
VEL_1
NOTE_ON_42
VEL_1
NOTE_ON_37
TIME_SHIFT_64ND_26
NOTE_OFF_58
VEL_2
NOTE_ON_58
TIME_SHIFT_64ND_8
NOTE_OFF_58
TIME_SHIFT_64ND_1
NOTE_OFF_54
NOTE_OFF_49
NOTE_OFF_42
NOTE_OFF_37
VEL_2
NOTE_ON_58
VEL_2
NOTE_ON_53
VEL_2
NOTE_ON_46
VEL_1
NOTE_ON_41
VEL_1
NOTE_ON_34
TIME_SHIFT_64ND_34
NOTE_OFF_58
NOTE_OFF_53
NOTE_OFF_46
NOTE_OFF_41
NOTE_OFF_34
VEL_3
NOTE_ON_61
VEL_2
NOTE_ON_54
VEL_1
NOTE_ON_49
VEL_1
NOTE_ON_42
VEL_1
NOTE_ON_37
TIME_SHIFT_64ND_25
NOTE_OFF_61
VEL_2
NOTE_ON_60
TIME_SHIFT_64ND_7
NOTE_OFF_60
TIME_SHIFT_64ND_1
NOTE_OFF_54
NOTE_OFF_49
NOTE_OFF_42
NOTE_OFF_37
VEL_3
NOTE_ON_60
VEL_2
NOTE_ON_53
VEL_2
NOTE_ON_46
VEL_1
NOTE_ON_41
VEL_1
NOTE_ON_34
TIME_SHIFT_64ND_25
NOTE_OFF_60
VEL_2
NOTE_ON_58
TIME_SHIFT_64ND_7
NOTE_OFF_58
TIME_SHIFT_64ND_1
NOTE_OFF_53
NOTE_OFF_46
NOTE_OFF_41
NOTE_OFF_34
VEL_2
NOTE_ON_58
VEL_2
NOTE_ON_54
VEL_1
NOTE_ON_49
VEL_1
NOTE_ON_42
VEL_1
NOTE_ON_37
TIME_SHIFT_64ND_25
NOTE_OFF_58
VEL_2
NOTE_ON_58
TIME_SHIFT_64ND_8
NOTE_OFF_58
TIME_SHIFT_64ND_1
NOTE_OFF_54
NOTE_OFF_49
NOTE_OFF_42
NOTE_OFF_37
VEL_2
NOTE_ON_53
VEL_2
NOTE_ON_58
VEL_2
NOTE_ON_46
VEL_1
NOTE_ON_41
VEL_1
NOTE_ON_34
TIME_SHIFT_64ND_34
NOTE_OFF_53
NOTE_OFF_46
NOTE_OFF_41
NOTE_OFF_34
VEL_1
NOTE_ON_54
VEL_1
NOTE_ON_49
VEL_1
NOTE_ON_42
VEL_1
NOTE_ON_37
TIME_SHIFT_64ND_34
NOTE_OFF_54
NOTE_OFF_58
NOTE_OFF_49
NOTE_OFF_42
NOTE_OFF_37
VEL_3
NOTE_ON_61
VEL_2
NOTE_ON_53
VEL_2
NOTE_ON_58
VEL_2
NOTE_ON_46
VEL_2
NOTE_ON_41
VEL_2
NOTE_ON_34
TIME_SHIFT_64ND_33
NOTE_OFF_61
NOTE_OFF_53
NOTE_OFF_58
NOTE_OFF_46
NOTE_OFF_41
NOTE_OFF_34
VEL_3
NOTE_ON_61
VEL_2
NOTE_ON_54
VEL_2
NOTE_ON_58
VEL_2
NOTE_ON_49
VEL_2
NOTE_ON_42
VEL_1
NOTE_ON_37
TIME_SHIFT_64ND_26
NOTE_OFF_61
VEL_2
NOTE_ON_61
TIME_SHIFT_64ND_8
NOTE_OFF_61
TIME_SHIFT_64ND_1
NOTE_OFF_54
NOTE_OFF_58
NOTE_OFF_49
NOTE_OFF_42
NOTE_OFF_37
VEL_3
NOTE_ON_61
VEL_2
NOTE_ON_53
VEL_2
NOTE_ON_58
VEL_2
NOTE_ON_46
VEL_2
NOTE_ON_41
VEL_2
NOTE_ON_34
TIME_SHIFT_64ND_33
NOTE_OFF_61
NOTE_OFF_53
NOTE_OFF_58
NOTE_OFF_46
NOTE_OFF_41
NOTE_OFF_34
VEL_3
NOTE_ON_61
VEL_3
NOTE_ON_65
VEL_3
NOTE_ON_54
VEL_2
NOTE_ON_49
VEL_2
NOTE_ON_42
VEL_1
NOTE_ON_37
TIME_SHIFT_64ND_26
NOTE_OFF_61
NOTE_OFF_65
VEL_2
NOTE_ON_60
VEL_3
NOTE_ON_63
TIME_SHIFT_64ND_4
NOTE_OFF_60
NOTE_OFF_63
VEL_3
NOTE_ON_65
TIME_SHIFT_64ND_4
NOTE_OFF_65
NOTE_OFF_54
NOTE_OFF_49
NOTE_OFF_42
NOTE_OFF_37
VEL_3
NOTE_ON_60
VEL_3
NOTE_ON_63
VEL_3
NOTE_ON_53
VEL_2
NOTE_ON_46
VEL_2
NOTE_ON_41
VEL_2
NOTE_ON_34
TIME_SHIFT_64ND_25
NOTE_OFF_60
NOTE_OFF_63
VEL_2
NOTE_ON_58
VEL_3
NOTE_ON_61
TIME_SHIFT_64ND_7
NOTE_OFF_58
NOTE_OFF_61
TIME_SHIFT_64ND_1
NOTE_OFF_53
NOTE_OFF_46
NOTE_OFF_41
NOTE_OFF_34
VEL_3
NOTE_ON_58
VEL_3
NOTE_ON_61
VEL_2
NOTE_ON_54
VEL_2
NOTE_ON_49
VEL_1
NOTE_ON_42
VEL_1
NOTE_ON_37
TIME_SHIFT_64ND_25
NOTE_OFF_58
NOTE_OFF_61
VEL_2
NOTE_ON_58
VEL_2
NOTE_ON_61
TIME_SHIFT_64ND_8
NOTE_OFF_58
NOTE_OFF_61
TIME_SHIFT_64ND_1
NOTE_OFF_54
NOTE_OFF_49
NOTE_OFF_42
NOTE_OFF_37
VEL_2
NOTE_ON_53
VEL_2
NOTE_ON_58
VEL_3
NOTE_ON_61
VEL_2
NOTE_ON_46
VEL_2
NOTE_ON_41
VEL_2
NOTE_ON_34
TIME_SHIFT_64ND_35
NOTE_OFF_53
NOTE_OFF_46
NOTE_OFF_41
NOTE_OFF_34
VEL_2
NOTE_ON_54
VEL_2
NOTE_ON_49
VEL_1
NOTE_ON_42
VEL_1
NOTE_ON_37
TIME_SHIFT_64ND_35
NOTE_OFF_54
NOTE_OFF_58
NOTE_OFF_61
NOTE_OFF_49
NOTE_OFF_42
NOTE_OFF_37
VEL_4
NOTE_ON_70
VEL_3
NOTE_ON_58
VEL_3
NOTE_ON_61
VEL_3
NOTE_ON_46
VEL_2
NOTE_ON_41
VEL_2
NOTE_ON_34
TIME_SHIFT_64ND_15
NOTE_OFF_70
VEL_4
NOTE_ON_68
TIME_SHIFT_64ND_11
NOTE_OFF_68
NOTE_OFF_58
NOTE_OFF_61
VEL_3
NOTE_ON_68
TIME_SHIFT_64ND_4
NOTE_OFF_68
NOTE_OFF_46
NOTE_OFF_41
NOTE_OFF_34
VEL_3
NOTE_ON_66
VEL_3
NOTE_ON_58
VEL_3
NOTE_ON_61
VEL_2
NOTE_ON_49
VEL_2
NOTE_ON_42
VEL_2
NOTE_ON_37
TIME_SHIFT_64ND_24
NOTE_OFF_66
VEL_3
NOTE_ON_65
TIME_SHIFT_64ND_7
NOTE_OFF_65
TIME_SHIFT_64ND_1
NOTE_OFF_58
NOTE_OFF_61
NOTE_OFF_49
NOTE_OFF_42
NOTE_OFF_37
VEL_3
NOTE_ON_61
VEL_3
NOTE_ON_65
VEL_3
NOTE_ON_58
VEL_2
NOTE_ON_46
VEL_2
NOTE_ON_41
VEL_2
NOTE_ON_34
TIME_SHIFT_64ND_35
NOTE_OFF_61
NOTE_OFF_65
NOTE_OFF_58
NOTE_OFF_46
NOTE_OFF_41
NOTE_OFF_34
VEL_3
NOTE_ON_61
VEL_2
NOTE_ON_58
VEL_2
NOTE_ON_49
VEL_1
NOTE_ON_42
VEL_1
NOTE_ON_37
TIME_SHIFT_64ND_35
NOTE_OFF_61
NOTE_OFF_58
NOTE_OFF_49
NOTE_OFF_42
NOTE_OFF_37
VEL_4
NOTE_ON_70
VEL_3
NOTE_ON_58
VEL_3
NOTE_ON_61
VEL_3
NOTE_ON_46
VEL_2
NOTE_ON_41
VEL_2
NOTE_ON_34
TIME_SHIFT_64ND_15
NOTE_OFF_70
VEL_4
NOTE_ON_68
TIME_SHIFT_64ND_10
NOTE_OFF_68
NOTE_OFF_58
NOTE_OFF_61
VEL_3
NOTE_ON_68
TIME_SHIFT_64ND_4
NOTE_OFF_68
NOTE_OFF_46
NOTE_OFF_41
NOTE_OFF_34
VEL_3
NOTE_ON_66
VEL_3
NOTE_ON_58
VEL_3
NOTE_ON_61
VEL_2
NOTE_ON_49
VEL_2
NOTE_ON_42
VEL_2
NOTE_ON_37
TIME_SHIFT_64ND_25
NOTE_OFF_66
VEL_3
NOTE_ON_65
TIME_SHIFT_64ND_7
NOTE_OFF_65
TIME_SHIFT_64ND_1
NOTE_OFF_58
NOTE_OFF_61
NOTE_OFF_49
NOTE_OFF_42
NOTE_OFF_37
VEL_3
NOTE_ON_61
VEL_3
NOTE_ON_65
VEL_3
NOTE_ON_58
VEL_2
NOTE_ON_46
VEL_2
NOTE_ON_41
VEL_2
NOTE_ON_34
TIME_SHIFT_64ND_35
NOTE_OFF_61
NOTE_OFF_65
NOTE_OFF_58
NOTE_OFF_46
NOTE_OFF_41
NOTE_OFF_34
VEL_3
NOTE_ON_61
VEL_2
NOTE_ON_58
VEL_2
NOTE_ON_49
VEL_1
NOTE_ON_42
VEL_1
NOTE_ON_37
TIME_SHIFT_64ND_35
NOTE_OFF_61
NOTE_OFF_58
NOTE_OFF_49
NOTE_OFF_42
NOTE_OFF_37
VEL_2
NOTE_ON_58
VEL_2
NOTE_ON_53
VEL_2
NOTE_ON_46
VEL_2
NOTE_ON_41
VEL_2
NOTE_ON_34
TIME_SHIFT_64ND_33
NOTE_OFF_58
NOTE_OFF_53
NOTE_OFF_46
NOTE_OFF_41
NOTE_OFF_34
VEL_2
NOTE_ON_58
VEL_2
NOTE_ON_54
VEL_2
NOTE_ON_49
VEL_2
NOTE_ON_42
VEL_1
NOTE_ON_37
TIME_SHIFT_64ND_26
NOTE_OFF_58
VEL_2
NOTE_ON_58
TIME_SHIFT_64ND_8
NOTE_OFF_58
TIME_SHIFT_64ND_1
NOTE_OFF_54
NOTE_OFF_49
NOTE_OFF_42
NOTE_OFF_37
VEL_2
NOTE_ON_58
VEL_2
NOTE_ON_53
VEL_2
NOTE_ON_46
VEL_2
NOTE_ON_41
VEL_2
NOTE_ON_34
TIME_SHIFT_64ND_34
NOTE_OFF_58
NOTE_OFF_53
NOTE_OFF_46
NOTE_OFF_41
NOTE_OFF_34
VEL_3
NOTE_ON_61
VEL_2
NOTE_ON_54
VEL_1
NOTE_ON_49
VEL_1
NOTE_ON_42
VEL_1
NOTE_ON_37
TIME_SHIFT_64ND_25
NOTE_OFF_61
VEL_3
NOTE_ON_60
TIME_SHIFT_64ND_4
NOTE_OFF_60
VEL_2
NOTE_ON_61
TIME_SHIFT_64ND_4
NOTE_OFF_61
NOTE_OFF_54
NOTE_OFF_49
NOTE_OFF_42
NOTE_OFF_37
VEL_3
NOTE_ON_60
VEL_2
NOTE_ON_53
VEL_2
NOTE_ON_46
VEL_2
NOTE_ON_41
VEL_2
NOTE_ON_34
TIME_SHIFT_64ND_25
NOTE_OFF_60
VEL_2
NOTE_ON_58
TIME_SHIFT_64ND_7
NOTE_OFF_58
TIME_SHIFT_64ND_1
NOTE_OFF_53
NOTE_OFF_46
NOTE_OFF_41
NOTE_OFF_34
VEL_3
NOTE_ON_58
VEL_2
NOTE_ON_54
VEL_2
NOTE_ON_49
VEL_1
NOTE_ON_42
VEL_1
NOTE_ON_37
TIME_SHIFT_64ND_25
NOTE_OFF_58
VEL_2
NOTE_ON_58
TIME_SHIFT_64ND_8
NOTE_OFF_58
TIME_SHIFT_64ND_1
NOTE_OFF_54
NOTE_OFF_49
NOTE_OFF_42
NOTE_OFF_37
VEL_2
NOTE_ON_53
VEL_2
NOTE_ON_58
VEL_2
NOTE_ON_46
VEL_2
NOTE_ON_41
VEL_2
NOTE_ON_34
TIME_SHIFT_64ND_34
NOTE_OFF_53
NOTE_OFF_46
NOTE_OFF_41
NOTE_OFF_34
VEL_2
NOTE_ON_54
VEL_1
NOTE_ON_49
VEL_1
NOTE_ON_42
VEL_1
NOTE_ON_37
TIME_SHIFT_64ND_34
NOTE_OFF_54
NOTE_OFF_58
NOTE_OFF_49
NOTE_OFF_42
NOTE_OFF_37
VEL_4
NOTE_ON_70
VEL_5
NOTE_ON_82
VEL_4
NOTE_ON_73
VEL_3
NOTE_ON_46
VEL_2
NOTE_ON_41
VEL_2
NOTE_ON_34
TIME_SHIFT_64ND_15
NOTE_OFF_70
NOTE_OFF_82
VEL_4
NOTE_ON_80
VEL_3
NOTE_ON_68
TIME_SHIFT_64ND_11
NOTE_OFF_80
NOTE_OFF_68
VEL_4
NOTE_ON_68
TIME_SHIFT_64ND_1
NOTE_OFF_68
VEL_3
NOTE_ON_73
TIME_SHIFT_64ND_2
NOTE_OFF_73
NOTE_OFF_73
VEL_3
NOTE_ON_80
TIME_SHIFT_64ND_2
NOTE_OFF_80
NOTE_OFF_46
NOTE_OFF_41
NOTE_OFF_34
VEL_4
NOTE_ON_78
VEL_3
NOTE_ON_66
VEL_4
NOTE_ON_73
VEL_2
NOTE_ON_49
VEL_2
NOTE_ON_42
VEL_2
NOTE_ON_37
TIME_SHIFT_64ND_24
NOTE_OFF_78
VEL_3
NOTE_ON_77
VEL_3
NOTE_ON_65
TIME_SHIFT_64ND_8
NOTE_OFF_77
NOTE_OFF_65
TIME_SHIFT_64ND_1
NOTE_OFF_66
NOTE_OFF_73
NOTE_OFF_49
NOTE_OFF_42
NOTE_OFF_37
VEL_4
NOTE_ON_73
VEL_4
NOTE_ON_77
VEL_3
NOTE_ON_65
VEL_3
NOTE_ON_46
VEL_2
NOTE_ON_41
VEL_2
NOTE_ON_34
TIME_SHIFT_64ND_34
NOTE_OFF_73
NOTE_OFF_77
NOTE_OFF_65
NOTE_OFF_46
NOTE_OFF_41
NOTE_OFF_34
VEL_4
NOTE_ON_70
VEL_3
NOTE_ON_61
VEL_4
NOTE_ON_73
VEL_2
NOTE_ON_49
VEL_1
NOTE_ON_42
VEL_1
NOTE_ON_37
TIME_SHIFT_64ND_34
NOTE_OFF_70
NOTE_OFF_61
NOTE_OFF_73
NOTE_OFF_49
NOTE_OFF_42
NOTE_OFF_37
VEL_4
NOTE_ON_70
VEL_5
NOTE_ON_82
VEL_4
NOTE_ON_73
VEL_3
NOTE_ON_46
VEL_2
NOTE_ON_41
VEL_2
NOTE_ON_34
TIME_SHIFT_64ND_15
NOTE_OFF_70
NOTE_OFF_82
VEL_4
NOTE_ON_80
VEL_3
NOTE_ON_68
TIME_SHIFT_64ND_11
NOTE_OFF_80
NOTE_OFF_68
VEL_4
NOTE_ON_68
TIME_SHIFT_64ND_2
NOTE_OFF_68
VEL_3
NOTE_ON_73
TIME_SHIFT_64ND_2
NOTE_OFF_73
NOTE_OFF_73
VEL_3
NOTE_ON_80
TIME_SHIFT_64ND_2
NOTE_OFF_80
NOTE_OFF_46
NOTE_OFF_41
NOTE_OFF_34
VEL_4
NOTE_ON_78
VEL_3
NOTE_ON_66
VEL_4
NOTE_ON_73
VEL_2
NOTE_ON_49
VEL_2
NOTE_ON_42
VEL_2
NOTE_ON_37
TIME_SHIFT_64ND_25
NOTE_OFF_78
VEL_3
NOTE_ON_77
VEL_3
NOTE_ON_65
TIME_SHIFT_64ND_8
NOTE_OFF_77
NOTE_OFF_65
TIME_SHIFT_64ND_1
NOTE_OFF_66
NOTE_OFF_73
NOTE_OFF_49
NOTE_OFF_42
NOTE_OFF_37
VEL_4
NOTE_ON_73
VEL_4
NOTE_ON_77
VEL_3
NOTE_ON_65
VEL_3
NOTE_ON_46
VEL_2
NOTE_ON_41
VEL_2
NOTE_ON_34
TIME_SHIFT_64ND_34
NOTE_OFF_73
NOTE_OFF_77
NOTE_OFF_65
NOTE_OFF_46
NOTE_OFF_41
NOTE_OFF_34
VEL_4
NOTE_ON_70
VEL_3
NOTE_ON_61
VEL_4
NOTE_ON_73
VEL_2
NOTE_ON_49
VEL_1
NOTE_ON_42
VEL_1
NOTE_ON_37
TIME_SHIFT_64ND_34
NOTE_OFF_70
NOTE_OFF_61
NOTE_OFF_73
NOTE_OFF_49
NOTE_OFF_42
NOTE_OFF_37
VEL_3
NOTE_ON_70
VEL_3
NOTE_ON_65
VEL_3
NOTE_ON_58
VEL_3
NOTE_ON_46
VEL_2
NOTE_ON_41
VEL_2
NOTE_ON_34
TIME_SHIFT_64ND_33
NOTE_OFF_70
NOTE_OFF_65
NOTE_OFF_58
NOTE_OFF_46
NOTE_OFF_41
NOTE_OFF_34
VEL_3
NOTE_ON_70
VEL_3
NOTE_ON_58
VEL_3
NOTE_ON_66
VEL_2
NOTE_ON_49
VEL_2
NOTE_ON_42
VEL_2
NOTE_ON_37
TIME_SHIFT_64ND_26
NOTE_OFF_70
NOTE_OFF_58
VEL_3
NOTE_ON_70
VEL_3
NOTE_ON_58
TIME_SHIFT_64ND_8
NOTE_OFF_70
NOTE_OFF_58
TIME_SHIFT_64ND_1
NOTE_OFF_66
NOTE_OFF_49
NOTE_OFF_42
NOTE_OFF_37
VEL_4
NOTE_ON_70
VEL_3
NOTE_ON_65
VEL_3
NOTE_ON_58
VEL_3
NOTE_ON_46
VEL_2
NOTE_ON_41
VEL_2
NOTE_ON_34
TIME_SHIFT_64ND_34
NOTE_OFF_70
NOTE_OFF_65
NOTE_OFF_58
NOTE_OFF_46
NOTE_OFF_41
NOTE_OFF_34
VEL_5
NOTE_ON_73
VEL_4
NOTE_ON_61
VEL_4
NOTE_ON_66
VEL_2
NOTE_ON_49
VEL_2
NOTE_ON_42
VEL_2
NOTE_ON_37
TIME_SHIFT_64ND_25
NOTE_OFF_73
NOTE_OFF_61
VEL_4
NOTE_ON_72
VEL_3
NOTE_ON_60
TIME_SHIFT_64ND_7
NOTE_OFF_72
NOTE_OFF_60
TIME_SHIFT_64ND_1
NOTE_OFF_66
NOTE_OFF_49
NOTE_OFF_42
NOTE_OFF_37
VEL_4
NOTE_ON_72
VEL_4
NOTE_ON_60
VEL_4
NOTE_ON_65
VEL_3
NOTE_ON_46
VEL_3
NOTE_ON_41
VEL_3
NOTE_ON_34
TIME_SHIFT_64ND_25
NOTE_OFF_72
NOTE_OFF_60
VEL_4
NOTE_ON_70
VEL_3
NOTE_ON_58
TIME_SHIFT_64ND_7
NOTE_OFF_70
NOTE_OFF_58
TIME_SHIFT_64ND_1
NOTE_OFF_65
NOTE_OFF_46
NOTE_OFF_41
NOTE_OFF_34
VEL_4
NOTE_ON_70
VEL_4
NOTE_ON_58
VEL_4
NOTE_ON_66
VEL_3
NOTE_ON_49
VEL_2
NOTE_ON_42
VEL_2
NOTE_ON_37
TIME_SHIFT_64ND_25
NOTE_OFF_70
NOTE_OFF_58
VEL_4
NOTE_ON_70
VEL_3
NOTE_ON_58
TIME_SHIFT_64ND_8
NOTE_OFF_70
NOTE_OFF_58
TIME_SHIFT_64ND_1
NOTE_OFF_66
NOTE_OFF_49
NOTE_OFF_42
NOTE_OFF_37
VEL_4
NOTE_ON_70
VEL_4
NOTE_ON_65
VEL_3
NOTE_ON_58
VEL_4
NOTE_ON_46
VEL_3
NOTE_ON_41
VEL_3
NOTE_ON_34
TIME_SHIFT_64ND_34
NOTE_OFF_70
NOTE_OFF_65
NOTE_OFF_58
NOTE_OFF_46
NOTE_OFF_41
NOTE_OFF_34
VEL_4
NOTE_ON_66
VEL_4
NOTE_ON_68
VEL_4
NOTE_ON_60
VEL_5
NOTE_ON_72
VEL_4
NOTE_ON_44
VEL_3
NOTE_ON_32
TIME_SHIFT_64ND_34
NOTE_OFF_66
NOTE_OFF_68
NOTE_OFF_60
NOTE_OFF_72
NOTE_OFF_44
NOTE_OFF_32
VEL_6
NOTE_ON_73
VEL_4
NOTE_ON_65
VEL_4
NOTE_ON_61
VEL_4
NOTE_ON_37
VEL_3
NOTE_ON_25
TIME_SHIFT_64ND_34
NOTE_OFF_73
NOTE_OFF_65
NOTE_OFF_61
NOTE_OFF_37
NOTE_OFF_25
VEL_5
NOTE_ON_77
VEL_4
NOTE_ON_73
VEL_4
NOTE_ON_65
VEL_4
NOTE_ON_61
VEL_4
NOTE_ON_56
VEL_4
NOTE_ON_49
TIME_SHIFT_64ND_26
NOTE_OFF_77
NOTE_OFF_73
NOTE_OFF_65
NOTE_OFF_61
NOTE_OFF_56
NOTE_OFF_49
VEL_5
NOTE_ON_78
VEL_4
NOTE_ON_66
VEL_4
NOTE_ON_63
TIME_SHIFT_64ND_9
NOTE_OFF_78
NOTE_OFF_66
NOTE_OFF_63
VEL_5
NOTE_ON_80
VEL_4
NOTE_ON_73
VEL_4
NOTE_ON_68
VEL_5
NOTE_ON_65
VEL_4
NOTE_ON_56
VEL_4
NOTE_ON_49
TIME_SHIFT_64ND_26
NOTE_OFF_80
NOTE_OFF_73
NOTE_OFF_68
NOTE_OFF_65
NOTE_OFF_56
NOTE_OFF_49
VEL_5
NOTE_ON_82
VEL_4
NOTE_ON_70
VEL_5
NOTE_ON_66
TIME_SHIFT_64ND_9
NOTE_OFF_82
NOTE_OFF_70
NOTE_OFF_66
VEL_6
NOTE_ON_84
VEL_5
NOTE_ON_80
VEL_5
NOTE_ON_72
VEL_5
NOTE_ON_68
VEL_4
NOTE_ON_56
VEL_4
NOTE_ON_63
TIME_SHIFT_64ND_26
NOTE_OFF_84
NOTE_OFF_80
NOTE_OFF_72
NOTE_OFF_68
NOTE_OFF_56
NOTE_OFF_63
VEL_6
NOTE_ON_85
VEL_5
NOTE_ON_73
VEL_5
NOTE_ON_65
TIME_SHIFT_64ND_9
NOTE_OFF_85
NOTE_OFF_73
NOTE_OFF_65
VEL_6
NOTE_ON_89
VEL_5
NOTE_ON_77
VEL_5
NOTE_ON_84
VEL_5
NOTE_ON_80
VEL_5
NOTE_ON_44
VEL_4
NOTE_ON_32
TIME_SHIFT_64ND_34
NOTE_OFF_44
NOTE_OFF_32
VEL_5
NOTE_ON_72
VEL_4
NOTE_ON_66
VEL_4
NOTE_ON_63
TIME_SHIFT_64ND_26
NOTE_OFF_72
NOTE_OFF_66
NOTE_OFF_63
VEL_4
NOTE_ON_70
VEL_4
NOTE_ON_66
VEL_4
NOTE_ON_61
TIME_SHIFT_64ND_8
NOTE_OFF_70
NOTE_OFF_66
NOTE_OFF_61
TIME_SHIFT_64ND_1
NOTE_OFF_89
NOTE_OFF_77
VEL_5
NOTE_ON_87
VEL_4
NOTE_ON_75
VEL_4
NOTE_ON_70
VEL_3
NOTE_ON_66
VEL_3
NOTE_ON_61
TIME_SHIFT_64ND_26
NOTE_OFF_70
NOTE_OFF_66
NOTE_OFF_61
VEL_4
NOTE_ON_68
VEL_3
NOTE_ON_66
VEL_3
NOTE_ON_60
TIME_SHIFT_64ND_8
NOTE_OFF_68
NOTE_OFF_66
NOTE_OFF_60
TIME_SHIFT_64ND_1
VEL_4
NOTE_ON_68
VEL_3
NOTE_ON_66
VEL_3
NOTE_ON_60
TIME_SHIFT_64ND_17
NOTE_OFF_87
NOTE_OFF_84
NOTE_OFF_80
NOTE_OFF_75
TIME_SHIFT_64ND_9
NOTE_OFF_68
NOTE_OFF_66
NOTE_OFF_60
VEL_5
NOTE_ON_78
VEL_4
NOTE_ON_66
VEL_4
NOTE_ON_72
VEL_4
NOTE_ON_75
VEL_4
NOTE_ON_63
VEL_4
NOTE_ON_60
VEL_4
NOTE_ON_57
TIME_SHIFT_64ND_9
NOTE_OFF_78
NOTE_OFF_66
NOTE_OFF_72
NOTE_OFF_75
NOTE_OFF_63
NOTE_OFF_60
NOTE_OFF_57
VEL_6
NOTE_ON_77
VEL_5
NOTE_ON_75
VEL_5
NOTE_ON_65
VEL_5
NOTE_ON_72
VEL_4
NOTE_ON_46
VEL_4
NOTE_ON_34
TIME_SHIFT_64ND_34
NOTE_OFF_77
NOTE_OFF_75
NOTE_OFF_65
NOTE_OFF_72
NOTE_OFF_46
NOTE_OFF_34
VEL_5
NOTE_ON_77
VEL_4
NOTE_ON_70
VEL_4
NOTE_ON_65
VEL_4
NOTE_ON_73
VEL_4
NOTE_ON_61
VEL_3
NOTE_ON_58
VEL_3
NOTE_ON_53
TIME_SHIFT_64ND_26
NOTE_OFF_77
NOTE_OFF_70
NOTE_OFF_65
NOTE_OFF_73
VEL_5
NOTE_ON_79
VEL_4
NOTE_ON_67
TIME_SHIFT_64ND_9
NOTE_OFF_79
NOTE_OFF_67
NOTE_OFF_61
NOTE_OFF_58
NOTE_OFF_53
VEL_5
NOTE_ON_81
VEL_4
NOTE_ON_77
VEL_4
NOTE_ON_69
VEL_4
NOTE_ON_73
VEL_5
NOTE_ON_49
VEL_4
NOTE_ON_37
TIME_SHIFT_64ND_26
NOTE_OFF_81
NOTE_OFF_77
NOTE_OFF_69
NOTE_OFF_73
VEL_5
NOTE_ON_82
VEL_4
NOTE_ON_70
TIME_SHIFT_64ND_9
NOTE_OFF_82
NOTE_OFF_70
NOTE_OFF_49
NOTE_OFF_37
VEL_6
NOTE_ON_84
VEL_5
NOTE_ON_77
VEL_5
NOTE_ON_72
VEL_4
NOTE_ON_53
VEL_4
NOTE_ON_65
VEL_4
NOTE_ON_61
VEL_4
NOTE_ON_58
TIME_SHIFT_64ND_27
NOTE_OFF_84
NOTE_OFF_77
NOTE_OFF_72
VEL_6
NOTE_ON_85
VEL_5
NOTE_ON_73
TIME_SHIFT_64ND_5
NOTE_OFF_85
NOTE_OFF_73
VEL_5
NOTE_ON_70
TIME_SHIFT_64ND_2
VEL_5
NOTE_ON_76
TIME_SHIFT_64ND_2
VEL_5
NOTE_ON_79
TIME_SHIFT_64ND_2
NOTE_OFF_53
NOTE_OFF_65
NOTE_OFF_61
NOTE_OFF_58
VEL_6
NOTE_ON_85
VEL_5
NOTE_ON_41
VEL_4
NOTE_ON_29
TIME_SHIFT_64ND_35
NOTE_OFF_41
NOTE_OFF_29
VEL_5
NOTE_ON_67
VEL_4
NOTE_ON_53
VEL_4
NOTE_ON_58
VEL_4
NOTE_ON_61
TIME_SHIFT_64ND_35
NOTE_OFF_85
NOTE_OFF_70
NOTE_OFF_76
NOTE_OFF_79
NOTE_OFF_67
NOTE_OFF_53
NOTE_OFF_58
NOTE_OFF_61
VEL_5
NOTE_ON_84
VEL_4
NOTE_ON_77
VEL_4
NOTE_ON_72
VEL_4
NOTE_ON_69
VEL_4
NOTE_ON_53
VEL_4
NOTE_ON_57
VEL_4
NOTE_ON_60
TIME_SHIFT_64ND_35
NOTE_OFF_84
NOTE_OFF_77
NOTE_OFF_72
NOTE_OFF_69
NOTE_OFF_53
NOTE_OFF_57
NOTE_OFF_60
VEL_5
NOTE_ON_53
TIME_SHIFT_64ND_24
NOTE_OFF_53
VEL_3
NOTE_ON_43
TIME_SHIFT_64ND_3
NOTE_OFF_43
VEL_3
NOTE_ON_44
TIME_SHIFT_64ND_3
NOTE_OFF_44
VEL_3
NOTE_ON_46
TIME_SHIFT_64ND_3
NOTE_OFF_46
VEL_5
NOTE_ON_68
VEL_4
NOTE_ON_60
VEL_4
NOTE_ON_56
VEL_4
NOTE_ON_54
VEL_4
NOTE_ON_65
VEL_3
NOTE_ON_44
TIME_SHIFT_64ND_3
NOTE_OFF_44
VEL_3
NOTE_ON_46
TIME_SHIFT_64ND_3
NOTE_OFF_46
VEL_4
NOTE_ON_44
TIME_SHIFT_64ND_3
NOTE_OFF_44
VEL_3
NOTE_ON_46
TIME_SHIFT_64ND_3
NOTE_OFF_46
VEL_4
NOTE_ON_44
TIME_SHIFT_64ND_3
NOTE_OFF_44
VEL_3
NOTE_ON_46
TIME_SHIFT_64ND_3
NOTE_OFF_46
VEL_4
NOTE_ON_44
TIME_SHIFT_64ND_3
NOTE_OFF_44
VEL_3
NOTE_ON_46
TIME_SHIFT_64ND_3
NOTE_OFF_46
VEL_4
NOTE_ON_44
TIME_SHIFT_64ND_3
NOTE_OFF_44
VEL_4
NOTE_ON_46
TIME_SHIFT_64ND_3
NOTE_OFF_46
VEL_4
NOTE_ON_44
TIME_SHIFT_64ND_2
NOTE_OFF_68
NOTE_OFF_60
NOTE_OFF_56
NOTE_OFF_54
NOTE_OFF_65
VEL_5
NOTE_ON_68
VEL_4
NOTE_ON_60
VEL_4
NOTE_ON_54
VEL_4
NOTE_ON_56
VEL_4
NOTE_ON_63
TIME_SHIFT_64ND_1
NOTE_OFF_44
VEL_4
NOTE_ON_46
TIME_SHIFT_64ND_3
NOTE_OFF_46
VEL_4
NOTE_ON_44
TIME_SHIFT_64ND_3
NOTE_OFF_44
VEL_3
NOTE_ON_46
TIME_SHIFT_64ND_3
VEL_4
NOTE_ON_44
NOTE_OFF_46
TIME_SHIFT_64ND_3
NOTE_OFF_44
VEL_3
NOTE_ON_46
TIME_SHIFT_64ND_3
VEL_4
NOTE_ON_44
NOTE_OFF_46
TIME_SHIFT_64ND_4
NOTE_OFF_44
VEL_3
NOTE_ON_46
TIME_SHIFT_64ND_4
NOTE_OFF_46
VEL_4
NOTE_ON_43
TIME_SHIFT_64ND_4
NOTE_OFF_43
VEL_3
NOTE_ON_44
TIME_SHIFT_64ND_4
NOTE_OFF_68
NOTE_OFF_60
NOTE_OFF_54
NOTE_OFF_56
NOTE_OFF_63
NOTE_OFF_44
VEL_5
NOTE_ON_68
VEL_4
NOTE_ON_61
VEL_4
NOTE_ON_53
VEL_4
NOTE_ON_49
TIME_SHIFT_64ND_35
NOTE_OFF_68
NOTE_OFF_61
NOTE_OFF_53
NOTE_OFF_49
VEL_5
NOTE_ON_49
TIME_SHIFT_64ND_24
NOTE_OFF_49
VEL_3
NOTE_ON_40
TIME_SHIFT_64ND_3
NOTE_OFF_40
VEL_3
NOTE_ON_41
TIME_SHIFT_64ND_3
NOTE_OFF_41
VEL_3
NOTE_ON_42
TIME_SHIFT_64ND_3
NOTE_OFF_42
VEL_5
NOTE_ON_65
VEL_4
NOTE_ON_57
VEL_4
NOTE_ON_51
VEL_4
NOTE_ON_61
VEL_3
NOTE_ON_41
TIME_SHIFT_64ND_3
NOTE_OFF_41
VEL_3
NOTE_ON_42
TIME_SHIFT_64ND_3
NOTE_OFF_42
VEL_4
NOTE_ON_41
TIME_SHIFT_64ND_3
NOTE_OFF_41
VEL_3
NOTE_ON_42
TIME_SHIFT_64ND_3
NOTE_OFF_42
VEL_4
NOTE_ON_41
TIME_SHIFT_64ND_3
NOTE_OFF_41
VEL_3
NOTE_ON_42
TIME_SHIFT_64ND_3
NOTE_OFF_42
VEL_4
NOTE_ON_41
TIME_SHIFT_64ND_3
NOTE_OFF_41
VEL_3
NOTE_ON_42
TIME_SHIFT_64ND_3
NOTE_OFF_42
VEL_4
NOTE_ON_41
TIME_SHIFT_64ND_3
NOTE_OFF_41
VEL_4
NOTE_ON_42
TIME_SHIFT_64ND_3
NOTE_OFF_42
VEL_4
NOTE_ON_41
TIME_SHIFT_64ND_2
NOTE_OFF_65
NOTE_OFF_57
NOTE_OFF_51
NOTE_OFF_61
VEL_5
NOTE_ON_65
VEL_4
NOTE_ON_51
VEL_4
NOTE_ON_57
VEL_4
NOTE_ON_60
TIME_SHIFT_64ND_1
NOTE_OFF_41
VEL_4
NOTE_ON_42
TIME_SHIFT_64ND_3
NOTE_OFF_42
VEL_4
NOTE_ON_41
TIME_SHIFT_64ND_3
NOTE_OFF_41
VEL_3
NOTE_ON_42
TIME_SHIFT_64ND_3
VEL_4
NOTE_ON_41
NOTE_OFF_42
TIME_SHIFT_64ND_3
NOTE_OFF_41
VEL_3
NOTE_ON_42
TIME_SHIFT_64ND_3
VEL_4
NOTE_ON_41
NOTE_OFF_42
TIME_SHIFT_64ND_4
NOTE_OFF_41
VEL_3
NOTE_ON_42
TIME_SHIFT_64ND_4
NOTE_OFF_42
VEL_4
NOTE_ON_40
TIME_SHIFT_64ND_4
NOTE_OFF_40
VEL_3
NOTE_ON_41
TIME_SHIFT_64ND_4
NOTE_OFF_65
NOTE_OFF_51
NOTE_OFF_57
NOTE_OFF_60
NOTE_OFF_41
VEL_5
NOTE_ON_58
VEL_4
NOTE_ON_49
VEL_4
NOTE_ON_42
TIME_SHIFT_64ND_35
NOTE_OFF_42
VEL_3
NOTE_ON_41
TIME_SHIFT_64ND_18
NOTE_OFF_41
VEL_2
NOTE_ON_37
TIME_SHIFT_64ND_19
NOTE_OFF_58
NOTE_OFF_49
NOTE_OFF_37
VEL_2
NOTE_ON_58
VEL_2
NOTE_ON_53
VEL_2
NOTE_ON_46
VEL_2
NOTE_ON_46
VEL_2
NOTE_ON_41
VEL_2
NOTE_ON_34
TIME_SHIFT_64ND_33
NOTE_OFF_58
NOTE_OFF_53
NOTE_OFF_46
NOTE_OFF_46
NOTE_OFF_41
NOTE_OFF_34
VEL_2
NOTE_ON_58
VEL_2
NOTE_ON_54
VEL_2
NOTE_ON_49
VEL_2
NOTE_ON_42
VEL_1
NOTE_ON_37
TIME_SHIFT_64ND_26
NOTE_OFF_58
VEL_2
NOTE_ON_58
TIME_SHIFT_64ND_8
NOTE_OFF_58
TIME_SHIFT_64ND_1
NOTE_OFF_54
NOTE_OFF_49
NOTE_OFF_42
NOTE_OFF_37
VEL_2
NOTE_ON_58
VEL_2
NOTE_ON_53
VEL_2
NOTE_ON_46
VEL_2
NOTE_ON_41
VEL_2
NOTE_ON_34
TIME_SHIFT_64ND_34
NOTE_OFF_58
NOTE_OFF_53
NOTE_OFF_46
NOTE_OFF_41
NOTE_OFF_34
VEL_3
NOTE_ON_61
VEL_2
NOTE_ON_54
VEL_1
NOTE_ON_49
VEL_1
NOTE_ON_42
VEL_1
NOTE_ON_37
TIME_SHIFT_64ND_25
NOTE_OFF_61
VEL_3
NOTE_ON_60
TIME_SHIFT_64ND_4
NOTE_OFF_60
VEL_2
NOTE_ON_61
TIME_SHIFT_64ND_4
NOTE_OFF_61
NOTE_OFF_54
NOTE_OFF_49
NOTE_OFF_42
NOTE_OFF_37
VEL_3
NOTE_ON_60
VEL_2
NOTE_ON_53
VEL_2
NOTE_ON_46
VEL_2
NOTE_ON_41
VEL_2
NOTE_ON_34
TIME_SHIFT_64ND_25
NOTE_OFF_60
VEL_2
NOTE_ON_58
TIME_SHIFT_64ND_8
NOTE_OFF_58
NOTE_OFF_53
NOTE_OFF_46
NOTE_OFF_41
NOTE_OFF_34
VEL_3
NOTE_ON_58
VEL_2
NOTE_ON_54
VEL_2
NOTE_ON_49
VEL_1
NOTE_ON_42
VEL_1
NOTE_ON_37
TIME_SHIFT_64ND_25
NOTE_OFF_58
VEL_2
NOTE_ON_58
TIME_SHIFT_64ND_8
NOTE_OFF_58
TIME_SHIFT_64ND_1
NOTE_OFF_54
NOTE_OFF_49
NOTE_OFF_42
NOTE_OFF_37
VEL_2
NOTE_ON_58
VEL_2
NOTE_ON_53
VEL_2
NOTE_ON_46
VEL_2
NOTE_ON_41
VEL_2
NOTE_ON_34
TIME_SHIFT_64ND_34
NOTE_OFF_58
NOTE_OFF_53
NOTE_OFF_46
NOTE_OFF_41
NOTE_OFF_34
VEL_4
NOTE_ON_52
VEL_6
NOTE_ON_61
VEL_4
NOTE_ON_55
VEL_4
NOTE_ON_45
VEL_3
NOTE_ON_33
TIME_SHIFT_64ND_26
NOTE_OFF_52
NOTE_OFF_61
NOTE_OFF_55
NOTE_OFF_45
NOTE_OFF_33
VEL_6
NOTE_ON_63
VEL_4
NOTE_ON_60
VEL_4
NOTE_ON_54
VEL_4
NOTE_ON_44
VEL_3
NOTE_ON_32
TIME_SHIFT_64ND_9
NOTE_OFF_63
NOTE_OFF_60
NOTE_OFF_54
NOTE_OFF_44
NOTE_OFF_32
VEL_6
NOTE_ON_65
VEL_4
NOTE_ON_61
VEL_4
NOTE_ON_53
VEL_4
NOTE_ON_37
VEL_3
NOTE_ON_25
TIME_SHIFT_64ND_34
NOTE_OFF_65
NOTE_OFF_61
NOTE_OFF_53
NOTE_OFF_37
NOTE_OFF_25
VEL_5
NOTE_ON_77
VEL_4
NOTE_ON_73
VEL_4
NOTE_ON_65
VEL_4
NOTE_ON_61
VEL_4
NOTE_ON_56
VEL_4
NOTE_ON_49
TIME_SHIFT_64ND_26
NOTE_OFF_77
NOTE_OFF_73
NOTE_OFF_65
NOTE_OFF_61
NOTE_OFF_56
NOTE_OFF_49
VEL_5
NOTE_ON_78
VEL_4
NOTE_ON_66
VEL_4
NOTE_ON_63
TIME_SHIFT_64ND_9
NOTE_OFF_78
NOTE_OFF_66
NOTE_OFF_63
VEL_5
NOTE_ON_80
VEL_4
NOTE_ON_73
VEL_4
NOTE_ON_68
VEL_5
NOTE_ON_65
VEL_4
NOTE_ON_56
VEL_4
NOTE_ON_49
TIME_SHIFT_64ND_26
NOTE_OFF_80
NOTE_OFF_73
NOTE_OFF_68
NOTE_OFF_65
NOTE_OFF_56
NOTE_OFF_49
VEL_5
NOTE_ON_82
VEL_4
NOTE_ON_70
VEL_5
NOTE_ON_66
TIME_SHIFT_64ND_9
NOTE_OFF_82
NOTE_OFF_70
NOTE_OFF_66
VEL_6
NOTE_ON_84
VEL_5
NOTE_ON_80
VEL_5
NOTE_ON_72
VEL_5
NOTE_ON_68
VEL_4
NOTE_ON_56
VEL_4
NOTE_ON_63
TIME_SHIFT_64ND_26
NOTE_OFF_84
NOTE_OFF_80
NOTE_OFF_72
NOTE_OFF_68
NOTE_OFF_56
NOTE_OFF_63
VEL_6
NOTE_ON_85
VEL_5
NOTE_ON_73
VEL_5
NOTE_ON_65
TIME_SHIFT_64ND_9
NOTE_OFF_85
NOTE_OFF_73
NOTE_OFF_65
VEL_6
NOTE_ON_89
VEL_5
NOTE_ON_77
VEL_5
NOTE_ON_84
VEL_5
NOTE_ON_80
VEL_5
NOTE_ON_44
VEL_4
NOTE_ON_32
TIME_SHIFT_64ND_34
NOTE_OFF_44
NOTE_OFF_32
VEL_5
NOTE_ON_72
VEL_4
NOTE_ON_66
VEL_4
NOTE_ON_63
TIME_SHIFT_64ND_26
NOTE_OFF_72
NOTE_OFF_66
NOTE_OFF_63
VEL_4
NOTE_ON_70
VEL_4
NOTE_ON_66
VEL_4
NOTE_ON_61
TIME_SHIFT_64ND_8
NOTE_OFF_70
NOTE_OFF_66
NOTE_OFF_61
TIME_SHIFT_64ND_1
NOTE_OFF_89
NOTE_OFF_77
VEL_5
NOTE_ON_87
VEL_4
NOTE_ON_75
VEL_4
NOTE_ON_70
VEL_3
NOTE_ON_66
VEL_3
NOTE_ON_61
TIME_SHIFT_64ND_26
NOTE_OFF_70
NOTE_OFF_66
NOTE_OFF_61
VEL_4
NOTE_ON_68
VEL_3
NOTE_ON_66
VEL_3
NOTE_ON_60
TIME_SHIFT_64ND_8
NOTE_OFF_68
NOTE_OFF_66
NOTE_OFF_60
TIME_SHIFT_64ND_1
VEL_4
NOTE_ON_68
VEL_3
NOTE_ON_66
VEL_3
NOTE_ON_60
TIME_SHIFT_64ND_17
NOTE_OFF_87
NOTE_OFF_84
NOTE_OFF_80
NOTE_OFF_75
TIME_SHIFT_64ND_9
NOTE_OFF_68
NOTE_OFF_66
NOTE_OFF_60
VEL_5
NOTE_ON_78
VEL_4
NOTE_ON_66
VEL_4
NOTE_ON_72
VEL_4
NOTE_ON_75
VEL_4
NOTE_ON_63
VEL_3
NOTE_ON_60
VEL_3
NOTE_ON_57
TIME_SHIFT_64ND_9
NOTE_OFF_78
NOTE_OFF_66
NOTE_OFF_72
NOTE_OFF_75
NOTE_OFF_63
NOTE_OFF_60
NOTE_OFF_57
VEL_6
NOTE_ON_77
VEL_4
NOTE_ON_75
VEL_4
NOTE_ON_65
VEL_4
NOTE_ON_72
VEL_4
NOTE_ON_46
VEL_3
NOTE_ON_34
TIME_SHIFT_64ND_34
NOTE_OFF_77
NOTE_OFF_75
NOTE_OFF_65
NOTE_OFF_72
NOTE_OFF_46
NOTE_OFF_34
VEL_5
NOTE_ON_77
VEL_4
NOTE_ON_70
VEL_4
NOTE_ON_65
VEL_4
NOTE_ON_73
VEL_4
NOTE_ON_61
VEL_3
NOTE_ON_58
VEL_3
NOTE_ON_53
TIME_SHIFT_64ND_26
NOTE_OFF_77
NOTE_OFF_70
NOTE_OFF_65
NOTE_OFF_73
VEL_5
NOTE_ON_79
VEL_4
NOTE_ON_67
TIME_SHIFT_64ND_9
NOTE_OFF_79
NOTE_OFF_67
NOTE_OFF_61
NOTE_OFF_58
NOTE_OFF_53
VEL_5
NOTE_ON_81
VEL_4
NOTE_ON_77
VEL_4
NOTE_ON_69
VEL_4
NOTE_ON_73
VEL_5
NOTE_ON_49
VEL_4
NOTE_ON_37
TIME_SHIFT_64ND_26
NOTE_OFF_81
NOTE_OFF_77
NOTE_OFF_69
NOTE_OFF_73
VEL_5
NOTE_ON_82
VEL_4
NOTE_ON_70
TIME_SHIFT_64ND_9
NOTE_OFF_82
NOTE_OFF_70
NOTE_OFF_49
NOTE_OFF_37
VEL_6
NOTE_ON_84
VEL_5
NOTE_ON_77
VEL_5
NOTE_ON_72
VEL_4
NOTE_ON_53
VEL_4
NOTE_ON_65
VEL_4
NOTE_ON_61
VEL_4
NOTE_ON_58
TIME_SHIFT_64ND_27
NOTE_OFF_84
NOTE_OFF_77
NOTE_OFF_72
VEL_6
NOTE_ON_85
VEL_5
NOTE_ON_73
TIME_SHIFT_64ND_5
NOTE_OFF_85
NOTE_OFF_73
VEL_5
NOTE_ON_70
TIME_SHIFT_64ND_2
VEL_5
NOTE_ON_76
TIME_SHIFT_64ND_2
VEL_5
NOTE_ON_79
TIME_SHIFT_64ND_2
NOTE_OFF_53
NOTE_OFF_65
NOTE_OFF_61
NOTE_OFF_58
VEL_6
NOTE_ON_85
VEL_5
NOTE_ON_41
VEL_4
NOTE_ON_29
TIME_SHIFT_64ND_35
NOTE_OFF_41
NOTE_OFF_29
VEL_5
NOTE_ON_67
VEL_4
NOTE_ON_53
VEL_4
NOTE_ON_58
VEL_4
NOTE_ON_61
TIME_SHIFT_64ND_35
NOTE_OFF_85
NOTE_OFF_70
NOTE_OFF_76
NOTE_OFF_79
NOTE_OFF_67
NOTE_OFF_53
NOTE_OFF_58
NOTE_OFF_61
VEL_5
NOTE_ON_84
VEL_4
NOTE_ON_77
VEL_4
NOTE_ON_72
VEL_4
NOTE_ON_69
VEL_4
NOTE_ON_53
VEL_4
NOTE_ON_57
VEL_4
NOTE_ON_60
TIME_SHIFT_64ND_35
NOTE_OFF_84
NOTE_OFF_77
NOTE_OFF_72
NOTE_OFF_69
NOTE_OFF_53
NOTE_OFF_57
NOTE_OFF_60
VEL_5
NOTE_ON_53
TIME_SHIFT_64ND_24
NOTE_OFF_53
VEL_3
NOTE_ON_43
TIME_SHIFT_64ND_3
NOTE_OFF_43
VEL_3
NOTE_ON_44
TIME_SHIFT_64ND_3
NOTE_OFF_44
VEL_3
NOTE_ON_46
TIME_SHIFT_64ND_3
NOTE_OFF_46
VEL_5
NOTE_ON_68
VEL_4
NOTE_ON_60
VEL_4
NOTE_ON_56
VEL_4
NOTE_ON_54
VEL_4
NOTE_ON_65
VEL_3
NOTE_ON_44
TIME_SHIFT_64ND_3
NOTE_OFF_44
VEL_3
NOTE_ON_46
TIME_SHIFT_64ND_3
NOTE_OFF_46
VEL_4
NOTE_ON_44
TIME_SHIFT_64ND_3
NOTE_OFF_44
VEL_3
NOTE_ON_46
TIME_SHIFT_64ND_3
NOTE_OFF_46
VEL_4
NOTE_ON_44
TIME_SHIFT_64ND_3
NOTE_OFF_44
VEL_3
NOTE_ON_46
TIME_SHIFT_64ND_3
NOTE_OFF_46
VEL_4
NOTE_ON_44
TIME_SHIFT_64ND_3
NOTE_OFF_44
VEL_3
NOTE_ON_46
TIME_SHIFT_64ND_3
NOTE_OFF_46
VEL_4
NOTE_ON_44
TIME_SHIFT_64ND_3
NOTE_OFF_44
VEL_4
NOTE_ON_46
TIME_SHIFT_64ND_3
NOTE_OFF_46
VEL_4
NOTE_ON_44
TIME_SHIFT_64ND_2
NOTE_OFF_68
NOTE_OFF_60
NOTE_OFF_56
NOTE_OFF_54
NOTE_OFF_65
VEL_5
NOTE_ON_68
VEL_4
NOTE_ON_60
VEL_4
NOTE_ON_54
VEL_4
NOTE_ON_56
VEL_4
NOTE_ON_63
TIME_SHIFT_64ND_1
NOTE_OFF_44
VEL_4
NOTE_ON_46
TIME_SHIFT_64ND_3
NOTE_OFF_46
VEL_4
NOTE_ON_44
TIME_SHIFT_64ND_3
NOTE_OFF_44
VEL_3
NOTE_ON_46
TIME_SHIFT_64ND_3
VEL_4
NOTE_ON_44
NOTE_OFF_46
TIME_SHIFT_64ND_3
NOTE_OFF_44
VEL_3
NOTE_ON_46
TIME_SHIFT_64ND_3
VEL_4
NOTE_ON_44
NOTE_OFF_46
TIME_SHIFT_64ND_4
NOTE_OFF_44
VEL_3
NOTE_ON_46
TIME_SHIFT_64ND_4
NOTE_OFF_46
VEL_4
NOTE_ON_43
TIME_SHIFT_64ND_4
NOTE_OFF_43
VEL_3
NOTE_ON_44
TIME_SHIFT_64ND_4
NOTE_OFF_68
NOTE_OFF_60
NOTE_OFF_54
NOTE_OFF_56
NOTE_OFF_63
NOTE_OFF_44
VEL_5
NOTE_ON_68
VEL_4
NOTE_ON_61
VEL_4
NOTE_ON_53
VEL_4
NOTE_ON_49
TIME_SHIFT_64ND_35
NOTE_OFF_68
NOTE_OFF_61
NOTE_OFF_53
NOTE_OFF_49
VEL_4
NOTE_ON_49
TIME_SHIFT_64ND_24
NOTE_OFF_49
VEL_3
NOTE_ON_40
TIME_SHIFT_64ND_3
NOTE_OFF_40
VEL_3
NOTE_ON_41
TIME_SHIFT_64ND_3
NOTE_OFF_41
VEL_3
NOTE_ON_42
TIME_SHIFT_64ND_3
NOTE_OFF_42
VEL_5
NOTE_ON_65
VEL_4
NOTE_ON_57
VEL_4
NOTE_ON_51
VEL_4
NOTE_ON_61
VEL_3
NOTE_ON_41
TIME_SHIFT_64ND_3
NOTE_OFF_41
VEL_3
NOTE_ON_42
TIME_SHIFT_64ND_3
NOTE_OFF_42
VEL_4
NOTE_ON_41
TIME_SHIFT_64ND_3
NOTE_OFF_41
VEL_3
NOTE_ON_42
TIME_SHIFT_64ND_3
NOTE_OFF_42
VEL_4
NOTE_ON_41
TIME_SHIFT_64ND_3
NOTE_OFF_41
VEL_3
NOTE_ON_42
TIME_SHIFT_64ND_3
NOTE_OFF_42
VEL_4
NOTE_ON_41
TIME_SHIFT_64ND_3
NOTE_OFF_41
VEL_3
NOTE_ON_42
TIME_SHIFT_64ND_3
NOTE_OFF_42
VEL_4
NOTE_ON_41
TIME_SHIFT_64ND_3
NOTE_OFF_41
VEL_4
NOTE_ON_42
TIME_SHIFT_64ND_3
NOTE_OFF_42
VEL_4
NOTE_ON_41
TIME_SHIFT_64ND_2
NOTE_OFF_65
NOTE_OFF_57
NOTE_OFF_51
NOTE_OFF_61
VEL_5
NOTE_ON_65
VEL_4
NOTE_ON_51
VEL_4
NOTE_ON_57
VEL_4
NOTE_ON_60
TIME_SHIFT_64ND_1
NOTE_OFF_41
VEL_4
NOTE_ON_42
TIME_SHIFT_64ND_3
NOTE_OFF_42
VEL_4
NOTE_ON_41
TIME_SHIFT_64ND_3
NOTE_OFF_41
VEL_3
NOTE_ON_42
TIME_SHIFT_64ND_3
VEL_4
NOTE_ON_41
NOTE_OFF_42
TIME_SHIFT_64ND_3
NOTE_OFF_41
VEL_3
NOTE_ON_42
TIME_SHIFT_64ND_3
VEL_4
NOTE_ON_41
NOTE_OFF_42
TIME_SHIFT_64ND_4
NOTE_OFF_41
VEL_3
NOTE_ON_42
TIME_SHIFT_64ND_4
NOTE_OFF_42
VEL_4
NOTE_ON_40
TIME_SHIFT_64ND_4
NOTE_OFF_40
VEL_3
NOTE_ON_41
TIME_SHIFT_64ND_4
NOTE_OFF_65
NOTE_OFF_51
NOTE_OFF_57
NOTE_OFF_60
NOTE_OFF_41
VEL_5
NOTE_ON_58
VEL_4
NOTE_ON_49
VEL_4
NOTE_ON_42
TIME_SHIFT_64ND_35
NOTE_OFF_42
VEL_2
NOTE_ON_41
TIME_SHIFT_64ND_18
NOTE_OFF_41
VEL_2
NOTE_ON_37
TIME_SHIFT_64ND_19
NOTE_OFF_58
NOTE_OFF_49
NOTE_OFF_37
VEL_2
NOTE_ON_58
VEL_2
NOTE_ON_53
VEL_2
NOTE_ON_46
VEL_2
NOTE_ON_46
VEL_2
NOTE_ON_41
VEL_2
NOTE_ON_34
TIME_SHIFT_64ND_34
NOTE_OFF_58
NOTE_OFF_53
NOTE_OFF_46
NOTE_OFF_46
NOTE_OFF_41
NOTE_OFF_34
VEL_2
NOTE_ON_58
VEL_2
NOTE_ON_54
VEL_2
NOTE_ON_49
VEL_2
NOTE_ON_42
VEL_1
NOTE_ON_37
TIME_SHIFT_64ND_26
NOTE_OFF_58
VEL_2
NOTE_ON_58
TIME_SHIFT_64ND_8
NOTE_OFF_58
TIME_SHIFT_64ND_1
NOTE_OFF_54
NOTE_OFF_49
NOTE_OFF_42
NOTE_OFF_37
VEL_2
NOTE_ON_58
VEL_2
NOTE_ON_53
VEL_2
NOTE_ON_46
VEL_2
NOTE_ON_41
VEL_2
NOTE_ON_34
TIME_SHIFT_64ND_35
NOTE_OFF_58
NOTE_OFF_53
NOTE_OFF_46
NOTE_OFF_41
NOTE_OFF_34
VEL_2
NOTE_ON_61
VEL_2
NOTE_ON_54
VEL_1
NOTE_ON_49
VEL_1
NOTE_ON_42
VEL_1
NOTE_ON_37
TIME_SHIFT_64ND_28
NOTE_OFF_61
VEL_2
NOTE_ON_60
TIME_SHIFT_64ND_5
NOTE_OFF_60
VEL_2
NOTE_ON_61
TIME_SHIFT_64ND_5
NOTE_OFF_61
NOTE_OFF_54
NOTE_OFF_49
NOTE_OFF_42
NOTE_OFF_37
VEL_2
NOTE_ON_60
VEL_2
NOTE_ON_53
VEL_1
NOTE_ON_46
VEL_1
NOTE_ON_41
VEL_1
NOTE_ON_34
TIME_SHIFT_64ND_30
NOTE_OFF_60
VEL_2
NOTE_ON_58
TIME_SHIFT_64ND_9
NOTE_OFF_58
TIME_SHIFT_64ND_1
NOTE_OFF_53
NOTE_OFF_46
NOTE_OFF_41
NOTE_OFF_34
VEL_2
NOTE_ON_58
VEL_2
NOTE_ON_54
VEL_1
NOTE_ON_49
VEL_1
NOTE_ON_42
VEL_1
NOTE_ON_37
TIME_SHIFT_64ND_34
NOTE_OFF_58
VEL_1
NOTE_ON_58
TIME_SHIFT_64ND_15
NOTE_OFF_58
TIME_SHIFT_64ND_1
NOTE_OFF_49
TIME_SHIFT_64ND_1
NOTE_OFF_54
NOTE_OFF_42
NOTE_OFF_37
VEL_1
NOTE_ON_58
VEL_1
NOTE_ON_53
VEL_1
NOTE_ON_49
VEL_1
NOTE_ON_41
VEL_1
NOTE_ON_34
TIME_SHIFT_64ND_102
NOTE_OFF_58
NOTE_OFF_53
NOTE_OFF_49
NOTE_OFF_41
NOTE_OFF_34
