VEL_2
NOTE_ON_71
VEL_1
NOTE_ON_62
VEL_1
NOTE_ON_66
VEL_2
NOTE_ON_47
TIME_SHIFT_64ND_10
NOTE_OFF_47
VEL_2
NOTE_ON_50
TIME_SHIFT_64ND_9
NOTE_OFF_71
NOTE_OFF_50
VEL_2
NOTE_ON_71
VEL_2
NOTE_ON_54
TIME_SHIFT_64ND_9
NOTE_OFF_54
VEL_2
NOTE_ON_59
TIME_SHIFT_64ND_9
NOTE_OFF_71
NOTE_OFF_62
NOTE_OFF_66
NOTE_OFF_59
VEL_2
NOTE_ON_71
VEL_1
NOTE_ON_66
VEL_2
NOTE_ON_62
TIME_SHIFT_64ND_18
NOTE_OFF_71
VEL_2
NOTE_ON_71
TIME_SHIFT_64ND_19
NOTE_OFF_71
NOTE_OFF_66
NOTE_OFF_62
VEL_2
NOTE_ON_71
VEL_1
NOTE_ON_66
VEL_2
NOTE_ON_61
TIME_SHIFT_64ND_18
NOTE_OFF_71
VEL_2
NOTE_ON_71
TIME_SHIFT_64ND_9
NOTE_OFF_61
VEL_2
NOTE_ON_62
TIME_SHIFT_64ND_10
NOTE_OFF_62
NOTE_OFF_71
NOTE_OFF_66
VEL_2
NOTE_ON_71
VEL_1
NOTE_ON_66
VEL_1
NOTE_ON_62
VEL_2
NOTE_ON_59
TIME_SHIFT_64ND_19
NOTE_OFF_71
VEL_2
NOTE_ON_71
TIME_SHIFT_64ND_18
NOTE_OFF_71
NOTE_OFF_66
NOTE_OFF_62
VEL_2
NOTE_ON_71
VEL_1
NOTE_ON_66
VEL_1
NOTE_ON_62
TIME_SHIFT_64ND_18
NOTE_OFF_71
NOTE_OFF_59
VEL_2
NOTE_ON_71
VEL_2
NOTE_ON_54
TIME_SHIFT_64ND_19
NOTE_OFF_71
NOTE_OFF_66
NOTE_OFF_62
NOTE_OFF_54
VEL_2
NOTE_ON_71
VEL_1
NOTE_ON_62
VEL_1
NOTE_ON_66
VEL_2
NOTE_ON_50
TIME_SHIFT_64ND_19
NOTE_OFF_71
NOTE_OFF_50
VEL_2
NOTE_ON_71
VEL_1
NOTE_ON_49
TIME_SHIFT_64ND_19
NOTE_OFF_71
NOTE_OFF_62
NOTE_OFF_66
NOTE_OFF_49
VEL_2
NOTE_ON_71
VEL_1
NOTE_ON_62
VEL_1
NOTE_ON_66
VEL_2
NOTE_ON_47
TIME_SHIFT_64ND_10
NOTE_OFF_47
VEL_2
NOTE_ON_54
TIME_SHIFT_64ND_9
NOTE_OFF_71
NOTE_OFF_54
VEL_2
NOTE_ON_71
VEL_2
NOTE_ON_59
TIME_SHIFT_64ND_9
NOTE_OFF_59
VEL_2
NOTE_ON_62
TIME_SHIFT_64ND_9
NOTE_OFF_71
NOTE_OFF_62
NOTE_OFF_66
NOTE_OFF_62
VEL_2
NOTE_ON_74
VEL_1
NOTE_ON_71
VEL_2
NOTE_ON_66
TIME_SHIFT_64ND_18
NOTE_OFF_74
VEL_2
NOTE_ON_74
TIME_SHIFT_64ND_19
NOTE_OFF_74
NOTE_OFF_71
NOTE_OFF_66
VEL_2
NOTE_ON_74
VEL_1
NOTE_ON_71
VEL_2
NOTE_ON_64
TIME_SHIFT_64ND_18
NOTE_OFF_74
VEL_2
NOTE_ON_74
TIME_SHIFT_64ND_9
NOTE_OFF_64
VEL_2
NOTE_ON_66
TIME_SHIFT_64ND_10
NOTE_OFF_66
NOTE_OFF_74
NOTE_OFF_71
VEL_2
NOTE_ON_74
VEL_1
NOTE_ON_71
VEL_1
NOTE_ON_66
VEL_2
NOTE_ON_62
TIME_SHIFT_64ND_19
NOTE_OFF_74
VEL_2
NOTE_ON_74
TIME_SHIFT_64ND_18
NOTE_OFF_74
NOTE_OFF_71
NOTE_OFF_66
VEL_2
NOTE_ON_74
VEL_1
NOTE_ON_66
VEL_1
NOTE_ON_71
TIME_SHIFT_64ND_18
NOTE_OFF_74
NOTE_OFF_62
VEL_1
NOTE_ON_74
VEL_2
NOTE_ON_59
TIME_SHIFT_64ND_18
NOTE_OFF_74
NOTE_OFF_66
NOTE_OFF_71
NOTE_OFF_59
VEL_2
NOTE_ON_74
VEL_1
NOTE_ON_66
VEL_1
NOTE_ON_71
VEL_2
NOTE_ON_54
TIME_SHIFT_64ND_20
NOTE_OFF_74
NOTE_OFF_54
VEL_2
NOTE_ON_74
VEL_2
NOTE_ON_50
TIME_SHIFT_64ND_20
NOTE_OFF_74
NOTE_OFF_66
NOTE_OFF_71
NOTE_OFF_50
VEL_2
NOTE_ON_74
VEL_1
NOTE_ON_67
VEL_1
NOTE_ON_71
VEL_2
NOTE_ON_43
TIME_SHIFT_64ND_10
NOTE_OFF_43
VEL_2
NOTE_ON_50
TIME_SHIFT_64ND_10
NOTE_OFF_74
NOTE_OFF_50
VEL_2
NOTE_ON_74
VEL_2
NOTE_ON_59
TIME_SHIFT_64ND_9
NOTE_OFF_59
VEL_2
NOTE_ON_62
TIME_SHIFT_64ND_9
NOTE_OFF_74
NOTE_OFF_67
NOTE_OFF_71
NOTE_OFF_62
VEL_2
NOTE_ON_74
VEL_1
NOTE_ON_71
VEL_3
NOTE_ON_67
TIME_SHIFT_64ND_18
NOTE_OFF_74
VEL_2
NOTE_ON_74
TIME_SHIFT_64ND_19
NOTE_OFF_74
NOTE_OFF_71
NOTE_OFF_67
VEL_2
NOTE_ON_74
VEL_1
NOTE_ON_71
VEL_3
NOTE_ON_66
TIME_SHIFT_64ND_18
NOTE_OFF_74
VEL_2
NOTE_ON_74
TIME_SHIFT_64ND_19
NOTE_OFF_74
NOTE_OFF_71
NOTE_OFF_66
VEL_2
NOTE_ON_74
VEL_1
NOTE_ON_71
VEL_1
NOTE_ON_68
VEL_3
NOTE_ON_66
TIME_SHIFT_64ND_18
NOTE_OFF_74
VEL_2
NOTE_ON_74
TIME_SHIFT_64ND_19
NOTE_OFF_74
NOTE_OFF_71
NOTE_OFF_68
NOTE_OFF_66
VEL_2
NOTE_ON_73
VEL_1
NOTE_ON_71
VEL_1
NOTE_ON_68
VEL_3
NOTE_ON_65
TIME_SHIFT_64ND_18
NOTE_OFF_73
VEL_1
NOTE_ON_73
TIME_SHIFT_64ND_19
NOTE_OFF_73
NOTE_OFF_71
NOTE_OFF_68
NOTE_OFF_65
VEL_2
NOTE_ON_73
VEL_1
NOTE_ON_70
VEL_1
NOTE_ON_67
VEL_3
NOTE_ON_64
TIME_SHIFT_64ND_18
NOTE_OFF_73
NOTE_OFF_70
NOTE_OFF_64
VEL_2
NOTE_ON_71
VEL_2
NOTE_ON_74
VEL_2
NOTE_ON_62
TIME_SHIFT_64ND_18
NOTE_OFF_71
NOTE_OFF_74
NOTE_OFF_67
NOTE_OFF_62
VEL_2
NOTE_ON_70
VEL_2
NOTE_ON_67
VEL_2
NOTE_ON_76
VEL_3
NOTE_ON_61
TIME_SHIFT_64ND_15
NOTE_OFF_61
VEL_1
NOTE_ON_64
TIME_SHIFT_64ND_3
NOTE_OFF_70
NOTE_OFF_67
NOTE_OFF_64
VEL_2
NOTE_ON_71
VEL_2
NOTE_ON_67
VEL_2
NOTE_ON_62
TIME_SHIFT_64ND_19
NOTE_OFF_71
NOTE_OFF_67
NOTE_OFF_62
VEL_2
NOTE_ON_70
VEL_2
NOTE_ON_67
VEL_3
NOTE_ON_61
TIME_SHIFT_64ND_18
NOTE_OFF_70
NOTE_OFF_67
NOTE_OFF_76
NOTE_OFF_61
VEL_3
NOTE_ON_78
VEL_2
NOTE_ON_66
VEL_2
NOTE_ON_73
VEL_2
NOTE_ON_58
TIME_SHIFT_64ND_18
NOTE_OFF_78
NOTE_OFF_66
NOTE_OFF_73
NOTE_OFF_58
VEL_3
NOTE_ON_76
VEL_2
NOTE_ON_71
VEL_2
NOTE_ON_66
VEL_2
NOTE_ON_59
TIME_SHIFT_64ND_9
NOTE_OFF_76
VEL_2
NOTE_ON_74
TIME_SHIFT_64ND_6
NOTE_OFF_74
TIME_SHIFT_64ND_1
VEL_2
NOTE_ON_74
TIME_SHIFT_64ND_2
NOTE_OFF_74
NOTE_OFF_71
NOTE_OFF_66
NOTE_OFF_59
VEL_3
NOTE_ON_73
VEL_2
NOTE_ON_66
VEL_2
NOTE_ON_50
TIME_SHIFT_64ND_9
NOTE_OFF_73
VEL_2
NOTE_ON_71
TIME_SHIFT_64ND_9
NOTE_OFF_71
NOTE_OFF_66
NOTE_OFF_50
VEL_3
NOTE_ON_70
VEL_2
NOTE_ON_67
VEL_2
NOTE_ON_61
VEL_3
NOTE_ON_52
TIME_SHIFT_64ND_19
NOTE_OFF_70
NOTE_OFF_67
NOTE_OFF_61
NOTE_OFF_52
VEL_2
NOTE_ON_62
VEL_3
NOTE_ON_71
VEL_2
NOTE_ON_68
VEL_2
NOTE_ON_53
TIME_SHIFT_64ND_19
NOTE_OFF_62
NOTE_OFF_71
NOTE_OFF_68
NOTE_OFF_53
VEL_3
NOTE_ON_74
VEL_2
NOTE_ON_62
VEL_2
NOTE_ON_71
VEL_2
NOTE_ON_54
TIME_SHIFT_64ND_19
NOTE_OFF_74
NOTE_OFF_62
NOTE_OFF_71
VEL_2
NOTE_ON_70
VEL_3
NOTE_ON_73
VEL_2
NOTE_ON_61
TIME_SHIFT_64ND_19
NOTE_OFF_70
NOTE_OFF_73
NOTE_OFF_61
NOTE_OFF_54
VEL_2
NOTE_ON_50
TIME_SHIFT_64ND_19
NOTE_OFF_50
VEL_2
NOTE_ON_49
TIME_SHIFT_64ND_20
NOTE_OFF_49
VEL_2
NOTE_ON_71
VEL_1
NOTE_ON_62
VEL_1
NOTE_ON_66
VEL_2
NOTE_ON_47
TIME_SHIFT_64ND_10
NOTE_OFF_47
VEL_2
NOTE_ON_50
TIME_SHIFT_64ND_9
NOTE_OFF_71
NOTE_OFF_50
VEL_2
NOTE_ON_71
VEL_2
NOTE_ON_54
TIME_SHIFT_64ND_9
NOTE_OFF_54
VEL_2
NOTE_ON_59
TIME_SHIFT_64ND_9
NOTE_OFF_71
NOTE_OFF_62
NOTE_OFF_66
NOTE_OFF_59
VEL_2
NOTE_ON_71
VEL_1
NOTE_ON_66
VEL_2
NOTE_ON_62
TIME_SHIFT_64ND_18
NOTE_OFF_71
VEL_2
NOTE_ON_71
TIME_SHIFT_64ND_19
NOTE_OFF_71
NOTE_OFF_66
NOTE_OFF_62
VEL_2
NOTE_ON_71
VEL_1
NOTE_ON_66
VEL_2
NOTE_ON_61
TIME_SHIFT_64ND_18
NOTE_OFF_71
VEL_2
NOTE_ON_71
TIME_SHIFT_64ND_10
NOTE_OFF_61
VEL_2
NOTE_ON_62
TIME_SHIFT_64ND_10
NOTE_OFF_62
NOTE_OFF_71
NOTE_OFF_66
VEL_2
NOTE_ON_71
VEL_1
NOTE_ON_62
VEL_1
NOTE_ON_66
VEL_2
NOTE_ON_59
TIME_SHIFT_64ND_19
NOTE_OFF_71
VEL_2
NOTE_ON_71
TIME_SHIFT_64ND_18
NOTE_OFF_71
NOTE_OFF_62
NOTE_OFF_66
VEL_2
NOTE_ON_71
VEL_1
NOTE_ON_62
VEL_1
NOTE_ON_66
TIME_SHIFT_64ND_18
NOTE_OFF_71
NOTE_OFF_59
VEL_2
NOTE_ON_71
VEL_2
NOTE_ON_54
TIME_SHIFT_64ND_19
NOTE_OFF_71
NOTE_OFF_62
NOTE_OFF_66
NOTE_OFF_54
VEL_2
NOTE_ON_71
VEL_1
NOTE_ON_62
VEL_1
NOTE_ON_66
VEL_2
NOTE_ON_50
TIME_SHIFT_64ND_19
NOTE_OFF_71
NOTE_OFF_50
VEL_2
NOTE_ON_71
VEL_2
NOTE_ON_47
TIME_SHIFT_64ND_19
NOTE_OFF_71
NOTE_OFF_62
NOTE_OFF_66
NOTE_OFF_47
VEL_2
NOTE_ON_71
VEL_2
NOTE_ON_62
VEL_2
NOTE_ON_67
VEL_3
NOTE_ON_43
TIME_SHIFT_64ND_10
NOTE_OFF_43
VEL_2
NOTE_ON_50
TIME_SHIFT_64ND_10
NOTE_OFF_71
NOTE_OFF_50
VEL_2
NOTE_ON_71
VEL_3
NOTE_ON_55
TIME_SHIFT_64ND_9
NOTE_OFF_55
VEL_3
NOTE_ON_59
TIME_SHIFT_64ND_9
NOTE_OFF_71
NOTE_OFF_62
NOTE_OFF_67
NOTE_OFF_59
VEL_2
NOTE_ON_71
VEL_2
NOTE_ON_67
VEL_3
NOTE_ON_62
TIME_SHIFT_64ND_18
NOTE_OFF_71
VEL_2
NOTE_ON_71
TIME_SHIFT_64ND_19
NOTE_OFF_71
NOTE_OFF_67
NOTE_OFF_62
VEL_3
NOTE_ON_71
VEL_2
NOTE_ON_67
VEL_3
NOTE_ON_64
TIME_SHIFT_64ND_18
NOTE_OFF_71
NOTE_OFF_64
VEL_2
NOTE_ON_71
VEL_3
NOTE_ON_65
TIME_SHIFT_64ND_19
NOTE_OFF_71
NOTE_OFF_67
NOTE_OFF_65
VEL_3
NOTE_ON_72
VEL_2
NOTE_ON_67
VEL_3
NOTE_ON_64
TIME_SHIFT_64ND_18
NOTE_OFF_72
VEL_3
NOTE_ON_72
TIME_SHIFT_64ND_18
NOTE_OFF_64
NOTE_OFF_72
NOTE_OFF_67
VEL_3
NOTE_ON_72
VEL_2
NOTE_ON_64
VEL_2
NOTE_ON_67
TIME_SHIFT_64ND_18
NOTE_OFF_72
VEL_2
NOTE_ON_72
VEL_3
NOTE_ON_60
TIME_SHIFT_64ND_18
NOTE_OFF_72
NOTE_OFF_64
NOTE_OFF_67
NOTE_OFF_60
VEL_2
NOTE_ON_72
VEL_2
NOTE_ON_64
VEL_2
NOTE_ON_67
VEL_3
NOTE_ON_55
TIME_SHIFT_64ND_18
NOTE_OFF_72
NOTE_OFF_55
VEL_2
NOTE_ON_72
VEL_3
NOTE_ON_48
TIME_SHIFT_64ND_20
NOTE_OFF_72
NOTE_OFF_64
NOTE_OFF_67
NOTE_OFF_48
VEL_2
NOTE_ON_72
VEL_2
NOTE_ON_67
VEL_2
NOTE_ON_64
VEL_3
NOTE_ON_36
TIME_SHIFT_64ND_10
NOTE_OFF_36
VEL_3
NOTE_ON_43
TIME_SHIFT_64ND_10
NOTE_OFF_72
NOTE_OFF_43
VEL_2
NOTE_ON_72
VEL_3
NOTE_ON_52
TIME_SHIFT_64ND_10
NOTE_OFF_52
VEL_3
NOTE_ON_55
TIME_SHIFT_64ND_9
NOTE_OFF_72
NOTE_OFF_67
NOTE_OFF_64
NOTE_OFF_55
VEL_3
NOTE_ON_72
VEL_2
NOTE_ON_67
VEL_3
NOTE_ON_64
TIME_SHIFT_64ND_19
NOTE_OFF_72
VEL_2
NOTE_ON_72
TIME_SHIFT_64ND_18
NOTE_OFF_64
NOTE_OFF_72
NOTE_OFF_67
VEL_2
NOTE_ON_72
VEL_2
NOTE_ON_67
VEL_2
NOTE_ON_64
VEL_3
NOTE_ON_36
TIME_SHIFT_64ND_10
NOTE_OFF_36
VEL_2
NOTE_ON_43
TIME_SHIFT_64ND_10
NOTE_OFF_72
NOTE_OFF_43
VEL_2
NOTE_ON_72
VEL_3
NOTE_ON_52
TIME_SHIFT_64ND_10
NOTE_OFF_52
VEL_3
NOTE_ON_55
TIME_SHIFT_64ND_9
NOTE_OFF_72
NOTE_OFF_67
NOTE_OFF_64
NOTE_OFF_55
VEL_3
NOTE_ON_72
VEL_2
NOTE_ON_67
VEL_3
NOTE_ON_64
TIME_SHIFT_64ND_19
NOTE_OFF_72
VEL_2
NOTE_ON_72
TIME_SHIFT_64ND_19
NOTE_OFF_72
NOTE_OFF_67
VEL_2
NOTE_ON_72
VEL_2
NOTE_ON_67
TIME_SHIFT_64ND_18
NOTE_OFF_72
VEL_2
NOTE_ON_72
TIME_SHIFT_64ND_19
NOTE_OFF_72
NOTE_OFF_67
NOTE_OFF_64
VEL_2
NOTE_ON_71
VEL_1
NOTE_ON_67
TIME_SHIFT_64ND_19
NOTE_OFF_71
VEL_2
NOTE_ON_71
TIME_SHIFT_64ND_19
NOTE_OFF_71
NOTE_OFF_67
VEL_2
NOTE_ON_70
VEL_1
NOTE_ON_61
VEL_1
NOTE_ON_67
VEL_3
NOTE_ON_52
TIME_SHIFT_64ND_18
NOTE_OFF_70
VEL_2
NOTE_ON_70
TIME_SHIFT_64ND_19
NOTE_OFF_70
NOTE_OFF_61
NOTE_OFF_67
VEL_2
NOTE_ON_70
VEL_1
NOTE_ON_66
VEL_1
NOTE_ON_61
TIME_SHIFT_64ND_19
NOTE_OFF_70
NOTE_OFF_52
VEL_2
NOTE_ON_70
VEL_2
NOTE_ON_54
TIME_SHIFT_64ND_18
NOTE_OFF_70
NOTE_OFF_66
NOTE_OFF_61
NOTE_OFF_54
VEL_2
NOTE_ON_71
VEL_1
NOTE_ON_62
VEL_1
NOTE_ON_66
VEL_3
NOTE_ON_52
TIME_SHIFT_64ND_9
NOTE_OFF_52
VEL_2
NOTE_ON_50
TIME_SHIFT_64ND_9
NOTE_OFF_71
NOTE_OFF_50
VEL_2
NOTE_ON_71
VEL_2
NOTE_ON_49
TIME_SHIFT_64ND_9
NOTE_OFF_49
VEL_2
NOTE_ON_47
TIME_SHIFT_64ND_9
NOTE_OFF_71
NOTE_OFF_62
NOTE_OFF_66
NOTE_OFF_47
VEL_2
NOTE_ON_71
VEL_1
NOTE_ON_67
VEL_1
NOTE_ON_61
VEL_3
NOTE_ON_52
TIME_SHIFT_64ND_18
NOTE_OFF_71
VEL_2
NOTE_ON_71
TIME_SHIFT_64ND_18
NOTE_OFF_71
NOTE_OFF_67
NOTE_OFF_61
VEL_2
NOTE_ON_70
VEL_1
NOTE_ON_67
VEL_1
NOTE_ON_61
TIME_SHIFT_64ND_19
NOTE_OFF_70
NOTE_OFF_52
VEL_2
NOTE_ON_70
VEL_2
NOTE_ON_54
TIME_SHIFT_64ND_18
NOTE_OFF_70
NOTE_OFF_67
NOTE_OFF_61
NOTE_OFF_54
VEL_2
NOTE_ON_71
VEL_1
NOTE_ON_67
VEL_1
NOTE_ON_62
VEL_3
NOTE_ON_52
TIME_SHIFT_64ND_9
NOTE_OFF_52
VEL_2
NOTE_ON_50
TIME_SHIFT_64ND_9
NOTE_OFF_71
NOTE_OFF_50
VEL_2
NOTE_ON_71
VEL_2
NOTE_ON_49
TIME_SHIFT_64ND_9
NOTE_OFF_49
VEL_2
NOTE_ON_47
TIME_SHIFT_64ND_9
NOTE_OFF_71
NOTE_OFF_67
NOTE_OFF_62
NOTE_OFF_47
VEL_2
NOTE_ON_71
VEL_1
NOTE_ON_67
VEL_1
NOTE_ON_62
VEL_2
NOTE_ON_45
TIME_SHIFT_64ND_9
NOTE_OFF_45
VEL_2
NOTE_ON_43
TIME_SHIFT_64ND_9
NOTE_OFF_71
NOTE_OFF_43
VEL_2
NOTE_ON_71
VEL_2
NOTE_ON_38
TIME_SHIFT_64ND_10
NOTE_OFF_38
VEL_2
NOTE_ON_40
TIME_SHIFT_64ND_10
NOTE_OFF_71
NOTE_OFF_67
NOTE_OFF_62
NOTE_OFF_40
VEL_2
NOTE_ON_71
VEL_1
NOTE_ON_66
VEL_1
NOTE_ON_61
VEL_3
NOTE_ON_42
TIME_SHIFT_64ND_19
NOTE_OFF_71
VEL_1
NOTE_ON_71
TIME_SHIFT_64ND_19
NOTE_OFF_71
NOTE_OFF_66
NOTE_OFF_61
VEL_2
NOTE_ON_70
VEL_1
NOTE_ON_64
VEL_1
NOTE_ON_61
TIME_SHIFT_64ND_19
NOTE_OFF_70
VEL_2
NOTE_ON_70
TIME_SHIFT_64ND_19
NOTE_OFF_70
NOTE_OFF_64
NOTE_OFF_61
NOTE_OFF_42
VEL_2
NOTE_ON_70
VEL_1
NOTE_ON_61
VEL_1
NOTE_ON_64
VEL_2
NOTE_ON_43
TIME_SHIFT_64ND_19
NOTE_OFF_70
VEL_1
NOTE_ON_70
TIME_SHIFT_64ND_19
NOTE_OFF_70
NOTE_OFF_61
NOTE_OFF_64
VEL_2
NOTE_ON_71
VEL_1
NOTE_ON_62
VEL_1
NOTE_ON_59
TIME_SHIFT_64ND_19
NOTE_OFF_71
VEL_2
NOTE_ON_71
TIME_SHIFT_64ND_19
NOTE_OFF_71
NOTE_OFF_62
NOTE_OFF_59
NOTE_OFF_43
VEL_2
NOTE_ON_71
VEL_1
NOTE_ON_67
VEL_1
NOTE_ON_62
VEL_2
NOTE_ON_55
TIME_SHIFT_64ND_18
NOTE_OFF_71
VEL_2
NOTE_ON_71
TIME_SHIFT_64ND_19
NOTE_OFF_71
NOTE_OFF_67
NOTE_OFF_62
NOTE_OFF_55
VEL_2
NOTE_ON_71
VEL_1
NOTE_ON_61
VEL_1
NOTE_ON_67
VEL_3
NOTE_ON_52
TIME_SHIFT_64ND_19
NOTE_OFF_71
VEL_2
NOTE_ON_71
TIME_SHIFT_64ND_18
NOTE_OFF_71
NOTE_OFF_61
NOTE_OFF_67
VEL_2
NOTE_ON_70
VEL_1
NOTE_ON_61
VEL_1
NOTE_ON_67
TIME_SHIFT_64ND_19
NOTE_OFF_70
NOTE_OFF_52
VEL_2
NOTE_ON_70
VEL_2
NOTE_ON_54
TIME_SHIFT_64ND_18
NOTE_OFF_70
NOTE_OFF_61
NOTE_OFF_67
NOTE_OFF_54
VEL_2
NOTE_ON_71
VEL_1
NOTE_ON_66
VEL_1
NOTE_ON_62
VEL_2
NOTE_ON_52
TIME_SHIFT_64ND_9
NOTE_OFF_52
VEL_2
NOTE_ON_50
TIME_SHIFT_64ND_9
NOTE_OFF_71
NOTE_OFF_50
VEL_2
NOTE_ON_71
VEL_2
NOTE_ON_49
TIME_SHIFT_64ND_9
NOTE_OFF_49
VEL_2
NOTE_ON_47
TIME_SHIFT_64ND_9
NOTE_OFF_71
NOTE_OFF_66
NOTE_OFF_62
NOTE_OFF_47
VEL_2
NOTE_ON_71
VEL_1
NOTE_ON_67
VEL_1
NOTE_ON_61
VEL_3
NOTE_ON_52
TIME_SHIFT_64ND_18
NOTE_OFF_71
VEL_2
NOTE_ON_71
TIME_SHIFT_64ND_18
NOTE_OFF_71
NOTE_OFF_67
NOTE_OFF_61
VEL_2
NOTE_ON_70
VEL_1
NOTE_ON_67
VEL_1
NOTE_ON_61
TIME_SHIFT_64ND_19
NOTE_OFF_70
NOTE_OFF_52
VEL_2
NOTE_ON_70
VEL_2
NOTE_ON_54
TIME_SHIFT_64ND_18
NOTE_OFF_70
NOTE_OFF_67
NOTE_OFF_61
NOTE_OFF_54
VEL_2
NOTE_ON_71
VEL_1
NOTE_ON_67
VEL_1
NOTE_ON_62
VEL_3
NOTE_ON_52
TIME_SHIFT_64ND_9
NOTE_OFF_52
VEL_2
NOTE_ON_50
TIME_SHIFT_64ND_9
NOTE_OFF_71
NOTE_OFF_50
VEL_2
NOTE_ON_71
VEL_2
NOTE_ON_49
TIME_SHIFT_64ND_9
NOTE_OFF_49
VEL_2
NOTE_ON_47
TIME_SHIFT_64ND_9
NOTE_OFF_71
NOTE_OFF_67
NOTE_OFF_62
NOTE_OFF_47
VEL_2
NOTE_ON_71
VEL_1
NOTE_ON_62
VEL_1
NOTE_ON_67
VEL_2
NOTE_ON_45
TIME_SHIFT_64ND_9
NOTE_OFF_45
VEL_2
NOTE_ON_43
TIME_SHIFT_64ND_9
NOTE_OFF_71
NOTE_OFF_43
VEL_2
NOTE_ON_71
VEL_2
NOTE_ON_38
TIME_SHIFT_64ND_10
NOTE_OFF_38
VEL_2
NOTE_ON_40
TIME_SHIFT_64ND_10
NOTE_OFF_71
NOTE_OFF_62
NOTE_OFF_67
NOTE_OFF_40
VEL_2
NOTE_ON_71
VEL_1
NOTE_ON_61
VEL_1
NOTE_ON_66
VEL_3
NOTE_ON_42
TIME_SHIFT_64ND_18
NOTE_OFF_71
VEL_1
NOTE_ON_71
TIME_SHIFT_64ND_19
NOTE_OFF_71
NOTE_OFF_61
NOTE_OFF_66
VEL_2
NOTE_ON_70
VEL_1
NOTE_ON_66
VEL_1
NOTE_ON_61
TIME_SHIFT_64ND_19
NOTE_OFF_70
VEL_1
NOTE_ON_70
TIME_SHIFT_64ND_21
NOTE_OFF_70
NOTE_OFF_66
NOTE_OFF_61
NOTE_OFF_42
VEL_1
NOTE_ON_71
VEL_1
NOTE_ON_62
VEL_1
NOTE_ON_66
VEL_1
NOTE_ON_35
TIME_SHIFT_64ND_19
NOTE_OFF_71
VEL_1
NOTE_ON_71
TIME_SHIFT_64ND_19
NOTE_OFF_71
NOTE_OFF_62
NOTE_OFF_66
VEL_1
NOTE_ON_71
VEL_1
NOTE_ON_62
VEL_1
NOTE_ON_66
TIME_SHIFT_64ND_18
NOTE_OFF_71
VEL_1
NOTE_ON_71
TIME_SHIFT_64ND_19
NOTE_OFF_71
NOTE_OFF_62
NOTE_OFF_66
VEL_1
NOTE_ON_69
VEL_1
NOTE_ON_66
VEL_1
NOTE_ON_62
TIME_SHIFT_64ND_19
NOTE_OFF_69
VEL_1
NOTE_ON_69
TIME_SHIFT_64ND_21
NOTE_OFF_69
NOTE_OFF_66
NOTE_OFF_62
VEL_1
NOTE_ON_66
VEL_1
NOTE_ON_62
TIME_SHIFT_64ND_10
NOTE_OFF_35
VEL_1
NOTE_ON_50
TIME_SHIFT_64ND_10
NOTE_OFF_66
NOTE_OFF_50
VEL_1
NOTE_ON_66
VEL_1
NOTE_ON_54
TIME_SHIFT_64ND_10
NOTE_OFF_54
VEL_2
NOTE_ON_59
TIME_SHIFT_64ND_10
NOTE_OFF_66
NOTE_OFF_62
NOTE_OFF_59
VEL_1
NOTE_ON_66
VEL_2
NOTE_ON_62
TIME_SHIFT_64ND_19
NOTE_OFF_66
VEL_1
NOTE_ON_66
TIME_SHIFT_64ND_19
NOTE_OFF_66
NOTE_OFF_62
VEL_1
NOTE_ON_66
VEL_2
NOTE_ON_61
TIME_SHIFT_64ND_19
NOTE_OFF_66
VEL_1
NOTE_ON_66
TIME_SHIFT_64ND_10
NOTE_OFF_61
VEL_2
NOTE_ON_62
TIME_SHIFT_64ND_9
NOTE_OFF_62
NOTE_OFF_66
VEL_1
NOTE_ON_66
VEL_1
NOTE_ON_62
VEL_2
NOTE_ON_59
TIME_SHIFT_64ND_19
NOTE_OFF_66
VEL_1
NOTE_ON_66
TIME_SHIFT_64ND_19
NOTE_OFF_66
NOTE_OFF_62
VEL_1
NOTE_ON_66
VEL_1
NOTE_ON_62
TIME_SHIFT_64ND_19
NOTE_OFF_66
NOTE_OFF_59
VEL_1
NOTE_ON_66
VEL_1
NOTE_ON_54
TIME_SHIFT_64ND_21
NOTE_OFF_66
NOTE_OFF_62
NOTE_OFF_54
VEL_1
NOTE_ON_66
VEL_1
NOTE_ON_62
VEL_1
NOTE_ON_50
TIME_SHIFT_64ND_21
NOTE_OFF_66
NOTE_OFF_50
VEL_1
NOTE_ON_66
VEL_1
NOTE_ON_49
TIME_SHIFT_64ND_22
NOTE_OFF_66
NOTE_OFF_62
NOTE_OFF_49
VEL_1
NOTE_ON_66
VEL_1
NOTE_ON_62
VEL_1
NOTE_ON_47
TIME_SHIFT_64ND_22
NOTE_OFF_66
VEL_1
NOTE_ON_66
TIME_SHIFT_64ND_22
NOTE_OFF_66
NOTE_OFF_62
TIME_SHIFT_64ND_44
VEL_1
NOTE_ON_66
VEL_0
NOTE_ON_62
TIME_SHIFT_64ND_25
NOTE_OFF_66
VEL_1
NOTE_ON_66
TIME_SHIFT_64ND_29
NOTE_OFF_66
NOTE_OFF_62
VEL_1
NOTE_ON_66
VEL_0
NOTE_ON_62
TIME_SHIFT_64ND_37
NOTE_OFF_66
VEL_1
NOTE_ON_66
TIME_SHIFT_64ND_37
NOTE_OFF_66
NOTE_OFF_62
NOTE_OFF_47
