VEL_3
NOTE_ON_78
TIME_SHIFT_64ND_52
VEL_3
NOTE_ON_77
NOTE_OFF_78
TIME_SHIFT_64ND_6
NOTE_OFF_77
VEL_3
NOTE_ON_78
TIME_SHIFT_64ND_6
NOTE_OFF_78
VEL_3
NOTE_ON_80
TIME_SHIFT_64ND_5
NOTE_OFF_80
VEL_3
NOTE_ON_78
TIME_SHIFT_64ND_5
NOTE_OFF_78
VEL_3
NOTE_ON_76
TIME_SHIFT_64ND_5
NOTE_OFF_76
VEL_3
NOTE_ON_75
TIME_SHIFT_64ND_6
NOTE_OFF_75
VEL_2
NOTE_ON_73
VEL_2
NOTE_ON_64
VEL_2
NOTE_ON_58
TIME_SHIFT_64ND_6
NOTE_OFF_73
NOTE_OFF_64
NOTE_OFF_58
VEL_2
NOTE_ON_66
VEL_1
NOTE_ON_54
TIME_SHIFT_64ND_3
NOTE_OFF_66
VEL_2
NOTE_ON_70
TIME_SHIFT_64ND_3
NOTE_OFF_70
NOTE_OFF_54
VEL_2
NOTE_ON_68
VEL_2
NOTE_ON_49
TIME_SHIFT_64ND_6
NOTE_OFF_68
NOTE_OFF_49
VEL_2
NOTE_ON_66
VEL_1
NOTE_ON_42
TIME_SHIFT_64ND_5
NOTE_OFF_66
TIME_SHIFT_64ND_1
NOTE_OFF_42
VEL_2
NOTE_ON_66
VEL_2
NOTE_ON_49
TIME_SHIFT_64ND_5
NOTE_OFF_66
NOTE_OFF_49
VEL_2
NOTE_ON_75
VEL_2
NOTE_ON_54
TIME_SHIFT_64ND_5
NOTE_OFF_75
NOTE_OFF_54
VEL_2
NOTE_ON_73
VEL_2
NOTE_ON_64
VEL_2
NOTE_ON_58
TIME_SHIFT_64ND_6
NOTE_OFF_73
NOTE_OFF_64
NOTE_OFF_58
VEL_2
NOTE_ON_66
VEL_2
NOTE_ON_54
TIME_SHIFT_64ND_3
NOTE_OFF_66
VEL_2
NOTE_ON_70
TIME_SHIFT_64ND_3
NOTE_OFF_70
NOTE_OFF_54
VEL_2
NOTE_ON_68
VEL_2
NOTE_ON_49
TIME_SHIFT_64ND_5
NOTE_OFF_68
NOTE_OFF_49
VEL_2
NOTE_ON_66
VEL_2
NOTE_ON_42
TIME_SHIFT_64ND_5
NOTE_OFF_66
TIME_SHIFT_64ND_1
NOTE_OFF_42
VEL_2
NOTE_ON_66
VEL_2
NOTE_ON_49
TIME_SHIFT_64ND_5
NOTE_OFF_66
NOTE_OFF_49
VEL_2
NOTE_ON_75
VEL_2
NOTE_ON_54
TIME_SHIFT_64ND_5
NOTE_OFF_75
NOTE_OFF_54
VEL_3
NOTE_ON_73
VEL_2
NOTE_ON_64
VEL_2
NOTE_ON_47
TIME_SHIFT_64ND_5
NOTE_OFF_73
NOTE_OFF_64
NOTE_OFF_47
VEL_3
NOTE_ON_66
VEL_2
NOTE_ON_54
TIME_SHIFT_64ND_5
NOTE_OFF_66
NOTE_OFF_54
VEL_3
NOTE_ON_71
VEL_3
NOTE_ON_63
VEL_2
NOTE_ON_47
TIME_SHIFT_64ND_5
NOTE_OFF_71
NOTE_OFF_63
NOTE_OFF_47
VEL_3
NOTE_ON_66
VEL_2
NOTE_ON_54
TIME_SHIFT_64ND_5
NOTE_OFF_66
NOTE_OFF_54
VEL_3
NOTE_ON_75
VEL_3
NOTE_ON_71
VEL_2
NOTE_ON_51
TIME_SHIFT_64ND_5
NOTE_OFF_75
NOTE_OFF_71
NOTE_OFF_51
VEL_3
NOTE_ON_66
VEL_2
NOTE_ON_59
TIME_SHIFT_64ND_5
NOTE_OFF_66
NOTE_OFF_59
VEL_3
NOTE_ON_77
VEL_2
NOTE_ON_71
VEL_2
NOTE_ON_63
TIME_SHIFT_64ND_5
NOTE_OFF_77
NOTE_OFF_71
NOTE_OFF_63
VEL_3
NOTE_ON_78
VEL_2
NOTE_ON_66
VEL_2
NOTE_ON_54
TIME_SHIFT_64ND_5
NOTE_OFF_78
NOTE_OFF_66
NOTE_OFF_54
VEL_3
NOTE_ON_71
VEL_3
NOTE_ON_80
VEL_2
NOTE_ON_59
TIME_SHIFT_64ND_5
NOTE_OFF_71
NOTE_OFF_80
NOTE_OFF_59
VEL_3
NOTE_ON_78
VEL_3
NOTE_ON_66
VEL_2
NOTE_ON_51
TIME_SHIFT_64ND_5
NOTE_OFF_78
NOTE_OFF_66
NOTE_OFF_51
VEL_3
NOTE_ON_76
VEL_2
NOTE_ON_71
VEL_2
NOTE_ON_54
TIME_SHIFT_64ND_5
NOTE_OFF_76
NOTE_OFF_71
NOTE_OFF_54
VEL_3
NOTE_ON_75
VEL_2
NOTE_ON_66
VEL_2
NOTE_ON_47
TIME_SHIFT_64ND_5
NOTE_OFF_75
NOTE_OFF_66
NOTE_OFF_47
VEL_3
NOTE_ON_73
VEL_3
NOTE_ON_64
VEL_2
NOTE_ON_58
TIME_SHIFT_64ND_5
NOTE_OFF_73
NOTE_OFF_64
NOTE_OFF_58
VEL_3
NOTE_ON_66
VEL_2
NOTE_ON_54
TIME_SHIFT_64ND_3
NOTE_OFF_66
VEL_2
NOTE_ON_70
TIME_SHIFT_64ND_3
NOTE_OFF_70
NOTE_OFF_54
VEL_3
NOTE_ON_68
VEL_2
NOTE_ON_49
TIME_SHIFT_64ND_5
NOTE_OFF_68
NOTE_OFF_49
VEL_3
NOTE_ON_66
VEL_2
NOTE_ON_42
TIME_SHIFT_64ND_5
NOTE_OFF_66
TIME_SHIFT_64ND_1
NOTE_OFF_42
VEL_3
NOTE_ON_66
VEL_2
NOTE_ON_49
TIME_SHIFT_64ND_5
NOTE_OFF_66
NOTE_OFF_49
VEL_3
NOTE_ON_75
VEL_2
NOTE_ON_54
TIME_SHIFT_64ND_5
NOTE_OFF_75
NOTE_OFF_54
VEL_3
NOTE_ON_73
VEL_3
NOTE_ON_64
VEL_2
NOTE_ON_58
TIME_SHIFT_64ND_5
NOTE_OFF_73
NOTE_OFF_64
NOTE_OFF_58
VEL_3
NOTE_ON_66
VEL_2
NOTE_ON_54
TIME_SHIFT_64ND_3
NOTE_OFF_66
VEL_2
NOTE_ON_70
TIME_SHIFT_64ND_3
NOTE_OFF_70
NOTE_OFF_54
VEL_3
NOTE_ON_68
VEL_2
NOTE_ON_49
TIME_SHIFT_64ND_5
NOTE_OFF_68
NOTE_OFF_49
VEL_3
NOTE_ON_66
VEL_2
NOTE_ON_42
TIME_SHIFT_64ND_5
NOTE_OFF_66
TIME_SHIFT_64ND_1
NOTE_OFF_42
VEL_3
NOTE_ON_66
VEL_2
NOTE_ON_49
TIME_SHIFT_64ND_5
NOTE_OFF_66
NOTE_OFF_49
VEL_3
NOTE_ON_75
VEL_2
NOTE_ON_54
TIME_SHIFT_64ND_5
NOTE_OFF_75
NOTE_OFF_54
VEL_3
NOTE_ON_73
VEL_3
NOTE_ON_64
VEL_2
NOTE_ON_47
TIME_SHIFT_64ND_5
NOTE_OFF_73
NOTE_OFF_64
NOTE_OFF_47
VEL_3
NOTE_ON_66
VEL_2
NOTE_ON_54
TIME_SHIFT_64ND_5
NOTE_OFF_66
NOTE_OFF_54
VEL_4
NOTE_ON_71
VEL_3
NOTE_ON_63
VEL_2
NOTE_ON_47
TIME_SHIFT_64ND_5
NOTE_OFF_71
NOTE_OFF_63
NOTE_OFF_47
VEL_3
NOTE_ON_66
VEL_2
NOTE_ON_54
TIME_SHIFT_64ND_5
NOTE_OFF_66
NOTE_OFF_54
VEL_4
NOTE_ON_75
VEL_3
NOTE_ON_71
VEL_3
NOTE_ON_51
TIME_SHIFT_64ND_5
NOTE_OFF_75
NOTE_OFF_71
NOTE_OFF_51
VEL_3
NOTE_ON_66
VEL_2
NOTE_ON_59
TIME_SHIFT_64ND_5
NOTE_OFF_66
NOTE_OFF_59
VEL_4
NOTE_ON_78
VEL_3
NOTE_ON_71
VEL_3
NOTE_ON_63
TIME_SHIFT_64ND_5
NOTE_OFF_78
NOTE_OFF_71
NOTE_OFF_63
VEL_4
NOTE_ON_66
VEL_2
NOTE_ON_54
TIME_SHIFT_64ND_5
NOTE_OFF_66
NOTE_OFF_54
VEL_3
NOTE_ON_71
VEL_4
NOTE_ON_79
VEL_3
NOTE_ON_61
TIME_SHIFT_64ND_5
NOTE_OFF_71
NOTE_OFF_79
NOTE_OFF_61
VEL_4
NOTE_ON_67
VEL_3
NOTE_ON_52
TIME_SHIFT_64ND_5
NOTE_OFF_67
NOTE_OFF_52
VEL_4
NOTE_ON_71
VEL_4
NOTE_ON_80
VEL_3
NOTE_ON_59
TIME_SHIFT_64ND_5
NOTE_OFF_71
NOTE_OFF_80
NOTE_OFF_59
VEL_4
NOTE_ON_68
VEL_3
NOTE_ON_51
TIME_SHIFT_64ND_5
NOTE_OFF_68
NOTE_OFF_51
VEL_4
NOTE_ON_83
VEL_4
NOTE_ON_75
VEL_3
NOTE_ON_44
TIME_SHIFT_64ND_5
NOTE_OFF_83
NOTE_OFF_75
NOTE_OFF_44
VEL_4
NOTE_ON_75
VEL_2
NOTE_ON_51
TIME_SHIFT_64ND_2
NOTE_OFF_75
VEL_2
NOTE_ON_78
TIME_SHIFT_64ND_2
NOTE_OFF_78
NOTE_OFF_51
VEL_4
NOTE_ON_76
VEL_3
NOTE_ON_63
TIME_SHIFT_64ND_5
NOTE_OFF_76
NOTE_OFF_63
VEL_4
NOTE_ON_75
VEL_2
NOTE_ON_56
TIME_SHIFT_64ND_5
NOTE_OFF_75
NOTE_OFF_56
VEL_4
NOTE_ON_71
VEL_3
NOTE_ON_63
TIME_SHIFT_64ND_5
NOTE_OFF_71
NOTE_OFF_63
VEL_3
NOTE_ON_80
VEL_3
NOTE_ON_83
VEL_2
NOTE_ON_59
TIME_SHIFT_64ND_5
NOTE_OFF_80
NOTE_OFF_83
NOTE_OFF_59
VEL_4
NOTE_ON_82
VEL_3
NOTE_ON_78
VEL_2
NOTE_ON_51
TIME_SHIFT_64ND_5
NOTE_OFF_82
NOTE_OFF_78
NOTE_OFF_51
VEL_4
NOTE_ON_75
VEL_2
NOTE_ON_66
TIME_SHIFT_64ND_5
NOTE_OFF_75
NOTE_OFF_66
VEL_4
NOTE_ON_70
VEL_3
NOTE_ON_58
TIME_SHIFT_64ND_2
NOTE_OFF_70
VEL_2
NOTE_ON_73
TIME_SHIFT_64ND_2
NOTE_OFF_73
NOTE_OFF_58
VEL_4
NOTE_ON_71
VEL_2
NOTE_ON_54
TIME_SHIFT_64ND_5
NOTE_OFF_71
NOTE_OFF_54
VEL_3
NOTE_ON_70
VEL_2
NOTE_ON_63
TIME_SHIFT_64ND_5
NOTE_OFF_70
NOTE_OFF_63
VEL_3
NOTE_ON_75
VEL_3
NOTE_ON_78
VEL_3
NOTE_ON_58
TIME_SHIFT_64ND_5
NOTE_OFF_75
NOTE_OFF_78
NOTE_OFF_58
VEL_3
NOTE_ON_68
VEL_3
NOTE_ON_71
VEL_3
NOTE_ON_40
TIME_SHIFT_64ND_5
NOTE_OFF_68
NOTE_OFF_40
VEL_3
NOTE_ON_64
VEL_2
NOTE_ON_59
TIME_SHIFT_64ND_3
NOTE_OFF_64
VEL_3
NOTE_ON_68
TIME_SHIFT_64ND_3
NOTE_OFF_68
NOTE_OFF_59
VEL_3
NOTE_ON_66
VEL_2
NOTE_ON_47
TIME_SHIFT_64ND_5
NOTE_OFF_66
NOTE_OFF_47
VEL_3
NOTE_ON_64
VEL_2
NOTE_ON_56
TIME_SHIFT_64ND_6
NOTE_OFF_64
NOTE_OFF_56
VEL_3
NOTE_ON_68
VEL_2
NOTE_ON_59
TIME_SHIFT_64ND_6
NOTE_OFF_71
NOTE_OFF_59
VEL_3
NOTE_ON_73
VEL_2
NOTE_ON_52
TIME_SHIFT_64ND_5
NOTE_OFF_73
NOTE_OFF_68
NOTE_OFF_52
VEL_3
NOTE_ON_71
VEL_3
NOTE_ON_75
VEL_2
NOTE_ON_47
TIME_SHIFT_64ND_5
NOTE_OFF_71
NOTE_OFF_47
VEL_3
NOTE_ON_63
VEL_2
NOTE_ON_53
TIME_SHIFT_64ND_5
NOTE_OFF_63
NOTE_OFF_53
VEL_3
NOTE_ON_66
VEL_2
NOTE_ON_54
TIME_SHIFT_64ND_6
NOTE_OFF_66
NOTE_OFF_54
VEL_3
NOTE_ON_63
VEL_3
NOTE_ON_61
TIME_SHIFT_64ND_6
NOTE_OFF_63
NOTE_OFF_61
VEL_3
NOTE_ON_66
VEL_2
NOTE_ON_59
TIME_SHIFT_64ND_6
NOTE_OFF_66
NOTE_OFF_59
VEL_3
NOTE_ON_68
VEL_2
NOTE_ON_56
TIME_SHIFT_64ND_6
NOTE_OFF_68
NOTE_OFF_75
NOTE_OFF_56
VEL_3
NOTE_ON_73
VEL_3
NOTE_ON_64
VEL_2
NOTE_ON_58
TIME_SHIFT_64ND_6
NOTE_OFF_73
NOTE_OFF_64
NOTE_OFF_58
VEL_3
NOTE_ON_66
VEL_1
NOTE_ON_54
TIME_SHIFT_64ND_3
NOTE_OFF_66
VEL_2
NOTE_ON_68
TIME_SHIFT_64ND_1
NOTE_OFF_68
VEL_2
NOTE_ON_70
TIME_SHIFT_64ND_1
NOTE_OFF_70
NOTE_OFF_54
VEL_3
NOTE_ON_68
VEL_2
NOTE_ON_49
TIME_SHIFT_64ND_6
NOTE_OFF_68
NOTE_OFF_49
VEL_3
NOTE_ON_66
VEL_1
NOTE_ON_42
TIME_SHIFT_64ND_5
NOTE_OFF_66
TIME_SHIFT_64ND_1
NOTE_OFF_42
VEL_3
NOTE_ON_66
VEL_2
NOTE_ON_49
TIME_SHIFT_64ND_6
NOTE_OFF_66
NOTE_OFF_49
VEL_3
NOTE_ON_75
VEL_2
NOTE_ON_54
TIME_SHIFT_64ND_6
NOTE_OFF_75
NOTE_OFF_54
VEL_3
NOTE_ON_73
VEL_2
NOTE_ON_64
VEL_2
NOTE_ON_58
TIME_SHIFT_64ND_6
NOTE_OFF_73
NOTE_OFF_64
NOTE_OFF_58
VEL_3
NOTE_ON_66
VEL_2
NOTE_ON_54
TIME_SHIFT_64ND_3
NOTE_OFF_66
VEL_2
NOTE_ON_68
TIME_SHIFT_64ND_1
NOTE_OFF_68
VEL_2
NOTE_ON_70
TIME_SHIFT_64ND_1
NOTE_OFF_70
NOTE_OFF_54
VEL_3
NOTE_ON_68
VEL_2
NOTE_ON_49
TIME_SHIFT_64ND_6
NOTE_OFF_68
NOTE_OFF_49
VEL_2
NOTE_ON_66
VEL_1
NOTE_ON_42
TIME_SHIFT_64ND_5
NOTE_OFF_66
TIME_SHIFT_64ND_1
NOTE_OFF_42
VEL_2
NOTE_ON_66
VEL_2
NOTE_ON_49
TIME_SHIFT_64ND_6
NOTE_OFF_66
NOTE_OFF_49
VEL_2
NOTE_ON_75
VEL_1
NOTE_ON_54
TIME_SHIFT_64ND_6
NOTE_OFF_75
NOTE_OFF_54
VEL_3
NOTE_ON_73
VEL_2
NOTE_ON_64
VEL_2
NOTE_ON_35
TIME_SHIFT_64ND_6
NOTE_OFF_73
NOTE_OFF_64
NOTE_OFF_35
VEL_2
NOTE_ON_66
VEL_2
NOTE_ON_42
TIME_SHIFT_64ND_6
NOTE_OFF_66
NOTE_OFF_42
VEL_3
NOTE_ON_71
VEL_2
NOTE_ON_63
VEL_2
NOTE_ON_47
TIME_SHIFT_64ND_6
NOTE_OFF_71
NOTE_OFF_63
NOTE_OFF_47
VEL_2
NOTE_ON_66
VEL_1
NOTE_ON_54
TIME_SHIFT_64ND_6
NOTE_OFF_66
NOTE_OFF_54
VEL_3
NOTE_ON_75
VEL_2
NOTE_ON_71
VEL_2
NOTE_ON_51
TIME_SHIFT_64ND_6
NOTE_OFF_75
NOTE_OFF_71
NOTE_OFF_51
VEL_3
NOTE_ON_66
VEL_2
NOTE_ON_59
TIME_SHIFT_64ND_6
NOTE_OFF_66
NOTE_OFF_59
VEL_2
NOTE_ON_77
VEL_2
NOTE_ON_71
VEL_1
NOTE_ON_62
TIME_SHIFT_64ND_6
NOTE_OFF_77
NOTE_OFF_71
NOTE_OFF_62
VEL_2
NOTE_ON_78
VEL_2
NOTE_ON_66
VEL_1
NOTE_ON_63
TIME_SHIFT_64ND_6
NOTE_OFF_78
NOTE_OFF_66
NOTE_OFF_63
VEL_2
NOTE_ON_80
VEL_2
NOTE_ON_71
VEL_1
NOTE_ON_64
TIME_SHIFT_64ND_6
NOTE_OFF_80
NOTE_OFF_71
NOTE_OFF_64
VEL_2
NOTE_ON_78
VEL_2
NOTE_ON_66
VEL_1
NOTE_ON_63
TIME_SHIFT_64ND_6
NOTE_OFF_78
NOTE_OFF_66
NOTE_OFF_63
VEL_2
NOTE_ON_76
VEL_2
NOTE_ON_71
VEL_1
NOTE_ON_61
TIME_SHIFT_64ND_6
NOTE_OFF_76
NOTE_OFF_71
NOTE_OFF_61
VEL_2
NOTE_ON_75
VEL_2
NOTE_ON_66
VEL_1
NOTE_ON_59
TIME_SHIFT_64ND_6
NOTE_OFF_75
NOTE_OFF_66
NOTE_OFF_59
VEL_2
NOTE_ON_73
VEL_2
NOTE_ON_64
VEL_2
NOTE_ON_58
TIME_SHIFT_64ND_6
NOTE_OFF_73
NOTE_OFF_64
NOTE_OFF_58
VEL_2
NOTE_ON_66
TIME_SHIFT_64ND_3
NOTE_OFF_66
VEL_2
NOTE_ON_68
TIME_SHIFT_64ND_2
NOTE_OFF_68
VEL_2
NOTE_ON_70
TIME_SHIFT_64ND_2
NOTE_OFF_70
VEL_2
NOTE_ON_68
VEL_1
NOTE_ON_49
TIME_SHIFT_64ND_6
NOTE_OFF_68
NOTE_OFF_49
VEL_2
NOTE_ON_66
VEL_1
NOTE_ON_42
TIME_SHIFT_64ND_5
NOTE_OFF_66
TIME_SHIFT_64ND_1
NOTE_OFF_42
VEL_2
NOTE_ON_66
VEL_1
NOTE_ON_49
TIME_SHIFT_64ND_6
NOTE_OFF_66
NOTE_OFF_49
VEL_2
NOTE_ON_75
VEL_1
NOTE_ON_54
TIME_SHIFT_64ND_6
NOTE_OFF_75
NOTE_OFF_54
VEL_3
NOTE_ON_73
VEL_2
NOTE_ON_64
VEL_2
NOTE_ON_58
TIME_SHIFT_64ND_6
NOTE_OFF_73
NOTE_OFF_64
NOTE_OFF_58
VEL_2
NOTE_ON_66
VEL_1
NOTE_ON_54
TIME_SHIFT_64ND_3
NOTE_OFF_66
VEL_1
NOTE_ON_68
TIME_SHIFT_64ND_2
NOTE_OFF_68
VEL_1
NOTE_ON_70
TIME_SHIFT_64ND_2
NOTE_OFF_70
NOTE_OFF_54
VEL_2
NOTE_ON_68
VEL_2
NOTE_ON_49
TIME_SHIFT_64ND_6
NOTE_OFF_68
NOTE_OFF_49
VEL_2
NOTE_ON_66
VEL_1
NOTE_ON_42
TIME_SHIFT_64ND_6
NOTE_OFF_66
TIME_SHIFT_64ND_1
NOTE_OFF_42
VEL_2
NOTE_ON_66
VEL_1
NOTE_ON_49
TIME_SHIFT_64ND_6
NOTE_OFF_66
NOTE_OFF_49
VEL_2
NOTE_ON_78
VEL_2
NOTE_ON_58
TIME_SHIFT_64ND_6
VEL_3
NOTE_ON_63
TIME_SHIFT_64ND_2
NOTE_OFF_78
NOTE_OFF_58
VEL_3
NOTE_ON_78
VEL_2
NOTE_ON_54
VEL_2
NOTE_ON_47
TIME_SHIFT_64ND_41
NOTE_OFF_78
NOTE_OFF_63
NOTE_OFF_54
NOTE_OFF_47
VEL_3
NOTE_ON_77
TIME_SHIFT_64ND_7
NOTE_OFF_77
VEL_3
NOTE_ON_78
TIME_SHIFT_64ND_7
NOTE_OFF_78
VEL_3
NOTE_ON_80
TIME_SHIFT_64ND_7
NOTE_OFF_80
VEL_3
NOTE_ON_78
TIME_SHIFT_64ND_7
NOTE_OFF_78
VEL_3
NOTE_ON_76
TIME_SHIFT_64ND_6
NOTE_OFF_76
VEL_3
NOTE_ON_75
TIME_SHIFT_64ND_6
NOTE_OFF_75
VEL_3
NOTE_ON_75
TIME_SHIFT_64ND_20
NOTE_OFF_75
VEL_2
NOTE_ON_74
VEL_2
NOTE_ON_67
VEL_1
NOTE_ON_51
VEL_2
NOTE_ON_58
TIME_SHIFT_64ND_6
NOTE_OFF_74
NOTE_OFF_67
VEL_3
NOTE_ON_75
TIME_SHIFT_64ND_6
NOTE_OFF_75
VEL_3
NOTE_ON_76
TIME_SHIFT_64ND_6
NOTE_OFF_76
NOTE_OFF_51
NOTE_OFF_58
VEL_2
NOTE_ON_75
VEL_2
NOTE_ON_68
VEL_2
NOTE_ON_59
VEL_1
NOTE_ON_56
TIME_SHIFT_64ND_6
NOTE_OFF_75
VEL_3
NOTE_ON_73
TIME_SHIFT_64ND_6
NOTE_OFF_73
VEL_3
NOTE_ON_71
TIME_SHIFT_64ND_7
NOTE_OFF_71
NOTE_OFF_68
NOTE_OFF_59
NOTE_OFF_56
VEL_2
NOTE_ON_75
VEL_2
NOTE_ON_64
VEL_2
NOTE_ON_58
VEL_1
NOTE_ON_54
TIME_SHIFT_64ND_7
NOTE_OFF_75
VEL_3
NOTE_ON_73
TIME_SHIFT_64ND_7
NOTE_OFF_73
VEL_3
NOTE_ON_71
TIME_SHIFT_64ND_7
NOTE_OFF_71
NOTE_OFF_64
NOTE_OFF_58
NOTE_OFF_54
VEL_2
NOTE_ON_71
VEL_2
NOTE_ON_63
VEL_1
NOTE_ON_47
VEL_2
NOTE_ON_54
TIME_SHIFT_64ND_40
NOTE_OFF_71
NOTE_OFF_63
NOTE_OFF_47
NOTE_OFF_54
VEL_2
NOTE_ON_66
VEL_2
NOTE_ON_63
VEL_1
NOTE_ON_47
VEL_1
NOTE_ON_35
VEL_1
NOTE_ON_54
TIME_SHIFT_64ND_20
NOTE_OFF_47
NOTE_OFF_35
VEL_1
NOTE_ON_30
VEL_1
NOTE_ON_42
TIME_SHIFT_64ND_26
NOTE_OFF_66
NOTE_OFF_63
NOTE_OFF_30
NOTE_OFF_42
NOTE_OFF_54
VEL_2
NOTE_ON_63
VEL_1
NOTE_ON_54
VEL_1
NOTE_ON_59
VEL_1
NOTE_ON_47
VEL_1
NOTE_ON_35
TIME_SHIFT_64ND_52
NOTE_OFF_63
NOTE_OFF_54
NOTE_OFF_59
NOTE_OFF_47
NOTE_OFF_35
