VEL_5
NOTE_ON_59
VEL_3
NOTE_ON_56
VEL_3
NOTE_ON_52
VEL_3
NOTE_ON_40
TIME_SHIFT_64ND_18
VEL_3
NOTE_ON_47
NOTE_OFF_56
NOTE_OFF_52
TIME_SHIFT_64ND_18
NOTE_OFF_47
VEL_3
NOTE_ON_56
VEL_2
NOTE_ON_52
TIME_SHIFT_64ND_18
NOTE_OFF_59
NOTE_OFF_56
NOTE_OFF_52
VEL_4
NOTE_ON_59
VEL_3
NOTE_ON_54
VEL_2
NOTE_ON_51
VEL_3
NOTE_ON_35
NOTE_OFF_40
TIME_SHIFT_64ND_18
NOTE_OFF_54
NOTE_OFF_51
VEL_3
NOTE_ON_47
TIME_SHIFT_64ND_18
NOTE_OFF_47
VEL_2
NOTE_ON_54
VEL_2
NOTE_ON_51
TIME_SHIFT_64ND_9
NOTE_OFF_59
VEL_4
NOTE_ON_59
TIME_SHIFT_64ND_9
NOTE_OFF_59
NOTE_OFF_54
NOTE_OFF_51
NOTE_OFF_35
VEL_5
NOTE_ON_59
VEL_3
NOTE_ON_56
VEL_3
NOTE_ON_52
VEL_4
NOTE_ON_40
TIME_SHIFT_64ND_18
NOTE_OFF_56
NOTE_OFF_52
VEL_2
NOTE_ON_47
TIME_SHIFT_64ND_18
NOTE_OFF_47
VEL_2
NOTE_ON_56
VEL_2
NOTE_ON_52
TIME_SHIFT_64ND_18
NOTE_OFF_59
NOTE_OFF_56
NOTE_OFF_52
NOTE_OFF_40
VEL_4
NOTE_ON_61
VEL_3
NOTE_ON_57
VEL_3
NOTE_ON_52
VEL_4
NOTE_ON_45
TIME_SHIFT_64ND_18
NOTE_OFF_57
NOTE_OFF_52
VEL_2
NOTE_ON_49
TIME_SHIFT_64ND_19
NOTE_OFF_49
VEL_2
NOTE_ON_57
VEL_2
NOTE_ON_52
TIME_SHIFT_64ND_12
NOTE_OFF_45
VEL_4
NOTE_ON_44
TIME_SHIFT_64ND_7
NOTE_OFF_61
NOTE_OFF_57
NOTE_OFF_52
NOTE_OFF_44
VEL_4
NOTE_ON_61
VEL_4
NOTE_ON_57
VEL_3
NOTE_ON_54
VEL_3
NOTE_ON_42
TIME_SHIFT_64ND_19
NOTE_OFF_57
NOTE_OFF_54
VEL_2
NOTE_ON_49
TIME_SHIFT_64ND_19
NOTE_OFF_49
VEL_2
NOTE_ON_57
VEL_2
NOTE_ON_54
TIME_SHIFT_64ND_19
NOTE_OFF_61
NOTE_OFF_57
NOTE_OFF_54
VEL_4
NOTE_ON_63
VEL_3
NOTE_ON_57
VEL_3
NOTE_ON_54
TIME_SHIFT_64ND_18
NOTE_OFF_57
NOTE_OFF_54
VEL_2
NOTE_ON_49
TIME_SHIFT_64ND_18
NOTE_OFF_49
VEL_2
NOTE_ON_57
VEL_1
NOTE_ON_54
TIME_SHIFT_64ND_9
NOTE_OFF_63
VEL_4
NOTE_ON_63
TIME_SHIFT_64ND_9
NOTE_OFF_63
NOTE_OFF_57
NOTE_OFF_54
NOTE_OFF_42
VEL_4
NOTE_ON_63
VEL_3
NOTE_ON_59
VEL_3
NOTE_ON_54
VEL_3
NOTE_ON_35
TIME_SHIFT_64ND_19
NOTE_OFF_59
NOTE_OFF_54
VEL_2
NOTE_ON_51
TIME_SHIFT_64ND_19
NOTE_OFF_51
VEL_2
NOTE_ON_59
VEL_2
NOTE_ON_54
TIME_SHIFT_64ND_19
NOTE_OFF_63
NOTE_OFF_59
NOTE_OFF_54
NOTE_OFF_35
VEL_4
NOTE_ON_63
VEL_3
NOTE_ON_59
VEL_3
NOTE_ON_56
VEL_3
NOTE_ON_47
TIME_SHIFT_64ND_18
NOTE_OFF_59
NOTE_OFF_56
VEL_2
NOTE_ON_51
TIME_SHIFT_64ND_18
NOTE_OFF_51
VEL_2
NOTE_ON_59
VEL_2
NOTE_ON_56
TIME_SHIFT_64ND_11
NOTE_OFF_47
VEL_3
NOTE_ON_47
TIME_SHIFT_64ND_7
NOTE_OFF_63
NOTE_OFF_59
NOTE_OFF_56
NOTE_OFF_47
VEL_4
NOTE_ON_64
VEL_3
NOTE_ON_59
VEL_3
NOTE_ON_56
VEL_4
NOTE_ON_37
TIME_SHIFT_64ND_19
NOTE_OFF_59
NOTE_OFF_56
VEL_3
NOTE_ON_52
TIME_SHIFT_64ND_19
NOTE_OFF_52
VEL_2
NOTE_ON_59
VEL_2
NOTE_ON_56
TIME_SHIFT_64ND_19
NOTE_OFF_64
NOTE_OFF_59
NOTE_OFF_56
NOTE_OFF_37
VEL_4
NOTE_ON_64
VEL_3
NOTE_ON_54
VEL_3
NOTE_ON_61
VEL_4
NOTE_ON_45
TIME_SHIFT_64ND_19
NOTE_OFF_54
NOTE_OFF_61
VEL_2
NOTE_ON_52
TIME_SHIFT_64ND_19
NOTE_OFF_52
VEL_2
NOTE_ON_54
VEL_2
NOTE_ON_61
TIME_SHIFT_64ND_9
NOTE_OFF_64
VEL_5
NOTE_ON_64
TIME_SHIFT_64ND_2
NOTE_OFF_45
VEL_4
NOTE_ON_45
TIME_SHIFT_64ND_7
NOTE_OFF_64
NOTE_OFF_54
NOTE_OFF_61
NOTE_OFF_45
VEL_5
NOTE_ON_64
VEL_3
NOTE_ON_54
VEL_4
NOTE_ON_59
VEL_4
NOTE_ON_35
TIME_SHIFT_64ND_19
NOTE_OFF_54
NOTE_OFF_59
VEL_2
NOTE_ON_52
TIME_SHIFT_64ND_19
NOTE_OFF_52
VEL_2
NOTE_ON_54
VEL_2
NOTE_ON_59
TIME_SHIFT_64ND_14
NOTE_OFF_35
VEL_2
NOTE_ON_34
TIME_SHIFT_64ND_3
NOTE_OFF_34
VEL_2
NOTE_ON_35
TIME_SHIFT_64ND_3
NOTE_OFF_64
NOTE_OFF_54
NOTE_OFF_59
NOTE_OFF_35
VEL_5
NOTE_ON_63
VEL_3
NOTE_ON_54
VEL_4
NOTE_ON_59
VEL_2
NOTE_ON_37
TIME_SHIFT_64ND_3
NOTE_OFF_37
VEL_2
NOTE_ON_35
TIME_SHIFT_64ND_3
NOTE_OFF_35
VEL_2
NOTE_ON_37
TIME_SHIFT_64ND_3
NOTE_OFF_37
VEL_2
NOTE_ON_35
TIME_SHIFT_64ND_3
NOTE_OFF_35
VEL_2
NOTE_ON_37
TIME_SHIFT_64ND_3
NOTE_OFF_37
VEL_2
NOTE_ON_35
TIME_SHIFT_64ND_3
NOTE_OFF_35
VEL_2
NOTE_ON_37
TIME_SHIFT_64ND_2
NOTE_OFF_54
NOTE_OFF_59
VEL_2
NOTE_ON_51
TIME_SHIFT_64ND_1
NOTE_OFF_37
VEL_2
NOTE_ON_35
TIME_SHIFT_64ND_3
NOTE_OFF_35
VEL_2
NOTE_ON_37
TIME_SHIFT_64ND_3
NOTE_OFF_37
VEL_2
NOTE_ON_35
TIME_SHIFT_64ND_3
NOTE_OFF_35
VEL_2
NOTE_ON_37
TIME_SHIFT_64ND_3
NOTE_OFF_37
VEL_2
NOTE_ON_35
TIME_SHIFT_64ND_3
NOTE_OFF_35
VEL_2
NOTE_ON_37
TIME_SHIFT_64ND_3
NOTE_OFF_37
VEL_3
NOTE_ON_35
TIME_SHIFT_64ND_1
NOTE_OFF_51
VEL_2
NOTE_ON_54
VEL_3
NOTE_ON_59
TIME_SHIFT_64ND_2
NOTE_OFF_35
VEL_3
NOTE_ON_37
TIME_SHIFT_64ND_3
NOTE_OFF_37
VEL_3
NOTE_ON_35
TIME_SHIFT_64ND_3
NOTE_OFF_35
VEL_3
NOTE_ON_37
TIME_SHIFT_64ND_2
NOTE_OFF_63
VEL_5
NOTE_ON_63
TIME_SHIFT_64ND_1
NOTE_OFF_37
VEL_3
NOTE_ON_35
TIME_SHIFT_64ND_3
NOTE_OFF_35
VEL_3
NOTE_ON_34
TIME_SHIFT_64ND_3
NOTE_OFF_34
VEL_3
NOTE_ON_35
TIME_SHIFT_64ND_3
NOTE_OFF_63
NOTE_OFF_54
NOTE_OFF_59
NOTE_OFF_35
VEL_5
NOTE_ON_63
VEL_4
NOTE_ON_59
VEL_3
NOTE_ON_56
VEL_3
NOTE_ON_37
TIME_SHIFT_64ND_19
NOTE_OFF_59
NOTE_OFF_56
VEL_3
NOTE_ON_52
TIME_SHIFT_64ND_19
NOTE_OFF_52
VEL_2
NOTE_ON_59
VEL_2
NOTE_ON_56
TIME_SHIFT_64ND_19
NOTE_OFF_63
NOTE_OFF_59
NOTE_OFF_56
NOTE_OFF_37
VEL_5
NOTE_ON_63
VEL_4
NOTE_ON_58
VEL_3
NOTE_ON_54
VEL_4
NOTE_ON_42
TIME_SHIFT_64ND_19
NOTE_OFF_58
NOTE_OFF_54
VEL_2
NOTE_ON_52
TIME_SHIFT_64ND_19
NOTE_OFF_52
VEL_2
NOTE_ON_58
VEL_2
NOTE_ON_54
TIME_SHIFT_64ND_10
NOTE_OFF_63
VEL_4
NOTE_ON_61
TIME_SHIFT_64ND_2
NOTE_OFF_42
VEL_3
NOTE_ON_42
TIME_SHIFT_64ND_8
NOTE_OFF_61
NOTE_OFF_58
NOTE_OFF_54
NOTE_OFF_42
VEL_4
NOTE_ON_61
VEL_3
NOTE_ON_57
VEL_2
NOTE_ON_54
VEL_3
NOTE_ON_39
TIME_SHIFT_64ND_19
NOTE_OFF_57
NOTE_OFF_54
VEL_2
NOTE_ON_49
TIME_SHIFT_64ND_19
NOTE_OFF_49
VEL_2
NOTE_ON_57
VEL_2
NOTE_ON_54
TIME_SHIFT_64ND_13
NOTE_OFF_39
VEL_2
NOTE_ON_38
TIME_SHIFT_64ND_3
NOTE_OFF_38
VEL_2
NOTE_ON_39
TIME_SHIFT_64ND_3
NOTE_OFF_61
NOTE_OFF_57
NOTE_OFF_54
NOTE_OFF_39
VEL_4
NOTE_ON_61
VEL_3
NOTE_ON_57
VEL_2
NOTE_ON_54
VEL_2
NOTE_ON_40
TIME_SHIFT_64ND_3
NOTE_OFF_40
VEL_2
NOTE_ON_39
TIME_SHIFT_64ND_3
NOTE_OFF_39
VEL_2
NOTE_ON_40
TIME_SHIFT_64ND_3
NOTE_OFF_40
VEL_2
NOTE_ON_39
TIME_SHIFT_64ND_3
NOTE_OFF_39
VEL_2
NOTE_ON_40
TIME_SHIFT_64ND_3
NOTE_OFF_40
VEL_2
NOTE_ON_39
TIME_SHIFT_64ND_3
NOTE_OFF_39
VEL_2
NOTE_ON_40
TIME_SHIFT_64ND_2
NOTE_OFF_57
NOTE_OFF_54
VEL_2
NOTE_ON_47
TIME_SHIFT_64ND_1
NOTE_OFF_40
VEL_2
NOTE_ON_39
TIME_SHIFT_64ND_3
NOTE_OFF_39
VEL_2
NOTE_ON_40
TIME_SHIFT_64ND_3
NOTE_OFF_40
VEL_2
NOTE_ON_39
TIME_SHIFT_64ND_3
NOTE_OFF_39
VEL_2
NOTE_ON_40
TIME_SHIFT_64ND_3
NOTE_OFF_40
VEL_2
NOTE_ON_39
TIME_SHIFT_64ND_3
NOTE_OFF_39
VEL_2
NOTE_ON_40
TIME_SHIFT_64ND_3
NOTE_OFF_40
VEL_2
NOTE_ON_39
TIME_SHIFT_64ND_1
NOTE_OFF_47
VEL_2
NOTE_ON_57
VEL_1
NOTE_ON_54
TIME_SHIFT_64ND_2
NOTE_OFF_39
VEL_2
NOTE_ON_40
TIME_SHIFT_64ND_3
VEL_2
NOTE_ON_39
TIME_SHIFT_64ND_3
NOTE_OFF_40
VEL_2
NOTE_ON_37
TIME_SHIFT_64ND_2
NOTE_OFF_61
VEL_2
NOTE_ON_59
TIME_SHIFT_64ND_1
NOTE_OFF_37
NOTE_OFF_39
VEL_2
NOTE_ON_39
TIME_SHIFT_64ND_4
NOTE_OFF_39
VEL_2
NOTE_ON_40
TIME_SHIFT_64ND_5
NOTE_OFF_40
VEL_3
NOTE_ON_42
TIME_SHIFT_64ND_5
NOTE_OFF_59
NOTE_OFF_57
NOTE_OFF_54
NOTE_OFF_42
VEL_2
NOTE_ON_59
VEL_2
NOTE_ON_56
VEL_1
NOTE_ON_52
VEL_2
NOTE_ON_40
TIME_SHIFT_64ND_20
NOTE_OFF_56
NOTE_OFF_52
VEL_1
NOTE_ON_47
TIME_SHIFT_64ND_20
NOTE_OFF_47
VEL_1
NOTE_ON_56
VEL_1
NOTE_ON_52
TIME_SHIFT_64ND_20
NOTE_OFF_59
NOTE_OFF_56
NOTE_OFF_52
NOTE_OFF_40
VEL_2
NOTE_ON_59
VEL_2
NOTE_ON_54
VEL_1
NOTE_ON_51
VEL_2
NOTE_ON_35
TIME_SHIFT_64ND_19
NOTE_OFF_54
NOTE_OFF_51
VEL_1
NOTE_ON_47
TIME_SHIFT_64ND_19
NOTE_OFF_47
VEL_1
NOTE_ON_54
VEL_1
NOTE_ON_51
TIME_SHIFT_64ND_10
NOTE_OFF_59
VEL_2
NOTE_ON_59
TIME_SHIFT_64ND_10
NOTE_OFF_59
NOTE_OFF_54
NOTE_OFF_51
NOTE_OFF_35
VEL_2
NOTE_ON_59
VEL_2
NOTE_ON_55
VEL_1
NOTE_ON_50
VEL_2
NOTE_ON_31
TIME_SHIFT_64ND_18
NOTE_OFF_55
NOTE_OFF_50
VEL_1
NOTE_ON_47
TIME_SHIFT_64ND_18
NOTE_OFF_47
VEL_1
NOTE_ON_55
VEL_1
NOTE_ON_50
TIME_SHIFT_64ND_18
NOTE_OFF_59
NOTE_OFF_55
NOTE_OFF_50
NOTE_OFF_31
VEL_3
NOTE_ON_59
VEL_2
NOTE_ON_55
VEL_2
NOTE_ON_50
VEL_2
NOTE_ON_43
TIME_SHIFT_64ND_18
NOTE_OFF_55
NOTE_OFF_50
VEL_1
NOTE_ON_47
TIME_SHIFT_64ND_18
NOTE_OFF_47
VEL_1
NOTE_ON_55
VEL_1
NOTE_ON_50
TIME_SHIFT_64ND_9
NOTE_OFF_59
VEL_3
NOTE_ON_59
TIME_SHIFT_64ND_2
NOTE_OFF_43
VEL_3
NOTE_ON_41
TIME_SHIFT_64ND_7
NOTE_OFF_59
NOTE_OFF_55
NOTE_OFF_50
NOTE_OFF_41
VEL_3
NOTE_ON_60
VEL_3
NOTE_ON_55
TIME_SHIFT_64ND_18
NOTE_OFF_55
VEL_2
NOTE_ON_48
TIME_SHIFT_64ND_18
NOTE_OFF_48
VEL_2
NOTE_ON_55
TIME_SHIFT_64ND_18
NOTE_OFF_60
NOTE_OFF_55
VEL_4
NOTE_ON_62
VEL_2
NOTE_ON_55
VEL_3
NOTE_ON_58
VEL_3
NOTE_ON_38
TIME_SHIFT_64ND_18
NOTE_OFF_55
NOTE_OFF_58
VEL_2
NOTE_ON_50
TIME_SHIFT_64ND_18
NOTE_OFF_50
VEL_2
NOTE_ON_55
VEL_2
NOTE_ON_58
TIME_SHIFT_64ND_18
NOTE_OFF_62
NOTE_OFF_55
NOTE_OFF_58
NOTE_OFF_38
VEL_4
NOTE_ON_64
VEL_2
NOTE_ON_55
VEL_3
NOTE_ON_58
VEL_3
NOTE_ON_36
TIME_SHIFT_64ND_18
NOTE_OFF_55
NOTE_OFF_58
VEL_2
NOTE_ON_52
TIME_SHIFT_64ND_18
NOTE_OFF_52
VEL_2
NOTE_ON_55
VEL_3
NOTE_ON_58
TIME_SHIFT_64ND_18
NOTE_OFF_64
NOTE_OFF_55
NOTE_OFF_58
NOTE_OFF_36
VEL_4
NOTE_ON_64
VEL_3
NOTE_ON_55
VEL_3
NOTE_ON_60
VEL_3
NOTE_ON_48
VEL_3
NOTE_ON_36
TIME_SHIFT_64ND_18
NOTE_OFF_55
NOTE_OFF_60
VEL_3
NOTE_ON_52
TIME_SHIFT_64ND_18
NOTE_OFF_52
VEL_2
NOTE_ON_55
VEL_3
NOTE_ON_60
TIME_SHIFT_64ND_9
NOTE_OFF_64
VEL_5
NOTE_ON_64
TIME_SHIFT_64ND_2
NOTE_OFF_48
NOTE_OFF_36
VEL_3
NOTE_ON_47
VEL_2
NOTE_ON_35
TIME_SHIFT_64ND_7
NOTE_OFF_64
NOTE_OFF_55
NOTE_OFF_60
NOTE_OFF_47
NOTE_OFF_35
VEL_5
NOTE_ON_64
VEL_4
NOTE_ON_61
VEL_3
NOTE_ON_57
VEL_3
NOTE_ON_45
VEL_2
NOTE_ON_33
TIME_SHIFT_64ND_19
NOTE_OFF_61
NOTE_OFF_57
VEL_3
NOTE_ON_52
TIME_SHIFT_64ND_19
NOTE_OFF_52
VEL_2
NOTE_ON_57
VEL_3
NOTE_ON_61
TIME_SHIFT_64ND_19
NOTE_OFF_64
NOTE_OFF_57
NOTE_OFF_61
NOTE_OFF_45
NOTE_OFF_33
VEL_5
NOTE_ON_64
VEL_4
NOTE_ON_61
VEL_3
NOTE_ON_58
VEL_3
NOTE_ON_43
VEL_3
NOTE_ON_31
TIME_SHIFT_64ND_18
NOTE_OFF_61
NOTE_OFF_58
VEL_3
NOTE_ON_52
TIME_SHIFT_64ND_18
NOTE_OFF_52
VEL_3
NOTE_ON_61
VEL_2
NOTE_ON_58
TIME_SHIFT_64ND_9
NOTE_OFF_64
VEL_5
NOTE_ON_64
TIME_SHIFT_64ND_2
NOTE_OFF_43
NOTE_OFF_31
VEL_3
NOTE_ON_43
VEL_3
NOTE_ON_31
TIME_SHIFT_64ND_7
NOTE_OFF_64
NOTE_OFF_61
NOTE_OFF_58
NOTE_OFF_43
NOTE_OFF_31
VEL_5
NOTE_ON_65
VEL_4
NOTE_ON_61
VEL_3
NOTE_ON_58
VEL_3
NOTE_ON_41
VEL_3
NOTE_ON_29
TIME_SHIFT_64ND_18
NOTE_OFF_61
NOTE_OFF_58
VEL_3
NOTE_ON_53
TIME_SHIFT_64ND_18
NOTE_OFF_53
VEL_3
NOTE_ON_61
VEL_2
NOTE_ON_58
TIME_SHIFT_64ND_18
NOTE_OFF_65
NOTE_OFF_61
NOTE_OFF_58
NOTE_OFF_41
NOTE_OFF_29
VEL_5
NOTE_ON_67
VEL_4
NOTE_ON_61
VEL_3
NOTE_ON_58
VEL_3
NOTE_ON_40
VEL_3
NOTE_ON_28
TIME_SHIFT_64ND_18
NOTE_OFF_61
NOTE_OFF_58
VEL_3
NOTE_ON_55
TIME_SHIFT_64ND_18
NOTE_OFF_55
VEL_3
NOTE_ON_61
VEL_2
NOTE_ON_58
TIME_SHIFT_64ND_21
NOTE_OFF_67
NOTE_OFF_61
NOTE_OFF_58
NOTE_OFF_40
NOTE_OFF_28
VEL_6
NOTE_ON_68
VEL_4
NOTE_ON_60
VEL_3
NOTE_ON_56
VEL_3
NOTE_ON_39
VEL_3
NOTE_ON_27
TIME_SHIFT_64ND_19
NOTE_OFF_60
NOTE_OFF_56
VEL_3
NOTE_ON_51
TIME_SHIFT_64ND_19
NOTE_OFF_68
NOTE_OFF_51
VEL_5
NOTE_ON_63
VEL_3
NOTE_ON_60
VEL_3
NOTE_ON_56
TIME_SHIFT_64ND_20
NOTE_OFF_63
NOTE_OFF_60
NOTE_OFF_56
VEL_5
NOTE_ON_63
VEL_4
NOTE_ON_60
VEL_3
NOTE_ON_55
TIME_SHIFT_64ND_19
NOTE_OFF_60
NOTE_OFF_55
VEL_3
NOTE_ON_51
TIME_SHIFT_64ND_19
NOTE_OFF_51
VEL_3
NOTE_ON_58
VEL_3
NOTE_ON_55
TIME_SHIFT_64ND_9
NOTE_OFF_63
VEL_4
NOTE_ON_61
TIME_SHIFT_64ND_9
NOTE_OFF_61
NOTE_OFF_58
NOTE_OFF_55
NOTE_OFF_39
NOTE_OFF_27
VEL_4
NOTE_ON_60
VEL_3
NOTE_ON_56
VEL_3
NOTE_ON_32
TIME_SHIFT_64ND_19
NOTE_OFF_56
VEL_2
NOTE_ON_51
TIME_SHIFT_64ND_19
NOTE_OFF_51
VEL_2
NOTE_ON_56
TIME_SHIFT_64ND_9
NOTE_OFF_60
VEL_4
NOTE_ON_59
TIME_SHIFT_64ND_9
NOTE_OFF_59
NOTE_OFF_56
NOTE_OFF_32
VEL_4
NOTE_ON_59
VEL_3
NOTE_ON_56
VEL_2
NOTE_ON_51
VEL_3
NOTE_ON_35
TIME_SHIFT_64ND_21
NOTE_OFF_56
NOTE_OFF_51
VEL_2
NOTE_ON_47
TIME_SHIFT_64ND_25
NOTE_OFF_47
VEL_2
NOTE_ON_57
VEL_2
NOTE_ON_51
TIME_SHIFT_64ND_14
NOTE_OFF_59
VEL_2
NOTE_ON_59
TIME_SHIFT_64ND_16
NOTE_OFF_59
NOTE_OFF_57
NOTE_OFF_51
NOTE_OFF_35
VEL_2
NOTE_ON_59
VEL_1
NOTE_ON_56
VEL_1
NOTE_ON_52
VEL_1
NOTE_ON_40
VEL_1
NOTE_ON_28
TIME_SHIFT_64ND_20
NOTE_OFF_56
NOTE_OFF_52
VEL_1
NOTE_ON_47
TIME_SHIFT_64ND_19
NOTE_OFF_47
VEL_1
NOTE_ON_56
VEL_1
NOTE_ON_52
TIME_SHIFT_64ND_19
NOTE_OFF_59
NOTE_OFF_56
NOTE_OFF_52
NOTE_OFF_40
NOTE_OFF_28
VEL_2
NOTE_ON_59
VEL_1
NOTE_ON_54
VEL_1
NOTE_ON_51
VEL_1
NOTE_ON_35
TIME_SHIFT_64ND_19
NOTE_OFF_54
NOTE_OFF_51
VEL_1
NOTE_ON_47
TIME_SHIFT_64ND_19
NOTE_OFF_47
VEL_1
NOTE_ON_54
VEL_1
NOTE_ON_51
TIME_SHIFT_64ND_12
NOTE_OFF_59
VEL_2
NOTE_ON_59
TIME_SHIFT_64ND_7
NOTE_OFF_59
NOTE_OFF_54
NOTE_OFF_51
NOTE_OFF_35
VEL_2
NOTE_ON_59
VEL_2
NOTE_ON_56
VEL_1
NOTE_ON_52
VEL_1
NOTE_ON_40
TIME_SHIFT_64ND_19
NOTE_OFF_56
NOTE_OFF_52
VEL_1
NOTE_ON_47
TIME_SHIFT_64ND_19
NOTE_OFF_47
VEL_1
NOTE_ON_56
VEL_1
NOTE_ON_52
TIME_SHIFT_64ND_19
NOTE_OFF_59
NOTE_OFF_56
NOTE_OFF_52
NOTE_OFF_40
VEL_2
NOTE_ON_60
VEL_2
NOTE_ON_57
VEL_1
NOTE_ON_52
VEL_2
NOTE_ON_45
VEL_1
NOTE_ON_33
TIME_SHIFT_64ND_19
NOTE_OFF_57
NOTE_OFF_52
VEL_1
NOTE_ON_48
TIME_SHIFT_64ND_19
NOTE_OFF_48
VEL_1
NOTE_ON_57
VEL_1
NOTE_ON_52
TIME_SHIFT_64ND_12
NOTE_OFF_45
NOTE_OFF_33
VEL_2
NOTE_ON_45
VEL_2
NOTE_ON_33
TIME_SHIFT_64ND_7
NOTE_OFF_60
NOTE_OFF_57
NOTE_OFF_52
NOTE_OFF_45
NOTE_OFF_33
VEL_3
NOTE_ON_60
VEL_2
NOTE_ON_57
VEL_2
NOTE_ON_53
VEL_2
NOTE_ON_41
VEL_2
NOTE_ON_29
TIME_SHIFT_64ND_19
NOTE_OFF_57
NOTE_OFF_53
VEL_1
NOTE_ON_48
TIME_SHIFT_64ND_19
NOTE_OFF_48
VEL_1
NOTE_ON_57
VEL_1
NOTE_ON_53
TIME_SHIFT_64ND_19
NOTE_OFF_60
NOTE_OFF_57
NOTE_OFF_53
NOTE_OFF_41
NOTE_OFF_29
VEL_2
NOTE_ON_60
VEL_1
NOTE_ON_55
VEL_1
NOTE_ON_52
VEL_2
NOTE_ON_36
VEL_1
NOTE_ON_24
TIME_SHIFT_64ND_19
NOTE_OFF_55
NOTE_OFF_52
VEL_1
NOTE_ON_48
TIME_SHIFT_64ND_19
NOTE_OFF_48
VEL_1
NOTE_ON_55
VEL_1
NOTE_ON_52
TIME_SHIFT_64ND_12
NOTE_OFF_60
VEL_2
NOTE_ON_60
TIME_SHIFT_64ND_7
NOTE_OFF_60
NOTE_OFF_55
NOTE_OFF_52
NOTE_OFF_36
NOTE_OFF_24
VEL_2
NOTE_ON_60
VEL_2
NOTE_ON_57
VEL_1
NOTE_ON_53
VEL_2
NOTE_ON_41
VEL_2
NOTE_ON_29
TIME_SHIFT_64ND_19
NOTE_OFF_57
NOTE_OFF_53
VEL_1
NOTE_ON_48
TIME_SHIFT_64ND_19
NOTE_OFF_48
VEL_1
NOTE_ON_57
VEL_1
NOTE_ON_53
TIME_SHIFT_64ND_19
NOTE_OFF_60
NOTE_OFF_57
NOTE_OFF_53
NOTE_OFF_41
NOTE_OFF_29
VEL_3
NOTE_ON_62
VEL_2
NOTE_ON_58
VEL_2
NOTE_ON_53
VEL_2
NOTE_ON_46
VEL_2
NOTE_ON_34
TIME_SHIFT_64ND_19
NOTE_OFF_58
NOTE_OFF_53
VEL_2
NOTE_ON_50
TIME_SHIFT_64ND_19
NOTE_OFF_50
VEL_2
NOTE_ON_58
VEL_1
NOTE_ON_53
TIME_SHIFT_64ND_10
NOTE_OFF_62
VEL_4
NOTE_ON_62
TIME_SHIFT_64ND_2
NOTE_OFF_46
NOTE_OFF_34
VEL_3
NOTE_ON_46
VEL_2
NOTE_ON_34
TIME_SHIFT_64ND_7
NOTE_OFF_62
NOTE_OFF_58
NOTE_OFF_53
NOTE_OFF_46
NOTE_OFF_34
VEL_3
NOTE_ON_62
VEL_3
NOTE_ON_58
VEL_2
NOTE_ON_55
VEL_3
NOTE_ON_43
VEL_3
NOTE_ON_31
TIME_SHIFT_64ND_19
NOTE_OFF_58
NOTE_OFF_55
VEL_2
NOTE_ON_50
TIME_SHIFT_64ND_19
NOTE_OFF_50
VEL_3
NOTE_ON_58
VEL_2
NOTE_ON_55
TIME_SHIFT_64ND_19
NOTE_OFF_62
NOTE_OFF_58
NOTE_OFF_55
NOTE_OFF_43
NOTE_OFF_31
VEL_4
NOTE_ON_62
VEL_3
NOTE_ON_57
VEL_3
NOTE_ON_54
VEL_4
NOTE_ON_38
VEL_3
NOTE_ON_26
TIME_SHIFT_64ND_19
NOTE_OFF_57
NOTE_OFF_54
VEL_3
NOTE_ON_50
TIME_SHIFT_64ND_19
NOTE_OFF_50
VEL_3
NOTE_ON_57
VEL_3
NOTE_ON_54
TIME_SHIFT_64ND_12
NOTE_OFF_62
VEL_4
NOTE_ON_62
TIME_SHIFT_64ND_7
NOTE_OFF_62
NOTE_OFF_57
NOTE_OFF_54
NOTE_OFF_38
NOTE_OFF_26
VEL_4
NOTE_ON_62
VEL_3
NOTE_ON_59
VEL_3
NOTE_ON_55
VEL_4
NOTE_ON_43
VEL_3
NOTE_ON_31
TIME_SHIFT_64ND_19
NOTE_OFF_59
NOTE_OFF_55
VEL_3
NOTE_ON_50
TIME_SHIFT_64ND_20
NOTE_OFF_50
VEL_3
NOTE_ON_59
VEL_2
NOTE_ON_55
TIME_SHIFT_64ND_21
NOTE_OFF_62
NOTE_OFF_59
NOTE_OFF_55
NOTE_OFF_43
NOTE_OFF_31
VEL_5
NOTE_ON_63
VEL_4
NOTE_ON_59
VEL_2
NOTE_ON_54
VEL_4
NOTE_ON_47
VEL_3
NOTE_ON_35
TIME_SHIFT_64ND_21
NOTE_OFF_59
NOTE_OFF_54
VEL_4
NOTE_ON_51
TIME_SHIFT_64ND_22
NOTE_OFF_51
VEL_3
NOTE_ON_59
VEL_2
NOTE_ON_54
TIME_SHIFT_64ND_14
NOTE_OFF_63
NOTE_OFF_47
NOTE_OFF_35
VEL_5
NOTE_ON_64
VEL_4
NOTE_ON_47
VEL_3
NOTE_ON_35
TIME_SHIFT_64ND_4
NOTE_OFF_47
NOTE_OFF_35
VEL_4
NOTE_ON_28
TIME_SHIFT_64ND_4
NOTE_OFF_64
NOTE_OFF_59
NOTE_OFF_54
VEL_5
NOTE_ON_64
VEL_4
NOTE_ON_59
VEL_3
NOTE_ON_56
VEL_4
NOTE_ON_40
TIME_SHIFT_64ND_21
NOTE_OFF_59
NOTE_OFF_56
VEL_4
NOTE_ON_52
TIME_SHIFT_64ND_21
NOTE_OFF_52
VEL_3
NOTE_ON_59
VEL_3
NOTE_ON_56
TIME_SHIFT_64ND_21
NOTE_OFF_64
NOTE_OFF_59
NOTE_OFF_56
VEL_5
NOTE_ON_64
VEL_4
NOTE_ON_59
VEL_3
NOTE_ON_56
VEL_4
NOTE_ON_35
TIME_SHIFT_64ND_23
NOTE_OFF_59
NOTE_OFF_56
VEL_4
NOTE_ON_52
TIME_SHIFT_64ND_23
NOTE_OFF_52
VEL_3
NOTE_ON_56
VEL_3
NOTE_ON_59
TIME_SHIFT_64ND_14
NOTE_OFF_64
VEL_5
NOTE_ON_64
TIME_SHIFT_64ND_12
NOTE_OFF_64
NOTE_OFF_56
NOTE_OFF_28
VEL_5
NOTE_ON_64
VEL_3
NOTE_ON_52
VEL_3
NOTE_ON_56
VEL_4
NOTE_ON_28
TIME_SHIFT_64ND_202
NOTE_OFF_64
NOTE_OFF_52
NOTE_OFF_56
NOTE_OFF_59
NOTE_OFF_28
NOTE_OFF_35
NOTE_OFF_40
