TIME_SHIFT_64ND_38
VEL_3
NOTE_ON_64
TIME_SHIFT_64ND_21
NOTE_OFF_64
VEL_3
NOTE_ON_73
VEL_1
NOTE_ON_40
TIME_SHIFT_64ND_15
VEL_2
NOTE_ON_74
NOTE_OFF_73
TIME_SHIFT_64ND_5
NOTE_OFF_74
NOTE_OFF_40
VEL_2
NOTE_ON_71
VEL_2
NOTE_ON_68
VEL_2
NOTE_ON_62
VEL_1
NOTE_ON_52
VEL_2
NOTE_ON_64
TIME_SHIFT_64ND_21
NOTE_OFF_71
NOTE_OFF_68
NOTE_OFF_62
NOTE_OFF_52
NOTE_OFF_64
VEL_1
NOTE_ON_71
VEL_1
NOTE_ON_68
VEL_1
NOTE_ON_62
VEL_1
NOTE_ON_52
VEL_1
NOTE_ON_64
TIME_SHIFT_64ND_22
NOTE_OFF_71
NOTE_OFF_68
NOTE_OFF_62
NOTE_OFF_52
NOTE_OFF_64
VEL_1
NOTE_ON_71
VEL_1
NOTE_ON_68
VEL_1
NOTE_ON_62
VEL_1
NOTE_ON_52
VEL_1
NOTE_ON_64
TIME_SHIFT_64ND_44
NOTE_OFF_71
NOTE_OFF_68
NOTE_OFF_62
NOTE_OFF_52
NOTE_OFF_64
TIME_SHIFT_64ND_1
VEL_2
NOTE_ON_78
VEL_2
NOTE_ON_74
TIME_SHIFT_64ND_21
NOTE_OFF_78
NOTE_OFF_74
VEL_3
NOTE_ON_75
VEL_2
NOTE_ON_72
VEL_2
NOTE_ON_45
TIME_SHIFT_64ND_15
VEL_2
NOTE_ON_73
VEL_3
NOTE_ON_76
NOTE_OFF_75
NOTE_OFF_72
TIME_SHIFT_64ND_5
NOTE_OFF_73
NOTE_OFF_76
NOTE_OFF_45
VEL_2
NOTE_ON_81
VEL_1
NOTE_ON_73
VEL_1
NOTE_ON_57
VEL_2
NOTE_ON_64
TIME_SHIFT_64ND_21
NOTE_OFF_81
NOTE_OFF_73
NOTE_OFF_57
NOTE_OFF_64
VEL_1
NOTE_ON_73
VEL_1
NOTE_ON_81
VEL_1
NOTE_ON_57
VEL_1
NOTE_ON_64
TIME_SHIFT_64ND_23
NOTE_OFF_73
NOTE_OFF_81
NOTE_OFF_57
NOTE_OFF_64
VEL_1
NOTE_ON_73
VEL_1
NOTE_ON_81
VEL_1
NOTE_ON_57
VEL_1
NOTE_ON_64
TIME_SHIFT_64ND_45
NOTE_OFF_73
NOTE_OFF_81
NOTE_OFF_57
NOTE_OFF_64
TIME_SHIFT_64ND_1
VEL_2
NOTE_ON_64
VEL_3
NOTE_ON_73
TIME_SHIFT_64ND_23
NOTE_OFF_64
NOTE_OFF_73
VEL_3
NOTE_ON_70
VEL_2
NOTE_ON_61
VEL_1
NOTE_ON_40
TIME_SHIFT_64ND_16
VEL_2
NOTE_ON_71
VEL_2
NOTE_ON_62
NOTE_OFF_70
NOTE_OFF_61
TIME_SHIFT_64ND_5
NOTE_OFF_71
NOTE_OFF_40
VEL_2
NOTE_ON_66
VEL_2
NOTE_ON_74
VEL_1
NOTE_ON_52
VEL_1
NOTE_ON_59
TIME_SHIFT_64ND_21
NOTE_OFF_66
NOTE_OFF_74
NOTE_OFF_52
NOTE_OFF_59
VEL_1
NOTE_ON_66
VEL_2
NOTE_ON_74
VEL_1
NOTE_ON_52
VEL_1
NOTE_ON_59
TIME_SHIFT_64ND_23
NOTE_OFF_66
NOTE_OFF_74
NOTE_OFF_52
NOTE_OFF_59
VEL_1
NOTE_ON_66
VEL_1
NOTE_ON_74
VEL_1
NOTE_ON_52
VEL_1
NOTE_ON_59
TIME_SHIFT_64ND_44
NOTE_OFF_66
NOTE_OFF_74
NOTE_OFF_52
NOTE_OFF_59
TIME_SHIFT_64ND_1
NOTE_OFF_62
VEL_2
NOTE_ON_68
VEL_1
NOTE_ON_62
TIME_SHIFT_64ND_23
NOTE_OFF_68
NOTE_OFF_62
VEL_2
NOTE_ON_68
VEL_2
NOTE_ON_62
VEL_1
NOTE_ON_33
TIME_SHIFT_64ND_19
VEL_1
NOTE_ON_61
VEL_2
NOTE_ON_69
TIME_SHIFT_64ND_1
NOTE_OFF_68
NOTE_OFF_62
TIME_SHIFT_64ND_6
NOTE_OFF_61
NOTE_OFF_69
NOTE_OFF_33
VEL_2
NOTE_ON_73
VEL_1
NOTE_ON_61
VEL_1
NOTE_ON_52
VEL_1
NOTE_ON_57
VEL_2
NOTE_ON_64
TIME_SHIFT_64ND_24
NOTE_OFF_73
NOTE_OFF_61
NOTE_OFF_52
NOTE_OFF_57
NOTE_OFF_64
VEL_1
NOTE_ON_61
VEL_1
NOTE_ON_73
VEL_1
NOTE_ON_52
VEL_1
NOTE_ON_57
VEL_1
NOTE_ON_64
TIME_SHIFT_64ND_25
NOTE_OFF_61
NOTE_OFF_73
NOTE_OFF_52
NOTE_OFF_57
NOTE_OFF_64
VEL_1
NOTE_ON_73
VEL_0
NOTE_ON_61
VEL_0
NOTE_ON_52
VEL_0
NOTE_ON_57
VEL_1
NOTE_ON_64
TIME_SHIFT_64ND_49
NOTE_OFF_73
NOTE_OFF_61
NOTE_OFF_52
NOTE_OFF_57
NOTE_OFF_64
TIME_SHIFT_64ND_1
VEL_3
NOTE_ON_64
TIME_SHIFT_64ND_21
VEL_3
NOTE_ON_73
VEL_3
NOTE_ON_68
VEL_2
NOTE_ON_40
TIME_SHIFT_64ND_15
VEL_3
NOTE_ON_74
NOTE_OFF_73
TIME_SHIFT_64ND_5
NOTE_OFF_64
NOTE_OFF_68
NOTE_OFF_74
NOTE_OFF_40
VEL_3
NOTE_ON_71
VEL_2
NOTE_ON_62
VEL_2
NOTE_ON_68
VEL_1
NOTE_ON_52
VEL_1
NOTE_ON_64
TIME_SHIFT_64ND_21
NOTE_OFF_71
NOTE_OFF_62
NOTE_OFF_68
NOTE_OFF_52
NOTE_OFF_64
VEL_2
NOTE_ON_71
VEL_1
NOTE_ON_68
VEL_1
NOTE_ON_62
VEL_1
NOTE_ON_52
VEL_1
NOTE_ON_64
TIME_SHIFT_64ND_22
NOTE_OFF_71
NOTE_OFF_68
NOTE_OFF_62
NOTE_OFF_52
NOTE_OFF_64
VEL_2
NOTE_ON_71
VEL_1
NOTE_ON_68
VEL_1
NOTE_ON_62
VEL_1
NOTE_ON_52
VEL_1
NOTE_ON_64
TIME_SHIFT_64ND_50
NOTE_OFF_71
NOTE_OFF_68
NOTE_OFF_62
NOTE_OFF_52
NOTE_OFF_64
TIME_SHIFT_64ND_1
VEL_3
NOTE_ON_78
VEL_3
NOTE_ON_74
TIME_SHIFT_64ND_21
NOTE_OFF_78
NOTE_OFF_74
VEL_4
NOTE_ON_75
VEL_3
NOTE_ON_72
VEL_2
NOTE_ON_45
TIME_SHIFT_64ND_16
VEL_3
NOTE_ON_76
VEL_3
NOTE_ON_73
NOTE_OFF_75
NOTE_OFF_72
TIME_SHIFT_64ND_5
NOTE_OFF_45
VEL_3
NOTE_ON_81
VEL_4
NOTE_ON_85
VEL_2
NOTE_ON_57
VEL_2
NOTE_ON_64
VEL_2
NOTE_ON_69
TIME_SHIFT_64ND_23
NOTE_OFF_81
NOTE_OFF_85
NOTE_OFF_57
NOTE_OFF_64
NOTE_OFF_69
VEL_3
NOTE_ON_81
VEL_4
NOTE_ON_85
VEL_2
NOTE_ON_69
VEL_2
NOTE_ON_64
VEL_2
NOTE_ON_57
TIME_SHIFT_64ND_29
NOTE_OFF_81
NOTE_OFF_76
NOTE_OFF_73
NOTE_OFF_85
NOTE_OFF_69
NOTE_OFF_64
NOTE_OFF_57
VEL_2
NOTE_ON_70
VEL_2
NOTE_ON_76
VEL_2
NOTE_ON_73
VEL_2
NOTE_ON_82
VEL_3
NOTE_ON_85
VEL_2
NOTE_ON_54
VEL_2
NOTE_ON_66
VEL_2
NOTE_ON_64
VEL_2
NOTE_ON_61
TIME_SHIFT_64ND_67
NOTE_OFF_70
NOTE_OFF_76
NOTE_OFF_73
NOTE_OFF_82
NOTE_OFF_85
NOTE_OFF_54
NOTE_OFF_66
NOTE_OFF_64
NOTE_OFF_61
TIME_SHIFT_64ND_1
VEL_2
NOTE_ON_70
VEL_2
NOTE_ON_73
TIME_SHIFT_64ND_21
NOTE_OFF_70
NOTE_OFF_73
VEL_3
NOTE_ON_73
VEL_2
NOTE_ON_70
VEL_1
NOTE_ON_35
TIME_SHIFT_64ND_16
VEL_2
NOTE_ON_71
VEL_2
NOTE_ON_74
NOTE_OFF_73
NOTE_OFF_70
TIME_SHIFT_64ND_5
NOTE_OFF_71
NOTE_OFF_74
NOTE_OFF_35
VEL_2
NOTE_ON_78
VEL_1
NOTE_ON_71
VEL_2
NOTE_ON_54
VEL_2
NOTE_ON_62
TIME_SHIFT_64ND_22
NOTE_OFF_78
NOTE_OFF_71
NOTE_OFF_54
NOTE_OFF_62
VEL_2
NOTE_ON_78
VEL_1
NOTE_ON_69
VEL_1
NOTE_ON_54
VEL_1
NOTE_ON_59
VEL_1
NOTE_ON_62
TIME_SHIFT_64ND_22
NOTE_OFF_78
NOTE_OFF_69
NOTE_OFF_54
NOTE_OFF_59
NOTE_OFF_62
VEL_1
NOTE_ON_78
VEL_1
NOTE_ON_68
VEL_1
NOTE_ON_52
VEL_1
NOTE_ON_59
VEL_1
NOTE_ON_62
TIME_SHIFT_64ND_48
NOTE_OFF_78
NOTE_OFF_68
NOTE_OFF_52
NOTE_OFF_59
NOTE_OFF_62
TIME_SHIFT_64ND_1
VEL_2
NOTE_ON_68
VEL_2
NOTE_ON_62
TIME_SHIFT_64ND_26
NOTE_OFF_68
NOTE_OFF_62
VEL_2
NOTE_ON_71
VEL_2
NOTE_ON_62
VEL_1
NOTE_ON_33
TIME_SHIFT_64ND_20
VEL_1
NOTE_ON_61
VEL_2
NOTE_ON_69
TIME_SHIFT_64ND_1
NOTE_OFF_71
NOTE_OFF_62
TIME_SHIFT_64ND_5
NOTE_OFF_61
NOTE_OFF_69
TIME_SHIFT_64ND_1
VEL_2
NOTE_ON_69
TIME_SHIFT_64ND_9
VEL_2
NOTE_ON_81
VEL_1
NOTE_ON_73
VEL_1
NOTE_ON_52
VEL_1
NOTE_ON_57
VEL_2
NOTE_ON_64
TIME_SHIFT_64ND_8
NOTE_OFF_33
TIME_SHIFT_64ND_17
NOTE_OFF_81
NOTE_OFF_73
NOTE_OFF_52
NOTE_OFF_57
NOTE_OFF_64
VEL_1
NOTE_ON_73
VEL_2
NOTE_ON_81
VEL_1
NOTE_ON_57
VEL_1
NOTE_ON_64
TIME_SHIFT_64ND_29
NOTE_OFF_73
NOTE_OFF_81
NOTE_OFF_57
NOTE_OFF_64
VEL_1
NOTE_ON_73
VEL_1
NOTE_ON_81
VEL_1
NOTE_ON_57
VEL_1
NOTE_ON_64
TIME_SHIFT_64ND_59
NOTE_OFF_73
NOTE_OFF_81
NOTE_OFF_69
NOTE_OFF_57
NOTE_OFF_64
