VEL_1
NOTE_ON_51
VEL_1
NOTE_ON_39
TIME_SHIFT_64ND_4
NOTE_OFF_51
NOTE_OFF_39
VEL_1
NOTE_ON_58
VEL_1
NOTE_ON_46
TIME_SHIFT_64ND_4
NOTE_OFF_58
NOTE_OFF_46
VEL_1
NOTE_ON_54
VEL_1
NOTE_ON_42
TIME_SHIFT_64ND_4
NOTE_OFF_54
NOTE_OFF_42
VEL_2
NOTE_ON_59
VEL_1
NOTE_ON_47
TIME_SHIFT_64ND_4
NOTE_OFF_59
NOTE_OFF_47
VEL_1
NOTE_ON_51
VEL_1
NOTE_ON_39
TIME_SHIFT_64ND_4
NOTE_OFF_51
NOTE_OFF_39
VEL_2
NOTE_ON_59
VEL_1
NOTE_ON_47
TIME_SHIFT_64ND_4
NOTE_OFF_59
NOTE_OFF_47
VEL_2
NOTE_ON_50
VEL_1
NOTE_ON_38
TIME_SHIFT_64ND_4
NOTE_OFF_50
NOTE_OFF_38
VEL_1
NOTE_ON_59
VEL_1
NOTE_ON_47
TIME_SHIFT_64ND_4
NOTE_OFF_59
NOTE_OFF_47
VEL_1
NOTE_ON_53
VEL_1
NOTE_ON_41
TIME_SHIFT_64ND_4
NOTE_OFF_53
NOTE_OFF_41
VEL_2
NOTE_ON_58
VEL_1
NOTE_ON_46
TIME_SHIFT_64ND_4
NOTE_OFF_58
NOTE_OFF_46
VEL_1
NOTE_ON_50
VEL_1
NOTE_ON_38
TIME_SHIFT_64ND_4
NOTE_OFF_50
NOTE_OFF_38
VEL_1
NOTE_ON_58
VEL_1
NOTE_ON_46
TIME_SHIFT_64ND_4
NOTE_OFF_58
NOTE_OFF_46
VEL_2
NOTE_ON_51
VEL_1
NOTE_ON_39
TIME_SHIFT_64ND_4
NOTE_OFF_51
NOTE_OFF_39
VEL_1
NOTE_ON_58
VEL_1
NOTE_ON_46
TIME_SHIFT_64ND_4
NOTE_OFF_58
NOTE_OFF_46
VEL_1
NOTE_ON_54
VEL_1
NOTE_ON_42
TIME_SHIFT_64ND_4
NOTE_OFF_54
NOTE_OFF_42
VEL_2
NOTE_ON_59
VEL_2
NOTE_ON_47
TIME_SHIFT_64ND_4
NOTE_OFF_59
NOTE_OFF_47
VEL_2
NOTE_ON_51
VEL_1
NOTE_ON_39
TIME_SHIFT_64ND_4
NOTE_OFF_51
NOTE_OFF_39
VEL_2
NOTE_ON_59
VEL_1
NOTE_ON_47
TIME_SHIFT_64ND_4
NOTE_OFF_59
NOTE_OFF_47
VEL_2
NOTE_ON_50
VEL_2
NOTE_ON_38
TIME_SHIFT_64ND_4
NOTE_OFF_50
NOTE_OFF_38
VEL_2
NOTE_ON_59
VEL_1
NOTE_ON_47
TIME_SHIFT_64ND_4
NOTE_OFF_59
NOTE_OFF_47
VEL_2
NOTE_ON_53
VEL_1
NOTE_ON_41
TIME_SHIFT_64ND_4
NOTE_OFF_53
NOTE_OFF_41
VEL_2
NOTE_ON_58
VEL_2
NOTE_ON_46
TIME_SHIFT_64ND_4
NOTE_OFF_58
NOTE_OFF_46
VEL_2
NOTE_ON_50
VEL_1
NOTE_ON_38
TIME_SHIFT_64ND_4
NOTE_OFF_50
NOTE_OFF_38
VEL_2
NOTE_ON_58
VEL_1
NOTE_ON_46
TIME_SHIFT_64ND_4
NOTE_OFF_58
NOTE_OFF_46
VEL_2
NOTE_ON_51
VEL_2
NOTE_ON_39
TIME_SHIFT_64ND_4
NOTE_OFF_51
NOTE_OFF_39
VEL_2
NOTE_ON_58
VEL_1
NOTE_ON_46
TIME_SHIFT_64ND_4
NOTE_OFF_58
NOTE_OFF_46
VEL_2
NOTE_ON_54
VEL_1
NOTE_ON_42
TIME_SHIFT_64ND_4
NOTE_OFF_54
NOTE_OFF_42
VEL_2
NOTE_ON_59
VEL_2
NOTE_ON_47
TIME_SHIFT_64ND_4
NOTE_OFF_59
NOTE_OFF_47
VEL_2
NOTE_ON_51
VEL_2
NOTE_ON_39
TIME_SHIFT_64ND_4
NOTE_OFF_51
NOTE_OFF_39
VEL_2
NOTE_ON_60
VEL_2
NOTE_ON_48
TIME_SHIFT_64ND_4
NOTE_OFF_60
NOTE_OFF_48
VEL_3
NOTE_ON_53
VEL_2
NOTE_ON_41
TIME_SHIFT_64ND_4
NOTE_OFF_53
NOTE_OFF_41
VEL_2
NOTE_ON_60
VEL_2
NOTE_ON_48
TIME_SHIFT_64ND_4
NOTE_OFF_60
NOTE_OFF_48
VEL_2
NOTE_ON_56
VEL_2
NOTE_ON_44
TIME_SHIFT_64ND_4
NOTE_OFF_56
NOTE_OFF_44
VEL_3
NOTE_ON_63
VEL_2
NOTE_ON_51
TIME_SHIFT_64ND_4
NOTE_OFF_63
NOTE_OFF_51
VEL_2
NOTE_ON_57
VEL_2
NOTE_ON_45
TIME_SHIFT_64ND_4
VEL_2
NOTE_ON_61
VEL_1
NOTE_ON_49
NOTE_OFF_57
NOTE_OFF_45
TIME_SHIFT_64ND_4
NOTE_OFF_61
NOTE_OFF_49
VEL_2
NOTE_ON_54
VEL_2
NOTE_ON_42
TIME_SHIFT_64ND_4
NOTE_OFF_54
NOTE_OFF_42
VEL_2
NOTE_ON_61
VEL_1
NOTE_ON_49
TIME_SHIFT_64ND_4
NOTE_OFF_61
NOTE_OFF_49
VEL_2
NOTE_ON_58
VEL_2
NOTE_ON_46
TIME_SHIFT_64ND_4
NOTE_OFF_58
NOTE_OFF_46
VEL_3
NOTE_ON_63
VEL_2
NOTE_ON_51
TIME_SHIFT_64ND_4
NOTE_OFF_63
NOTE_OFF_51
VEL_2
NOTE_ON_54
VEL_2
NOTE_ON_42
TIME_SHIFT_64ND_4
NOTE_OFF_54
NOTE_OFF_42
VEL_3
NOTE_ON_64
VEL_2
NOTE_ON_52
TIME_SHIFT_64ND_4
NOTE_OFF_64
NOTE_OFF_52
VEL_3
NOTE_ON_57
VEL_2
NOTE_ON_45
TIME_SHIFT_64ND_4
NOTE_OFF_57
NOTE_OFF_45
VEL_3
NOTE_ON_64
VEL_2
NOTE_ON_52
TIME_SHIFT_64ND_4
NOTE_OFF_64
NOTE_OFF_52
VEL_3
NOTE_ON_60
VEL_2
NOTE_ON_48
TIME_SHIFT_64ND_4
NOTE_OFF_60
NOTE_OFF_48
VEL_3
NOTE_ON_66
VEL_2
NOTE_ON_54
TIME_SHIFT_64ND_4
NOTE_OFF_66
NOTE_OFF_54
VEL_2
NOTE_ON_61
VEL_2
NOTE_ON_49
TIME_SHIFT_64ND_4
NOTE_OFF_61
NOTE_OFF_49
VEL_2
NOTE_ON_65
VEL_2
NOTE_ON_53
TIME_SHIFT_64ND_4
NOTE_OFF_65
NOTE_OFF_53
VEL_2
NOTE_ON_58
VEL_2
NOTE_ON_46
TIME_SHIFT_64ND_4
NOTE_OFF_58
NOTE_OFF_46
VEL_2
NOTE_ON_65
VEL_2
NOTE_ON_53
TIME_SHIFT_64ND_4
NOTE_OFF_65
NOTE_OFF_53
VEL_2
NOTE_ON_61
VEL_2
NOTE_ON_49
TIME_SHIFT_64ND_4
NOTE_OFF_61
NOTE_OFF_49
VEL_2
NOTE_ON_66
VEL_2
NOTE_ON_54
TIME_SHIFT_64ND_4
NOTE_OFF_66
NOTE_OFF_54
VEL_3
NOTE_ON_58
VEL_2
NOTE_ON_46
TIME_SHIFT_64ND_4
NOTE_OFF_58
NOTE_OFF_46
VEL_3
NOTE_ON_66
VEL_2
NOTE_ON_54
TIME_SHIFT_64ND_4
NOTE_OFF_66
NOTE_OFF_54
VEL_3
NOTE_ON_57
VEL_2
NOTE_ON_45
TIME_SHIFT_64ND_4
NOTE_OFF_57
NOTE_OFF_45
VEL_3
NOTE_ON_66
VEL_2
NOTE_ON_54
TIME_SHIFT_64ND_4
NOTE_OFF_66
NOTE_OFF_54
VEL_2
NOTE_ON_60
VEL_2
NOTE_ON_48
TIME_SHIFT_64ND_4
NOTE_OFF_60
NOTE_OFF_48
VEL_3
NOTE_ON_65
VEL_2
NOTE_ON_53
TIME_SHIFT_64ND_4
NOTE_OFF_65
NOTE_OFF_53
VEL_2
NOTE_ON_57
VEL_2
NOTE_ON_45
TIME_SHIFT_64ND_4
NOTE_OFF_57
NOTE_OFF_45
VEL_2
NOTE_ON_65
VEL_2
NOTE_ON_53
TIME_SHIFT_64ND_4
NOTE_OFF_65
NOTE_OFF_53
VEL_3
NOTE_ON_58
VEL_2
NOTE_ON_46
TIME_SHIFT_64ND_4
NOTE_OFF_58
NOTE_OFF_46
VEL_2
NOTE_ON_65
VEL_2
NOTE_ON_53
TIME_SHIFT_64ND_4
NOTE_OFF_65
NOTE_OFF_53
VEL_2
NOTE_ON_61
VEL_2
NOTE_ON_49
TIME_SHIFT_64ND_4
NOTE_OFF_61
NOTE_OFF_49
VEL_3
NOTE_ON_66
VEL_2
NOTE_ON_54
TIME_SHIFT_64ND_4
NOTE_OFF_66
NOTE_OFF_54
VEL_3
NOTE_ON_57
VEL_2
NOTE_ON_45
TIME_SHIFT_64ND_4
NOTE_OFF_57
NOTE_OFF_45
VEL_3
NOTE_ON_66
VEL_2
NOTE_ON_54
TIME_SHIFT_64ND_4
NOTE_OFF_66
NOTE_OFF_54
VEL_4
NOTE_ON_56
VEL_3
NOTE_ON_44
TIME_SHIFT_64ND_4
NOTE_OFF_56
NOTE_OFF_44
VEL_3
NOTE_ON_66
VEL_3
NOTE_ON_54
TIME_SHIFT_64ND_4
NOTE_OFF_66
NOTE_OFF_54
VEL_3
NOTE_ON_62
VEL_2
NOTE_ON_50
TIME_SHIFT_64ND_4
NOTE_OFF_62
NOTE_OFF_50
VEL_3
NOTE_ON_65
VEL_2
NOTE_ON_53
TIME_SHIFT_64ND_4
NOTE_OFF_65
NOTE_OFF_53
VEL_3
NOTE_ON_59
VEL_2
NOTE_ON_47
TIME_SHIFT_64ND_4
NOTE_OFF_59
NOTE_OFF_47
VEL_2
NOTE_ON_65
VEL_2
NOTE_ON_53
TIME_SHIFT_64ND_4
NOTE_OFF_65
NOTE_OFF_53
VEL_4
NOTE_ON_56
VEL_3
NOTE_ON_44
TIME_SHIFT_64ND_4
NOTE_OFF_56
NOTE_OFF_44
VEL_3
NOTE_ON_64
VEL_3
NOTE_ON_52
TIME_SHIFT_64ND_4
NOTE_OFF_64
NOTE_OFF_52
VEL_3
NOTE_ON_59
VEL_3
NOTE_ON_47
TIME_SHIFT_64ND_4
NOTE_OFF_59
NOTE_OFF_47
VEL_3
NOTE_ON_62
VEL_3
NOTE_ON_50
TIME_SHIFT_64ND_4
NOTE_OFF_62
NOTE_OFF_50
VEL_3
NOTE_ON_56
VEL_2
NOTE_ON_44
TIME_SHIFT_64ND_4
NOTE_OFF_56
NOTE_OFF_44
VEL_3
NOTE_ON_62
VEL_2
NOTE_ON_50
TIME_SHIFT_64ND_4
NOTE_OFF_62
NOTE_OFF_50
VEL_3
NOTE_ON_55
VEL_2
NOTE_ON_43
TIME_SHIFT_64ND_4
NOTE_OFF_55
NOTE_OFF_43
VEL_3
NOTE_ON_62
VEL_2
NOTE_ON_50
TIME_SHIFT_64ND_4
NOTE_OFF_62
NOTE_OFF_50
VEL_3
NOTE_ON_58
VEL_2
NOTE_ON_46
TIME_SHIFT_64ND_4
NOTE_OFF_58
NOTE_OFF_46
VEL_3
NOTE_ON_65
VEL_2
NOTE_ON_53
TIME_SHIFT_64ND_4
NOTE_OFF_65
NOTE_OFF_53
VEL_3
NOTE_ON_55
VEL_2
NOTE_ON_43
TIME_SHIFT_64ND_4
NOTE_OFF_55
NOTE_OFF_43
VEL_3
NOTE_ON_63
VEL_2
NOTE_ON_51
TIME_SHIFT_64ND_4
NOTE_OFF_63
NOTE_OFF_51
VEL_4
NOTE_ON_53
VEL_3
NOTE_ON_41
TIME_SHIFT_64ND_4
NOTE_OFF_53
NOTE_OFF_41
VEL_3
NOTE_ON_61
VEL_3
NOTE_ON_49
TIME_SHIFT_64ND_4
NOTE_OFF_61
NOTE_OFF_49
VEL_3
NOTE_ON_55
VEL_3
NOTE_ON_43
TIME_SHIFT_64ND_4
NOTE_OFF_55
NOTE_OFF_43
VEL_3
NOTE_ON_59
VEL_3
NOTE_ON_47
TIME_SHIFT_64ND_4
NOTE_OFF_59
NOTE_OFF_47
VEL_3
NOTE_ON_53
VEL_2
NOTE_ON_41
TIME_SHIFT_64ND_4
NOTE_OFF_53
NOTE_OFF_41
VEL_3
NOTE_ON_59
VEL_2
NOTE_ON_47
TIME_SHIFT_64ND_4
NOTE_OFF_59
NOTE_OFF_47
VEL_3
NOTE_ON_52
VEL_2
NOTE_ON_40
TIME_SHIFT_64ND_4
NOTE_OFF_52
NOTE_OFF_40
VEL_3
NOTE_ON_59
VEL_2
NOTE_ON_47
TIME_SHIFT_64ND_4
NOTE_OFF_59
NOTE_OFF_47
VEL_3
NOTE_ON_55
VEL_2
NOTE_ON_43
TIME_SHIFT_64ND_4
NOTE_OFF_55
NOTE_OFF_43
VEL_3
NOTE_ON_61
VEL_2
NOTE_ON_49
TIME_SHIFT_64ND_4
NOTE_OFF_61
NOTE_OFF_49
VEL_3
NOTE_ON_52
VEL_3
NOTE_ON_40
TIME_SHIFT_64ND_4
NOTE_OFF_52
NOTE_OFF_40
VEL_3
NOTE_ON_60
VEL_3
NOTE_ON_48
TIME_SHIFT_64ND_4
NOTE_OFF_60
NOTE_OFF_48
VEL_4
NOTE_ON_54
VEL_3
NOTE_ON_42
TIME_SHIFT_64ND_4
NOTE_OFF_54
NOTE_OFF_42
VEL_3
NOTE_ON_62
VEL_3
NOTE_ON_50
TIME_SHIFT_64ND_4
NOTE_OFF_62
NOTE_OFF_50
VEL_3
NOTE_ON_57
VEL_3
NOTE_ON_45
TIME_SHIFT_64ND_4
NOTE_OFF_57
NOTE_OFF_45
VEL_3
NOTE_ON_60
VEL_3
NOTE_ON_48
TIME_SHIFT_64ND_4
NOTE_OFF_60
NOTE_OFF_48
VEL_3
NOTE_ON_54
VEL_2
NOTE_ON_42
TIME_SHIFT_64ND_4
NOTE_OFF_54
NOTE_OFF_42
VEL_3
NOTE_ON_60
VEL_2
NOTE_ON_48
TIME_SHIFT_64ND_4
NOTE_OFF_60
NOTE_OFF_48
VEL_3
NOTE_ON_53
VEL_3
NOTE_ON_41
TIME_SHIFT_64ND_4
NOTE_OFF_53
NOTE_OFF_41
VEL_3
NOTE_ON_60
VEL_2
NOTE_ON_48
TIME_SHIFT_64ND_4
NOTE_OFF_60
NOTE_OFF_48
VEL_3
NOTE_ON_56
VEL_2
NOTE_ON_44
TIME_SHIFT_64ND_4
NOTE_OFF_56
NOTE_OFF_44
VEL_3
NOTE_ON_63
VEL_2
NOTE_ON_51
TIME_SHIFT_64ND_4
NOTE_OFF_63
NOTE_OFF_51
VEL_3
NOTE_ON_53
VEL_3
NOTE_ON_41
TIME_SHIFT_64ND_4
NOTE_OFF_53
NOTE_OFF_41
VEL_3
NOTE_ON_61
VEL_3
NOTE_ON_49
TIME_SHIFT_64ND_4
NOTE_OFF_61
NOTE_OFF_49
VEL_4
NOTE_ON_51
VEL_3
NOTE_ON_39
TIME_SHIFT_64ND_4
NOTE_OFF_51
NOTE_OFF_39
VEL_3
NOTE_ON_59
VEL_3
NOTE_ON_47
TIME_SHIFT_64ND_4
NOTE_OFF_59
NOTE_OFF_47
VEL_3
NOTE_ON_53
VEL_3
NOTE_ON_41
TIME_SHIFT_64ND_4
NOTE_OFF_53
NOTE_OFF_41
VEL_3
NOTE_ON_57
VEL_3
NOTE_ON_45
TIME_SHIFT_64ND_4
NOTE_OFF_57
NOTE_OFF_45
VEL_3
NOTE_ON_51
VEL_2
NOTE_ON_39
TIME_SHIFT_64ND_4
NOTE_OFF_51
NOTE_OFF_39
VEL_3
NOTE_ON_57
VEL_2
NOTE_ON_45
TIME_SHIFT_64ND_4
NOTE_OFF_57
NOTE_OFF_45
VEL_3
NOTE_ON_50
VEL_2
NOTE_ON_38
TIME_SHIFT_64ND_4
NOTE_OFF_50
NOTE_OFF_38
VEL_3
NOTE_ON_57
VEL_2
NOTE_ON_45
TIME_SHIFT_64ND_4
NOTE_OFF_57
NOTE_OFF_45
VEL_3
NOTE_ON_53
VEL_2
NOTE_ON_41
TIME_SHIFT_64ND_4
NOTE_OFF_53
NOTE_OFF_41
VEL_4
NOTE_ON_58
VEL_3
NOTE_ON_46
TIME_SHIFT_64ND_4
NOTE_OFF_58
NOTE_OFF_46
VEL_3
NOTE_ON_54
VEL_3
NOTE_ON_42
TIME_SHIFT_64ND_4
NOTE_OFF_54
NOTE_OFF_42
VEL_3
NOTE_ON_58
VEL_3
NOTE_ON_46
TIME_SHIFT_64ND_4
NOTE_OFF_58
NOTE_OFF_46
VEL_4
NOTE_ON_51
VEL_4
NOTE_ON_39
TIME_SHIFT_64ND_4
NOTE_OFF_51
NOTE_OFF_39
VEL_4
NOTE_ON_58
VEL_3
NOTE_ON_46
TIME_SHIFT_64ND_4
NOTE_OFF_58
NOTE_OFF_46
VEL_4
NOTE_ON_54
VEL_3
NOTE_ON_42
TIME_SHIFT_64ND_4
NOTE_OFF_54
NOTE_OFF_42
VEL_4
NOTE_ON_59
VEL_4
NOTE_ON_47
TIME_SHIFT_64ND_4
NOTE_OFF_59
NOTE_OFF_47
VEL_4
NOTE_ON_54
VEL_3
NOTE_ON_42
TIME_SHIFT_64ND_4
NOTE_OFF_54
NOTE_OFF_42
VEL_4
NOTE_ON_59
VEL_4
NOTE_ON_47
TIME_SHIFT_64ND_4
NOTE_OFF_59
NOTE_OFF_47
VEL_5
NOTE_ON_50
VEL_4
NOTE_ON_38
TIME_SHIFT_64ND_4
NOTE_OFF_50
NOTE_OFF_38
VEL_4
NOTE_ON_59
VEL_3
NOTE_ON_47
TIME_SHIFT_64ND_4
NOTE_OFF_59
NOTE_OFF_47
VEL_4
NOTE_ON_53
VEL_3
NOTE_ON_41
TIME_SHIFT_64ND_4
NOTE_OFF_53
NOTE_OFF_41
VEL_4
NOTE_ON_58
VEL_3
NOTE_ON_46
TIME_SHIFT_64ND_4
NOTE_OFF_58
NOTE_OFF_46
VEL_3
NOTE_ON_50
VEL_3
NOTE_ON_38
TIME_SHIFT_64ND_4
NOTE_OFF_50
NOTE_OFF_38
VEL_3
NOTE_ON_58
VEL_3
NOTE_ON_46
TIME_SHIFT_64ND_4
NOTE_OFF_58
NOTE_OFF_46
VEL_4
NOTE_ON_51
VEL_3
NOTE_ON_39
TIME_SHIFT_64ND_4
NOTE_OFF_51
NOTE_OFF_39
VEL_3
NOTE_ON_58
VEL_3
NOTE_ON_46
TIME_SHIFT_64ND_4
NOTE_OFF_58
NOTE_OFF_46
VEL_3
NOTE_ON_54
VEL_3
NOTE_ON_42
TIME_SHIFT_64ND_4
NOTE_OFF_54
NOTE_OFF_42
VEL_5
NOTE_ON_59
VEL_4
NOTE_ON_47
TIME_SHIFT_64ND_4
NOTE_OFF_59
NOTE_OFF_47
VEL_4
NOTE_ON_55
VEL_3
NOTE_ON_43
TIME_SHIFT_64ND_4
NOTE_OFF_55
NOTE_OFF_43
VEL_4
NOTE_ON_59
VEL_3
NOTE_ON_47
TIME_SHIFT_64ND_4
NOTE_OFF_59
NOTE_OFF_47
VEL_5
NOTE_ON_50
VEL_4
NOTE_ON_38
TIME_SHIFT_64ND_4
NOTE_OFF_50
NOTE_OFF_38
VEL_4
NOTE_ON_59
VEL_3
NOTE_ON_47
TIME_SHIFT_64ND_4
NOTE_OFF_59
NOTE_OFF_47
VEL_4
NOTE_ON_54
VEL_3
NOTE_ON_42
TIME_SHIFT_64ND_4
NOTE_OFF_54
NOTE_OFF_42
VEL_5
NOTE_ON_58
VEL_4
NOTE_ON_46
TIME_SHIFT_64ND_4
NOTE_OFF_58
NOTE_OFF_46
VEL_4
NOTE_ON_53
VEL_3
NOTE_ON_41
TIME_SHIFT_64ND_4
NOTE_OFF_53
NOTE_OFF_41
VEL_4
NOTE_ON_58
VEL_3
NOTE_ON_46
TIME_SHIFT_64ND_4
NOTE_OFF_58
NOTE_OFF_46
VEL_4
NOTE_ON_51
VEL_3
NOTE_ON_39
TIME_SHIFT_64ND_4
NOTE_OFF_51
NOTE_OFF_39
VEL_3
NOTE_ON_58
VEL_3
NOTE_ON_46
TIME_SHIFT_64ND_4
NOTE_OFF_58
NOTE_OFF_46
VEL_3
NOTE_ON_54
VEL_3
NOTE_ON_42
TIME_SHIFT_64ND_4
NOTE_OFF_54
NOTE_OFF_42
VEL_4
NOTE_ON_59
VEL_4
NOTE_ON_47
TIME_SHIFT_64ND_4
NOTE_OFF_59
NOTE_OFF_47
VEL_4
NOTE_ON_51
VEL_3
NOTE_ON_39
TIME_SHIFT_64ND_4
NOTE_OFF_51
NOTE_OFF_39
VEL_4
NOTE_ON_59
VEL_3
NOTE_ON_47
TIME_SHIFT_64ND_4
NOTE_OFF_59
NOTE_OFF_47
VEL_5
NOTE_ON_53
VEL_4
NOTE_ON_41
TIME_SHIFT_64ND_4
NOTE_OFF_53
NOTE_OFF_41
VEL_4
NOTE_ON_61
VEL_4
NOTE_ON_49
TIME_SHIFT_64ND_4
NOTE_OFF_61
NOTE_OFF_49
VEL_4
NOTE_ON_57
VEL_3
NOTE_ON_45
TIME_SHIFT_64ND_4
NOTE_OFF_57
NOTE_OFF_45
VEL_5
NOTE_ON_61
VEL_4
NOTE_ON_49
TIME_SHIFT_64ND_4
NOTE_OFF_61
NOTE_OFF_49
VEL_5
NOTE_ON_53
VEL_4
NOTE_ON_41
TIME_SHIFT_64ND_4
NOTE_OFF_53
NOTE_OFF_41
VEL_4
NOTE_ON_61
VEL_4
NOTE_ON_49
TIME_SHIFT_64ND_4
NOTE_OFF_61
NOTE_OFF_49
VEL_4
NOTE_ON_54
VEL_4
NOTE_ON_42
TIME_SHIFT_64ND_4
NOTE_OFF_54
NOTE_OFF_42
VEL_4
NOTE_ON_61
VEL_3
NOTE_ON_49
TIME_SHIFT_64ND_4
NOTE_OFF_61
NOTE_OFF_49
VEL_4
NOTE_ON_57
VEL_3
NOTE_ON_45
TIME_SHIFT_64ND_4
NOTE_OFF_57
NOTE_OFF_45
VEL_5
NOTE_ON_62
VEL_4
NOTE_ON_50
TIME_SHIFT_64ND_4
NOTE_OFF_62
NOTE_OFF_50
VEL_4
NOTE_ON_54
VEL_4
NOTE_ON_42
TIME_SHIFT_64ND_4
NOTE_OFF_54
NOTE_OFF_42
VEL_4
NOTE_ON_62
VEL_4
NOTE_ON_50
TIME_SHIFT_64ND_4
NOTE_OFF_62
NOTE_OFF_50
VEL_5
NOTE_ON_58
VEL_4
NOTE_ON_46
TIME_SHIFT_64ND_4
NOTE_OFF_58
NOTE_OFF_46
VEL_5
NOTE_ON_63
VEL_4
NOTE_ON_51
TIME_SHIFT_64ND_4
NOTE_OFF_63
NOTE_OFF_51
VEL_5
NOTE_ON_54
VEL_4
NOTE_ON_42
TIME_SHIFT_64ND_4
NOTE_OFF_54
NOTE_OFF_42
VEL_6
NOTE_ON_64
VEL_5
NOTE_ON_52
TIME_SHIFT_64ND_4
NOTE_OFF_64
NOTE_OFF_52
VEL_5
NOTE_ON_55
VEL_4
NOTE_ON_43
TIME_SHIFT_64ND_4
NOTE_OFF_55
NOTE_OFF_43
VEL_5
NOTE_ON_65
VEL_4
NOTE_ON_53
TIME_SHIFT_64ND_4
NOTE_OFF_65
NOTE_OFF_53
VEL_5
NOTE_ON_56
VEL_4
NOTE_ON_44
TIME_SHIFT_64ND_4
NOTE_OFF_56
NOTE_OFF_44
VEL_4
NOTE_ON_59
VEL_3
NOTE_ON_47
TIME_SHIFT_64ND_4
NOTE_OFF_59
NOTE_OFF_47
VEL_4
NOTE_ON_54
VEL_3
NOTE_ON_42
TIME_SHIFT_64ND_4
NOTE_OFF_54
NOTE_OFF_42
VEL_5
NOTE_ON_59
VEL_4
NOTE_ON_47
TIME_SHIFT_64ND_4
NOTE_OFF_59
NOTE_OFF_47
VEL_4
NOTE_ON_53
VEL_3
NOTE_ON_41
TIME_SHIFT_64ND_4
NOTE_OFF_53
NOTE_OFF_41
VEL_4
NOTE_ON_59
VEL_3
NOTE_ON_47
TIME_SHIFT_64ND_4
NOTE_OFF_59
NOTE_OFF_47
VEL_4
NOTE_ON_51
VEL_4
NOTE_ON_39
TIME_SHIFT_64ND_4
NOTE_OFF_51
NOTE_OFF_39
VEL_4
NOTE_ON_56
VEL_3
NOTE_ON_44
TIME_SHIFT_64ND_4
NOTE_OFF_56
NOTE_OFF_44
VEL_4
NOTE_ON_50
VEL_3
NOTE_ON_38
TIME_SHIFT_64ND_4
NOTE_OFF_50
NOTE_OFF_38
VEL_4
NOTE_ON_54
VEL_3
NOTE_ON_42
TIME_SHIFT_64ND_4
NOTE_OFF_54
NOTE_OFF_42
VEL_4
NOTE_ON_51
VEL_3
NOTE_ON_39
TIME_SHIFT_64ND_4
NOTE_OFF_51
NOTE_OFF_39
VEL_4
NOTE_ON_54
VEL_3
NOTE_ON_42
TIME_SHIFT_64ND_4
NOTE_OFF_54
NOTE_OFF_42
VEL_4
NOTE_ON_44
VEL_3
NOTE_ON_32
TIME_SHIFT_64ND_4
NOTE_OFF_44
NOTE_OFF_32
VEL_4
NOTE_ON_54
VEL_3
NOTE_ON_42
TIME_SHIFT_64ND_4
NOTE_OFF_54
NOTE_OFF_42
VEL_3
NOTE_ON_51
VEL_3
NOTE_ON_39
TIME_SHIFT_64ND_4
NOTE_OFF_51
NOTE_OFF_39
VEL_4
NOTE_ON_54
VEL_3
NOTE_ON_42
TIME_SHIFT_64ND_4
NOTE_OFF_54
NOTE_OFF_42
VEL_3
NOTE_ON_44
VEL_3
NOTE_ON_32
TIME_SHIFT_64ND_4
NOTE_OFF_44
NOTE_OFF_32
VEL_3
NOTE_ON_54
VEL_3
NOTE_ON_42
TIME_SHIFT_64ND_4
NOTE_OFF_54
NOTE_OFF_42
VEL_4
NOTE_ON_46
VEL_3
NOTE_ON_34
TIME_SHIFT_64ND_4
NOTE_OFF_46
NOTE_OFF_34
VEL_3
NOTE_ON_54
VEL_2
NOTE_ON_42
TIME_SHIFT_64ND_4
NOTE_OFF_54
NOTE_OFF_42
VEL_3
NOTE_ON_51
VEL_2
NOTE_ON_39
TIME_SHIFT_64ND_4
NOTE_OFF_51
NOTE_OFF_39
VEL_3
NOTE_ON_54
VEL_3
NOTE_ON_42
TIME_SHIFT_64ND_4
NOTE_OFF_54
NOTE_OFF_42
VEL_3
NOTE_ON_46
VEL_2
NOTE_ON_34
TIME_SHIFT_64ND_4
NOTE_OFF_46
NOTE_OFF_34
VEL_3
NOTE_ON_54
VEL_2
NOTE_ON_42
TIME_SHIFT_64ND_4
NOTE_OFF_54
NOTE_OFF_42
VEL_3
NOTE_ON_51
VEL_3
NOTE_ON_39
TIME_SHIFT_64ND_4
NOTE_OFF_51
NOTE_OFF_39
VEL_3
NOTE_ON_58
VEL_2
NOTE_ON_46
TIME_SHIFT_64ND_4
NOTE_OFF_58
NOTE_OFF_46
VEL_3
NOTE_ON_51
VEL_2
NOTE_ON_39
TIME_SHIFT_64ND_4
NOTE_OFF_51
NOTE_OFF_39
VEL_3
NOTE_ON_59
VEL_2
NOTE_ON_47
TIME_SHIFT_64ND_4
NOTE_OFF_59
NOTE_OFF_47
VEL_2
NOTE_ON_51
VEL_2
NOTE_ON_39
TIME_SHIFT_64ND_4
NOTE_OFF_51
NOTE_OFF_39
VEL_2
NOTE_ON_61
VEL_2
NOTE_ON_49
TIME_SHIFT_64ND_4
NOTE_OFF_61
NOTE_OFF_49
VEL_3
NOTE_ON_51
VEL_2
NOTE_ON_39
TIME_SHIFT_64ND_4
NOTE_OFF_51
NOTE_OFF_39
VEL_2
NOTE_ON_58
VEL_2
NOTE_ON_46
TIME_SHIFT_64ND_4
NOTE_OFF_58
NOTE_OFF_46
VEL_2
NOTE_ON_51
VEL_2
NOTE_ON_39
TIME_SHIFT_64ND_4
NOTE_OFF_51
NOTE_OFF_39
VEL_2
NOTE_ON_59
VEL_2
NOTE_ON_47
TIME_SHIFT_64ND_4
NOTE_OFF_59
NOTE_OFF_47
VEL_2
NOTE_ON_51
VEL_2
NOTE_ON_39
TIME_SHIFT_64ND_4
NOTE_OFF_51
NOTE_OFF_39
VEL_2
NOTE_ON_61
VEL_2
NOTE_ON_49
TIME_SHIFT_64ND_4
NOTE_OFF_61
NOTE_OFF_49
VEL_2
NOTE_ON_51
VEL_2
NOTE_ON_39
TIME_SHIFT_64ND_4
NOTE_OFF_51
NOTE_OFF_39
VEL_2
NOTE_ON_61
VEL_2
NOTE_ON_49
TIME_SHIFT_64ND_4
NOTE_OFF_61
NOTE_OFF_49
VEL_2
NOTE_ON_51
VEL_1
NOTE_ON_39
TIME_SHIFT_64ND_4
NOTE_OFF_51
NOTE_OFF_39
VEL_2
NOTE_ON_59
VEL_2
NOTE_ON_47
TIME_SHIFT_64ND_4
NOTE_OFF_59
NOTE_OFF_47
VEL_2
NOTE_ON_51
VEL_1
NOTE_ON_39
TIME_SHIFT_64ND_4
NOTE_OFF_51
NOTE_OFF_39
VEL_2
NOTE_ON_58
VEL_1
NOTE_ON_46
TIME_SHIFT_64ND_4
NOTE_OFF_58
NOTE_OFF_46
VEL_2
NOTE_ON_51
VEL_1
NOTE_ON_39
TIME_SHIFT_64ND_4
NOTE_OFF_51
NOTE_OFF_39
VEL_2
NOTE_ON_56
VEL_1
NOTE_ON_44
TIME_SHIFT_64ND_4
NOTE_OFF_56
NOTE_OFF_44
VEL_2
NOTE_ON_51
VEL_1
NOTE_ON_39
TIME_SHIFT_64ND_4
NOTE_OFF_51
NOTE_OFF_39
VEL_2
NOTE_ON_58
VEL_1
NOTE_ON_46
TIME_SHIFT_64ND_4
NOTE_OFF_58
NOTE_OFF_46
VEL_1
NOTE_ON_51
VEL_1
NOTE_ON_39
TIME_SHIFT_64ND_5
NOTE_OFF_51
NOTE_OFF_39
VEL_1
NOTE_ON_58
VEL_1
NOTE_ON_46
TIME_SHIFT_64ND_7
NOTE_OFF_58
NOTE_OFF_46
VEL_2
NOTE_ON_51
VEL_1
NOTE_ON_27
TIME_SHIFT_64ND_14
NOTE_OFF_51
NOTE_OFF_27
