TIME_SHIFT_64ND_48
NOTE_ON_71
NOTE_ON_62
NOTE_ON_59
TIME_SHIFT_64ND_18
NOTE_OFF_71
NOTE_ON_69
NOTE_ON_57
TIME_SHIFT_64ND_25
NOTE_OFF_69
NOTE_OFF_57
NOTE_ON_67
NOTE_ON_55
TIME_SHIFT_64ND_8
NOTE_OFF_67
NOTE_OFF_55
NOTE_ON_66
NOTE_ON_54
TIME_SHIFT_64ND_18
NOTE_OFF_66
NOTE_OFF_54
NOTE_ON_66
NOTE_ON_54
TIME_SHIFT_64ND_33
NOTE_OFF_66
NOTE_OFF_62
NOTE_OFF_54
NOTE_OFF_59
NOTE_ON_71
NOTE_ON_62
NOTE_ON_59
TIME_SHIFT_64ND_11
NOTE_OFF_71
NOTE_ON_69
TIME_SHIFT_64ND_4
NOTE_OFF_69
NOTE_ON_71
TIME_SHIFT_64ND_4
NOTE_OFF_71
NOTE_ON_69
NOTE_ON_57
TIME_SHIFT_64ND_25
NOTE_OFF_69
NOTE_OFF_57
NOTE_ON_67
NOTE_ON_55
TIME_SHIFT_64ND_8
NOTE_OFF_67
NOTE_OFF_55
NOTE_ON_66
NOTE_ON_54
TIME_SHIFT_64ND_18
NOTE_OFF_66
NOTE_OFF_54
NOTE_ON_66
NOTE_ON_54
TIME_SHIFT_64ND_33
NOTE_OFF_66
NOTE_OFF_62
NOTE_OFF_54
NOTE_OFF_59
NOTE_ON_62
NOTE_ON_47
TIME_SHIFT_64ND_8
NOTE_OFF_62
NOTE_OFF_47
NOTE_ON_64
NOTE_ON_49
TIME_SHIFT_64ND_10
NOTE_OFF_64
NOTE_OFF_49
NOTE_ON_66
NOTE_ON_59
NOTE_ON_50
TIME_SHIFT_64ND_34
NOTE_ON_42
TIME_SHIFT_64ND_18
NOTE_OFF_66
NOTE_OFF_59
NOTE_OFF_50
NOTE_ON_66
NOTE_ON_58
NOTE_ON_52
TIME_SHIFT_64ND_25
NOTE_OFF_66
NOTE_OFF_58
NOTE_OFF_52
NOTE_ON_70
NOTE_ON_61
NOTE_ON_54
TIME_SHIFT_64ND_9
NOTE_OFF_70
NOTE_OFF_61
NOTE_OFF_54
NOTE_ON_73
NOTE_ON_64
NOTE_ON_55
TIME_SHIFT_64ND_9
NOTE_OFF_73
NOTE_OFF_64
NOTE_ON_74
NOTE_ON_66
TIME_SHIFT_64ND_9
NOTE_OFF_74
NOTE_OFF_66
NOTE_OFF_55
NOTE_OFF_42
NOTE_ON_73
NOTE_ON_64
NOTE_ON_55
NOTE_ON_47
TIME_SHIFT_64ND_17
NOTE_OFF_73
NOTE_OFF_64
NOTE_OFF_55
NOTE_ON_71
NOTE_ON_62
NOTE_ON_54
TIME_SHIFT_64ND_18
NOTE_OFF_47
NOTE_ON_42
TIME_SHIFT_64ND_22
NOTE_OFF_42
NOTE_ON_35
TIME_SHIFT_64ND_22
NOTE_OFF_71
NOTE_OFF_62
NOTE_OFF_35
NOTE_OFF_54
TIME_SHIFT_64ND_22
NOTE_ON_74
NOTE_ON_66
NOTE_ON_62
TIME_SHIFT_64ND_17
NOTE_OFF_74
NOTE_ON_73
NOTE_ON_61
TIME_SHIFT_64ND_25
NOTE_OFF_73
NOTE_OFF_61
NOTE_ON_71
NOTE_ON_59
TIME_SHIFT_64ND_8
NOTE_OFF_71
NOTE_OFF_59
NOTE_ON_69
NOTE_ON_57
TIME_SHIFT_64ND_18
NOTE_OFF_69
NOTE_OFF_57
NOTE_ON_69
NOTE_ON_57
TIME_SHIFT_64ND_33
NOTE_OFF_69
NOTE_OFF_66
NOTE_OFF_57
NOTE_OFF_62
NOTE_ON_74
NOTE_ON_66
NOTE_ON_62
TIME_SHIFT_64ND_11
NOTE_OFF_74
NOTE_ON_73
TIME_SHIFT_64ND_4
NOTE_OFF_73
NOTE_ON_74
TIME_SHIFT_64ND_4
NOTE_OFF_74
NOTE_ON_73
NOTE_ON_61
TIME_SHIFT_64ND_25
NOTE_OFF_73
NOTE_OFF_61
NOTE_ON_71
NOTE_ON_59
TIME_SHIFT_64ND_8
NOTE_OFF_71
NOTE_OFF_59
NOTE_ON_69
NOTE_ON_57
TIME_SHIFT_64ND_18
NOTE_OFF_69
NOTE_OFF_57
NOTE_ON_69
NOTE_ON_57
TIME_SHIFT_64ND_33
NOTE_OFF_69
NOTE_OFF_66
NOTE_OFF_57
NOTE_OFF_62
NOTE_ON_66
NOTE_ON_50
TIME_SHIFT_64ND_8
NOTE_OFF_66
NOTE_OFF_50
NOTE_ON_67
NOTE_ON_52
TIME_SHIFT_64ND_10
NOTE_OFF_67
NOTE_OFF_52
NOTE_ON_69
NOTE_ON_62
NOTE_ON_54
TIME_SHIFT_64ND_34
NOTE_ON_45
TIME_SHIFT_64ND_18
NOTE_OFF_69
NOTE_OFF_62
NOTE_OFF_54
NOTE_ON_69
NOTE_ON_61
NOTE_ON_55
TIME_SHIFT_64ND_25
NOTE_OFF_69
NOTE_OFF_61
NOTE_OFF_55
NOTE_ON_73
NOTE_ON_64
NOTE_ON_57
TIME_SHIFT_64ND_9
NOTE_OFF_73
NOTE_OFF_64
NOTE_OFF_57
NOTE_ON_76
NOTE_ON_67
NOTE_ON_59
TIME_SHIFT_64ND_9
NOTE_OFF_76
NOTE_OFF_67
NOTE_ON_78
NOTE_ON_69
TIME_SHIFT_64ND_9
NOTE_OFF_78
NOTE_OFF_69
NOTE_OFF_59
NOTE_OFF_45
NOTE_ON_76
NOTE_ON_67
NOTE_ON_59
NOTE_ON_50
TIME_SHIFT_64ND_17
NOTE_OFF_76
NOTE_OFF_67
NOTE_OFF_59
NOTE_ON_74
NOTE_ON_66
NOTE_ON_57
TIME_SHIFT_64ND_18
NOTE_OFF_50
NOTE_ON_45
TIME_SHIFT_64ND_22
NOTE_OFF_45
NOTE_ON_38
TIME_SHIFT_64ND_20
NOTE_OFF_74
NOTE_OFF_66
NOTE_OFF_38
NOTE_OFF_57
TIME_SHIFT_64ND_20
NOTE_ON_78
NOTE_ON_66
TIME_SHIFT_64ND_17
NOTE_OFF_78
NOTE_OFF_66
NOTE_ON_76
NOTE_ON_70
NOTE_ON_67
NOTE_ON_64
TIME_SHIFT_64ND_25
NOTE_OFF_76
NOTE_OFF_64
NOTE_ON_74
NOTE_ON_62
TIME_SHIFT_64ND_8
NOTE_OFF_74
NOTE_OFF_62
NOTE_ON_73
NOTE_ON_61
TIME_SHIFT_64ND_17
NOTE_OFF_73
NOTE_OFF_70
NOTE_OFF_67
NOTE_OFF_61
NOTE_ON_74
NOTE_ON_68
NOTE_ON_65
NOTE_ON_62
TIME_SHIFT_64ND_25
NOTE_OFF_74
NOTE_OFF_62
NOTE_ON_71
NOTE_ON_59
TIME_SHIFT_64ND_8
NOTE_OFF_71
NOTE_OFF_59
NOTE_ON_74
NOTE_ON_62
TIME_SHIFT_64ND_18
NOTE_OFF_74
NOTE_OFF_68
NOTE_OFF_65
NOTE_OFF_62
NOTE_ON_73
NOTE_ON_70
NOTE_ON_66
NOTE_ON_61
TIME_SHIFT_64ND_36
NOTE_OFF_61
NOTE_ON_49
TIME_SHIFT_64ND_20
NOTE_OFF_49
NOTE_ON_42
TIME_SHIFT_64ND_40
NOTE_OFF_73
NOTE_OFF_70
NOTE_OFF_66
NOTE_OFF_42
NOTE_ON_78
NOTE_ON_66
TIME_SHIFT_64ND_17
NOTE_OFF_78
NOTE_OFF_66
NOTE_ON_77
NOTE_ON_70
NOTE_ON_67
NOTE_ON_65
TIME_SHIFT_64ND_25
NOTE_OFF_77
NOTE_OFF_65
NOTE_ON_76
NOTE_ON_64
TIME_SHIFT_64ND_8
NOTE_OFF_76
NOTE_OFF_64
NOTE_ON_74
NOTE_ON_62
TIME_SHIFT_64ND_8
NOTE_OFF_74
NOTE_OFF_62
NOTE_ON_73
NOTE_ON_61
TIME_SHIFT_64ND_9
NOTE_OFF_73
NOTE_OFF_70
NOTE_OFF_67
NOTE_OFF_61
NOTE_ON_76
NOTE_ON_68
NOTE_ON_65
NOTE_ON_64
TIME_SHIFT_64ND_25
NOTE_OFF_76
NOTE_OFF_64
NOTE_ON_74
NOTE_ON_62
TIME_SHIFT_64ND_8
NOTE_OFF_74
NOTE_OFF_62
NOTE_ON_71
NOTE_ON_59
TIME_SHIFT_64ND_8
NOTE_OFF_71
NOTE_OFF_59
NOTE_ON_74
NOTE_ON_62
TIME_SHIFT_64ND_9
NOTE_OFF_74
NOTE_OFF_68
NOTE_OFF_65
NOTE_OFF_62
NOTE_ON_73
NOTE_ON_70
NOTE_ON_66
NOTE_ON_61
TIME_SHIFT_64ND_36
NOTE_OFF_61
NOTE_ON_49
TIME_SHIFT_64ND_20
NOTE_OFF_49
NOTE_ON_42
TIME_SHIFT_64ND_36
NOTE_OFF_73
NOTE_OFF_70
NOTE_OFF_66
NOTE_OFF_42
NOTE_ON_75
NOTE_ON_71
NOTE_ON_66
NOTE_ON_61
TIME_SHIFT_64ND_9
NOTE_OFF_75
NOTE_ON_77
TIME_SHIFT_64ND_9
NOTE_OFF_77
NOTE_OFF_71
NOTE_OFF_66
NOTE_ON_73
NOTE_ON_70
NOTE_ON_66
NOTE_ON_54
TIME_SHIFT_64ND_36
NOTE_OFF_54
NOTE_OFF_61
NOTE_ON_49
TIME_SHIFT_64ND_20
NOTE_OFF_49
NOTE_ON_42
TIME_SHIFT_64ND_37
NOTE_OFF_73
NOTE_OFF_70
NOTE_OFF_66
NOTE_OFF_42
NOTE_ON_75
NOTE_ON_71
NOTE_ON_66
NOTE_ON_61
TIME_SHIFT_64ND_9
NOTE_OFF_75
NOTE_ON_77
TIME_SHIFT_64ND_9
NOTE_OFF_77
NOTE_OFF_71
NOTE_OFF_66
NOTE_ON_73
NOTE_ON_70
NOTE_ON_66
NOTE_ON_54
TIME_SHIFT_64ND_17
NOTE_OFF_73
NOTE_ON_78
TIME_SHIFT_64ND_17
NOTE_OFF_78
NOTE_OFF_70
NOTE_OFF_66
NOTE_OFF_54
NOTE_OFF_61
NOTE_ON_75
NOTE_ON_71
NOTE_ON_66
NOTE_ON_61
TIME_SHIFT_64ND_9
NOTE_OFF_75
NOTE_ON_77
TIME_SHIFT_64ND_9
NOTE_OFF_77
NOTE_OFF_71
NOTE_OFF_66
NOTE_ON_73
NOTE_ON_70
NOTE_ON_66
NOTE_ON_54
TIME_SHIFT_64ND_17
NOTE_OFF_73
NOTE_ON_78
TIME_SHIFT_64ND_17
NOTE_OFF_78
NOTE_OFF_70
NOTE_OFF_66
NOTE_OFF_54
NOTE_OFF_61
NOTE_ON_75
NOTE_ON_71
NOTE_ON_66
NOTE_ON_61
TIME_SHIFT_64ND_9
NOTE_OFF_75
NOTE_ON_77
TIME_SHIFT_64ND_9
NOTE_OFF_77
NOTE_OFF_71
NOTE_OFF_66
NOTE_ON_73
NOTE_ON_70
NOTE_ON_66
NOTE_ON_54
TIME_SHIFT_64ND_17
NOTE_OFF_73
NOTE_ON_78
TIME_SHIFT_64ND_18
NOTE_OFF_78
NOTE_OFF_70
NOTE_OFF_66
NOTE_OFF_54
NOTE_OFF_61
NOTE_ON_73
NOTE_ON_70
NOTE_ON_66
NOTE_ON_54
NOTE_ON_47
TIME_SHIFT_64ND_17
NOTE_OFF_73
NOTE_ON_78
TIME_SHIFT_64ND_18
NOTE_OFF_78
NOTE_OFF_70
NOTE_OFF_66
NOTE_OFF_54
NOTE_OFF_47
NOTE_ON_78
NOTE_ON_75
NOTE_ON_71
NOTE_ON_47
NOTE_ON_40
TIME_SHIFT_64ND_17
NOTE_OFF_78
NOTE_ON_83
TIME_SHIFT_64ND_18
NOTE_OFF_83
NOTE_OFF_75
NOTE_OFF_71
NOTE_OFF_47
NOTE_OFF_40
NOTE_ON_81
NOTE_ON_75
NOTE_ON_72
NOTE_ON_69
TIME_SHIFT_64ND_25
NOTE_OFF_81
NOTE_OFF_69
NOTE_ON_79
NOTE_ON_67
TIME_SHIFT_64ND_8
NOTE_OFF_79
NOTE_OFF_67
NOTE_ON_78
NOTE_ON_66
TIME_SHIFT_64ND_17
NOTE_OFF_78
NOTE_OFF_66
NOTE_ON_78
NOTE_ON_66
TIME_SHIFT_64ND_34
NOTE_OFF_78
NOTE_OFF_75
NOTE_OFF_72
NOTE_OFF_66
NOTE_ON_79
NOTE_ON_67
NOTE_ON_71
NOTE_ON_67
TIME_SHIFT_64ND_18
NOTE_OFF_79
NOTE_OFF_67
NOTE_ON_78
NOTE_ON_66
TIME_SHIFT_64ND_25
NOTE_OFF_78
NOTE_OFF_66
NOTE_ON_76
NOTE_ON_64
TIME_SHIFT_64ND_3
NOTE_OFF_76
NOTE_ON_78
TIME_SHIFT_64ND_3
NOTE_OFF_78
NOTE_ON_76
TIME_SHIFT_64ND_3
NOTE_OFF_76
NOTE_OFF_64
NOTE_ON_74
NOTE_ON_62
TIME_SHIFT_64ND_17
NOTE_OFF_74
NOTE_OFF_67
NOTE_OFF_71
NOTE_OFF_62
NOTE_ON_74
NOTE_ON_71
NOTE_ON_67
NOTE_ON_62
NOTE_ON_55
TIME_SHIFT_64ND_39
NOTE_OFF_62
NOTE_OFF_74
NOTE_OFF_71
NOTE_OFF_67
NOTE_OFF_55
NOTE_ON_62
NOTE_ON_47
TIME_SHIFT_64ND_8
NOTE_OFF_62
NOTE_OFF_47
NOTE_ON_64
NOTE_ON_49
TIME_SHIFT_64ND_10
NOTE_OFF_64
NOTE_OFF_49
NOTE_ON_66
NOTE_ON_59
NOTE_ON_50
TIME_SHIFT_64ND_34
NOTE_ON_42
TIME_SHIFT_64ND_18
NOTE_OFF_66
NOTE_OFF_59
NOTE_OFF_50
NOTE_ON_66
NOTE_ON_58
NOTE_ON_52
TIME_SHIFT_64ND_25
NOTE_OFF_66
NOTE_OFF_58
NOTE_OFF_52
NOTE_ON_70
NOTE_ON_61
NOTE_ON_54
TIME_SHIFT_64ND_9
NOTE_OFF_70
NOTE_OFF_61
NOTE_OFF_54
NOTE_ON_73
NOTE_ON_64
NOTE_ON_55
TIME_SHIFT_64ND_9
NOTE_OFF_73
NOTE_OFF_64
NOTE_ON_74
NOTE_ON_66
TIME_SHIFT_64ND_9
NOTE_OFF_74
NOTE_OFF_66
NOTE_OFF_55
NOTE_OFF_42
NOTE_ON_73
NOTE_ON_64
NOTE_ON_55
NOTE_ON_47
TIME_SHIFT_64ND_17
NOTE_OFF_73
NOTE_OFF_64
NOTE_OFF_55
NOTE_ON_71
NOTE_ON_62
NOTE_ON_54
TIME_SHIFT_64ND_18
NOTE_OFF_47
NOTE_ON_42
TIME_SHIFT_64ND_22
NOTE_OFF_42
NOTE_ON_35
TIME_SHIFT_64ND_19
NOTE_OFF_71
NOTE_OFF_62
NOTE_OFF_35
NOTE_OFF_54
TIME_SHIFT_64ND_19
NOTE_ON_78
NOTE_ON_66
TIME_SHIFT_64ND_17
NOTE_OFF_78
NOTE_OFF_66
NOTE_ON_76
NOTE_ON_70
NOTE_ON_67
NOTE_ON_64
TIME_SHIFT_64ND_25
NOTE_OFF_76
NOTE_OFF_64
NOTE_ON_74
NOTE_ON_62
TIME_SHIFT_64ND_8
NOTE_OFF_74
NOTE_OFF_62
NOTE_ON_73
NOTE_ON_61
TIME_SHIFT_64ND_17
NOTE_OFF_73
NOTE_OFF_70
NOTE_OFF_67
NOTE_OFF_61
NOTE_ON_74
NOTE_ON_68
NOTE_ON_65
NOTE_ON_62
TIME_SHIFT_64ND_25
NOTE_OFF_74
NOTE_OFF_62
NOTE_ON_71
NOTE_ON_59
TIME_SHIFT_64ND_8
NOTE_OFF_71
NOTE_OFF_59
NOTE_ON_74
NOTE_ON_62
TIME_SHIFT_64ND_18
NOTE_OFF_74
NOTE_OFF_68
NOTE_OFF_65
NOTE_OFF_62
NOTE_ON_73
NOTE_ON_70
NOTE_ON_66
NOTE_ON_61
TIME_SHIFT_64ND_36
NOTE_OFF_61
NOTE_ON_49
TIME_SHIFT_64ND_19
NOTE_OFF_49
NOTE_ON_42
TIME_SHIFT_64ND_38
NOTE_OFF_73
NOTE_OFF_70
NOTE_OFF_66
NOTE_OFF_42
NOTE_ON_78
NOTE_ON_66
TIME_SHIFT_64ND_17
NOTE_OFF_78
NOTE_OFF_66
NOTE_ON_77
NOTE_ON_70
NOTE_ON_67
NOTE_ON_65
TIME_SHIFT_64ND_25
NOTE_OFF_77
NOTE_OFF_65
NOTE_ON_76
NOTE_ON_64
TIME_SHIFT_64ND_8
NOTE_OFF_76
NOTE_OFF_64
NOTE_ON_74
NOTE_ON_62
TIME_SHIFT_64ND_8
NOTE_OFF_74
NOTE_OFF_62
NOTE_ON_73
NOTE_ON_61
TIME_SHIFT_64ND_9
NOTE_OFF_73
NOTE_OFF_70
NOTE_OFF_67
NOTE_OFF_61
NOTE_ON_76
NOTE_ON_68
NOTE_ON_65
NOTE_ON_64
TIME_SHIFT_64ND_25
NOTE_OFF_76
NOTE_OFF_64
NOTE_ON_74
NOTE_ON_62
TIME_SHIFT_64ND_8
NOTE_OFF_74
NOTE_OFF_62
NOTE_ON_71
NOTE_ON_59
TIME_SHIFT_64ND_8
NOTE_OFF_71
NOTE_OFF_59
NOTE_ON_74
NOTE_ON_62
TIME_SHIFT_64ND_9
NOTE_OFF_74
NOTE_OFF_68
NOTE_OFF_65
NOTE_OFF_62
NOTE_ON_73
NOTE_ON_70
NOTE_ON_66
NOTE_ON_61
TIME_SHIFT_64ND_36
NOTE_OFF_61
NOTE_ON_49
TIME_SHIFT_64ND_20
NOTE_OFF_49
NOTE_ON_42
TIME_SHIFT_64ND_38
NOTE_OFF_73
NOTE_OFF_70
NOTE_OFF_66
NOTE_OFF_42
NOTE_ON_75
NOTE_ON_71
NOTE_ON_66
NOTE_ON_61
TIME_SHIFT_64ND_9
NOTE_OFF_75
NOTE_ON_77
TIME_SHIFT_64ND_9
NOTE_OFF_77
NOTE_OFF_71
NOTE_OFF_66
NOTE_ON_73
NOTE_ON_70
NOTE_ON_66
NOTE_ON_54
TIME_SHIFT_64ND_36
NOTE_OFF_54
NOTE_OFF_61
NOTE_ON_49
TIME_SHIFT_64ND_20
NOTE_OFF_49
NOTE_ON_42
TIME_SHIFT_64ND_37
NOTE_OFF_73
NOTE_OFF_70
NOTE_OFF_66
NOTE_OFF_42
NOTE_ON_75
NOTE_ON_71
NOTE_ON_66
NOTE_ON_61
TIME_SHIFT_64ND_9
NOTE_OFF_75
NOTE_ON_77
TIME_SHIFT_64ND_9
NOTE_OFF_77
NOTE_OFF_71
NOTE_OFF_66
NOTE_ON_73
NOTE_ON_70
NOTE_ON_66
NOTE_ON_54
TIME_SHIFT_64ND_17
NOTE_OFF_73
NOTE_ON_78
TIME_SHIFT_64ND_16
NOTE_OFF_78
NOTE_OFF_70
NOTE_OFF_66
NOTE_OFF_54
NOTE_OFF_61
NOTE_ON_75
NOTE_ON_71
NOTE_ON_66
NOTE_ON_61
TIME_SHIFT_64ND_9
NOTE_OFF_75
NOTE_ON_77
TIME_SHIFT_64ND_9
NOTE_OFF_77
NOTE_OFF_71
NOTE_OFF_66
NOTE_ON_73
NOTE_ON_70
NOTE_ON_66
NOTE_ON_54
TIME_SHIFT_64ND_17
NOTE_OFF_73
NOTE_ON_78
TIME_SHIFT_64ND_16
NOTE_OFF_78
NOTE_OFF_70
NOTE_OFF_66
NOTE_OFF_54
NOTE_OFF_61
NOTE_ON_75
NOTE_ON_71
NOTE_ON_66
NOTE_ON_61
TIME_SHIFT_64ND_9
NOTE_OFF_75
NOTE_ON_77
TIME_SHIFT_64ND_9
NOTE_OFF_77
NOTE_OFF_71
NOTE_OFF_66
NOTE_ON_73
NOTE_ON_70
NOTE_ON_66
NOTE_ON_54
TIME_SHIFT_64ND_17
NOTE_OFF_73
NOTE_ON_78
TIME_SHIFT_64ND_18
NOTE_OFF_78
NOTE_OFF_70
NOTE_OFF_66
NOTE_OFF_54
NOTE_OFF_61
NOTE_ON_73
NOTE_ON_70
NOTE_ON_66
NOTE_ON_54
NOTE_ON_47
TIME_SHIFT_64ND_17
NOTE_OFF_73
NOTE_ON_78
TIME_SHIFT_64ND_18
NOTE_OFF_78
NOTE_OFF_70
NOTE_OFF_66
NOTE_OFF_54
NOTE_OFF_47
NOTE_ON_78
NOTE_ON_75
NOTE_ON_71
NOTE_ON_47
NOTE_ON_40
TIME_SHIFT_64ND_17
NOTE_OFF_78
NOTE_ON_83
TIME_SHIFT_64ND_18
NOTE_OFF_83
NOTE_OFF_75
NOTE_OFF_71
NOTE_OFF_47
NOTE_OFF_40
NOTE_ON_81
NOTE_ON_75
NOTE_ON_72
NOTE_ON_69
TIME_SHIFT_64ND_25
NOTE_OFF_81
NOTE_ON_79
NOTE_ON_67
NOTE_OFF_69
TIME_SHIFT_64ND_8
NOTE_OFF_79
NOTE_OFF_67
NOTE_ON_78
NOTE_ON_66
TIME_SHIFT_64ND_17
NOTE_OFF_78
NOTE_OFF_66
NOTE_ON_78
NOTE_ON_66
TIME_SHIFT_64ND_34
NOTE_OFF_78
NOTE_OFF_75
NOTE_OFF_72
NOTE_OFF_66
NOTE_ON_79
NOTE_ON_67
NOTE_ON_71
NOTE_ON_67
TIME_SHIFT_64ND_18
NOTE_OFF_79
NOTE_OFF_67
NOTE_ON_78
NOTE_ON_66
TIME_SHIFT_64ND_25
NOTE_OFF_78
NOTE_OFF_66
NOTE_ON_76
NOTE_ON_64
TIME_SHIFT_64ND_3
NOTE_OFF_76
NOTE_ON_78
TIME_SHIFT_64ND_3
NOTE_OFF_78
NOTE_ON_76
TIME_SHIFT_64ND_3
NOTE_OFF_76
NOTE_OFF_64
NOTE_ON_74
NOTE_ON_62
TIME_SHIFT_64ND_17
NOTE_OFF_74
NOTE_OFF_67
NOTE_OFF_71
NOTE_OFF_62
NOTE_ON_74
NOTE_ON_71
NOTE_ON_67
NOTE_ON_62
NOTE_ON_55
TIME_SHIFT_64ND_39
NOTE_OFF_62
NOTE_OFF_74
NOTE_OFF_71
NOTE_OFF_67
NOTE_OFF_55
NOTE_ON_62
NOTE_ON_47
TIME_SHIFT_64ND_8
NOTE_OFF_62
NOTE_OFF_47
NOTE_ON_64
NOTE_ON_49
TIME_SHIFT_64ND_10
NOTE_OFF_64
NOTE_OFF_49
NOTE_ON_66
NOTE_ON_59
NOTE_ON_50
TIME_SHIFT_64ND_35
NOTE_ON_42
TIME_SHIFT_64ND_19
NOTE_OFF_66
NOTE_OFF_59
NOTE_OFF_50
NOTE_ON_66
NOTE_ON_58
NOTE_ON_52
TIME_SHIFT_64ND_27
NOTE_OFF_66
NOTE_OFF_58
NOTE_OFF_52
NOTE_ON_70
NOTE_ON_61
NOTE_ON_54
TIME_SHIFT_64ND_10
NOTE_OFF_70
NOTE_OFF_61
NOTE_OFF_54
NOTE_ON_73
NOTE_ON_64
NOTE_ON_55
TIME_SHIFT_64ND_10
NOTE_OFF_73
NOTE_OFF_64
NOTE_ON_74
NOTE_ON_66
TIME_SHIFT_64ND_11
NOTE_OFF_74
NOTE_OFF_66
NOTE_OFF_55
NOTE_OFF_42
NOTE_ON_73
NOTE_ON_64
NOTE_ON_55
NOTE_ON_47
TIME_SHIFT_64ND_19
NOTE_OFF_73
NOTE_OFF_64
NOTE_OFF_55
NOTE_ON_71
NOTE_ON_62
NOTE_ON_54
TIME_SHIFT_64ND_21
NOTE_OFF_47
NOTE_ON_42
TIME_SHIFT_64ND_27
NOTE_OFF_42
NOTE_ON_35
TIME_SHIFT_64ND_27
NOTE_OFF_71
NOTE_OFF_62
NOTE_OFF_35
NOTE_OFF_54
<END>
