TIME_SHIFT_64ND_63
VEL_3
NOTE_ON_59
VEL_3
NOTE_ON_47
TIME_SHIFT_64ND_21
NOTE_OFF_59
NOTE_OFF_47
VEL_3
NOTE_ON_64
VEL_3
NOTE_ON_52
TIME_SHIFT_64ND_21
NOTE_OFF_64
NOTE_OFF_52
VEL_3
NOTE_ON_64
VEL_3
NOTE_ON_52
TIME_SHIFT_64ND_21
NOTE_OFF_64
NOTE_OFF_52
VEL_3
NOTE_ON_63
VEL_3
NOTE_ON_51
TIME_SHIFT_64ND_21
NOTE_OFF_63
NOTE_OFF_51
VEL_3
NOTE_ON_61
VEL_2
NOTE_ON_49
TIME_SHIFT_64ND_11
NOTE_OFF_61
NOTE_OFF_49
VEL_3
NOTE_ON_59
VEL_2
NOTE_ON_47
TIME_SHIFT_64ND_11
NOTE_OFF_59
NOTE_OFF_47
VEL_2
NOTE_ON_57
VEL_3
NOTE_ON_61
VEL_2
NOTE_ON_52
VEL_2
NOTE_ON_45
TIME_SHIFT_64ND_43
NOTE_OFF_57
NOTE_OFF_61
NOTE_OFF_52
NOTE_OFF_45
VEL_3
NOTE_ON_64
VEL_2
NOTE_ON_56
VEL_2
NOTE_ON_49
VEL_2
NOTE_ON_52
TIME_SHIFT_64ND_21
NOTE_OFF_64
NOTE_OFF_56
NOTE_OFF_49
NOTE_OFF_52
TIME_SHIFT_64ND_21
VEL_3
NOTE_ON_66
VEL_2
NOTE_ON_61
VEL_2
NOTE_ON_52
VEL_2
NOTE_ON_45
TIME_SHIFT_64ND_14
NOTE_OFF_66
NOTE_OFF_61
NOTE_OFF_52
NOTE_OFF_45
TIME_SHIFT_64ND_7
VEL_3
NOTE_ON_66
VEL_2
NOTE_ON_61
VEL_2
NOTE_ON_45
VEL_2
NOTE_ON_52
TIME_SHIFT_64ND_14
NOTE_OFF_66
NOTE_OFF_61
NOTE_OFF_45
NOTE_OFF_52
TIME_SHIFT_64ND_7
VEL_3
NOTE_ON_66
VEL_2
NOTE_ON_59
VEL_2
NOTE_ON_47
VEL_2
NOTE_ON_51
TIME_SHIFT_64ND_14
NOTE_OFF_66
NOTE_OFF_59
NOTE_OFF_47
NOTE_OFF_51
TIME_SHIFT_64ND_7
VEL_2
NOTE_ON_59
VEL_3
NOTE_ON_66
VEL_2
NOTE_ON_47
VEL_2
NOTE_ON_51
TIME_SHIFT_64ND_15
NOTE_OFF_59
NOTE_OFF_66
NOTE_OFF_47
NOTE_OFF_51
TIME_SHIFT_64ND_7
VEL_2
NOTE_ON_59
VEL_3
NOTE_ON_68
VEL_2
NOTE_ON_40
VEL_2
NOTE_ON_52
TIME_SHIFT_64ND_42
NOTE_OFF_59
NOTE_OFF_68
NOTE_OFF_40
NOTE_OFF_52
TIME_SHIFT_64ND_21
VEL_4
NOTE_ON_68
VEL_4
NOTE_ON_56
TIME_SHIFT_64ND_20
NOTE_OFF_68
NOTE_OFF_56
VEL_4
NOTE_ON_73
VEL_4
NOTE_ON_61
TIME_SHIFT_64ND_21
NOTE_OFF_73
NOTE_OFF_61
VEL_4
NOTE_ON_73
VEL_4
NOTE_ON_61
TIME_SHIFT_64ND_21
NOTE_OFF_73
NOTE_OFF_61
VEL_4
NOTE_ON_71
VEL_4
NOTE_ON_59
TIME_SHIFT_64ND_21
NOTE_OFF_71
NOTE_OFF_59
VEL_4
NOTE_ON_69
VEL_4
NOTE_ON_57
TIME_SHIFT_64ND_11
NOTE_OFF_69
NOTE_OFF_57
VEL_3
NOTE_ON_68
VEL_3
NOTE_ON_56
TIME_SHIFT_64ND_10
NOTE_OFF_68
NOTE_OFF_56
VEL_4
NOTE_ON_61
VEL_4
NOTE_ON_69
VEL_4
NOTE_ON_57
TIME_SHIFT_64ND_21
NOTE_OFF_61
NOTE_OFF_57
VEL_3
NOTE_ON_63
VEL_3
NOTE_ON_54
TIME_SHIFT_64ND_22
NOTE_OFF_63
NOTE_OFF_69
NOTE_OFF_54
VEL_3
NOTE_ON_68
VEL_3
NOTE_ON_64
VEL_3
NOTE_ON_49
TIME_SHIFT_64ND_43
NOTE_OFF_68
NOTE_OFF_64
NOTE_OFF_49
VEL_4
NOTE_ON_66
VEL_3
NOTE_ON_61
VEL_3
NOTE_ON_52
VEL_2
NOTE_ON_45
TIME_SHIFT_64ND_22
NOTE_OFF_66
NOTE_OFF_61
NOTE_OFF_52
NOTE_OFF_45
VEL_3
NOTE_ON_66
VEL_2
NOTE_ON_57
VEL_2
NOTE_ON_42
VEL_2
NOTE_ON_52
TIME_SHIFT_64ND_22
NOTE_OFF_66
NOTE_OFF_57
NOTE_OFF_42
NOTE_OFF_52
VEL_3
NOTE_ON_66
VEL_2
NOTE_ON_57
VEL_2
NOTE_ON_59
VEL_2
NOTE_ON_52
VEL_2
NOTE_ON_47
TIME_SHIFT_64ND_22
NOTE_OFF_52
VEL_2
NOTE_ON_51
TIME_SHIFT_64ND_11
NOTE_OFF_66
VEL_3
NOTE_ON_64
TIME_SHIFT_64ND_12
NOTE_OFF_64
NOTE_OFF_57
NOTE_OFF_59
NOTE_OFF_51
NOTE_OFF_47
VEL_2
NOTE_ON_56
VEL_2
NOTE_ON_59
VEL_2
NOTE_ON_64
VEL_1
NOTE_ON_40
VEL_2
NOTE_ON_52
VEL_1
NOTE_ON_47
TIME_SHIFT_64ND_42
NOTE_OFF_56
NOTE_OFF_59
NOTE_OFF_64
NOTE_OFF_40
NOTE_OFF_52
NOTE_OFF_47
TIME_SHIFT_64ND_21
VEL_3
NOTE_ON_71
TIME_SHIFT_64ND_20
VEL_1
NOTE_ON_68
VEL_2
NOTE_ON_56
TIME_SHIFT_64ND_10
NOTE_OFF_71
VEL_3
NOTE_ON_73
TIME_SHIFT_64ND_10
NOTE_OFF_73
NOTE_OFF_68
VEL_2
NOTE_ON_66
VEL_3
NOTE_ON_75
TIME_SHIFT_64ND_19
NOTE_OFF_66
NOTE_OFF_75
NOTE_OFF_56
VEL_3
NOTE_ON_75
VEL_2
NOTE_ON_64
VEL_2
NOTE_ON_49
TIME_SHIFT_64ND_20
NOTE_OFF_75
VEL_3
NOTE_ON_71
TIME_SHIFT_64ND_19
NOTE_OFF_71
VEL_3
NOTE_ON_68
TIME_SHIFT_64ND_19
NOTE_OFF_68
NOTE_OFF_49
VEL_3
NOTE_ON_70
VEL_2
NOTE_ON_54
TIME_SHIFT_64ND_19
NOTE_OFF_70
NOTE_OFF_64
NOTE_OFF_54
VEL_2
NOTE_ON_71
VEL_2
NOTE_ON_63
VEL_2
NOTE_ON_47
TIME_SHIFT_64ND_20
NOTE_OFF_71
NOTE_OFF_63
NOTE_OFF_47
TIME_SHIFT_64ND_1
VEL_3
NOTE_ON_71
TIME_SHIFT_64ND_19
VEL_2
NOTE_ON_68
VEL_2
NOTE_ON_56
TIME_SHIFT_64ND_10
NOTE_OFF_71
VEL_3
NOTE_ON_73
TIME_SHIFT_64ND_9
NOTE_OFF_73
NOTE_OFF_68
VEL_3
NOTE_ON_75
VEL_2
NOTE_ON_66
TIME_SHIFT_64ND_10
NOTE_OFF_75
VEL_3
NOTE_ON_71
TIME_SHIFT_64ND_10
NOTE_OFF_71
NOTE_OFF_66
NOTE_OFF_56
VEL_3
NOTE_ON_75
VEL_2
NOTE_ON_64
VEL_2
NOTE_ON_49
TIME_SHIFT_64ND_20
NOTE_OFF_75
VEL_3
NOTE_ON_73
TIME_SHIFT_64ND_9
NOTE_OFF_73
VEL_2
NOTE_ON_71
TIME_SHIFT_64ND_9
NOTE_OFF_71
VEL_3
NOTE_ON_68
TIME_SHIFT_64ND_19
NOTE_OFF_68
NOTE_OFF_49
VEL_3
NOTE_ON_70
VEL_3
NOTE_ON_54
TIME_SHIFT_64ND_19
NOTE_OFF_70
NOTE_OFF_64
NOTE_OFF_54
VEL_3
NOTE_ON_71
VEL_2
NOTE_ON_63
VEL_3
NOTE_ON_47
TIME_SHIFT_64ND_20
NOTE_OFF_71
NOTE_OFF_63
NOTE_OFF_47
TIME_SHIFT_64ND_1
VEL_3
NOTE_ON_59
VEL_3
NOTE_ON_47
TIME_SHIFT_64ND_21
NOTE_OFF_59
NOTE_OFF_47
VEL_3
NOTE_ON_64
VEL_3
NOTE_ON_52
TIME_SHIFT_64ND_21
NOTE_OFF_64
NOTE_OFF_52
VEL_3
NOTE_ON_64
VEL_3
NOTE_ON_52
TIME_SHIFT_64ND_21
NOTE_OFF_64
NOTE_OFF_52
VEL_3
NOTE_ON_63
VEL_3
NOTE_ON_51
TIME_SHIFT_64ND_21
NOTE_OFF_63
NOTE_OFF_51
VEL_3
NOTE_ON_61
VEL_2
NOTE_ON_49
TIME_SHIFT_64ND_11
NOTE_OFF_61
NOTE_OFF_49
VEL_3
NOTE_ON_59
VEL_2
NOTE_ON_47
TIME_SHIFT_64ND_11
NOTE_OFF_59
NOTE_OFF_47
VEL_2
NOTE_ON_57
VEL_3
NOTE_ON_61
VEL_2
NOTE_ON_45
VEL_2
NOTE_ON_52
TIME_SHIFT_64ND_44
NOTE_OFF_57
NOTE_OFF_61
NOTE_OFF_45
NOTE_OFF_52
VEL_3
NOTE_ON_64
VEL_2
NOTE_ON_56
VEL_2
NOTE_ON_52
VEL_2
NOTE_ON_49
TIME_SHIFT_64ND_21
NOTE_OFF_64
NOTE_OFF_56
NOTE_OFF_52
NOTE_OFF_49
TIME_SHIFT_64ND_21
VEL_3
NOTE_ON_66
VEL_2
NOTE_ON_61
VEL_2
NOTE_ON_45
VEL_3
NOTE_ON_52
TIME_SHIFT_64ND_22
NOTE_OFF_66
NOTE_OFF_61
NOTE_OFF_45
NOTE_OFF_52
VEL_2
NOTE_ON_57
VEL_3
NOTE_ON_66
VEL_2
NOTE_ON_42
VEL_2
NOTE_ON_52
TIME_SHIFT_64ND_22
NOTE_OFF_57
NOTE_OFF_66
NOTE_OFF_42
NOTE_OFF_52
VEL_3
NOTE_ON_66
VEL_2
NOTE_ON_57
VEL_2
NOTE_ON_59
VEL_2
NOTE_ON_52
VEL_2
NOTE_ON_47
TIME_SHIFT_64ND_22
NOTE_OFF_52
VEL_2
NOTE_ON_51
TIME_SHIFT_64ND_12
NOTE_OFF_66
VEL_3
NOTE_ON_64
TIME_SHIFT_64ND_13
NOTE_OFF_64
NOTE_OFF_57
NOTE_OFF_59
NOTE_OFF_51
NOTE_OFF_47
VEL_2
NOTE_ON_64
VEL_2
NOTE_ON_56
VEL_2
NOTE_ON_59
VEL_2
NOTE_ON_47
VEL_2
NOTE_ON_52
VEL_2
NOTE_ON_40
TIME_SHIFT_64ND_49
NOTE_OFF_64
NOTE_OFF_56
NOTE_OFF_59
NOTE_OFF_47
NOTE_OFF_52
NOTE_OFF_40
TIME_SHIFT_64ND_21
VEL_3
NOTE_ON_71
TIME_SHIFT_64ND_20
VEL_1
NOTE_ON_68
VEL_2
NOTE_ON_56
TIME_SHIFT_64ND_10
NOTE_OFF_71
VEL_3
NOTE_ON_73
TIME_SHIFT_64ND_10
NOTE_OFF_73
NOTE_OFF_68
VEL_2
NOTE_ON_66
VEL_3
NOTE_ON_75
TIME_SHIFT_64ND_19
NOTE_OFF_66
NOTE_OFF_75
NOTE_OFF_56
VEL_3
NOTE_ON_75
VEL_2
NOTE_ON_64
VEL_2
NOTE_ON_49
TIME_SHIFT_64ND_20
NOTE_OFF_75
VEL_2
NOTE_ON_71
TIME_SHIFT_64ND_19
NOTE_OFF_71
VEL_2
NOTE_ON_68
TIME_SHIFT_64ND_19
NOTE_OFF_68
NOTE_OFF_49
VEL_2
NOTE_ON_70
VEL_2
NOTE_ON_54
TIME_SHIFT_64ND_19
NOTE_OFF_70
NOTE_OFF_64
NOTE_OFF_54
VEL_2
NOTE_ON_71
VEL_2
NOTE_ON_63
VEL_3
NOTE_ON_47
TIME_SHIFT_64ND_20
NOTE_OFF_71
NOTE_OFF_63
NOTE_OFF_47
TIME_SHIFT_64ND_1
VEL_3
NOTE_ON_71
TIME_SHIFT_64ND_19
VEL_2
NOTE_ON_68
VEL_2
NOTE_ON_56
TIME_SHIFT_64ND_10
NOTE_OFF_71
VEL_3
NOTE_ON_73
TIME_SHIFT_64ND_9
NOTE_OFF_73
NOTE_OFF_68
VEL_3
NOTE_ON_75
VEL_2
NOTE_ON_66
TIME_SHIFT_64ND_10
NOTE_OFF_75
VEL_3
NOTE_ON_71
TIME_SHIFT_64ND_9
NOTE_OFF_71
NOTE_OFF_66
NOTE_OFF_56
VEL_3
NOTE_ON_75
VEL_2
NOTE_ON_64
VEL_2
NOTE_ON_49
TIME_SHIFT_64ND_19
NOTE_OFF_75
VEL_3
NOTE_ON_73
TIME_SHIFT_64ND_9
NOTE_OFF_73
VEL_3
NOTE_ON_71
TIME_SHIFT_64ND_9
NOTE_OFF_71
VEL_3
NOTE_ON_68
TIME_SHIFT_64ND_19
NOTE_OFF_68
NOTE_OFF_49
VEL_3
NOTE_ON_70
VEL_3
NOTE_ON_54
TIME_SHIFT_64ND_19
NOTE_OFF_70
NOTE_OFF_64
NOTE_OFF_54
VEL_3
NOTE_ON_71
VEL_2
NOTE_ON_63
VEL_3
NOTE_ON_47
TIME_SHIFT_64ND_20
NOTE_OFF_71
NOTE_OFF_63
NOTE_OFF_47
TIME_SHIFT_64ND_1
VEL_3
NOTE_ON_59
VEL_3
NOTE_ON_47
TIME_SHIFT_64ND_21
NOTE_OFF_59
NOTE_OFF_47
VEL_3
NOTE_ON_64
VEL_3
NOTE_ON_52
TIME_SHIFT_64ND_21
NOTE_OFF_64
NOTE_OFF_52
VEL_3
NOTE_ON_64
VEL_3
NOTE_ON_52
TIME_SHIFT_64ND_21
NOTE_OFF_64
NOTE_OFF_52
VEL_3
NOTE_ON_63
VEL_3
NOTE_ON_51
TIME_SHIFT_64ND_21
NOTE_OFF_63
NOTE_OFF_51
VEL_3
NOTE_ON_61
VEL_2
NOTE_ON_49
TIME_SHIFT_64ND_11
NOTE_OFF_61
NOTE_OFF_49
VEL_3
NOTE_ON_59
VEL_2
NOTE_ON_47
TIME_SHIFT_64ND_12
NOTE_OFF_59
NOTE_OFF_47
VEL_3
NOTE_ON_61
VEL_2
NOTE_ON_57
VEL_2
NOTE_ON_52
VEL_2
NOTE_ON_45
TIME_SHIFT_64ND_44
NOTE_OFF_61
NOTE_OFF_57
NOTE_OFF_52
NOTE_OFF_45
VEL_3
NOTE_ON_64
VEL_2
NOTE_ON_56
VEL_2
NOTE_ON_52
VEL_2
NOTE_ON_49
TIME_SHIFT_64ND_21
NOTE_OFF_64
NOTE_OFF_56
NOTE_OFF_52
NOTE_OFF_49
TIME_SHIFT_64ND_21
VEL_3
NOTE_ON_66
VEL_2
NOTE_ON_61
VEL_2
NOTE_ON_52
VEL_2
NOTE_ON_45
TIME_SHIFT_64ND_23
NOTE_OFF_66
NOTE_OFF_61
NOTE_OFF_52
NOTE_OFF_45
VEL_2
NOTE_ON_57
VEL_2
NOTE_ON_66
VEL_2
NOTE_ON_42
VEL_2
NOTE_ON_52
TIME_SHIFT_64ND_23
NOTE_OFF_57
NOTE_OFF_66
NOTE_OFF_42
NOTE_OFF_52
VEL_2
NOTE_ON_66
VEL_2
NOTE_ON_57
VEL_2
NOTE_ON_59
VEL_2
NOTE_ON_52
VEL_1
NOTE_ON_47
TIME_SHIFT_64ND_24
NOTE_OFF_52
VEL_2
NOTE_ON_51
TIME_SHIFT_64ND_13
NOTE_OFF_66
VEL_2
NOTE_ON_64
TIME_SHIFT_64ND_14
NOTE_OFF_64
NOTE_OFF_57
NOTE_OFF_59
NOTE_OFF_51
NOTE_OFF_47
VEL_1
NOTE_ON_56
VEL_1
NOTE_ON_59
VEL_2
NOTE_ON_64
VEL_1
NOTE_ON_52
VEL_1
NOTE_ON_40
VEL_1
NOTE_ON_47
TIME_SHIFT_64ND_58
NOTE_OFF_56
NOTE_OFF_59
NOTE_OFF_64
NOTE_OFF_52
NOTE_OFF_40
NOTE_OFF_47
TIME_SHIFT_64ND_58
VEL_1
NOTE_ON_40
TIME_SHIFT_64ND_41
VEL_1
NOTE_ON_47
TIME_SHIFT_64ND_2
VEL_1
NOTE_ON_52
TIME_SHIFT_64ND_1
NOTE_OFF_47
TIME_SHIFT_64ND_1
VEL_1
NOTE_ON_55
TIME_SHIFT_64ND_1
NOTE_OFF_52
TIME_SHIFT_64ND_1
VEL_1
NOTE_ON_59
TIME_SHIFT_64ND_1
NOTE_OFF_55
TIME_SHIFT_64ND_1
VEL_1
NOTE_ON_55
TIME_SHIFT_64ND_1
NOTE_OFF_59
TIME_SHIFT_64ND_1
VEL_1
NOTE_ON_52
TIME_SHIFT_64ND_1
NOTE_OFF_55
TIME_SHIFT_64ND_1
VEL_1
NOTE_ON_47
TIME_SHIFT_64ND_1
NOTE_OFF_52
TIME_SHIFT_64ND_1
NOTE_OFF_40
VEL_2
NOTE_ON_40
TIME_SHIFT_64ND_1
NOTE_OFF_47
TIME_SHIFT_64ND_41
VEL_1
NOTE_ON_47
TIME_SHIFT_64ND_2
VEL_1
NOTE_ON_52
TIME_SHIFT_64ND_1
NOTE_OFF_47
TIME_SHIFT_64ND_1
VEL_1
NOTE_ON_55
TIME_SHIFT_64ND_1
NOTE_OFF_52
TIME_SHIFT_64ND_1
VEL_1
NOTE_ON_59
TIME_SHIFT_64ND_1
NOTE_OFF_55
TIME_SHIFT_64ND_1
VEL_1
NOTE_ON_55
TIME_SHIFT_64ND_1
NOTE_OFF_59
TIME_SHIFT_64ND_1
VEL_1
NOTE_ON_52
TIME_SHIFT_64ND_1
NOTE_OFF_55
TIME_SHIFT_64ND_1
VEL_1
NOTE_ON_47
TIME_SHIFT_64ND_1
NOTE_OFF_52
TIME_SHIFT_64ND_1
NOTE_OFF_47
NOTE_OFF_40
VEL_2
NOTE_ON_40
TIME_SHIFT_64ND_66
VEL_2
NOTE_ON_67
VEL_1
NOTE_ON_64
VEL_1
NOTE_ON_59
TIME_SHIFT_64ND_10
NOTE_OFF_67
NOTE_OFF_64
NOTE_OFF_59
NOTE_OFF_40
VEL_2
NOTE_ON_71
VEL_2
NOTE_ON_67
VEL_2
NOTE_ON_64
TIME_SHIFT_64ND_10
NOTE_OFF_71
NOTE_OFF_67
NOTE_OFF_64
VEL_2
NOTE_ON_76
VEL_2
NOTE_ON_71
VEL_2
NOTE_ON_67
TIME_SHIFT_64ND_10
NOTE_OFF_76
NOTE_OFF_71
NOTE_OFF_67
VEL_2
NOTE_ON_76
VEL_2
NOTE_ON_71
VEL_2
NOTE_ON_67
TIME_SHIFT_64ND_29
NOTE_OFF_76
NOTE_OFF_71
NOTE_OFF_67
VEL_2
NOTE_ON_71
VEL_2
NOTE_ON_67
VEL_2
NOTE_ON_64
TIME_SHIFT_64ND_10
NOTE_OFF_71
NOTE_OFF_67
NOTE_OFF_64
VEL_3
NOTE_ON_67
VEL_2
NOTE_ON_64
VEL_2
NOTE_ON_59
TIME_SHIFT_64ND_19
NOTE_OFF_67
NOTE_OFF_64
NOTE_OFF_59
VEL_3
NOTE_ON_71
VEL_3
NOTE_ON_67
VEL_3
NOTE_ON_64
TIME_SHIFT_64ND_20
NOTE_OFF_71
NOTE_OFF_67
NOTE_OFF_64
VEL_4
NOTE_ON_74
VEL_3
NOTE_ON_62
VEL_3
NOTE_ON_66
VEL_3
NOTE_ON_69
TIME_SHIFT_64ND_79
NOTE_OFF_74
NOTE_OFF_62
NOTE_OFF_66
NOTE_OFF_69
TIME_SHIFT_64ND_1
VEL_1
NOTE_ON_41
TIME_SHIFT_64ND_41
VEL_1
NOTE_ON_48
TIME_SHIFT_64ND_2
VEL_1
NOTE_ON_53
TIME_SHIFT_64ND_2
NOTE_OFF_48
VEL_1
NOTE_ON_57
TIME_SHIFT_64ND_2
NOTE_OFF_53
VEL_1
NOTE_ON_60
TIME_SHIFT_64ND_2
NOTE_OFF_57
VEL_1
NOTE_ON_57
TIME_SHIFT_64ND_2
NOTE_OFF_60
VEL_1
NOTE_ON_53
TIME_SHIFT_64ND_2
NOTE_OFF_57
VEL_1
NOTE_ON_48
TIME_SHIFT_64ND_2
NOTE_OFF_53
NOTE_OFF_41
VEL_2
NOTE_ON_41
TIME_SHIFT_64ND_2
NOTE_OFF_48
TIME_SHIFT_64ND_39
VEL_1
NOTE_ON_48
TIME_SHIFT_64ND_2
VEL_1
NOTE_ON_53
TIME_SHIFT_64ND_2
NOTE_OFF_48
VEL_1
NOTE_ON_57
TIME_SHIFT_64ND_2
NOTE_OFF_53
VEL_1
NOTE_ON_60
TIME_SHIFT_64ND_2
NOTE_OFF_57
VEL_1
NOTE_ON_57
TIME_SHIFT_64ND_2
NOTE_OFF_60
VEL_1
NOTE_ON_53
TIME_SHIFT_64ND_2
NOTE_OFF_57
VEL_1
NOTE_ON_48
TIME_SHIFT_64ND_2
NOTE_OFF_53
NOTE_OFF_41
VEL_2
NOTE_ON_41
TIME_SHIFT_64ND_1
NOTE_OFF_48
TIME_SHIFT_64ND_64
VEL_2
NOTE_ON_69
VEL_2
NOTE_ON_65
VEL_2
NOTE_ON_60
TIME_SHIFT_64ND_10
NOTE_OFF_69
NOTE_OFF_65
NOTE_OFF_60
NOTE_OFF_41
VEL_3
NOTE_ON_72
VEL_2
NOTE_ON_69
VEL_2
NOTE_ON_65
TIME_SHIFT_64ND_10
NOTE_OFF_72
NOTE_OFF_69
NOTE_OFF_65
VEL_4
NOTE_ON_77
VEL_3
NOTE_ON_72
VEL_3
NOTE_ON_69
TIME_SHIFT_64ND_10
NOTE_OFF_77
NOTE_OFF_72
NOTE_OFF_69
VEL_4
NOTE_ON_77
VEL_4
NOTE_ON_72
VEL_4
NOTE_ON_69
TIME_SHIFT_64ND_29
NOTE_OFF_77
NOTE_OFF_72
NOTE_OFF_69
VEL_3
NOTE_ON_72
VEL_3
NOTE_ON_69
VEL_3
NOTE_ON_65
TIME_SHIFT_64ND_10
NOTE_OFF_72
NOTE_OFF_69
NOTE_OFF_65
VEL_3
NOTE_ON_69
VEL_2
NOTE_ON_65
VEL_2
NOTE_ON_60
TIME_SHIFT_64ND_20
NOTE_OFF_69
NOTE_OFF_65
NOTE_OFF_60
VEL_2
NOTE_ON_64
VEL_2
NOTE_ON_72
VEL_2
NOTE_ON_69
VEL_2
NOTE_ON_57
TIME_SHIFT_64ND_21
NOTE_OFF_64
NOTE_OFF_72
NOTE_OFF_69
NOTE_OFF_57
VEL_2
NOTE_ON_66
VEL_2
NOTE_ON_71
VEL_2
NOTE_ON_63
VEL_2
NOTE_ON_59
TIME_SHIFT_64ND_79
NOTE_OFF_66
NOTE_OFF_71
NOTE_OFF_63
NOTE_OFF_59
TIME_SHIFT_64ND_1
VEL_1
NOTE_ON_40
TIME_SHIFT_64ND_41
VEL_1
NOTE_ON_47
TIME_SHIFT_64ND_2
VEL_1
NOTE_ON_52
TIME_SHIFT_64ND_2
NOTE_OFF_47
VEL_1
NOTE_ON_55
TIME_SHIFT_64ND_2
NOTE_OFF_52
VEL_1
NOTE_ON_59
TIME_SHIFT_64ND_2
NOTE_OFF_55
VEL_1
NOTE_ON_55
TIME_SHIFT_64ND_2
NOTE_OFF_59
VEL_1
NOTE_ON_52
TIME_SHIFT_64ND_2
NOTE_OFF_55
VEL_1
NOTE_ON_47
TIME_SHIFT_64ND_2
NOTE_OFF_52
NOTE_OFF_40
VEL_1
NOTE_ON_40
TIME_SHIFT_64ND_2
NOTE_OFF_47
TIME_SHIFT_64ND_39
VEL_1
NOTE_ON_47
TIME_SHIFT_64ND_2
VEL_1
NOTE_ON_52
TIME_SHIFT_64ND_2
NOTE_OFF_47
VEL_1
NOTE_ON_55
TIME_SHIFT_64ND_2
NOTE_OFF_52
VEL_1
NOTE_ON_59
TIME_SHIFT_64ND_2
NOTE_OFF_55
VEL_1
NOTE_ON_55
TIME_SHIFT_64ND_2
NOTE_OFF_59
VEL_1
NOTE_ON_52
TIME_SHIFT_64ND_2
NOTE_OFF_55
VEL_1
NOTE_ON_47
TIME_SHIFT_64ND_2
NOTE_OFF_52
NOTE_OFF_40
VEL_2
NOTE_ON_40
TIME_SHIFT_64ND_2
NOTE_OFF_47
TIME_SHIFT_64ND_64
VEL_2
NOTE_ON_67
VEL_1
NOTE_ON_64
VEL_1
NOTE_ON_59
TIME_SHIFT_64ND_10
NOTE_OFF_67
NOTE_OFF_64
NOTE_OFF_59
NOTE_OFF_40
VEL_2
NOTE_ON_71
VEL_2
NOTE_ON_67
VEL_2
NOTE_ON_64
TIME_SHIFT_64ND_10
NOTE_OFF_71
NOTE_OFF_67
NOTE_OFF_64
VEL_2
NOTE_ON_76
VEL_2
NOTE_ON_71
VEL_2
NOTE_ON_67
TIME_SHIFT_64ND_10
NOTE_OFF_76
NOTE_OFF_71
NOTE_OFF_67
VEL_2
NOTE_ON_76
VEL_2
NOTE_ON_71
VEL_2
NOTE_ON_67
TIME_SHIFT_64ND_29
NOTE_OFF_76
NOTE_OFF_71
NOTE_OFF_67
VEL_2
NOTE_ON_71
VEL_2
NOTE_ON_67
VEL_2
NOTE_ON_64
TIME_SHIFT_64ND_10
NOTE_OFF_71
NOTE_OFF_67
NOTE_OFF_64
VEL_3
NOTE_ON_67
VEL_2
NOTE_ON_64
VEL_2
NOTE_ON_59
TIME_SHIFT_64ND_19
NOTE_OFF_67
NOTE_OFF_64
NOTE_OFF_59
VEL_3
NOTE_ON_71
VEL_3
NOTE_ON_67
VEL_3
NOTE_ON_64
TIME_SHIFT_64ND_20
NOTE_OFF_71
NOTE_OFF_67
NOTE_OFF_64
VEL_4
NOTE_ON_74
VEL_3
NOTE_ON_62
VEL_3
NOTE_ON_66
VEL_3
NOTE_ON_69
TIME_SHIFT_64ND_79
NOTE_OFF_74
NOTE_OFF_62
NOTE_OFF_66
NOTE_OFF_69
TIME_SHIFT_64ND_1
VEL_1
NOTE_ON_41
TIME_SHIFT_64ND_41
VEL_1
NOTE_ON_48
TIME_SHIFT_64ND_2
VEL_1
NOTE_ON_53
TIME_SHIFT_64ND_2
NOTE_OFF_48
VEL_1
NOTE_ON_57
TIME_SHIFT_64ND_2
NOTE_OFF_53
VEL_1
NOTE_ON_60
TIME_SHIFT_64ND_2
NOTE_OFF_57
VEL_1
NOTE_ON_57
TIME_SHIFT_64ND_2
NOTE_OFF_60
VEL_1
NOTE_ON_53
TIME_SHIFT_64ND_2
NOTE_OFF_57
VEL_1
NOTE_ON_48
TIME_SHIFT_64ND_2
NOTE_OFF_53
NOTE_OFF_41
VEL_2
NOTE_ON_41
TIME_SHIFT_64ND_2
NOTE_OFF_48
TIME_SHIFT_64ND_39
VEL_1
NOTE_ON_48
TIME_SHIFT_64ND_2
VEL_1
NOTE_ON_53
TIME_SHIFT_64ND_2
NOTE_OFF_48
VEL_1
NOTE_ON_57
TIME_SHIFT_64ND_2
NOTE_OFF_53
VEL_1
NOTE_ON_60
TIME_SHIFT_64ND_2
NOTE_OFF_57
VEL_1
NOTE_ON_57
TIME_SHIFT_64ND_2
NOTE_OFF_60
VEL_1
NOTE_ON_53
TIME_SHIFT_64ND_2
NOTE_OFF_57
VEL_1
NOTE_ON_48
TIME_SHIFT_64ND_2
NOTE_OFF_53
NOTE_OFF_41
VEL_2
NOTE_ON_41
TIME_SHIFT_64ND_2
NOTE_OFF_48
TIME_SHIFT_64ND_63
VEL_2
NOTE_ON_69
VEL_2
NOTE_ON_65
VEL_2
NOTE_ON_60
TIME_SHIFT_64ND_10
NOTE_OFF_69
NOTE_OFF_65
NOTE_OFF_60
NOTE_OFF_41
VEL_3
NOTE_ON_72
VEL_2
NOTE_ON_69
VEL_2
NOTE_ON_65
TIME_SHIFT_64ND_10
NOTE_OFF_72
NOTE_OFF_69
NOTE_OFF_65
VEL_3
NOTE_ON_77
VEL_3
NOTE_ON_72
VEL_3
NOTE_ON_69
TIME_SHIFT_64ND_10
NOTE_OFF_77
NOTE_OFF_72
NOTE_OFF_69
VEL_4
NOTE_ON_77
VEL_3
NOTE_ON_72
VEL_3
NOTE_ON_69
TIME_SHIFT_64ND_29
NOTE_OFF_77
NOTE_OFF_72
NOTE_OFF_69
VEL_3
NOTE_ON_65
VEL_3
NOTE_ON_72
VEL_3
NOTE_ON_69
TIME_SHIFT_64ND_10
NOTE_OFF_65
NOTE_OFF_72
NOTE_OFF_69
VEL_3
NOTE_ON_69
VEL_3
NOTE_ON_65
VEL_3
NOTE_ON_60
TIME_SHIFT_64ND_20
NOTE_OFF_69
NOTE_OFF_65
NOTE_OFF_60
VEL_2
NOTE_ON_64
VEL_2
NOTE_ON_72
VEL_2
NOTE_ON_69
VEL_2
NOTE_ON_57
TIME_SHIFT_64ND_23
NOTE_OFF_64
NOTE_OFF_72
NOTE_OFF_69
NOTE_OFF_57
VEL_2
NOTE_ON_71
VEL_2
NOTE_ON_66
VEL_2
NOTE_ON_63
VEL_1
NOTE_ON_59
TIME_SHIFT_64ND_39
NOTE_OFF_71
NOTE_OFF_66
NOTE_OFF_63
NOTE_OFF_59
TIME_SHIFT_64ND_21
VEL_3
NOTE_ON_71
TIME_SHIFT_64ND_20
VEL_1
NOTE_ON_68
VEL_2
NOTE_ON_56
TIME_SHIFT_64ND_10
NOTE_OFF_71
VEL_3
NOTE_ON_73
TIME_SHIFT_64ND_10
NOTE_OFF_73
NOTE_OFF_68
VEL_2
NOTE_ON_66
VEL_3
NOTE_ON_75
TIME_SHIFT_64ND_19
NOTE_OFF_66
NOTE_OFF_75
NOTE_OFF_56
VEL_3
NOTE_ON_75
VEL_2
NOTE_ON_64
VEL_2
NOTE_ON_49
TIME_SHIFT_64ND_20
NOTE_OFF_75
VEL_3
NOTE_ON_71
TIME_SHIFT_64ND_19
NOTE_OFF_71
VEL_3
NOTE_ON_68
TIME_SHIFT_64ND_19
NOTE_OFF_68
NOTE_OFF_49
VEL_3
NOTE_ON_70
VEL_2
NOTE_ON_54
TIME_SHIFT_64ND_19
NOTE_OFF_70
NOTE_OFF_64
NOTE_OFF_54
VEL_3
NOTE_ON_71
VEL_2
NOTE_ON_63
VEL_3
NOTE_ON_47
TIME_SHIFT_64ND_19
NOTE_OFF_71
NOTE_OFF_63
NOTE_OFF_47
TIME_SHIFT_64ND_1
VEL_3
NOTE_ON_71
TIME_SHIFT_64ND_20
VEL_2
NOTE_ON_68
VEL_2
NOTE_ON_56
TIME_SHIFT_64ND_10
NOTE_OFF_71
VEL_3
NOTE_ON_73
TIME_SHIFT_64ND_10
NOTE_OFF_73
NOTE_OFF_68
VEL_3
NOTE_ON_75
VEL_2
NOTE_ON_66
TIME_SHIFT_64ND_10
NOTE_OFF_75
VEL_3
NOTE_ON_71
TIME_SHIFT_64ND_10
NOTE_OFF_71
NOTE_OFF_66
NOTE_OFF_56
VEL_3
NOTE_ON_75
VEL_2
NOTE_ON_64
VEL_2
NOTE_ON_49
TIME_SHIFT_64ND_19
NOTE_OFF_75
VEL_3
NOTE_ON_73
TIME_SHIFT_64ND_9
NOTE_OFF_73
VEL_3
NOTE_ON_71
TIME_SHIFT_64ND_9
NOTE_OFF_71
VEL_3
NOTE_ON_68
TIME_SHIFT_64ND_19
NOTE_OFF_68
NOTE_OFF_49
VEL_3
NOTE_ON_70
VEL_3
NOTE_ON_54
TIME_SHIFT_64ND_19
NOTE_OFF_70
NOTE_OFF_64
NOTE_OFF_54
VEL_2
NOTE_ON_63
VEL_3
NOTE_ON_71
VEL_2
NOTE_ON_47
TIME_SHIFT_64ND_20
NOTE_OFF_63
NOTE_OFF_71
NOTE_OFF_47
TIME_SHIFT_64ND_1
VEL_3
NOTE_ON_59
VEL_3
NOTE_ON_47
TIME_SHIFT_64ND_21
NOTE_OFF_59
NOTE_OFF_47
VEL_4
NOTE_ON_64
VEL_3
NOTE_ON_52
TIME_SHIFT_64ND_21
NOTE_OFF_64
NOTE_OFF_52
VEL_3
NOTE_ON_64
VEL_3
NOTE_ON_52
TIME_SHIFT_64ND_21
NOTE_OFF_64
NOTE_OFF_52
VEL_3
NOTE_ON_63
VEL_3
NOTE_ON_51
TIME_SHIFT_64ND_21
NOTE_OFF_63
NOTE_OFF_51
VEL_3
NOTE_ON_61
VEL_3
NOTE_ON_49
TIME_SHIFT_64ND_11
NOTE_OFF_61
NOTE_OFF_49
VEL_3
NOTE_ON_59
VEL_2
NOTE_ON_47
TIME_SHIFT_64ND_11
NOTE_OFF_59
NOTE_OFF_47
VEL_3
NOTE_ON_57
VEL_3
NOTE_ON_61
VEL_2
NOTE_ON_45
VEL_3
NOTE_ON_52
TIME_SHIFT_64ND_44
NOTE_OFF_57
NOTE_OFF_61
NOTE_OFF_45
NOTE_OFF_52
VEL_3
NOTE_ON_56
VEL_3
NOTE_ON_64
VEL_3
NOTE_ON_52
VEL_2
NOTE_ON_49
TIME_SHIFT_64ND_21
NOTE_OFF_56
NOTE_OFF_64
NOTE_OFF_52
NOTE_OFF_49
TIME_SHIFT_64ND_21
VEL_3
NOTE_ON_66
VEL_3
NOTE_ON_61
VEL_3
NOTE_ON_52
VEL_2
NOTE_ON_45
TIME_SHIFT_64ND_21
NOTE_OFF_66
NOTE_OFF_61
NOTE_OFF_52
NOTE_OFF_45
TIME_SHIFT_64ND_1
VEL_3
NOTE_ON_66
VEL_3
NOTE_ON_61
VEL_2
NOTE_ON_52
VEL_2
NOTE_ON_45
TIME_SHIFT_64ND_21
NOTE_OFF_66
NOTE_OFF_61
NOTE_OFF_52
NOTE_OFF_45
TIME_SHIFT_64ND_1
VEL_3
NOTE_ON_69
VEL_2
NOTE_ON_61
VEL_2
NOTE_ON_52
VEL_2
NOTE_ON_42
TIME_SHIFT_64ND_21
NOTE_OFF_69
NOTE_OFF_61
NOTE_OFF_52
NOTE_OFF_42
TIME_SHIFT_64ND_2
VEL_3
NOTE_ON_69
VEL_2
NOTE_ON_61
VEL_2
NOTE_ON_52
VEL_2
NOTE_ON_42
TIME_SHIFT_64ND_24
NOTE_OFF_69
NOTE_OFF_61
NOTE_OFF_52
NOTE_OFF_42
TIME_SHIFT_64ND_2
VEL_2
NOTE_ON_60
VEL_3
NOTE_ON_68
VEL_2
NOTE_ON_51
VEL_2
NOTE_ON_44
TIME_SHIFT_64ND_62
NOTE_OFF_60
NOTE_OFF_68
NOTE_OFF_51
NOTE_OFF_44
TIME_SHIFT_64ND_1
VEL_4
NOTE_ON_68
VEL_4
NOTE_ON_56
TIME_SHIFT_64ND_21
NOTE_OFF_68
NOTE_OFF_56
VEL_4
NOTE_ON_73
VEL_4
NOTE_ON_61
TIME_SHIFT_64ND_21
NOTE_OFF_73
NOTE_OFF_61
VEL_4
NOTE_ON_73
VEL_3
NOTE_ON_61
TIME_SHIFT_64ND_21
NOTE_OFF_73
NOTE_OFF_61
VEL_4
NOTE_ON_71
VEL_4
NOTE_ON_59
TIME_SHIFT_64ND_21
NOTE_OFF_71
NOTE_OFF_59
VEL_4
NOTE_ON_69
VEL_4
NOTE_ON_57
TIME_SHIFT_64ND_11
NOTE_OFF_69
NOTE_OFF_57
VEL_4
NOTE_ON_68
VEL_3
NOTE_ON_56
TIME_SHIFT_64ND_11
NOTE_OFF_68
NOTE_OFF_56
VEL_3
NOTE_ON_61
VEL_4
NOTE_ON_69
VEL_3
NOTE_ON_57
TIME_SHIFT_64ND_22
NOTE_OFF_61
NOTE_OFF_57
VEL_3
NOTE_ON_63
VEL_3
NOTE_ON_54
TIME_SHIFT_64ND_22
NOTE_OFF_63
NOTE_OFF_69
NOTE_OFF_54
VEL_3
NOTE_ON_64
VEL_4
NOTE_ON_68
VEL_3
NOTE_ON_49
TIME_SHIFT_64ND_22
NOTE_OFF_64
NOTE_OFF_49
VEL_3
NOTE_ON_60
VEL_3
NOTE_ON_44
TIME_SHIFT_64ND_23
NOTE_OFF_60
NOTE_OFF_68
NOTE_OFF_44
VEL_3
NOTE_ON_66
VEL_2
NOTE_ON_61
VEL_2
NOTE_ON_52
VEL_2
NOTE_ON_45
TIME_SHIFT_64ND_24
NOTE_OFF_66
NOTE_OFF_61
NOTE_OFF_52
NOTE_OFF_45
VEL_3
NOTE_ON_66
VEL_2
NOTE_ON_57
VEL_2
NOTE_ON_52
VEL_2
NOTE_ON_42
TIME_SHIFT_64ND_24
NOTE_OFF_66
NOTE_OFF_57
NOTE_OFF_52
NOTE_OFF_42
VEL_3
NOTE_ON_66
VEL_2
NOTE_ON_59
VEL_2
NOTE_ON_57
VEL_2
NOTE_ON_52
VEL_2
NOTE_ON_47
TIME_SHIFT_64ND_27
NOTE_OFF_52
VEL_1
NOTE_ON_51
TIME_SHIFT_64ND_16
NOTE_OFF_66
VEL_2
NOTE_ON_64
TIME_SHIFT_64ND_20
NOTE_OFF_64
NOTE_OFF_59
NOTE_OFF_57
NOTE_OFF_51
NOTE_OFF_47
VEL_1
NOTE_ON_64
VEL_1
NOTE_ON_59
VEL_1
NOTE_ON_56
VEL_1
NOTE_ON_52
VEL_1
NOTE_ON_40
VEL_1
NOTE_ON_47
TIME_SHIFT_64ND_127
NOTE_OFF_64
NOTE_OFF_59
NOTE_OFF_56
NOTE_OFF_52
NOTE_OFF_40
NOTE_OFF_47
