NOTE_ON_76
NOTE_ON_71
NOTE_ON_64
NOTE_ON_67
TIME_SHIFT_64ND_2
NOTE_OFF_76
NOTE_OFF_71
NOTE_OFF_64
NOTE_OFF_67
TIME_SHIFT_64ND_6
NOTE_ON_76
NOTE_ON_71
NOTE_ON_67
NOTE_ON_64
TIME_SHIFT_64ND_2
NOTE_OFF_76
NOTE_OFF_71
NOTE_OFF_67
NOTE_OFF_64
TIME_SHIFT_64ND_6
NOTE_ON_72
NOTE_ON_76
NOTE_ON_60
NOTE_ON_67
TIME_SHIFT_64ND_2
NOTE_OFF_72
NOTE_OFF_76
NOTE_OFF_60
NOTE_OFF_67
TIME_SHIFT_64ND_6
NOTE_ON_76
NOTE_ON_71
NOTE_ON_67
NOTE_ON_64
TIME_SHIFT_64ND_2
NOTE_OFF_76
NOTE_OFF_71
NOTE_OFF_67
NOTE_OFF_64
TIME_SHIFT_64ND_6
NOTE_ON_71
NOTE_ON_76
NOTE_ON_64
NOTE_ON_67
TIME_SHIFT_64ND_2
NOTE_OFF_71
NOTE_OFF_76
NOTE_OFF_64
NOTE_OFF_67
TIME_SHIFT_64ND_6
NOTE_ON_67
TIME_SHIFT_64ND_4
NOTE_OFF_67
NOTE_ON_69
TIME_SHIFT_64ND_4
NOTE_OFF_69
NOTE_ON_71
NOTE_ON_67
NOTE_ON_64
TIME_SHIFT_64ND_2
NOTE_OFF_67
NOTE_OFF_64
TIME_SHIFT_64ND_2
NOTE_OFF_71
NOTE_ON_72
TIME_SHIFT_64ND_4
NOTE_OFF_72
NOTE_ON_71
NOTE_ON_64
NOTE_ON_67
TIME_SHIFT_64ND_2
NOTE_OFF_64
NOTE_OFF_67
TIME_SHIFT_64ND_2
NOTE_OFF_71
NOTE_ON_78
TIME_SHIFT_64ND_4
NOTE_OFF_78
NOTE_ON_76
NOTE_ON_64
NOTE_ON_69
TIME_SHIFT_64ND_2
NOTE_OFF_64
NOTE_OFF_69
TIME_SHIFT_64ND_2
NOTE_OFF_76
NOTE_ON_74
TIME_SHIFT_64ND_4
NOTE_OFF_74
NOTE_ON_71
NOTE_ON_67
NOTE_ON_64
TIME_SHIFT_64ND_4
NOTE_OFF_71
NOTE_ON_76
TIME_SHIFT_64ND_4
NOTE_OFF_76
NOTE_OFF_67
NOTE_OFF_64
NOTE_ON_79
TIME_SHIFT_64ND_4
NOTE_OFF_79
NOTE_ON_82
TIME_SHIFT_64ND_4
NOTE_OFF_82
NOTE_ON_83
TIME_SHIFT_64ND_4
NOTE_OFF_83
TIME_SHIFT_64ND_5
NOTE_ON_83
NOTE_ON_78
NOTE_ON_74
NOTE_ON_71
TIME_SHIFT_64ND_2
NOTE_OFF_83
NOTE_OFF_78
NOTE_OFF_74
NOTE_OFF_71
TIME_SHIFT_64ND_6
NOTE_ON_78
NOTE_ON_74
NOTE_ON_83
NOTE_ON_71
TIME_SHIFT_64ND_2
NOTE_OFF_78
NOTE_OFF_74
NOTE_OFF_83
NOTE_OFF_71
TIME_SHIFT_64ND_6
NOTE_ON_79
NOTE_ON_74
NOTE_ON_83
NOTE_ON_67
TIME_SHIFT_64ND_2
NOTE_OFF_79
NOTE_OFF_74
NOTE_OFF_83
NOTE_OFF_67
TIME_SHIFT_64ND_6
NOTE_ON_83
NOTE_ON_78
NOTE_ON_74
NOTE_ON_71
TIME_SHIFT_64ND_2
NOTE_OFF_83
NOTE_OFF_78
NOTE_OFF_74
NOTE_OFF_71
TIME_SHIFT_64ND_6
NOTE_ON_78
NOTE_ON_83
NOTE_ON_74
NOTE_ON_71
TIME_SHIFT_64ND_2
NOTE_OFF_78
NOTE_OFF_83
NOTE_OFF_74
NOTE_OFF_71
TIME_SHIFT_64ND_6
NOTE_ON_71
TIME_SHIFT_64ND_4
NOTE_OFF_71
NOTE_ON_73
TIME_SHIFT_64ND_4
NOTE_OFF_73
NOTE_ON_74
NOTE_ON_66
TIME_SHIFT_64ND_2
NOTE_OFF_66
TIME_SHIFT_64ND_2
NOTE_OFF_74
NOTE_ON_78
TIME_SHIFT_64ND_4
NOTE_OFF_78
NOTE_ON_74
NOTE_ON_71
NOTE_ON_62
TIME_SHIFT_64ND_2
NOTE_OFF_62
TIME_SHIFT_64ND_2
NOTE_OFF_74
NOTE_OFF_71
NOTE_ON_78
NOTE_ON_64
TIME_SHIFT_64ND_2
NOTE_OFF_64
TIME_SHIFT_64ND_2
NOTE_OFF_78
NOTE_ON_73
NOTE_ON_70
NOTE_ON_66
TIME_SHIFT_64ND_2
NOTE_OFF_66
TIME_SHIFT_64ND_2
NOTE_OFF_73
NOTE_ON_78
TIME_SHIFT_64ND_4
NOTE_OFF_78
NOTE_OFF_70
NOTE_ON_75
NOTE_ON_71
NOTE_ON_66
TIME_SHIFT_64ND_4
NOTE_OFF_75
NOTE_OFF_71
NOTE_ON_78
TIME_SHIFT_64ND_4
NOTE_OFF_78
NOTE_ON_75
NOTE_ON_71
TIME_SHIFT_64ND_4
NOTE_OFF_75
NOTE_OFF_71
NOTE_ON_78
TIME_SHIFT_64ND_4
NOTE_OFF_78
NOTE_OFF_66
NOTE_ON_71
NOTE_ON_75
NOTE_ON_59
TIME_SHIFT_64ND_4
NOTE_OFF_71
NOTE_OFF_75
NOTE_ON_78
TIME_SHIFT_64ND_5
NOTE_OFF_78
NOTE_OFF_59
NOTE_ON_76
NOTE_ON_71
NOTE_ON_67
NOTE_ON_64
TIME_SHIFT_64ND_2
NOTE_OFF_76
NOTE_OFF_71
NOTE_OFF_67
NOTE_OFF_64
TIME_SHIFT_64ND_6
NOTE_ON_71
NOTE_ON_76
NOTE_ON_64
NOTE_ON_67
TIME_SHIFT_64ND_2
NOTE_OFF_71
NOTE_OFF_76
NOTE_OFF_64
NOTE_OFF_67
TIME_SHIFT_64ND_6
NOTE_ON_76
NOTE_ON_72
NOTE_ON_60
NOTE_ON_67
TIME_SHIFT_64ND_2
NOTE_OFF_76
NOTE_OFF_72
NOTE_OFF_60
NOTE_OFF_67
TIME_SHIFT_64ND_6
NOTE_ON_76
NOTE_ON_71
NOTE_ON_67
NOTE_ON_64
TIME_SHIFT_64ND_2
NOTE_OFF_76
NOTE_OFF_71
NOTE_OFF_67
NOTE_OFF_64
TIME_SHIFT_64ND_6
NOTE_ON_71
NOTE_ON_76
NOTE_ON_64
NOTE_ON_67
TIME_SHIFT_64ND_2
NOTE_OFF_71
NOTE_OFF_76
NOTE_OFF_64
NOTE_OFF_67
TIME_SHIFT_64ND_6
NOTE_ON_67
TIME_SHIFT_64ND_4
NOTE_OFF_67
NOTE_ON_69
TIME_SHIFT_64ND_4
NOTE_OFF_69
NOTE_ON_71
NOTE_ON_67
NOTE_ON_64
TIME_SHIFT_64ND_2
NOTE_OFF_67
NOTE_OFF_64
TIME_SHIFT_64ND_2
NOTE_OFF_71
NOTE_ON_72
TIME_SHIFT_64ND_4
NOTE_OFF_72
NOTE_ON_71
NOTE_ON_64
NOTE_ON_67
TIME_SHIFT_64ND_2
NOTE_OFF_64
NOTE_OFF_67
TIME_SHIFT_64ND_2
NOTE_OFF_71
NOTE_ON_78
TIME_SHIFT_64ND_4
NOTE_OFF_78
NOTE_ON_76
NOTE_ON_64
NOTE_ON_69
TIME_SHIFT_64ND_2
NOTE_OFF_64
NOTE_OFF_69
TIME_SHIFT_64ND_2
NOTE_OFF_76
NOTE_ON_74
TIME_SHIFT_64ND_4
NOTE_OFF_74
NOTE_ON_71
NOTE_ON_64
NOTE_ON_67
TIME_SHIFT_64ND_4
NOTE_OFF_71
NOTE_ON_76
TIME_SHIFT_64ND_4
NOTE_OFF_76
NOTE_OFF_64
NOTE_OFF_67
NOTE_ON_79
TIME_SHIFT_64ND_4
NOTE_OFF_79
NOTE_ON_82
TIME_SHIFT_64ND_4
NOTE_OFF_82
NOTE_ON_83
TIME_SHIFT_64ND_4
NOTE_OFF_83
TIME_SHIFT_64ND_5
NOTE_ON_78
NOTE_ON_74
NOTE_ON_83
NOTE_ON_71
TIME_SHIFT_64ND_2
NOTE_OFF_78
NOTE_OFF_74
NOTE_OFF_83
NOTE_OFF_71
TIME_SHIFT_64ND_6
NOTE_ON_83
NOTE_ON_78
NOTE_ON_74
NOTE_ON_71
TIME_SHIFT_64ND_2
NOTE_OFF_83
NOTE_OFF_78
NOTE_OFF_74
NOTE_OFF_71
TIME_SHIFT_64ND_6
NOTE_ON_83
NOTE_ON_79
NOTE_ON_74
NOTE_ON_67
TIME_SHIFT_64ND_2
NOTE_OFF_83
NOTE_OFF_79
NOTE_OFF_74
NOTE_OFF_67
TIME_SHIFT_64ND_6
NOTE_ON_78
NOTE_ON_74
NOTE_ON_83
NOTE_ON_71
TIME_SHIFT_64ND_2
NOTE_OFF_78
NOTE_OFF_74
NOTE_OFF_83
NOTE_OFF_71
TIME_SHIFT_64ND_6
NOTE_ON_83
NOTE_ON_78
NOTE_ON_74
NOTE_ON_71
TIME_SHIFT_64ND_2
NOTE_OFF_83
NOTE_OFF_78
NOTE_OFF_74
NOTE_OFF_71
TIME_SHIFT_64ND_6
NOTE_ON_71
TIME_SHIFT_64ND_4
NOTE_OFF_71
NOTE_ON_73
TIME_SHIFT_64ND_4
NOTE_OFF_73
NOTE_ON_74
NOTE_ON_66
TIME_SHIFT_64ND_2
NOTE_OFF_66
TIME_SHIFT_64ND_2
NOTE_OFF_74
NOTE_ON_78
TIME_SHIFT_64ND_4
NOTE_OFF_78
NOTE_ON_71
NOTE_ON_74
NOTE_ON_62
TIME_SHIFT_64ND_2
NOTE_OFF_62
TIME_SHIFT_64ND_2
NOTE_OFF_71
NOTE_OFF_74
NOTE_ON_78
NOTE_ON_64
TIME_SHIFT_64ND_2
NOTE_OFF_64
TIME_SHIFT_64ND_2
NOTE_OFF_78
NOTE_ON_73
NOTE_ON_70
NOTE_ON_66
TIME_SHIFT_64ND_2
NOTE_OFF_66
TIME_SHIFT_64ND_2
NOTE_OFF_73
NOTE_ON_78
TIME_SHIFT_64ND_4
NOTE_OFF_78
NOTE_OFF_70
NOTE_ON_75
NOTE_ON_71
NOTE_ON_66
TIME_SHIFT_64ND_4
NOTE_OFF_75
NOTE_OFF_71
NOTE_ON_78
TIME_SHIFT_64ND_4
NOTE_OFF_78
NOTE_ON_75
NOTE_ON_71
TIME_SHIFT_64ND_4
NOTE_OFF_75
NOTE_OFF_71
NOTE_ON_78
TIME_SHIFT_64ND_4
NOTE_OFF_78
NOTE_OFF_66
NOTE_ON_71
NOTE_ON_75
NOTE_ON_59
TIME_SHIFT_64ND_4
NOTE_OFF_71
NOTE_OFF_75
NOTE_ON_78
TIME_SHIFT_64ND_5
NOTE_OFF_78
NOTE_OFF_59
NOTE_ON_59
NOTE_ON_47
TIME_SHIFT_64ND_2
NOTE_OFF_59
NOTE_OFF_47
TIME_SHIFT_64ND_6
NOTE_ON_59
NOTE_ON_47
TIME_SHIFT_64ND_2
NOTE_OFF_59
NOTE_OFF_47
TIME_SHIFT_64ND_6
NOTE_ON_54
NOTE_ON_42
TIME_SHIFT_64ND_2
NOTE_OFF_54
NOTE_OFF_42
TIME_SHIFT_64ND_6
NOTE_ON_59
NOTE_ON_47
TIME_SHIFT_64ND_2
NOTE_OFF_59
NOTE_OFF_47
TIME_SHIFT_64ND_6
NOTE_ON_59
NOTE_ON_47
TIME_SHIFT_64ND_2
NOTE_OFF_59
NOTE_OFF_47
TIME_SHIFT_64ND_6
NOTE_ON_64
TIME_SHIFT_64ND_4
NOTE_OFF_64
NOTE_ON_66
TIME_SHIFT_64ND_4
NOTE_OFF_66
NOTE_ON_67
NOTE_ON_61
NOTE_ON_52
TIME_SHIFT_64ND_2
NOTE_OFF_61
NOTE_OFF_52
TIME_SHIFT_64ND_2
NOTE_OFF_67
NOTE_ON_70
TIME_SHIFT_64ND_4
NOTE_OFF_70
NOTE_ON_67
NOTE_ON_61
NOTE_ON_52
TIME_SHIFT_64ND_2
NOTE_OFF_61
NOTE_OFF_52
TIME_SHIFT_64ND_2
NOTE_OFF_67
NOTE_ON_70
TIME_SHIFT_64ND_4
NOTE_OFF_70
NOTE_ON_66
NOTE_ON_54
NOTE_ON_61
TIME_SHIFT_64ND_2
NOTE_OFF_54
NOTE_OFF_61
TIME_SHIFT_64ND_2
NOTE_OFF_66
NOTE_ON_70
TIME_SHIFT_64ND_4
NOTE_OFF_70
NOTE_ON_64
NOTE_ON_55
NOTE_ON_61
TIME_SHIFT_64ND_2
NOTE_OFF_55
NOTE_OFF_61
TIME_SHIFT_64ND_2
NOTE_OFF_64
NOTE_ON_70
TIME_SHIFT_64ND_4
NOTE_OFF_70
NOTE_ON_64
NOTE_ON_55
NOTE_ON_61
TIME_SHIFT_64ND_2
NOTE_OFF_55
NOTE_OFF_61
TIME_SHIFT_64ND_2
NOTE_OFF_64
NOTE_ON_70
TIME_SHIFT_64ND_4
NOTE_OFF_70
TIME_SHIFT_64ND_9
NOTE_ON_59
NOTE_ON_47
TIME_SHIFT_64ND_2
NOTE_OFF_59
NOTE_OFF_47
TIME_SHIFT_64ND_6
NOTE_ON_59
NOTE_ON_47
TIME_SHIFT_64ND_2
NOTE_OFF_59
NOTE_OFF_47
TIME_SHIFT_64ND_6
NOTE_ON_54
NOTE_ON_42
TIME_SHIFT_64ND_2
NOTE_OFF_54
NOTE_OFF_42
TIME_SHIFT_64ND_6
NOTE_ON_59
NOTE_ON_47
TIME_SHIFT_64ND_2
NOTE_OFF_59
NOTE_OFF_47
TIME_SHIFT_64ND_6
NOTE_ON_59
NOTE_ON_47
TIME_SHIFT_64ND_2
NOTE_OFF_59
NOTE_OFF_47
TIME_SHIFT_64ND_6
NOTE_ON_64
TIME_SHIFT_64ND_4
NOTE_OFF_64
NOTE_ON_66
TIME_SHIFT_64ND_4
NOTE_OFF_66
NOTE_ON_67
NOTE_ON_61
NOTE_ON_52
TIME_SHIFT_64ND_2
NOTE_OFF_61
NOTE_OFF_52
TIME_SHIFT_64ND_2
NOTE_OFF_67
NOTE_ON_70
TIME_SHIFT_64ND_4
NOTE_OFF_70
NOTE_ON_67
NOTE_ON_61
NOTE_ON_52
TIME_SHIFT_64ND_2
NOTE_OFF_61
NOTE_OFF_52
TIME_SHIFT_64ND_2
NOTE_OFF_67
NOTE_ON_70
TIME_SHIFT_64ND_4
NOTE_OFF_70
NOTE_ON_66
NOTE_ON_61
NOTE_ON_54
TIME_SHIFT_64ND_2
NOTE_OFF_61
NOTE_OFF_54
TIME_SHIFT_64ND_2
NOTE_OFF_66
NOTE_ON_70
TIME_SHIFT_64ND_4
NOTE_OFF_70
NOTE_ON_64
NOTE_ON_61
NOTE_ON_55
TIME_SHIFT_64ND_2
NOTE_OFF_61
NOTE_OFF_55
TIME_SHIFT_64ND_2
NOTE_OFF_64
NOTE_ON_70
TIME_SHIFT_64ND_4
NOTE_OFF_70
NOTE_ON_64
NOTE_ON_55
NOTE_ON_61
TIME_SHIFT_64ND_2
NOTE_OFF_55
NOTE_OFF_61
TIME_SHIFT_64ND_2
NOTE_OFF_64
NOTE_ON_70
TIME_SHIFT_64ND_4
NOTE_OFF_70
NOTE_ON_67
TIME_SHIFT_64ND_4
NOTE_OFF_67
NOTE_ON_69
TIME_SHIFT_64ND_4
NOTE_OFF_69
NOTE_ON_70
NOTE_ON_64
NOTE_ON_55
TIME_SHIFT_64ND_2
NOTE_OFF_64
NOTE_OFF_55
TIME_SHIFT_64ND_2
NOTE_OFF_70
NOTE_ON_73
TIME_SHIFT_64ND_4
NOTE_OFF_73
NOTE_ON_70
NOTE_ON_55
NOTE_ON_64
TIME_SHIFT_64ND_2
NOTE_OFF_55
NOTE_OFF_64
TIME_SHIFT_64ND_2
NOTE_OFF_70
NOTE_ON_73
TIME_SHIFT_64ND_4
NOTE_OFF_73
NOTE_ON_69
NOTE_ON_55
NOTE_ON_64
TIME_SHIFT_64ND_2
NOTE_OFF_55
NOTE_OFF_64
TIME_SHIFT_64ND_2
NOTE_OFF_69
NOTE_ON_73
TIME_SHIFT_64ND_4
NOTE_OFF_73
NOTE_ON_67
NOTE_ON_64
NOTE_ON_58
TIME_SHIFT_64ND_2
NOTE_OFF_64
NOTE_OFF_58
TIME_SHIFT_64ND_2
NOTE_OFF_67
NOTE_ON_73
TIME_SHIFT_64ND_4
NOTE_OFF_73
NOTE_ON_67
NOTE_ON_58
NOTE_ON_64
TIME_SHIFT_64ND_2
NOTE_OFF_58
NOTE_OFF_64
TIME_SHIFT_64ND_2
NOTE_OFF_67
NOTE_ON_73
TIME_SHIFT_64ND_4
NOTE_OFF_73
NOTE_ON_70
TIME_SHIFT_64ND_4
NOTE_OFF_70
NOTE_ON_71
TIME_SHIFT_64ND_4
NOTE_OFF_71
NOTE_ON_72
NOTE_ON_67
NOTE_ON_58
TIME_SHIFT_64ND_2
NOTE_OFF_67
NOTE_OFF_58
TIME_SHIFT_64ND_2
NOTE_OFF_72
NOTE_ON_76
TIME_SHIFT_64ND_4
NOTE_OFF_76
NOTE_ON_72
NOTE_ON_64
NOTE_ON_67
TIME_SHIFT_64ND_2
NOTE_OFF_64
NOTE_OFF_67
TIME_SHIFT_64ND_2
NOTE_OFF_72
NOTE_ON_76
TIME_SHIFT_64ND_4
NOTE_OFF_76
NOTE_ON_71
NOTE_ON_67
NOTE_ON_62
TIME_SHIFT_64ND_2
NOTE_OFF_67
NOTE_OFF_62
TIME_SHIFT_64ND_2
NOTE_OFF_71
NOTE_ON_76
TIME_SHIFT_64ND_4
NOTE_OFF_76
NOTE_ON_70
NOTE_ON_66
NOTE_ON_60
TIME_SHIFT_64ND_2
NOTE_OFF_66
NOTE_OFF_60
TIME_SHIFT_64ND_2
NOTE_OFF_70
NOTE_ON_76
TIME_SHIFT_64ND_4
NOTE_OFF_76
NOTE_ON_70
NOTE_ON_60
NOTE_ON_66
TIME_SHIFT_64ND_2
NOTE_OFF_60
NOTE_OFF_66
TIME_SHIFT_64ND_2
NOTE_OFF_70
NOTE_ON_76
TIME_SHIFT_64ND_4
NOTE_OFF_76
NOTE_ON_70
NOTE_ON_66
NOTE_ON_60
TIME_SHIFT_64ND_2
NOTE_OFF_66
NOTE_OFF_60
TIME_SHIFT_64ND_2
NOTE_OFF_70
NOTE_ON_76
TIME_SHIFT_64ND_4
NOTE_OFF_76
NOTE_ON_71
NOTE_ON_66
NOTE_ON_59
TIME_SHIFT_64ND_2
NOTE_OFF_66
NOTE_OFF_59
TIME_SHIFT_64ND_2
NOTE_OFF_71
NOTE_ON_76
TIME_SHIFT_64ND_4
NOTE_OFF_76
NOTE_ON_71
NOTE_ON_66
NOTE_ON_59
TIME_SHIFT_64ND_2
NOTE_OFF_66
NOTE_OFF_59
TIME_SHIFT_64ND_2
NOTE_OFF_71
NOTE_ON_76
TIME_SHIFT_64ND_4
NOTE_OFF_76
NOTE_ON_71
NOTE_ON_66
NOTE_ON_59
TIME_SHIFT_64ND_2
NOTE_OFF_66
NOTE_OFF_59
TIME_SHIFT_64ND_2
NOTE_OFF_71
NOTE_ON_76
TIME_SHIFT_64ND_4
NOTE_OFF_76
NOTE_ON_71
NOTE_ON_66
NOTE_ON_59
TIME_SHIFT_64ND_2
NOTE_OFF_66
NOTE_OFF_59
TIME_SHIFT_64ND_2
NOTE_OFF_71
NOTE_ON_75
TIME_SHIFT_64ND_4
NOTE_OFF_75
NOTE_ON_71
NOTE_ON_59
NOTE_ON_66
TIME_SHIFT_64ND_2
NOTE_OFF_59
NOTE_OFF_66
TIME_SHIFT_64ND_2
NOTE_OFF_71
NOTE_ON_75
TIME_SHIFT_64ND_4
NOTE_OFF_75
NOTE_ON_71
NOTE_ON_66
NOTE_ON_59
TIME_SHIFT_64ND_2
NOTE_OFF_66
NOTE_OFF_59
TIME_SHIFT_64ND_2
NOTE_OFF_71
NOTE_ON_75
TIME_SHIFT_64ND_5
NOTE_OFF_75
NOTE_ON_71
NOTE_ON_76
NOTE_ON_64
NOTE_ON_67
TIME_SHIFT_64ND_2
NOTE_OFF_71
NOTE_OFF_76
NOTE_OFF_64
NOTE_OFF_67
TIME_SHIFT_64ND_6
NOTE_ON_76
NOTE_ON_71
NOTE_ON_64
NOTE_ON_67
TIME_SHIFT_64ND_2
NOTE_OFF_76
NOTE_OFF_71
NOTE_OFF_64
NOTE_OFF_67
TIME_SHIFT_64ND_6
NOTE_ON_76
NOTE_ON_72
NOTE_ON_67
NOTE_ON_60
TIME_SHIFT_64ND_2
NOTE_OFF_76
NOTE_OFF_72
NOTE_OFF_67
NOTE_OFF_60
TIME_SHIFT_64ND_6
NOTE_ON_76
NOTE_ON_71
NOTE_ON_67
NOTE_ON_64
TIME_SHIFT_64ND_2
NOTE_OFF_76
NOTE_OFF_71
NOTE_OFF_67
NOTE_OFF_64
TIME_SHIFT_64ND_6
NOTE_ON_76
NOTE_ON_71
NOTE_ON_64
NOTE_ON_67
TIME_SHIFT_64ND_2
NOTE_OFF_76
NOTE_OFF_71
NOTE_OFF_64
NOTE_OFF_67
TIME_SHIFT_64ND_6
NOTE_ON_67
TIME_SHIFT_64ND_4
NOTE_OFF_67
NOTE_ON_69
TIME_SHIFT_64ND_4
NOTE_OFF_69
NOTE_ON_71
NOTE_ON_67
NOTE_ON_64
TIME_SHIFT_64ND_2
NOTE_OFF_67
NOTE_OFF_64
TIME_SHIFT_64ND_2
NOTE_OFF_71
NOTE_ON_72
TIME_SHIFT_64ND_4
NOTE_OFF_72
NOTE_ON_71
NOTE_ON_67
NOTE_ON_64
TIME_SHIFT_64ND_2
NOTE_OFF_67
NOTE_OFF_64
TIME_SHIFT_64ND_2
NOTE_OFF_71
NOTE_ON_78
TIME_SHIFT_64ND_4
NOTE_OFF_78
NOTE_ON_76
NOTE_ON_69
NOTE_ON_64
TIME_SHIFT_64ND_2
NOTE_OFF_69
NOTE_OFF_64
TIME_SHIFT_64ND_2
NOTE_OFF_76
NOTE_ON_74
TIME_SHIFT_64ND_4
NOTE_OFF_74
NOTE_ON_71
NOTE_ON_64
NOTE_ON_67
TIME_SHIFT_64ND_4
NOTE_OFF_71
NOTE_ON_76
TIME_SHIFT_64ND_4
NOTE_OFF_76
NOTE_OFF_64
NOTE_OFF_67
NOTE_ON_79
TIME_SHIFT_64ND_4
NOTE_OFF_79
NOTE_ON_82
TIME_SHIFT_64ND_4
NOTE_OFF_82
NOTE_ON_83
TIME_SHIFT_64ND_4
NOTE_OFF_83
TIME_SHIFT_64ND_5
NOTE_ON_78
NOTE_ON_74
NOTE_ON_83
NOTE_ON_71
TIME_SHIFT_64ND_2
NOTE_OFF_78
NOTE_OFF_74
NOTE_OFF_83
NOTE_OFF_71
TIME_SHIFT_64ND_6
NOTE_ON_78
NOTE_ON_83
NOTE_ON_74
NOTE_ON_71
TIME_SHIFT_64ND_2
NOTE_OFF_78
NOTE_OFF_83
NOTE_OFF_74
NOTE_OFF_71
TIME_SHIFT_64ND_6
NOTE_ON_79
NOTE_ON_74
NOTE_ON_83
NOTE_ON_67
TIME_SHIFT_64ND_2
NOTE_OFF_79
NOTE_OFF_74
NOTE_OFF_83
NOTE_OFF_67
TIME_SHIFT_64ND_6
NOTE_ON_83
NOTE_ON_78
NOTE_ON_74
NOTE_ON_71
TIME_SHIFT_64ND_2
NOTE_OFF_83
NOTE_OFF_78
NOTE_OFF_74
NOTE_OFF_71
TIME_SHIFT_64ND_6
NOTE_ON_74
NOTE_ON_83
NOTE_ON_78
NOTE_ON_71
TIME_SHIFT_64ND_2
NOTE_OFF_74
NOTE_OFF_83
NOTE_OFF_78
NOTE_OFF_71
TIME_SHIFT_64ND_6
NOTE_ON_71
TIME_SHIFT_64ND_4
NOTE_OFF_71
NOTE_ON_73
TIME_SHIFT_64ND_4
NOTE_OFF_73
NOTE_ON_74
NOTE_ON_66
TIME_SHIFT_64ND_2
NOTE_OFF_66
TIME_SHIFT_64ND_2
NOTE_OFF_74
NOTE_ON_78
TIME_SHIFT_64ND_4
NOTE_OFF_78
NOTE_ON_71
NOTE_ON_74
NOTE_ON_62
TIME_SHIFT_64ND_2
NOTE_OFF_62
TIME_SHIFT_64ND_2
NOTE_OFF_71
NOTE_OFF_74
NOTE_ON_78
NOTE_ON_64
TIME_SHIFT_64ND_2
NOTE_OFF_64
TIME_SHIFT_64ND_2
NOTE_OFF_78
NOTE_ON_73
NOTE_ON_70
NOTE_ON_66
TIME_SHIFT_64ND_2
NOTE_OFF_66
TIME_SHIFT_64ND_2
NOTE_OFF_73
NOTE_ON_78
TIME_SHIFT_64ND_4
NOTE_OFF_78
NOTE_OFF_70
NOTE_ON_75
NOTE_ON_71
NOTE_ON_66
TIME_SHIFT_64ND_4
NOTE_OFF_75
NOTE_OFF_71
NOTE_ON_78
TIME_SHIFT_64ND_4
NOTE_OFF_78
NOTE_ON_75
NOTE_ON_71
TIME_SHIFT_64ND_4
NOTE_OFF_75
NOTE_OFF_71
NOTE_ON_78
TIME_SHIFT_64ND_4
NOTE_OFF_78
NOTE_OFF_66
NOTE_ON_75
NOTE_ON_71
NOTE_ON_59
TIME_SHIFT_64ND_4
NOTE_OFF_75
NOTE_OFF_71
NOTE_ON_78
TIME_SHIFT_64ND_5
NOTE_OFF_78
NOTE_OFF_59
NOTE_ON_59
NOTE_ON_47
TIME_SHIFT_64ND_2
NOTE_OFF_59
NOTE_OFF_47
TIME_SHIFT_64ND_6
NOTE_ON_59
NOTE_ON_47
TIME_SHIFT_64ND_2
NOTE_OFF_59
NOTE_OFF_47
TIME_SHIFT_64ND_6
NOTE_ON_54
NOTE_ON_42
TIME_SHIFT_64ND_2
NOTE_OFF_54
NOTE_OFF_42
TIME_SHIFT_64ND_6
NOTE_ON_59
NOTE_ON_47
TIME_SHIFT_64ND_2
NOTE_OFF_59
NOTE_OFF_47
TIME_SHIFT_64ND_6
NOTE_ON_59
NOTE_ON_47
TIME_SHIFT_64ND_2
NOTE_OFF_59
NOTE_OFF_47
TIME_SHIFT_64ND_6
NOTE_ON_64
TIME_SHIFT_64ND_4
NOTE_OFF_64
NOTE_ON_66
TIME_SHIFT_64ND_4
NOTE_OFF_66
NOTE_ON_67
NOTE_ON_61
NOTE_ON_52
TIME_SHIFT_64ND_2
NOTE_OFF_61
NOTE_OFF_52
TIME_SHIFT_64ND_2
NOTE_OFF_67
NOTE_ON_70
TIME_SHIFT_64ND_4
NOTE_OFF_70
NOTE_ON_67
NOTE_ON_52
NOTE_ON_61
TIME_SHIFT_64ND_2
NOTE_OFF_52
NOTE_OFF_61
TIME_SHIFT_64ND_2
NOTE_OFF_67
NOTE_ON_70
TIME_SHIFT_64ND_4
NOTE_OFF_70
NOTE_ON_66
NOTE_ON_61
NOTE_ON_54
TIME_SHIFT_64ND_2
NOTE_OFF_61
NOTE_OFF_54
TIME_SHIFT_64ND_2
NOTE_OFF_66
NOTE_ON_70
TIME_SHIFT_64ND_4
NOTE_OFF_70
NOTE_ON_64
NOTE_ON_55
NOTE_ON_61
TIME_SHIFT_64ND_2
NOTE_OFF_55
NOTE_OFF_61
TIME_SHIFT_64ND_2
NOTE_OFF_64
NOTE_ON_70
TIME_SHIFT_64ND_4
NOTE_OFF_70
NOTE_ON_64
NOTE_ON_55
NOTE_ON_61
TIME_SHIFT_64ND_2
NOTE_OFF_55
NOTE_OFF_61
TIME_SHIFT_64ND_2
NOTE_OFF_64
NOTE_ON_70
TIME_SHIFT_64ND_4
NOTE_OFF_70
TIME_SHIFT_64ND_9
NOTE_ON_59
NOTE_ON_47
TIME_SHIFT_64ND_2
NOTE_OFF_59
NOTE_OFF_47
TIME_SHIFT_64ND_6
NOTE_ON_59
NOTE_ON_47
TIME_SHIFT_64ND_2
NOTE_OFF_59
NOTE_OFF_47
TIME_SHIFT_64ND_6
NOTE_ON_54
NOTE_ON_42
TIME_SHIFT_64ND_2
NOTE_OFF_54
NOTE_OFF_42
TIME_SHIFT_64ND_6
NOTE_ON_59
NOTE_ON_47
TIME_SHIFT_64ND_2
NOTE_OFF_59
NOTE_OFF_47
TIME_SHIFT_64ND_6
NOTE_ON_59
NOTE_ON_47
TIME_SHIFT_64ND_2
NOTE_OFF_59
NOTE_OFF_47
TIME_SHIFT_64ND_6
NOTE_ON_64
TIME_SHIFT_64ND_4
NOTE_OFF_64
NOTE_ON_66
TIME_SHIFT_64ND_4
NOTE_OFF_66
NOTE_ON_67
NOTE_ON_61
NOTE_ON_52
TIME_SHIFT_64ND_2
NOTE_OFF_61
NOTE_OFF_52
TIME_SHIFT_64ND_2
NOTE_OFF_67
NOTE_ON_70
TIME_SHIFT_64ND_4
NOTE_OFF_70
NOTE_ON_67
NOTE_ON_61
NOTE_ON_52
TIME_SHIFT_64ND_2
NOTE_OFF_61
NOTE_OFF_52
TIME_SHIFT_64ND_2
NOTE_OFF_67
NOTE_ON_70
TIME_SHIFT_64ND_4
NOTE_OFF_70
NOTE_ON_66
NOTE_ON_61
NOTE_ON_54
TIME_SHIFT_64ND_2
NOTE_OFF_61
NOTE_OFF_54
TIME_SHIFT_64ND_2
NOTE_OFF_66
NOTE_ON_70
TIME_SHIFT_64ND_4
NOTE_OFF_70
NOTE_ON_64
NOTE_ON_61
NOTE_ON_55
TIME_SHIFT_64ND_2
NOTE_OFF_61
NOTE_OFF_55
TIME_SHIFT_64ND_2
NOTE_OFF_64
NOTE_ON_70
TIME_SHIFT_64ND_4
NOTE_OFF_70
NOTE_ON_64
NOTE_ON_61
NOTE_ON_55
TIME_SHIFT_64ND_2
NOTE_OFF_61
NOTE_OFF_55
TIME_SHIFT_64ND_2
NOTE_OFF_64
NOTE_ON_70
TIME_SHIFT_64ND_4
NOTE_OFF_70
NOTE_ON_67
TIME_SHIFT_64ND_4
NOTE_OFF_67
NOTE_ON_69
TIME_SHIFT_64ND_4
NOTE_OFF_69
NOTE_ON_70
NOTE_ON_55
NOTE_ON_64
TIME_SHIFT_64ND_2
NOTE_OFF_55
NOTE_OFF_64
TIME_SHIFT_64ND_2
NOTE_OFF_70
NOTE_ON_73
TIME_SHIFT_64ND_4
NOTE_OFF_73
NOTE_ON_70
NOTE_ON_64
NOTE_ON_55
TIME_SHIFT_64ND_2
NOTE_OFF_64
NOTE_OFF_55
TIME_SHIFT_64ND_2
NOTE_OFF_70
NOTE_ON_73
TIME_SHIFT_64ND_4
NOTE_OFF_73
NOTE_ON_69
NOTE_ON_64
NOTE_ON_55
TIME_SHIFT_64ND_2
NOTE_OFF_64
NOTE_OFF_55
TIME_SHIFT_64ND_2
NOTE_OFF_69
NOTE_ON_73
TIME_SHIFT_64ND_4
NOTE_OFF_73
NOTE_ON_67
NOTE_ON_58
NOTE_ON_64
TIME_SHIFT_64ND_2
NOTE_OFF_58
NOTE_OFF_64
TIME_SHIFT_64ND_2
NOTE_OFF_67
NOTE_ON_73
TIME_SHIFT_64ND_4
NOTE_OFF_73
NOTE_ON_67
NOTE_ON_58
NOTE_ON_64
TIME_SHIFT_64ND_2
NOTE_OFF_58
NOTE_OFF_64
TIME_SHIFT_64ND_2
NOTE_OFF_67
NOTE_ON_73
TIME_SHIFT_64ND_4
NOTE_OFF_73
NOTE_ON_70
TIME_SHIFT_64ND_4
NOTE_OFF_70
NOTE_ON_71
TIME_SHIFT_64ND_4
NOTE_OFF_71
NOTE_ON_72
NOTE_ON_58
NOTE_ON_67
TIME_SHIFT_64ND_2
NOTE_OFF_58
NOTE_OFF_67
TIME_SHIFT_64ND_2
NOTE_OFF_72
NOTE_ON_76
TIME_SHIFT_64ND_4
NOTE_OFF_76
NOTE_ON_72
NOTE_ON_67
NOTE_ON_64
TIME_SHIFT_64ND_2
NOTE_OFF_67
NOTE_OFF_64
TIME_SHIFT_64ND_2
NOTE_OFF_72
NOTE_ON_76
TIME_SHIFT_64ND_4
NOTE_OFF_76
NOTE_ON_71
NOTE_ON_62
NOTE_ON_67
TIME_SHIFT_64ND_2
NOTE_OFF_62
NOTE_OFF_67
TIME_SHIFT_64ND_2
NOTE_OFF_71
NOTE_ON_76
TIME_SHIFT_64ND_4
NOTE_OFF_76
NOTE_ON_70
NOTE_ON_66
NOTE_ON_60
TIME_SHIFT_64ND_2
NOTE_OFF_66
NOTE_OFF_60
TIME_SHIFT_64ND_2
NOTE_OFF_70
NOTE_ON_76
TIME_SHIFT_64ND_4
NOTE_OFF_76
NOTE_ON_70
NOTE_ON_60
NOTE_ON_66
TIME_SHIFT_64ND_2
NOTE_OFF_60
NOTE_OFF_66
TIME_SHIFT_64ND_2
NOTE_OFF_70
NOTE_ON_76
TIME_SHIFT_64ND_4
NOTE_OFF_76
NOTE_ON_70
NOTE_ON_60
NOTE_ON_66
TIME_SHIFT_64ND_2
NOTE_OFF_60
NOTE_OFF_66
TIME_SHIFT_64ND_2
NOTE_OFF_70
NOTE_ON_76
TIME_SHIFT_64ND_4
NOTE_OFF_76
NOTE_ON_71
NOTE_ON_59
NOTE_ON_66
TIME_SHIFT_64ND_2
NOTE_OFF_59
NOTE_OFF_66
TIME_SHIFT_64ND_2
NOTE_OFF_71
NOTE_ON_76
TIME_SHIFT_64ND_4
NOTE_OFF_76
NOTE_ON_71
NOTE_ON_59
NOTE_ON_66
TIME_SHIFT_64ND_2
NOTE_OFF_59
NOTE_OFF_66
TIME_SHIFT_64ND_2
NOTE_OFF_71
NOTE_ON_76
TIME_SHIFT_64ND_4
NOTE_OFF_76
NOTE_ON_71
NOTE_ON_59
NOTE_ON_66
TIME_SHIFT_64ND_2
NOTE_OFF_59
NOTE_OFF_66
TIME_SHIFT_64ND_2
NOTE_OFF_71
NOTE_ON_76
TIME_SHIFT_64ND_4
NOTE_OFF_76
NOTE_ON_71
NOTE_ON_66
NOTE_ON_59
TIME_SHIFT_64ND_2
NOTE_OFF_66
NOTE_OFF_59
TIME_SHIFT_64ND_2
NOTE_OFF_71
NOTE_ON_75
TIME_SHIFT_64ND_4
NOTE_OFF_75
NOTE_ON_71
NOTE_ON_59
NOTE_ON_66
TIME_SHIFT_64ND_2
NOTE_OFF_59
NOTE_OFF_66
TIME_SHIFT_64ND_2
NOTE_OFF_71
NOTE_ON_75
TIME_SHIFT_64ND_4
NOTE_OFF_75
NOTE_ON_71
NOTE_ON_66
NOTE_ON_59
TIME_SHIFT_64ND_2
NOTE_OFF_66
NOTE_OFF_59
TIME_SHIFT_64ND_2
NOTE_OFF_71
NOTE_ON_75
TIME_SHIFT_64ND_5
NOTE_OFF_75
NOTE_ON_71
NOTE_ON_76
NOTE_ON_64
NOTE_ON_67
TIME_SHIFT_64ND_2
NOTE_OFF_71
NOTE_OFF_76
NOTE_OFF_64
NOTE_OFF_67
TIME_SHIFT_64ND_6
NOTE_ON_76
NOTE_ON_71
NOTE_ON_67
NOTE_ON_64
TIME_SHIFT_64ND_2
NOTE_OFF_76
NOTE_OFF_71
NOTE_OFF_67
NOTE_OFF_64
TIME_SHIFT_64ND_6
NOTE_ON_72
NOTE_ON_76
NOTE_ON_60
NOTE_ON_67
TIME_SHIFT_64ND_2
NOTE_OFF_72
NOTE_OFF_76
NOTE_OFF_60
NOTE_OFF_67
TIME_SHIFT_64ND_6
NOTE_ON_71
NOTE_ON_76
NOTE_ON_64
NOTE_ON_67
TIME_SHIFT_64ND_2
NOTE_OFF_71
NOTE_OFF_76
NOTE_OFF_64
NOTE_OFF_67
TIME_SHIFT_64ND_6
NOTE_ON_71
NOTE_ON_76
NOTE_ON_64
NOTE_ON_67
TIME_SHIFT_64ND_2
NOTE_OFF_71
NOTE_OFF_76
NOTE_OFF_64
NOTE_OFF_67
TIME_SHIFT_64ND_6
NOTE_ON_67
TIME_SHIFT_64ND_4
NOTE_OFF_67
NOTE_ON_69
TIME_SHIFT_64ND_4
NOTE_OFF_69
NOTE_ON_71
NOTE_ON_67
NOTE_ON_64
TIME_SHIFT_64ND_2
NOTE_OFF_67
NOTE_OFF_64
TIME_SHIFT_64ND_2
NOTE_OFF_71
NOTE_ON_72
TIME_SHIFT_64ND_4
NOTE_OFF_72
NOTE_ON_71
NOTE_ON_67
NOTE_ON_64
TIME_SHIFT_64ND_2
NOTE_OFF_67
NOTE_OFF_64
TIME_SHIFT_64ND_2
NOTE_OFF_71
NOTE_ON_78
TIME_SHIFT_64ND_4
NOTE_OFF_78
NOTE_ON_76
NOTE_ON_69
NOTE_ON_64
TIME_SHIFT_64ND_2
NOTE_OFF_69
NOTE_OFF_64
TIME_SHIFT_64ND_2
NOTE_OFF_76
NOTE_ON_74
TIME_SHIFT_64ND_4
NOTE_OFF_74
NOTE_ON_71
NOTE_ON_64
NOTE_ON_67
TIME_SHIFT_64ND_4
NOTE_OFF_71
NOTE_ON_76
TIME_SHIFT_64ND_4
NOTE_OFF_76
NOTE_OFF_64
NOTE_OFF_67
NOTE_ON_79
TIME_SHIFT_64ND_4
NOTE_OFF_79
NOTE_ON_82
TIME_SHIFT_64ND_4
NOTE_OFF_82
NOTE_ON_83
TIME_SHIFT_64ND_4
NOTE_OFF_83
TIME_SHIFT_64ND_5
NOTE_ON_83
NOTE_ON_78
NOTE_ON_74
NOTE_ON_71
TIME_SHIFT_64ND_2
NOTE_OFF_83
NOTE_OFF_78
NOTE_OFF_74
NOTE_OFF_71
TIME_SHIFT_64ND_6
NOTE_ON_83
NOTE_ON_74
NOTE_ON_78
NOTE_ON_71
TIME_SHIFT_64ND_2
NOTE_OFF_83
NOTE_OFF_74
NOTE_OFF_78
NOTE_OFF_71
TIME_SHIFT_64ND_6
NOTE_ON_83
NOTE_ON_74
NOTE_ON_79
NOTE_ON_67
TIME_SHIFT_64ND_2
NOTE_OFF_83
NOTE_OFF_74
NOTE_OFF_79
NOTE_OFF_67
TIME_SHIFT_64ND_6
NOTE_ON_83
NOTE_ON_78
NOTE_ON_74
NOTE_ON_71
TIME_SHIFT_64ND_2
NOTE_OFF_83
NOTE_OFF_78
NOTE_OFF_74
NOTE_OFF_71
TIME_SHIFT_64ND_6
NOTE_ON_78
NOTE_ON_83
NOTE_ON_74
NOTE_ON_71
TIME_SHIFT_64ND_2
NOTE_OFF_78
NOTE_OFF_83
NOTE_OFF_74
NOTE_OFF_71
TIME_SHIFT_64ND_6
NOTE_ON_71
TIME_SHIFT_64ND_4
NOTE_OFF_71
NOTE_ON_73
TIME_SHIFT_64ND_4
NOTE_OFF_73
NOTE_ON_74
NOTE_ON_66
TIME_SHIFT_64ND_2
NOTE_OFF_66
TIME_SHIFT_64ND_2
NOTE_OFF_74
NOTE_ON_78
TIME_SHIFT_64ND_4
NOTE_OFF_78
NOTE_ON_74
NOTE_ON_71
NOTE_ON_62
TIME_SHIFT_64ND_2
NOTE_OFF_62
TIME_SHIFT_64ND_2
NOTE_OFF_74
NOTE_OFF_71
NOTE_ON_78
NOTE_ON_64
TIME_SHIFT_64ND_2
NOTE_OFF_64
TIME_SHIFT_64ND_2
NOTE_OFF_78
NOTE_ON_73
NOTE_ON_70
NOTE_ON_66
TIME_SHIFT_64ND_2
NOTE_OFF_66
TIME_SHIFT_64ND_2
NOTE_OFF_73
NOTE_ON_78
TIME_SHIFT_64ND_4
NOTE_OFF_78
NOTE_OFF_70
NOTE_ON_71
NOTE_ON_75
NOTE_ON_66
TIME_SHIFT_64ND_4
NOTE_OFF_71
NOTE_OFF_75
NOTE_ON_78
TIME_SHIFT_64ND_4
NOTE_OFF_78
NOTE_ON_71
NOTE_ON_75
TIME_SHIFT_64ND_4
NOTE_OFF_71
NOTE_OFF_75
NOTE_ON_78
TIME_SHIFT_64ND_4
NOTE_OFF_78
NOTE_OFF_66
NOTE_ON_71
NOTE_ON_75
NOTE_ON_59
TIME_SHIFT_64ND_4
NOTE_OFF_71
NOTE_OFF_75
NOTE_ON_78
TIME_SHIFT_64ND_5
NOTE_OFF_78
NOTE_OFF_59
NOTE_ON_76
NOTE_ON_71
NOTE_ON_67
NOTE_ON_64
TIME_SHIFT_64ND_2
NOTE_OFF_76
NOTE_OFF_71
NOTE_OFF_67
NOTE_OFF_64
TIME_SHIFT_64ND_6
NOTE_ON_76
NOTE_ON_71
NOTE_ON_67
NOTE_ON_64
TIME_SHIFT_64ND_2
NOTE_OFF_76
NOTE_OFF_71
NOTE_OFF_67
NOTE_OFF_64
TIME_SHIFT_64ND_6
NOTE_ON_72
NOTE_ON_76
NOTE_ON_67
NOTE_ON_60
TIME_SHIFT_64ND_2
NOTE_OFF_72
NOTE_OFF_76
NOTE_OFF_67
NOTE_OFF_60
TIME_SHIFT_64ND_6
NOTE_ON_76
NOTE_ON_71
NOTE_ON_67
NOTE_ON_64
TIME_SHIFT_64ND_2
NOTE_OFF_76
NOTE_OFF_71
NOTE_OFF_67
NOTE_OFF_64
TIME_SHIFT_64ND_6
NOTE_ON_71
NOTE_ON_76
NOTE_ON_64
NOTE_ON_67
TIME_SHIFT_64ND_2
NOTE_OFF_71
NOTE_OFF_76
NOTE_OFF_64
NOTE_OFF_67
TIME_SHIFT_64ND_6
NOTE_ON_67
TIME_SHIFT_64ND_4
NOTE_OFF_67
NOTE_ON_69
TIME_SHIFT_64ND_4
NOTE_OFF_69
NOTE_ON_71
NOTE_ON_67
NOTE_ON_64
TIME_SHIFT_64ND_2
NOTE_OFF_67
NOTE_OFF_64
TIME_SHIFT_64ND_2
NOTE_OFF_71
NOTE_ON_72
TIME_SHIFT_64ND_4
NOTE_OFF_72
NOTE_ON_71
NOTE_ON_67
NOTE_ON_64
TIME_SHIFT_64ND_2
NOTE_OFF_67
NOTE_OFF_64
TIME_SHIFT_64ND_2
NOTE_OFF_71
NOTE_ON_78
TIME_SHIFT_64ND_4
NOTE_OFF_78
NOTE_ON_76
NOTE_ON_69
NOTE_ON_64
TIME_SHIFT_64ND_2
NOTE_OFF_69
NOTE_OFF_64
TIME_SHIFT_64ND_2
NOTE_OFF_76
NOTE_ON_74
TIME_SHIFT_64ND_4
NOTE_OFF_74
NOTE_ON_71
NOTE_ON_67
NOTE_ON_64
TIME_SHIFT_64ND_4
NOTE_OFF_71
NOTE_ON_76
TIME_SHIFT_64ND_4
NOTE_OFF_76
NOTE_OFF_67
NOTE_OFF_64
NOTE_ON_79
TIME_SHIFT_64ND_4
NOTE_OFF_79
NOTE_ON_82
TIME_SHIFT_64ND_4
NOTE_OFF_82
NOTE_ON_83
TIME_SHIFT_64ND_4
NOTE_OFF_83
TIME_SHIFT_64ND_5
NOTE_ON_60
NOTE_ON_64
TIME_SHIFT_64ND_4
NOTE_ON_68
TIME_SHIFT_64ND_4
NOTE_OFF_68
NOTE_OFF_60
NOTE_OFF_64
NOTE_ON_69
TIME_SHIFT_64ND_4
NOTE_OFF_69
NOTE_ON_72
TIME_SHIFT_64ND_4
NOTE_OFF_72
NOTE_ON_76
TIME_SHIFT_64ND_4
NOTE_OFF_76
TIME_SHIFT_64ND_4
NOTE_ON_60
NOTE_ON_57
TIME_SHIFT_64ND_4
NOTE_ON_64
TIME_SHIFT_64ND_4
NOTE_OFF_64
NOTE_OFF_60
NOTE_OFF_57
NOTE_ON_65
TIME_SHIFT_64ND_4
NOTE_OFF_65
NOTE_ON_69
TIME_SHIFT_64ND_4
NOTE_OFF_69
NOTE_ON_72
TIME_SHIFT_64ND_4
NOTE_OFF_72
TIME_SHIFT_64ND_5
NOTE_ON_57
NOTE_ON_47
NOTE_ON_54
TIME_SHIFT_64ND_5
NOTE_ON_62
TIME_SHIFT_64ND_5
NOTE_OFF_62
NOTE_OFF_57
NOTE_OFF_47
NOTE_OFF_54
NOTE_ON_63
TIME_SHIFT_64ND_5
NOTE_OFF_63
NOTE_ON_66
TIME_SHIFT_64ND_5
NOTE_OFF_66
NOTE_ON_71
TIME_SHIFT_64ND_5
NOTE_OFF_71
TIME_SHIFT_64ND_9
NOTE_ON_55
NOTE_ON_64
NOTE_ON_59
NOTE_ON_52
NOTE_ON_47
NOTE_ON_40
TIME_SHIFT_64ND_2
NOTE_OFF_55
NOTE_OFF_64
NOTE_OFF_59
NOTE_OFF_52
NOTE_OFF_47
NOTE_OFF_40
TIME_SHIFT_64ND_6
NOTE_ON_55
NOTE_ON_64
NOTE_ON_59
NOTE_ON_52
NOTE_ON_40
NOTE_ON_47
TIME_SHIFT_64ND_2
NOTE_OFF_55
NOTE_OFF_64
NOTE_OFF_59
NOTE_OFF_52
NOTE_OFF_40
NOTE_OFF_47
TIME_SHIFT_64ND_6
NOTE_ON_55
NOTE_ON_64
NOTE_ON_60
NOTE_ON_40
NOTE_ON_45
NOTE_ON_52
TIME_SHIFT_64ND_2
NOTE_OFF_55
NOTE_OFF_64
NOTE_OFF_60
NOTE_OFF_40
NOTE_OFF_45
NOTE_OFF_52
TIME_SHIFT_64ND_6
NOTE_ON_64
NOTE_ON_55
NOTE_ON_59
NOTE_ON_47
NOTE_ON_52
NOTE_ON_40
TIME_SHIFT_64ND_2
NOTE_OFF_64
NOTE_OFF_55
NOTE_OFF_59
NOTE_OFF_47
NOTE_OFF_52
NOTE_OFF_40
TIME_SHIFT_64ND_6
NOTE_ON_55
NOTE_ON_59
NOTE_ON_64
NOTE_ON_52
NOTE_ON_47
NOTE_ON_40
TIME_SHIFT_64ND_2
NOTE_OFF_55
NOTE_OFF_59
NOTE_OFF_64
NOTE_OFF_52
NOTE_OFF_47
NOTE_OFF_40
TIME_SHIFT_64ND_6
NOTE_ON_64
NOTE_ON_57
NOTE_ON_55
NOTE_ON_48
NOTE_ON_40
NOTE_ON_52
TIME_SHIFT_64ND_2
NOTE_OFF_64
NOTE_OFF_57
NOTE_OFF_55
NOTE_OFF_48
NOTE_OFF_40
NOTE_OFF_52
TIME_SHIFT_64ND_6
NOTE_ON_64
NOTE_ON_55
NOTE_ON_59
NOTE_ON_47
NOTE_ON_40
NOTE_ON_52
TIME_SHIFT_64ND_2
NOTE_OFF_64
NOTE_OFF_55
NOTE_OFF_59
NOTE_OFF_47
NOTE_OFF_40
NOTE_OFF_52
TIME_SHIFT_64ND_18
NOTE_ON_71
TIME_SHIFT_64ND_3
NOTE_OFF_71
NOTE_ON_75
TIME_SHIFT_64ND_3
NOTE_OFF_75
NOTE_ON_67
NOTE_ON_76
NOTE_ON_59
NOTE_ON_52
TIME_SHIFT_64ND_2
NOTE_OFF_67
NOTE_OFF_76
NOTE_OFF_59
NOTE_OFF_52
TIME_SHIFT_64ND_20
NOTE_ON_83
TIME_SHIFT_64ND_3
NOTE_OFF_83
NOTE_ON_87
TIME_SHIFT_64ND_3
NOTE_OFF_87
NOTE_ON_79
NOTE_ON_88
NOTE_ON_64
NOTE_ON_71
TIME_SHIFT_64ND_3
NOTE_OFF_79
NOTE_OFF_88
NOTE_OFF_64
NOTE_OFF_71
<END>
