VEL_2
NOTE_ON_45
TIME_SHIFT_64ND_14
NOTE_OFF_45
VEL_1
NOTE_ON_52
VEL_1
NOTE_ON_60
TIME_SHIFT_64ND_14
NOTE_OFF_52
NOTE_OFF_60
VEL_1
NOTE_ON_60
VEL_1
NOTE_ON_52
TIME_SHIFT_64ND_14
NOTE_OFF_60
NOTE_OFF_52
VEL_2
NOTE_ON_45
TIME_SHIFT_64ND_14
NOTE_OFF_45
VEL_1
NOTE_ON_60
VEL_1
NOTE_ON_52
TIME_SHIFT_64ND_13
NOTE_OFF_60
NOTE_OFF_52
VEL_1
NOTE_ON_52
VEL_1
NOTE_ON_60
TIME_SHIFT_64ND_14
NOTE_OFF_52
NOTE_OFF_60
VEL_3
NOTE_ON_64
VEL_2
NOTE_ON_45
TIME_SHIFT_64ND_14
NOTE_OFF_64
NOTE_OFF_45
VEL_3
NOTE_ON_66
VEL_1
NOTE_ON_60
VEL_1
NOTE_ON_52
TIME_SHIFT_64ND_3
NOTE_OFF_66
TIME_SHIFT_64ND_3
VEL_3
NOTE_ON_68
TIME_SHIFT_64ND_2
NOTE_OFF_68
TIME_SHIFT_64ND_5
NOTE_OFF_60
NOTE_OFF_52
VEL_3
NOTE_ON_69
VEL_1
NOTE_ON_52
VEL_1
NOTE_ON_60
TIME_SHIFT_64ND_7
NOTE_OFF_69
TIME_SHIFT_64ND_7
NOTE_OFF_52
NOTE_OFF_60
VEL_3
NOTE_ON_69
VEL_2
NOTE_ON_45
TIME_SHIFT_64ND_14
NOTE_OFF_69
NOTE_OFF_45
VEL_3
NOTE_ON_71
VEL_1
NOTE_ON_52
VEL_1
NOTE_ON_62
TIME_SHIFT_64ND_3
NOTE_OFF_71
TIME_SHIFT_64ND_3
VEL_3
NOTE_ON_68
TIME_SHIFT_64ND_2
NOTE_OFF_68
TIME_SHIFT_64ND_5
NOTE_OFF_52
NOTE_OFF_62
VEL_3
NOTE_ON_66
VEL_1
NOTE_ON_52
VEL_1
NOTE_ON_62
TIME_SHIFT_64ND_3
NOTE_OFF_66
TIME_SHIFT_64ND_9
VEL_2
NOTE_ON_69
TIME_SHIFT_64ND_2
NOTE_OFF_69
NOTE_OFF_52
NOTE_OFF_62
VEL_3
NOTE_ON_66
VEL_2
NOTE_ON_45
TIME_SHIFT_64ND_3
NOTE_OFF_66
TIME_SHIFT_64ND_10
NOTE_OFF_45
VEL_2
NOTE_ON_64
VEL_1
NOTE_ON_52
VEL_1
NOTE_ON_60
TIME_SHIFT_64ND_13
NOTE_OFF_52
NOTE_OFF_60
VEL_1
NOTE_ON_52
VEL_1
NOTE_ON_60
TIME_SHIFT_64ND_14
NOTE_OFF_52
NOTE_OFF_60
VEL_2
NOTE_ON_45
TIME_SHIFT_64ND_14
NOTE_OFF_64
NOTE_OFF_45
VEL_1
NOTE_ON_60
VEL_1
NOTE_ON_52
TIME_SHIFT_64ND_13
NOTE_OFF_60
NOTE_OFF_52
VEL_1
NOTE_ON_52
VEL_1
NOTE_ON_60
TIME_SHIFT_64ND_14
NOTE_OFF_52
NOTE_OFF_60
VEL_2
NOTE_ON_45
TIME_SHIFT_64ND_7
VEL_2
NOTE_ON_64
TIME_SHIFT_64ND_3
NOTE_OFF_64
TIME_SHIFT_64ND_3
NOTE_OFF_45
VEL_2
NOTE_ON_66
VEL_1
NOTE_ON_52
VEL_1
NOTE_ON_60
TIME_SHIFT_64ND_2
NOTE_OFF_66
TIME_SHIFT_64ND_5
VEL_3
NOTE_ON_68
TIME_SHIFT_64ND_2
NOTE_OFF_68
TIME_SHIFT_64ND_5
NOTE_OFF_52
NOTE_OFF_60
VEL_3
NOTE_ON_68
VEL_1
NOTE_ON_60
VEL_1
NOTE_ON_52
TIME_SHIFT_64ND_7
NOTE_OFF_68
VEL_3
NOTE_ON_69
TIME_SHIFT_64ND_7
NOTE_OFF_69
NOTE_OFF_60
NOTE_OFF_52
VEL_2
NOTE_ON_45
TIME_SHIFT_64ND_6
VEL_3
NOTE_ON_69
TIME_SHIFT_64ND_2
NOTE_OFF_69
TIME_SHIFT_64ND_5
NOTE_OFF_45
VEL_3
NOTE_ON_71
VEL_1
NOTE_ON_62
VEL_1
NOTE_ON_52
TIME_SHIFT_64ND_2
NOTE_OFF_71
TIME_SHIFT_64ND_5
VEL_3
NOTE_ON_68
TIME_SHIFT_64ND_2
NOTE_OFF_68
TIME_SHIFT_64ND_5
NOTE_OFF_62
NOTE_OFF_52
VEL_3
NOTE_ON_68
VEL_1
NOTE_ON_52
VEL_1
NOTE_ON_62
TIME_SHIFT_64ND_7
NOTE_OFF_68
VEL_3
NOTE_ON_66
TIME_SHIFT_64ND_3
NOTE_OFF_66
TIME_SHIFT_64ND_2
VEL_2
NOTE_ON_69
TIME_SHIFT_64ND_2
NOTE_OFF_69
NOTE_OFF_52
NOTE_OFF_62
VEL_3
NOTE_ON_66
VEL_2
NOTE_ON_45
TIME_SHIFT_64ND_3
NOTE_OFF_66
TIME_SHIFT_64ND_10
NOTE_OFF_45
VEL_2
NOTE_ON_64
VEL_1
NOTE_ON_52
VEL_1
NOTE_ON_60
TIME_SHIFT_64ND_13
NOTE_OFF_52
NOTE_OFF_60
VEL_1
NOTE_ON_52
VEL_1
NOTE_ON_60
TIME_SHIFT_64ND_14
NOTE_OFF_52
NOTE_OFF_60
VEL_2
NOTE_ON_45
TIME_SHIFT_64ND_14
NOTE_OFF_64
NOTE_OFF_45
VEL_1
NOTE_ON_52
VEL_1
NOTE_ON_60
TIME_SHIFT_64ND_13
NOTE_OFF_52
NOTE_OFF_60
VEL_1
NOTE_ON_60
VEL_1
NOTE_ON_52
TIME_SHIFT_64ND_14
NOTE_OFF_60
NOTE_OFF_52
VEL_2
NOTE_ON_76
VEL_2
NOTE_ON_67
VEL_2
NOTE_ON_64
VEL_1
NOTE_ON_60
TIME_SHIFT_64ND_7
NOTE_OFF_76
NOTE_OFF_67
NOTE_OFF_64
NOTE_OFF_60
TIME_SHIFT_64ND_7
VEL_2
NOTE_ON_68
VEL_3
NOTE_ON_76
VEL_1
NOTE_ON_60
VEL_2
NOTE_ON_65
TIME_SHIFT_64ND_7
NOTE_OFF_68
NOTE_OFF_76
NOTE_OFF_60
NOTE_OFF_65
TIME_SHIFT_64ND_7
VEL_3
NOTE_ON_76
VEL_2
NOTE_ON_69
VEL_2
NOTE_ON_66
VEL_2
NOTE_ON_60
TIME_SHIFT_64ND_7
NOTE_OFF_76
NOTE_OFF_69
NOTE_OFF_66
NOTE_OFF_60
TIME_SHIFT_64ND_7
VEL_3
NOTE_ON_76
VEL_2
NOTE_ON_71
VEL_2
NOTE_ON_55
VEL_2
NOTE_ON_67
VEL_2
NOTE_ON_62
TIME_SHIFT_64ND_4
NOTE_OFF_76
VEL_2
NOTE_ON_74
TIME_SHIFT_64ND_4
NOTE_OFF_74
VEL_2
NOTE_ON_72
TIME_SHIFT_64ND_4
NOTE_OFF_72
VEL_3
NOTE_ON_74
TIME_SHIFT_64ND_28
NOTE_OFF_74
NOTE_OFF_71
NOTE_OFF_55
NOTE_OFF_67
NOTE_OFF_62
VEL_2
NOTE_ON_64
VEL_2
NOTE_ON_72
VEL_1
NOTE_ON_57
VEL_2
NOTE_ON_60
TIME_SHIFT_64ND_7
NOTE_OFF_64
NOTE_OFF_72
NOTE_OFF_57
NOTE_OFF_60
TIME_SHIFT_64ND_7
VEL_2
NOTE_ON_65
VEL_3
NOTE_ON_72
VEL_2
NOTE_ON_62
VEL_1
NOTE_ON_57
TIME_SHIFT_64ND_7
NOTE_OFF_65
NOTE_OFF_72
NOTE_OFF_62
NOTE_OFF_57
TIME_SHIFT_64ND_7
VEL_3
NOTE_ON_72
VEL_2
NOTE_ON_66
VEL_2
NOTE_ON_57
VEL_2
NOTE_ON_63
TIME_SHIFT_64ND_7
NOTE_OFF_72
NOTE_OFF_66
NOTE_OFF_57
NOTE_OFF_63
TIME_SHIFT_64ND_7
VEL_3
NOTE_ON_72
VEL_2
NOTE_ON_67
VEL_2
NOTE_ON_52
VEL_2
NOTE_ON_64
VEL_2
NOTE_ON_59
TIME_SHIFT_64ND_4
NOTE_OFF_72
VEL_2
NOTE_ON_71
TIME_SHIFT_64ND_4
NOTE_OFF_71
VEL_2
NOTE_ON_69
TIME_SHIFT_64ND_4
NOTE_OFF_69
VEL_3
NOTE_ON_71
TIME_SHIFT_64ND_28
NOTE_OFF_71
NOTE_OFF_67
NOTE_OFF_52
NOTE_OFF_64
NOTE_OFF_59
VEL_3
NOTE_ON_71
VEL_2
NOTE_ON_65
VEL_2
NOTE_ON_53
VEL_2
NOTE_ON_60
TIME_SHIFT_64ND_4
NOTE_OFF_71
VEL_2
NOTE_ON_69
TIME_SHIFT_64ND_4
NOTE_OFF_69
VEL_2
NOTE_ON_67
TIME_SHIFT_64ND_4
NOTE_OFF_67
VEL_3
NOTE_ON_69
TIME_SHIFT_64ND_27
NOTE_OFF_69
NOTE_OFF_65
NOTE_OFF_53
NOTE_OFF_60
VEL_3
NOTE_ON_65
VEL_2
NOTE_ON_67
VEL_3
NOTE_ON_60
VEL_2
NOTE_ON_55
VEL_2
NOTE_ON_48
TIME_SHIFT_64ND_4
NOTE_OFF_65
VEL_3
NOTE_ON_64
TIME_SHIFT_64ND_4
VEL_3
NOTE_ON_62
NOTE_OFF_64
TIME_SHIFT_64ND_4
NOTE_OFF_62
VEL_3
NOTE_ON_64
TIME_SHIFT_64ND_27
NOTE_OFF_64
NOTE_OFF_67
NOTE_OFF_60
NOTE_OFF_55
VEL_3
NOTE_ON_65
VEL_3
NOTE_ON_60
VEL_2
NOTE_ON_50
VEL_3
NOTE_ON_57
NOTE_OFF_48
TIME_SHIFT_64ND_14
NOTE_OFF_65
NOTE_OFF_60
NOTE_OFF_50
NOTE_OFF_57
VEL_3
NOTE_ON_60
VEL_3
NOTE_ON_67
VEL_3
NOTE_ON_57
VEL_2
NOTE_ON_52
TIME_SHIFT_64ND_4
NOTE_OFF_60
NOTE_OFF_67
NOTE_OFF_57
NOTE_OFF_52
TIME_SHIFT_64ND_4
VEL_3
NOTE_ON_60
VEL_3
NOTE_ON_69
VEL_2
NOTE_ON_53
VEL_3
NOTE_ON_57
TIME_SHIFT_64ND_4
NOTE_OFF_60
NOTE_OFF_69
NOTE_OFF_53
NOTE_OFF_57
TIME_SHIFT_64ND_4
VEL_3
NOTE_ON_60
VEL_4
NOTE_ON_65
VEL_3
NOTE_ON_57
VEL_3
NOTE_ON_50
TIME_SHIFT_64ND_7
NOTE_OFF_60
NOTE_OFF_65
NOTE_OFF_57
NOTE_OFF_50
TIME_SHIFT_64ND_12
VEL_2
NOTE_ON_59
VEL_3
NOTE_ON_62
VEL_2
NOTE_ON_53
VEL_2
NOTE_ON_57
TIME_SHIFT_64ND_9
NOTE_OFF_59
NOTE_OFF_62
NOTE_OFF_53
NOTE_OFF_57
TIME_SHIFT_64ND_16
VEL_2
NOTE_ON_59
VEL_2
NOTE_ON_64
VEL_2
NOTE_ON_56
VEL_2
NOTE_ON_52
TIME_SHIFT_64ND_57
NOTE_OFF_59
NOTE_OFF_64
NOTE_OFF_56
NOTE_OFF_52
VEL_2
NOTE_ON_45
TIME_SHIFT_64ND_14
NOTE_OFF_45
VEL_1
NOTE_ON_52
VEL_1
NOTE_ON_60
TIME_SHIFT_64ND_14
NOTE_OFF_52
NOTE_OFF_60
VEL_1
NOTE_ON_52
VEL_1
NOTE_ON_60
TIME_SHIFT_64ND_14
NOTE_OFF_52
NOTE_OFF_60
VEL_2
NOTE_ON_45
TIME_SHIFT_64ND_14
NOTE_OFF_45
VEL_1
NOTE_ON_60
VEL_1
NOTE_ON_52
TIME_SHIFT_64ND_13
NOTE_OFF_60
NOTE_OFF_52
VEL_1
NOTE_ON_60
VEL_1
NOTE_ON_52
TIME_SHIFT_64ND_14
NOTE_OFF_60
NOTE_OFF_52
VEL_3
NOTE_ON_64
VEL_2
NOTE_ON_45
TIME_SHIFT_64ND_14
NOTE_OFF_64
NOTE_OFF_45
VEL_3
NOTE_ON_66
VEL_1
NOTE_ON_60
VEL_1
NOTE_ON_52
TIME_SHIFT_64ND_3
NOTE_OFF_66
TIME_SHIFT_64ND_3
VEL_2
NOTE_ON_68
TIME_SHIFT_64ND_2
NOTE_OFF_68
TIME_SHIFT_64ND_5
NOTE_OFF_60
NOTE_OFF_52
VEL_3
NOTE_ON_69
VEL_1
NOTE_ON_60
VEL_1
NOTE_ON_52
TIME_SHIFT_64ND_7
NOTE_OFF_69
TIME_SHIFT_64ND_7
NOTE_OFF_60
NOTE_OFF_52
VEL_3
NOTE_ON_69
VEL_2
NOTE_ON_45
TIME_SHIFT_64ND_14
NOTE_OFF_69
NOTE_OFF_45
VEL_3
NOTE_ON_71
VEL_1
NOTE_ON_62
VEL_1
NOTE_ON_52
TIME_SHIFT_64ND_3
NOTE_OFF_71
TIME_SHIFT_64ND_3
VEL_3
NOTE_ON_68
TIME_SHIFT_64ND_2
NOTE_OFF_68
TIME_SHIFT_64ND_5
NOTE_OFF_62
NOTE_OFF_52
VEL_3
NOTE_ON_66
VEL_1
NOTE_ON_62
VEL_1
NOTE_ON_52
TIME_SHIFT_64ND_7
NOTE_OFF_66
TIME_SHIFT_64ND_5
VEL_2
NOTE_ON_69
TIME_SHIFT_64ND_2
NOTE_OFF_69
NOTE_OFF_62
NOTE_OFF_52
VEL_3
NOTE_ON_66
VEL_2
NOTE_ON_45
TIME_SHIFT_64ND_3
NOTE_OFF_66
TIME_SHIFT_64ND_10
NOTE_OFF_45
VEL_2
NOTE_ON_64
VEL_1
NOTE_ON_52
VEL_1
NOTE_ON_60
TIME_SHIFT_64ND_13
NOTE_OFF_52
NOTE_OFF_60
VEL_1
NOTE_ON_60
VEL_1
NOTE_ON_52
TIME_SHIFT_64ND_14
NOTE_OFF_60
NOTE_OFF_52
VEL_2
NOTE_ON_45
TIME_SHIFT_64ND_14
NOTE_OFF_64
NOTE_OFF_45
VEL_1
NOTE_ON_52
VEL_1
NOTE_ON_60
TIME_SHIFT_64ND_13
NOTE_OFF_52
NOTE_OFF_60
VEL_1
NOTE_ON_52
VEL_1
NOTE_ON_60
TIME_SHIFT_64ND_14
NOTE_OFF_52
NOTE_OFF_60
VEL_2
NOTE_ON_45
TIME_SHIFT_64ND_7
VEL_2
NOTE_ON_64
TIME_SHIFT_64ND_2
NOTE_OFF_64
TIME_SHIFT_64ND_5
NOTE_OFF_45
VEL_3
NOTE_ON_66
VEL_1
NOTE_ON_60
VEL_1
NOTE_ON_52
TIME_SHIFT_64ND_2
NOTE_OFF_66
TIME_SHIFT_64ND_5
VEL_2
NOTE_ON_68
TIME_SHIFT_64ND_2
NOTE_OFF_68
TIME_SHIFT_64ND_5
NOTE_OFF_60
NOTE_OFF_52
VEL_3
NOTE_ON_68
VEL_1
NOTE_ON_60
VEL_1
NOTE_ON_52
TIME_SHIFT_64ND_7
NOTE_OFF_68
VEL_3
NOTE_ON_69
TIME_SHIFT_64ND_7
NOTE_OFF_69
NOTE_OFF_60
NOTE_OFF_52
VEL_2
NOTE_ON_45
TIME_SHIFT_64ND_6
VEL_3
NOTE_ON_69
TIME_SHIFT_64ND_2
NOTE_OFF_69
TIME_SHIFT_64ND_5
NOTE_OFF_45
VEL_3
NOTE_ON_71
VEL_1
NOTE_ON_62
VEL_1
NOTE_ON_52
TIME_SHIFT_64ND_2
NOTE_OFF_71
TIME_SHIFT_64ND_5
VEL_3
NOTE_ON_68
TIME_SHIFT_64ND_2
NOTE_OFF_68
TIME_SHIFT_64ND_5
NOTE_OFF_62
NOTE_OFF_52
VEL_3
NOTE_ON_68
VEL_1
NOTE_ON_62
VEL_1
NOTE_ON_52
TIME_SHIFT_64ND_7
NOTE_OFF_68
VEL_3
NOTE_ON_66
TIME_SHIFT_64ND_3
NOTE_OFF_66
TIME_SHIFT_64ND_2
VEL_2
NOTE_ON_69
TIME_SHIFT_64ND_2
NOTE_OFF_69
NOTE_OFF_62
NOTE_OFF_52
VEL_3
NOTE_ON_66
VEL_2
NOTE_ON_45
TIME_SHIFT_64ND_3
NOTE_OFF_66
TIME_SHIFT_64ND_10
NOTE_OFF_45
VEL_2
NOTE_ON_64
VEL_1
NOTE_ON_60
VEL_1
NOTE_ON_52
TIME_SHIFT_64ND_13
NOTE_OFF_60
NOTE_OFF_52
VEL_1
NOTE_ON_52
VEL_1
NOTE_ON_60
TIME_SHIFT_64ND_14
NOTE_OFF_52
NOTE_OFF_60
VEL_2
NOTE_ON_45
TIME_SHIFT_64ND_14
NOTE_OFF_64
NOTE_OFF_45
VEL_1
NOTE_ON_52
VEL_1
NOTE_ON_60
TIME_SHIFT_64ND_13
NOTE_OFF_52
NOTE_OFF_60
VEL_1
NOTE_ON_52
VEL_1
NOTE_ON_60
TIME_SHIFT_64ND_14
NOTE_OFF_52
NOTE_OFF_60
VEL_2
NOTE_ON_76
VEL_2
NOTE_ON_67
VEL_2
NOTE_ON_64
VEL_1
NOTE_ON_60
TIME_SHIFT_64ND_7
NOTE_OFF_76
NOTE_OFF_67
NOTE_OFF_64
NOTE_OFF_60
TIME_SHIFT_64ND_7
VEL_3
NOTE_ON_76
VEL_2
NOTE_ON_68
VEL_1
NOTE_ON_60
VEL_2
NOTE_ON_65
TIME_SHIFT_64ND_7
NOTE_OFF_76
NOTE_OFF_68
NOTE_OFF_60
NOTE_OFF_65
TIME_SHIFT_64ND_7
VEL_3
NOTE_ON_76
VEL_2
NOTE_ON_69
VEL_2
NOTE_ON_60
VEL_2
NOTE_ON_66
TIME_SHIFT_64ND_7
NOTE_OFF_76
NOTE_OFF_69
NOTE_OFF_60
NOTE_OFF_66
TIME_SHIFT_64ND_7
VEL_3
NOTE_ON_76
VEL_2
NOTE_ON_71
VEL_2
NOTE_ON_62
VEL_2
NOTE_ON_67
VEL_2
NOTE_ON_55
TIME_SHIFT_64ND_4
NOTE_OFF_76
VEL_2
NOTE_ON_74
TIME_SHIFT_64ND_4
NOTE_OFF_74
VEL_2
NOTE_ON_72
TIME_SHIFT_64ND_4
NOTE_OFF_72
VEL_3
NOTE_ON_74
TIME_SHIFT_64ND_28
NOTE_OFF_74
NOTE_OFF_71
NOTE_OFF_62
NOTE_OFF_67
NOTE_OFF_55
VEL_2
NOTE_ON_72
VEL_2
NOTE_ON_64
VEL_1
NOTE_ON_57
VEL_2
NOTE_ON_60
TIME_SHIFT_64ND_7
NOTE_OFF_72
NOTE_OFF_64
NOTE_OFF_57
NOTE_OFF_60
TIME_SHIFT_64ND_7
VEL_2
NOTE_ON_65
VEL_3
NOTE_ON_72
VEL_1
NOTE_ON_57
VEL_2
NOTE_ON_62
TIME_SHIFT_64ND_7
NOTE_OFF_65
NOTE_OFF_72
NOTE_OFF_57
NOTE_OFF_62
TIME_SHIFT_64ND_7
VEL_2
NOTE_ON_66
VEL_3
NOTE_ON_72
VEL_2
NOTE_ON_57
VEL_2
NOTE_ON_63
TIME_SHIFT_64ND_7
NOTE_OFF_66
NOTE_OFF_72
NOTE_OFF_57
NOTE_OFF_63
TIME_SHIFT_64ND_7
VEL_3
NOTE_ON_72
VEL_2
NOTE_ON_67
VEL_2
NOTE_ON_59
VEL_2
NOTE_ON_64
VEL_2
NOTE_ON_52
TIME_SHIFT_64ND_4
NOTE_OFF_72
VEL_2
NOTE_ON_71
TIME_SHIFT_64ND_4
NOTE_OFF_71
VEL_2
NOTE_ON_69
TIME_SHIFT_64ND_4
NOTE_OFF_69
VEL_3
NOTE_ON_71
TIME_SHIFT_64ND_28
NOTE_OFF_71
NOTE_OFF_67
NOTE_OFF_59
NOTE_OFF_64
NOTE_OFF_52
VEL_3
NOTE_ON_71
VEL_2
NOTE_ON_65
VEL_2
NOTE_ON_60
VEL_2
NOTE_ON_53
TIME_SHIFT_64ND_4
NOTE_OFF_71
VEL_2
NOTE_ON_69
TIME_SHIFT_64ND_4
NOTE_OFF_69
VEL_2
NOTE_ON_67
TIME_SHIFT_64ND_4
NOTE_OFF_67
VEL_3
NOTE_ON_69
TIME_SHIFT_64ND_27
NOTE_OFF_69
NOTE_OFF_65
NOTE_OFF_60
NOTE_OFF_53
VEL_3
NOTE_ON_65
VEL_2
NOTE_ON_67
VEL_2
NOTE_ON_55
VEL_3
NOTE_ON_60
VEL_2
NOTE_ON_48
TIME_SHIFT_64ND_4
NOTE_OFF_65
VEL_3
NOTE_ON_64
TIME_SHIFT_64ND_4
VEL_3
NOTE_ON_62
NOTE_OFF_64
TIME_SHIFT_64ND_4
NOTE_OFF_62
VEL_3
NOTE_ON_64
TIME_SHIFT_64ND_27
NOTE_OFF_64
NOTE_OFF_67
NOTE_OFF_55
NOTE_OFF_60
VEL_3
NOTE_ON_65
VEL_3
NOTE_ON_60
VEL_3
NOTE_ON_57
VEL_2
NOTE_ON_50
NOTE_OFF_48
TIME_SHIFT_64ND_14
NOTE_OFF_65
NOTE_OFF_60
NOTE_OFF_57
NOTE_OFF_50
VEL_3
NOTE_ON_67
VEL_3
NOTE_ON_60
VEL_2
NOTE_ON_52
VEL_3
NOTE_ON_57
TIME_SHIFT_64ND_4
NOTE_OFF_67
NOTE_OFF_60
NOTE_OFF_52
NOTE_OFF_57
TIME_SHIFT_64ND_4
VEL_3
NOTE_ON_69
VEL_3
NOTE_ON_60
VEL_3
NOTE_ON_57
VEL_2
NOTE_ON_53
TIME_SHIFT_64ND_4
NOTE_OFF_69
NOTE_OFF_60
NOTE_OFF_57
NOTE_OFF_53
TIME_SHIFT_64ND_4
VEL_4
NOTE_ON_65
VEL_3
NOTE_ON_60
VEL_3
NOTE_ON_57
VEL_3
NOTE_ON_50
TIME_SHIFT_64ND_7
NOTE_OFF_65
NOTE_OFF_60
NOTE_OFF_57
NOTE_OFF_50
TIME_SHIFT_64ND_11
VEL_2
NOTE_ON_59
VEL_3
NOTE_ON_62
VEL_2
NOTE_ON_57
VEL_2
NOTE_ON_53
TIME_SHIFT_64ND_10
NOTE_OFF_59
NOTE_OFF_62
NOTE_OFF_57
NOTE_OFF_53
TIME_SHIFT_64ND_16
VEL_2
NOTE_ON_64
VEL_2
NOTE_ON_59
VEL_2
NOTE_ON_56
VEL_2
NOTE_ON_52
TIME_SHIFT_64ND_57
NOTE_OFF_64
NOTE_OFF_59
NOTE_OFF_56
NOTE_OFF_52
VEL_3
NOTE_ON_69
TIME_SHIFT_64ND_14
VEL_2
NOTE_ON_76
VEL_2
NOTE_ON_73
TIME_SHIFT_64ND_13
NOTE_OFF_76
NOTE_OFF_73
NOTE_OFF_69
VEL_2
NOTE_ON_76
VEL_2
NOTE_ON_73
VEL_3
NOTE_ON_71
TIME_SHIFT_64ND_7
NOTE_OFF_71
VEL_3
NOTE_ON_68
TIME_SHIFT_64ND_5
NOTE_OFF_68
VEL_2
NOTE_ON_69
TIME_SHIFT_64ND_2
NOTE_OFF_76
NOTE_OFF_73
NOTE_OFF_69
VEL_3
NOTE_ON_66
TIME_SHIFT_64ND_7
NOTE_OFF_66
VEL_3
NOTE_ON_64
TIME_SHIFT_64ND_3
NOTE_OFF_64
TIME_SHIFT_64ND_3
VEL_2
NOTE_ON_74
VEL_2
NOTE_ON_68
VEL_2
NOTE_ON_76
VEL_2
NOTE_ON_64
TIME_SHIFT_64ND_13
NOTE_OFF_74
NOTE_OFF_68
NOTE_OFF_76
VEL_2
NOTE_ON_76
VEL_2
NOTE_ON_74
VEL_2
NOTE_ON_68
TIME_SHIFT_64ND_14
NOTE_OFF_76
NOTE_OFF_74
NOTE_OFF_68
NOTE_OFF_64
VEL_3
NOTE_ON_69
TIME_SHIFT_64ND_14
NOTE_OFF_69
VEL_2
NOTE_ON_76
VEL_2
NOTE_ON_73
VEL_3
NOTE_ON_71
TIME_SHIFT_64ND_7
NOTE_OFF_71
VEL_3
NOTE_ON_73
TIME_SHIFT_64ND_7
NOTE_OFF_76
NOTE_OFF_73
NOTE_OFF_73
VEL_2
NOTE_ON_76
VEL_2
NOTE_ON_73
VEL_3
NOTE_ON_69
TIME_SHIFT_64ND_7
NOTE_OFF_69
VEL_3
NOTE_ON_66
TIME_SHIFT_64ND_5
NOTE_OFF_66
VEL_2
NOTE_ON_68
TIME_SHIFT_64ND_2
NOTE_OFF_76
NOTE_OFF_73
NOTE_OFF_68
VEL_3
NOTE_ON_66
TIME_SHIFT_64ND_7
NOTE_OFF_66
VEL_3
NOTE_ON_64
TIME_SHIFT_64ND_3
NOTE_OFF_64
TIME_SHIFT_64ND_3
VEL_2
NOTE_ON_76
VEL_2
NOTE_ON_68
VEL_2
NOTE_ON_74
VEL_2
NOTE_ON_64
TIME_SHIFT_64ND_13
NOTE_OFF_76
NOTE_OFF_68
NOTE_OFF_74
VEL_2
NOTE_ON_76
VEL_2
NOTE_ON_74
VEL_2
NOTE_ON_68
TIME_SHIFT_64ND_14
NOTE_OFF_76
NOTE_OFF_74
NOTE_OFF_68
NOTE_OFF_64
VEL_3
NOTE_ON_69
TIME_SHIFT_64ND_14
VEL_2
NOTE_ON_76
VEL_2
NOTE_ON_73
TIME_SHIFT_64ND_13
NOTE_OFF_76
NOTE_OFF_73
NOTE_OFF_69
VEL_2
NOTE_ON_73
VEL_2
NOTE_ON_76
VEL_3
NOTE_ON_64
TIME_SHIFT_64ND_7
NOTE_OFF_64
VEL_3
NOTE_ON_66
TIME_SHIFT_64ND_7
NOTE_OFF_73
NOTE_OFF_76
NOTE_OFF_66
VEL_3
NOTE_ON_66
TIME_SHIFT_64ND_7
NOTE_OFF_66
VEL_3
NOTE_ON_68
TIME_SHIFT_64ND_7
NOTE_OFF_68
VEL_2
NOTE_ON_76
VEL_2
NOTE_ON_73
VEL_3
NOTE_ON_68
TIME_SHIFT_64ND_14
NOTE_OFF_76
NOTE_OFF_73
VEL_2
NOTE_ON_76
VEL_2
NOTE_ON_73
TIME_SHIFT_64ND_14
NOTE_OFF_76
NOTE_OFF_73
NOTE_OFF_68
VEL_3
NOTE_ON_68
TIME_SHIFT_64ND_7
NOTE_OFF_68
VEL_3
NOTE_ON_71
TIME_SHIFT_64ND_7
NOTE_OFF_71
VEL_3
NOTE_ON_76
VEL_2
NOTE_ON_73
VEL_3
NOTE_ON_71
TIME_SHIFT_64ND_7
NOTE_OFF_71
VEL_3
NOTE_ON_69
TIME_SHIFT_64ND_7
NOTE_OFF_76
NOTE_OFF_73
NOTE_OFF_69
VEL_3
NOTE_ON_76
VEL_2
NOTE_ON_73
VEL_3
NOTE_ON_64
TIME_SHIFT_64ND_7
NOTE_OFF_64
VEL_3
NOTE_ON_66
TIME_SHIFT_64ND_9
NOTE_OFF_76
NOTE_OFF_73
NOTE_OFF_66
VEL_3
NOTE_ON_66
TIME_SHIFT_64ND_8
NOTE_OFF_66
VEL_2
NOTE_ON_68
TIME_SHIFT_64ND_8
NOTE_OFF_68
VEL_2
NOTE_ON_73
VEL_2
NOTE_ON_76
VEL_3
NOTE_ON_68
TIME_SHIFT_64ND_17
NOTE_OFF_73
NOTE_OFF_76
VEL_2
NOTE_ON_76
VEL_2
NOTE_ON_73
TIME_SHIFT_64ND_19
NOTE_OFF_76
NOTE_OFF_73
NOTE_OFF_68
VEL_3
NOTE_ON_69
TIME_SHIFT_64ND_14
VEL_2
NOTE_ON_76
VEL_2
NOTE_ON_73
TIME_SHIFT_64ND_14
NOTE_OFF_76
NOTE_OFF_73
NOTE_OFF_69
VEL_2
NOTE_ON_76
VEL_2
NOTE_ON_73
VEL_3
NOTE_ON_71
TIME_SHIFT_64ND_7
NOTE_OFF_71
VEL_3
NOTE_ON_68
TIME_SHIFT_64ND_5
NOTE_OFF_68
VEL_2
NOTE_ON_69
TIME_SHIFT_64ND_2
NOTE_OFF_76
NOTE_OFF_73
NOTE_OFF_69
VEL_3
NOTE_ON_66
TIME_SHIFT_64ND_7
NOTE_OFF_66
VEL_3
NOTE_ON_64
TIME_SHIFT_64ND_3
NOTE_OFF_64
TIME_SHIFT_64ND_3
VEL_2
NOTE_ON_74
VEL_2
NOTE_ON_68
VEL_2
NOTE_ON_76
VEL_2
NOTE_ON_64
TIME_SHIFT_64ND_13
NOTE_OFF_74
NOTE_OFF_68
NOTE_OFF_76
VEL_2
NOTE_ON_76
VEL_2
NOTE_ON_74
VEL_2
NOTE_ON_68
TIME_SHIFT_64ND_14
NOTE_OFF_76
NOTE_OFF_74
NOTE_OFF_68
NOTE_OFF_64
VEL_3
NOTE_ON_69
TIME_SHIFT_64ND_14
NOTE_OFF_69
VEL_2
NOTE_ON_76
VEL_2
NOTE_ON_73
VEL_3
NOTE_ON_71
TIME_SHIFT_64ND_7
NOTE_OFF_71
VEL_3
NOTE_ON_73
TIME_SHIFT_64ND_7
NOTE_OFF_76
NOTE_OFF_73
NOTE_OFF_73
VEL_2
NOTE_ON_76
VEL_2
NOTE_ON_73
VEL_3
NOTE_ON_69
TIME_SHIFT_64ND_7
NOTE_OFF_69
VEL_3
NOTE_ON_66
TIME_SHIFT_64ND_5
NOTE_OFF_66
VEL_2
NOTE_ON_68
TIME_SHIFT_64ND_2
NOTE_OFF_76
NOTE_OFF_73
NOTE_OFF_68
VEL_3
NOTE_ON_66
TIME_SHIFT_64ND_7
NOTE_OFF_66
VEL_3
NOTE_ON_64
TIME_SHIFT_64ND_3
NOTE_OFF_64
TIME_SHIFT_64ND_3
VEL_2
NOTE_ON_76
VEL_2
NOTE_ON_68
VEL_2
NOTE_ON_74
VEL_2
NOTE_ON_64
TIME_SHIFT_64ND_13
NOTE_OFF_76
NOTE_OFF_68
NOTE_OFF_74
VEL_2
NOTE_ON_76
VEL_2
NOTE_ON_74
VEL_2
NOTE_ON_68
TIME_SHIFT_64ND_14
NOTE_OFF_76
NOTE_OFF_74
NOTE_OFF_68
NOTE_OFF_64
VEL_3
NOTE_ON_69
TIME_SHIFT_64ND_14
VEL_2
NOTE_ON_76
VEL_2
NOTE_ON_73
TIME_SHIFT_64ND_13
NOTE_OFF_76
NOTE_OFF_73
NOTE_OFF_69
VEL_2
NOTE_ON_73
VEL_2
NOTE_ON_76
VEL_3
NOTE_ON_64
TIME_SHIFT_64ND_7
NOTE_OFF_64
VEL_3
NOTE_ON_66
TIME_SHIFT_64ND_7
NOTE_OFF_73
NOTE_OFF_76
NOTE_OFF_66
VEL_3
NOTE_ON_66
TIME_SHIFT_64ND_7
NOTE_OFF_66
VEL_3
NOTE_ON_67
TIME_SHIFT_64ND_3
NOTE_OFF_67
TIME_SHIFT_64ND_3
VEL_3
NOTE_ON_76
VEL_2
NOTE_ON_73
VEL_3
NOTE_ON_67
TIME_SHIFT_64ND_14
NOTE_OFF_76
NOTE_OFF_73
VEL_3
NOTE_ON_76
VEL_2
NOTE_ON_73
TIME_SHIFT_64ND_15
NOTE_OFF_76
NOTE_OFF_73
NOTE_OFF_67
VEL_4
NOTE_ON_67
TIME_SHIFT_64ND_7
NOTE_OFF_67
VEL_3
NOTE_ON_68
TIME_SHIFT_64ND_4
NOTE_OFF_68
TIME_SHIFT_64ND_4
VEL_3
NOTE_ON_76
VEL_2
NOTE_ON_73
VEL_3
NOTE_ON_68
TIME_SHIFT_64ND_14
NOTE_OFF_76
NOTE_OFF_73
VEL_3
NOTE_ON_76
VEL_2
NOTE_ON_73
TIME_SHIFT_64ND_15
NOTE_OFF_76
NOTE_OFF_73
NOTE_OFF_68
VEL_4
NOTE_ON_68
TIME_SHIFT_64ND_8
NOTE_OFF_68
VEL_3
NOTE_ON_69
TIME_SHIFT_64ND_4
NOTE_OFF_69
TIME_SHIFT_64ND_4
VEL_3
NOTE_ON_73
VEL_3
NOTE_ON_76
VEL_4
NOTE_ON_69
TIME_SHIFT_64ND_18
NOTE_OFF_73
NOTE_OFF_76
VEL_3
NOTE_ON_76
VEL_3
NOTE_ON_73
TIME_SHIFT_64ND_22
NOTE_OFF_76
NOTE_OFF_73
NOTE_OFF_69
VEL_2
NOTE_ON_45
TIME_SHIFT_64ND_14
NOTE_OFF_45
VEL_1
NOTE_ON_60
VEL_1
NOTE_ON_52
TIME_SHIFT_64ND_14
NOTE_OFF_60
NOTE_OFF_52
VEL_1
NOTE_ON_52
VEL_1
NOTE_ON_60
TIME_SHIFT_64ND_14
NOTE_OFF_52
NOTE_OFF_60
VEL_2
NOTE_ON_45
TIME_SHIFT_64ND_14
NOTE_OFF_45
VEL_1
NOTE_ON_60
VEL_1
NOTE_ON_52
TIME_SHIFT_64ND_13
NOTE_OFF_60
NOTE_OFF_52
VEL_1
NOTE_ON_52
VEL_1
NOTE_ON_60
TIME_SHIFT_64ND_14
NOTE_OFF_52
NOTE_OFF_60
VEL_2
NOTE_ON_64
VEL_2
NOTE_ON_45
TIME_SHIFT_64ND_14
NOTE_OFF_64
NOTE_OFF_45
VEL_2
NOTE_ON_66
VEL_1
NOTE_ON_52
VEL_1
NOTE_ON_60
TIME_SHIFT_64ND_3
NOTE_OFF_66
TIME_SHIFT_64ND_3
VEL_2
NOTE_ON_68
TIME_SHIFT_64ND_2
NOTE_OFF_68
TIME_SHIFT_64ND_5
NOTE_OFF_52
NOTE_OFF_60
VEL_2
NOTE_ON_69
VEL_1
NOTE_ON_60
VEL_1
NOTE_ON_52
TIME_SHIFT_64ND_7
NOTE_OFF_69
TIME_SHIFT_64ND_7
NOTE_OFF_60
NOTE_OFF_52
VEL_3
NOTE_ON_69
VEL_2
NOTE_ON_45
TIME_SHIFT_64ND_14
NOTE_OFF_69
NOTE_OFF_45
VEL_3
NOTE_ON_71
VEL_1
NOTE_ON_62
VEL_1
NOTE_ON_52
TIME_SHIFT_64ND_3
NOTE_OFF_71
TIME_SHIFT_64ND_3
VEL_2
NOTE_ON_68
TIME_SHIFT_64ND_2
NOTE_OFF_68
TIME_SHIFT_64ND_5
NOTE_OFF_62
NOTE_OFF_52
VEL_2
NOTE_ON_66
VEL_1
NOTE_ON_52
VEL_1
NOTE_ON_62
TIME_SHIFT_64ND_7
NOTE_OFF_66
TIME_SHIFT_64ND_5
VEL_2
NOTE_ON_69
TIME_SHIFT_64ND_2
NOTE_OFF_69
NOTE_OFF_52
NOTE_OFF_62
VEL_2
NOTE_ON_66
VEL_2
NOTE_ON_45
TIME_SHIFT_64ND_3
NOTE_OFF_66
TIME_SHIFT_64ND_10
NOTE_OFF_45
VEL_2
NOTE_ON_64
VEL_1
NOTE_ON_60
VEL_1
NOTE_ON_52
TIME_SHIFT_64ND_13
NOTE_OFF_60
NOTE_OFF_52
VEL_1
NOTE_ON_52
VEL_1
NOTE_ON_60
TIME_SHIFT_64ND_14
NOTE_OFF_52
NOTE_OFF_60
VEL_2
NOTE_ON_45
TIME_SHIFT_64ND_14
NOTE_OFF_64
NOTE_OFF_45
VEL_1
NOTE_ON_60
VEL_1
NOTE_ON_52
TIME_SHIFT_64ND_14
NOTE_OFF_60
NOTE_OFF_52
VEL_1
NOTE_ON_52
VEL_1
NOTE_ON_60
TIME_SHIFT_64ND_14
NOTE_OFF_52
NOTE_OFF_60
VEL_2
NOTE_ON_45
TIME_SHIFT_64ND_7
VEL_2
NOTE_ON_64
TIME_SHIFT_64ND_2
NOTE_OFF_64
TIME_SHIFT_64ND_5
NOTE_OFF_45
VEL_2
NOTE_ON_66
VEL_1
NOTE_ON_52
VEL_1
NOTE_ON_60
TIME_SHIFT_64ND_2
NOTE_OFF_66
TIME_SHIFT_64ND_5
VEL_2
NOTE_ON_68
TIME_SHIFT_64ND_2
NOTE_OFF_68
TIME_SHIFT_64ND_5
NOTE_OFF_52
NOTE_OFF_60
VEL_2
NOTE_ON_68
VEL_1
NOTE_ON_60
VEL_1
NOTE_ON_52
TIME_SHIFT_64ND_7
NOTE_OFF_68
VEL_2
NOTE_ON_69
TIME_SHIFT_64ND_7
NOTE_OFF_69
NOTE_OFF_60
NOTE_OFF_52
VEL_2
NOTE_ON_45
TIME_SHIFT_64ND_6
VEL_2
NOTE_ON_69
TIME_SHIFT_64ND_2
NOTE_OFF_69
TIME_SHIFT_64ND_5
NOTE_OFF_45
VEL_3
NOTE_ON_71
VEL_1
NOTE_ON_52
VEL_1
NOTE_ON_62
TIME_SHIFT_64ND_2
NOTE_OFF_71
TIME_SHIFT_64ND_5
VEL_2
NOTE_ON_68
TIME_SHIFT_64ND_2
NOTE_OFF_68
TIME_SHIFT_64ND_5
NOTE_OFF_52
NOTE_OFF_62
VEL_2
NOTE_ON_68
VEL_1
NOTE_ON_52
VEL_1
NOTE_ON_62
TIME_SHIFT_64ND_7
NOTE_OFF_68
VEL_2
NOTE_ON_66
TIME_SHIFT_64ND_3
NOTE_OFF_66
TIME_SHIFT_64ND_2
VEL_2
NOTE_ON_69
TIME_SHIFT_64ND_2
NOTE_OFF_69
NOTE_OFF_52
NOTE_OFF_62
VEL_2
NOTE_ON_66
VEL_2
NOTE_ON_45
TIME_SHIFT_64ND_3
NOTE_OFF_66
TIME_SHIFT_64ND_10
NOTE_OFF_45
VEL_2
NOTE_ON_64
VEL_1
NOTE_ON_60
VEL_1
NOTE_ON_52
TIME_SHIFT_64ND_13
NOTE_OFF_60
NOTE_OFF_52
VEL_1
NOTE_ON_60
VEL_1
NOTE_ON_52
TIME_SHIFT_64ND_14
NOTE_OFF_60
NOTE_OFF_52
VEL_2
NOTE_ON_45
TIME_SHIFT_64ND_14
NOTE_OFF_64
NOTE_OFF_45
VEL_1
NOTE_ON_60
VEL_1
NOTE_ON_52
TIME_SHIFT_64ND_13
NOTE_OFF_60
NOTE_OFF_52
VEL_1
NOTE_ON_52
VEL_1
NOTE_ON_60
TIME_SHIFT_64ND_14
NOTE_OFF_52
NOTE_OFF_60
VEL_2
NOTE_ON_76
VEL_2
NOTE_ON_67
VEL_1
NOTE_ON_60
VEL_2
NOTE_ON_64
TIME_SHIFT_64ND_7
NOTE_OFF_76
NOTE_OFF_67
NOTE_OFF_60
NOTE_OFF_64
TIME_SHIFT_64ND_7
VEL_3
NOTE_ON_76
VEL_2
NOTE_ON_68
VEL_1
NOTE_ON_60
VEL_2
NOTE_ON_65
TIME_SHIFT_64ND_7
NOTE_OFF_76
NOTE_OFF_68
NOTE_OFF_60
NOTE_OFF_65
TIME_SHIFT_64ND_7
VEL_2
NOTE_ON_69
VEL_3
NOTE_ON_76
VEL_2
NOTE_ON_66
VEL_2
NOTE_ON_60
TIME_SHIFT_64ND_7
NOTE_OFF_69
NOTE_OFF_76
NOTE_OFF_66
NOTE_OFF_60
TIME_SHIFT_64ND_7
VEL_3
NOTE_ON_76
VEL_2
NOTE_ON_71
VEL_2
NOTE_ON_55
VEL_2
NOTE_ON_67
VEL_2
NOTE_ON_62
TIME_SHIFT_64ND_4
NOTE_OFF_76
VEL_2
NOTE_ON_74
TIME_SHIFT_64ND_4
NOTE_OFF_74
VEL_2
NOTE_ON_72
TIME_SHIFT_64ND_4
NOTE_OFF_72
VEL_3
NOTE_ON_74
TIME_SHIFT_64ND_28
NOTE_OFF_74
NOTE_OFF_71
NOTE_OFF_55
NOTE_OFF_67
NOTE_OFF_62
VEL_2
NOTE_ON_64
VEL_2
NOTE_ON_72
VEL_2
NOTE_ON_60
VEL_1
NOTE_ON_57
TIME_SHIFT_64ND_7
NOTE_OFF_64
NOTE_OFF_72
NOTE_OFF_60
NOTE_OFF_57
TIME_SHIFT_64ND_7
VEL_2
NOTE_ON_65
VEL_3
NOTE_ON_72
VEL_2
NOTE_ON_62
VEL_1
NOTE_ON_57
TIME_SHIFT_64ND_7
NOTE_OFF_65
NOTE_OFF_72
NOTE_OFF_62
NOTE_OFF_57
TIME_SHIFT_64ND_7
VEL_2
NOTE_ON_66
VEL_3
NOTE_ON_72
VEL_2
NOTE_ON_57
VEL_2
NOTE_ON_63
TIME_SHIFT_64ND_7
NOTE_OFF_66
NOTE_OFF_72
NOTE_OFF_57
NOTE_OFF_63
TIME_SHIFT_64ND_7
VEL_3
NOTE_ON_72
VEL_2
NOTE_ON_67
VEL_2
NOTE_ON_59
VEL_2
NOTE_ON_64
VEL_2
NOTE_ON_52
TIME_SHIFT_64ND_4
NOTE_OFF_72
VEL_2
NOTE_ON_71
TIME_SHIFT_64ND_4
NOTE_OFF_71
VEL_2
NOTE_ON_69
TIME_SHIFT_64ND_4
NOTE_OFF_69
VEL_3
NOTE_ON_71
TIME_SHIFT_64ND_28
NOTE_OFF_71
NOTE_OFF_67
NOTE_OFF_59
NOTE_OFF_64
NOTE_OFF_52
VEL_3
NOTE_ON_71
VEL_2
NOTE_ON_65
VEL_2
NOTE_ON_60
VEL_2
NOTE_ON_53
TIME_SHIFT_64ND_4
NOTE_OFF_71
VEL_2
NOTE_ON_69
TIME_SHIFT_64ND_4
NOTE_OFF_69
VEL_2
NOTE_ON_67
TIME_SHIFT_64ND_4
NOTE_OFF_67
VEL_3
NOTE_ON_69
TIME_SHIFT_64ND_27
NOTE_OFF_69
NOTE_OFF_65
NOTE_OFF_60
NOTE_OFF_53
VEL_3
NOTE_ON_65
VEL_3
NOTE_ON_67
VEL_3
NOTE_ON_60
VEL_2
NOTE_ON_55
VEL_2
NOTE_ON_48
TIME_SHIFT_64ND_4
NOTE_OFF_65
VEL_3
NOTE_ON_64
TIME_SHIFT_64ND_4
VEL_3
NOTE_ON_62
NOTE_OFF_64
TIME_SHIFT_64ND_4
NOTE_OFF_62
VEL_3
NOTE_ON_64
TIME_SHIFT_64ND_27
NOTE_OFF_64
NOTE_OFF_67
NOTE_OFF_60
NOTE_OFF_55
VEL_3
NOTE_ON_65
VEL_3
NOTE_ON_60
VEL_2
NOTE_ON_50
VEL_3
NOTE_ON_57
NOTE_OFF_48
TIME_SHIFT_64ND_14
NOTE_OFF_65
NOTE_OFF_60
NOTE_OFF_50
NOTE_OFF_57
VEL_3
NOTE_ON_67
VEL_3
NOTE_ON_60
VEL_2
NOTE_ON_52
VEL_3
NOTE_ON_57
TIME_SHIFT_64ND_4
NOTE_OFF_67
NOTE_OFF_60
NOTE_OFF_52
NOTE_OFF_57
TIME_SHIFT_64ND_4
VEL_3
NOTE_ON_69
VEL_3
NOTE_ON_60
VEL_2
NOTE_ON_53
VEL_3
NOTE_ON_57
TIME_SHIFT_64ND_4
NOTE_OFF_69
NOTE_OFF_60
NOTE_OFF_53
NOTE_OFF_57
TIME_SHIFT_64ND_4
VEL_4
NOTE_ON_65
VEL_3
NOTE_ON_60
VEL_3
NOTE_ON_57
VEL_3
NOTE_ON_50
TIME_SHIFT_64ND_8
NOTE_OFF_65
NOTE_OFF_60
NOTE_OFF_57
NOTE_OFF_50
TIME_SHIFT_64ND_13
VEL_3
NOTE_ON_62
VEL_2
NOTE_ON_59
VEL_2
NOTE_ON_53
VEL_2
NOTE_ON_57
TIME_SHIFT_64ND_11
NOTE_OFF_62
NOTE_OFF_59
NOTE_OFF_53
NOTE_OFF_57
TIME_SHIFT_64ND_19
VEL_2
NOTE_ON_59
VEL_2
NOTE_ON_64
VEL_2
NOTE_ON_52
VEL_2
NOTE_ON_56
TIME_SHIFT_64ND_63
NOTE_OFF_59
NOTE_OFF_64
NOTE_OFF_52
NOTE_OFF_56
VEL_2
NOTE_ON_69
VEL_2
NOTE_ON_61
VEL_1
NOTE_ON_45
VEL_1
NOTE_ON_52
TIME_SHIFT_64ND_27
NOTE_OFF_69
VEL_3
NOTE_ON_71
TIME_SHIFT_64ND_7
NOTE_OFF_71
VEL_2
NOTE_ON_68
TIME_SHIFT_64ND_5
NOTE_OFF_68
VEL_2
NOTE_ON_69
TIME_SHIFT_64ND_2
NOTE_OFF_69
NOTE_OFF_61
VEL_2
NOTE_ON_66
VEL_2
NOTE_ON_62
TIME_SHIFT_64ND_7
NOTE_OFF_66
VEL_2
NOTE_ON_64
TIME_SHIFT_64ND_3
NOTE_OFF_64
TIME_SHIFT_64ND_3
VEL_2
NOTE_ON_64
TIME_SHIFT_64ND_28
NOTE_OFF_64
NOTE_OFF_62
NOTE_OFF_45
NOTE_OFF_52
VEL_2
NOTE_ON_69
VEL_2
NOTE_ON_61
VEL_1
NOTE_ON_45
VEL_1
NOTE_ON_52
TIME_SHIFT_64ND_14
NOTE_OFF_69
VEL_3
NOTE_ON_71
TIME_SHIFT_64ND_7
NOTE_OFF_71
VEL_3
NOTE_ON_73
TIME_SHIFT_64ND_7
NOTE_OFF_73
VEL_3
NOTE_ON_69
TIME_SHIFT_64ND_7
NOTE_OFF_69
VEL_2
NOTE_ON_66
TIME_SHIFT_64ND_5
NOTE_OFF_66
VEL_2
NOTE_ON_68
TIME_SHIFT_64ND_2
NOTE_OFF_68
NOTE_OFF_61
VEL_2
NOTE_ON_66
VEL_2
NOTE_ON_62
TIME_SHIFT_64ND_7
NOTE_OFF_66
VEL_2
NOTE_ON_64
TIME_SHIFT_64ND_3
NOTE_OFF_64
TIME_SHIFT_64ND_3
VEL_2
NOTE_ON_64
TIME_SHIFT_64ND_28
NOTE_OFF_64
NOTE_OFF_62
VEL_2
NOTE_ON_69
TIME_SHIFT_64ND_2
NOTE_OFF_69
NOTE_OFF_45
NOTE_OFF_52
VEL_2
NOTE_ON_66
VEL_2
NOTE_ON_61
VEL_1
NOTE_ON_45
VEL_1
NOTE_ON_52
TIME_SHIFT_64ND_4
NOTE_OFF_66
TIME_SHIFT_64ND_12
VEL_2
NOTE_ON_64
TIME_SHIFT_64ND_46
NOTE_OFF_64
NOTE_OFF_61
NOTE_OFF_45
NOTE_OFF_52
TIME_SHIFT_64ND_28
VEL_1
NOTE_ON_69
TIME_SHIFT_64ND_2
NOTE_OFF_69
VEL_2
NOTE_ON_65
VEL_2
NOTE_ON_60
VEL_1
NOTE_ON_45
VEL_1
NOTE_ON_52
TIME_SHIFT_64ND_4
NOTE_OFF_65
TIME_SHIFT_64ND_13
VEL_2
NOTE_ON_64
TIME_SHIFT_64ND_95
NOTE_OFF_64
NOTE_OFF_60
NOTE_OFF_45
NOTE_OFF_52
VEL_1
NOTE_ON_33
TIME_SHIFT_64ND_19
NOTE_OFF_33
