TIME_SHIFT_64ND_36
VEL_4
NOTE_ON_87
TIME_SHIFT_64ND_2
NOTE_OFF_87
VEL_4
NOTE_ON_86
TIME_SHIFT_64ND_10
NOTE_OFF_86
VEL_3
NOTE_ON_82
VEL_4
NOTE_ON_86
VEL_3
NOTE_ON_74
VEL_2
NOTE_ON_67
TIME_SHIFT_64ND_5
NOTE_OFF_82
VEL_4
NOTE_ON_79
TIME_SHIFT_64ND_5
NOTE_OFF_79
NOTE_OFF_86
VEL_4
NOTE_ON_81
VEL_3
NOTE_ON_79
VEL_3
NOTE_ON_72
TIME_SHIFT_64ND_10
NOTE_OFF_81
NOTE_OFF_79
NOTE_OFF_72
VEL_3
NOTE_ON_78
VEL_4
NOTE_ON_81
VEL_3
NOTE_ON_69
TIME_SHIFT_64ND_5
NOTE_OFF_78
VEL_4
NOTE_ON_74
TIME_SHIFT_64ND_3
NOTE_OFF_74
NOTE_OFF_81
NOTE_OFF_69
VEL_4
NOTE_ON_87
TIME_SHIFT_64ND_3
NOTE_OFF_87
NOTE_OFF_74
NOTE_OFF_67
VEL_4
NOTE_ON_86
TIME_SHIFT_64ND_10
NOTE_OFF_86
VEL_3
NOTE_ON_82
VEL_4
NOTE_ON_86
VEL_3
NOTE_ON_74
VEL_2
NOTE_ON_67
TIME_SHIFT_64ND_5
NOTE_OFF_82
VEL_4
NOTE_ON_79
TIME_SHIFT_64ND_5
NOTE_OFF_79
NOTE_OFF_86
VEL_4
NOTE_ON_81
VEL_4
NOTE_ON_79
VEL_3
NOTE_ON_72
TIME_SHIFT_64ND_10
NOTE_OFF_81
NOTE_OFF_79
NOTE_OFF_72
VEL_3
NOTE_ON_78
VEL_4
NOTE_ON_81
VEL_3
NOTE_ON_69
TIME_SHIFT_64ND_5
NOTE_OFF_78
VEL_4
NOTE_ON_74
TIME_SHIFT_64ND_5
NOTE_OFF_74
NOTE_OFF_81
NOTE_OFF_69
NOTE_OFF_74
NOTE_OFF_67
VEL_4
NOTE_ON_91
VEL_5
NOTE_ON_93
TIME_SHIFT_64ND_5
NOTE_OFF_91
VEL_4
NOTE_ON_90
TIME_SHIFT_64ND_5
NOTE_OFF_90
NOTE_OFF_93
VEL_4
NOTE_ON_86
VEL_4
NOTE_ON_79
VEL_4
NOTE_ON_81
TIME_SHIFT_64ND_5
NOTE_OFF_86
NOTE_OFF_79
VEL_3
NOTE_ON_78
TIME_SHIFT_64ND_5
NOTE_OFF_81
NOTE_OFF_78
VEL_3
NOTE_ON_79
VEL_4
NOTE_ON_81
VEL_4
NOTE_ON_74
TIME_SHIFT_64ND_5
NOTE_OFF_79
NOTE_OFF_74
VEL_3
NOTE_ON_78
TIME_SHIFT_64ND_5
NOTE_OFF_78
NOTE_OFF_81
VEL_3
NOTE_ON_74
VEL_3
NOTE_ON_67
VEL_4
NOTE_ON_69
TIME_SHIFT_64ND_5
NOTE_OFF_74
NOTE_OFF_67
VEL_3
NOTE_ON_66
TIME_SHIFT_64ND_5
NOTE_OFF_69
NOTE_OFF_66
VEL_3
NOTE_ON_67
VEL_3
NOTE_ON_69
VEL_3
NOTE_ON_62
TIME_SHIFT_64ND_6
NOTE_OFF_67
NOTE_OFF_62
VEL_3
NOTE_ON_66
TIME_SHIFT_64ND_6
NOTE_OFF_66
NOTE_OFF_69
VEL_3
NOTE_ON_62
VEL_2
NOTE_ON_50
TIME_SHIFT_64ND_6
NOTE_OFF_50
VEL_3
NOTE_ON_66
TIME_SHIFT_64ND_6
NOTE_OFF_66
NOTE_OFF_62
VEL_3
NOTE_ON_67
VEL_3
NOTE_ON_55
VEL_2
NOTE_ON_43
TIME_SHIFT_64ND_20
NOTE_OFF_67
NOTE_OFF_55
NOTE_OFF_43
VEL_3
NOTE_ON_75
TIME_SHIFT_64ND_2
NOTE_OFF_75
VEL_4
NOTE_ON_74
TIME_SHIFT_64ND_10
NOTE_OFF_74
VEL_3
NOTE_ON_70
VEL_4
NOTE_ON_74
VEL_2
NOTE_ON_62
VEL_2
NOTE_ON_55
TIME_SHIFT_64ND_5
NOTE_OFF_70
VEL_3
NOTE_ON_67
TIME_SHIFT_64ND_5
NOTE_OFF_67
NOTE_OFF_74
VEL_4
NOTE_ON_69
VEL_3
NOTE_ON_67
VEL_3
NOTE_ON_60
TIME_SHIFT_64ND_10
NOTE_OFF_69
NOTE_OFF_67
NOTE_OFF_60
VEL_3
NOTE_ON_66
VEL_3
NOTE_ON_69
VEL_2
NOTE_ON_57
TIME_SHIFT_64ND_5
NOTE_OFF_66
VEL_3
NOTE_ON_62
TIME_SHIFT_64ND_3
NOTE_OFF_62
NOTE_OFF_69
VEL_3
NOTE_ON_75
TIME_SHIFT_64ND_3
NOTE_OFF_75
NOTE_OFF_57
NOTE_OFF_62
NOTE_OFF_55
VEL_4
NOTE_ON_74
TIME_SHIFT_64ND_10
NOTE_OFF_74
VEL_3
NOTE_ON_70
VEL_4
NOTE_ON_74
VEL_2
NOTE_ON_62
VEL_2
NOTE_ON_55
TIME_SHIFT_64ND_5
NOTE_OFF_70
VEL_4
NOTE_ON_67
TIME_SHIFT_64ND_5
NOTE_OFF_67
NOTE_OFF_74
VEL_4
NOTE_ON_69
VEL_3
NOTE_ON_67
VEL_3
NOTE_ON_60
TIME_SHIFT_64ND_10
NOTE_OFF_69
NOTE_OFF_67
NOTE_OFF_60
VEL_3
NOTE_ON_66
VEL_4
NOTE_ON_69
VEL_2
NOTE_ON_57
TIME_SHIFT_64ND_5
NOTE_OFF_66
VEL_4
NOTE_ON_62
TIME_SHIFT_64ND_5
NOTE_OFF_62
NOTE_OFF_69
NOTE_OFF_57
NOTE_OFF_62
NOTE_OFF_55
VEL_3
NOTE_ON_79
VEL_4
NOTE_ON_81
TIME_SHIFT_64ND_5
NOTE_OFF_79
VEL_4
NOTE_ON_78
TIME_SHIFT_64ND_5
NOTE_OFF_78
NOTE_OFF_81
VEL_3
NOTE_ON_74
VEL_3
NOTE_ON_67
VEL_4
NOTE_ON_69
TIME_SHIFT_64ND_5
NOTE_OFF_74
NOTE_OFF_67
VEL_3
NOTE_ON_66
TIME_SHIFT_64ND_5
NOTE_OFF_69
NOTE_OFF_66
VEL_3
NOTE_ON_67
VEL_4
NOTE_ON_69
VEL_3
NOTE_ON_62
TIME_SHIFT_64ND_5
NOTE_OFF_67
NOTE_OFF_62
VEL_3
NOTE_ON_66
TIME_SHIFT_64ND_5
NOTE_OFF_66
NOTE_OFF_69
VEL_3
NOTE_ON_62
VEL_3
NOTE_ON_55
VEL_3
NOTE_ON_57
TIME_SHIFT_64ND_5
NOTE_OFF_62
NOTE_OFF_55
VEL_3
NOTE_ON_54
TIME_SHIFT_64ND_5
NOTE_OFF_57
NOTE_OFF_54
VEL_2
NOTE_ON_55
VEL_3
NOTE_ON_57
VEL_3
NOTE_ON_50
TIME_SHIFT_64ND_6
NOTE_OFF_55
NOTE_OFF_50
VEL_2
NOTE_ON_54
TIME_SHIFT_64ND_6
NOTE_OFF_54
NOTE_OFF_57
VEL_3
NOTE_ON_50
VEL_2
NOTE_ON_38
TIME_SHIFT_64ND_6
NOTE_OFF_38
VEL_2
NOTE_ON_54
TIME_SHIFT_64ND_7
NOTE_OFF_54
NOTE_OFF_50
VEL_3
NOTE_ON_55
VEL_2
NOTE_ON_43
VEL_2
NOTE_ON_31
TIME_SHIFT_64ND_20
NOTE_OFF_55
NOTE_OFF_43
NOTE_OFF_31
VEL_3
NOTE_ON_79
TIME_SHIFT_64ND_2
NOTE_OFF_79
VEL_3
NOTE_ON_77
TIME_SHIFT_64ND_5
NOTE_OFF_77
TIME_SHIFT_64ND_5
VEL_3
NOTE_ON_77
VEL_2
NOTE_ON_65
VEL_1
NOTE_ON_58
TIME_SHIFT_64ND_5
VEL_3
NOTE_ON_74
TIME_SHIFT_64ND_5
NOTE_OFF_74
NOTE_OFF_77
VEL_3
NOTE_ON_75
VEL_2
NOTE_ON_67
TIME_SHIFT_64ND_10
NOTE_OFF_75
NOTE_OFF_67
VEL_3
NOTE_ON_75
VEL_2
NOTE_ON_77
VEL_2
NOTE_ON_69
TIME_SHIFT_64ND_5
NOTE_OFF_75
VEL_3
NOTE_ON_72
TIME_SHIFT_64ND_5
NOTE_OFF_72
NOTE_OFF_69
NOTE_OFF_65
NOTE_OFF_58
VEL_3
NOTE_ON_74
TIME_SHIFT_64ND_10
NOTE_OFF_74
NOTE_OFF_77
VEL_3
NOTE_ON_74
VEL_2
NOTE_ON_77
VEL_2
NOTE_ON_65
VEL_1
NOTE_ON_58
TIME_SHIFT_64ND_5
NOTE_OFF_74
VEL_3
NOTE_ON_70
TIME_SHIFT_64ND_5
NOTE_OFF_70
VEL_3
NOTE_ON_72
VEL_2
NOTE_ON_63
TIME_SHIFT_64ND_10
NOTE_OFF_72
NOTE_OFF_77
NOTE_OFF_63
VEL_3
NOTE_ON_72
VEL_2
NOTE_ON_77
VEL_2
NOTE_ON_60
TIME_SHIFT_64ND_5
NOTE_OFF_72
VEL_3
NOTE_ON_69
TIME_SHIFT_64ND_5
NOTE_OFF_69
NOTE_OFF_60
VEL_3
NOTE_ON_70
VEL_2
NOTE_ON_62
TIME_SHIFT_64ND_13
NOTE_OFF_70
NOTE_OFF_77
NOTE_OFF_62
NOTE_OFF_65
NOTE_OFF_58
VEL_2
NOTE_ON_77
VEL_2
NOTE_ON_53
TIME_SHIFT_64ND_5
NOTE_OFF_77
NOTE_OFF_53
VEL_2
NOTE_ON_82
VEL_2
NOTE_ON_46
TIME_SHIFT_64ND_5
NOTE_OFF_82
NOTE_OFF_46
VEL_2
NOTE_ON_70
VEL_2
NOTE_ON_62
TIME_SHIFT_64ND_5
NOTE_OFF_70
NOTE_OFF_62
TIME_SHIFT_64ND_5
VEL_2
NOTE_ON_77
VEL_2
NOTE_ON_53
TIME_SHIFT_64ND_5
NOTE_OFF_77
NOTE_OFF_53
VEL_2
NOTE_ON_82
VEL_2
NOTE_ON_46
TIME_SHIFT_64ND_5
NOTE_OFF_82
NOTE_OFF_46
VEL_2
NOTE_ON_70
VEL_2
NOTE_ON_62
TIME_SHIFT_64ND_5
NOTE_OFF_70
NOTE_OFF_62
TIME_SHIFT_64ND_5
VEL_2
NOTE_ON_77
VEL_2
NOTE_ON_53
TIME_SHIFT_64ND_6
NOTE_OFF_77
NOTE_OFF_53
VEL_2
NOTE_ON_82
VEL_2
NOTE_ON_46
TIME_SHIFT_64ND_7
NOTE_OFF_82
NOTE_OFF_46
VEL_2
NOTE_ON_70
VEL_2
NOTE_ON_62
TIME_SHIFT_64ND_6
NOTE_OFF_70
NOTE_OFF_62
TIME_SHIFT_64ND_15
VEL_2
NOTE_ON_67
TIME_SHIFT_64ND_2
NOTE_OFF_67
VEL_3
NOTE_ON_65
TIME_SHIFT_64ND_5
NOTE_OFF_65
TIME_SHIFT_64ND_5
VEL_3
NOTE_ON_65
VEL_2
NOTE_ON_53
VEL_1
NOTE_ON_46
TIME_SHIFT_64ND_5
VEL_2
NOTE_ON_62
TIME_SHIFT_64ND_5
NOTE_OFF_62
NOTE_OFF_65
VEL_3
NOTE_ON_63
VEL_2
NOTE_ON_55
TIME_SHIFT_64ND_10
NOTE_OFF_63
NOTE_OFF_55
VEL_3
NOTE_ON_63
VEL_2
NOTE_ON_65
VEL_2
NOTE_ON_57
TIME_SHIFT_64ND_5
NOTE_OFF_63
VEL_2
NOTE_ON_60
TIME_SHIFT_64ND_5
NOTE_OFF_60
NOTE_OFF_57
NOTE_OFF_53
NOTE_OFF_46
VEL_3
NOTE_ON_62
TIME_SHIFT_64ND_10
NOTE_OFF_62
NOTE_OFF_65
VEL_3
NOTE_ON_62
VEL_2
NOTE_ON_65
VEL_2
NOTE_ON_53
VEL_1
NOTE_ON_46
TIME_SHIFT_64ND_5
NOTE_OFF_62
VEL_2
NOTE_ON_58
TIME_SHIFT_64ND_5
NOTE_OFF_58
VEL_3
NOTE_ON_60
VEL_1
NOTE_ON_51
TIME_SHIFT_64ND_10
NOTE_OFF_60
NOTE_OFF_65
NOTE_OFF_51
VEL_3
NOTE_ON_60
VEL_2
NOTE_ON_65
VEL_1
NOTE_ON_48
TIME_SHIFT_64ND_5
NOTE_OFF_60
VEL_2
NOTE_ON_57
TIME_SHIFT_64ND_5
NOTE_OFF_57
NOTE_OFF_48
VEL_3
NOTE_ON_58
VEL_2
NOTE_ON_50
TIME_SHIFT_64ND_13
NOTE_OFF_58
NOTE_OFF_65
NOTE_OFF_50
NOTE_OFF_53
NOTE_OFF_46
VEL_2
NOTE_ON_69
VEL_2
NOTE_ON_45
TIME_SHIFT_64ND_5
NOTE_OFF_69
NOTE_OFF_45
VEL_2
NOTE_ON_74
VEL_1
NOTE_ON_38
TIME_SHIFT_64ND_5
NOTE_OFF_74
NOTE_OFF_38
VEL_2
NOTE_ON_62
VEL_1
NOTE_ON_54
TIME_SHIFT_64ND_6
NOTE_OFF_62
NOTE_OFF_54
TIME_SHIFT_64ND_6
VEL_2
NOTE_ON_69
VEL_2
NOTE_ON_45
TIME_SHIFT_64ND_6
NOTE_OFF_69
NOTE_OFF_45
VEL_2
NOTE_ON_74
VEL_1
NOTE_ON_38
TIME_SHIFT_64ND_6
NOTE_OFF_74
NOTE_OFF_38
VEL_2
NOTE_ON_62
VEL_1
NOTE_ON_54
TIME_SHIFT_64ND_7
NOTE_OFF_62
NOTE_OFF_54
TIME_SHIFT_64ND_7
VEL_2
NOTE_ON_69
VEL_2
NOTE_ON_45
TIME_SHIFT_64ND_8
NOTE_OFF_69
NOTE_OFF_45
VEL_2
NOTE_ON_74
VEL_1
NOTE_ON_38
TIME_SHIFT_64ND_10
NOTE_OFF_74
NOTE_OFF_38
VEL_2
NOTE_ON_62
VEL_2
NOTE_ON_54
TIME_SHIFT_64ND_6
NOTE_OFF_62
NOTE_OFF_54
TIME_SHIFT_64ND_16
VEL_3
NOTE_ON_63
TIME_SHIFT_64ND_3
NOTE_OFF_63
VEL_3
NOTE_ON_62
TIME_SHIFT_64ND_18
NOTE_OFF_62
VEL_3
NOTE_ON_70
TIME_SHIFT_64ND_3
NOTE_OFF_70
VEL_3
NOTE_ON_69
TIME_SHIFT_64ND_18
NOTE_OFF_69
VEL_3
NOTE_ON_75
TIME_SHIFT_64ND_3
NOTE_OFF_75
VEL_4
NOTE_ON_74
TIME_SHIFT_64ND_18
NOTE_OFF_74
VEL_3
NOTE_ON_82
TIME_SHIFT_64ND_3
NOTE_OFF_82
VEL_4
NOTE_ON_81
TIME_SHIFT_64ND_18
NOTE_OFF_81
VEL_4
NOTE_ON_87
TIME_SHIFT_64ND_2
NOTE_OFF_87
VEL_4
NOTE_ON_86
TIME_SHIFT_64ND_10
NOTE_OFF_86
VEL_3
NOTE_ON_82
VEL_4
NOTE_ON_86
VEL_3
NOTE_ON_74
VEL_2
NOTE_ON_67
TIME_SHIFT_64ND_5
NOTE_OFF_82
VEL_4
NOTE_ON_79
TIME_SHIFT_64ND_5
NOTE_OFF_79
NOTE_OFF_86
VEL_4
NOTE_ON_81
VEL_3
NOTE_ON_79
VEL_3
NOTE_ON_72
TIME_SHIFT_64ND_10
NOTE_OFF_81
NOTE_OFF_79
NOTE_OFF_72
VEL_3
NOTE_ON_78
VEL_4
NOTE_ON_81
VEL_3
NOTE_ON_69
TIME_SHIFT_64ND_5
NOTE_OFF_78
VEL_4
NOTE_ON_74
TIME_SHIFT_64ND_3
NOTE_OFF_74
NOTE_OFF_81
NOTE_OFF_69
VEL_4
NOTE_ON_87
TIME_SHIFT_64ND_3
NOTE_OFF_87
NOTE_OFF_74
NOTE_OFF_67
VEL_4
NOTE_ON_86
TIME_SHIFT_64ND_10
NOTE_OFF_86
VEL_3
NOTE_ON_82
VEL_4
NOTE_ON_86
VEL_3
NOTE_ON_74
VEL_2
NOTE_ON_67
TIME_SHIFT_64ND_5
NOTE_OFF_82
VEL_4
NOTE_ON_79
TIME_SHIFT_64ND_5
NOTE_OFF_79
NOTE_OFF_86
VEL_4
NOTE_ON_81
VEL_4
NOTE_ON_79
VEL_3
NOTE_ON_72
TIME_SHIFT_64ND_10
NOTE_OFF_81
NOTE_OFF_79
NOTE_OFF_72
VEL_3
NOTE_ON_78
VEL_4
NOTE_ON_81
VEL_3
NOTE_ON_69
TIME_SHIFT_64ND_5
NOTE_OFF_78
VEL_4
NOTE_ON_74
TIME_SHIFT_64ND_5
NOTE_OFF_74
NOTE_OFF_81
NOTE_OFF_69
NOTE_OFF_74
NOTE_OFF_67
VEL_4
NOTE_ON_79
VEL_5
NOTE_ON_81
TIME_SHIFT_64ND_5
NOTE_OFF_79
VEL_4
NOTE_ON_78
TIME_SHIFT_64ND_5
NOTE_OFF_78
NOTE_OFF_81
VEL_4
NOTE_ON_74
VEL_4
NOTE_ON_67
VEL_4
NOTE_ON_69
TIME_SHIFT_64ND_5
NOTE_OFF_74
NOTE_OFF_67
VEL_3
NOTE_ON_66
TIME_SHIFT_64ND_5
NOTE_OFF_69
NOTE_OFF_66
VEL_3
NOTE_ON_67
VEL_4
NOTE_ON_69
VEL_4
NOTE_ON_62
TIME_SHIFT_64ND_5
NOTE_OFF_67
NOTE_OFF_62
VEL_3
NOTE_ON_66
TIME_SHIFT_64ND_5
NOTE_OFF_66
NOTE_OFF_69
VEL_3
NOTE_ON_62
VEL_3
NOTE_ON_55
VEL_4
NOTE_ON_57
TIME_SHIFT_64ND_5
NOTE_OFF_62
NOTE_OFF_55
VEL_3
NOTE_ON_54
TIME_SHIFT_64ND_5
NOTE_OFF_57
NOTE_OFF_54
VEL_3
NOTE_ON_55
VEL_3
NOTE_ON_57
VEL_3
NOTE_ON_50
TIME_SHIFT_64ND_6
NOTE_OFF_55
NOTE_OFF_50
VEL_3
NOTE_ON_54
TIME_SHIFT_64ND_6
NOTE_OFF_54
NOTE_OFF_57
VEL_3
NOTE_ON_50
VEL_2
NOTE_ON_38
TIME_SHIFT_64ND_7
NOTE_OFF_38
VEL_3
NOTE_ON_54
TIME_SHIFT_64ND_6
NOTE_OFF_54
NOTE_OFF_50
VEL_3
NOTE_ON_55
VEL_3
NOTE_ON_43
VEL_2
NOTE_ON_31
TIME_SHIFT_64ND_20
NOTE_OFF_55
NOTE_OFF_43
NOTE_OFF_31
VEL_3
NOTE_ON_79
TIME_SHIFT_64ND_2
NOTE_OFF_79
VEL_3
NOTE_ON_77
TIME_SHIFT_64ND_5
NOTE_OFF_77
TIME_SHIFT_64ND_5
VEL_3
NOTE_ON_77
VEL_2
NOTE_ON_65
VEL_1
NOTE_ON_58
TIME_SHIFT_64ND_5
VEL_3
NOTE_ON_74
TIME_SHIFT_64ND_5
NOTE_OFF_74
NOTE_OFF_77
VEL_3
NOTE_ON_75
VEL_2
NOTE_ON_67
TIME_SHIFT_64ND_10
NOTE_OFF_75
NOTE_OFF_67
VEL_3
NOTE_ON_75
VEL_2
NOTE_ON_77
VEL_2
NOTE_ON_69
TIME_SHIFT_64ND_5
NOTE_OFF_75
VEL_3
NOTE_ON_72
TIME_SHIFT_64ND_5
NOTE_OFF_72
NOTE_OFF_69
NOTE_OFF_65
NOTE_OFF_58
VEL_3
NOTE_ON_74
TIME_SHIFT_64ND_10
NOTE_OFF_74
NOTE_OFF_77
VEL_3
NOTE_ON_74
VEL_2
NOTE_ON_77
VEL_2
NOTE_ON_65
VEL_1
NOTE_ON_58
TIME_SHIFT_64ND_5
NOTE_OFF_74
VEL_3
NOTE_ON_70
TIME_SHIFT_64ND_5
NOTE_OFF_70
VEL_3
NOTE_ON_72
VEL_2
NOTE_ON_63
TIME_SHIFT_64ND_10
NOTE_OFF_72
NOTE_OFF_77
NOTE_OFF_63
VEL_3
NOTE_ON_72
VEL_2
NOTE_ON_77
VEL_2
NOTE_ON_60
TIME_SHIFT_64ND_5
NOTE_OFF_72
VEL_3
NOTE_ON_69
TIME_SHIFT_64ND_5
NOTE_OFF_69
NOTE_OFF_60
VEL_3
NOTE_ON_70
VEL_2
NOTE_ON_62
TIME_SHIFT_64ND_13
NOTE_OFF_70
NOTE_OFF_77
NOTE_OFF_62
NOTE_OFF_65
NOTE_OFF_58
VEL_2
NOTE_ON_77
VEL_2
NOTE_ON_53
TIME_SHIFT_64ND_5
NOTE_OFF_77
NOTE_OFF_53
VEL_2
NOTE_ON_82
VEL_2
NOTE_ON_46
TIME_SHIFT_64ND_5
NOTE_OFF_82
NOTE_OFF_46
VEL_2
NOTE_ON_70
VEL_2
NOTE_ON_62
TIME_SHIFT_64ND_5
NOTE_OFF_70
NOTE_OFF_62
TIME_SHIFT_64ND_5
VEL_2
NOTE_ON_77
VEL_2
NOTE_ON_53
TIME_SHIFT_64ND_5
NOTE_OFF_77
NOTE_OFF_53
VEL_2
NOTE_ON_82
VEL_2
NOTE_ON_46
TIME_SHIFT_64ND_5
NOTE_OFF_82
NOTE_OFF_46
VEL_2
NOTE_ON_70
VEL_2
NOTE_ON_62
TIME_SHIFT_64ND_6
NOTE_OFF_70
NOTE_OFF_62
TIME_SHIFT_64ND_6
VEL_2
NOTE_ON_77
VEL_2
NOTE_ON_53
TIME_SHIFT_64ND_6
NOTE_OFF_77
NOTE_OFF_53
VEL_2
NOTE_ON_82
VEL_2
NOTE_ON_46
TIME_SHIFT_64ND_7
NOTE_OFF_82
NOTE_OFF_46
VEL_2
NOTE_ON_70
VEL_2
NOTE_ON_62
TIME_SHIFT_64ND_6
NOTE_OFF_70
NOTE_OFF_62
TIME_SHIFT_64ND_15
VEL_2
NOTE_ON_67
TIME_SHIFT_64ND_2
NOTE_OFF_67
VEL_3
NOTE_ON_65
TIME_SHIFT_64ND_5
NOTE_OFF_65
TIME_SHIFT_64ND_5
VEL_3
NOTE_ON_65
VEL_2
NOTE_ON_53
VEL_1
NOTE_ON_46
TIME_SHIFT_64ND_5
VEL_2
NOTE_ON_62
TIME_SHIFT_64ND_5
NOTE_OFF_62
NOTE_OFF_65
VEL_3
NOTE_ON_63
VEL_2
NOTE_ON_55
TIME_SHIFT_64ND_10
NOTE_OFF_63
NOTE_OFF_55
VEL_3
NOTE_ON_63
VEL_2
NOTE_ON_65
VEL_2
NOTE_ON_57
TIME_SHIFT_64ND_5
NOTE_OFF_63
VEL_2
NOTE_ON_60
TIME_SHIFT_64ND_5
NOTE_OFF_60
NOTE_OFF_57
NOTE_OFF_53
NOTE_OFF_46
VEL_3
NOTE_ON_62
TIME_SHIFT_64ND_10
NOTE_OFF_62
NOTE_OFF_65
VEL_3
NOTE_ON_62
VEL_2
NOTE_ON_65
VEL_2
NOTE_ON_53
VEL_1
NOTE_ON_46
TIME_SHIFT_64ND_5
NOTE_OFF_62
VEL_2
NOTE_ON_58
TIME_SHIFT_64ND_5
NOTE_OFF_58
VEL_3
NOTE_ON_60
VEL_1
NOTE_ON_51
TIME_SHIFT_64ND_10
NOTE_OFF_60
NOTE_OFF_65
NOTE_OFF_51
VEL_3
NOTE_ON_60
VEL_2
NOTE_ON_65
VEL_1
NOTE_ON_48
TIME_SHIFT_64ND_5
NOTE_OFF_60
VEL_2
NOTE_ON_57
TIME_SHIFT_64ND_5
NOTE_OFF_57
NOTE_OFF_48
VEL_3
NOTE_ON_58
VEL_2
NOTE_ON_50
TIME_SHIFT_64ND_13
NOTE_OFF_58
NOTE_OFF_65
NOTE_OFF_50
NOTE_OFF_53
NOTE_OFF_46
VEL_2
NOTE_ON_69
VEL_2
NOTE_ON_45
TIME_SHIFT_64ND_5
NOTE_OFF_69
NOTE_OFF_45
VEL_2
NOTE_ON_74
VEL_1
NOTE_ON_38
TIME_SHIFT_64ND_5
NOTE_OFF_74
NOTE_OFF_38
VEL_2
NOTE_ON_62
VEL_1
NOTE_ON_54
TIME_SHIFT_64ND_6
NOTE_OFF_62
NOTE_OFF_54
TIME_SHIFT_64ND_6
VEL_2
NOTE_ON_69
VEL_2
NOTE_ON_45
TIME_SHIFT_64ND_6
NOTE_OFF_69
NOTE_OFF_45
VEL_2
NOTE_ON_74
VEL_1
NOTE_ON_38
TIME_SHIFT_64ND_6
NOTE_OFF_74
NOTE_OFF_38
VEL_2
NOTE_ON_62
VEL_1
NOTE_ON_54
TIME_SHIFT_64ND_7
NOTE_OFF_62
NOTE_OFF_54
TIME_SHIFT_64ND_7
VEL_2
NOTE_ON_69
VEL_2
NOTE_ON_45
TIME_SHIFT_64ND_8
NOTE_OFF_69
NOTE_OFF_45
VEL_2
NOTE_ON_74
VEL_1
NOTE_ON_38
TIME_SHIFT_64ND_9
NOTE_OFF_74
NOTE_OFF_38
VEL_2
NOTE_ON_62
VEL_2
NOTE_ON_54
TIME_SHIFT_64ND_7
NOTE_OFF_62
NOTE_OFF_54
TIME_SHIFT_64ND_16
VEL_3
NOTE_ON_63
TIME_SHIFT_64ND_3
NOTE_OFF_63
VEL_3
NOTE_ON_62
TIME_SHIFT_64ND_18
NOTE_OFF_62
VEL_3
NOTE_ON_70
TIME_SHIFT_64ND_3
NOTE_OFF_70
VEL_3
NOTE_ON_69
TIME_SHIFT_64ND_18
NOTE_OFF_69
VEL_3
NOTE_ON_75
TIME_SHIFT_64ND_3
NOTE_OFF_75
VEL_4
NOTE_ON_74
TIME_SHIFT_64ND_18
NOTE_OFF_74
VEL_3
NOTE_ON_82
TIME_SHIFT_64ND_3
NOTE_OFF_82
VEL_4
NOTE_ON_81
TIME_SHIFT_64ND_18
NOTE_OFF_81
VEL_4
NOTE_ON_87
TIME_SHIFT_64ND_2
NOTE_OFF_87
VEL_4
NOTE_ON_86
TIME_SHIFT_64ND_10
NOTE_OFF_86
VEL_3
NOTE_ON_82
VEL_4
NOTE_ON_86
VEL_3
NOTE_ON_74
VEL_2
NOTE_ON_67
TIME_SHIFT_64ND_5
NOTE_OFF_82
VEL_4
NOTE_ON_79
TIME_SHIFT_64ND_5
NOTE_OFF_79
NOTE_OFF_86
VEL_4
NOTE_ON_81
VEL_3
NOTE_ON_79
VEL_3
NOTE_ON_72
TIME_SHIFT_64ND_10
NOTE_OFF_81
NOTE_OFF_79
NOTE_OFF_72
VEL_3
NOTE_ON_78
VEL_4
NOTE_ON_81
VEL_3
NOTE_ON_69
TIME_SHIFT_64ND_5
NOTE_OFF_78
VEL_3
NOTE_ON_74
TIME_SHIFT_64ND_3
NOTE_OFF_74
NOTE_OFF_81
VEL_3
NOTE_ON_75
TIME_SHIFT_64ND_2
NOTE_OFF_74
NOTE_OFF_75
NOTE_OFF_69
NOTE_OFF_67
VEL_4
NOTE_ON_74
TIME_SHIFT_64ND_10
NOTE_OFF_74
VEL_3
NOTE_ON_70
VEL_4
NOTE_ON_74
VEL_2
NOTE_ON_62
VEL_2
NOTE_ON_55
TIME_SHIFT_64ND_5
NOTE_OFF_70
VEL_4
NOTE_ON_67
TIME_SHIFT_64ND_5
NOTE_OFF_67
NOTE_OFF_74
VEL_4
NOTE_ON_69
VEL_3
NOTE_ON_67
VEL_3
NOTE_ON_60
TIME_SHIFT_64ND_10
NOTE_OFF_69
NOTE_OFF_67
NOTE_OFF_60
VEL_3
NOTE_ON_66
VEL_4
NOTE_ON_69
VEL_2
NOTE_ON_57
TIME_SHIFT_64ND_5
NOTE_OFF_66
VEL_4
NOTE_ON_62
TIME_SHIFT_64ND_5
NOTE_OFF_62
NOTE_OFF_69
NOTE_OFF_57
NOTE_OFF_62
NOTE_OFF_55
VEL_3
NOTE_ON_79
VEL_4
NOTE_ON_81
TIME_SHIFT_64ND_5
NOTE_OFF_79
VEL_3
NOTE_ON_78
TIME_SHIFT_64ND_5
NOTE_OFF_78
NOTE_OFF_81
VEL_3
NOTE_ON_74
VEL_3
NOTE_ON_67
VEL_4
NOTE_ON_69
TIME_SHIFT_64ND_5
NOTE_OFF_74
NOTE_OFF_67
VEL_3
NOTE_ON_66
TIME_SHIFT_64ND_5
NOTE_OFF_69
NOTE_OFF_66
VEL_3
NOTE_ON_67
VEL_3
NOTE_ON_69
VEL_3
NOTE_ON_62
TIME_SHIFT_64ND_5
NOTE_OFF_67
NOTE_OFF_62
VEL_2
NOTE_ON_66
TIME_SHIFT_64ND_5
NOTE_OFF_66
NOTE_OFF_69
VEL_2
NOTE_ON_62
VEL_2
NOTE_ON_55
VEL_3
NOTE_ON_57
TIME_SHIFT_64ND_5
NOTE_OFF_62
NOTE_OFF_55
VEL_2
NOTE_ON_54
TIME_SHIFT_64ND_6
NOTE_OFF_57
NOTE_OFF_54
VEL_2
NOTE_ON_55
VEL_2
NOTE_ON_57
VEL_2
NOTE_ON_50
TIME_SHIFT_64ND_6
NOTE_OFF_55
NOTE_OFF_50
VEL_2
NOTE_ON_54
TIME_SHIFT_64ND_7
NOTE_OFF_54
NOTE_OFF_57
VEL_2
NOTE_ON_50
VEL_1
NOTE_ON_38
TIME_SHIFT_64ND_8
NOTE_OFF_38
VEL_2
NOTE_ON_54
TIME_SHIFT_64ND_11
NOTE_OFF_54
NOTE_OFF_50
VEL_2
NOTE_ON_55
VEL_1
NOTE_ON_43
VEL_1
NOTE_ON_31
TIME_SHIFT_64ND_43
NOTE_OFF_55
NOTE_OFF_43
NOTE_OFF_31
